{
    "header": {
      "name": "",
      "ppq": 192,
      "meta": [
        {
          "type": "portPrefix",
          "ticks": 0
        },
        {
          "type": "portPrefix",
          "ticks": 0
        },
        {
          "type": "keySignature",
          "ticks": 0
        }
      ],
      "tempos": [
        {
          "ticks": 0,
          "bpm": 113.99995440001824
        }
      ],
      "timeSignatures": [
        {
          "ticks": 0,
          "timeSignature": [
            4,
            4
          ],
          "measures": 0
        }
      ]
    },
    "tracks": [
      {
        "name": "",
        "channel": 0,
        "instrument": {
          "number": 0,
          "name": "acoustic grand piano",
          "family": "piano"
        },
        "notes": [],
        "controlChanges": {}
      },
      {
        "name": "",
        "channel": 0,
        "instrument": {
          "number": 0,
          "name": "acoustic grand piano",
          "family": "piano"
        },
        "notes": [],
        "controlChanges": {}
      },
      {
        "name": "Drums",
        "channel": 0,
        "instrument": {
          "number": 0,
          "name": "acoustic grand piano",
          "family": "piano"
        },
        "notes": [
          {
            "time": 2.105264,
            "midi": 37,
            "name": "C#2",
            "velocity": 0.6535433070866141,
            "duration": 0.0027412291666664146,
            "ticks": 768,
            "durationTicks": 1
          },
          {
            "time": 2.63158,
            "midi": 37,
            "name": "C#2",
            "velocity": 0.7874015748031497,
            "duration": 0.0027412291666664146,
            "ticks": 960,
            "durationTicks": 1
          },
          {
            "time": 3.157896,
            "midi": 37,
            "name": "C#2",
            "velocity": 0.7874015748031497,
            "duration": 0.0027412291666664146,
            "ticks": 1152,
            "durationTicks": 1
          },
          {
            "time": 3.684212,
            "midi": 37,
            "name": "C#2",
            "velocity": 0.9133858267716536,
            "duration": 0.0027412291666664146,
            "ticks": 1344,
            "durationTicks": 1
          },
          {
            "time": 4.210528,
            "midi": 37,
            "name": "C#2",
            "velocity": 0.9133858267716536,
            "duration": 0.0027412291666673028,
            "ticks": 1536,
            "durationTicks": 1
          },
          {
            "time": 4.736844,
            "midi": 37,
            "name": "C#2",
            "velocity": 0.9133858267716536,
            "duration": 0.0027412291666673028,
            "ticks": 1728,
            "durationTicks": 1
          },
          {
            "time": 5.000002,
            "midi": 48,
            "name": "C3",
            "velocity": 0.9606299212598425,
            "duration": 0.0027412291666664146,
            "ticks": 1824,
            "durationTicks": 1
          },
          {
            "time": 5.131581,
            "midi": 48,
            "name": "C3",
            "velocity": 0.9606299212598425,
            "duration": 0.0027412291666673028,
            "ticks": 1872,
            "durationTicks": 1
          },
          {
            "time": 5.394739,
            "midi": 48,
            "name": "C3",
            "velocity": 0.9606299212598425,
            "duration": 0.0027412291666664146,
            "ticks": 1968,
            "durationTicks": 1
          },
          {
            "time": 5.526318,
            "midi": 48,
            "name": "C3",
            "velocity": 0.9606299212598425,
            "duration": 0.0027412291666673028,
            "ticks": 2016,
            "durationTicks": 1
          },
          {
            "time": 5.657897,
            "midi": 48,
            "name": "C3",
            "velocity": 0.9606299212598425,
            "duration": 0.0027412291666673028,
            "ticks": 2064,
            "durationTicks": 1
          },
          {
            "time": 5.7894760000000005,
            "midi": 45,
            "name": "A2",
            "velocity": 0.9606299212598425,
            "duration": 0.0027412291666664146,
            "ticks": 2112,
            "durationTicks": 1
          },
          {
            "time": 5.921055,
            "midi": 45,
            "name": "A2",
            "velocity": 0.9606299212598425,
            "duration": 0.0027412291666673028,
            "ticks": 2160,
            "durationTicks": 1
          },
          {
            "time": 6.052634,
            "midi": 41,
            "name": "F2",
            "velocity": 0.9606299212598425,
            "duration": 0.0027412291666664146,
            "ticks": 2208,
            "durationTicks": 1
          },
          {
            "time": 6.184213,
            "midi": 41,
            "name": "F2",
            "velocity": 0.9606299212598425,
            "duration": 0.0027412291666673028,
            "ticks": 2256,
            "durationTicks": 1
          },
          {
            "time": 6.315792,
            "midi": 42,
            "name": "F#2",
            "velocity": 0.9606299212598425,
            "duration": 0.0027412291666673028,
            "ticks": 2304,
            "durationTicks": 1
          },
          {
            "time": 6.315792,
            "midi": 36,
            "name": "C2",
            "velocity": 1,
            "duration": 0.0027412291666673028,
            "ticks": 2304,
            "durationTicks": 1
          },
          {
            "time": 6.57895,
            "midi": 42,
            "name": "F#2",
            "velocity": 0.4251968503937008,
            "duration": 0.0027412291666673028,
            "ticks": 2400,
            "durationTicks": 1
          },
          {
            "time": 6.710529,
            "midi": 42,
            "name": "F#2",
            "velocity": 0.7874015748031497,
            "duration": 0.0027412291666673028,
            "ticks": 2448,
            "durationTicks": 1
          },
          {
            "time": 6.842108,
            "midi": 42,
            "name": "F#2",
            "velocity": 0.9133858267716536,
            "duration": 0.0027412291666673028,
            "ticks": 2496,
            "durationTicks": 1
          },
          {
            "time": 6.842108,
            "midi": 38,
            "name": "D2",
            "velocity": 0.8818897637795275,
            "duration": 0.0027412291666673028,
            "ticks": 2496,
            "durationTicks": 1
          },
          {
            "time": 6.842108,
            "midi": 36,
            "name": "C2",
            "velocity": 1,
            "duration": 0.0027412291666673028,
            "ticks": 2496,
            "durationTicks": 1
          },
          {
            "time": 6.842108,
            "midi": 39,
            "name": "D#2",
            "velocity": 0.7874015748031497,
            "duration": 0.0027412291666673028,
            "ticks": 2496,
            "durationTicks": 1
          },
          {
            "time": 7.105266,
            "midi": 42,
            "name": "F#2",
            "velocity": 0.31496062992125984,
            "duration": 0.0027412291666664146,
            "ticks": 2592,
            "durationTicks": 1
          },
          {
            "time": 7.236845,
            "midi": 42,
            "name": "F#2",
            "velocity": 0.6535433070866141,
            "duration": 0.0027412291666673028,
            "ticks": 2640,
            "durationTicks": 1
          },
          {
            "time": 7.368424,
            "midi": 42,
            "name": "F#2",
            "velocity": 0.9133858267716536,
            "duration": 0.0027412291666673028,
            "ticks": 2688,
            "durationTicks": 1
          },
          {
            "time": 7.368424,
            "midi": 36,
            "name": "C2",
            "velocity": 1,
            "duration": 0.0027412291666673028,
            "ticks": 2688,
            "durationTicks": 1
          },
          {
            "time": 7.631582,
            "midi": 42,
            "name": "F#2",
            "velocity": 0.3779527559055118,
            "duration": 0.0027412291666673028,
            "ticks": 2784,
            "durationTicks": 1
          },
          {
            "time": 7.763161,
            "midi": 42,
            "name": "F#2",
            "velocity": 0.5590551181102362,
            "duration": 0.0027412291666673028,
            "ticks": 2832,
            "durationTicks": 1
          },
          {
            "time": 7.8947400000000005,
            "midi": 42,
            "name": "F#2",
            "velocity": 0.9133858267716536,
            "duration": 0.0027412291666664146,
            "ticks": 2880,
            "durationTicks": 1
          },
          {
            "time": 7.8947400000000005,
            "midi": 38,
            "name": "D2",
            "velocity": 0.9763779527559056,
            "duration": 0.0027412291666664146,
            "ticks": 2880,
            "durationTicks": 1
          },
          {
            "time": 7.8947400000000005,
            "midi": 36,
            "name": "C2",
            "velocity": 1,
            "duration": 0.0027412291666664146,
            "ticks": 2880,
            "durationTicks": 1
          },
          {
            "time": 7.8947400000000005,
            "midi": 39,
            "name": "D#2",
            "velocity": 0.9133858267716536,
            "duration": 0.0027412291666664146,
            "ticks": 2880,
            "durationTicks": 1
          },
          {
            "time": 8.157898,
            "midi": 42,
            "name": "F#2",
            "velocity": 0.10236220472440945,
            "duration": 0.002741229166668191,
            "ticks": 2976,
            "durationTicks": 1
          },
          {
            "time": 8.289477,
            "midi": 42,
            "name": "F#2",
            "velocity": 0.5590551181102362,
            "duration": 0.002741229166668191,
            "ticks": 3024,
            "durationTicks": 1
          },
          {
            "time": 8.421056,
            "midi": 42,
            "name": "F#2",
            "velocity": 0.7874015748031497,
            "duration": 0.0027412291666664146,
            "ticks": 3072,
            "durationTicks": 1
          },
          {
            "time": 8.421056,
            "midi": 36,
            "name": "C2",
            "velocity": 1,
            "duration": 0.0027412291666664146,
            "ticks": 3072,
            "durationTicks": 1
          },
          {
            "time": 8.684214,
            "midi": 42,
            "name": "F#2",
            "velocity": 0.4251968503937008,
            "duration": 0.0027412291666646382,
            "ticks": 3168,
            "durationTicks": 1
          },
          {
            "time": 8.815793,
            "midi": 42,
            "name": "F#2",
            "velocity": 0.6535433070866141,
            "duration": 0.0027412291666664146,
            "ticks": 3216,
            "durationTicks": 1
          },
          {
            "time": 8.947372,
            "midi": 42,
            "name": "F#2",
            "velocity": 0.9133858267716536,
            "duration": 0.0027412291666664146,
            "ticks": 3264,
            "durationTicks": 1
          },
          {
            "time": 8.947372,
            "midi": 38,
            "name": "D2",
            "velocity": 0.8818897637795275,
            "duration": 0.0027412291666664146,
            "ticks": 3264,
            "durationTicks": 1
          },
          {
            "time": 8.947372,
            "midi": 36,
            "name": "C2",
            "velocity": 1,
            "duration": 0.0027412291666664146,
            "ticks": 3264,
            "durationTicks": 1
          },
          {
            "time": 8.947372,
            "midi": 39,
            "name": "D#2",
            "velocity": 0.9133858267716536,
            "duration": 0.0027412291666664146,
            "ticks": 3264,
            "durationTicks": 1
          },
          {
            "time": 9.21053,
            "midi": 42,
            "name": "F#2",
            "velocity": 0.4251968503937008,
            "duration": 0.0027412291666664146,
            "ticks": 3360,
            "durationTicks": 1
          },
          {
            "time": 9.342109,
            "midi": 42,
            "name": "F#2",
            "velocity": 0.5590551181102362,
            "duration": 0.0027412291666646382,
            "ticks": 3408,
            "durationTicks": 1
          },
          {
            "time": 9.473688,
            "midi": 42,
            "name": "F#2",
            "velocity": 0.7874015748031497,
            "duration": 0.0027412291666664146,
            "ticks": 3456,
            "durationTicks": 1
          },
          {
            "time": 9.473688,
            "midi": 36,
            "name": "C2",
            "velocity": 1,
            "duration": 0.0027412291666664146,
            "ticks": 3456,
            "durationTicks": 1
          },
          {
            "time": 9.736846,
            "midi": 42,
            "name": "F#2",
            "velocity": 0.5590551181102362,
            "duration": 0.0027412291666664146,
            "ticks": 3552,
            "durationTicks": 1
          },
          {
            "time": 9.868425,
            "midi": 42,
            "name": "F#2",
            "velocity": 0.5590551181102362,
            "duration": 0.0027412291666664146,
            "ticks": 3600,
            "durationTicks": 1
          },
          {
            "time": 10.000004,
            "midi": 42,
            "name": "F#2",
            "velocity": 0.9133858267716536,
            "duration": 0.0027412291666664146,
            "ticks": 3648,
            "durationTicks": 1
          },
          {
            "time": 10.000004,
            "midi": 38,
            "name": "D2",
            "velocity": 0.8818897637795275,
            "duration": 0.0027412291666664146,
            "ticks": 3648,
            "durationTicks": 1
          },
          {
            "time": 10.000004,
            "midi": 36,
            "name": "C2",
            "velocity": 1,
            "duration": 0.0027412291666664146,
            "ticks": 3648,
            "durationTicks": 1
          },
          {
            "time": 10.000004,
            "midi": 39,
            "name": "D#2",
            "velocity": 0.7874015748031497,
            "duration": 0.0027412291666664146,
            "ticks": 3648,
            "durationTicks": 1
          },
          {
            "time": 10.263162,
            "midi": 46,
            "name": "A#2",
            "velocity": 0.5354330708661418,
            "duration": 0.0027412291666664146,
            "ticks": 3744,
            "durationTicks": 1
          },
          {
            "time": 10.52632,
            "midi": 42,
            "name": "F#2",
            "velocity": 0.9133858267716536,
            "duration": 0.0027412291666664146,
            "ticks": 3840,
            "durationTicks": 1
          },
          {
            "time": 10.52632,
            "midi": 36,
            "name": "C2",
            "velocity": 1,
            "duration": 0.0027412291666664146,
            "ticks": 3840,
            "durationTicks": 1
          },
          {
            "time": 10.789478,
            "midi": 42,
            "name": "F#2",
            "velocity": 0.3464566929133858,
            "duration": 0.0027412291666646382,
            "ticks": 3936,
            "durationTicks": 1
          },
          {
            "time": 10.921057,
            "midi": 42,
            "name": "F#2",
            "velocity": 0.7874015748031497,
            "duration": 0.0027412291666664146,
            "ticks": 3984,
            "durationTicks": 1
          },
          {
            "time": 11.052636,
            "midi": 42,
            "name": "F#2",
            "velocity": 0.9133858267716536,
            "duration": 0.0027412291666664146,
            "ticks": 4032,
            "durationTicks": 1
          },
          {
            "time": 11.052636,
            "midi": 38,
            "name": "D2",
            "velocity": 0.9763779527559056,
            "duration": 0.0027412291666664146,
            "ticks": 4032,
            "durationTicks": 1
          },
          {
            "time": 11.052636,
            "midi": 36,
            "name": "C2",
            "velocity": 1,
            "duration": 0.0027412291666664146,
            "ticks": 4032,
            "durationTicks": 1
          },
          {
            "time": 11.052636,
            "midi": 39,
            "name": "D#2",
            "velocity": 0.7874015748031497,
            "duration": 0.0027412291666664146,
            "ticks": 4032,
            "durationTicks": 1
          },
          {
            "time": 11.315794,
            "midi": 42,
            "name": "F#2",
            "velocity": 0.25984251968503935,
            "duration": 0.0027412291666664146,
            "ticks": 4128,
            "durationTicks": 1
          },
          {
            "time": 11.447373,
            "midi": 42,
            "name": "F#2",
            "velocity": 0.6535433070866141,
            "duration": 0.0027412291666646382,
            "ticks": 4176,
            "durationTicks": 1
          },
          {
            "time": 11.578952000000001,
            "midi": 42,
            "name": "F#2",
            "velocity": 0.9133858267716536,
            "duration": 0.0027412291666646382,
            "ticks": 4224,
            "durationTicks": 1
          },
          {
            "time": 11.578952000000001,
            "midi": 36,
            "name": "C2",
            "velocity": 1,
            "duration": 0.0027412291666646382,
            "ticks": 4224,
            "durationTicks": 1
          },
          {
            "time": 11.84211,
            "midi": 42,
            "name": "F#2",
            "velocity": 0.5590551181102362,
            "duration": 0.0027412291666664146,
            "ticks": 4320,
            "durationTicks": 1
          },
          {
            "time": 11.973689,
            "midi": 42,
            "name": "F#2",
            "velocity": 0.6535433070866141,
            "duration": 0.0027412291666664146,
            "ticks": 4368,
            "durationTicks": 1
          },
          {
            "time": 12.105268,
            "midi": 42,
            "name": "F#2",
            "velocity": 1,
            "duration": 0.0027412291666664146,
            "ticks": 4416,
            "durationTicks": 1
          },
          {
            "time": 12.105268,
            "midi": 38,
            "name": "D2",
            "velocity": 0.8818897637795275,
            "duration": 0.0027412291666664146,
            "ticks": 4416,
            "durationTicks": 1
          },
          {
            "time": 12.105268,
            "midi": 36,
            "name": "C2",
            "velocity": 1,
            "duration": 0.0027412291666664146,
            "ticks": 4416,
            "durationTicks": 1
          },
          {
            "time": 12.105268,
            "midi": 39,
            "name": "D#2",
            "velocity": 0.9133858267716536,
            "duration": 0.0027412291666664146,
            "ticks": 4416,
            "durationTicks": 1
          },
          {
            "time": 12.368426,
            "midi": 42,
            "name": "F#2",
            "velocity": 0.3779527559055118,
            "duration": 0.0027412291666664146,
            "ticks": 4512,
            "durationTicks": 1
          },
          {
            "time": 12.500005,
            "midi": 42,
            "name": "F#2",
            "velocity": 0.48031496062992124,
            "duration": 0.0027412291666664146,
            "ticks": 4560,
            "durationTicks": 1
          },
          {
            "time": 12.631584,
            "midi": 42,
            "name": "F#2",
            "velocity": 0.9133858267716536,
            "duration": 0.0027412291666664146,
            "ticks": 4608,
            "durationTicks": 1
          },
          {
            "time": 12.631584,
            "midi": 36,
            "name": "C2",
            "velocity": 1,
            "duration": 0.0027412291666664146,
            "ticks": 4608,
            "durationTicks": 1
          },
          {
            "time": 12.894742,
            "midi": 42,
            "name": "F#2",
            "velocity": 0.5590551181102362,
            "duration": 0.0027412291666646382,
            "ticks": 4704,
            "durationTicks": 1
          },
          {
            "time": 13.026321,
            "midi": 42,
            "name": "F#2",
            "velocity": 0.5590551181102362,
            "duration": 0.0027412291666664146,
            "ticks": 4752,
            "durationTicks": 1
          },
          {
            "time": 13.1579,
            "midi": 42,
            "name": "F#2",
            "velocity": 0.9133858267716536,
            "duration": 0.0027412291666664146,
            "ticks": 4800,
            "durationTicks": 1
          },
          {
            "time": 13.1579,
            "midi": 38,
            "name": "D2",
            "velocity": 0.9763779527559056,
            "duration": 0.0027412291666664146,
            "ticks": 4800,
            "durationTicks": 1
          },
          {
            "time": 13.1579,
            "midi": 36,
            "name": "C2",
            "velocity": 1,
            "duration": 0.0027412291666664146,
            "ticks": 4800,
            "durationTicks": 1
          },
          {
            "time": 13.1579,
            "midi": 39,
            "name": "D#2",
            "velocity": 0.7874015748031497,
            "duration": 0.0027412291666664146,
            "ticks": 4800,
            "durationTicks": 1
          },
          {
            "time": 13.421058,
            "midi": 46,
            "name": "A#2",
            "velocity": 0.5354330708661418,
            "duration": 0.0027412291666664146,
            "ticks": 4896,
            "durationTicks": 1
          },
          {
            "time": 13.684216,
            "midi": 42,
            "name": "F#2",
            "velocity": 0.9133858267716536,
            "duration": 0.0027412291666664146,
            "ticks": 4992,
            "durationTicks": 1
          },
          {
            "time": 13.684216,
            "midi": 36,
            "name": "C2",
            "velocity": 1,
            "duration": 0.0027412291666664146,
            "ticks": 4992,
            "durationTicks": 1
          },
          {
            "time": 13.947374,
            "midi": 42,
            "name": "F#2",
            "velocity": 0.48031496062992124,
            "duration": 0.0027412291666664146,
            "ticks": 5088,
            "durationTicks": 1
          },
          {
            "time": 14.078953,
            "midi": 42,
            "name": "F#2",
            "velocity": 0.7874015748031497,
            "duration": 0.0027412291666664146,
            "ticks": 5136,
            "durationTicks": 1
          },
          {
            "time": 14.210532,
            "midi": 42,
            "name": "F#2",
            "velocity": 0.9133858267716536,
            "duration": 0.0027412291666664146,
            "ticks": 5184,
            "durationTicks": 1
          },
          {
            "time": 14.210532,
            "midi": 38,
            "name": "D2",
            "velocity": 0.984251968503937,
            "duration": 0.0027412291666664146,
            "ticks": 5184,
            "durationTicks": 1
          },
          {
            "time": 14.210532,
            "midi": 36,
            "name": "C2",
            "velocity": 1,
            "duration": 0.0027412291666664146,
            "ticks": 5184,
            "durationTicks": 1
          },
          {
            "time": 14.210532,
            "midi": 39,
            "name": "D#2",
            "velocity": 0.984251968503937,
            "duration": 0.0027412291666664146,
            "ticks": 5184,
            "durationTicks": 1
          },
          {
            "time": 14.342111000000001,
            "midi": 39,
            "name": "D#2",
            "velocity": 0.8267716535433071,
            "duration": 0.0027412291666646382,
            "ticks": 5232,
            "durationTicks": 1
          },
          {
            "time": 14.47369,
            "midi": 46,
            "name": "A#2",
            "velocity": 0.7480314960629921,
            "duration": 0.0027412291666664146,
            "ticks": 5280,
            "durationTicks": 1
          },
          {
            "time": 14.47369,
            "midi": 39,
            "name": "D#2",
            "velocity": 0.6692913385826772,
            "duration": 0.0027412291666664146,
            "ticks": 5280,
            "durationTicks": 1
          },
          {
            "time": 14.605269,
            "midi": 39,
            "name": "D#2",
            "velocity": 0.5118110236220472,
            "duration": 0.0027412291666664146,
            "ticks": 5328,
            "durationTicks": 1
          },
          {
            "time": 14.736848,
            "midi": 42,
            "name": "F#2",
            "velocity": 0.8818897637795275,
            "duration": 0.0027412291666664146,
            "ticks": 5376,
            "durationTicks": 1
          },
          {
            "time": 14.736848,
            "midi": 36,
            "name": "C2",
            "velocity": 1,
            "duration": 0.0027412291666664146,
            "ticks": 5376,
            "durationTicks": 1
          },
          {
            "time": 15.000006,
            "midi": 42,
            "name": "F#2",
            "velocity": 0.4251968503937008,
            "duration": 0.0027412291666646382,
            "ticks": 5472,
            "durationTicks": 1
          },
          {
            "time": 15.131585,
            "midi": 42,
            "name": "F#2",
            "velocity": 0.7874015748031497,
            "duration": 0.0027412291666664146,
            "ticks": 5520,
            "durationTicks": 1
          },
          {
            "time": 15.263164,
            "midi": 42,
            "name": "F#2",
            "velocity": 0.9133858267716536,
            "duration": 0.0027412291666664146,
            "ticks": 5568,
            "durationTicks": 1
          },
          {
            "time": 15.263164,
            "midi": 38,
            "name": "D2",
            "velocity": 0.8818897637795275,
            "duration": 0.0027412291666664146,
            "ticks": 5568,
            "durationTicks": 1
          },
          {
            "time": 15.263164,
            "midi": 36,
            "name": "C2",
            "velocity": 1,
            "duration": 0.0027412291666664146,
            "ticks": 5568,
            "durationTicks": 1
          },
          {
            "time": 15.263164,
            "midi": 39,
            "name": "D#2",
            "velocity": 0.7874015748031497,
            "duration": 0.0027412291666664146,
            "ticks": 5568,
            "durationTicks": 1
          },
          {
            "time": 15.526322,
            "midi": 42,
            "name": "F#2",
            "velocity": 0.31496062992125984,
            "duration": 0.0027412291666664146,
            "ticks": 5664,
            "durationTicks": 1
          },
          {
            "time": 15.657901,
            "midi": 42,
            "name": "F#2",
            "velocity": 0.6535433070866141,
            "duration": 0.0027412291666646382,
            "ticks": 5712,
            "durationTicks": 1
          },
          {
            "time": 15.789480000000001,
            "midi": 42,
            "name": "F#2",
            "velocity": 0.9133858267716536,
            "duration": 0.0027412291666646382,
            "ticks": 5760,
            "durationTicks": 1
          },
          {
            "time": 15.789480000000001,
            "midi": 36,
            "name": "C2",
            "velocity": 1,
            "duration": 0.0027412291666646382,
            "ticks": 5760,
            "durationTicks": 1
          },
          {
            "time": 16.052638,
            "midi": 42,
            "name": "F#2",
            "velocity": 0.3779527559055118,
            "duration": 0.002741229166662862,
            "ticks": 5856,
            "durationTicks": 1
          },
          {
            "time": 16.184217,
            "midi": 42,
            "name": "F#2",
            "velocity": 0.5590551181102362,
            "duration": 0.0027412291666664146,
            "ticks": 5904,
            "durationTicks": 1
          },
          {
            "time": 16.315796,
            "midi": 42,
            "name": "F#2",
            "velocity": 0.9133858267716536,
            "duration": 0.0027412291666664146,
            "ticks": 5952,
            "durationTicks": 1
          },
          {
            "time": 16.315796,
            "midi": 38,
            "name": "D2",
            "velocity": 0.9763779527559056,
            "duration": 0.0027412291666664146,
            "ticks": 5952,
            "durationTicks": 1
          },
          {
            "time": 16.315796,
            "midi": 36,
            "name": "C2",
            "velocity": 1,
            "duration": 0.0027412291666664146,
            "ticks": 5952,
            "durationTicks": 1
          },
          {
            "time": 16.315796,
            "midi": 39,
            "name": "D#2",
            "velocity": 0.9133858267716536,
            "duration": 0.0027412291666664146,
            "ticks": 5952,
            "durationTicks": 1
          },
          {
            "time": 16.578954,
            "midi": 42,
            "name": "F#2",
            "velocity": 0.10236220472440945,
            "duration": 0.0027412291666664146,
            "ticks": 6048,
            "durationTicks": 1
          },
          {
            "time": 16.710533,
            "midi": 42,
            "name": "F#2",
            "velocity": 0.5590551181102362,
            "duration": 0.002741229166662862,
            "ticks": 6096,
            "durationTicks": 1
          },
          {
            "time": 16.842112,
            "midi": 42,
            "name": "F#2",
            "velocity": 0.7874015748031497,
            "duration": 0.0027412291666664146,
            "ticks": 6144,
            "durationTicks": 1
          },
          {
            "time": 16.842112,
            "midi": 36,
            "name": "C2",
            "velocity": 1,
            "duration": 0.0027412291666664146,
            "ticks": 6144,
            "durationTicks": 1
          },
          {
            "time": 17.10527,
            "midi": 42,
            "name": "F#2",
            "velocity": 0.4251968503937008,
            "duration": 0.0027412291666664146,
            "ticks": 6240,
            "durationTicks": 1
          },
          {
            "time": 17.236849,
            "midi": 42,
            "name": "F#2",
            "velocity": 0.6535433070866141,
            "duration": 0.0027412291666699673,
            "ticks": 6288,
            "durationTicks": 1
          },
          {
            "time": 17.368428,
            "midi": 42,
            "name": "F#2",
            "velocity": 0.9133858267716536,
            "duration": 0.0027412291666664146,
            "ticks": 6336,
            "durationTicks": 1
          },
          {
            "time": 17.368428,
            "midi": 38,
            "name": "D2",
            "velocity": 0.8818897637795275,
            "duration": 0.0027412291666664146,
            "ticks": 6336,
            "durationTicks": 1
          },
          {
            "time": 17.368428,
            "midi": 36,
            "name": "C2",
            "velocity": 1,
            "duration": 0.0027412291666664146,
            "ticks": 6336,
            "durationTicks": 1
          },
          {
            "time": 17.368428,
            "midi": 39,
            "name": "D#2",
            "velocity": 0.9133858267716536,
            "duration": 0.0027412291666664146,
            "ticks": 6336,
            "durationTicks": 1
          },
          {
            "time": 17.631586,
            "midi": 42,
            "name": "F#2",
            "velocity": 0.4251968503937008,
            "duration": 0.0027412291666699673,
            "ticks": 6432,
            "durationTicks": 1
          },
          {
            "time": 17.763165,
            "midi": 42,
            "name": "F#2",
            "velocity": 0.5590551181102362,
            "duration": 0.0027412291666664146,
            "ticks": 6480,
            "durationTicks": 1
          },
          {
            "time": 17.894744,
            "midi": 42,
            "name": "F#2",
            "velocity": 0.7874015748031497,
            "duration": 0.0027412291666699673,
            "ticks": 6528,
            "durationTicks": 1
          },
          {
            "time": 17.894744,
            "midi": 36,
            "name": "C2",
            "velocity": 1,
            "duration": 0.0027412291666699673,
            "ticks": 6528,
            "durationTicks": 1
          },
          {
            "time": 18.157902,
            "midi": 42,
            "name": "F#2",
            "velocity": 0.5590551181102362,
            "duration": 0.0027412291666664146,
            "ticks": 6624,
            "durationTicks": 1
          },
          {
            "time": 18.289481,
            "midi": 42,
            "name": "F#2",
            "velocity": 0.5590551181102362,
            "duration": 0.0027412291666699673,
            "ticks": 6672,
            "durationTicks": 1
          },
          {
            "time": 18.42106,
            "midi": 42,
            "name": "F#2",
            "velocity": 0.9133858267716536,
            "duration": 0.0027412291666664146,
            "ticks": 6720,
            "durationTicks": 1
          },
          {
            "time": 18.42106,
            "midi": 38,
            "name": "D2",
            "velocity": 0.8818897637795275,
            "duration": 0.0027412291666664146,
            "ticks": 6720,
            "durationTicks": 1
          },
          {
            "time": 18.42106,
            "midi": 36,
            "name": "C2",
            "velocity": 1,
            "duration": 0.0027412291666664146,
            "ticks": 6720,
            "durationTicks": 1
          },
          {
            "time": 18.42106,
            "midi": 39,
            "name": "D#2",
            "velocity": 0.7874015748031497,
            "duration": 0.0027412291666664146,
            "ticks": 6720,
            "durationTicks": 1
          },
          {
            "time": 18.684218,
            "midi": 46,
            "name": "A#2",
            "velocity": 0.5354330708661418,
            "duration": 0.0027412291666664146,
            "ticks": 6816,
            "durationTicks": 1
          },
          {
            "time": 18.947376,
            "midi": 42,
            "name": "F#2",
            "velocity": 0.9133858267716536,
            "duration": 0.0027412291666699673,
            "ticks": 6912,
            "durationTicks": 1
          },
          {
            "time": 18.947376,
            "midi": 36,
            "name": "C2",
            "velocity": 1,
            "duration": 0.0027412291666699673,
            "ticks": 6912,
            "durationTicks": 1
          },
          {
            "time": 19.210534,
            "midi": 42,
            "name": "F#2",
            "velocity": 0.3464566929133858,
            "duration": 0.0027412291666699673,
            "ticks": 7008,
            "durationTicks": 1
          },
          {
            "time": 19.342113,
            "midi": 42,
            "name": "F#2",
            "velocity": 0.7874015748031497,
            "duration": 0.0027412291666664146,
            "ticks": 7056,
            "durationTicks": 1
          },
          {
            "time": 19.473692,
            "midi": 42,
            "name": "F#2",
            "velocity": 0.9133858267716536,
            "duration": 0.0027412291666699673,
            "ticks": 7104,
            "durationTicks": 1
          },
          {
            "time": 19.473692,
            "midi": 38,
            "name": "D2",
            "velocity": 0.9763779527559056,
            "duration": 0.0027412291666699673,
            "ticks": 7104,
            "durationTicks": 1
          },
          {
            "time": 19.473692,
            "midi": 36,
            "name": "C2",
            "velocity": 1,
            "duration": 0.0027412291666699673,
            "ticks": 7104,
            "durationTicks": 1
          },
          {
            "time": 19.473692,
            "midi": 39,
            "name": "D#2",
            "velocity": 0.7874015748031497,
            "duration": 0.0027412291666699673,
            "ticks": 7104,
            "durationTicks": 1
          },
          {
            "time": 19.73685,
            "midi": 42,
            "name": "F#2",
            "velocity": 0.25984251968503935,
            "duration": 0.0027412291666664146,
            "ticks": 7200,
            "durationTicks": 1
          },
          {
            "time": 19.868429,
            "midi": 42,
            "name": "F#2",
            "velocity": 0.6535433070866141,
            "duration": 0.0027412291666699673,
            "ticks": 7248,
            "durationTicks": 1
          },
          {
            "time": 20.000008,
            "midi": 42,
            "name": "F#2",
            "velocity": 0.9133858267716536,
            "duration": 0.0027412291666664146,
            "ticks": 7296,
            "durationTicks": 1
          },
          {
            "time": 20.000008,
            "midi": 36,
            "name": "C2",
            "velocity": 1,
            "duration": 0.0027412291666664146,
            "ticks": 7296,
            "durationTicks": 1
          },
          {
            "time": 20.263166000000002,
            "midi": 42,
            "name": "F#2",
            "velocity": 0.5590551181102362,
            "duration": 0.0027412291666664146,
            "ticks": 7392,
            "durationTicks": 1
          },
          {
            "time": 20.394745,
            "midi": 42,
            "name": "F#2",
            "velocity": 0.6535433070866141,
            "duration": 0.0027412291666664146,
            "ticks": 7440,
            "durationTicks": 1
          },
          {
            "time": 20.526324,
            "midi": 42,
            "name": "F#2",
            "velocity": 1,
            "duration": 0.0027412291666699673,
            "ticks": 7488,
            "durationTicks": 1
          },
          {
            "time": 20.526324,
            "midi": 38,
            "name": "D2",
            "velocity": 0.8818897637795275,
            "duration": 0.0027412291666699673,
            "ticks": 7488,
            "durationTicks": 1
          },
          {
            "time": 20.526324,
            "midi": 36,
            "name": "C2",
            "velocity": 1,
            "duration": 0.0027412291666699673,
            "ticks": 7488,
            "durationTicks": 1
          },
          {
            "time": 20.526324,
            "midi": 39,
            "name": "D#2",
            "velocity": 0.9133858267716536,
            "duration": 0.0027412291666699673,
            "ticks": 7488,
            "durationTicks": 1
          },
          {
            "time": 20.789482,
            "midi": 42,
            "name": "F#2",
            "velocity": 0.3779527559055118,
            "duration": 0.0027412291666699673,
            "ticks": 7584,
            "durationTicks": 1
          },
          {
            "time": 20.921061,
            "midi": 42,
            "name": "F#2",
            "velocity": 0.48031496062992124,
            "duration": 0.0027412291666664146,
            "ticks": 7632,
            "durationTicks": 1
          },
          {
            "time": 21.05264,
            "midi": 42,
            "name": "F#2",
            "velocity": 0.9133858267716536,
            "duration": 0.0027412291666664146,
            "ticks": 7680,
            "durationTicks": 1
          },
          {
            "time": 21.05264,
            "midi": 36,
            "name": "C2",
            "velocity": 1,
            "duration": 0.0027412291666664146,
            "ticks": 7680,
            "durationTicks": 1
          },
          {
            "time": 21.315798,
            "midi": 42,
            "name": "F#2",
            "velocity": 0.5590551181102362,
            "duration": 0.0027412291666664146,
            "ticks": 7776,
            "durationTicks": 1
          },
          {
            "time": 21.447377,
            "midi": 42,
            "name": "F#2",
            "velocity": 0.5590551181102362,
            "duration": 0.0027412291666699673,
            "ticks": 7824,
            "durationTicks": 1
          },
          {
            "time": 21.578956,
            "midi": 42,
            "name": "F#2",
            "velocity": 0.9133858267716536,
            "duration": 0.0027412291666664146,
            "ticks": 7872,
            "durationTicks": 1
          },
          {
            "time": 21.578956,
            "midi": 38,
            "name": "D2",
            "velocity": 0.9763779527559056,
            "duration": 0.0027412291666664146,
            "ticks": 7872,
            "durationTicks": 1
          },
          {
            "time": 21.578956,
            "midi": 36,
            "name": "C2",
            "velocity": 1,
            "duration": 0.0027412291666664146,
            "ticks": 7872,
            "durationTicks": 1
          },
          {
            "time": 21.578956,
            "midi": 39,
            "name": "D#2",
            "velocity": 0.7874015748031497,
            "duration": 0.0027412291666664146,
            "ticks": 7872,
            "durationTicks": 1
          },
          {
            "time": 21.842114,
            "midi": 46,
            "name": "A#2",
            "velocity": 0.5354330708661418,
            "duration": 0.0027412291666699673,
            "ticks": 7968,
            "durationTicks": 1
          },
          {
            "time": 22.105272,
            "midi": 42,
            "name": "F#2",
            "velocity": 0.9133858267716536,
            "duration": 0.0027412291666699673,
            "ticks": 8064,
            "durationTicks": 1
          },
          {
            "time": 22.105272,
            "midi": 36,
            "name": "C2",
            "velocity": 1,
            "duration": 0.0027412291666699673,
            "ticks": 8064,
            "durationTicks": 1
          },
          {
            "time": 22.36843,
            "midi": 42,
            "name": "F#2",
            "velocity": 0.48031496062992124,
            "duration": 0.0027412291666664146,
            "ticks": 8160,
            "durationTicks": 1
          },
          {
            "time": 22.500009,
            "midi": 42,
            "name": "F#2",
            "velocity": 0.7874015748031497,
            "duration": 0.0027412291666699673,
            "ticks": 8208,
            "durationTicks": 1
          },
          {
            "time": 22.631588,
            "midi": 42,
            "name": "F#2",
            "velocity": 0.9133858267716536,
            "duration": 0.0027412291666664146,
            "ticks": 8256,
            "durationTicks": 1
          },
          {
            "time": 22.631588,
            "midi": 38,
            "name": "D2",
            "velocity": 0.984251968503937,
            "duration": 0.0027412291666664146,
            "ticks": 8256,
            "durationTicks": 1
          },
          {
            "time": 22.631588,
            "midi": 36,
            "name": "C2",
            "velocity": 1,
            "duration": 0.0027412291666664146,
            "ticks": 8256,
            "durationTicks": 1
          },
          {
            "time": 22.631588,
            "midi": 39,
            "name": "D#2",
            "velocity": 0.984251968503937,
            "duration": 0.0027412291666664146,
            "ticks": 8256,
            "durationTicks": 1
          },
          {
            "time": 22.763167,
            "midi": 39,
            "name": "D#2",
            "velocity": 0.8267716535433071,
            "duration": 0.0027412291666699673,
            "ticks": 8304,
            "durationTicks": 1
          },
          {
            "time": 22.894746,
            "midi": 46,
            "name": "A#2",
            "velocity": 0.7480314960629921,
            "duration": 0.0027412291666664146,
            "ticks": 8352,
            "durationTicks": 1
          },
          {
            "time": 22.894746,
            "midi": 39,
            "name": "D#2",
            "velocity": 0.6692913385826772,
            "duration": 0.0027412291666664146,
            "ticks": 8352,
            "durationTicks": 1
          },
          {
            "time": 23.026325,
            "midi": 39,
            "name": "D#2",
            "velocity": 0.5118110236220472,
            "duration": 0.0027412291666699673,
            "ticks": 8400,
            "durationTicks": 1
          },
          {
            "time": 23.157904000000002,
            "midi": 42,
            "name": "F#2",
            "velocity": 0.8818897637795275,
            "duration": 0.0027412291666664146,
            "ticks": 8448,
            "durationTicks": 1
          },
          {
            "time": 23.157904000000002,
            "midi": 36,
            "name": "C2",
            "velocity": 1,
            "duration": 0.0027412291666664146,
            "ticks": 8448,
            "durationTicks": 1
          },
          {
            "time": 23.421062,
            "midi": 42,
            "name": "F#2",
            "velocity": 0.4251968503937008,
            "duration": 0.0027412291666699673,
            "ticks": 8544,
            "durationTicks": 1
          },
          {
            "time": 23.552641,
            "midi": 42,
            "name": "F#2",
            "velocity": 0.7874015748031497,
            "duration": 0.0027412291666664146,
            "ticks": 8592,
            "durationTicks": 1
          },
          {
            "time": 23.68422,
            "midi": 42,
            "name": "F#2",
            "velocity": 0.9133858267716536,
            "duration": 0.0027412291666699673,
            "ticks": 8640,
            "durationTicks": 1
          },
          {
            "time": 23.68422,
            "midi": 38,
            "name": "D2",
            "velocity": 0.8818897637795275,
            "duration": 0.0027412291666699673,
            "ticks": 8640,
            "durationTicks": 1
          },
          {
            "time": 23.68422,
            "midi": 36,
            "name": "C2",
            "velocity": 1,
            "duration": 0.0027412291666699673,
            "ticks": 8640,
            "durationTicks": 1
          },
          {
            "time": 23.68422,
            "midi": 39,
            "name": "D#2",
            "velocity": 0.7874015748031497,
            "duration": 0.0027412291666699673,
            "ticks": 8640,
            "durationTicks": 1
          },
          {
            "time": 23.947378,
            "midi": 42,
            "name": "F#2",
            "velocity": 0.31496062992125984,
            "duration": 0.0027412291666664146,
            "ticks": 8736,
            "durationTicks": 1
          },
          {
            "time": 24.078957,
            "midi": 42,
            "name": "F#2",
            "velocity": 0.6535433070866141,
            "duration": 0.0027412291666699673,
            "ticks": 8784,
            "durationTicks": 1
          },
          {
            "time": 24.210536,
            "midi": 42,
            "name": "F#2",
            "velocity": 0.9133858267716536,
            "duration": 0.0027412291666664146,
            "ticks": 8832,
            "durationTicks": 1
          },
          {
            "time": 24.210536,
            "midi": 36,
            "name": "C2",
            "velocity": 1,
            "duration": 0.0027412291666664146,
            "ticks": 8832,
            "durationTicks": 1
          },
          {
            "time": 24.473694000000002,
            "midi": 42,
            "name": "F#2",
            "velocity": 0.3779527559055118,
            "duration": 0.0027412291666664146,
            "ticks": 8928,
            "durationTicks": 1
          },
          {
            "time": 24.605273,
            "midi": 42,
            "name": "F#2",
            "velocity": 0.5590551181102362,
            "duration": 0.0027412291666664146,
            "ticks": 8976,
            "durationTicks": 1
          },
          {
            "time": 24.736852,
            "midi": 42,
            "name": "F#2",
            "velocity": 0.9133858267716536,
            "duration": 0.0027412291666699673,
            "ticks": 9024,
            "durationTicks": 1
          },
          {
            "time": 24.736852,
            "midi": 38,
            "name": "D2",
            "velocity": 0.9763779527559056,
            "duration": 0.0027412291666699673,
            "ticks": 9024,
            "durationTicks": 1
          },
          {
            "time": 24.736852,
            "midi": 36,
            "name": "C2",
            "velocity": 1,
            "duration": 0.0027412291666699673,
            "ticks": 9024,
            "durationTicks": 1
          },
          {
            "time": 24.736852,
            "midi": 39,
            "name": "D#2",
            "velocity": 0.9133858267716536,
            "duration": 0.0027412291666699673,
            "ticks": 9024,
            "durationTicks": 1
          },
          {
            "time": 25.00001,
            "midi": 42,
            "name": "F#2",
            "velocity": 0.10236220472440945,
            "duration": 0.0027412291666699673,
            "ticks": 9120,
            "durationTicks": 1
          },
          {
            "time": 25.131589,
            "midi": 42,
            "name": "F#2",
            "velocity": 0.5590551181102362,
            "duration": 0.0027412291666664146,
            "ticks": 9168,
            "durationTicks": 1
          },
          {
            "time": 25.263168,
            "midi": 42,
            "name": "F#2",
            "velocity": 0.7874015748031497,
            "duration": 0.0027412291666664146,
            "ticks": 9216,
            "durationTicks": 1
          },
          {
            "time": 25.263168,
            "midi": 36,
            "name": "C2",
            "velocity": 1,
            "duration": 0.0027412291666664146,
            "ticks": 9216,
            "durationTicks": 1
          },
          {
            "time": 25.526326,
            "midi": 42,
            "name": "F#2",
            "velocity": 0.4251968503937008,
            "duration": 0.0027412291666664146,
            "ticks": 9312,
            "durationTicks": 1
          },
          {
            "time": 25.657905,
            "midi": 42,
            "name": "F#2",
            "velocity": 0.6535433070866141,
            "duration": 0.0027412291666699673,
            "ticks": 9360,
            "durationTicks": 1
          },
          {
            "time": 25.789484,
            "midi": 42,
            "name": "F#2",
            "velocity": 0.9133858267716536,
            "duration": 0.0027412291666664146,
            "ticks": 9408,
            "durationTicks": 1
          },
          {
            "time": 25.789484,
            "midi": 38,
            "name": "D2",
            "velocity": 0.8818897637795275,
            "duration": 0.0027412291666664146,
            "ticks": 9408,
            "durationTicks": 1
          },
          {
            "time": 25.789484,
            "midi": 36,
            "name": "C2",
            "velocity": 1,
            "duration": 0.0027412291666664146,
            "ticks": 9408,
            "durationTicks": 1
          },
          {
            "time": 25.789484,
            "midi": 39,
            "name": "D#2",
            "velocity": 0.9133858267716536,
            "duration": 0.0027412291666664146,
            "ticks": 9408,
            "durationTicks": 1
          },
          {
            "time": 26.052642,
            "midi": 42,
            "name": "F#2",
            "velocity": 0.4251968503937008,
            "duration": 0.0027412291666699673,
            "ticks": 9504,
            "durationTicks": 1
          },
          {
            "time": 26.184221,
            "midi": 42,
            "name": "F#2",
            "velocity": 0.5590551181102362,
            "duration": 0.0027412291666664146,
            "ticks": 9552,
            "durationTicks": 1
          },
          {
            "time": 26.3158,
            "midi": 42,
            "name": "F#2",
            "velocity": 0.7874015748031497,
            "duration": 0.0027412291666699673,
            "ticks": 9600,
            "durationTicks": 1
          },
          {
            "time": 26.3158,
            "midi": 36,
            "name": "C2",
            "velocity": 1,
            "duration": 0.0027412291666699673,
            "ticks": 9600,
            "durationTicks": 1
          },
          {
            "time": 26.578958,
            "midi": 42,
            "name": "F#2",
            "velocity": 0.5590551181102362,
            "duration": 0.0027412291666664146,
            "ticks": 9696,
            "durationTicks": 1
          },
          {
            "time": 26.710537,
            "midi": 42,
            "name": "F#2",
            "velocity": 0.5590551181102362,
            "duration": 0.0027412291666699673,
            "ticks": 9744,
            "durationTicks": 1
          },
          {
            "time": 26.842116,
            "midi": 42,
            "name": "F#2",
            "velocity": 0.9133858267716536,
            "duration": 0.0027412291666664146,
            "ticks": 9792,
            "durationTicks": 1
          },
          {
            "time": 26.842116,
            "midi": 38,
            "name": "D2",
            "velocity": 0.8818897637795275,
            "duration": 0.0027412291666664146,
            "ticks": 9792,
            "durationTicks": 1
          },
          {
            "time": 26.842116,
            "midi": 36,
            "name": "C2",
            "velocity": 1,
            "duration": 0.0027412291666664146,
            "ticks": 9792,
            "durationTicks": 1
          },
          {
            "time": 26.842116,
            "midi": 39,
            "name": "D#2",
            "velocity": 0.7874015748031497,
            "duration": 0.0027412291666664146,
            "ticks": 9792,
            "durationTicks": 1
          },
          {
            "time": 27.105274,
            "midi": 46,
            "name": "A#2",
            "velocity": 0.5354330708661418,
            "duration": 0.0027412291666664146,
            "ticks": 9888,
            "durationTicks": 1
          },
          {
            "time": 27.368432,
            "midi": 42,
            "name": "F#2",
            "velocity": 0.9133858267716536,
            "duration": 0.0027412291666699673,
            "ticks": 9984,
            "durationTicks": 1
          },
          {
            "time": 27.368432,
            "midi": 36,
            "name": "C2",
            "velocity": 1,
            "duration": 0.0027412291666699673,
            "ticks": 9984,
            "durationTicks": 1
          },
          {
            "time": 27.63159,
            "midi": 42,
            "name": "F#2",
            "velocity": 0.3464566929133858,
            "duration": 0.0027412291666699673,
            "ticks": 10080,
            "durationTicks": 1
          },
          {
            "time": 27.763169,
            "midi": 42,
            "name": "F#2",
            "velocity": 0.7874015748031497,
            "duration": 0.0027412291666664146,
            "ticks": 10128,
            "durationTicks": 1
          },
          {
            "time": 27.894748,
            "midi": 42,
            "name": "F#2",
            "velocity": 0.9133858267716536,
            "duration": 0.0027412291666699673,
            "ticks": 10176,
            "durationTicks": 1
          },
          {
            "time": 27.894748,
            "midi": 38,
            "name": "D2",
            "velocity": 0.9763779527559056,
            "duration": 0.0027412291666699673,
            "ticks": 10176,
            "durationTicks": 1
          },
          {
            "time": 27.894748,
            "midi": 36,
            "name": "C2",
            "velocity": 1,
            "duration": 0.0027412291666699673,
            "ticks": 10176,
            "durationTicks": 1
          },
          {
            "time": 27.894748,
            "midi": 39,
            "name": "D#2",
            "velocity": 0.7874015748031497,
            "duration": 0.0027412291666699673,
            "ticks": 10176,
            "durationTicks": 1
          },
          {
            "time": 28.157906,
            "midi": 42,
            "name": "F#2",
            "velocity": 0.25984251968503935,
            "duration": 0.0027412291666664146,
            "ticks": 10272,
            "durationTicks": 1
          },
          {
            "time": 28.289485,
            "midi": 42,
            "name": "F#2",
            "velocity": 0.6535433070866141,
            "duration": 0.0027412291666699673,
            "ticks": 10320,
            "durationTicks": 1
          },
          {
            "time": 28.421064,
            "midi": 42,
            "name": "F#2",
            "velocity": 0.9133858267716536,
            "duration": 0.0027412291666664146,
            "ticks": 10368,
            "durationTicks": 1
          },
          {
            "time": 28.421064,
            "midi": 36,
            "name": "C2",
            "velocity": 1,
            "duration": 0.0027412291666664146,
            "ticks": 10368,
            "durationTicks": 1
          },
          {
            "time": 28.684222000000002,
            "midi": 42,
            "name": "F#2",
            "velocity": 0.5590551181102362,
            "duration": 0.0027412291666664146,
            "ticks": 10464,
            "durationTicks": 1
          },
          {
            "time": 28.815801,
            "midi": 42,
            "name": "F#2",
            "velocity": 0.6535433070866141,
            "duration": 0.0027412291666664146,
            "ticks": 10512,
            "durationTicks": 1
          },
          {
            "time": 28.94738,
            "midi": 42,
            "name": "F#2",
            "velocity": 1,
            "duration": 0.0027412291666699673,
            "ticks": 10560,
            "durationTicks": 1
          },
          {
            "time": 28.94738,
            "midi": 38,
            "name": "D2",
            "velocity": 0.8818897637795275,
            "duration": 0.0027412291666699673,
            "ticks": 10560,
            "durationTicks": 1
          },
          {
            "time": 28.94738,
            "midi": 36,
            "name": "C2",
            "velocity": 1,
            "duration": 0.0027412291666699673,
            "ticks": 10560,
            "durationTicks": 1
          },
          {
            "time": 28.94738,
            "midi": 39,
            "name": "D#2",
            "velocity": 0.9133858267716536,
            "duration": 0.0027412291666699673,
            "ticks": 10560,
            "durationTicks": 1
          },
          {
            "time": 29.210538,
            "midi": 42,
            "name": "F#2",
            "velocity": 0.3779527559055118,
            "duration": 0.0027412291666699673,
            "ticks": 10656,
            "durationTicks": 1
          },
          {
            "time": 29.342117000000002,
            "midi": 42,
            "name": "F#2",
            "velocity": 0.48031496062992124,
            "duration": 0.0027412291666664146,
            "ticks": 10704,
            "durationTicks": 1
          },
          {
            "time": 29.473696,
            "midi": 42,
            "name": "F#2",
            "velocity": 0.9133858267716536,
            "duration": 0.0027412291666664146,
            "ticks": 10752,
            "durationTicks": 1
          },
          {
            "time": 29.473696,
            "midi": 36,
            "name": "C2",
            "velocity": 1,
            "duration": 0.0027412291666664146,
            "ticks": 10752,
            "durationTicks": 1
          },
          {
            "time": 29.736854,
            "midi": 42,
            "name": "F#2",
            "velocity": 0.5590551181102362,
            "duration": 0.0027412291666664146,
            "ticks": 10848,
            "durationTicks": 1
          },
          {
            "time": 29.868433,
            "midi": 42,
            "name": "F#2",
            "velocity": 0.5590551181102362,
            "duration": 0.0027412291666699673,
            "ticks": 10896,
            "durationTicks": 1
          },
          {
            "time": 30.000012,
            "midi": 42,
            "name": "F#2",
            "velocity": 0.9133858267716536,
            "duration": 0.0027412291666664146,
            "ticks": 10944,
            "durationTicks": 1
          },
          {
            "time": 30.000012,
            "midi": 38,
            "name": "D2",
            "velocity": 0.9763779527559056,
            "duration": 0.0027412291666664146,
            "ticks": 10944,
            "durationTicks": 1
          },
          {
            "time": 30.000012,
            "midi": 36,
            "name": "C2",
            "velocity": 1,
            "duration": 0.0027412291666664146,
            "ticks": 10944,
            "durationTicks": 1
          },
          {
            "time": 30.000012,
            "midi": 39,
            "name": "D#2",
            "velocity": 0.7874015748031497,
            "duration": 0.0027412291666664146,
            "ticks": 10944,
            "durationTicks": 1
          },
          {
            "time": 30.26317,
            "midi": 46,
            "name": "A#2",
            "velocity": 0.5354330708661418,
            "duration": 0.0027412291666699673,
            "ticks": 11040,
            "durationTicks": 1
          },
          {
            "time": 30.526328,
            "midi": 42,
            "name": "F#2",
            "velocity": 0.9133858267716536,
            "duration": 0.0027412291666699673,
            "ticks": 11136,
            "durationTicks": 1
          },
          {
            "time": 30.526328,
            "midi": 36,
            "name": "C2",
            "velocity": 1,
            "duration": 0.0027412291666699673,
            "ticks": 11136,
            "durationTicks": 1
          },
          {
            "time": 30.789486,
            "midi": 42,
            "name": "F#2",
            "velocity": 0.48031496062992124,
            "duration": 0.0027412291666664146,
            "ticks": 11232,
            "durationTicks": 1
          },
          {
            "time": 30.921065,
            "midi": 42,
            "name": "F#2",
            "velocity": 0.7874015748031497,
            "duration": 0.0027412291666699673,
            "ticks": 11280,
            "durationTicks": 1
          },
          {
            "time": 31.052644,
            "midi": 42,
            "name": "F#2",
            "velocity": 0.9133858267716536,
            "duration": 0.0027412291666664146,
            "ticks": 11328,
            "durationTicks": 1
          },
          {
            "time": 31.052644,
            "midi": 38,
            "name": "D2",
            "velocity": 0.984251968503937,
            "duration": 0.0027412291666664146,
            "ticks": 11328,
            "durationTicks": 1
          },
          {
            "time": 31.052644,
            "midi": 36,
            "name": "C2",
            "velocity": 1,
            "duration": 0.0027412291666664146,
            "ticks": 11328,
            "durationTicks": 1
          },
          {
            "time": 31.052644,
            "midi": 39,
            "name": "D#2",
            "velocity": 0.984251968503937,
            "duration": 0.0027412291666664146,
            "ticks": 11328,
            "durationTicks": 1
          },
          {
            "time": 31.184223,
            "midi": 39,
            "name": "D#2",
            "velocity": 0.8267716535433071,
            "duration": 0.0027412291666699673,
            "ticks": 11376,
            "durationTicks": 1
          },
          {
            "time": 31.315802,
            "midi": 46,
            "name": "A#2",
            "velocity": 0.7480314960629921,
            "duration": 0.0027412291666664146,
            "ticks": 11424,
            "durationTicks": 1
          },
          {
            "time": 31.315802,
            "midi": 39,
            "name": "D#2",
            "velocity": 0.6692913385826772,
            "duration": 0.0027412291666664146,
            "ticks": 11424,
            "durationTicks": 1
          },
          {
            "time": 31.447381,
            "midi": 39,
            "name": "D#2",
            "velocity": 0.5118110236220472,
            "duration": 0.0027412291666699673,
            "ticks": 11472,
            "durationTicks": 1
          },
          {
            "time": 31.578960000000002,
            "midi": 42,
            "name": "F#2",
            "velocity": 0.8818897637795275,
            "duration": 0.0027412291666664146,
            "ticks": 11520,
            "durationTicks": 1
          },
          {
            "time": 31.578960000000002,
            "midi": 36,
            "name": "C2",
            "velocity": 1,
            "duration": 0.0027412291666664146,
            "ticks": 11520,
            "durationTicks": 1
          },
          {
            "time": 31.842118,
            "midi": 42,
            "name": "F#2",
            "velocity": 0.4251968503937008,
            "duration": 0.0027412291666699673,
            "ticks": 11616,
            "durationTicks": 1
          },
          {
            "time": 31.973697,
            "midi": 42,
            "name": "F#2",
            "velocity": 0.7874015748031497,
            "duration": 0.0027412291666664146,
            "ticks": 11664,
            "durationTicks": 1
          },
          {
            "time": 32.105276,
            "midi": 42,
            "name": "F#2",
            "velocity": 0.9133858267716536,
            "duration": 0.0027412291666664146,
            "ticks": 11712,
            "durationTicks": 1
          },
          {
            "time": 32.105276,
            "midi": 38,
            "name": "D2",
            "velocity": 0.8818897637795275,
            "duration": 0.0027412291666664146,
            "ticks": 11712,
            "durationTicks": 1
          },
          {
            "time": 32.105276,
            "midi": 36,
            "name": "C2",
            "velocity": 1,
            "duration": 0.0027412291666664146,
            "ticks": 11712,
            "durationTicks": 1
          },
          {
            "time": 32.105276,
            "midi": 39,
            "name": "D#2",
            "velocity": 0.7874015748031497,
            "duration": 0.0027412291666664146,
            "ticks": 11712,
            "durationTicks": 1
          },
          {
            "time": 32.368434,
            "midi": 42,
            "name": "F#2",
            "velocity": 0.31496062992125984,
            "duration": 0.0027412291666664146,
            "ticks": 11808,
            "durationTicks": 1
          },
          {
            "time": 32.500013,
            "midi": 42,
            "name": "F#2",
            "velocity": 0.6535433070866141,
            "duration": 0.0027412291666664146,
            "ticks": 11856,
            "durationTicks": 1
          },
          {
            "time": 32.631592,
            "midi": 42,
            "name": "F#2",
            "velocity": 0.9133858267716536,
            "duration": 0.00274122916667352,
            "ticks": 11904,
            "durationTicks": 1
          },
          {
            "time": 32.631592,
            "midi": 36,
            "name": "C2",
            "velocity": 1,
            "duration": 0.00274122916667352,
            "ticks": 11904,
            "durationTicks": 1
          },
          {
            "time": 32.89475,
            "midi": 42,
            "name": "F#2",
            "velocity": 0.3779527559055118,
            "duration": 0.0027412291666664146,
            "ticks": 12000,
            "durationTicks": 1
          },
          {
            "time": 33.026329,
            "midi": 42,
            "name": "F#2",
            "velocity": 0.5590551181102362,
            "duration": 0.00274122916667352,
            "ticks": 12048,
            "durationTicks": 1
          },
          {
            "time": 33.157908,
            "midi": 42,
            "name": "F#2",
            "velocity": 0.9133858267716536,
            "duration": 0.0027412291666664146,
            "ticks": 12096,
            "durationTicks": 1
          },
          {
            "time": 33.157908,
            "midi": 38,
            "name": "D2",
            "velocity": 0.9763779527559056,
            "duration": 0.0027412291666664146,
            "ticks": 12096,
            "durationTicks": 1
          },
          {
            "time": 33.157908,
            "midi": 36,
            "name": "C2",
            "velocity": 1,
            "duration": 0.0027412291666664146,
            "ticks": 12096,
            "durationTicks": 1
          },
          {
            "time": 33.157908,
            "midi": 39,
            "name": "D#2",
            "velocity": 0.9133858267716536,
            "duration": 0.0027412291666664146,
            "ticks": 12096,
            "durationTicks": 1
          },
          {
            "time": 33.421066,
            "midi": 42,
            "name": "F#2",
            "velocity": 0.10236220472440945,
            "duration": 0.0027412291666664146,
            "ticks": 12192,
            "durationTicks": 1
          },
          {
            "time": 33.552645,
            "midi": 42,
            "name": "F#2",
            "velocity": 0.5590551181102362,
            "duration": 0.00274122916667352,
            "ticks": 12240,
            "durationTicks": 1
          },
          {
            "time": 33.684224,
            "midi": 42,
            "name": "F#2",
            "velocity": 0.7874015748031497,
            "duration": 0.0027412291666664146,
            "ticks": 12288,
            "durationTicks": 1
          },
          {
            "time": 33.684224,
            "midi": 36,
            "name": "C2",
            "velocity": 1,
            "duration": 0.0027412291666664146,
            "ticks": 12288,
            "durationTicks": 1
          },
          {
            "time": 33.947382,
            "midi": 42,
            "name": "F#2",
            "velocity": 0.4251968503937008,
            "duration": 0.0027412291666664146,
            "ticks": 12384,
            "durationTicks": 1
          },
          {
            "time": 34.078961,
            "midi": 42,
            "name": "F#2",
            "velocity": 0.6535433070866141,
            "duration": 0.0027412291666664146,
            "ticks": 12432,
            "durationTicks": 1
          },
          {
            "time": 34.21054,
            "midi": 42,
            "name": "F#2",
            "velocity": 0.9133858267716536,
            "duration": 0.002741229166659309,
            "ticks": 12480,
            "durationTicks": 1
          },
          {
            "time": 34.21054,
            "midi": 38,
            "name": "D2",
            "velocity": 0.8818897637795275,
            "duration": 0.002741229166659309,
            "ticks": 12480,
            "durationTicks": 1
          },
          {
            "time": 34.21054,
            "midi": 36,
            "name": "C2",
            "velocity": 1,
            "duration": 0.002741229166659309,
            "ticks": 12480,
            "durationTicks": 1
          },
          {
            "time": 34.21054,
            "midi": 39,
            "name": "D#2",
            "velocity": 0.9133858267716536,
            "duration": 0.002741229166659309,
            "ticks": 12480,
            "durationTicks": 1
          },
          {
            "time": 34.473698,
            "midi": 42,
            "name": "F#2",
            "velocity": 0.4251968503937008,
            "duration": 0.0027412291666664146,
            "ticks": 12576,
            "durationTicks": 1
          },
          {
            "time": 34.605277,
            "midi": 42,
            "name": "F#2",
            "velocity": 0.5590551181102362,
            "duration": 0.0027412291666664146,
            "ticks": 12624,
            "durationTicks": 1
          },
          {
            "time": 34.736856,
            "midi": 42,
            "name": "F#2",
            "velocity": 0.7874015748031497,
            "duration": 0.002741229166659309,
            "ticks": 12672,
            "durationTicks": 1
          },
          {
            "time": 34.736856,
            "midi": 36,
            "name": "C2",
            "velocity": 1,
            "duration": 0.002741229166659309,
            "ticks": 12672,
            "durationTicks": 1
          },
          {
            "time": 35.000014,
            "midi": 42,
            "name": "F#2",
            "velocity": 0.5590551181102362,
            "duration": 0.0027412291666664146,
            "ticks": 12768,
            "durationTicks": 1
          },
          {
            "time": 35.131593,
            "midi": 42,
            "name": "F#2",
            "velocity": 0.5590551181102362,
            "duration": 0.002741229166659309,
            "ticks": 12816,
            "durationTicks": 1
          },
          {
            "time": 35.263172,
            "midi": 42,
            "name": "F#2",
            "velocity": 0.9133858267716536,
            "duration": 0.0027412291666664146,
            "ticks": 12864,
            "durationTicks": 1
          },
          {
            "time": 35.263172,
            "midi": 38,
            "name": "D2",
            "velocity": 0.8818897637795275,
            "duration": 0.0027412291666664146,
            "ticks": 12864,
            "durationTicks": 1
          },
          {
            "time": 35.263172,
            "midi": 36,
            "name": "C2",
            "velocity": 1,
            "duration": 0.0027412291666664146,
            "ticks": 12864,
            "durationTicks": 1
          },
          {
            "time": 35.263172,
            "midi": 39,
            "name": "D#2",
            "velocity": 0.7874015748031497,
            "duration": 0.0027412291666664146,
            "ticks": 12864,
            "durationTicks": 1
          },
          {
            "time": 35.52633,
            "midi": 46,
            "name": "A#2",
            "velocity": 0.5354330708661418,
            "duration": 0.0027412291666664146,
            "ticks": 12960,
            "durationTicks": 1
          },
          {
            "time": 35.789488,
            "midi": 42,
            "name": "F#2",
            "velocity": 0.9133858267716536,
            "duration": 0.0027412291666664146,
            "ticks": 13056,
            "durationTicks": 1
          },
          {
            "time": 35.789488,
            "midi": 36,
            "name": "C2",
            "velocity": 1,
            "duration": 0.0027412291666664146,
            "ticks": 13056,
            "durationTicks": 1
          },
          {
            "time": 36.052646,
            "midi": 42,
            "name": "F#2",
            "velocity": 0.3464566929133858,
            "duration": 0.002741229166659309,
            "ticks": 13152,
            "durationTicks": 1
          },
          {
            "time": 36.184225,
            "midi": 42,
            "name": "F#2",
            "velocity": 0.7874015748031497,
            "duration": 0.0027412291666664146,
            "ticks": 13200,
            "durationTicks": 1
          },
          {
            "time": 36.315804,
            "midi": 42,
            "name": "F#2",
            "velocity": 0.9133858267716536,
            "duration": 0.0027412291666664146,
            "ticks": 13248,
            "durationTicks": 1
          },
          {
            "time": 36.315804,
            "midi": 38,
            "name": "D2",
            "velocity": 0.9763779527559056,
            "duration": 0.0027412291666664146,
            "ticks": 13248,
            "durationTicks": 1
          },
          {
            "time": 36.315804,
            "midi": 36,
            "name": "C2",
            "velocity": 1,
            "duration": 0.0027412291666664146,
            "ticks": 13248,
            "durationTicks": 1
          },
          {
            "time": 36.315804,
            "midi": 39,
            "name": "D#2",
            "velocity": 0.7874015748031497,
            "duration": 0.0027412291666664146,
            "ticks": 13248,
            "durationTicks": 1
          },
          {
            "time": 36.578962,
            "midi": 42,
            "name": "F#2",
            "velocity": 0.25984251968503935,
            "duration": 0.0027412291666664146,
            "ticks": 13344,
            "durationTicks": 1
          },
          {
            "time": 36.710541,
            "midi": 42,
            "name": "F#2",
            "velocity": 0.6535433070866141,
            "duration": 0.0027412291666664146,
            "ticks": 13392,
            "durationTicks": 1
          },
          {
            "time": 36.84212,
            "midi": 42,
            "name": "F#2",
            "velocity": 0.9133858267716536,
            "duration": 0.0027412291666664146,
            "ticks": 13440,
            "durationTicks": 1
          },
          {
            "time": 36.84212,
            "midi": 36,
            "name": "C2",
            "velocity": 1,
            "duration": 0.0027412291666664146,
            "ticks": 13440,
            "durationTicks": 1
          },
          {
            "time": 37.105278,
            "midi": 42,
            "name": "F#2",
            "velocity": 0.5590551181102362,
            "duration": 0.0027412291666664146,
            "ticks": 13536,
            "durationTicks": 1
          },
          {
            "time": 37.236857,
            "midi": 42,
            "name": "F#2",
            "velocity": 0.6535433070866141,
            "duration": 0.0027412291666664146,
            "ticks": 13584,
            "durationTicks": 1
          },
          {
            "time": 37.368436,
            "midi": 42,
            "name": "F#2",
            "velocity": 1,
            "duration": 0.002741229166659309,
            "ticks": 13632,
            "durationTicks": 1
          },
          {
            "time": 37.368436,
            "midi": 38,
            "name": "D2",
            "velocity": 0.8818897637795275,
            "duration": 0.002741229166659309,
            "ticks": 13632,
            "durationTicks": 1
          },
          {
            "time": 37.368436,
            "midi": 36,
            "name": "C2",
            "velocity": 1,
            "duration": 0.002741229166659309,
            "ticks": 13632,
            "durationTicks": 1
          },
          {
            "time": 37.368436,
            "midi": 39,
            "name": "D#2",
            "velocity": 0.9133858267716536,
            "duration": 0.002741229166659309,
            "ticks": 13632,
            "durationTicks": 1
          },
          {
            "time": 37.631594,
            "midi": 42,
            "name": "F#2",
            "velocity": 0.3779527559055118,
            "duration": 0.0027412291666664146,
            "ticks": 13728,
            "durationTicks": 1
          },
          {
            "time": 37.763173,
            "midi": 42,
            "name": "F#2",
            "velocity": 0.48031496062992124,
            "duration": 0.002741229166659309,
            "ticks": 13776,
            "durationTicks": 1
          },
          {
            "time": 37.894752,
            "midi": 42,
            "name": "F#2",
            "velocity": 0.9133858267716536,
            "duration": 0.0027412291666664146,
            "ticks": 13824,
            "durationTicks": 1
          },
          {
            "time": 37.894752,
            "midi": 36,
            "name": "C2",
            "velocity": 1,
            "duration": 0.0027412291666664146,
            "ticks": 13824,
            "durationTicks": 1
          },
          {
            "time": 38.15791,
            "midi": 42,
            "name": "F#2",
            "velocity": 0.5590551181102362,
            "duration": 0.0027412291666664146,
            "ticks": 13920,
            "durationTicks": 1
          },
          {
            "time": 38.289489,
            "midi": 42,
            "name": "F#2",
            "velocity": 0.5590551181102362,
            "duration": 0.002741229166659309,
            "ticks": 13968,
            "durationTicks": 1
          },
          {
            "time": 38.421068,
            "midi": 42,
            "name": "F#2",
            "velocity": 0.9133858267716536,
            "duration": 0.0027412291666664146,
            "ticks": 14016,
            "durationTicks": 1
          },
          {
            "time": 38.421068,
            "midi": 38,
            "name": "D2",
            "velocity": 0.9763779527559056,
            "duration": 0.0027412291666664146,
            "ticks": 14016,
            "durationTicks": 1
          },
          {
            "time": 38.421068,
            "midi": 36,
            "name": "C2",
            "velocity": 1,
            "duration": 0.0027412291666664146,
            "ticks": 14016,
            "durationTicks": 1
          },
          {
            "time": 38.421068,
            "midi": 39,
            "name": "D#2",
            "velocity": 0.7874015748031497,
            "duration": 0.0027412291666664146,
            "ticks": 14016,
            "durationTicks": 1
          },
          {
            "time": 38.684226,
            "midi": 46,
            "name": "A#2",
            "velocity": 0.5354330708661418,
            "duration": 0.002741229166659309,
            "ticks": 14112,
            "durationTicks": 1
          },
          {
            "time": 38.947384,
            "midi": 42,
            "name": "F#2",
            "velocity": 0.9133858267716536,
            "duration": 0.0027412291666664146,
            "ticks": 14208,
            "durationTicks": 1
          },
          {
            "time": 38.947384,
            "midi": 36,
            "name": "C2",
            "velocity": 1,
            "duration": 0.0027412291666664146,
            "ticks": 14208,
            "durationTicks": 1
          },
          {
            "time": 39.210542000000004,
            "midi": 42,
            "name": "F#2",
            "velocity": 0.48031496062992124,
            "duration": 0.002741229166659309,
            "ticks": 14304,
            "durationTicks": 1
          },
          {
            "time": 39.342121,
            "midi": 42,
            "name": "F#2",
            "velocity": 0.7874015748031497,
            "duration": 0.0027412291666664146,
            "ticks": 14352,
            "durationTicks": 1
          },
          {
            "time": 39.4737,
            "midi": 42,
            "name": "F#2",
            "velocity": 0.9133858267716536,
            "duration": 0.0027412291666664146,
            "ticks": 14400,
            "durationTicks": 1
          },
          {
            "time": 39.4737,
            "midi": 38,
            "name": "D2",
            "velocity": 0.984251968503937,
            "duration": 0.0027412291666664146,
            "ticks": 14400,
            "durationTicks": 1
          },
          {
            "time": 39.4737,
            "midi": 36,
            "name": "C2",
            "velocity": 1,
            "duration": 0.0027412291666664146,
            "ticks": 14400,
            "durationTicks": 1
          },
          {
            "time": 39.4737,
            "midi": 39,
            "name": "D#2",
            "velocity": 0.984251968503937,
            "duration": 0.0027412291666664146,
            "ticks": 14400,
            "durationTicks": 1
          },
          {
            "time": 39.605279,
            "midi": 39,
            "name": "D#2",
            "velocity": 0.8267716535433071,
            "duration": 0.002741229166659309,
            "ticks": 14448,
            "durationTicks": 1
          },
          {
            "time": 39.736858,
            "midi": 46,
            "name": "A#2",
            "velocity": 0.7480314960629921,
            "duration": 0.0027412291666664146,
            "ticks": 14496,
            "durationTicks": 1
          },
          {
            "time": 39.736858,
            "midi": 39,
            "name": "D#2",
            "velocity": 0.6692913385826772,
            "duration": 0.0027412291666664146,
            "ticks": 14496,
            "durationTicks": 1
          },
          {
            "time": 39.868437,
            "midi": 39,
            "name": "D#2",
            "velocity": 0.5118110236220472,
            "duration": 0.0027412291666664146,
            "ticks": 14544,
            "durationTicks": 1
          },
          {
            "time": 40.000016,
            "midi": 46,
            "name": "A#2",
            "velocity": 0.8818897637795275,
            "duration": 0.002741229166659309,
            "ticks": 14592,
            "durationTicks": 1
          },
          {
            "time": 40.000016,
            "midi": 36,
            "name": "C2",
            "velocity": 1,
            "duration": 0.002741229166659309,
            "ticks": 14592,
            "durationTicks": 1
          },
          {
            "time": 40.263174,
            "midi": 42,
            "name": "F#2",
            "velocity": 0.4251968503937008,
            "duration": 0.0027412291666664146,
            "ticks": 14688,
            "durationTicks": 1
          },
          {
            "time": 40.394753,
            "midi": 42,
            "name": "F#2",
            "velocity": 0.7874015748031497,
            "duration": 0.0027412291666664146,
            "ticks": 14736,
            "durationTicks": 1
          },
          {
            "time": 40.526332000000004,
            "midi": 42,
            "name": "F#2",
            "velocity": 0.9133858267716536,
            "duration": 0.002741229166659309,
            "ticks": 14784,
            "durationTicks": 1
          },
          {
            "time": 40.526332000000004,
            "midi": 38,
            "name": "D2",
            "velocity": 0.8818897637795275,
            "duration": 0.002741229166659309,
            "ticks": 14784,
            "durationTicks": 1
          },
          {
            "time": 40.526332000000004,
            "midi": 36,
            "name": "C2",
            "velocity": 1,
            "duration": 0.002741229166659309,
            "ticks": 14784,
            "durationTicks": 1
          },
          {
            "time": 40.78949,
            "midi": 42,
            "name": "F#2",
            "velocity": 0.31496062992125984,
            "duration": 0.0027412291666664146,
            "ticks": 14880,
            "durationTicks": 1
          },
          {
            "time": 40.921069,
            "midi": 42,
            "name": "F#2",
            "velocity": 0.6535433070866141,
            "duration": 0.002741229166659309,
            "ticks": 14928,
            "durationTicks": 1
          },
          {
            "time": 41.052648,
            "midi": 42,
            "name": "F#2",
            "velocity": 0.9133858267716536,
            "duration": 0.0027412291666664146,
            "ticks": 14976,
            "durationTicks": 1
          },
          {
            "time": 41.052648,
            "midi": 36,
            "name": "C2",
            "velocity": 1,
            "duration": 0.0027412291666664146,
            "ticks": 14976,
            "durationTicks": 1
          },
          {
            "time": 41.315806,
            "midi": 42,
            "name": "F#2",
            "velocity": 0.3779527559055118,
            "duration": 0.002741229166659309,
            "ticks": 15072,
            "durationTicks": 1
          },
          {
            "time": 41.447385,
            "midi": 42,
            "name": "F#2",
            "velocity": 0.5590551181102362,
            "duration": 0.0027412291666664146,
            "ticks": 15120,
            "durationTicks": 1
          },
          {
            "time": 41.578964,
            "midi": 42,
            "name": "F#2",
            "velocity": 0.9133858267716536,
            "duration": 0.0027412291666664146,
            "ticks": 15168,
            "durationTicks": 1
          },
          {
            "time": 41.578964,
            "midi": 38,
            "name": "D2",
            "velocity": 0.9763779527559056,
            "duration": 0.0027412291666664146,
            "ticks": 15168,
            "durationTicks": 1
          },
          {
            "time": 41.578964,
            "midi": 36,
            "name": "C2",
            "velocity": 1,
            "duration": 0.0027412291666664146,
            "ticks": 15168,
            "durationTicks": 1
          },
          {
            "time": 41.842122,
            "midi": 42,
            "name": "F#2",
            "velocity": 0.10236220472440945,
            "duration": 0.002741229166659309,
            "ticks": 15264,
            "durationTicks": 1
          },
          {
            "time": 41.973701,
            "midi": 42,
            "name": "F#2",
            "velocity": 0.5590551181102362,
            "duration": 0.0027412291666664146,
            "ticks": 15312,
            "durationTicks": 1
          },
          {
            "time": 42.10528,
            "midi": 42,
            "name": "F#2",
            "velocity": 0.7874015748031497,
            "duration": 0.0027412291666664146,
            "ticks": 15360,
            "durationTicks": 1
          },
          {
            "time": 42.10528,
            "midi": 36,
            "name": "C2",
            "velocity": 1,
            "duration": 0.0027412291666664146,
            "ticks": 15360,
            "durationTicks": 1
          },
          {
            "time": 42.368438,
            "midi": 42,
            "name": "F#2",
            "velocity": 0.4251968503937008,
            "duration": 0.0027412291666664146,
            "ticks": 15456,
            "durationTicks": 1
          },
          {
            "time": 42.500017,
            "midi": 42,
            "name": "F#2",
            "velocity": 0.6535433070866141,
            "duration": 0.0027412291666664146,
            "ticks": 15504,
            "durationTicks": 1
          },
          {
            "time": 42.631596,
            "midi": 42,
            "name": "F#2",
            "velocity": 0.9133858267716536,
            "duration": 0.002741229166659309,
            "ticks": 15552,
            "durationTicks": 1
          },
          {
            "time": 42.631596,
            "midi": 38,
            "name": "D2",
            "velocity": 0.8818897637795275,
            "duration": 0.002741229166659309,
            "ticks": 15552,
            "durationTicks": 1
          },
          {
            "time": 42.631596,
            "midi": 36,
            "name": "C2",
            "velocity": 1,
            "duration": 0.002741229166659309,
            "ticks": 15552,
            "durationTicks": 1
          },
          {
            "time": 42.894754,
            "midi": 42,
            "name": "F#2",
            "velocity": 0.4251968503937008,
            "duration": 0.0027412291666664146,
            "ticks": 15648,
            "durationTicks": 1
          },
          {
            "time": 43.026333,
            "midi": 42,
            "name": "F#2",
            "velocity": 0.5590551181102362,
            "duration": 0.0027412291666664146,
            "ticks": 15696,
            "durationTicks": 1
          },
          {
            "time": 43.157912,
            "midi": 42,
            "name": "F#2",
            "velocity": 0.7874015748031497,
            "duration": 0.002741229166659309,
            "ticks": 15744,
            "durationTicks": 1
          },
          {
            "time": 43.157912,
            "midi": 36,
            "name": "C2",
            "velocity": 1,
            "duration": 0.002741229166659309,
            "ticks": 15744,
            "durationTicks": 1
          },
          {
            "time": 43.42107,
            "midi": 42,
            "name": "F#2",
            "velocity": 0.5590551181102362,
            "duration": 0.0027412291666664146,
            "ticks": 15840,
            "durationTicks": 1
          },
          {
            "time": 43.552649,
            "midi": 42,
            "name": "F#2",
            "velocity": 0.5590551181102362,
            "duration": 0.002741229166659309,
            "ticks": 15888,
            "durationTicks": 1
          },
          {
            "time": 43.684228,
            "midi": 42,
            "name": "F#2",
            "velocity": 0.9133858267716536,
            "duration": 0.0027412291666664146,
            "ticks": 15936,
            "durationTicks": 1
          },
          {
            "time": 43.684228,
            "midi": 38,
            "name": "D2",
            "velocity": 0.8818897637795275,
            "duration": 0.0027412291666664146,
            "ticks": 15936,
            "durationTicks": 1
          },
          {
            "time": 43.684228,
            "midi": 36,
            "name": "C2",
            "velocity": 1,
            "duration": 0.0027412291666664146,
            "ticks": 15936,
            "durationTicks": 1
          },
          {
            "time": 43.947386,
            "midi": 46,
            "name": "A#2",
            "velocity": 0.5354330708661418,
            "duration": 0.0027412291666664146,
            "ticks": 16032,
            "durationTicks": 1
          },
          {
            "time": 44.210544,
            "midi": 42,
            "name": "F#2",
            "velocity": 0.9133858267716536,
            "duration": 0.0027412291666664146,
            "ticks": 16128,
            "durationTicks": 1
          },
          {
            "time": 44.210544,
            "midi": 36,
            "name": "C2",
            "velocity": 1,
            "duration": 0.0027412291666664146,
            "ticks": 16128,
            "durationTicks": 1
          },
          {
            "time": 44.473702,
            "midi": 42,
            "name": "F#2",
            "velocity": 0.3464566929133858,
            "duration": 0.002741229166659309,
            "ticks": 16224,
            "durationTicks": 1
          },
          {
            "time": 44.605281,
            "midi": 42,
            "name": "F#2",
            "velocity": 0.7874015748031497,
            "duration": 0.0027412291666664146,
            "ticks": 16272,
            "durationTicks": 1
          },
          {
            "time": 44.73686,
            "midi": 42,
            "name": "F#2",
            "velocity": 0.9133858267716536,
            "duration": 0.0027412291666664146,
            "ticks": 16320,
            "durationTicks": 1
          },
          {
            "time": 44.73686,
            "midi": 38,
            "name": "D2",
            "velocity": 0.9763779527559056,
            "duration": 0.0027412291666664146,
            "ticks": 16320,
            "durationTicks": 1
          },
          {
            "time": 44.73686,
            "midi": 36,
            "name": "C2",
            "velocity": 1,
            "duration": 0.0027412291666664146,
            "ticks": 16320,
            "durationTicks": 1
          },
          {
            "time": 45.000018,
            "midi": 42,
            "name": "F#2",
            "velocity": 0.25984251968503935,
            "duration": 0.0027412291666664146,
            "ticks": 16416,
            "durationTicks": 1
          },
          {
            "time": 45.131597,
            "midi": 42,
            "name": "F#2",
            "velocity": 0.6535433070866141,
            "duration": 0.0027412291666664146,
            "ticks": 16464,
            "durationTicks": 1
          },
          {
            "time": 45.263176,
            "midi": 42,
            "name": "F#2",
            "velocity": 0.9133858267716536,
            "duration": 0.0027412291666664146,
            "ticks": 16512,
            "durationTicks": 1
          },
          {
            "time": 45.263176,
            "midi": 36,
            "name": "C2",
            "velocity": 1,
            "duration": 0.0027412291666664146,
            "ticks": 16512,
            "durationTicks": 1
          },
          {
            "time": 45.526334,
            "midi": 42,
            "name": "F#2",
            "velocity": 0.5590551181102362,
            "duration": 0.0027412291666664146,
            "ticks": 16608,
            "durationTicks": 1
          },
          {
            "time": 45.657913,
            "midi": 42,
            "name": "F#2",
            "velocity": 0.6535433070866141,
            "duration": 0.0027412291666664146,
            "ticks": 16656,
            "durationTicks": 1
          },
          {
            "time": 45.789492,
            "midi": 42,
            "name": "F#2",
            "velocity": 1,
            "duration": 0.002741229166659309,
            "ticks": 16704,
            "durationTicks": 1
          },
          {
            "time": 45.789492,
            "midi": 38,
            "name": "D2",
            "velocity": 0.8818897637795275,
            "duration": 0.002741229166659309,
            "ticks": 16704,
            "durationTicks": 1
          },
          {
            "time": 45.789492,
            "midi": 36,
            "name": "C2",
            "velocity": 1,
            "duration": 0.002741229166659309,
            "ticks": 16704,
            "durationTicks": 1
          },
          {
            "time": 46.05265,
            "midi": 42,
            "name": "F#2",
            "velocity": 0.3779527559055118,
            "duration": 0.0027412291666664146,
            "ticks": 16800,
            "durationTicks": 1
          },
          {
            "time": 46.184229,
            "midi": 42,
            "name": "F#2",
            "velocity": 0.48031496062992124,
            "duration": 0.002741229166659309,
            "ticks": 16848,
            "durationTicks": 1
          },
          {
            "time": 46.315808000000004,
            "midi": 42,
            "name": "F#2",
            "velocity": 0.9133858267716536,
            "duration": 0.002741229166659309,
            "ticks": 16896,
            "durationTicks": 1
          },
          {
            "time": 46.315808000000004,
            "midi": 36,
            "name": "C2",
            "velocity": 1,
            "duration": 0.002741229166659309,
            "ticks": 16896,
            "durationTicks": 1
          },
          {
            "time": 46.578966,
            "midi": 42,
            "name": "F#2",
            "velocity": 0.5590551181102362,
            "duration": 0.0027412291666664146,
            "ticks": 16992,
            "durationTicks": 1
          },
          {
            "time": 46.578966,
            "midi": 38,
            "name": "D2",
            "velocity": 0.8818897637795275,
            "duration": 0.0027412291666664146,
            "ticks": 16992,
            "durationTicks": 1
          },
          {
            "time": 46.710545,
            "midi": 42,
            "name": "F#2",
            "velocity": 0.5590551181102362,
            "duration": 0.002741229166659309,
            "ticks": 17040,
            "durationTicks": 1
          },
          {
            "time": 46.842124,
            "midi": 42,
            "name": "F#2",
            "velocity": 0.9133858267716536,
            "duration": 0.0027412291666664146,
            "ticks": 17088,
            "durationTicks": 1
          },
          {
            "time": 46.842124,
            "midi": 36,
            "name": "C2",
            "velocity": 1,
            "duration": 0.0027412291666664146,
            "ticks": 17088,
            "durationTicks": 1
          },
          {
            "time": 46.973703,
            "midi": 38,
            "name": "D2",
            "velocity": 0.9763779527559056,
            "duration": 0.0027412291666664146,
            "ticks": 17136,
            "durationTicks": 1
          },
          {
            "time": 47.105282,
            "midi": 46,
            "name": "A#2",
            "velocity": 0.5354330708661418,
            "duration": 0.002741229166659309,
            "ticks": 17184,
            "durationTicks": 1
          },
          {
            "time": 47.36844,
            "midi": 42,
            "name": "F#2",
            "velocity": 0.9133858267716536,
            "duration": 0.0027412291666664146,
            "ticks": 17280,
            "durationTicks": 1
          },
          {
            "time": 47.36844,
            "midi": 38,
            "name": "D2",
            "velocity": 0.8818897637795275,
            "duration": 0.0027412291666664146,
            "ticks": 17280,
            "durationTicks": 1
          },
          {
            "time": 47.36844,
            "midi": 36,
            "name": "C2",
            "velocity": 1,
            "duration": 0.0027412291666664146,
            "ticks": 17280,
            "durationTicks": 1
          },
          {
            "time": 47.631598000000004,
            "midi": 42,
            "name": "F#2",
            "velocity": 0.48031496062992124,
            "duration": 0.002741229166659309,
            "ticks": 17376,
            "durationTicks": 1
          },
          {
            "time": 47.631598000000004,
            "midi": 38,
            "name": "D2",
            "velocity": 0.5354330708661418,
            "duration": 0.002741229166659309,
            "ticks": 17376,
            "durationTicks": 1
          },
          {
            "time": 47.763177,
            "midi": 42,
            "name": "F#2",
            "velocity": 0.7874015748031497,
            "duration": 0.0027412291666664146,
            "ticks": 17424,
            "durationTicks": 1
          },
          {
            "time": 47.763177,
            "midi": 38,
            "name": "D2",
            "velocity": 0.4645669291338583,
            "duration": 0.0027412291666664146,
            "ticks": 17424,
            "durationTicks": 1
          },
          {
            "time": 47.894756,
            "midi": 42,
            "name": "F#2",
            "velocity": 0.9133858267716536,
            "duration": 0.0027412291666664146,
            "ticks": 17472,
            "durationTicks": 1
          },
          {
            "time": 47.894756,
            "midi": 38,
            "name": "D2",
            "velocity": 0.6299212598425197,
            "duration": 0.0027412291666664146,
            "ticks": 17472,
            "durationTicks": 1
          },
          {
            "time": 47.894756,
            "midi": 36,
            "name": "C2",
            "velocity": 1,
            "duration": 0.0027412291666664146,
            "ticks": 17472,
            "durationTicks": 1
          },
          {
            "time": 48.026335,
            "midi": 38,
            "name": "D2",
            "velocity": 0.6299212598425197,
            "duration": 0.002741229166659309,
            "ticks": 17520,
            "durationTicks": 1
          },
          {
            "time": 48.157914,
            "midi": 46,
            "name": "A#2",
            "velocity": 0.7480314960629921,
            "duration": 0.0027412291666664146,
            "ticks": 17568,
            "durationTicks": 1
          },
          {
            "time": 48.157914,
            "midi": 38,
            "name": "D2",
            "velocity": 0.7480314960629921,
            "duration": 0.0027412291666664146,
            "ticks": 17568,
            "durationTicks": 1
          },
          {
            "time": 48.289493,
            "midi": 38,
            "name": "D2",
            "velocity": 0.8818897637795275,
            "duration": 0.0027412291666664146,
            "ticks": 17616,
            "durationTicks": 1
          },
          {
            "time": 48.421072,
            "midi": 42,
            "name": "F#2",
            "velocity": 0.8818897637795275,
            "duration": 0.002741229166659309,
            "ticks": 17664,
            "durationTicks": 1
          },
          {
            "time": 48.421072,
            "midi": 36,
            "name": "C2",
            "velocity": 1,
            "duration": 0.002741229166659309,
            "ticks": 17664,
            "durationTicks": 1
          },
          {
            "time": 48.68423,
            "midi": 42,
            "name": "F#2",
            "velocity": 0.4251968503937008,
            "duration": 0.0027412291666664146,
            "ticks": 17760,
            "durationTicks": 1
          },
          {
            "time": 48.815809,
            "midi": 42,
            "name": "F#2",
            "velocity": 0.7874015748031497,
            "duration": 0.0027412291666664146,
            "ticks": 17808,
            "durationTicks": 1
          },
          {
            "time": 48.947388000000004,
            "midi": 42,
            "name": "F#2",
            "velocity": 0.9133858267716536,
            "duration": 0.002741229166659309,
            "ticks": 17856,
            "durationTicks": 1
          },
          {
            "time": 48.947388000000004,
            "midi": 38,
            "name": "D2",
            "velocity": 0.8818897637795275,
            "duration": 0.002741229166659309,
            "ticks": 17856,
            "durationTicks": 1
          },
          {
            "time": 48.947388000000004,
            "midi": 36,
            "name": "C2",
            "velocity": 1,
            "duration": 0.002741229166659309,
            "ticks": 17856,
            "durationTicks": 1
          },
          {
            "time": 48.947388000000004,
            "midi": 39,
            "name": "D#2",
            "velocity": 0.7874015748031497,
            "duration": 0.002741229166659309,
            "ticks": 17856,
            "durationTicks": 1
          },
          {
            "time": 49.210546,
            "midi": 42,
            "name": "F#2",
            "velocity": 0.31496062992125984,
            "duration": 0.0027412291666664146,
            "ticks": 17952,
            "durationTicks": 1
          },
          {
            "time": 49.342125,
            "midi": 42,
            "name": "F#2",
            "velocity": 0.6535433070866141,
            "duration": 0.002741229166659309,
            "ticks": 18000,
            "durationTicks": 1
          },
          {
            "time": 49.473704,
            "midi": 42,
            "name": "F#2",
            "velocity": 0.9133858267716536,
            "duration": 0.0027412291666664146,
            "ticks": 18048,
            "durationTicks": 1
          },
          {
            "time": 49.473704,
            "midi": 36,
            "name": "C2",
            "velocity": 1,
            "duration": 0.0027412291666664146,
            "ticks": 18048,
            "durationTicks": 1
          },
          {
            "time": 49.736862,
            "midi": 42,
            "name": "F#2",
            "velocity": 0.3779527559055118,
            "duration": 0.002741229166659309,
            "ticks": 18144,
            "durationTicks": 1
          },
          {
            "time": 49.868441,
            "midi": 42,
            "name": "F#2",
            "velocity": 0.5590551181102362,
            "duration": 0.0027412291666664146,
            "ticks": 18192,
            "durationTicks": 1
          },
          {
            "time": 50.00002,
            "midi": 42,
            "name": "F#2",
            "velocity": 0.9133858267716536,
            "duration": 0.0027412291666664146,
            "ticks": 18240,
            "durationTicks": 1
          },
          {
            "time": 50.00002,
            "midi": 38,
            "name": "D2",
            "velocity": 0.9763779527559056,
            "duration": 0.0027412291666664146,
            "ticks": 18240,
            "durationTicks": 1
          },
          {
            "time": 50.00002,
            "midi": 36,
            "name": "C2",
            "velocity": 1,
            "duration": 0.0027412291666664146,
            "ticks": 18240,
            "durationTicks": 1
          },
          {
            "time": 50.00002,
            "midi": 39,
            "name": "D#2",
            "velocity": 0.9133858267716536,
            "duration": 0.0027412291666664146,
            "ticks": 18240,
            "durationTicks": 1
          },
          {
            "time": 50.263178,
            "midi": 42,
            "name": "F#2",
            "velocity": 0.10236220472440945,
            "duration": 0.002741229166659309,
            "ticks": 18336,
            "durationTicks": 1
          },
          {
            "time": 50.394757,
            "midi": 42,
            "name": "F#2",
            "velocity": 0.5590551181102362,
            "duration": 0.0027412291666664146,
            "ticks": 18384,
            "durationTicks": 1
          },
          {
            "time": 50.526336,
            "midi": 42,
            "name": "F#2",
            "velocity": 0.7874015748031497,
            "duration": 0.0027412291666664146,
            "ticks": 18432,
            "durationTicks": 1
          },
          {
            "time": 50.526336,
            "midi": 36,
            "name": "C2",
            "velocity": 1,
            "duration": 0.0027412291666664146,
            "ticks": 18432,
            "durationTicks": 1
          },
          {
            "time": 50.789494,
            "midi": 42,
            "name": "F#2",
            "velocity": 0.4251968503937008,
            "duration": 0.0027412291666664146,
            "ticks": 18528,
            "durationTicks": 1
          },
          {
            "time": 50.921073,
            "midi": 42,
            "name": "F#2",
            "velocity": 0.6535433070866141,
            "duration": 0.0027412291666664146,
            "ticks": 18576,
            "durationTicks": 1
          },
          {
            "time": 51.052652,
            "midi": 42,
            "name": "F#2",
            "velocity": 0.9133858267716536,
            "duration": 0.002741229166659309,
            "ticks": 18624,
            "durationTicks": 1
          },
          {
            "time": 51.052652,
            "midi": 38,
            "name": "D2",
            "velocity": 0.8818897637795275,
            "duration": 0.002741229166659309,
            "ticks": 18624,
            "durationTicks": 1
          },
          {
            "time": 51.052652,
            "midi": 36,
            "name": "C2",
            "velocity": 1,
            "duration": 0.002741229166659309,
            "ticks": 18624,
            "durationTicks": 1
          },
          {
            "time": 51.052652,
            "midi": 39,
            "name": "D#2",
            "velocity": 0.9133858267716536,
            "duration": 0.002741229166659309,
            "ticks": 18624,
            "durationTicks": 1
          },
          {
            "time": 51.31581,
            "midi": 42,
            "name": "F#2",
            "velocity": 0.4251968503937008,
            "duration": 0.0027412291666664146,
            "ticks": 18720,
            "durationTicks": 1
          },
          {
            "time": 51.447389,
            "midi": 42,
            "name": "F#2",
            "velocity": 0.5590551181102362,
            "duration": 0.0027412291666664146,
            "ticks": 18768,
            "durationTicks": 1
          },
          {
            "time": 51.578968,
            "midi": 42,
            "name": "F#2",
            "velocity": 0.7874015748031497,
            "duration": 0.002741229166659309,
            "ticks": 18816,
            "durationTicks": 1
          },
          {
            "time": 51.578968,
            "midi": 36,
            "name": "C2",
            "velocity": 1,
            "duration": 0.002741229166659309,
            "ticks": 18816,
            "durationTicks": 1
          },
          {
            "time": 51.842126,
            "midi": 42,
            "name": "F#2",
            "velocity": 0.5590551181102362,
            "duration": 0.0027412291666664146,
            "ticks": 18912,
            "durationTicks": 1
          },
          {
            "time": 51.973705,
            "midi": 42,
            "name": "F#2",
            "velocity": 0.5590551181102362,
            "duration": 0.002741229166659309,
            "ticks": 18960,
            "durationTicks": 1
          },
          {
            "time": 52.105284,
            "midi": 42,
            "name": "F#2",
            "velocity": 0.9133858267716536,
            "duration": 0.0027412291666664146,
            "ticks": 19008,
            "durationTicks": 1
          },
          {
            "time": 52.105284,
            "midi": 38,
            "name": "D2",
            "velocity": 0.8818897637795275,
            "duration": 0.0027412291666664146,
            "ticks": 19008,
            "durationTicks": 1
          },
          {
            "time": 52.105284,
            "midi": 36,
            "name": "C2",
            "velocity": 1,
            "duration": 0.0027412291666664146,
            "ticks": 19008,
            "durationTicks": 1
          },
          {
            "time": 52.105284,
            "midi": 39,
            "name": "D#2",
            "velocity": 0.7874015748031497,
            "duration": 0.0027412291666664146,
            "ticks": 19008,
            "durationTicks": 1
          },
          {
            "time": 52.368442,
            "midi": 46,
            "name": "A#2",
            "velocity": 0.5354330708661418,
            "duration": 0.0027412291666664146,
            "ticks": 19104,
            "durationTicks": 1
          },
          {
            "time": 52.6316,
            "midi": 42,
            "name": "F#2",
            "velocity": 0.9133858267716536,
            "duration": 0.0027412291666664146,
            "ticks": 19200,
            "durationTicks": 1
          },
          {
            "time": 52.6316,
            "midi": 36,
            "name": "C2",
            "velocity": 1,
            "duration": 0.0027412291666664146,
            "ticks": 19200,
            "durationTicks": 1
          },
          {
            "time": 52.894758,
            "midi": 42,
            "name": "F#2",
            "velocity": 0.3464566929133858,
            "duration": 0.002741229166659309,
            "ticks": 19296,
            "durationTicks": 1
          },
          {
            "time": 53.026337,
            "midi": 42,
            "name": "F#2",
            "velocity": 0.7874015748031497,
            "duration": 0.0027412291666664146,
            "ticks": 19344,
            "durationTicks": 1
          },
          {
            "time": 53.157916,
            "midi": 42,
            "name": "F#2",
            "velocity": 0.9133858267716536,
            "duration": 0.0027412291666664146,
            "ticks": 19392,
            "durationTicks": 1
          },
          {
            "time": 53.157916,
            "midi": 38,
            "name": "D2",
            "velocity": 0.9763779527559056,
            "duration": 0.0027412291666664146,
            "ticks": 19392,
            "durationTicks": 1
          },
          {
            "time": 53.157916,
            "midi": 36,
            "name": "C2",
            "velocity": 1,
            "duration": 0.0027412291666664146,
            "ticks": 19392,
            "durationTicks": 1
          },
          {
            "time": 53.157916,
            "midi": 39,
            "name": "D#2",
            "velocity": 0.7874015748031497,
            "duration": 0.0027412291666664146,
            "ticks": 19392,
            "durationTicks": 1
          },
          {
            "time": 53.421074,
            "midi": 42,
            "name": "F#2",
            "velocity": 0.25984251968503935,
            "duration": 0.0027412291666664146,
            "ticks": 19488,
            "durationTicks": 1
          },
          {
            "time": 53.552653,
            "midi": 42,
            "name": "F#2",
            "velocity": 0.6535433070866141,
            "duration": 0.0027412291666664146,
            "ticks": 19536,
            "durationTicks": 1
          },
          {
            "time": 53.684232,
            "midi": 42,
            "name": "F#2",
            "velocity": 0.9133858267716536,
            "duration": 0.0027412291666664146,
            "ticks": 19584,
            "durationTicks": 1
          },
          {
            "time": 53.684232,
            "midi": 36,
            "name": "C2",
            "velocity": 1,
            "duration": 0.0027412291666664146,
            "ticks": 19584,
            "durationTicks": 1
          },
          {
            "time": 53.94739,
            "midi": 42,
            "name": "F#2",
            "velocity": 0.5590551181102362,
            "duration": 0.0027412291666664146,
            "ticks": 19680,
            "durationTicks": 1
          },
          {
            "time": 54.078969,
            "midi": 42,
            "name": "F#2",
            "velocity": 0.6535433070866141,
            "duration": 0.0027412291666664146,
            "ticks": 19728,
            "durationTicks": 1
          },
          {
            "time": 54.210548,
            "midi": 42,
            "name": "F#2",
            "velocity": 1,
            "duration": 0.002741229166659309,
            "ticks": 19776,
            "durationTicks": 1
          },
          {
            "time": 54.210548,
            "midi": 38,
            "name": "D2",
            "velocity": 0.8818897637795275,
            "duration": 0.002741229166659309,
            "ticks": 19776,
            "durationTicks": 1
          },
          {
            "time": 54.210548,
            "midi": 36,
            "name": "C2",
            "velocity": 1,
            "duration": 0.002741229166659309,
            "ticks": 19776,
            "durationTicks": 1
          },
          {
            "time": 54.210548,
            "midi": 39,
            "name": "D#2",
            "velocity": 0.9133858267716536,
            "duration": 0.002741229166659309,
            "ticks": 19776,
            "durationTicks": 1
          },
          {
            "time": 54.473706,
            "midi": 42,
            "name": "F#2",
            "velocity": 0.3779527559055118,
            "duration": 0.0027412291666664146,
            "ticks": 19872,
            "durationTicks": 1
          },
          {
            "time": 54.605285,
            "midi": 42,
            "name": "F#2",
            "velocity": 0.48031496062992124,
            "duration": 0.002741229166659309,
            "ticks": 19920,
            "durationTicks": 1
          },
          {
            "time": 54.736864,
            "midi": 42,
            "name": "F#2",
            "velocity": 0.9133858267716536,
            "duration": 0.0027412291666664146,
            "ticks": 19968,
            "durationTicks": 1
          },
          {
            "time": 54.736864,
            "midi": 36,
            "name": "C2",
            "velocity": 1,
            "duration": 0.0027412291666664146,
            "ticks": 19968,
            "durationTicks": 1
          },
          {
            "time": 55.000022,
            "midi": 42,
            "name": "F#2",
            "velocity": 0.5590551181102362,
            "duration": 0.0027412291666664146,
            "ticks": 20064,
            "durationTicks": 1
          },
          {
            "time": 55.131601,
            "midi": 42,
            "name": "F#2",
            "velocity": 0.5590551181102362,
            "duration": 0.002741229166659309,
            "ticks": 20112,
            "durationTicks": 1
          },
          {
            "time": 55.26318,
            "midi": 42,
            "name": "F#2",
            "velocity": 0.9133858267716536,
            "duration": 0.0027412291666664146,
            "ticks": 20160,
            "durationTicks": 1
          },
          {
            "time": 55.26318,
            "midi": 38,
            "name": "D2",
            "velocity": 0.9763779527559056,
            "duration": 0.0027412291666664146,
            "ticks": 20160,
            "durationTicks": 1
          },
          {
            "time": 55.26318,
            "midi": 36,
            "name": "C2",
            "velocity": 1,
            "duration": 0.0027412291666664146,
            "ticks": 20160,
            "durationTicks": 1
          },
          {
            "time": 55.26318,
            "midi": 39,
            "name": "D#2",
            "velocity": 0.7874015748031497,
            "duration": 0.0027412291666664146,
            "ticks": 20160,
            "durationTicks": 1
          },
          {
            "time": 55.526338,
            "midi": 46,
            "name": "A#2",
            "velocity": 0.5354330708661418,
            "duration": 0.002741229166659309,
            "ticks": 20256,
            "durationTicks": 1
          },
          {
            "time": 55.789496,
            "midi": 42,
            "name": "F#2",
            "velocity": 0.9133858267716536,
            "duration": 0.0027412291666664146,
            "ticks": 20352,
            "durationTicks": 1
          },
          {
            "time": 55.789496,
            "midi": 36,
            "name": "C2",
            "velocity": 1,
            "duration": 0.0027412291666664146,
            "ticks": 20352,
            "durationTicks": 1
          },
          {
            "time": 56.052654000000004,
            "midi": 42,
            "name": "F#2",
            "velocity": 0.48031496062992124,
            "duration": 0.002741229166659309,
            "ticks": 20448,
            "durationTicks": 1
          },
          {
            "time": 56.184233,
            "midi": 42,
            "name": "F#2",
            "velocity": 0.7874015748031497,
            "duration": 0.0027412291666664146,
            "ticks": 20496,
            "durationTicks": 1
          },
          {
            "time": 56.315812,
            "midi": 42,
            "name": "F#2",
            "velocity": 0.9133858267716536,
            "duration": 0.0027412291666664146,
            "ticks": 20544,
            "durationTicks": 1
          },
          {
            "time": 56.315812,
            "midi": 38,
            "name": "D2",
            "velocity": 0.984251968503937,
            "duration": 0.0027412291666664146,
            "ticks": 20544,
            "durationTicks": 1
          },
          {
            "time": 56.315812,
            "midi": 36,
            "name": "C2",
            "velocity": 1,
            "duration": 0.0027412291666664146,
            "ticks": 20544,
            "durationTicks": 1
          },
          {
            "time": 56.315812,
            "midi": 39,
            "name": "D#2",
            "velocity": 0.984251968503937,
            "duration": 0.0027412291666664146,
            "ticks": 20544,
            "durationTicks": 1
          },
          {
            "time": 56.447391,
            "midi": 39,
            "name": "D#2",
            "velocity": 0.8267716535433071,
            "duration": 0.002741229166659309,
            "ticks": 20592,
            "durationTicks": 1
          },
          {
            "time": 56.57897,
            "midi": 46,
            "name": "A#2",
            "velocity": 0.7480314960629921,
            "duration": 0.0027412291666664146,
            "ticks": 20640,
            "durationTicks": 1
          },
          {
            "time": 56.57897,
            "midi": 39,
            "name": "D#2",
            "velocity": 0.6692913385826772,
            "duration": 0.0027412291666664146,
            "ticks": 20640,
            "durationTicks": 1
          },
          {
            "time": 56.710549,
            "midi": 39,
            "name": "D#2",
            "velocity": 0.5118110236220472,
            "duration": 0.0027412291666664146,
            "ticks": 20688,
            "durationTicks": 1
          },
          {
            "time": 56.842128,
            "midi": 42,
            "name": "F#2",
            "velocity": 0.8818897637795275,
            "duration": 0.002741229166659309,
            "ticks": 20736,
            "durationTicks": 1
          },
          {
            "time": 56.842128,
            "midi": 36,
            "name": "C2",
            "velocity": 1,
            "duration": 0.002741229166659309,
            "ticks": 20736,
            "durationTicks": 1
          },
          {
            "time": 57.105286,
            "midi": 42,
            "name": "F#2",
            "velocity": 0.4251968503937008,
            "duration": 0.0027412291666664146,
            "ticks": 20832,
            "durationTicks": 1
          },
          {
            "time": 57.236865,
            "midi": 42,
            "name": "F#2",
            "velocity": 0.7874015748031497,
            "duration": 0.0027412291666664146,
            "ticks": 20880,
            "durationTicks": 1
          },
          {
            "time": 57.368444000000004,
            "midi": 42,
            "name": "F#2",
            "velocity": 0.9133858267716536,
            "duration": 0.002741229166659309,
            "ticks": 20928,
            "durationTicks": 1
          },
          {
            "time": 57.368444000000004,
            "midi": 38,
            "name": "D2",
            "velocity": 0.8818897637795275,
            "duration": 0.002741229166659309,
            "ticks": 20928,
            "durationTicks": 1
          },
          {
            "time": 57.368444000000004,
            "midi": 36,
            "name": "C2",
            "velocity": 1,
            "duration": 0.002741229166659309,
            "ticks": 20928,
            "durationTicks": 1
          },
          {
            "time": 57.368444000000004,
            "midi": 39,
            "name": "D#2",
            "velocity": 0.7874015748031497,
            "duration": 0.002741229166659309,
            "ticks": 20928,
            "durationTicks": 1
          },
          {
            "time": 57.631602,
            "midi": 42,
            "name": "F#2",
            "velocity": 0.31496062992125984,
            "duration": 0.0027412291666664146,
            "ticks": 21024,
            "durationTicks": 1
          },
          {
            "time": 57.763181,
            "midi": 42,
            "name": "F#2",
            "velocity": 0.6535433070866141,
            "duration": 0.002741229166659309,
            "ticks": 21072,
            "durationTicks": 1
          },
          {
            "time": 57.89476,
            "midi": 42,
            "name": "F#2",
            "velocity": 0.9133858267716536,
            "duration": 0.0027412291666664146,
            "ticks": 21120,
            "durationTicks": 1
          },
          {
            "time": 57.89476,
            "midi": 36,
            "name": "C2",
            "velocity": 1,
            "duration": 0.0027412291666664146,
            "ticks": 21120,
            "durationTicks": 1
          },
          {
            "time": 58.157918,
            "midi": 42,
            "name": "F#2",
            "velocity": 0.3779527559055118,
            "duration": 0.002741229166659309,
            "ticks": 21216,
            "durationTicks": 1
          },
          {
            "time": 58.289497,
            "midi": 42,
            "name": "F#2",
            "velocity": 0.5590551181102362,
            "duration": 0.0027412291666664146,
            "ticks": 21264,
            "durationTicks": 1
          },
          {
            "time": 58.421076,
            "midi": 42,
            "name": "F#2",
            "velocity": 0.9133858267716536,
            "duration": 0.0027412291666664146,
            "ticks": 21312,
            "durationTicks": 1
          },
          {
            "time": 58.421076,
            "midi": 38,
            "name": "D2",
            "velocity": 0.9763779527559056,
            "duration": 0.0027412291666664146,
            "ticks": 21312,
            "durationTicks": 1
          },
          {
            "time": 58.421076,
            "midi": 36,
            "name": "C2",
            "velocity": 1,
            "duration": 0.0027412291666664146,
            "ticks": 21312,
            "durationTicks": 1
          },
          {
            "time": 58.421076,
            "midi": 39,
            "name": "D#2",
            "velocity": 0.9133858267716536,
            "duration": 0.0027412291666664146,
            "ticks": 21312,
            "durationTicks": 1
          },
          {
            "time": 58.684234000000004,
            "midi": 42,
            "name": "F#2",
            "velocity": 0.10236220472440945,
            "duration": 0.002741229166659309,
            "ticks": 21408,
            "durationTicks": 1
          },
          {
            "time": 58.815813,
            "midi": 42,
            "name": "F#2",
            "velocity": 0.5590551181102362,
            "duration": 0.0027412291666664146,
            "ticks": 21456,
            "durationTicks": 1
          },
          {
            "time": 58.947392,
            "midi": 42,
            "name": "F#2",
            "velocity": 0.7874015748031497,
            "duration": 0.0027412291666664146,
            "ticks": 21504,
            "durationTicks": 1
          },
          {
            "time": 58.947392,
            "midi": 36,
            "name": "C2",
            "velocity": 1,
            "duration": 0.0027412291666664146,
            "ticks": 21504,
            "durationTicks": 1
          },
          {
            "time": 59.21055,
            "midi": 42,
            "name": "F#2",
            "velocity": 0.4251968503937008,
            "duration": 0.0027412291666664146,
            "ticks": 21600,
            "durationTicks": 1
          },
          {
            "time": 59.342129,
            "midi": 42,
            "name": "F#2",
            "velocity": 0.6535433070866141,
            "duration": 0.0027412291666664146,
            "ticks": 21648,
            "durationTicks": 1
          },
          {
            "time": 59.473708,
            "midi": 42,
            "name": "F#2",
            "velocity": 0.9133858267716536,
            "duration": 0.002741229166659309,
            "ticks": 21696,
            "durationTicks": 1
          },
          {
            "time": 59.473708,
            "midi": 38,
            "name": "D2",
            "velocity": 0.8818897637795275,
            "duration": 0.002741229166659309,
            "ticks": 21696,
            "durationTicks": 1
          },
          {
            "time": 59.473708,
            "midi": 36,
            "name": "C2",
            "velocity": 1,
            "duration": 0.002741229166659309,
            "ticks": 21696,
            "durationTicks": 1
          },
          {
            "time": 59.473708,
            "midi": 39,
            "name": "D#2",
            "velocity": 0.9133858267716536,
            "duration": 0.002741229166659309,
            "ticks": 21696,
            "durationTicks": 1
          },
          {
            "time": 59.736866,
            "midi": 42,
            "name": "F#2",
            "velocity": 0.4251968503937008,
            "duration": 0.0027412291666664146,
            "ticks": 21792,
            "durationTicks": 1
          },
          {
            "time": 59.868445,
            "midi": 42,
            "name": "F#2",
            "velocity": 0.5590551181102362,
            "duration": 0.0027412291666664146,
            "ticks": 21840,
            "durationTicks": 1
          },
          {
            "time": 60.000024,
            "midi": 42,
            "name": "F#2",
            "velocity": 0.7874015748031497,
            "duration": 0.002741229166659309,
            "ticks": 21888,
            "durationTicks": 1
          },
          {
            "time": 60.000024,
            "midi": 36,
            "name": "C2",
            "velocity": 1,
            "duration": 0.002741229166659309,
            "ticks": 21888,
            "durationTicks": 1
          },
          {
            "time": 60.263182,
            "midi": 42,
            "name": "F#2",
            "velocity": 0.5590551181102362,
            "duration": 0.0027412291666664146,
            "ticks": 21984,
            "durationTicks": 1
          },
          {
            "time": 60.394761,
            "midi": 42,
            "name": "F#2",
            "velocity": 0.5590551181102362,
            "duration": 0.002741229166659309,
            "ticks": 22032,
            "durationTicks": 1
          },
          {
            "time": 60.52634,
            "midi": 42,
            "name": "F#2",
            "velocity": 0.9133858267716536,
            "duration": 0.0027412291666664146,
            "ticks": 22080,
            "durationTicks": 1
          },
          {
            "time": 60.52634,
            "midi": 38,
            "name": "D2",
            "velocity": 0.8818897637795275,
            "duration": 0.0027412291666664146,
            "ticks": 22080,
            "durationTicks": 1
          },
          {
            "time": 60.52634,
            "midi": 36,
            "name": "C2",
            "velocity": 1,
            "duration": 0.0027412291666664146,
            "ticks": 22080,
            "durationTicks": 1
          },
          {
            "time": 60.52634,
            "midi": 39,
            "name": "D#2",
            "velocity": 0.7874015748031497,
            "duration": 0.0027412291666664146,
            "ticks": 22080,
            "durationTicks": 1
          },
          {
            "time": 60.789498,
            "midi": 46,
            "name": "A#2",
            "velocity": 0.5354330708661418,
            "duration": 0.0027412291666664146,
            "ticks": 22176,
            "durationTicks": 1
          },
          {
            "time": 61.052656,
            "midi": 42,
            "name": "F#2",
            "velocity": 0.9133858267716536,
            "duration": 0.0027412291666664146,
            "ticks": 22272,
            "durationTicks": 1
          },
          {
            "time": 61.052656,
            "midi": 36,
            "name": "C2",
            "velocity": 1,
            "duration": 0.0027412291666664146,
            "ticks": 22272,
            "durationTicks": 1
          },
          {
            "time": 61.315814,
            "midi": 42,
            "name": "F#2",
            "velocity": 0.3464566929133858,
            "duration": 0.002741229166659309,
            "ticks": 22368,
            "durationTicks": 1
          },
          {
            "time": 61.447393,
            "midi": 42,
            "name": "F#2",
            "velocity": 0.7874015748031497,
            "duration": 0.0027412291666664146,
            "ticks": 22416,
            "durationTicks": 1
          },
          {
            "time": 61.578972,
            "midi": 42,
            "name": "F#2",
            "velocity": 0.9133858267716536,
            "duration": 0.0027412291666664146,
            "ticks": 22464,
            "durationTicks": 1
          },
          {
            "time": 61.578972,
            "midi": 38,
            "name": "D2",
            "velocity": 0.9763779527559056,
            "duration": 0.0027412291666664146,
            "ticks": 22464,
            "durationTicks": 1
          },
          {
            "time": 61.578972,
            "midi": 36,
            "name": "C2",
            "velocity": 1,
            "duration": 0.0027412291666664146,
            "ticks": 22464,
            "durationTicks": 1
          },
          {
            "time": 61.578972,
            "midi": 39,
            "name": "D#2",
            "velocity": 0.7874015748031497,
            "duration": 0.0027412291666664146,
            "ticks": 22464,
            "durationTicks": 1
          },
          {
            "time": 61.84213,
            "midi": 42,
            "name": "F#2",
            "velocity": 0.25984251968503935,
            "duration": 0.0027412291666664146,
            "ticks": 22560,
            "durationTicks": 1
          },
          {
            "time": 61.973709,
            "midi": 42,
            "name": "F#2",
            "velocity": 0.6535433070866141,
            "duration": 0.0027412291666664146,
            "ticks": 22608,
            "durationTicks": 1
          },
          {
            "time": 62.105288,
            "midi": 42,
            "name": "F#2",
            "velocity": 0.9133858267716536,
            "duration": 0.0027412291666664146,
            "ticks": 22656,
            "durationTicks": 1
          },
          {
            "time": 62.105288,
            "midi": 36,
            "name": "C2",
            "velocity": 1,
            "duration": 0.0027412291666664146,
            "ticks": 22656,
            "durationTicks": 1
          },
          {
            "time": 62.368446,
            "midi": 42,
            "name": "F#2",
            "velocity": 0.5590551181102362,
            "duration": 0.0027412291666664146,
            "ticks": 22752,
            "durationTicks": 1
          },
          {
            "time": 62.500025,
            "midi": 42,
            "name": "F#2",
            "velocity": 0.6535433070866141,
            "duration": 0.0027412291666664146,
            "ticks": 22800,
            "durationTicks": 1
          },
          {
            "time": 62.631604,
            "midi": 42,
            "name": "F#2",
            "velocity": 1,
            "duration": 0.002741229166659309,
            "ticks": 22848,
            "durationTicks": 1
          },
          {
            "time": 62.631604,
            "midi": 38,
            "name": "D2",
            "velocity": 0.8818897637795275,
            "duration": 0.002741229166659309,
            "ticks": 22848,
            "durationTicks": 1
          },
          {
            "time": 62.631604,
            "midi": 36,
            "name": "C2",
            "velocity": 1,
            "duration": 0.002741229166659309,
            "ticks": 22848,
            "durationTicks": 1
          },
          {
            "time": 62.631604,
            "midi": 39,
            "name": "D#2",
            "velocity": 0.9133858267716536,
            "duration": 0.002741229166659309,
            "ticks": 22848,
            "durationTicks": 1
          },
          {
            "time": 62.894762,
            "midi": 42,
            "name": "F#2",
            "velocity": 0.3779527559055118,
            "duration": 0.0027412291666664146,
            "ticks": 22944,
            "durationTicks": 1
          },
          {
            "time": 63.026341,
            "midi": 42,
            "name": "F#2",
            "velocity": 0.48031496062992124,
            "duration": 0.002741229166659309,
            "ticks": 22992,
            "durationTicks": 1
          },
          {
            "time": 63.157920000000004,
            "midi": 42,
            "name": "F#2",
            "velocity": 0.9133858267716536,
            "duration": 0.002741229166659309,
            "ticks": 23040,
            "durationTicks": 1
          },
          {
            "time": 63.157920000000004,
            "midi": 36,
            "name": "C2",
            "velocity": 1,
            "duration": 0.002741229166659309,
            "ticks": 23040,
            "durationTicks": 1
          },
          {
            "time": 63.421078,
            "midi": 42,
            "name": "F#2",
            "velocity": 0.5590551181102362,
            "duration": 0.0027412291666664146,
            "ticks": 23136,
            "durationTicks": 1
          },
          {
            "time": 63.552657,
            "midi": 42,
            "name": "F#2",
            "velocity": 0.5590551181102362,
            "duration": 0.002741229166659309,
            "ticks": 23184,
            "durationTicks": 1
          },
          {
            "time": 63.684236,
            "midi": 42,
            "name": "F#2",
            "velocity": 0.9133858267716536,
            "duration": 0.0027412291666664146,
            "ticks": 23232,
            "durationTicks": 1
          },
          {
            "time": 63.684236,
            "midi": 38,
            "name": "D2",
            "velocity": 0.9763779527559056,
            "duration": 0.0027412291666664146,
            "ticks": 23232,
            "durationTicks": 1
          },
          {
            "time": 63.684236,
            "midi": 36,
            "name": "C2",
            "velocity": 1,
            "duration": 0.0027412291666664146,
            "ticks": 23232,
            "durationTicks": 1
          },
          {
            "time": 63.684236,
            "midi": 39,
            "name": "D#2",
            "velocity": 0.7874015748031497,
            "duration": 0.0027412291666664146,
            "ticks": 23232,
            "durationTicks": 1
          },
          {
            "time": 63.947394,
            "midi": 46,
            "name": "A#2",
            "velocity": 0.5354330708661418,
            "duration": 0.002741229166659309,
            "ticks": 23328,
            "durationTicks": 1
          },
          {
            "time": 64.210552,
            "midi": 42,
            "name": "F#2",
            "velocity": 0.9133858267716536,
            "duration": 0.002741229166659309,
            "ticks": 23424,
            "durationTicks": 1
          },
          {
            "time": 64.210552,
            "midi": 36,
            "name": "C2",
            "velocity": 1,
            "duration": 0.002741229166659309,
            "ticks": 23424,
            "durationTicks": 1
          },
          {
            "time": 64.47371,
            "midi": 42,
            "name": "F#2",
            "velocity": 0.48031496062992124,
            "duration": 0.00274122916667352,
            "ticks": 23520,
            "durationTicks": 1
          },
          {
            "time": 64.605289,
            "midi": 42,
            "name": "F#2",
            "velocity": 0.7874015748031497,
            "duration": 0.002741229166659309,
            "ticks": 23568,
            "durationTicks": 1
          },
          {
            "time": 64.736868,
            "midi": 42,
            "name": "F#2",
            "velocity": 0.9133858267716536,
            "duration": 0.002741229166659309,
            "ticks": 23616,
            "durationTicks": 1
          },
          {
            "time": 64.736868,
            "midi": 38,
            "name": "D2",
            "velocity": 0.984251968503937,
            "duration": 0.002741229166659309,
            "ticks": 23616,
            "durationTicks": 1
          },
          {
            "time": 64.736868,
            "midi": 36,
            "name": "C2",
            "velocity": 1,
            "duration": 0.002741229166659309,
            "ticks": 23616,
            "durationTicks": 1
          },
          {
            "time": 64.736868,
            "midi": 39,
            "name": "D#2",
            "velocity": 0.984251968503937,
            "duration": 0.002741229166659309,
            "ticks": 23616,
            "durationTicks": 1
          },
          {
            "time": 64.868447,
            "midi": 39,
            "name": "D#2",
            "velocity": 0.8267716535433071,
            "duration": 0.002741229166659309,
            "ticks": 23664,
            "durationTicks": 1
          },
          {
            "time": 65.000026,
            "midi": 46,
            "name": "A#2",
            "velocity": 0.7480314960629921,
            "duration": 0.002741229166659309,
            "ticks": 23712,
            "durationTicks": 1
          },
          {
            "time": 65.000026,
            "midi": 39,
            "name": "D#2",
            "velocity": 0.6692913385826772,
            "duration": 0.002741229166659309,
            "ticks": 23712,
            "durationTicks": 1
          },
          {
            "time": 65.13160500000001,
            "midi": 39,
            "name": "D#2",
            "velocity": 0.5118110236220472,
            "duration": 0.002741229166659309,
            "ticks": 23760,
            "durationTicks": 1
          },
          {
            "time": 65.263184,
            "midi": 42,
            "name": "F#2",
            "velocity": 0.8818897637795275,
            "duration": 0.00274122916667352,
            "ticks": 23808,
            "durationTicks": 1
          },
          {
            "time": 65.263184,
            "midi": 36,
            "name": "C2",
            "velocity": 1,
            "duration": 0.00274122916667352,
            "ticks": 23808,
            "durationTicks": 1
          },
          {
            "time": 65.526342,
            "midi": 42,
            "name": "F#2",
            "velocity": 0.4251968503937008,
            "duration": 0.002741229166659309,
            "ticks": 23904,
            "durationTicks": 1
          },
          {
            "time": 65.657921,
            "midi": 42,
            "name": "F#2",
            "velocity": 0.7874015748031497,
            "duration": 0.002741229166659309,
            "ticks": 23952,
            "durationTicks": 1
          },
          {
            "time": 65.7895,
            "midi": 42,
            "name": "F#2",
            "velocity": 0.9133858267716536,
            "duration": 0.002741229166659309,
            "ticks": 24000,
            "durationTicks": 1
          },
          {
            "time": 65.7895,
            "midi": 38,
            "name": "D2",
            "velocity": 0.8818897637795275,
            "duration": 0.002741229166659309,
            "ticks": 24000,
            "durationTicks": 1
          },
          {
            "time": 65.7895,
            "midi": 36,
            "name": "C2",
            "velocity": 1,
            "duration": 0.002741229166659309,
            "ticks": 24000,
            "durationTicks": 1
          },
          {
            "time": 65.7895,
            "midi": 39,
            "name": "D#2",
            "velocity": 0.7874015748031497,
            "duration": 0.002741229166659309,
            "ticks": 24000,
            "durationTicks": 1
          },
          {
            "time": 66.052658,
            "midi": 42,
            "name": "F#2",
            "velocity": 0.31496062992125984,
            "duration": 0.00274122916667352,
            "ticks": 24096,
            "durationTicks": 1
          },
          {
            "time": 66.184237,
            "midi": 42,
            "name": "F#2",
            "velocity": 0.6535433070866141,
            "duration": 0.00274122916667352,
            "ticks": 24144,
            "durationTicks": 1
          },
          {
            "time": 66.315816,
            "midi": 42,
            "name": "F#2",
            "velocity": 0.9133858267716536,
            "duration": 0.00274122916667352,
            "ticks": 24192,
            "durationTicks": 1
          },
          {
            "time": 66.315816,
            "midi": 36,
            "name": "C2",
            "velocity": 1,
            "duration": 0.00274122916667352,
            "ticks": 24192,
            "durationTicks": 1
          },
          {
            "time": 66.578974,
            "midi": 42,
            "name": "F#2",
            "velocity": 0.3779527559055118,
            "duration": 0.002741229166659309,
            "ticks": 24288,
            "durationTicks": 1
          },
          {
            "time": 66.710553,
            "midi": 42,
            "name": "F#2",
            "velocity": 0.5590551181102362,
            "duration": 0.002741229166659309,
            "ticks": 24336,
            "durationTicks": 1
          },
          {
            "time": 66.842132,
            "midi": 42,
            "name": "F#2",
            "velocity": 0.9133858267716536,
            "duration": 0.002741229166659309,
            "ticks": 24384,
            "durationTicks": 1
          },
          {
            "time": 66.842132,
            "midi": 38,
            "name": "D2",
            "velocity": 0.9763779527559056,
            "duration": 0.002741229166659309,
            "ticks": 24384,
            "durationTicks": 1
          },
          {
            "time": 66.842132,
            "midi": 36,
            "name": "C2",
            "velocity": 1,
            "duration": 0.002741229166659309,
            "ticks": 24384,
            "durationTicks": 1
          },
          {
            "time": 66.842132,
            "midi": 39,
            "name": "D#2",
            "velocity": 0.9133858267716536,
            "duration": 0.002741229166659309,
            "ticks": 24384,
            "durationTicks": 1
          },
          {
            "time": 67.10529,
            "midi": 42,
            "name": "F#2",
            "velocity": 0.10236220472440945,
            "duration": 0.00274122916667352,
            "ticks": 24480,
            "durationTicks": 1
          },
          {
            "time": 67.236869,
            "midi": 42,
            "name": "F#2",
            "velocity": 0.5590551181102362,
            "duration": 0.002741229166659309,
            "ticks": 24528,
            "durationTicks": 1
          },
          {
            "time": 67.368448,
            "midi": 42,
            "name": "F#2",
            "velocity": 0.7874015748031497,
            "duration": 0.00274122916667352,
            "ticks": 24576,
            "durationTicks": 1
          },
          {
            "time": 67.368448,
            "midi": 36,
            "name": "C2",
            "velocity": 1,
            "duration": 0.00274122916667352,
            "ticks": 24576,
            "durationTicks": 1
          },
          {
            "time": 67.631606,
            "midi": 42,
            "name": "F#2",
            "velocity": 0.4251968503937008,
            "duration": 0.00274122916667352,
            "ticks": 24672,
            "durationTicks": 1
          },
          {
            "time": 67.76318500000001,
            "midi": 42,
            "name": "F#2",
            "velocity": 0.6535433070866141,
            "duration": 0.002741229166659309,
            "ticks": 24720,
            "durationTicks": 1
          },
          {
            "time": 67.894764,
            "midi": 42,
            "name": "F#2",
            "velocity": 0.9133858267716536,
            "duration": 0.00274122916667352,
            "ticks": 24768,
            "durationTicks": 1
          },
          {
            "time": 67.894764,
            "midi": 38,
            "name": "D2",
            "velocity": 0.8818897637795275,
            "duration": 0.00274122916667352,
            "ticks": 24768,
            "durationTicks": 1
          },
          {
            "time": 67.894764,
            "midi": 36,
            "name": "C2",
            "velocity": 1,
            "duration": 0.00274122916667352,
            "ticks": 24768,
            "durationTicks": 1
          },
          {
            "time": 67.894764,
            "midi": 39,
            "name": "D#2",
            "velocity": 0.9133858267716536,
            "duration": 0.00274122916667352,
            "ticks": 24768,
            "durationTicks": 1
          },
          {
            "time": 68.157922,
            "midi": 42,
            "name": "F#2",
            "velocity": 0.4251968503937008,
            "duration": 0.00274122916667352,
            "ticks": 24864,
            "durationTicks": 1
          },
          {
            "time": 68.289501,
            "midi": 42,
            "name": "F#2",
            "velocity": 0.5590551181102362,
            "duration": 0.00274122916667352,
            "ticks": 24912,
            "durationTicks": 1
          },
          {
            "time": 68.42108,
            "midi": 42,
            "name": "F#2",
            "velocity": 0.7874015748031497,
            "duration": 0.00274122916667352,
            "ticks": 24960,
            "durationTicks": 1
          },
          {
            "time": 68.42108,
            "midi": 36,
            "name": "C2",
            "velocity": 1,
            "duration": 0.00274122916667352,
            "ticks": 24960,
            "durationTicks": 1
          },
          {
            "time": 68.68423800000001,
            "midi": 42,
            "name": "F#2",
            "velocity": 0.5590551181102362,
            "duration": 0.002741229166659309,
            "ticks": 25056,
            "durationTicks": 1
          },
          {
            "time": 68.815817,
            "midi": 42,
            "name": "F#2",
            "velocity": 0.5590551181102362,
            "duration": 0.00274122916667352,
            "ticks": 25104,
            "durationTicks": 1
          },
          {
            "time": 68.947396,
            "midi": 42,
            "name": "F#2",
            "velocity": 0.9133858267716536,
            "duration": 0.00274122916667352,
            "ticks": 25152,
            "durationTicks": 1
          },
          {
            "time": 68.947396,
            "midi": 38,
            "name": "D2",
            "velocity": 0.8818897637795275,
            "duration": 0.00274122916667352,
            "ticks": 25152,
            "durationTicks": 1
          },
          {
            "time": 68.947396,
            "midi": 36,
            "name": "C2",
            "velocity": 1,
            "duration": 0.00274122916667352,
            "ticks": 25152,
            "durationTicks": 1
          },
          {
            "time": 68.947396,
            "midi": 39,
            "name": "D#2",
            "velocity": 0.7874015748031497,
            "duration": 0.00274122916667352,
            "ticks": 25152,
            "durationTicks": 1
          },
          {
            "time": 69.210554,
            "midi": 46,
            "name": "A#2",
            "velocity": 0.5354330708661418,
            "duration": 0.00274122916667352,
            "ticks": 25248,
            "durationTicks": 1
          },
          {
            "time": 69.473712,
            "midi": 42,
            "name": "F#2",
            "velocity": 0.9133858267716536,
            "duration": 0.002741229166659309,
            "ticks": 25344,
            "durationTicks": 1
          },
          {
            "time": 69.473712,
            "midi": 36,
            "name": "C2",
            "velocity": 1,
            "duration": 0.002741229166659309,
            "ticks": 25344,
            "durationTicks": 1
          },
          {
            "time": 69.73687,
            "midi": 42,
            "name": "F#2",
            "velocity": 0.3464566929133858,
            "duration": 0.00274122916667352,
            "ticks": 25440,
            "durationTicks": 1
          },
          {
            "time": 69.868449,
            "midi": 42,
            "name": "F#2",
            "velocity": 0.7874015748031497,
            "duration": 0.00274122916667352,
            "ticks": 25488,
            "durationTicks": 1
          },
          {
            "time": 70.000028,
            "midi": 42,
            "name": "F#2",
            "velocity": 0.9133858267716536,
            "duration": 0.00274122916667352,
            "ticks": 25536,
            "durationTicks": 1
          },
          {
            "time": 70.000028,
            "midi": 38,
            "name": "D2",
            "velocity": 0.9763779527559056,
            "duration": 0.00274122916667352,
            "ticks": 25536,
            "durationTicks": 1
          },
          {
            "time": 70.000028,
            "midi": 36,
            "name": "C2",
            "velocity": 1,
            "duration": 0.00274122916667352,
            "ticks": 25536,
            "durationTicks": 1
          },
          {
            "time": 70.000028,
            "midi": 39,
            "name": "D#2",
            "velocity": 0.7874015748031497,
            "duration": 0.00274122916667352,
            "ticks": 25536,
            "durationTicks": 1
          },
          {
            "time": 70.263186,
            "midi": 42,
            "name": "F#2",
            "velocity": 0.25984251968503935,
            "duration": 0.00274122916667352,
            "ticks": 25632,
            "durationTicks": 1
          },
          {
            "time": 70.394765,
            "midi": 42,
            "name": "F#2",
            "velocity": 0.6535433070866141,
            "duration": 0.002741229166659309,
            "ticks": 25680,
            "durationTicks": 1
          },
          {
            "time": 70.526344,
            "midi": 42,
            "name": "F#2",
            "velocity": 0.9133858267716536,
            "duration": 0.00274122916667352,
            "ticks": 25728,
            "durationTicks": 1
          },
          {
            "time": 70.526344,
            "midi": 36,
            "name": "C2",
            "velocity": 1,
            "duration": 0.00274122916667352,
            "ticks": 25728,
            "durationTicks": 1
          },
          {
            "time": 70.789502,
            "midi": 42,
            "name": "F#2",
            "velocity": 0.5590551181102362,
            "duration": 0.00274122916667352,
            "ticks": 25824,
            "durationTicks": 1
          },
          {
            "time": 70.921081,
            "midi": 42,
            "name": "F#2",
            "velocity": 0.6535433070866141,
            "duration": 0.00274122916667352,
            "ticks": 25872,
            "durationTicks": 1
          },
          {
            "time": 71.05266,
            "midi": 42,
            "name": "F#2",
            "velocity": 1,
            "duration": 0.00274122916667352,
            "ticks": 25920,
            "durationTicks": 1
          },
          {
            "time": 71.05266,
            "midi": 38,
            "name": "D2",
            "velocity": 0.8818897637795275,
            "duration": 0.00274122916667352,
            "ticks": 25920,
            "durationTicks": 1
          },
          {
            "time": 71.05266,
            "midi": 36,
            "name": "C2",
            "velocity": 1,
            "duration": 0.00274122916667352,
            "ticks": 25920,
            "durationTicks": 1
          },
          {
            "time": 71.05266,
            "midi": 39,
            "name": "D#2",
            "velocity": 0.9133858267716536,
            "duration": 0.00274122916667352,
            "ticks": 25920,
            "durationTicks": 1
          },
          {
            "time": 71.31581800000001,
            "midi": 42,
            "name": "F#2",
            "velocity": 0.3779527559055118,
            "duration": 0.002741229166659309,
            "ticks": 26016,
            "durationTicks": 1
          },
          {
            "time": 71.447397,
            "midi": 42,
            "name": "F#2",
            "velocity": 0.48031496062992124,
            "duration": 0.00274122916667352,
            "ticks": 26064,
            "durationTicks": 1
          },
          {
            "time": 71.578976,
            "midi": 42,
            "name": "F#2",
            "velocity": 0.9133858267716536,
            "duration": 0.00274122916667352,
            "ticks": 26112,
            "durationTicks": 1
          },
          {
            "time": 71.578976,
            "midi": 36,
            "name": "C2",
            "velocity": 1,
            "duration": 0.00274122916667352,
            "ticks": 26112,
            "durationTicks": 1
          },
          {
            "time": 71.842134,
            "midi": 42,
            "name": "F#2",
            "velocity": 0.5590551181102362,
            "duration": 0.00274122916667352,
            "ticks": 26208,
            "durationTicks": 1
          },
          {
            "time": 71.973713,
            "midi": 42,
            "name": "F#2",
            "velocity": 0.5590551181102362,
            "duration": 0.00274122916667352,
            "ticks": 26256,
            "durationTicks": 1
          },
          {
            "time": 72.105292,
            "midi": 42,
            "name": "F#2",
            "velocity": 0.9133858267716536,
            "duration": 0.00274122916667352,
            "ticks": 26304,
            "durationTicks": 1
          },
          {
            "time": 72.105292,
            "midi": 38,
            "name": "D2",
            "velocity": 0.9763779527559056,
            "duration": 0.00274122916667352,
            "ticks": 26304,
            "durationTicks": 1
          },
          {
            "time": 72.105292,
            "midi": 36,
            "name": "C2",
            "velocity": 1,
            "duration": 0.00274122916667352,
            "ticks": 26304,
            "durationTicks": 1
          },
          {
            "time": 72.105292,
            "midi": 39,
            "name": "D#2",
            "velocity": 0.7874015748031497,
            "duration": 0.00274122916667352,
            "ticks": 26304,
            "durationTicks": 1
          },
          {
            "time": 72.36845,
            "midi": 46,
            "name": "A#2",
            "velocity": 0.5354330708661418,
            "duration": 0.00274122916667352,
            "ticks": 26400,
            "durationTicks": 1
          },
          {
            "time": 72.631608,
            "midi": 42,
            "name": "F#2",
            "velocity": 0.9133858267716536,
            "duration": 0.00274122916667352,
            "ticks": 26496,
            "durationTicks": 1
          },
          {
            "time": 72.631608,
            "midi": 36,
            "name": "C2",
            "velocity": 1,
            "duration": 0.00274122916667352,
            "ticks": 26496,
            "durationTicks": 1
          },
          {
            "time": 72.894766,
            "midi": 42,
            "name": "F#2",
            "velocity": 0.48031496062992124,
            "duration": 0.00274122916667352,
            "ticks": 26592,
            "durationTicks": 1
          },
          {
            "time": 73.026345,
            "midi": 42,
            "name": "F#2",
            "velocity": 0.7874015748031497,
            "duration": 0.002741229166659309,
            "ticks": 26640,
            "durationTicks": 1
          },
          {
            "time": 73.157924,
            "midi": 42,
            "name": "F#2",
            "velocity": 0.9133858267716536,
            "duration": 0.00274122916667352,
            "ticks": 26688,
            "durationTicks": 1
          },
          {
            "time": 73.157924,
            "midi": 38,
            "name": "D2",
            "velocity": 0.984251968503937,
            "duration": 0.00274122916667352,
            "ticks": 26688,
            "durationTicks": 1
          },
          {
            "time": 73.157924,
            "midi": 36,
            "name": "C2",
            "velocity": 1,
            "duration": 0.00274122916667352,
            "ticks": 26688,
            "durationTicks": 1
          },
          {
            "time": 73.157924,
            "midi": 39,
            "name": "D#2",
            "velocity": 0.984251968503937,
            "duration": 0.00274122916667352,
            "ticks": 26688,
            "durationTicks": 1
          },
          {
            "time": 73.289503,
            "midi": 39,
            "name": "D#2",
            "velocity": 0.8267716535433071,
            "duration": 0.00274122916667352,
            "ticks": 26736,
            "durationTicks": 1
          },
          {
            "time": 73.421082,
            "midi": 46,
            "name": "A#2",
            "velocity": 0.7480314960629921,
            "duration": 0.00274122916667352,
            "ticks": 26784,
            "durationTicks": 1
          },
          {
            "time": 73.421082,
            "midi": 39,
            "name": "D#2",
            "velocity": 0.6692913385826772,
            "duration": 0.00274122916667352,
            "ticks": 26784,
            "durationTicks": 1
          },
          {
            "time": 73.552661,
            "midi": 39,
            "name": "D#2",
            "velocity": 0.5118110236220472,
            "duration": 0.00274122916667352,
            "ticks": 26832,
            "durationTicks": 1
          },
          {
            "time": 73.68424,
            "midi": 42,
            "name": "F#2",
            "velocity": 0.8818897637795275,
            "duration": 0.00274122916667352,
            "ticks": 26880,
            "durationTicks": 1
          },
          {
            "time": 73.68424,
            "midi": 36,
            "name": "C2",
            "velocity": 1,
            "duration": 0.00274122916667352,
            "ticks": 26880,
            "durationTicks": 1
          },
          {
            "time": 73.947398,
            "midi": 42,
            "name": "F#2",
            "velocity": 0.4251968503937008,
            "duration": 0.002741229166659309,
            "ticks": 26976,
            "durationTicks": 1
          },
          {
            "time": 74.078977,
            "midi": 42,
            "name": "F#2",
            "velocity": 0.7874015748031497,
            "duration": 0.00274122916667352,
            "ticks": 27024,
            "durationTicks": 1
          },
          {
            "time": 74.210556,
            "midi": 42,
            "name": "F#2",
            "velocity": 0.9133858267716536,
            "duration": 0.00274122916667352,
            "ticks": 27072,
            "durationTicks": 1
          },
          {
            "time": 74.210556,
            "midi": 38,
            "name": "D2",
            "velocity": 0.8818897637795275,
            "duration": 0.00274122916667352,
            "ticks": 27072,
            "durationTicks": 1
          },
          {
            "time": 74.210556,
            "midi": 36,
            "name": "C2",
            "velocity": 1,
            "duration": 0.00274122916667352,
            "ticks": 27072,
            "durationTicks": 1
          },
          {
            "time": 74.210556,
            "midi": 39,
            "name": "D#2",
            "velocity": 0.7874015748031497,
            "duration": 0.00274122916667352,
            "ticks": 27072,
            "durationTicks": 1
          },
          {
            "time": 74.473714,
            "midi": 42,
            "name": "F#2",
            "velocity": 0.31496062992125984,
            "duration": 0.00274122916667352,
            "ticks": 27168,
            "durationTicks": 1
          },
          {
            "time": 74.605293,
            "midi": 42,
            "name": "F#2",
            "velocity": 0.6535433070866141,
            "duration": 0.00274122916667352,
            "ticks": 27216,
            "durationTicks": 1
          },
          {
            "time": 74.736872,
            "midi": 42,
            "name": "F#2",
            "velocity": 0.9133858267716536,
            "duration": 0.00274122916667352,
            "ticks": 27264,
            "durationTicks": 1
          },
          {
            "time": 74.736872,
            "midi": 36,
            "name": "C2",
            "velocity": 1,
            "duration": 0.00274122916667352,
            "ticks": 27264,
            "durationTicks": 1
          },
          {
            "time": 75.00003,
            "midi": 42,
            "name": "F#2",
            "velocity": 0.3779527559055118,
            "duration": 0.00274122916667352,
            "ticks": 27360,
            "durationTicks": 1
          },
          {
            "time": 75.131609,
            "midi": 42,
            "name": "F#2",
            "velocity": 0.5590551181102362,
            "duration": 0.00274122916667352,
            "ticks": 27408,
            "durationTicks": 1
          },
          {
            "time": 75.263188,
            "midi": 42,
            "name": "F#2",
            "velocity": 0.9133858267716536,
            "duration": 0.00274122916667352,
            "ticks": 27456,
            "durationTicks": 1
          },
          {
            "time": 75.263188,
            "midi": 38,
            "name": "D2",
            "velocity": 0.9763779527559056,
            "duration": 0.00274122916667352,
            "ticks": 27456,
            "durationTicks": 1
          },
          {
            "time": 75.263188,
            "midi": 36,
            "name": "C2",
            "velocity": 1,
            "duration": 0.00274122916667352,
            "ticks": 27456,
            "durationTicks": 1
          },
          {
            "time": 75.263188,
            "midi": 39,
            "name": "D#2",
            "velocity": 0.9133858267716536,
            "duration": 0.00274122916667352,
            "ticks": 27456,
            "durationTicks": 1
          },
          {
            "time": 75.526346,
            "midi": 42,
            "name": "F#2",
            "velocity": 0.10236220472440945,
            "duration": 0.00274122916667352,
            "ticks": 27552,
            "durationTicks": 1
          },
          {
            "time": 75.657925,
            "midi": 42,
            "name": "F#2",
            "velocity": 0.5590551181102362,
            "duration": 0.00274122916667352,
            "ticks": 27600,
            "durationTicks": 1
          },
          {
            "time": 75.789504,
            "midi": 42,
            "name": "F#2",
            "velocity": 0.7874015748031497,
            "duration": 0.00274122916667352,
            "ticks": 27648,
            "durationTicks": 1
          },
          {
            "time": 75.789504,
            "midi": 36,
            "name": "C2",
            "velocity": 1,
            "duration": 0.00274122916667352,
            "ticks": 27648,
            "durationTicks": 1
          },
          {
            "time": 76.052662,
            "midi": 42,
            "name": "F#2",
            "velocity": 0.4251968503937008,
            "duration": 0.00274122916667352,
            "ticks": 27744,
            "durationTicks": 1
          },
          {
            "time": 76.184241,
            "midi": 42,
            "name": "F#2",
            "velocity": 0.6535433070866141,
            "duration": 0.00274122916667352,
            "ticks": 27792,
            "durationTicks": 1
          },
          {
            "time": 76.31582,
            "midi": 42,
            "name": "F#2",
            "velocity": 0.9133858267716536,
            "duration": 0.00274122916667352,
            "ticks": 27840,
            "durationTicks": 1
          },
          {
            "time": 76.31582,
            "midi": 38,
            "name": "D2",
            "velocity": 0.8818897637795275,
            "duration": 0.00274122916667352,
            "ticks": 27840,
            "durationTicks": 1
          },
          {
            "time": 76.31582,
            "midi": 36,
            "name": "C2",
            "velocity": 1,
            "duration": 0.00274122916667352,
            "ticks": 27840,
            "durationTicks": 1
          },
          {
            "time": 76.31582,
            "midi": 39,
            "name": "D#2",
            "velocity": 0.9133858267716536,
            "duration": 0.00274122916667352,
            "ticks": 27840,
            "durationTicks": 1
          },
          {
            "time": 76.578978,
            "midi": 42,
            "name": "F#2",
            "velocity": 0.4251968503937008,
            "duration": 0.002741229166659309,
            "ticks": 27936,
            "durationTicks": 1
          },
          {
            "time": 76.710557,
            "midi": 42,
            "name": "F#2",
            "velocity": 0.5590551181102362,
            "duration": 0.00274122916667352,
            "ticks": 27984,
            "durationTicks": 1
          },
          {
            "time": 76.842136,
            "midi": 42,
            "name": "F#2",
            "velocity": 0.7874015748031497,
            "duration": 0.00274122916667352,
            "ticks": 28032,
            "durationTicks": 1
          },
          {
            "time": 76.842136,
            "midi": 36,
            "name": "C2",
            "velocity": 1,
            "duration": 0.00274122916667352,
            "ticks": 28032,
            "durationTicks": 1
          },
          {
            "time": 77.105294,
            "midi": 42,
            "name": "F#2",
            "velocity": 0.5590551181102362,
            "duration": 0.00274122916667352,
            "ticks": 28128,
            "durationTicks": 1
          },
          {
            "time": 77.236873,
            "midi": 42,
            "name": "F#2",
            "velocity": 0.5590551181102362,
            "duration": 0.00274122916667352,
            "ticks": 28176,
            "durationTicks": 1
          },
          {
            "time": 77.368452,
            "midi": 42,
            "name": "F#2",
            "velocity": 0.9133858267716536,
            "duration": 0.00274122916667352,
            "ticks": 28224,
            "durationTicks": 1
          },
          {
            "time": 77.368452,
            "midi": 38,
            "name": "D2",
            "velocity": 0.8818897637795275,
            "duration": 0.00274122916667352,
            "ticks": 28224,
            "durationTicks": 1
          },
          {
            "time": 77.368452,
            "midi": 36,
            "name": "C2",
            "velocity": 1,
            "duration": 0.00274122916667352,
            "ticks": 28224,
            "durationTicks": 1
          },
          {
            "time": 77.368452,
            "midi": 39,
            "name": "D#2",
            "velocity": 0.7874015748031497,
            "duration": 0.00274122916667352,
            "ticks": 28224,
            "durationTicks": 1
          },
          {
            "time": 77.63161,
            "midi": 46,
            "name": "A#2",
            "velocity": 0.5354330708661418,
            "duration": 0.00274122916667352,
            "ticks": 28320,
            "durationTicks": 1
          },
          {
            "time": 77.894768,
            "midi": 42,
            "name": "F#2",
            "velocity": 0.9133858267716536,
            "duration": 0.00274122916667352,
            "ticks": 28416,
            "durationTicks": 1
          },
          {
            "time": 77.894768,
            "midi": 36,
            "name": "C2",
            "velocity": 1,
            "duration": 0.00274122916667352,
            "ticks": 28416,
            "durationTicks": 1
          },
          {
            "time": 78.157926,
            "midi": 42,
            "name": "F#2",
            "velocity": 0.3464566929133858,
            "duration": 0.00274122916667352,
            "ticks": 28512,
            "durationTicks": 1
          },
          {
            "time": 78.289505,
            "midi": 42,
            "name": "F#2",
            "velocity": 0.7874015748031497,
            "duration": 0.00274122916667352,
            "ticks": 28560,
            "durationTicks": 1
          },
          {
            "time": 78.42108400000001,
            "midi": 42,
            "name": "F#2",
            "velocity": 0.9133858267716536,
            "duration": 0.002741229166659309,
            "ticks": 28608,
            "durationTicks": 1
          },
          {
            "time": 78.42108400000001,
            "midi": 38,
            "name": "D2",
            "velocity": 0.9763779527559056,
            "duration": 0.002741229166659309,
            "ticks": 28608,
            "durationTicks": 1
          },
          {
            "time": 78.42108400000001,
            "midi": 36,
            "name": "C2",
            "velocity": 1,
            "duration": 0.002741229166659309,
            "ticks": 28608,
            "durationTicks": 1
          },
          {
            "time": 78.42108400000001,
            "midi": 39,
            "name": "D#2",
            "velocity": 0.7874015748031497,
            "duration": 0.002741229166659309,
            "ticks": 28608,
            "durationTicks": 1
          },
          {
            "time": 78.684242,
            "midi": 42,
            "name": "F#2",
            "velocity": 0.25984251968503935,
            "duration": 0.00274122916667352,
            "ticks": 28704,
            "durationTicks": 1
          },
          {
            "time": 78.815821,
            "midi": 42,
            "name": "F#2",
            "velocity": 0.6535433070866141,
            "duration": 0.00274122916667352,
            "ticks": 28752,
            "durationTicks": 1
          },
          {
            "time": 78.9474,
            "midi": 42,
            "name": "F#2",
            "velocity": 0.9133858267716536,
            "duration": 0.00274122916667352,
            "ticks": 28800,
            "durationTicks": 1
          },
          {
            "time": 78.9474,
            "midi": 36,
            "name": "C2",
            "velocity": 1,
            "duration": 0.00274122916667352,
            "ticks": 28800,
            "durationTicks": 1
          },
          {
            "time": 79.210558,
            "midi": 42,
            "name": "F#2",
            "velocity": 0.5590551181102362,
            "duration": 0.00274122916667352,
            "ticks": 28896,
            "durationTicks": 1
          },
          {
            "time": 79.342137,
            "midi": 42,
            "name": "F#2",
            "velocity": 0.6535433070866141,
            "duration": 0.00274122916667352,
            "ticks": 28944,
            "durationTicks": 1
          },
          {
            "time": 79.473716,
            "midi": 42,
            "name": "F#2",
            "velocity": 1,
            "duration": 0.00274122916667352,
            "ticks": 28992,
            "durationTicks": 1
          },
          {
            "time": 79.473716,
            "midi": 38,
            "name": "D2",
            "velocity": 0.8818897637795275,
            "duration": 0.00274122916667352,
            "ticks": 28992,
            "durationTicks": 1
          },
          {
            "time": 79.473716,
            "midi": 36,
            "name": "C2",
            "velocity": 1,
            "duration": 0.00274122916667352,
            "ticks": 28992,
            "durationTicks": 1
          },
          {
            "time": 79.473716,
            "midi": 39,
            "name": "D#2",
            "velocity": 0.9133858267716536,
            "duration": 0.00274122916667352,
            "ticks": 28992,
            "durationTicks": 1
          },
          {
            "time": 79.736874,
            "midi": 42,
            "name": "F#2",
            "velocity": 0.3779527559055118,
            "duration": 0.00274122916667352,
            "ticks": 29088,
            "durationTicks": 1
          },
          {
            "time": 79.868453,
            "midi": 42,
            "name": "F#2",
            "velocity": 0.48031496062992124,
            "duration": 0.00274122916667352,
            "ticks": 29136,
            "durationTicks": 1
          },
          {
            "time": 80.000032,
            "midi": 42,
            "name": "F#2",
            "velocity": 0.9133858267716536,
            "duration": 0.00274122916667352,
            "ticks": 29184,
            "durationTicks": 1
          },
          {
            "time": 80.000032,
            "midi": 36,
            "name": "C2",
            "velocity": 1,
            "duration": 0.00274122916667352,
            "ticks": 29184,
            "durationTicks": 1
          },
          {
            "time": 80.26319,
            "midi": 42,
            "name": "F#2",
            "velocity": 0.5590551181102362,
            "duration": 0.00274122916667352,
            "ticks": 29280,
            "durationTicks": 1
          },
          {
            "time": 80.394769,
            "midi": 42,
            "name": "F#2",
            "velocity": 0.5590551181102362,
            "duration": 0.00274122916667352,
            "ticks": 29328,
            "durationTicks": 1
          },
          {
            "time": 80.526348,
            "midi": 42,
            "name": "F#2",
            "velocity": 0.9133858267716536,
            "duration": 0.00274122916667352,
            "ticks": 29376,
            "durationTicks": 1
          },
          {
            "time": 80.526348,
            "midi": 38,
            "name": "D2",
            "velocity": 0.9763779527559056,
            "duration": 0.00274122916667352,
            "ticks": 29376,
            "durationTicks": 1
          },
          {
            "time": 80.526348,
            "midi": 36,
            "name": "C2",
            "velocity": 1,
            "duration": 0.00274122916667352,
            "ticks": 29376,
            "durationTicks": 1
          },
          {
            "time": 80.526348,
            "midi": 39,
            "name": "D#2",
            "velocity": 0.7874015748031497,
            "duration": 0.00274122916667352,
            "ticks": 29376,
            "durationTicks": 1
          },
          {
            "time": 80.789506,
            "midi": 46,
            "name": "A#2",
            "velocity": 0.5354330708661418,
            "duration": 0.00274122916667352,
            "ticks": 29472,
            "durationTicks": 1
          },
          {
            "time": 81.05266400000001,
            "midi": 42,
            "name": "F#2",
            "velocity": 0.9133858267716536,
            "duration": 0.002741229166659309,
            "ticks": 29568,
            "durationTicks": 1
          },
          {
            "time": 81.05266400000001,
            "midi": 36,
            "name": "C2",
            "velocity": 1,
            "duration": 0.002741229166659309,
            "ticks": 29568,
            "durationTicks": 1
          },
          {
            "time": 81.315822,
            "midi": 42,
            "name": "F#2",
            "velocity": 0.48031496062992124,
            "duration": 0.00274122916667352,
            "ticks": 29664,
            "durationTicks": 1
          },
          {
            "time": 81.447401,
            "midi": 42,
            "name": "F#2",
            "velocity": 0.7874015748031497,
            "duration": 0.00274122916667352,
            "ticks": 29712,
            "durationTicks": 1
          },
          {
            "time": 81.57898,
            "midi": 42,
            "name": "F#2",
            "velocity": 0.9133858267716536,
            "duration": 0.00274122916667352,
            "ticks": 29760,
            "durationTicks": 1
          },
          {
            "time": 81.57898,
            "midi": 38,
            "name": "D2",
            "velocity": 0.984251968503937,
            "duration": 0.00274122916667352,
            "ticks": 29760,
            "durationTicks": 1
          },
          {
            "time": 81.57898,
            "midi": 36,
            "name": "C2",
            "velocity": 1,
            "duration": 0.00274122916667352,
            "ticks": 29760,
            "durationTicks": 1
          },
          {
            "time": 81.57898,
            "midi": 39,
            "name": "D#2",
            "velocity": 0.984251968503937,
            "duration": 0.00274122916667352,
            "ticks": 29760,
            "durationTicks": 1
          },
          {
            "time": 81.710559,
            "midi": 39,
            "name": "D#2",
            "velocity": 0.8267716535433071,
            "duration": 0.00274122916667352,
            "ticks": 29808,
            "durationTicks": 1
          },
          {
            "time": 81.842138,
            "midi": 46,
            "name": "A#2",
            "velocity": 0.7480314960629921,
            "duration": 0.00274122916667352,
            "ticks": 29856,
            "durationTicks": 1
          },
          {
            "time": 81.842138,
            "midi": 39,
            "name": "D#2",
            "velocity": 0.6692913385826772,
            "duration": 0.00274122916667352,
            "ticks": 29856,
            "durationTicks": 1
          },
          {
            "time": 81.97371700000001,
            "midi": 39,
            "name": "D#2",
            "velocity": 0.5118110236220472,
            "duration": 0.002741229166659309,
            "ticks": 29904,
            "durationTicks": 1
          },
          {
            "time": 82.105296,
            "midi": 46,
            "name": "A#2",
            "velocity": 0.8818897637795275,
            "duration": 0.00274122916667352,
            "ticks": 29952,
            "durationTicks": 1
          },
          {
            "time": 82.105296,
            "midi": 36,
            "name": "C2",
            "velocity": 1,
            "duration": 0.00274122916667352,
            "ticks": 29952,
            "durationTicks": 1
          },
          {
            "time": 82.368454,
            "midi": 42,
            "name": "F#2",
            "velocity": 0.4251968503937008,
            "duration": 0.00274122916667352,
            "ticks": 30048,
            "durationTicks": 1
          },
          {
            "time": 82.500033,
            "midi": 42,
            "name": "F#2",
            "velocity": 0.7874015748031497,
            "duration": 0.00274122916667352,
            "ticks": 30096,
            "durationTicks": 1
          },
          {
            "time": 82.631612,
            "midi": 42,
            "name": "F#2",
            "velocity": 0.9133858267716536,
            "duration": 0.00274122916667352,
            "ticks": 30144,
            "durationTicks": 1
          },
          {
            "time": 82.631612,
            "midi": 38,
            "name": "D2",
            "velocity": 0.8818897637795275,
            "duration": 0.00274122916667352,
            "ticks": 30144,
            "durationTicks": 1
          },
          {
            "time": 82.631612,
            "midi": 36,
            "name": "C2",
            "velocity": 1,
            "duration": 0.00274122916667352,
            "ticks": 30144,
            "durationTicks": 1
          },
          {
            "time": 82.89477,
            "midi": 42,
            "name": "F#2",
            "velocity": 0.31496062992125984,
            "duration": 0.00274122916667352,
            "ticks": 30240,
            "durationTicks": 1
          },
          {
            "time": 83.026349,
            "midi": 42,
            "name": "F#2",
            "velocity": 0.6535433070866141,
            "duration": 0.00274122916667352,
            "ticks": 30288,
            "durationTicks": 1
          },
          {
            "time": 83.157928,
            "midi": 42,
            "name": "F#2",
            "velocity": 0.9133858267716536,
            "duration": 0.00274122916667352,
            "ticks": 30336,
            "durationTicks": 1
          },
          {
            "time": 83.157928,
            "midi": 36,
            "name": "C2",
            "velocity": 1,
            "duration": 0.00274122916667352,
            "ticks": 30336,
            "durationTicks": 1
          },
          {
            "time": 83.421086,
            "midi": 42,
            "name": "F#2",
            "velocity": 0.3779527559055118,
            "duration": 0.00274122916667352,
            "ticks": 30432,
            "durationTicks": 1
          },
          {
            "time": 83.552665,
            "midi": 42,
            "name": "F#2",
            "velocity": 0.5590551181102362,
            "duration": 0.00274122916667352,
            "ticks": 30480,
            "durationTicks": 1
          },
          {
            "time": 83.684244,
            "midi": 42,
            "name": "F#2",
            "velocity": 0.9133858267716536,
            "duration": 0.002741229166659309,
            "ticks": 30528,
            "durationTicks": 1
          },
          {
            "time": 83.684244,
            "midi": 38,
            "name": "D2",
            "velocity": 0.9763779527559056,
            "duration": 0.002741229166659309,
            "ticks": 30528,
            "durationTicks": 1
          },
          {
            "time": 83.684244,
            "midi": 36,
            "name": "C2",
            "velocity": 1,
            "duration": 0.002741229166659309,
            "ticks": 30528,
            "durationTicks": 1
          },
          {
            "time": 83.947402,
            "midi": 42,
            "name": "F#2",
            "velocity": 0.10236220472440945,
            "duration": 0.00274122916667352,
            "ticks": 30624,
            "durationTicks": 1
          },
          {
            "time": 84.078981,
            "midi": 42,
            "name": "F#2",
            "velocity": 0.5590551181102362,
            "duration": 0.00274122916667352,
            "ticks": 30672,
            "durationTicks": 1
          },
          {
            "time": 84.21056,
            "midi": 42,
            "name": "F#2",
            "velocity": 0.7874015748031497,
            "duration": 0.00274122916667352,
            "ticks": 30720,
            "durationTicks": 1
          },
          {
            "time": 84.21056,
            "midi": 36,
            "name": "C2",
            "velocity": 1,
            "duration": 0.00274122916667352,
            "ticks": 30720,
            "durationTicks": 1
          },
          {
            "time": 84.473718,
            "midi": 42,
            "name": "F#2",
            "velocity": 0.4251968503937008,
            "duration": 0.00274122916667352,
            "ticks": 30816,
            "durationTicks": 1
          },
          {
            "time": 84.60529700000001,
            "midi": 42,
            "name": "F#2",
            "velocity": 0.6535433070866141,
            "duration": 0.002741229166659309,
            "ticks": 30864,
            "durationTicks": 1
          },
          {
            "time": 84.736876,
            "midi": 42,
            "name": "F#2",
            "velocity": 0.9133858267716536,
            "duration": 0.00274122916667352,
            "ticks": 30912,
            "durationTicks": 1
          },
          {
            "time": 84.736876,
            "midi": 38,
            "name": "D2",
            "velocity": 0.8818897637795275,
            "duration": 0.00274122916667352,
            "ticks": 30912,
            "durationTicks": 1
          },
          {
            "time": 84.736876,
            "midi": 36,
            "name": "C2",
            "velocity": 1,
            "duration": 0.00274122916667352,
            "ticks": 30912,
            "durationTicks": 1
          },
          {
            "time": 85.000034,
            "midi": 42,
            "name": "F#2",
            "velocity": 0.4251968503937008,
            "duration": 0.00274122916667352,
            "ticks": 31008,
            "durationTicks": 1
          },
          {
            "time": 85.131613,
            "midi": 42,
            "name": "F#2",
            "velocity": 0.5590551181102362,
            "duration": 0.00274122916667352,
            "ticks": 31056,
            "durationTicks": 1
          },
          {
            "time": 85.263192,
            "midi": 42,
            "name": "F#2",
            "velocity": 0.7874015748031497,
            "duration": 0.00274122916667352,
            "ticks": 31104,
            "durationTicks": 1
          },
          {
            "time": 85.263192,
            "midi": 36,
            "name": "C2",
            "velocity": 1,
            "duration": 0.00274122916667352,
            "ticks": 31104,
            "durationTicks": 1
          },
          {
            "time": 85.52635000000001,
            "midi": 42,
            "name": "F#2",
            "velocity": 0.5590551181102362,
            "duration": 0.002741229166659309,
            "ticks": 31200,
            "durationTicks": 1
          },
          {
            "time": 85.657929,
            "midi": 42,
            "name": "F#2",
            "velocity": 0.5590551181102362,
            "duration": 0.00274122916667352,
            "ticks": 31248,
            "durationTicks": 1
          },
          {
            "time": 85.789508,
            "midi": 42,
            "name": "F#2",
            "velocity": 0.9133858267716536,
            "duration": 0.00274122916667352,
            "ticks": 31296,
            "durationTicks": 1
          },
          {
            "time": 85.789508,
            "midi": 38,
            "name": "D2",
            "velocity": 0.8818897637795275,
            "duration": 0.00274122916667352,
            "ticks": 31296,
            "durationTicks": 1
          },
          {
            "time": 85.789508,
            "midi": 36,
            "name": "C2",
            "velocity": 1,
            "duration": 0.00274122916667352,
            "ticks": 31296,
            "durationTicks": 1
          },
          {
            "time": 86.052666,
            "midi": 46,
            "name": "A#2",
            "velocity": 0.5354330708661418,
            "duration": 0.00274122916667352,
            "ticks": 31392,
            "durationTicks": 1
          },
          {
            "time": 86.315824,
            "midi": 42,
            "name": "F#2",
            "velocity": 0.9133858267716536,
            "duration": 0.002741229166659309,
            "ticks": 31488,
            "durationTicks": 1
          },
          {
            "time": 86.315824,
            "midi": 36,
            "name": "C2",
            "velocity": 1,
            "duration": 0.002741229166659309,
            "ticks": 31488,
            "durationTicks": 1
          },
          {
            "time": 86.578982,
            "midi": 42,
            "name": "F#2",
            "velocity": 0.3464566929133858,
            "duration": 0.00274122916667352,
            "ticks": 31584,
            "durationTicks": 1
          },
          {
            "time": 86.710561,
            "midi": 42,
            "name": "F#2",
            "velocity": 0.7874015748031497,
            "duration": 0.00274122916667352,
            "ticks": 31632,
            "durationTicks": 1
          },
          {
            "time": 86.84214,
            "midi": 42,
            "name": "F#2",
            "velocity": 0.9133858267716536,
            "duration": 0.00274122916667352,
            "ticks": 31680,
            "durationTicks": 1
          },
          {
            "time": 86.84214,
            "midi": 38,
            "name": "D2",
            "velocity": 0.9763779527559056,
            "duration": 0.00274122916667352,
            "ticks": 31680,
            "durationTicks": 1
          },
          {
            "time": 86.84214,
            "midi": 36,
            "name": "C2",
            "velocity": 1,
            "duration": 0.00274122916667352,
            "ticks": 31680,
            "durationTicks": 1
          },
          {
            "time": 87.105298,
            "midi": 42,
            "name": "F#2",
            "velocity": 0.25984251968503935,
            "duration": 0.00274122916667352,
            "ticks": 31776,
            "durationTicks": 1
          },
          {
            "time": 87.236877,
            "midi": 42,
            "name": "F#2",
            "velocity": 0.6535433070866141,
            "duration": 0.002741229166659309,
            "ticks": 31824,
            "durationTicks": 1
          },
          {
            "time": 87.368456,
            "midi": 42,
            "name": "F#2",
            "velocity": 0.9133858267716536,
            "duration": 0.00274122916667352,
            "ticks": 31872,
            "durationTicks": 1
          },
          {
            "time": 87.368456,
            "midi": 36,
            "name": "C2",
            "velocity": 1,
            "duration": 0.00274122916667352,
            "ticks": 31872,
            "durationTicks": 1
          },
          {
            "time": 87.631614,
            "midi": 42,
            "name": "F#2",
            "velocity": 0.5590551181102362,
            "duration": 0.00274122916667352,
            "ticks": 31968,
            "durationTicks": 1
          },
          {
            "time": 87.763193,
            "midi": 42,
            "name": "F#2",
            "velocity": 0.6535433070866141,
            "duration": 0.00274122916667352,
            "ticks": 32016,
            "durationTicks": 1
          },
          {
            "time": 87.894772,
            "midi": 42,
            "name": "F#2",
            "velocity": 1,
            "duration": 0.00274122916667352,
            "ticks": 32064,
            "durationTicks": 1
          },
          {
            "time": 87.894772,
            "midi": 38,
            "name": "D2",
            "velocity": 0.8818897637795275,
            "duration": 0.00274122916667352,
            "ticks": 32064,
            "durationTicks": 1
          },
          {
            "time": 87.894772,
            "midi": 36,
            "name": "C2",
            "velocity": 1,
            "duration": 0.00274122916667352,
            "ticks": 32064,
            "durationTicks": 1
          },
          {
            "time": 88.15793000000001,
            "midi": 42,
            "name": "F#2",
            "velocity": 0.3779527559055118,
            "duration": 0.002741229166659309,
            "ticks": 32160,
            "durationTicks": 1
          },
          {
            "time": 88.289509,
            "midi": 42,
            "name": "F#2",
            "velocity": 0.48031496062992124,
            "duration": 0.00274122916667352,
            "ticks": 32208,
            "durationTicks": 1
          },
          {
            "time": 88.421088,
            "midi": 42,
            "name": "F#2",
            "velocity": 0.9133858267716536,
            "duration": 0.00274122916667352,
            "ticks": 32256,
            "durationTicks": 1
          },
          {
            "time": 88.421088,
            "midi": 36,
            "name": "C2",
            "velocity": 1,
            "duration": 0.00274122916667352,
            "ticks": 32256,
            "durationTicks": 1
          },
          {
            "time": 88.684246,
            "midi": 42,
            "name": "F#2",
            "velocity": 0.5590551181102362,
            "duration": 0.00274122916667352,
            "ticks": 32352,
            "durationTicks": 1
          },
          {
            "time": 88.684246,
            "midi": 38,
            "name": "D2",
            "velocity": 0.8818897637795275,
            "duration": 0.00274122916667352,
            "ticks": 32352,
            "durationTicks": 1
          },
          {
            "time": 88.815825,
            "midi": 42,
            "name": "F#2",
            "velocity": 0.5590551181102362,
            "duration": 0.00274122916667352,
            "ticks": 32400,
            "durationTicks": 1
          },
          {
            "time": 88.947404,
            "midi": 42,
            "name": "F#2",
            "velocity": 0.9133858267716536,
            "duration": 0.00274122916667352,
            "ticks": 32448,
            "durationTicks": 1
          },
          {
            "time": 88.947404,
            "midi": 36,
            "name": "C2",
            "velocity": 1,
            "duration": 0.00274122916667352,
            "ticks": 32448,
            "durationTicks": 1
          },
          {
            "time": 89.07898300000001,
            "midi": 38,
            "name": "D2",
            "velocity": 0.9763779527559056,
            "duration": 0.002741229166659309,
            "ticks": 32496,
            "durationTicks": 1
          },
          {
            "time": 89.210562,
            "midi": 46,
            "name": "A#2",
            "velocity": 0.5354330708661418,
            "duration": 0.00274122916667352,
            "ticks": 32544,
            "durationTicks": 1
          },
          {
            "time": 89.47372,
            "midi": 42,
            "name": "F#2",
            "velocity": 0.9133858267716536,
            "duration": 0.00274122916667352,
            "ticks": 32640,
            "durationTicks": 1
          },
          {
            "time": 89.47372,
            "midi": 38,
            "name": "D2",
            "velocity": 0.8818897637795275,
            "duration": 0.00274122916667352,
            "ticks": 32640,
            "durationTicks": 1
          },
          {
            "time": 89.47372,
            "midi": 36,
            "name": "C2",
            "velocity": 1,
            "duration": 0.00274122916667352,
            "ticks": 32640,
            "durationTicks": 1
          },
          {
            "time": 89.736878,
            "midi": 42,
            "name": "F#2",
            "velocity": 0.48031496062992124,
            "duration": 0.00274122916667352,
            "ticks": 32736,
            "durationTicks": 1
          },
          {
            "time": 89.736878,
            "midi": 38,
            "name": "D2",
            "velocity": 0.5354330708661418,
            "duration": 0.00274122916667352,
            "ticks": 32736,
            "durationTicks": 1
          },
          {
            "time": 89.868457,
            "midi": 42,
            "name": "F#2",
            "velocity": 0.7874015748031497,
            "duration": 0.002741229166659309,
            "ticks": 32784,
            "durationTicks": 1
          },
          {
            "time": 89.868457,
            "midi": 38,
            "name": "D2",
            "velocity": 0.4645669291338583,
            "duration": 0.002741229166659309,
            "ticks": 32784,
            "durationTicks": 1
          },
          {
            "time": 90.000036,
            "midi": 42,
            "name": "F#2",
            "velocity": 0.9133858267716536,
            "duration": 0.00274122916667352,
            "ticks": 32832,
            "durationTicks": 1
          },
          {
            "time": 90.000036,
            "midi": 38,
            "name": "D2",
            "velocity": 0.6299212598425197,
            "duration": 0.00274122916667352,
            "ticks": 32832,
            "durationTicks": 1
          },
          {
            "time": 90.000036,
            "midi": 36,
            "name": "C2",
            "velocity": 1,
            "duration": 0.00274122916667352,
            "ticks": 32832,
            "durationTicks": 1
          },
          {
            "time": 90.131615,
            "midi": 38,
            "name": "D2",
            "velocity": 0.6299212598425197,
            "duration": 0.00274122916667352,
            "ticks": 32880,
            "durationTicks": 1
          },
          {
            "time": 90.263194,
            "midi": 46,
            "name": "A#2",
            "velocity": 0.7480314960629921,
            "duration": 0.00274122916667352,
            "ticks": 32928,
            "durationTicks": 1
          },
          {
            "time": 90.263194,
            "midi": 38,
            "name": "D2",
            "velocity": 0.7480314960629921,
            "duration": 0.00274122916667352,
            "ticks": 32928,
            "durationTicks": 1
          },
          {
            "time": 90.394773,
            "midi": 38,
            "name": "D2",
            "velocity": 0.8818897637795275,
            "duration": 0.00274122916667352,
            "ticks": 32976,
            "durationTicks": 1
          },
          {
            "time": 90.526352,
            "midi": 42,
            "name": "F#2",
            "velocity": 0.8818897637795275,
            "duration": 0.00274122916667352,
            "ticks": 33024,
            "durationTicks": 1
          },
          {
            "time": 90.526352,
            "midi": 36,
            "name": "C2",
            "velocity": 1,
            "duration": 0.00274122916667352,
            "ticks": 33024,
            "durationTicks": 1
          },
          {
            "time": 90.78951,
            "midi": 42,
            "name": "F#2",
            "velocity": 0.4251968503937008,
            "duration": 0.002741229166659309,
            "ticks": 33120,
            "durationTicks": 1
          },
          {
            "time": 90.921089,
            "midi": 42,
            "name": "F#2",
            "velocity": 0.7874015748031497,
            "duration": 0.00274122916667352,
            "ticks": 33168,
            "durationTicks": 1
          },
          {
            "time": 91.052668,
            "midi": 42,
            "name": "F#2",
            "velocity": 0.9133858267716536,
            "duration": 0.00274122916667352,
            "ticks": 33216,
            "durationTicks": 1
          },
          {
            "time": 91.052668,
            "midi": 38,
            "name": "D2",
            "velocity": 0.8818897637795275,
            "duration": 0.00274122916667352,
            "ticks": 33216,
            "durationTicks": 1
          },
          {
            "time": 91.052668,
            "midi": 36,
            "name": "C2",
            "velocity": 1,
            "duration": 0.00274122916667352,
            "ticks": 33216,
            "durationTicks": 1
          },
          {
            "time": 91.052668,
            "midi": 39,
            "name": "D#2",
            "velocity": 0.7874015748031497,
            "duration": 0.00274122916667352,
            "ticks": 33216,
            "durationTicks": 1
          },
          {
            "time": 91.315826,
            "midi": 42,
            "name": "F#2",
            "velocity": 0.31496062992125984,
            "duration": 0.00274122916667352,
            "ticks": 33312,
            "durationTicks": 1
          },
          {
            "time": 91.447405,
            "midi": 42,
            "name": "F#2",
            "velocity": 0.6535433070866141,
            "duration": 0.00274122916667352,
            "ticks": 33360,
            "durationTicks": 1
          },
          {
            "time": 91.578984,
            "midi": 42,
            "name": "F#2",
            "velocity": 0.9133858267716536,
            "duration": 0.00274122916667352,
            "ticks": 33408,
            "durationTicks": 1
          },
          {
            "time": 91.578984,
            "midi": 36,
            "name": "C2",
            "velocity": 1,
            "duration": 0.00274122916667352,
            "ticks": 33408,
            "durationTicks": 1
          },
          {
            "time": 91.842142,
            "midi": 42,
            "name": "F#2",
            "velocity": 0.3779527559055118,
            "duration": 0.00274122916667352,
            "ticks": 33504,
            "durationTicks": 1
          },
          {
            "time": 91.973721,
            "midi": 42,
            "name": "F#2",
            "velocity": 0.5590551181102362,
            "duration": 0.00274122916667352,
            "ticks": 33552,
            "durationTicks": 1
          },
          {
            "time": 92.1053,
            "midi": 42,
            "name": "F#2",
            "velocity": 0.9133858267716536,
            "duration": 0.00274122916667352,
            "ticks": 33600,
            "durationTicks": 1
          },
          {
            "time": 92.1053,
            "midi": 38,
            "name": "D2",
            "velocity": 0.9763779527559056,
            "duration": 0.00274122916667352,
            "ticks": 33600,
            "durationTicks": 1
          },
          {
            "time": 92.1053,
            "midi": 36,
            "name": "C2",
            "velocity": 1,
            "duration": 0.00274122916667352,
            "ticks": 33600,
            "durationTicks": 1
          },
          {
            "time": 92.1053,
            "midi": 39,
            "name": "D#2",
            "velocity": 0.9133858267716536,
            "duration": 0.00274122916667352,
            "ticks": 33600,
            "durationTicks": 1
          },
          {
            "time": 92.368458,
            "midi": 42,
            "name": "F#2",
            "velocity": 0.10236220472440945,
            "duration": 0.00274122916667352,
            "ticks": 33696,
            "durationTicks": 1
          },
          {
            "time": 92.500037,
            "midi": 42,
            "name": "F#2",
            "velocity": 0.5590551181102362,
            "duration": 0.00274122916667352,
            "ticks": 33744,
            "durationTicks": 1
          },
          {
            "time": 92.63161600000001,
            "midi": 42,
            "name": "F#2",
            "velocity": 0.7874015748031497,
            "duration": 0.002741229166659309,
            "ticks": 33792,
            "durationTicks": 1
          },
          {
            "time": 92.63161600000001,
            "midi": 36,
            "name": "C2",
            "velocity": 1,
            "duration": 0.002741229166659309,
            "ticks": 33792,
            "durationTicks": 1
          },
          {
            "time": 92.894774,
            "midi": 42,
            "name": "F#2",
            "velocity": 0.4251968503937008,
            "duration": 0.00274122916667352,
            "ticks": 33888,
            "durationTicks": 1
          },
          {
            "time": 93.026353,
            "midi": 42,
            "name": "F#2",
            "velocity": 0.6535433070866141,
            "duration": 0.00274122916667352,
            "ticks": 33936,
            "durationTicks": 1
          },
          {
            "time": 93.157932,
            "midi": 42,
            "name": "F#2",
            "velocity": 0.9133858267716536,
            "duration": 0.00274122916667352,
            "ticks": 33984,
            "durationTicks": 1
          },
          {
            "time": 93.157932,
            "midi": 38,
            "name": "D2",
            "velocity": 0.8818897637795275,
            "duration": 0.00274122916667352,
            "ticks": 33984,
            "durationTicks": 1
          },
          {
            "time": 93.157932,
            "midi": 36,
            "name": "C2",
            "velocity": 1,
            "duration": 0.00274122916667352,
            "ticks": 33984,
            "durationTicks": 1
          },
          {
            "time": 93.157932,
            "midi": 39,
            "name": "D#2",
            "velocity": 0.9133858267716536,
            "duration": 0.00274122916667352,
            "ticks": 33984,
            "durationTicks": 1
          },
          {
            "time": 93.42109,
            "midi": 42,
            "name": "F#2",
            "velocity": 0.4251968503937008,
            "duration": 0.002741229166659309,
            "ticks": 34080,
            "durationTicks": 1
          },
          {
            "time": 93.552669,
            "midi": 42,
            "name": "F#2",
            "velocity": 0.5590551181102362,
            "duration": 0.00274122916667352,
            "ticks": 34128,
            "durationTicks": 1
          },
          {
            "time": 93.684248,
            "midi": 42,
            "name": "F#2",
            "velocity": 0.7874015748031497,
            "duration": 0.00274122916667352,
            "ticks": 34176,
            "durationTicks": 1
          },
          {
            "time": 93.684248,
            "midi": 36,
            "name": "C2",
            "velocity": 1,
            "duration": 0.00274122916667352,
            "ticks": 34176,
            "durationTicks": 1
          },
          {
            "time": 93.947406,
            "midi": 42,
            "name": "F#2",
            "velocity": 0.5590551181102362,
            "duration": 0.00274122916667352,
            "ticks": 34272,
            "durationTicks": 1
          },
          {
            "time": 94.078985,
            "midi": 42,
            "name": "F#2",
            "velocity": 0.5590551181102362,
            "duration": 0.00274122916667352,
            "ticks": 34320,
            "durationTicks": 1
          },
          {
            "time": 94.210564,
            "midi": 42,
            "name": "F#2",
            "velocity": 0.9133858267716536,
            "duration": 0.00274122916667352,
            "ticks": 34368,
            "durationTicks": 1
          },
          {
            "time": 94.210564,
            "midi": 38,
            "name": "D2",
            "velocity": 0.8818897637795275,
            "duration": 0.00274122916667352,
            "ticks": 34368,
            "durationTicks": 1
          },
          {
            "time": 94.210564,
            "midi": 36,
            "name": "C2",
            "velocity": 1,
            "duration": 0.00274122916667352,
            "ticks": 34368,
            "durationTicks": 1
          },
          {
            "time": 94.210564,
            "midi": 39,
            "name": "D#2",
            "velocity": 0.7874015748031497,
            "duration": 0.00274122916667352,
            "ticks": 34368,
            "durationTicks": 1
          },
          {
            "time": 94.473722,
            "midi": 46,
            "name": "A#2",
            "velocity": 0.5354330708661418,
            "duration": 0.00274122916667352,
            "ticks": 34464,
            "durationTicks": 1
          },
          {
            "time": 94.73688,
            "midi": 42,
            "name": "F#2",
            "velocity": 0.9133858267716536,
            "duration": 0.00274122916667352,
            "ticks": 34560,
            "durationTicks": 1
          },
          {
            "time": 94.73688,
            "midi": 36,
            "name": "C2",
            "velocity": 1,
            "duration": 0.00274122916667352,
            "ticks": 34560,
            "durationTicks": 1
          },
          {
            "time": 95.000038,
            "midi": 42,
            "name": "F#2",
            "velocity": 0.3464566929133858,
            "duration": 0.00274122916667352,
            "ticks": 34656,
            "durationTicks": 1
          },
          {
            "time": 95.131617,
            "midi": 42,
            "name": "F#2",
            "velocity": 0.7874015748031497,
            "duration": 0.00274122916667352,
            "ticks": 34704,
            "durationTicks": 1
          },
          {
            "time": 95.26319600000001,
            "midi": 42,
            "name": "F#2",
            "velocity": 0.9133858267716536,
            "duration": 0.002741229166659309,
            "ticks": 34752,
            "durationTicks": 1
          },
          {
            "time": 95.26319600000001,
            "midi": 38,
            "name": "D2",
            "velocity": 0.9763779527559056,
            "duration": 0.002741229166659309,
            "ticks": 34752,
            "durationTicks": 1
          },
          {
            "time": 95.26319600000001,
            "midi": 36,
            "name": "C2",
            "velocity": 1,
            "duration": 0.002741229166659309,
            "ticks": 34752,
            "durationTicks": 1
          },
          {
            "time": 95.26319600000001,
            "midi": 39,
            "name": "D#2",
            "velocity": 0.7874015748031497,
            "duration": 0.002741229166659309,
            "ticks": 34752,
            "durationTicks": 1
          },
          {
            "time": 95.526354,
            "midi": 42,
            "name": "F#2",
            "velocity": 0.25984251968503935,
            "duration": 0.00274122916667352,
            "ticks": 34848,
            "durationTicks": 1
          },
          {
            "time": 95.657933,
            "midi": 42,
            "name": "F#2",
            "velocity": 0.6535433070866141,
            "duration": 0.00274122916667352,
            "ticks": 34896,
            "durationTicks": 1
          },
          {
            "time": 95.789512,
            "midi": 42,
            "name": "F#2",
            "velocity": 0.9133858267716536,
            "duration": 0.00274122916667352,
            "ticks": 34944,
            "durationTicks": 1
          },
          {
            "time": 95.789512,
            "midi": 36,
            "name": "C2",
            "velocity": 1,
            "duration": 0.00274122916667352,
            "ticks": 34944,
            "durationTicks": 1
          },
          {
            "time": 96.05267,
            "midi": 42,
            "name": "F#2",
            "velocity": 0.5590551181102362,
            "duration": 0.00274122916667352,
            "ticks": 35040,
            "durationTicks": 1
          },
          {
            "time": 96.184249,
            "midi": 42,
            "name": "F#2",
            "velocity": 0.6535433070866141,
            "duration": 0.00274122916667352,
            "ticks": 35088,
            "durationTicks": 1
          },
          {
            "time": 96.315828,
            "midi": 42,
            "name": "F#2",
            "velocity": 1,
            "duration": 0.00274122916667352,
            "ticks": 35136,
            "durationTicks": 1
          },
          {
            "time": 96.315828,
            "midi": 38,
            "name": "D2",
            "velocity": 0.8818897637795275,
            "duration": 0.00274122916667352,
            "ticks": 35136,
            "durationTicks": 1
          },
          {
            "time": 96.315828,
            "midi": 36,
            "name": "C2",
            "velocity": 1,
            "duration": 0.00274122916667352,
            "ticks": 35136,
            "durationTicks": 1
          },
          {
            "time": 96.315828,
            "midi": 39,
            "name": "D#2",
            "velocity": 0.9133858267716536,
            "duration": 0.00274122916667352,
            "ticks": 35136,
            "durationTicks": 1
          },
          {
            "time": 96.578986,
            "midi": 42,
            "name": "F#2",
            "velocity": 0.3779527559055118,
            "duration": 0.00274122916667352,
            "ticks": 35232,
            "durationTicks": 1
          },
          {
            "time": 96.710565,
            "midi": 42,
            "name": "F#2",
            "velocity": 0.48031496062992124,
            "duration": 0.00274122916667352,
            "ticks": 35280,
            "durationTicks": 1
          },
          {
            "time": 96.842144,
            "midi": 42,
            "name": "F#2",
            "velocity": 0.9133858267716536,
            "duration": 0.00274122916667352,
            "ticks": 35328,
            "durationTicks": 1
          },
          {
            "time": 96.842144,
            "midi": 36,
            "name": "C2",
            "velocity": 1,
            "duration": 0.00274122916667352,
            "ticks": 35328,
            "durationTicks": 1
          },
          {
            "time": 97.105302,
            "midi": 42,
            "name": "F#2",
            "velocity": 0.5590551181102362,
            "duration": 0.00274122916667352,
            "ticks": 35424,
            "durationTicks": 1
          },
          {
            "time": 97.236881,
            "midi": 42,
            "name": "F#2",
            "velocity": 0.5590551181102362,
            "duration": 0.00274122916667352,
            "ticks": 35472,
            "durationTicks": 1
          },
          {
            "time": 97.36846,
            "midi": 42,
            "name": "F#2",
            "velocity": 0.9133858267716536,
            "duration": 0.00274122916667352,
            "ticks": 35520,
            "durationTicks": 1
          },
          {
            "time": 97.36846,
            "midi": 38,
            "name": "D2",
            "velocity": 0.9763779527559056,
            "duration": 0.00274122916667352,
            "ticks": 35520,
            "durationTicks": 1
          },
          {
            "time": 97.36846,
            "midi": 36,
            "name": "C2",
            "velocity": 1,
            "duration": 0.00274122916667352,
            "ticks": 35520,
            "durationTicks": 1
          },
          {
            "time": 97.36846,
            "midi": 39,
            "name": "D#2",
            "velocity": 0.7874015748031497,
            "duration": 0.00274122916667352,
            "ticks": 35520,
            "durationTicks": 1
          },
          {
            "time": 97.631618,
            "midi": 46,
            "name": "A#2",
            "velocity": 0.5354330708661418,
            "duration": 0.00274122916667352,
            "ticks": 35616,
            "durationTicks": 1
          },
          {
            "time": 97.89477600000001,
            "midi": 42,
            "name": "F#2",
            "velocity": 0.9133858267716536,
            "duration": 0.002741229166659309,
            "ticks": 35712,
            "durationTicks": 1
          },
          {
            "time": 97.89477600000001,
            "midi": 36,
            "name": "C2",
            "velocity": 1,
            "duration": 0.002741229166659309,
            "ticks": 35712,
            "durationTicks": 1
          },
          {
            "time": 98.157934,
            "midi": 42,
            "name": "F#2",
            "velocity": 0.48031496062992124,
            "duration": 0.00274122916667352,
            "ticks": 35808,
            "durationTicks": 1
          },
          {
            "time": 98.289513,
            "midi": 42,
            "name": "F#2",
            "velocity": 0.7874015748031497,
            "duration": 0.00274122916667352,
            "ticks": 35856,
            "durationTicks": 1
          },
          {
            "time": 98.421092,
            "midi": 42,
            "name": "F#2",
            "velocity": 0.9133858267716536,
            "duration": 0.00274122916667352,
            "ticks": 35904,
            "durationTicks": 1
          },
          {
            "time": 98.421092,
            "midi": 38,
            "name": "D2",
            "velocity": 0.984251968503937,
            "duration": 0.00274122916667352,
            "ticks": 35904,
            "durationTicks": 1
          },
          {
            "time": 98.421092,
            "midi": 36,
            "name": "C2",
            "velocity": 1,
            "duration": 0.00274122916667352,
            "ticks": 35904,
            "durationTicks": 1
          },
          {
            "time": 98.421092,
            "midi": 39,
            "name": "D#2",
            "velocity": 0.984251968503937,
            "duration": 0.00274122916667352,
            "ticks": 35904,
            "durationTicks": 1
          },
          {
            "time": 98.552671,
            "midi": 39,
            "name": "D#2",
            "velocity": 0.8267716535433071,
            "duration": 0.00274122916667352,
            "ticks": 35952,
            "durationTicks": 1
          },
          {
            "time": 98.68425,
            "midi": 46,
            "name": "A#2",
            "velocity": 0.7480314960629921,
            "duration": 0.00274122916667352,
            "ticks": 36000,
            "durationTicks": 1
          },
          {
            "time": 98.68425,
            "midi": 39,
            "name": "D#2",
            "velocity": 0.6692913385826772,
            "duration": 0.00274122916667352,
            "ticks": 36000,
            "durationTicks": 1
          },
          {
            "time": 98.81582900000001,
            "midi": 39,
            "name": "D#2",
            "velocity": 0.5118110236220472,
            "duration": 0.002741229166659309,
            "ticks": 36048,
            "durationTicks": 1
          },
          {
            "time": 98.947408,
            "midi": 42,
            "name": "F#2",
            "velocity": 0.8818897637795275,
            "duration": 0.00274122916667352,
            "ticks": 36096,
            "durationTicks": 1
          },
          {
            "time": 98.947408,
            "midi": 36,
            "name": "C2",
            "velocity": 1,
            "duration": 0.00274122916667352,
            "ticks": 36096,
            "durationTicks": 1
          },
          {
            "time": 99.210566,
            "midi": 42,
            "name": "F#2",
            "velocity": 0.4251968503937008,
            "duration": 0.00274122916667352,
            "ticks": 36192,
            "durationTicks": 1
          },
          {
            "time": 99.342145,
            "midi": 42,
            "name": "F#2",
            "velocity": 0.7874015748031497,
            "duration": 0.00274122916667352,
            "ticks": 36240,
            "durationTicks": 1
          },
          {
            "time": 99.473724,
            "midi": 42,
            "name": "F#2",
            "velocity": 0.9133858267716536,
            "duration": 0.00274122916667352,
            "ticks": 36288,
            "durationTicks": 1
          },
          {
            "time": 99.473724,
            "midi": 38,
            "name": "D2",
            "velocity": 0.8818897637795275,
            "duration": 0.00274122916667352,
            "ticks": 36288,
            "durationTicks": 1
          },
          {
            "time": 99.473724,
            "midi": 36,
            "name": "C2",
            "velocity": 1,
            "duration": 0.00274122916667352,
            "ticks": 36288,
            "durationTicks": 1
          },
          {
            "time": 99.473724,
            "midi": 39,
            "name": "D#2",
            "velocity": 0.7874015748031497,
            "duration": 0.00274122916667352,
            "ticks": 36288,
            "durationTicks": 1
          },
          {
            "time": 99.736882,
            "midi": 42,
            "name": "F#2",
            "velocity": 0.31496062992125984,
            "duration": 0.00274122916667352,
            "ticks": 36384,
            "durationTicks": 1
          },
          {
            "time": 99.868461,
            "midi": 42,
            "name": "F#2",
            "velocity": 0.6535433070866141,
            "duration": 0.00274122916667352,
            "ticks": 36432,
            "durationTicks": 1
          },
          {
            "time": 100.00004,
            "midi": 42,
            "name": "F#2",
            "velocity": 0.9133858267716536,
            "duration": 0.00274122916667352,
            "ticks": 36480,
            "durationTicks": 1
          },
          {
            "time": 100.00004,
            "midi": 36,
            "name": "C2",
            "velocity": 1,
            "duration": 0.00274122916667352,
            "ticks": 36480,
            "durationTicks": 1
          },
          {
            "time": 100.263198,
            "midi": 42,
            "name": "F#2",
            "velocity": 0.3779527559055118,
            "duration": 0.00274122916667352,
            "ticks": 36576,
            "durationTicks": 1
          },
          {
            "time": 100.394777,
            "midi": 42,
            "name": "F#2",
            "velocity": 0.5590551181102362,
            "duration": 0.00274122916667352,
            "ticks": 36624,
            "durationTicks": 1
          },
          {
            "time": 100.526356,
            "midi": 42,
            "name": "F#2",
            "velocity": 0.9133858267716536,
            "duration": 0.002741229166659309,
            "ticks": 36672,
            "durationTicks": 1
          },
          {
            "time": 100.526356,
            "midi": 38,
            "name": "D2",
            "velocity": 0.9763779527559056,
            "duration": 0.002741229166659309,
            "ticks": 36672,
            "durationTicks": 1
          },
          {
            "time": 100.526356,
            "midi": 36,
            "name": "C2",
            "velocity": 1,
            "duration": 0.002741229166659309,
            "ticks": 36672,
            "durationTicks": 1
          },
          {
            "time": 100.526356,
            "midi": 39,
            "name": "D#2",
            "velocity": 0.9133858267716536,
            "duration": 0.002741229166659309,
            "ticks": 36672,
            "durationTicks": 1
          },
          {
            "time": 100.789514,
            "midi": 42,
            "name": "F#2",
            "velocity": 0.10236220472440945,
            "duration": 0.00274122916667352,
            "ticks": 36768,
            "durationTicks": 1
          },
          {
            "time": 100.921093,
            "midi": 42,
            "name": "F#2",
            "velocity": 0.5590551181102362,
            "duration": 0.00274122916667352,
            "ticks": 36816,
            "durationTicks": 1
          },
          {
            "time": 101.052672,
            "midi": 42,
            "name": "F#2",
            "velocity": 0.7874015748031497,
            "duration": 0.00274122916667352,
            "ticks": 36864,
            "durationTicks": 1
          },
          {
            "time": 101.052672,
            "midi": 36,
            "name": "C2",
            "velocity": 1,
            "duration": 0.00274122916667352,
            "ticks": 36864,
            "durationTicks": 1
          },
          {
            "time": 101.31583,
            "midi": 42,
            "name": "F#2",
            "velocity": 0.4251968503937008,
            "duration": 0.00274122916667352,
            "ticks": 36960,
            "durationTicks": 1
          },
          {
            "time": 101.44740900000001,
            "midi": 42,
            "name": "F#2",
            "velocity": 0.6535433070866141,
            "duration": 0.002741229166659309,
            "ticks": 37008,
            "durationTicks": 1
          },
          {
            "time": 101.578988,
            "midi": 42,
            "name": "F#2",
            "velocity": 0.9133858267716536,
            "duration": 0.00274122916667352,
            "ticks": 37056,
            "durationTicks": 1
          },
          {
            "time": 101.578988,
            "midi": 38,
            "name": "D2",
            "velocity": 0.8818897637795275,
            "duration": 0.00274122916667352,
            "ticks": 37056,
            "durationTicks": 1
          },
          {
            "time": 101.578988,
            "midi": 36,
            "name": "C2",
            "velocity": 1,
            "duration": 0.00274122916667352,
            "ticks": 37056,
            "durationTicks": 1
          },
          {
            "time": 101.578988,
            "midi": 39,
            "name": "D#2",
            "velocity": 0.9133858267716536,
            "duration": 0.00274122916667352,
            "ticks": 37056,
            "durationTicks": 1
          },
          {
            "time": 101.842146,
            "midi": 42,
            "name": "F#2",
            "velocity": 0.4251968503937008,
            "duration": 0.00274122916667352,
            "ticks": 37152,
            "durationTicks": 1
          },
          {
            "time": 101.973725,
            "midi": 42,
            "name": "F#2",
            "velocity": 0.5590551181102362,
            "duration": 0.00274122916667352,
            "ticks": 37200,
            "durationTicks": 1
          },
          {
            "time": 102.105304,
            "midi": 42,
            "name": "F#2",
            "velocity": 0.7874015748031497,
            "duration": 0.00274122916667352,
            "ticks": 37248,
            "durationTicks": 1
          },
          {
            "time": 102.105304,
            "midi": 36,
            "name": "C2",
            "velocity": 1,
            "duration": 0.00274122916667352,
            "ticks": 37248,
            "durationTicks": 1
          },
          {
            "time": 102.36846200000001,
            "midi": 42,
            "name": "F#2",
            "velocity": 0.5590551181102362,
            "duration": 0.002741229166659309,
            "ticks": 37344,
            "durationTicks": 1
          },
          {
            "time": 102.500041,
            "midi": 42,
            "name": "F#2",
            "velocity": 0.5590551181102362,
            "duration": 0.00274122916667352,
            "ticks": 37392,
            "durationTicks": 1
          },
          {
            "time": 102.63162,
            "midi": 42,
            "name": "F#2",
            "velocity": 0.9133858267716536,
            "duration": 0.00274122916667352,
            "ticks": 37440,
            "durationTicks": 1
          },
          {
            "time": 102.63162,
            "midi": 38,
            "name": "D2",
            "velocity": 0.8818897637795275,
            "duration": 0.00274122916667352,
            "ticks": 37440,
            "durationTicks": 1
          },
          {
            "time": 102.63162,
            "midi": 36,
            "name": "C2",
            "velocity": 1,
            "duration": 0.00274122916667352,
            "ticks": 37440,
            "durationTicks": 1
          },
          {
            "time": 102.63162,
            "midi": 39,
            "name": "D#2",
            "velocity": 0.7874015748031497,
            "duration": 0.00274122916667352,
            "ticks": 37440,
            "durationTicks": 1
          },
          {
            "time": 102.894778,
            "midi": 46,
            "name": "A#2",
            "velocity": 0.5354330708661418,
            "duration": 0.00274122916667352,
            "ticks": 37536,
            "durationTicks": 1
          },
          {
            "time": 103.157936,
            "midi": 42,
            "name": "F#2",
            "velocity": 0.9133858267716536,
            "duration": 0.002741229166659309,
            "ticks": 37632,
            "durationTicks": 1
          },
          {
            "time": 103.157936,
            "midi": 36,
            "name": "C2",
            "velocity": 1,
            "duration": 0.002741229166659309,
            "ticks": 37632,
            "durationTicks": 1
          },
          {
            "time": 103.421094,
            "midi": 42,
            "name": "F#2",
            "velocity": 0.3464566929133858,
            "duration": 0.00274122916667352,
            "ticks": 37728,
            "durationTicks": 1
          },
          {
            "time": 103.552673,
            "midi": 42,
            "name": "F#2",
            "velocity": 0.7874015748031497,
            "duration": 0.00274122916667352,
            "ticks": 37776,
            "durationTicks": 1
          },
          {
            "time": 103.684252,
            "midi": 42,
            "name": "F#2",
            "velocity": 0.9133858267716536,
            "duration": 0.00274122916667352,
            "ticks": 37824,
            "durationTicks": 1
          },
          {
            "time": 103.684252,
            "midi": 38,
            "name": "D2",
            "velocity": 0.9763779527559056,
            "duration": 0.00274122916667352,
            "ticks": 37824,
            "durationTicks": 1
          },
          {
            "time": 103.684252,
            "midi": 36,
            "name": "C2",
            "velocity": 1,
            "duration": 0.00274122916667352,
            "ticks": 37824,
            "durationTicks": 1
          },
          {
            "time": 103.684252,
            "midi": 39,
            "name": "D#2",
            "velocity": 0.7874015748031497,
            "duration": 0.00274122916667352,
            "ticks": 37824,
            "durationTicks": 1
          },
          {
            "time": 103.94741,
            "midi": 42,
            "name": "F#2",
            "velocity": 0.25984251968503935,
            "duration": 0.00274122916667352,
            "ticks": 37920,
            "durationTicks": 1
          },
          {
            "time": 104.078989,
            "midi": 42,
            "name": "F#2",
            "velocity": 0.6535433070866141,
            "duration": 0.002741229166659309,
            "ticks": 37968,
            "durationTicks": 1
          },
          {
            "time": 104.210568,
            "midi": 42,
            "name": "F#2",
            "velocity": 0.9133858267716536,
            "duration": 0.00274122916667352,
            "ticks": 38016,
            "durationTicks": 1
          },
          {
            "time": 104.210568,
            "midi": 36,
            "name": "C2",
            "velocity": 1,
            "duration": 0.00274122916667352,
            "ticks": 38016,
            "durationTicks": 1
          },
          {
            "time": 104.473726,
            "midi": 42,
            "name": "F#2",
            "velocity": 0.5590551181102362,
            "duration": 0.00274122916667352,
            "ticks": 38112,
            "durationTicks": 1
          },
          {
            "time": 104.605305,
            "midi": 42,
            "name": "F#2",
            "velocity": 0.6535433070866141,
            "duration": 0.00274122916667352,
            "ticks": 38160,
            "durationTicks": 1
          },
          {
            "time": 104.736884,
            "midi": 42,
            "name": "F#2",
            "velocity": 1,
            "duration": 0.00274122916667352,
            "ticks": 38208,
            "durationTicks": 1
          },
          {
            "time": 104.736884,
            "midi": 38,
            "name": "D2",
            "velocity": 0.8818897637795275,
            "duration": 0.00274122916667352,
            "ticks": 38208,
            "durationTicks": 1
          },
          {
            "time": 104.736884,
            "midi": 36,
            "name": "C2",
            "velocity": 1,
            "duration": 0.00274122916667352,
            "ticks": 38208,
            "durationTicks": 1
          },
          {
            "time": 104.736884,
            "midi": 39,
            "name": "D#2",
            "velocity": 0.9133858267716536,
            "duration": 0.00274122916667352,
            "ticks": 38208,
            "durationTicks": 1
          },
          {
            "time": 105.00004200000001,
            "midi": 42,
            "name": "F#2",
            "velocity": 0.3779527559055118,
            "duration": 0.002741229166659309,
            "ticks": 38304,
            "durationTicks": 1
          },
          {
            "time": 105.131621,
            "midi": 42,
            "name": "F#2",
            "velocity": 0.48031496062992124,
            "duration": 0.00274122916667352,
            "ticks": 38352,
            "durationTicks": 1
          },
          {
            "time": 105.2632,
            "midi": 42,
            "name": "F#2",
            "velocity": 0.9133858267716536,
            "duration": 0.00274122916667352,
            "ticks": 38400,
            "durationTicks": 1
          },
          {
            "time": 105.2632,
            "midi": 36,
            "name": "C2",
            "velocity": 1,
            "duration": 0.00274122916667352,
            "ticks": 38400,
            "durationTicks": 1
          },
          {
            "time": 105.52087554166667,
            "midi": 48,
            "name": "C3",
            "velocity": 0.5354330708661418,
            "duration": 0.002741229166659309,
            "ticks": 38494,
            "durationTicks": 1
          },
          {
            "time": 105.526358,
            "midi": 42,
            "name": "F#2",
            "velocity": 0.5590551181102362,
            "duration": 0.00274122916667352,
            "ticks": 38496,
            "durationTicks": 1
          },
          {
            "time": 105.65519577083333,
            "midi": 48,
            "name": "C3",
            "velocity": 0.7480314960629921,
            "duration": 0.00274122916667352,
            "ticks": 38543,
            "durationTicks": 1
          },
          {
            "time": 105.657937,
            "midi": 42,
            "name": "F#2",
            "velocity": 0.5590551181102362,
            "duration": 0.00274122916667352,
            "ticks": 38544,
            "durationTicks": 1
          },
          {
            "time": 105.789516,
            "midi": 42,
            "name": "F#2",
            "velocity": 0.9133858267716536,
            "duration": 0.00274122916667352,
            "ticks": 38592,
            "durationTicks": 1
          },
          {
            "time": 105.789516,
            "midi": 38,
            "name": "D2",
            "velocity": 0.9763779527559056,
            "duration": 0.00274122916667352,
            "ticks": 38592,
            "durationTicks": 1
          },
          {
            "time": 105.789516,
            "midi": 36,
            "name": "C2",
            "velocity": 1,
            "duration": 0.00274122916667352,
            "ticks": 38592,
            "durationTicks": 1
          },
          {
            "time": 105.789516,
            "midi": 39,
            "name": "D#2",
            "velocity": 0.7874015748031497,
            "duration": 0.00274122916667352,
            "ticks": 38592,
            "durationTicks": 1
          },
          {
            "time": 105.92383622916667,
            "midi": 48,
            "name": "C3",
            "velocity": 0.7480314960629921,
            "duration": 0.002741229166659309,
            "ticks": 38641,
            "durationTicks": 1
          },
          {
            "time": 106.052674,
            "midi": 46,
            "name": "A#2",
            "velocity": 0.5354330708661418,
            "duration": 0.00274122916667352,
            "ticks": 38688,
            "durationTicks": 1
          },
          {
            "time": 106.0608976875,
            "midi": 45,
            "name": "A2",
            "velocity": 0.6299212598425197,
            "duration": 0.00274122916667352,
            "ticks": 38691,
            "durationTicks": 1
          },
          {
            "time": 106.315832,
            "midi": 42,
            "name": "F#2",
            "velocity": 0.9133858267716536,
            "duration": 0.00274122916667352,
            "ticks": 38784,
            "durationTicks": 1
          },
          {
            "time": 106.315832,
            "midi": 36,
            "name": "C2",
            "velocity": 1,
            "duration": 0.00274122916667352,
            "ticks": 38784,
            "durationTicks": 1
          },
          {
            "time": 106.32131445833333,
            "midi": 45,
            "name": "A2",
            "velocity": 0.7480314960629921,
            "duration": 0.00274122916667352,
            "ticks": 38786,
            "durationTicks": 1
          },
          {
            "time": 106.45289345833334,
            "midi": 45,
            "name": "A2",
            "velocity": 0.8818897637795275,
            "duration": 0.002741229166659309,
            "ticks": 38834,
            "durationTicks": 1
          },
          {
            "time": 106.57899,
            "midi": 42,
            "name": "F#2",
            "velocity": 0.48031496062992124,
            "duration": 0.00274122916667352,
            "ticks": 38880,
            "durationTicks": 1
          },
          {
            "time": 106.58173122916668,
            "midi": 45,
            "name": "A2",
            "velocity": 0.7480314960629921,
            "duration": 0.0027412291666450983,
            "ticks": 38881,
            "durationTicks": 1
          },
          {
            "time": 106.710569,
            "midi": 42,
            "name": "F#2",
            "velocity": 0.7874015748031497,
            "duration": 0.002741229166659309,
            "ticks": 38928,
            "durationTicks": 1
          },
          {
            "time": 106.72153391666667,
            "midi": 45,
            "name": "A2",
            "velocity": 0.8818897637795275,
            "duration": 0.002741229166659309,
            "ticks": 38932,
            "durationTicks": 1
          },
          {
            "time": 106.842148,
            "midi": 42,
            "name": "F#2",
            "velocity": 0.9133858267716536,
            "duration": 0.00274122916667352,
            "ticks": 38976,
            "durationTicks": 1
          },
          {
            "time": 106.842148,
            "midi": 38,
            "name": "D2",
            "velocity": 0.984251968503937,
            "duration": 0.00274122916667352,
            "ticks": 38976,
            "durationTicks": 1
          },
          {
            "time": 106.842148,
            "midi": 36,
            "name": "C2",
            "velocity": 1,
            "duration": 0.00274122916667352,
            "ticks": 38976,
            "durationTicks": 1
          },
          {
            "time": 106.842148,
            "midi": 39,
            "name": "D#2",
            "velocity": 0.984251968503937,
            "duration": 0.00274122916667352,
            "ticks": 38976,
            "durationTicks": 1
          },
          {
            "time": 106.85311291666667,
            "midi": 41,
            "name": "F2",
            "velocity": 0.8818897637795275,
            "duration": 0.002741229166659309,
            "ticks": 38980,
            "durationTicks": 1
          },
          {
            "time": 106.973727,
            "midi": 39,
            "name": "D#2",
            "velocity": 0.8267716535433071,
            "duration": 0.00274122916667352,
            "ticks": 39024,
            "durationTicks": 1
          },
          {
            "time": 106.99291560416667,
            "midi": 41,
            "name": "F2",
            "velocity": 0.8818897637795275,
            "duration": 0.002741229166659309,
            "ticks": 39031,
            "durationTicks": 1
          },
          {
            "time": 107.0970823125,
            "midi": 41,
            "name": "F2",
            "velocity": 0.7480314960629921,
            "duration": 0.002741229166659309,
            "ticks": 39069,
            "durationTicks": 1
          },
          {
            "time": 107.105306,
            "midi": 46,
            "name": "A#2",
            "velocity": 0.7480314960629921,
            "duration": 0.00274122916667352,
            "ticks": 39072,
            "durationTicks": 1
          },
          {
            "time": 107.105306,
            "midi": 39,
            "name": "D#2",
            "velocity": 0.6692913385826772,
            "duration": 0.00274122916667352,
            "ticks": 39072,
            "durationTicks": 1
          },
          {
            "time": 107.236885,
            "midi": 39,
            "name": "D#2",
            "velocity": 0.5118110236220472,
            "duration": 0.00274122916667352,
            "ticks": 39120,
            "durationTicks": 1
          },
          {
            "time": 107.24236745833333,
            "midi": 41,
            "name": "F2",
            "velocity": 0.7480314960629921,
            "duration": 0.00274122916667352,
            "ticks": 39122,
            "durationTicks": 1
          },
          {
            "time": 107.368464,
            "midi": 42,
            "name": "F#2",
            "velocity": 0.8818897637795275,
            "duration": 0.00274122916667352,
            "ticks": 39168,
            "durationTicks": 1
          },
          {
            "time": 107.368464,
            "midi": 36,
            "name": "C2",
            "velocity": 1,
            "duration": 0.00274122916667352,
            "ticks": 39168,
            "durationTicks": 1
          },
          {
            "time": 107.63162200000001,
            "midi": 42,
            "name": "F#2",
            "velocity": 0.4251968503937008,
            "duration": 0.002741229166659309,
            "ticks": 39264,
            "durationTicks": 1
          },
          {
            "time": 107.763201,
            "midi": 42,
            "name": "F#2",
            "velocity": 0.7874015748031497,
            "duration": 0.00274122916667352,
            "ticks": 39312,
            "durationTicks": 1
          },
          {
            "time": 107.89478,
            "midi": 42,
            "name": "F#2",
            "velocity": 0.9133858267716536,
            "duration": 0.00274122916667352,
            "ticks": 39360,
            "durationTicks": 1
          },
          {
            "time": 107.89478,
            "midi": 38,
            "name": "D2",
            "velocity": 0.8818897637795275,
            "duration": 0.00274122916667352,
            "ticks": 39360,
            "durationTicks": 1
          },
          {
            "time": 107.89478,
            "midi": 36,
            "name": "C2",
            "velocity": 1,
            "duration": 0.00274122916667352,
            "ticks": 39360,
            "durationTicks": 1
          },
          {
            "time": 107.89478,
            "midi": 39,
            "name": "D#2",
            "velocity": 0.7874015748031497,
            "duration": 0.00274122916667352,
            "ticks": 39360,
            "durationTicks": 1
          },
          {
            "time": 108.157938,
            "midi": 42,
            "name": "F#2",
            "velocity": 0.31496062992125984,
            "duration": 0.00274122916667352,
            "ticks": 39456,
            "durationTicks": 1
          },
          {
            "time": 108.289517,
            "midi": 42,
            "name": "F#2",
            "velocity": 0.6535433070866141,
            "duration": 0.00274122916667352,
            "ticks": 39504,
            "durationTicks": 1
          },
          {
            "time": 108.421096,
            "midi": 42,
            "name": "F#2",
            "velocity": 0.9133858267716536,
            "duration": 0.00274122916667352,
            "ticks": 39552,
            "durationTicks": 1
          },
          {
            "time": 108.421096,
            "midi": 36,
            "name": "C2",
            "velocity": 1,
            "duration": 0.00274122916667352,
            "ticks": 39552,
            "durationTicks": 1
          },
          {
            "time": 108.684254,
            "midi": 42,
            "name": "F#2",
            "velocity": 0.3779527559055118,
            "duration": 0.00274122916667352,
            "ticks": 39648,
            "durationTicks": 1
          },
          {
            "time": 108.815833,
            "midi": 42,
            "name": "F#2",
            "velocity": 0.5590551181102362,
            "duration": 0.00274122916667352,
            "ticks": 39696,
            "durationTicks": 1
          },
          {
            "time": 108.947412,
            "midi": 42,
            "name": "F#2",
            "velocity": 0.9133858267716536,
            "duration": 0.00274122916667352,
            "ticks": 39744,
            "durationTicks": 1
          },
          {
            "time": 108.947412,
            "midi": 38,
            "name": "D2",
            "velocity": 0.9763779527559056,
            "duration": 0.00274122916667352,
            "ticks": 39744,
            "durationTicks": 1
          },
          {
            "time": 108.947412,
            "midi": 36,
            "name": "C2",
            "velocity": 1,
            "duration": 0.00274122916667352,
            "ticks": 39744,
            "durationTicks": 1
          },
          {
            "time": 108.947412,
            "midi": 39,
            "name": "D#2",
            "velocity": 0.9133858267716536,
            "duration": 0.00274122916667352,
            "ticks": 39744,
            "durationTicks": 1
          },
          {
            "time": 109.21057,
            "midi": 42,
            "name": "F#2",
            "velocity": 0.10236220472440945,
            "duration": 0.00274122916667352,
            "ticks": 39840,
            "durationTicks": 1
          },
          {
            "time": 109.342149,
            "midi": 42,
            "name": "F#2",
            "velocity": 0.5590551181102362,
            "duration": 0.00274122916667352,
            "ticks": 39888,
            "durationTicks": 1
          },
          {
            "time": 109.473728,
            "midi": 42,
            "name": "F#2",
            "velocity": 0.7874015748031497,
            "duration": 0.00274122916667352,
            "ticks": 39936,
            "durationTicks": 1
          },
          {
            "time": 109.473728,
            "midi": 36,
            "name": "C2",
            "velocity": 1,
            "duration": 0.00274122916667352,
            "ticks": 39936,
            "durationTicks": 1
          },
          {
            "time": 109.736886,
            "midi": 42,
            "name": "F#2",
            "velocity": 0.4251968503937008,
            "duration": 0.00274122916667352,
            "ticks": 40032,
            "durationTicks": 1
          },
          {
            "time": 109.868465,
            "midi": 42,
            "name": "F#2",
            "velocity": 0.6535433070866141,
            "duration": 0.00274122916667352,
            "ticks": 40080,
            "durationTicks": 1
          },
          {
            "time": 110.000044,
            "midi": 42,
            "name": "F#2",
            "velocity": 0.9133858267716536,
            "duration": 0.00274122916667352,
            "ticks": 40128,
            "durationTicks": 1
          },
          {
            "time": 110.000044,
            "midi": 38,
            "name": "D2",
            "velocity": 0.8818897637795275,
            "duration": 0.00274122916667352,
            "ticks": 40128,
            "durationTicks": 1
          },
          {
            "time": 110.000044,
            "midi": 36,
            "name": "C2",
            "velocity": 1,
            "duration": 0.00274122916667352,
            "ticks": 40128,
            "durationTicks": 1
          },
          {
            "time": 110.000044,
            "midi": 39,
            "name": "D#2",
            "velocity": 0.9133858267716536,
            "duration": 0.00274122916667352,
            "ticks": 40128,
            "durationTicks": 1
          },
          {
            "time": 110.263202,
            "midi": 42,
            "name": "F#2",
            "velocity": 0.4251968503937008,
            "duration": 0.002741229166659309,
            "ticks": 40224,
            "durationTicks": 1
          },
          {
            "time": 110.394781,
            "midi": 42,
            "name": "F#2",
            "velocity": 0.5590551181102362,
            "duration": 0.00274122916667352,
            "ticks": 40272,
            "durationTicks": 1
          },
          {
            "time": 110.52636,
            "midi": 42,
            "name": "F#2",
            "velocity": 0.7874015748031497,
            "duration": 0.00274122916667352,
            "ticks": 40320,
            "durationTicks": 1
          },
          {
            "time": 110.52636,
            "midi": 36,
            "name": "C2",
            "velocity": 1,
            "duration": 0.00274122916667352,
            "ticks": 40320,
            "durationTicks": 1
          },
          {
            "time": 110.789518,
            "midi": 42,
            "name": "F#2",
            "velocity": 0.5590551181102362,
            "duration": 0.00274122916667352,
            "ticks": 40416,
            "durationTicks": 1
          },
          {
            "time": 110.921097,
            "midi": 42,
            "name": "F#2",
            "velocity": 0.5590551181102362,
            "duration": 0.00274122916667352,
            "ticks": 40464,
            "durationTicks": 1
          },
          {
            "time": 111.052676,
            "midi": 42,
            "name": "F#2",
            "velocity": 0.9133858267716536,
            "duration": 0.00274122916667352,
            "ticks": 40512,
            "durationTicks": 1
          },
          {
            "time": 111.052676,
            "midi": 38,
            "name": "D2",
            "velocity": 0.8818897637795275,
            "duration": 0.00274122916667352,
            "ticks": 40512,
            "durationTicks": 1
          },
          {
            "time": 111.052676,
            "midi": 36,
            "name": "C2",
            "velocity": 1,
            "duration": 0.00274122916667352,
            "ticks": 40512,
            "durationTicks": 1
          },
          {
            "time": 111.052676,
            "midi": 39,
            "name": "D#2",
            "velocity": 0.7874015748031497,
            "duration": 0.00274122916667352,
            "ticks": 40512,
            "durationTicks": 1
          },
          {
            "time": 111.315834,
            "midi": 46,
            "name": "A#2",
            "velocity": 0.5354330708661418,
            "duration": 0.00274122916667352,
            "ticks": 40608,
            "durationTicks": 1
          },
          {
            "time": 111.578992,
            "midi": 42,
            "name": "F#2",
            "velocity": 0.9133858267716536,
            "duration": 0.00274122916667352,
            "ticks": 40704,
            "durationTicks": 1
          },
          {
            "time": 111.578992,
            "midi": 36,
            "name": "C2",
            "velocity": 1,
            "duration": 0.00274122916667352,
            "ticks": 40704,
            "durationTicks": 1
          },
          {
            "time": 111.84215,
            "midi": 42,
            "name": "F#2",
            "velocity": 0.3464566929133858,
            "duration": 0.00274122916667352,
            "ticks": 40800,
            "durationTicks": 1
          },
          {
            "time": 111.973729,
            "midi": 42,
            "name": "F#2",
            "velocity": 0.7874015748031497,
            "duration": 0.00274122916667352,
            "ticks": 40848,
            "durationTicks": 1
          },
          {
            "time": 112.10530800000001,
            "midi": 42,
            "name": "F#2",
            "velocity": 0.9133858267716536,
            "duration": 0.002741229166659309,
            "ticks": 40896,
            "durationTicks": 1
          },
          {
            "time": 112.10530800000001,
            "midi": 38,
            "name": "D2",
            "velocity": 0.9763779527559056,
            "duration": 0.002741229166659309,
            "ticks": 40896,
            "durationTicks": 1
          },
          {
            "time": 112.10530800000001,
            "midi": 36,
            "name": "C2",
            "velocity": 1,
            "duration": 0.002741229166659309,
            "ticks": 40896,
            "durationTicks": 1
          },
          {
            "time": 112.10530800000001,
            "midi": 39,
            "name": "D#2",
            "velocity": 0.7874015748031497,
            "duration": 0.002741229166659309,
            "ticks": 40896,
            "durationTicks": 1
          },
          {
            "time": 112.368466,
            "midi": 42,
            "name": "F#2",
            "velocity": 0.25984251968503935,
            "duration": 0.00274122916667352,
            "ticks": 40992,
            "durationTicks": 1
          },
          {
            "time": 112.500045,
            "midi": 42,
            "name": "F#2",
            "velocity": 0.6535433070866141,
            "duration": 0.00274122916667352,
            "ticks": 41040,
            "durationTicks": 1
          },
          {
            "time": 112.631624,
            "midi": 42,
            "name": "F#2",
            "velocity": 0.9133858267716536,
            "duration": 0.00274122916667352,
            "ticks": 41088,
            "durationTicks": 1
          },
          {
            "time": 112.631624,
            "midi": 36,
            "name": "C2",
            "velocity": 1,
            "duration": 0.00274122916667352,
            "ticks": 41088,
            "durationTicks": 1
          },
          {
            "time": 112.894782,
            "midi": 42,
            "name": "F#2",
            "velocity": 0.5590551181102362,
            "duration": 0.00274122916667352,
            "ticks": 41184,
            "durationTicks": 1
          },
          {
            "time": 113.026361,
            "midi": 42,
            "name": "F#2",
            "velocity": 0.6535433070866141,
            "duration": 0.00274122916667352,
            "ticks": 41232,
            "durationTicks": 1
          },
          {
            "time": 113.15794,
            "midi": 42,
            "name": "F#2",
            "velocity": 1,
            "duration": 0.00274122916667352,
            "ticks": 41280,
            "durationTicks": 1
          },
          {
            "time": 113.15794,
            "midi": 38,
            "name": "D2",
            "velocity": 0.8818897637795275,
            "duration": 0.00274122916667352,
            "ticks": 41280,
            "durationTicks": 1
          },
          {
            "time": 113.15794,
            "midi": 36,
            "name": "C2",
            "velocity": 1,
            "duration": 0.00274122916667352,
            "ticks": 41280,
            "durationTicks": 1
          },
          {
            "time": 113.15794,
            "midi": 39,
            "name": "D#2",
            "velocity": 0.9133858267716536,
            "duration": 0.00274122916667352,
            "ticks": 41280,
            "durationTicks": 1
          },
          {
            "time": 113.421098,
            "midi": 42,
            "name": "F#2",
            "velocity": 0.3779527559055118,
            "duration": 0.00274122916667352,
            "ticks": 41376,
            "durationTicks": 1
          },
          {
            "time": 113.552677,
            "midi": 42,
            "name": "F#2",
            "velocity": 0.48031496062992124,
            "duration": 0.00274122916667352,
            "ticks": 41424,
            "durationTicks": 1
          },
          {
            "time": 113.684256,
            "midi": 42,
            "name": "F#2",
            "velocity": 0.9133858267716536,
            "duration": 0.00274122916667352,
            "ticks": 41472,
            "durationTicks": 1
          },
          {
            "time": 113.684256,
            "midi": 36,
            "name": "C2",
            "velocity": 1,
            "duration": 0.00274122916667352,
            "ticks": 41472,
            "durationTicks": 1
          },
          {
            "time": 113.947414,
            "midi": 42,
            "name": "F#2",
            "velocity": 0.5590551181102362,
            "duration": 0.00274122916667352,
            "ticks": 41568,
            "durationTicks": 1
          },
          {
            "time": 114.078993,
            "midi": 42,
            "name": "F#2",
            "velocity": 0.5590551181102362,
            "duration": 0.00274122916667352,
            "ticks": 41616,
            "durationTicks": 1
          },
          {
            "time": 114.210572,
            "midi": 42,
            "name": "F#2",
            "velocity": 0.9133858267716536,
            "duration": 0.00274122916667352,
            "ticks": 41664,
            "durationTicks": 1
          },
          {
            "time": 114.210572,
            "midi": 38,
            "name": "D2",
            "velocity": 0.9763779527559056,
            "duration": 0.00274122916667352,
            "ticks": 41664,
            "durationTicks": 1
          },
          {
            "time": 114.210572,
            "midi": 36,
            "name": "C2",
            "velocity": 1,
            "duration": 0.00274122916667352,
            "ticks": 41664,
            "durationTicks": 1
          },
          {
            "time": 114.210572,
            "midi": 39,
            "name": "D#2",
            "velocity": 0.7874015748031497,
            "duration": 0.00274122916667352,
            "ticks": 41664,
            "durationTicks": 1
          },
          {
            "time": 114.47373,
            "midi": 46,
            "name": "A#2",
            "velocity": 0.5354330708661418,
            "duration": 0.00274122916667352,
            "ticks": 41760,
            "durationTicks": 1
          },
          {
            "time": 114.73688800000001,
            "midi": 42,
            "name": "F#2",
            "velocity": 0.9133858267716536,
            "duration": 0.002741229166659309,
            "ticks": 41856,
            "durationTicks": 1
          },
          {
            "time": 114.73688800000001,
            "midi": 36,
            "name": "C2",
            "velocity": 1,
            "duration": 0.002741229166659309,
            "ticks": 41856,
            "durationTicks": 1
          },
          {
            "time": 115.000046,
            "midi": 42,
            "name": "F#2",
            "velocity": 0.48031496062992124,
            "duration": 0.00274122916667352,
            "ticks": 41952,
            "durationTicks": 1
          },
          {
            "time": 115.131625,
            "midi": 42,
            "name": "F#2",
            "velocity": 0.7874015748031497,
            "duration": 0.00274122916667352,
            "ticks": 42000,
            "durationTicks": 1
          },
          {
            "time": 115.263204,
            "midi": 42,
            "name": "F#2",
            "velocity": 0.9133858267716536,
            "duration": 0.00274122916667352,
            "ticks": 42048,
            "durationTicks": 1
          },
          {
            "time": 115.263204,
            "midi": 38,
            "name": "D2",
            "velocity": 0.984251968503937,
            "duration": 0.00274122916667352,
            "ticks": 42048,
            "durationTicks": 1
          },
          {
            "time": 115.263204,
            "midi": 36,
            "name": "C2",
            "velocity": 1,
            "duration": 0.00274122916667352,
            "ticks": 42048,
            "durationTicks": 1
          },
          {
            "time": 115.263204,
            "midi": 39,
            "name": "D#2",
            "velocity": 0.984251968503937,
            "duration": 0.00274122916667352,
            "ticks": 42048,
            "durationTicks": 1
          },
          {
            "time": 115.394783,
            "midi": 39,
            "name": "D#2",
            "velocity": 0.8267716535433071,
            "duration": 0.00274122916667352,
            "ticks": 42096,
            "durationTicks": 1
          },
          {
            "time": 115.526362,
            "midi": 46,
            "name": "A#2",
            "velocity": 0.7480314960629921,
            "duration": 0.00274122916667352,
            "ticks": 42144,
            "durationTicks": 1
          },
          {
            "time": 115.526362,
            "midi": 39,
            "name": "D#2",
            "velocity": 0.6692913385826772,
            "duration": 0.00274122916667352,
            "ticks": 42144,
            "durationTicks": 1
          },
          {
            "time": 115.65794100000001,
            "midi": 39,
            "name": "D#2",
            "velocity": 0.5118110236220472,
            "duration": 0.002741229166659309,
            "ticks": 42192,
            "durationTicks": 1
          },
          {
            "time": 115.78952,
            "midi": 42,
            "name": "F#2",
            "velocity": 0.8818897637795275,
            "duration": 0.00274122916667352,
            "ticks": 42240,
            "durationTicks": 1
          },
          {
            "time": 115.78952,
            "midi": 36,
            "name": "C2",
            "velocity": 1,
            "duration": 0.00274122916667352,
            "ticks": 42240,
            "durationTicks": 1
          },
          {
            "time": 116.052678,
            "midi": 42,
            "name": "F#2",
            "velocity": 0.4251968503937008,
            "duration": 0.00274122916667352,
            "ticks": 42336,
            "durationTicks": 1
          },
          {
            "time": 116.184257,
            "midi": 42,
            "name": "F#2",
            "velocity": 0.7874015748031497,
            "duration": 0.00274122916667352,
            "ticks": 42384,
            "durationTicks": 1
          },
          {
            "time": 116.315836,
            "midi": 42,
            "name": "F#2",
            "velocity": 0.9133858267716536,
            "duration": 0.00274122916667352,
            "ticks": 42432,
            "durationTicks": 1
          },
          {
            "time": 116.315836,
            "midi": 38,
            "name": "D2",
            "velocity": 0.8818897637795275,
            "duration": 0.00274122916667352,
            "ticks": 42432,
            "durationTicks": 1
          },
          {
            "time": 116.315836,
            "midi": 36,
            "name": "C2",
            "velocity": 1,
            "duration": 0.00274122916667352,
            "ticks": 42432,
            "durationTicks": 1
          },
          {
            "time": 116.315836,
            "midi": 39,
            "name": "D#2",
            "velocity": 0.7874015748031497,
            "duration": 0.00274122916667352,
            "ticks": 42432,
            "durationTicks": 1
          },
          {
            "time": 116.578994,
            "midi": 42,
            "name": "F#2",
            "velocity": 0.31496062992125984,
            "duration": 0.00274122916667352,
            "ticks": 42528,
            "durationTicks": 1
          },
          {
            "time": 116.710573,
            "midi": 42,
            "name": "F#2",
            "velocity": 0.6535433070866141,
            "duration": 0.00274122916667352,
            "ticks": 42576,
            "durationTicks": 1
          },
          {
            "time": 116.842152,
            "midi": 42,
            "name": "F#2",
            "velocity": 0.9133858267716536,
            "duration": 0.00274122916667352,
            "ticks": 42624,
            "durationTicks": 1
          },
          {
            "time": 116.842152,
            "midi": 36,
            "name": "C2",
            "velocity": 1,
            "duration": 0.00274122916667352,
            "ticks": 42624,
            "durationTicks": 1
          },
          {
            "time": 117.10531,
            "midi": 42,
            "name": "F#2",
            "velocity": 0.3779527559055118,
            "duration": 0.00274122916667352,
            "ticks": 42720,
            "durationTicks": 1
          },
          {
            "time": 117.236889,
            "midi": 42,
            "name": "F#2",
            "velocity": 0.5590551181102362,
            "duration": 0.00274122916667352,
            "ticks": 42768,
            "durationTicks": 1
          },
          {
            "time": 117.36846800000001,
            "midi": 42,
            "name": "F#2",
            "velocity": 0.9133858267716536,
            "duration": 0.002741229166659309,
            "ticks": 42816,
            "durationTicks": 1
          },
          {
            "time": 117.36846800000001,
            "midi": 38,
            "name": "D2",
            "velocity": 0.9763779527559056,
            "duration": 0.002741229166659309,
            "ticks": 42816,
            "durationTicks": 1
          },
          {
            "time": 117.36846800000001,
            "midi": 36,
            "name": "C2",
            "velocity": 1,
            "duration": 0.002741229166659309,
            "ticks": 42816,
            "durationTicks": 1
          },
          {
            "time": 117.36846800000001,
            "midi": 39,
            "name": "D#2",
            "velocity": 0.9133858267716536,
            "duration": 0.002741229166659309,
            "ticks": 42816,
            "durationTicks": 1
          },
          {
            "time": 117.631626,
            "midi": 42,
            "name": "F#2",
            "velocity": 0.10236220472440945,
            "duration": 0.00274122916667352,
            "ticks": 42912,
            "durationTicks": 1
          },
          {
            "time": 117.763205,
            "midi": 42,
            "name": "F#2",
            "velocity": 0.5590551181102362,
            "duration": 0.00274122916667352,
            "ticks": 42960,
            "durationTicks": 1
          },
          {
            "time": 117.894784,
            "midi": 42,
            "name": "F#2",
            "velocity": 0.7874015748031497,
            "duration": 0.00274122916667352,
            "ticks": 43008,
            "durationTicks": 1
          },
          {
            "time": 117.894784,
            "midi": 36,
            "name": "C2",
            "velocity": 1,
            "duration": 0.00274122916667352,
            "ticks": 43008,
            "durationTicks": 1
          },
          {
            "time": 118.157942,
            "midi": 42,
            "name": "F#2",
            "velocity": 0.4251968503937008,
            "duration": 0.00274122916667352,
            "ticks": 43104,
            "durationTicks": 1
          },
          {
            "time": 118.28952100000001,
            "midi": 42,
            "name": "F#2",
            "velocity": 0.6535433070866141,
            "duration": 0.002741229166659309,
            "ticks": 43152,
            "durationTicks": 1
          },
          {
            "time": 118.4211,
            "midi": 42,
            "name": "F#2",
            "velocity": 0.9133858267716536,
            "duration": 0.00274122916667352,
            "ticks": 43200,
            "durationTicks": 1
          },
          {
            "time": 118.4211,
            "midi": 38,
            "name": "D2",
            "velocity": 0.8818897637795275,
            "duration": 0.00274122916667352,
            "ticks": 43200,
            "durationTicks": 1
          },
          {
            "time": 118.4211,
            "midi": 36,
            "name": "C2",
            "velocity": 1,
            "duration": 0.00274122916667352,
            "ticks": 43200,
            "durationTicks": 1
          },
          {
            "time": 118.4211,
            "midi": 39,
            "name": "D#2",
            "velocity": 0.9133858267716536,
            "duration": 0.00274122916667352,
            "ticks": 43200,
            "durationTicks": 1
          },
          {
            "time": 118.684258,
            "midi": 42,
            "name": "F#2",
            "velocity": 0.4251968503937008,
            "duration": 0.00274122916667352,
            "ticks": 43296,
            "durationTicks": 1
          },
          {
            "time": 118.815837,
            "midi": 42,
            "name": "F#2",
            "velocity": 0.5590551181102362,
            "duration": 0.00274122916667352,
            "ticks": 43344,
            "durationTicks": 1
          },
          {
            "time": 118.947416,
            "midi": 42,
            "name": "F#2",
            "velocity": 0.7874015748031497,
            "duration": 0.00274122916667352,
            "ticks": 43392,
            "durationTicks": 1
          },
          {
            "time": 118.947416,
            "midi": 36,
            "name": "C2",
            "velocity": 1,
            "duration": 0.00274122916667352,
            "ticks": 43392,
            "durationTicks": 1
          },
          {
            "time": 119.21057400000001,
            "midi": 42,
            "name": "F#2",
            "velocity": 0.5590551181102362,
            "duration": 0.002741229166659309,
            "ticks": 43488,
            "durationTicks": 1
          },
          {
            "time": 119.342153,
            "midi": 42,
            "name": "F#2",
            "velocity": 0.5590551181102362,
            "duration": 0.00274122916667352,
            "ticks": 43536,
            "durationTicks": 1
          },
          {
            "time": 119.473732,
            "midi": 42,
            "name": "F#2",
            "velocity": 0.9133858267716536,
            "duration": 0.00274122916667352,
            "ticks": 43584,
            "durationTicks": 1
          },
          {
            "time": 119.473732,
            "midi": 38,
            "name": "D2",
            "velocity": 0.8818897637795275,
            "duration": 0.00274122916667352,
            "ticks": 43584,
            "durationTicks": 1
          },
          {
            "time": 119.473732,
            "midi": 36,
            "name": "C2",
            "velocity": 1,
            "duration": 0.00274122916667352,
            "ticks": 43584,
            "durationTicks": 1
          },
          {
            "time": 119.473732,
            "midi": 39,
            "name": "D#2",
            "velocity": 0.7874015748031497,
            "duration": 0.00274122916667352,
            "ticks": 43584,
            "durationTicks": 1
          },
          {
            "time": 119.73689,
            "midi": 46,
            "name": "A#2",
            "velocity": 0.5354330708661418,
            "duration": 0.00274122916667352,
            "ticks": 43680,
            "durationTicks": 1
          },
          {
            "time": 120.000048,
            "midi": 42,
            "name": "F#2",
            "velocity": 0.9133858267716536,
            "duration": 0.002741229166659309,
            "ticks": 43776,
            "durationTicks": 1
          },
          {
            "time": 120.000048,
            "midi": 36,
            "name": "C2",
            "velocity": 1,
            "duration": 0.002741229166659309,
            "ticks": 43776,
            "durationTicks": 1
          },
          {
            "time": 120.263206,
            "midi": 42,
            "name": "F#2",
            "velocity": 0.3464566929133858,
            "duration": 0.00274122916667352,
            "ticks": 43872,
            "durationTicks": 1
          },
          {
            "time": 120.394785,
            "midi": 42,
            "name": "F#2",
            "velocity": 0.7874015748031497,
            "duration": 0.00274122916667352,
            "ticks": 43920,
            "durationTicks": 1
          },
          {
            "time": 120.526364,
            "midi": 42,
            "name": "F#2",
            "velocity": 0.9133858267716536,
            "duration": 0.00274122916667352,
            "ticks": 43968,
            "durationTicks": 1
          },
          {
            "time": 120.526364,
            "midi": 38,
            "name": "D2",
            "velocity": 0.9763779527559056,
            "duration": 0.00274122916667352,
            "ticks": 43968,
            "durationTicks": 1
          },
          {
            "time": 120.526364,
            "midi": 36,
            "name": "C2",
            "velocity": 1,
            "duration": 0.00274122916667352,
            "ticks": 43968,
            "durationTicks": 1
          },
          {
            "time": 120.526364,
            "midi": 39,
            "name": "D#2",
            "velocity": 0.7874015748031497,
            "duration": 0.00274122916667352,
            "ticks": 43968,
            "durationTicks": 1
          },
          {
            "time": 120.789522,
            "midi": 42,
            "name": "F#2",
            "velocity": 0.25984251968503935,
            "duration": 0.00274122916667352,
            "ticks": 44064,
            "durationTicks": 1
          },
          {
            "time": 120.92110100000001,
            "midi": 42,
            "name": "F#2",
            "velocity": 0.6535433070866141,
            "duration": 0.002741229166659309,
            "ticks": 44112,
            "durationTicks": 1
          },
          {
            "time": 121.05268,
            "midi": 42,
            "name": "F#2",
            "velocity": 0.9133858267716536,
            "duration": 0.00274122916667352,
            "ticks": 44160,
            "durationTicks": 1
          },
          {
            "time": 121.05268,
            "midi": 36,
            "name": "C2",
            "velocity": 1,
            "duration": 0.00274122916667352,
            "ticks": 44160,
            "durationTicks": 1
          },
          {
            "time": 121.315838,
            "midi": 42,
            "name": "F#2",
            "velocity": 0.5590551181102362,
            "duration": 0.00274122916667352,
            "ticks": 44256,
            "durationTicks": 1
          },
          {
            "time": 121.447417,
            "midi": 42,
            "name": "F#2",
            "velocity": 0.6535433070866141,
            "duration": 0.00274122916667352,
            "ticks": 44304,
            "durationTicks": 1
          },
          {
            "time": 121.578996,
            "midi": 42,
            "name": "F#2",
            "velocity": 1,
            "duration": 0.00274122916667352,
            "ticks": 44352,
            "durationTicks": 1
          },
          {
            "time": 121.578996,
            "midi": 38,
            "name": "D2",
            "velocity": 0.8818897637795275,
            "duration": 0.00274122916667352,
            "ticks": 44352,
            "durationTicks": 1
          },
          {
            "time": 121.578996,
            "midi": 36,
            "name": "C2",
            "velocity": 1,
            "duration": 0.00274122916667352,
            "ticks": 44352,
            "durationTicks": 1
          },
          {
            "time": 121.578996,
            "midi": 39,
            "name": "D#2",
            "velocity": 0.9133858267716536,
            "duration": 0.00274122916667352,
            "ticks": 44352,
            "durationTicks": 1
          },
          {
            "time": 121.84215400000001,
            "midi": 42,
            "name": "F#2",
            "velocity": 0.3779527559055118,
            "duration": 0.002741229166659309,
            "ticks": 44448,
            "durationTicks": 1
          },
          {
            "time": 121.973733,
            "midi": 42,
            "name": "F#2",
            "velocity": 0.48031496062992124,
            "duration": 0.00274122916667352,
            "ticks": 44496,
            "durationTicks": 1
          },
          {
            "time": 122.105312,
            "midi": 42,
            "name": "F#2",
            "velocity": 0.9133858267716536,
            "duration": 0.00274122916667352,
            "ticks": 44544,
            "durationTicks": 1
          },
          {
            "time": 122.105312,
            "midi": 36,
            "name": "C2",
            "velocity": 1,
            "duration": 0.00274122916667352,
            "ticks": 44544,
            "durationTicks": 1
          },
          {
            "time": 122.36847,
            "midi": 48,
            "name": "C3",
            "velocity": 0.7480314960629921,
            "duration": 0.00274122916667352,
            "ticks": 44640,
            "durationTicks": 1
          },
          {
            "time": 122.500049,
            "midi": 48,
            "name": "C3",
            "velocity": 0.4645669291338583,
            "duration": 0.00274122916667352,
            "ticks": 44688,
            "durationTicks": 1
          },
          {
            "time": 122.631628,
            "midi": 48,
            "name": "C3",
            "velocity": 0.4645669291338583,
            "duration": 0.00274122916667352,
            "ticks": 44736,
            "durationTicks": 1
          },
          {
            "time": 122.631628,
            "midi": 38,
            "name": "D2",
            "velocity": 0.9763779527559056,
            "duration": 0.00274122916667352,
            "ticks": 44736,
            "durationTicks": 1
          },
          {
            "time": 122.631628,
            "midi": 36,
            "name": "C2",
            "velocity": 1,
            "duration": 0.00274122916667352,
            "ticks": 44736,
            "durationTicks": 1
          },
          {
            "time": 122.631628,
            "midi": 39,
            "name": "D#2",
            "velocity": 0.7874015748031497,
            "duration": 0.00274122916667352,
            "ticks": 44736,
            "durationTicks": 1
          },
          {
            "time": 122.76320700000001,
            "midi": 48,
            "name": "C3",
            "velocity": 0.6299212598425197,
            "duration": 0.002741229166659309,
            "ticks": 44784,
            "durationTicks": 1
          },
          {
            "time": 122.894786,
            "midi": 45,
            "name": "A2",
            "velocity": 0.8818897637795275,
            "duration": 0.00274122916667352,
            "ticks": 44832,
            "durationTicks": 1
          },
          {
            "time": 122.894786,
            "midi": 46,
            "name": "A#2",
            "velocity": 0.5354330708661418,
            "duration": 0.00274122916667352,
            "ticks": 44832,
            "durationTicks": 1
          },
          {
            "time": 123.026365,
            "midi": 45,
            "name": "A2",
            "velocity": 0.8818897637795275,
            "duration": 0.00274122916667352,
            "ticks": 44880,
            "durationTicks": 1
          },
          {
            "time": 123.157944,
            "midi": 45,
            "name": "A2",
            "velocity": 0.8818897637795275,
            "duration": 0.00274122916667352,
            "ticks": 44928,
            "durationTicks": 1
          },
          {
            "time": 123.157944,
            "midi": 36,
            "name": "C2",
            "velocity": 1,
            "duration": 0.00274122916667352,
            "ticks": 44928,
            "durationTicks": 1
          },
          {
            "time": 123.289523,
            "midi": 45,
            "name": "A2",
            "velocity": 0.9763779527559056,
            "duration": 0.00274122916667352,
            "ticks": 44976,
            "durationTicks": 1
          },
          {
            "time": 123.421102,
            "midi": 41,
            "name": "F2",
            "velocity": 0.5354330708661418,
            "duration": 0.00274122916667352,
            "ticks": 45024,
            "durationTicks": 1
          },
          {
            "time": 123.552681,
            "midi": 41,
            "name": "F2",
            "velocity": 0.8818897637795275,
            "duration": 0.002741229166659309,
            "ticks": 45072,
            "durationTicks": 1
          },
          {
            "time": 123.68426,
            "midi": 41,
            "name": "F2",
            "velocity": 0.8818897637795275,
            "duration": 0.00274122916667352,
            "ticks": 45120,
            "durationTicks": 1
          },
          {
            "time": 123.68426,
            "midi": 38,
            "name": "D2",
            "velocity": 0.984251968503937,
            "duration": 0.00274122916667352,
            "ticks": 45120,
            "durationTicks": 1
          },
          {
            "time": 123.68426,
            "midi": 36,
            "name": "C2",
            "velocity": 1,
            "duration": 0.00274122916667352,
            "ticks": 45120,
            "durationTicks": 1
          },
          {
            "time": 123.68426,
            "midi": 39,
            "name": "D#2",
            "velocity": 0.984251968503937,
            "duration": 0.00274122916667352,
            "ticks": 45120,
            "durationTicks": 1
          },
          {
            "time": 123.815839,
            "midi": 41,
            "name": "F2",
            "velocity": 0.8818897637795275,
            "duration": 0.00274122916667352,
            "ticks": 45168,
            "durationTicks": 1
          },
          {
            "time": 123.815839,
            "midi": 39,
            "name": "D#2",
            "velocity": 0.8267716535433071,
            "duration": 0.00274122916667352,
            "ticks": 45168,
            "durationTicks": 1
          },
          {
            "time": 123.947418,
            "midi": 41,
            "name": "F2",
            "velocity": 0.8818897637795275,
            "duration": 0.00274122916667352,
            "ticks": 45216,
            "durationTicks": 1
          },
          {
            "time": 123.947418,
            "midi": 39,
            "name": "D#2",
            "velocity": 0.6692913385826772,
            "duration": 0.00274122916667352,
            "ticks": 45216,
            "durationTicks": 1
          },
          {
            "time": 124.078997,
            "midi": 41,
            "name": "F2",
            "velocity": 0.9763779527559056,
            "duration": 0.00274122916667352,
            "ticks": 45264,
            "durationTicks": 1
          },
          {
            "time": 124.078997,
            "midi": 39,
            "name": "D#2",
            "velocity": 0.5118110236220472,
            "duration": 0.00274122916667352,
            "ticks": 45264,
            "durationTicks": 1
          },
          {
            "time": 124.210576,
            "midi": 42,
            "name": "F#2",
            "velocity": 0.8818897637795275,
            "duration": 0.00274122916667352,
            "ticks": 45312,
            "durationTicks": 1
          },
          {
            "time": 124.210576,
            "midi": 36,
            "name": "C2",
            "velocity": 1,
            "duration": 0.00274122916667352,
            "ticks": 45312,
            "durationTicks": 1
          },
          {
            "time": 124.47373400000001,
            "midi": 42,
            "name": "F#2",
            "velocity": 0.4251968503937008,
            "duration": 0.002741229166659309,
            "ticks": 45408,
            "durationTicks": 1
          },
          {
            "time": 124.605313,
            "midi": 42,
            "name": "F#2",
            "velocity": 0.7874015748031497,
            "duration": 0.00274122916667352,
            "ticks": 45456,
            "durationTicks": 1
          },
          {
            "time": 124.736892,
            "midi": 42,
            "name": "F#2",
            "velocity": 0.9133858267716536,
            "duration": 0.00274122916667352,
            "ticks": 45504,
            "durationTicks": 1
          },
          {
            "time": 124.736892,
            "midi": 38,
            "name": "D2",
            "velocity": 0.8818897637795275,
            "duration": 0.00274122916667352,
            "ticks": 45504,
            "durationTicks": 1
          },
          {
            "time": 124.736892,
            "midi": 36,
            "name": "C2",
            "velocity": 1,
            "duration": 0.00274122916667352,
            "ticks": 45504,
            "durationTicks": 1
          },
          {
            "time": 124.736892,
            "midi": 39,
            "name": "D#2",
            "velocity": 0.7874015748031497,
            "duration": 0.00274122916667352,
            "ticks": 45504,
            "durationTicks": 1
          },
          {
            "time": 125.00005,
            "midi": 42,
            "name": "F#2",
            "velocity": 0.31496062992125984,
            "duration": 0.00274122916667352,
            "ticks": 45600,
            "durationTicks": 1
          },
          {
            "time": 125.131629,
            "midi": 42,
            "name": "F#2",
            "velocity": 0.6535433070866141,
            "duration": 0.00274122916667352,
            "ticks": 45648,
            "durationTicks": 1
          },
          {
            "time": 125.263208,
            "midi": 42,
            "name": "F#2",
            "velocity": 0.9133858267716536,
            "duration": 0.00274122916667352,
            "ticks": 45696,
            "durationTicks": 1
          },
          {
            "time": 125.263208,
            "midi": 36,
            "name": "C2",
            "velocity": 1,
            "duration": 0.00274122916667352,
            "ticks": 45696,
            "durationTicks": 1
          },
          {
            "time": 125.526366,
            "midi": 42,
            "name": "F#2",
            "velocity": 0.3779527559055118,
            "duration": 0.00274122916667352,
            "ticks": 45792,
            "durationTicks": 1
          },
          {
            "time": 125.657945,
            "midi": 42,
            "name": "F#2",
            "velocity": 0.5590551181102362,
            "duration": 0.00274122916667352,
            "ticks": 45840,
            "durationTicks": 1
          },
          {
            "time": 125.789524,
            "midi": 42,
            "name": "F#2",
            "velocity": 0.9133858267716536,
            "duration": 0.00274122916667352,
            "ticks": 45888,
            "durationTicks": 1
          },
          {
            "time": 125.789524,
            "midi": 38,
            "name": "D2",
            "velocity": 0.9763779527559056,
            "duration": 0.00274122916667352,
            "ticks": 45888,
            "durationTicks": 1
          },
          {
            "time": 125.789524,
            "midi": 36,
            "name": "C2",
            "velocity": 1,
            "duration": 0.00274122916667352,
            "ticks": 45888,
            "durationTicks": 1
          },
          {
            "time": 125.789524,
            "midi": 39,
            "name": "D#2",
            "velocity": 0.9133858267716536,
            "duration": 0.00274122916667352,
            "ticks": 45888,
            "durationTicks": 1
          },
          {
            "time": 126.052682,
            "midi": 42,
            "name": "F#2",
            "velocity": 0.10236220472440945,
            "duration": 0.00274122916667352,
            "ticks": 45984,
            "durationTicks": 1
          },
          {
            "time": 126.184261,
            "midi": 42,
            "name": "F#2",
            "velocity": 0.5590551181102362,
            "duration": 0.00274122916667352,
            "ticks": 46032,
            "durationTicks": 1
          },
          {
            "time": 126.31584000000001,
            "midi": 42,
            "name": "F#2",
            "velocity": 0.7874015748031497,
            "duration": 0.002741229166659309,
            "ticks": 46080,
            "durationTicks": 1
          },
          {
            "time": 126.31584000000001,
            "midi": 36,
            "name": "C2",
            "velocity": 1,
            "duration": 0.002741229166659309,
            "ticks": 46080,
            "durationTicks": 1
          },
          {
            "time": 126.578998,
            "midi": 42,
            "name": "F#2",
            "velocity": 0.4251968503937008,
            "duration": 0.00274122916667352,
            "ticks": 46176,
            "durationTicks": 1
          },
          {
            "time": 126.710577,
            "midi": 42,
            "name": "F#2",
            "velocity": 0.6535433070866141,
            "duration": 0.00274122916667352,
            "ticks": 46224,
            "durationTicks": 1
          },
          {
            "time": 126.842156,
            "midi": 42,
            "name": "F#2",
            "velocity": 0.9133858267716536,
            "duration": 0.00274122916667352,
            "ticks": 46272,
            "durationTicks": 1
          },
          {
            "time": 126.842156,
            "midi": 38,
            "name": "D2",
            "velocity": 0.8818897637795275,
            "duration": 0.00274122916667352,
            "ticks": 46272,
            "durationTicks": 1
          },
          {
            "time": 126.842156,
            "midi": 36,
            "name": "C2",
            "velocity": 1,
            "duration": 0.00274122916667352,
            "ticks": 46272,
            "durationTicks": 1
          },
          {
            "time": 126.842156,
            "midi": 39,
            "name": "D#2",
            "velocity": 0.9133858267716536,
            "duration": 0.00274122916667352,
            "ticks": 46272,
            "durationTicks": 1
          },
          {
            "time": 127.105314,
            "midi": 42,
            "name": "F#2",
            "velocity": 0.4251968503937008,
            "duration": 0.002741229166659309,
            "ticks": 46368,
            "durationTicks": 1
          },
          {
            "time": 127.236893,
            "midi": 42,
            "name": "F#2",
            "velocity": 0.5590551181102362,
            "duration": 0.00274122916667352,
            "ticks": 46416,
            "durationTicks": 1
          },
          {
            "time": 127.368472,
            "midi": 42,
            "name": "F#2",
            "velocity": 0.7874015748031497,
            "duration": 0.00274122916667352,
            "ticks": 46464,
            "durationTicks": 1
          },
          {
            "time": 127.368472,
            "midi": 36,
            "name": "C2",
            "velocity": 1,
            "duration": 0.00274122916667352,
            "ticks": 46464,
            "durationTicks": 1
          },
          {
            "time": 127.63163,
            "midi": 42,
            "name": "F#2",
            "velocity": 0.5590551181102362,
            "duration": 0.00274122916667352,
            "ticks": 46560,
            "durationTicks": 1
          },
          {
            "time": 127.763209,
            "midi": 42,
            "name": "F#2",
            "velocity": 0.5590551181102362,
            "duration": 0.00274122916667352,
            "ticks": 46608,
            "durationTicks": 1
          },
          {
            "time": 127.894788,
            "midi": 42,
            "name": "F#2",
            "velocity": 0.9133858267716536,
            "duration": 0.00274122916667352,
            "ticks": 46656,
            "durationTicks": 1
          },
          {
            "time": 127.894788,
            "midi": 38,
            "name": "D2",
            "velocity": 0.8818897637795275,
            "duration": 0.00274122916667352,
            "ticks": 46656,
            "durationTicks": 1
          },
          {
            "time": 127.894788,
            "midi": 36,
            "name": "C2",
            "velocity": 1,
            "duration": 0.00274122916667352,
            "ticks": 46656,
            "durationTicks": 1
          },
          {
            "time": 127.894788,
            "midi": 39,
            "name": "D#2",
            "velocity": 0.7874015748031497,
            "duration": 0.00274122916667352,
            "ticks": 46656,
            "durationTicks": 1
          },
          {
            "time": 128.157946,
            "midi": 46,
            "name": "A#2",
            "velocity": 0.5354330708661418,
            "duration": 0.00274122916667352,
            "ticks": 46752,
            "durationTicks": 1
          },
          {
            "time": 128.421104,
            "midi": 42,
            "name": "F#2",
            "velocity": 0.9133858267716536,
            "duration": 0.0027412291666450983,
            "ticks": 46848,
            "durationTicks": 1
          },
          {
            "time": 128.421104,
            "midi": 36,
            "name": "C2",
            "velocity": 1,
            "duration": 0.0027412291666450983,
            "ticks": 46848,
            "durationTicks": 1
          },
          {
            "time": 128.684262,
            "midi": 42,
            "name": "F#2",
            "velocity": 0.3464566929133858,
            "duration": 0.00274122916667352,
            "ticks": 46944,
            "durationTicks": 1
          },
          {
            "time": 128.815841,
            "midi": 42,
            "name": "F#2",
            "velocity": 0.7874015748031497,
            "duration": 0.00274122916667352,
            "ticks": 46992,
            "durationTicks": 1
          },
          {
            "time": 128.94742,
            "midi": 42,
            "name": "F#2",
            "velocity": 0.9133858267716536,
            "duration": 0.00274122916667352,
            "ticks": 47040,
            "durationTicks": 1
          },
          {
            "time": 128.94742,
            "midi": 38,
            "name": "D2",
            "velocity": 0.9763779527559056,
            "duration": 0.00274122916667352,
            "ticks": 47040,
            "durationTicks": 1
          },
          {
            "time": 128.94742,
            "midi": 36,
            "name": "C2",
            "velocity": 1,
            "duration": 0.00274122916667352,
            "ticks": 47040,
            "durationTicks": 1
          },
          {
            "time": 128.94742,
            "midi": 39,
            "name": "D#2",
            "velocity": 0.7874015748031497,
            "duration": 0.00274122916667352,
            "ticks": 47040,
            "durationTicks": 1
          },
          {
            "time": 129.210578,
            "midi": 42,
            "name": "F#2",
            "velocity": 0.25984251968503935,
            "duration": 0.00274122916667352,
            "ticks": 47136,
            "durationTicks": 1
          },
          {
            "time": 129.34215700000001,
            "midi": 42,
            "name": "F#2",
            "velocity": 0.6535433070866141,
            "duration": 0.0027412291666450983,
            "ticks": 47184,
            "durationTicks": 1
          },
          {
            "time": 129.473736,
            "midi": 42,
            "name": "F#2",
            "velocity": 0.9133858267716536,
            "duration": 0.00274122916667352,
            "ticks": 47232,
            "durationTicks": 1
          },
          {
            "time": 129.473736,
            "midi": 36,
            "name": "C2",
            "velocity": 1,
            "duration": 0.00274122916667352,
            "ticks": 47232,
            "durationTicks": 1
          },
          {
            "time": 129.736894,
            "midi": 42,
            "name": "F#2",
            "velocity": 0.5590551181102362,
            "duration": 0.00274122916667352,
            "ticks": 47328,
            "durationTicks": 1
          },
          {
            "time": 129.868473,
            "midi": 42,
            "name": "F#2",
            "velocity": 0.6535433070866141,
            "duration": 0.00274122916667352,
            "ticks": 47376,
            "durationTicks": 1
          },
          {
            "time": 130.000052,
            "midi": 42,
            "name": "F#2",
            "velocity": 1,
            "duration": 0.00274122916667352,
            "ticks": 47424,
            "durationTicks": 1
          },
          {
            "time": 130.000052,
            "midi": 38,
            "name": "D2",
            "velocity": 0.8818897637795275,
            "duration": 0.00274122916667352,
            "ticks": 47424,
            "durationTicks": 1
          },
          {
            "time": 130.000052,
            "midi": 36,
            "name": "C2",
            "velocity": 1,
            "duration": 0.00274122916667352,
            "ticks": 47424,
            "durationTicks": 1
          },
          {
            "time": 130.000052,
            "midi": 39,
            "name": "D#2",
            "velocity": 0.9133858267716536,
            "duration": 0.00274122916667352,
            "ticks": 47424,
            "durationTicks": 1
          },
          {
            "time": 130.26321000000002,
            "midi": 42,
            "name": "F#2",
            "velocity": 0.3779527559055118,
            "duration": 0.0027412291666450983,
            "ticks": 47520,
            "durationTicks": 1
          },
          {
            "time": 130.394789,
            "midi": 42,
            "name": "F#2",
            "velocity": 0.48031496062992124,
            "duration": 0.00274122916667352,
            "ticks": 47568,
            "durationTicks": 1
          },
          {
            "time": 130.526368,
            "midi": 42,
            "name": "F#2",
            "velocity": 0.9133858267716536,
            "duration": 0.00274122916667352,
            "ticks": 47616,
            "durationTicks": 1
          },
          {
            "time": 130.526368,
            "midi": 36,
            "name": "C2",
            "velocity": 1,
            "duration": 0.00274122916667352,
            "ticks": 47616,
            "durationTicks": 1
          },
          {
            "time": 130.789526,
            "midi": 42,
            "name": "F#2",
            "velocity": 0.5590551181102362,
            "duration": 0.00274122916667352,
            "ticks": 47712,
            "durationTicks": 1
          },
          {
            "time": 130.921105,
            "midi": 42,
            "name": "F#2",
            "velocity": 0.5590551181102362,
            "duration": 0.00274122916667352,
            "ticks": 47760,
            "durationTicks": 1
          },
          {
            "time": 131.052684,
            "midi": 42,
            "name": "F#2",
            "velocity": 0.9133858267716536,
            "duration": 0.00274122916667352,
            "ticks": 47808,
            "durationTicks": 1
          },
          {
            "time": 131.052684,
            "midi": 38,
            "name": "D2",
            "velocity": 0.9763779527559056,
            "duration": 0.00274122916667352,
            "ticks": 47808,
            "durationTicks": 1
          },
          {
            "time": 131.052684,
            "midi": 36,
            "name": "C2",
            "velocity": 1,
            "duration": 0.00274122916667352,
            "ticks": 47808,
            "durationTicks": 1
          },
          {
            "time": 131.052684,
            "midi": 39,
            "name": "D#2",
            "velocity": 0.7874015748031497,
            "duration": 0.00274122916667352,
            "ticks": 47808,
            "durationTicks": 1
          },
          {
            "time": 131.315842,
            "midi": 46,
            "name": "A#2",
            "velocity": 0.5354330708661418,
            "duration": 0.00274122916667352,
            "ticks": 47904,
            "durationTicks": 1
          },
          {
            "time": 131.579,
            "midi": 42,
            "name": "F#2",
            "velocity": 0.9133858267716536,
            "duration": 0.00274122916667352,
            "ticks": 48000,
            "durationTicks": 1
          },
          {
            "time": 131.579,
            "midi": 36,
            "name": "C2",
            "velocity": 1,
            "duration": 0.00274122916667352,
            "ticks": 48000,
            "durationTicks": 1
          },
          {
            "time": 131.842158,
            "midi": 42,
            "name": "F#2",
            "velocity": 0.48031496062992124,
            "duration": 0.00274122916667352,
            "ticks": 48096,
            "durationTicks": 1
          },
          {
            "time": 131.973737,
            "midi": 42,
            "name": "F#2",
            "velocity": 0.7874015748031497,
            "duration": 0.00274122916667352,
            "ticks": 48144,
            "durationTicks": 1
          },
          {
            "time": 132.105316,
            "midi": 42,
            "name": "F#2",
            "velocity": 0.9133858267716536,
            "duration": 0.00274122916667352,
            "ticks": 48192,
            "durationTicks": 1
          },
          {
            "time": 132.105316,
            "midi": 38,
            "name": "D2",
            "velocity": 0.984251968503937,
            "duration": 0.00274122916667352,
            "ticks": 48192,
            "durationTicks": 1
          },
          {
            "time": 132.105316,
            "midi": 36,
            "name": "C2",
            "velocity": 1,
            "duration": 0.00274122916667352,
            "ticks": 48192,
            "durationTicks": 1
          },
          {
            "time": 132.105316,
            "midi": 39,
            "name": "D#2",
            "velocity": 0.984251968503937,
            "duration": 0.00274122916667352,
            "ticks": 48192,
            "durationTicks": 1
          },
          {
            "time": 132.236895,
            "midi": 39,
            "name": "D#2",
            "velocity": 0.8267716535433071,
            "duration": 0.00274122916667352,
            "ticks": 48240,
            "durationTicks": 1
          },
          {
            "time": 132.368474,
            "midi": 46,
            "name": "A#2",
            "velocity": 0.7480314960629921,
            "duration": 0.00274122916667352,
            "ticks": 48288,
            "durationTicks": 1
          },
          {
            "time": 132.368474,
            "midi": 39,
            "name": "D#2",
            "velocity": 0.6692913385826772,
            "duration": 0.00274122916667352,
            "ticks": 48288,
            "durationTicks": 1
          },
          {
            "time": 132.500053,
            "midi": 39,
            "name": "D#2",
            "velocity": 0.5118110236220472,
            "duration": 0.00274122916667352,
            "ticks": 48336,
            "durationTicks": 1
          },
          {
            "time": 132.631632,
            "midi": 42,
            "name": "F#2",
            "velocity": 0.8818897637795275,
            "duration": 0.00274122916667352,
            "ticks": 48384,
            "durationTicks": 1
          },
          {
            "time": 132.631632,
            "midi": 36,
            "name": "C2",
            "velocity": 1,
            "duration": 0.00274122916667352,
            "ticks": 48384,
            "durationTicks": 1
          },
          {
            "time": 132.89479,
            "midi": 42,
            "name": "F#2",
            "velocity": 0.4251968503937008,
            "duration": 0.00274122916667352,
            "ticks": 48480,
            "durationTicks": 1
          },
          {
            "time": 133.026369,
            "midi": 42,
            "name": "F#2",
            "velocity": 0.7874015748031497,
            "duration": 0.00274122916667352,
            "ticks": 48528,
            "durationTicks": 1
          },
          {
            "time": 133.157948,
            "midi": 42,
            "name": "F#2",
            "velocity": 0.9133858267716536,
            "duration": 0.00274122916667352,
            "ticks": 48576,
            "durationTicks": 1
          },
          {
            "time": 133.157948,
            "midi": 38,
            "name": "D2",
            "velocity": 0.8818897637795275,
            "duration": 0.00274122916667352,
            "ticks": 48576,
            "durationTicks": 1
          },
          {
            "time": 133.157948,
            "midi": 36,
            "name": "C2",
            "velocity": 1,
            "duration": 0.00274122916667352,
            "ticks": 48576,
            "durationTicks": 1
          },
          {
            "time": 133.157948,
            "midi": 39,
            "name": "D#2",
            "velocity": 0.7874015748031497,
            "duration": 0.00274122916667352,
            "ticks": 48576,
            "durationTicks": 1
          },
          {
            "time": 133.421106,
            "midi": 42,
            "name": "F#2",
            "velocity": 0.31496062992125984,
            "duration": 0.00274122916667352,
            "ticks": 48672,
            "durationTicks": 1
          },
          {
            "time": 133.552685,
            "midi": 42,
            "name": "F#2",
            "velocity": 0.6535433070866141,
            "duration": 0.00274122916667352,
            "ticks": 48720,
            "durationTicks": 1
          },
          {
            "time": 133.684264,
            "midi": 42,
            "name": "F#2",
            "velocity": 0.9133858267716536,
            "duration": 0.00274122916667352,
            "ticks": 48768,
            "durationTicks": 1
          },
          {
            "time": 133.684264,
            "midi": 36,
            "name": "C2",
            "velocity": 1,
            "duration": 0.00274122916667352,
            "ticks": 48768,
            "durationTicks": 1
          },
          {
            "time": 133.947422,
            "midi": 42,
            "name": "F#2",
            "velocity": 0.3779527559055118,
            "duration": 0.00274122916667352,
            "ticks": 48864,
            "durationTicks": 1
          },
          {
            "time": 134.079001,
            "midi": 42,
            "name": "F#2",
            "velocity": 0.5590551181102362,
            "duration": 0.00274122916667352,
            "ticks": 48912,
            "durationTicks": 1
          },
          {
            "time": 134.21058,
            "midi": 42,
            "name": "F#2",
            "velocity": 0.9133858267716536,
            "duration": 0.00274122916667352,
            "ticks": 48960,
            "durationTicks": 1
          },
          {
            "time": 134.21058,
            "midi": 38,
            "name": "D2",
            "velocity": 0.9763779527559056,
            "duration": 0.00274122916667352,
            "ticks": 48960,
            "durationTicks": 1
          },
          {
            "time": 134.21058,
            "midi": 36,
            "name": "C2",
            "velocity": 1,
            "duration": 0.00274122916667352,
            "ticks": 48960,
            "durationTicks": 1
          },
          {
            "time": 134.21058,
            "midi": 39,
            "name": "D#2",
            "velocity": 0.9133858267716536,
            "duration": 0.00274122916667352,
            "ticks": 48960,
            "durationTicks": 1
          },
          {
            "time": 134.473738,
            "midi": 42,
            "name": "F#2",
            "velocity": 0.10236220472440945,
            "duration": 0.00274122916667352,
            "ticks": 49056,
            "durationTicks": 1
          },
          {
            "time": 134.605317,
            "midi": 42,
            "name": "F#2",
            "velocity": 0.5590551181102362,
            "duration": 0.00274122916667352,
            "ticks": 49104,
            "durationTicks": 1
          },
          {
            "time": 134.736896,
            "midi": 42,
            "name": "F#2",
            "velocity": 0.7874015748031497,
            "duration": 0.0027412291666450983,
            "ticks": 49152,
            "durationTicks": 1
          },
          {
            "time": 134.736896,
            "midi": 36,
            "name": "C2",
            "velocity": 1,
            "duration": 0.0027412291666450983,
            "ticks": 49152,
            "durationTicks": 1
          },
          {
            "time": 135.000054,
            "midi": 42,
            "name": "F#2",
            "velocity": 0.4251968503937008,
            "duration": 0.0027412291666450983,
            "ticks": 49248,
            "durationTicks": 1
          },
          {
            "time": 135.131633,
            "midi": 42,
            "name": "F#2",
            "velocity": 0.6535433070866141,
            "duration": 0.00274122916667352,
            "ticks": 49296,
            "durationTicks": 1
          },
          {
            "time": 135.263212,
            "midi": 42,
            "name": "F#2",
            "velocity": 0.9133858267716536,
            "duration": 0.0027412291666450983,
            "ticks": 49344,
            "durationTicks": 1
          },
          {
            "time": 135.263212,
            "midi": 38,
            "name": "D2",
            "velocity": 0.8818897637795275,
            "duration": 0.0027412291666450983,
            "ticks": 49344,
            "durationTicks": 1
          },
          {
            "time": 135.263212,
            "midi": 36,
            "name": "C2",
            "velocity": 1,
            "duration": 0.0027412291666450983,
            "ticks": 49344,
            "durationTicks": 1
          },
          {
            "time": 135.263212,
            "midi": 39,
            "name": "D#2",
            "velocity": 0.9133858267716536,
            "duration": 0.0027412291666450983,
            "ticks": 49344,
            "durationTicks": 1
          },
          {
            "time": 135.52637000000001,
            "midi": 42,
            "name": "F#2",
            "velocity": 0.4251968503937008,
            "duration": 0.0027412291666450983,
            "ticks": 49440,
            "durationTicks": 1
          },
          {
            "time": 135.657949,
            "midi": 42,
            "name": "F#2",
            "velocity": 0.5590551181102362,
            "duration": 0.0027412291666450983,
            "ticks": 49488,
            "durationTicks": 1
          },
          {
            "time": 135.789528,
            "midi": 42,
            "name": "F#2",
            "velocity": 0.7874015748031497,
            "duration": 0.00274122916667352,
            "ticks": 49536,
            "durationTicks": 1
          },
          {
            "time": 135.789528,
            "midi": 36,
            "name": "C2",
            "velocity": 1,
            "duration": 0.00274122916667352,
            "ticks": 49536,
            "durationTicks": 1
          },
          {
            "time": 136.052686,
            "midi": 42,
            "name": "F#2",
            "velocity": 0.5590551181102362,
            "duration": 0.00274122916667352,
            "ticks": 49632,
            "durationTicks": 1
          },
          {
            "time": 136.184265,
            "midi": 42,
            "name": "F#2",
            "velocity": 0.5590551181102362,
            "duration": 0.0027412291666450983,
            "ticks": 49680,
            "durationTicks": 1
          },
          {
            "time": 136.315844,
            "midi": 42,
            "name": "F#2",
            "velocity": 0.9133858267716536,
            "duration": 0.00274122916667352,
            "ticks": 49728,
            "durationTicks": 1
          },
          {
            "time": 136.315844,
            "midi": 38,
            "name": "D2",
            "velocity": 0.8818897637795275,
            "duration": 0.00274122916667352,
            "ticks": 49728,
            "durationTicks": 1
          },
          {
            "time": 136.315844,
            "midi": 36,
            "name": "C2",
            "velocity": 1,
            "duration": 0.00274122916667352,
            "ticks": 49728,
            "durationTicks": 1
          },
          {
            "time": 136.315844,
            "midi": 39,
            "name": "D#2",
            "velocity": 0.7874015748031497,
            "duration": 0.00274122916667352,
            "ticks": 49728,
            "durationTicks": 1
          },
          {
            "time": 136.579002,
            "midi": 46,
            "name": "A#2",
            "velocity": 0.5354330708661418,
            "duration": 0.0027412291666450983,
            "ticks": 49824,
            "durationTicks": 1
          },
          {
            "time": 136.84216,
            "midi": 42,
            "name": "F#2",
            "velocity": 0.9133858267716536,
            "duration": 0.0027412291666450983,
            "ticks": 49920,
            "durationTicks": 1
          },
          {
            "time": 136.84216,
            "midi": 36,
            "name": "C2",
            "velocity": 1,
            "duration": 0.0027412291666450983,
            "ticks": 49920,
            "durationTicks": 1
          },
          {
            "time": 137.105318,
            "midi": 42,
            "name": "F#2",
            "velocity": 0.3464566929133858,
            "duration": 0.0027412291666450983,
            "ticks": 50016,
            "durationTicks": 1
          },
          {
            "time": 137.236897,
            "midi": 42,
            "name": "F#2",
            "velocity": 0.7874015748031497,
            "duration": 0.0027412291666450983,
            "ticks": 50064,
            "durationTicks": 1
          },
          {
            "time": 137.36847600000002,
            "midi": 42,
            "name": "F#2",
            "velocity": 0.9133858267716536,
            "duration": 0.0027412291666450983,
            "ticks": 50112,
            "durationTicks": 1
          },
          {
            "time": 137.36847600000002,
            "midi": 38,
            "name": "D2",
            "velocity": 0.9763779527559056,
            "duration": 0.0027412291666450983,
            "ticks": 50112,
            "durationTicks": 1
          },
          {
            "time": 137.36847600000002,
            "midi": 36,
            "name": "C2",
            "velocity": 1,
            "duration": 0.0027412291666450983,
            "ticks": 50112,
            "durationTicks": 1
          },
          {
            "time": 137.36847600000002,
            "midi": 39,
            "name": "D#2",
            "velocity": 0.7874015748031497,
            "duration": 0.0027412291666450983,
            "ticks": 50112,
            "durationTicks": 1
          },
          {
            "time": 137.631634,
            "midi": 42,
            "name": "F#2",
            "velocity": 0.25984251968503935,
            "duration": 0.00274122916667352,
            "ticks": 50208,
            "durationTicks": 1
          },
          {
            "time": 137.763213,
            "midi": 42,
            "name": "F#2",
            "velocity": 0.6535433070866141,
            "duration": 0.0027412291666450983,
            "ticks": 50256,
            "durationTicks": 1
          },
          {
            "time": 137.894792,
            "midi": 42,
            "name": "F#2",
            "velocity": 0.9133858267716536,
            "duration": 0.00274122916667352,
            "ticks": 50304,
            "durationTicks": 1
          },
          {
            "time": 137.894792,
            "midi": 36,
            "name": "C2",
            "velocity": 1,
            "duration": 0.00274122916667352,
            "ticks": 50304,
            "durationTicks": 1
          },
          {
            "time": 138.15795,
            "midi": 42,
            "name": "F#2",
            "velocity": 0.5590551181102362,
            "duration": 0.0027412291666450983,
            "ticks": 50400,
            "durationTicks": 1
          },
          {
            "time": 138.289529,
            "midi": 42,
            "name": "F#2",
            "velocity": 0.6535433070866141,
            "duration": 0.00274122916667352,
            "ticks": 50448,
            "durationTicks": 1
          },
          {
            "time": 138.421108,
            "midi": 42,
            "name": "F#2",
            "velocity": 1,
            "duration": 0.0027412291666450983,
            "ticks": 50496,
            "durationTicks": 1
          },
          {
            "time": 138.421108,
            "midi": 38,
            "name": "D2",
            "velocity": 0.8818897637795275,
            "duration": 0.0027412291666450983,
            "ticks": 50496,
            "durationTicks": 1
          },
          {
            "time": 138.421108,
            "midi": 36,
            "name": "C2",
            "velocity": 1,
            "duration": 0.0027412291666450983,
            "ticks": 50496,
            "durationTicks": 1
          },
          {
            "time": 138.421108,
            "midi": 39,
            "name": "D#2",
            "velocity": 0.9133858267716536,
            "duration": 0.0027412291666450983,
            "ticks": 50496,
            "durationTicks": 1
          },
          {
            "time": 138.684266,
            "midi": 42,
            "name": "F#2",
            "velocity": 0.3779527559055118,
            "duration": 0.0027412291666450983,
            "ticks": 50592,
            "durationTicks": 1
          },
          {
            "time": 138.815845,
            "midi": 42,
            "name": "F#2",
            "velocity": 0.48031496062992124,
            "duration": 0.00274122916667352,
            "ticks": 50640,
            "durationTicks": 1
          },
          {
            "time": 138.947424,
            "midi": 42,
            "name": "F#2",
            "velocity": 0.9133858267716536,
            "duration": 0.0027412291666450983,
            "ticks": 50688,
            "durationTicks": 1
          },
          {
            "time": 138.947424,
            "midi": 36,
            "name": "C2",
            "velocity": 1,
            "duration": 0.0027412291666450983,
            "ticks": 50688,
            "durationTicks": 1
          },
          {
            "time": 139.210582,
            "midi": 42,
            "name": "F#2",
            "velocity": 0.5590551181102362,
            "duration": 0.00274122916667352,
            "ticks": 50784,
            "durationTicks": 1
          },
          {
            "time": 139.342161,
            "midi": 42,
            "name": "F#2",
            "velocity": 0.5590551181102362,
            "duration": 0.0027412291666450983,
            "ticks": 50832,
            "durationTicks": 1
          },
          {
            "time": 139.47374,
            "midi": 42,
            "name": "F#2",
            "velocity": 0.9133858267716536,
            "duration": 0.00274122916667352,
            "ticks": 50880,
            "durationTicks": 1
          },
          {
            "time": 139.47374,
            "midi": 38,
            "name": "D2",
            "velocity": 0.9763779527559056,
            "duration": 0.00274122916667352,
            "ticks": 50880,
            "durationTicks": 1
          },
          {
            "time": 139.47374,
            "midi": 36,
            "name": "C2",
            "velocity": 1,
            "duration": 0.00274122916667352,
            "ticks": 50880,
            "durationTicks": 1
          },
          {
            "time": 139.47374,
            "midi": 39,
            "name": "D#2",
            "velocity": 0.7874015748031497,
            "duration": 0.00274122916667352,
            "ticks": 50880,
            "durationTicks": 1
          },
          {
            "time": 139.736898,
            "midi": 46,
            "name": "A#2",
            "velocity": 0.5354330708661418,
            "duration": 0.00274122916667352,
            "ticks": 50976,
            "durationTicks": 1
          },
          {
            "time": 140.000056,
            "midi": 42,
            "name": "F#2",
            "velocity": 0.9133858267716536,
            "duration": 0.0027412291666450983,
            "ticks": 51072,
            "durationTicks": 1
          },
          {
            "time": 140.000056,
            "midi": 36,
            "name": "C2",
            "velocity": 1,
            "duration": 0.0027412291666450983,
            "ticks": 51072,
            "durationTicks": 1
          },
          {
            "time": 140.263214,
            "midi": 42,
            "name": "F#2",
            "velocity": 0.48031496062992124,
            "duration": 0.0027412291666450983,
            "ticks": 51168,
            "durationTicks": 1
          },
          {
            "time": 140.394793,
            "midi": 42,
            "name": "F#2",
            "velocity": 0.7874015748031497,
            "duration": 0.00274122916667352,
            "ticks": 51216,
            "durationTicks": 1
          },
          {
            "time": 140.526372,
            "midi": 42,
            "name": "F#2",
            "velocity": 0.9133858267716536,
            "duration": 0.0027412291666450983,
            "ticks": 51264,
            "durationTicks": 1
          },
          {
            "time": 140.526372,
            "midi": 38,
            "name": "D2",
            "velocity": 0.984251968503937,
            "duration": 0.0027412291666450983,
            "ticks": 51264,
            "durationTicks": 1
          },
          {
            "time": 140.526372,
            "midi": 36,
            "name": "C2",
            "velocity": 1,
            "duration": 0.0027412291666450983,
            "ticks": 51264,
            "durationTicks": 1
          },
          {
            "time": 140.526372,
            "midi": 39,
            "name": "D#2",
            "velocity": 0.984251968503937,
            "duration": 0.0027412291666450983,
            "ticks": 51264,
            "durationTicks": 1
          },
          {
            "time": 140.657951,
            "midi": 39,
            "name": "D#2",
            "velocity": 0.8267716535433071,
            "duration": 0.00274122916667352,
            "ticks": 51312,
            "durationTicks": 1
          },
          {
            "time": 140.78953,
            "midi": 46,
            "name": "A#2",
            "velocity": 0.7480314960629921,
            "duration": 0.0027412291666450983,
            "ticks": 51360,
            "durationTicks": 1
          },
          {
            "time": 140.78953,
            "midi": 39,
            "name": "D#2",
            "velocity": 0.6692913385826772,
            "duration": 0.0027412291666450983,
            "ticks": 51360,
            "durationTicks": 1
          },
          {
            "time": 140.921109,
            "midi": 39,
            "name": "D#2",
            "velocity": 0.5118110236220472,
            "duration": 0.0027412291666450983,
            "ticks": 51408,
            "durationTicks": 1
          },
          {
            "time": 141.052688,
            "midi": 42,
            "name": "F#2",
            "velocity": 0.8818897637795275,
            "duration": 0.00274122916667352,
            "ticks": 51456,
            "durationTicks": 1
          },
          {
            "time": 141.052688,
            "midi": 36,
            "name": "C2",
            "velocity": 1,
            "duration": 0.00274122916667352,
            "ticks": 51456,
            "durationTicks": 1
          },
          {
            "time": 141.315846,
            "midi": 42,
            "name": "F#2",
            "velocity": 0.4251968503937008,
            "duration": 0.00274122916667352,
            "ticks": 51552,
            "durationTicks": 1
          },
          {
            "time": 141.447425,
            "midi": 42,
            "name": "F#2",
            "velocity": 0.7874015748031497,
            "duration": 0.0027412291666450983,
            "ticks": 51600,
            "durationTicks": 1
          },
          {
            "time": 141.579004,
            "midi": 42,
            "name": "F#2",
            "velocity": 0.9133858267716536,
            "duration": 0.00274122916667352,
            "ticks": 51648,
            "durationTicks": 1
          },
          {
            "time": 141.579004,
            "midi": 38,
            "name": "D2",
            "velocity": 0.8818897637795275,
            "duration": 0.00274122916667352,
            "ticks": 51648,
            "durationTicks": 1
          },
          {
            "time": 141.579004,
            "midi": 36,
            "name": "C2",
            "velocity": 1,
            "duration": 0.00274122916667352,
            "ticks": 51648,
            "durationTicks": 1
          },
          {
            "time": 141.579004,
            "midi": 39,
            "name": "D#2",
            "velocity": 0.7874015748031497,
            "duration": 0.00274122916667352,
            "ticks": 51648,
            "durationTicks": 1
          },
          {
            "time": 141.842162,
            "midi": 42,
            "name": "F#2",
            "velocity": 0.31496062992125984,
            "duration": 0.0027412291666450983,
            "ticks": 51744,
            "durationTicks": 1
          },
          {
            "time": 141.973741,
            "midi": 42,
            "name": "F#2",
            "velocity": 0.6535433070866141,
            "duration": 0.00274122916667352,
            "ticks": 51792,
            "durationTicks": 1
          },
          {
            "time": 142.10532,
            "midi": 42,
            "name": "F#2",
            "velocity": 0.9133858267716536,
            "duration": 0.0027412291666450983,
            "ticks": 51840,
            "durationTicks": 1
          },
          {
            "time": 142.10532,
            "midi": 36,
            "name": "C2",
            "velocity": 1,
            "duration": 0.0027412291666450983,
            "ticks": 51840,
            "durationTicks": 1
          },
          {
            "time": 142.368478,
            "midi": 42,
            "name": "F#2",
            "velocity": 0.3779527559055118,
            "duration": 0.0027412291666450983,
            "ticks": 51936,
            "durationTicks": 1
          },
          {
            "time": 142.500057,
            "midi": 42,
            "name": "F#2",
            "velocity": 0.5590551181102362,
            "duration": 0.00274122916667352,
            "ticks": 51984,
            "durationTicks": 1
          },
          {
            "time": 142.63163600000001,
            "midi": 42,
            "name": "F#2",
            "velocity": 0.9133858267716536,
            "duration": 0.0027412291666450983,
            "ticks": 52032,
            "durationTicks": 1
          },
          {
            "time": 142.63163600000001,
            "midi": 38,
            "name": "D2",
            "velocity": 0.9763779527559056,
            "duration": 0.0027412291666450983,
            "ticks": 52032,
            "durationTicks": 1
          },
          {
            "time": 142.63163600000001,
            "midi": 36,
            "name": "C2",
            "velocity": 1,
            "duration": 0.0027412291666450983,
            "ticks": 52032,
            "durationTicks": 1
          },
          {
            "time": 142.63163600000001,
            "midi": 39,
            "name": "D#2",
            "velocity": 0.9133858267716536,
            "duration": 0.0027412291666450983,
            "ticks": 52032,
            "durationTicks": 1
          },
          {
            "time": 142.894794,
            "midi": 42,
            "name": "F#2",
            "velocity": 0.10236220472440945,
            "duration": 0.00274122916667352,
            "ticks": 52128,
            "durationTicks": 1
          },
          {
            "time": 143.026373,
            "midi": 42,
            "name": "F#2",
            "velocity": 0.5590551181102362,
            "duration": 0.0027412291666450983,
            "ticks": 52176,
            "durationTicks": 1
          },
          {
            "time": 143.157952,
            "midi": 42,
            "name": "F#2",
            "velocity": 0.7874015748031497,
            "duration": 0.00274122916667352,
            "ticks": 52224,
            "durationTicks": 1
          },
          {
            "time": 143.157952,
            "midi": 36,
            "name": "C2",
            "velocity": 1,
            "duration": 0.00274122916667352,
            "ticks": 52224,
            "durationTicks": 1
          },
          {
            "time": 143.42111,
            "midi": 42,
            "name": "F#2",
            "velocity": 0.4251968503937008,
            "duration": 0.00274122916667352,
            "ticks": 52320,
            "durationTicks": 1
          },
          {
            "time": 143.55268900000002,
            "midi": 42,
            "name": "F#2",
            "velocity": 0.6535433070866141,
            "duration": 0.0027412291666450983,
            "ticks": 52368,
            "durationTicks": 1
          },
          {
            "time": 143.684268,
            "midi": 42,
            "name": "F#2",
            "velocity": 0.9133858267716536,
            "duration": 0.0027412291666450983,
            "ticks": 52416,
            "durationTicks": 1
          },
          {
            "time": 143.684268,
            "midi": 38,
            "name": "D2",
            "velocity": 0.8818897637795275,
            "duration": 0.0027412291666450983,
            "ticks": 52416,
            "durationTicks": 1
          },
          {
            "time": 143.684268,
            "midi": 36,
            "name": "C2",
            "velocity": 1,
            "duration": 0.0027412291666450983,
            "ticks": 52416,
            "durationTicks": 1
          },
          {
            "time": 143.684268,
            "midi": 39,
            "name": "D#2",
            "velocity": 0.9133858267716536,
            "duration": 0.0027412291666450983,
            "ticks": 52416,
            "durationTicks": 1
          },
          {
            "time": 143.947426,
            "midi": 42,
            "name": "F#2",
            "velocity": 0.4251968503937008,
            "duration": 0.0027412291666450983,
            "ticks": 52512,
            "durationTicks": 1
          },
          {
            "time": 144.079005,
            "midi": 42,
            "name": "F#2",
            "velocity": 0.5590551181102362,
            "duration": 0.00274122916667352,
            "ticks": 52560,
            "durationTicks": 1
          },
          {
            "time": 144.210584,
            "midi": 42,
            "name": "F#2",
            "velocity": 0.7874015748031497,
            "duration": 0.0027412291666450983,
            "ticks": 52608,
            "durationTicks": 1
          },
          {
            "time": 144.210584,
            "midi": 36,
            "name": "C2",
            "velocity": 1,
            "duration": 0.0027412291666450983,
            "ticks": 52608,
            "durationTicks": 1
          },
          {
            "time": 144.47374200000002,
            "midi": 42,
            "name": "F#2",
            "velocity": 0.5590551181102362,
            "duration": 0.0027412291666450983,
            "ticks": 52704,
            "durationTicks": 1
          },
          {
            "time": 144.605321,
            "midi": 42,
            "name": "F#2",
            "velocity": 0.5590551181102362,
            "duration": 0.0027412291666450983,
            "ticks": 52752,
            "durationTicks": 1
          },
          {
            "time": 144.7369,
            "midi": 42,
            "name": "F#2",
            "velocity": 0.9133858267716536,
            "duration": 0.00274122916667352,
            "ticks": 52800,
            "durationTicks": 1
          },
          {
            "time": 144.7369,
            "midi": 38,
            "name": "D2",
            "velocity": 0.8818897637795275,
            "duration": 0.00274122916667352,
            "ticks": 52800,
            "durationTicks": 1
          },
          {
            "time": 144.7369,
            "midi": 36,
            "name": "C2",
            "velocity": 1,
            "duration": 0.00274122916667352,
            "ticks": 52800,
            "durationTicks": 1
          },
          {
            "time": 144.7369,
            "midi": 39,
            "name": "D#2",
            "velocity": 0.7874015748031497,
            "duration": 0.00274122916667352,
            "ticks": 52800,
            "durationTicks": 1
          },
          {
            "time": 145.000058,
            "midi": 46,
            "name": "A#2",
            "velocity": 0.5354330708661418,
            "duration": 0.00274122916667352,
            "ticks": 52896,
            "durationTicks": 1
          },
          {
            "time": 145.263216,
            "midi": 42,
            "name": "F#2",
            "velocity": 0.9133858267716536,
            "duration": 0.0027412291666450983,
            "ticks": 52992,
            "durationTicks": 1
          },
          {
            "time": 145.263216,
            "midi": 36,
            "name": "C2",
            "velocity": 1,
            "duration": 0.0027412291666450983,
            "ticks": 52992,
            "durationTicks": 1
          },
          {
            "time": 145.526374,
            "midi": 42,
            "name": "F#2",
            "velocity": 0.3464566929133858,
            "duration": 0.0027412291666450983,
            "ticks": 53088,
            "durationTicks": 1
          },
          {
            "time": 145.657953,
            "midi": 42,
            "name": "F#2",
            "velocity": 0.7874015748031497,
            "duration": 0.00274122916667352,
            "ticks": 53136,
            "durationTicks": 1
          },
          {
            "time": 145.789532,
            "midi": 42,
            "name": "F#2",
            "velocity": 0.9133858267716536,
            "duration": 0.0027412291666450983,
            "ticks": 53184,
            "durationTicks": 1
          },
          {
            "time": 145.789532,
            "midi": 38,
            "name": "D2",
            "velocity": 0.9763779527559056,
            "duration": 0.0027412291666450983,
            "ticks": 53184,
            "durationTicks": 1
          },
          {
            "time": 145.789532,
            "midi": 36,
            "name": "C2",
            "velocity": 1,
            "duration": 0.0027412291666450983,
            "ticks": 53184,
            "durationTicks": 1
          },
          {
            "time": 145.789532,
            "midi": 39,
            "name": "D#2",
            "velocity": 0.7874015748031497,
            "duration": 0.0027412291666450983,
            "ticks": 53184,
            "durationTicks": 1
          },
          {
            "time": 146.05269,
            "midi": 42,
            "name": "F#2",
            "velocity": 0.25984251968503935,
            "duration": 0.0027412291666450983,
            "ticks": 53280,
            "durationTicks": 1
          },
          {
            "time": 146.184269,
            "midi": 42,
            "name": "F#2",
            "velocity": 0.6535433070866141,
            "duration": 0.0027412291666450983,
            "ticks": 53328,
            "durationTicks": 1
          },
          {
            "time": 146.315848,
            "midi": 42,
            "name": "F#2",
            "velocity": 0.9133858267716536,
            "duration": 0.00274122916667352,
            "ticks": 53376,
            "durationTicks": 1
          },
          {
            "time": 146.315848,
            "midi": 36,
            "name": "C2",
            "velocity": 1,
            "duration": 0.00274122916667352,
            "ticks": 53376,
            "durationTicks": 1
          },
          {
            "time": 146.579006,
            "midi": 42,
            "name": "F#2",
            "velocity": 0.5590551181102362,
            "duration": 0.00274122916667352,
            "ticks": 53472,
            "durationTicks": 1
          },
          {
            "time": 146.710585,
            "midi": 42,
            "name": "F#2",
            "velocity": 0.6535433070866141,
            "duration": 0.0027412291666450983,
            "ticks": 53520,
            "durationTicks": 1
          },
          {
            "time": 146.842164,
            "midi": 42,
            "name": "F#2",
            "velocity": 1,
            "duration": 0.00274122916667352,
            "ticks": 53568,
            "durationTicks": 1
          },
          {
            "time": 146.842164,
            "midi": 38,
            "name": "D2",
            "velocity": 0.8818897637795275,
            "duration": 0.00274122916667352,
            "ticks": 53568,
            "durationTicks": 1
          },
          {
            "time": 146.842164,
            "midi": 36,
            "name": "C2",
            "velocity": 1,
            "duration": 0.00274122916667352,
            "ticks": 53568,
            "durationTicks": 1
          },
          {
            "time": 146.842164,
            "midi": 39,
            "name": "D#2",
            "velocity": 0.9133858267716536,
            "duration": 0.00274122916667352,
            "ticks": 53568,
            "durationTicks": 1
          },
          {
            "time": 147.105322,
            "midi": 42,
            "name": "F#2",
            "velocity": 0.3779527559055118,
            "duration": 0.0027412291666450983,
            "ticks": 53664,
            "durationTicks": 1
          },
          {
            "time": 147.236901,
            "midi": 42,
            "name": "F#2",
            "velocity": 0.48031496062992124,
            "duration": 0.00274122916667352,
            "ticks": 53712,
            "durationTicks": 1
          },
          {
            "time": 147.36848,
            "midi": 42,
            "name": "F#2",
            "velocity": 0.9133858267716536,
            "duration": 0.0027412291666450983,
            "ticks": 53760,
            "durationTicks": 1
          },
          {
            "time": 147.36848,
            "midi": 36,
            "name": "C2",
            "velocity": 1,
            "duration": 0.0027412291666450983,
            "ticks": 53760,
            "durationTicks": 1
          },
          {
            "time": 147.631638,
            "midi": 42,
            "name": "F#2",
            "velocity": 0.5590551181102362,
            "duration": 0.0027412291666450983,
            "ticks": 53856,
            "durationTicks": 1
          },
          {
            "time": 147.763217,
            "midi": 42,
            "name": "F#2",
            "velocity": 0.5590551181102362,
            "duration": 0.00274122916667352,
            "ticks": 53904,
            "durationTicks": 1
          },
          {
            "time": 147.894796,
            "midi": 42,
            "name": "F#2",
            "velocity": 0.9133858267716536,
            "duration": 0.0027412291666450983,
            "ticks": 53952,
            "durationTicks": 1
          },
          {
            "time": 147.894796,
            "midi": 38,
            "name": "D2",
            "velocity": 0.9763779527559056,
            "duration": 0.0027412291666450983,
            "ticks": 53952,
            "durationTicks": 1
          },
          {
            "time": 147.894796,
            "midi": 36,
            "name": "C2",
            "velocity": 1,
            "duration": 0.0027412291666450983,
            "ticks": 53952,
            "durationTicks": 1
          },
          {
            "time": 147.894796,
            "midi": 39,
            "name": "D#2",
            "velocity": 0.7874015748031497,
            "duration": 0.0027412291666450983,
            "ticks": 53952,
            "durationTicks": 1
          },
          {
            "time": 148.157954,
            "midi": 46,
            "name": "A#2",
            "velocity": 0.5354330708661418,
            "duration": 0.00274122916667352,
            "ticks": 54048,
            "durationTicks": 1
          },
          {
            "time": 148.421112,
            "midi": 42,
            "name": "F#2",
            "velocity": 0.9133858267716536,
            "duration": 0.00274122916667352,
            "ticks": 54144,
            "durationTicks": 1
          },
          {
            "time": 148.421112,
            "midi": 36,
            "name": "C2",
            "velocity": 1,
            "duration": 0.00274122916667352,
            "ticks": 54144,
            "durationTicks": 1
          },
          {
            "time": 148.68427,
            "midi": 42,
            "name": "F#2",
            "velocity": 0.48031496062992124,
            "duration": 0.00274122916667352,
            "ticks": 54240,
            "durationTicks": 1
          },
          {
            "time": 148.81584900000001,
            "midi": 42,
            "name": "F#2",
            "velocity": 0.7874015748031497,
            "duration": 0.0027412291666450983,
            "ticks": 54288,
            "durationTicks": 1
          },
          {
            "time": 148.947428,
            "midi": 42,
            "name": "F#2",
            "velocity": 0.9133858267716536,
            "duration": 0.0027412291666450983,
            "ticks": 54336,
            "durationTicks": 1
          },
          {
            "time": 148.947428,
            "midi": 38,
            "name": "D2",
            "velocity": 0.984251968503937,
            "duration": 0.0027412291666450983,
            "ticks": 54336,
            "durationTicks": 1
          },
          {
            "time": 148.947428,
            "midi": 36,
            "name": "C2",
            "velocity": 1,
            "duration": 0.0027412291666450983,
            "ticks": 54336,
            "durationTicks": 1
          },
          {
            "time": 148.947428,
            "midi": 39,
            "name": "D#2",
            "velocity": 0.984251968503937,
            "duration": 0.0027412291666450983,
            "ticks": 54336,
            "durationTicks": 1
          },
          {
            "time": 149.079007,
            "midi": 39,
            "name": "D#2",
            "velocity": 0.8267716535433071,
            "duration": 0.00274122916667352,
            "ticks": 54384,
            "durationTicks": 1
          },
          {
            "time": 149.210586,
            "midi": 46,
            "name": "A#2",
            "velocity": 0.7480314960629921,
            "duration": 0.0027412291666450983,
            "ticks": 54432,
            "durationTicks": 1
          },
          {
            "time": 149.210586,
            "midi": 39,
            "name": "D#2",
            "velocity": 0.6692913385826772,
            "duration": 0.0027412291666450983,
            "ticks": 54432,
            "durationTicks": 1
          },
          {
            "time": 149.342165,
            "midi": 39,
            "name": "D#2",
            "velocity": 0.5118110236220472,
            "duration": 0.00274122916667352,
            "ticks": 54480,
            "durationTicks": 1
          },
          {
            "time": 149.473744,
            "midi": 42,
            "name": "F#2",
            "velocity": 0.8818897637795275,
            "duration": 0.0027412291666450983,
            "ticks": 54528,
            "durationTicks": 1
          },
          {
            "time": 149.473744,
            "midi": 36,
            "name": "C2",
            "velocity": 1,
            "duration": 0.0027412291666450983,
            "ticks": 54528,
            "durationTicks": 1
          },
          {
            "time": 149.73690200000001,
            "midi": 42,
            "name": "F#2",
            "velocity": 0.4251968503937008,
            "duration": 0.0027412291666450983,
            "ticks": 54624,
            "durationTicks": 1
          },
          {
            "time": 149.868481,
            "midi": 42,
            "name": "F#2",
            "velocity": 0.7874015748031497,
            "duration": 0.0027412291666450983,
            "ticks": 54672,
            "durationTicks": 1
          },
          {
            "time": 150.00006,
            "midi": 42,
            "name": "F#2",
            "velocity": 0.9133858267716536,
            "duration": 0.00274122916667352,
            "ticks": 54720,
            "durationTicks": 1
          },
          {
            "time": 150.00006,
            "midi": 38,
            "name": "D2",
            "velocity": 0.8818897637795275,
            "duration": 0.00274122916667352,
            "ticks": 54720,
            "durationTicks": 1
          },
          {
            "time": 150.00006,
            "midi": 36,
            "name": "C2",
            "velocity": 1,
            "duration": 0.00274122916667352,
            "ticks": 54720,
            "durationTicks": 1
          },
          {
            "time": 150.00006,
            "midi": 39,
            "name": "D#2",
            "velocity": 0.7874015748031497,
            "duration": 0.00274122916667352,
            "ticks": 54720,
            "durationTicks": 1
          },
          {
            "time": 150.263218,
            "midi": 42,
            "name": "F#2",
            "velocity": 0.31496062992125984,
            "duration": 0.00274122916667352,
            "ticks": 54816,
            "durationTicks": 1
          },
          {
            "time": 150.394797,
            "midi": 42,
            "name": "F#2",
            "velocity": 0.6535433070866141,
            "duration": 0.0027412291666450983,
            "ticks": 54864,
            "durationTicks": 1
          },
          {
            "time": 150.526376,
            "midi": 42,
            "name": "F#2",
            "velocity": 0.9133858267716536,
            "duration": 0.00274122916667352,
            "ticks": 54912,
            "durationTicks": 1
          },
          {
            "time": 150.526376,
            "midi": 36,
            "name": "C2",
            "velocity": 1,
            "duration": 0.00274122916667352,
            "ticks": 54912,
            "durationTicks": 1
          },
          {
            "time": 150.789534,
            "midi": 42,
            "name": "F#2",
            "velocity": 0.3779527559055118,
            "duration": 0.0027412291666450983,
            "ticks": 55008,
            "durationTicks": 1
          },
          {
            "time": 150.921113,
            "midi": 42,
            "name": "F#2",
            "velocity": 0.5590551181102362,
            "duration": 0.00274122916667352,
            "ticks": 55056,
            "durationTicks": 1
          },
          {
            "time": 151.052692,
            "midi": 42,
            "name": "F#2",
            "velocity": 0.9133858267716536,
            "duration": 0.0027412291666450983,
            "ticks": 55104,
            "durationTicks": 1
          },
          {
            "time": 151.052692,
            "midi": 38,
            "name": "D2",
            "velocity": 0.9763779527559056,
            "duration": 0.0027412291666450983,
            "ticks": 55104,
            "durationTicks": 1
          },
          {
            "time": 151.052692,
            "midi": 36,
            "name": "C2",
            "velocity": 1,
            "duration": 0.0027412291666450983,
            "ticks": 55104,
            "durationTicks": 1
          },
          {
            "time": 151.052692,
            "midi": 39,
            "name": "D#2",
            "velocity": 0.9133858267716536,
            "duration": 0.0027412291666450983,
            "ticks": 55104,
            "durationTicks": 1
          },
          {
            "time": 151.31585,
            "midi": 42,
            "name": "F#2",
            "velocity": 0.10236220472440945,
            "duration": 0.0027412291666450983,
            "ticks": 55200,
            "durationTicks": 1
          },
          {
            "time": 151.447429,
            "midi": 42,
            "name": "F#2",
            "velocity": 0.5590551181102362,
            "duration": 0.0027412291666450983,
            "ticks": 55248,
            "durationTicks": 1
          },
          {
            "time": 151.579008,
            "midi": 42,
            "name": "F#2",
            "velocity": 0.7874015748031497,
            "duration": 0.00274122916667352,
            "ticks": 55296,
            "durationTicks": 1
          },
          {
            "time": 151.579008,
            "midi": 36,
            "name": "C2",
            "velocity": 1,
            "duration": 0.00274122916667352,
            "ticks": 55296,
            "durationTicks": 1
          },
          {
            "time": 151.842166,
            "midi": 42,
            "name": "F#2",
            "velocity": 0.4251968503937008,
            "duration": 0.00274122916667352,
            "ticks": 55392,
            "durationTicks": 1
          },
          {
            "time": 151.973745,
            "midi": 42,
            "name": "F#2",
            "velocity": 0.6535433070866141,
            "duration": 0.0027412291666450983,
            "ticks": 55440,
            "durationTicks": 1
          },
          {
            "time": 152.105324,
            "midi": 42,
            "name": "F#2",
            "velocity": 0.9133858267716536,
            "duration": 0.00274122916667352,
            "ticks": 55488,
            "durationTicks": 1
          },
          {
            "time": 152.105324,
            "midi": 38,
            "name": "D2",
            "velocity": 0.8818897637795275,
            "duration": 0.00274122916667352,
            "ticks": 55488,
            "durationTicks": 1
          },
          {
            "time": 152.105324,
            "midi": 36,
            "name": "C2",
            "velocity": 1,
            "duration": 0.00274122916667352,
            "ticks": 55488,
            "durationTicks": 1
          },
          {
            "time": 152.105324,
            "midi": 39,
            "name": "D#2",
            "velocity": 0.9133858267716536,
            "duration": 0.00274122916667352,
            "ticks": 55488,
            "durationTicks": 1
          },
          {
            "time": 152.368482,
            "midi": 42,
            "name": "F#2",
            "velocity": 0.4251968503937008,
            "duration": 0.0027412291666450983,
            "ticks": 55584,
            "durationTicks": 1
          },
          {
            "time": 152.500061,
            "midi": 42,
            "name": "F#2",
            "velocity": 0.5590551181102362,
            "duration": 0.00274122916667352,
            "ticks": 55632,
            "durationTicks": 1
          },
          {
            "time": 152.63164,
            "midi": 42,
            "name": "F#2",
            "velocity": 0.7874015748031497,
            "duration": 0.0027412291666450983,
            "ticks": 55680,
            "durationTicks": 1
          },
          {
            "time": 152.63164,
            "midi": 36,
            "name": "C2",
            "velocity": 1,
            "duration": 0.0027412291666450983,
            "ticks": 55680,
            "durationTicks": 1
          },
          {
            "time": 152.894798,
            "midi": 42,
            "name": "F#2",
            "velocity": 0.5590551181102362,
            "duration": 0.0027412291666450983,
            "ticks": 55776,
            "durationTicks": 1
          },
          {
            "time": 153.026377,
            "midi": 42,
            "name": "F#2",
            "velocity": 0.5590551181102362,
            "duration": 0.00274122916667352,
            "ticks": 55824,
            "durationTicks": 1
          },
          {
            "time": 153.157956,
            "midi": 42,
            "name": "F#2",
            "velocity": 0.9133858267716536,
            "duration": 0.0027412291666450983,
            "ticks": 55872,
            "durationTicks": 1
          },
          {
            "time": 153.157956,
            "midi": 38,
            "name": "D2",
            "velocity": 0.8818897637795275,
            "duration": 0.0027412291666450983,
            "ticks": 55872,
            "durationTicks": 1
          },
          {
            "time": 153.157956,
            "midi": 36,
            "name": "C2",
            "velocity": 1,
            "duration": 0.0027412291666450983,
            "ticks": 55872,
            "durationTicks": 1
          },
          {
            "time": 153.157956,
            "midi": 39,
            "name": "D#2",
            "velocity": 0.7874015748031497,
            "duration": 0.0027412291666450983,
            "ticks": 55872,
            "durationTicks": 1
          },
          {
            "time": 153.421114,
            "midi": 46,
            "name": "A#2",
            "velocity": 0.5354330708661418,
            "duration": 0.00274122916667352,
            "ticks": 55968,
            "durationTicks": 1
          },
          {
            "time": 153.684272,
            "midi": 42,
            "name": "F#2",
            "velocity": 0.9133858267716536,
            "duration": 0.00274122916667352,
            "ticks": 56064,
            "durationTicks": 1
          },
          {
            "time": 153.684272,
            "midi": 36,
            "name": "C2",
            "velocity": 1,
            "duration": 0.00274122916667352,
            "ticks": 56064,
            "durationTicks": 1
          },
          {
            "time": 153.94743,
            "midi": 42,
            "name": "F#2",
            "velocity": 0.3464566929133858,
            "duration": 0.00274122916667352,
            "ticks": 56160,
            "durationTicks": 1
          },
          {
            "time": 154.079009,
            "midi": 42,
            "name": "F#2",
            "velocity": 0.7874015748031497,
            "duration": 0.0027412291666450983,
            "ticks": 56208,
            "durationTicks": 1
          },
          {
            "time": 154.210588,
            "midi": 42,
            "name": "F#2",
            "velocity": 0.9133858267716536,
            "duration": 0.0027412291666450983,
            "ticks": 56256,
            "durationTicks": 1
          },
          {
            "time": 154.210588,
            "midi": 38,
            "name": "D2",
            "velocity": 0.9763779527559056,
            "duration": 0.0027412291666450983,
            "ticks": 56256,
            "durationTicks": 1
          },
          {
            "time": 154.210588,
            "midi": 36,
            "name": "C2",
            "velocity": 1,
            "duration": 0.0027412291666450983,
            "ticks": 56256,
            "durationTicks": 1
          },
          {
            "time": 154.210588,
            "midi": 39,
            "name": "D#2",
            "velocity": 0.7874015748031497,
            "duration": 0.0027412291666450983,
            "ticks": 56256,
            "durationTicks": 1
          },
          {
            "time": 154.473746,
            "midi": 42,
            "name": "F#2",
            "velocity": 0.25984251968503935,
            "duration": 0.0027412291666450983,
            "ticks": 56352,
            "durationTicks": 1
          },
          {
            "time": 154.605325,
            "midi": 42,
            "name": "F#2",
            "velocity": 0.6535433070866141,
            "duration": 0.00274122916667352,
            "ticks": 56400,
            "durationTicks": 1
          },
          {
            "time": 154.736904,
            "midi": 42,
            "name": "F#2",
            "velocity": 0.9133858267716536,
            "duration": 0.0027412291666450983,
            "ticks": 56448,
            "durationTicks": 1
          },
          {
            "time": 154.736904,
            "midi": 36,
            "name": "C2",
            "velocity": 1,
            "duration": 0.0027412291666450983,
            "ticks": 56448,
            "durationTicks": 1
          },
          {
            "time": 155.000062,
            "midi": 42,
            "name": "F#2",
            "velocity": 0.5590551181102362,
            "duration": 0.0027412291666450983,
            "ticks": 56544,
            "durationTicks": 1
          },
          {
            "time": 155.131641,
            "midi": 42,
            "name": "F#2",
            "velocity": 0.6535433070866141,
            "duration": 0.0027412291666450983,
            "ticks": 56592,
            "durationTicks": 1
          },
          {
            "time": 155.26322,
            "midi": 42,
            "name": "F#2",
            "velocity": 1,
            "duration": 0.00274122916667352,
            "ticks": 56640,
            "durationTicks": 1
          },
          {
            "time": 155.26322,
            "midi": 38,
            "name": "D2",
            "velocity": 0.8818897637795275,
            "duration": 0.00274122916667352,
            "ticks": 56640,
            "durationTicks": 1
          },
          {
            "time": 155.26322,
            "midi": 36,
            "name": "C2",
            "velocity": 1,
            "duration": 0.00274122916667352,
            "ticks": 56640,
            "durationTicks": 1
          },
          {
            "time": 155.26322,
            "midi": 39,
            "name": "D#2",
            "velocity": 0.9133858267716536,
            "duration": 0.00274122916667352,
            "ticks": 56640,
            "durationTicks": 1
          },
          {
            "time": 155.526378,
            "midi": 42,
            "name": "F#2",
            "velocity": 0.3779527559055118,
            "duration": 0.00274122916667352,
            "ticks": 56736,
            "durationTicks": 1
          },
          {
            "time": 155.657957,
            "midi": 42,
            "name": "F#2",
            "velocity": 0.48031496062992124,
            "duration": 0.0027412291666450983,
            "ticks": 56784,
            "durationTicks": 1
          },
          {
            "time": 155.789536,
            "midi": 42,
            "name": "F#2",
            "velocity": 0.9133858267716536,
            "duration": 0.00274122916667352,
            "ticks": 56832,
            "durationTicks": 1
          },
          {
            "time": 155.789536,
            "midi": 36,
            "name": "C2",
            "velocity": 1,
            "duration": 0.00274122916667352,
            "ticks": 56832,
            "durationTicks": 1
          },
          {
            "time": 156.052694,
            "midi": 48,
            "name": "C3",
            "velocity": 0.7480314960629921,
            "duration": 0.0027412291666450983,
            "ticks": 56928,
            "durationTicks": 1
          },
          {
            "time": 156.052694,
            "midi": 42,
            "name": "F#2",
            "velocity": 0.5590551181102362,
            "duration": 0.0027412291666450983,
            "ticks": 56928,
            "durationTicks": 1
          },
          {
            "time": 156.184273,
            "midi": 42,
            "name": "F#2",
            "velocity": 0.5590551181102362,
            "duration": 0.00274122916667352,
            "ticks": 56976,
            "durationTicks": 1
          },
          {
            "time": 156.184273,
            "midi": 48,
            "name": "C3",
            "velocity": 0.6299212598425197,
            "duration": 0.00274122916667352,
            "ticks": 56976,
            "durationTicks": 1
          },
          {
            "time": 156.315852,
            "midi": 48,
            "name": "C3",
            "velocity": 0.6299212598425197,
            "duration": 0.0027412291666450983,
            "ticks": 57024,
            "durationTicks": 1
          },
          {
            "time": 156.315852,
            "midi": 42,
            "name": "F#2",
            "velocity": 0.9133858267716536,
            "duration": 0.0027412291666450983,
            "ticks": 57024,
            "durationTicks": 1
          },
          {
            "time": 156.315852,
            "midi": 38,
            "name": "D2",
            "velocity": 0.9763779527559056,
            "duration": 0.0027412291666450983,
            "ticks": 57024,
            "durationTicks": 1
          },
          {
            "time": 156.315852,
            "midi": 36,
            "name": "C2",
            "velocity": 1,
            "duration": 0.0027412291666450983,
            "ticks": 57024,
            "durationTicks": 1
          },
          {
            "time": 156.315852,
            "midi": 39,
            "name": "D#2",
            "velocity": 0.7874015748031497,
            "duration": 0.0027412291666450983,
            "ticks": 57024,
            "durationTicks": 1
          },
          {
            "time": 156.447431,
            "midi": 48,
            "name": "C3",
            "velocity": 0.8818897637795275,
            "duration": 0.00274122916667352,
            "ticks": 57072,
            "durationTicks": 1
          },
          {
            "time": 156.57901,
            "midi": 46,
            "name": "A#2",
            "velocity": 0.5354330708661418,
            "duration": 0.0027412291666450983,
            "ticks": 57120,
            "durationTicks": 1
          },
          {
            "time": 156.57901,
            "midi": 45,
            "name": "A2",
            "velocity": 0.6299212598425197,
            "duration": 0.0027412291666450983,
            "ticks": 57120,
            "durationTicks": 1
          },
          {
            "time": 156.710589,
            "midi": 45,
            "name": "A2",
            "velocity": 0.8818897637795275,
            "duration": 0.00274122916667352,
            "ticks": 57168,
            "durationTicks": 1
          },
          {
            "time": 156.84216800000002,
            "midi": 42,
            "name": "F#2",
            "velocity": 0.9133858267716536,
            "duration": 0.0027412291666450983,
            "ticks": 57216,
            "durationTicks": 1
          },
          {
            "time": 156.84216800000002,
            "midi": 45,
            "name": "A2",
            "velocity": 0.4645669291338583,
            "duration": 0.0027412291666450983,
            "ticks": 57216,
            "durationTicks": 1
          },
          {
            "time": 156.84216800000002,
            "midi": 36,
            "name": "C2",
            "velocity": 1,
            "duration": 0.0027412291666450983,
            "ticks": 57216,
            "durationTicks": 1
          },
          {
            "time": 156.973747,
            "midi": 45,
            "name": "A2",
            "velocity": 0.6299212598425197,
            "duration": 0.0027412291666450983,
            "ticks": 57264,
            "durationTicks": 1
          },
          {
            "time": 157.105326,
            "midi": 42,
            "name": "F#2",
            "velocity": 0.48031496062992124,
            "duration": 0.00274122916667352,
            "ticks": 57312,
            "durationTicks": 1
          },
          {
            "time": 157.105326,
            "midi": 41,
            "name": "F2",
            "velocity": 0.8818897637795275,
            "duration": 0.00274122916667352,
            "ticks": 57312,
            "durationTicks": 1
          },
          {
            "time": 157.236905,
            "midi": 42,
            "name": "F#2",
            "velocity": 0.7874015748031497,
            "duration": 0.0027412291666450983,
            "ticks": 57360,
            "durationTicks": 1
          },
          {
            "time": 157.236905,
            "midi": 41,
            "name": "F2",
            "velocity": 0.7480314960629921,
            "duration": 0.0027412291666450983,
            "ticks": 57360,
            "durationTicks": 1
          },
          {
            "time": 157.368484,
            "midi": 42,
            "name": "F#2",
            "velocity": 0.9133858267716536,
            "duration": 0.00274122916667352,
            "ticks": 57408,
            "durationTicks": 1
          },
          {
            "time": 157.368484,
            "midi": 41,
            "name": "F2",
            "velocity": 0.6299212598425197,
            "duration": 0.00274122916667352,
            "ticks": 57408,
            "durationTicks": 1
          },
          {
            "time": 157.368484,
            "midi": 38,
            "name": "D2",
            "velocity": 0.984251968503937,
            "duration": 0.00274122916667352,
            "ticks": 57408,
            "durationTicks": 1
          },
          {
            "time": 157.368484,
            "midi": 36,
            "name": "C2",
            "velocity": 1,
            "duration": 0.00274122916667352,
            "ticks": 57408,
            "durationTicks": 1
          },
          {
            "time": 157.368484,
            "midi": 39,
            "name": "D#2",
            "velocity": 0.984251968503937,
            "duration": 0.00274122916667352,
            "ticks": 57408,
            "durationTicks": 1
          },
          {
            "time": 157.500063,
            "midi": 41,
            "name": "F2",
            "velocity": 0.8818897637795275,
            "duration": 0.0027412291666450983,
            "ticks": 57456,
            "durationTicks": 1
          },
          {
            "time": 157.500063,
            "midi": 39,
            "name": "D#2",
            "velocity": 0.8267716535433071,
            "duration": 0.0027412291666450983,
            "ticks": 57456,
            "durationTicks": 1
          },
          {
            "time": 157.631642,
            "midi": 46,
            "name": "A#2",
            "velocity": 0.7480314960629921,
            "duration": 0.0027412291666450983,
            "ticks": 57504,
            "durationTicks": 1
          },
          {
            "time": 157.631642,
            "midi": 41,
            "name": "F2",
            "velocity": 0.8818897637795275,
            "duration": 0.0027412291666450983,
            "ticks": 57504,
            "durationTicks": 1
          },
          {
            "time": 157.631642,
            "midi": 39,
            "name": "D#2",
            "velocity": 0.6692913385826772,
            "duration": 0.0027412291666450983,
            "ticks": 57504,
            "durationTicks": 1
          },
          {
            "time": 157.76322100000002,
            "midi": 41,
            "name": "F2",
            "velocity": 0.8818897637795275,
            "duration": 0.0027412291666450983,
            "ticks": 57552,
            "durationTicks": 1
          },
          {
            "time": 157.76322100000002,
            "midi": 39,
            "name": "D#2",
            "velocity": 0.5118110236220472,
            "duration": 0.0027412291666450983,
            "ticks": 57552,
            "durationTicks": 1
          },
          {
            "time": 157.8948,
            "midi": 42,
            "name": "F#2",
            "velocity": 0.8818897637795275,
            "duration": 0.0027412291666450983,
            "ticks": 57600,
            "durationTicks": 1
          },
          {
            "time": 157.8948,
            "midi": 36,
            "name": "C2",
            "velocity": 1,
            "duration": 0.0027412291666450983,
            "ticks": 57600,
            "durationTicks": 1
          },
          {
            "time": 158.157958,
            "midi": 42,
            "name": "F#2",
            "velocity": 0.4251968503937008,
            "duration": 0.0027412291666450983,
            "ticks": 57696,
            "durationTicks": 1
          },
          {
            "time": 158.289537,
            "midi": 42,
            "name": "F#2",
            "velocity": 0.7874015748031497,
            "duration": 0.00274122916667352,
            "ticks": 57744,
            "durationTicks": 1
          },
          {
            "time": 158.421116,
            "midi": 42,
            "name": "F#2",
            "velocity": 0.9133858267716536,
            "duration": 0.0027412291666450983,
            "ticks": 57792,
            "durationTicks": 1
          },
          {
            "time": 158.421116,
            "midi": 38,
            "name": "D2",
            "velocity": 0.8818897637795275,
            "duration": 0.0027412291666450983,
            "ticks": 57792,
            "durationTicks": 1
          },
          {
            "time": 158.421116,
            "midi": 36,
            "name": "C2",
            "velocity": 1,
            "duration": 0.0027412291666450983,
            "ticks": 57792,
            "durationTicks": 1
          },
          {
            "time": 158.421116,
            "midi": 39,
            "name": "D#2",
            "velocity": 0.7874015748031497,
            "duration": 0.0027412291666450983,
            "ticks": 57792,
            "durationTicks": 1
          },
          {
            "time": 158.684274,
            "midi": 42,
            "name": "F#2",
            "velocity": 0.31496062992125984,
            "duration": 0.00274122916667352,
            "ticks": 57888,
            "durationTicks": 1
          },
          {
            "time": 158.815853,
            "midi": 42,
            "name": "F#2",
            "velocity": 0.6535433070866141,
            "duration": 0.0027412291666450983,
            "ticks": 57936,
            "durationTicks": 1
          },
          {
            "time": 158.947432,
            "midi": 42,
            "name": "F#2",
            "velocity": 0.9133858267716536,
            "duration": 0.00274122916667352,
            "ticks": 57984,
            "durationTicks": 1
          },
          {
            "time": 158.947432,
            "midi": 36,
            "name": "C2",
            "velocity": 1,
            "duration": 0.00274122916667352,
            "ticks": 57984,
            "durationTicks": 1
          },
          {
            "time": 159.21059,
            "midi": 42,
            "name": "F#2",
            "velocity": 0.3779527559055118,
            "duration": 0.00274122916667352,
            "ticks": 58080,
            "durationTicks": 1
          },
          {
            "time": 159.342169,
            "midi": 42,
            "name": "F#2",
            "velocity": 0.5590551181102362,
            "duration": 0.0027412291666450983,
            "ticks": 58128,
            "durationTicks": 1
          },
          {
            "time": 159.473748,
            "midi": 42,
            "name": "F#2",
            "velocity": 0.9133858267716536,
            "duration": 0.0027412291666450983,
            "ticks": 58176,
            "durationTicks": 1
          },
          {
            "time": 159.473748,
            "midi": 38,
            "name": "D2",
            "velocity": 0.9763779527559056,
            "duration": 0.0027412291666450983,
            "ticks": 58176,
            "durationTicks": 1
          },
          {
            "time": 159.473748,
            "midi": 36,
            "name": "C2",
            "velocity": 1,
            "duration": 0.0027412291666450983,
            "ticks": 58176,
            "durationTicks": 1
          },
          {
            "time": 159.473748,
            "midi": 39,
            "name": "D#2",
            "velocity": 0.9133858267716536,
            "duration": 0.0027412291666450983,
            "ticks": 58176,
            "durationTicks": 1
          },
          {
            "time": 159.736906,
            "midi": 42,
            "name": "F#2",
            "velocity": 0.10236220472440945,
            "duration": 0.0027412291666450983,
            "ticks": 58272,
            "durationTicks": 1
          },
          {
            "time": 159.868485,
            "midi": 42,
            "name": "F#2",
            "velocity": 0.5590551181102362,
            "duration": 0.00274122916667352,
            "ticks": 58320,
            "durationTicks": 1
          },
          {
            "time": 160.000064,
            "midi": 42,
            "name": "F#2",
            "velocity": 0.7874015748031497,
            "duration": 0.0027412291666450983,
            "ticks": 58368,
            "durationTicks": 1
          },
          {
            "time": 160.000064,
            "midi": 36,
            "name": "C2",
            "velocity": 1,
            "duration": 0.0027412291666450983,
            "ticks": 58368,
            "durationTicks": 1
          },
          {
            "time": 160.263222,
            "midi": 42,
            "name": "F#2",
            "velocity": 0.4251968503937008,
            "duration": 0.0027412291666450983,
            "ticks": 58464,
            "durationTicks": 1
          },
          {
            "time": 160.394801,
            "midi": 42,
            "name": "F#2",
            "velocity": 0.6535433070866141,
            "duration": 0.0027412291666450983,
            "ticks": 58512,
            "durationTicks": 1
          },
          {
            "time": 160.52638,
            "midi": 42,
            "name": "F#2",
            "velocity": 0.9133858267716536,
            "duration": 0.00274122916667352,
            "ticks": 58560,
            "durationTicks": 1
          },
          {
            "time": 160.52638,
            "midi": 38,
            "name": "D2",
            "velocity": 0.8818897637795275,
            "duration": 0.00274122916667352,
            "ticks": 58560,
            "durationTicks": 1
          },
          {
            "time": 160.52638,
            "midi": 36,
            "name": "C2",
            "velocity": 1,
            "duration": 0.00274122916667352,
            "ticks": 58560,
            "durationTicks": 1
          },
          {
            "time": 160.52638,
            "midi": 39,
            "name": "D#2",
            "velocity": 0.9133858267716536,
            "duration": 0.00274122916667352,
            "ticks": 58560,
            "durationTicks": 1
          },
          {
            "time": 160.789538,
            "midi": 42,
            "name": "F#2",
            "velocity": 0.4251968503937008,
            "duration": 0.00274122916667352,
            "ticks": 58656,
            "durationTicks": 1
          },
          {
            "time": 160.921117,
            "midi": 42,
            "name": "F#2",
            "velocity": 0.5590551181102362,
            "duration": 0.0027412291666450983,
            "ticks": 58704,
            "durationTicks": 1
          },
          {
            "time": 161.052696,
            "midi": 42,
            "name": "F#2",
            "velocity": 0.7874015748031497,
            "duration": 0.00274122916667352,
            "ticks": 58752,
            "durationTicks": 1
          },
          {
            "time": 161.052696,
            "midi": 36,
            "name": "C2",
            "velocity": 1,
            "duration": 0.00274122916667352,
            "ticks": 58752,
            "durationTicks": 1
          },
          {
            "time": 161.315854,
            "midi": 42,
            "name": "F#2",
            "velocity": 0.5590551181102362,
            "duration": 0.0027412291666450983,
            "ticks": 58848,
            "durationTicks": 1
          },
          {
            "time": 161.447433,
            "midi": 42,
            "name": "F#2",
            "velocity": 0.5590551181102362,
            "duration": 0.00274122916667352,
            "ticks": 58896,
            "durationTicks": 1
          },
          {
            "time": 161.579012,
            "midi": 42,
            "name": "F#2",
            "velocity": 0.9133858267716536,
            "duration": 0.0027412291666450983,
            "ticks": 58944,
            "durationTicks": 1
          },
          {
            "time": 161.579012,
            "midi": 38,
            "name": "D2",
            "velocity": 0.8818897637795275,
            "duration": 0.0027412291666450983,
            "ticks": 58944,
            "durationTicks": 1
          },
          {
            "time": 161.579012,
            "midi": 36,
            "name": "C2",
            "velocity": 1,
            "duration": 0.0027412291666450983,
            "ticks": 58944,
            "durationTicks": 1
          },
          {
            "time": 161.579012,
            "midi": 39,
            "name": "D#2",
            "velocity": 0.7874015748031497,
            "duration": 0.0027412291666450983,
            "ticks": 58944,
            "durationTicks": 1
          },
          {
            "time": 161.84217,
            "midi": 46,
            "name": "A#2",
            "velocity": 0.5354330708661418,
            "duration": 0.0027412291666450983,
            "ticks": 59040,
            "durationTicks": 1
          },
          {
            "time": 162.10532800000001,
            "midi": 42,
            "name": "F#2",
            "velocity": 0.9133858267716536,
            "duration": 0.0027412291666450983,
            "ticks": 59136,
            "durationTicks": 1
          },
          {
            "time": 162.10532800000001,
            "midi": 36,
            "name": "C2",
            "velocity": 1,
            "duration": 0.0027412291666450983,
            "ticks": 59136,
            "durationTicks": 1
          },
          {
            "time": 162.368486,
            "midi": 42,
            "name": "F#2",
            "velocity": 0.3464566929133858,
            "duration": 0.00274122916667352,
            "ticks": 59232,
            "durationTicks": 1
          },
          {
            "time": 162.500065,
            "midi": 42,
            "name": "F#2",
            "velocity": 0.7874015748031497,
            "duration": 0.0027412291666450983,
            "ticks": 59280,
            "durationTicks": 1
          },
          {
            "time": 162.631644,
            "midi": 42,
            "name": "F#2",
            "velocity": 0.9133858267716536,
            "duration": 0.00274122916667352,
            "ticks": 59328,
            "durationTicks": 1
          },
          {
            "time": 162.631644,
            "midi": 38,
            "name": "D2",
            "velocity": 0.9763779527559056,
            "duration": 0.00274122916667352,
            "ticks": 59328,
            "durationTicks": 1
          },
          {
            "time": 162.631644,
            "midi": 36,
            "name": "C2",
            "velocity": 1,
            "duration": 0.00274122916667352,
            "ticks": 59328,
            "durationTicks": 1
          },
          {
            "time": 162.631644,
            "midi": 39,
            "name": "D#2",
            "velocity": 0.7874015748031497,
            "duration": 0.00274122916667352,
            "ticks": 59328,
            "durationTicks": 1
          },
          {
            "time": 162.894802,
            "midi": 42,
            "name": "F#2",
            "velocity": 0.25984251968503935,
            "duration": 0.00274122916667352,
            "ticks": 59424,
            "durationTicks": 1
          },
          {
            "time": 163.02638100000001,
            "midi": 42,
            "name": "F#2",
            "velocity": 0.6535433070866141,
            "duration": 0.0027412291666450983,
            "ticks": 59472,
            "durationTicks": 1
          },
          {
            "time": 163.15796,
            "midi": 42,
            "name": "F#2",
            "velocity": 0.9133858267716536,
            "duration": 0.0027412291666450983,
            "ticks": 59520,
            "durationTicks": 1
          },
          {
            "time": 163.15796,
            "midi": 36,
            "name": "C2",
            "velocity": 1,
            "duration": 0.0027412291666450983,
            "ticks": 59520,
            "durationTicks": 1
          },
          {
            "time": 163.421118,
            "midi": 42,
            "name": "F#2",
            "velocity": 0.5590551181102362,
            "duration": 0.0027412291666450983,
            "ticks": 59616,
            "durationTicks": 1
          },
          {
            "time": 163.552697,
            "midi": 42,
            "name": "F#2",
            "velocity": 0.6535433070866141,
            "duration": 0.00274122916667352,
            "ticks": 59664,
            "durationTicks": 1
          },
          {
            "time": 163.684276,
            "midi": 42,
            "name": "F#2",
            "velocity": 1,
            "duration": 0.0027412291666450983,
            "ticks": 59712,
            "durationTicks": 1
          },
          {
            "time": 163.684276,
            "midi": 38,
            "name": "D2",
            "velocity": 0.8818897637795275,
            "duration": 0.0027412291666450983,
            "ticks": 59712,
            "durationTicks": 1
          },
          {
            "time": 163.684276,
            "midi": 36,
            "name": "C2",
            "velocity": 1,
            "duration": 0.0027412291666450983,
            "ticks": 59712,
            "durationTicks": 1
          },
          {
            "time": 163.684276,
            "midi": 39,
            "name": "D#2",
            "velocity": 0.9133858267716536,
            "duration": 0.0027412291666450983,
            "ticks": 59712,
            "durationTicks": 1
          },
          {
            "time": 163.94743400000002,
            "midi": 42,
            "name": "F#2",
            "velocity": 0.3779527559055118,
            "duration": 0.0027412291666450983,
            "ticks": 59808,
            "durationTicks": 1
          },
          {
            "time": 164.079013,
            "midi": 42,
            "name": "F#2",
            "velocity": 0.48031496062992124,
            "duration": 0.0027412291666450983,
            "ticks": 59856,
            "durationTicks": 1
          },
          {
            "time": 164.210592,
            "midi": 42,
            "name": "F#2",
            "velocity": 0.9133858267716536,
            "duration": 0.00274122916667352,
            "ticks": 59904,
            "durationTicks": 1
          },
          {
            "time": 164.210592,
            "midi": 36,
            "name": "C2",
            "velocity": 1,
            "duration": 0.00274122916667352,
            "ticks": 59904,
            "durationTicks": 1
          },
          {
            "time": 164.47375,
            "midi": 42,
            "name": "F#2",
            "velocity": 0.5590551181102362,
            "duration": 0.00274122916667352,
            "ticks": 60000,
            "durationTicks": 1
          },
          {
            "time": 164.605329,
            "midi": 42,
            "name": "F#2",
            "velocity": 0.5590551181102362,
            "duration": 0.0027412291666450983,
            "ticks": 60048,
            "durationTicks": 1
          },
          {
            "time": 164.736908,
            "midi": 42,
            "name": "F#2",
            "velocity": 0.9133858267716536,
            "duration": 0.0027412291666450983,
            "ticks": 60096,
            "durationTicks": 1
          },
          {
            "time": 164.736908,
            "midi": 38,
            "name": "D2",
            "velocity": 0.9763779527559056,
            "duration": 0.0027412291666450983,
            "ticks": 60096,
            "durationTicks": 1
          },
          {
            "time": 164.736908,
            "midi": 36,
            "name": "C2",
            "velocity": 1,
            "duration": 0.0027412291666450983,
            "ticks": 60096,
            "durationTicks": 1
          },
          {
            "time": 164.736908,
            "midi": 39,
            "name": "D#2",
            "velocity": 0.7874015748031497,
            "duration": 0.0027412291666450983,
            "ticks": 60096,
            "durationTicks": 1
          },
          {
            "time": 165.000066,
            "midi": 46,
            "name": "A#2",
            "velocity": 0.5354330708661418,
            "duration": 0.0027412291666450983,
            "ticks": 60192,
            "durationTicks": 1
          },
          {
            "time": 165.263224,
            "midi": 42,
            "name": "F#2",
            "velocity": 0.9133858267716536,
            "duration": 0.0027412291666450983,
            "ticks": 60288,
            "durationTicks": 1
          },
          {
            "time": 165.263224,
            "midi": 36,
            "name": "C2",
            "velocity": 1,
            "duration": 0.0027412291666450983,
            "ticks": 60288,
            "durationTicks": 1
          },
          {
            "time": 165.526382,
            "midi": 42,
            "name": "F#2",
            "velocity": 0.48031496062992124,
            "duration": 0.0027412291666450983,
            "ticks": 60384,
            "durationTicks": 1
          },
          {
            "time": 165.657961,
            "midi": 42,
            "name": "F#2",
            "velocity": 0.7874015748031497,
            "duration": 0.0027412291666450983,
            "ticks": 60432,
            "durationTicks": 1
          },
          {
            "time": 165.78954,
            "midi": 42,
            "name": "F#2",
            "velocity": 0.9133858267716536,
            "duration": 0.00274122916667352,
            "ticks": 60480,
            "durationTicks": 1
          },
          {
            "time": 165.78954,
            "midi": 38,
            "name": "D2",
            "velocity": 0.984251968503937,
            "duration": 0.00274122916667352,
            "ticks": 60480,
            "durationTicks": 1
          },
          {
            "time": 165.78954,
            "midi": 36,
            "name": "C2",
            "velocity": 1,
            "duration": 0.00274122916667352,
            "ticks": 60480,
            "durationTicks": 1
          },
          {
            "time": 165.78954,
            "midi": 39,
            "name": "D#2",
            "velocity": 0.984251968503937,
            "duration": 0.00274122916667352,
            "ticks": 60480,
            "durationTicks": 1
          },
          {
            "time": 165.921119,
            "midi": 39,
            "name": "D#2",
            "velocity": 0.8267716535433071,
            "duration": 0.0027412291666450983,
            "ticks": 60528,
            "durationTicks": 1
          },
          {
            "time": 166.052698,
            "midi": 46,
            "name": "A#2",
            "velocity": 0.7480314960629921,
            "duration": 0.00274122916667352,
            "ticks": 60576,
            "durationTicks": 1
          },
          {
            "time": 166.052698,
            "midi": 39,
            "name": "D#2",
            "velocity": 0.6692913385826772,
            "duration": 0.00274122916667352,
            "ticks": 60576,
            "durationTicks": 1
          },
          {
            "time": 166.184277,
            "midi": 39,
            "name": "D#2",
            "velocity": 0.5118110236220472,
            "duration": 0.0027412291666450983,
            "ticks": 60624,
            "durationTicks": 1
          },
          {
            "time": 166.315856,
            "midi": 42,
            "name": "F#2",
            "velocity": 0.8818897637795275,
            "duration": 0.00274122916667352,
            "ticks": 60672,
            "durationTicks": 1
          },
          {
            "time": 166.315856,
            "midi": 36,
            "name": "C2",
            "velocity": 1,
            "duration": 0.00274122916667352,
            "ticks": 60672,
            "durationTicks": 1
          },
          {
            "time": 166.579014,
            "midi": 42,
            "name": "F#2",
            "velocity": 0.4251968503937008,
            "duration": 0.0027412291666450983,
            "ticks": 60768,
            "durationTicks": 1
          },
          {
            "time": 166.710593,
            "midi": 42,
            "name": "F#2",
            "velocity": 0.7874015748031497,
            "duration": 0.00274122916667352,
            "ticks": 60816,
            "durationTicks": 1
          },
          {
            "time": 166.842172,
            "midi": 42,
            "name": "F#2",
            "velocity": 0.9133858267716536,
            "duration": 0.0027412291666450983,
            "ticks": 60864,
            "durationTicks": 1
          },
          {
            "time": 166.842172,
            "midi": 38,
            "name": "D2",
            "velocity": 0.8818897637795275,
            "duration": 0.0027412291666450983,
            "ticks": 60864,
            "durationTicks": 1
          },
          {
            "time": 166.842172,
            "midi": 36,
            "name": "C2",
            "velocity": 1,
            "duration": 0.0027412291666450983,
            "ticks": 60864,
            "durationTicks": 1
          },
          {
            "time": 166.842172,
            "midi": 39,
            "name": "D#2",
            "velocity": 0.7874015748031497,
            "duration": 0.0027412291666450983,
            "ticks": 60864,
            "durationTicks": 1
          },
          {
            "time": 167.10533,
            "midi": 42,
            "name": "F#2",
            "velocity": 0.31496062992125984,
            "duration": 0.0027412291666450983,
            "ticks": 60960,
            "durationTicks": 1
          },
          {
            "time": 167.236909,
            "midi": 42,
            "name": "F#2",
            "velocity": 0.6535433070866141,
            "duration": 0.00274122916667352,
            "ticks": 61008,
            "durationTicks": 1
          },
          {
            "time": 167.368488,
            "midi": 42,
            "name": "F#2",
            "velocity": 0.9133858267716536,
            "duration": 0.0027412291666450983,
            "ticks": 61056,
            "durationTicks": 1
          },
          {
            "time": 167.368488,
            "midi": 36,
            "name": "C2",
            "velocity": 1,
            "duration": 0.0027412291666450983,
            "ticks": 61056,
            "durationTicks": 1
          },
          {
            "time": 167.631646,
            "midi": 42,
            "name": "F#2",
            "velocity": 0.3779527559055118,
            "duration": 0.00274122916667352,
            "ticks": 61152,
            "durationTicks": 1
          },
          {
            "time": 167.763225,
            "midi": 42,
            "name": "F#2",
            "velocity": 0.5590551181102362,
            "duration": 0.0027412291666450983,
            "ticks": 61200,
            "durationTicks": 1
          },
          {
            "time": 167.894804,
            "midi": 42,
            "name": "F#2",
            "velocity": 0.9133858267716536,
            "duration": 0.00274122916667352,
            "ticks": 61248,
            "durationTicks": 1
          },
          {
            "time": 167.894804,
            "midi": 38,
            "name": "D2",
            "velocity": 0.9763779527559056,
            "duration": 0.00274122916667352,
            "ticks": 61248,
            "durationTicks": 1
          },
          {
            "time": 167.894804,
            "midi": 36,
            "name": "C2",
            "velocity": 1,
            "duration": 0.00274122916667352,
            "ticks": 61248,
            "durationTicks": 1
          },
          {
            "time": 167.894804,
            "midi": 39,
            "name": "D#2",
            "velocity": 0.9133858267716536,
            "duration": 0.00274122916667352,
            "ticks": 61248,
            "durationTicks": 1
          },
          {
            "time": 168.157962,
            "midi": 42,
            "name": "F#2",
            "velocity": 0.10236220472440945,
            "duration": 0.00274122916667352,
            "ticks": 61344,
            "durationTicks": 1
          },
          {
            "time": 168.289541,
            "midi": 42,
            "name": "F#2",
            "velocity": 0.5590551181102362,
            "duration": 0.0027412291666450983,
            "ticks": 61392,
            "durationTicks": 1
          },
          {
            "time": 168.42112,
            "midi": 42,
            "name": "F#2",
            "velocity": 0.7874015748031497,
            "duration": 0.0027412291666450983,
            "ticks": 61440,
            "durationTicks": 1
          },
          {
            "time": 168.42112,
            "midi": 36,
            "name": "C2",
            "velocity": 1,
            "duration": 0.0027412291666450983,
            "ticks": 61440,
            "durationTicks": 1
          },
          {
            "time": 168.684278,
            "midi": 42,
            "name": "F#2",
            "velocity": 0.4251968503937008,
            "duration": 0.0027412291666450983,
            "ticks": 61536,
            "durationTicks": 1
          },
          {
            "time": 168.815857,
            "midi": 42,
            "name": "F#2",
            "velocity": 0.6535433070866141,
            "duration": 0.00274122916667352,
            "ticks": 61584,
            "durationTicks": 1
          },
          {
            "time": 168.947436,
            "midi": 42,
            "name": "F#2",
            "velocity": 0.9133858267716536,
            "duration": 0.0027412291666450983,
            "ticks": 61632,
            "durationTicks": 1
          },
          {
            "time": 168.947436,
            "midi": 38,
            "name": "D2",
            "velocity": 0.8818897637795275,
            "duration": 0.0027412291666450983,
            "ticks": 61632,
            "durationTicks": 1
          },
          {
            "time": 168.947436,
            "midi": 36,
            "name": "C2",
            "velocity": 1,
            "duration": 0.0027412291666450983,
            "ticks": 61632,
            "durationTicks": 1
          },
          {
            "time": 168.947436,
            "midi": 39,
            "name": "D#2",
            "velocity": 0.9133858267716536,
            "duration": 0.0027412291666450983,
            "ticks": 61632,
            "durationTicks": 1
          },
          {
            "time": 169.21059400000001,
            "midi": 42,
            "name": "F#2",
            "velocity": 0.4251968503937008,
            "duration": 0.0027412291666450983,
            "ticks": 61728,
            "durationTicks": 1
          },
          {
            "time": 169.342173,
            "midi": 42,
            "name": "F#2",
            "velocity": 0.5590551181102362,
            "duration": 0.0027412291666450983,
            "ticks": 61776,
            "durationTicks": 1
          },
          {
            "time": 169.473752,
            "midi": 42,
            "name": "F#2",
            "velocity": 0.7874015748031497,
            "duration": 0.00274122916667352,
            "ticks": 61824,
            "durationTicks": 1
          },
          {
            "time": 169.473752,
            "midi": 36,
            "name": "C2",
            "velocity": 1,
            "duration": 0.00274122916667352,
            "ticks": 61824,
            "durationTicks": 1
          },
          {
            "time": 169.73691,
            "midi": 42,
            "name": "F#2",
            "velocity": 0.5590551181102362,
            "duration": 0.00274122916667352,
            "ticks": 61920,
            "durationTicks": 1
          },
          {
            "time": 169.868489,
            "midi": 42,
            "name": "F#2",
            "velocity": 0.5590551181102362,
            "duration": 0.0027412291666450983,
            "ticks": 61968,
            "durationTicks": 1
          },
          {
            "time": 170.000068,
            "midi": 42,
            "name": "F#2",
            "velocity": 0.9133858267716536,
            "duration": 0.00274122916667352,
            "ticks": 62016,
            "durationTicks": 1
          },
          {
            "time": 170.000068,
            "midi": 38,
            "name": "D2",
            "velocity": 0.8818897637795275,
            "duration": 0.00274122916667352,
            "ticks": 62016,
            "durationTicks": 1
          },
          {
            "time": 170.000068,
            "midi": 36,
            "name": "C2",
            "velocity": 1,
            "duration": 0.00274122916667352,
            "ticks": 62016,
            "durationTicks": 1
          },
          {
            "time": 170.000068,
            "midi": 39,
            "name": "D#2",
            "velocity": 0.7874015748031497,
            "duration": 0.00274122916667352,
            "ticks": 62016,
            "durationTicks": 1
          },
          {
            "time": 170.263226,
            "midi": 46,
            "name": "A#2",
            "velocity": 0.5354330708661418,
            "duration": 0.0027412291666450983,
            "ticks": 62112,
            "durationTicks": 1
          },
          {
            "time": 170.526384,
            "midi": 42,
            "name": "F#2",
            "velocity": 0.9133858267716536,
            "duration": 0.0027412291666450983,
            "ticks": 62208,
            "durationTicks": 1
          },
          {
            "time": 170.526384,
            "midi": 36,
            "name": "C2",
            "velocity": 1,
            "duration": 0.0027412291666450983,
            "ticks": 62208,
            "durationTicks": 1
          },
          {
            "time": 170.789542,
            "midi": 42,
            "name": "F#2",
            "velocity": 0.3464566929133858,
            "duration": 0.0027412291666450983,
            "ticks": 62304,
            "durationTicks": 1
          },
          {
            "time": 170.921121,
            "midi": 42,
            "name": "F#2",
            "velocity": 0.7874015748031497,
            "duration": 0.0027412291666450983,
            "ticks": 62352,
            "durationTicks": 1
          },
          {
            "time": 171.05270000000002,
            "midi": 42,
            "name": "F#2",
            "velocity": 0.9133858267716536,
            "duration": 0.0027412291666450983,
            "ticks": 62400,
            "durationTicks": 1
          },
          {
            "time": 171.05270000000002,
            "midi": 38,
            "name": "D2",
            "velocity": 0.9763779527559056,
            "duration": 0.0027412291666450983,
            "ticks": 62400,
            "durationTicks": 1
          },
          {
            "time": 171.05270000000002,
            "midi": 36,
            "name": "C2",
            "velocity": 1,
            "duration": 0.0027412291666450983,
            "ticks": 62400,
            "durationTicks": 1
          },
          {
            "time": 171.05270000000002,
            "midi": 39,
            "name": "D#2",
            "velocity": 0.7874015748031497,
            "duration": 0.0027412291666450983,
            "ticks": 62400,
            "durationTicks": 1
          },
          {
            "time": 171.315858,
            "midi": 42,
            "name": "F#2",
            "velocity": 0.25984251968503935,
            "duration": 0.00274122916667352,
            "ticks": 62496,
            "durationTicks": 1
          },
          {
            "time": 171.447437,
            "midi": 42,
            "name": "F#2",
            "velocity": 0.6535433070866141,
            "duration": 0.0027412291666450983,
            "ticks": 62544,
            "durationTicks": 1
          },
          {
            "time": 171.579016,
            "midi": 42,
            "name": "F#2",
            "velocity": 0.9133858267716536,
            "duration": 0.00274122916667352,
            "ticks": 62592,
            "durationTicks": 1
          },
          {
            "time": 171.579016,
            "midi": 36,
            "name": "C2",
            "velocity": 1,
            "duration": 0.00274122916667352,
            "ticks": 62592,
            "durationTicks": 1
          },
          {
            "time": 171.842174,
            "midi": 42,
            "name": "F#2",
            "velocity": 0.5590551181102362,
            "duration": 0.0027412291666450983,
            "ticks": 62688,
            "durationTicks": 1
          },
          {
            "time": 171.973753,
            "midi": 42,
            "name": "F#2",
            "velocity": 0.6535433070866141,
            "duration": 0.00274122916667352,
            "ticks": 62736,
            "durationTicks": 1
          },
          {
            "time": 172.105332,
            "midi": 42,
            "name": "F#2",
            "velocity": 1,
            "duration": 0.0027412291666450983,
            "ticks": 62784,
            "durationTicks": 1
          },
          {
            "time": 172.105332,
            "midi": 38,
            "name": "D2",
            "velocity": 0.8818897637795275,
            "duration": 0.0027412291666450983,
            "ticks": 62784,
            "durationTicks": 1
          },
          {
            "time": 172.105332,
            "midi": 36,
            "name": "C2",
            "velocity": 1,
            "duration": 0.0027412291666450983,
            "ticks": 62784,
            "durationTicks": 1
          },
          {
            "time": 172.105332,
            "midi": 39,
            "name": "D#2",
            "velocity": 0.9133858267716536,
            "duration": 0.0027412291666450983,
            "ticks": 62784,
            "durationTicks": 1
          },
          {
            "time": 172.36849,
            "midi": 42,
            "name": "F#2",
            "velocity": 0.3779527559055118,
            "duration": 0.0027412291666450983,
            "ticks": 62880,
            "durationTicks": 1
          },
          {
            "time": 172.500069,
            "midi": 42,
            "name": "F#2",
            "velocity": 0.48031496062992124,
            "duration": 0.00274122916667352,
            "ticks": 62928,
            "durationTicks": 1
          },
          {
            "time": 172.631648,
            "midi": 42,
            "name": "F#2",
            "velocity": 0.9133858267716536,
            "duration": 0.0027412291666450983,
            "ticks": 62976,
            "durationTicks": 1
          },
          {
            "time": 172.631648,
            "midi": 36,
            "name": "C2",
            "velocity": 1,
            "duration": 0.0027412291666450983,
            "ticks": 62976,
            "durationTicks": 1
          },
          {
            "time": 172.894806,
            "midi": 42,
            "name": "F#2",
            "velocity": 0.5590551181102362,
            "duration": 0.00274122916667352,
            "ticks": 63072,
            "durationTicks": 1
          },
          {
            "time": 173.026385,
            "midi": 42,
            "name": "F#2",
            "velocity": 0.5590551181102362,
            "duration": 0.0027412291666450983,
            "ticks": 63120,
            "durationTicks": 1
          },
          {
            "time": 173.157964,
            "midi": 42,
            "name": "F#2",
            "velocity": 0.9133858267716536,
            "duration": 0.00274122916667352,
            "ticks": 63168,
            "durationTicks": 1
          },
          {
            "time": 173.157964,
            "midi": 38,
            "name": "D2",
            "velocity": 0.9763779527559056,
            "duration": 0.00274122916667352,
            "ticks": 63168,
            "durationTicks": 1
          },
          {
            "time": 173.157964,
            "midi": 36,
            "name": "C2",
            "velocity": 1,
            "duration": 0.00274122916667352,
            "ticks": 63168,
            "durationTicks": 1
          },
          {
            "time": 173.157964,
            "midi": 39,
            "name": "D#2",
            "velocity": 0.7874015748031497,
            "duration": 0.00274122916667352,
            "ticks": 63168,
            "durationTicks": 1
          },
          {
            "time": 173.421122,
            "midi": 46,
            "name": "A#2",
            "velocity": 0.5354330708661418,
            "duration": 0.00274122916667352,
            "ticks": 63264,
            "durationTicks": 1
          },
          {
            "time": 173.68428,
            "midi": 42,
            "name": "F#2",
            "velocity": 0.9133858267716536,
            "duration": 0.0027412291666450983,
            "ticks": 63360,
            "durationTicks": 1
          },
          {
            "time": 173.68428,
            "midi": 36,
            "name": "C2",
            "velocity": 1,
            "duration": 0.0027412291666450983,
            "ticks": 63360,
            "durationTicks": 1
          },
          {
            "time": 173.947438,
            "midi": 42,
            "name": "F#2",
            "velocity": 0.48031496062992124,
            "duration": 0.0027412291666450983,
            "ticks": 63456,
            "durationTicks": 1
          },
          {
            "time": 174.079017,
            "midi": 42,
            "name": "F#2",
            "velocity": 0.7874015748031497,
            "duration": 0.00274122916667352,
            "ticks": 63504,
            "durationTicks": 1
          },
          {
            "time": 174.210596,
            "midi": 42,
            "name": "F#2",
            "velocity": 0.9133858267716536,
            "duration": 0.0027412291666450983,
            "ticks": 63552,
            "durationTicks": 1
          },
          {
            "time": 174.210596,
            "midi": 38,
            "name": "D2",
            "velocity": 0.984251968503937,
            "duration": 0.0027412291666450983,
            "ticks": 63552,
            "durationTicks": 1
          },
          {
            "time": 174.210596,
            "midi": 36,
            "name": "C2",
            "velocity": 1,
            "duration": 0.0027412291666450983,
            "ticks": 63552,
            "durationTicks": 1
          },
          {
            "time": 174.210596,
            "midi": 39,
            "name": "D#2",
            "velocity": 0.984251968503937,
            "duration": 0.0027412291666450983,
            "ticks": 63552,
            "durationTicks": 1
          },
          {
            "time": 174.342175,
            "midi": 39,
            "name": "D#2",
            "velocity": 0.8267716535433071,
            "duration": 0.00274122916667352,
            "ticks": 63600,
            "durationTicks": 1
          },
          {
            "time": 174.473754,
            "midi": 46,
            "name": "A#2",
            "velocity": 0.7480314960629921,
            "duration": 0.0027412291666450983,
            "ticks": 63648,
            "durationTicks": 1
          },
          {
            "time": 174.473754,
            "midi": 39,
            "name": "D#2",
            "velocity": 0.6692913385826772,
            "duration": 0.0027412291666450983,
            "ticks": 63648,
            "durationTicks": 1
          },
          {
            "time": 174.605333,
            "midi": 39,
            "name": "D#2",
            "velocity": 0.5118110236220472,
            "duration": 0.0027412291666450983,
            "ticks": 63696,
            "durationTicks": 1
          },
          {
            "time": 174.736912,
            "midi": 46,
            "name": "A#2",
            "velocity": 0.8818897637795275,
            "duration": 0.00274122916667352,
            "ticks": 63744,
            "durationTicks": 1
          },
          {
            "time": 174.736912,
            "midi": 36,
            "name": "C2",
            "velocity": 1,
            "duration": 0.00274122916667352,
            "ticks": 63744,
            "durationTicks": 1
          },
          {
            "time": 175.00007,
            "midi": 42,
            "name": "F#2",
            "velocity": 0.4251968503937008,
            "duration": 0.00274122916667352,
            "ticks": 63840,
            "durationTicks": 1
          },
          {
            "time": 175.131649,
            "midi": 42,
            "name": "F#2",
            "velocity": 0.7874015748031497,
            "duration": 0.0027412291666450983,
            "ticks": 63888,
            "durationTicks": 1
          },
          {
            "time": 175.263228,
            "midi": 40,
            "name": "E2",
            "velocity": 0.8818897637795275,
            "duration": 0.00274122916667352,
            "ticks": 63936,
            "durationTicks": 1
          },
          {
            "time": 175.263228,
            "midi": 42,
            "name": "F#2",
            "velocity": 0.9133858267716536,
            "duration": 0.00274122916667352,
            "ticks": 63936,
            "durationTicks": 1
          },
          {
            "time": 175.263228,
            "midi": 38,
            "name": "D2",
            "velocity": 0.8818897637795275,
            "duration": 0.00274122916667352,
            "ticks": 63936,
            "durationTicks": 1
          },
          {
            "time": 175.263228,
            "midi": 36,
            "name": "C2",
            "velocity": 1,
            "duration": 0.00274122916667352,
            "ticks": 63936,
            "durationTicks": 1
          },
          {
            "time": 175.526386,
            "midi": 42,
            "name": "F#2",
            "velocity": 0.31496062992125984,
            "duration": 0.0027412291666450983,
            "ticks": 64032,
            "durationTicks": 1
          },
          {
            "time": 175.657965,
            "midi": 42,
            "name": "F#2",
            "velocity": 0.6535433070866141,
            "duration": 0.00274122916667352,
            "ticks": 64080,
            "durationTicks": 1
          },
          {
            "time": 175.789544,
            "midi": 42,
            "name": "F#2",
            "velocity": 0.9133858267716536,
            "duration": 0.0027412291666450983,
            "ticks": 64128,
            "durationTicks": 1
          },
          {
            "time": 175.789544,
            "midi": 36,
            "name": "C2",
            "velocity": 1,
            "duration": 0.0027412291666450983,
            "ticks": 64128,
            "durationTicks": 1
          },
          {
            "time": 176.052702,
            "midi": 42,
            "name": "F#2",
            "velocity": 0.3779527559055118,
            "duration": 0.0027412291666450983,
            "ticks": 64224,
            "durationTicks": 1
          },
          {
            "time": 176.184281,
            "midi": 42,
            "name": "F#2",
            "velocity": 0.5590551181102362,
            "duration": 0.00274122916667352,
            "ticks": 64272,
            "durationTicks": 1
          },
          {
            "time": 176.31586000000001,
            "midi": 40,
            "name": "E2",
            "velocity": 0.9763779527559056,
            "duration": 0.0027412291666450983,
            "ticks": 64320,
            "durationTicks": 1
          },
          {
            "time": 176.31586000000001,
            "midi": 42,
            "name": "F#2",
            "velocity": 0.9133858267716536,
            "duration": 0.0027412291666450983,
            "ticks": 64320,
            "durationTicks": 1
          },
          {
            "time": 176.31586000000001,
            "midi": 38,
            "name": "D2",
            "velocity": 0.9763779527559056,
            "duration": 0.0027412291666450983,
            "ticks": 64320,
            "durationTicks": 1
          },
          {
            "time": 176.31586000000001,
            "midi": 36,
            "name": "C2",
            "velocity": 1,
            "duration": 0.0027412291666450983,
            "ticks": 64320,
            "durationTicks": 1
          },
          {
            "time": 176.579018,
            "midi": 42,
            "name": "F#2",
            "velocity": 0.10236220472440945,
            "duration": 0.00274122916667352,
            "ticks": 64416,
            "durationTicks": 1
          },
          {
            "time": 176.710597,
            "midi": 42,
            "name": "F#2",
            "velocity": 0.5590551181102362,
            "duration": 0.0027412291666450983,
            "ticks": 64464,
            "durationTicks": 1
          },
          {
            "time": 176.842176,
            "midi": 42,
            "name": "F#2",
            "velocity": 0.7874015748031497,
            "duration": 0.00274122916667352,
            "ticks": 64512,
            "durationTicks": 1
          },
          {
            "time": 176.842176,
            "midi": 36,
            "name": "C2",
            "velocity": 1,
            "duration": 0.00274122916667352,
            "ticks": 64512,
            "durationTicks": 1
          },
          {
            "time": 177.105334,
            "midi": 42,
            "name": "F#2",
            "velocity": 0.4251968503937008,
            "duration": 0.00274122916667352,
            "ticks": 64608,
            "durationTicks": 1
          },
          {
            "time": 177.23691300000002,
            "midi": 42,
            "name": "F#2",
            "velocity": 0.6535433070866141,
            "duration": 0.0027412291666450983,
            "ticks": 64656,
            "durationTicks": 1
          },
          {
            "time": 177.368492,
            "midi": 40,
            "name": "E2",
            "velocity": 0.8818897637795275,
            "duration": 0.0027412291666450983,
            "ticks": 64704,
            "durationTicks": 1
          },
          {
            "time": 177.368492,
            "midi": 42,
            "name": "F#2",
            "velocity": 0.9133858267716536,
            "duration": 0.0027412291666450983,
            "ticks": 64704,
            "durationTicks": 1
          },
          {
            "time": 177.368492,
            "midi": 38,
            "name": "D2",
            "velocity": 0.8818897637795275,
            "duration": 0.0027412291666450983,
            "ticks": 64704,
            "durationTicks": 1
          },
          {
            "time": 177.368492,
            "midi": 36,
            "name": "C2",
            "velocity": 1,
            "duration": 0.0027412291666450983,
            "ticks": 64704,
            "durationTicks": 1
          },
          {
            "time": 177.63165,
            "midi": 42,
            "name": "F#2",
            "velocity": 0.4251968503937008,
            "duration": 0.0027412291666450983,
            "ticks": 64800,
            "durationTicks": 1
          },
          {
            "time": 177.763229,
            "midi": 42,
            "name": "F#2",
            "velocity": 0.5590551181102362,
            "duration": 0.00274122916667352,
            "ticks": 64848,
            "durationTicks": 1
          },
          {
            "time": 177.894808,
            "midi": 42,
            "name": "F#2",
            "velocity": 0.7874015748031497,
            "duration": 0.0027412291666450983,
            "ticks": 64896,
            "durationTicks": 1
          },
          {
            "time": 177.894808,
            "midi": 36,
            "name": "C2",
            "velocity": 1,
            "duration": 0.0027412291666450983,
            "ticks": 64896,
            "durationTicks": 1
          },
          {
            "time": 178.15796600000002,
            "midi": 42,
            "name": "F#2",
            "velocity": 0.5590551181102362,
            "duration": 0.0027412291666450983,
            "ticks": 64992,
            "durationTicks": 1
          },
          {
            "time": 178.289545,
            "midi": 42,
            "name": "F#2",
            "velocity": 0.5590551181102362,
            "duration": 0.0027412291666450983,
            "ticks": 65040,
            "durationTicks": 1
          },
          {
            "time": 178.421124,
            "midi": 40,
            "name": "E2",
            "velocity": 0.8818897637795275,
            "duration": 0.00274122916667352,
            "ticks": 65088,
            "durationTicks": 1
          },
          {
            "time": 178.421124,
            "midi": 42,
            "name": "F#2",
            "velocity": 0.9133858267716536,
            "duration": 0.00274122916667352,
            "ticks": 65088,
            "durationTicks": 1
          },
          {
            "time": 178.421124,
            "midi": 38,
            "name": "D2",
            "velocity": 0.8818897637795275,
            "duration": 0.00274122916667352,
            "ticks": 65088,
            "durationTicks": 1
          },
          {
            "time": 178.421124,
            "midi": 36,
            "name": "C2",
            "velocity": 1,
            "duration": 0.00274122916667352,
            "ticks": 65088,
            "durationTicks": 1
          },
          {
            "time": 178.684282,
            "midi": 46,
            "name": "A#2",
            "velocity": 0.5354330708661418,
            "duration": 0.00274122916667352,
            "ticks": 65184,
            "durationTicks": 1
          },
          {
            "time": 178.94744,
            "midi": 42,
            "name": "F#2",
            "velocity": 0.9133858267716536,
            "duration": 0.0027412291666450983,
            "ticks": 65280,
            "durationTicks": 1
          },
          {
            "time": 178.94744,
            "midi": 36,
            "name": "C2",
            "velocity": 1,
            "duration": 0.0027412291666450983,
            "ticks": 65280,
            "durationTicks": 1
          },
          {
            "time": 179.210598,
            "midi": 42,
            "name": "F#2",
            "velocity": 0.3464566929133858,
            "duration": 0.0027412291666450983,
            "ticks": 65376,
            "durationTicks": 1
          },
          {
            "time": 179.342177,
            "midi": 42,
            "name": "F#2",
            "velocity": 0.7874015748031497,
            "duration": 0.00274122916667352,
            "ticks": 65424,
            "durationTicks": 1
          },
          {
            "time": 179.473756,
            "midi": 40,
            "name": "E2",
            "velocity": 0.9763779527559056,
            "duration": 0.0027412291666450983,
            "ticks": 65472,
            "durationTicks": 1
          },
          {
            "time": 179.473756,
            "midi": 42,
            "name": "F#2",
            "velocity": 0.9133858267716536,
            "duration": 0.0027412291666450983,
            "ticks": 65472,
            "durationTicks": 1
          },
          {
            "time": 179.473756,
            "midi": 38,
            "name": "D2",
            "velocity": 0.9763779527559056,
            "duration": 0.0027412291666450983,
            "ticks": 65472,
            "durationTicks": 1
          },
          {
            "time": 179.473756,
            "midi": 36,
            "name": "C2",
            "velocity": 1,
            "duration": 0.0027412291666450983,
            "ticks": 65472,
            "durationTicks": 1
          },
          {
            "time": 179.736914,
            "midi": 42,
            "name": "F#2",
            "velocity": 0.25984251968503935,
            "duration": 0.0027412291666450983,
            "ticks": 65568,
            "durationTicks": 1
          },
          {
            "time": 179.868493,
            "midi": 42,
            "name": "F#2",
            "velocity": 0.6535433070866141,
            "duration": 0.0027412291666450983,
            "ticks": 65616,
            "durationTicks": 1
          },
          {
            "time": 180.000072,
            "midi": 42,
            "name": "F#2",
            "velocity": 0.9133858267716536,
            "duration": 0.00274122916667352,
            "ticks": 65664,
            "durationTicks": 1
          },
          {
            "time": 180.000072,
            "midi": 36,
            "name": "C2",
            "velocity": 1,
            "duration": 0.00274122916667352,
            "ticks": 65664,
            "durationTicks": 1
          },
          {
            "time": 180.26323,
            "midi": 42,
            "name": "F#2",
            "velocity": 0.5590551181102362,
            "duration": 0.00274122916667352,
            "ticks": 65760,
            "durationTicks": 1
          },
          {
            "time": 180.394809,
            "midi": 42,
            "name": "F#2",
            "velocity": 0.6535433070866141,
            "duration": 0.0027412291666450983,
            "ticks": 65808,
            "durationTicks": 1
          },
          {
            "time": 180.526388,
            "midi": 40,
            "name": "E2",
            "velocity": 0.8818897637795275,
            "duration": 0.00274122916667352,
            "ticks": 65856,
            "durationTicks": 1
          },
          {
            "time": 180.526388,
            "midi": 42,
            "name": "F#2",
            "velocity": 1,
            "duration": 0.00274122916667352,
            "ticks": 65856,
            "durationTicks": 1
          },
          {
            "time": 180.526388,
            "midi": 38,
            "name": "D2",
            "velocity": 0.8818897637795275,
            "duration": 0.00274122916667352,
            "ticks": 65856,
            "durationTicks": 1
          },
          {
            "time": 180.526388,
            "midi": 36,
            "name": "C2",
            "velocity": 1,
            "duration": 0.00274122916667352,
            "ticks": 65856,
            "durationTicks": 1
          },
          {
            "time": 180.789546,
            "midi": 42,
            "name": "F#2",
            "velocity": 0.3779527559055118,
            "duration": 0.0027412291666450983,
            "ticks": 65952,
            "durationTicks": 1
          },
          {
            "time": 180.921125,
            "midi": 42,
            "name": "F#2",
            "velocity": 0.48031496062992124,
            "duration": 0.00274122916667352,
            "ticks": 66000,
            "durationTicks": 1
          },
          {
            "time": 181.052704,
            "midi": 42,
            "name": "F#2",
            "velocity": 0.9133858267716536,
            "duration": 0.0027412291666450983,
            "ticks": 66048,
            "durationTicks": 1
          },
          {
            "time": 181.052704,
            "midi": 36,
            "name": "C2",
            "velocity": 1,
            "duration": 0.0027412291666450983,
            "ticks": 66048,
            "durationTicks": 1
          },
          {
            "time": 181.315862,
            "midi": 40,
            "name": "E2",
            "velocity": 0.8818897637795275,
            "duration": 0.0027412291666450983,
            "ticks": 66144,
            "durationTicks": 1
          },
          {
            "time": 181.315862,
            "midi": 42,
            "name": "F#2",
            "velocity": 0.5590551181102362,
            "duration": 0.0027412291666450983,
            "ticks": 66144,
            "durationTicks": 1
          },
          {
            "time": 181.315862,
            "midi": 38,
            "name": "D2",
            "velocity": 0.8818897637795275,
            "duration": 0.0027412291666450983,
            "ticks": 66144,
            "durationTicks": 1
          },
          {
            "time": 181.447441,
            "midi": 42,
            "name": "F#2",
            "velocity": 0.5590551181102362,
            "duration": 0.00274122916667352,
            "ticks": 66192,
            "durationTicks": 1
          },
          {
            "time": 181.57902,
            "midi": 42,
            "name": "F#2",
            "velocity": 0.9133858267716536,
            "duration": 0.0027412291666450983,
            "ticks": 66240,
            "durationTicks": 1
          },
          {
            "time": 181.57902,
            "midi": 36,
            "name": "C2",
            "velocity": 1,
            "duration": 0.0027412291666450983,
            "ticks": 66240,
            "durationTicks": 1
          },
          {
            "time": 181.710599,
            "midi": 40,
            "name": "E2",
            "velocity": 0.9763779527559056,
            "duration": 0.0027412291666450983,
            "ticks": 66288,
            "durationTicks": 1
          },
          {
            "time": 181.710599,
            "midi": 38,
            "name": "D2",
            "velocity": 0.9763779527559056,
            "duration": 0.0027412291666450983,
            "ticks": 66288,
            "durationTicks": 1
          },
          {
            "time": 181.842178,
            "midi": 46,
            "name": "A#2",
            "velocity": 0.5354330708661418,
            "duration": 0.00274122916667352,
            "ticks": 66336,
            "durationTicks": 1
          },
          {
            "time": 182.105336,
            "midi": 40,
            "name": "E2",
            "velocity": 0.8818897637795275,
            "duration": 0.00274122916667352,
            "ticks": 66432,
            "durationTicks": 1
          },
          {
            "time": 182.105336,
            "midi": 42,
            "name": "F#2",
            "velocity": 0.9133858267716536,
            "duration": 0.00274122916667352,
            "ticks": 66432,
            "durationTicks": 1
          },
          {
            "time": 182.105336,
            "midi": 38,
            "name": "D2",
            "velocity": 0.8818897637795275,
            "duration": 0.00274122916667352,
            "ticks": 66432,
            "durationTicks": 1
          },
          {
            "time": 182.105336,
            "midi": 36,
            "name": "C2",
            "velocity": 1,
            "duration": 0.00274122916667352,
            "ticks": 66432,
            "durationTicks": 1
          },
          {
            "time": 182.368494,
            "midi": 40,
            "name": "E2",
            "velocity": 0.5354330708661418,
            "duration": 0.00274122916667352,
            "ticks": 66528,
            "durationTicks": 1
          },
          {
            "time": 182.368494,
            "midi": 42,
            "name": "F#2",
            "velocity": 0.48031496062992124,
            "duration": 0.00274122916667352,
            "ticks": 66528,
            "durationTicks": 1
          },
          {
            "time": 182.368494,
            "midi": 38,
            "name": "D2",
            "velocity": 0.5354330708661418,
            "duration": 0.00274122916667352,
            "ticks": 66528,
            "durationTicks": 1
          },
          {
            "time": 182.50007300000001,
            "midi": 40,
            "name": "E2",
            "velocity": 0.4645669291338583,
            "duration": 0.0027412291666450983,
            "ticks": 66576,
            "durationTicks": 1
          },
          {
            "time": 182.50007300000001,
            "midi": 42,
            "name": "F#2",
            "velocity": 0.7874015748031497,
            "duration": 0.0027412291666450983,
            "ticks": 66576,
            "durationTicks": 1
          },
          {
            "time": 182.50007300000001,
            "midi": 38,
            "name": "D2",
            "velocity": 0.4645669291338583,
            "duration": 0.0027412291666450983,
            "ticks": 66576,
            "durationTicks": 1
          },
          {
            "time": 182.631652,
            "midi": 40,
            "name": "E2",
            "velocity": 0.6299212598425197,
            "duration": 0.0027412291666450983,
            "ticks": 66624,
            "durationTicks": 1
          },
          {
            "time": 182.631652,
            "midi": 42,
            "name": "F#2",
            "velocity": 0.9133858267716536,
            "duration": 0.0027412291666450983,
            "ticks": 66624,
            "durationTicks": 1
          },
          {
            "time": 182.631652,
            "midi": 38,
            "name": "D2",
            "velocity": 0.6299212598425197,
            "duration": 0.0027412291666450983,
            "ticks": 66624,
            "durationTicks": 1
          },
          {
            "time": 182.631652,
            "midi": 36,
            "name": "C2",
            "velocity": 1,
            "duration": 0.0027412291666450983,
            "ticks": 66624,
            "durationTicks": 1
          },
          {
            "time": 182.763231,
            "midi": 40,
            "name": "E2",
            "velocity": 0.6299212598425197,
            "duration": 0.00274122916667352,
            "ticks": 66672,
            "durationTicks": 1
          },
          {
            "time": 182.763231,
            "midi": 38,
            "name": "D2",
            "velocity": 0.6299212598425197,
            "duration": 0.00274122916667352,
            "ticks": 66672,
            "durationTicks": 1
          },
          {
            "time": 182.89481,
            "midi": 40,
            "name": "E2",
            "velocity": 0.7480314960629921,
            "duration": 0.0027412291666450983,
            "ticks": 66720,
            "durationTicks": 1
          },
          {
            "time": 182.89481,
            "midi": 46,
            "name": "A#2",
            "velocity": 0.7480314960629921,
            "duration": 0.0027412291666450983,
            "ticks": 66720,
            "durationTicks": 1
          },
          {
            "time": 182.89481,
            "midi": 38,
            "name": "D2",
            "velocity": 0.7480314960629921,
            "duration": 0.0027412291666450983,
            "ticks": 66720,
            "durationTicks": 1
          },
          {
            "time": 183.026389,
            "midi": 40,
            "name": "E2",
            "velocity": 0.8818897637795275,
            "duration": 0.00274122916667352,
            "ticks": 66768,
            "durationTicks": 1
          },
          {
            "time": 183.026389,
            "midi": 38,
            "name": "D2",
            "velocity": 0.8818897637795275,
            "duration": 0.00274122916667352,
            "ticks": 66768,
            "durationTicks": 1
          },
          {
            "time": 183.157968,
            "midi": 42,
            "name": "F#2",
            "velocity": 0.8818897637795275,
            "duration": 0.0027412291666450983,
            "ticks": 66816,
            "durationTicks": 1
          },
          {
            "time": 183.157968,
            "midi": 36,
            "name": "C2",
            "velocity": 1,
            "duration": 0.0027412291666450983,
            "ticks": 66816,
            "durationTicks": 1
          },
          {
            "time": 183.42112600000002,
            "midi": 42,
            "name": "F#2",
            "velocity": 0.4251968503937008,
            "duration": 0.0027412291666450983,
            "ticks": 66912,
            "durationTicks": 1
          },
          {
            "time": 183.552705,
            "midi": 42,
            "name": "F#2",
            "velocity": 0.7874015748031497,
            "duration": 0.0027412291666450983,
            "ticks": 66960,
            "durationTicks": 1
          },
          {
            "time": 183.684284,
            "midi": 42,
            "name": "F#2",
            "velocity": 0.9133858267716536,
            "duration": 0.00274122916667352,
            "ticks": 67008,
            "durationTicks": 1
          },
          {
            "time": 183.684284,
            "midi": 38,
            "name": "D2",
            "velocity": 0.8818897637795275,
            "duration": 0.00274122916667352,
            "ticks": 67008,
            "durationTicks": 1
          },
          {
            "time": 183.684284,
            "midi": 36,
            "name": "C2",
            "velocity": 1,
            "duration": 0.00274122916667352,
            "ticks": 67008,
            "durationTicks": 1
          },
          {
            "time": 183.684284,
            "midi": 39,
            "name": "D#2",
            "velocity": 0.7874015748031497,
            "duration": 0.00274122916667352,
            "ticks": 67008,
            "durationTicks": 1
          },
          {
            "time": 183.947442,
            "midi": 42,
            "name": "F#2",
            "velocity": 0.31496062992125984,
            "duration": 0.00274122916667352,
            "ticks": 67104,
            "durationTicks": 1
          },
          {
            "time": 184.079021,
            "midi": 42,
            "name": "F#2",
            "velocity": 0.6535433070866141,
            "duration": 0.0027412291666450983,
            "ticks": 67152,
            "durationTicks": 1
          },
          {
            "time": 184.2106,
            "midi": 42,
            "name": "F#2",
            "velocity": 0.9133858267716536,
            "duration": 0.00274122916667352,
            "ticks": 67200,
            "durationTicks": 1
          },
          {
            "time": 184.2106,
            "midi": 36,
            "name": "C2",
            "velocity": 1,
            "duration": 0.00274122916667352,
            "ticks": 67200,
            "durationTicks": 1
          },
          {
            "time": 184.473758,
            "midi": 42,
            "name": "F#2",
            "velocity": 0.3779527559055118,
            "duration": 0.0027412291666450983,
            "ticks": 67296,
            "durationTicks": 1
          },
          {
            "time": 184.605337,
            "midi": 42,
            "name": "F#2",
            "velocity": 0.5590551181102362,
            "duration": 0.00274122916667352,
            "ticks": 67344,
            "durationTicks": 1
          },
          {
            "time": 184.736916,
            "midi": 42,
            "name": "F#2",
            "velocity": 0.9133858267716536,
            "duration": 0.0027412291666450983,
            "ticks": 67392,
            "durationTicks": 1
          },
          {
            "time": 184.736916,
            "midi": 38,
            "name": "D2",
            "velocity": 0.9763779527559056,
            "duration": 0.0027412291666450983,
            "ticks": 67392,
            "durationTicks": 1
          },
          {
            "time": 184.736916,
            "midi": 36,
            "name": "C2",
            "velocity": 1,
            "duration": 0.0027412291666450983,
            "ticks": 67392,
            "durationTicks": 1
          },
          {
            "time": 184.736916,
            "midi": 39,
            "name": "D#2",
            "velocity": 0.9133858267716536,
            "duration": 0.0027412291666450983,
            "ticks": 67392,
            "durationTicks": 1
          },
          {
            "time": 185.000074,
            "midi": 42,
            "name": "F#2",
            "velocity": 0.10236220472440945,
            "duration": 0.0027412291666450983,
            "ticks": 67488,
            "durationTicks": 1
          },
          {
            "time": 185.131653,
            "midi": 42,
            "name": "F#2",
            "velocity": 0.5590551181102362,
            "duration": 0.0027412291666450983,
            "ticks": 67536,
            "durationTicks": 1
          },
          {
            "time": 185.26323200000002,
            "midi": 42,
            "name": "F#2",
            "velocity": 0.7874015748031497,
            "duration": 0.0027412291666450983,
            "ticks": 67584,
            "durationTicks": 1
          },
          {
            "time": 185.26323200000002,
            "midi": 36,
            "name": "C2",
            "velocity": 1,
            "duration": 0.0027412291666450983,
            "ticks": 67584,
            "durationTicks": 1
          },
          {
            "time": 185.52639,
            "midi": 42,
            "name": "F#2",
            "velocity": 0.4251968503937008,
            "duration": 0.00274122916667352,
            "ticks": 67680,
            "durationTicks": 1
          },
          {
            "time": 185.657969,
            "midi": 42,
            "name": "F#2",
            "velocity": 0.6535433070866141,
            "duration": 0.0027412291666450983,
            "ticks": 67728,
            "durationTicks": 1
          },
          {
            "time": 185.789548,
            "midi": 42,
            "name": "F#2",
            "velocity": 0.9133858267716536,
            "duration": 0.00274122916667352,
            "ticks": 67776,
            "durationTicks": 1
          },
          {
            "time": 185.789548,
            "midi": 38,
            "name": "D2",
            "velocity": 0.8818897637795275,
            "duration": 0.00274122916667352,
            "ticks": 67776,
            "durationTicks": 1
          },
          {
            "time": 185.789548,
            "midi": 36,
            "name": "C2",
            "velocity": 1,
            "duration": 0.00274122916667352,
            "ticks": 67776,
            "durationTicks": 1
          },
          {
            "time": 185.789548,
            "midi": 39,
            "name": "D#2",
            "velocity": 0.9133858267716536,
            "duration": 0.00274122916667352,
            "ticks": 67776,
            "durationTicks": 1
          },
          {
            "time": 186.052706,
            "midi": 42,
            "name": "F#2",
            "velocity": 0.4251968503937008,
            "duration": 0.0027412291666450983,
            "ticks": 67872,
            "durationTicks": 1
          },
          {
            "time": 186.184285,
            "midi": 42,
            "name": "F#2",
            "velocity": 0.5590551181102362,
            "duration": 0.00274122916667352,
            "ticks": 67920,
            "durationTicks": 1
          },
          {
            "time": 186.315864,
            "midi": 42,
            "name": "F#2",
            "velocity": 0.7874015748031497,
            "duration": 0.0027412291666450983,
            "ticks": 67968,
            "durationTicks": 1
          },
          {
            "time": 186.315864,
            "midi": 36,
            "name": "C2",
            "velocity": 1,
            "duration": 0.0027412291666450983,
            "ticks": 67968,
            "durationTicks": 1
          },
          {
            "time": 186.579022,
            "midi": 42,
            "name": "F#2",
            "velocity": 0.5590551181102362,
            "duration": 0.0027412291666450983,
            "ticks": 68064,
            "durationTicks": 1
          },
          {
            "time": 186.710601,
            "midi": 42,
            "name": "F#2",
            "velocity": 0.5590551181102362,
            "duration": 0.00274122916667352,
            "ticks": 68112,
            "durationTicks": 1
          },
          {
            "time": 186.84218,
            "midi": 42,
            "name": "F#2",
            "velocity": 0.9133858267716536,
            "duration": 0.0027412291666450983,
            "ticks": 68160,
            "durationTicks": 1
          },
          {
            "time": 186.84218,
            "midi": 38,
            "name": "D2",
            "velocity": 0.8818897637795275,
            "duration": 0.0027412291666450983,
            "ticks": 68160,
            "durationTicks": 1
          },
          {
            "time": 186.84218,
            "midi": 36,
            "name": "C2",
            "velocity": 1,
            "duration": 0.0027412291666450983,
            "ticks": 68160,
            "durationTicks": 1
          },
          {
            "time": 186.84218,
            "midi": 39,
            "name": "D#2",
            "velocity": 0.7874015748031497,
            "duration": 0.0027412291666450983,
            "ticks": 68160,
            "durationTicks": 1
          },
          {
            "time": 187.105338,
            "midi": 46,
            "name": "A#2",
            "velocity": 0.5354330708661418,
            "duration": 0.00274122916667352,
            "ticks": 68256,
            "durationTicks": 1
          },
          {
            "time": 187.368496,
            "midi": 42,
            "name": "F#2",
            "velocity": 0.9133858267716536,
            "duration": 0.00274122916667352,
            "ticks": 68352,
            "durationTicks": 1
          },
          {
            "time": 187.368496,
            "midi": 36,
            "name": "C2",
            "velocity": 1,
            "duration": 0.00274122916667352,
            "ticks": 68352,
            "durationTicks": 1
          },
          {
            "time": 187.631654,
            "midi": 42,
            "name": "F#2",
            "velocity": 0.3464566929133858,
            "duration": 0.00274122916667352,
            "ticks": 68448,
            "durationTicks": 1
          },
          {
            "time": 187.763233,
            "midi": 42,
            "name": "F#2",
            "velocity": 0.7874015748031497,
            "duration": 0.0027412291666450983,
            "ticks": 68496,
            "durationTicks": 1
          },
          {
            "time": 187.894812,
            "midi": 42,
            "name": "F#2",
            "velocity": 0.9133858267716536,
            "duration": 0.0027412291666450983,
            "ticks": 68544,
            "durationTicks": 1
          },
          {
            "time": 187.894812,
            "midi": 38,
            "name": "D2",
            "velocity": 0.9763779527559056,
            "duration": 0.0027412291666450983,
            "ticks": 68544,
            "durationTicks": 1
          },
          {
            "time": 187.894812,
            "midi": 36,
            "name": "C2",
            "velocity": 1,
            "duration": 0.0027412291666450983,
            "ticks": 68544,
            "durationTicks": 1
          },
          {
            "time": 187.894812,
            "midi": 39,
            "name": "D#2",
            "velocity": 0.7874015748031497,
            "duration": 0.0027412291666450983,
            "ticks": 68544,
            "durationTicks": 1
          },
          {
            "time": 188.15797,
            "midi": 42,
            "name": "F#2",
            "velocity": 0.25984251968503935,
            "duration": 0.0027412291666450983,
            "ticks": 68640,
            "durationTicks": 1
          },
          {
            "time": 188.289549,
            "midi": 42,
            "name": "F#2",
            "velocity": 0.6535433070866141,
            "duration": 0.00274122916667352,
            "ticks": 68688,
            "durationTicks": 1
          },
          {
            "time": 188.421128,
            "midi": 42,
            "name": "F#2",
            "velocity": 0.9133858267716536,
            "duration": 0.0027412291666450983,
            "ticks": 68736,
            "durationTicks": 1
          },
          {
            "time": 188.421128,
            "midi": 36,
            "name": "C2",
            "velocity": 1,
            "duration": 0.0027412291666450983,
            "ticks": 68736,
            "durationTicks": 1
          },
          {
            "time": 188.68428600000001,
            "midi": 42,
            "name": "F#2",
            "velocity": 0.5590551181102362,
            "duration": 0.0027412291666450983,
            "ticks": 68832,
            "durationTicks": 1
          },
          {
            "time": 188.815865,
            "midi": 42,
            "name": "F#2",
            "velocity": 0.6535433070866141,
            "duration": 0.0027412291666450983,
            "ticks": 68880,
            "durationTicks": 1
          },
          {
            "time": 188.947444,
            "midi": 42,
            "name": "F#2",
            "velocity": 1,
            "duration": 0.00274122916667352,
            "ticks": 68928,
            "durationTicks": 1
          },
          {
            "time": 188.947444,
            "midi": 38,
            "name": "D2",
            "velocity": 0.8818897637795275,
            "duration": 0.00274122916667352,
            "ticks": 68928,
            "durationTicks": 1
          },
          {
            "time": 188.947444,
            "midi": 36,
            "name": "C2",
            "velocity": 1,
            "duration": 0.00274122916667352,
            "ticks": 68928,
            "durationTicks": 1
          },
          {
            "time": 188.947444,
            "midi": 39,
            "name": "D#2",
            "velocity": 0.9133858267716536,
            "duration": 0.00274122916667352,
            "ticks": 68928,
            "durationTicks": 1
          },
          {
            "time": 189.210602,
            "midi": 42,
            "name": "F#2",
            "velocity": 0.3779527559055118,
            "duration": 0.00274122916667352,
            "ticks": 69024,
            "durationTicks": 1
          },
          {
            "time": 189.342181,
            "midi": 42,
            "name": "F#2",
            "velocity": 0.48031496062992124,
            "duration": 0.0027412291666450983,
            "ticks": 69072,
            "durationTicks": 1
          },
          {
            "time": 189.47376,
            "midi": 42,
            "name": "F#2",
            "velocity": 0.9133858267716536,
            "duration": 0.00274122916667352,
            "ticks": 69120,
            "durationTicks": 1
          },
          {
            "time": 189.47376,
            "midi": 36,
            "name": "C2",
            "velocity": 1,
            "duration": 0.00274122916667352,
            "ticks": 69120,
            "durationTicks": 1
          },
          {
            "time": 189.736918,
            "midi": 42,
            "name": "F#2",
            "velocity": 0.5590551181102362,
            "duration": 0.0027412291666450983,
            "ticks": 69216,
            "durationTicks": 1
          },
          {
            "time": 189.868497,
            "midi": 42,
            "name": "F#2",
            "velocity": 0.5590551181102362,
            "duration": 0.00274122916667352,
            "ticks": 69264,
            "durationTicks": 1
          },
          {
            "time": 190.000076,
            "midi": 42,
            "name": "F#2",
            "velocity": 0.9133858267716536,
            "duration": 0.0027412291666450983,
            "ticks": 69312,
            "durationTicks": 1
          },
          {
            "time": 190.000076,
            "midi": 38,
            "name": "D2",
            "velocity": 0.9763779527559056,
            "duration": 0.0027412291666450983,
            "ticks": 69312,
            "durationTicks": 1
          },
          {
            "time": 190.000076,
            "midi": 36,
            "name": "C2",
            "velocity": 1,
            "duration": 0.0027412291666450983,
            "ticks": 69312,
            "durationTicks": 1
          },
          {
            "time": 190.000076,
            "midi": 39,
            "name": "D#2",
            "velocity": 0.7874015748031497,
            "duration": 0.0027412291666450983,
            "ticks": 69312,
            "durationTicks": 1
          },
          {
            "time": 190.263234,
            "midi": 46,
            "name": "A#2",
            "velocity": 0.5354330708661418,
            "duration": 0.0027412291666450983,
            "ticks": 69408,
            "durationTicks": 1
          },
          {
            "time": 190.52639200000002,
            "midi": 42,
            "name": "F#2",
            "velocity": 0.9133858267716536,
            "duration": 0.0027412291666450983,
            "ticks": 69504,
            "durationTicks": 1
          },
          {
            "time": 190.52639200000002,
            "midi": 36,
            "name": "C2",
            "velocity": 1,
            "duration": 0.0027412291666450983,
            "ticks": 69504,
            "durationTicks": 1
          },
          {
            "time": 190.78955,
            "midi": 42,
            "name": "F#2",
            "velocity": 0.48031496062992124,
            "duration": 0.00274122916667352,
            "ticks": 69600,
            "durationTicks": 1
          },
          {
            "time": 190.921129,
            "midi": 42,
            "name": "F#2",
            "velocity": 0.7874015748031497,
            "duration": 0.0027412291666450983,
            "ticks": 69648,
            "durationTicks": 1
          },
          {
            "time": 191.052708,
            "midi": 42,
            "name": "F#2",
            "velocity": 0.9133858267716536,
            "duration": 0.00274122916667352,
            "ticks": 69696,
            "durationTicks": 1
          },
          {
            "time": 191.052708,
            "midi": 38,
            "name": "D2",
            "velocity": 0.984251968503937,
            "duration": 0.00274122916667352,
            "ticks": 69696,
            "durationTicks": 1
          },
          {
            "time": 191.052708,
            "midi": 36,
            "name": "C2",
            "velocity": 1,
            "duration": 0.00274122916667352,
            "ticks": 69696,
            "durationTicks": 1
          },
          {
            "time": 191.052708,
            "midi": 39,
            "name": "D#2",
            "velocity": 0.984251968503937,
            "duration": 0.00274122916667352,
            "ticks": 69696,
            "durationTicks": 1
          },
          {
            "time": 191.184287,
            "midi": 39,
            "name": "D#2",
            "velocity": 0.8267716535433071,
            "duration": 0.0027412291666450983,
            "ticks": 69744,
            "durationTicks": 1
          },
          {
            "time": 191.315866,
            "midi": 46,
            "name": "A#2",
            "velocity": 0.7480314960629921,
            "duration": 0.0027412291666450983,
            "ticks": 69792,
            "durationTicks": 1
          },
          {
            "time": 191.315866,
            "midi": 39,
            "name": "D#2",
            "velocity": 0.6692913385826772,
            "duration": 0.0027412291666450983,
            "ticks": 69792,
            "durationTicks": 1
          },
          {
            "time": 191.44744500000002,
            "midi": 39,
            "name": "D#2",
            "velocity": 0.5118110236220472,
            "duration": 0.0027412291666450983,
            "ticks": 69840,
            "durationTicks": 1
          },
          {
            "time": 191.579024,
            "midi": 42,
            "name": "F#2",
            "velocity": 0.8818897637795275,
            "duration": 0.0027412291666450983,
            "ticks": 69888,
            "durationTicks": 1
          },
          {
            "time": 191.579024,
            "midi": 36,
            "name": "C2",
            "velocity": 1,
            "duration": 0.0027412291666450983,
            "ticks": 69888,
            "durationTicks": 1
          },
          {
            "time": 191.842182,
            "midi": 42,
            "name": "F#2",
            "velocity": 0.4251968503937008,
            "duration": 0.0027412291666450983,
            "ticks": 69984,
            "durationTicks": 1
          },
          {
            "time": 191.973761,
            "midi": 42,
            "name": "F#2",
            "velocity": 0.7874015748031497,
            "duration": 0.00274122916667352,
            "ticks": 70032,
            "durationTicks": 1
          },
          {
            "time": 192.10534,
            "midi": 42,
            "name": "F#2",
            "velocity": 0.9133858267716536,
            "duration": 0.0027412291666450983,
            "ticks": 70080,
            "durationTicks": 1
          },
          {
            "time": 192.10534,
            "midi": 38,
            "name": "D2",
            "velocity": 0.8818897637795275,
            "duration": 0.0027412291666450983,
            "ticks": 70080,
            "durationTicks": 1
          },
          {
            "time": 192.10534,
            "midi": 36,
            "name": "C2",
            "velocity": 1,
            "duration": 0.0027412291666450983,
            "ticks": 70080,
            "durationTicks": 1
          },
          {
            "time": 192.10534,
            "midi": 39,
            "name": "D#2",
            "velocity": 0.7874015748031497,
            "duration": 0.0027412291666450983,
            "ticks": 70080,
            "durationTicks": 1
          },
          {
            "time": 192.368498,
            "midi": 42,
            "name": "F#2",
            "velocity": 0.31496062992125984,
            "duration": 0.00274122916667352,
            "ticks": 70176,
            "durationTicks": 1
          },
          {
            "time": 192.500077,
            "midi": 42,
            "name": "F#2",
            "velocity": 0.6535433070866141,
            "duration": 0.0027412291666450983,
            "ticks": 70224,
            "durationTicks": 1
          },
          {
            "time": 192.631656,
            "midi": 42,
            "name": "F#2",
            "velocity": 0.9133858267716536,
            "duration": 0.00274122916667352,
            "ticks": 70272,
            "durationTicks": 1
          },
          {
            "time": 192.631656,
            "midi": 36,
            "name": "C2",
            "velocity": 1,
            "duration": 0.00274122916667352,
            "ticks": 70272,
            "durationTicks": 1
          },
          {
            "time": 192.894814,
            "midi": 42,
            "name": "F#2",
            "velocity": 0.3779527559055118,
            "duration": 0.00274122916667352,
            "ticks": 70368,
            "durationTicks": 1
          },
          {
            "time": 193.026393,
            "midi": 42,
            "name": "F#2",
            "velocity": 0.5590551181102362,
            "duration": 0.0027412291666450983,
            "ticks": 70416,
            "durationTicks": 1
          },
          {
            "time": 193.157972,
            "midi": 42,
            "name": "F#2",
            "velocity": 0.9133858267716536,
            "duration": 0.0027412291666450983,
            "ticks": 70464,
            "durationTicks": 1
          },
          {
            "time": 193.157972,
            "midi": 38,
            "name": "D2",
            "velocity": 0.9763779527559056,
            "duration": 0.0027412291666450983,
            "ticks": 70464,
            "durationTicks": 1
          },
          {
            "time": 193.157972,
            "midi": 36,
            "name": "C2",
            "velocity": 1,
            "duration": 0.0027412291666450983,
            "ticks": 70464,
            "durationTicks": 1
          },
          {
            "time": 193.157972,
            "midi": 39,
            "name": "D#2",
            "velocity": 0.9133858267716536,
            "duration": 0.0027412291666450983,
            "ticks": 70464,
            "durationTicks": 1
          },
          {
            "time": 193.42113,
            "midi": 42,
            "name": "F#2",
            "velocity": 0.10236220472440945,
            "duration": 0.0027412291666450983,
            "ticks": 70560,
            "durationTicks": 1
          },
          {
            "time": 193.552709,
            "midi": 42,
            "name": "F#2",
            "velocity": 0.5590551181102362,
            "duration": 0.00274122916667352,
            "ticks": 70608,
            "durationTicks": 1
          },
          {
            "time": 193.684288,
            "midi": 42,
            "name": "F#2",
            "velocity": 0.7874015748031497,
            "duration": 0.0027412291666450983,
            "ticks": 70656,
            "durationTicks": 1
          },
          {
            "time": 193.684288,
            "midi": 36,
            "name": "C2",
            "velocity": 1,
            "duration": 0.0027412291666450983,
            "ticks": 70656,
            "durationTicks": 1
          },
          {
            "time": 193.947446,
            "midi": 42,
            "name": "F#2",
            "velocity": 0.4251968503937008,
            "duration": 0.0027412291666450983,
            "ticks": 70752,
            "durationTicks": 1
          },
          {
            "time": 194.079025,
            "midi": 42,
            "name": "F#2",
            "velocity": 0.6535433070866141,
            "duration": 0.0027412291666450983,
            "ticks": 70800,
            "durationTicks": 1
          },
          {
            "time": 194.210604,
            "midi": 42,
            "name": "F#2",
            "velocity": 0.9133858267716536,
            "duration": 0.00274122916667352,
            "ticks": 70848,
            "durationTicks": 1
          },
          {
            "time": 194.210604,
            "midi": 38,
            "name": "D2",
            "velocity": 0.8818897637795275,
            "duration": 0.00274122916667352,
            "ticks": 70848,
            "durationTicks": 1
          },
          {
            "time": 194.210604,
            "midi": 36,
            "name": "C2",
            "velocity": 1,
            "duration": 0.00274122916667352,
            "ticks": 70848,
            "durationTicks": 1
          },
          {
            "time": 194.210604,
            "midi": 39,
            "name": "D#2",
            "velocity": 0.9133858267716536,
            "duration": 0.00274122916667352,
            "ticks": 70848,
            "durationTicks": 1
          },
          {
            "time": 194.473762,
            "midi": 42,
            "name": "F#2",
            "velocity": 0.4251968503937008,
            "duration": 0.00274122916667352,
            "ticks": 70944,
            "durationTicks": 1
          },
          {
            "time": 194.605341,
            "midi": 42,
            "name": "F#2",
            "velocity": 0.5590551181102362,
            "duration": 0.0027412291666450983,
            "ticks": 70992,
            "durationTicks": 1
          },
          {
            "time": 194.73692,
            "midi": 42,
            "name": "F#2",
            "velocity": 0.7874015748031497,
            "duration": 0.00274122916667352,
            "ticks": 71040,
            "durationTicks": 1
          },
          {
            "time": 194.73692,
            "midi": 36,
            "name": "C2",
            "velocity": 1,
            "duration": 0.00274122916667352,
            "ticks": 71040,
            "durationTicks": 1
          },
          {
            "time": 195.000078,
            "midi": 42,
            "name": "F#2",
            "velocity": 0.5590551181102362,
            "duration": 0.0027412291666450983,
            "ticks": 71136,
            "durationTicks": 1
          },
          {
            "time": 195.131657,
            "midi": 42,
            "name": "F#2",
            "velocity": 0.5590551181102362,
            "duration": 0.00274122916667352,
            "ticks": 71184,
            "durationTicks": 1
          },
          {
            "time": 195.263236,
            "midi": 42,
            "name": "F#2",
            "velocity": 0.9133858267716536,
            "duration": 0.0027412291666450983,
            "ticks": 71232,
            "durationTicks": 1
          },
          {
            "time": 195.263236,
            "midi": 38,
            "name": "D2",
            "velocity": 0.8818897637795275,
            "duration": 0.0027412291666450983,
            "ticks": 71232,
            "durationTicks": 1
          },
          {
            "time": 195.263236,
            "midi": 36,
            "name": "C2",
            "velocity": 1,
            "duration": 0.0027412291666450983,
            "ticks": 71232,
            "durationTicks": 1
          },
          {
            "time": 195.263236,
            "midi": 39,
            "name": "D#2",
            "velocity": 0.7874015748031497,
            "duration": 0.0027412291666450983,
            "ticks": 71232,
            "durationTicks": 1
          },
          {
            "time": 195.526394,
            "midi": 46,
            "name": "A#2",
            "velocity": 0.5354330708661418,
            "duration": 0.0027412291666450983,
            "ticks": 71328,
            "durationTicks": 1
          },
          {
            "time": 195.78955200000001,
            "midi": 42,
            "name": "F#2",
            "velocity": 0.9133858267716536,
            "duration": 0.0027412291666450983,
            "ticks": 71424,
            "durationTicks": 1
          },
          {
            "time": 195.78955200000001,
            "midi": 36,
            "name": "C2",
            "velocity": 1,
            "duration": 0.0027412291666450983,
            "ticks": 71424,
            "durationTicks": 1
          },
          {
            "time": 196.05271,
            "midi": 42,
            "name": "F#2",
            "velocity": 0.3464566929133858,
            "duration": 0.00274122916667352,
            "ticks": 71520,
            "durationTicks": 1
          },
          {
            "time": 196.184289,
            "midi": 42,
            "name": "F#2",
            "velocity": 0.7874015748031497,
            "duration": 0.0027412291666450983,
            "ticks": 71568,
            "durationTicks": 1
          },
          {
            "time": 196.315868,
            "midi": 42,
            "name": "F#2",
            "velocity": 0.9133858267716536,
            "duration": 0.00274122916667352,
            "ticks": 71616,
            "durationTicks": 1
          },
          {
            "time": 196.315868,
            "midi": 38,
            "name": "D2",
            "velocity": 0.9763779527559056,
            "duration": 0.00274122916667352,
            "ticks": 71616,
            "durationTicks": 1
          },
          {
            "time": 196.315868,
            "midi": 36,
            "name": "C2",
            "velocity": 1,
            "duration": 0.00274122916667352,
            "ticks": 71616,
            "durationTicks": 1
          },
          {
            "time": 196.315868,
            "midi": 39,
            "name": "D#2",
            "velocity": 0.7874015748031497,
            "duration": 0.00274122916667352,
            "ticks": 71616,
            "durationTicks": 1
          },
          {
            "time": 196.579026,
            "midi": 42,
            "name": "F#2",
            "velocity": 0.25984251968503935,
            "duration": 0.00274122916667352,
            "ticks": 71712,
            "durationTicks": 1
          },
          {
            "time": 196.71060500000002,
            "midi": 42,
            "name": "F#2",
            "velocity": 0.6535433070866141,
            "duration": 0.0027412291666450983,
            "ticks": 71760,
            "durationTicks": 1
          },
          {
            "time": 196.842184,
            "midi": 42,
            "name": "F#2",
            "velocity": 0.9133858267716536,
            "duration": 0.0027412291666450983,
            "ticks": 71808,
            "durationTicks": 1
          },
          {
            "time": 196.842184,
            "midi": 36,
            "name": "C2",
            "velocity": 1,
            "duration": 0.0027412291666450983,
            "ticks": 71808,
            "durationTicks": 1
          },
          {
            "time": 197.105342,
            "midi": 42,
            "name": "F#2",
            "velocity": 0.5590551181102362,
            "duration": 0.0027412291666450983,
            "ticks": 71904,
            "durationTicks": 1
          },
          {
            "time": 197.236921,
            "midi": 42,
            "name": "F#2",
            "velocity": 0.6535433070866141,
            "duration": 0.00274122916667352,
            "ticks": 71952,
            "durationTicks": 1
          },
          {
            "time": 197.3685,
            "midi": 42,
            "name": "F#2",
            "velocity": 1,
            "duration": 0.0027412291666450983,
            "ticks": 72000,
            "durationTicks": 1
          },
          {
            "time": 197.3685,
            "midi": 38,
            "name": "D2",
            "velocity": 0.8818897637795275,
            "duration": 0.0027412291666450983,
            "ticks": 72000,
            "durationTicks": 1
          },
          {
            "time": 197.3685,
            "midi": 36,
            "name": "C2",
            "velocity": 1,
            "duration": 0.0027412291666450983,
            "ticks": 72000,
            "durationTicks": 1
          },
          {
            "time": 197.3685,
            "midi": 39,
            "name": "D#2",
            "velocity": 0.9133858267716536,
            "duration": 0.0027412291666450983,
            "ticks": 72000,
            "durationTicks": 1
          },
          {
            "time": 197.63165800000002,
            "midi": 42,
            "name": "F#2",
            "velocity": 0.3779527559055118,
            "duration": 0.0027412291666450983,
            "ticks": 72096,
            "durationTicks": 1
          },
          {
            "time": 197.763237,
            "midi": 42,
            "name": "F#2",
            "velocity": 0.48031496062992124,
            "duration": 0.0027412291666450983,
            "ticks": 72144,
            "durationTicks": 1
          },
          {
            "time": 197.894816,
            "midi": 42,
            "name": "F#2",
            "velocity": 0.9133858267716536,
            "duration": 0.00274122916667352,
            "ticks": 72192,
            "durationTicks": 1
          },
          {
            "time": 197.894816,
            "midi": 36,
            "name": "C2",
            "velocity": 1,
            "duration": 0.00274122916667352,
            "ticks": 72192,
            "durationTicks": 1
          },
          {
            "time": 198.157974,
            "midi": 42,
            "name": "F#2",
            "velocity": 0.5590551181102362,
            "duration": 0.00274122916667352,
            "ticks": 72288,
            "durationTicks": 1
          },
          {
            "time": 198.289553,
            "midi": 42,
            "name": "F#2",
            "velocity": 0.5590551181102362,
            "duration": 0.0027412291666450983,
            "ticks": 72336,
            "durationTicks": 1
          },
          {
            "time": 198.421132,
            "midi": 42,
            "name": "F#2",
            "velocity": 0.9133858267716536,
            "duration": 0.0027412291666450983,
            "ticks": 72384,
            "durationTicks": 1
          },
          {
            "time": 198.421132,
            "midi": 38,
            "name": "D2",
            "velocity": 0.9763779527559056,
            "duration": 0.0027412291666450983,
            "ticks": 72384,
            "durationTicks": 1
          },
          {
            "time": 198.421132,
            "midi": 36,
            "name": "C2",
            "velocity": 1,
            "duration": 0.0027412291666450983,
            "ticks": 72384,
            "durationTicks": 1
          },
          {
            "time": 198.421132,
            "midi": 39,
            "name": "D#2",
            "velocity": 0.7874015748031497,
            "duration": 0.0027412291666450983,
            "ticks": 72384,
            "durationTicks": 1
          },
          {
            "time": 198.68429,
            "midi": 46,
            "name": "A#2",
            "velocity": 0.5354330708661418,
            "duration": 0.0027412291666450983,
            "ticks": 72480,
            "durationTicks": 1
          },
          {
            "time": 198.947448,
            "midi": 42,
            "name": "F#2",
            "velocity": 0.9133858267716536,
            "duration": 0.0027412291666450983,
            "ticks": 72576,
            "durationTicks": 1
          },
          {
            "time": 198.947448,
            "midi": 36,
            "name": "C2",
            "velocity": 1,
            "duration": 0.0027412291666450983,
            "ticks": 72576,
            "durationTicks": 1
          },
          {
            "time": 199.210606,
            "midi": 42,
            "name": "F#2",
            "velocity": 0.48031496062992124,
            "duration": 0.0027412291666450983,
            "ticks": 72672,
            "durationTicks": 1
          },
          {
            "time": 199.342185,
            "midi": 42,
            "name": "F#2",
            "velocity": 0.7874015748031497,
            "duration": 0.0027412291666450983,
            "ticks": 72720,
            "durationTicks": 1
          },
          {
            "time": 199.473764,
            "midi": 42,
            "name": "F#2",
            "velocity": 0.9133858267716536,
            "duration": 0.00274122916667352,
            "ticks": 72768,
            "durationTicks": 1
          },
          {
            "time": 199.473764,
            "midi": 38,
            "name": "D2",
            "velocity": 0.984251968503937,
            "duration": 0.00274122916667352,
            "ticks": 72768,
            "durationTicks": 1
          },
          {
            "time": 199.473764,
            "midi": 36,
            "name": "C2",
            "velocity": 1,
            "duration": 0.00274122916667352,
            "ticks": 72768,
            "durationTicks": 1
          },
          {
            "time": 199.473764,
            "midi": 39,
            "name": "D#2",
            "velocity": 0.984251968503937,
            "duration": 0.00274122916667352,
            "ticks": 72768,
            "durationTicks": 1
          },
          {
            "time": 199.605343,
            "midi": 39,
            "name": "D#2",
            "velocity": 0.8267716535433071,
            "duration": 0.0027412291666450983,
            "ticks": 72816,
            "durationTicks": 1
          },
          {
            "time": 199.736922,
            "midi": 46,
            "name": "A#2",
            "velocity": 0.7480314960629921,
            "duration": 0.00274122916667352,
            "ticks": 72864,
            "durationTicks": 1
          },
          {
            "time": 199.736922,
            "midi": 39,
            "name": "D#2",
            "velocity": 0.6692913385826772,
            "duration": 0.00274122916667352,
            "ticks": 72864,
            "durationTicks": 1
          },
          {
            "time": 199.868501,
            "midi": 39,
            "name": "D#2",
            "velocity": 0.5118110236220472,
            "duration": 0.0027412291666450983,
            "ticks": 72912,
            "durationTicks": 1
          },
          {
            "time": 200.00008,
            "midi": 42,
            "name": "F#2",
            "velocity": 0.8818897637795275,
            "duration": 0.00274122916667352,
            "ticks": 72960,
            "durationTicks": 1
          },
          {
            "time": 200.00008,
            "midi": 36,
            "name": "C2",
            "velocity": 1,
            "duration": 0.00274122916667352,
            "ticks": 72960,
            "durationTicks": 1
          },
          {
            "time": 200.263238,
            "midi": 42,
            "name": "F#2",
            "velocity": 0.4251968503937008,
            "duration": 0.0027412291666450983,
            "ticks": 73056,
            "durationTicks": 1
          },
          {
            "time": 200.394817,
            "midi": 42,
            "name": "F#2",
            "velocity": 0.7874015748031497,
            "duration": 0.00274122916667352,
            "ticks": 73104,
            "durationTicks": 1
          },
          {
            "time": 200.526396,
            "midi": 42,
            "name": "F#2",
            "velocity": 0.9133858267716536,
            "duration": 0.0027412291666450983,
            "ticks": 73152,
            "durationTicks": 1
          },
          {
            "time": 200.526396,
            "midi": 38,
            "name": "D2",
            "velocity": 0.8818897637795275,
            "duration": 0.0027412291666450983,
            "ticks": 73152,
            "durationTicks": 1
          },
          {
            "time": 200.526396,
            "midi": 36,
            "name": "C2",
            "velocity": 1,
            "duration": 0.0027412291666450983,
            "ticks": 73152,
            "durationTicks": 1
          },
          {
            "time": 200.526396,
            "midi": 39,
            "name": "D#2",
            "velocity": 0.7874015748031497,
            "duration": 0.0027412291666450983,
            "ticks": 73152,
            "durationTicks": 1
          },
          {
            "time": 200.789554,
            "midi": 42,
            "name": "F#2",
            "velocity": 0.31496062992125984,
            "duration": 0.0027412291666450983,
            "ticks": 73248,
            "durationTicks": 1
          },
          {
            "time": 200.921133,
            "midi": 42,
            "name": "F#2",
            "velocity": 0.6535433070866141,
            "duration": 0.00274122916667352,
            "ticks": 73296,
            "durationTicks": 1
          },
          {
            "time": 201.052712,
            "midi": 42,
            "name": "F#2",
            "velocity": 0.9133858267716536,
            "duration": 0.0027412291666450983,
            "ticks": 73344,
            "durationTicks": 1
          },
          {
            "time": 201.052712,
            "midi": 36,
            "name": "C2",
            "velocity": 1,
            "duration": 0.0027412291666450983,
            "ticks": 73344,
            "durationTicks": 1
          },
          {
            "time": 201.31587,
            "midi": 42,
            "name": "F#2",
            "velocity": 0.3779527559055118,
            "duration": 0.00274122916667352,
            "ticks": 73440,
            "durationTicks": 1
          },
          {
            "time": 201.447449,
            "midi": 42,
            "name": "F#2",
            "velocity": 0.5590551181102362,
            "duration": 0.0027412291666450983,
            "ticks": 73488,
            "durationTicks": 1
          },
          {
            "time": 201.579028,
            "midi": 42,
            "name": "F#2",
            "velocity": 0.9133858267716536,
            "duration": 0.00274122916667352,
            "ticks": 73536,
            "durationTicks": 1
          },
          {
            "time": 201.579028,
            "midi": 38,
            "name": "D2",
            "velocity": 0.9763779527559056,
            "duration": 0.00274122916667352,
            "ticks": 73536,
            "durationTicks": 1
          },
          {
            "time": 201.579028,
            "midi": 36,
            "name": "C2",
            "velocity": 1,
            "duration": 0.00274122916667352,
            "ticks": 73536,
            "durationTicks": 1
          },
          {
            "time": 201.579028,
            "midi": 39,
            "name": "D#2",
            "velocity": 0.9133858267716536,
            "duration": 0.00274122916667352,
            "ticks": 73536,
            "durationTicks": 1
          },
          {
            "time": 201.842186,
            "midi": 42,
            "name": "F#2",
            "velocity": 0.10236220472440945,
            "duration": 0.00274122916667352,
            "ticks": 73632,
            "durationTicks": 1
          },
          {
            "time": 201.97376500000001,
            "midi": 42,
            "name": "F#2",
            "velocity": 0.5590551181102362,
            "duration": 0.0027412291666450983,
            "ticks": 73680,
            "durationTicks": 1
          },
          {
            "time": 202.105344,
            "midi": 42,
            "name": "F#2",
            "velocity": 0.7874015748031497,
            "duration": 0.0027412291666450983,
            "ticks": 73728,
            "durationTicks": 1
          },
          {
            "time": 202.105344,
            "midi": 36,
            "name": "C2",
            "velocity": 1,
            "duration": 0.0027412291666450983,
            "ticks": 73728,
            "durationTicks": 1
          },
          {
            "time": 202.368502,
            "midi": 42,
            "name": "F#2",
            "velocity": 0.4251968503937008,
            "duration": 0.0027412291666450983,
            "ticks": 73824,
            "durationTicks": 1
          },
          {
            "time": 202.500081,
            "midi": 42,
            "name": "F#2",
            "velocity": 0.6535433070866141,
            "duration": 0.00274122916667352,
            "ticks": 73872,
            "durationTicks": 1
          },
          {
            "time": 202.63166,
            "midi": 42,
            "name": "F#2",
            "velocity": 0.9133858267716536,
            "duration": 0.0027412291666450983,
            "ticks": 73920,
            "durationTicks": 1
          },
          {
            "time": 202.63166,
            "midi": 38,
            "name": "D2",
            "velocity": 0.8818897637795275,
            "duration": 0.0027412291666450983,
            "ticks": 73920,
            "durationTicks": 1
          },
          {
            "time": 202.63166,
            "midi": 36,
            "name": "C2",
            "velocity": 1,
            "duration": 0.0027412291666450983,
            "ticks": 73920,
            "durationTicks": 1
          },
          {
            "time": 202.63166,
            "midi": 39,
            "name": "D#2",
            "velocity": 0.9133858267716536,
            "duration": 0.0027412291666450983,
            "ticks": 73920,
            "durationTicks": 1
          },
          {
            "time": 202.89481800000001,
            "midi": 42,
            "name": "F#2",
            "velocity": 0.4251968503937008,
            "duration": 0.0027412291666450983,
            "ticks": 74016,
            "durationTicks": 1
          },
          {
            "time": 203.026397,
            "midi": 42,
            "name": "F#2",
            "velocity": 0.5590551181102362,
            "duration": 0.0027412291666450983,
            "ticks": 74064,
            "durationTicks": 1
          },
          {
            "time": 203.157976,
            "midi": 42,
            "name": "F#2",
            "velocity": 0.7874015748031497,
            "duration": 0.00274122916667352,
            "ticks": 74112,
            "durationTicks": 1
          },
          {
            "time": 203.157976,
            "midi": 36,
            "name": "C2",
            "velocity": 1,
            "duration": 0.00274122916667352,
            "ticks": 74112,
            "durationTicks": 1
          },
          {
            "time": 203.421134,
            "midi": 42,
            "name": "F#2",
            "velocity": 0.5590551181102362,
            "duration": 0.00274122916667352,
            "ticks": 74208,
            "durationTicks": 1
          },
          {
            "time": 203.552713,
            "midi": 42,
            "name": "F#2",
            "velocity": 0.5590551181102362,
            "duration": 0.0027412291666450983,
            "ticks": 74256,
            "durationTicks": 1
          },
          {
            "time": 203.684292,
            "midi": 42,
            "name": "F#2",
            "velocity": 0.9133858267716536,
            "duration": 0.00274122916667352,
            "ticks": 74304,
            "durationTicks": 1
          },
          {
            "time": 203.684292,
            "midi": 38,
            "name": "D2",
            "velocity": 0.8818897637795275,
            "duration": 0.00274122916667352,
            "ticks": 74304,
            "durationTicks": 1
          },
          {
            "time": 203.684292,
            "midi": 36,
            "name": "C2",
            "velocity": 1,
            "duration": 0.00274122916667352,
            "ticks": 74304,
            "durationTicks": 1
          },
          {
            "time": 203.684292,
            "midi": 39,
            "name": "D#2",
            "velocity": 0.7874015748031497,
            "duration": 0.00274122916667352,
            "ticks": 74304,
            "durationTicks": 1
          },
          {
            "time": 203.94745,
            "midi": 46,
            "name": "A#2",
            "velocity": 0.5354330708661418,
            "duration": 0.0027412291666450983,
            "ticks": 74400,
            "durationTicks": 1
          },
          {
            "time": 204.210608,
            "midi": 42,
            "name": "F#2",
            "velocity": 0.9133858267716536,
            "duration": 0.0027412291666450983,
            "ticks": 74496,
            "durationTicks": 1
          },
          {
            "time": 204.210608,
            "midi": 36,
            "name": "C2",
            "velocity": 1,
            "duration": 0.0027412291666450983,
            "ticks": 74496,
            "durationTicks": 1
          },
          {
            "time": 204.473766,
            "midi": 42,
            "name": "F#2",
            "velocity": 0.3464566929133858,
            "duration": 0.0027412291666450983,
            "ticks": 74592,
            "durationTicks": 1
          },
          {
            "time": 204.605345,
            "midi": 42,
            "name": "F#2",
            "velocity": 0.7874015748031497,
            "duration": 0.0027412291666450983,
            "ticks": 74640,
            "durationTicks": 1
          },
          {
            "time": 204.73692400000002,
            "midi": 42,
            "name": "F#2",
            "velocity": 0.9133858267716536,
            "duration": 0.0027412291666450983,
            "ticks": 74688,
            "durationTicks": 1
          },
          {
            "time": 204.73692400000002,
            "midi": 38,
            "name": "D2",
            "velocity": 0.9763779527559056,
            "duration": 0.0027412291666450983,
            "ticks": 74688,
            "durationTicks": 1
          },
          {
            "time": 204.73692400000002,
            "midi": 36,
            "name": "C2",
            "velocity": 1,
            "duration": 0.0027412291666450983,
            "ticks": 74688,
            "durationTicks": 1
          },
          {
            "time": 204.73692400000002,
            "midi": 39,
            "name": "D#2",
            "velocity": 0.7874015748031497,
            "duration": 0.0027412291666450983,
            "ticks": 74688,
            "durationTicks": 1
          },
          {
            "time": 205.000082,
            "midi": 42,
            "name": "F#2",
            "velocity": 0.25984251968503935,
            "duration": 0.00274122916667352,
            "ticks": 74784,
            "durationTicks": 1
          },
          {
            "time": 205.131661,
            "midi": 42,
            "name": "F#2",
            "velocity": 0.6535433070866141,
            "duration": 0.0027412291666450983,
            "ticks": 74832,
            "durationTicks": 1
          },
          {
            "time": 205.26324,
            "midi": 42,
            "name": "F#2",
            "velocity": 0.9133858267716536,
            "duration": 0.00274122916667352,
            "ticks": 74880,
            "durationTicks": 1
          },
          {
            "time": 205.26324,
            "midi": 36,
            "name": "C2",
            "velocity": 1,
            "duration": 0.00274122916667352,
            "ticks": 74880,
            "durationTicks": 1
          },
          {
            "time": 205.526398,
            "midi": 42,
            "name": "F#2",
            "velocity": 0.5590551181102362,
            "duration": 0.0027412291666450983,
            "ticks": 74976,
            "durationTicks": 1
          },
          {
            "time": 205.657977,
            "midi": 42,
            "name": "F#2",
            "velocity": 0.6535433070866141,
            "duration": 0.00274122916667352,
            "ticks": 75024,
            "durationTicks": 1
          },
          {
            "time": 205.789556,
            "midi": 42,
            "name": "F#2",
            "velocity": 1,
            "duration": 0.0027412291666450983,
            "ticks": 75072,
            "durationTicks": 1
          },
          {
            "time": 205.789556,
            "midi": 38,
            "name": "D2",
            "velocity": 0.8818897637795275,
            "duration": 0.0027412291666450983,
            "ticks": 75072,
            "durationTicks": 1
          },
          {
            "time": 205.789556,
            "midi": 36,
            "name": "C2",
            "velocity": 1,
            "duration": 0.0027412291666450983,
            "ticks": 75072,
            "durationTicks": 1
          },
          {
            "time": 205.789556,
            "midi": 39,
            "name": "D#2",
            "velocity": 0.9133858267716536,
            "duration": 0.0027412291666450983,
            "ticks": 75072,
            "durationTicks": 1
          },
          {
            "time": 206.052714,
            "midi": 42,
            "name": "F#2",
            "velocity": 0.3779527559055118,
            "duration": 0.0027412291666450983,
            "ticks": 75168,
            "durationTicks": 1
          },
          {
            "time": 206.184293,
            "midi": 42,
            "name": "F#2",
            "velocity": 0.48031496062992124,
            "duration": 0.00274122916667352,
            "ticks": 75216,
            "durationTicks": 1
          },
          {
            "time": 206.315872,
            "midi": 42,
            "name": "F#2",
            "velocity": 0.9133858267716536,
            "duration": 0.0027412291666450983,
            "ticks": 75264,
            "durationTicks": 1
          },
          {
            "time": 206.315872,
            "midi": 36,
            "name": "C2",
            "velocity": 1,
            "duration": 0.0027412291666450983,
            "ticks": 75264,
            "durationTicks": 1
          },
          {
            "time": 206.57903,
            "midi": 42,
            "name": "F#2",
            "velocity": 0.5590551181102362,
            "duration": 0.00274122916667352,
            "ticks": 75360,
            "durationTicks": 1
          },
          {
            "time": 206.710609,
            "midi": 42,
            "name": "F#2",
            "velocity": 0.5590551181102362,
            "duration": 0.0027412291666450983,
            "ticks": 75408,
            "durationTicks": 1
          },
          {
            "time": 206.842188,
            "midi": 42,
            "name": "F#2",
            "velocity": 0.9133858267716536,
            "duration": 0.00274122916667352,
            "ticks": 75456,
            "durationTicks": 1
          },
          {
            "time": 206.842188,
            "midi": 38,
            "name": "D2",
            "velocity": 0.9763779527559056,
            "duration": 0.00274122916667352,
            "ticks": 75456,
            "durationTicks": 1
          },
          {
            "time": 206.842188,
            "midi": 36,
            "name": "C2",
            "velocity": 1,
            "duration": 0.00274122916667352,
            "ticks": 75456,
            "durationTicks": 1
          },
          {
            "time": 206.842188,
            "midi": 39,
            "name": "D#2",
            "velocity": 0.7874015748031497,
            "duration": 0.00274122916667352,
            "ticks": 75456,
            "durationTicks": 1
          },
          {
            "time": 207.105346,
            "midi": 46,
            "name": "A#2",
            "velocity": 0.5354330708661418,
            "duration": 0.00274122916667352,
            "ticks": 75552,
            "durationTicks": 1
          },
          {
            "time": 207.368504,
            "midi": 42,
            "name": "F#2",
            "velocity": 0.9133858267716536,
            "duration": 0.0027412291666450983,
            "ticks": 75648,
            "durationTicks": 1
          },
          {
            "time": 207.368504,
            "midi": 36,
            "name": "C2",
            "velocity": 1,
            "duration": 0.0027412291666450983,
            "ticks": 75648,
            "durationTicks": 1
          },
          {
            "time": 207.631662,
            "midi": 42,
            "name": "F#2",
            "velocity": 0.48031496062992124,
            "duration": 0.0027412291666450983,
            "ticks": 75744,
            "durationTicks": 1
          },
          {
            "time": 207.763241,
            "midi": 42,
            "name": "F#2",
            "velocity": 0.7874015748031497,
            "duration": 0.00274122916667352,
            "ticks": 75792,
            "durationTicks": 1
          },
          {
            "time": 207.89482,
            "midi": 42,
            "name": "F#2",
            "velocity": 0.9133858267716536,
            "duration": 0.0027412291666450983,
            "ticks": 75840,
            "durationTicks": 1
          },
          {
            "time": 207.89482,
            "midi": 38,
            "name": "D2",
            "velocity": 0.984251968503937,
            "duration": 0.0027412291666450983,
            "ticks": 75840,
            "durationTicks": 1
          },
          {
            "time": 207.89482,
            "midi": 36,
            "name": "C2",
            "velocity": 1,
            "duration": 0.0027412291666450983,
            "ticks": 75840,
            "durationTicks": 1
          },
          {
            "time": 207.89482,
            "midi": 39,
            "name": "D#2",
            "velocity": 0.984251968503937,
            "duration": 0.0027412291666450983,
            "ticks": 75840,
            "durationTicks": 1
          },
          {
            "time": 208.026399,
            "midi": 39,
            "name": "D#2",
            "velocity": 0.8267716535433071,
            "duration": 0.00274122916667352,
            "ticks": 75888,
            "durationTicks": 1
          },
          {
            "time": 208.157978,
            "midi": 46,
            "name": "A#2",
            "velocity": 0.7480314960629921,
            "duration": 0.0027412291666450983,
            "ticks": 75936,
            "durationTicks": 1
          },
          {
            "time": 208.157978,
            "midi": 39,
            "name": "D#2",
            "velocity": 0.6692913385826772,
            "duration": 0.0027412291666450983,
            "ticks": 75936,
            "durationTicks": 1
          },
          {
            "time": 208.289557,
            "midi": 39,
            "name": "D#2",
            "velocity": 0.5118110236220472,
            "duration": 0.0027412291666450983,
            "ticks": 75984,
            "durationTicks": 1
          },
          {
            "time": 208.421136,
            "midi": 42,
            "name": "F#2",
            "velocity": 0.8818897637795275,
            "duration": 0.00274122916667352,
            "ticks": 76032,
            "durationTicks": 1
          },
          {
            "time": 208.421136,
            "midi": 36,
            "name": "C2",
            "velocity": 1,
            "duration": 0.00274122916667352,
            "ticks": 76032,
            "durationTicks": 1
          },
          {
            "time": 208.684294,
            "midi": 42,
            "name": "F#2",
            "velocity": 0.4251968503937008,
            "duration": 0.00274122916667352,
            "ticks": 76128,
            "durationTicks": 1
          },
          {
            "time": 208.815873,
            "midi": 42,
            "name": "F#2",
            "velocity": 0.7874015748031497,
            "duration": 0.0027412291666450983,
            "ticks": 76176,
            "durationTicks": 1
          },
          {
            "time": 208.947452,
            "midi": 42,
            "name": "F#2",
            "velocity": 0.9133858267716536,
            "duration": 0.00274122916667352,
            "ticks": 76224,
            "durationTicks": 1
          },
          {
            "time": 208.947452,
            "midi": 38,
            "name": "D2",
            "velocity": 0.8818897637795275,
            "duration": 0.00274122916667352,
            "ticks": 76224,
            "durationTicks": 1
          },
          {
            "time": 208.947452,
            "midi": 36,
            "name": "C2",
            "velocity": 1,
            "duration": 0.00274122916667352,
            "ticks": 76224,
            "durationTicks": 1
          },
          {
            "time": 208.947452,
            "midi": 39,
            "name": "D#2",
            "velocity": 0.7874015748031497,
            "duration": 0.00274122916667352,
            "ticks": 76224,
            "durationTicks": 1
          },
          {
            "time": 209.21061,
            "midi": 42,
            "name": "F#2",
            "velocity": 0.31496062992125984,
            "duration": 0.0027412291666450983,
            "ticks": 76320,
            "durationTicks": 1
          },
          {
            "time": 209.342189,
            "midi": 42,
            "name": "F#2",
            "velocity": 0.6535433070866141,
            "duration": 0.00274122916667352,
            "ticks": 76368,
            "durationTicks": 1
          },
          {
            "time": 209.473768,
            "midi": 42,
            "name": "F#2",
            "velocity": 0.9133858267716536,
            "duration": 0.0027412291666450983,
            "ticks": 76416,
            "durationTicks": 1
          },
          {
            "time": 209.473768,
            "midi": 36,
            "name": "C2",
            "velocity": 1,
            "duration": 0.0027412291666450983,
            "ticks": 76416,
            "durationTicks": 1
          },
          {
            "time": 209.736926,
            "midi": 42,
            "name": "F#2",
            "velocity": 0.3779527559055118,
            "duration": 0.0027412291666450983,
            "ticks": 76512,
            "durationTicks": 1
          },
          {
            "time": 209.868505,
            "midi": 42,
            "name": "F#2",
            "velocity": 0.5590551181102362,
            "duration": 0.00274122916667352,
            "ticks": 76560,
            "durationTicks": 1
          },
          {
            "time": 210.00008400000002,
            "midi": 42,
            "name": "F#2",
            "velocity": 0.9133858267716536,
            "duration": 0.0027412291666450983,
            "ticks": 76608,
            "durationTicks": 1
          },
          {
            "time": 210.00008400000002,
            "midi": 38,
            "name": "D2",
            "velocity": 0.9763779527559056,
            "duration": 0.0027412291666450983,
            "ticks": 76608,
            "durationTicks": 1
          },
          {
            "time": 210.00008400000002,
            "midi": 36,
            "name": "C2",
            "velocity": 1,
            "duration": 0.0027412291666450983,
            "ticks": 76608,
            "durationTicks": 1
          },
          {
            "time": 210.00008400000002,
            "midi": 39,
            "name": "D#2",
            "velocity": 0.9133858267716536,
            "duration": 0.0027412291666450983,
            "ticks": 76608,
            "durationTicks": 1
          },
          {
            "time": 210.263242,
            "midi": 42,
            "name": "F#2",
            "velocity": 0.10236220472440945,
            "duration": 0.00274122916667352,
            "ticks": 76704,
            "durationTicks": 1
          },
          {
            "time": 210.394821,
            "midi": 42,
            "name": "F#2",
            "velocity": 0.5590551181102362,
            "duration": 0.0027412291666450983,
            "ticks": 76752,
            "durationTicks": 1
          },
          {
            "time": 210.5264,
            "midi": 42,
            "name": "F#2",
            "velocity": 0.7874015748031497,
            "duration": 0.00274122916667352,
            "ticks": 76800,
            "durationTicks": 1
          },
          {
            "time": 210.5264,
            "midi": 36,
            "name": "C2",
            "velocity": 1,
            "duration": 0.00274122916667352,
            "ticks": 76800,
            "durationTicks": 1
          },
          {
            "time": 210.789558,
            "midi": 42,
            "name": "F#2",
            "velocity": 0.4251968503937008,
            "duration": 0.00274122916667352,
            "ticks": 76896,
            "durationTicks": 1
          },
          {
            "time": 210.92113700000002,
            "midi": 42,
            "name": "F#2",
            "velocity": 0.6535433070866141,
            "duration": 0.0027412291666450983,
            "ticks": 76944,
            "durationTicks": 1
          },
          {
            "time": 211.052716,
            "midi": 42,
            "name": "F#2",
            "velocity": 0.9133858267716536,
            "duration": 0.0027412291666450983,
            "ticks": 76992,
            "durationTicks": 1
          },
          {
            "time": 211.052716,
            "midi": 38,
            "name": "D2",
            "velocity": 0.8818897637795275,
            "duration": 0.0027412291666450983,
            "ticks": 76992,
            "durationTicks": 1
          },
          {
            "time": 211.052716,
            "midi": 36,
            "name": "C2",
            "velocity": 1,
            "duration": 0.0027412291666450983,
            "ticks": 76992,
            "durationTicks": 1
          },
          {
            "time": 211.052716,
            "midi": 39,
            "name": "D#2",
            "velocity": 0.9133858267716536,
            "duration": 0.0027412291666450983,
            "ticks": 76992,
            "durationTicks": 1
          },
          {
            "time": 211.315874,
            "midi": 42,
            "name": "F#2",
            "velocity": 0.4251968503937008,
            "duration": 0.0027412291666450983,
            "ticks": 77088,
            "durationTicks": 1
          },
          {
            "time": 211.447453,
            "midi": 42,
            "name": "F#2",
            "velocity": 0.5590551181102362,
            "duration": 0.00274122916667352,
            "ticks": 77136,
            "durationTicks": 1
          },
          {
            "time": 211.579032,
            "midi": 42,
            "name": "F#2",
            "velocity": 0.7874015748031497,
            "duration": 0.0027412291666450983,
            "ticks": 77184,
            "durationTicks": 1
          },
          {
            "time": 211.579032,
            "midi": 36,
            "name": "C2",
            "velocity": 1,
            "duration": 0.0027412291666450983,
            "ticks": 77184,
            "durationTicks": 1
          },
          {
            "time": 211.84219000000002,
            "midi": 42,
            "name": "F#2",
            "velocity": 0.5590551181102362,
            "duration": 0.0027412291666450983,
            "ticks": 77280,
            "durationTicks": 1
          },
          {
            "time": 211.973769,
            "midi": 42,
            "name": "F#2",
            "velocity": 0.5590551181102362,
            "duration": 0.0027412291666450983,
            "ticks": 77328,
            "durationTicks": 1
          },
          {
            "time": 212.105348,
            "midi": 42,
            "name": "F#2",
            "velocity": 0.9133858267716536,
            "duration": 0.00274122916667352,
            "ticks": 77376,
            "durationTicks": 1
          },
          {
            "time": 212.105348,
            "midi": 38,
            "name": "D2",
            "velocity": 0.8818897637795275,
            "duration": 0.00274122916667352,
            "ticks": 77376,
            "durationTicks": 1
          },
          {
            "time": 212.105348,
            "midi": 36,
            "name": "C2",
            "velocity": 1,
            "duration": 0.00274122916667352,
            "ticks": 77376,
            "durationTicks": 1
          },
          {
            "time": 212.105348,
            "midi": 39,
            "name": "D#2",
            "velocity": 0.7874015748031497,
            "duration": 0.00274122916667352,
            "ticks": 77376,
            "durationTicks": 1
          },
          {
            "time": 212.368506,
            "midi": 46,
            "name": "A#2",
            "velocity": 0.5354330708661418,
            "duration": 0.00274122916667352,
            "ticks": 77472,
            "durationTicks": 1
          },
          {
            "time": 212.631664,
            "midi": 42,
            "name": "F#2",
            "velocity": 0.9133858267716536,
            "duration": 0.0027412291666450983,
            "ticks": 77568,
            "durationTicks": 1
          },
          {
            "time": 212.631664,
            "midi": 36,
            "name": "C2",
            "velocity": 1,
            "duration": 0.0027412291666450983,
            "ticks": 77568,
            "durationTicks": 1
          },
          {
            "time": 212.894822,
            "midi": 42,
            "name": "F#2",
            "velocity": 0.3464566929133858,
            "duration": 0.0027412291666450983,
            "ticks": 77664,
            "durationTicks": 1
          },
          {
            "time": 213.026401,
            "midi": 42,
            "name": "F#2",
            "velocity": 0.7874015748031497,
            "duration": 0.00274122916667352,
            "ticks": 77712,
            "durationTicks": 1
          },
          {
            "time": 213.15798,
            "midi": 42,
            "name": "F#2",
            "velocity": 0.9133858267716536,
            "duration": 0.0027412291666450983,
            "ticks": 77760,
            "durationTicks": 1
          },
          {
            "time": 213.15798,
            "midi": 38,
            "name": "D2",
            "velocity": 0.9763779527559056,
            "duration": 0.0027412291666450983,
            "ticks": 77760,
            "durationTicks": 1
          },
          {
            "time": 213.15798,
            "midi": 36,
            "name": "C2",
            "velocity": 1,
            "duration": 0.0027412291666450983,
            "ticks": 77760,
            "durationTicks": 1
          },
          {
            "time": 213.15798,
            "midi": 39,
            "name": "D#2",
            "velocity": 0.7874015748031497,
            "duration": 0.0027412291666450983,
            "ticks": 77760,
            "durationTicks": 1
          },
          {
            "time": 213.421138,
            "midi": 42,
            "name": "F#2",
            "velocity": 0.25984251968503935,
            "duration": 0.0027412291666450983,
            "ticks": 77856,
            "durationTicks": 1
          },
          {
            "time": 213.552717,
            "midi": 42,
            "name": "F#2",
            "velocity": 0.6535433070866141,
            "duration": 0.0027412291666450983,
            "ticks": 77904,
            "durationTicks": 1
          },
          {
            "time": 213.684296,
            "midi": 42,
            "name": "F#2",
            "velocity": 0.9133858267716536,
            "duration": 0.00274122916667352,
            "ticks": 77952,
            "durationTicks": 1
          },
          {
            "time": 213.684296,
            "midi": 36,
            "name": "C2",
            "velocity": 1,
            "duration": 0.00274122916667352,
            "ticks": 77952,
            "durationTicks": 1
          },
          {
            "time": 213.947454,
            "midi": 42,
            "name": "F#2",
            "velocity": 0.5590551181102362,
            "duration": 0.00274122916667352,
            "ticks": 78048,
            "durationTicks": 1
          },
          {
            "time": 214.079033,
            "midi": 42,
            "name": "F#2",
            "velocity": 0.6535433070866141,
            "duration": 0.0027412291666450983,
            "ticks": 78096,
            "durationTicks": 1
          },
          {
            "time": 214.210612,
            "midi": 42,
            "name": "F#2",
            "velocity": 1,
            "duration": 0.00274122916667352,
            "ticks": 78144,
            "durationTicks": 1
          },
          {
            "time": 214.210612,
            "midi": 38,
            "name": "D2",
            "velocity": 0.8818897637795275,
            "duration": 0.00274122916667352,
            "ticks": 78144,
            "durationTicks": 1
          },
          {
            "time": 214.210612,
            "midi": 36,
            "name": "C2",
            "velocity": 1,
            "duration": 0.00274122916667352,
            "ticks": 78144,
            "durationTicks": 1
          },
          {
            "time": 214.210612,
            "midi": 39,
            "name": "D#2",
            "velocity": 0.9133858267716536,
            "duration": 0.00274122916667352,
            "ticks": 78144,
            "durationTicks": 1
          },
          {
            "time": 214.47377,
            "midi": 42,
            "name": "F#2",
            "velocity": 0.3779527559055118,
            "duration": 0.0027412291666450983,
            "ticks": 78240,
            "durationTicks": 1
          },
          {
            "time": 214.605349,
            "midi": 42,
            "name": "F#2",
            "velocity": 0.48031496062992124,
            "duration": 0.00274122916667352,
            "ticks": 78288,
            "durationTicks": 1
          },
          {
            "time": 214.736928,
            "midi": 42,
            "name": "F#2",
            "velocity": 0.9133858267716536,
            "duration": 0.0027412291666450983,
            "ticks": 78336,
            "durationTicks": 1
          },
          {
            "time": 214.736928,
            "midi": 36,
            "name": "C2",
            "velocity": 1,
            "duration": 0.0027412291666450983,
            "ticks": 78336,
            "durationTicks": 1
          },
          {
            "time": 215.000086,
            "midi": 42,
            "name": "F#2",
            "velocity": 0.5590551181102362,
            "duration": 0.0027412291666450983,
            "ticks": 78432,
            "durationTicks": 1
          },
          {
            "time": 215.131665,
            "midi": 42,
            "name": "F#2",
            "velocity": 0.5590551181102362,
            "duration": 0.00274122916667352,
            "ticks": 78480,
            "durationTicks": 1
          },
          {
            "time": 215.26324400000001,
            "midi": 42,
            "name": "F#2",
            "velocity": 0.9133858267716536,
            "duration": 0.0027412291666450983,
            "ticks": 78528,
            "durationTicks": 1
          },
          {
            "time": 215.26324400000001,
            "midi": 38,
            "name": "D2",
            "velocity": 0.9763779527559056,
            "duration": 0.0027412291666450983,
            "ticks": 78528,
            "durationTicks": 1
          },
          {
            "time": 215.26324400000001,
            "midi": 36,
            "name": "C2",
            "velocity": 1,
            "duration": 0.0027412291666450983,
            "ticks": 78528,
            "durationTicks": 1
          },
          {
            "time": 215.26324400000001,
            "midi": 39,
            "name": "D#2",
            "velocity": 0.7874015748031497,
            "duration": 0.0027412291666450983,
            "ticks": 78528,
            "durationTicks": 1
          },
          {
            "time": 215.526402,
            "midi": 46,
            "name": "A#2",
            "velocity": 0.5354330708661418,
            "duration": 0.00274122916667352,
            "ticks": 78624,
            "durationTicks": 1
          },
          {
            "time": 215.78956,
            "midi": 42,
            "name": "F#2",
            "velocity": 0.9133858267716536,
            "duration": 0.00274122916667352,
            "ticks": 78720,
            "durationTicks": 1
          },
          {
            "time": 215.78956,
            "midi": 36,
            "name": "C2",
            "velocity": 1,
            "duration": 0.00274122916667352,
            "ticks": 78720,
            "durationTicks": 1
          },
          {
            "time": 216.052718,
            "midi": 42,
            "name": "F#2",
            "velocity": 0.48031496062992124,
            "duration": 0.00274122916667352,
            "ticks": 78816,
            "durationTicks": 1
          },
          {
            "time": 216.18429700000002,
            "midi": 42,
            "name": "F#2",
            "velocity": 0.7874015748031497,
            "duration": 0.0027412291666450983,
            "ticks": 78864,
            "durationTicks": 1
          },
          {
            "time": 216.315876,
            "midi": 42,
            "name": "F#2",
            "velocity": 0.9133858267716536,
            "duration": 0.0027412291666450983,
            "ticks": 78912,
            "durationTicks": 1
          },
          {
            "time": 216.315876,
            "midi": 38,
            "name": "D2",
            "velocity": 0.984251968503937,
            "duration": 0.0027412291666450983,
            "ticks": 78912,
            "durationTicks": 1
          },
          {
            "time": 216.315876,
            "midi": 36,
            "name": "C2",
            "velocity": 1,
            "duration": 0.0027412291666450983,
            "ticks": 78912,
            "durationTicks": 1
          },
          {
            "time": 216.315876,
            "midi": 39,
            "name": "D#2",
            "velocity": 0.984251968503937,
            "duration": 0.0027412291666450983,
            "ticks": 78912,
            "durationTicks": 1
          },
          {
            "time": 216.447455,
            "midi": 39,
            "name": "D#2",
            "velocity": 0.8267716535433071,
            "duration": 0.00274122916667352,
            "ticks": 78960,
            "durationTicks": 1
          },
          {
            "time": 216.579034,
            "midi": 46,
            "name": "A#2",
            "velocity": 0.7480314960629921,
            "duration": 0.0027412291666450983,
            "ticks": 79008,
            "durationTicks": 1
          },
          {
            "time": 216.579034,
            "midi": 39,
            "name": "D#2",
            "velocity": 0.6692913385826772,
            "duration": 0.0027412291666450983,
            "ticks": 79008,
            "durationTicks": 1
          },
          {
            "time": 216.710613,
            "midi": 39,
            "name": "D#2",
            "velocity": 0.5118110236220472,
            "duration": 0.00274122916667352,
            "ticks": 79056,
            "durationTicks": 1
          },
          {
            "time": 216.842192,
            "midi": 42,
            "name": "F#2",
            "velocity": 0.8818897637795275,
            "duration": 0.0027412291666450983,
            "ticks": 79104,
            "durationTicks": 1
          },
          {
            "time": 216.842192,
            "midi": 36,
            "name": "C2",
            "velocity": 1,
            "duration": 0.0027412291666450983,
            "ticks": 79104,
            "durationTicks": 1
          },
          {
            "time": 217.10535000000002,
            "midi": 42,
            "name": "F#2",
            "velocity": 0.4251968503937008,
            "duration": 0.0027412291666450983,
            "ticks": 79200,
            "durationTicks": 1
          },
          {
            "time": 217.236929,
            "midi": 42,
            "name": "F#2",
            "velocity": 0.7874015748031497,
            "duration": 0.0027412291666450983,
            "ticks": 79248,
            "durationTicks": 1
          },
          {
            "time": 217.368508,
            "midi": 42,
            "name": "F#2",
            "velocity": 0.9133858267716536,
            "duration": 0.00274122916667352,
            "ticks": 79296,
            "durationTicks": 1
          },
          {
            "time": 217.368508,
            "midi": 38,
            "name": "D2",
            "velocity": 0.8818897637795275,
            "duration": 0.00274122916667352,
            "ticks": 79296,
            "durationTicks": 1
          },
          {
            "time": 217.368508,
            "midi": 36,
            "name": "C2",
            "velocity": 1,
            "duration": 0.00274122916667352,
            "ticks": 79296,
            "durationTicks": 1
          },
          {
            "time": 217.368508,
            "midi": 39,
            "name": "D#2",
            "velocity": 0.7874015748031497,
            "duration": 0.00274122916667352,
            "ticks": 79296,
            "durationTicks": 1
          },
          {
            "time": 217.631666,
            "midi": 42,
            "name": "F#2",
            "velocity": 0.31496062992125984,
            "duration": 0.00274122916667352,
            "ticks": 79392,
            "durationTicks": 1
          },
          {
            "time": 217.763245,
            "midi": 42,
            "name": "F#2",
            "velocity": 0.6535433070866141,
            "duration": 0.0027412291666450983,
            "ticks": 79440,
            "durationTicks": 1
          },
          {
            "time": 217.894824,
            "midi": 42,
            "name": "F#2",
            "velocity": 0.9133858267716536,
            "duration": 0.00274122916667352,
            "ticks": 79488,
            "durationTicks": 1
          },
          {
            "time": 217.894824,
            "midi": 36,
            "name": "C2",
            "velocity": 1,
            "duration": 0.00274122916667352,
            "ticks": 79488,
            "durationTicks": 1
          },
          {
            "time": 218.157982,
            "midi": 42,
            "name": "F#2",
            "velocity": 0.3779527559055118,
            "duration": 0.0027412291666450983,
            "ticks": 79584,
            "durationTicks": 1
          },
          {
            "time": 218.289561,
            "midi": 42,
            "name": "F#2",
            "velocity": 0.5590551181102362,
            "duration": 0.00274122916667352,
            "ticks": 79632,
            "durationTicks": 1
          },
          {
            "time": 218.42114,
            "midi": 42,
            "name": "F#2",
            "velocity": 0.9133858267716536,
            "duration": 0.0027412291666450983,
            "ticks": 79680,
            "durationTicks": 1
          },
          {
            "time": 218.42114,
            "midi": 38,
            "name": "D2",
            "velocity": 0.9763779527559056,
            "duration": 0.0027412291666450983,
            "ticks": 79680,
            "durationTicks": 1
          },
          {
            "time": 218.42114,
            "midi": 36,
            "name": "C2",
            "velocity": 1,
            "duration": 0.0027412291666450983,
            "ticks": 79680,
            "durationTicks": 1
          },
          {
            "time": 218.42114,
            "midi": 39,
            "name": "D#2",
            "velocity": 0.9133858267716536,
            "duration": 0.0027412291666450983,
            "ticks": 79680,
            "durationTicks": 1
          },
          {
            "time": 218.684298,
            "midi": 42,
            "name": "F#2",
            "velocity": 0.10236220472440945,
            "duration": 0.0027412291666450983,
            "ticks": 79776,
            "durationTicks": 1
          },
          {
            "time": 218.815877,
            "midi": 42,
            "name": "F#2",
            "velocity": 0.5590551181102362,
            "duration": 0.0027412291666450983,
            "ticks": 79824,
            "durationTicks": 1
          },
          {
            "time": 218.947456,
            "midi": 42,
            "name": "F#2",
            "velocity": 0.7874015748031497,
            "duration": 0.00274122916667352,
            "ticks": 79872,
            "durationTicks": 1
          },
          {
            "time": 218.947456,
            "midi": 36,
            "name": "C2",
            "velocity": 1,
            "duration": 0.00274122916667352,
            "ticks": 79872,
            "durationTicks": 1
          },
          {
            "time": 219.210614,
            "midi": 42,
            "name": "F#2",
            "velocity": 0.4251968503937008,
            "duration": 0.00274122916667352,
            "ticks": 79968,
            "durationTicks": 1
          },
          {
            "time": 219.342193,
            "midi": 42,
            "name": "F#2",
            "velocity": 0.6535433070866141,
            "duration": 0.0027412291666450983,
            "ticks": 80016,
            "durationTicks": 1
          },
          {
            "time": 219.473772,
            "midi": 42,
            "name": "F#2",
            "velocity": 0.9133858267716536,
            "duration": 0.00274122916667352,
            "ticks": 80064,
            "durationTicks": 1
          },
          {
            "time": 219.473772,
            "midi": 38,
            "name": "D2",
            "velocity": 0.8818897637795275,
            "duration": 0.00274122916667352,
            "ticks": 80064,
            "durationTicks": 1
          },
          {
            "time": 219.473772,
            "midi": 36,
            "name": "C2",
            "velocity": 1,
            "duration": 0.00274122916667352,
            "ticks": 80064,
            "durationTicks": 1
          },
          {
            "time": 219.473772,
            "midi": 39,
            "name": "D#2",
            "velocity": 0.9133858267716536,
            "duration": 0.00274122916667352,
            "ticks": 80064,
            "durationTicks": 1
          },
          {
            "time": 219.73693,
            "midi": 42,
            "name": "F#2",
            "velocity": 0.4251968503937008,
            "duration": 0.0027412291666450983,
            "ticks": 80160,
            "durationTicks": 1
          },
          {
            "time": 219.868509,
            "midi": 42,
            "name": "F#2",
            "velocity": 0.5590551181102362,
            "duration": 0.00274122916667352,
            "ticks": 80208,
            "durationTicks": 1
          },
          {
            "time": 220.000088,
            "midi": 42,
            "name": "F#2",
            "velocity": 0.7874015748031497,
            "duration": 0.0027412291666450983,
            "ticks": 80256,
            "durationTicks": 1
          },
          {
            "time": 220.000088,
            "midi": 36,
            "name": "C2",
            "velocity": 1,
            "duration": 0.0027412291666450983,
            "ticks": 80256,
            "durationTicks": 1
          },
          {
            "time": 220.263246,
            "midi": 42,
            "name": "F#2",
            "velocity": 0.5590551181102362,
            "duration": 0.0027412291666450983,
            "ticks": 80352,
            "durationTicks": 1
          },
          {
            "time": 220.394825,
            "midi": 42,
            "name": "F#2",
            "velocity": 0.5590551181102362,
            "duration": 0.00274122916667352,
            "ticks": 80400,
            "durationTicks": 1
          },
          {
            "time": 220.526404,
            "midi": 42,
            "name": "F#2",
            "velocity": 0.9133858267716536,
            "duration": 0.0027412291666450983,
            "ticks": 80448,
            "durationTicks": 1
          },
          {
            "time": 220.526404,
            "midi": 38,
            "name": "D2",
            "velocity": 0.8818897637795275,
            "duration": 0.0027412291666450983,
            "ticks": 80448,
            "durationTicks": 1
          },
          {
            "time": 220.526404,
            "midi": 36,
            "name": "C2",
            "velocity": 1,
            "duration": 0.0027412291666450983,
            "ticks": 80448,
            "durationTicks": 1
          },
          {
            "time": 220.526404,
            "midi": 39,
            "name": "D#2",
            "velocity": 0.7874015748031497,
            "duration": 0.0027412291666450983,
            "ticks": 80448,
            "durationTicks": 1
          },
          {
            "time": 220.789562,
            "midi": 46,
            "name": "A#2",
            "velocity": 0.5354330708661418,
            "duration": 0.00274122916667352,
            "ticks": 80544,
            "durationTicks": 1
          },
          {
            "time": 221.05272,
            "midi": 42,
            "name": "F#2",
            "velocity": 0.9133858267716536,
            "duration": 0.00274122916667352,
            "ticks": 80640,
            "durationTicks": 1
          },
          {
            "time": 221.05272,
            "midi": 36,
            "name": "C2",
            "velocity": 1,
            "duration": 0.00274122916667352,
            "ticks": 80640,
            "durationTicks": 1
          },
          {
            "time": 221.315878,
            "midi": 42,
            "name": "F#2",
            "velocity": 0.3464566929133858,
            "duration": 0.00274122916667352,
            "ticks": 80736,
            "durationTicks": 1
          },
          {
            "time": 221.447457,
            "midi": 42,
            "name": "F#2",
            "velocity": 0.7874015748031497,
            "duration": 0.0027412291666450983,
            "ticks": 80784,
            "durationTicks": 1
          },
          {
            "time": 221.579036,
            "midi": 42,
            "name": "F#2",
            "velocity": 0.9133858267716536,
            "duration": 0.0027412291666450983,
            "ticks": 80832,
            "durationTicks": 1
          },
          {
            "time": 221.579036,
            "midi": 38,
            "name": "D2",
            "velocity": 0.9763779527559056,
            "duration": 0.0027412291666450983,
            "ticks": 80832,
            "durationTicks": 1
          },
          {
            "time": 221.579036,
            "midi": 36,
            "name": "C2",
            "velocity": 1,
            "duration": 0.0027412291666450983,
            "ticks": 80832,
            "durationTicks": 1
          },
          {
            "time": 221.579036,
            "midi": 39,
            "name": "D#2",
            "velocity": 0.7874015748031497,
            "duration": 0.0027412291666450983,
            "ticks": 80832,
            "durationTicks": 1
          },
          {
            "time": 221.842194,
            "midi": 42,
            "name": "F#2",
            "velocity": 0.25984251968503935,
            "duration": 0.0027412291666450983,
            "ticks": 80928,
            "durationTicks": 1
          },
          {
            "time": 221.973773,
            "midi": 42,
            "name": "F#2",
            "velocity": 0.6535433070866141,
            "duration": 0.00274122916667352,
            "ticks": 80976,
            "durationTicks": 1
          },
          {
            "time": 222.105352,
            "midi": 42,
            "name": "F#2",
            "velocity": 0.9133858267716536,
            "duration": 0.0027412291666450983,
            "ticks": 81024,
            "durationTicks": 1
          },
          {
            "time": 222.105352,
            "midi": 36,
            "name": "C2",
            "velocity": 1,
            "duration": 0.0027412291666450983,
            "ticks": 81024,
            "durationTicks": 1
          },
          {
            "time": 222.36851000000001,
            "midi": 42,
            "name": "F#2",
            "velocity": 0.5590551181102362,
            "duration": 0.0027412291666450983,
            "ticks": 81120,
            "durationTicks": 1
          },
          {
            "time": 222.500089,
            "midi": 42,
            "name": "F#2",
            "velocity": 0.6535433070866141,
            "duration": 0.0027412291666450983,
            "ticks": 81168,
            "durationTicks": 1
          },
          {
            "time": 222.631668,
            "midi": 42,
            "name": "F#2",
            "velocity": 1,
            "duration": 0.00274122916667352,
            "ticks": 81216,
            "durationTicks": 1
          },
          {
            "time": 222.631668,
            "midi": 38,
            "name": "D2",
            "velocity": 0.8818897637795275,
            "duration": 0.00274122916667352,
            "ticks": 81216,
            "durationTicks": 1
          },
          {
            "time": 222.631668,
            "midi": 36,
            "name": "C2",
            "velocity": 1,
            "duration": 0.00274122916667352,
            "ticks": 81216,
            "durationTicks": 1
          },
          {
            "time": 222.631668,
            "midi": 39,
            "name": "D#2",
            "velocity": 0.9133858267716536,
            "duration": 0.00274122916667352,
            "ticks": 81216,
            "durationTicks": 1
          },
          {
            "time": 222.894826,
            "midi": 42,
            "name": "F#2",
            "velocity": 0.3779527559055118,
            "duration": 0.00274122916667352,
            "ticks": 81312,
            "durationTicks": 1
          },
          {
            "time": 223.026405,
            "midi": 42,
            "name": "F#2",
            "velocity": 0.48031496062992124,
            "duration": 0.0027412291666450983,
            "ticks": 81360,
            "durationTicks": 1
          },
          {
            "time": 223.157984,
            "midi": 42,
            "name": "F#2",
            "velocity": 0.9133858267716536,
            "duration": 0.00274122916667352,
            "ticks": 81408,
            "durationTicks": 1
          },
          {
            "time": 223.157984,
            "midi": 36,
            "name": "C2",
            "velocity": 1,
            "duration": 0.00274122916667352,
            "ticks": 81408,
            "durationTicks": 1
          },
          {
            "time": 223.421142,
            "midi": 42,
            "name": "F#2",
            "velocity": 0.5590551181102362,
            "duration": 0.0027412291666450983,
            "ticks": 81504,
            "durationTicks": 1
          },
          {
            "time": 223.552721,
            "midi": 42,
            "name": "F#2",
            "velocity": 0.5590551181102362,
            "duration": 0.00274122916667352,
            "ticks": 81552,
            "durationTicks": 1
          },
          {
            "time": 223.6843,
            "midi": 42,
            "name": "F#2",
            "velocity": 0.9133858267716536,
            "duration": 0.0027412291666450983,
            "ticks": 81600,
            "durationTicks": 1
          },
          {
            "time": 223.6843,
            "midi": 38,
            "name": "D2",
            "velocity": 0.9763779527559056,
            "duration": 0.0027412291666450983,
            "ticks": 81600,
            "durationTicks": 1
          },
          {
            "time": 223.6843,
            "midi": 36,
            "name": "C2",
            "velocity": 1,
            "duration": 0.0027412291666450983,
            "ticks": 81600,
            "durationTicks": 1
          },
          {
            "time": 223.6843,
            "midi": 39,
            "name": "D#2",
            "velocity": 0.7874015748031497,
            "duration": 0.0027412291666450983,
            "ticks": 81600,
            "durationTicks": 1
          },
          {
            "time": 223.947458,
            "midi": 46,
            "name": "A#2",
            "velocity": 0.5354330708661418,
            "duration": 0.0027412291666450983,
            "ticks": 81696,
            "durationTicks": 1
          },
          {
            "time": 224.21061600000002,
            "midi": 42,
            "name": "F#2",
            "velocity": 0.9133858267716536,
            "duration": 0.0027412291666450983,
            "ticks": 81792,
            "durationTicks": 1
          },
          {
            "time": 224.21061600000002,
            "midi": 36,
            "name": "C2",
            "velocity": 1,
            "duration": 0.0027412291666450983,
            "ticks": 81792,
            "durationTicks": 1
          },
          {
            "time": 224.473774,
            "midi": 42,
            "name": "F#2",
            "velocity": 0.48031496062992124,
            "duration": 0.00274122916667352,
            "ticks": 81888,
            "durationTicks": 1
          },
          {
            "time": 224.605353,
            "midi": 42,
            "name": "F#2",
            "velocity": 0.7874015748031497,
            "duration": 0.0027412291666450983,
            "ticks": 81936,
            "durationTicks": 1
          },
          {
            "time": 224.736932,
            "midi": 42,
            "name": "F#2",
            "velocity": 0.9133858267716536,
            "duration": 0.00274122916667352,
            "ticks": 81984,
            "durationTicks": 1
          },
          {
            "time": 224.736932,
            "midi": 38,
            "name": "D2",
            "velocity": 0.984251968503937,
            "duration": 0.00274122916667352,
            "ticks": 81984,
            "durationTicks": 1
          },
          {
            "time": 224.736932,
            "midi": 36,
            "name": "C2",
            "velocity": 1,
            "duration": 0.00274122916667352,
            "ticks": 81984,
            "durationTicks": 1
          },
          {
            "time": 224.736932,
            "midi": 39,
            "name": "D#2",
            "velocity": 0.984251968503937,
            "duration": 0.00274122916667352,
            "ticks": 81984,
            "durationTicks": 1
          },
          {
            "time": 224.868511,
            "midi": 39,
            "name": "D#2",
            "velocity": 0.8267716535433071,
            "duration": 0.0027412291666450983,
            "ticks": 82032,
            "durationTicks": 1
          },
          {
            "time": 225.00009,
            "midi": 46,
            "name": "A#2",
            "velocity": 0.7480314960629921,
            "duration": 0.0027412291666450983,
            "ticks": 82080,
            "durationTicks": 1
          },
          {
            "time": 225.00009,
            "midi": 39,
            "name": "D#2",
            "velocity": 0.6692913385826772,
            "duration": 0.0027412291666450983,
            "ticks": 82080,
            "durationTicks": 1
          },
          {
            "time": 225.13166900000002,
            "midi": 39,
            "name": "D#2",
            "velocity": 0.5118110236220472,
            "duration": 0.0027412291666450983,
            "ticks": 82128,
            "durationTicks": 1
          },
          {
            "time": 225.263248,
            "midi": 42,
            "name": "F#2",
            "velocity": 0.8818897637795275,
            "duration": 0.0027412291666450983,
            "ticks": 82176,
            "durationTicks": 1
          },
          {
            "time": 225.263248,
            "midi": 36,
            "name": "C2",
            "velocity": 1,
            "duration": 0.0027412291666450983,
            "ticks": 82176,
            "durationTicks": 1
          },
          {
            "time": 225.526406,
            "midi": 42,
            "name": "F#2",
            "velocity": 0.4251968503937008,
            "duration": 0.0027412291666450983,
            "ticks": 82272,
            "durationTicks": 1
          },
          {
            "time": 225.657985,
            "midi": 42,
            "name": "F#2",
            "velocity": 0.7874015748031497,
            "duration": 0.00274122916667352,
            "ticks": 82320,
            "durationTicks": 1
          },
          {
            "time": 225.789564,
            "midi": 42,
            "name": "F#2",
            "velocity": 0.9133858267716536,
            "duration": 0.0027412291666450983,
            "ticks": 82368,
            "durationTicks": 1
          },
          {
            "time": 225.789564,
            "midi": 36,
            "name": "C2",
            "velocity": 1,
            "duration": 0.0027412291666450983,
            "ticks": 82368,
            "durationTicks": 1
          },
          {
            "time": 225.789564,
            "midi": 39,
            "name": "D#2",
            "velocity": 0.7874015748031497,
            "duration": 0.0027412291666450983,
            "ticks": 82368,
            "durationTicks": 1
          },
          {
            "time": 226.052722,
            "midi": 42,
            "name": "F#2",
            "velocity": 0.31496062992125984,
            "duration": 0.00274122916667352,
            "ticks": 82464,
            "durationTicks": 1
          },
          {
            "time": 226.184301,
            "midi": 42,
            "name": "F#2",
            "velocity": 0.6535433070866141,
            "duration": 0.0027412291666450983,
            "ticks": 82512,
            "durationTicks": 1
          },
          {
            "time": 226.31588,
            "midi": 42,
            "name": "F#2",
            "velocity": 0.9133858267716536,
            "duration": 0.00274122916667352,
            "ticks": 82560,
            "durationTicks": 1
          },
          {
            "time": 226.31588,
            "midi": 36,
            "name": "C2",
            "velocity": 1,
            "duration": 0.00274122916667352,
            "ticks": 82560,
            "durationTicks": 1
          },
          {
            "time": 226.579038,
            "midi": 42,
            "name": "F#2",
            "velocity": 0.3779527559055118,
            "duration": 0.00274122916667352,
            "ticks": 82656,
            "durationTicks": 1
          },
          {
            "time": 226.710617,
            "midi": 42,
            "name": "F#2",
            "velocity": 0.5590551181102362,
            "duration": 0.0027412291666450983,
            "ticks": 82704,
            "durationTicks": 1
          },
          {
            "time": 226.842196,
            "midi": 42,
            "name": "F#2",
            "velocity": 0.9133858267716536,
            "duration": 0.0027412291666450983,
            "ticks": 82752,
            "durationTicks": 1
          },
          {
            "time": 226.842196,
            "midi": 36,
            "name": "C2",
            "velocity": 1,
            "duration": 0.0027412291666450983,
            "ticks": 82752,
            "durationTicks": 1
          },
          {
            "time": 226.842196,
            "midi": 39,
            "name": "D#2",
            "velocity": 0.9133858267716536,
            "duration": 0.0027412291666450983,
            "ticks": 82752,
            "durationTicks": 1
          },
          {
            "time": 227.105354,
            "midi": 42,
            "name": "F#2",
            "velocity": 0.10236220472440945,
            "duration": 0.0027412291666450983,
            "ticks": 82848,
            "durationTicks": 1
          },
          {
            "time": 227.236933,
            "midi": 42,
            "name": "F#2",
            "velocity": 0.5590551181102362,
            "duration": 0.00274122916667352,
            "ticks": 82896,
            "durationTicks": 1
          },
          {
            "time": 227.368512,
            "midi": 42,
            "name": "F#2",
            "velocity": 0.7874015748031497,
            "duration": 0.0027412291666450983,
            "ticks": 82944,
            "durationTicks": 1
          },
          {
            "time": 227.368512,
            "midi": 36,
            "name": "C2",
            "velocity": 1,
            "duration": 0.0027412291666450983,
            "ticks": 82944,
            "durationTicks": 1
          },
          {
            "time": 227.63167,
            "midi": 42,
            "name": "F#2",
            "velocity": 0.4251968503937008,
            "duration": 0.0027412291666450983,
            "ticks": 83040,
            "durationTicks": 1
          },
          {
            "time": 227.763249,
            "midi": 42,
            "name": "F#2",
            "velocity": 0.6535433070866141,
            "duration": 0.0027412291666450983,
            "ticks": 83088,
            "durationTicks": 1
          },
          {
            "time": 227.894828,
            "midi": 42,
            "name": "F#2",
            "velocity": 0.9133858267716536,
            "duration": 0.00274122916667352,
            "ticks": 83136,
            "durationTicks": 1
          },
          {
            "time": 227.894828,
            "midi": 36,
            "name": "C2",
            "velocity": 1,
            "duration": 0.00274122916667352,
            "ticks": 83136,
            "durationTicks": 1
          },
          {
            "time": 227.894828,
            "midi": 39,
            "name": "D#2",
            "velocity": 0.9133858267716536,
            "duration": 0.00274122916667352,
            "ticks": 83136,
            "durationTicks": 1
          },
          {
            "time": 228.157986,
            "midi": 42,
            "name": "F#2",
            "velocity": 0.4251968503937008,
            "duration": 0.00274122916667352,
            "ticks": 83232,
            "durationTicks": 1
          },
          {
            "time": 228.289565,
            "midi": 42,
            "name": "F#2",
            "velocity": 0.5590551181102362,
            "duration": 0.0027412291666450983,
            "ticks": 83280,
            "durationTicks": 1
          },
          {
            "time": 228.421144,
            "midi": 42,
            "name": "F#2",
            "velocity": 0.7874015748031497,
            "duration": 0.00274122916667352,
            "ticks": 83328,
            "durationTicks": 1
          },
          {
            "time": 228.421144,
            "midi": 36,
            "name": "C2",
            "velocity": 1,
            "duration": 0.00274122916667352,
            "ticks": 83328,
            "durationTicks": 1
          },
          {
            "time": 228.684302,
            "midi": 42,
            "name": "F#2",
            "velocity": 0.5590551181102362,
            "duration": 0.0027412291666450983,
            "ticks": 83424,
            "durationTicks": 1
          },
          {
            "time": 228.815881,
            "midi": 42,
            "name": "F#2",
            "velocity": 0.5590551181102362,
            "duration": 0.00274122916667352,
            "ticks": 83472,
            "durationTicks": 1
          },
          {
            "time": 228.94746,
            "midi": 42,
            "name": "F#2",
            "velocity": 0.9133858267716536,
            "duration": 0.0027412291666450983,
            "ticks": 83520,
            "durationTicks": 1
          },
          {
            "time": 228.94746,
            "midi": 36,
            "name": "C2",
            "velocity": 1,
            "duration": 0.0027412291666450983,
            "ticks": 83520,
            "durationTicks": 1
          },
          {
            "time": 228.94746,
            "midi": 39,
            "name": "D#2",
            "velocity": 0.7874015748031497,
            "duration": 0.0027412291666450983,
            "ticks": 83520,
            "durationTicks": 1
          },
          {
            "time": 229.210618,
            "midi": 46,
            "name": "A#2",
            "velocity": 0.5354330708661418,
            "duration": 0.0027412291666450983,
            "ticks": 83616,
            "durationTicks": 1
          },
          {
            "time": 229.47377600000002,
            "midi": 42,
            "name": "F#2",
            "velocity": 0.9133858267716536,
            "duration": 0.0027412291666450983,
            "ticks": 83712,
            "durationTicks": 1
          },
          {
            "time": 229.47377600000002,
            "midi": 36,
            "name": "C2",
            "velocity": 1,
            "duration": 0.0027412291666450983,
            "ticks": 83712,
            "durationTicks": 1
          },
          {
            "time": 229.736934,
            "midi": 42,
            "name": "F#2",
            "velocity": 0.3464566929133858,
            "duration": 0.00274122916667352,
            "ticks": 83808,
            "durationTicks": 1
          },
          {
            "time": 229.868513,
            "midi": 42,
            "name": "F#2",
            "velocity": 0.7874015748031497,
            "duration": 0.0027412291666450983,
            "ticks": 83856,
            "durationTicks": 1
          },
          {
            "time": 230.000092,
            "midi": 42,
            "name": "F#2",
            "velocity": 0.9133858267716536,
            "duration": 0.00274122916667352,
            "ticks": 83904,
            "durationTicks": 1
          },
          {
            "time": 230.000092,
            "midi": 36,
            "name": "C2",
            "velocity": 1,
            "duration": 0.00274122916667352,
            "ticks": 83904,
            "durationTicks": 1
          },
          {
            "time": 230.000092,
            "midi": 39,
            "name": "D#2",
            "velocity": 0.7874015748031497,
            "duration": 0.00274122916667352,
            "ticks": 83904,
            "durationTicks": 1
          },
          {
            "time": 230.26325,
            "midi": 42,
            "name": "F#2",
            "velocity": 0.25984251968503935,
            "duration": 0.00274122916667352,
            "ticks": 84000,
            "durationTicks": 1
          },
          {
            "time": 230.39482900000002,
            "midi": 42,
            "name": "F#2",
            "velocity": 0.6535433070866141,
            "duration": 0.0027412291666450983,
            "ticks": 84048,
            "durationTicks": 1
          },
          {
            "time": 230.526408,
            "midi": 42,
            "name": "F#2",
            "velocity": 0.9133858267716536,
            "duration": 0.0027412291666450983,
            "ticks": 84096,
            "durationTicks": 1
          },
          {
            "time": 230.526408,
            "midi": 36,
            "name": "C2",
            "velocity": 1,
            "duration": 0.0027412291666450983,
            "ticks": 84096,
            "durationTicks": 1
          },
          {
            "time": 230.789566,
            "midi": 42,
            "name": "F#2",
            "velocity": 0.5590551181102362,
            "duration": 0.0027412291666450983,
            "ticks": 84192,
            "durationTicks": 1
          },
          {
            "time": 230.921145,
            "midi": 42,
            "name": "F#2",
            "velocity": 0.6535433070866141,
            "duration": 0.00274122916667352,
            "ticks": 84240,
            "durationTicks": 1
          },
          {
            "time": 231.052724,
            "midi": 42,
            "name": "F#2",
            "velocity": 1,
            "duration": 0.0027412291666450983,
            "ticks": 84288,
            "durationTicks": 1
          },
          {
            "time": 231.052724,
            "midi": 36,
            "name": "C2",
            "velocity": 1,
            "duration": 0.0027412291666450983,
            "ticks": 84288,
            "durationTicks": 1
          },
          {
            "time": 231.052724,
            "midi": 39,
            "name": "D#2",
            "velocity": 0.9133858267716536,
            "duration": 0.0027412291666450983,
            "ticks": 84288,
            "durationTicks": 1
          },
          {
            "time": 231.31588200000002,
            "midi": 42,
            "name": "F#2",
            "velocity": 0.3779527559055118,
            "duration": 0.0027412291666450983,
            "ticks": 84384,
            "durationTicks": 1
          },
          {
            "time": 231.447461,
            "midi": 42,
            "name": "F#2",
            "velocity": 0.48031496062992124,
            "duration": 0.0027412291666450983,
            "ticks": 84432,
            "durationTicks": 1
          },
          {
            "time": 231.57904,
            "midi": 42,
            "name": "F#2",
            "velocity": 0.9133858267716536,
            "duration": 0.00274122916667352,
            "ticks": 84480,
            "durationTicks": 1
          },
          {
            "time": 231.57904,
            "midi": 36,
            "name": "C2",
            "velocity": 1,
            "duration": 0.00274122916667352,
            "ticks": 84480,
            "durationTicks": 1
          },
          {
            "time": 231.842198,
            "midi": 42,
            "name": "F#2",
            "velocity": 0.5590551181102362,
            "duration": 0.00274122916667352,
            "ticks": 84576,
            "durationTicks": 1
          },
          {
            "time": 231.973777,
            "midi": 42,
            "name": "F#2",
            "velocity": 0.5590551181102362,
            "duration": 0.0027412291666450983,
            "ticks": 84624,
            "durationTicks": 1
          },
          {
            "time": 232.105356,
            "midi": 42,
            "name": "F#2",
            "velocity": 0.9133858267716536,
            "duration": 0.0027412291666450983,
            "ticks": 84672,
            "durationTicks": 1
          },
          {
            "time": 232.105356,
            "midi": 36,
            "name": "C2",
            "velocity": 1,
            "duration": 0.0027412291666450983,
            "ticks": 84672,
            "durationTicks": 1
          },
          {
            "time": 232.105356,
            "midi": 39,
            "name": "D#2",
            "velocity": 0.7874015748031497,
            "duration": 0.0027412291666450983,
            "ticks": 84672,
            "durationTicks": 1
          },
          {
            "time": 232.368514,
            "midi": 46,
            "name": "A#2",
            "velocity": 0.5354330708661418,
            "duration": 0.0027412291666450983,
            "ticks": 84768,
            "durationTicks": 1
          },
          {
            "time": 232.631672,
            "midi": 42,
            "name": "F#2",
            "velocity": 0.9133858267716536,
            "duration": 0.0027412291666450983,
            "ticks": 84864,
            "durationTicks": 1
          },
          {
            "time": 232.631672,
            "midi": 36,
            "name": "C2",
            "velocity": 1,
            "duration": 0.0027412291666450983,
            "ticks": 84864,
            "durationTicks": 1
          },
          {
            "time": 232.89483,
            "midi": 42,
            "name": "F#2",
            "velocity": 0.48031496062992124,
            "duration": 0.0027412291666450983,
            "ticks": 84960,
            "durationTicks": 1
          },
          {
            "time": 233.026409,
            "midi": 42,
            "name": "F#2",
            "velocity": 0.7874015748031497,
            "duration": 0.0027412291666450983,
            "ticks": 85008,
            "durationTicks": 1
          },
          {
            "time": 233.157988,
            "midi": 42,
            "name": "F#2",
            "velocity": 0.9133858267716536,
            "duration": 0.00274122916667352,
            "ticks": 85056,
            "durationTicks": 1
          },
          {
            "time": 233.157988,
            "midi": 36,
            "name": "C2",
            "velocity": 1,
            "duration": 0.00274122916667352,
            "ticks": 85056,
            "durationTicks": 1
          },
          {
            "time": 233.157988,
            "midi": 39,
            "name": "D#2",
            "velocity": 0.984251968503937,
            "duration": 0.00274122916667352,
            "ticks": 85056,
            "durationTicks": 1
          },
          {
            "time": 233.289567,
            "midi": 39,
            "name": "D#2",
            "velocity": 0.8267716535433071,
            "duration": 0.0027412291666450983,
            "ticks": 85104,
            "durationTicks": 1
          },
          {
            "time": 233.421146,
            "midi": 46,
            "name": "A#2",
            "velocity": 0.7480314960629921,
            "duration": 0.00274122916667352,
            "ticks": 85152,
            "durationTicks": 1
          },
          {
            "time": 233.421146,
            "midi": 39,
            "name": "D#2",
            "velocity": 0.6692913385826772,
            "duration": 0.00274122916667352,
            "ticks": 85152,
            "durationTicks": 1
          },
          {
            "time": 233.552725,
            "midi": 39,
            "name": "D#2",
            "velocity": 0.5118110236220472,
            "duration": 0.0027412291666450983,
            "ticks": 85200,
            "durationTicks": 1
          },
          {
            "time": 233.684304,
            "midi": 42,
            "name": "F#2",
            "velocity": 0.8818897637795275,
            "duration": 0.00274122916667352,
            "ticks": 85248,
            "durationTicks": 1
          },
          {
            "time": 233.947462,
            "midi": 42,
            "name": "F#2",
            "velocity": 0.4251968503937008,
            "duration": 0.0027412291666450983,
            "ticks": 85344,
            "durationTicks": 1
          },
          {
            "time": 234.079041,
            "midi": 42,
            "name": "F#2",
            "velocity": 0.7874015748031497,
            "duration": 0.00274122916667352,
            "ticks": 85392,
            "durationTicks": 1
          },
          {
            "time": 234.21062,
            "midi": 42,
            "name": "F#2",
            "velocity": 0.9133858267716536,
            "duration": 0.0027412291666450983,
            "ticks": 85440,
            "durationTicks": 1
          },
          {
            "time": 234.21062,
            "midi": 39,
            "name": "D#2",
            "velocity": 0.7874015748031497,
            "duration": 0.0027412291666450983,
            "ticks": 85440,
            "durationTicks": 1
          },
          {
            "time": 234.473778,
            "midi": 42,
            "name": "F#2",
            "velocity": 0.31496062992125984,
            "duration": 0.0027412291666450983,
            "ticks": 85536,
            "durationTicks": 1
          },
          {
            "time": 234.605357,
            "midi": 42,
            "name": "F#2",
            "velocity": 0.6535433070866141,
            "duration": 0.00274122916667352,
            "ticks": 85584,
            "durationTicks": 1
          },
          {
            "time": 234.73693600000001,
            "midi": 42,
            "name": "F#2",
            "velocity": 0.9133858267716536,
            "duration": 0.0027412291666450983,
            "ticks": 85632,
            "durationTicks": 1
          },
          {
            "time": 235.000094,
            "midi": 42,
            "name": "F#2",
            "velocity": 0.3779527559055118,
            "duration": 0.00274122916667352,
            "ticks": 85728,
            "durationTicks": 1
          },
          {
            "time": 235.131673,
            "midi": 42,
            "name": "F#2",
            "velocity": 0.5590551181102362,
            "duration": 0.0027412291666450983,
            "ticks": 85776,
            "durationTicks": 1
          },
          {
            "time": 235.263252,
            "midi": 42,
            "name": "F#2",
            "velocity": 0.9133858267716536,
            "duration": 0.00274122916667352,
            "ticks": 85824,
            "durationTicks": 1
          },
          {
            "time": 235.263252,
            "midi": 39,
            "name": "D#2",
            "velocity": 0.9133858267716536,
            "duration": 0.00274122916667352,
            "ticks": 85824,
            "durationTicks": 1
          },
          {
            "time": 235.52641,
            "midi": 42,
            "name": "F#2",
            "velocity": 0.10236220472440945,
            "duration": 0.00274122916667352,
            "ticks": 85920,
            "durationTicks": 1
          },
          {
            "time": 235.65798900000001,
            "midi": 42,
            "name": "F#2",
            "velocity": 0.5590551181102362,
            "duration": 0.0027412291666450983,
            "ticks": 85968,
            "durationTicks": 1
          },
          {
            "time": 235.789568,
            "midi": 42,
            "name": "F#2",
            "velocity": 0.7874015748031497,
            "duration": 0.0027412291666450983,
            "ticks": 86016,
            "durationTicks": 1
          },
          {
            "time": 236.052726,
            "midi": 42,
            "name": "F#2",
            "velocity": 0.4251968503937008,
            "duration": 0.0027412291666450983,
            "ticks": 86112,
            "durationTicks": 1
          },
          {
            "time": 236.184305,
            "midi": 42,
            "name": "F#2",
            "velocity": 0.6535433070866141,
            "duration": 0.00274122916667352,
            "ticks": 86160,
            "durationTicks": 1
          },
          {
            "time": 236.315884,
            "midi": 42,
            "name": "F#2",
            "velocity": 0.9133858267716536,
            "duration": 0.0027412291666450983,
            "ticks": 86208,
            "durationTicks": 1
          },
          {
            "time": 236.315884,
            "midi": 39,
            "name": "D#2",
            "velocity": 0.9133858267716536,
            "duration": 0.0027412291666450983,
            "ticks": 86208,
            "durationTicks": 1
          },
          {
            "time": 236.57904200000002,
            "midi": 42,
            "name": "F#2",
            "velocity": 0.4251968503937008,
            "duration": 0.0027412291666450983,
            "ticks": 86304,
            "durationTicks": 1
          },
          {
            "time": 236.710621,
            "midi": 42,
            "name": "F#2",
            "velocity": 0.5590551181102362,
            "duration": 0.0027412291666450983,
            "ticks": 86352,
            "durationTicks": 1
          },
          {
            "time": 236.8422,
            "midi": 42,
            "name": "F#2",
            "velocity": 0.7874015748031497,
            "duration": 0.00274122916667352,
            "ticks": 86400,
            "durationTicks": 1
          },
          {
            "time": 237.105358,
            "midi": 42,
            "name": "F#2",
            "velocity": 0.5590551181102362,
            "duration": 0.00274122916667352,
            "ticks": 86496,
            "durationTicks": 1
          },
          {
            "time": 237.236937,
            "midi": 42,
            "name": "F#2",
            "velocity": 0.5590551181102362,
            "duration": 0.0027412291666450983,
            "ticks": 86544,
            "durationTicks": 1
          },
          {
            "time": 237.368516,
            "midi": 42,
            "name": "F#2",
            "velocity": 0.9133858267716536,
            "duration": 0.00274122916667352,
            "ticks": 86592,
            "durationTicks": 1
          },
          {
            "time": 237.368516,
            "midi": 39,
            "name": "D#2",
            "velocity": 0.7874015748031497,
            "duration": 0.00274122916667352,
            "ticks": 86592,
            "durationTicks": 1
          },
          {
            "time": 237.631674,
            "midi": 46,
            "name": "A#2",
            "velocity": 0.5354330708661418,
            "duration": 0.0027412291666450983,
            "ticks": 86688,
            "durationTicks": 1
          },
          {
            "time": 237.894832,
            "midi": 42,
            "name": "F#2",
            "velocity": 0.9133858267716536,
            "duration": 0.0027412291666450983,
            "ticks": 86784,
            "durationTicks": 1
          },
          {
            "time": 238.15799,
            "midi": 42,
            "name": "F#2",
            "velocity": 0.3464566929133858,
            "duration": 0.0027412291666450983,
            "ticks": 86880,
            "durationTicks": 1
          },
          {
            "time": 238.289569,
            "midi": 42,
            "name": "F#2",
            "velocity": 0.7874015748031497,
            "duration": 0.0027412291666450983,
            "ticks": 86928,
            "durationTicks": 1
          },
          {
            "time": 238.42114800000002,
            "midi": 42,
            "name": "F#2",
            "velocity": 0.9133858267716536,
            "duration": 0.0027412291666450983,
            "ticks": 86976,
            "durationTicks": 1
          },
          {
            "time": 238.42114800000002,
            "midi": 39,
            "name": "D#2",
            "velocity": 0.7874015748031497,
            "duration": 0.0027412291666450983,
            "ticks": 86976,
            "durationTicks": 1
          },
          {
            "time": 238.684306,
            "midi": 42,
            "name": "F#2",
            "velocity": 0.25984251968503935,
            "duration": 0.00274122916667352,
            "ticks": 87072,
            "durationTicks": 1
          },
          {
            "time": 238.815885,
            "midi": 42,
            "name": "F#2",
            "velocity": 0.6535433070866141,
            "duration": 0.0027412291666450983,
            "ticks": 87120,
            "durationTicks": 1
          },
          {
            "time": 238.947464,
            "midi": 42,
            "name": "F#2",
            "velocity": 0.9133858267716536,
            "duration": 0.00274122916667352,
            "ticks": 87168,
            "durationTicks": 1
          },
          {
            "time": 239.210622,
            "midi": 42,
            "name": "F#2",
            "velocity": 0.5590551181102362,
            "duration": 0.0027412291666450983,
            "ticks": 87264,
            "durationTicks": 1
          },
          {
            "time": 239.342201,
            "midi": 42,
            "name": "F#2",
            "velocity": 0.6535433070866141,
            "duration": 0.00274122916667352,
            "ticks": 87312,
            "durationTicks": 1
          },
          {
            "time": 239.47378,
            "midi": 42,
            "name": "F#2",
            "velocity": 1,
            "duration": 0.0027412291666450983,
            "ticks": 87360,
            "durationTicks": 1
          },
          {
            "time": 239.47378,
            "midi": 39,
            "name": "D#2",
            "velocity": 0.9133858267716536,
            "duration": 0.0027412291666450983,
            "ticks": 87360,
            "durationTicks": 1
          },
          {
            "time": 239.736938,
            "midi": 42,
            "name": "F#2",
            "velocity": 0.3779527559055118,
            "duration": 0.0027412291666450983,
            "ticks": 87456,
            "durationTicks": 1
          },
          {
            "time": 239.868517,
            "midi": 42,
            "name": "F#2",
            "velocity": 0.48031496062992124,
            "duration": 0.00274122916667352,
            "ticks": 87504,
            "durationTicks": 1
          },
          {
            "time": 240.000096,
            "midi": 42,
            "name": "F#2",
            "velocity": 0.9133858267716536,
            "duration": 0.0027412291666450983,
            "ticks": 87552,
            "durationTicks": 1
          },
          {
            "time": 240.263254,
            "midi": 42,
            "name": "F#2",
            "velocity": 0.5590551181102362,
            "duration": 0.00274122916667352,
            "ticks": 87648,
            "durationTicks": 1
          },
          {
            "time": 240.394833,
            "midi": 42,
            "name": "F#2",
            "velocity": 0.5590551181102362,
            "duration": 0.0027412291666450983,
            "ticks": 87696,
            "durationTicks": 1
          },
          {
            "time": 240.526412,
            "midi": 42,
            "name": "F#2",
            "velocity": 0.9133858267716536,
            "duration": 0.00274122916667352,
            "ticks": 87744,
            "durationTicks": 1
          },
          {
            "time": 240.526412,
            "midi": 39,
            "name": "D#2",
            "velocity": 0.7874015748031497,
            "duration": 0.00274122916667352,
            "ticks": 87744,
            "durationTicks": 1
          },
          {
            "time": 240.78957,
            "midi": 46,
            "name": "A#2",
            "velocity": 0.5354330708661418,
            "duration": 0.00274122916667352,
            "ticks": 87840,
            "durationTicks": 1
          },
          {
            "time": 241.052728,
            "midi": 42,
            "name": "F#2",
            "velocity": 0.9133858267716536,
            "duration": 0.0027412291666450983,
            "ticks": 87936,
            "durationTicks": 1
          },
          {
            "time": 241.315886,
            "midi": 42,
            "name": "F#2",
            "velocity": 0.48031496062992124,
            "duration": 0.0027412291666450983,
            "ticks": 88032,
            "durationTicks": 1
          },
          {
            "time": 241.447465,
            "midi": 42,
            "name": "F#2",
            "velocity": 0.7874015748031497,
            "duration": 0.00274122916667352,
            "ticks": 88080,
            "durationTicks": 1
          },
          {
            "time": 241.579044,
            "midi": 39,
            "name": "D#2",
            "velocity": 0.984251968503937,
            "duration": 0.0027412291666450983,
            "ticks": 88128,
            "durationTicks": 1
          },
          {
            "time": 241.710623,
            "midi": 39,
            "name": "D#2",
            "velocity": 0.8267716535433071,
            "duration": 2.5000009999999975,
            "ticks": 88176,
            "durationTicks": 912
          }
        ],
        "controlChanges": {
          "0": [
            {
              "number": 0,
              "value": 0,
              "time": 1.5844304583333333,
              "ticks": 578
            }
          ],
          "1": [
            {
              "number": 1,
              "value": 0,
              "time": 0.021929833333333332,
              "ticks": 8
            }
          ],
          "6": [
            {
              "number": 6,
              "value": 0.09448818897637795,
              "time": 0.016447375,
              "ticks": 6
            }
          ],
          "7": [
            {
              "number": 7,
              "value": 0.9448818897637795,
              "time": 1.5899129166666668,
              "ticks": 580
            }
          ],
          "10": [
            {
              "number": 10,
              "value": 0.5039370078740157,
              "time": 1.595395375,
              "ticks": 582
            }
          ],
          "11": [
            {
              "number": 11,
              "value": 1,
              "time": 0.019188604166666668,
              "ticks": 7
            },
            {
              "number": 11,
              "value": 1,
              "time": 0.027412291666666668,
              "ticks": 10
            },
            {
              "number": 11,
              "value": 1,
              "time": 1.6008778333333333,
              "ticks": 584
            }
          ],
          "32": [
            {
              "number": 32,
              "value": 0,
              "time": 1.5844304583333333,
              "ticks": 578
            }
          ],
          "64": [
            {
              "number": 64,
              "value": 0,
              "time": 0.0082236875,
              "ticks": 3
            }
          ],
          "67": [
            {
              "number": 67,
              "value": 0,
              "time": 0.005482458333333333,
              "ticks": 2
            }
          ],
          "91": [
            {
              "number": 91,
              "value": 0.5039370078740157,
              "time": 1.6063602916666668,
              "ticks": 586
            }
          ],
          "93": [
            {
              "number": 93,
              "value": 0,
              "time": 1.61184275,
              "ticks": 588
            }
          ],
          "100": [
            {
              "number": 100,
              "value": 0,
              "time": 0.010964916666666666,
              "ticks": 4
            }
          ],
          "101": [
            {
              "number": 101,
              "value": 0,
              "time": 0.013706145833333334,
              "ticks": 5
            }
          ],
          "121": [
            {
              "number": 121,
              "value": 0,
              "time": 0,
              "ticks": 0
            }
          ],
          "123": [
            {
              "number": 123,
              "value": 0,
              "time": 244.20514154166665,
              "ticks": 89086
            }
          ]
        }
      },
      {
        "name": "",
        "channel": 0,
        "instrument": {
          "number": 0,
          "name": "acoustic grand piano",
          "family": "piano"
        },
        "notes": [
          {
            "time": 6.315792,
            "midi": 60,
            "name": "C4",
            "velocity": 0.6535433070866141,
            "duration": 0.0027412291666673028,
            "ticks": 2304,
            "durationTicks": 1
          },
          {
            "time": 6.710529,
            "midi": 62,
            "name": "D4",
            "velocity": 0.6535433070866141,
            "duration": 0.0027412291666673028,
            "ticks": 2448,
            "durationTicks": 1
          },
          {
            "time": 6.842108,
            "midi": 60,
            "name": "C4",
            "velocity": 0.6535433070866141,
            "duration": 0.0027412291666673028,
            "ticks": 2496,
            "durationTicks": 1
          },
          {
            "time": 7.105266,
            "midi": 61,
            "name": "C#4",
            "velocity": 0.6535433070866141,
            "duration": 0.0027412291666664146,
            "ticks": 2592,
            "durationTicks": 1
          },
          {
            "time": 7.368424,
            "midi": 60,
            "name": "C4",
            "velocity": 0.6535433070866141,
            "duration": 0.0027412291666673028,
            "ticks": 2688,
            "durationTicks": 1
          },
          {
            "time": 7.763161,
            "midi": 62,
            "name": "D4",
            "velocity": 0.6535433070866141,
            "duration": 0.0027412291666673028,
            "ticks": 2832,
            "durationTicks": 1
          },
          {
            "time": 7.8947400000000005,
            "midi": 60,
            "name": "C4",
            "velocity": 0.6535433070866141,
            "duration": 0.0027412291666664146,
            "ticks": 2880,
            "durationTicks": 1
          },
          {
            "time": 8.157898,
            "midi": 61,
            "name": "C#4",
            "velocity": 0.6535433070866141,
            "duration": 0.002741229166668191,
            "ticks": 2976,
            "durationTicks": 1
          },
          {
            "time": 8.421056,
            "midi": 60,
            "name": "C4",
            "velocity": 0.6535433070866141,
            "duration": 0.0027412291666664146,
            "ticks": 3072,
            "durationTicks": 1
          },
          {
            "time": 8.815793,
            "midi": 62,
            "name": "D4",
            "velocity": 0.6535433070866141,
            "duration": 0.0027412291666664146,
            "ticks": 3216,
            "durationTicks": 1
          },
          {
            "time": 8.947372,
            "midi": 60,
            "name": "C4",
            "velocity": 0.6535433070866141,
            "duration": 0.0027412291666664146,
            "ticks": 3264,
            "durationTicks": 1
          },
          {
            "time": 9.21053,
            "midi": 61,
            "name": "C#4",
            "velocity": 0.6535433070866141,
            "duration": 0.0027412291666664146,
            "ticks": 3360,
            "durationTicks": 1
          },
          {
            "time": 9.473688,
            "midi": 60,
            "name": "C4",
            "velocity": 0.6535433070866141,
            "duration": 0.0027412291666664146,
            "ticks": 3456,
            "durationTicks": 1
          },
          {
            "time": 9.868425,
            "midi": 62,
            "name": "D4",
            "velocity": 0.6535433070866141,
            "duration": 0.0027412291666664146,
            "ticks": 3600,
            "durationTicks": 1
          },
          {
            "time": 10.000004,
            "midi": 60,
            "name": "C4",
            "velocity": 0.6535433070866141,
            "duration": 0.0027412291666664146,
            "ticks": 3648,
            "durationTicks": 1
          },
          {
            "time": 10.263162,
            "midi": 61,
            "name": "C#4",
            "velocity": 0.6535433070866141,
            "duration": 0.0027412291666664146,
            "ticks": 3744,
            "durationTicks": 1
          },
          {
            "time": 10.52632,
            "midi": 60,
            "name": "C4",
            "velocity": 0.6535433070866141,
            "duration": 0.0027412291666664146,
            "ticks": 3840,
            "durationTicks": 1
          },
          {
            "time": 10.921057,
            "midi": 62,
            "name": "D4",
            "velocity": 0.6535433070866141,
            "duration": 0.0027412291666664146,
            "ticks": 3984,
            "durationTicks": 1
          },
          {
            "time": 11.052636,
            "midi": 60,
            "name": "C4",
            "velocity": 0.6535433070866141,
            "duration": 0.0027412291666664146,
            "ticks": 4032,
            "durationTicks": 1
          },
          {
            "time": 11.315794,
            "midi": 61,
            "name": "C#4",
            "velocity": 0.6535433070866141,
            "duration": 0.0027412291666664146,
            "ticks": 4128,
            "durationTicks": 1
          },
          {
            "time": 11.578952000000001,
            "midi": 60,
            "name": "C4",
            "velocity": 0.6535433070866141,
            "duration": 0.0027412291666646382,
            "ticks": 4224,
            "durationTicks": 1
          },
          {
            "time": 11.973689,
            "midi": 62,
            "name": "D4",
            "velocity": 0.6535433070866141,
            "duration": 0.0027412291666664146,
            "ticks": 4368,
            "durationTicks": 1
          },
          {
            "time": 12.105268,
            "midi": 60,
            "name": "C4",
            "velocity": 0.6535433070866141,
            "duration": 0.0027412291666664146,
            "ticks": 4416,
            "durationTicks": 1
          },
          {
            "time": 12.368426,
            "midi": 61,
            "name": "C#4",
            "velocity": 0.6535433070866141,
            "duration": 0.0027412291666664146,
            "ticks": 4512,
            "durationTicks": 1
          },
          {
            "time": 12.631584,
            "midi": 60,
            "name": "C4",
            "velocity": 0.6535433070866141,
            "duration": 0.0027412291666664146,
            "ticks": 4608,
            "durationTicks": 1
          },
          {
            "time": 13.026321,
            "midi": 62,
            "name": "D4",
            "velocity": 0.6535433070866141,
            "duration": 0.0027412291666664146,
            "ticks": 4752,
            "durationTicks": 1
          },
          {
            "time": 13.1579,
            "midi": 60,
            "name": "C4",
            "velocity": 0.6535433070866141,
            "duration": 0.0027412291666664146,
            "ticks": 4800,
            "durationTicks": 1
          },
          {
            "time": 13.421058,
            "midi": 61,
            "name": "C#4",
            "velocity": 0.6535433070866141,
            "duration": 0.0027412291666664146,
            "ticks": 4896,
            "durationTicks": 1
          },
          {
            "time": 13.684216,
            "midi": 60,
            "name": "C4",
            "velocity": 0.6535433070866141,
            "duration": 0.0027412291666664146,
            "ticks": 4992,
            "durationTicks": 1
          },
          {
            "time": 14.078953,
            "midi": 62,
            "name": "D4",
            "velocity": 0.6535433070866141,
            "duration": 0.0027412291666664146,
            "ticks": 5136,
            "durationTicks": 1
          },
          {
            "time": 14.210532,
            "midi": 60,
            "name": "C4",
            "velocity": 0.6535433070866141,
            "duration": 0.0027412291666664146,
            "ticks": 5184,
            "durationTicks": 1
          },
          {
            "time": 14.47369,
            "midi": 61,
            "name": "C#4",
            "velocity": 0.6535433070866141,
            "duration": 0.0027412291666664146,
            "ticks": 5280,
            "durationTicks": 1
          },
          {
            "time": 14.736848,
            "midi": 60,
            "name": "C4",
            "velocity": 0.6535433070866141,
            "duration": 0.0027412291666664146,
            "ticks": 5376,
            "durationTicks": 1
          },
          {
            "time": 15.131585,
            "midi": 62,
            "name": "D4",
            "velocity": 0.6535433070866141,
            "duration": 0.0027412291666664146,
            "ticks": 5520,
            "durationTicks": 1
          },
          {
            "time": 15.263164,
            "midi": 60,
            "name": "C4",
            "velocity": 0.6535433070866141,
            "duration": 0.0027412291666664146,
            "ticks": 5568,
            "durationTicks": 1
          },
          {
            "time": 15.526322,
            "midi": 61,
            "name": "C#4",
            "velocity": 0.6535433070866141,
            "duration": 0.0027412291666664146,
            "ticks": 5664,
            "durationTicks": 1
          },
          {
            "time": 15.789480000000001,
            "midi": 60,
            "name": "C4",
            "velocity": 0.6535433070866141,
            "duration": 0.0027412291666646382,
            "ticks": 5760,
            "durationTicks": 1
          },
          {
            "time": 16.184217,
            "midi": 62,
            "name": "D4",
            "velocity": 0.6535433070866141,
            "duration": 0.0027412291666664146,
            "ticks": 5904,
            "durationTicks": 1
          },
          {
            "time": 16.315796,
            "midi": 60,
            "name": "C4",
            "velocity": 0.6535433070866141,
            "duration": 0.0027412291666664146,
            "ticks": 5952,
            "durationTicks": 1
          },
          {
            "time": 16.578954,
            "midi": 61,
            "name": "C#4",
            "velocity": 0.6535433070866141,
            "duration": 0.0027412291666664146,
            "ticks": 6048,
            "durationTicks": 1
          },
          {
            "time": 16.842112,
            "midi": 60,
            "name": "C4",
            "velocity": 0.6535433070866141,
            "duration": 0.0027412291666664146,
            "ticks": 6144,
            "durationTicks": 1
          },
          {
            "time": 17.236849,
            "midi": 62,
            "name": "D4",
            "velocity": 0.6535433070866141,
            "duration": 0.0027412291666699673,
            "ticks": 6288,
            "durationTicks": 1
          },
          {
            "time": 17.368428,
            "midi": 60,
            "name": "C4",
            "velocity": 0.6535433070866141,
            "duration": 0.0027412291666664146,
            "ticks": 6336,
            "durationTicks": 1
          },
          {
            "time": 17.631586,
            "midi": 61,
            "name": "C#4",
            "velocity": 0.6535433070866141,
            "duration": 0.0027412291666699673,
            "ticks": 6432,
            "durationTicks": 1
          },
          {
            "time": 17.894744,
            "midi": 60,
            "name": "C4",
            "velocity": 0.6535433070866141,
            "duration": 0.0027412291666699673,
            "ticks": 6528,
            "durationTicks": 1
          },
          {
            "time": 18.289481,
            "midi": 62,
            "name": "D4",
            "velocity": 0.6535433070866141,
            "duration": 0.0027412291666699673,
            "ticks": 6672,
            "durationTicks": 1
          },
          {
            "time": 18.42106,
            "midi": 60,
            "name": "C4",
            "velocity": 0.6535433070866141,
            "duration": 0.0027412291666664146,
            "ticks": 6720,
            "durationTicks": 1
          },
          {
            "time": 18.684218,
            "midi": 61,
            "name": "C#4",
            "velocity": 0.6535433070866141,
            "duration": 0.0027412291666664146,
            "ticks": 6816,
            "durationTicks": 1
          },
          {
            "time": 18.947376,
            "midi": 60,
            "name": "C4",
            "velocity": 0.6535433070866141,
            "duration": 0.0027412291666699673,
            "ticks": 6912,
            "durationTicks": 1
          },
          {
            "time": 19.342113,
            "midi": 62,
            "name": "D4",
            "velocity": 0.6535433070866141,
            "duration": 0.0027412291666664146,
            "ticks": 7056,
            "durationTicks": 1
          },
          {
            "time": 19.473692,
            "midi": 60,
            "name": "C4",
            "velocity": 0.6535433070866141,
            "duration": 0.0027412291666699673,
            "ticks": 7104,
            "durationTicks": 1
          },
          {
            "time": 19.73685,
            "midi": 61,
            "name": "C#4",
            "velocity": 0.6535433070866141,
            "duration": 0.0027412291666664146,
            "ticks": 7200,
            "durationTicks": 1
          },
          {
            "time": 20.000008,
            "midi": 60,
            "name": "C4",
            "velocity": 0.6535433070866141,
            "duration": 0.0027412291666664146,
            "ticks": 7296,
            "durationTicks": 1
          },
          {
            "time": 20.394745,
            "midi": 62,
            "name": "D4",
            "velocity": 0.6535433070866141,
            "duration": 0.0027412291666664146,
            "ticks": 7440,
            "durationTicks": 1
          },
          {
            "time": 20.526324,
            "midi": 60,
            "name": "C4",
            "velocity": 0.6535433070866141,
            "duration": 0.0027412291666699673,
            "ticks": 7488,
            "durationTicks": 1
          },
          {
            "time": 20.789482,
            "midi": 61,
            "name": "C#4",
            "velocity": 0.6535433070866141,
            "duration": 0.0027412291666699673,
            "ticks": 7584,
            "durationTicks": 1
          },
          {
            "time": 21.05264,
            "midi": 60,
            "name": "C4",
            "velocity": 0.6535433070866141,
            "duration": 0.0027412291666664146,
            "ticks": 7680,
            "durationTicks": 1
          },
          {
            "time": 21.447377,
            "midi": 62,
            "name": "D4",
            "velocity": 0.6535433070866141,
            "duration": 0.0027412291666699673,
            "ticks": 7824,
            "durationTicks": 1
          },
          {
            "time": 21.578956,
            "midi": 60,
            "name": "C4",
            "velocity": 0.6535433070866141,
            "duration": 0.0027412291666664146,
            "ticks": 7872,
            "durationTicks": 1
          },
          {
            "time": 21.842114,
            "midi": 61,
            "name": "C#4",
            "velocity": 0.6535433070866141,
            "duration": 0.0027412291666699673,
            "ticks": 7968,
            "durationTicks": 1
          },
          {
            "time": 22.105272,
            "midi": 60,
            "name": "C4",
            "velocity": 0.6535433070866141,
            "duration": 0.0027412291666699673,
            "ticks": 8064,
            "durationTicks": 1
          },
          {
            "time": 22.500009,
            "midi": 62,
            "name": "D4",
            "velocity": 0.6535433070866141,
            "duration": 0.0027412291666699673,
            "ticks": 8208,
            "durationTicks": 1
          },
          {
            "time": 22.631588,
            "midi": 60,
            "name": "C4",
            "velocity": 0.6535433070866141,
            "duration": 0.0027412291666664146,
            "ticks": 8256,
            "durationTicks": 1
          },
          {
            "time": 22.894746,
            "midi": 61,
            "name": "C#4",
            "velocity": 0.6535433070866141,
            "duration": 0.0027412291666664146,
            "ticks": 8352,
            "durationTicks": 1
          },
          {
            "time": 23.157904000000002,
            "midi": 60,
            "name": "C4",
            "velocity": 0.6535433070866141,
            "duration": 0.0027412291666664146,
            "ticks": 8448,
            "durationTicks": 1
          },
          {
            "time": 23.552641,
            "midi": 62,
            "name": "D4",
            "velocity": 0.6535433070866141,
            "duration": 0.0027412291666664146,
            "ticks": 8592,
            "durationTicks": 1
          },
          {
            "time": 23.68422,
            "midi": 60,
            "name": "C4",
            "velocity": 0.6535433070866141,
            "duration": 0.0027412291666699673,
            "ticks": 8640,
            "durationTicks": 1
          },
          {
            "time": 23.947378,
            "midi": 61,
            "name": "C#4",
            "velocity": 0.6535433070866141,
            "duration": 0.0027412291666664146,
            "ticks": 8736,
            "durationTicks": 1
          },
          {
            "time": 24.210536,
            "midi": 60,
            "name": "C4",
            "velocity": 0.6535433070866141,
            "duration": 0.0027412291666664146,
            "ticks": 8832,
            "durationTicks": 1
          },
          {
            "time": 24.605273,
            "midi": 62,
            "name": "D4",
            "velocity": 0.6535433070866141,
            "duration": 0.0027412291666664146,
            "ticks": 8976,
            "durationTicks": 1
          },
          {
            "time": 24.736852,
            "midi": 60,
            "name": "C4",
            "velocity": 0.6535433070866141,
            "duration": 0.0027412291666699673,
            "ticks": 9024,
            "durationTicks": 1
          },
          {
            "time": 25.00001,
            "midi": 61,
            "name": "C#4",
            "velocity": 0.6535433070866141,
            "duration": 0.0027412291666699673,
            "ticks": 9120,
            "durationTicks": 1
          },
          {
            "time": 25.263168,
            "midi": 60,
            "name": "C4",
            "velocity": 0.6535433070866141,
            "duration": 0.0027412291666664146,
            "ticks": 9216,
            "durationTicks": 1
          },
          {
            "time": 25.657905,
            "midi": 62,
            "name": "D4",
            "velocity": 0.6535433070866141,
            "duration": 0.0027412291666699673,
            "ticks": 9360,
            "durationTicks": 1
          },
          {
            "time": 25.789484,
            "midi": 60,
            "name": "C4",
            "velocity": 0.6535433070866141,
            "duration": 0.0027412291666664146,
            "ticks": 9408,
            "durationTicks": 1
          },
          {
            "time": 26.052642,
            "midi": 61,
            "name": "C#4",
            "velocity": 0.6535433070866141,
            "duration": 0.0027412291666699673,
            "ticks": 9504,
            "durationTicks": 1
          },
          {
            "time": 26.3158,
            "midi": 60,
            "name": "C4",
            "velocity": 0.6535433070866141,
            "duration": 0.0027412291666699673,
            "ticks": 9600,
            "durationTicks": 1
          },
          {
            "time": 26.710537,
            "midi": 62,
            "name": "D4",
            "velocity": 0.6535433070866141,
            "duration": 0.0027412291666699673,
            "ticks": 9744,
            "durationTicks": 1
          },
          {
            "time": 26.842116,
            "midi": 60,
            "name": "C4",
            "velocity": 0.6535433070866141,
            "duration": 0.0027412291666664146,
            "ticks": 9792,
            "durationTicks": 1
          },
          {
            "time": 27.105274,
            "midi": 61,
            "name": "C#4",
            "velocity": 0.6535433070866141,
            "duration": 0.0027412291666664146,
            "ticks": 9888,
            "durationTicks": 1
          },
          {
            "time": 27.368432,
            "midi": 60,
            "name": "C4",
            "velocity": 0.6535433070866141,
            "duration": 0.0027412291666699673,
            "ticks": 9984,
            "durationTicks": 1
          },
          {
            "time": 27.763169,
            "midi": 62,
            "name": "D4",
            "velocity": 0.6535433070866141,
            "duration": 0.0027412291666664146,
            "ticks": 10128,
            "durationTicks": 1
          },
          {
            "time": 27.894748,
            "midi": 60,
            "name": "C4",
            "velocity": 0.6535433070866141,
            "duration": 0.0027412291666699673,
            "ticks": 10176,
            "durationTicks": 1
          },
          {
            "time": 28.157906,
            "midi": 61,
            "name": "C#4",
            "velocity": 0.6535433070866141,
            "duration": 0.0027412291666664146,
            "ticks": 10272,
            "durationTicks": 1
          },
          {
            "time": 28.421064,
            "midi": 60,
            "name": "C4",
            "velocity": 0.6535433070866141,
            "duration": 0.0027412291666664146,
            "ticks": 10368,
            "durationTicks": 1
          },
          {
            "time": 28.815801,
            "midi": 62,
            "name": "D4",
            "velocity": 0.6535433070866141,
            "duration": 0.0027412291666664146,
            "ticks": 10512,
            "durationTicks": 1
          },
          {
            "time": 28.94738,
            "midi": 60,
            "name": "C4",
            "velocity": 0.6535433070866141,
            "duration": 0.0027412291666699673,
            "ticks": 10560,
            "durationTicks": 1
          },
          {
            "time": 29.210538,
            "midi": 61,
            "name": "C#4",
            "velocity": 0.6535433070866141,
            "duration": 0.0027412291666699673,
            "ticks": 10656,
            "durationTicks": 1
          },
          {
            "time": 29.473696,
            "midi": 60,
            "name": "C4",
            "velocity": 0.6535433070866141,
            "duration": 0.0027412291666664146,
            "ticks": 10752,
            "durationTicks": 1
          },
          {
            "time": 29.868433,
            "midi": 62,
            "name": "D4",
            "velocity": 0.6535433070866141,
            "duration": 0.0027412291666699673,
            "ticks": 10896,
            "durationTicks": 1
          },
          {
            "time": 30.000012,
            "midi": 60,
            "name": "C4",
            "velocity": 0.6535433070866141,
            "duration": 0.0027412291666664146,
            "ticks": 10944,
            "durationTicks": 1
          },
          {
            "time": 30.26317,
            "midi": 61,
            "name": "C#4",
            "velocity": 0.6535433070866141,
            "duration": 0.0027412291666699673,
            "ticks": 11040,
            "durationTicks": 1
          },
          {
            "time": 30.526328,
            "midi": 60,
            "name": "C4",
            "velocity": 0.6535433070866141,
            "duration": 0.0027412291666699673,
            "ticks": 11136,
            "durationTicks": 1
          },
          {
            "time": 30.921065,
            "midi": 62,
            "name": "D4",
            "velocity": 0.6535433070866141,
            "duration": 0.0027412291666699673,
            "ticks": 11280,
            "durationTicks": 1
          },
          {
            "time": 31.052644,
            "midi": 60,
            "name": "C4",
            "velocity": 0.6535433070866141,
            "duration": 0.0027412291666664146,
            "ticks": 11328,
            "durationTicks": 1
          },
          {
            "time": 31.315802,
            "midi": 61,
            "name": "C#4",
            "velocity": 0.6535433070866141,
            "duration": 0.0027412291666664146,
            "ticks": 11424,
            "durationTicks": 1
          },
          {
            "time": 31.578960000000002,
            "midi": 60,
            "name": "C4",
            "velocity": 0.6535433070866141,
            "duration": 0.0027412291666664146,
            "ticks": 11520,
            "durationTicks": 1
          },
          {
            "time": 31.973697,
            "midi": 62,
            "name": "D4",
            "velocity": 0.6535433070866141,
            "duration": 0.0027412291666664146,
            "ticks": 11664,
            "durationTicks": 1
          },
          {
            "time": 32.105276,
            "midi": 60,
            "name": "C4",
            "velocity": 0.6535433070866141,
            "duration": 0.0027412291666664146,
            "ticks": 11712,
            "durationTicks": 1
          },
          {
            "time": 32.368434,
            "midi": 61,
            "name": "C#4",
            "velocity": 0.6535433070866141,
            "duration": 0.0027412291666664146,
            "ticks": 11808,
            "durationTicks": 1
          },
          {
            "time": 32.631592,
            "midi": 60,
            "name": "C4",
            "velocity": 0.6535433070866141,
            "duration": 0.00274122916667352,
            "ticks": 11904,
            "durationTicks": 1
          },
          {
            "time": 33.026329,
            "midi": 62,
            "name": "D4",
            "velocity": 0.6535433070866141,
            "duration": 0.00274122916667352,
            "ticks": 12048,
            "durationTicks": 1
          },
          {
            "time": 33.157908,
            "midi": 60,
            "name": "C4",
            "velocity": 0.6535433070866141,
            "duration": 0.0027412291666664146,
            "ticks": 12096,
            "durationTicks": 1
          },
          {
            "time": 33.421066,
            "midi": 61,
            "name": "C#4",
            "velocity": 0.6535433070866141,
            "duration": 0.0027412291666664146,
            "ticks": 12192,
            "durationTicks": 1
          },
          {
            "time": 33.684224,
            "midi": 60,
            "name": "C4",
            "velocity": 0.6535433070866141,
            "duration": 0.0027412291666664146,
            "ticks": 12288,
            "durationTicks": 1
          },
          {
            "time": 34.078961,
            "midi": 62,
            "name": "D4",
            "velocity": 0.6535433070866141,
            "duration": 0.0027412291666664146,
            "ticks": 12432,
            "durationTicks": 1
          },
          {
            "time": 34.21054,
            "midi": 60,
            "name": "C4",
            "velocity": 0.6535433070866141,
            "duration": 0.002741229166659309,
            "ticks": 12480,
            "durationTicks": 1
          },
          {
            "time": 34.473698,
            "midi": 61,
            "name": "C#4",
            "velocity": 0.6535433070866141,
            "duration": 0.0027412291666664146,
            "ticks": 12576,
            "durationTicks": 1
          },
          {
            "time": 34.736856,
            "midi": 60,
            "name": "C4",
            "velocity": 0.6535433070866141,
            "duration": 0.002741229166659309,
            "ticks": 12672,
            "durationTicks": 1
          },
          {
            "time": 35.131593,
            "midi": 62,
            "name": "D4",
            "velocity": 0.6535433070866141,
            "duration": 0.002741229166659309,
            "ticks": 12816,
            "durationTicks": 1
          },
          {
            "time": 35.263172,
            "midi": 60,
            "name": "C4",
            "velocity": 0.6535433070866141,
            "duration": 0.0027412291666664146,
            "ticks": 12864,
            "durationTicks": 1
          },
          {
            "time": 35.52633,
            "midi": 61,
            "name": "C#4",
            "velocity": 0.6535433070866141,
            "duration": 0.0027412291666664146,
            "ticks": 12960,
            "durationTicks": 1
          },
          {
            "time": 35.789488,
            "midi": 60,
            "name": "C4",
            "velocity": 0.6535433070866141,
            "duration": 0.0027412291666664146,
            "ticks": 13056,
            "durationTicks": 1
          },
          {
            "time": 36.184225,
            "midi": 62,
            "name": "D4",
            "velocity": 0.6535433070866141,
            "duration": 0.0027412291666664146,
            "ticks": 13200,
            "durationTicks": 1
          },
          {
            "time": 36.315804,
            "midi": 60,
            "name": "C4",
            "velocity": 0.6535433070866141,
            "duration": 0.0027412291666664146,
            "ticks": 13248,
            "durationTicks": 1
          },
          {
            "time": 36.578962,
            "midi": 61,
            "name": "C#4",
            "velocity": 0.6535433070866141,
            "duration": 0.0027412291666664146,
            "ticks": 13344,
            "durationTicks": 1
          },
          {
            "time": 36.84212,
            "midi": 60,
            "name": "C4",
            "velocity": 0.6535433070866141,
            "duration": 0.0027412291666664146,
            "ticks": 13440,
            "durationTicks": 1
          },
          {
            "time": 37.236857,
            "midi": 62,
            "name": "D4",
            "velocity": 0.6535433070866141,
            "duration": 0.0027412291666664146,
            "ticks": 13584,
            "durationTicks": 1
          },
          {
            "time": 37.368436,
            "midi": 60,
            "name": "C4",
            "velocity": 0.6535433070866141,
            "duration": 0.002741229166659309,
            "ticks": 13632,
            "durationTicks": 1
          },
          {
            "time": 37.631594,
            "midi": 61,
            "name": "C#4",
            "velocity": 0.6535433070866141,
            "duration": 0.0027412291666664146,
            "ticks": 13728,
            "durationTicks": 1
          },
          {
            "time": 37.894752,
            "midi": 60,
            "name": "C4",
            "velocity": 0.6535433070866141,
            "duration": 0.0027412291666664146,
            "ticks": 13824,
            "durationTicks": 1
          },
          {
            "time": 38.289489,
            "midi": 62,
            "name": "D4",
            "velocity": 0.6535433070866141,
            "duration": 0.002741229166659309,
            "ticks": 13968,
            "durationTicks": 1
          },
          {
            "time": 38.421068,
            "midi": 60,
            "name": "C4",
            "velocity": 0.6535433070866141,
            "duration": 0.0027412291666664146,
            "ticks": 14016,
            "durationTicks": 1
          },
          {
            "time": 38.684226,
            "midi": 61,
            "name": "C#4",
            "velocity": 0.6535433070866141,
            "duration": 0.002741229166659309,
            "ticks": 14112,
            "durationTicks": 1
          },
          {
            "time": 38.947384,
            "midi": 60,
            "name": "C4",
            "velocity": 0.6535433070866141,
            "duration": 0.0027412291666664146,
            "ticks": 14208,
            "durationTicks": 1
          },
          {
            "time": 39.342121,
            "midi": 62,
            "name": "D4",
            "velocity": 0.6535433070866141,
            "duration": 0.0027412291666664146,
            "ticks": 14352,
            "durationTicks": 1
          },
          {
            "time": 39.4737,
            "midi": 60,
            "name": "C4",
            "velocity": 0.6535433070866141,
            "duration": 0.0027412291666664146,
            "ticks": 14400,
            "durationTicks": 1
          },
          {
            "time": 39.736858,
            "midi": 61,
            "name": "C#4",
            "velocity": 0.6535433070866141,
            "duration": 0.0027412291666664146,
            "ticks": 14496,
            "durationTicks": 1
          },
          {
            "time": 40.000016,
            "midi": 60,
            "name": "C4",
            "velocity": 0.6535433070866141,
            "duration": 0.002741229166659309,
            "ticks": 14592,
            "durationTicks": 1
          },
          {
            "time": 40.394753,
            "midi": 62,
            "name": "D4",
            "velocity": 0.6535433070866141,
            "duration": 0.0027412291666664146,
            "ticks": 14736,
            "durationTicks": 1
          },
          {
            "time": 40.526332000000004,
            "midi": 60,
            "name": "C4",
            "velocity": 0.6535433070866141,
            "duration": 0.002741229166659309,
            "ticks": 14784,
            "durationTicks": 1
          },
          {
            "time": 40.78949,
            "midi": 61,
            "name": "C#4",
            "velocity": 0.6535433070866141,
            "duration": 0.0027412291666664146,
            "ticks": 14880,
            "durationTicks": 1
          },
          {
            "time": 41.052648,
            "midi": 60,
            "name": "C4",
            "velocity": 0.6535433070866141,
            "duration": 0.0027412291666664146,
            "ticks": 14976,
            "durationTicks": 1
          },
          {
            "time": 41.447385,
            "midi": 62,
            "name": "D4",
            "velocity": 0.6535433070866141,
            "duration": 0.0027412291666664146,
            "ticks": 15120,
            "durationTicks": 1
          },
          {
            "time": 41.578964,
            "midi": 60,
            "name": "C4",
            "velocity": 0.6535433070866141,
            "duration": 0.0027412291666664146,
            "ticks": 15168,
            "durationTicks": 1
          },
          {
            "time": 41.842122,
            "midi": 61,
            "name": "C#4",
            "velocity": 0.6535433070866141,
            "duration": 0.002741229166659309,
            "ticks": 15264,
            "durationTicks": 1
          },
          {
            "time": 42.10528,
            "midi": 60,
            "name": "C4",
            "velocity": 0.6535433070866141,
            "duration": 0.0027412291666664146,
            "ticks": 15360,
            "durationTicks": 1
          },
          {
            "time": 42.500017,
            "midi": 62,
            "name": "D4",
            "velocity": 0.6535433070866141,
            "duration": 0.0027412291666664146,
            "ticks": 15504,
            "durationTicks": 1
          },
          {
            "time": 42.631596,
            "midi": 60,
            "name": "C4",
            "velocity": 0.6535433070866141,
            "duration": 0.002741229166659309,
            "ticks": 15552,
            "durationTicks": 1
          },
          {
            "time": 42.894754,
            "midi": 61,
            "name": "C#4",
            "velocity": 0.6535433070866141,
            "duration": 0.0027412291666664146,
            "ticks": 15648,
            "durationTicks": 1
          },
          {
            "time": 43.157912,
            "midi": 60,
            "name": "C4",
            "velocity": 0.6535433070866141,
            "duration": 0.002741229166659309,
            "ticks": 15744,
            "durationTicks": 1
          },
          {
            "time": 43.552649,
            "midi": 62,
            "name": "D4",
            "velocity": 0.6535433070866141,
            "duration": 0.002741229166659309,
            "ticks": 15888,
            "durationTicks": 1
          },
          {
            "time": 43.684228,
            "midi": 60,
            "name": "C4",
            "velocity": 0.6535433070866141,
            "duration": 0.0027412291666664146,
            "ticks": 15936,
            "durationTicks": 1
          },
          {
            "time": 43.947386,
            "midi": 61,
            "name": "C#4",
            "velocity": 0.6535433070866141,
            "duration": 0.0027412291666664146,
            "ticks": 16032,
            "durationTicks": 1
          },
          {
            "time": 44.210544,
            "midi": 60,
            "name": "C4",
            "velocity": 0.6535433070866141,
            "duration": 0.0027412291666664146,
            "ticks": 16128,
            "durationTicks": 1
          },
          {
            "time": 44.605281,
            "midi": 62,
            "name": "D4",
            "velocity": 0.6535433070866141,
            "duration": 0.0027412291666664146,
            "ticks": 16272,
            "durationTicks": 1
          },
          {
            "time": 44.73686,
            "midi": 60,
            "name": "C4",
            "velocity": 0.6535433070866141,
            "duration": 0.0027412291666664146,
            "ticks": 16320,
            "durationTicks": 1
          },
          {
            "time": 45.000018,
            "midi": 61,
            "name": "C#4",
            "velocity": 0.6535433070866141,
            "duration": 0.0027412291666664146,
            "ticks": 16416,
            "durationTicks": 1
          },
          {
            "time": 45.263176,
            "midi": 60,
            "name": "C4",
            "velocity": 0.6535433070866141,
            "duration": 0.0027412291666664146,
            "ticks": 16512,
            "durationTicks": 1
          },
          {
            "time": 45.657913,
            "midi": 62,
            "name": "D4",
            "velocity": 0.6535433070866141,
            "duration": 0.0027412291666664146,
            "ticks": 16656,
            "durationTicks": 1
          },
          {
            "time": 45.789492,
            "midi": 60,
            "name": "C4",
            "velocity": 0.6535433070866141,
            "duration": 0.002741229166659309,
            "ticks": 16704,
            "durationTicks": 1
          },
          {
            "time": 46.05265,
            "midi": 61,
            "name": "C#4",
            "velocity": 0.6535433070866141,
            "duration": 0.0027412291666664146,
            "ticks": 16800,
            "durationTicks": 1
          },
          {
            "time": 46.315808000000004,
            "midi": 60,
            "name": "C4",
            "velocity": 0.6535433070866141,
            "duration": 0.002741229166659309,
            "ticks": 16896,
            "durationTicks": 1
          },
          {
            "time": 46.710545,
            "midi": 62,
            "name": "D4",
            "velocity": 0.6535433070866141,
            "duration": 0.002741229166659309,
            "ticks": 17040,
            "durationTicks": 1
          },
          {
            "time": 46.842124,
            "midi": 60,
            "name": "C4",
            "velocity": 0.6535433070866141,
            "duration": 0.0027412291666664146,
            "ticks": 17088,
            "durationTicks": 1
          },
          {
            "time": 47.105282,
            "midi": 61,
            "name": "C#4",
            "velocity": 0.6535433070866141,
            "duration": 0.002741229166659309,
            "ticks": 17184,
            "durationTicks": 1
          },
          {
            "time": 47.36844,
            "midi": 60,
            "name": "C4",
            "velocity": 0.6535433070866141,
            "duration": 0.0027412291666664146,
            "ticks": 17280,
            "durationTicks": 1
          },
          {
            "time": 47.763177,
            "midi": 62,
            "name": "D4",
            "velocity": 0.6535433070866141,
            "duration": 0.0027412291666664146,
            "ticks": 17424,
            "durationTicks": 1
          },
          {
            "time": 47.894756,
            "midi": 60,
            "name": "C4",
            "velocity": 0.6535433070866141,
            "duration": 0.0027412291666664146,
            "ticks": 17472,
            "durationTicks": 1
          },
          {
            "time": 48.157914,
            "midi": 61,
            "name": "C#4",
            "velocity": 0.6535433070866141,
            "duration": 0.0027412291666664146,
            "ticks": 17568,
            "durationTicks": 1
          },
          {
            "time": 48.421072,
            "midi": 60,
            "name": "C4",
            "velocity": 0.6535433070866141,
            "duration": 0.002741229166659309,
            "ticks": 17664,
            "durationTicks": 1
          },
          {
            "time": 48.815809,
            "midi": 62,
            "name": "D4",
            "velocity": 0.6535433070866141,
            "duration": 0.0027412291666664146,
            "ticks": 17808,
            "durationTicks": 1
          },
          {
            "time": 48.947388000000004,
            "midi": 60,
            "name": "C4",
            "velocity": 0.6535433070866141,
            "duration": 0.002741229166659309,
            "ticks": 17856,
            "durationTicks": 1
          },
          {
            "time": 49.210546,
            "midi": 61,
            "name": "C#4",
            "velocity": 0.6535433070866141,
            "duration": 0.0027412291666664146,
            "ticks": 17952,
            "durationTicks": 1
          },
          {
            "time": 49.473704,
            "midi": 60,
            "name": "C4",
            "velocity": 0.6535433070866141,
            "duration": 0.0027412291666664146,
            "ticks": 18048,
            "durationTicks": 1
          },
          {
            "time": 49.868441,
            "midi": 62,
            "name": "D4",
            "velocity": 0.6535433070866141,
            "duration": 0.0027412291666664146,
            "ticks": 18192,
            "durationTicks": 1
          },
          {
            "time": 50.00002,
            "midi": 60,
            "name": "C4",
            "velocity": 0.6535433070866141,
            "duration": 0.0027412291666664146,
            "ticks": 18240,
            "durationTicks": 1
          },
          {
            "time": 50.263178,
            "midi": 61,
            "name": "C#4",
            "velocity": 0.6535433070866141,
            "duration": 0.002741229166659309,
            "ticks": 18336,
            "durationTicks": 1
          },
          {
            "time": 50.526336,
            "midi": 60,
            "name": "C4",
            "velocity": 0.6535433070866141,
            "duration": 0.0027412291666664146,
            "ticks": 18432,
            "durationTicks": 1
          },
          {
            "time": 50.921073,
            "midi": 62,
            "name": "D4",
            "velocity": 0.6535433070866141,
            "duration": 0.0027412291666664146,
            "ticks": 18576,
            "durationTicks": 1
          },
          {
            "time": 51.052652,
            "midi": 60,
            "name": "C4",
            "velocity": 0.6535433070866141,
            "duration": 0.002741229166659309,
            "ticks": 18624,
            "durationTicks": 1
          },
          {
            "time": 51.31581,
            "midi": 61,
            "name": "C#4",
            "velocity": 0.6535433070866141,
            "duration": 0.0027412291666664146,
            "ticks": 18720,
            "durationTicks": 1
          },
          {
            "time": 51.578968,
            "midi": 60,
            "name": "C4",
            "velocity": 0.6535433070866141,
            "duration": 0.002741229166659309,
            "ticks": 18816,
            "durationTicks": 1
          },
          {
            "time": 51.973705,
            "midi": 62,
            "name": "D4",
            "velocity": 0.6535433070866141,
            "duration": 0.002741229166659309,
            "ticks": 18960,
            "durationTicks": 1
          },
          {
            "time": 52.105284,
            "midi": 60,
            "name": "C4",
            "velocity": 0.6535433070866141,
            "duration": 0.0027412291666664146,
            "ticks": 19008,
            "durationTicks": 1
          },
          {
            "time": 52.368442,
            "midi": 61,
            "name": "C#4",
            "velocity": 0.6535433070866141,
            "duration": 0.0027412291666664146,
            "ticks": 19104,
            "durationTicks": 1
          },
          {
            "time": 52.6316,
            "midi": 60,
            "name": "C4",
            "velocity": 0.6535433070866141,
            "duration": 0.0027412291666664146,
            "ticks": 19200,
            "durationTicks": 1
          },
          {
            "time": 53.026337,
            "midi": 62,
            "name": "D4",
            "velocity": 0.6535433070866141,
            "duration": 0.0027412291666664146,
            "ticks": 19344,
            "durationTicks": 1
          },
          {
            "time": 53.157916,
            "midi": 60,
            "name": "C4",
            "velocity": 0.6535433070866141,
            "duration": 0.0027412291666664146,
            "ticks": 19392,
            "durationTicks": 1
          },
          {
            "time": 53.421074,
            "midi": 61,
            "name": "C#4",
            "velocity": 0.6535433070866141,
            "duration": 0.0027412291666664146,
            "ticks": 19488,
            "durationTicks": 1
          },
          {
            "time": 53.684232,
            "midi": 60,
            "name": "C4",
            "velocity": 0.6535433070866141,
            "duration": 0.0027412291666664146,
            "ticks": 19584,
            "durationTicks": 1
          },
          {
            "time": 54.078969,
            "midi": 62,
            "name": "D4",
            "velocity": 0.6535433070866141,
            "duration": 0.0027412291666664146,
            "ticks": 19728,
            "durationTicks": 1
          },
          {
            "time": 54.210548,
            "midi": 60,
            "name": "C4",
            "velocity": 0.6535433070866141,
            "duration": 0.002741229166659309,
            "ticks": 19776,
            "durationTicks": 1
          },
          {
            "time": 54.473706,
            "midi": 61,
            "name": "C#4",
            "velocity": 0.6535433070866141,
            "duration": 0.0027412291666664146,
            "ticks": 19872,
            "durationTicks": 1
          },
          {
            "time": 54.736864,
            "midi": 60,
            "name": "C4",
            "velocity": 0.6535433070866141,
            "duration": 0.0027412291666664146,
            "ticks": 19968,
            "durationTicks": 1
          },
          {
            "time": 55.131601,
            "midi": 62,
            "name": "D4",
            "velocity": 0.6535433070866141,
            "duration": 0.002741229166659309,
            "ticks": 20112,
            "durationTicks": 1
          },
          {
            "time": 55.26318,
            "midi": 60,
            "name": "C4",
            "velocity": 0.6535433070866141,
            "duration": 0.0027412291666664146,
            "ticks": 20160,
            "durationTicks": 1
          },
          {
            "time": 55.526338,
            "midi": 61,
            "name": "C#4",
            "velocity": 0.6535433070866141,
            "duration": 0.002741229166659309,
            "ticks": 20256,
            "durationTicks": 1
          },
          {
            "time": 55.789496,
            "midi": 60,
            "name": "C4",
            "velocity": 0.6535433070866141,
            "duration": 0.0027412291666664146,
            "ticks": 20352,
            "durationTicks": 1
          },
          {
            "time": 56.184233,
            "midi": 62,
            "name": "D4",
            "velocity": 0.6535433070866141,
            "duration": 0.0027412291666664146,
            "ticks": 20496,
            "durationTicks": 1
          },
          {
            "time": 56.315812,
            "midi": 60,
            "name": "C4",
            "velocity": 0.6535433070866141,
            "duration": 0.0027412291666664146,
            "ticks": 20544,
            "durationTicks": 1
          },
          {
            "time": 56.57897,
            "midi": 61,
            "name": "C#4",
            "velocity": 0.6535433070866141,
            "duration": 0.0027412291666664146,
            "ticks": 20640,
            "durationTicks": 1
          },
          {
            "time": 56.842128,
            "midi": 60,
            "name": "C4",
            "velocity": 0.6535433070866141,
            "duration": 0.002741229166659309,
            "ticks": 20736,
            "durationTicks": 1
          },
          {
            "time": 57.236865,
            "midi": 62,
            "name": "D4",
            "velocity": 0.6535433070866141,
            "duration": 0.0027412291666664146,
            "ticks": 20880,
            "durationTicks": 1
          },
          {
            "time": 57.368444000000004,
            "midi": 60,
            "name": "C4",
            "velocity": 0.6535433070866141,
            "duration": 0.002741229166659309,
            "ticks": 20928,
            "durationTicks": 1
          },
          {
            "time": 57.631602,
            "midi": 61,
            "name": "C#4",
            "velocity": 0.6535433070866141,
            "duration": 0.0027412291666664146,
            "ticks": 21024,
            "durationTicks": 1
          },
          {
            "time": 57.89476,
            "midi": 60,
            "name": "C4",
            "velocity": 0.6535433070866141,
            "duration": 0.0027412291666664146,
            "ticks": 21120,
            "durationTicks": 1
          },
          {
            "time": 58.289497,
            "midi": 62,
            "name": "D4",
            "velocity": 0.6535433070866141,
            "duration": 0.0027412291666664146,
            "ticks": 21264,
            "durationTicks": 1
          },
          {
            "time": 58.421076,
            "midi": 60,
            "name": "C4",
            "velocity": 0.6535433070866141,
            "duration": 0.0027412291666664146,
            "ticks": 21312,
            "durationTicks": 1
          },
          {
            "time": 58.684234000000004,
            "midi": 61,
            "name": "C#4",
            "velocity": 0.6535433070866141,
            "duration": 0.002741229166659309,
            "ticks": 21408,
            "durationTicks": 1
          },
          {
            "time": 58.947392,
            "midi": 60,
            "name": "C4",
            "velocity": 0.6535433070866141,
            "duration": 0.0027412291666664146,
            "ticks": 21504,
            "durationTicks": 1
          },
          {
            "time": 59.342129,
            "midi": 62,
            "name": "D4",
            "velocity": 0.6535433070866141,
            "duration": 0.0027412291666664146,
            "ticks": 21648,
            "durationTicks": 1
          },
          {
            "time": 59.473708,
            "midi": 60,
            "name": "C4",
            "velocity": 0.6535433070866141,
            "duration": 0.002741229166659309,
            "ticks": 21696,
            "durationTicks": 1
          },
          {
            "time": 59.736866,
            "midi": 61,
            "name": "C#4",
            "velocity": 0.6535433070866141,
            "duration": 0.0027412291666664146,
            "ticks": 21792,
            "durationTicks": 1
          },
          {
            "time": 60.000024,
            "midi": 60,
            "name": "C4",
            "velocity": 0.6535433070866141,
            "duration": 0.002741229166659309,
            "ticks": 21888,
            "durationTicks": 1
          },
          {
            "time": 60.394761,
            "midi": 62,
            "name": "D4",
            "velocity": 0.6535433070866141,
            "duration": 0.002741229166659309,
            "ticks": 22032,
            "durationTicks": 1
          },
          {
            "time": 60.52634,
            "midi": 60,
            "name": "C4",
            "velocity": 0.6535433070866141,
            "duration": 0.0027412291666664146,
            "ticks": 22080,
            "durationTicks": 1
          },
          {
            "time": 60.789498,
            "midi": 61,
            "name": "C#4",
            "velocity": 0.6535433070866141,
            "duration": 0.0027412291666664146,
            "ticks": 22176,
            "durationTicks": 1
          },
          {
            "time": 61.052656,
            "midi": 60,
            "name": "C4",
            "velocity": 0.6535433070866141,
            "duration": 0.0027412291666664146,
            "ticks": 22272,
            "durationTicks": 1
          },
          {
            "time": 61.447393,
            "midi": 62,
            "name": "D4",
            "velocity": 0.6535433070866141,
            "duration": 0.0027412291666664146,
            "ticks": 22416,
            "durationTicks": 1
          },
          {
            "time": 61.578972,
            "midi": 60,
            "name": "C4",
            "velocity": 0.6535433070866141,
            "duration": 0.0027412291666664146,
            "ticks": 22464,
            "durationTicks": 1
          },
          {
            "time": 61.84213,
            "midi": 61,
            "name": "C#4",
            "velocity": 0.6535433070866141,
            "duration": 0.0027412291666664146,
            "ticks": 22560,
            "durationTicks": 1
          },
          {
            "time": 62.105288,
            "midi": 60,
            "name": "C4",
            "velocity": 0.6535433070866141,
            "duration": 0.0027412291666664146,
            "ticks": 22656,
            "durationTicks": 1
          },
          {
            "time": 62.500025,
            "midi": 62,
            "name": "D4",
            "velocity": 0.6535433070866141,
            "duration": 0.0027412291666664146,
            "ticks": 22800,
            "durationTicks": 1
          },
          {
            "time": 62.631604,
            "midi": 60,
            "name": "C4",
            "velocity": 0.6535433070866141,
            "duration": 0.002741229166659309,
            "ticks": 22848,
            "durationTicks": 1
          },
          {
            "time": 62.894762,
            "midi": 61,
            "name": "C#4",
            "velocity": 0.6535433070866141,
            "duration": 0.0027412291666664146,
            "ticks": 22944,
            "durationTicks": 1
          },
          {
            "time": 63.157920000000004,
            "midi": 60,
            "name": "C4",
            "velocity": 0.6535433070866141,
            "duration": 0.002741229166659309,
            "ticks": 23040,
            "durationTicks": 1
          },
          {
            "time": 63.552657,
            "midi": 62,
            "name": "D4",
            "velocity": 0.6535433070866141,
            "duration": 0.002741229166659309,
            "ticks": 23184,
            "durationTicks": 1
          },
          {
            "time": 63.684236,
            "midi": 60,
            "name": "C4",
            "velocity": 0.6535433070866141,
            "duration": 0.0027412291666664146,
            "ticks": 23232,
            "durationTicks": 1
          },
          {
            "time": 63.947394,
            "midi": 61,
            "name": "C#4",
            "velocity": 0.6535433070866141,
            "duration": 0.002741229166659309,
            "ticks": 23328,
            "durationTicks": 1
          },
          {
            "time": 64.210552,
            "midi": 60,
            "name": "C4",
            "velocity": 0.6535433070866141,
            "duration": 0.002741229166659309,
            "ticks": 23424,
            "durationTicks": 1
          },
          {
            "time": 64.605289,
            "midi": 62,
            "name": "D4",
            "velocity": 0.6535433070866141,
            "duration": 0.002741229166659309,
            "ticks": 23568,
            "durationTicks": 1
          },
          {
            "time": 64.736868,
            "midi": 60,
            "name": "C4",
            "velocity": 0.6535433070866141,
            "duration": 0.002741229166659309,
            "ticks": 23616,
            "durationTicks": 1
          },
          {
            "time": 65.000026,
            "midi": 61,
            "name": "C#4",
            "velocity": 0.6535433070866141,
            "duration": 0.002741229166659309,
            "ticks": 23712,
            "durationTicks": 1
          },
          {
            "time": 65.263184,
            "midi": 60,
            "name": "C4",
            "velocity": 0.6535433070866141,
            "duration": 0.00274122916667352,
            "ticks": 23808,
            "durationTicks": 1
          },
          {
            "time": 65.657921,
            "midi": 62,
            "name": "D4",
            "velocity": 0.6535433070866141,
            "duration": 0.002741229166659309,
            "ticks": 23952,
            "durationTicks": 1
          },
          {
            "time": 65.7895,
            "midi": 60,
            "name": "C4",
            "velocity": 0.6535433070866141,
            "duration": 0.002741229166659309,
            "ticks": 24000,
            "durationTicks": 1
          },
          {
            "time": 66.052658,
            "midi": 61,
            "name": "C#4",
            "velocity": 0.6535433070866141,
            "duration": 0.00274122916667352,
            "ticks": 24096,
            "durationTicks": 1
          },
          {
            "time": 66.315816,
            "midi": 60,
            "name": "C4",
            "velocity": 0.6535433070866141,
            "duration": 0.00274122916667352,
            "ticks": 24192,
            "durationTicks": 1
          },
          {
            "time": 66.710553,
            "midi": 62,
            "name": "D4",
            "velocity": 0.6535433070866141,
            "duration": 0.002741229166659309,
            "ticks": 24336,
            "durationTicks": 1
          },
          {
            "time": 66.842132,
            "midi": 60,
            "name": "C4",
            "velocity": 0.6535433070866141,
            "duration": 0.002741229166659309,
            "ticks": 24384,
            "durationTicks": 1
          },
          {
            "time": 67.10529,
            "midi": 61,
            "name": "C#4",
            "velocity": 0.6535433070866141,
            "duration": 0.00274122916667352,
            "ticks": 24480,
            "durationTicks": 1
          },
          {
            "time": 67.368448,
            "midi": 60,
            "name": "C4",
            "velocity": 0.6535433070866141,
            "duration": 0.00274122916667352,
            "ticks": 24576,
            "durationTicks": 1
          },
          {
            "time": 67.76318500000001,
            "midi": 62,
            "name": "D4",
            "velocity": 0.6535433070866141,
            "duration": 0.002741229166659309,
            "ticks": 24720,
            "durationTicks": 1
          },
          {
            "time": 67.894764,
            "midi": 60,
            "name": "C4",
            "velocity": 0.6535433070866141,
            "duration": 0.00274122916667352,
            "ticks": 24768,
            "durationTicks": 1
          },
          {
            "time": 68.157922,
            "midi": 61,
            "name": "C#4",
            "velocity": 0.6535433070866141,
            "duration": 0.00274122916667352,
            "ticks": 24864,
            "durationTicks": 1
          },
          {
            "time": 68.42108,
            "midi": 60,
            "name": "C4",
            "velocity": 0.6535433070866141,
            "duration": 0.00274122916667352,
            "ticks": 24960,
            "durationTicks": 1
          },
          {
            "time": 68.815817,
            "midi": 62,
            "name": "D4",
            "velocity": 0.6535433070866141,
            "duration": 0.00274122916667352,
            "ticks": 25104,
            "durationTicks": 1
          },
          {
            "time": 68.947396,
            "midi": 60,
            "name": "C4",
            "velocity": 0.6535433070866141,
            "duration": 0.00274122916667352,
            "ticks": 25152,
            "durationTicks": 1
          },
          {
            "time": 69.210554,
            "midi": 61,
            "name": "C#4",
            "velocity": 0.6535433070866141,
            "duration": 0.00274122916667352,
            "ticks": 25248,
            "durationTicks": 1
          },
          {
            "time": 69.473712,
            "midi": 60,
            "name": "C4",
            "velocity": 0.6535433070866141,
            "duration": 0.002741229166659309,
            "ticks": 25344,
            "durationTicks": 1
          },
          {
            "time": 69.868449,
            "midi": 62,
            "name": "D4",
            "velocity": 0.6535433070866141,
            "duration": 0.00274122916667352,
            "ticks": 25488,
            "durationTicks": 1
          },
          {
            "time": 70.000028,
            "midi": 60,
            "name": "C4",
            "velocity": 0.6535433070866141,
            "duration": 0.00274122916667352,
            "ticks": 25536,
            "durationTicks": 1
          },
          {
            "time": 70.263186,
            "midi": 61,
            "name": "C#4",
            "velocity": 0.6535433070866141,
            "duration": 0.00274122916667352,
            "ticks": 25632,
            "durationTicks": 1
          },
          {
            "time": 70.526344,
            "midi": 60,
            "name": "C4",
            "velocity": 0.6535433070866141,
            "duration": 0.00274122916667352,
            "ticks": 25728,
            "durationTicks": 1
          },
          {
            "time": 70.921081,
            "midi": 62,
            "name": "D4",
            "velocity": 0.6535433070866141,
            "duration": 0.00274122916667352,
            "ticks": 25872,
            "durationTicks": 1
          },
          {
            "time": 71.05266,
            "midi": 60,
            "name": "C4",
            "velocity": 0.6535433070866141,
            "duration": 0.00274122916667352,
            "ticks": 25920,
            "durationTicks": 1
          },
          {
            "time": 71.31581800000001,
            "midi": 61,
            "name": "C#4",
            "velocity": 0.6535433070866141,
            "duration": 0.002741229166659309,
            "ticks": 26016,
            "durationTicks": 1
          },
          {
            "time": 71.578976,
            "midi": 60,
            "name": "C4",
            "velocity": 0.6535433070866141,
            "duration": 0.00274122916667352,
            "ticks": 26112,
            "durationTicks": 1
          },
          {
            "time": 71.973713,
            "midi": 62,
            "name": "D4",
            "velocity": 0.6535433070866141,
            "duration": 0.00274122916667352,
            "ticks": 26256,
            "durationTicks": 1
          },
          {
            "time": 72.105292,
            "midi": 60,
            "name": "C4",
            "velocity": 0.6535433070866141,
            "duration": 0.00274122916667352,
            "ticks": 26304,
            "durationTicks": 1
          },
          {
            "time": 72.36845,
            "midi": 61,
            "name": "C#4",
            "velocity": 0.6535433070866141,
            "duration": 0.00274122916667352,
            "ticks": 26400,
            "durationTicks": 1
          },
          {
            "time": 72.631608,
            "midi": 60,
            "name": "C4",
            "velocity": 0.6535433070866141,
            "duration": 0.00274122916667352,
            "ticks": 26496,
            "durationTicks": 1
          },
          {
            "time": 73.026345,
            "midi": 62,
            "name": "D4",
            "velocity": 0.6535433070866141,
            "duration": 0.002741229166659309,
            "ticks": 26640,
            "durationTicks": 1
          },
          {
            "time": 73.157924,
            "midi": 60,
            "name": "C4",
            "velocity": 0.6535433070866141,
            "duration": 0.00274122916667352,
            "ticks": 26688,
            "durationTicks": 1
          },
          {
            "time": 73.421082,
            "midi": 61,
            "name": "C#4",
            "velocity": 0.6535433070866141,
            "duration": 0.00274122916667352,
            "ticks": 26784,
            "durationTicks": 1
          },
          {
            "time": 73.68424,
            "midi": 60,
            "name": "C4",
            "velocity": 0.6535433070866141,
            "duration": 0.00274122916667352,
            "ticks": 26880,
            "durationTicks": 1
          },
          {
            "time": 74.078977,
            "midi": 62,
            "name": "D4",
            "velocity": 0.6535433070866141,
            "duration": 0.00274122916667352,
            "ticks": 27024,
            "durationTicks": 1
          },
          {
            "time": 74.210556,
            "midi": 60,
            "name": "C4",
            "velocity": 0.6535433070866141,
            "duration": 0.00274122916667352,
            "ticks": 27072,
            "durationTicks": 1
          },
          {
            "time": 74.473714,
            "midi": 61,
            "name": "C#4",
            "velocity": 0.6535433070866141,
            "duration": 0.00274122916667352,
            "ticks": 27168,
            "durationTicks": 1
          },
          {
            "time": 74.736872,
            "midi": 60,
            "name": "C4",
            "velocity": 0.6535433070866141,
            "duration": 0.00274122916667352,
            "ticks": 27264,
            "durationTicks": 1
          },
          {
            "time": 75.131609,
            "midi": 62,
            "name": "D4",
            "velocity": 0.6535433070866141,
            "duration": 0.00274122916667352,
            "ticks": 27408,
            "durationTicks": 1
          },
          {
            "time": 75.263188,
            "midi": 60,
            "name": "C4",
            "velocity": 0.6535433070866141,
            "duration": 0.00274122916667352,
            "ticks": 27456,
            "durationTicks": 1
          },
          {
            "time": 75.526346,
            "midi": 61,
            "name": "C#4",
            "velocity": 0.6535433070866141,
            "duration": 0.00274122916667352,
            "ticks": 27552,
            "durationTicks": 1
          },
          {
            "time": 75.789504,
            "midi": 60,
            "name": "C4",
            "velocity": 0.6535433070866141,
            "duration": 0.00274122916667352,
            "ticks": 27648,
            "durationTicks": 1
          },
          {
            "time": 76.184241,
            "midi": 62,
            "name": "D4",
            "velocity": 0.6535433070866141,
            "duration": 0.00274122916667352,
            "ticks": 27792,
            "durationTicks": 1
          },
          {
            "time": 76.31582,
            "midi": 60,
            "name": "C4",
            "velocity": 0.6535433070866141,
            "duration": 0.00274122916667352,
            "ticks": 27840,
            "durationTicks": 1
          },
          {
            "time": 76.578978,
            "midi": 61,
            "name": "C#4",
            "velocity": 0.6535433070866141,
            "duration": 0.002741229166659309,
            "ticks": 27936,
            "durationTicks": 1
          },
          {
            "time": 76.842136,
            "midi": 60,
            "name": "C4",
            "velocity": 0.6535433070866141,
            "duration": 0.00274122916667352,
            "ticks": 28032,
            "durationTicks": 1
          },
          {
            "time": 77.236873,
            "midi": 62,
            "name": "D4",
            "velocity": 0.6535433070866141,
            "duration": 0.00274122916667352,
            "ticks": 28176,
            "durationTicks": 1
          },
          {
            "time": 77.368452,
            "midi": 60,
            "name": "C4",
            "velocity": 0.6535433070866141,
            "duration": 0.00274122916667352,
            "ticks": 28224,
            "durationTicks": 1
          },
          {
            "time": 77.63161,
            "midi": 61,
            "name": "C#4",
            "velocity": 0.6535433070866141,
            "duration": 0.00274122916667352,
            "ticks": 28320,
            "durationTicks": 1
          },
          {
            "time": 77.894768,
            "midi": 60,
            "name": "C4",
            "velocity": 0.6535433070866141,
            "duration": 0.00274122916667352,
            "ticks": 28416,
            "durationTicks": 1
          },
          {
            "time": 78.289505,
            "midi": 62,
            "name": "D4",
            "velocity": 0.6535433070866141,
            "duration": 0.00274122916667352,
            "ticks": 28560,
            "durationTicks": 1
          },
          {
            "time": 78.42108400000001,
            "midi": 60,
            "name": "C4",
            "velocity": 0.6535433070866141,
            "duration": 0.002741229166659309,
            "ticks": 28608,
            "durationTicks": 1
          },
          {
            "time": 78.684242,
            "midi": 61,
            "name": "C#4",
            "velocity": 0.6535433070866141,
            "duration": 0.00274122916667352,
            "ticks": 28704,
            "durationTicks": 1
          },
          {
            "time": 78.9474,
            "midi": 60,
            "name": "C4",
            "velocity": 0.6535433070866141,
            "duration": 0.00274122916667352,
            "ticks": 28800,
            "durationTicks": 1
          },
          {
            "time": 79.342137,
            "midi": 62,
            "name": "D4",
            "velocity": 0.6535433070866141,
            "duration": 0.00274122916667352,
            "ticks": 28944,
            "durationTicks": 1
          },
          {
            "time": 79.473716,
            "midi": 60,
            "name": "C4",
            "velocity": 0.6535433070866141,
            "duration": 0.00274122916667352,
            "ticks": 28992,
            "durationTicks": 1
          },
          {
            "time": 79.736874,
            "midi": 61,
            "name": "C#4",
            "velocity": 0.6535433070866141,
            "duration": 0.00274122916667352,
            "ticks": 29088,
            "durationTicks": 1
          },
          {
            "time": 80.000032,
            "midi": 60,
            "name": "C4",
            "velocity": 0.6535433070866141,
            "duration": 0.00274122916667352,
            "ticks": 29184,
            "durationTicks": 1
          },
          {
            "time": 80.394769,
            "midi": 62,
            "name": "D4",
            "velocity": 0.6535433070866141,
            "duration": 0.00274122916667352,
            "ticks": 29328,
            "durationTicks": 1
          },
          {
            "time": 80.526348,
            "midi": 60,
            "name": "C4",
            "velocity": 0.6535433070866141,
            "duration": 0.00274122916667352,
            "ticks": 29376,
            "durationTicks": 1
          },
          {
            "time": 80.789506,
            "midi": 61,
            "name": "C#4",
            "velocity": 0.6535433070866141,
            "duration": 0.00274122916667352,
            "ticks": 29472,
            "durationTicks": 1
          },
          {
            "time": 81.05266400000001,
            "midi": 60,
            "name": "C4",
            "velocity": 0.6535433070866141,
            "duration": 0.002741229166659309,
            "ticks": 29568,
            "durationTicks": 1
          },
          {
            "time": 81.447401,
            "midi": 62,
            "name": "D4",
            "velocity": 0.6535433070866141,
            "duration": 0.00274122916667352,
            "ticks": 29712,
            "durationTicks": 1
          },
          {
            "time": 81.57898,
            "midi": 60,
            "name": "C4",
            "velocity": 0.6535433070866141,
            "duration": 0.00274122916667352,
            "ticks": 29760,
            "durationTicks": 1
          },
          {
            "time": 81.842138,
            "midi": 61,
            "name": "C#4",
            "velocity": 0.6535433070866141,
            "duration": 0.00274122916667352,
            "ticks": 29856,
            "durationTicks": 1
          },
          {
            "time": 82.105296,
            "midi": 60,
            "name": "C4",
            "velocity": 0.6535433070866141,
            "duration": 0.00274122916667352,
            "ticks": 29952,
            "durationTicks": 1
          },
          {
            "time": 82.500033,
            "midi": 62,
            "name": "D4",
            "velocity": 0.6535433070866141,
            "duration": 0.00274122916667352,
            "ticks": 30096,
            "durationTicks": 1
          },
          {
            "time": 82.631612,
            "midi": 60,
            "name": "C4",
            "velocity": 0.6535433070866141,
            "duration": 0.00274122916667352,
            "ticks": 30144,
            "durationTicks": 1
          },
          {
            "time": 82.89477,
            "midi": 61,
            "name": "C#4",
            "velocity": 0.6535433070866141,
            "duration": 0.00274122916667352,
            "ticks": 30240,
            "durationTicks": 1
          },
          {
            "time": 83.157928,
            "midi": 60,
            "name": "C4",
            "velocity": 0.6535433070866141,
            "duration": 0.00274122916667352,
            "ticks": 30336,
            "durationTicks": 1
          },
          {
            "time": 83.552665,
            "midi": 62,
            "name": "D4",
            "velocity": 0.6535433070866141,
            "duration": 0.00274122916667352,
            "ticks": 30480,
            "durationTicks": 1
          },
          {
            "time": 83.684244,
            "midi": 60,
            "name": "C4",
            "velocity": 0.6535433070866141,
            "duration": 0.002741229166659309,
            "ticks": 30528,
            "durationTicks": 1
          },
          {
            "time": 83.947402,
            "midi": 61,
            "name": "C#4",
            "velocity": 0.6535433070866141,
            "duration": 0.00274122916667352,
            "ticks": 30624,
            "durationTicks": 1
          },
          {
            "time": 84.21056,
            "midi": 60,
            "name": "C4",
            "velocity": 0.6535433070866141,
            "duration": 0.00274122916667352,
            "ticks": 30720,
            "durationTicks": 1
          },
          {
            "time": 84.60529700000001,
            "midi": 62,
            "name": "D4",
            "velocity": 0.6535433070866141,
            "duration": 0.002741229166659309,
            "ticks": 30864,
            "durationTicks": 1
          },
          {
            "time": 84.736876,
            "midi": 60,
            "name": "C4",
            "velocity": 0.6535433070866141,
            "duration": 0.00274122916667352,
            "ticks": 30912,
            "durationTicks": 1
          },
          {
            "time": 85.000034,
            "midi": 61,
            "name": "C#4",
            "velocity": 0.6535433070866141,
            "duration": 0.00274122916667352,
            "ticks": 31008,
            "durationTicks": 1
          },
          {
            "time": 85.263192,
            "midi": 60,
            "name": "C4",
            "velocity": 0.6535433070866141,
            "duration": 0.00274122916667352,
            "ticks": 31104,
            "durationTicks": 1
          },
          {
            "time": 85.657929,
            "midi": 62,
            "name": "D4",
            "velocity": 0.6535433070866141,
            "duration": 0.00274122916667352,
            "ticks": 31248,
            "durationTicks": 1
          },
          {
            "time": 85.789508,
            "midi": 60,
            "name": "C4",
            "velocity": 0.6535433070866141,
            "duration": 0.00274122916667352,
            "ticks": 31296,
            "durationTicks": 1
          },
          {
            "time": 86.052666,
            "midi": 61,
            "name": "C#4",
            "velocity": 0.6535433070866141,
            "duration": 0.00274122916667352,
            "ticks": 31392,
            "durationTicks": 1
          },
          {
            "time": 86.315824,
            "midi": 60,
            "name": "C4",
            "velocity": 0.6535433070866141,
            "duration": 0.002741229166659309,
            "ticks": 31488,
            "durationTicks": 1
          },
          {
            "time": 86.710561,
            "midi": 62,
            "name": "D4",
            "velocity": 0.6535433070866141,
            "duration": 0.00274122916667352,
            "ticks": 31632,
            "durationTicks": 1
          },
          {
            "time": 86.84214,
            "midi": 60,
            "name": "C4",
            "velocity": 0.6535433070866141,
            "duration": 0.00274122916667352,
            "ticks": 31680,
            "durationTicks": 1
          },
          {
            "time": 87.105298,
            "midi": 61,
            "name": "C#4",
            "velocity": 0.6535433070866141,
            "duration": 0.00274122916667352,
            "ticks": 31776,
            "durationTicks": 1
          },
          {
            "time": 87.368456,
            "midi": 60,
            "name": "C4",
            "velocity": 0.6535433070866141,
            "duration": 0.00274122916667352,
            "ticks": 31872,
            "durationTicks": 1
          },
          {
            "time": 87.763193,
            "midi": 62,
            "name": "D4",
            "velocity": 0.6535433070866141,
            "duration": 0.00274122916667352,
            "ticks": 32016,
            "durationTicks": 1
          },
          {
            "time": 87.894772,
            "midi": 60,
            "name": "C4",
            "velocity": 0.6535433070866141,
            "duration": 0.00274122916667352,
            "ticks": 32064,
            "durationTicks": 1
          },
          {
            "time": 88.15793000000001,
            "midi": 61,
            "name": "C#4",
            "velocity": 0.6535433070866141,
            "duration": 0.002741229166659309,
            "ticks": 32160,
            "durationTicks": 1
          },
          {
            "time": 88.421088,
            "midi": 60,
            "name": "C4",
            "velocity": 0.6535433070866141,
            "duration": 0.00274122916667352,
            "ticks": 32256,
            "durationTicks": 1
          },
          {
            "time": 88.815825,
            "midi": 62,
            "name": "D4",
            "velocity": 0.6535433070866141,
            "duration": 0.00274122916667352,
            "ticks": 32400,
            "durationTicks": 1
          },
          {
            "time": 88.947404,
            "midi": 60,
            "name": "C4",
            "velocity": 0.6535433070866141,
            "duration": 0.00274122916667352,
            "ticks": 32448,
            "durationTicks": 1
          },
          {
            "time": 89.210562,
            "midi": 61,
            "name": "C#4",
            "velocity": 0.6535433070866141,
            "duration": 0.00274122916667352,
            "ticks": 32544,
            "durationTicks": 1
          },
          {
            "time": 89.47372,
            "midi": 60,
            "name": "C4",
            "velocity": 0.6535433070866141,
            "duration": 0.00274122916667352,
            "ticks": 32640,
            "durationTicks": 1
          },
          {
            "time": 89.868457,
            "midi": 62,
            "name": "D4",
            "velocity": 0.6535433070866141,
            "duration": 0.002741229166659309,
            "ticks": 32784,
            "durationTicks": 1
          },
          {
            "time": 90.000036,
            "midi": 60,
            "name": "C4",
            "velocity": 0.6535433070866141,
            "duration": 0.00274122916667352,
            "ticks": 32832,
            "durationTicks": 1
          },
          {
            "time": 90.263194,
            "midi": 61,
            "name": "C#4",
            "velocity": 0.6535433070866141,
            "duration": 0.00274122916667352,
            "ticks": 32928,
            "durationTicks": 1
          },
          {
            "time": 90.526352,
            "midi": 60,
            "name": "C4",
            "velocity": 0.6535433070866141,
            "duration": 0.00274122916667352,
            "ticks": 33024,
            "durationTicks": 1
          },
          {
            "time": 90.921089,
            "midi": 62,
            "name": "D4",
            "velocity": 0.6535433070866141,
            "duration": 0.00274122916667352,
            "ticks": 33168,
            "durationTicks": 1
          },
          {
            "time": 91.052668,
            "midi": 60,
            "name": "C4",
            "velocity": 0.6535433070866141,
            "duration": 0.00274122916667352,
            "ticks": 33216,
            "durationTicks": 1
          },
          {
            "time": 91.315826,
            "midi": 61,
            "name": "C#4",
            "velocity": 0.6535433070866141,
            "duration": 0.00274122916667352,
            "ticks": 33312,
            "durationTicks": 1
          },
          {
            "time": 91.578984,
            "midi": 60,
            "name": "C4",
            "velocity": 0.6535433070866141,
            "duration": 0.00274122916667352,
            "ticks": 33408,
            "durationTicks": 1
          },
          {
            "time": 91.973721,
            "midi": 62,
            "name": "D4",
            "velocity": 0.6535433070866141,
            "duration": 0.00274122916667352,
            "ticks": 33552,
            "durationTicks": 1
          },
          {
            "time": 92.1053,
            "midi": 60,
            "name": "C4",
            "velocity": 0.6535433070866141,
            "duration": 0.00274122916667352,
            "ticks": 33600,
            "durationTicks": 1
          },
          {
            "time": 92.368458,
            "midi": 61,
            "name": "C#4",
            "velocity": 0.6535433070866141,
            "duration": 0.00274122916667352,
            "ticks": 33696,
            "durationTicks": 1
          },
          {
            "time": 92.63161600000001,
            "midi": 60,
            "name": "C4",
            "velocity": 0.6535433070866141,
            "duration": 0.002741229166659309,
            "ticks": 33792,
            "durationTicks": 1
          },
          {
            "time": 93.026353,
            "midi": 62,
            "name": "D4",
            "velocity": 0.6535433070866141,
            "duration": 0.00274122916667352,
            "ticks": 33936,
            "durationTicks": 1
          },
          {
            "time": 93.157932,
            "midi": 60,
            "name": "C4",
            "velocity": 0.6535433070866141,
            "duration": 0.00274122916667352,
            "ticks": 33984,
            "durationTicks": 1
          },
          {
            "time": 93.42109,
            "midi": 61,
            "name": "C#4",
            "velocity": 0.6535433070866141,
            "duration": 0.002741229166659309,
            "ticks": 34080,
            "durationTicks": 1
          },
          {
            "time": 93.684248,
            "midi": 60,
            "name": "C4",
            "velocity": 0.6535433070866141,
            "duration": 0.00274122916667352,
            "ticks": 34176,
            "durationTicks": 1
          },
          {
            "time": 94.078985,
            "midi": 62,
            "name": "D4",
            "velocity": 0.6535433070866141,
            "duration": 0.00274122916667352,
            "ticks": 34320,
            "durationTicks": 1
          },
          {
            "time": 94.210564,
            "midi": 60,
            "name": "C4",
            "velocity": 0.6535433070866141,
            "duration": 0.00274122916667352,
            "ticks": 34368,
            "durationTicks": 1
          },
          {
            "time": 94.473722,
            "midi": 61,
            "name": "C#4",
            "velocity": 0.6535433070866141,
            "duration": 0.00274122916667352,
            "ticks": 34464,
            "durationTicks": 1
          },
          {
            "time": 94.73688,
            "midi": 60,
            "name": "C4",
            "velocity": 0.6535433070866141,
            "duration": 0.00274122916667352,
            "ticks": 34560,
            "durationTicks": 1
          },
          {
            "time": 95.131617,
            "midi": 62,
            "name": "D4",
            "velocity": 0.6535433070866141,
            "duration": 0.00274122916667352,
            "ticks": 34704,
            "durationTicks": 1
          },
          {
            "time": 95.26319600000001,
            "midi": 60,
            "name": "C4",
            "velocity": 0.6535433070866141,
            "duration": 0.002741229166659309,
            "ticks": 34752,
            "durationTicks": 1
          },
          {
            "time": 95.526354,
            "midi": 61,
            "name": "C#4",
            "velocity": 0.6535433070866141,
            "duration": 0.00274122916667352,
            "ticks": 34848,
            "durationTicks": 1
          },
          {
            "time": 95.789512,
            "midi": 60,
            "name": "C4",
            "velocity": 0.6535433070866141,
            "duration": 0.00274122916667352,
            "ticks": 34944,
            "durationTicks": 1
          },
          {
            "time": 96.184249,
            "midi": 62,
            "name": "D4",
            "velocity": 0.6535433070866141,
            "duration": 0.00274122916667352,
            "ticks": 35088,
            "durationTicks": 1
          },
          {
            "time": 96.315828,
            "midi": 60,
            "name": "C4",
            "velocity": 0.6535433070866141,
            "duration": 0.00274122916667352,
            "ticks": 35136,
            "durationTicks": 1
          },
          {
            "time": 96.578986,
            "midi": 61,
            "name": "C#4",
            "velocity": 0.6535433070866141,
            "duration": 0.00274122916667352,
            "ticks": 35232,
            "durationTicks": 1
          },
          {
            "time": 96.842144,
            "midi": 60,
            "name": "C4",
            "velocity": 0.6535433070866141,
            "duration": 0.00274122916667352,
            "ticks": 35328,
            "durationTicks": 1
          },
          {
            "time": 97.236881,
            "midi": 62,
            "name": "D4",
            "velocity": 0.6535433070866141,
            "duration": 0.00274122916667352,
            "ticks": 35472,
            "durationTicks": 1
          },
          {
            "time": 97.36846,
            "midi": 60,
            "name": "C4",
            "velocity": 0.6535433070866141,
            "duration": 0.00274122916667352,
            "ticks": 35520,
            "durationTicks": 1
          },
          {
            "time": 97.631618,
            "midi": 61,
            "name": "C#4",
            "velocity": 0.6535433070866141,
            "duration": 0.00274122916667352,
            "ticks": 35616,
            "durationTicks": 1
          },
          {
            "time": 97.89477600000001,
            "midi": 60,
            "name": "C4",
            "velocity": 0.6535433070866141,
            "duration": 0.002741229166659309,
            "ticks": 35712,
            "durationTicks": 1
          },
          {
            "time": 98.289513,
            "midi": 62,
            "name": "D4",
            "velocity": 0.6535433070866141,
            "duration": 0.00274122916667352,
            "ticks": 35856,
            "durationTicks": 1
          },
          {
            "time": 98.421092,
            "midi": 60,
            "name": "C4",
            "velocity": 0.6535433070866141,
            "duration": 0.00274122916667352,
            "ticks": 35904,
            "durationTicks": 1
          },
          {
            "time": 98.68425,
            "midi": 61,
            "name": "C#4",
            "velocity": 0.6535433070866141,
            "duration": 0.00274122916667352,
            "ticks": 36000,
            "durationTicks": 1
          },
          {
            "time": 98.947408,
            "midi": 60,
            "name": "C4",
            "velocity": 0.6535433070866141,
            "duration": 0.00274122916667352,
            "ticks": 36096,
            "durationTicks": 1
          },
          {
            "time": 99.342145,
            "midi": 62,
            "name": "D4",
            "velocity": 0.6535433070866141,
            "duration": 0.00274122916667352,
            "ticks": 36240,
            "durationTicks": 1
          },
          {
            "time": 99.473724,
            "midi": 60,
            "name": "C4",
            "velocity": 0.6535433070866141,
            "duration": 0.00274122916667352,
            "ticks": 36288,
            "durationTicks": 1
          },
          {
            "time": 99.736882,
            "midi": 61,
            "name": "C#4",
            "velocity": 0.6535433070866141,
            "duration": 0.00274122916667352,
            "ticks": 36384,
            "durationTicks": 1
          },
          {
            "time": 100.00004,
            "midi": 60,
            "name": "C4",
            "velocity": 0.6535433070866141,
            "duration": 0.00274122916667352,
            "ticks": 36480,
            "durationTicks": 1
          },
          {
            "time": 100.394777,
            "midi": 62,
            "name": "D4",
            "velocity": 0.6535433070866141,
            "duration": 0.00274122916667352,
            "ticks": 36624,
            "durationTicks": 1
          },
          {
            "time": 100.526356,
            "midi": 60,
            "name": "C4",
            "velocity": 0.6535433070866141,
            "duration": 0.002741229166659309,
            "ticks": 36672,
            "durationTicks": 1
          },
          {
            "time": 100.789514,
            "midi": 61,
            "name": "C#4",
            "velocity": 0.6535433070866141,
            "duration": 0.00274122916667352,
            "ticks": 36768,
            "durationTicks": 1
          },
          {
            "time": 101.052672,
            "midi": 60,
            "name": "C4",
            "velocity": 0.6535433070866141,
            "duration": 0.00274122916667352,
            "ticks": 36864,
            "durationTicks": 1
          },
          {
            "time": 101.44740900000001,
            "midi": 62,
            "name": "D4",
            "velocity": 0.6535433070866141,
            "duration": 0.002741229166659309,
            "ticks": 37008,
            "durationTicks": 1
          },
          {
            "time": 101.578988,
            "midi": 60,
            "name": "C4",
            "velocity": 0.6535433070866141,
            "duration": 0.00274122916667352,
            "ticks": 37056,
            "durationTicks": 1
          },
          {
            "time": 101.842146,
            "midi": 61,
            "name": "C#4",
            "velocity": 0.6535433070866141,
            "duration": 0.00274122916667352,
            "ticks": 37152,
            "durationTicks": 1
          },
          {
            "time": 102.105304,
            "midi": 60,
            "name": "C4",
            "velocity": 0.6535433070866141,
            "duration": 0.00274122916667352,
            "ticks": 37248,
            "durationTicks": 1
          },
          {
            "time": 102.500041,
            "midi": 62,
            "name": "D4",
            "velocity": 0.6535433070866141,
            "duration": 0.00274122916667352,
            "ticks": 37392,
            "durationTicks": 1
          },
          {
            "time": 102.63162,
            "midi": 60,
            "name": "C4",
            "velocity": 0.6535433070866141,
            "duration": 0.00274122916667352,
            "ticks": 37440,
            "durationTicks": 1
          },
          {
            "time": 102.894778,
            "midi": 61,
            "name": "C#4",
            "velocity": 0.6535433070866141,
            "duration": 0.00274122916667352,
            "ticks": 37536,
            "durationTicks": 1
          },
          {
            "time": 103.157936,
            "midi": 60,
            "name": "C4",
            "velocity": 0.6535433070866141,
            "duration": 0.002741229166659309,
            "ticks": 37632,
            "durationTicks": 1
          },
          {
            "time": 103.552673,
            "midi": 62,
            "name": "D4",
            "velocity": 0.6535433070866141,
            "duration": 0.00274122916667352,
            "ticks": 37776,
            "durationTicks": 1
          },
          {
            "time": 103.684252,
            "midi": 60,
            "name": "C4",
            "velocity": 0.6535433070866141,
            "duration": 0.00274122916667352,
            "ticks": 37824,
            "durationTicks": 1
          },
          {
            "time": 103.94741,
            "midi": 61,
            "name": "C#4",
            "velocity": 0.6535433070866141,
            "duration": 0.00274122916667352,
            "ticks": 37920,
            "durationTicks": 1
          },
          {
            "time": 104.210568,
            "midi": 60,
            "name": "C4",
            "velocity": 0.6535433070866141,
            "duration": 0.00274122916667352,
            "ticks": 38016,
            "durationTicks": 1
          },
          {
            "time": 104.605305,
            "midi": 62,
            "name": "D4",
            "velocity": 0.6535433070866141,
            "duration": 0.00274122916667352,
            "ticks": 38160,
            "durationTicks": 1
          },
          {
            "time": 104.736884,
            "midi": 60,
            "name": "C4",
            "velocity": 0.6535433070866141,
            "duration": 0.00274122916667352,
            "ticks": 38208,
            "durationTicks": 1
          },
          {
            "time": 105.00004200000001,
            "midi": 61,
            "name": "C#4",
            "velocity": 0.6535433070866141,
            "duration": 0.002741229166659309,
            "ticks": 38304,
            "durationTicks": 1
          },
          {
            "time": 105.2632,
            "midi": 60,
            "name": "C4",
            "velocity": 0.6535433070866141,
            "duration": 0.00274122916667352,
            "ticks": 38400,
            "durationTicks": 1
          },
          {
            "time": 105.657937,
            "midi": 62,
            "name": "D4",
            "velocity": 0.6535433070866141,
            "duration": 0.00274122916667352,
            "ticks": 38544,
            "durationTicks": 1
          },
          {
            "time": 105.789516,
            "midi": 60,
            "name": "C4",
            "velocity": 0.6535433070866141,
            "duration": 0.00274122916667352,
            "ticks": 38592,
            "durationTicks": 1
          },
          {
            "time": 106.052674,
            "midi": 61,
            "name": "C#4",
            "velocity": 0.6535433070866141,
            "duration": 0.00274122916667352,
            "ticks": 38688,
            "durationTicks": 1
          },
          {
            "time": 106.315832,
            "midi": 60,
            "name": "C4",
            "velocity": 0.6535433070866141,
            "duration": 0.00274122916667352,
            "ticks": 38784,
            "durationTicks": 1
          },
          {
            "time": 106.710569,
            "midi": 62,
            "name": "D4",
            "velocity": 0.6535433070866141,
            "duration": 0.002741229166659309,
            "ticks": 38928,
            "durationTicks": 1
          },
          {
            "time": 106.842148,
            "midi": 60,
            "name": "C4",
            "velocity": 0.6535433070866141,
            "duration": 0.00274122916667352,
            "ticks": 38976,
            "durationTicks": 1
          },
          {
            "time": 107.105306,
            "midi": 61,
            "name": "C#4",
            "velocity": 0.6535433070866141,
            "duration": 0.00274122916667352,
            "ticks": 39072,
            "durationTicks": 1
          },
          {
            "time": 107.368464,
            "midi": 60,
            "name": "C4",
            "velocity": 0.6535433070866141,
            "duration": 0.00274122916667352,
            "ticks": 39168,
            "durationTicks": 1
          },
          {
            "time": 107.763201,
            "midi": 62,
            "name": "D4",
            "velocity": 0.6535433070866141,
            "duration": 0.00274122916667352,
            "ticks": 39312,
            "durationTicks": 1
          },
          {
            "time": 107.89478,
            "midi": 60,
            "name": "C4",
            "velocity": 0.6535433070866141,
            "duration": 0.00274122916667352,
            "ticks": 39360,
            "durationTicks": 1
          },
          {
            "time": 108.157938,
            "midi": 61,
            "name": "C#4",
            "velocity": 0.6535433070866141,
            "duration": 0.00274122916667352,
            "ticks": 39456,
            "durationTicks": 1
          },
          {
            "time": 108.421096,
            "midi": 60,
            "name": "C4",
            "velocity": 0.6535433070866141,
            "duration": 0.00274122916667352,
            "ticks": 39552,
            "durationTicks": 1
          },
          {
            "time": 108.815833,
            "midi": 62,
            "name": "D4",
            "velocity": 0.6535433070866141,
            "duration": 0.00274122916667352,
            "ticks": 39696,
            "durationTicks": 1
          },
          {
            "time": 108.947412,
            "midi": 60,
            "name": "C4",
            "velocity": 0.6535433070866141,
            "duration": 0.00274122916667352,
            "ticks": 39744,
            "durationTicks": 1
          },
          {
            "time": 109.21057,
            "midi": 61,
            "name": "C#4",
            "velocity": 0.6535433070866141,
            "duration": 0.00274122916667352,
            "ticks": 39840,
            "durationTicks": 1
          },
          {
            "time": 109.473728,
            "midi": 60,
            "name": "C4",
            "velocity": 0.6535433070866141,
            "duration": 0.00274122916667352,
            "ticks": 39936,
            "durationTicks": 1
          },
          {
            "time": 109.868465,
            "midi": 62,
            "name": "D4",
            "velocity": 0.6535433070866141,
            "duration": 0.00274122916667352,
            "ticks": 40080,
            "durationTicks": 1
          },
          {
            "time": 110.000044,
            "midi": 60,
            "name": "C4",
            "velocity": 0.6535433070866141,
            "duration": 0.00274122916667352,
            "ticks": 40128,
            "durationTicks": 1
          },
          {
            "time": 110.263202,
            "midi": 61,
            "name": "C#4",
            "velocity": 0.6535433070866141,
            "duration": 0.002741229166659309,
            "ticks": 40224,
            "durationTicks": 1
          },
          {
            "time": 110.52636,
            "midi": 60,
            "name": "C4",
            "velocity": 0.6535433070866141,
            "duration": 0.00274122916667352,
            "ticks": 40320,
            "durationTicks": 1
          },
          {
            "time": 110.921097,
            "midi": 62,
            "name": "D4",
            "velocity": 0.6535433070866141,
            "duration": 0.00274122916667352,
            "ticks": 40464,
            "durationTicks": 1
          },
          {
            "time": 111.052676,
            "midi": 60,
            "name": "C4",
            "velocity": 0.6535433070866141,
            "duration": 0.00274122916667352,
            "ticks": 40512,
            "durationTicks": 1
          },
          {
            "time": 111.315834,
            "midi": 61,
            "name": "C#4",
            "velocity": 0.6535433070866141,
            "duration": 0.00274122916667352,
            "ticks": 40608,
            "durationTicks": 1
          },
          {
            "time": 111.578992,
            "midi": 60,
            "name": "C4",
            "velocity": 0.6535433070866141,
            "duration": 0.00274122916667352,
            "ticks": 40704,
            "durationTicks": 1
          },
          {
            "time": 111.973729,
            "midi": 62,
            "name": "D4",
            "velocity": 0.6535433070866141,
            "duration": 0.00274122916667352,
            "ticks": 40848,
            "durationTicks": 1
          },
          {
            "time": 112.10530800000001,
            "midi": 60,
            "name": "C4",
            "velocity": 0.6535433070866141,
            "duration": 0.002741229166659309,
            "ticks": 40896,
            "durationTicks": 1
          },
          {
            "time": 112.368466,
            "midi": 61,
            "name": "C#4",
            "velocity": 0.6535433070866141,
            "duration": 0.00274122916667352,
            "ticks": 40992,
            "durationTicks": 1
          },
          {
            "time": 112.631624,
            "midi": 60,
            "name": "C4",
            "velocity": 0.6535433070866141,
            "duration": 0.00274122916667352,
            "ticks": 41088,
            "durationTicks": 1
          },
          {
            "time": 113.026361,
            "midi": 62,
            "name": "D4",
            "velocity": 0.6535433070866141,
            "duration": 0.00274122916667352,
            "ticks": 41232,
            "durationTicks": 1
          },
          {
            "time": 113.15794,
            "midi": 60,
            "name": "C4",
            "velocity": 0.6535433070866141,
            "duration": 0.00274122916667352,
            "ticks": 41280,
            "durationTicks": 1
          },
          {
            "time": 113.421098,
            "midi": 61,
            "name": "C#4",
            "velocity": 0.6535433070866141,
            "duration": 0.00274122916667352,
            "ticks": 41376,
            "durationTicks": 1
          },
          {
            "time": 113.684256,
            "midi": 60,
            "name": "C4",
            "velocity": 0.6535433070866141,
            "duration": 0.00274122916667352,
            "ticks": 41472,
            "durationTicks": 1
          },
          {
            "time": 114.078993,
            "midi": 62,
            "name": "D4",
            "velocity": 0.6535433070866141,
            "duration": 0.00274122916667352,
            "ticks": 41616,
            "durationTicks": 1
          },
          {
            "time": 114.210572,
            "midi": 60,
            "name": "C4",
            "velocity": 0.6535433070866141,
            "duration": 0.00274122916667352,
            "ticks": 41664,
            "durationTicks": 1
          },
          {
            "time": 114.47373,
            "midi": 61,
            "name": "C#4",
            "velocity": 0.6535433070866141,
            "duration": 0.00274122916667352,
            "ticks": 41760,
            "durationTicks": 1
          },
          {
            "time": 114.73688800000001,
            "midi": 60,
            "name": "C4",
            "velocity": 0.6535433070866141,
            "duration": 0.002741229166659309,
            "ticks": 41856,
            "durationTicks": 1
          },
          {
            "time": 115.131625,
            "midi": 62,
            "name": "D4",
            "velocity": 0.6535433070866141,
            "duration": 0.00274122916667352,
            "ticks": 42000,
            "durationTicks": 1
          },
          {
            "time": 115.263204,
            "midi": 60,
            "name": "C4",
            "velocity": 0.6535433070866141,
            "duration": 0.00274122916667352,
            "ticks": 42048,
            "durationTicks": 1
          },
          {
            "time": 115.526362,
            "midi": 61,
            "name": "C#4",
            "velocity": 0.6535433070866141,
            "duration": 0.00274122916667352,
            "ticks": 42144,
            "durationTicks": 1
          },
          {
            "time": 115.78952,
            "midi": 60,
            "name": "C4",
            "velocity": 0.6535433070866141,
            "duration": 0.00274122916667352,
            "ticks": 42240,
            "durationTicks": 1
          },
          {
            "time": 116.184257,
            "midi": 62,
            "name": "D4",
            "velocity": 0.6535433070866141,
            "duration": 0.00274122916667352,
            "ticks": 42384,
            "durationTicks": 1
          },
          {
            "time": 116.315836,
            "midi": 60,
            "name": "C4",
            "velocity": 0.6535433070866141,
            "duration": 0.00274122916667352,
            "ticks": 42432,
            "durationTicks": 1
          },
          {
            "time": 116.578994,
            "midi": 61,
            "name": "C#4",
            "velocity": 0.6535433070866141,
            "duration": 0.00274122916667352,
            "ticks": 42528,
            "durationTicks": 1
          },
          {
            "time": 116.842152,
            "midi": 60,
            "name": "C4",
            "velocity": 0.6535433070866141,
            "duration": 0.00274122916667352,
            "ticks": 42624,
            "durationTicks": 1
          },
          {
            "time": 117.236889,
            "midi": 62,
            "name": "D4",
            "velocity": 0.6535433070866141,
            "duration": 0.00274122916667352,
            "ticks": 42768,
            "durationTicks": 1
          },
          {
            "time": 117.36846800000001,
            "midi": 60,
            "name": "C4",
            "velocity": 0.6535433070866141,
            "duration": 0.002741229166659309,
            "ticks": 42816,
            "durationTicks": 1
          },
          {
            "time": 117.631626,
            "midi": 61,
            "name": "C#4",
            "velocity": 0.6535433070866141,
            "duration": 0.00274122916667352,
            "ticks": 42912,
            "durationTicks": 1
          },
          {
            "time": 117.894784,
            "midi": 60,
            "name": "C4",
            "velocity": 0.6535433070866141,
            "duration": 0.00274122916667352,
            "ticks": 43008,
            "durationTicks": 1
          },
          {
            "time": 118.28952100000001,
            "midi": 62,
            "name": "D4",
            "velocity": 0.6535433070866141,
            "duration": 0.002741229166659309,
            "ticks": 43152,
            "durationTicks": 1
          },
          {
            "time": 118.4211,
            "midi": 60,
            "name": "C4",
            "velocity": 0.6535433070866141,
            "duration": 0.00274122916667352,
            "ticks": 43200,
            "durationTicks": 1
          },
          {
            "time": 118.684258,
            "midi": 61,
            "name": "C#4",
            "velocity": 0.6535433070866141,
            "duration": 0.00274122916667352,
            "ticks": 43296,
            "durationTicks": 1
          },
          {
            "time": 118.947416,
            "midi": 60,
            "name": "C4",
            "velocity": 0.6535433070866141,
            "duration": 0.00274122916667352,
            "ticks": 43392,
            "durationTicks": 1
          },
          {
            "time": 119.342153,
            "midi": 62,
            "name": "D4",
            "velocity": 0.6535433070866141,
            "duration": 0.00274122916667352,
            "ticks": 43536,
            "durationTicks": 1
          },
          {
            "time": 119.473732,
            "midi": 60,
            "name": "C4",
            "velocity": 0.6535433070866141,
            "duration": 0.00274122916667352,
            "ticks": 43584,
            "durationTicks": 1
          },
          {
            "time": 119.73689,
            "midi": 61,
            "name": "C#4",
            "velocity": 0.6535433070866141,
            "duration": 0.00274122916667352,
            "ticks": 43680,
            "durationTicks": 1
          },
          {
            "time": 120.000048,
            "midi": 60,
            "name": "C4",
            "velocity": 0.6535433070866141,
            "duration": 0.002741229166659309,
            "ticks": 43776,
            "durationTicks": 1
          },
          {
            "time": 120.394785,
            "midi": 62,
            "name": "D4",
            "velocity": 0.6535433070866141,
            "duration": 0.00274122916667352,
            "ticks": 43920,
            "durationTicks": 1
          },
          {
            "time": 120.526364,
            "midi": 60,
            "name": "C4",
            "velocity": 0.6535433070866141,
            "duration": 0.00274122916667352,
            "ticks": 43968,
            "durationTicks": 1
          },
          {
            "time": 120.789522,
            "midi": 61,
            "name": "C#4",
            "velocity": 0.6535433070866141,
            "duration": 0.00274122916667352,
            "ticks": 44064,
            "durationTicks": 1
          },
          {
            "time": 121.05268,
            "midi": 60,
            "name": "C4",
            "velocity": 0.6535433070866141,
            "duration": 0.00274122916667352,
            "ticks": 44160,
            "durationTicks": 1
          },
          {
            "time": 121.447417,
            "midi": 62,
            "name": "D4",
            "velocity": 0.6535433070866141,
            "duration": 0.00274122916667352,
            "ticks": 44304,
            "durationTicks": 1
          },
          {
            "time": 121.578996,
            "midi": 60,
            "name": "C4",
            "velocity": 0.6535433070866141,
            "duration": 0.00274122916667352,
            "ticks": 44352,
            "durationTicks": 1
          },
          {
            "time": 121.84215400000001,
            "midi": 61,
            "name": "C#4",
            "velocity": 0.6535433070866141,
            "duration": 0.002741229166659309,
            "ticks": 44448,
            "durationTicks": 1
          },
          {
            "time": 122.105312,
            "midi": 60,
            "name": "C4",
            "velocity": 0.6535433070866141,
            "duration": 0.00274122916667352,
            "ticks": 44544,
            "durationTicks": 1
          },
          {
            "time": 122.500049,
            "midi": 62,
            "name": "D4",
            "velocity": 0.6535433070866141,
            "duration": 0.00274122916667352,
            "ticks": 44688,
            "durationTicks": 1
          },
          {
            "time": 122.631628,
            "midi": 60,
            "name": "C4",
            "velocity": 0.6535433070866141,
            "duration": 0.00274122916667352,
            "ticks": 44736,
            "durationTicks": 1
          },
          {
            "time": 122.894786,
            "midi": 61,
            "name": "C#4",
            "velocity": 0.6535433070866141,
            "duration": 0.00274122916667352,
            "ticks": 44832,
            "durationTicks": 1
          },
          {
            "time": 123.157944,
            "midi": 60,
            "name": "C4",
            "velocity": 0.6535433070866141,
            "duration": 0.00274122916667352,
            "ticks": 44928,
            "durationTicks": 1
          },
          {
            "time": 123.552681,
            "midi": 62,
            "name": "D4",
            "velocity": 0.6535433070866141,
            "duration": 0.002741229166659309,
            "ticks": 45072,
            "durationTicks": 1
          },
          {
            "time": 123.68426,
            "midi": 60,
            "name": "C4",
            "velocity": 0.6535433070866141,
            "duration": 0.00274122916667352,
            "ticks": 45120,
            "durationTicks": 1
          },
          {
            "time": 123.947418,
            "midi": 61,
            "name": "C#4",
            "velocity": 0.6535433070866141,
            "duration": 0.00274122916667352,
            "ticks": 45216,
            "durationTicks": 1
          },
          {
            "time": 124.210576,
            "midi": 60,
            "name": "C4",
            "velocity": 0.6535433070866141,
            "duration": 0.00274122916667352,
            "ticks": 45312,
            "durationTicks": 1
          },
          {
            "time": 124.605313,
            "midi": 62,
            "name": "D4",
            "velocity": 0.6535433070866141,
            "duration": 0.00274122916667352,
            "ticks": 45456,
            "durationTicks": 1
          },
          {
            "time": 124.736892,
            "midi": 60,
            "name": "C4",
            "velocity": 0.6535433070866141,
            "duration": 0.00274122916667352,
            "ticks": 45504,
            "durationTicks": 1
          },
          {
            "time": 125.00005,
            "midi": 61,
            "name": "C#4",
            "velocity": 0.6535433070866141,
            "duration": 0.00274122916667352,
            "ticks": 45600,
            "durationTicks": 1
          },
          {
            "time": 125.263208,
            "midi": 60,
            "name": "C4",
            "velocity": 0.6535433070866141,
            "duration": 0.00274122916667352,
            "ticks": 45696,
            "durationTicks": 1
          },
          {
            "time": 125.657945,
            "midi": 62,
            "name": "D4",
            "velocity": 0.6535433070866141,
            "duration": 0.00274122916667352,
            "ticks": 45840,
            "durationTicks": 1
          },
          {
            "time": 125.789524,
            "midi": 60,
            "name": "C4",
            "velocity": 0.6535433070866141,
            "duration": 0.00274122916667352,
            "ticks": 45888,
            "durationTicks": 1
          },
          {
            "time": 126.052682,
            "midi": 61,
            "name": "C#4",
            "velocity": 0.6535433070866141,
            "duration": 0.00274122916667352,
            "ticks": 45984,
            "durationTicks": 1
          },
          {
            "time": 126.31584000000001,
            "midi": 60,
            "name": "C4",
            "velocity": 0.6535433070866141,
            "duration": 0.002741229166659309,
            "ticks": 46080,
            "durationTicks": 1
          },
          {
            "time": 126.710577,
            "midi": 62,
            "name": "D4",
            "velocity": 0.6535433070866141,
            "duration": 0.00274122916667352,
            "ticks": 46224,
            "durationTicks": 1
          },
          {
            "time": 126.842156,
            "midi": 60,
            "name": "C4",
            "velocity": 0.6535433070866141,
            "duration": 0.00274122916667352,
            "ticks": 46272,
            "durationTicks": 1
          },
          {
            "time": 127.105314,
            "midi": 61,
            "name": "C#4",
            "velocity": 0.6535433070866141,
            "duration": 0.002741229166659309,
            "ticks": 46368,
            "durationTicks": 1
          },
          {
            "time": 127.368472,
            "midi": 60,
            "name": "C4",
            "velocity": 0.6535433070866141,
            "duration": 0.00274122916667352,
            "ticks": 46464,
            "durationTicks": 1
          },
          {
            "time": 127.763209,
            "midi": 62,
            "name": "D4",
            "velocity": 0.6535433070866141,
            "duration": 0.00274122916667352,
            "ticks": 46608,
            "durationTicks": 1
          },
          {
            "time": 127.894788,
            "midi": 60,
            "name": "C4",
            "velocity": 0.6535433070866141,
            "duration": 0.00274122916667352,
            "ticks": 46656,
            "durationTicks": 1
          },
          {
            "time": 128.157946,
            "midi": 61,
            "name": "C#4",
            "velocity": 0.6535433070866141,
            "duration": 0.00274122916667352,
            "ticks": 46752,
            "durationTicks": 1
          },
          {
            "time": 128.421104,
            "midi": 60,
            "name": "C4",
            "velocity": 0.6535433070866141,
            "duration": 0.0027412291666450983,
            "ticks": 46848,
            "durationTicks": 1
          },
          {
            "time": 128.815841,
            "midi": 62,
            "name": "D4",
            "velocity": 0.6535433070866141,
            "duration": 0.00274122916667352,
            "ticks": 46992,
            "durationTicks": 1
          },
          {
            "time": 128.94742,
            "midi": 60,
            "name": "C4",
            "velocity": 0.6535433070866141,
            "duration": 0.00274122916667352,
            "ticks": 47040,
            "durationTicks": 1
          },
          {
            "time": 129.210578,
            "midi": 61,
            "name": "C#4",
            "velocity": 0.6535433070866141,
            "duration": 0.00274122916667352,
            "ticks": 47136,
            "durationTicks": 1
          },
          {
            "time": 129.473736,
            "midi": 60,
            "name": "C4",
            "velocity": 0.6535433070866141,
            "duration": 0.00274122916667352,
            "ticks": 47232,
            "durationTicks": 1
          },
          {
            "time": 129.868473,
            "midi": 62,
            "name": "D4",
            "velocity": 0.6535433070866141,
            "duration": 0.00274122916667352,
            "ticks": 47376,
            "durationTicks": 1
          },
          {
            "time": 130.000052,
            "midi": 60,
            "name": "C4",
            "velocity": 0.6535433070866141,
            "duration": 0.00274122916667352,
            "ticks": 47424,
            "durationTicks": 1
          },
          {
            "time": 130.26321000000002,
            "midi": 61,
            "name": "C#4",
            "velocity": 0.6535433070866141,
            "duration": 0.0027412291666450983,
            "ticks": 47520,
            "durationTicks": 1
          },
          {
            "time": 130.526368,
            "midi": 60,
            "name": "C4",
            "velocity": 0.6535433070866141,
            "duration": 0.00274122916667352,
            "ticks": 47616,
            "durationTicks": 1
          },
          {
            "time": 130.921105,
            "midi": 62,
            "name": "D4",
            "velocity": 0.6535433070866141,
            "duration": 0.00274122916667352,
            "ticks": 47760,
            "durationTicks": 1
          },
          {
            "time": 131.052684,
            "midi": 60,
            "name": "C4",
            "velocity": 0.6535433070866141,
            "duration": 0.00274122916667352,
            "ticks": 47808,
            "durationTicks": 1
          },
          {
            "time": 131.315842,
            "midi": 61,
            "name": "C#4",
            "velocity": 0.6535433070866141,
            "duration": 0.00274122916667352,
            "ticks": 47904,
            "durationTicks": 1
          },
          {
            "time": 131.579,
            "midi": 60,
            "name": "C4",
            "velocity": 0.6535433070866141,
            "duration": 0.00274122916667352,
            "ticks": 48000,
            "durationTicks": 1
          },
          {
            "time": 131.973737,
            "midi": 62,
            "name": "D4",
            "velocity": 0.6535433070866141,
            "duration": 0.00274122916667352,
            "ticks": 48144,
            "durationTicks": 1
          },
          {
            "time": 132.105316,
            "midi": 60,
            "name": "C4",
            "velocity": 0.6535433070866141,
            "duration": 0.00274122916667352,
            "ticks": 48192,
            "durationTicks": 1
          },
          {
            "time": 132.368474,
            "midi": 61,
            "name": "C#4",
            "velocity": 0.6535433070866141,
            "duration": 0.00274122916667352,
            "ticks": 48288,
            "durationTicks": 1
          },
          {
            "time": 132.631632,
            "midi": 60,
            "name": "C4",
            "velocity": 0.6535433070866141,
            "duration": 0.00274122916667352,
            "ticks": 48384,
            "durationTicks": 1
          },
          {
            "time": 133.026369,
            "midi": 62,
            "name": "D4",
            "velocity": 0.6535433070866141,
            "duration": 0.00274122916667352,
            "ticks": 48528,
            "durationTicks": 1
          },
          {
            "time": 133.157948,
            "midi": 60,
            "name": "C4",
            "velocity": 0.6535433070866141,
            "duration": 0.00274122916667352,
            "ticks": 48576,
            "durationTicks": 1
          },
          {
            "time": 133.421106,
            "midi": 61,
            "name": "C#4",
            "velocity": 0.6535433070866141,
            "duration": 0.00274122916667352,
            "ticks": 48672,
            "durationTicks": 1
          },
          {
            "time": 133.684264,
            "midi": 60,
            "name": "C4",
            "velocity": 0.6535433070866141,
            "duration": 0.00274122916667352,
            "ticks": 48768,
            "durationTicks": 1
          },
          {
            "time": 134.079001,
            "midi": 62,
            "name": "D4",
            "velocity": 0.6535433070866141,
            "duration": 0.00274122916667352,
            "ticks": 48912,
            "durationTicks": 1
          },
          {
            "time": 134.21058,
            "midi": 60,
            "name": "C4",
            "velocity": 0.6535433070866141,
            "duration": 0.00274122916667352,
            "ticks": 48960,
            "durationTicks": 1
          },
          {
            "time": 134.473738,
            "midi": 61,
            "name": "C#4",
            "velocity": 0.6535433070866141,
            "duration": 0.00274122916667352,
            "ticks": 49056,
            "durationTicks": 1
          },
          {
            "time": 134.736896,
            "midi": 60,
            "name": "C4",
            "velocity": 0.6535433070866141,
            "duration": 0.0027412291666450983,
            "ticks": 49152,
            "durationTicks": 1
          },
          {
            "time": 135.131633,
            "midi": 62,
            "name": "D4",
            "velocity": 0.6535433070866141,
            "duration": 0.00274122916667352,
            "ticks": 49296,
            "durationTicks": 1
          },
          {
            "time": 135.263212,
            "midi": 60,
            "name": "C4",
            "velocity": 0.6535433070866141,
            "duration": 0.0027412291666450983,
            "ticks": 49344,
            "durationTicks": 1
          },
          {
            "time": 135.52637000000001,
            "midi": 61,
            "name": "C#4",
            "velocity": 0.6535433070866141,
            "duration": 0.0027412291666450983,
            "ticks": 49440,
            "durationTicks": 1
          },
          {
            "time": 135.789528,
            "midi": 60,
            "name": "C4",
            "velocity": 0.6535433070866141,
            "duration": 0.00274122916667352,
            "ticks": 49536,
            "durationTicks": 1
          },
          {
            "time": 136.184265,
            "midi": 62,
            "name": "D4",
            "velocity": 0.6535433070866141,
            "duration": 0.0027412291666450983,
            "ticks": 49680,
            "durationTicks": 1
          },
          {
            "time": 136.315844,
            "midi": 60,
            "name": "C4",
            "velocity": 0.6535433070866141,
            "duration": 0.00274122916667352,
            "ticks": 49728,
            "durationTicks": 1
          },
          {
            "time": 136.579002,
            "midi": 61,
            "name": "C#4",
            "velocity": 0.6535433070866141,
            "duration": 0.0027412291666450983,
            "ticks": 49824,
            "durationTicks": 1
          },
          {
            "time": 136.84216,
            "midi": 60,
            "name": "C4",
            "velocity": 0.6535433070866141,
            "duration": 0.0027412291666450983,
            "ticks": 49920,
            "durationTicks": 1
          },
          {
            "time": 137.236897,
            "midi": 62,
            "name": "D4",
            "velocity": 0.6535433070866141,
            "duration": 0.0027412291666450983,
            "ticks": 50064,
            "durationTicks": 1
          },
          {
            "time": 137.36847600000002,
            "midi": 60,
            "name": "C4",
            "velocity": 0.6535433070866141,
            "duration": 0.0027412291666450983,
            "ticks": 50112,
            "durationTicks": 1
          },
          {
            "time": 137.631634,
            "midi": 61,
            "name": "C#4",
            "velocity": 0.6535433070866141,
            "duration": 0.00274122916667352,
            "ticks": 50208,
            "durationTicks": 1
          },
          {
            "time": 137.894792,
            "midi": 60,
            "name": "C4",
            "velocity": 0.6535433070866141,
            "duration": 0.00274122916667352,
            "ticks": 50304,
            "durationTicks": 1
          },
          {
            "time": 138.289529,
            "midi": 62,
            "name": "D4",
            "velocity": 0.6535433070866141,
            "duration": 0.00274122916667352,
            "ticks": 50448,
            "durationTicks": 1
          },
          {
            "time": 138.421108,
            "midi": 60,
            "name": "C4",
            "velocity": 0.6535433070866141,
            "duration": 0.0027412291666450983,
            "ticks": 50496,
            "durationTicks": 1
          },
          {
            "time": 138.684266,
            "midi": 61,
            "name": "C#4",
            "velocity": 0.6535433070866141,
            "duration": 0.0027412291666450983,
            "ticks": 50592,
            "durationTicks": 1
          },
          {
            "time": 138.947424,
            "midi": 60,
            "name": "C4",
            "velocity": 0.6535433070866141,
            "duration": 0.0027412291666450983,
            "ticks": 50688,
            "durationTicks": 1
          },
          {
            "time": 139.342161,
            "midi": 62,
            "name": "D4",
            "velocity": 0.6535433070866141,
            "duration": 0.0027412291666450983,
            "ticks": 50832,
            "durationTicks": 1
          },
          {
            "time": 139.47374,
            "midi": 60,
            "name": "C4",
            "velocity": 0.6535433070866141,
            "duration": 0.00274122916667352,
            "ticks": 50880,
            "durationTicks": 1
          },
          {
            "time": 139.736898,
            "midi": 61,
            "name": "C#4",
            "velocity": 0.6535433070866141,
            "duration": 0.00274122916667352,
            "ticks": 50976,
            "durationTicks": 1
          },
          {
            "time": 140.000056,
            "midi": 60,
            "name": "C4",
            "velocity": 0.6535433070866141,
            "duration": 0.0027412291666450983,
            "ticks": 51072,
            "durationTicks": 1
          },
          {
            "time": 140.394793,
            "midi": 62,
            "name": "D4",
            "velocity": 0.6535433070866141,
            "duration": 0.00274122916667352,
            "ticks": 51216,
            "durationTicks": 1
          },
          {
            "time": 140.526372,
            "midi": 60,
            "name": "C4",
            "velocity": 0.6535433070866141,
            "duration": 0.0027412291666450983,
            "ticks": 51264,
            "durationTicks": 1
          },
          {
            "time": 140.78953,
            "midi": 61,
            "name": "C#4",
            "velocity": 0.6535433070866141,
            "duration": 0.0027412291666450983,
            "ticks": 51360,
            "durationTicks": 1
          },
          {
            "time": 141.052688,
            "midi": 60,
            "name": "C4",
            "velocity": 0.6535433070866141,
            "duration": 0.00274122916667352,
            "ticks": 51456,
            "durationTicks": 1
          },
          {
            "time": 141.447425,
            "midi": 62,
            "name": "D4",
            "velocity": 0.6535433070866141,
            "duration": 0.0027412291666450983,
            "ticks": 51600,
            "durationTicks": 1
          },
          {
            "time": 141.579004,
            "midi": 60,
            "name": "C4",
            "velocity": 0.6535433070866141,
            "duration": 0.00274122916667352,
            "ticks": 51648,
            "durationTicks": 1
          },
          {
            "time": 141.842162,
            "midi": 61,
            "name": "C#4",
            "velocity": 0.6535433070866141,
            "duration": 0.0027412291666450983,
            "ticks": 51744,
            "durationTicks": 1
          },
          {
            "time": 142.10532,
            "midi": 60,
            "name": "C4",
            "velocity": 0.6535433070866141,
            "duration": 0.0027412291666450983,
            "ticks": 51840,
            "durationTicks": 1
          },
          {
            "time": 142.500057,
            "midi": 62,
            "name": "D4",
            "velocity": 0.6535433070866141,
            "duration": 0.00274122916667352,
            "ticks": 51984,
            "durationTicks": 1
          },
          {
            "time": 142.63163600000001,
            "midi": 60,
            "name": "C4",
            "velocity": 0.6535433070866141,
            "duration": 0.0027412291666450983,
            "ticks": 52032,
            "durationTicks": 1
          },
          {
            "time": 142.894794,
            "midi": 61,
            "name": "C#4",
            "velocity": 0.6535433070866141,
            "duration": 0.00274122916667352,
            "ticks": 52128,
            "durationTicks": 1
          },
          {
            "time": 143.157952,
            "midi": 60,
            "name": "C4",
            "velocity": 0.6535433070866141,
            "duration": 0.00274122916667352,
            "ticks": 52224,
            "durationTicks": 1
          },
          {
            "time": 143.55268900000002,
            "midi": 62,
            "name": "D4",
            "velocity": 0.6535433070866141,
            "duration": 0.0027412291666450983,
            "ticks": 52368,
            "durationTicks": 1
          },
          {
            "time": 143.684268,
            "midi": 60,
            "name": "C4",
            "velocity": 0.6535433070866141,
            "duration": 0.0027412291666450983,
            "ticks": 52416,
            "durationTicks": 1
          },
          {
            "time": 143.947426,
            "midi": 61,
            "name": "C#4",
            "velocity": 0.6535433070866141,
            "duration": 0.0027412291666450983,
            "ticks": 52512,
            "durationTicks": 1
          },
          {
            "time": 144.210584,
            "midi": 60,
            "name": "C4",
            "velocity": 0.6535433070866141,
            "duration": 0.0027412291666450983,
            "ticks": 52608,
            "durationTicks": 1
          },
          {
            "time": 144.605321,
            "midi": 62,
            "name": "D4",
            "velocity": 0.6535433070866141,
            "duration": 0.0027412291666450983,
            "ticks": 52752,
            "durationTicks": 1
          },
          {
            "time": 144.7369,
            "midi": 60,
            "name": "C4",
            "velocity": 0.6535433070866141,
            "duration": 0.00274122916667352,
            "ticks": 52800,
            "durationTicks": 1
          },
          {
            "time": 145.000058,
            "midi": 61,
            "name": "C#4",
            "velocity": 0.6535433070866141,
            "duration": 0.00274122916667352,
            "ticks": 52896,
            "durationTicks": 1
          },
          {
            "time": 145.263216,
            "midi": 60,
            "name": "C4",
            "velocity": 0.6535433070866141,
            "duration": 0.0027412291666450983,
            "ticks": 52992,
            "durationTicks": 1
          },
          {
            "time": 145.657953,
            "midi": 62,
            "name": "D4",
            "velocity": 0.6535433070866141,
            "duration": 0.00274122916667352,
            "ticks": 53136,
            "durationTicks": 1
          },
          {
            "time": 145.789532,
            "midi": 60,
            "name": "C4",
            "velocity": 0.6535433070866141,
            "duration": 0.0027412291666450983,
            "ticks": 53184,
            "durationTicks": 1
          },
          {
            "time": 146.05269,
            "midi": 61,
            "name": "C#4",
            "velocity": 0.6535433070866141,
            "duration": 0.0027412291666450983,
            "ticks": 53280,
            "durationTicks": 1
          },
          {
            "time": 146.315848,
            "midi": 60,
            "name": "C4",
            "velocity": 0.6535433070866141,
            "duration": 0.00274122916667352,
            "ticks": 53376,
            "durationTicks": 1
          },
          {
            "time": 146.710585,
            "midi": 62,
            "name": "D4",
            "velocity": 0.6535433070866141,
            "duration": 0.0027412291666450983,
            "ticks": 53520,
            "durationTicks": 1
          },
          {
            "time": 146.842164,
            "midi": 60,
            "name": "C4",
            "velocity": 0.6535433070866141,
            "duration": 0.00274122916667352,
            "ticks": 53568,
            "durationTicks": 1
          },
          {
            "time": 147.105322,
            "midi": 61,
            "name": "C#4",
            "velocity": 0.6535433070866141,
            "duration": 0.0027412291666450983,
            "ticks": 53664,
            "durationTicks": 1
          },
          {
            "time": 147.36848,
            "midi": 60,
            "name": "C4",
            "velocity": 0.6535433070866141,
            "duration": 0.0027412291666450983,
            "ticks": 53760,
            "durationTicks": 1
          },
          {
            "time": 147.763217,
            "midi": 62,
            "name": "D4",
            "velocity": 0.6535433070866141,
            "duration": 0.00274122916667352,
            "ticks": 53904,
            "durationTicks": 1
          },
          {
            "time": 147.894796,
            "midi": 60,
            "name": "C4",
            "velocity": 0.6535433070866141,
            "duration": 0.0027412291666450983,
            "ticks": 53952,
            "durationTicks": 1
          },
          {
            "time": 148.157954,
            "midi": 61,
            "name": "C#4",
            "velocity": 0.6535433070866141,
            "duration": 0.00274122916667352,
            "ticks": 54048,
            "durationTicks": 1
          },
          {
            "time": 148.421112,
            "midi": 60,
            "name": "C4",
            "velocity": 0.6535433070866141,
            "duration": 0.00274122916667352,
            "ticks": 54144,
            "durationTicks": 1
          },
          {
            "time": 148.81584900000001,
            "midi": 62,
            "name": "D4",
            "velocity": 0.6535433070866141,
            "duration": 0.0027412291666450983,
            "ticks": 54288,
            "durationTicks": 1
          },
          {
            "time": 148.947428,
            "midi": 60,
            "name": "C4",
            "velocity": 0.6535433070866141,
            "duration": 0.0027412291666450983,
            "ticks": 54336,
            "durationTicks": 1
          },
          {
            "time": 149.210586,
            "midi": 61,
            "name": "C#4",
            "velocity": 0.6535433070866141,
            "duration": 0.0027412291666450983,
            "ticks": 54432,
            "durationTicks": 1
          },
          {
            "time": 149.473744,
            "midi": 60,
            "name": "C4",
            "velocity": 0.6535433070866141,
            "duration": 0.0027412291666450983,
            "ticks": 54528,
            "durationTicks": 1
          },
          {
            "time": 149.868481,
            "midi": 62,
            "name": "D4",
            "velocity": 0.6535433070866141,
            "duration": 0.0027412291666450983,
            "ticks": 54672,
            "durationTicks": 1
          },
          {
            "time": 150.00006,
            "midi": 60,
            "name": "C4",
            "velocity": 0.6535433070866141,
            "duration": 0.00274122916667352,
            "ticks": 54720,
            "durationTicks": 1
          },
          {
            "time": 150.263218,
            "midi": 61,
            "name": "C#4",
            "velocity": 0.6535433070866141,
            "duration": 0.00274122916667352,
            "ticks": 54816,
            "durationTicks": 1
          },
          {
            "time": 150.526376,
            "midi": 60,
            "name": "C4",
            "velocity": 0.6535433070866141,
            "duration": 0.00274122916667352,
            "ticks": 54912,
            "durationTicks": 1
          },
          {
            "time": 150.921113,
            "midi": 62,
            "name": "D4",
            "velocity": 0.6535433070866141,
            "duration": 0.00274122916667352,
            "ticks": 55056,
            "durationTicks": 1
          },
          {
            "time": 151.052692,
            "midi": 60,
            "name": "C4",
            "velocity": 0.6535433070866141,
            "duration": 0.0027412291666450983,
            "ticks": 55104,
            "durationTicks": 1
          },
          {
            "time": 151.31585,
            "midi": 61,
            "name": "C#4",
            "velocity": 0.6535433070866141,
            "duration": 0.0027412291666450983,
            "ticks": 55200,
            "durationTicks": 1
          },
          {
            "time": 151.579008,
            "midi": 60,
            "name": "C4",
            "velocity": 0.6535433070866141,
            "duration": 0.00274122916667352,
            "ticks": 55296,
            "durationTicks": 1
          },
          {
            "time": 151.973745,
            "midi": 62,
            "name": "D4",
            "velocity": 0.6535433070866141,
            "duration": 0.0027412291666450983,
            "ticks": 55440,
            "durationTicks": 1
          },
          {
            "time": 152.105324,
            "midi": 60,
            "name": "C4",
            "velocity": 0.6535433070866141,
            "duration": 0.00274122916667352,
            "ticks": 55488,
            "durationTicks": 1
          },
          {
            "time": 152.368482,
            "midi": 61,
            "name": "C#4",
            "velocity": 0.6535433070866141,
            "duration": 0.0027412291666450983,
            "ticks": 55584,
            "durationTicks": 1
          },
          {
            "time": 152.63164,
            "midi": 60,
            "name": "C4",
            "velocity": 0.6535433070866141,
            "duration": 0.0027412291666450983,
            "ticks": 55680,
            "durationTicks": 1
          },
          {
            "time": 153.026377,
            "midi": 62,
            "name": "D4",
            "velocity": 0.6535433070866141,
            "duration": 0.00274122916667352,
            "ticks": 55824,
            "durationTicks": 1
          },
          {
            "time": 153.157956,
            "midi": 60,
            "name": "C4",
            "velocity": 0.6535433070866141,
            "duration": 0.0027412291666450983,
            "ticks": 55872,
            "durationTicks": 1
          },
          {
            "time": 153.421114,
            "midi": 61,
            "name": "C#4",
            "velocity": 0.6535433070866141,
            "duration": 0.00274122916667352,
            "ticks": 55968,
            "durationTicks": 1
          },
          {
            "time": 153.684272,
            "midi": 60,
            "name": "C4",
            "velocity": 0.6535433070866141,
            "duration": 0.00274122916667352,
            "ticks": 56064,
            "durationTicks": 1
          },
          {
            "time": 154.079009,
            "midi": 62,
            "name": "D4",
            "velocity": 0.6535433070866141,
            "duration": 0.0027412291666450983,
            "ticks": 56208,
            "durationTicks": 1
          },
          {
            "time": 154.210588,
            "midi": 60,
            "name": "C4",
            "velocity": 0.6535433070866141,
            "duration": 0.0027412291666450983,
            "ticks": 56256,
            "durationTicks": 1
          },
          {
            "time": 154.473746,
            "midi": 61,
            "name": "C#4",
            "velocity": 0.6535433070866141,
            "duration": 0.0027412291666450983,
            "ticks": 56352,
            "durationTicks": 1
          },
          {
            "time": 154.736904,
            "midi": 60,
            "name": "C4",
            "velocity": 0.6535433070866141,
            "duration": 0.0027412291666450983,
            "ticks": 56448,
            "durationTicks": 1
          },
          {
            "time": 155.131641,
            "midi": 62,
            "name": "D4",
            "velocity": 0.6535433070866141,
            "duration": 0.0027412291666450983,
            "ticks": 56592,
            "durationTicks": 1
          },
          {
            "time": 155.26322,
            "midi": 60,
            "name": "C4",
            "velocity": 0.6535433070866141,
            "duration": 0.00274122916667352,
            "ticks": 56640,
            "durationTicks": 1
          },
          {
            "time": 155.526378,
            "midi": 61,
            "name": "C#4",
            "velocity": 0.6535433070866141,
            "duration": 0.00274122916667352,
            "ticks": 56736,
            "durationTicks": 1
          },
          {
            "time": 155.789536,
            "midi": 60,
            "name": "C4",
            "velocity": 0.6535433070866141,
            "duration": 0.00274122916667352,
            "ticks": 56832,
            "durationTicks": 1
          },
          {
            "time": 156.184273,
            "midi": 62,
            "name": "D4",
            "velocity": 0.6535433070866141,
            "duration": 0.00274122916667352,
            "ticks": 56976,
            "durationTicks": 1
          },
          {
            "time": 156.315852,
            "midi": 60,
            "name": "C4",
            "velocity": 0.6535433070866141,
            "duration": 0.0027412291666450983,
            "ticks": 57024,
            "durationTicks": 1
          },
          {
            "time": 156.57901,
            "midi": 61,
            "name": "C#4",
            "velocity": 0.6535433070866141,
            "duration": 0.0027412291666450983,
            "ticks": 57120,
            "durationTicks": 1
          },
          {
            "time": 156.84216800000002,
            "midi": 60,
            "name": "C4",
            "velocity": 0.6535433070866141,
            "duration": 0.0027412291666450983,
            "ticks": 57216,
            "durationTicks": 1
          },
          {
            "time": 157.236905,
            "midi": 62,
            "name": "D4",
            "velocity": 0.6535433070866141,
            "duration": 0.0027412291666450983,
            "ticks": 57360,
            "durationTicks": 1
          },
          {
            "time": 157.368484,
            "midi": 60,
            "name": "C4",
            "velocity": 0.6535433070866141,
            "duration": 0.00274122916667352,
            "ticks": 57408,
            "durationTicks": 1
          },
          {
            "time": 157.631642,
            "midi": 61,
            "name": "C#4",
            "velocity": 0.6535433070866141,
            "duration": 0.0027412291666450983,
            "ticks": 57504,
            "durationTicks": 1
          },
          {
            "time": 157.8948,
            "midi": 60,
            "name": "C4",
            "velocity": 0.6535433070866141,
            "duration": 0.0027412291666450983,
            "ticks": 57600,
            "durationTicks": 1
          },
          {
            "time": 158.289537,
            "midi": 62,
            "name": "D4",
            "velocity": 0.6535433070866141,
            "duration": 0.00274122916667352,
            "ticks": 57744,
            "durationTicks": 1
          },
          {
            "time": 158.421116,
            "midi": 60,
            "name": "C4",
            "velocity": 0.6535433070866141,
            "duration": 0.0027412291666450983,
            "ticks": 57792,
            "durationTicks": 1
          },
          {
            "time": 158.684274,
            "midi": 61,
            "name": "C#4",
            "velocity": 0.6535433070866141,
            "duration": 0.00274122916667352,
            "ticks": 57888,
            "durationTicks": 1
          },
          {
            "time": 158.947432,
            "midi": 60,
            "name": "C4",
            "velocity": 0.6535433070866141,
            "duration": 0.00274122916667352,
            "ticks": 57984,
            "durationTicks": 1
          },
          {
            "time": 159.342169,
            "midi": 62,
            "name": "D4",
            "velocity": 0.6535433070866141,
            "duration": 0.0027412291666450983,
            "ticks": 58128,
            "durationTicks": 1
          },
          {
            "time": 159.473748,
            "midi": 60,
            "name": "C4",
            "velocity": 0.6535433070866141,
            "duration": 0.0027412291666450983,
            "ticks": 58176,
            "durationTicks": 1
          },
          {
            "time": 159.736906,
            "midi": 61,
            "name": "C#4",
            "velocity": 0.6535433070866141,
            "duration": 0.0027412291666450983,
            "ticks": 58272,
            "durationTicks": 1
          },
          {
            "time": 160.000064,
            "midi": 60,
            "name": "C4",
            "velocity": 0.6535433070866141,
            "duration": 0.0027412291666450983,
            "ticks": 58368,
            "durationTicks": 1
          },
          {
            "time": 160.394801,
            "midi": 62,
            "name": "D4",
            "velocity": 0.6535433070866141,
            "duration": 0.0027412291666450983,
            "ticks": 58512,
            "durationTicks": 1
          },
          {
            "time": 160.52638,
            "midi": 60,
            "name": "C4",
            "velocity": 0.6535433070866141,
            "duration": 0.00274122916667352,
            "ticks": 58560,
            "durationTicks": 1
          },
          {
            "time": 160.789538,
            "midi": 61,
            "name": "C#4",
            "velocity": 0.6535433070866141,
            "duration": 0.00274122916667352,
            "ticks": 58656,
            "durationTicks": 1
          },
          {
            "time": 161.052696,
            "midi": 60,
            "name": "C4",
            "velocity": 0.6535433070866141,
            "duration": 0.00274122916667352,
            "ticks": 58752,
            "durationTicks": 1
          },
          {
            "time": 161.447433,
            "midi": 62,
            "name": "D4",
            "velocity": 0.6535433070866141,
            "duration": 0.00274122916667352,
            "ticks": 58896,
            "durationTicks": 1
          },
          {
            "time": 161.579012,
            "midi": 60,
            "name": "C4",
            "velocity": 0.6535433070866141,
            "duration": 0.0027412291666450983,
            "ticks": 58944,
            "durationTicks": 1
          },
          {
            "time": 161.84217,
            "midi": 61,
            "name": "C#4",
            "velocity": 0.6535433070866141,
            "duration": 0.0027412291666450983,
            "ticks": 59040,
            "durationTicks": 1
          },
          {
            "time": 162.10532800000001,
            "midi": 60,
            "name": "C4",
            "velocity": 0.6535433070866141,
            "duration": 0.0027412291666450983,
            "ticks": 59136,
            "durationTicks": 1
          },
          {
            "time": 162.500065,
            "midi": 62,
            "name": "D4",
            "velocity": 0.6535433070866141,
            "duration": 0.0027412291666450983,
            "ticks": 59280,
            "durationTicks": 1
          },
          {
            "time": 162.631644,
            "midi": 60,
            "name": "C4",
            "velocity": 0.6535433070866141,
            "duration": 0.00274122916667352,
            "ticks": 59328,
            "durationTicks": 1
          },
          {
            "time": 162.894802,
            "midi": 61,
            "name": "C#4",
            "velocity": 0.6535433070866141,
            "duration": 0.00274122916667352,
            "ticks": 59424,
            "durationTicks": 1
          },
          {
            "time": 163.15796,
            "midi": 60,
            "name": "C4",
            "velocity": 0.6535433070866141,
            "duration": 0.0027412291666450983,
            "ticks": 59520,
            "durationTicks": 1
          },
          {
            "time": 163.552697,
            "midi": 62,
            "name": "D4",
            "velocity": 0.6535433070866141,
            "duration": 0.00274122916667352,
            "ticks": 59664,
            "durationTicks": 1
          },
          {
            "time": 163.684276,
            "midi": 60,
            "name": "C4",
            "velocity": 0.6535433070866141,
            "duration": 0.0027412291666450983,
            "ticks": 59712,
            "durationTicks": 1
          },
          {
            "time": 163.94743400000002,
            "midi": 61,
            "name": "C#4",
            "velocity": 0.6535433070866141,
            "duration": 0.0027412291666450983,
            "ticks": 59808,
            "durationTicks": 1
          },
          {
            "time": 164.210592,
            "midi": 60,
            "name": "C4",
            "velocity": 0.6535433070866141,
            "duration": 0.00274122916667352,
            "ticks": 59904,
            "durationTicks": 1
          },
          {
            "time": 164.605329,
            "midi": 62,
            "name": "D4",
            "velocity": 0.6535433070866141,
            "duration": 0.0027412291666450983,
            "ticks": 60048,
            "durationTicks": 1
          },
          {
            "time": 164.736908,
            "midi": 60,
            "name": "C4",
            "velocity": 0.6535433070866141,
            "duration": 0.0027412291666450983,
            "ticks": 60096,
            "durationTicks": 1
          },
          {
            "time": 165.000066,
            "midi": 61,
            "name": "C#4",
            "velocity": 0.6535433070866141,
            "duration": 0.0027412291666450983,
            "ticks": 60192,
            "durationTicks": 1
          },
          {
            "time": 165.263224,
            "midi": 60,
            "name": "C4",
            "velocity": 0.6535433070866141,
            "duration": 0.0027412291666450983,
            "ticks": 60288,
            "durationTicks": 1
          },
          {
            "time": 165.657961,
            "midi": 62,
            "name": "D4",
            "velocity": 0.6535433070866141,
            "duration": 0.0027412291666450983,
            "ticks": 60432,
            "durationTicks": 1
          },
          {
            "time": 165.78954,
            "midi": 60,
            "name": "C4",
            "velocity": 0.6535433070866141,
            "duration": 0.00274122916667352,
            "ticks": 60480,
            "durationTicks": 1
          },
          {
            "time": 166.052698,
            "midi": 61,
            "name": "C#4",
            "velocity": 0.6535433070866141,
            "duration": 0.00274122916667352,
            "ticks": 60576,
            "durationTicks": 1
          },
          {
            "time": 166.315856,
            "midi": 60,
            "name": "C4",
            "velocity": 0.6535433070866141,
            "duration": 0.00274122916667352,
            "ticks": 60672,
            "durationTicks": 1
          },
          {
            "time": 166.710593,
            "midi": 62,
            "name": "D4",
            "velocity": 0.6535433070866141,
            "duration": 0.00274122916667352,
            "ticks": 60816,
            "durationTicks": 1
          },
          {
            "time": 166.842172,
            "midi": 60,
            "name": "C4",
            "velocity": 0.6535433070866141,
            "duration": 0.0027412291666450983,
            "ticks": 60864,
            "durationTicks": 1
          },
          {
            "time": 167.10533,
            "midi": 61,
            "name": "C#4",
            "velocity": 0.6535433070866141,
            "duration": 0.0027412291666450983,
            "ticks": 60960,
            "durationTicks": 1
          },
          {
            "time": 167.368488,
            "midi": 60,
            "name": "C4",
            "velocity": 0.6535433070866141,
            "duration": 0.0027412291666450983,
            "ticks": 61056,
            "durationTicks": 1
          },
          {
            "time": 167.763225,
            "midi": 62,
            "name": "D4",
            "velocity": 0.6535433070866141,
            "duration": 0.0027412291666450983,
            "ticks": 61200,
            "durationTicks": 1
          },
          {
            "time": 167.894804,
            "midi": 60,
            "name": "C4",
            "velocity": 0.6535433070866141,
            "duration": 0.00274122916667352,
            "ticks": 61248,
            "durationTicks": 1
          },
          {
            "time": 168.157962,
            "midi": 61,
            "name": "C#4",
            "velocity": 0.6535433070866141,
            "duration": 0.00274122916667352,
            "ticks": 61344,
            "durationTicks": 1
          },
          {
            "time": 168.42112,
            "midi": 60,
            "name": "C4",
            "velocity": 0.6535433070866141,
            "duration": 0.0027412291666450983,
            "ticks": 61440,
            "durationTicks": 1
          },
          {
            "time": 168.815857,
            "midi": 62,
            "name": "D4",
            "velocity": 0.6535433070866141,
            "duration": 0.00274122916667352,
            "ticks": 61584,
            "durationTicks": 1
          },
          {
            "time": 168.947436,
            "midi": 60,
            "name": "C4",
            "velocity": 0.6535433070866141,
            "duration": 0.0027412291666450983,
            "ticks": 61632,
            "durationTicks": 1
          },
          {
            "time": 169.21059400000001,
            "midi": 61,
            "name": "C#4",
            "velocity": 0.6535433070866141,
            "duration": 0.0027412291666450983,
            "ticks": 61728,
            "durationTicks": 1
          },
          {
            "time": 169.473752,
            "midi": 60,
            "name": "C4",
            "velocity": 0.6535433070866141,
            "duration": 0.00274122916667352,
            "ticks": 61824,
            "durationTicks": 1
          },
          {
            "time": 169.868489,
            "midi": 62,
            "name": "D4",
            "velocity": 0.6535433070866141,
            "duration": 0.0027412291666450983,
            "ticks": 61968,
            "durationTicks": 1
          },
          {
            "time": 170.000068,
            "midi": 60,
            "name": "C4",
            "velocity": 0.6535433070866141,
            "duration": 0.00274122916667352,
            "ticks": 62016,
            "durationTicks": 1
          },
          {
            "time": 170.263226,
            "midi": 61,
            "name": "C#4",
            "velocity": 0.6535433070866141,
            "duration": 0.0027412291666450983,
            "ticks": 62112,
            "durationTicks": 1
          },
          {
            "time": 170.526384,
            "midi": 60,
            "name": "C4",
            "velocity": 0.6535433070866141,
            "duration": 0.0027412291666450983,
            "ticks": 62208,
            "durationTicks": 1
          },
          {
            "time": 170.921121,
            "midi": 62,
            "name": "D4",
            "velocity": 0.6535433070866141,
            "duration": 0.0027412291666450983,
            "ticks": 62352,
            "durationTicks": 1
          },
          {
            "time": 171.05270000000002,
            "midi": 60,
            "name": "C4",
            "velocity": 0.6535433070866141,
            "duration": 0.0027412291666450983,
            "ticks": 62400,
            "durationTicks": 1
          },
          {
            "time": 171.315858,
            "midi": 61,
            "name": "C#4",
            "velocity": 0.6535433070866141,
            "duration": 0.00274122916667352,
            "ticks": 62496,
            "durationTicks": 1
          },
          {
            "time": 171.579016,
            "midi": 60,
            "name": "C4",
            "velocity": 0.6535433070866141,
            "duration": 0.00274122916667352,
            "ticks": 62592,
            "durationTicks": 1
          },
          {
            "time": 171.973753,
            "midi": 62,
            "name": "D4",
            "velocity": 0.6535433070866141,
            "duration": 0.00274122916667352,
            "ticks": 62736,
            "durationTicks": 1
          },
          {
            "time": 172.105332,
            "midi": 60,
            "name": "C4",
            "velocity": 0.6535433070866141,
            "duration": 0.0027412291666450983,
            "ticks": 62784,
            "durationTicks": 1
          },
          {
            "time": 172.36849,
            "midi": 61,
            "name": "C#4",
            "velocity": 0.6535433070866141,
            "duration": 0.0027412291666450983,
            "ticks": 62880,
            "durationTicks": 1
          },
          {
            "time": 172.631648,
            "midi": 60,
            "name": "C4",
            "velocity": 0.6535433070866141,
            "duration": 0.0027412291666450983,
            "ticks": 62976,
            "durationTicks": 1
          },
          {
            "time": 173.026385,
            "midi": 62,
            "name": "D4",
            "velocity": 0.6535433070866141,
            "duration": 0.0027412291666450983,
            "ticks": 63120,
            "durationTicks": 1
          },
          {
            "time": 173.157964,
            "midi": 60,
            "name": "C4",
            "velocity": 0.6535433070866141,
            "duration": 0.00274122916667352,
            "ticks": 63168,
            "durationTicks": 1
          },
          {
            "time": 173.421122,
            "midi": 61,
            "name": "C#4",
            "velocity": 0.6535433070866141,
            "duration": 0.00274122916667352,
            "ticks": 63264,
            "durationTicks": 1
          },
          {
            "time": 173.68428,
            "midi": 60,
            "name": "C4",
            "velocity": 0.6535433070866141,
            "duration": 0.0027412291666450983,
            "ticks": 63360,
            "durationTicks": 1
          },
          {
            "time": 174.079017,
            "midi": 62,
            "name": "D4",
            "velocity": 0.6535433070866141,
            "duration": 0.00274122916667352,
            "ticks": 63504,
            "durationTicks": 1
          },
          {
            "time": 174.210596,
            "midi": 60,
            "name": "C4",
            "velocity": 0.6535433070866141,
            "duration": 0.0027412291666450983,
            "ticks": 63552,
            "durationTicks": 1
          },
          {
            "time": 174.473754,
            "midi": 61,
            "name": "C#4",
            "velocity": 0.6535433070866141,
            "duration": 0.0027412291666450983,
            "ticks": 63648,
            "durationTicks": 1
          },
          {
            "time": 174.736912,
            "midi": 60,
            "name": "C4",
            "velocity": 0.6535433070866141,
            "duration": 0.00274122916667352,
            "ticks": 63744,
            "durationTicks": 1
          },
          {
            "time": 175.131649,
            "midi": 62,
            "name": "D4",
            "velocity": 0.6535433070866141,
            "duration": 0.0027412291666450983,
            "ticks": 63888,
            "durationTicks": 1
          },
          {
            "time": 175.263228,
            "midi": 60,
            "name": "C4",
            "velocity": 0.6535433070866141,
            "duration": 0.00274122916667352,
            "ticks": 63936,
            "durationTicks": 1
          },
          {
            "time": 175.526386,
            "midi": 61,
            "name": "C#4",
            "velocity": 0.6535433070866141,
            "duration": 0.0027412291666450983,
            "ticks": 64032,
            "durationTicks": 1
          },
          {
            "time": 175.789544,
            "midi": 60,
            "name": "C4",
            "velocity": 0.6535433070866141,
            "duration": 0.0027412291666450983,
            "ticks": 64128,
            "durationTicks": 1
          },
          {
            "time": 176.184281,
            "midi": 62,
            "name": "D4",
            "velocity": 0.6535433070866141,
            "duration": 0.00274122916667352,
            "ticks": 64272,
            "durationTicks": 1
          },
          {
            "time": 176.31586000000001,
            "midi": 60,
            "name": "C4",
            "velocity": 0.6535433070866141,
            "duration": 0.0027412291666450983,
            "ticks": 64320,
            "durationTicks": 1
          },
          {
            "time": 176.579018,
            "midi": 61,
            "name": "C#4",
            "velocity": 0.6535433070866141,
            "duration": 0.00274122916667352,
            "ticks": 64416,
            "durationTicks": 1
          },
          {
            "time": 176.842176,
            "midi": 60,
            "name": "C4",
            "velocity": 0.6535433070866141,
            "duration": 0.00274122916667352,
            "ticks": 64512,
            "durationTicks": 1
          },
          {
            "time": 177.23691300000002,
            "midi": 62,
            "name": "D4",
            "velocity": 0.6535433070866141,
            "duration": 0.0027412291666450983,
            "ticks": 64656,
            "durationTicks": 1
          },
          {
            "time": 177.368492,
            "midi": 60,
            "name": "C4",
            "velocity": 0.6535433070866141,
            "duration": 0.0027412291666450983,
            "ticks": 64704,
            "durationTicks": 1
          },
          {
            "time": 177.63165,
            "midi": 61,
            "name": "C#4",
            "velocity": 0.6535433070866141,
            "duration": 0.0027412291666450983,
            "ticks": 64800,
            "durationTicks": 1
          },
          {
            "time": 177.894808,
            "midi": 60,
            "name": "C4",
            "velocity": 0.6535433070866141,
            "duration": 0.0027412291666450983,
            "ticks": 64896,
            "durationTicks": 1
          },
          {
            "time": 178.289545,
            "midi": 62,
            "name": "D4",
            "velocity": 0.6535433070866141,
            "duration": 0.0027412291666450983,
            "ticks": 65040,
            "durationTicks": 1
          },
          {
            "time": 178.421124,
            "midi": 60,
            "name": "C4",
            "velocity": 0.6535433070866141,
            "duration": 0.00274122916667352,
            "ticks": 65088,
            "durationTicks": 1
          },
          {
            "time": 178.684282,
            "midi": 61,
            "name": "C#4",
            "velocity": 0.6535433070866141,
            "duration": 0.00274122916667352,
            "ticks": 65184,
            "durationTicks": 1
          },
          {
            "time": 178.94744,
            "midi": 60,
            "name": "C4",
            "velocity": 0.6535433070866141,
            "duration": 0.0027412291666450983,
            "ticks": 65280,
            "durationTicks": 1
          },
          {
            "time": 179.342177,
            "midi": 62,
            "name": "D4",
            "velocity": 0.6535433070866141,
            "duration": 0.00274122916667352,
            "ticks": 65424,
            "durationTicks": 1
          },
          {
            "time": 179.473756,
            "midi": 60,
            "name": "C4",
            "velocity": 0.6535433070866141,
            "duration": 0.0027412291666450983,
            "ticks": 65472,
            "durationTicks": 1
          },
          {
            "time": 179.736914,
            "midi": 61,
            "name": "C#4",
            "velocity": 0.6535433070866141,
            "duration": 0.0027412291666450983,
            "ticks": 65568,
            "durationTicks": 1
          },
          {
            "time": 180.000072,
            "midi": 60,
            "name": "C4",
            "velocity": 0.6535433070866141,
            "duration": 0.00274122916667352,
            "ticks": 65664,
            "durationTicks": 1
          },
          {
            "time": 180.394809,
            "midi": 62,
            "name": "D4",
            "velocity": 0.6535433070866141,
            "duration": 0.0027412291666450983,
            "ticks": 65808,
            "durationTicks": 1
          },
          {
            "time": 180.526388,
            "midi": 60,
            "name": "C4",
            "velocity": 0.6535433070866141,
            "duration": 0.00274122916667352,
            "ticks": 65856,
            "durationTicks": 1
          },
          {
            "time": 180.789546,
            "midi": 61,
            "name": "C#4",
            "velocity": 0.6535433070866141,
            "duration": 0.0027412291666450983,
            "ticks": 65952,
            "durationTicks": 1
          },
          {
            "time": 181.052704,
            "midi": 60,
            "name": "C4",
            "velocity": 0.6535433070866141,
            "duration": 0.0027412291666450983,
            "ticks": 66048,
            "durationTicks": 1
          },
          {
            "time": 181.447441,
            "midi": 62,
            "name": "D4",
            "velocity": 0.6535433070866141,
            "duration": 0.00274122916667352,
            "ticks": 66192,
            "durationTicks": 1
          },
          {
            "time": 181.57902,
            "midi": 60,
            "name": "C4",
            "velocity": 0.6535433070866141,
            "duration": 0.0027412291666450983,
            "ticks": 66240,
            "durationTicks": 1
          },
          {
            "time": 181.842178,
            "midi": 61,
            "name": "C#4",
            "velocity": 0.6535433070866141,
            "duration": 0.00274122916667352,
            "ticks": 66336,
            "durationTicks": 1
          },
          {
            "time": 182.105336,
            "midi": 60,
            "name": "C4",
            "velocity": 0.6535433070866141,
            "duration": 0.00274122916667352,
            "ticks": 66432,
            "durationTicks": 1
          },
          {
            "time": 182.50007300000001,
            "midi": 62,
            "name": "D4",
            "velocity": 0.6535433070866141,
            "duration": 0.0027412291666450983,
            "ticks": 66576,
            "durationTicks": 1
          },
          {
            "time": 182.631652,
            "midi": 60,
            "name": "C4",
            "velocity": 0.6535433070866141,
            "duration": 0.0027412291666450983,
            "ticks": 66624,
            "durationTicks": 1
          },
          {
            "time": 182.89481,
            "midi": 61,
            "name": "C#4",
            "velocity": 0.6535433070866141,
            "duration": 0.0027412291666450983,
            "ticks": 66720,
            "durationTicks": 1
          },
          {
            "time": 183.157968,
            "midi": 60,
            "name": "C4",
            "velocity": 0.6535433070866141,
            "duration": 0.0027412291666450983,
            "ticks": 66816,
            "durationTicks": 1
          },
          {
            "time": 183.552705,
            "midi": 62,
            "name": "D4",
            "velocity": 0.6535433070866141,
            "duration": 0.0027412291666450983,
            "ticks": 66960,
            "durationTicks": 1
          },
          {
            "time": 183.684284,
            "midi": 60,
            "name": "C4",
            "velocity": 0.6535433070866141,
            "duration": 0.00274122916667352,
            "ticks": 67008,
            "durationTicks": 1
          },
          {
            "time": 183.947442,
            "midi": 61,
            "name": "C#4",
            "velocity": 0.6535433070866141,
            "duration": 0.00274122916667352,
            "ticks": 67104,
            "durationTicks": 1
          },
          {
            "time": 184.2106,
            "midi": 60,
            "name": "C4",
            "velocity": 0.6535433070866141,
            "duration": 0.00274122916667352,
            "ticks": 67200,
            "durationTicks": 1
          },
          {
            "time": 184.605337,
            "midi": 62,
            "name": "D4",
            "velocity": 0.6535433070866141,
            "duration": 0.00274122916667352,
            "ticks": 67344,
            "durationTicks": 1
          },
          {
            "time": 184.736916,
            "midi": 60,
            "name": "C4",
            "velocity": 0.6535433070866141,
            "duration": 0.0027412291666450983,
            "ticks": 67392,
            "durationTicks": 1
          },
          {
            "time": 185.000074,
            "midi": 61,
            "name": "C#4",
            "velocity": 0.6535433070866141,
            "duration": 0.0027412291666450983,
            "ticks": 67488,
            "durationTicks": 1
          },
          {
            "time": 185.26323200000002,
            "midi": 60,
            "name": "C4",
            "velocity": 0.6535433070866141,
            "duration": 0.0027412291666450983,
            "ticks": 67584,
            "durationTicks": 1
          },
          {
            "time": 185.657969,
            "midi": 62,
            "name": "D4",
            "velocity": 0.6535433070866141,
            "duration": 0.0027412291666450983,
            "ticks": 67728,
            "durationTicks": 1
          },
          {
            "time": 185.789548,
            "midi": 60,
            "name": "C4",
            "velocity": 0.6535433070866141,
            "duration": 0.00274122916667352,
            "ticks": 67776,
            "durationTicks": 1
          },
          {
            "time": 186.052706,
            "midi": 61,
            "name": "C#4",
            "velocity": 0.6535433070866141,
            "duration": 0.0027412291666450983,
            "ticks": 67872,
            "durationTicks": 1
          },
          {
            "time": 186.315864,
            "midi": 60,
            "name": "C4",
            "velocity": 0.6535433070866141,
            "duration": 0.0027412291666450983,
            "ticks": 67968,
            "durationTicks": 1
          },
          {
            "time": 186.710601,
            "midi": 62,
            "name": "D4",
            "velocity": 0.6535433070866141,
            "duration": 0.00274122916667352,
            "ticks": 68112,
            "durationTicks": 1
          },
          {
            "time": 186.84218,
            "midi": 60,
            "name": "C4",
            "velocity": 0.6535433070866141,
            "duration": 0.0027412291666450983,
            "ticks": 68160,
            "durationTicks": 1
          },
          {
            "time": 187.105338,
            "midi": 61,
            "name": "C#4",
            "velocity": 0.6535433070866141,
            "duration": 0.00274122916667352,
            "ticks": 68256,
            "durationTicks": 1
          },
          {
            "time": 187.368496,
            "midi": 60,
            "name": "C4",
            "velocity": 0.6535433070866141,
            "duration": 0.00274122916667352,
            "ticks": 68352,
            "durationTicks": 1
          },
          {
            "time": 187.763233,
            "midi": 62,
            "name": "D4",
            "velocity": 0.6535433070866141,
            "duration": 0.0027412291666450983,
            "ticks": 68496,
            "durationTicks": 1
          },
          {
            "time": 187.894812,
            "midi": 60,
            "name": "C4",
            "velocity": 0.6535433070866141,
            "duration": 0.0027412291666450983,
            "ticks": 68544,
            "durationTicks": 1
          },
          {
            "time": 188.15797,
            "midi": 61,
            "name": "C#4",
            "velocity": 0.6535433070866141,
            "duration": 0.0027412291666450983,
            "ticks": 68640,
            "durationTicks": 1
          },
          {
            "time": 188.421128,
            "midi": 60,
            "name": "C4",
            "velocity": 0.6535433070866141,
            "duration": 0.0027412291666450983,
            "ticks": 68736,
            "durationTicks": 1
          },
          {
            "time": 188.815865,
            "midi": 62,
            "name": "D4",
            "velocity": 0.6535433070866141,
            "duration": 0.0027412291666450983,
            "ticks": 68880,
            "durationTicks": 1
          },
          {
            "time": 188.947444,
            "midi": 60,
            "name": "C4",
            "velocity": 0.6535433070866141,
            "duration": 0.00274122916667352,
            "ticks": 68928,
            "durationTicks": 1
          },
          {
            "time": 189.210602,
            "midi": 61,
            "name": "C#4",
            "velocity": 0.6535433070866141,
            "duration": 0.00274122916667352,
            "ticks": 69024,
            "durationTicks": 1
          },
          {
            "time": 189.47376,
            "midi": 60,
            "name": "C4",
            "velocity": 0.6535433070866141,
            "duration": 0.00274122916667352,
            "ticks": 69120,
            "durationTicks": 1
          },
          {
            "time": 189.868497,
            "midi": 62,
            "name": "D4",
            "velocity": 0.6535433070866141,
            "duration": 0.00274122916667352,
            "ticks": 69264,
            "durationTicks": 1
          },
          {
            "time": 190.000076,
            "midi": 60,
            "name": "C4",
            "velocity": 0.6535433070866141,
            "duration": 0.0027412291666450983,
            "ticks": 69312,
            "durationTicks": 1
          },
          {
            "time": 190.263234,
            "midi": 61,
            "name": "C#4",
            "velocity": 0.6535433070866141,
            "duration": 0.0027412291666450983,
            "ticks": 69408,
            "durationTicks": 1
          },
          {
            "time": 190.52639200000002,
            "midi": 60,
            "name": "C4",
            "velocity": 0.6535433070866141,
            "duration": 0.0027412291666450983,
            "ticks": 69504,
            "durationTicks": 1
          },
          {
            "time": 190.921129,
            "midi": 62,
            "name": "D4",
            "velocity": 0.6535433070866141,
            "duration": 0.0027412291666450983,
            "ticks": 69648,
            "durationTicks": 1
          },
          {
            "time": 191.052708,
            "midi": 60,
            "name": "C4",
            "velocity": 0.6535433070866141,
            "duration": 0.00274122916667352,
            "ticks": 69696,
            "durationTicks": 1
          },
          {
            "time": 191.315866,
            "midi": 61,
            "name": "C#4",
            "velocity": 0.6535433070866141,
            "duration": 0.0027412291666450983,
            "ticks": 69792,
            "durationTicks": 1
          },
          {
            "time": 191.579024,
            "midi": 60,
            "name": "C4",
            "velocity": 0.6535433070866141,
            "duration": 0.0027412291666450983,
            "ticks": 69888,
            "durationTicks": 1
          },
          {
            "time": 191.973761,
            "midi": 62,
            "name": "D4",
            "velocity": 0.6535433070866141,
            "duration": 0.00274122916667352,
            "ticks": 70032,
            "durationTicks": 1
          },
          {
            "time": 192.10534,
            "midi": 60,
            "name": "C4",
            "velocity": 0.6535433070866141,
            "duration": 0.0027412291666450983,
            "ticks": 70080,
            "durationTicks": 1
          },
          {
            "time": 192.368498,
            "midi": 61,
            "name": "C#4",
            "velocity": 0.6535433070866141,
            "duration": 0.00274122916667352,
            "ticks": 70176,
            "durationTicks": 1
          },
          {
            "time": 192.631656,
            "midi": 60,
            "name": "C4",
            "velocity": 0.6535433070866141,
            "duration": 0.00274122916667352,
            "ticks": 70272,
            "durationTicks": 1
          },
          {
            "time": 193.026393,
            "midi": 62,
            "name": "D4",
            "velocity": 0.6535433070866141,
            "duration": 0.0027412291666450983,
            "ticks": 70416,
            "durationTicks": 1
          },
          {
            "time": 193.157972,
            "midi": 60,
            "name": "C4",
            "velocity": 0.6535433070866141,
            "duration": 0.0027412291666450983,
            "ticks": 70464,
            "durationTicks": 1
          },
          {
            "time": 193.42113,
            "midi": 61,
            "name": "C#4",
            "velocity": 0.6535433070866141,
            "duration": 0.0027412291666450983,
            "ticks": 70560,
            "durationTicks": 1
          },
          {
            "time": 193.684288,
            "midi": 60,
            "name": "C4",
            "velocity": 0.6535433070866141,
            "duration": 0.0027412291666450983,
            "ticks": 70656,
            "durationTicks": 1
          },
          {
            "time": 194.079025,
            "midi": 62,
            "name": "D4",
            "velocity": 0.6535433070866141,
            "duration": 0.0027412291666450983,
            "ticks": 70800,
            "durationTicks": 1
          },
          {
            "time": 194.210604,
            "midi": 60,
            "name": "C4",
            "velocity": 0.6535433070866141,
            "duration": 0.00274122916667352,
            "ticks": 70848,
            "durationTicks": 1
          },
          {
            "time": 194.473762,
            "midi": 61,
            "name": "C#4",
            "velocity": 0.6535433070866141,
            "duration": 0.00274122916667352,
            "ticks": 70944,
            "durationTicks": 1
          },
          {
            "time": 194.73692,
            "midi": 60,
            "name": "C4",
            "velocity": 0.6535433070866141,
            "duration": 0.00274122916667352,
            "ticks": 71040,
            "durationTicks": 1
          },
          {
            "time": 195.131657,
            "midi": 62,
            "name": "D4",
            "velocity": 0.6535433070866141,
            "duration": 0.00274122916667352,
            "ticks": 71184,
            "durationTicks": 1
          },
          {
            "time": 195.263236,
            "midi": 60,
            "name": "C4",
            "velocity": 0.6535433070866141,
            "duration": 0.0027412291666450983,
            "ticks": 71232,
            "durationTicks": 1
          },
          {
            "time": 195.526394,
            "midi": 61,
            "name": "C#4",
            "velocity": 0.6535433070866141,
            "duration": 0.0027412291666450983,
            "ticks": 71328,
            "durationTicks": 1
          },
          {
            "time": 195.78955200000001,
            "midi": 60,
            "name": "C4",
            "velocity": 0.6535433070866141,
            "duration": 0.0027412291666450983,
            "ticks": 71424,
            "durationTicks": 1
          },
          {
            "time": 196.184289,
            "midi": 62,
            "name": "D4",
            "velocity": 0.6535433070866141,
            "duration": 0.0027412291666450983,
            "ticks": 71568,
            "durationTicks": 1
          },
          {
            "time": 196.315868,
            "midi": 60,
            "name": "C4",
            "velocity": 0.6535433070866141,
            "duration": 0.00274122916667352,
            "ticks": 71616,
            "durationTicks": 1
          },
          {
            "time": 196.579026,
            "midi": 61,
            "name": "C#4",
            "velocity": 0.6535433070866141,
            "duration": 0.00274122916667352,
            "ticks": 71712,
            "durationTicks": 1
          },
          {
            "time": 196.842184,
            "midi": 60,
            "name": "C4",
            "velocity": 0.6535433070866141,
            "duration": 0.0027412291666450983,
            "ticks": 71808,
            "durationTicks": 1
          },
          {
            "time": 197.236921,
            "midi": 62,
            "name": "D4",
            "velocity": 0.6535433070866141,
            "duration": 0.00274122916667352,
            "ticks": 71952,
            "durationTicks": 1
          },
          {
            "time": 197.3685,
            "midi": 60,
            "name": "C4",
            "velocity": 0.6535433070866141,
            "duration": 0.0027412291666450983,
            "ticks": 72000,
            "durationTicks": 1
          },
          {
            "time": 197.63165800000002,
            "midi": 61,
            "name": "C#4",
            "velocity": 0.6535433070866141,
            "duration": 0.0027412291666450983,
            "ticks": 72096,
            "durationTicks": 1
          },
          {
            "time": 197.894816,
            "midi": 60,
            "name": "C4",
            "velocity": 0.6535433070866141,
            "duration": 0.00274122916667352,
            "ticks": 72192,
            "durationTicks": 1
          },
          {
            "time": 198.289553,
            "midi": 62,
            "name": "D4",
            "velocity": 0.6535433070866141,
            "duration": 0.0027412291666450983,
            "ticks": 72336,
            "durationTicks": 1
          },
          {
            "time": 198.421132,
            "midi": 60,
            "name": "C4",
            "velocity": 0.6535433070866141,
            "duration": 0.0027412291666450983,
            "ticks": 72384,
            "durationTicks": 1
          },
          {
            "time": 198.68429,
            "midi": 61,
            "name": "C#4",
            "velocity": 0.6535433070866141,
            "duration": 0.0027412291666450983,
            "ticks": 72480,
            "durationTicks": 1
          },
          {
            "time": 198.947448,
            "midi": 60,
            "name": "C4",
            "velocity": 0.6535433070866141,
            "duration": 0.0027412291666450983,
            "ticks": 72576,
            "durationTicks": 1
          },
          {
            "time": 199.342185,
            "midi": 62,
            "name": "D4",
            "velocity": 0.6535433070866141,
            "duration": 0.0027412291666450983,
            "ticks": 72720,
            "durationTicks": 1
          },
          {
            "time": 199.473764,
            "midi": 60,
            "name": "C4",
            "velocity": 0.6535433070866141,
            "duration": 0.00274122916667352,
            "ticks": 72768,
            "durationTicks": 1
          },
          {
            "time": 199.736922,
            "midi": 61,
            "name": "C#4",
            "velocity": 0.6535433070866141,
            "duration": 0.00274122916667352,
            "ticks": 72864,
            "durationTicks": 1
          },
          {
            "time": 200.00008,
            "midi": 60,
            "name": "C4",
            "velocity": 0.6535433070866141,
            "duration": 0.00274122916667352,
            "ticks": 72960,
            "durationTicks": 1
          },
          {
            "time": 200.394817,
            "midi": 62,
            "name": "D4",
            "velocity": 0.6535433070866141,
            "duration": 0.00274122916667352,
            "ticks": 73104,
            "durationTicks": 1
          },
          {
            "time": 200.526396,
            "midi": 60,
            "name": "C4",
            "velocity": 0.6535433070866141,
            "duration": 0.0027412291666450983,
            "ticks": 73152,
            "durationTicks": 1
          },
          {
            "time": 200.789554,
            "midi": 61,
            "name": "C#4",
            "velocity": 0.6535433070866141,
            "duration": 0.0027412291666450983,
            "ticks": 73248,
            "durationTicks": 1
          },
          {
            "time": 201.052712,
            "midi": 60,
            "name": "C4",
            "velocity": 0.6535433070866141,
            "duration": 0.0027412291666450983,
            "ticks": 73344,
            "durationTicks": 1
          },
          {
            "time": 201.447449,
            "midi": 62,
            "name": "D4",
            "velocity": 0.6535433070866141,
            "duration": 0.0027412291666450983,
            "ticks": 73488,
            "durationTicks": 1
          },
          {
            "time": 201.579028,
            "midi": 60,
            "name": "C4",
            "velocity": 0.6535433070866141,
            "duration": 0.00274122916667352,
            "ticks": 73536,
            "durationTicks": 1
          },
          {
            "time": 201.842186,
            "midi": 61,
            "name": "C#4",
            "velocity": 0.6535433070866141,
            "duration": 0.00274122916667352,
            "ticks": 73632,
            "durationTicks": 1
          },
          {
            "time": 202.105344,
            "midi": 60,
            "name": "C4",
            "velocity": 0.6535433070866141,
            "duration": 0.0027412291666450983,
            "ticks": 73728,
            "durationTicks": 1
          },
          {
            "time": 202.500081,
            "midi": 62,
            "name": "D4",
            "velocity": 0.6535433070866141,
            "duration": 0.00274122916667352,
            "ticks": 73872,
            "durationTicks": 1
          },
          {
            "time": 202.63166,
            "midi": 60,
            "name": "C4",
            "velocity": 0.6535433070866141,
            "duration": 0.0027412291666450983,
            "ticks": 73920,
            "durationTicks": 1
          },
          {
            "time": 202.89481800000001,
            "midi": 61,
            "name": "C#4",
            "velocity": 0.6535433070866141,
            "duration": 0.0027412291666450983,
            "ticks": 74016,
            "durationTicks": 1
          },
          {
            "time": 203.157976,
            "midi": 60,
            "name": "C4",
            "velocity": 0.6535433070866141,
            "duration": 0.00274122916667352,
            "ticks": 74112,
            "durationTicks": 1
          },
          {
            "time": 203.552713,
            "midi": 62,
            "name": "D4",
            "velocity": 0.6535433070866141,
            "duration": 0.0027412291666450983,
            "ticks": 74256,
            "durationTicks": 1
          },
          {
            "time": 203.684292,
            "midi": 60,
            "name": "C4",
            "velocity": 0.6535433070866141,
            "duration": 0.00274122916667352,
            "ticks": 74304,
            "durationTicks": 1
          },
          {
            "time": 203.94745,
            "midi": 61,
            "name": "C#4",
            "velocity": 0.6535433070866141,
            "duration": 0.0027412291666450983,
            "ticks": 74400,
            "durationTicks": 1
          },
          {
            "time": 204.210608,
            "midi": 60,
            "name": "C4",
            "velocity": 0.6535433070866141,
            "duration": 0.0027412291666450983,
            "ticks": 74496,
            "durationTicks": 1
          },
          {
            "time": 204.605345,
            "midi": 62,
            "name": "D4",
            "velocity": 0.6535433070866141,
            "duration": 0.0027412291666450983,
            "ticks": 74640,
            "durationTicks": 1
          },
          {
            "time": 204.73692400000002,
            "midi": 60,
            "name": "C4",
            "velocity": 0.6535433070866141,
            "duration": 0.0027412291666450983,
            "ticks": 74688,
            "durationTicks": 1
          },
          {
            "time": 205.000082,
            "midi": 61,
            "name": "C#4",
            "velocity": 0.6535433070866141,
            "duration": 0.00274122916667352,
            "ticks": 74784,
            "durationTicks": 1
          },
          {
            "time": 205.26324,
            "midi": 60,
            "name": "C4",
            "velocity": 0.6535433070866141,
            "duration": 0.00274122916667352,
            "ticks": 74880,
            "durationTicks": 1
          },
          {
            "time": 205.657977,
            "midi": 62,
            "name": "D4",
            "velocity": 0.6535433070866141,
            "duration": 0.00274122916667352,
            "ticks": 75024,
            "durationTicks": 1
          },
          {
            "time": 205.789556,
            "midi": 60,
            "name": "C4",
            "velocity": 0.6535433070866141,
            "duration": 0.0027412291666450983,
            "ticks": 75072,
            "durationTicks": 1
          },
          {
            "time": 206.052714,
            "midi": 61,
            "name": "C#4",
            "velocity": 0.6535433070866141,
            "duration": 0.0027412291666450983,
            "ticks": 75168,
            "durationTicks": 1
          },
          {
            "time": 206.315872,
            "midi": 60,
            "name": "C4",
            "velocity": 0.6535433070866141,
            "duration": 0.0027412291666450983,
            "ticks": 75264,
            "durationTicks": 1
          },
          {
            "time": 206.710609,
            "midi": 62,
            "name": "D4",
            "velocity": 0.6535433070866141,
            "duration": 0.0027412291666450983,
            "ticks": 75408,
            "durationTicks": 1
          },
          {
            "time": 206.842188,
            "midi": 60,
            "name": "C4",
            "velocity": 0.6535433070866141,
            "duration": 0.00274122916667352,
            "ticks": 75456,
            "durationTicks": 1
          },
          {
            "time": 207.105346,
            "midi": 61,
            "name": "C#4",
            "velocity": 0.6535433070866141,
            "duration": 0.00274122916667352,
            "ticks": 75552,
            "durationTicks": 1
          },
          {
            "time": 207.368504,
            "midi": 60,
            "name": "C4",
            "velocity": 0.6535433070866141,
            "duration": 0.0027412291666450983,
            "ticks": 75648,
            "durationTicks": 1
          },
          {
            "time": 207.763241,
            "midi": 62,
            "name": "D4",
            "velocity": 0.6535433070866141,
            "duration": 0.00274122916667352,
            "ticks": 75792,
            "durationTicks": 1
          },
          {
            "time": 207.89482,
            "midi": 60,
            "name": "C4",
            "velocity": 0.6535433070866141,
            "duration": 0.0027412291666450983,
            "ticks": 75840,
            "durationTicks": 1
          },
          {
            "time": 208.157978,
            "midi": 61,
            "name": "C#4",
            "velocity": 0.6535433070866141,
            "duration": 0.0027412291666450983,
            "ticks": 75936,
            "durationTicks": 1
          },
          {
            "time": 208.421136,
            "midi": 60,
            "name": "C4",
            "velocity": 0.6535433070866141,
            "duration": 0.00274122916667352,
            "ticks": 76032,
            "durationTicks": 1
          },
          {
            "time": 208.815873,
            "midi": 62,
            "name": "D4",
            "velocity": 0.6535433070866141,
            "duration": 0.0027412291666450983,
            "ticks": 76176,
            "durationTicks": 1
          },
          {
            "time": 208.947452,
            "midi": 60,
            "name": "C4",
            "velocity": 0.6535433070866141,
            "duration": 0.00274122916667352,
            "ticks": 76224,
            "durationTicks": 1
          },
          {
            "time": 209.21061,
            "midi": 61,
            "name": "C#4",
            "velocity": 0.6535433070866141,
            "duration": 0.0027412291666450983,
            "ticks": 76320,
            "durationTicks": 1
          },
          {
            "time": 209.473768,
            "midi": 60,
            "name": "C4",
            "velocity": 0.6535433070866141,
            "duration": 0.0027412291666450983,
            "ticks": 76416,
            "durationTicks": 1
          },
          {
            "time": 209.868505,
            "midi": 62,
            "name": "D4",
            "velocity": 0.6535433070866141,
            "duration": 0.00274122916667352,
            "ticks": 76560,
            "durationTicks": 1
          },
          {
            "time": 210.00008400000002,
            "midi": 60,
            "name": "C4",
            "velocity": 0.6535433070866141,
            "duration": 0.0027412291666450983,
            "ticks": 76608,
            "durationTicks": 1
          },
          {
            "time": 210.263242,
            "midi": 61,
            "name": "C#4",
            "velocity": 0.6535433070866141,
            "duration": 0.00274122916667352,
            "ticks": 76704,
            "durationTicks": 1
          },
          {
            "time": 210.5264,
            "midi": 60,
            "name": "C4",
            "velocity": 0.6535433070866141,
            "duration": 0.00274122916667352,
            "ticks": 76800,
            "durationTicks": 1
          },
          {
            "time": 210.92113700000002,
            "midi": 62,
            "name": "D4",
            "velocity": 0.6535433070866141,
            "duration": 0.0027412291666450983,
            "ticks": 76944,
            "durationTicks": 1
          },
          {
            "time": 211.052716,
            "midi": 60,
            "name": "C4",
            "velocity": 0.6535433070866141,
            "duration": 0.0027412291666450983,
            "ticks": 76992,
            "durationTicks": 1
          },
          {
            "time": 211.315874,
            "midi": 61,
            "name": "C#4",
            "velocity": 0.6535433070866141,
            "duration": 0.0027412291666450983,
            "ticks": 77088,
            "durationTicks": 1
          },
          {
            "time": 211.579032,
            "midi": 60,
            "name": "C4",
            "velocity": 0.6535433070866141,
            "duration": 0.0027412291666450983,
            "ticks": 77184,
            "durationTicks": 1
          },
          {
            "time": 211.973769,
            "midi": 62,
            "name": "D4",
            "velocity": 0.6535433070866141,
            "duration": 0.0027412291666450983,
            "ticks": 77328,
            "durationTicks": 1
          },
          {
            "time": 212.105348,
            "midi": 60,
            "name": "C4",
            "velocity": 0.6535433070866141,
            "duration": 0.00274122916667352,
            "ticks": 77376,
            "durationTicks": 1
          },
          {
            "time": 212.368506,
            "midi": 61,
            "name": "C#4",
            "velocity": 0.6535433070866141,
            "duration": 0.00274122916667352,
            "ticks": 77472,
            "durationTicks": 1
          },
          {
            "time": 212.631664,
            "midi": 60,
            "name": "C4",
            "velocity": 0.6535433070866141,
            "duration": 0.0027412291666450983,
            "ticks": 77568,
            "durationTicks": 1
          },
          {
            "time": 213.026401,
            "midi": 62,
            "name": "D4",
            "velocity": 0.6535433070866141,
            "duration": 0.00274122916667352,
            "ticks": 77712,
            "durationTicks": 1
          },
          {
            "time": 213.15798,
            "midi": 60,
            "name": "C4",
            "velocity": 0.6535433070866141,
            "duration": 0.0027412291666450983,
            "ticks": 77760,
            "durationTicks": 1
          },
          {
            "time": 213.421138,
            "midi": 61,
            "name": "C#4",
            "velocity": 0.6535433070866141,
            "duration": 0.0027412291666450983,
            "ticks": 77856,
            "durationTicks": 1
          },
          {
            "time": 213.684296,
            "midi": 60,
            "name": "C4",
            "velocity": 0.6535433070866141,
            "duration": 0.00274122916667352,
            "ticks": 77952,
            "durationTicks": 1
          },
          {
            "time": 214.079033,
            "midi": 62,
            "name": "D4",
            "velocity": 0.6535433070866141,
            "duration": 0.0027412291666450983,
            "ticks": 78096,
            "durationTicks": 1
          },
          {
            "time": 214.210612,
            "midi": 60,
            "name": "C4",
            "velocity": 0.6535433070866141,
            "duration": 0.00274122916667352,
            "ticks": 78144,
            "durationTicks": 1
          },
          {
            "time": 214.47377,
            "midi": 61,
            "name": "C#4",
            "velocity": 0.6535433070866141,
            "duration": 0.0027412291666450983,
            "ticks": 78240,
            "durationTicks": 1
          },
          {
            "time": 214.736928,
            "midi": 60,
            "name": "C4",
            "velocity": 0.6535433070866141,
            "duration": 0.0027412291666450983,
            "ticks": 78336,
            "durationTicks": 1
          },
          {
            "time": 215.131665,
            "midi": 62,
            "name": "D4",
            "velocity": 0.6535433070866141,
            "duration": 0.00274122916667352,
            "ticks": 78480,
            "durationTicks": 1
          },
          {
            "time": 215.26324400000001,
            "midi": 60,
            "name": "C4",
            "velocity": 0.6535433070866141,
            "duration": 0.0027412291666450983,
            "ticks": 78528,
            "durationTicks": 1
          },
          {
            "time": 215.526402,
            "midi": 61,
            "name": "C#4",
            "velocity": 0.6535433070866141,
            "duration": 0.00274122916667352,
            "ticks": 78624,
            "durationTicks": 1
          },
          {
            "time": 215.78956,
            "midi": 60,
            "name": "C4",
            "velocity": 0.6535433070866141,
            "duration": 0.00274122916667352,
            "ticks": 78720,
            "durationTicks": 1
          },
          {
            "time": 216.18429700000002,
            "midi": 62,
            "name": "D4",
            "velocity": 0.6535433070866141,
            "duration": 0.0027412291666450983,
            "ticks": 78864,
            "durationTicks": 1
          },
          {
            "time": 216.315876,
            "midi": 60,
            "name": "C4",
            "velocity": 0.6535433070866141,
            "duration": 0.0027412291666450983,
            "ticks": 78912,
            "durationTicks": 1
          },
          {
            "time": 216.579034,
            "midi": 61,
            "name": "C#4",
            "velocity": 0.6535433070866141,
            "duration": 0.0027412291666450983,
            "ticks": 79008,
            "durationTicks": 1
          },
          {
            "time": 216.842192,
            "midi": 60,
            "name": "C4",
            "velocity": 0.6535433070866141,
            "duration": 0.0027412291666450983,
            "ticks": 79104,
            "durationTicks": 1
          },
          {
            "time": 217.236929,
            "midi": 62,
            "name": "D4",
            "velocity": 0.6535433070866141,
            "duration": 0.0027412291666450983,
            "ticks": 79248,
            "durationTicks": 1
          },
          {
            "time": 217.368508,
            "midi": 60,
            "name": "C4",
            "velocity": 0.6535433070866141,
            "duration": 0.00274122916667352,
            "ticks": 79296,
            "durationTicks": 1
          },
          {
            "time": 217.631666,
            "midi": 61,
            "name": "C#4",
            "velocity": 0.6535433070866141,
            "duration": 0.00274122916667352,
            "ticks": 79392,
            "durationTicks": 1
          },
          {
            "time": 217.894824,
            "midi": 60,
            "name": "C4",
            "velocity": 0.6535433070866141,
            "duration": 0.00274122916667352,
            "ticks": 79488,
            "durationTicks": 1
          },
          {
            "time": 218.289561,
            "midi": 62,
            "name": "D4",
            "velocity": 0.6535433070866141,
            "duration": 0.00274122916667352,
            "ticks": 79632,
            "durationTicks": 1
          },
          {
            "time": 218.42114,
            "midi": 60,
            "name": "C4",
            "velocity": 0.6535433070866141,
            "duration": 0.0027412291666450983,
            "ticks": 79680,
            "durationTicks": 1
          },
          {
            "time": 218.684298,
            "midi": 61,
            "name": "C#4",
            "velocity": 0.6535433070866141,
            "duration": 0.0027412291666450983,
            "ticks": 79776,
            "durationTicks": 1
          },
          {
            "time": 218.947456,
            "midi": 60,
            "name": "C4",
            "velocity": 0.6535433070866141,
            "duration": 0.00274122916667352,
            "ticks": 79872,
            "durationTicks": 1
          },
          {
            "time": 219.342193,
            "midi": 62,
            "name": "D4",
            "velocity": 0.6535433070866141,
            "duration": 0.0027412291666450983,
            "ticks": 80016,
            "durationTicks": 1
          },
          {
            "time": 219.473772,
            "midi": 60,
            "name": "C4",
            "velocity": 0.6535433070866141,
            "duration": 0.00274122916667352,
            "ticks": 80064,
            "durationTicks": 1
          },
          {
            "time": 219.73693,
            "midi": 61,
            "name": "C#4",
            "velocity": 0.6535433070866141,
            "duration": 0.0027412291666450983,
            "ticks": 80160,
            "durationTicks": 1
          },
          {
            "time": 220.000088,
            "midi": 60,
            "name": "C4",
            "velocity": 0.6535433070866141,
            "duration": 0.0027412291666450983,
            "ticks": 80256,
            "durationTicks": 1
          },
          {
            "time": 220.394825,
            "midi": 62,
            "name": "D4",
            "velocity": 0.6535433070866141,
            "duration": 0.00274122916667352,
            "ticks": 80400,
            "durationTicks": 1
          },
          {
            "time": 220.526404,
            "midi": 60,
            "name": "C4",
            "velocity": 0.6535433070866141,
            "duration": 0.0027412291666450983,
            "ticks": 80448,
            "durationTicks": 1
          },
          {
            "time": 220.789562,
            "midi": 61,
            "name": "C#4",
            "velocity": 0.6535433070866141,
            "duration": 0.00274122916667352,
            "ticks": 80544,
            "durationTicks": 1
          },
          {
            "time": 221.05272,
            "midi": 60,
            "name": "C4",
            "velocity": 0.6535433070866141,
            "duration": 0.00274122916667352,
            "ticks": 80640,
            "durationTicks": 1
          },
          {
            "time": 221.447457,
            "midi": 62,
            "name": "D4",
            "velocity": 0.6535433070866141,
            "duration": 0.0027412291666450983,
            "ticks": 80784,
            "durationTicks": 1
          },
          {
            "time": 221.579036,
            "midi": 60,
            "name": "C4",
            "velocity": 0.6535433070866141,
            "duration": 0.0027412291666450983,
            "ticks": 80832,
            "durationTicks": 1
          },
          {
            "time": 221.842194,
            "midi": 61,
            "name": "C#4",
            "velocity": 0.6535433070866141,
            "duration": 0.0027412291666450983,
            "ticks": 80928,
            "durationTicks": 1
          },
          {
            "time": 222.105352,
            "midi": 60,
            "name": "C4",
            "velocity": 0.6535433070866141,
            "duration": 0.0027412291666450983,
            "ticks": 81024,
            "durationTicks": 1
          },
          {
            "time": 222.500089,
            "midi": 62,
            "name": "D4",
            "velocity": 0.6535433070866141,
            "duration": 0.0027412291666450983,
            "ticks": 81168,
            "durationTicks": 1
          },
          {
            "time": 222.631668,
            "midi": 60,
            "name": "C4",
            "velocity": 0.6535433070866141,
            "duration": 0.00274122916667352,
            "ticks": 81216,
            "durationTicks": 1
          },
          {
            "time": 222.894826,
            "midi": 61,
            "name": "C#4",
            "velocity": 0.6535433070866141,
            "duration": 0.00274122916667352,
            "ticks": 81312,
            "durationTicks": 1
          },
          {
            "time": 223.157984,
            "midi": 60,
            "name": "C4",
            "velocity": 0.6535433070866141,
            "duration": 0.00274122916667352,
            "ticks": 81408,
            "durationTicks": 1
          },
          {
            "time": 223.552721,
            "midi": 62,
            "name": "D4",
            "velocity": 0.6535433070866141,
            "duration": 0.00274122916667352,
            "ticks": 81552,
            "durationTicks": 1
          },
          {
            "time": 223.6843,
            "midi": 60,
            "name": "C4",
            "velocity": 0.6535433070866141,
            "duration": 0.0027412291666450983,
            "ticks": 81600,
            "durationTicks": 1
          },
          {
            "time": 223.947458,
            "midi": 61,
            "name": "C#4",
            "velocity": 0.6535433070866141,
            "duration": 0.0027412291666450983,
            "ticks": 81696,
            "durationTicks": 1
          },
          {
            "time": 224.21061600000002,
            "midi": 60,
            "name": "C4",
            "velocity": 0.6535433070866141,
            "duration": 0.0027412291666450983,
            "ticks": 81792,
            "durationTicks": 1
          },
          {
            "time": 224.605353,
            "midi": 62,
            "name": "D4",
            "velocity": 0.6535433070866141,
            "duration": 0.0027412291666450983,
            "ticks": 81936,
            "durationTicks": 1
          },
          {
            "time": 224.736932,
            "midi": 60,
            "name": "C4",
            "velocity": 0.6535433070866141,
            "duration": 0.00274122916667352,
            "ticks": 81984,
            "durationTicks": 1
          },
          {
            "time": 225.00009,
            "midi": 61,
            "name": "C#4",
            "velocity": 0.6535433070866141,
            "duration": 0.0027412291666450983,
            "ticks": 82080,
            "durationTicks": 1
          },
          {
            "time": 225.263248,
            "midi": 60,
            "name": "C4",
            "velocity": 0.6535433070866141,
            "duration": 0.0027412291666450983,
            "ticks": 82176,
            "durationTicks": 1
          },
          {
            "time": 225.657985,
            "midi": 62,
            "name": "D4",
            "velocity": 0.6535433070866141,
            "duration": 0.00274122916667352,
            "ticks": 82320,
            "durationTicks": 1
          },
          {
            "time": 225.789564,
            "midi": 60,
            "name": "C4",
            "velocity": 0.6535433070866141,
            "duration": 0.0027412291666450983,
            "ticks": 82368,
            "durationTicks": 1
          },
          {
            "time": 226.052722,
            "midi": 61,
            "name": "C#4",
            "velocity": 0.6535433070866141,
            "duration": 0.00274122916667352,
            "ticks": 82464,
            "durationTicks": 1
          },
          {
            "time": 226.31588,
            "midi": 60,
            "name": "C4",
            "velocity": 0.6535433070866141,
            "duration": 0.00274122916667352,
            "ticks": 82560,
            "durationTicks": 1
          },
          {
            "time": 226.710617,
            "midi": 62,
            "name": "D4",
            "velocity": 0.6535433070866141,
            "duration": 0.0027412291666450983,
            "ticks": 82704,
            "durationTicks": 1
          },
          {
            "time": 226.842196,
            "midi": 60,
            "name": "C4",
            "velocity": 0.6535433070866141,
            "duration": 0.0027412291666450983,
            "ticks": 82752,
            "durationTicks": 1
          },
          {
            "time": 227.105354,
            "midi": 61,
            "name": "C#4",
            "velocity": 0.6535433070866141,
            "duration": 0.0027412291666450983,
            "ticks": 82848,
            "durationTicks": 1
          },
          {
            "time": 227.368512,
            "midi": 60,
            "name": "C4",
            "velocity": 0.6535433070866141,
            "duration": 0.0027412291666450983,
            "ticks": 82944,
            "durationTicks": 1
          },
          {
            "time": 227.763249,
            "midi": 62,
            "name": "D4",
            "velocity": 0.6535433070866141,
            "duration": 0.0027412291666450983,
            "ticks": 83088,
            "durationTicks": 1
          },
          {
            "time": 227.894828,
            "midi": 60,
            "name": "C4",
            "velocity": 0.6535433070866141,
            "duration": 0.00274122916667352,
            "ticks": 83136,
            "durationTicks": 1
          },
          {
            "time": 228.157986,
            "midi": 61,
            "name": "C#4",
            "velocity": 0.6535433070866141,
            "duration": 0.00274122916667352,
            "ticks": 83232,
            "durationTicks": 1
          },
          {
            "time": 228.421144,
            "midi": 60,
            "name": "C4",
            "velocity": 0.6535433070866141,
            "duration": 0.00274122916667352,
            "ticks": 83328,
            "durationTicks": 1
          },
          {
            "time": 228.815881,
            "midi": 62,
            "name": "D4",
            "velocity": 0.6535433070866141,
            "duration": 0.00274122916667352,
            "ticks": 83472,
            "durationTicks": 1
          },
          {
            "time": 228.94746,
            "midi": 60,
            "name": "C4",
            "velocity": 0.6535433070866141,
            "duration": 0.0027412291666450983,
            "ticks": 83520,
            "durationTicks": 1
          },
          {
            "time": 229.210618,
            "midi": 61,
            "name": "C#4",
            "velocity": 0.6535433070866141,
            "duration": 0.0027412291666450983,
            "ticks": 83616,
            "durationTicks": 1
          },
          {
            "time": 229.47377600000002,
            "midi": 60,
            "name": "C4",
            "velocity": 0.6535433070866141,
            "duration": 0.0027412291666450983,
            "ticks": 83712,
            "durationTicks": 1
          },
          {
            "time": 229.868513,
            "midi": 62,
            "name": "D4",
            "velocity": 0.6535433070866141,
            "duration": 0.0027412291666450983,
            "ticks": 83856,
            "durationTicks": 1
          },
          {
            "time": 230.000092,
            "midi": 60,
            "name": "C4",
            "velocity": 0.6535433070866141,
            "duration": 0.00274122916667352,
            "ticks": 83904,
            "durationTicks": 1
          },
          {
            "time": 230.26325,
            "midi": 61,
            "name": "C#4",
            "velocity": 0.6535433070866141,
            "duration": 0.00274122916667352,
            "ticks": 84000,
            "durationTicks": 1
          },
          {
            "time": 230.526408,
            "midi": 60,
            "name": "C4",
            "velocity": 0.6535433070866141,
            "duration": 0.0027412291666450983,
            "ticks": 84096,
            "durationTicks": 1
          },
          {
            "time": 230.921145,
            "midi": 62,
            "name": "D4",
            "velocity": 0.6535433070866141,
            "duration": 0.00274122916667352,
            "ticks": 84240,
            "durationTicks": 1
          },
          {
            "time": 231.052724,
            "midi": 60,
            "name": "C4",
            "velocity": 0.6535433070866141,
            "duration": 0.0027412291666450983,
            "ticks": 84288,
            "durationTicks": 1
          },
          {
            "time": 231.31588200000002,
            "midi": 61,
            "name": "C#4",
            "velocity": 0.6535433070866141,
            "duration": 0.0027412291666450983,
            "ticks": 84384,
            "durationTicks": 1
          },
          {
            "time": 231.57904,
            "midi": 60,
            "name": "C4",
            "velocity": 0.6535433070866141,
            "duration": 0.00274122916667352,
            "ticks": 84480,
            "durationTicks": 1
          },
          {
            "time": 231.973777,
            "midi": 62,
            "name": "D4",
            "velocity": 0.6535433070866141,
            "duration": 0.0027412291666450983,
            "ticks": 84624,
            "durationTicks": 1
          },
          {
            "time": 232.105356,
            "midi": 60,
            "name": "C4",
            "velocity": 0.6535433070866141,
            "duration": 0.0027412291666450983,
            "ticks": 84672,
            "durationTicks": 1
          },
          {
            "time": 232.368514,
            "midi": 61,
            "name": "C#4",
            "velocity": 0.6535433070866141,
            "duration": 0.0027412291666450983,
            "ticks": 84768,
            "durationTicks": 1
          },
          {
            "time": 232.631672,
            "midi": 60,
            "name": "C4",
            "velocity": 0.6535433070866141,
            "duration": 0.0027412291666450983,
            "ticks": 84864,
            "durationTicks": 1
          },
          {
            "time": 233.026409,
            "midi": 62,
            "name": "D4",
            "velocity": 0.6535433070866141,
            "duration": 0.0027412291666450983,
            "ticks": 85008,
            "durationTicks": 1
          },
          {
            "time": 233.157988,
            "midi": 60,
            "name": "C4",
            "velocity": 0.6535433070866141,
            "duration": 0.00274122916667352,
            "ticks": 85056,
            "durationTicks": 1
          },
          {
            "time": 233.421146,
            "midi": 61,
            "name": "C#4",
            "velocity": 0.6535433070866141,
            "duration": 0.00274122916667352,
            "ticks": 85152,
            "durationTicks": 1
          },
          {
            "time": 233.684304,
            "midi": 60,
            "name": "C4",
            "velocity": 0.6535433070866141,
            "duration": 0.00274122916667352,
            "ticks": 85248,
            "durationTicks": 1
          },
          {
            "time": 234.079041,
            "midi": 62,
            "name": "D4",
            "velocity": 0.6535433070866141,
            "duration": 0.00274122916667352,
            "ticks": 85392,
            "durationTicks": 1
          },
          {
            "time": 234.21062,
            "midi": 60,
            "name": "C4",
            "velocity": 0.6535433070866141,
            "duration": 0.0027412291666450983,
            "ticks": 85440,
            "durationTicks": 1
          },
          {
            "time": 234.473778,
            "midi": 61,
            "name": "C#4",
            "velocity": 0.6535433070866141,
            "duration": 0.0027412291666450983,
            "ticks": 85536,
            "durationTicks": 1
          },
          {
            "time": 234.73693600000001,
            "midi": 60,
            "name": "C4",
            "velocity": 0.6535433070866141,
            "duration": 0.0027412291666450983,
            "ticks": 85632,
            "durationTicks": 1
          },
          {
            "time": 235.131673,
            "midi": 62,
            "name": "D4",
            "velocity": 0.6535433070866141,
            "duration": 0.0027412291666450983,
            "ticks": 85776,
            "durationTicks": 1
          },
          {
            "time": 235.263252,
            "midi": 60,
            "name": "C4",
            "velocity": 0.6535433070866141,
            "duration": 0.00274122916667352,
            "ticks": 85824,
            "durationTicks": 1
          },
          {
            "time": 235.52641,
            "midi": 61,
            "name": "C#4",
            "velocity": 0.6535433070866141,
            "duration": 0.00274122916667352,
            "ticks": 85920,
            "durationTicks": 1
          },
          {
            "time": 235.789568,
            "midi": 60,
            "name": "C4",
            "velocity": 0.6535433070866141,
            "duration": 0.0027412291666450983,
            "ticks": 86016,
            "durationTicks": 1
          },
          {
            "time": 236.184305,
            "midi": 62,
            "name": "D4",
            "velocity": 0.6535433070866141,
            "duration": 0.00274122916667352,
            "ticks": 86160,
            "durationTicks": 1
          },
          {
            "time": 236.315884,
            "midi": 60,
            "name": "C4",
            "velocity": 0.6535433070866141,
            "duration": 0.0027412291666450983,
            "ticks": 86208,
            "durationTicks": 1
          },
          {
            "time": 236.57904200000002,
            "midi": 61,
            "name": "C#4",
            "velocity": 0.6535433070866141,
            "duration": 0.0027412291666450983,
            "ticks": 86304,
            "durationTicks": 1
          },
          {
            "time": 236.8422,
            "midi": 60,
            "name": "C4",
            "velocity": 0.6535433070866141,
            "duration": 0.00274122916667352,
            "ticks": 86400,
            "durationTicks": 1
          },
          {
            "time": 237.236937,
            "midi": 62,
            "name": "D4",
            "velocity": 0.6535433070866141,
            "duration": 0.0027412291666450983,
            "ticks": 86544,
            "durationTicks": 1
          },
          {
            "time": 237.368516,
            "midi": 60,
            "name": "C4",
            "velocity": 0.6535433070866141,
            "duration": 0.00274122916667352,
            "ticks": 86592,
            "durationTicks": 1
          },
          {
            "time": 237.631674,
            "midi": 61,
            "name": "C#4",
            "velocity": 0.6535433070866141,
            "duration": 0.0027412291666450983,
            "ticks": 86688,
            "durationTicks": 1
          },
          {
            "time": 237.894832,
            "midi": 60,
            "name": "C4",
            "velocity": 0.6535433070866141,
            "duration": 0.0027412291666450983,
            "ticks": 86784,
            "durationTicks": 1
          },
          {
            "time": 238.289569,
            "midi": 62,
            "name": "D4",
            "velocity": 0.6535433070866141,
            "duration": 0.0027412291666450983,
            "ticks": 86928,
            "durationTicks": 1
          },
          {
            "time": 238.42114800000002,
            "midi": 60,
            "name": "C4",
            "velocity": 0.6535433070866141,
            "duration": 0.0027412291666450983,
            "ticks": 86976,
            "durationTicks": 1
          },
          {
            "time": 238.684306,
            "midi": 61,
            "name": "C#4",
            "velocity": 0.6535433070866141,
            "duration": 0.00274122916667352,
            "ticks": 87072,
            "durationTicks": 1
          },
          {
            "time": 238.947464,
            "midi": 60,
            "name": "C4",
            "velocity": 0.6535433070866141,
            "duration": 0.00274122916667352,
            "ticks": 87168,
            "durationTicks": 1
          },
          {
            "time": 239.342201,
            "midi": 62,
            "name": "D4",
            "velocity": 0.6535433070866141,
            "duration": 0.00274122916667352,
            "ticks": 87312,
            "durationTicks": 1
          },
          {
            "time": 239.47378,
            "midi": 60,
            "name": "C4",
            "velocity": 0.6535433070866141,
            "duration": 0.0027412291666450983,
            "ticks": 87360,
            "durationTicks": 1
          },
          {
            "time": 239.736938,
            "midi": 61,
            "name": "C#4",
            "velocity": 0.6535433070866141,
            "duration": 0.0027412291666450983,
            "ticks": 87456,
            "durationTicks": 1
          },
          {
            "time": 240.000096,
            "midi": 60,
            "name": "C4",
            "velocity": 0.6535433070866141,
            "duration": 0.0027412291666450983,
            "ticks": 87552,
            "durationTicks": 1
          },
          {
            "time": 240.394833,
            "midi": 62,
            "name": "D4",
            "velocity": 0.6535433070866141,
            "duration": 0.0027412291666450983,
            "ticks": 87696,
            "durationTicks": 1
          },
          {
            "time": 240.526412,
            "midi": 60,
            "name": "C4",
            "velocity": 0.6535433070866141,
            "duration": 0.00274122916667352,
            "ticks": 87744,
            "durationTicks": 1
          },
          {
            "time": 240.78957,
            "midi": 61,
            "name": "C#4",
            "velocity": 0.6535433070866141,
            "duration": 0.00274122916667352,
            "ticks": 87840,
            "durationTicks": 1
          },
          {
            "time": 241.052728,
            "midi": 60,
            "name": "C4",
            "velocity": 0.6535433070866141,
            "duration": 0.0027412291666450983,
            "ticks": 87936,
            "durationTicks": 1
          },
          {
            "time": 241.447465,
            "midi": 62,
            "name": "D4",
            "velocity": 0.6535433070866141,
            "duration": 0.00274122916667352,
            "ticks": 88080,
            "durationTicks": 1
          },
          {
            "time": 241.579044,
            "midi": 60,
            "name": "C4",
            "velocity": 0.6535433070866141,
            "duration": 0.0027412291666450983,
            "ticks": 88128,
            "durationTicks": 1
          },
          {
            "time": 241.84220200000001,
            "midi": 61,
            "name": "C#4",
            "velocity": 0.6535433070866141,
            "duration": 0.0027412291666450983,
            "ticks": 88224,
            "durationTicks": 1
          }
        ],
        "controlChanges": {
          "123": [
            {
              "number": 123,
              "value": 0,
              "time": 244.20514154166665,
              "ticks": 89086
            }
          ]
        }
      },
      {
        "name": "Electric Piano 2",
        "channel": 0,
        "instrument": {
          "number": 5,
          "name": "electric piano 2",
          "family": "piano"
        },
        "notes": [
          {
            "time": 6.315792,
            "midi": 65,
            "name": "F4",
            "velocity": 0.7874015748031497,
            "duration": 0.7894740000000002,
            "ticks": 2304,
            "durationTicks": 288
          },
          {
            "time": 6.315792,
            "midi": 54,
            "name": "F#3",
            "velocity": 0.7480314960629921,
            "duration": 0.7894740000000002,
            "ticks": 2304,
            "durationTicks": 288
          },
          {
            "time": 6.315792,
            "midi": 58,
            "name": "A#3",
            "velocity": 0.8818897637795275,
            "duration": 0.7894740000000002,
            "ticks": 2304,
            "durationTicks": 288
          },
          {
            "time": 6.315792,
            "midi": 61,
            "name": "C#4",
            "velocity": 0.8818897637795275,
            "duration": 0.7894740000000002,
            "ticks": 2304,
            "durationTicks": 288
          },
          {
            "time": 7.105266,
            "midi": 63,
            "name": "D#4",
            "velocity": 0.9763779527559056,
            "duration": 1.3157899999999998,
            "ticks": 2592,
            "durationTicks": 480
          },
          {
            "time": 7.105266,
            "midi": 60,
            "name": "C4",
            "velocity": 0.7874015748031497,
            "duration": 1.3157899999999998,
            "ticks": 2592,
            "durationTicks": 480
          },
          {
            "time": 7.105266,
            "midi": 56,
            "name": "G#3",
            "velocity": 0.6299212598425197,
            "duration": 1.3157899999999998,
            "ticks": 2592,
            "durationTicks": 480
          },
          {
            "time": 8.421056,
            "midi": 60,
            "name": "C4",
            "velocity": 0.7874015748031497,
            "duration": 0.7894740000000002,
            "ticks": 3072,
            "durationTicks": 288
          },
          {
            "time": 8.421056,
            "midi": 56,
            "name": "G#3",
            "velocity": 0.7480314960629921,
            "duration": 0.7894740000000002,
            "ticks": 3072,
            "durationTicks": 288
          },
          {
            "time": 8.421056,
            "midi": 63,
            "name": "D#4",
            "velocity": 0.8818897637795275,
            "duration": 0.7894740000000002,
            "ticks": 3072,
            "durationTicks": 288
          },
          {
            "time": 9.21053,
            "midi": 65,
            "name": "F4",
            "velocity": 0.7874015748031497,
            "duration": 1.3157899999999998,
            "ticks": 3360,
            "durationTicks": 480
          },
          {
            "time": 9.21053,
            "midi": 58,
            "name": "A#3",
            "velocity": 0.8818897637795275,
            "duration": 1.3157899999999998,
            "ticks": 3360,
            "durationTicks": 480
          },
          {
            "time": 9.21053,
            "midi": 61,
            "name": "C#4",
            "velocity": 0.8818897637795275,
            "duration": 1.3157899999999998,
            "ticks": 3360,
            "durationTicks": 480
          },
          {
            "time": 10.52632,
            "midi": 65,
            "name": "F4",
            "velocity": 0.7874015748031497,
            "duration": 0.7894740000000002,
            "ticks": 3840,
            "durationTicks": 288
          },
          {
            "time": 10.52632,
            "midi": 54,
            "name": "F#3",
            "velocity": 0.7480314960629921,
            "duration": 0.7894740000000002,
            "ticks": 3840,
            "durationTicks": 288
          },
          {
            "time": 10.52632,
            "midi": 58,
            "name": "A#3",
            "velocity": 0.8818897637795275,
            "duration": 0.7894740000000002,
            "ticks": 3840,
            "durationTicks": 288
          },
          {
            "time": 10.52632,
            "midi": 61,
            "name": "C#4",
            "velocity": 0.8818897637795275,
            "duration": 0.7894740000000002,
            "ticks": 3840,
            "durationTicks": 288
          },
          {
            "time": 11.315794,
            "midi": 63,
            "name": "D#4",
            "velocity": 0.9763779527559056,
            "duration": 1.3157899999999998,
            "ticks": 4128,
            "durationTicks": 480
          },
          {
            "time": 11.315794,
            "midi": 60,
            "name": "C4",
            "velocity": 0.7874015748031497,
            "duration": 1.3157899999999998,
            "ticks": 4128,
            "durationTicks": 480
          },
          {
            "time": 11.315794,
            "midi": 56,
            "name": "G#3",
            "velocity": 0.6299212598425197,
            "duration": 1.3157899999999998,
            "ticks": 4128,
            "durationTicks": 480
          },
          {
            "time": 12.631584,
            "midi": 60,
            "name": "C4",
            "velocity": 0.7874015748031497,
            "duration": 0.7894740000000002,
            "ticks": 4608,
            "durationTicks": 288
          },
          {
            "time": 12.631584,
            "midi": 56,
            "name": "G#3",
            "velocity": 0.7480314960629921,
            "duration": 0.7894740000000002,
            "ticks": 4608,
            "durationTicks": 288
          },
          {
            "time": 12.631584,
            "midi": 63,
            "name": "D#4",
            "velocity": 0.8818897637795275,
            "duration": 0.7894740000000002,
            "ticks": 4608,
            "durationTicks": 288
          },
          {
            "time": 13.421058,
            "midi": 65,
            "name": "F4",
            "velocity": 0.7874015748031497,
            "duration": 1.3157899999999998,
            "ticks": 4896,
            "durationTicks": 480
          },
          {
            "time": 13.421058,
            "midi": 58,
            "name": "A#3",
            "velocity": 0.8818897637795275,
            "duration": 1.3157899999999998,
            "ticks": 4896,
            "durationTicks": 480
          },
          {
            "time": 13.421058,
            "midi": 61,
            "name": "C#4",
            "velocity": 0.8818897637795275,
            "duration": 1.3157899999999998,
            "ticks": 4896,
            "durationTicks": 480
          },
          {
            "time": 14.736848,
            "midi": 65,
            "name": "F4",
            "velocity": 0.7874015748031497,
            "duration": 0.7894740000000002,
            "ticks": 5376,
            "durationTicks": 288
          },
          {
            "time": 14.736848,
            "midi": 54,
            "name": "F#3",
            "velocity": 0.7480314960629921,
            "duration": 0.7894740000000002,
            "ticks": 5376,
            "durationTicks": 288
          },
          {
            "time": 14.736848,
            "midi": 58,
            "name": "A#3",
            "velocity": 0.8818897637795275,
            "duration": 0.7894740000000002,
            "ticks": 5376,
            "durationTicks": 288
          },
          {
            "time": 14.736848,
            "midi": 61,
            "name": "C#4",
            "velocity": 0.8818897637795275,
            "duration": 0.7894740000000002,
            "ticks": 5376,
            "durationTicks": 288
          },
          {
            "time": 15.526322,
            "midi": 63,
            "name": "D#4",
            "velocity": 0.9763779527559056,
            "duration": 1.3157899999999998,
            "ticks": 5664,
            "durationTicks": 480
          },
          {
            "time": 15.526322,
            "midi": 60,
            "name": "C4",
            "velocity": 0.7874015748031497,
            "duration": 1.3157899999999998,
            "ticks": 5664,
            "durationTicks": 480
          },
          {
            "time": 15.526322,
            "midi": 56,
            "name": "G#3",
            "velocity": 0.6299212598425197,
            "duration": 1.3157899999999998,
            "ticks": 5664,
            "durationTicks": 480
          },
          {
            "time": 16.842112,
            "midi": 60,
            "name": "C4",
            "velocity": 0.7874015748031497,
            "duration": 0.7894739999999985,
            "ticks": 6144,
            "durationTicks": 288
          },
          {
            "time": 16.842112,
            "midi": 56,
            "name": "G#3",
            "velocity": 0.7480314960629921,
            "duration": 0.7894739999999985,
            "ticks": 6144,
            "durationTicks": 288
          },
          {
            "time": 16.842112,
            "midi": 63,
            "name": "D#4",
            "velocity": 0.8818897637795275,
            "duration": 0.7894739999999985,
            "ticks": 6144,
            "durationTicks": 288
          },
          {
            "time": 17.631586,
            "midi": 65,
            "name": "F4",
            "velocity": 0.7874015748031497,
            "duration": 1.3157899999999998,
            "ticks": 6432,
            "durationTicks": 480
          },
          {
            "time": 17.631586,
            "midi": 58,
            "name": "A#3",
            "velocity": 0.8818897637795275,
            "duration": 1.3157899999999998,
            "ticks": 6432,
            "durationTicks": 480
          },
          {
            "time": 17.631586,
            "midi": 61,
            "name": "C#4",
            "velocity": 0.8818897637795275,
            "duration": 1.3157899999999998,
            "ticks": 6432,
            "durationTicks": 480
          },
          {
            "time": 18.947376,
            "midi": 61,
            "name": "C#4",
            "velocity": 1,
            "duration": 0.825109979166669,
            "ticks": 6912,
            "durationTicks": 301
          },
          {
            "time": 18.947376,
            "midi": 58,
            "name": "A#3",
            "velocity": 1,
            "duration": 0.6853072916666711,
            "ticks": 6912,
            "durationTicks": 250
          },
          {
            "time": 18.947376,
            "midi": 54,
            "name": "F#3",
            "velocity": 1,
            "duration": 0.7017546666666696,
            "ticks": 6912,
            "durationTicks": 256
          },
          {
            "time": 19.73685,
            "midi": 56,
            "name": "G#3",
            "velocity": 1,
            "duration": 1.3157899999999998,
            "ticks": 7200,
            "durationTicks": 480
          },
          {
            "time": 19.73685,
            "midi": 63,
            "name": "D#4",
            "velocity": 1,
            "duration": 1.3157899999999998,
            "ticks": 7200,
            "durationTicks": 480
          },
          {
            "time": 19.73685,
            "midi": 60,
            "name": "C4",
            "velocity": 1,
            "duration": 1.3157899999999998,
            "ticks": 7200,
            "durationTicks": 480
          },
          {
            "time": 21.05264,
            "midi": 56,
            "name": "G#3",
            "velocity": 1,
            "duration": 0.5263160000000013,
            "ticks": 7680,
            "durationTicks": 192
          },
          {
            "time": 21.05264,
            "midi": 63,
            "name": "D#4",
            "velocity": 1,
            "duration": 0.5263160000000013,
            "ticks": 7680,
            "durationTicks": 192
          },
          {
            "time": 21.05264,
            "midi": 60,
            "name": "C4",
            "velocity": 1,
            "duration": 0.5263160000000013,
            "ticks": 7680,
            "durationTicks": 192
          },
          {
            "time": 21.578956,
            "midi": 65,
            "name": "F4",
            "velocity": 1,
            "duration": 1.5789480000000005,
            "ticks": 7872,
            "durationTicks": 576
          },
          {
            "time": 21.578956,
            "midi": 61,
            "name": "C#4",
            "velocity": 1,
            "duration": 1.5789480000000005,
            "ticks": 7872,
            "durationTicks": 576
          },
          {
            "time": 21.578956,
            "midi": 56,
            "name": "G#3",
            "velocity": 1,
            "duration": 1.5789480000000005,
            "ticks": 7872,
            "durationTicks": 576
          },
          {
            "time": 23.157904000000002,
            "midi": 65,
            "name": "F4",
            "velocity": 0.8818897637795275,
            "duration": 2.1052639999999982,
            "ticks": 8448,
            "durationTicks": 768
          },
          {
            "time": 23.157904000000002,
            "midi": 54,
            "name": "F#3",
            "velocity": 0.9133858267716536,
            "duration": 2.1052639999999982,
            "ticks": 8448,
            "durationTicks": 768
          },
          {
            "time": 23.157904000000002,
            "midi": 58,
            "name": "A#3",
            "velocity": 0.9133858267716536,
            "duration": 2.1052639999999982,
            "ticks": 8448,
            "durationTicks": 768
          },
          {
            "time": 23.157904000000002,
            "midi": 61,
            "name": "C#4",
            "velocity": 0.9133858267716536,
            "duration": 2.1052639999999982,
            "ticks": 8448,
            "durationTicks": 768
          },
          {
            "time": 25.263168,
            "midi": 63,
            "name": "D#4",
            "velocity": 0.9133858267716536,
            "duration": 2.1052639999999982,
            "ticks": 9216,
            "durationTicks": 768
          },
          {
            "time": 25.263168,
            "midi": 60,
            "name": "C4",
            "velocity": 0.8818897637795275,
            "duration": 2.1052639999999982,
            "ticks": 9216,
            "durationTicks": 768
          },
          {
            "time": 25.263168,
            "midi": 58,
            "name": "A#3",
            "velocity": 0.9133858267716536,
            "duration": 2.1052639999999982,
            "ticks": 9216,
            "durationTicks": 768
          },
          {
            "time": 25.263168,
            "midi": 56,
            "name": "G#3",
            "velocity": 0.7874015748031497,
            "duration": 2.1052639999999982,
            "ticks": 9216,
            "durationTicks": 768
          },
          {
            "time": 27.368432,
            "midi": 65,
            "name": "F4",
            "velocity": 0.7480314960629921,
            "duration": 2.105264000000002,
            "ticks": 9984,
            "durationTicks": 768
          },
          {
            "time": 27.368432,
            "midi": 61,
            "name": "C#4",
            "velocity": 0.9133858267716536,
            "duration": 2.105264000000002,
            "ticks": 9984,
            "durationTicks": 768
          },
          {
            "time": 27.368432,
            "midi": 58,
            "name": "A#3",
            "velocity": 0.9133858267716536,
            "duration": 2.105264000000002,
            "ticks": 9984,
            "durationTicks": 768
          },
          {
            "time": 27.368432,
            "midi": 54,
            "name": "F#3",
            "velocity": 0.7874015748031497,
            "duration": 2.105264000000002,
            "ticks": 9984,
            "durationTicks": 768
          },
          {
            "time": 29.473696,
            "midi": 65,
            "name": "F4",
            "velocity": 0.7480314960629921,
            "duration": 0.7894739999999985,
            "ticks": 10752,
            "durationTicks": 288
          },
          {
            "time": 29.473696,
            "midi": 58,
            "name": "A#3",
            "velocity": 0.9133858267716536,
            "duration": 0.7894739999999985,
            "ticks": 10752,
            "durationTicks": 288
          },
          {
            "time": 29.473696,
            "midi": 54,
            "name": "F#3",
            "velocity": 0.7874015748031497,
            "duration": 0.7894739999999985,
            "ticks": 10752,
            "durationTicks": 288
          },
          {
            "time": 29.473696,
            "midi": 61,
            "name": "C#4",
            "velocity": 0.7874015748031497,
            "duration": 0.7894739999999985,
            "ticks": 10752,
            "durationTicks": 288
          },
          {
            "time": 30.26317,
            "midi": 60,
            "name": "C4",
            "velocity": 0.9763779527559056,
            "duration": 1.3157900000000033,
            "ticks": 11040,
            "durationTicks": 480
          },
          {
            "time": 30.26317,
            "midi": 63,
            "name": "D#4",
            "velocity": 0.9133858267716536,
            "duration": 1.3157900000000033,
            "ticks": 11040,
            "durationTicks": 480
          },
          {
            "time": 30.26317,
            "midi": 56,
            "name": "G#3",
            "velocity": 0.9133858267716536,
            "duration": 1.3157900000000033,
            "ticks": 11040,
            "durationTicks": 480
          },
          {
            "time": 30.26317,
            "midi": 58,
            "name": "A#3",
            "velocity": 0.7874015748031497,
            "duration": 1.3157900000000033,
            "ticks": 11040,
            "durationTicks": 480
          },
          {
            "time": 31.578960000000002,
            "midi": 61,
            "name": "C#4",
            "velocity": 0.9133858267716536,
            "duration": 2.1052639999999982,
            "ticks": 11520,
            "durationTicks": 768
          },
          {
            "time": 31.578960000000002,
            "midi": 58,
            "name": "A#3",
            "velocity": 0.9133858267716536,
            "duration": 2.1052639999999982,
            "ticks": 11520,
            "durationTicks": 768
          },
          {
            "time": 31.578960000000002,
            "midi": 65,
            "name": "F4",
            "velocity": 0.8818897637795275,
            "duration": 2.1052639999999982,
            "ticks": 11520,
            "durationTicks": 768
          },
          {
            "time": 31.578960000000002,
            "midi": 54,
            "name": "F#3",
            "velocity": 0.9133858267716536,
            "duration": 2.1052639999999982,
            "ticks": 11520,
            "durationTicks": 768
          },
          {
            "time": 33.684224,
            "midi": 60,
            "name": "C4",
            "velocity": 0.9763779527559056,
            "duration": 2.1052639999999982,
            "ticks": 12288,
            "durationTicks": 768
          },
          {
            "time": 33.684224,
            "midi": 63,
            "name": "D#4",
            "velocity": 0.9133858267716536,
            "duration": 2.1052639999999982,
            "ticks": 12288,
            "durationTicks": 768
          },
          {
            "time": 33.684224,
            "midi": 58,
            "name": "A#3",
            "velocity": 0.7874015748031497,
            "duration": 2.1052639999999982,
            "ticks": 12288,
            "durationTicks": 768
          },
          {
            "time": 33.684224,
            "midi": 56,
            "name": "G#3",
            "velocity": 0.9133858267716536,
            "duration": 2.1052639999999982,
            "ticks": 12288,
            "durationTicks": 768
          },
          {
            "time": 35.789488,
            "midi": 61,
            "name": "C#4",
            "velocity": 1,
            "duration": 2.1052639999999982,
            "ticks": 13056,
            "durationTicks": 768
          },
          {
            "time": 35.789488,
            "midi": 58,
            "name": "A#3",
            "velocity": 0.9133858267716536,
            "duration": 2.1052639999999982,
            "ticks": 13056,
            "durationTicks": 768
          },
          {
            "time": 35.789488,
            "midi": 54,
            "name": "F#3",
            "velocity": 0.9133858267716536,
            "duration": 2.1052639999999982,
            "ticks": 13056,
            "durationTicks": 768
          },
          {
            "time": 35.789488,
            "midi": 65,
            "name": "F4",
            "velocity": 0.7480314960629921,
            "duration": 2.1052639999999982,
            "ticks": 13056,
            "durationTicks": 768
          },
          {
            "time": 37.894752,
            "midi": 65,
            "name": "F4",
            "velocity": 0.8818897637795275,
            "duration": 0.7894740000000056,
            "ticks": 13824,
            "durationTicks": 288
          },
          {
            "time": 37.894752,
            "midi": 58,
            "name": "A#3",
            "velocity": 0.9133858267716536,
            "duration": 0.7894740000000056,
            "ticks": 13824,
            "durationTicks": 288
          },
          {
            "time": 37.894752,
            "midi": 54,
            "name": "F#3",
            "velocity": 0.7874015748031497,
            "duration": 0.7894740000000056,
            "ticks": 13824,
            "durationTicks": 288
          },
          {
            "time": 37.894752,
            "midi": 61,
            "name": "C#4",
            "velocity": 0.9133858267716536,
            "duration": 0.7894740000000056,
            "ticks": 13824,
            "durationTicks": 288
          },
          {
            "time": 38.684226,
            "midi": 60,
            "name": "C4",
            "velocity": 0.9763779527559056,
            "duration": 1.3157899999999998,
            "ticks": 14112,
            "durationTicks": 480
          },
          {
            "time": 38.684226,
            "midi": 63,
            "name": "D#4",
            "velocity": 0.9133858267716536,
            "duration": 1.3157899999999998,
            "ticks": 14112,
            "durationTicks": 480
          },
          {
            "time": 38.684226,
            "midi": 56,
            "name": "G#3",
            "velocity": 0.9133858267716536,
            "duration": 1.3157899999999998,
            "ticks": 14112,
            "durationTicks": 480
          },
          {
            "time": 38.684226,
            "midi": 58,
            "name": "A#3",
            "velocity": 0.9133858267716536,
            "duration": 1.3157899999999998,
            "ticks": 14112,
            "durationTicks": 480
          },
          {
            "time": 40.000016,
            "midi": 54,
            "name": "F#3",
            "velocity": 0.8818897637795275,
            "duration": 1.8421060000000011,
            "ticks": 14592,
            "durationTicks": 672
          },
          {
            "time": 40.000016,
            "midi": 61,
            "name": "C#4",
            "velocity": 0.8818897637795275,
            "duration": 1.8421060000000011,
            "ticks": 14592,
            "durationTicks": 672
          },
          {
            "time": 40.000016,
            "midi": 58,
            "name": "A#3",
            "velocity": 0.9763779527559056,
            "duration": 1.8421060000000011,
            "ticks": 14592,
            "durationTicks": 672
          },
          {
            "time": 41.842122,
            "midi": 63,
            "name": "D#4",
            "velocity": 0.8818897637795275,
            "duration": 2.3684219999999954,
            "ticks": 15264,
            "durationTicks": 864
          },
          {
            "time": 41.842122,
            "midi": 60,
            "name": "C4",
            "velocity": 0.9133858267716536,
            "duration": 2.3684219999999954,
            "ticks": 15264,
            "durationTicks": 864
          },
          {
            "time": 41.842122,
            "midi": 56,
            "name": "G#3",
            "velocity": 0.8818897637795275,
            "duration": 2.3684219999999954,
            "ticks": 15264,
            "durationTicks": 864
          },
          {
            "time": 41.842122,
            "midi": 53,
            "name": "F3",
            "velocity": 0.9133858267716536,
            "duration": 2.3684219999999954,
            "ticks": 15264,
            "durationTicks": 864
          },
          {
            "time": 44.210544,
            "midi": 58,
            "name": "A#3",
            "velocity": 0.9763779527559056,
            "duration": 2.1052640000000054,
            "ticks": 16128,
            "durationTicks": 768
          },
          {
            "time": 44.210544,
            "midi": 61,
            "name": "C#4",
            "velocity": 0.9763779527559056,
            "duration": 2.1052640000000054,
            "ticks": 16128,
            "durationTicks": 768
          },
          {
            "time": 44.210544,
            "midi": 54,
            "name": "F#3",
            "velocity": 0.8818897637795275,
            "duration": 2.1052640000000054,
            "ticks": 16128,
            "durationTicks": 768
          },
          {
            "time": 46.315808000000004,
            "midi": 65,
            "name": "F4",
            "velocity": 0.9133858267716536,
            "duration": 0.7894739999999985,
            "ticks": 16896,
            "durationTicks": 288
          },
          {
            "time": 46.315808000000004,
            "midi": 61,
            "name": "C#4",
            "velocity": 0.9763779527559056,
            "duration": 0.7894739999999985,
            "ticks": 16896,
            "durationTicks": 288
          },
          {
            "time": 46.315808000000004,
            "midi": 58,
            "name": "A#3",
            "velocity": 0.9763779527559056,
            "duration": 0.7894739999999985,
            "ticks": 16896,
            "durationTicks": 288
          },
          {
            "time": 46.315808000000004,
            "midi": 54,
            "name": "F#3",
            "velocity": 0.9763779527559056,
            "duration": 0.7894739999999985,
            "ticks": 16896,
            "durationTicks": 288
          },
          {
            "time": 47.105282,
            "midi": 56,
            "name": "G#3",
            "velocity": 0.9763779527559056,
            "duration": 1.3157899999999998,
            "ticks": 17184,
            "durationTicks": 480
          },
          {
            "time": 47.105282,
            "midi": 63,
            "name": "D#4",
            "velocity": 0.8818897637795275,
            "duration": 1.3157899999999998,
            "ticks": 17184,
            "durationTicks": 480
          },
          {
            "time": 47.105282,
            "midi": 53,
            "name": "F3",
            "velocity": 0.9133858267716536,
            "duration": 1.3157899999999998,
            "ticks": 17184,
            "durationTicks": 480
          },
          {
            "time": 47.105282,
            "midi": 60,
            "name": "C4",
            "velocity": 0.9133858267716536,
            "duration": 1.3157899999999998,
            "ticks": 17184,
            "durationTicks": 480
          },
          {
            "time": 48.421072,
            "midi": 65,
            "name": "F4",
            "velocity": 0.7874015748031497,
            "duration": 0.7894739999999985,
            "ticks": 17664,
            "durationTicks": 288
          },
          {
            "time": 48.421072,
            "midi": 54,
            "name": "F#3",
            "velocity": 0.7480314960629921,
            "duration": 0.7894739999999985,
            "ticks": 17664,
            "durationTicks": 288
          },
          {
            "time": 48.421072,
            "midi": 58,
            "name": "A#3",
            "velocity": 0.8818897637795275,
            "duration": 0.7894739999999985,
            "ticks": 17664,
            "durationTicks": 288
          },
          {
            "time": 48.421072,
            "midi": 61,
            "name": "C#4",
            "velocity": 0.8818897637795275,
            "duration": 0.7894739999999985,
            "ticks": 17664,
            "durationTicks": 288
          },
          {
            "time": 49.210546,
            "midi": 63,
            "name": "D#4",
            "velocity": 0.9763779527559056,
            "duration": 1.3157899999999998,
            "ticks": 17952,
            "durationTicks": 480
          },
          {
            "time": 49.210546,
            "midi": 60,
            "name": "C4",
            "velocity": 0.7874015748031497,
            "duration": 1.3157899999999998,
            "ticks": 17952,
            "durationTicks": 480
          },
          {
            "time": 49.210546,
            "midi": 56,
            "name": "G#3",
            "velocity": 0.6299212598425197,
            "duration": 1.3157899999999998,
            "ticks": 17952,
            "durationTicks": 480
          },
          {
            "time": 50.526336,
            "midi": 60,
            "name": "C4",
            "velocity": 0.7874015748031497,
            "duration": 0.7894739999999985,
            "ticks": 18432,
            "durationTicks": 288
          },
          {
            "time": 50.526336,
            "midi": 56,
            "name": "G#3",
            "velocity": 0.7480314960629921,
            "duration": 0.7894739999999985,
            "ticks": 18432,
            "durationTicks": 288
          },
          {
            "time": 50.526336,
            "midi": 63,
            "name": "D#4",
            "velocity": 0.8818897637795275,
            "duration": 0.7894739999999985,
            "ticks": 18432,
            "durationTicks": 288
          },
          {
            "time": 51.31581,
            "midi": 65,
            "name": "F4",
            "velocity": 0.7874015748031497,
            "duration": 1.3157899999999998,
            "ticks": 18720,
            "durationTicks": 480
          },
          {
            "time": 51.31581,
            "midi": 58,
            "name": "A#3",
            "velocity": 0.8818897637795275,
            "duration": 1.3157899999999998,
            "ticks": 18720,
            "durationTicks": 480
          },
          {
            "time": 51.31581,
            "midi": 61,
            "name": "C#4",
            "velocity": 0.8818897637795275,
            "duration": 1.3157899999999998,
            "ticks": 18720,
            "durationTicks": 480
          },
          {
            "time": 52.6316,
            "midi": 65,
            "name": "F4",
            "velocity": 0.7874015748031497,
            "duration": 0.7894739999999985,
            "ticks": 19200,
            "durationTicks": 288
          },
          {
            "time": 52.6316,
            "midi": 54,
            "name": "F#3",
            "velocity": 0.7480314960629921,
            "duration": 0.7894739999999985,
            "ticks": 19200,
            "durationTicks": 288
          },
          {
            "time": 52.6316,
            "midi": 58,
            "name": "A#3",
            "velocity": 0.8818897637795275,
            "duration": 0.7894739999999985,
            "ticks": 19200,
            "durationTicks": 288
          },
          {
            "time": 52.6316,
            "midi": 61,
            "name": "C#4",
            "velocity": 0.8818897637795275,
            "duration": 0.7894739999999985,
            "ticks": 19200,
            "durationTicks": 288
          },
          {
            "time": 53.421074,
            "midi": 63,
            "name": "D#4",
            "velocity": 0.9763779527559056,
            "duration": 1.3157899999999998,
            "ticks": 19488,
            "durationTicks": 480
          },
          {
            "time": 53.421074,
            "midi": 60,
            "name": "C4",
            "velocity": 0.7874015748031497,
            "duration": 1.3157899999999998,
            "ticks": 19488,
            "durationTicks": 480
          },
          {
            "time": 53.421074,
            "midi": 56,
            "name": "G#3",
            "velocity": 0.6299212598425197,
            "duration": 1.3157899999999998,
            "ticks": 19488,
            "durationTicks": 480
          },
          {
            "time": 54.736864,
            "midi": 60,
            "name": "C4",
            "velocity": 0.7874015748031497,
            "duration": 0.7894740000000056,
            "ticks": 19968,
            "durationTicks": 288
          },
          {
            "time": 54.736864,
            "midi": 56,
            "name": "G#3",
            "velocity": 0.7480314960629921,
            "duration": 0.7894740000000056,
            "ticks": 19968,
            "durationTicks": 288
          },
          {
            "time": 54.736864,
            "midi": 63,
            "name": "D#4",
            "velocity": 0.8818897637795275,
            "duration": 0.7894740000000056,
            "ticks": 19968,
            "durationTicks": 288
          },
          {
            "time": 55.526338,
            "midi": 65,
            "name": "F4",
            "velocity": 0.7874015748031497,
            "duration": 1.3157899999999998,
            "ticks": 20256,
            "durationTicks": 480
          },
          {
            "time": 55.526338,
            "midi": 58,
            "name": "A#3",
            "velocity": 0.8818897637795275,
            "duration": 1.3157899999999998,
            "ticks": 20256,
            "durationTicks": 480
          },
          {
            "time": 55.526338,
            "midi": 61,
            "name": "C#4",
            "velocity": 0.8818897637795275,
            "duration": 1.3157899999999998,
            "ticks": 20256,
            "durationTicks": 480
          },
          {
            "time": 56.842128,
            "midi": 65,
            "name": "F4",
            "velocity": 0.7874015748031497,
            "duration": 0.7894739999999985,
            "ticks": 20736,
            "durationTicks": 288
          },
          {
            "time": 56.842128,
            "midi": 54,
            "name": "F#3",
            "velocity": 0.7480314960629921,
            "duration": 0.7894739999999985,
            "ticks": 20736,
            "durationTicks": 288
          },
          {
            "time": 56.842128,
            "midi": 58,
            "name": "A#3",
            "velocity": 0.8818897637795275,
            "duration": 0.7894739999999985,
            "ticks": 20736,
            "durationTicks": 288
          },
          {
            "time": 56.842128,
            "midi": 61,
            "name": "C#4",
            "velocity": 0.8818897637795275,
            "duration": 0.7894739999999985,
            "ticks": 20736,
            "durationTicks": 288
          },
          {
            "time": 57.631602,
            "midi": 63,
            "name": "D#4",
            "velocity": 0.9763779527559056,
            "duration": 1.3157899999999998,
            "ticks": 21024,
            "durationTicks": 480
          },
          {
            "time": 57.631602,
            "midi": 60,
            "name": "C4",
            "velocity": 0.7874015748031497,
            "duration": 1.3157899999999998,
            "ticks": 21024,
            "durationTicks": 480
          },
          {
            "time": 57.631602,
            "midi": 56,
            "name": "G#3",
            "velocity": 0.6299212598425197,
            "duration": 1.3157899999999998,
            "ticks": 21024,
            "durationTicks": 480
          },
          {
            "time": 58.947392,
            "midi": 60,
            "name": "C4",
            "velocity": 0.7874015748031497,
            "duration": 0.7894739999999985,
            "ticks": 21504,
            "durationTicks": 288
          },
          {
            "time": 58.947392,
            "midi": 56,
            "name": "G#3",
            "velocity": 0.7480314960629921,
            "duration": 0.7894739999999985,
            "ticks": 21504,
            "durationTicks": 288
          },
          {
            "time": 58.947392,
            "midi": 63,
            "name": "D#4",
            "velocity": 0.8818897637795275,
            "duration": 0.7894739999999985,
            "ticks": 21504,
            "durationTicks": 288
          },
          {
            "time": 59.736866,
            "midi": 65,
            "name": "F4",
            "velocity": 0.7874015748031497,
            "duration": 1.3157899999999998,
            "ticks": 21792,
            "durationTicks": 480
          },
          {
            "time": 59.736866,
            "midi": 58,
            "name": "A#3",
            "velocity": 0.8818897637795275,
            "duration": 1.3157899999999998,
            "ticks": 21792,
            "durationTicks": 480
          },
          {
            "time": 59.736866,
            "midi": 61,
            "name": "C#4",
            "velocity": 0.8818897637795275,
            "duration": 1.3157899999999998,
            "ticks": 21792,
            "durationTicks": 480
          },
          {
            "time": 61.052656,
            "midi": 61,
            "name": "C#4",
            "velocity": 1,
            "duration": 0.825109979166669,
            "ticks": 22272,
            "durationTicks": 301
          },
          {
            "time": 61.052656,
            "midi": 58,
            "name": "A#3",
            "velocity": 1,
            "duration": 0.6853072916666676,
            "ticks": 22272,
            "durationTicks": 250
          },
          {
            "time": 61.052656,
            "midi": 54,
            "name": "F#3",
            "velocity": 1,
            "duration": 0.7017546666666661,
            "ticks": 22272,
            "durationTicks": 256
          },
          {
            "time": 61.84213,
            "midi": 56,
            "name": "G#3",
            "velocity": 1,
            "duration": 1.315790000000007,
            "ticks": 22560,
            "durationTicks": 480
          },
          {
            "time": 61.84213,
            "midi": 63,
            "name": "D#4",
            "velocity": 1,
            "duration": 1.315790000000007,
            "ticks": 22560,
            "durationTicks": 480
          },
          {
            "time": 61.84213,
            "midi": 60,
            "name": "C4",
            "velocity": 1,
            "duration": 1.315790000000007,
            "ticks": 22560,
            "durationTicks": 480
          },
          {
            "time": 63.157920000000004,
            "midi": 56,
            "name": "G#3",
            "velocity": 1,
            "duration": 0.5263159999999942,
            "ticks": 23040,
            "durationTicks": 192
          },
          {
            "time": 63.157920000000004,
            "midi": 63,
            "name": "D#4",
            "velocity": 1,
            "duration": 0.5263159999999942,
            "ticks": 23040,
            "durationTicks": 192
          },
          {
            "time": 63.157920000000004,
            "midi": 60,
            "name": "C4",
            "velocity": 1,
            "duration": 0.5263159999999942,
            "ticks": 23040,
            "durationTicks": 192
          },
          {
            "time": 63.684236,
            "midi": 65,
            "name": "F4",
            "velocity": 1,
            "duration": 1.578947999999997,
            "ticks": 23232,
            "durationTicks": 576
          },
          {
            "time": 63.684236,
            "midi": 61,
            "name": "C#4",
            "velocity": 1,
            "duration": 1.578947999999997,
            "ticks": 23232,
            "durationTicks": 576
          },
          {
            "time": 63.684236,
            "midi": 56,
            "name": "G#3",
            "velocity": 1,
            "duration": 1.578947999999997,
            "ticks": 23232,
            "durationTicks": 576
          },
          {
            "time": 65.263184,
            "midi": 65,
            "name": "F4",
            "velocity": 0.8818897637795275,
            "duration": 2.1052640000000054,
            "ticks": 23808,
            "durationTicks": 768
          },
          {
            "time": 65.263184,
            "midi": 54,
            "name": "F#3",
            "velocity": 0.9133858267716536,
            "duration": 2.1052640000000054,
            "ticks": 23808,
            "durationTicks": 768
          },
          {
            "time": 65.263184,
            "midi": 58,
            "name": "A#3",
            "velocity": 0.9133858267716536,
            "duration": 2.1052640000000054,
            "ticks": 23808,
            "durationTicks": 768
          },
          {
            "time": 65.263184,
            "midi": 61,
            "name": "C#4",
            "velocity": 0.9133858267716536,
            "duration": 2.1052640000000054,
            "ticks": 23808,
            "durationTicks": 768
          },
          {
            "time": 67.368448,
            "midi": 63,
            "name": "D#4",
            "velocity": 0.9133858267716536,
            "duration": 2.1052640000000054,
            "ticks": 24576,
            "durationTicks": 768
          },
          {
            "time": 67.368448,
            "midi": 60,
            "name": "C4",
            "velocity": 0.8818897637795275,
            "duration": 2.1052640000000054,
            "ticks": 24576,
            "durationTicks": 768
          },
          {
            "time": 67.368448,
            "midi": 58,
            "name": "A#3",
            "velocity": 0.9133858267716536,
            "duration": 2.1052640000000054,
            "ticks": 24576,
            "durationTicks": 768
          },
          {
            "time": 67.368448,
            "midi": 56,
            "name": "G#3",
            "velocity": 0.7874015748031497,
            "duration": 2.1052640000000054,
            "ticks": 24576,
            "durationTicks": 768
          },
          {
            "time": 69.473712,
            "midi": 65,
            "name": "F4",
            "velocity": 0.7480314960629921,
            "duration": 2.105263999999991,
            "ticks": 25344,
            "durationTicks": 768
          },
          {
            "time": 69.473712,
            "midi": 61,
            "name": "C#4",
            "velocity": 0.9133858267716536,
            "duration": 2.105263999999991,
            "ticks": 25344,
            "durationTicks": 768
          },
          {
            "time": 69.473712,
            "midi": 58,
            "name": "A#3",
            "velocity": 0.9133858267716536,
            "duration": 2.105263999999991,
            "ticks": 25344,
            "durationTicks": 768
          },
          {
            "time": 69.473712,
            "midi": 54,
            "name": "F#3",
            "velocity": 0.7874015748031497,
            "duration": 2.105263999999991,
            "ticks": 25344,
            "durationTicks": 768
          },
          {
            "time": 71.578976,
            "midi": 65,
            "name": "F4",
            "velocity": 0.7480314960629921,
            "duration": 0.7894739999999985,
            "ticks": 26112,
            "durationTicks": 288
          },
          {
            "time": 71.578976,
            "midi": 58,
            "name": "A#3",
            "velocity": 0.9133858267716536,
            "duration": 0.7894739999999985,
            "ticks": 26112,
            "durationTicks": 288
          },
          {
            "time": 71.578976,
            "midi": 54,
            "name": "F#3",
            "velocity": 0.7874015748031497,
            "duration": 0.7894739999999985,
            "ticks": 26112,
            "durationTicks": 288
          },
          {
            "time": 71.578976,
            "midi": 61,
            "name": "C#4",
            "velocity": 0.7874015748031497,
            "duration": 0.7894739999999985,
            "ticks": 26112,
            "durationTicks": 288
          },
          {
            "time": 72.36845,
            "midi": 60,
            "name": "C4",
            "velocity": 0.9763779527559056,
            "duration": 1.315790000000007,
            "ticks": 26400,
            "durationTicks": 480
          },
          {
            "time": 72.36845,
            "midi": 63,
            "name": "D#4",
            "velocity": 0.9133858267716536,
            "duration": 1.315790000000007,
            "ticks": 26400,
            "durationTicks": 480
          },
          {
            "time": 72.36845,
            "midi": 56,
            "name": "G#3",
            "velocity": 0.9133858267716536,
            "duration": 1.315790000000007,
            "ticks": 26400,
            "durationTicks": 480
          },
          {
            "time": 72.36845,
            "midi": 58,
            "name": "A#3",
            "velocity": 0.7874015748031497,
            "duration": 1.315790000000007,
            "ticks": 26400,
            "durationTicks": 480
          },
          {
            "time": 73.68424,
            "midi": 61,
            "name": "C#4",
            "velocity": 0.9133858267716536,
            "duration": 2.105263999999991,
            "ticks": 26880,
            "durationTicks": 768
          },
          {
            "time": 73.68424,
            "midi": 58,
            "name": "A#3",
            "velocity": 0.9133858267716536,
            "duration": 2.105263999999991,
            "ticks": 26880,
            "durationTicks": 768
          },
          {
            "time": 73.68424,
            "midi": 65,
            "name": "F4",
            "velocity": 0.8818897637795275,
            "duration": 2.105263999999991,
            "ticks": 26880,
            "durationTicks": 768
          },
          {
            "time": 73.68424,
            "midi": 54,
            "name": "F#3",
            "velocity": 0.9133858267716536,
            "duration": 2.105263999999991,
            "ticks": 26880,
            "durationTicks": 768
          },
          {
            "time": 75.789504,
            "midi": 60,
            "name": "C4",
            "velocity": 0.9763779527559056,
            "duration": 2.1052640000000054,
            "ticks": 27648,
            "durationTicks": 768
          },
          {
            "time": 75.789504,
            "midi": 63,
            "name": "D#4",
            "velocity": 0.9133858267716536,
            "duration": 2.1052640000000054,
            "ticks": 27648,
            "durationTicks": 768
          },
          {
            "time": 75.789504,
            "midi": 58,
            "name": "A#3",
            "velocity": 0.7874015748031497,
            "duration": 2.1052640000000054,
            "ticks": 27648,
            "durationTicks": 768
          },
          {
            "time": 75.789504,
            "midi": 56,
            "name": "G#3",
            "velocity": 0.9133858267716536,
            "duration": 2.1052640000000054,
            "ticks": 27648,
            "durationTicks": 768
          },
          {
            "time": 77.894768,
            "midi": 61,
            "name": "C#4",
            "velocity": 1,
            "duration": 2.1052640000000054,
            "ticks": 28416,
            "durationTicks": 768
          },
          {
            "time": 77.894768,
            "midi": 58,
            "name": "A#3",
            "velocity": 0.9133858267716536,
            "duration": 2.1052640000000054,
            "ticks": 28416,
            "durationTicks": 768
          },
          {
            "time": 77.894768,
            "midi": 54,
            "name": "F#3",
            "velocity": 0.9133858267716536,
            "duration": 2.1052640000000054,
            "ticks": 28416,
            "durationTicks": 768
          },
          {
            "time": 77.894768,
            "midi": 65,
            "name": "F4",
            "velocity": 0.7480314960629921,
            "duration": 2.1052640000000054,
            "ticks": 28416,
            "durationTicks": 768
          },
          {
            "time": 80.000032,
            "midi": 65,
            "name": "F4",
            "velocity": 0.8818897637795275,
            "duration": 0.7894739999999985,
            "ticks": 29184,
            "durationTicks": 288
          },
          {
            "time": 80.000032,
            "midi": 58,
            "name": "A#3",
            "velocity": 0.9133858267716536,
            "duration": 0.7894739999999985,
            "ticks": 29184,
            "durationTicks": 288
          },
          {
            "time": 80.000032,
            "midi": 54,
            "name": "F#3",
            "velocity": 0.7874015748031497,
            "duration": 0.7894739999999985,
            "ticks": 29184,
            "durationTicks": 288
          },
          {
            "time": 80.000032,
            "midi": 61,
            "name": "C#4",
            "velocity": 0.9133858267716536,
            "duration": 0.7894739999999985,
            "ticks": 29184,
            "durationTicks": 288
          },
          {
            "time": 80.789506,
            "midi": 60,
            "name": "C4",
            "velocity": 0.9763779527559056,
            "duration": 1.3157899999999927,
            "ticks": 29472,
            "durationTicks": 480
          },
          {
            "time": 80.789506,
            "midi": 63,
            "name": "D#4",
            "velocity": 0.9133858267716536,
            "duration": 1.3157899999999927,
            "ticks": 29472,
            "durationTicks": 480
          },
          {
            "time": 80.789506,
            "midi": 56,
            "name": "G#3",
            "velocity": 0.9133858267716536,
            "duration": 1.3157899999999927,
            "ticks": 29472,
            "durationTicks": 480
          },
          {
            "time": 80.789506,
            "midi": 58,
            "name": "A#3",
            "velocity": 0.9133858267716536,
            "duration": 1.3157899999999927,
            "ticks": 29472,
            "durationTicks": 480
          },
          {
            "time": 82.105296,
            "midi": 54,
            "name": "F#3",
            "velocity": 0.8818897637795275,
            "duration": 1.8421060000000011,
            "ticks": 29952,
            "durationTicks": 672
          },
          {
            "time": 82.105296,
            "midi": 61,
            "name": "C#4",
            "velocity": 0.8818897637795275,
            "duration": 1.8421060000000011,
            "ticks": 29952,
            "durationTicks": 672
          },
          {
            "time": 82.105296,
            "midi": 58,
            "name": "A#3",
            "velocity": 0.9763779527559056,
            "duration": 1.8421060000000011,
            "ticks": 29952,
            "durationTicks": 672
          },
          {
            "time": 83.947402,
            "midi": 63,
            "name": "D#4",
            "velocity": 0.8818897637795275,
            "duration": 2.3684220000000096,
            "ticks": 30624,
            "durationTicks": 864
          },
          {
            "time": 83.947402,
            "midi": 60,
            "name": "C4",
            "velocity": 0.9133858267716536,
            "duration": 2.3684220000000096,
            "ticks": 30624,
            "durationTicks": 864
          },
          {
            "time": 83.947402,
            "midi": 56,
            "name": "G#3",
            "velocity": 0.8818897637795275,
            "duration": 2.3684220000000096,
            "ticks": 30624,
            "durationTicks": 864
          },
          {
            "time": 83.947402,
            "midi": 53,
            "name": "F3",
            "velocity": 0.9133858267716536,
            "duration": 2.3684220000000096,
            "ticks": 30624,
            "durationTicks": 864
          },
          {
            "time": 86.315824,
            "midi": 58,
            "name": "A#3",
            "velocity": 0.9763779527559056,
            "duration": 2.105263999999991,
            "ticks": 31488,
            "durationTicks": 768
          },
          {
            "time": 86.315824,
            "midi": 61,
            "name": "C#4",
            "velocity": 0.9763779527559056,
            "duration": 2.105263999999991,
            "ticks": 31488,
            "durationTicks": 768
          },
          {
            "time": 86.315824,
            "midi": 54,
            "name": "F#3",
            "velocity": 0.8818897637795275,
            "duration": 2.105263999999991,
            "ticks": 31488,
            "durationTicks": 768
          },
          {
            "time": 88.421088,
            "midi": 65,
            "name": "F4",
            "velocity": 0.9133858267716536,
            "duration": 0.7894739999999985,
            "ticks": 32256,
            "durationTicks": 288
          },
          {
            "time": 88.421088,
            "midi": 61,
            "name": "C#4",
            "velocity": 0.9763779527559056,
            "duration": 0.7894739999999985,
            "ticks": 32256,
            "durationTicks": 288
          },
          {
            "time": 88.421088,
            "midi": 58,
            "name": "A#3",
            "velocity": 0.9763779527559056,
            "duration": 0.7894739999999985,
            "ticks": 32256,
            "durationTicks": 288
          },
          {
            "time": 88.421088,
            "midi": 54,
            "name": "F#3",
            "velocity": 0.9763779527559056,
            "duration": 0.7894739999999985,
            "ticks": 32256,
            "durationTicks": 288
          },
          {
            "time": 89.210562,
            "midi": 56,
            "name": "G#3",
            "velocity": 0.9763779527559056,
            "duration": 1.315790000000007,
            "ticks": 32544,
            "durationTicks": 480
          },
          {
            "time": 89.210562,
            "midi": 63,
            "name": "D#4",
            "velocity": 0.8818897637795275,
            "duration": 1.315790000000007,
            "ticks": 32544,
            "durationTicks": 480
          },
          {
            "time": 89.210562,
            "midi": 53,
            "name": "F3",
            "velocity": 0.9133858267716536,
            "duration": 1.315790000000007,
            "ticks": 32544,
            "durationTicks": 480
          },
          {
            "time": 89.210562,
            "midi": 60,
            "name": "C4",
            "velocity": 0.9133858267716536,
            "duration": 1.315790000000007,
            "ticks": 32544,
            "durationTicks": 480
          },
          {
            "time": 90.526352,
            "midi": 65,
            "name": "F4",
            "velocity": 0.7874015748031497,
            "duration": 0.7894739999999985,
            "ticks": 33024,
            "durationTicks": 288
          },
          {
            "time": 90.526352,
            "midi": 54,
            "name": "F#3",
            "velocity": 0.7480314960629921,
            "duration": 0.7894739999999985,
            "ticks": 33024,
            "durationTicks": 288
          },
          {
            "time": 90.526352,
            "midi": 58,
            "name": "A#3",
            "velocity": 0.8818897637795275,
            "duration": 0.7894739999999985,
            "ticks": 33024,
            "durationTicks": 288
          },
          {
            "time": 90.526352,
            "midi": 61,
            "name": "C#4",
            "velocity": 0.8818897637795275,
            "duration": 0.7894739999999985,
            "ticks": 33024,
            "durationTicks": 288
          },
          {
            "time": 91.315826,
            "midi": 63,
            "name": "D#4",
            "velocity": 0.9763779527559056,
            "duration": 1.315790000000007,
            "ticks": 33312,
            "durationTicks": 480
          },
          {
            "time": 91.315826,
            "midi": 60,
            "name": "C4",
            "velocity": 0.7874015748031497,
            "duration": 1.315790000000007,
            "ticks": 33312,
            "durationTicks": 480
          },
          {
            "time": 91.315826,
            "midi": 56,
            "name": "G#3",
            "velocity": 0.6299212598425197,
            "duration": 1.315790000000007,
            "ticks": 33312,
            "durationTicks": 480
          },
          {
            "time": 92.63161600000001,
            "midi": 60,
            "name": "C4",
            "velocity": 0.7874015748031497,
            "duration": 0.7894739999999985,
            "ticks": 33792,
            "durationTicks": 288
          },
          {
            "time": 92.63161600000001,
            "midi": 56,
            "name": "G#3",
            "velocity": 0.7480314960629921,
            "duration": 0.7894739999999985,
            "ticks": 33792,
            "durationTicks": 288
          },
          {
            "time": 92.63161600000001,
            "midi": 63,
            "name": "D#4",
            "velocity": 0.8818897637795275,
            "duration": 0.7894739999999985,
            "ticks": 33792,
            "durationTicks": 288
          },
          {
            "time": 93.42109,
            "midi": 65,
            "name": "F4",
            "velocity": 0.7874015748031497,
            "duration": 1.3157899999999927,
            "ticks": 34080,
            "durationTicks": 480
          },
          {
            "time": 93.42109,
            "midi": 58,
            "name": "A#3",
            "velocity": 0.8818897637795275,
            "duration": 1.3157899999999927,
            "ticks": 34080,
            "durationTicks": 480
          },
          {
            "time": 93.42109,
            "midi": 61,
            "name": "C#4",
            "velocity": 0.8818897637795275,
            "duration": 1.3157899999999927,
            "ticks": 34080,
            "durationTicks": 480
          },
          {
            "time": 94.73688,
            "midi": 65,
            "name": "F4",
            "velocity": 0.7874015748031497,
            "duration": 0.7894739999999985,
            "ticks": 34560,
            "durationTicks": 288
          },
          {
            "time": 94.73688,
            "midi": 54,
            "name": "F#3",
            "velocity": 0.7480314960629921,
            "duration": 0.7894739999999985,
            "ticks": 34560,
            "durationTicks": 288
          },
          {
            "time": 94.73688,
            "midi": 58,
            "name": "A#3",
            "velocity": 0.8818897637795275,
            "duration": 0.7894739999999985,
            "ticks": 34560,
            "durationTicks": 288
          },
          {
            "time": 94.73688,
            "midi": 61,
            "name": "C#4",
            "velocity": 0.8818897637795275,
            "duration": 0.7894739999999985,
            "ticks": 34560,
            "durationTicks": 288
          },
          {
            "time": 95.526354,
            "midi": 63,
            "name": "D#4",
            "velocity": 0.9763779527559056,
            "duration": 1.315790000000007,
            "ticks": 34848,
            "durationTicks": 480
          },
          {
            "time": 95.526354,
            "midi": 60,
            "name": "C4",
            "velocity": 0.7874015748031497,
            "duration": 1.315790000000007,
            "ticks": 34848,
            "durationTicks": 480
          },
          {
            "time": 95.526354,
            "midi": 56,
            "name": "G#3",
            "velocity": 0.6299212598425197,
            "duration": 1.315790000000007,
            "ticks": 34848,
            "durationTicks": 480
          },
          {
            "time": 96.842144,
            "midi": 60,
            "name": "C4",
            "velocity": 0.7874015748031497,
            "duration": 0.7894739999999985,
            "ticks": 35328,
            "durationTicks": 288
          },
          {
            "time": 96.842144,
            "midi": 56,
            "name": "G#3",
            "velocity": 0.7480314960629921,
            "duration": 0.7894739999999985,
            "ticks": 35328,
            "durationTicks": 288
          },
          {
            "time": 96.842144,
            "midi": 63,
            "name": "D#4",
            "velocity": 0.8818897637795275,
            "duration": 0.7894739999999985,
            "ticks": 35328,
            "durationTicks": 288
          },
          {
            "time": 97.631618,
            "midi": 65,
            "name": "F4",
            "velocity": 0.7874015748031497,
            "duration": 1.3157899999999927,
            "ticks": 35616,
            "durationTicks": 480
          },
          {
            "time": 97.631618,
            "midi": 58,
            "name": "A#3",
            "velocity": 0.8818897637795275,
            "duration": 1.3157899999999927,
            "ticks": 35616,
            "durationTicks": 480
          },
          {
            "time": 97.631618,
            "midi": 61,
            "name": "C#4",
            "velocity": 0.8818897637795275,
            "duration": 1.3157899999999927,
            "ticks": 35616,
            "durationTicks": 480
          },
          {
            "time": 98.947408,
            "midi": 65,
            "name": "F4",
            "velocity": 0.7874015748031497,
            "duration": 0.7894739999999985,
            "ticks": 36096,
            "durationTicks": 288
          },
          {
            "time": 98.947408,
            "midi": 54,
            "name": "F#3",
            "velocity": 0.7480314960629921,
            "duration": 0.7894739999999985,
            "ticks": 36096,
            "durationTicks": 288
          },
          {
            "time": 98.947408,
            "midi": 58,
            "name": "A#3",
            "velocity": 0.8818897637795275,
            "duration": 0.7894739999999985,
            "ticks": 36096,
            "durationTicks": 288
          },
          {
            "time": 98.947408,
            "midi": 61,
            "name": "C#4",
            "velocity": 0.8818897637795275,
            "duration": 0.7894739999999985,
            "ticks": 36096,
            "durationTicks": 288
          },
          {
            "time": 99.736882,
            "midi": 63,
            "name": "D#4",
            "velocity": 0.9763779527559056,
            "duration": 1.315790000000007,
            "ticks": 36384,
            "durationTicks": 480
          },
          {
            "time": 99.736882,
            "midi": 60,
            "name": "C4",
            "velocity": 0.7874015748031497,
            "duration": 1.315790000000007,
            "ticks": 36384,
            "durationTicks": 480
          },
          {
            "time": 99.736882,
            "midi": 56,
            "name": "G#3",
            "velocity": 0.6299212598425197,
            "duration": 1.315790000000007,
            "ticks": 36384,
            "durationTicks": 480
          },
          {
            "time": 101.052672,
            "midi": 60,
            "name": "C4",
            "velocity": 0.7874015748031497,
            "duration": 0.7894739999999985,
            "ticks": 36864,
            "durationTicks": 288
          },
          {
            "time": 101.052672,
            "midi": 56,
            "name": "G#3",
            "velocity": 0.7480314960629921,
            "duration": 0.7894739999999985,
            "ticks": 36864,
            "durationTicks": 288
          },
          {
            "time": 101.052672,
            "midi": 63,
            "name": "D#4",
            "velocity": 0.8818897637795275,
            "duration": 0.7894739999999985,
            "ticks": 36864,
            "durationTicks": 288
          },
          {
            "time": 101.842146,
            "midi": 65,
            "name": "F4",
            "velocity": 0.7874015748031497,
            "duration": 1.315790000000007,
            "ticks": 37152,
            "durationTicks": 480
          },
          {
            "time": 101.842146,
            "midi": 58,
            "name": "A#3",
            "velocity": 0.8818897637795275,
            "duration": 1.315790000000007,
            "ticks": 37152,
            "durationTicks": 480
          },
          {
            "time": 101.842146,
            "midi": 61,
            "name": "C#4",
            "velocity": 0.8818897637795275,
            "duration": 1.315790000000007,
            "ticks": 37152,
            "durationTicks": 480
          },
          {
            "time": 103.157936,
            "midi": 61,
            "name": "C#4",
            "velocity": 1,
            "duration": 0.825109979166669,
            "ticks": 37632,
            "durationTicks": 301
          },
          {
            "time": 103.157936,
            "midi": 58,
            "name": "A#3",
            "velocity": 1,
            "duration": 0.6853072916666605,
            "ticks": 37632,
            "durationTicks": 250
          },
          {
            "time": 103.157936,
            "midi": 54,
            "name": "F#3",
            "velocity": 1,
            "duration": 0.7017546666666732,
            "ticks": 37632,
            "durationTicks": 256
          },
          {
            "time": 103.94741,
            "midi": 56,
            "name": "G#3",
            "velocity": 1,
            "duration": 1.3157899999999927,
            "ticks": 37920,
            "durationTicks": 480
          },
          {
            "time": 103.94741,
            "midi": 63,
            "name": "D#4",
            "velocity": 1,
            "duration": 1.3157899999999927,
            "ticks": 37920,
            "durationTicks": 480
          },
          {
            "time": 103.94741,
            "midi": 60,
            "name": "C4",
            "velocity": 1,
            "duration": 1.3157899999999927,
            "ticks": 37920,
            "durationTicks": 480
          },
          {
            "time": 105.2632,
            "midi": 56,
            "name": "G#3",
            "velocity": 1,
            "duration": 0.5263160000000084,
            "ticks": 38400,
            "durationTicks": 192
          },
          {
            "time": 105.2632,
            "midi": 63,
            "name": "D#4",
            "velocity": 1,
            "duration": 0.5263160000000084,
            "ticks": 38400,
            "durationTicks": 192
          },
          {
            "time": 105.2632,
            "midi": 60,
            "name": "C4",
            "velocity": 1,
            "duration": 0.5263160000000084,
            "ticks": 38400,
            "durationTicks": 192
          },
          {
            "time": 105.789516,
            "midi": 65,
            "name": "F4",
            "velocity": 1,
            "duration": 1.578947999999997,
            "ticks": 38592,
            "durationTicks": 576
          },
          {
            "time": 105.789516,
            "midi": 61,
            "name": "C#4",
            "velocity": 1,
            "duration": 1.578947999999997,
            "ticks": 38592,
            "durationTicks": 576
          },
          {
            "time": 105.789516,
            "midi": 56,
            "name": "G#3",
            "velocity": 1,
            "duration": 1.578947999999997,
            "ticks": 38592,
            "durationTicks": 576
          },
          {
            "time": 107.368464,
            "midi": 65,
            "name": "F4",
            "velocity": 0.7874015748031497,
            "duration": 0.7894739999999985,
            "ticks": 39168,
            "durationTicks": 288
          },
          {
            "time": 107.368464,
            "midi": 54,
            "name": "F#3",
            "velocity": 0.7480314960629921,
            "duration": 0.7894739999999985,
            "ticks": 39168,
            "durationTicks": 288
          },
          {
            "time": 107.368464,
            "midi": 58,
            "name": "A#3",
            "velocity": 0.8818897637795275,
            "duration": 0.7894739999999985,
            "ticks": 39168,
            "durationTicks": 288
          },
          {
            "time": 107.368464,
            "midi": 61,
            "name": "C#4",
            "velocity": 0.8818897637795275,
            "duration": 0.7894739999999985,
            "ticks": 39168,
            "durationTicks": 288
          },
          {
            "time": 108.157938,
            "midi": 63,
            "name": "D#4",
            "velocity": 0.9763779527559056,
            "duration": 1.3157899999999927,
            "ticks": 39456,
            "durationTicks": 480
          },
          {
            "time": 108.157938,
            "midi": 60,
            "name": "C4",
            "velocity": 0.7874015748031497,
            "duration": 1.3157899999999927,
            "ticks": 39456,
            "durationTicks": 480
          },
          {
            "time": 108.157938,
            "midi": 56,
            "name": "G#3",
            "velocity": 0.6299212598425197,
            "duration": 1.3157899999999927,
            "ticks": 39456,
            "durationTicks": 480
          },
          {
            "time": 109.473728,
            "midi": 60,
            "name": "C4",
            "velocity": 0.7874015748031497,
            "duration": 0.7894740000000127,
            "ticks": 39936,
            "durationTicks": 288
          },
          {
            "time": 109.473728,
            "midi": 56,
            "name": "G#3",
            "velocity": 0.7480314960629921,
            "duration": 0.7894740000000127,
            "ticks": 39936,
            "durationTicks": 288
          },
          {
            "time": 109.473728,
            "midi": 63,
            "name": "D#4",
            "velocity": 0.8818897637795275,
            "duration": 0.7894740000000127,
            "ticks": 39936,
            "durationTicks": 288
          },
          {
            "time": 110.263202,
            "midi": 65,
            "name": "F4",
            "velocity": 0.7874015748031497,
            "duration": 1.3157899999999927,
            "ticks": 40224,
            "durationTicks": 480
          },
          {
            "time": 110.263202,
            "midi": 58,
            "name": "A#3",
            "velocity": 0.8818897637795275,
            "duration": 1.3157899999999927,
            "ticks": 40224,
            "durationTicks": 480
          },
          {
            "time": 110.263202,
            "midi": 61,
            "name": "C#4",
            "velocity": 0.8818897637795275,
            "duration": 1.3157899999999927,
            "ticks": 40224,
            "durationTicks": 480
          },
          {
            "time": 111.578992,
            "midi": 65,
            "name": "F4",
            "velocity": 0.7874015748031497,
            "duration": 0.7894739999999985,
            "ticks": 40704,
            "durationTicks": 288
          },
          {
            "time": 111.578992,
            "midi": 54,
            "name": "F#3",
            "velocity": 0.7480314960629921,
            "duration": 0.7894739999999985,
            "ticks": 40704,
            "durationTicks": 288
          },
          {
            "time": 111.578992,
            "midi": 58,
            "name": "A#3",
            "velocity": 0.8818897637795275,
            "duration": 0.7894739999999985,
            "ticks": 40704,
            "durationTicks": 288
          },
          {
            "time": 111.578992,
            "midi": 61,
            "name": "C#4",
            "velocity": 0.8818897637795275,
            "duration": 0.7894739999999985,
            "ticks": 40704,
            "durationTicks": 288
          },
          {
            "time": 112.368466,
            "midi": 63,
            "name": "D#4",
            "velocity": 0.9763779527559056,
            "duration": 1.315790000000007,
            "ticks": 40992,
            "durationTicks": 480
          },
          {
            "time": 112.368466,
            "midi": 60,
            "name": "C4",
            "velocity": 0.7874015748031497,
            "duration": 1.315790000000007,
            "ticks": 40992,
            "durationTicks": 480
          },
          {
            "time": 112.368466,
            "midi": 56,
            "name": "G#3",
            "velocity": 0.6299212598425197,
            "duration": 1.315790000000007,
            "ticks": 40992,
            "durationTicks": 480
          },
          {
            "time": 113.684256,
            "midi": 60,
            "name": "C4",
            "velocity": 0.7874015748031497,
            "duration": 0.7894739999999985,
            "ticks": 41472,
            "durationTicks": 288
          },
          {
            "time": 113.684256,
            "midi": 56,
            "name": "G#3",
            "velocity": 0.7480314960629921,
            "duration": 0.7894739999999985,
            "ticks": 41472,
            "durationTicks": 288
          },
          {
            "time": 113.684256,
            "midi": 63,
            "name": "D#4",
            "velocity": 0.8818897637795275,
            "duration": 0.7894739999999985,
            "ticks": 41472,
            "durationTicks": 288
          },
          {
            "time": 114.47373,
            "midi": 65,
            "name": "F4",
            "velocity": 0.7874015748031497,
            "duration": 1.3157899999999927,
            "ticks": 41760,
            "durationTicks": 480
          },
          {
            "time": 114.47373,
            "midi": 58,
            "name": "A#3",
            "velocity": 0.8818897637795275,
            "duration": 1.3157899999999927,
            "ticks": 41760,
            "durationTicks": 480
          },
          {
            "time": 114.47373,
            "midi": 61,
            "name": "C#4",
            "velocity": 0.8818897637795275,
            "duration": 1.3157899999999927,
            "ticks": 41760,
            "durationTicks": 480
          },
          {
            "time": 115.78952,
            "midi": 65,
            "name": "F4",
            "velocity": 0.7874015748031497,
            "duration": 0.7894739999999985,
            "ticks": 42240,
            "durationTicks": 288
          },
          {
            "time": 115.78952,
            "midi": 54,
            "name": "F#3",
            "velocity": 0.7480314960629921,
            "duration": 0.7894739999999985,
            "ticks": 42240,
            "durationTicks": 288
          },
          {
            "time": 115.78952,
            "midi": 58,
            "name": "A#3",
            "velocity": 0.8818897637795275,
            "duration": 0.7894739999999985,
            "ticks": 42240,
            "durationTicks": 288
          },
          {
            "time": 115.78952,
            "midi": 61,
            "name": "C#4",
            "velocity": 0.8818897637795275,
            "duration": 0.7894739999999985,
            "ticks": 42240,
            "durationTicks": 288
          },
          {
            "time": 116.578994,
            "midi": 63,
            "name": "D#4",
            "velocity": 0.9763779527559056,
            "duration": 1.315790000000007,
            "ticks": 42528,
            "durationTicks": 480
          },
          {
            "time": 116.578994,
            "midi": 60,
            "name": "C4",
            "velocity": 0.7874015748031497,
            "duration": 1.315790000000007,
            "ticks": 42528,
            "durationTicks": 480
          },
          {
            "time": 116.578994,
            "midi": 56,
            "name": "G#3",
            "velocity": 0.6299212598425197,
            "duration": 1.315790000000007,
            "ticks": 42528,
            "durationTicks": 480
          },
          {
            "time": 117.894784,
            "midi": 60,
            "name": "C4",
            "velocity": 0.7874015748031497,
            "duration": 0.7894739999999985,
            "ticks": 43008,
            "durationTicks": 288
          },
          {
            "time": 117.894784,
            "midi": 56,
            "name": "G#3",
            "velocity": 0.7480314960629921,
            "duration": 0.7894739999999985,
            "ticks": 43008,
            "durationTicks": 288
          },
          {
            "time": 117.894784,
            "midi": 63,
            "name": "D#4",
            "velocity": 0.8818897637795275,
            "duration": 0.7894739999999985,
            "ticks": 43008,
            "durationTicks": 288
          },
          {
            "time": 118.684258,
            "midi": 65,
            "name": "F4",
            "velocity": 0.7874015748031497,
            "duration": 1.315790000000007,
            "ticks": 43296,
            "durationTicks": 480
          },
          {
            "time": 118.684258,
            "midi": 58,
            "name": "A#3",
            "velocity": 0.8818897637795275,
            "duration": 1.315790000000007,
            "ticks": 43296,
            "durationTicks": 480
          },
          {
            "time": 118.684258,
            "midi": 61,
            "name": "C#4",
            "velocity": 0.8818897637795275,
            "duration": 1.315790000000007,
            "ticks": 43296,
            "durationTicks": 480
          },
          {
            "time": 120.000048,
            "midi": 61,
            "name": "C#4",
            "velocity": 1,
            "duration": 0.825109979166669,
            "ticks": 43776,
            "durationTicks": 301
          },
          {
            "time": 120.000048,
            "midi": 58,
            "name": "A#3",
            "velocity": 1,
            "duration": 0.6853072916666605,
            "ticks": 43776,
            "durationTicks": 250
          },
          {
            "time": 120.000048,
            "midi": 54,
            "name": "F#3",
            "velocity": 1,
            "duration": 0.7017546666666732,
            "ticks": 43776,
            "durationTicks": 256
          },
          {
            "time": 120.789522,
            "midi": 56,
            "name": "G#3",
            "velocity": 1,
            "duration": 1.3157899999999927,
            "ticks": 44064,
            "durationTicks": 480
          },
          {
            "time": 120.789522,
            "midi": 63,
            "name": "D#4",
            "velocity": 1,
            "duration": 1.3157899999999927,
            "ticks": 44064,
            "durationTicks": 480
          },
          {
            "time": 120.789522,
            "midi": 60,
            "name": "C4",
            "velocity": 1,
            "duration": 1.3157899999999927,
            "ticks": 44064,
            "durationTicks": 480
          },
          {
            "time": 122.105312,
            "midi": 56,
            "name": "G#3",
            "velocity": 1,
            "duration": 0.5263160000000084,
            "ticks": 44544,
            "durationTicks": 192
          },
          {
            "time": 122.105312,
            "midi": 63,
            "name": "D#4",
            "velocity": 1,
            "duration": 0.5263160000000084,
            "ticks": 44544,
            "durationTicks": 192
          },
          {
            "time": 122.105312,
            "midi": 60,
            "name": "C4",
            "velocity": 1,
            "duration": 0.5263160000000084,
            "ticks": 44544,
            "durationTicks": 192
          },
          {
            "time": 122.631628,
            "midi": 65,
            "name": "F4",
            "velocity": 1,
            "duration": 1.578947999999997,
            "ticks": 44736,
            "durationTicks": 576
          },
          {
            "time": 122.631628,
            "midi": 61,
            "name": "C#4",
            "velocity": 1,
            "duration": 1.578947999999997,
            "ticks": 44736,
            "durationTicks": 576
          },
          {
            "time": 122.631628,
            "midi": 56,
            "name": "G#3",
            "velocity": 1,
            "duration": 1.578947999999997,
            "ticks": 44736,
            "durationTicks": 576
          },
          {
            "time": 126.31584000000001,
            "midi": 73,
            "name": "C#5",
            "velocity": 0.7874015748031497,
            "duration": 0.26315799999999,
            "ticks": 46080,
            "durationTicks": 96
          },
          {
            "time": 126.31584000000001,
            "midi": 68,
            "name": "G#4",
            "velocity": 0.7874015748031497,
            "duration": 0.26315799999999,
            "ticks": 46080,
            "durationTicks": 96
          },
          {
            "time": 126.31584000000001,
            "midi": 65,
            "name": "F4",
            "velocity": 0.8818897637795275,
            "duration": 0.26315799999999,
            "ticks": 46080,
            "durationTicks": 96
          },
          {
            "time": 126.710577,
            "midi": 73,
            "name": "C#5",
            "velocity": 0.9133858267716536,
            "duration": 0.39473700000000633,
            "ticks": 46224,
            "durationTicks": 144
          },
          {
            "time": 126.710577,
            "midi": 68,
            "name": "G#4",
            "velocity": 0.9133858267716536,
            "duration": 0.39473700000000633,
            "ticks": 46224,
            "durationTicks": 144
          },
          {
            "time": 126.710577,
            "midi": 65,
            "name": "F4",
            "velocity": 0.6299212598425197,
            "duration": 0.39473700000000633,
            "ticks": 46224,
            "durationTicks": 144
          },
          {
            "time": 127.105314,
            "midi": 63,
            "name": "D#4",
            "velocity": 0.7874015748031497,
            "duration": 0.1315789999999879,
            "ticks": 46368,
            "durationTicks": 48
          },
          {
            "time": 127.105314,
            "midi": 68,
            "name": "G#4",
            "velocity": 0.9133858267716536,
            "duration": 0.1315789999999879,
            "ticks": 46368,
            "durationTicks": 48
          },
          {
            "time": 127.105314,
            "midi": 72,
            "name": "C5",
            "velocity": 0.6299212598425197,
            "duration": 0.1315789999999879,
            "ticks": 46368,
            "durationTicks": 48
          },
          {
            "time": 130.526368,
            "midi": 73,
            "name": "C#5",
            "velocity": 0.7874015748031497,
            "duration": 0.2631580000000042,
            "ticks": 47616,
            "durationTicks": 96
          },
          {
            "time": 130.526368,
            "midi": 68,
            "name": "G#4",
            "velocity": 0.7874015748031497,
            "duration": 0.2631580000000042,
            "ticks": 47616,
            "durationTicks": 96
          },
          {
            "time": 130.526368,
            "midi": 65,
            "name": "F4",
            "velocity": 0.8818897637795275,
            "duration": 0.2631580000000042,
            "ticks": 47616,
            "durationTicks": 96
          },
          {
            "time": 130.921105,
            "midi": 73,
            "name": "C#5",
            "velocity": 0.9133858267716536,
            "duration": 0.3947369999999921,
            "ticks": 47760,
            "durationTicks": 144
          },
          {
            "time": 130.921105,
            "midi": 68,
            "name": "G#4",
            "velocity": 0.9133858267716536,
            "duration": 0.3947369999999921,
            "ticks": 47760,
            "durationTicks": 144
          },
          {
            "time": 130.921105,
            "midi": 65,
            "name": "F4",
            "velocity": 0.6299212598425197,
            "duration": 0.3947369999999921,
            "ticks": 47760,
            "durationTicks": 144
          },
          {
            "time": 131.315842,
            "midi": 63,
            "name": "D#4",
            "velocity": 0.7874015748031497,
            "duration": 0.1315789999999879,
            "ticks": 47904,
            "durationTicks": 48
          },
          {
            "time": 131.315842,
            "midi": 68,
            "name": "G#4",
            "velocity": 0.9133858267716536,
            "duration": 0.1315789999999879,
            "ticks": 47904,
            "durationTicks": 48
          },
          {
            "time": 131.315842,
            "midi": 72,
            "name": "C5",
            "velocity": 0.6299212598425197,
            "duration": 0.1315789999999879,
            "ticks": 47904,
            "durationTicks": 48
          },
          {
            "time": 134.736896,
            "midi": 73,
            "name": "C#5",
            "velocity": 0.7874015748031497,
            "duration": 0.2631580000000042,
            "ticks": 49152,
            "durationTicks": 96
          },
          {
            "time": 134.736896,
            "midi": 68,
            "name": "G#4",
            "velocity": 0.7874015748031497,
            "duration": 0.2631580000000042,
            "ticks": 49152,
            "durationTicks": 96
          },
          {
            "time": 134.736896,
            "midi": 65,
            "name": "F4",
            "velocity": 0.8818897637795275,
            "duration": 0.2631580000000042,
            "ticks": 49152,
            "durationTicks": 96
          },
          {
            "time": 135.131633,
            "midi": 73,
            "name": "C#5",
            "velocity": 0.9133858267716536,
            "duration": 0.39473700000002054,
            "ticks": 49296,
            "durationTicks": 144
          },
          {
            "time": 135.131633,
            "midi": 68,
            "name": "G#4",
            "velocity": 0.9133858267716536,
            "duration": 0.39473700000002054,
            "ticks": 49296,
            "durationTicks": 144
          },
          {
            "time": 135.131633,
            "midi": 65,
            "name": "F4",
            "velocity": 0.6299212598425197,
            "duration": 0.39473700000002054,
            "ticks": 49296,
            "durationTicks": 144
          },
          {
            "time": 135.52637000000001,
            "midi": 63,
            "name": "D#4",
            "velocity": 0.7874015748031497,
            "duration": 0.1315789999999879,
            "ticks": 49440,
            "durationTicks": 48
          },
          {
            "time": 135.52637000000001,
            "midi": 68,
            "name": "G#4",
            "velocity": 0.9133858267716536,
            "duration": 0.1315789999999879,
            "ticks": 49440,
            "durationTicks": 48
          },
          {
            "time": 135.52637000000001,
            "midi": 72,
            "name": "C5",
            "velocity": 0.6299212598425197,
            "duration": 0.1315789999999879,
            "ticks": 49440,
            "durationTicks": 48
          },
          {
            "time": 138.947424,
            "midi": 73,
            "name": "C#5",
            "velocity": 0.7874015748031497,
            "duration": 0.2631579999999758,
            "ticks": 50688,
            "durationTicks": 96
          },
          {
            "time": 138.947424,
            "midi": 68,
            "name": "G#4",
            "velocity": 0.7874015748031497,
            "duration": 0.2631579999999758,
            "ticks": 50688,
            "durationTicks": 96
          },
          {
            "time": 138.947424,
            "midi": 65,
            "name": "F4",
            "velocity": 0.8818897637795275,
            "duration": 0.2631579999999758,
            "ticks": 50688,
            "durationTicks": 96
          },
          {
            "time": 139.342161,
            "midi": 73,
            "name": "C#5",
            "velocity": 0.9133858267716536,
            "duration": 0.3947369999999921,
            "ticks": 50832,
            "durationTicks": 144
          },
          {
            "time": 139.342161,
            "midi": 68,
            "name": "G#4",
            "velocity": 0.9133858267716536,
            "duration": 0.3947369999999921,
            "ticks": 50832,
            "durationTicks": 144
          },
          {
            "time": 139.342161,
            "midi": 65,
            "name": "F4",
            "velocity": 0.6299212598425197,
            "duration": 0.3947369999999921,
            "ticks": 50832,
            "durationTicks": 144
          },
          {
            "time": 139.736898,
            "midi": 63,
            "name": "D#4",
            "velocity": 0.7874015748031497,
            "duration": 0.13157900000001632,
            "ticks": 50976,
            "durationTicks": 48
          },
          {
            "time": 139.736898,
            "midi": 68,
            "name": "G#4",
            "velocity": 0.9133858267716536,
            "duration": 0.13157900000001632,
            "ticks": 50976,
            "durationTicks": 48
          },
          {
            "time": 139.736898,
            "midi": 72,
            "name": "C5",
            "velocity": 0.6299212598425197,
            "duration": 0.13157900000001632,
            "ticks": 50976,
            "durationTicks": 48
          },
          {
            "time": 143.157952,
            "midi": 73,
            "name": "C#5",
            "velocity": 0.7874015748031497,
            "duration": 0.2631580000000042,
            "ticks": 52224,
            "durationTicks": 96
          },
          {
            "time": 143.157952,
            "midi": 68,
            "name": "G#4",
            "velocity": 0.7874015748031497,
            "duration": 0.2631580000000042,
            "ticks": 52224,
            "durationTicks": 96
          },
          {
            "time": 143.157952,
            "midi": 65,
            "name": "F4",
            "velocity": 0.8818897637795275,
            "duration": 0.2631580000000042,
            "ticks": 52224,
            "durationTicks": 96
          },
          {
            "time": 143.55268900000002,
            "midi": 73,
            "name": "C#5",
            "velocity": 0.9133858267716536,
            "duration": 0.3947369999999921,
            "ticks": 52368,
            "durationTicks": 144
          },
          {
            "time": 143.55268900000002,
            "midi": 68,
            "name": "G#4",
            "velocity": 0.9133858267716536,
            "duration": 0.3947369999999921,
            "ticks": 52368,
            "durationTicks": 144
          },
          {
            "time": 143.55268900000002,
            "midi": 65,
            "name": "F4",
            "velocity": 0.6299212598425197,
            "duration": 0.3947369999999921,
            "ticks": 52368,
            "durationTicks": 144
          },
          {
            "time": 143.947426,
            "midi": 63,
            "name": "D#4",
            "velocity": 0.7874015748031497,
            "duration": 0.1315789999999879,
            "ticks": 52512,
            "durationTicks": 48
          },
          {
            "time": 143.947426,
            "midi": 68,
            "name": "G#4",
            "velocity": 0.9133858267716536,
            "duration": 0.1315789999999879,
            "ticks": 52512,
            "durationTicks": 48
          },
          {
            "time": 143.947426,
            "midi": 72,
            "name": "C5",
            "velocity": 0.6299212598425197,
            "duration": 0.1315789999999879,
            "ticks": 52512,
            "durationTicks": 48
          },
          {
            "time": 147.36848,
            "midi": 73,
            "name": "C#5",
            "velocity": 0.7874015748031497,
            "duration": 0.2631580000000042,
            "ticks": 53760,
            "durationTicks": 96
          },
          {
            "time": 147.36848,
            "midi": 68,
            "name": "G#4",
            "velocity": 0.7874015748031497,
            "duration": 0.2631580000000042,
            "ticks": 53760,
            "durationTicks": 96
          },
          {
            "time": 147.36848,
            "midi": 65,
            "name": "F4",
            "velocity": 0.8818897637795275,
            "duration": 0.2631580000000042,
            "ticks": 53760,
            "durationTicks": 96
          },
          {
            "time": 147.763217,
            "midi": 73,
            "name": "C#5",
            "velocity": 0.9133858267716536,
            "duration": 0.3947369999999921,
            "ticks": 53904,
            "durationTicks": 144
          },
          {
            "time": 147.763217,
            "midi": 68,
            "name": "G#4",
            "velocity": 0.9133858267716536,
            "duration": 0.3947369999999921,
            "ticks": 53904,
            "durationTicks": 144
          },
          {
            "time": 147.763217,
            "midi": 65,
            "name": "F4",
            "velocity": 0.6299212598425197,
            "duration": 0.3947369999999921,
            "ticks": 53904,
            "durationTicks": 144
          },
          {
            "time": 148.157954,
            "midi": 63,
            "name": "D#4",
            "velocity": 0.7874015748031497,
            "duration": 0.13157900000001632,
            "ticks": 54048,
            "durationTicks": 48
          },
          {
            "time": 148.157954,
            "midi": 68,
            "name": "G#4",
            "velocity": 0.9133858267716536,
            "duration": 0.13157900000001632,
            "ticks": 54048,
            "durationTicks": 48
          },
          {
            "time": 148.157954,
            "midi": 72,
            "name": "C5",
            "velocity": 0.6299212598425197,
            "duration": 0.13157900000001632,
            "ticks": 54048,
            "durationTicks": 48
          },
          {
            "time": 151.579008,
            "midi": 73,
            "name": "C#5",
            "velocity": 0.7874015748031497,
            "duration": 0.2631580000000042,
            "ticks": 55296,
            "durationTicks": 96
          },
          {
            "time": 151.579008,
            "midi": 68,
            "name": "G#4",
            "velocity": 0.7874015748031497,
            "duration": 0.2631580000000042,
            "ticks": 55296,
            "durationTicks": 96
          },
          {
            "time": 151.579008,
            "midi": 65,
            "name": "F4",
            "velocity": 0.8818897637795275,
            "duration": 0.2631580000000042,
            "ticks": 55296,
            "durationTicks": 96
          },
          {
            "time": 151.973745,
            "midi": 73,
            "name": "C#5",
            "velocity": 0.9133858267716536,
            "duration": 0.3947369999999921,
            "ticks": 55440,
            "durationTicks": 144
          },
          {
            "time": 151.973745,
            "midi": 68,
            "name": "G#4",
            "velocity": 0.9133858267716536,
            "duration": 0.3947369999999921,
            "ticks": 55440,
            "durationTicks": 144
          },
          {
            "time": 151.973745,
            "midi": 65,
            "name": "F4",
            "velocity": 0.6299212598425197,
            "duration": 0.3947369999999921,
            "ticks": 55440,
            "durationTicks": 144
          },
          {
            "time": 152.368482,
            "midi": 63,
            "name": "D#4",
            "velocity": 0.7874015748031497,
            "duration": 0.1315789999999879,
            "ticks": 55584,
            "durationTicks": 48
          },
          {
            "time": 152.368482,
            "midi": 68,
            "name": "G#4",
            "velocity": 0.9133858267716536,
            "duration": 0.1315789999999879,
            "ticks": 55584,
            "durationTicks": 48
          },
          {
            "time": 152.368482,
            "midi": 72,
            "name": "C5",
            "velocity": 0.6299212598425197,
            "duration": 0.1315789999999879,
            "ticks": 55584,
            "durationTicks": 48
          },
          {
            "time": 155.789536,
            "midi": 73,
            "name": "C#5",
            "velocity": 0.7874015748031497,
            "duration": 0.2631580000000042,
            "ticks": 56832,
            "durationTicks": 96
          },
          {
            "time": 155.789536,
            "midi": 68,
            "name": "G#4",
            "velocity": 0.7874015748031497,
            "duration": 0.2631580000000042,
            "ticks": 56832,
            "durationTicks": 96
          },
          {
            "time": 155.789536,
            "midi": 65,
            "name": "F4",
            "velocity": 0.8818897637795275,
            "duration": 0.2631580000000042,
            "ticks": 56832,
            "durationTicks": 96
          },
          {
            "time": 156.184273,
            "midi": 73,
            "name": "C#5",
            "velocity": 0.9133858267716536,
            "duration": 0.39473700000002054,
            "ticks": 56976,
            "durationTicks": 144
          },
          {
            "time": 156.184273,
            "midi": 68,
            "name": "G#4",
            "velocity": 0.9133858267716536,
            "duration": 0.39473700000002054,
            "ticks": 56976,
            "durationTicks": 144
          },
          {
            "time": 156.184273,
            "midi": 65,
            "name": "F4",
            "velocity": 0.6299212598425197,
            "duration": 0.39473700000002054,
            "ticks": 56976,
            "durationTicks": 144
          },
          {
            "time": 156.57901,
            "midi": 63,
            "name": "D#4",
            "velocity": 0.7874015748031497,
            "duration": 0.1315789999999879,
            "ticks": 57120,
            "durationTicks": 48
          },
          {
            "time": 156.57901,
            "midi": 68,
            "name": "G#4",
            "velocity": 0.9133858267716536,
            "duration": 0.1315789999999879,
            "ticks": 57120,
            "durationTicks": 48
          },
          {
            "time": 156.57901,
            "midi": 72,
            "name": "C5",
            "velocity": 0.6299212598425197,
            "duration": 0.1315789999999879,
            "ticks": 57120,
            "durationTicks": 48
          },
          {
            "time": 164.210592,
            "midi": 65,
            "name": "F4",
            "velocity": 0.9133858267716536,
            "duration": 0.7894740000000127,
            "ticks": 59904,
            "durationTicks": 288
          },
          {
            "time": 164.210592,
            "midi": 61,
            "name": "C#4",
            "velocity": 0.9763779527559056,
            "duration": 0.7894740000000127,
            "ticks": 59904,
            "durationTicks": 288
          },
          {
            "time": 164.210592,
            "midi": 58,
            "name": "A#3",
            "velocity": 0.9763779527559056,
            "duration": 0.7894740000000127,
            "ticks": 59904,
            "durationTicks": 288
          },
          {
            "time": 164.210592,
            "midi": 54,
            "name": "F#3",
            "velocity": 0.9763779527559056,
            "duration": 0.7894740000000127,
            "ticks": 59904,
            "durationTicks": 288
          },
          {
            "time": 165.000066,
            "midi": 56,
            "name": "G#3",
            "velocity": 0.9763779527559056,
            "duration": 1.3157899999999927,
            "ticks": 60192,
            "durationTicks": 480
          },
          {
            "time": 165.000066,
            "midi": 63,
            "name": "D#4",
            "velocity": 0.8818897637795275,
            "duration": 1.3157899999999927,
            "ticks": 60192,
            "durationTicks": 480
          },
          {
            "time": 165.000066,
            "midi": 53,
            "name": "F3",
            "velocity": 0.9133858267716536,
            "duration": 1.3157899999999927,
            "ticks": 60192,
            "durationTicks": 480
          },
          {
            "time": 165.000066,
            "midi": 60,
            "name": "C4",
            "velocity": 0.9133858267716536,
            "duration": 1.3157899999999927,
            "ticks": 60192,
            "durationTicks": 480
          },
          {
            "time": 172.631648,
            "midi": 65,
            "name": "F4",
            "velocity": 0.9133858267716536,
            "duration": 0.7894739999999842,
            "ticks": 62976,
            "durationTicks": 288
          },
          {
            "time": 172.631648,
            "midi": 61,
            "name": "C#4",
            "velocity": 0.9763779527559056,
            "duration": 0.7894739999999842,
            "ticks": 62976,
            "durationTicks": 288
          },
          {
            "time": 172.631648,
            "midi": 58,
            "name": "A#3",
            "velocity": 0.9763779527559056,
            "duration": 0.7894739999999842,
            "ticks": 62976,
            "durationTicks": 288
          },
          {
            "time": 172.631648,
            "midi": 54,
            "name": "F#3",
            "velocity": 0.9763779527559056,
            "duration": 0.7894739999999842,
            "ticks": 62976,
            "durationTicks": 288
          },
          {
            "time": 173.421122,
            "midi": 56,
            "name": "G#3",
            "velocity": 0.9763779527559056,
            "duration": 1.3157899999999927,
            "ticks": 63264,
            "durationTicks": 480
          },
          {
            "time": 173.421122,
            "midi": 63,
            "name": "D#4",
            "velocity": 0.8818897637795275,
            "duration": 1.3157899999999927,
            "ticks": 63264,
            "durationTicks": 480
          },
          {
            "time": 173.421122,
            "midi": 53,
            "name": "F3",
            "velocity": 0.9133858267716536,
            "duration": 1.3157899999999927,
            "ticks": 63264,
            "durationTicks": 480
          },
          {
            "time": 173.421122,
            "midi": 60,
            "name": "C4",
            "velocity": 0.9133858267716536,
            "duration": 1.3157899999999927,
            "ticks": 63264,
            "durationTicks": 480
          },
          {
            "time": 174.736912,
            "midi": 54,
            "name": "F#3",
            "velocity": 0.8818897637795275,
            "duration": 1.8421060000000011,
            "ticks": 63744,
            "durationTicks": 672
          },
          {
            "time": 174.736912,
            "midi": 61,
            "name": "C#4",
            "velocity": 0.8818897637795275,
            "duration": 1.8421060000000011,
            "ticks": 63744,
            "durationTicks": 672
          },
          {
            "time": 174.736912,
            "midi": 58,
            "name": "A#3",
            "velocity": 0.9763779527559056,
            "duration": 1.8421060000000011,
            "ticks": 63744,
            "durationTicks": 672
          },
          {
            "time": 176.579018,
            "midi": 63,
            "name": "D#4",
            "velocity": 0.8818897637795275,
            "duration": 2.3684220000000096,
            "ticks": 64416,
            "durationTicks": 864
          },
          {
            "time": 176.579018,
            "midi": 60,
            "name": "C4",
            "velocity": 0.9133858267716536,
            "duration": 2.3684220000000096,
            "ticks": 64416,
            "durationTicks": 864
          },
          {
            "time": 176.579018,
            "midi": 56,
            "name": "G#3",
            "velocity": 0.8818897637795275,
            "duration": 2.3684220000000096,
            "ticks": 64416,
            "durationTicks": 864
          },
          {
            "time": 176.579018,
            "midi": 53,
            "name": "F3",
            "velocity": 0.9133858267716536,
            "duration": 2.3684220000000096,
            "ticks": 64416,
            "durationTicks": 864
          },
          {
            "time": 178.94744,
            "midi": 58,
            "name": "A#3",
            "velocity": 0.9763779527559056,
            "duration": 2.1052640000000054,
            "ticks": 65280,
            "durationTicks": 768
          },
          {
            "time": 178.94744,
            "midi": 61,
            "name": "C#4",
            "velocity": 0.9763779527559056,
            "duration": 2.1052640000000054,
            "ticks": 65280,
            "durationTicks": 768
          },
          {
            "time": 178.94744,
            "midi": 54,
            "name": "F#3",
            "velocity": 0.8818897637795275,
            "duration": 2.1052640000000054,
            "ticks": 65280,
            "durationTicks": 768
          },
          {
            "time": 181.052704,
            "midi": 65,
            "name": "F4",
            "velocity": 0.9133858267716536,
            "duration": 0.7894739999999842,
            "ticks": 66048,
            "durationTicks": 288
          },
          {
            "time": 181.052704,
            "midi": 61,
            "name": "C#4",
            "velocity": 0.9763779527559056,
            "duration": 0.7894739999999842,
            "ticks": 66048,
            "durationTicks": 288
          },
          {
            "time": 181.052704,
            "midi": 58,
            "name": "A#3",
            "velocity": 0.9763779527559056,
            "duration": 0.7894739999999842,
            "ticks": 66048,
            "durationTicks": 288
          },
          {
            "time": 181.052704,
            "midi": 54,
            "name": "F#3",
            "velocity": 0.9763779527559056,
            "duration": 0.7894739999999842,
            "ticks": 66048,
            "durationTicks": 288
          },
          {
            "time": 181.842178,
            "midi": 56,
            "name": "G#3",
            "velocity": 0.9763779527559056,
            "duration": 1.315790000000021,
            "ticks": 66336,
            "durationTicks": 480
          },
          {
            "time": 181.842178,
            "midi": 63,
            "name": "D#4",
            "velocity": 0.8818897637795275,
            "duration": 1.315790000000021,
            "ticks": 66336,
            "durationTicks": 480
          },
          {
            "time": 181.842178,
            "midi": 53,
            "name": "F3",
            "velocity": 0.9133858267716536,
            "duration": 1.315790000000021,
            "ticks": 66336,
            "durationTicks": 480
          },
          {
            "time": 181.842178,
            "midi": 60,
            "name": "C4",
            "velocity": 0.9133858267716536,
            "duration": 1.315790000000021,
            "ticks": 66336,
            "durationTicks": 480
          },
          {
            "time": 183.157968,
            "midi": 65,
            "name": "F4",
            "velocity": 0.7874015748031497,
            "duration": 0.7894739999999842,
            "ticks": 66816,
            "durationTicks": 288
          },
          {
            "time": 183.157968,
            "midi": 54,
            "name": "F#3",
            "velocity": 0.7480314960629921,
            "duration": 0.7894739999999842,
            "ticks": 66816,
            "durationTicks": 288
          },
          {
            "time": 183.157968,
            "midi": 58,
            "name": "A#3",
            "velocity": 0.8818897637795275,
            "duration": 0.7894739999999842,
            "ticks": 66816,
            "durationTicks": 288
          },
          {
            "time": 183.157968,
            "midi": 61,
            "name": "C#4",
            "velocity": 0.8818897637795275,
            "duration": 0.7894739999999842,
            "ticks": 66816,
            "durationTicks": 288
          },
          {
            "time": 183.947442,
            "midi": 63,
            "name": "D#4",
            "velocity": 0.9763779527559056,
            "duration": 1.315790000000021,
            "ticks": 67104,
            "durationTicks": 480
          },
          {
            "time": 183.947442,
            "midi": 60,
            "name": "C4",
            "velocity": 0.7874015748031497,
            "duration": 1.315790000000021,
            "ticks": 67104,
            "durationTicks": 480
          },
          {
            "time": 183.947442,
            "midi": 56,
            "name": "G#3",
            "velocity": 0.6299212598425197,
            "duration": 1.315790000000021,
            "ticks": 67104,
            "durationTicks": 480
          },
          {
            "time": 185.26323200000002,
            "midi": 60,
            "name": "C4",
            "velocity": 0.7874015748031497,
            "duration": 0.7894739999999842,
            "ticks": 67584,
            "durationTicks": 288
          },
          {
            "time": 185.26323200000002,
            "midi": 56,
            "name": "G#3",
            "velocity": 0.7480314960629921,
            "duration": 0.7894739999999842,
            "ticks": 67584,
            "durationTicks": 288
          },
          {
            "time": 185.26323200000002,
            "midi": 63,
            "name": "D#4",
            "velocity": 0.8818897637795275,
            "duration": 0.7894739999999842,
            "ticks": 67584,
            "durationTicks": 288
          },
          {
            "time": 186.052706,
            "midi": 65,
            "name": "F4",
            "velocity": 0.7874015748031497,
            "duration": 1.3157899999999927,
            "ticks": 67872,
            "durationTicks": 480
          },
          {
            "time": 186.052706,
            "midi": 58,
            "name": "A#3",
            "velocity": 0.8818897637795275,
            "duration": 1.3157899999999927,
            "ticks": 67872,
            "durationTicks": 480
          },
          {
            "time": 186.052706,
            "midi": 61,
            "name": "C#4",
            "velocity": 0.8818897637795275,
            "duration": 1.3157899999999927,
            "ticks": 67872,
            "durationTicks": 480
          },
          {
            "time": 187.368496,
            "midi": 65,
            "name": "F4",
            "velocity": 0.7874015748031497,
            "duration": 0.7894740000000127,
            "ticks": 68352,
            "durationTicks": 288
          },
          {
            "time": 187.368496,
            "midi": 54,
            "name": "F#3",
            "velocity": 0.7480314960629921,
            "duration": 0.7894740000000127,
            "ticks": 68352,
            "durationTicks": 288
          },
          {
            "time": 187.368496,
            "midi": 58,
            "name": "A#3",
            "velocity": 0.8818897637795275,
            "duration": 0.7894740000000127,
            "ticks": 68352,
            "durationTicks": 288
          },
          {
            "time": 187.368496,
            "midi": 61,
            "name": "C#4",
            "velocity": 0.8818897637795275,
            "duration": 0.7894740000000127,
            "ticks": 68352,
            "durationTicks": 288
          },
          {
            "time": 188.15797,
            "midi": 63,
            "name": "D#4",
            "velocity": 0.9763779527559056,
            "duration": 1.3157899999999927,
            "ticks": 68640,
            "durationTicks": 480
          },
          {
            "time": 188.15797,
            "midi": 60,
            "name": "C4",
            "velocity": 0.7874015748031497,
            "duration": 1.3157899999999927,
            "ticks": 68640,
            "durationTicks": 480
          },
          {
            "time": 188.15797,
            "midi": 56,
            "name": "G#3",
            "velocity": 0.6299212598425197,
            "duration": 1.3157899999999927,
            "ticks": 68640,
            "durationTicks": 480
          },
          {
            "time": 189.47376,
            "midi": 60,
            "name": "C4",
            "velocity": 0.7874015748031497,
            "duration": 0.7894740000000127,
            "ticks": 69120,
            "durationTicks": 288
          },
          {
            "time": 189.47376,
            "midi": 56,
            "name": "G#3",
            "velocity": 0.7480314960629921,
            "duration": 0.7894740000000127,
            "ticks": 69120,
            "durationTicks": 288
          },
          {
            "time": 189.47376,
            "midi": 63,
            "name": "D#4",
            "velocity": 0.8818897637795275,
            "duration": 0.7894740000000127,
            "ticks": 69120,
            "durationTicks": 288
          },
          {
            "time": 190.263234,
            "midi": 65,
            "name": "F4",
            "velocity": 0.7874015748031497,
            "duration": 1.3157899999999927,
            "ticks": 69408,
            "durationTicks": 480
          },
          {
            "time": 190.263234,
            "midi": 58,
            "name": "A#3",
            "velocity": 0.8818897637795275,
            "duration": 1.3157899999999927,
            "ticks": 69408,
            "durationTicks": 480
          },
          {
            "time": 190.263234,
            "midi": 61,
            "name": "C#4",
            "velocity": 0.8818897637795275,
            "duration": 1.3157899999999927,
            "ticks": 69408,
            "durationTicks": 480
          },
          {
            "time": 191.579024,
            "midi": 65,
            "name": "F4",
            "velocity": 0.7874015748031497,
            "duration": 0.7894739999999842,
            "ticks": 69888,
            "durationTicks": 288
          },
          {
            "time": 191.579024,
            "midi": 54,
            "name": "F#3",
            "velocity": 0.7480314960629921,
            "duration": 0.7894739999999842,
            "ticks": 69888,
            "durationTicks": 288
          },
          {
            "time": 191.579024,
            "midi": 58,
            "name": "A#3",
            "velocity": 0.8818897637795275,
            "duration": 0.7894739999999842,
            "ticks": 69888,
            "durationTicks": 288
          },
          {
            "time": 191.579024,
            "midi": 61,
            "name": "C#4",
            "velocity": 0.8818897637795275,
            "duration": 0.7894739999999842,
            "ticks": 69888,
            "durationTicks": 288
          },
          {
            "time": 192.368498,
            "midi": 63,
            "name": "D#4",
            "velocity": 0.9763779527559056,
            "duration": 1.315790000000021,
            "ticks": 70176,
            "durationTicks": 480
          },
          {
            "time": 192.368498,
            "midi": 60,
            "name": "C4",
            "velocity": 0.7874015748031497,
            "duration": 1.315790000000021,
            "ticks": 70176,
            "durationTicks": 480
          },
          {
            "time": 192.368498,
            "midi": 56,
            "name": "G#3",
            "velocity": 0.6299212598425197,
            "duration": 1.315790000000021,
            "ticks": 70176,
            "durationTicks": 480
          },
          {
            "time": 193.684288,
            "midi": 60,
            "name": "C4",
            "velocity": 0.7874015748031497,
            "duration": 0.7894739999999842,
            "ticks": 70656,
            "durationTicks": 288
          },
          {
            "time": 193.684288,
            "midi": 56,
            "name": "G#3",
            "velocity": 0.7480314960629921,
            "duration": 0.7894739999999842,
            "ticks": 70656,
            "durationTicks": 288
          },
          {
            "time": 193.684288,
            "midi": 63,
            "name": "D#4",
            "velocity": 0.8818897637795275,
            "duration": 0.7894739999999842,
            "ticks": 70656,
            "durationTicks": 288
          },
          {
            "time": 194.473762,
            "midi": 65,
            "name": "F4",
            "velocity": 0.7874015748031497,
            "duration": 1.315790000000021,
            "ticks": 70944,
            "durationTicks": 480
          },
          {
            "time": 194.473762,
            "midi": 58,
            "name": "A#3",
            "velocity": 0.8818897637795275,
            "duration": 1.315790000000021,
            "ticks": 70944,
            "durationTicks": 480
          },
          {
            "time": 194.473762,
            "midi": 61,
            "name": "C#4",
            "velocity": 0.8818897637795275,
            "duration": 1.315790000000021,
            "ticks": 70944,
            "durationTicks": 480
          },
          {
            "time": 195.78955200000001,
            "midi": 61,
            "name": "C#4",
            "velocity": 1,
            "duration": 0.8251099791666547,
            "ticks": 71424,
            "durationTicks": 301
          },
          {
            "time": 195.78955200000001,
            "midi": 58,
            "name": "A#3",
            "velocity": 1,
            "duration": 0.6853072916666463,
            "ticks": 71424,
            "durationTicks": 250
          },
          {
            "time": 195.78955200000001,
            "midi": 54,
            "name": "F#3",
            "velocity": 1,
            "duration": 0.7017546666666306,
            "ticks": 71424,
            "durationTicks": 256
          },
          {
            "time": 196.579026,
            "midi": 56,
            "name": "G#3",
            "velocity": 1,
            "duration": 1.3157899999999927,
            "ticks": 71712,
            "durationTicks": 480
          },
          {
            "time": 196.579026,
            "midi": 63,
            "name": "D#4",
            "velocity": 1,
            "duration": 1.3157899999999927,
            "ticks": 71712,
            "durationTicks": 480
          },
          {
            "time": 196.579026,
            "midi": 60,
            "name": "C4",
            "velocity": 1,
            "duration": 1.3157899999999927,
            "ticks": 71712,
            "durationTicks": 480
          },
          {
            "time": 197.894816,
            "midi": 56,
            "name": "G#3",
            "velocity": 1,
            "duration": 0.5263160000000084,
            "ticks": 72192,
            "durationTicks": 192
          },
          {
            "time": 197.894816,
            "midi": 63,
            "name": "D#4",
            "velocity": 1,
            "duration": 0.5263160000000084,
            "ticks": 72192,
            "durationTicks": 192
          },
          {
            "time": 197.894816,
            "midi": 60,
            "name": "C4",
            "velocity": 1,
            "duration": 0.5263160000000084,
            "ticks": 72192,
            "durationTicks": 192
          },
          {
            "time": 198.421132,
            "midi": 65,
            "name": "F4",
            "velocity": 1,
            "duration": 1.578947999999997,
            "ticks": 72384,
            "durationTicks": 576
          },
          {
            "time": 198.421132,
            "midi": 61,
            "name": "C#4",
            "velocity": 1,
            "duration": 1.578947999999997,
            "ticks": 72384,
            "durationTicks": 576
          },
          {
            "time": 198.421132,
            "midi": 56,
            "name": "G#3",
            "velocity": 1,
            "duration": 1.578947999999997,
            "ticks": 72384,
            "durationTicks": 576
          },
          {
            "time": 200.00008,
            "midi": 65,
            "name": "F4",
            "velocity": 0.7874015748031497,
            "duration": 0.7894740000000127,
            "ticks": 72960,
            "durationTicks": 288
          },
          {
            "time": 200.00008,
            "midi": 54,
            "name": "F#3",
            "velocity": 0.7480314960629921,
            "duration": 0.7894740000000127,
            "ticks": 72960,
            "durationTicks": 288
          },
          {
            "time": 200.00008,
            "midi": 58,
            "name": "A#3",
            "velocity": 0.8818897637795275,
            "duration": 0.7894740000000127,
            "ticks": 72960,
            "durationTicks": 288
          },
          {
            "time": 200.00008,
            "midi": 61,
            "name": "C#4",
            "velocity": 0.8818897637795275,
            "duration": 0.7894740000000127,
            "ticks": 72960,
            "durationTicks": 288
          },
          {
            "time": 200.789554,
            "midi": 63,
            "name": "D#4",
            "velocity": 0.9763779527559056,
            "duration": 1.3157899999999927,
            "ticks": 73248,
            "durationTicks": 480
          },
          {
            "time": 200.789554,
            "midi": 60,
            "name": "C4",
            "velocity": 0.7874015748031497,
            "duration": 1.3157899999999927,
            "ticks": 73248,
            "durationTicks": 480
          },
          {
            "time": 200.789554,
            "midi": 56,
            "name": "G#3",
            "velocity": 0.6299212598425197,
            "duration": 1.3157899999999927,
            "ticks": 73248,
            "durationTicks": 480
          },
          {
            "time": 202.105344,
            "midi": 60,
            "name": "C4",
            "velocity": 0.7874015748031497,
            "duration": 0.7894740000000127,
            "ticks": 73728,
            "durationTicks": 288
          },
          {
            "time": 202.105344,
            "midi": 56,
            "name": "G#3",
            "velocity": 0.7480314960629921,
            "duration": 0.7894740000000127,
            "ticks": 73728,
            "durationTicks": 288
          },
          {
            "time": 202.105344,
            "midi": 63,
            "name": "D#4",
            "velocity": 0.8818897637795275,
            "duration": 0.7894740000000127,
            "ticks": 73728,
            "durationTicks": 288
          },
          {
            "time": 202.89481800000001,
            "midi": 65,
            "name": "F4",
            "velocity": 0.7874015748031497,
            "duration": 1.3157899999999927,
            "ticks": 74016,
            "durationTicks": 480
          },
          {
            "time": 202.89481800000001,
            "midi": 58,
            "name": "A#3",
            "velocity": 0.8818897637795275,
            "duration": 1.3157899999999927,
            "ticks": 74016,
            "durationTicks": 480
          },
          {
            "time": 202.89481800000001,
            "midi": 61,
            "name": "C#4",
            "velocity": 0.8818897637795275,
            "duration": 1.3157899999999927,
            "ticks": 74016,
            "durationTicks": 480
          },
          {
            "time": 204.210608,
            "midi": 65,
            "name": "F4",
            "velocity": 0.7874015748031497,
            "duration": 0.7894739999999842,
            "ticks": 74496,
            "durationTicks": 288
          },
          {
            "time": 204.210608,
            "midi": 54,
            "name": "F#3",
            "velocity": 0.7480314960629921,
            "duration": 0.7894739999999842,
            "ticks": 74496,
            "durationTicks": 288
          },
          {
            "time": 204.210608,
            "midi": 58,
            "name": "A#3",
            "velocity": 0.8818897637795275,
            "duration": 0.7894739999999842,
            "ticks": 74496,
            "durationTicks": 288
          },
          {
            "time": 204.210608,
            "midi": 61,
            "name": "C#4",
            "velocity": 0.8818897637795275,
            "duration": 0.7894739999999842,
            "ticks": 74496,
            "durationTicks": 288
          },
          {
            "time": 205.000082,
            "midi": 63,
            "name": "D#4",
            "velocity": 0.9763779527559056,
            "duration": 1.315790000000021,
            "ticks": 74784,
            "durationTicks": 480
          },
          {
            "time": 205.000082,
            "midi": 60,
            "name": "C4",
            "velocity": 0.7874015748031497,
            "duration": 1.315790000000021,
            "ticks": 74784,
            "durationTicks": 480
          },
          {
            "time": 205.000082,
            "midi": 56,
            "name": "G#3",
            "velocity": 0.6299212598425197,
            "duration": 1.315790000000021,
            "ticks": 74784,
            "durationTicks": 480
          },
          {
            "time": 206.315872,
            "midi": 60,
            "name": "C4",
            "velocity": 0.7874015748031497,
            "duration": 0.7894739999999842,
            "ticks": 75264,
            "durationTicks": 288
          },
          {
            "time": 206.315872,
            "midi": 56,
            "name": "G#3",
            "velocity": 0.7480314960629921,
            "duration": 0.7894739999999842,
            "ticks": 75264,
            "durationTicks": 288
          },
          {
            "time": 206.315872,
            "midi": 63,
            "name": "D#4",
            "velocity": 0.8818897637795275,
            "duration": 0.7894739999999842,
            "ticks": 75264,
            "durationTicks": 288
          },
          {
            "time": 207.105346,
            "midi": 65,
            "name": "F4",
            "velocity": 0.7874015748031497,
            "duration": 1.3157899999999927,
            "ticks": 75552,
            "durationTicks": 480
          },
          {
            "time": 207.105346,
            "midi": 58,
            "name": "A#3",
            "velocity": 0.8818897637795275,
            "duration": 1.3157899999999927,
            "ticks": 75552,
            "durationTicks": 480
          },
          {
            "time": 207.105346,
            "midi": 61,
            "name": "C#4",
            "velocity": 0.8818897637795275,
            "duration": 1.3157899999999927,
            "ticks": 75552,
            "durationTicks": 480
          },
          {
            "time": 208.421136,
            "midi": 65,
            "name": "F4",
            "velocity": 0.7874015748031497,
            "duration": 0.7894740000000127,
            "ticks": 76032,
            "durationTicks": 288
          },
          {
            "time": 208.421136,
            "midi": 54,
            "name": "F#3",
            "velocity": 0.7480314960629921,
            "duration": 0.7894740000000127,
            "ticks": 76032,
            "durationTicks": 288
          },
          {
            "time": 208.421136,
            "midi": 58,
            "name": "A#3",
            "velocity": 0.8818897637795275,
            "duration": 0.7894740000000127,
            "ticks": 76032,
            "durationTicks": 288
          },
          {
            "time": 208.421136,
            "midi": 61,
            "name": "C#4",
            "velocity": 0.8818897637795275,
            "duration": 0.7894740000000127,
            "ticks": 76032,
            "durationTicks": 288
          },
          {
            "time": 209.21061,
            "midi": 63,
            "name": "D#4",
            "velocity": 0.9763779527559056,
            "duration": 1.3157899999999927,
            "ticks": 76320,
            "durationTicks": 480
          },
          {
            "time": 209.21061,
            "midi": 60,
            "name": "C4",
            "velocity": 0.7874015748031497,
            "duration": 1.3157899999999927,
            "ticks": 76320,
            "durationTicks": 480
          },
          {
            "time": 209.21061,
            "midi": 56,
            "name": "G#3",
            "velocity": 0.6299212598425197,
            "duration": 1.3157899999999927,
            "ticks": 76320,
            "durationTicks": 480
          },
          {
            "time": 210.5264,
            "midi": 60,
            "name": "C4",
            "velocity": 0.7874015748031497,
            "duration": 0.7894740000000127,
            "ticks": 76800,
            "durationTicks": 288
          },
          {
            "time": 210.5264,
            "midi": 56,
            "name": "G#3",
            "velocity": 0.7480314960629921,
            "duration": 0.7894740000000127,
            "ticks": 76800,
            "durationTicks": 288
          },
          {
            "time": 210.5264,
            "midi": 63,
            "name": "D#4",
            "velocity": 0.8818897637795275,
            "duration": 0.7894740000000127,
            "ticks": 76800,
            "durationTicks": 288
          },
          {
            "time": 211.315874,
            "midi": 65,
            "name": "F4",
            "velocity": 0.7874015748031497,
            "duration": 1.3157899999999927,
            "ticks": 77088,
            "durationTicks": 480
          },
          {
            "time": 211.315874,
            "midi": 58,
            "name": "A#3",
            "velocity": 0.8818897637795275,
            "duration": 1.3157899999999927,
            "ticks": 77088,
            "durationTicks": 480
          },
          {
            "time": 211.315874,
            "midi": 61,
            "name": "C#4",
            "velocity": 0.8818897637795275,
            "duration": 1.3157899999999927,
            "ticks": 77088,
            "durationTicks": 480
          },
          {
            "time": 212.631664,
            "midi": 61,
            "name": "C#4",
            "velocity": 1,
            "duration": 0.8251099791666547,
            "ticks": 77568,
            "durationTicks": 301
          },
          {
            "time": 212.631664,
            "midi": 58,
            "name": "A#3",
            "velocity": 1,
            "duration": 0.6853072916666463,
            "ticks": 77568,
            "durationTicks": 250
          },
          {
            "time": 212.631664,
            "midi": 54,
            "name": "F#3",
            "velocity": 1,
            "duration": 0.701754666666659,
            "ticks": 77568,
            "durationTicks": 256
          },
          {
            "time": 213.421138,
            "midi": 56,
            "name": "G#3",
            "velocity": 1,
            "duration": 1.3157899999999927,
            "ticks": 77856,
            "durationTicks": 480
          },
          {
            "time": 213.421138,
            "midi": 63,
            "name": "D#4",
            "velocity": 1,
            "duration": 1.3157899999999927,
            "ticks": 77856,
            "durationTicks": 480
          },
          {
            "time": 213.421138,
            "midi": 60,
            "name": "C4",
            "velocity": 1,
            "duration": 1.3157899999999927,
            "ticks": 77856,
            "durationTicks": 480
          },
          {
            "time": 214.736928,
            "midi": 56,
            "name": "G#3",
            "velocity": 1,
            "duration": 0.5263160000000084,
            "ticks": 78336,
            "durationTicks": 192
          },
          {
            "time": 214.736928,
            "midi": 63,
            "name": "D#4",
            "velocity": 1,
            "duration": 0.5263160000000084,
            "ticks": 78336,
            "durationTicks": 192
          },
          {
            "time": 214.736928,
            "midi": 60,
            "name": "C4",
            "velocity": 1,
            "duration": 0.5263160000000084,
            "ticks": 78336,
            "durationTicks": 192
          },
          {
            "time": 215.26324400000001,
            "midi": 65,
            "name": "F4",
            "velocity": 1,
            "duration": 1.578947999999997,
            "ticks": 78528,
            "durationTicks": 576
          },
          {
            "time": 215.26324400000001,
            "midi": 61,
            "name": "C#4",
            "velocity": 1,
            "duration": 1.578947999999997,
            "ticks": 78528,
            "durationTicks": 576
          },
          {
            "time": 215.26324400000001,
            "midi": 56,
            "name": "G#3",
            "velocity": 1,
            "duration": 1.578947999999997,
            "ticks": 78528,
            "durationTicks": 576
          },
          {
            "time": 218.947456,
            "midi": 73,
            "name": "C#5",
            "velocity": 0.7874015748031497,
            "duration": 0.2631580000000042,
            "ticks": 79872,
            "durationTicks": 96
          },
          {
            "time": 218.947456,
            "midi": 68,
            "name": "G#4",
            "velocity": 0.7874015748031497,
            "duration": 0.2631580000000042,
            "ticks": 79872,
            "durationTicks": 96
          },
          {
            "time": 218.947456,
            "midi": 65,
            "name": "F4",
            "velocity": 0.8818897637795275,
            "duration": 0.2631580000000042,
            "ticks": 79872,
            "durationTicks": 96
          },
          {
            "time": 219.342193,
            "midi": 73,
            "name": "C#5",
            "velocity": 0.9133858267716536,
            "duration": 0.3947369999999921,
            "ticks": 80016,
            "durationTicks": 144
          },
          {
            "time": 219.342193,
            "midi": 68,
            "name": "G#4",
            "velocity": 0.9133858267716536,
            "duration": 0.3947369999999921,
            "ticks": 80016,
            "durationTicks": 144
          },
          {
            "time": 219.342193,
            "midi": 65,
            "name": "F4",
            "velocity": 0.6299212598425197,
            "duration": 0.3947369999999921,
            "ticks": 80016,
            "durationTicks": 144
          },
          {
            "time": 219.73693,
            "midi": 63,
            "name": "D#4",
            "velocity": 0.7874015748031497,
            "duration": 0.1315789999999879,
            "ticks": 80160,
            "durationTicks": 48
          },
          {
            "time": 219.73693,
            "midi": 68,
            "name": "G#4",
            "velocity": 0.9133858267716536,
            "duration": 0.1315789999999879,
            "ticks": 80160,
            "durationTicks": 48
          },
          {
            "time": 219.73693,
            "midi": 72,
            "name": "C5",
            "velocity": 0.6299212598425197,
            "duration": 0.1315789999999879,
            "ticks": 80160,
            "durationTicks": 48
          },
          {
            "time": 223.157984,
            "midi": 73,
            "name": "C#5",
            "velocity": 0.7874015748031497,
            "duration": 0.2631580000000042,
            "ticks": 81408,
            "durationTicks": 96
          },
          {
            "time": 223.157984,
            "midi": 68,
            "name": "G#4",
            "velocity": 0.7874015748031497,
            "duration": 0.2631580000000042,
            "ticks": 81408,
            "durationTicks": 96
          },
          {
            "time": 223.157984,
            "midi": 65,
            "name": "F4",
            "velocity": 0.8818897637795275,
            "duration": 0.2631580000000042,
            "ticks": 81408,
            "durationTicks": 96
          },
          {
            "time": 223.552721,
            "midi": 73,
            "name": "C#5",
            "velocity": 0.9133858267716536,
            "duration": 0.39473700000002054,
            "ticks": 81552,
            "durationTicks": 144
          },
          {
            "time": 223.552721,
            "midi": 68,
            "name": "G#4",
            "velocity": 0.9133858267716536,
            "duration": 0.39473700000002054,
            "ticks": 81552,
            "durationTicks": 144
          },
          {
            "time": 223.552721,
            "midi": 65,
            "name": "F4",
            "velocity": 0.6299212598425197,
            "duration": 0.39473700000002054,
            "ticks": 81552,
            "durationTicks": 144
          },
          {
            "time": 223.947458,
            "midi": 63,
            "name": "D#4",
            "velocity": 0.7874015748031497,
            "duration": 0.1315789999999879,
            "ticks": 81696,
            "durationTicks": 48
          },
          {
            "time": 223.947458,
            "midi": 68,
            "name": "G#4",
            "velocity": 0.9133858267716536,
            "duration": 0.1315789999999879,
            "ticks": 81696,
            "durationTicks": 48
          },
          {
            "time": 223.947458,
            "midi": 72,
            "name": "C5",
            "velocity": 0.6299212598425197,
            "duration": 0.1315789999999879,
            "ticks": 81696,
            "durationTicks": 48
          },
          {
            "time": 227.368512,
            "midi": 73,
            "name": "C#5",
            "velocity": 0.7874015748031497,
            "duration": 0.2631580000000042,
            "ticks": 82944,
            "durationTicks": 96
          },
          {
            "time": 227.368512,
            "midi": 68,
            "name": "G#4",
            "velocity": 0.7874015748031497,
            "duration": 0.2631580000000042,
            "ticks": 82944,
            "durationTicks": 96
          },
          {
            "time": 227.368512,
            "midi": 65,
            "name": "F4",
            "velocity": 0.8818897637795275,
            "duration": 0.2631580000000042,
            "ticks": 82944,
            "durationTicks": 96
          },
          {
            "time": 227.763249,
            "midi": 73,
            "name": "C#5",
            "velocity": 0.9133858267716536,
            "duration": 0.3947369999999921,
            "ticks": 83088,
            "durationTicks": 144
          },
          {
            "time": 227.763249,
            "midi": 68,
            "name": "G#4",
            "velocity": 0.9133858267716536,
            "duration": 0.3947369999999921,
            "ticks": 83088,
            "durationTicks": 144
          },
          {
            "time": 227.763249,
            "midi": 65,
            "name": "F4",
            "velocity": 0.6299212598425197,
            "duration": 0.3947369999999921,
            "ticks": 83088,
            "durationTicks": 144
          },
          {
            "time": 228.157986,
            "midi": 63,
            "name": "D#4",
            "velocity": 0.7874015748031497,
            "duration": 0.13157900000001632,
            "ticks": 83232,
            "durationTicks": 48
          },
          {
            "time": 228.157986,
            "midi": 68,
            "name": "G#4",
            "velocity": 0.9133858267716536,
            "duration": 0.13157900000001632,
            "ticks": 83232,
            "durationTicks": 48
          },
          {
            "time": 228.157986,
            "midi": 72,
            "name": "C5",
            "velocity": 0.6299212598425197,
            "duration": 0.13157900000001632,
            "ticks": 83232,
            "durationTicks": 48
          },
          {
            "time": 231.57904,
            "midi": 73,
            "name": "C#5",
            "velocity": 0.7874015748031497,
            "duration": 0.2631580000000042,
            "ticks": 84480,
            "durationTicks": 96
          },
          {
            "time": 231.57904,
            "midi": 68,
            "name": "G#4",
            "velocity": 0.7874015748031497,
            "duration": 0.2631580000000042,
            "ticks": 84480,
            "durationTicks": 96
          },
          {
            "time": 231.57904,
            "midi": 65,
            "name": "F4",
            "velocity": 0.8818897637795275,
            "duration": 0.2631580000000042,
            "ticks": 84480,
            "durationTicks": 96
          },
          {
            "time": 231.973777,
            "midi": 73,
            "name": "C#5",
            "velocity": 0.9133858267716536,
            "duration": 0.3947369999999921,
            "ticks": 84624,
            "durationTicks": 144
          },
          {
            "time": 231.973777,
            "midi": 68,
            "name": "G#4",
            "velocity": 0.9133858267716536,
            "duration": 0.3947369999999921,
            "ticks": 84624,
            "durationTicks": 144
          },
          {
            "time": 231.973777,
            "midi": 65,
            "name": "F4",
            "velocity": 0.6299212598425197,
            "duration": 0.3947369999999921,
            "ticks": 84624,
            "durationTicks": 144
          },
          {
            "time": 232.368514,
            "midi": 63,
            "name": "D#4",
            "velocity": 0.7874015748031497,
            "duration": 0.1315789999999879,
            "ticks": 84768,
            "durationTicks": 48
          },
          {
            "time": 232.368514,
            "midi": 68,
            "name": "G#4",
            "velocity": 0.9133858267716536,
            "duration": 0.1315789999999879,
            "ticks": 84768,
            "durationTicks": 48
          },
          {
            "time": 232.368514,
            "midi": 72,
            "name": "C5",
            "velocity": 0.6299212598425197,
            "duration": 0.1315789999999879,
            "ticks": 84768,
            "durationTicks": 48
          },
          {
            "time": 235.789568,
            "midi": 73,
            "name": "C#5",
            "velocity": 0.7874015748031497,
            "duration": 0.2631580000000042,
            "ticks": 86016,
            "durationTicks": 96
          },
          {
            "time": 235.789568,
            "midi": 68,
            "name": "G#4",
            "velocity": 0.7874015748031497,
            "duration": 0.2631580000000042,
            "ticks": 86016,
            "durationTicks": 96
          },
          {
            "time": 235.789568,
            "midi": 65,
            "name": "F4",
            "velocity": 0.8818897637795275,
            "duration": 0.2631580000000042,
            "ticks": 86016,
            "durationTicks": 96
          },
          {
            "time": 236.184305,
            "midi": 73,
            "name": "C#5",
            "velocity": 0.9133858267716536,
            "duration": 0.39473700000002054,
            "ticks": 86160,
            "durationTicks": 144
          },
          {
            "time": 236.184305,
            "midi": 68,
            "name": "G#4",
            "velocity": 0.9133858267716536,
            "duration": 0.39473700000002054,
            "ticks": 86160,
            "durationTicks": 144
          },
          {
            "time": 236.184305,
            "midi": 65,
            "name": "F4",
            "velocity": 0.6299212598425197,
            "duration": 0.39473700000002054,
            "ticks": 86160,
            "durationTicks": 144
          },
          {
            "time": 236.57904200000002,
            "midi": 63,
            "name": "D#4",
            "velocity": 0.7874015748031497,
            "duration": 0.1315789999999879,
            "ticks": 86304,
            "durationTicks": 48
          },
          {
            "time": 236.57904200000002,
            "midi": 68,
            "name": "G#4",
            "velocity": 0.9133858267716536,
            "duration": 0.1315789999999879,
            "ticks": 86304,
            "durationTicks": 48
          },
          {
            "time": 236.57904200000002,
            "midi": 72,
            "name": "C5",
            "velocity": 0.6299212598425197,
            "duration": 0.1315789999999879,
            "ticks": 86304,
            "durationTicks": 48
          },
          {
            "time": 240.000096,
            "midi": 73,
            "name": "C#5",
            "velocity": 0.7874015748031497,
            "duration": 0.2631579999999758,
            "ticks": 87552,
            "durationTicks": 96
          },
          {
            "time": 240.000096,
            "midi": 68,
            "name": "G#4",
            "velocity": 0.7874015748031497,
            "duration": 0.2631579999999758,
            "ticks": 87552,
            "durationTicks": 96
          },
          {
            "time": 240.000096,
            "midi": 65,
            "name": "F4",
            "velocity": 0.8818897637795275,
            "duration": 0.2631579999999758,
            "ticks": 87552,
            "durationTicks": 96
          },
          {
            "time": 240.394833,
            "midi": 73,
            "name": "C#5",
            "velocity": 0.9133858267716536,
            "duration": 0.3947369999999921,
            "ticks": 87696,
            "durationTicks": 144
          },
          {
            "time": 240.394833,
            "midi": 68,
            "name": "G#4",
            "velocity": 0.9133858267716536,
            "duration": 0.3947369999999921,
            "ticks": 87696,
            "durationTicks": 144
          },
          {
            "time": 240.394833,
            "midi": 65,
            "name": "F4",
            "velocity": 0.6299212598425197,
            "duration": 0.3947369999999921,
            "ticks": 87696,
            "durationTicks": 144
          },
          {
            "time": 240.78957,
            "midi": 63,
            "name": "D#4",
            "velocity": 0.7874015748031497,
            "duration": 0.13157900000001632,
            "ticks": 87840,
            "durationTicks": 48
          },
          {
            "time": 240.78957,
            "midi": 68,
            "name": "G#4",
            "velocity": 0.9133858267716536,
            "duration": 0.13157900000001632,
            "ticks": 87840,
            "durationTicks": 48
          },
          {
            "time": 240.78957,
            "midi": 72,
            "name": "C5",
            "velocity": 0.6299212598425197,
            "duration": 0.13157900000001632,
            "ticks": 87840,
            "durationTicks": 48
          }
        ],
        "controlChanges": {
          "0": [
            {
              "number": 0,
              "value": 0,
              "time": 1.5844304583333333,
              "ticks": 578
            }
          ],
          "1": [
            {
              "number": 1,
              "value": 0,
              "time": 0.021929833333333332,
              "ticks": 8
            }
          ],
          "6": [
            {
              "number": 6,
              "value": 0.09448818897637795,
              "time": 0.016447375,
              "ticks": 6
            }
          ],
          "7": [
            {
              "number": 7,
              "value": 0.6299212598425197,
              "time": 1.5899129166666668,
              "ticks": 580
            }
          ],
          "10": [
            {
              "number": 10,
              "value": 0.5039370078740157,
              "time": 1.595395375,
              "ticks": 582
            }
          ],
          "11": [
            {
              "number": 11,
              "value": 1,
              "time": 0.019188604166666668,
              "ticks": 7
            },
            {
              "number": 11,
              "value": 1,
              "time": 0.027412291666666668,
              "ticks": 10
            },
            {
              "number": 11,
              "value": 1,
              "time": 1.6008778333333333,
              "ticks": 584
            }
          ],
          "32": [
            {
              "number": 32,
              "value": 0,
              "time": 1.5844304583333333,
              "ticks": 578
            }
          ],
          "64": [
            {
              "number": 64,
              "value": 0,
              "time": 0.0082236875,
              "ticks": 3
            }
          ],
          "67": [
            {
              "number": 67,
              "value": 0,
              "time": 0.005482458333333333,
              "ticks": 2
            }
          ],
          "91": [
            {
              "number": 91,
              "value": 0.5039370078740157,
              "time": 1.6063602916666668,
              "ticks": 586
            }
          ],
          "93": [
            {
              "number": 93,
              "value": 0.5039370078740157,
              "time": 1.61184275,
              "ticks": 588
            }
          ],
          "100": [
            {
              "number": 100,
              "value": 0,
              "time": 0.010964916666666666,
              "ticks": 4
            }
          ],
          "101": [
            {
              "number": 101,
              "value": 0,
              "time": 0.013706145833333334,
              "ticks": 5
            }
          ],
          "121": [
            {
              "number": 121,
              "value": 0,
              "time": 0,
              "ticks": 0
            }
          ],
          "123": [
            {
              "number": 123,
              "value": 0,
              "time": 244.20514154166665,
              "ticks": 89086
            }
          ]
        }
      },
      {
        "name": "Electric Bass (finger)",
        "channel": 0,
        "instrument": {
          "number": 33,
          "name": "electric bass (finger)",
          "family": "bass"
        },
        "notes": [
          {
            "time": 5.7894760000000005,
            "midi": 34,
            "name": "A#1",
            "velocity": 0.9291338582677166,
            "duration": 0.15076760416666612,
            "ticks": 2112,
            "durationTicks": 55
          },
          {
            "time": 5.921055,
            "midi": 32,
            "name": "G#1",
            "velocity": 0.9291338582677166,
            "duration": 0.1260965416666675,
            "ticks": 2160,
            "durationTicks": 46
          },
          {
            "time": 6.052634,
            "midi": 30,
            "name": "F#1",
            "velocity": 0.9291338582677166,
            "duration": 0.10416670833333264,
            "ticks": 2208,
            "durationTicks": 38
          },
          {
            "time": 6.184213,
            "midi": 29,
            "name": "F1",
            "velocity": 0.9291338582677166,
            "duration": 0.12061408333333379,
            "ticks": 2256,
            "durationTicks": 44
          },
          {
            "time": 6.315792,
            "midi": 27,
            "name": "D#1",
            "velocity": 0.9291338582677166,
            "duration": 0.09320179166666698,
            "ticks": 2304,
            "durationTicks": 34
          },
          {
            "time": 6.57895,
            "midi": 27,
            "name": "D#1",
            "velocity": 0.9291338582677166,
            "duration": 0.09320179166666698,
            "ticks": 2400,
            "durationTicks": 34
          },
          {
            "time": 6.710529,
            "midi": 27,
            "name": "D#1",
            "velocity": 0.9291338582677166,
            "duration": 0.09320179166666698,
            "ticks": 2448,
            "durationTicks": 34
          },
          {
            "time": 6.973687,
            "midi": 36,
            "name": "C2",
            "velocity": 0.9291338582677166,
            "duration": 0.09320179166666698,
            "ticks": 2544,
            "durationTicks": 34
          },
          {
            "time": 7.105266,
            "midi": 34,
            "name": "A#1",
            "velocity": 0.9291338582677166,
            "duration": 0.09320179166666698,
            "ticks": 2592,
            "durationTicks": 34
          },
          {
            "time": 7.368424,
            "midi": 32,
            "name": "G#1",
            "velocity": 0.9291338582677166,
            "duration": 0.09320179166666698,
            "ticks": 2688,
            "durationTicks": 34
          },
          {
            "time": 7.631582,
            "midi": 32,
            "name": "G#1",
            "velocity": 0.9291338582677166,
            "duration": 0.09320179166666698,
            "ticks": 2784,
            "durationTicks": 34
          },
          {
            "time": 8.157898,
            "midi": 27,
            "name": "D#1",
            "velocity": 0.9291338582677166,
            "duration": 0.09320179166666698,
            "ticks": 2976,
            "durationTicks": 34
          },
          {
            "time": 8.289477,
            "midi": 32,
            "name": "G#1",
            "velocity": 0.9291338582677166,
            "duration": 0.09320179166666698,
            "ticks": 3024,
            "durationTicks": 34
          },
          {
            "time": 8.421056,
            "midi": 29,
            "name": "F1",
            "velocity": 0.9291338582677166,
            "duration": 0.0932017916666652,
            "ticks": 3072,
            "durationTicks": 34
          },
          {
            "time": 8.684214,
            "midi": 29,
            "name": "F1",
            "velocity": 0.9291338582677166,
            "duration": 0.0932017916666652,
            "ticks": 3168,
            "durationTicks": 34
          },
          {
            "time": 8.815793,
            "midi": 36,
            "name": "C2",
            "velocity": 0.9291338582677166,
            "duration": 0.09320179166666698,
            "ticks": 3216,
            "durationTicks": 34
          },
          {
            "time": 9.078951,
            "midi": 36,
            "name": "C2",
            "velocity": 0.9291338582677166,
            "duration": 0.09320179166666698,
            "ticks": 3312,
            "durationTicks": 34
          },
          {
            "time": 9.21053,
            "midi": 34,
            "name": "A#1",
            "velocity": 0.9291338582677166,
            "duration": 0.0932017916666652,
            "ticks": 3360,
            "durationTicks": 34
          },
          {
            "time": 9.736846,
            "midi": 34,
            "name": "A#1",
            "velocity": 0.9291338582677166,
            "duration": 0.09320179166666698,
            "ticks": 3552,
            "durationTicks": 34
          },
          {
            "time": 9.868425,
            "midi": 34,
            "name": "A#1",
            "velocity": 0.9291338582677166,
            "duration": 0.0932017916666652,
            "ticks": 3600,
            "durationTicks": 34
          },
          {
            "time": 10.131583000000001,
            "midi": 36,
            "name": "C2",
            "velocity": 0.9291338582677166,
            "duration": 0.0932017916666652,
            "ticks": 3696,
            "durationTicks": 34
          },
          {
            "time": 10.263162,
            "midi": 34,
            "name": "A#1",
            "velocity": 0.9291338582677166,
            "duration": 0.09320179166666698,
            "ticks": 3744,
            "durationTicks": 34
          },
          {
            "time": 10.52632,
            "midi": 27,
            "name": "D#1",
            "velocity": 0.9291338582677166,
            "duration": 0.0932017916666652,
            "ticks": 3840,
            "durationTicks": 34
          },
          {
            "time": 10.789478,
            "midi": 27,
            "name": "D#1",
            "velocity": 0.9291338582677166,
            "duration": 0.0932017916666652,
            "ticks": 3936,
            "durationTicks": 34
          },
          {
            "time": 10.921057,
            "midi": 36,
            "name": "C2",
            "velocity": 0.9291338582677166,
            "duration": 0.09320179166666698,
            "ticks": 3984,
            "durationTicks": 34
          },
          {
            "time": 11.184215,
            "midi": 36,
            "name": "C2",
            "velocity": 0.9291338582677166,
            "duration": 0.09320179166666698,
            "ticks": 4080,
            "durationTicks": 34
          },
          {
            "time": 11.315794,
            "midi": 34,
            "name": "A#1",
            "velocity": 0.9291338582677166,
            "duration": 0.0932017916666652,
            "ticks": 4128,
            "durationTicks": 34
          },
          {
            "time": 11.578952000000001,
            "midi": 32,
            "name": "G#1",
            "velocity": 0.9291338582677166,
            "duration": 0.0932017916666652,
            "ticks": 4224,
            "durationTicks": 34
          },
          {
            "time": 11.84211,
            "midi": 32,
            "name": "G#1",
            "velocity": 0.9291338582677166,
            "duration": 0.09320179166666698,
            "ticks": 4320,
            "durationTicks": 34
          },
          {
            "time": 12.368426,
            "midi": 27,
            "name": "D#1",
            "velocity": 0.9291338582677166,
            "duration": 0.09320179166666698,
            "ticks": 4512,
            "durationTicks": 34
          },
          {
            "time": 12.500005,
            "midi": 27,
            "name": "D#1",
            "velocity": 0.9291338582677166,
            "duration": 0.09320179166666698,
            "ticks": 4560,
            "durationTicks": 34
          },
          {
            "time": 12.631584,
            "midi": 29,
            "name": "F1",
            "velocity": 0.9291338582677166,
            "duration": 0.0932017916666652,
            "ticks": 4608,
            "durationTicks": 34
          },
          {
            "time": 12.894742,
            "midi": 29,
            "name": "F1",
            "velocity": 0.9291338582677166,
            "duration": 0.0932017916666652,
            "ticks": 4704,
            "durationTicks": 34
          },
          {
            "time": 13.026321,
            "midi": 29,
            "name": "F1",
            "velocity": 0.9291338582677166,
            "duration": 0.09320179166666698,
            "ticks": 4752,
            "durationTicks": 34
          },
          {
            "time": 13.289479,
            "midi": 36,
            "name": "C2",
            "velocity": 0.9291338582677166,
            "duration": 0.09320179166666698,
            "ticks": 4848,
            "durationTicks": 34
          },
          {
            "time": 13.421058,
            "midi": 34,
            "name": "A#1",
            "velocity": 0.9291338582677166,
            "duration": 0.0932017916666652,
            "ticks": 4896,
            "durationTicks": 34
          },
          {
            "time": 13.947374,
            "midi": 32,
            "name": "G#1",
            "velocity": 0.9291338582677166,
            "duration": 0.09320179166666698,
            "ticks": 5088,
            "durationTicks": 34
          },
          {
            "time": 14.210532,
            "midi": 37,
            "name": "C#2",
            "velocity": 0.9291338582677166,
            "duration": 0.0932017916666652,
            "ticks": 5184,
            "durationTicks": 34
          },
          {
            "time": 14.342111000000001,
            "midi": 34,
            "name": "A#1",
            "velocity": 0.9291338582677166,
            "duration": 0.0932017916666652,
            "ticks": 5232,
            "durationTicks": 34
          },
          {
            "time": 14.605269,
            "midi": 37,
            "name": "C#2",
            "velocity": 0.9291338582677166,
            "duration": 0.09320179166666698,
            "ticks": 5328,
            "durationTicks": 34
          },
          {
            "time": 14.736848,
            "midi": 27,
            "name": "D#1",
            "velocity": 0.9291338582677166,
            "duration": 0.0932017916666652,
            "ticks": 5376,
            "durationTicks": 34
          },
          {
            "time": 15.000006,
            "midi": 27,
            "name": "D#1",
            "velocity": 0.9291338582677166,
            "duration": 0.0932017916666652,
            "ticks": 5472,
            "durationTicks": 34
          },
          {
            "time": 15.131585,
            "midi": 27,
            "name": "D#1",
            "velocity": 0.9291338582677166,
            "duration": 0.09320179166666698,
            "ticks": 5520,
            "durationTicks": 34
          },
          {
            "time": 15.394743,
            "midi": 36,
            "name": "C2",
            "velocity": 0.9291338582677166,
            "duration": 0.09320179166666698,
            "ticks": 5616,
            "durationTicks": 34
          },
          {
            "time": 15.526322,
            "midi": 34,
            "name": "A#1",
            "velocity": 0.9291338582677166,
            "duration": 0.0932017916666652,
            "ticks": 5664,
            "durationTicks": 34
          },
          {
            "time": 15.789480000000001,
            "midi": 32,
            "name": "G#1",
            "velocity": 0.9291338582677166,
            "duration": 0.0932017916666652,
            "ticks": 5760,
            "durationTicks": 34
          },
          {
            "time": 16.052638,
            "midi": 32,
            "name": "G#1",
            "velocity": 0.9291338582677166,
            "duration": 0.0932017916666652,
            "ticks": 5856,
            "durationTicks": 34
          },
          {
            "time": 16.578954,
            "midi": 27,
            "name": "D#1",
            "velocity": 0.9291338582677166,
            "duration": 0.0932017916666652,
            "ticks": 6048,
            "durationTicks": 34
          },
          {
            "time": 16.710533,
            "midi": 32,
            "name": "G#1",
            "velocity": 0.9291338582677166,
            "duration": 0.0932017916666652,
            "ticks": 6096,
            "durationTicks": 34
          },
          {
            "time": 16.842112,
            "midi": 29,
            "name": "F1",
            "velocity": 0.9291338582677166,
            "duration": 0.09320179166666875,
            "ticks": 6144,
            "durationTicks": 34
          },
          {
            "time": 17.10527,
            "midi": 29,
            "name": "F1",
            "velocity": 0.9291338582677166,
            "duration": 0.09320179166666875,
            "ticks": 6240,
            "durationTicks": 34
          },
          {
            "time": 17.236849,
            "midi": 36,
            "name": "C2",
            "velocity": 0.9291338582677166,
            "duration": 0.09320179166666875,
            "ticks": 6288,
            "durationTicks": 34
          },
          {
            "time": 17.500007,
            "midi": 36,
            "name": "C2",
            "velocity": 0.9291338582677166,
            "duration": 0.09320179166666875,
            "ticks": 6384,
            "durationTicks": 34
          },
          {
            "time": 17.631586,
            "midi": 34,
            "name": "A#1",
            "velocity": 0.9291338582677166,
            "duration": 0.09320179166666875,
            "ticks": 6432,
            "durationTicks": 34
          },
          {
            "time": 18.157902,
            "midi": 34,
            "name": "A#1",
            "velocity": 0.9291338582677166,
            "duration": 0.09320179166666875,
            "ticks": 6624,
            "durationTicks": 34
          },
          {
            "time": 18.289481,
            "midi": 34,
            "name": "A#1",
            "velocity": 0.9291338582677166,
            "duration": 0.09320179166666875,
            "ticks": 6672,
            "durationTicks": 34
          },
          {
            "time": 18.552639,
            "midi": 36,
            "name": "C2",
            "velocity": 0.9291338582677166,
            "duration": 0.09320179166666875,
            "ticks": 6768,
            "durationTicks": 34
          },
          {
            "time": 18.684218,
            "midi": 34,
            "name": "A#1",
            "velocity": 0.9291338582677166,
            "duration": 0.0932017916666652,
            "ticks": 6816,
            "durationTicks": 34
          },
          {
            "time": 18.947376,
            "midi": 27,
            "name": "D#1",
            "velocity": 0.9291338582677166,
            "duration": 0.09320179166666875,
            "ticks": 6912,
            "durationTicks": 34
          },
          {
            "time": 19.210534,
            "midi": 27,
            "name": "D#1",
            "velocity": 0.9291338582677166,
            "duration": 0.09320179166666875,
            "ticks": 7008,
            "durationTicks": 34
          },
          {
            "time": 19.342113,
            "midi": 36,
            "name": "C2",
            "velocity": 0.9291338582677166,
            "duration": 0.0932017916666652,
            "ticks": 7056,
            "durationTicks": 34
          },
          {
            "time": 19.605271000000002,
            "midi": 36,
            "name": "C2",
            "velocity": 0.9291338582677166,
            "duration": 0.0932017916666652,
            "ticks": 7152,
            "durationTicks": 34
          },
          {
            "time": 19.73685,
            "midi": 34,
            "name": "A#1",
            "velocity": 0.9291338582677166,
            "duration": 0.09320179166666875,
            "ticks": 7200,
            "durationTicks": 34
          },
          {
            "time": 20.000008,
            "midi": 32,
            "name": "G#1",
            "velocity": 0.9291338582677166,
            "duration": 0.09320179166666875,
            "ticks": 7296,
            "durationTicks": 34
          },
          {
            "time": 20.263166000000002,
            "midi": 32,
            "name": "G#1",
            "velocity": 0.9291338582677166,
            "duration": 0.0932017916666652,
            "ticks": 7392,
            "durationTicks": 34
          },
          {
            "time": 20.789482,
            "midi": 27,
            "name": "D#1",
            "velocity": 0.9291338582677166,
            "duration": 0.09320179166666875,
            "ticks": 7584,
            "durationTicks": 34
          },
          {
            "time": 20.921061,
            "midi": 27,
            "name": "D#1",
            "velocity": 0.9291338582677166,
            "duration": 0.0932017916666652,
            "ticks": 7632,
            "durationTicks": 34
          },
          {
            "time": 21.05264,
            "midi": 29,
            "name": "F1",
            "velocity": 0.9291338582677166,
            "duration": 0.09320179166666875,
            "ticks": 7680,
            "durationTicks": 34
          },
          {
            "time": 21.315798,
            "midi": 29,
            "name": "F1",
            "velocity": 0.9291338582677166,
            "duration": 0.09320179166666875,
            "ticks": 7776,
            "durationTicks": 34
          },
          {
            "time": 21.447377,
            "midi": 29,
            "name": "F1",
            "velocity": 0.9291338582677166,
            "duration": 0.09320179166666875,
            "ticks": 7824,
            "durationTicks": 34
          },
          {
            "time": 21.710535,
            "midi": 36,
            "name": "C2",
            "velocity": 0.9291338582677166,
            "duration": 0.09320179166666875,
            "ticks": 7920,
            "durationTicks": 34
          },
          {
            "time": 21.842114,
            "midi": 34,
            "name": "A#1",
            "velocity": 0.9291338582677166,
            "duration": 0.09320179166666875,
            "ticks": 7968,
            "durationTicks": 34
          },
          {
            "time": 22.36843,
            "midi": 32,
            "name": "G#1",
            "velocity": 0.9291338582677166,
            "duration": 0.09320179166666875,
            "ticks": 8160,
            "durationTicks": 34
          },
          {
            "time": 22.631588,
            "midi": 37,
            "name": "C#2",
            "velocity": 0.7874015748031497,
            "duration": 0.09320179166666875,
            "ticks": 8256,
            "durationTicks": 34
          },
          {
            "time": 22.763167,
            "midi": 34,
            "name": "A#1",
            "velocity": 0.9291338582677166,
            "duration": 0.09320179166666875,
            "ticks": 8304,
            "durationTicks": 34
          },
          {
            "time": 23.026325,
            "midi": 37,
            "name": "C#2",
            "velocity": 0.7874015748031497,
            "duration": 0.09320179166666875,
            "ticks": 8400,
            "durationTicks": 34
          },
          {
            "time": 23.157904000000002,
            "midi": 34,
            "name": "A#1",
            "velocity": 0.9291338582677166,
            "duration": 0.07401318749999675,
            "ticks": 8448,
            "durationTicks": 27
          },
          {
            "time": 23.421062,
            "midi": 34,
            "name": "A#1",
            "velocity": 0.9291338582677166,
            "duration": 0.06853072916666747,
            "ticks": 8544,
            "durationTicks": 25
          },
          {
            "time": 23.552641,
            "midi": 34,
            "name": "A#1",
            "velocity": 0.9291338582677166,
            "duration": 0.09594302083333162,
            "ticks": 8592,
            "durationTicks": 35
          },
          {
            "time": 23.815799000000002,
            "midi": 37,
            "name": "C#2",
            "velocity": 0.9291338582677166,
            "duration": 0.11513162500000007,
            "ticks": 8688,
            "durationTicks": 42
          },
          {
            "time": 23.947378,
            "midi": 36,
            "name": "C2",
            "velocity": 0.9291338582677166,
            "duration": 0.09320179166666875,
            "ticks": 8736,
            "durationTicks": 34
          },
          {
            "time": 24.210536,
            "midi": 32,
            "name": "G#1",
            "velocity": 0.9291338582677166,
            "duration": 0.1398026874999978,
            "ticks": 8832,
            "durationTicks": 51
          },
          {
            "time": 24.473694000000002,
            "midi": 34,
            "name": "A#1",
            "velocity": 0.9291338582677166,
            "duration": 0.09594302083333162,
            "ticks": 8928,
            "durationTicks": 35
          },
          {
            "time": 25.00001,
            "midi": 29,
            "name": "F1",
            "velocity": 0.9291338582677166,
            "duration": 0.09594302083333162,
            "ticks": 9120,
            "durationTicks": 35
          },
          {
            "time": 25.131589,
            "midi": 34,
            "name": "A#1",
            "velocity": 0.9291338582677166,
            "duration": 0.06853072916666747,
            "ticks": 9168,
            "durationTicks": 25
          },
          {
            "time": 25.526326,
            "midi": 32,
            "name": "G#1",
            "velocity": 0.9291338582677166,
            "duration": 0.06578950000000106,
            "ticks": 9312,
            "durationTicks": 24
          },
          {
            "time": 25.657905,
            "midi": 34,
            "name": "A#1",
            "velocity": 0.9291338582677166,
            "duration": 0.08497810416666951,
            "ticks": 9360,
            "durationTicks": 31
          },
          {
            "time": 25.921063,
            "midi": 37,
            "name": "C#2",
            "velocity": 0.9291338582677166,
            "duration": 0.08223687499999954,
            "ticks": 9456,
            "durationTicks": 30
          },
          {
            "time": 26.052642,
            "midi": 36,
            "name": "C2",
            "velocity": 0.9291338582677166,
            "duration": 0.07675441666667027,
            "ticks": 9504,
            "durationTicks": 28
          },
          {
            "time": 26.578958,
            "midi": 34,
            "name": "A#1",
            "velocity": 0.9291338582677166,
            "duration": 0.09046056249999879,
            "ticks": 9696,
            "durationTicks": 33
          },
          {
            "time": 27.105274,
            "midi": 32,
            "name": "G#1",
            "velocity": 0.9291338582677166,
            "duration": 0.05756581249999826,
            "ticks": 9888,
            "durationTicks": 21
          },
          {
            "time": 27.236853,
            "midi": 32,
            "name": "G#1",
            "velocity": 0.9291338582677166,
            "duration": 0.07675441666666671,
            "ticks": 9936,
            "durationTicks": 28
          },
          {
            "time": 27.368432,
            "midi": 34,
            "name": "A#1",
            "velocity": 0.9291338582677166,
            "duration": 0.10416670833333441,
            "ticks": 9984,
            "durationTicks": 38
          },
          {
            "time": 27.63159,
            "midi": 34,
            "name": "A#1",
            "velocity": 0.9291338582677166,
            "duration": 0.0740131875000003,
            "ticks": 10080,
            "durationTicks": 27
          },
          {
            "time": 27.763169,
            "midi": 34,
            "name": "A#1",
            "velocity": 0.9291338582677166,
            "duration": 0.08771933333333237,
            "ticks": 10128,
            "durationTicks": 32
          },
          {
            "time": 28.026327000000002,
            "midi": 37,
            "name": "C#2",
            "velocity": 0.9291338582677166,
            "duration": 0.09046056249999879,
            "ticks": 10224,
            "durationTicks": 33
          },
          {
            "time": 28.157906,
            "midi": 36,
            "name": "C2",
            "velocity": 0.9291338582677166,
            "duration": 0.07675441666666671,
            "ticks": 10272,
            "durationTicks": 28
          },
          {
            "time": 28.421064,
            "midi": 32,
            "name": "G#1",
            "velocity": 0.9291338582677166,
            "duration": 0.13157899999999856,
            "ticks": 10368,
            "durationTicks": 48
          },
          {
            "time": 28.684222000000002,
            "midi": 34,
            "name": "A#1",
            "velocity": 0.9291338582677166,
            "duration": 0.0932017916666652,
            "ticks": 10464,
            "durationTicks": 34
          },
          {
            "time": 29.210538,
            "midi": 32,
            "name": "G#1",
            "velocity": 0.9291338582677166,
            "duration": 0.05756581250000181,
            "ticks": 10656,
            "durationTicks": 21
          },
          {
            "time": 29.342117000000002,
            "midi": 32,
            "name": "G#1",
            "velocity": 0.9291338582677166,
            "duration": 0.05756581249999826,
            "ticks": 10704,
            "durationTicks": 21
          },
          {
            "time": 29.473696,
            "midi": 27,
            "name": "D#1",
            "velocity": 0.9133858267716536,
            "duration": 0.13157899999999856,
            "ticks": 10752,
            "durationTicks": 48
          },
          {
            "time": 29.736854,
            "midi": 27,
            "name": "D#1",
            "velocity": 0.7874015748031497,
            "duration": 0.07675441666666671,
            "ticks": 10848,
            "durationTicks": 28
          },
          {
            "time": 29.868433,
            "midi": 32,
            "name": "G#1",
            "velocity": 0.9133858267716536,
            "duration": 0.12883777083333214,
            "ticks": 10896,
            "durationTicks": 47
          },
          {
            "time": 30.131591,
            "midi": 32,
            "name": "G#1",
            "velocity": 0.5590551181102362,
            "duration": 0.0466008958333326,
            "ticks": 10992,
            "durationTicks": 17
          },
          {
            "time": 30.26317,
            "midi": 32,
            "name": "G#1",
            "velocity": 0.9133858267716536,
            "duration": 0.0822368750000031,
            "ticks": 11040,
            "durationTicks": 30
          },
          {
            "time": 30.789486,
            "midi": 32,
            "name": "G#1",
            "velocity": 0.9133858267716536,
            "duration": 0.054824583333331844,
            "ticks": 11232,
            "durationTicks": 20
          },
          {
            "time": 30.921065,
            "midi": 32,
            "name": "G#1",
            "velocity": 0.9133858267716536,
            "duration": 0.09868425000000158,
            "ticks": 11280,
            "durationTicks": 36
          },
          {
            "time": 31.184223,
            "midi": 32,
            "name": "G#1",
            "velocity": 0.7874015748031497,
            "duration": 0.06853072916666747,
            "ticks": 11376,
            "durationTicks": 25
          },
          {
            "time": 31.315802,
            "midi": 34,
            "name": "A#1",
            "velocity": 0.7874015748031497,
            "duration": 0.043859666666666186,
            "ticks": 11424,
            "durationTicks": 16
          },
          {
            "time": 31.447381,
            "midi": 34,
            "name": "A#1",
            "velocity": 0.9133858267716536,
            "duration": 0.060307041666668226,
            "ticks": 11472,
            "durationTicks": 22
          },
          {
            "time": 31.578960000000002,
            "midi": 34,
            "name": "A#1",
            "velocity": 0.9291338582677166,
            "duration": 0.07401318749999675,
            "ticks": 11520,
            "durationTicks": 27
          },
          {
            "time": 31.842118,
            "midi": 34,
            "name": "A#1",
            "velocity": 0.9291338582677166,
            "duration": 0.06853072916666747,
            "ticks": 11616,
            "durationTicks": 25
          },
          {
            "time": 31.973697,
            "midi": 34,
            "name": "A#1",
            "velocity": 0.9291338582677166,
            "duration": 0.09594302083333162,
            "ticks": 11664,
            "durationTicks": 35
          },
          {
            "time": 32.236855,
            "midi": 37,
            "name": "C#2",
            "velocity": 0.9291338582677166,
            "duration": 0.11513162500000362,
            "ticks": 11760,
            "durationTicks": 42
          },
          {
            "time": 32.368434,
            "midi": 36,
            "name": "C2",
            "velocity": 0.9291338582677166,
            "duration": 0.0932017916666652,
            "ticks": 11808,
            "durationTicks": 34
          },
          {
            "time": 32.631592,
            "midi": 32,
            "name": "G#1",
            "velocity": 0.9291338582677166,
            "duration": 0.13980268750000135,
            "ticks": 11904,
            "durationTicks": 51
          },
          {
            "time": 32.89475,
            "midi": 34,
            "name": "A#1",
            "velocity": 0.9291338582677166,
            "duration": 0.09594302083333162,
            "ticks": 12000,
            "durationTicks": 35
          },
          {
            "time": 33.421066,
            "midi": 29,
            "name": "F1",
            "velocity": 0.9291338582677166,
            "duration": 0.09594302083333162,
            "ticks": 12192,
            "durationTicks": 35
          },
          {
            "time": 33.552645,
            "midi": 34,
            "name": "A#1",
            "velocity": 0.9291338582677166,
            "duration": 0.06853072916666747,
            "ticks": 12240,
            "durationTicks": 25
          },
          {
            "time": 33.947382,
            "midi": 32,
            "name": "G#1",
            "velocity": 0.9291338582677166,
            "duration": 0.06578950000000106,
            "ticks": 12384,
            "durationTicks": 24
          },
          {
            "time": 34.078961,
            "midi": 34,
            "name": "A#1",
            "velocity": 0.9291338582677166,
            "duration": 0.08497810416666596,
            "ticks": 12432,
            "durationTicks": 31
          },
          {
            "time": 34.342119000000004,
            "midi": 37,
            "name": "C#2",
            "velocity": 0.9291338582677166,
            "duration": 0.08223687499999954,
            "ticks": 12528,
            "durationTicks": 30
          },
          {
            "time": 34.473698,
            "midi": 36,
            "name": "C2",
            "velocity": 0.9291338582677166,
            "duration": 0.07675441666666671,
            "ticks": 12576,
            "durationTicks": 28
          },
          {
            "time": 35.000014,
            "midi": 34,
            "name": "A#1",
            "velocity": 0.9291338582677166,
            "duration": 0.09046056249999879,
            "ticks": 12768,
            "durationTicks": 33
          },
          {
            "time": 35.52633,
            "midi": 32,
            "name": "G#1",
            "velocity": 0.9291338582677166,
            "duration": 0.05756581250000181,
            "ticks": 12960,
            "durationTicks": 21
          },
          {
            "time": 35.657909000000004,
            "midi": 32,
            "name": "G#1",
            "velocity": 0.9291338582677166,
            "duration": 0.07675441666665961,
            "ticks": 13008,
            "durationTicks": 28
          },
          {
            "time": 35.789488,
            "midi": 34,
            "name": "A#1",
            "velocity": 0.9291338582677166,
            "duration": 0.10416670833333797,
            "ticks": 13056,
            "durationTicks": 38
          },
          {
            "time": 36.052646,
            "midi": 34,
            "name": "A#1",
            "velocity": 0.9291338582677166,
            "duration": 0.0740131875000003,
            "ticks": 13152,
            "durationTicks": 27
          },
          {
            "time": 36.184225,
            "midi": 34,
            "name": "A#1",
            "velocity": 0.9291338582677166,
            "duration": 0.08771933333333948,
            "ticks": 13200,
            "durationTicks": 32
          },
          {
            "time": 36.447383,
            "midi": 37,
            "name": "C#2",
            "velocity": 0.9291338582677166,
            "duration": 0.09046056249999879,
            "ticks": 13296,
            "durationTicks": 33
          },
          {
            "time": 36.578962,
            "midi": 36,
            "name": "C2",
            "velocity": 0.9291338582677166,
            "duration": 0.07675441666666671,
            "ticks": 13344,
            "durationTicks": 28
          },
          {
            "time": 36.84212,
            "midi": 32,
            "name": "G#1",
            "velocity": 0.9291338582677166,
            "duration": 0.1315790000000021,
            "ticks": 13440,
            "durationTicks": 48
          },
          {
            "time": 37.105278,
            "midi": 34,
            "name": "A#1",
            "velocity": 0.9291338582677166,
            "duration": 0.0932017916666652,
            "ticks": 13536,
            "durationTicks": 34
          },
          {
            "time": 37.631594,
            "midi": 32,
            "name": "G#1",
            "velocity": 0.9291338582677166,
            "duration": 0.05756581250000181,
            "ticks": 13728,
            "durationTicks": 21
          },
          {
            "time": 37.763173,
            "midi": 32,
            "name": "G#1",
            "velocity": 0.9291338582677166,
            "duration": 0.05756581250000181,
            "ticks": 13776,
            "durationTicks": 21
          },
          {
            "time": 37.894752,
            "midi": 27,
            "name": "D#1",
            "velocity": 0.9133858267716536,
            "duration": 0.1315790000000021,
            "ticks": 13824,
            "durationTicks": 48
          },
          {
            "time": 38.15791,
            "midi": 27,
            "name": "D#1",
            "velocity": 0.7874015748031497,
            "duration": 0.07675441666666671,
            "ticks": 13920,
            "durationTicks": 28
          },
          {
            "time": 38.289489,
            "midi": 32,
            "name": "G#1",
            "velocity": 0.9133858267716536,
            "duration": 0.1288377708333357,
            "ticks": 13968,
            "durationTicks": 47
          },
          {
            "time": 38.552647,
            "midi": 32,
            "name": "G#1",
            "velocity": 0.5590551181102362,
            "duration": 0.04660089583333615,
            "ticks": 14064,
            "durationTicks": 17
          },
          {
            "time": 38.684226,
            "midi": 32,
            "name": "G#1",
            "velocity": 0.9133858267716536,
            "duration": 0.08223687499999954,
            "ticks": 14112,
            "durationTicks": 30
          },
          {
            "time": 39.210542000000004,
            "midi": 32,
            "name": "G#1",
            "velocity": 0.9133858267716536,
            "duration": 0.0548245833333354,
            "ticks": 14304,
            "durationTicks": 20
          },
          {
            "time": 39.342121,
            "midi": 32,
            "name": "G#1",
            "velocity": 0.9133858267716536,
            "duration": 0.09868425000000514,
            "ticks": 14352,
            "durationTicks": 36
          },
          {
            "time": 39.605279,
            "midi": 32,
            "name": "G#1",
            "velocity": 0.7874015748031497,
            "duration": 0.06853072916666036,
            "ticks": 14448,
            "durationTicks": 25
          },
          {
            "time": 39.736858,
            "midi": 34,
            "name": "A#1",
            "velocity": 0.7874015748031497,
            "duration": 0.04385966666666974,
            "ticks": 14496,
            "durationTicks": 16
          },
          {
            "time": 39.868437,
            "midi": 34,
            "name": "A#1",
            "velocity": 0.9133858267716536,
            "duration": 0.06030704166666112,
            "ticks": 14544,
            "durationTicks": 22
          },
          {
            "time": 40.000016,
            "midi": 34,
            "name": "A#1",
            "velocity": 0.9291338582677166,
            "duration": 0.0740131875000003,
            "ticks": 14592,
            "durationTicks": 27
          },
          {
            "time": 40.263174,
            "midi": 34,
            "name": "A#1",
            "velocity": 0.9291338582677166,
            "duration": 0.06853072916666747,
            "ticks": 14688,
            "durationTicks": 25
          },
          {
            "time": 40.394753,
            "midi": 37,
            "name": "C#2",
            "velocity": 0.9291338582677166,
            "duration": 0.09594302083333162,
            "ticks": 14736,
            "durationTicks": 35
          },
          {
            "time": 40.657911,
            "midi": 37,
            "name": "C#2",
            "velocity": 0.9291338582677166,
            "duration": 0.11513162500000362,
            "ticks": 14832,
            "durationTicks": 42
          },
          {
            "time": 40.78949,
            "midi": 36,
            "name": "C2",
            "velocity": 0.9291338582677166,
            "duration": 0.0932017916666652,
            "ticks": 14880,
            "durationTicks": 34
          },
          {
            "time": 41.052648,
            "midi": 32,
            "name": "G#1",
            "velocity": 0.9291338582677166,
            "duration": 0.13980268750000135,
            "ticks": 14976,
            "durationTicks": 51
          },
          {
            "time": 41.315806,
            "midi": 34,
            "name": "A#1",
            "velocity": 0.9291338582677166,
            "duration": 0.09594302083333162,
            "ticks": 15072,
            "durationTicks": 35
          },
          {
            "time": 41.973701,
            "midi": 32,
            "name": "G#1",
            "velocity": 0.9291338582677166,
            "duration": 0.06853072916666747,
            "ticks": 15312,
            "durationTicks": 25
          },
          {
            "time": 42.10528,
            "midi": 34,
            "name": "A#1",
            "velocity": 0.9291338582677166,
            "duration": 0.07949564583333313,
            "ticks": 15360,
            "durationTicks": 29
          },
          {
            "time": 42.368438,
            "midi": 34,
            "name": "A#1",
            "velocity": 0.9291338582677166,
            "duration": 0.06578950000000106,
            "ticks": 15456,
            "durationTicks": 24
          },
          {
            "time": 42.500017,
            "midi": 37,
            "name": "C#2",
            "velocity": 0.9291338582677166,
            "duration": 0.08497810416666596,
            "ticks": 15504,
            "durationTicks": 31
          },
          {
            "time": 42.763175000000004,
            "midi": 37,
            "name": "C#2",
            "velocity": 0.9291338582677166,
            "duration": 0.08223687499999954,
            "ticks": 15600,
            "durationTicks": 30
          },
          {
            "time": 42.894754,
            "midi": 36,
            "name": "C2",
            "velocity": 0.9291338582677166,
            "duration": 0.07675441666666671,
            "ticks": 15648,
            "durationTicks": 28
          },
          {
            "time": 43.157912,
            "midi": 32,
            "name": "G#1",
            "velocity": 0.9291338582677166,
            "duration": 0.09594302083333162,
            "ticks": 15744,
            "durationTicks": 35
          },
          {
            "time": 43.42107,
            "midi": 34,
            "name": "A#1",
            "velocity": 0.9291338582677166,
            "duration": 0.09046056249999879,
            "ticks": 15840,
            "durationTicks": 33
          },
          {
            "time": 43.947386,
            "midi": 32,
            "name": "G#1",
            "velocity": 0.9291338582677166,
            "duration": 0.05756581250000181,
            "ticks": 16032,
            "durationTicks": 21
          },
          {
            "time": 44.078965000000004,
            "midi": 32,
            "name": "G#1",
            "velocity": 0.9291338582677166,
            "duration": 0.07675441666665961,
            "ticks": 16080,
            "durationTicks": 28
          },
          {
            "time": 44.210544,
            "midi": 34,
            "name": "A#1",
            "velocity": 0.9291338582677166,
            "duration": 0.10416670833333797,
            "ticks": 16128,
            "durationTicks": 38
          },
          {
            "time": 44.473702,
            "midi": 34,
            "name": "A#1",
            "velocity": 0.9291338582677166,
            "duration": 0.0740131875000003,
            "ticks": 16224,
            "durationTicks": 27
          },
          {
            "time": 44.605281,
            "midi": 37,
            "name": "C#2",
            "velocity": 0.9291338582677166,
            "duration": 0.08771933333333948,
            "ticks": 16272,
            "durationTicks": 32
          },
          {
            "time": 44.868439,
            "midi": 37,
            "name": "C#2",
            "velocity": 0.9291338582677166,
            "duration": 0.09046056249999879,
            "ticks": 16368,
            "durationTicks": 33
          },
          {
            "time": 45.000018,
            "midi": 36,
            "name": "C2",
            "velocity": 0.9291338582677166,
            "duration": 0.07675441666666671,
            "ticks": 16416,
            "durationTicks": 28
          },
          {
            "time": 45.263176,
            "midi": 32,
            "name": "G#1",
            "velocity": 0.9291338582677166,
            "duration": 0.1315790000000021,
            "ticks": 16512,
            "durationTicks": 48
          },
          {
            "time": 45.526334,
            "midi": 34,
            "name": "A#1",
            "velocity": 0.9291338582677166,
            "duration": 0.0932017916666652,
            "ticks": 16608,
            "durationTicks": 34
          },
          {
            "time": 46.184229,
            "midi": 32,
            "name": "G#1",
            "velocity": 0.9291338582677166,
            "duration": 0.05756581250000181,
            "ticks": 16848,
            "durationTicks": 21
          },
          {
            "time": 46.315808000000004,
            "midi": 34,
            "name": "A#1",
            "velocity": 0.9291338582677166,
            "duration": 0.09868424999999803,
            "ticks": 16896,
            "durationTicks": 36
          },
          {
            "time": 46.578966,
            "midi": 34,
            "name": "A#1",
            "velocity": 0.9291338582677166,
            "duration": 0.07949564583333313,
            "ticks": 16992,
            "durationTicks": 29
          },
          {
            "time": 46.710545,
            "midi": 37,
            "name": "C#2",
            "velocity": 0.9291338582677166,
            "duration": 0.0932017916666581,
            "ticks": 17040,
            "durationTicks": 34
          },
          {
            "time": 46.973703,
            "midi": 37,
            "name": "C#2",
            "velocity": 0.9291338582677166,
            "duration": 0.10690793749999727,
            "ticks": 17136,
            "durationTicks": 39
          },
          {
            "time": 47.105282,
            "midi": 36,
            "name": "C2",
            "velocity": 0.9291338582677166,
            "duration": 0.09046056249999879,
            "ticks": 17184,
            "durationTicks": 33
          },
          {
            "time": 47.36844,
            "midi": 32,
            "name": "G#1",
            "velocity": 0.9291338582677166,
            "duration": 0.10964916666666369,
            "ticks": 17280,
            "durationTicks": 40
          },
          {
            "time": 47.631598000000004,
            "midi": 34,
            "name": "A#1",
            "velocity": 0.9291338582677166,
            "duration": 0.10142547916665734,
            "ticks": 17376,
            "durationTicks": 37
          },
          {
            "time": 47.894756,
            "midi": 29,
            "name": "F1",
            "velocity": 0.9291338582677166,
            "duration": 0.14254391666666066,
            "ticks": 17472,
            "durationTicks": 52
          },
          {
            "time": 48.157914,
            "midi": 32,
            "name": "G#1",
            "velocity": 0.9291338582677166,
            "duration": 0.08497810416666596,
            "ticks": 17568,
            "durationTicks": 31
          },
          {
            "time": 48.289493,
            "midi": 29,
            "name": "F1",
            "velocity": 0.9291338582677166,
            "duration": 0.07127195833333388,
            "ticks": 17616,
            "durationTicks": 26
          },
          {
            "time": 48.421072,
            "midi": 27,
            "name": "D#1",
            "velocity": 0.9291338582677166,
            "duration": 0.0932017916666652,
            "ticks": 17664,
            "durationTicks": 34
          },
          {
            "time": 48.68423,
            "midi": 27,
            "name": "D#1",
            "velocity": 0.9291338582677166,
            "duration": 0.0932017916666652,
            "ticks": 17760,
            "durationTicks": 34
          },
          {
            "time": 48.815809,
            "midi": 27,
            "name": "D#1",
            "velocity": 0.9291338582677166,
            "duration": 0.0932017916666652,
            "ticks": 17808,
            "durationTicks": 34
          },
          {
            "time": 49.078967,
            "midi": 36,
            "name": "C2",
            "velocity": 0.9291338582677166,
            "duration": 0.0932017916666652,
            "ticks": 17904,
            "durationTicks": 34
          },
          {
            "time": 49.210546,
            "midi": 34,
            "name": "A#1",
            "velocity": 0.9291338582677166,
            "duration": 0.0932017916666652,
            "ticks": 17952,
            "durationTicks": 34
          },
          {
            "time": 49.473704,
            "midi": 32,
            "name": "G#1",
            "velocity": 0.9291338582677166,
            "duration": 0.0932017916666652,
            "ticks": 18048,
            "durationTicks": 34
          },
          {
            "time": 49.736862,
            "midi": 32,
            "name": "G#1",
            "velocity": 0.9291338582677166,
            "duration": 0.0932017916666652,
            "ticks": 18144,
            "durationTicks": 34
          },
          {
            "time": 50.263178,
            "midi": 27,
            "name": "D#1",
            "velocity": 0.9291338582677166,
            "duration": 0.0932017916666581,
            "ticks": 18336,
            "durationTicks": 34
          },
          {
            "time": 50.394757,
            "midi": 32,
            "name": "G#1",
            "velocity": 0.9291338582677166,
            "duration": 0.0932017916666652,
            "ticks": 18384,
            "durationTicks": 34
          },
          {
            "time": 50.526336,
            "midi": 29,
            "name": "F1",
            "velocity": 0.9291338582677166,
            "duration": 0.0932017916666652,
            "ticks": 18432,
            "durationTicks": 34
          },
          {
            "time": 50.789494,
            "midi": 29,
            "name": "F1",
            "velocity": 0.9291338582677166,
            "duration": 0.0932017916666652,
            "ticks": 18528,
            "durationTicks": 34
          },
          {
            "time": 50.921073,
            "midi": 36,
            "name": "C2",
            "velocity": 0.9291338582677166,
            "duration": 0.0932017916666652,
            "ticks": 18576,
            "durationTicks": 34
          },
          {
            "time": 51.184231000000004,
            "midi": 36,
            "name": "C2",
            "velocity": 0.9291338582677166,
            "duration": 0.0932017916666581,
            "ticks": 18672,
            "durationTicks": 34
          },
          {
            "time": 51.31581,
            "midi": 34,
            "name": "A#1",
            "velocity": 0.9291338582677166,
            "duration": 0.0932017916666652,
            "ticks": 18720,
            "durationTicks": 34
          },
          {
            "time": 51.842126,
            "midi": 34,
            "name": "A#1",
            "velocity": 0.9291338582677166,
            "duration": 0.0932017916666652,
            "ticks": 18912,
            "durationTicks": 34
          },
          {
            "time": 51.973705,
            "midi": 34,
            "name": "A#1",
            "velocity": 0.9291338582677166,
            "duration": 0.0932017916666652,
            "ticks": 18960,
            "durationTicks": 34
          },
          {
            "time": 52.236863,
            "midi": 36,
            "name": "C2",
            "velocity": 0.9291338582677166,
            "duration": 0.0932017916666652,
            "ticks": 19056,
            "durationTicks": 34
          },
          {
            "time": 52.368442,
            "midi": 34,
            "name": "A#1",
            "velocity": 0.9291338582677166,
            "duration": 0.0932017916666652,
            "ticks": 19104,
            "durationTicks": 34
          },
          {
            "time": 52.6316,
            "midi": 27,
            "name": "D#1",
            "velocity": 0.9291338582677166,
            "duration": 0.0932017916666652,
            "ticks": 19200,
            "durationTicks": 34
          },
          {
            "time": 52.894758,
            "midi": 27,
            "name": "D#1",
            "velocity": 0.9291338582677166,
            "duration": 0.0932017916666652,
            "ticks": 19296,
            "durationTicks": 34
          },
          {
            "time": 53.026337,
            "midi": 36,
            "name": "C2",
            "velocity": 0.9291338582677166,
            "duration": 0.0932017916666652,
            "ticks": 19344,
            "durationTicks": 34
          },
          {
            "time": 53.289495,
            "midi": 36,
            "name": "C2",
            "velocity": 0.9291338582677166,
            "duration": 0.0932017916666652,
            "ticks": 19440,
            "durationTicks": 34
          },
          {
            "time": 53.421074,
            "midi": 34,
            "name": "A#1",
            "velocity": 0.9291338582677166,
            "duration": 0.0932017916666652,
            "ticks": 19488,
            "durationTicks": 34
          },
          {
            "time": 53.684232,
            "midi": 32,
            "name": "G#1",
            "velocity": 0.9291338582677166,
            "duration": 0.0932017916666652,
            "ticks": 19584,
            "durationTicks": 34
          },
          {
            "time": 53.94739,
            "midi": 32,
            "name": "G#1",
            "velocity": 0.9291338582677166,
            "duration": 0.0932017916666652,
            "ticks": 19680,
            "durationTicks": 34
          },
          {
            "time": 54.473706,
            "midi": 27,
            "name": "D#1",
            "velocity": 0.9291338582677166,
            "duration": 0.0932017916666652,
            "ticks": 19872,
            "durationTicks": 34
          },
          {
            "time": 54.605285,
            "midi": 27,
            "name": "D#1",
            "velocity": 0.9291338582677166,
            "duration": 0.0932017916666652,
            "ticks": 19920,
            "durationTicks": 34
          },
          {
            "time": 54.736864,
            "midi": 29,
            "name": "F1",
            "velocity": 0.9291338582677166,
            "duration": 0.0932017916666652,
            "ticks": 19968,
            "durationTicks": 34
          },
          {
            "time": 55.000022,
            "midi": 29,
            "name": "F1",
            "velocity": 0.9291338582677166,
            "duration": 0.0932017916666652,
            "ticks": 20064,
            "durationTicks": 34
          },
          {
            "time": 55.131601,
            "midi": 29,
            "name": "F1",
            "velocity": 0.9291338582677166,
            "duration": 0.0932017916666581,
            "ticks": 20112,
            "durationTicks": 34
          },
          {
            "time": 55.394759,
            "midi": 36,
            "name": "C2",
            "velocity": 0.9291338582677166,
            "duration": 0.0932017916666652,
            "ticks": 20208,
            "durationTicks": 34
          },
          {
            "time": 55.526338,
            "midi": 34,
            "name": "A#1",
            "velocity": 0.9291338582677166,
            "duration": 0.0932017916666652,
            "ticks": 20256,
            "durationTicks": 34
          },
          {
            "time": 56.052654000000004,
            "midi": 32,
            "name": "G#1",
            "velocity": 0.9291338582677166,
            "duration": 0.0932017916666581,
            "ticks": 20448,
            "durationTicks": 34
          },
          {
            "time": 56.315812,
            "midi": 37,
            "name": "C#2",
            "velocity": 0.9291338582677166,
            "duration": 0.0932017916666652,
            "ticks": 20544,
            "durationTicks": 34
          },
          {
            "time": 56.447391,
            "midi": 34,
            "name": "A#1",
            "velocity": 0.9291338582677166,
            "duration": 0.0932017916666581,
            "ticks": 20592,
            "durationTicks": 34
          },
          {
            "time": 56.710549,
            "midi": 37,
            "name": "C#2",
            "velocity": 0.9291338582677166,
            "duration": 0.0932017916666652,
            "ticks": 20688,
            "durationTicks": 34
          },
          {
            "time": 56.842128,
            "midi": 27,
            "name": "D#1",
            "velocity": 0.9291338582677166,
            "duration": 0.0932017916666652,
            "ticks": 20736,
            "durationTicks": 34
          },
          {
            "time": 57.105286,
            "midi": 27,
            "name": "D#1",
            "velocity": 0.9291338582677166,
            "duration": 0.0932017916666652,
            "ticks": 20832,
            "durationTicks": 34
          },
          {
            "time": 57.236865,
            "midi": 27,
            "name": "D#1",
            "velocity": 0.9291338582677166,
            "duration": 0.0932017916666652,
            "ticks": 20880,
            "durationTicks": 34
          },
          {
            "time": 57.500023,
            "midi": 36,
            "name": "C2",
            "velocity": 0.9291338582677166,
            "duration": 0.0932017916666652,
            "ticks": 20976,
            "durationTicks": 34
          },
          {
            "time": 57.631602,
            "midi": 34,
            "name": "A#1",
            "velocity": 0.9291338582677166,
            "duration": 0.0932017916666652,
            "ticks": 21024,
            "durationTicks": 34
          },
          {
            "time": 57.89476,
            "midi": 32,
            "name": "G#1",
            "velocity": 0.9291338582677166,
            "duration": 0.0932017916666652,
            "ticks": 21120,
            "durationTicks": 34
          },
          {
            "time": 58.157918,
            "midi": 32,
            "name": "G#1",
            "velocity": 0.9291338582677166,
            "duration": 0.0932017916666652,
            "ticks": 21216,
            "durationTicks": 34
          },
          {
            "time": 58.684234000000004,
            "midi": 27,
            "name": "D#1",
            "velocity": 0.9291338582677166,
            "duration": 0.0932017916666581,
            "ticks": 21408,
            "durationTicks": 34
          },
          {
            "time": 58.815813,
            "midi": 32,
            "name": "G#1",
            "velocity": 0.9291338582677166,
            "duration": 0.0932017916666652,
            "ticks": 21456,
            "durationTicks": 34
          },
          {
            "time": 58.947392,
            "midi": 29,
            "name": "F1",
            "velocity": 0.9291338582677166,
            "duration": 0.0932017916666652,
            "ticks": 21504,
            "durationTicks": 34
          },
          {
            "time": 59.21055,
            "midi": 29,
            "name": "F1",
            "velocity": 0.9291338582677166,
            "duration": 0.0932017916666652,
            "ticks": 21600,
            "durationTicks": 34
          },
          {
            "time": 59.342129,
            "midi": 36,
            "name": "C2",
            "velocity": 0.9291338582677166,
            "duration": 0.0932017916666652,
            "ticks": 21648,
            "durationTicks": 34
          },
          {
            "time": 59.605287000000004,
            "midi": 36,
            "name": "C2",
            "velocity": 0.9291338582677166,
            "duration": 0.0932017916666581,
            "ticks": 21744,
            "durationTicks": 34
          },
          {
            "time": 59.736866,
            "midi": 34,
            "name": "A#1",
            "velocity": 0.9291338582677166,
            "duration": 0.0932017916666652,
            "ticks": 21792,
            "durationTicks": 34
          },
          {
            "time": 60.263182,
            "midi": 34,
            "name": "A#1",
            "velocity": 0.9291338582677166,
            "duration": 0.0932017916666652,
            "ticks": 21984,
            "durationTicks": 34
          },
          {
            "time": 60.394761,
            "midi": 34,
            "name": "A#1",
            "velocity": 0.9291338582677166,
            "duration": 0.0932017916666652,
            "ticks": 22032,
            "durationTicks": 34
          },
          {
            "time": 60.657919,
            "midi": 36,
            "name": "C2",
            "velocity": 0.9291338582677166,
            "duration": 0.0932017916666652,
            "ticks": 22128,
            "durationTicks": 34
          },
          {
            "time": 60.789498,
            "midi": 34,
            "name": "A#1",
            "velocity": 0.9291338582677166,
            "duration": 0.0932017916666652,
            "ticks": 22176,
            "durationTicks": 34
          },
          {
            "time": 61.052656,
            "midi": 27,
            "name": "D#1",
            "velocity": 0.9291338582677166,
            "duration": 0.0932017916666652,
            "ticks": 22272,
            "durationTicks": 34
          },
          {
            "time": 61.315814,
            "midi": 27,
            "name": "D#1",
            "velocity": 0.9291338582677166,
            "duration": 0.0932017916666652,
            "ticks": 22368,
            "durationTicks": 34
          },
          {
            "time": 61.447393,
            "midi": 36,
            "name": "C2",
            "velocity": 0.9291338582677166,
            "duration": 0.0932017916666652,
            "ticks": 22416,
            "durationTicks": 34
          },
          {
            "time": 61.710551,
            "midi": 36,
            "name": "C2",
            "velocity": 0.9291338582677166,
            "duration": 0.0932017916666652,
            "ticks": 22512,
            "durationTicks": 34
          },
          {
            "time": 61.84213,
            "midi": 34,
            "name": "A#1",
            "velocity": 0.9291338582677166,
            "duration": 0.0932017916666652,
            "ticks": 22560,
            "durationTicks": 34
          },
          {
            "time": 62.105288,
            "midi": 32,
            "name": "G#1",
            "velocity": 0.9291338582677166,
            "duration": 0.0932017916666652,
            "ticks": 22656,
            "durationTicks": 34
          },
          {
            "time": 62.368446,
            "midi": 32,
            "name": "G#1",
            "velocity": 0.9291338582677166,
            "duration": 0.0932017916666652,
            "ticks": 22752,
            "durationTicks": 34
          },
          {
            "time": 62.894762,
            "midi": 27,
            "name": "D#1",
            "velocity": 0.9291338582677166,
            "duration": 0.0932017916666652,
            "ticks": 22944,
            "durationTicks": 34
          },
          {
            "time": 63.026341,
            "midi": 27,
            "name": "D#1",
            "velocity": 0.9291338582677166,
            "duration": 0.0932017916666652,
            "ticks": 22992,
            "durationTicks": 34
          },
          {
            "time": 63.157920000000004,
            "midi": 29,
            "name": "F1",
            "velocity": 0.9291338582677166,
            "duration": 0.0932017916666581,
            "ticks": 23040,
            "durationTicks": 34
          },
          {
            "time": 63.421078,
            "midi": 29,
            "name": "F1",
            "velocity": 0.9291338582677166,
            "duration": 0.0932017916666652,
            "ticks": 23136,
            "durationTicks": 34
          },
          {
            "time": 63.552657,
            "midi": 29,
            "name": "F1",
            "velocity": 0.9291338582677166,
            "duration": 0.0932017916666581,
            "ticks": 23184,
            "durationTicks": 34
          },
          {
            "time": 63.815815,
            "midi": 36,
            "name": "C2",
            "velocity": 0.9291338582677166,
            "duration": 0.0932017916666652,
            "ticks": 23280,
            "durationTicks": 34
          },
          {
            "time": 63.947394,
            "midi": 34,
            "name": "A#1",
            "velocity": 0.9291338582677166,
            "duration": 0.0932017916666581,
            "ticks": 23328,
            "durationTicks": 34
          },
          {
            "time": 64.47371,
            "midi": 32,
            "name": "G#1",
            "velocity": 0.9291338582677166,
            "duration": 0.0932017916666723,
            "ticks": 23520,
            "durationTicks": 34
          },
          {
            "time": 64.736868,
            "midi": 37,
            "name": "C#2",
            "velocity": 0.7874015748031497,
            "duration": 0.0932017916666581,
            "ticks": 23616,
            "durationTicks": 34
          },
          {
            "time": 64.868447,
            "midi": 34,
            "name": "A#1",
            "velocity": 0.9291338582677166,
            "duration": 0.0932017916666581,
            "ticks": 23664,
            "durationTicks": 34
          },
          {
            "time": 65.13160500000001,
            "midi": 37,
            "name": "C#2",
            "velocity": 0.7874015748031497,
            "duration": 0.0932017916666581,
            "ticks": 23760,
            "durationTicks": 34
          },
          {
            "time": 65.263184,
            "midi": 34,
            "name": "A#1",
            "velocity": 0.9291338582677166,
            "duration": 0.0740131875000003,
            "ticks": 23808,
            "durationTicks": 27
          },
          {
            "time": 65.526342,
            "midi": 34,
            "name": "A#1",
            "velocity": 0.9291338582677166,
            "duration": 0.06853072916666747,
            "ticks": 23904,
            "durationTicks": 25
          },
          {
            "time": 65.657921,
            "midi": 34,
            "name": "A#1",
            "velocity": 0.9291338582677166,
            "duration": 0.09594302083333162,
            "ticks": 23952,
            "durationTicks": 35
          },
          {
            "time": 65.921079,
            "midi": 37,
            "name": "C#2",
            "velocity": 0.9291338582677166,
            "duration": 0.11513162499998941,
            "ticks": 24048,
            "durationTicks": 42
          },
          {
            "time": 66.052658,
            "midi": 36,
            "name": "C2",
            "velocity": 0.9291338582677166,
            "duration": 0.0932017916666723,
            "ticks": 24096,
            "durationTicks": 34
          },
          {
            "time": 66.315816,
            "midi": 32,
            "name": "G#1",
            "velocity": 0.9291338582677166,
            "duration": 0.13980268750000846,
            "ticks": 24192,
            "durationTicks": 51
          },
          {
            "time": 66.578974,
            "midi": 34,
            "name": "A#1",
            "velocity": 0.9291338582677166,
            "duration": 0.09594302083333162,
            "ticks": 24288,
            "durationTicks": 35
          },
          {
            "time": 67.10529,
            "midi": 29,
            "name": "F1",
            "velocity": 0.9291338582677166,
            "duration": 0.09594302083334583,
            "ticks": 24480,
            "durationTicks": 35
          },
          {
            "time": 67.236869,
            "midi": 34,
            "name": "A#1",
            "velocity": 0.9291338582677166,
            "duration": 0.06853072916666747,
            "ticks": 24528,
            "durationTicks": 25
          },
          {
            "time": 67.631606,
            "midi": 32,
            "name": "G#1",
            "velocity": 0.9291338582677166,
            "duration": 0.06578949999999395,
            "ticks": 24672,
            "durationTicks": 24
          },
          {
            "time": 67.76318500000001,
            "midi": 34,
            "name": "A#1",
            "velocity": 0.9291338582677166,
            "duration": 0.08497810416666596,
            "ticks": 24720,
            "durationTicks": 31
          },
          {
            "time": 68.026343,
            "midi": 37,
            "name": "C#2",
            "velocity": 0.9291338582677166,
            "duration": 0.08223687500000665,
            "ticks": 24816,
            "durationTicks": 30
          },
          {
            "time": 68.157922,
            "midi": 36,
            "name": "C2",
            "velocity": 0.9291338582677166,
            "duration": 0.07675441666667382,
            "ticks": 24864,
            "durationTicks": 28
          },
          {
            "time": 68.68423800000001,
            "midi": 34,
            "name": "A#1",
            "velocity": 0.9291338582677166,
            "duration": 0.09046056249999879,
            "ticks": 25056,
            "durationTicks": 33
          },
          {
            "time": 69.210554,
            "midi": 32,
            "name": "G#1",
            "velocity": 0.9291338582677166,
            "duration": 0.05756581250000181,
            "ticks": 25248,
            "durationTicks": 21
          },
          {
            "time": 69.342133,
            "midi": 32,
            "name": "G#1",
            "velocity": 0.9291338582677166,
            "duration": 0.07675441666667382,
            "ticks": 25296,
            "durationTicks": 28
          },
          {
            "time": 69.473712,
            "midi": 34,
            "name": "A#1",
            "velocity": 0.9291338582677166,
            "duration": 0.10416670833332375,
            "ticks": 25344,
            "durationTicks": 38
          },
          {
            "time": 69.73687,
            "midi": 34,
            "name": "A#1",
            "velocity": 0.9291338582677166,
            "duration": 0.0740131875000003,
            "ticks": 25440,
            "durationTicks": 27
          },
          {
            "time": 69.868449,
            "midi": 34,
            "name": "A#1",
            "velocity": 0.9291338582677166,
            "duration": 0.08771933333332527,
            "ticks": 25488,
            "durationTicks": 32
          },
          {
            "time": 70.131607,
            "midi": 37,
            "name": "C#2",
            "velocity": 0.9291338582677166,
            "duration": 0.09046056249999879,
            "ticks": 25584,
            "durationTicks": 33
          },
          {
            "time": 70.263186,
            "midi": 36,
            "name": "C2",
            "velocity": 0.9291338582677166,
            "duration": 0.07675441666667382,
            "ticks": 25632,
            "durationTicks": 28
          },
          {
            "time": 70.526344,
            "midi": 32,
            "name": "G#1",
            "velocity": 0.9291338582677166,
            "duration": 0.1315790000000021,
            "ticks": 25728,
            "durationTicks": 48
          },
          {
            "time": 70.789502,
            "midi": 34,
            "name": "A#1",
            "velocity": 0.9291338582677166,
            "duration": 0.0932017916666723,
            "ticks": 25824,
            "durationTicks": 34
          },
          {
            "time": 71.31581800000001,
            "midi": 32,
            "name": "G#1",
            "velocity": 0.9291338582677166,
            "duration": 0.0575658124999876,
            "ticks": 26016,
            "durationTicks": 21
          },
          {
            "time": 71.447397,
            "midi": 32,
            "name": "G#1",
            "velocity": 0.9291338582677166,
            "duration": 0.05756581250000181,
            "ticks": 26064,
            "durationTicks": 21
          },
          {
            "time": 71.578976,
            "midi": 27,
            "name": "D#1",
            "velocity": 0.9133858267716536,
            "duration": 0.1315790000000021,
            "ticks": 26112,
            "durationTicks": 48
          },
          {
            "time": 71.842134,
            "midi": 27,
            "name": "D#1",
            "velocity": 0.7874015748031497,
            "duration": 0.07675441666667382,
            "ticks": 26208,
            "durationTicks": 28
          },
          {
            "time": 71.973713,
            "midi": 32,
            "name": "G#1",
            "velocity": 0.9133858267716536,
            "duration": 0.1288377708333286,
            "ticks": 26256,
            "durationTicks": 47
          },
          {
            "time": 72.23687100000001,
            "midi": 32,
            "name": "G#1",
            "velocity": 0.5590551181102362,
            "duration": 0.04660089583332194,
            "ticks": 26352,
            "durationTicks": 17
          },
          {
            "time": 72.36845,
            "midi": 32,
            "name": "G#1",
            "velocity": 0.9133858267716536,
            "duration": 0.08223687500000665,
            "ticks": 26400,
            "durationTicks": 30
          },
          {
            "time": 72.894766,
            "midi": 32,
            "name": "G#1",
            "velocity": 0.9133858267716536,
            "duration": 0.05482458333332829,
            "ticks": 26592,
            "durationTicks": 20
          },
          {
            "time": 73.026345,
            "midi": 32,
            "name": "G#1",
            "velocity": 0.9133858267716536,
            "duration": 0.09868424999999093,
            "ticks": 26640,
            "durationTicks": 36
          },
          {
            "time": 73.289503,
            "midi": 32,
            "name": "G#1",
            "velocity": 0.7874015748031497,
            "duration": 0.06853072916668168,
            "ticks": 26736,
            "durationTicks": 25
          },
          {
            "time": 73.421082,
            "midi": 34,
            "name": "A#1",
            "velocity": 0.7874015748031497,
            "duration": 0.043859666666676844,
            "ticks": 26784,
            "durationTicks": 16
          },
          {
            "time": 73.552661,
            "midi": 34,
            "name": "A#1",
            "velocity": 0.9133858267716536,
            "duration": 0.06030704166667533,
            "ticks": 26832,
            "durationTicks": 22
          },
          {
            "time": 73.68424,
            "midi": 34,
            "name": "A#1",
            "velocity": 0.9291338582677166,
            "duration": 0.0740131875000003,
            "ticks": 26880,
            "durationTicks": 27
          },
          {
            "time": 73.947398,
            "midi": 34,
            "name": "A#1",
            "velocity": 0.9291338582677166,
            "duration": 0.06853072916666747,
            "ticks": 26976,
            "durationTicks": 25
          },
          {
            "time": 74.078977,
            "midi": 34,
            "name": "A#1",
            "velocity": 0.9291338582677166,
            "duration": 0.09594302083333162,
            "ticks": 27024,
            "durationTicks": 35
          },
          {
            "time": 74.342135,
            "midi": 37,
            "name": "C#2",
            "velocity": 0.9291338582677166,
            "duration": 0.11513162500000362,
            "ticks": 27120,
            "durationTicks": 42
          },
          {
            "time": 74.473714,
            "midi": 36,
            "name": "C2",
            "velocity": 0.9291338582677166,
            "duration": 0.0932017916666723,
            "ticks": 27168,
            "durationTicks": 34
          },
          {
            "time": 74.736872,
            "midi": 32,
            "name": "G#1",
            "velocity": 0.9291338582677166,
            "duration": 0.13980268749999425,
            "ticks": 27264,
            "durationTicks": 51
          },
          {
            "time": 75.00003,
            "midi": 34,
            "name": "A#1",
            "velocity": 0.9291338582677166,
            "duration": 0.09594302083333162,
            "ticks": 27360,
            "durationTicks": 35
          },
          {
            "time": 75.526346,
            "midi": 29,
            "name": "F1",
            "velocity": 0.9291338582677166,
            "duration": 0.09594302083333162,
            "ticks": 27552,
            "durationTicks": 35
          },
          {
            "time": 75.657925,
            "midi": 34,
            "name": "A#1",
            "velocity": 0.9291338582677166,
            "duration": 0.06853072916666747,
            "ticks": 27600,
            "durationTicks": 25
          },
          {
            "time": 76.052662,
            "midi": 32,
            "name": "G#1",
            "velocity": 0.9291338582677166,
            "duration": 0.06578950000000816,
            "ticks": 27744,
            "durationTicks": 24
          },
          {
            "time": 76.184241,
            "midi": 34,
            "name": "A#1",
            "velocity": 0.9291338582677166,
            "duration": 0.08497810416666596,
            "ticks": 27792,
            "durationTicks": 31
          },
          {
            "time": 76.447399,
            "midi": 37,
            "name": "C#2",
            "velocity": 0.9291338582677166,
            "duration": 0.08223687499999244,
            "ticks": 27888,
            "durationTicks": 30
          },
          {
            "time": 76.578978,
            "midi": 36,
            "name": "C2",
            "velocity": 0.9291338582677166,
            "duration": 0.07675441666665961,
            "ticks": 27936,
            "durationTicks": 28
          },
          {
            "time": 77.105294,
            "midi": 34,
            "name": "A#1",
            "velocity": 0.9291338582677166,
            "duration": 0.09046056249999879,
            "ticks": 28128,
            "durationTicks": 33
          },
          {
            "time": 77.63161,
            "midi": 32,
            "name": "G#1",
            "velocity": 0.9291338582677166,
            "duration": 0.05756581250000181,
            "ticks": 28320,
            "durationTicks": 21
          },
          {
            "time": 77.763189,
            "midi": 32,
            "name": "G#1",
            "velocity": 0.9291338582677166,
            "duration": 0.07675441666667382,
            "ticks": 28368,
            "durationTicks": 28
          },
          {
            "time": 77.894768,
            "midi": 34,
            "name": "A#1",
            "velocity": 0.9291338582677166,
            "duration": 0.10416670833332375,
            "ticks": 28416,
            "durationTicks": 38
          },
          {
            "time": 78.157926,
            "midi": 34,
            "name": "A#1",
            "velocity": 0.9291338582677166,
            "duration": 0.0740131875000003,
            "ticks": 28512,
            "durationTicks": 27
          },
          {
            "time": 78.289505,
            "midi": 34,
            "name": "A#1",
            "velocity": 0.9291338582677166,
            "duration": 0.08771933333332527,
            "ticks": 28560,
            "durationTicks": 32
          },
          {
            "time": 78.552663,
            "midi": 37,
            "name": "C#2",
            "velocity": 0.9291338582677166,
            "duration": 0.09046056249999879,
            "ticks": 28656,
            "durationTicks": 33
          },
          {
            "time": 78.684242,
            "midi": 36,
            "name": "C2",
            "velocity": 0.9291338582677166,
            "duration": 0.07675441666667382,
            "ticks": 28704,
            "durationTicks": 28
          },
          {
            "time": 78.9474,
            "midi": 32,
            "name": "G#1",
            "velocity": 0.9291338582677166,
            "duration": 0.1315790000000021,
            "ticks": 28800,
            "durationTicks": 48
          },
          {
            "time": 79.210558,
            "midi": 34,
            "name": "A#1",
            "velocity": 0.9291338582677166,
            "duration": 0.0932017916666723,
            "ticks": 28896,
            "durationTicks": 34
          },
          {
            "time": 79.736874,
            "midi": 32,
            "name": "G#1",
            "velocity": 0.9291338582677166,
            "duration": 0.05756581250000181,
            "ticks": 29088,
            "durationTicks": 21
          },
          {
            "time": 79.868453,
            "midi": 32,
            "name": "G#1",
            "velocity": 0.9291338582677166,
            "duration": 0.05756581250000181,
            "ticks": 29136,
            "durationTicks": 21
          },
          {
            "time": 80.000032,
            "midi": 27,
            "name": "D#1",
            "velocity": 0.9133858267716536,
            "duration": 0.1315790000000021,
            "ticks": 29184,
            "durationTicks": 48
          },
          {
            "time": 80.26319,
            "midi": 27,
            "name": "D#1",
            "velocity": 0.7874015748031497,
            "duration": 0.07675441666667382,
            "ticks": 29280,
            "durationTicks": 28
          },
          {
            "time": 80.394769,
            "midi": 32,
            "name": "G#1",
            "velocity": 0.9133858267716536,
            "duration": 0.1288377708333286,
            "ticks": 29328,
            "durationTicks": 47
          },
          {
            "time": 80.657927,
            "midi": 32,
            "name": "G#1",
            "velocity": 0.5590551181102362,
            "duration": 0.04660089583332194,
            "ticks": 29424,
            "durationTicks": 17
          },
          {
            "time": 80.789506,
            "midi": 32,
            "name": "G#1",
            "velocity": 0.9133858267716536,
            "duration": 0.08223687499999244,
            "ticks": 29472,
            "durationTicks": 30
          },
          {
            "time": 81.315822,
            "midi": 32,
            "name": "G#1",
            "velocity": 0.9133858267716536,
            "duration": 0.05482458333332829,
            "ticks": 29664,
            "durationTicks": 20
          },
          {
            "time": 81.447401,
            "midi": 32,
            "name": "G#1",
            "velocity": 0.9133858267716536,
            "duration": 0.09868425000000514,
            "ticks": 29712,
            "durationTicks": 36
          },
          {
            "time": 81.710559,
            "midi": 32,
            "name": "G#1",
            "velocity": 0.7874015748031497,
            "duration": 0.06853072916666747,
            "ticks": 29808,
            "durationTicks": 25
          },
          {
            "time": 81.842138,
            "midi": 34,
            "name": "A#1",
            "velocity": 0.7874015748031497,
            "duration": 0.04385966666666263,
            "ticks": 29856,
            "durationTicks": 16
          },
          {
            "time": 81.97371700000001,
            "midi": 34,
            "name": "A#1",
            "velocity": 0.9133858267716536,
            "duration": 0.06030704166666112,
            "ticks": 29904,
            "durationTicks": 22
          },
          {
            "time": 82.105296,
            "midi": 34,
            "name": "A#1",
            "velocity": 0.9291338582677166,
            "duration": 0.0740131875000003,
            "ticks": 29952,
            "durationTicks": 27
          },
          {
            "time": 82.368454,
            "midi": 34,
            "name": "A#1",
            "velocity": 0.9291338582677166,
            "duration": 0.06853072916666747,
            "ticks": 30048,
            "durationTicks": 25
          },
          {
            "time": 82.500033,
            "midi": 37,
            "name": "C#2",
            "velocity": 0.9291338582677166,
            "duration": 0.09594302083333162,
            "ticks": 30096,
            "durationTicks": 35
          },
          {
            "time": 82.763191,
            "midi": 37,
            "name": "C#2",
            "velocity": 0.9291338582677166,
            "duration": 0.11513162499998941,
            "ticks": 30192,
            "durationTicks": 42
          },
          {
            "time": 82.89477,
            "midi": 36,
            "name": "C2",
            "velocity": 0.9291338582677166,
            "duration": 0.0932017916666723,
            "ticks": 30240,
            "durationTicks": 34
          },
          {
            "time": 83.157928,
            "midi": 32,
            "name": "G#1",
            "velocity": 0.9291338582677166,
            "duration": 0.13980268750000846,
            "ticks": 30336,
            "durationTicks": 51
          },
          {
            "time": 83.421086,
            "midi": 34,
            "name": "A#1",
            "velocity": 0.9291338582677166,
            "duration": 0.09594302083333162,
            "ticks": 30432,
            "durationTicks": 35
          },
          {
            "time": 84.078981,
            "midi": 32,
            "name": "G#1",
            "velocity": 0.9291338582677166,
            "duration": 0.06853072916666747,
            "ticks": 30672,
            "durationTicks": 25
          },
          {
            "time": 84.21056,
            "midi": 34,
            "name": "A#1",
            "velocity": 0.9291338582677166,
            "duration": 0.07949564583333313,
            "ticks": 30720,
            "durationTicks": 29
          },
          {
            "time": 84.473718,
            "midi": 34,
            "name": "A#1",
            "velocity": 0.9291338582677166,
            "duration": 0.06578949999999395,
            "ticks": 30816,
            "durationTicks": 24
          },
          {
            "time": 84.60529700000001,
            "midi": 37,
            "name": "C#2",
            "velocity": 0.9291338582677166,
            "duration": 0.08497810416666596,
            "ticks": 30864,
            "durationTicks": 31
          },
          {
            "time": 84.868455,
            "midi": 37,
            "name": "C#2",
            "velocity": 0.9291338582677166,
            "duration": 0.08223687500000665,
            "ticks": 30960,
            "durationTicks": 30
          },
          {
            "time": 85.000034,
            "midi": 36,
            "name": "C2",
            "velocity": 0.9291338582677166,
            "duration": 0.07675441666667382,
            "ticks": 31008,
            "durationTicks": 28
          },
          {
            "time": 85.263192,
            "midi": 32,
            "name": "G#1",
            "velocity": 0.9291338582677166,
            "duration": 0.09594302083333162,
            "ticks": 31104,
            "durationTicks": 35
          },
          {
            "time": 85.52635000000001,
            "midi": 34,
            "name": "A#1",
            "velocity": 0.9291338582677166,
            "duration": 0.09046056249999879,
            "ticks": 31200,
            "durationTicks": 33
          },
          {
            "time": 86.052666,
            "midi": 32,
            "name": "G#1",
            "velocity": 0.9291338582677166,
            "duration": 0.05756581250000181,
            "ticks": 31392,
            "durationTicks": 21
          },
          {
            "time": 86.184245,
            "midi": 32,
            "name": "G#1",
            "velocity": 0.9291338582677166,
            "duration": 0.07675441666667382,
            "ticks": 31440,
            "durationTicks": 28
          },
          {
            "time": 86.315824,
            "midi": 34,
            "name": "A#1",
            "velocity": 0.9291338582677166,
            "duration": 0.10416670833332375,
            "ticks": 31488,
            "durationTicks": 38
          },
          {
            "time": 86.578982,
            "midi": 34,
            "name": "A#1",
            "velocity": 0.9291338582677166,
            "duration": 0.0740131875000003,
            "ticks": 31584,
            "durationTicks": 27
          },
          {
            "time": 86.710561,
            "midi": 37,
            "name": "C#2",
            "velocity": 0.9291338582677166,
            "duration": 0.08771933333332527,
            "ticks": 31632,
            "durationTicks": 32
          },
          {
            "time": 86.973719,
            "midi": 37,
            "name": "C#2",
            "velocity": 0.9291338582677166,
            "duration": 0.09046056249999879,
            "ticks": 31728,
            "durationTicks": 33
          },
          {
            "time": 87.105298,
            "midi": 36,
            "name": "C2",
            "velocity": 0.9291338582677166,
            "duration": 0.07675441666667382,
            "ticks": 31776,
            "durationTicks": 28
          },
          {
            "time": 87.368456,
            "midi": 32,
            "name": "G#1",
            "velocity": 0.9291338582677166,
            "duration": 0.1315790000000021,
            "ticks": 31872,
            "durationTicks": 48
          },
          {
            "time": 87.631614,
            "midi": 34,
            "name": "A#1",
            "velocity": 0.9291338582677166,
            "duration": 0.0932017916666723,
            "ticks": 31968,
            "durationTicks": 34
          },
          {
            "time": 88.289509,
            "midi": 32,
            "name": "G#1",
            "velocity": 0.9291338582677166,
            "duration": 0.05756581250000181,
            "ticks": 32208,
            "durationTicks": 21
          },
          {
            "time": 88.421088,
            "midi": 34,
            "name": "A#1",
            "velocity": 0.9291338582677166,
            "duration": 0.09868425000000514,
            "ticks": 32256,
            "durationTicks": 36
          },
          {
            "time": 88.684246,
            "midi": 34,
            "name": "A#1",
            "velocity": 0.9291338582677166,
            "duration": 0.07949564583333313,
            "ticks": 32352,
            "durationTicks": 29
          },
          {
            "time": 88.815825,
            "midi": 37,
            "name": "C#2",
            "velocity": 0.9291338582677166,
            "duration": 0.0932017916666723,
            "ticks": 32400,
            "durationTicks": 34
          },
          {
            "time": 89.07898300000001,
            "midi": 37,
            "name": "C#2",
            "velocity": 0.9291338582677166,
            "duration": 0.10690793749999727,
            "ticks": 32496,
            "durationTicks": 39
          },
          {
            "time": 89.210562,
            "midi": 36,
            "name": "C2",
            "velocity": 0.9291338582677166,
            "duration": 0.09046056249999879,
            "ticks": 32544,
            "durationTicks": 33
          },
          {
            "time": 89.47372,
            "midi": 32,
            "name": "G#1",
            "velocity": 0.9291338582677166,
            "duration": 0.1096491666666708,
            "ticks": 32640,
            "durationTicks": 40
          },
          {
            "time": 89.736878,
            "midi": 34,
            "name": "A#1",
            "velocity": 0.9291338582677166,
            "duration": 0.10142547916666445,
            "ticks": 32736,
            "durationTicks": 37
          },
          {
            "time": 90.000036,
            "midi": 29,
            "name": "F1",
            "velocity": 0.9291338582677166,
            "duration": 0.14254391666668198,
            "ticks": 32832,
            "durationTicks": 52
          },
          {
            "time": 90.263194,
            "midi": 32,
            "name": "G#1",
            "velocity": 0.9291338582677166,
            "duration": 0.08497810416668017,
            "ticks": 32928,
            "durationTicks": 31
          },
          {
            "time": 90.394773,
            "midi": 29,
            "name": "F1",
            "velocity": 0.9291338582677166,
            "duration": 0.07127195833332678,
            "ticks": 32976,
            "durationTicks": 26
          },
          {
            "time": 90.526352,
            "midi": 27,
            "name": "D#1",
            "velocity": 0.9291338582677166,
            "duration": 0.0932017916666723,
            "ticks": 33024,
            "durationTicks": 34
          },
          {
            "time": 90.78951,
            "midi": 27,
            "name": "D#1",
            "velocity": 0.9291338582677166,
            "duration": 0.0932017916666723,
            "ticks": 33120,
            "durationTicks": 34
          },
          {
            "time": 90.921089,
            "midi": 27,
            "name": "D#1",
            "velocity": 0.9291338582677166,
            "duration": 0.0932017916666723,
            "ticks": 33168,
            "durationTicks": 34
          },
          {
            "time": 91.184247,
            "midi": 36,
            "name": "C2",
            "velocity": 0.9291338582677166,
            "duration": 0.0932017916666723,
            "ticks": 33264,
            "durationTicks": 34
          },
          {
            "time": 91.315826,
            "midi": 34,
            "name": "A#1",
            "velocity": 0.9291338582677166,
            "duration": 0.0932017916666723,
            "ticks": 33312,
            "durationTicks": 34
          },
          {
            "time": 91.578984,
            "midi": 32,
            "name": "G#1",
            "velocity": 0.9291338582677166,
            "duration": 0.0932017916666723,
            "ticks": 33408,
            "durationTicks": 34
          },
          {
            "time": 91.842142,
            "midi": 32,
            "name": "G#1",
            "velocity": 0.9291338582677166,
            "duration": 0.0932017916666723,
            "ticks": 33504,
            "durationTicks": 34
          },
          {
            "time": 92.368458,
            "midi": 27,
            "name": "D#1",
            "velocity": 0.9291338582677166,
            "duration": 0.0932017916666723,
            "ticks": 33696,
            "durationTicks": 34
          },
          {
            "time": 92.500037,
            "midi": 32,
            "name": "G#1",
            "velocity": 0.9291338582677166,
            "duration": 0.0932017916666723,
            "ticks": 33744,
            "durationTicks": 34
          },
          {
            "time": 92.63161600000001,
            "midi": 29,
            "name": "F1",
            "velocity": 0.9291338582677166,
            "duration": 0.0932017916666581,
            "ticks": 33792,
            "durationTicks": 34
          },
          {
            "time": 92.894774,
            "midi": 29,
            "name": "F1",
            "velocity": 0.9291338582677166,
            "duration": 0.0932017916666723,
            "ticks": 33888,
            "durationTicks": 34
          },
          {
            "time": 93.026353,
            "midi": 36,
            "name": "C2",
            "velocity": 0.9291338582677166,
            "duration": 0.0932017916666723,
            "ticks": 33936,
            "durationTicks": 34
          },
          {
            "time": 93.289511,
            "midi": 36,
            "name": "C2",
            "velocity": 0.9291338582677166,
            "duration": 0.0932017916666723,
            "ticks": 34032,
            "durationTicks": 34
          },
          {
            "time": 93.42109,
            "midi": 34,
            "name": "A#1",
            "velocity": 0.9291338582677166,
            "duration": 0.0932017916666723,
            "ticks": 34080,
            "durationTicks": 34
          },
          {
            "time": 93.947406,
            "midi": 34,
            "name": "A#1",
            "velocity": 0.9291338582677166,
            "duration": 0.0932017916666723,
            "ticks": 34272,
            "durationTicks": 34
          },
          {
            "time": 94.078985,
            "midi": 34,
            "name": "A#1",
            "velocity": 0.9291338582677166,
            "duration": 0.0932017916666723,
            "ticks": 34320,
            "durationTicks": 34
          },
          {
            "time": 94.34214300000001,
            "midi": 36,
            "name": "C2",
            "velocity": 0.9291338582677166,
            "duration": 0.0932017916666723,
            "ticks": 34416,
            "durationTicks": 34
          },
          {
            "time": 94.473722,
            "midi": 34,
            "name": "A#1",
            "velocity": 0.9291338582677166,
            "duration": 0.0932017916666723,
            "ticks": 34464,
            "durationTicks": 34
          },
          {
            "time": 94.73688,
            "midi": 27,
            "name": "D#1",
            "velocity": 0.9291338582677166,
            "duration": 0.0932017916666723,
            "ticks": 34560,
            "durationTicks": 34
          },
          {
            "time": 95.000038,
            "midi": 27,
            "name": "D#1",
            "velocity": 0.9291338582677166,
            "duration": 0.0932017916666723,
            "ticks": 34656,
            "durationTicks": 34
          },
          {
            "time": 95.131617,
            "midi": 36,
            "name": "C2",
            "velocity": 0.9291338582677166,
            "duration": 0.0932017916666723,
            "ticks": 34704,
            "durationTicks": 34
          },
          {
            "time": 95.394775,
            "midi": 36,
            "name": "C2",
            "velocity": 0.9291338582677166,
            "duration": 0.0932017916666723,
            "ticks": 34800,
            "durationTicks": 34
          },
          {
            "time": 95.526354,
            "midi": 34,
            "name": "A#1",
            "velocity": 0.9291338582677166,
            "duration": 0.0932017916666723,
            "ticks": 34848,
            "durationTicks": 34
          },
          {
            "time": 95.789512,
            "midi": 32,
            "name": "G#1",
            "velocity": 0.9291338582677166,
            "duration": 0.0932017916666723,
            "ticks": 34944,
            "durationTicks": 34
          },
          {
            "time": 96.05267,
            "midi": 32,
            "name": "G#1",
            "velocity": 0.9291338582677166,
            "duration": 0.0932017916666723,
            "ticks": 35040,
            "durationTicks": 34
          },
          {
            "time": 96.578986,
            "midi": 27,
            "name": "D#1",
            "velocity": 0.9291338582677166,
            "duration": 0.0932017916666723,
            "ticks": 35232,
            "durationTicks": 34
          },
          {
            "time": 96.710565,
            "midi": 27,
            "name": "D#1",
            "velocity": 0.9291338582677166,
            "duration": 0.0932017916666723,
            "ticks": 35280,
            "durationTicks": 34
          },
          {
            "time": 96.842144,
            "midi": 29,
            "name": "F1",
            "velocity": 0.9291338582677166,
            "duration": 0.0932017916666723,
            "ticks": 35328,
            "durationTicks": 34
          },
          {
            "time": 97.105302,
            "midi": 29,
            "name": "F1",
            "velocity": 0.9291338582677166,
            "duration": 0.0932017916666723,
            "ticks": 35424,
            "durationTicks": 34
          },
          {
            "time": 97.236881,
            "midi": 29,
            "name": "F1",
            "velocity": 0.9291338582677166,
            "duration": 0.0932017916666723,
            "ticks": 35472,
            "durationTicks": 34
          },
          {
            "time": 97.500039,
            "midi": 36,
            "name": "C2",
            "velocity": 0.9291338582677166,
            "duration": 0.0932017916666723,
            "ticks": 35568,
            "durationTicks": 34
          },
          {
            "time": 97.631618,
            "midi": 34,
            "name": "A#1",
            "velocity": 0.9291338582677166,
            "duration": 0.0932017916666723,
            "ticks": 35616,
            "durationTicks": 34
          },
          {
            "time": 98.157934,
            "midi": 32,
            "name": "G#1",
            "velocity": 0.9291338582677166,
            "duration": 0.0932017916666723,
            "ticks": 35808,
            "durationTicks": 34
          },
          {
            "time": 98.421092,
            "midi": 37,
            "name": "C#2",
            "velocity": 0.9291338582677166,
            "duration": 0.0932017916666723,
            "ticks": 35904,
            "durationTicks": 34
          },
          {
            "time": 98.552671,
            "midi": 34,
            "name": "A#1",
            "velocity": 0.9291338582677166,
            "duration": 0.0932017916666723,
            "ticks": 35952,
            "durationTicks": 34
          },
          {
            "time": 98.81582900000001,
            "midi": 37,
            "name": "C#2",
            "velocity": 0.9291338582677166,
            "duration": 0.0932017916666581,
            "ticks": 36048,
            "durationTicks": 34
          },
          {
            "time": 98.947408,
            "midi": 27,
            "name": "D#1",
            "velocity": 0.9291338582677166,
            "duration": 0.0932017916666723,
            "ticks": 36096,
            "durationTicks": 34
          },
          {
            "time": 99.210566,
            "midi": 27,
            "name": "D#1",
            "velocity": 0.9291338582677166,
            "duration": 0.0932017916666723,
            "ticks": 36192,
            "durationTicks": 34
          },
          {
            "time": 99.342145,
            "midi": 27,
            "name": "D#1",
            "velocity": 0.9291338582677166,
            "duration": 0.0932017916666723,
            "ticks": 36240,
            "durationTicks": 34
          },
          {
            "time": 99.605303,
            "midi": 36,
            "name": "C2",
            "velocity": 0.9291338582677166,
            "duration": 0.0932017916666723,
            "ticks": 36336,
            "durationTicks": 34
          },
          {
            "time": 99.736882,
            "midi": 34,
            "name": "A#1",
            "velocity": 0.9291338582677166,
            "duration": 0.0932017916666723,
            "ticks": 36384,
            "durationTicks": 34
          },
          {
            "time": 100.00004,
            "midi": 32,
            "name": "G#1",
            "velocity": 0.9291338582677166,
            "duration": 0.0932017916666723,
            "ticks": 36480,
            "durationTicks": 34
          },
          {
            "time": 100.263198,
            "midi": 32,
            "name": "G#1",
            "velocity": 0.9291338582677166,
            "duration": 0.0932017916666723,
            "ticks": 36576,
            "durationTicks": 34
          },
          {
            "time": 100.789514,
            "midi": 27,
            "name": "D#1",
            "velocity": 0.9291338582677166,
            "duration": 0.0932017916666723,
            "ticks": 36768,
            "durationTicks": 34
          },
          {
            "time": 100.921093,
            "midi": 32,
            "name": "G#1",
            "velocity": 0.9291338582677166,
            "duration": 0.0932017916666723,
            "ticks": 36816,
            "durationTicks": 34
          },
          {
            "time": 101.052672,
            "midi": 29,
            "name": "F1",
            "velocity": 0.9291338582677166,
            "duration": 0.0932017916666723,
            "ticks": 36864,
            "durationTicks": 34
          },
          {
            "time": 101.31583,
            "midi": 29,
            "name": "F1",
            "velocity": 0.9291338582677166,
            "duration": 0.0932017916666723,
            "ticks": 36960,
            "durationTicks": 34
          },
          {
            "time": 101.44740900000001,
            "midi": 36,
            "name": "C2",
            "velocity": 0.9291338582677166,
            "duration": 0.0932017916666723,
            "ticks": 37008,
            "durationTicks": 34
          },
          {
            "time": 101.710567,
            "midi": 36,
            "name": "C2",
            "velocity": 0.9291338582677166,
            "duration": 0.0932017916666723,
            "ticks": 37104,
            "durationTicks": 34
          },
          {
            "time": 101.842146,
            "midi": 34,
            "name": "A#1",
            "velocity": 0.9291338582677166,
            "duration": 0.0932017916666723,
            "ticks": 37152,
            "durationTicks": 34
          },
          {
            "time": 102.36846200000001,
            "midi": 34,
            "name": "A#1",
            "velocity": 0.9291338582677166,
            "duration": 0.0932017916666581,
            "ticks": 37344,
            "durationTicks": 34
          },
          {
            "time": 102.500041,
            "midi": 34,
            "name": "A#1",
            "velocity": 0.9291338582677166,
            "duration": 0.0932017916666723,
            "ticks": 37392,
            "durationTicks": 34
          },
          {
            "time": 102.763199,
            "midi": 36,
            "name": "C2",
            "velocity": 0.9291338582677166,
            "duration": 0.0932017916666723,
            "ticks": 37488,
            "durationTicks": 34
          },
          {
            "time": 102.894778,
            "midi": 34,
            "name": "A#1",
            "velocity": 0.9291338582677166,
            "duration": 0.0932017916666723,
            "ticks": 37536,
            "durationTicks": 34
          },
          {
            "time": 103.157936,
            "midi": 27,
            "name": "D#1",
            "velocity": 0.9291338582677166,
            "duration": 0.0932017916666723,
            "ticks": 37632,
            "durationTicks": 34
          },
          {
            "time": 103.421094,
            "midi": 27,
            "name": "D#1",
            "velocity": 0.9291338582677166,
            "duration": 0.0932017916666723,
            "ticks": 37728,
            "durationTicks": 34
          },
          {
            "time": 103.552673,
            "midi": 36,
            "name": "C2",
            "velocity": 0.9291338582677166,
            "duration": 0.0932017916666723,
            "ticks": 37776,
            "durationTicks": 34
          },
          {
            "time": 103.815831,
            "midi": 36,
            "name": "C2",
            "velocity": 0.9291338582677166,
            "duration": 0.0932017916666723,
            "ticks": 37872,
            "durationTicks": 34
          },
          {
            "time": 103.94741,
            "midi": 34,
            "name": "A#1",
            "velocity": 0.9291338582677166,
            "duration": 0.0932017916666723,
            "ticks": 37920,
            "durationTicks": 34
          },
          {
            "time": 104.210568,
            "midi": 32,
            "name": "G#1",
            "velocity": 0.9291338582677166,
            "duration": 0.0932017916666723,
            "ticks": 38016,
            "durationTicks": 34
          },
          {
            "time": 104.473726,
            "midi": 32,
            "name": "G#1",
            "velocity": 0.9291338582677166,
            "duration": 0.0932017916666723,
            "ticks": 38112,
            "durationTicks": 34
          },
          {
            "time": 105.00004200000001,
            "midi": 27,
            "name": "D#1",
            "velocity": 0.9291338582677166,
            "duration": 0.0932017916666723,
            "ticks": 38304,
            "durationTicks": 34
          },
          {
            "time": 105.131621,
            "midi": 27,
            "name": "D#1",
            "velocity": 0.9291338582677166,
            "duration": 0.0932017916666723,
            "ticks": 38352,
            "durationTicks": 34
          },
          {
            "time": 105.2632,
            "midi": 29,
            "name": "F1",
            "velocity": 0.9291338582677166,
            "duration": 0.0932017916666723,
            "ticks": 38400,
            "durationTicks": 34
          },
          {
            "time": 105.526358,
            "midi": 29,
            "name": "F1",
            "velocity": 0.9291338582677166,
            "duration": 0.0932017916666723,
            "ticks": 38496,
            "durationTicks": 34
          },
          {
            "time": 105.657937,
            "midi": 29,
            "name": "F1",
            "velocity": 0.9291338582677166,
            "duration": 0.0932017916666723,
            "ticks": 38544,
            "durationTicks": 34
          },
          {
            "time": 105.92109500000001,
            "midi": 36,
            "name": "C2",
            "velocity": 0.9291338582677166,
            "duration": 0.0932017916666581,
            "ticks": 38640,
            "durationTicks": 34
          },
          {
            "time": 106.052674,
            "midi": 34,
            "name": "A#1",
            "velocity": 0.9291338582677166,
            "duration": 0.0932017916666723,
            "ticks": 38688,
            "durationTicks": 34
          },
          {
            "time": 106.57899,
            "midi": 32,
            "name": "G#1",
            "velocity": 0.9291338582677166,
            "duration": 0.0932017916666723,
            "ticks": 38880,
            "durationTicks": 34
          },
          {
            "time": 106.842148,
            "midi": 37,
            "name": "C#2",
            "velocity": 0.7874015748031497,
            "duration": 0.0932017916666723,
            "ticks": 38976,
            "durationTicks": 34
          },
          {
            "time": 106.973727,
            "midi": 34,
            "name": "A#1",
            "velocity": 0.9291338582677166,
            "duration": 0.0932017916666723,
            "ticks": 39024,
            "durationTicks": 34
          },
          {
            "time": 107.236885,
            "midi": 37,
            "name": "C#2",
            "velocity": 0.7874015748031497,
            "duration": 0.0932017916666723,
            "ticks": 39120,
            "durationTicks": 34
          },
          {
            "time": 107.368464,
            "midi": 27,
            "name": "D#1",
            "velocity": 0.9291338582677166,
            "duration": 0.0932017916666723,
            "ticks": 39168,
            "durationTicks": 34
          },
          {
            "time": 107.63162200000001,
            "midi": 27,
            "name": "D#1",
            "velocity": 0.9291338582677166,
            "duration": 0.0932017916666723,
            "ticks": 39264,
            "durationTicks": 34
          },
          {
            "time": 107.763201,
            "midi": 27,
            "name": "D#1",
            "velocity": 0.9291338582677166,
            "duration": 0.0932017916666723,
            "ticks": 39312,
            "durationTicks": 34
          },
          {
            "time": 108.026359,
            "midi": 36,
            "name": "C2",
            "velocity": 0.9291338582677166,
            "duration": 0.0932017916666723,
            "ticks": 39408,
            "durationTicks": 34
          },
          {
            "time": 108.157938,
            "midi": 34,
            "name": "A#1",
            "velocity": 0.9291338582677166,
            "duration": 0.0932017916666723,
            "ticks": 39456,
            "durationTicks": 34
          },
          {
            "time": 108.421096,
            "midi": 32,
            "name": "G#1",
            "velocity": 0.9291338582677166,
            "duration": 0.0932017916666723,
            "ticks": 39552,
            "durationTicks": 34
          },
          {
            "time": 108.684254,
            "midi": 32,
            "name": "G#1",
            "velocity": 0.9291338582677166,
            "duration": 0.0932017916666723,
            "ticks": 39648,
            "durationTicks": 34
          },
          {
            "time": 109.21057,
            "midi": 27,
            "name": "D#1",
            "velocity": 0.9291338582677166,
            "duration": 0.0932017916666723,
            "ticks": 39840,
            "durationTicks": 34
          },
          {
            "time": 109.342149,
            "midi": 32,
            "name": "G#1",
            "velocity": 0.9291338582677166,
            "duration": 0.0932017916666723,
            "ticks": 39888,
            "durationTicks": 34
          },
          {
            "time": 109.473728,
            "midi": 29,
            "name": "F1",
            "velocity": 0.9291338582677166,
            "duration": 0.0932017916666723,
            "ticks": 39936,
            "durationTicks": 34
          },
          {
            "time": 109.736886,
            "midi": 29,
            "name": "F1",
            "velocity": 0.9291338582677166,
            "duration": 0.0932017916666723,
            "ticks": 40032,
            "durationTicks": 34
          },
          {
            "time": 109.868465,
            "midi": 36,
            "name": "C2",
            "velocity": 0.9291338582677166,
            "duration": 0.0932017916666723,
            "ticks": 40080,
            "durationTicks": 34
          },
          {
            "time": 110.131623,
            "midi": 36,
            "name": "C2",
            "velocity": 0.9291338582677166,
            "duration": 0.0932017916666723,
            "ticks": 40176,
            "durationTicks": 34
          },
          {
            "time": 110.263202,
            "midi": 34,
            "name": "A#1",
            "velocity": 0.9291338582677166,
            "duration": 0.0932017916666723,
            "ticks": 40224,
            "durationTicks": 34
          },
          {
            "time": 110.789518,
            "midi": 34,
            "name": "A#1",
            "velocity": 0.9291338582677166,
            "duration": 0.0932017916666723,
            "ticks": 40416,
            "durationTicks": 34
          },
          {
            "time": 110.921097,
            "midi": 34,
            "name": "A#1",
            "velocity": 0.9291338582677166,
            "duration": 0.0932017916666723,
            "ticks": 40464,
            "durationTicks": 34
          },
          {
            "time": 111.18425500000001,
            "midi": 36,
            "name": "C2",
            "velocity": 0.9291338582677166,
            "duration": 0.0932017916666723,
            "ticks": 40560,
            "durationTicks": 34
          },
          {
            "time": 111.315834,
            "midi": 34,
            "name": "A#1",
            "velocity": 0.9291338582677166,
            "duration": 0.0932017916666723,
            "ticks": 40608,
            "durationTicks": 34
          },
          {
            "time": 111.578992,
            "midi": 27,
            "name": "D#1",
            "velocity": 0.9291338582677166,
            "duration": 0.0932017916666723,
            "ticks": 40704,
            "durationTicks": 34
          },
          {
            "time": 111.84215,
            "midi": 27,
            "name": "D#1",
            "velocity": 0.9291338582677166,
            "duration": 0.0932017916666723,
            "ticks": 40800,
            "durationTicks": 34
          },
          {
            "time": 111.973729,
            "midi": 36,
            "name": "C2",
            "velocity": 0.9291338582677166,
            "duration": 0.0932017916666723,
            "ticks": 40848,
            "durationTicks": 34
          },
          {
            "time": 112.236887,
            "midi": 36,
            "name": "C2",
            "velocity": 0.9291338582677166,
            "duration": 0.0932017916666723,
            "ticks": 40944,
            "durationTicks": 34
          },
          {
            "time": 112.368466,
            "midi": 34,
            "name": "A#1",
            "velocity": 0.9291338582677166,
            "duration": 0.0932017916666723,
            "ticks": 40992,
            "durationTicks": 34
          },
          {
            "time": 112.631624,
            "midi": 32,
            "name": "G#1",
            "velocity": 0.9291338582677166,
            "duration": 0.0932017916666723,
            "ticks": 41088,
            "durationTicks": 34
          },
          {
            "time": 112.894782,
            "midi": 32,
            "name": "G#1",
            "velocity": 0.9291338582677166,
            "duration": 0.0932017916666723,
            "ticks": 41184,
            "durationTicks": 34
          },
          {
            "time": 113.421098,
            "midi": 27,
            "name": "D#1",
            "velocity": 0.9291338582677166,
            "duration": 0.0932017916666723,
            "ticks": 41376,
            "durationTicks": 34
          },
          {
            "time": 113.552677,
            "midi": 27,
            "name": "D#1",
            "velocity": 0.9291338582677166,
            "duration": 0.0932017916666723,
            "ticks": 41424,
            "durationTicks": 34
          },
          {
            "time": 113.684256,
            "midi": 29,
            "name": "F1",
            "velocity": 0.9291338582677166,
            "duration": 0.0932017916666723,
            "ticks": 41472,
            "durationTicks": 34
          },
          {
            "time": 113.947414,
            "midi": 29,
            "name": "F1",
            "velocity": 0.9291338582677166,
            "duration": 0.0932017916666723,
            "ticks": 41568,
            "durationTicks": 34
          },
          {
            "time": 114.078993,
            "midi": 29,
            "name": "F1",
            "velocity": 0.9291338582677166,
            "duration": 0.0932017916666723,
            "ticks": 41616,
            "durationTicks": 34
          },
          {
            "time": 114.342151,
            "midi": 36,
            "name": "C2",
            "velocity": 0.9291338582677166,
            "duration": 0.0932017916666723,
            "ticks": 41712,
            "durationTicks": 34
          },
          {
            "time": 114.47373,
            "midi": 34,
            "name": "A#1",
            "velocity": 0.9291338582677166,
            "duration": 0.0932017916666723,
            "ticks": 41760,
            "durationTicks": 34
          },
          {
            "time": 115.000046,
            "midi": 32,
            "name": "G#1",
            "velocity": 0.9291338582677166,
            "duration": 0.0932017916666723,
            "ticks": 41952,
            "durationTicks": 34
          },
          {
            "time": 115.263204,
            "midi": 37,
            "name": "C#2",
            "velocity": 0.9291338582677166,
            "duration": 0.0932017916666723,
            "ticks": 42048,
            "durationTicks": 34
          },
          {
            "time": 115.394783,
            "midi": 34,
            "name": "A#1",
            "velocity": 0.9291338582677166,
            "duration": 0.0932017916666723,
            "ticks": 42096,
            "durationTicks": 34
          },
          {
            "time": 115.65794100000001,
            "midi": 37,
            "name": "C#2",
            "velocity": 0.9291338582677166,
            "duration": 0.0932017916666581,
            "ticks": 42192,
            "durationTicks": 34
          },
          {
            "time": 115.78952,
            "midi": 27,
            "name": "D#1",
            "velocity": 0.9291338582677166,
            "duration": 0.0932017916666723,
            "ticks": 42240,
            "durationTicks": 34
          },
          {
            "time": 116.052678,
            "midi": 27,
            "name": "D#1",
            "velocity": 0.9291338582677166,
            "duration": 0.0932017916666723,
            "ticks": 42336,
            "durationTicks": 34
          },
          {
            "time": 116.184257,
            "midi": 27,
            "name": "D#1",
            "velocity": 0.9291338582677166,
            "duration": 0.0932017916666723,
            "ticks": 42384,
            "durationTicks": 34
          },
          {
            "time": 116.447415,
            "midi": 36,
            "name": "C2",
            "velocity": 0.9291338582677166,
            "duration": 0.0932017916666723,
            "ticks": 42480,
            "durationTicks": 34
          },
          {
            "time": 116.578994,
            "midi": 34,
            "name": "A#1",
            "velocity": 0.9291338582677166,
            "duration": 0.0932017916666723,
            "ticks": 42528,
            "durationTicks": 34
          },
          {
            "time": 116.842152,
            "midi": 32,
            "name": "G#1",
            "velocity": 0.9291338582677166,
            "duration": 0.0932017916666723,
            "ticks": 42624,
            "durationTicks": 34
          },
          {
            "time": 117.10531,
            "midi": 32,
            "name": "G#1",
            "velocity": 0.9291338582677166,
            "duration": 0.0932017916666723,
            "ticks": 42720,
            "durationTicks": 34
          },
          {
            "time": 117.631626,
            "midi": 27,
            "name": "D#1",
            "velocity": 0.9291338582677166,
            "duration": 0.0932017916666723,
            "ticks": 42912,
            "durationTicks": 34
          },
          {
            "time": 117.763205,
            "midi": 32,
            "name": "G#1",
            "velocity": 0.9291338582677166,
            "duration": 0.0932017916666723,
            "ticks": 42960,
            "durationTicks": 34
          },
          {
            "time": 117.894784,
            "midi": 29,
            "name": "F1",
            "velocity": 0.9291338582677166,
            "duration": 0.0932017916666723,
            "ticks": 43008,
            "durationTicks": 34
          },
          {
            "time": 118.157942,
            "midi": 29,
            "name": "F1",
            "velocity": 0.9291338582677166,
            "duration": 0.0932017916666723,
            "ticks": 43104,
            "durationTicks": 34
          },
          {
            "time": 118.28952100000001,
            "midi": 36,
            "name": "C2",
            "velocity": 0.9291338582677166,
            "duration": 0.0932017916666723,
            "ticks": 43152,
            "durationTicks": 34
          },
          {
            "time": 118.552679,
            "midi": 36,
            "name": "C2",
            "velocity": 0.9291338582677166,
            "duration": 0.0932017916666723,
            "ticks": 43248,
            "durationTicks": 34
          },
          {
            "time": 118.684258,
            "midi": 34,
            "name": "A#1",
            "velocity": 0.9291338582677166,
            "duration": 0.0932017916666723,
            "ticks": 43296,
            "durationTicks": 34
          },
          {
            "time": 119.21057400000001,
            "midi": 34,
            "name": "A#1",
            "velocity": 0.9291338582677166,
            "duration": 0.0932017916666581,
            "ticks": 43488,
            "durationTicks": 34
          },
          {
            "time": 119.342153,
            "midi": 34,
            "name": "A#1",
            "velocity": 0.9291338582677166,
            "duration": 0.0932017916666723,
            "ticks": 43536,
            "durationTicks": 34
          },
          {
            "time": 119.605311,
            "midi": 36,
            "name": "C2",
            "velocity": 0.9291338582677166,
            "duration": 0.0932017916666723,
            "ticks": 43632,
            "durationTicks": 34
          },
          {
            "time": 119.73689,
            "midi": 34,
            "name": "A#1",
            "velocity": 0.9291338582677166,
            "duration": 0.0932017916666723,
            "ticks": 43680,
            "durationTicks": 34
          },
          {
            "time": 120.000048,
            "midi": 27,
            "name": "D#1",
            "velocity": 0.9291338582677166,
            "duration": 0.0932017916666723,
            "ticks": 43776,
            "durationTicks": 34
          },
          {
            "time": 120.263206,
            "midi": 27,
            "name": "D#1",
            "velocity": 0.9291338582677166,
            "duration": 0.0932017916666723,
            "ticks": 43872,
            "durationTicks": 34
          },
          {
            "time": 120.394785,
            "midi": 36,
            "name": "C2",
            "velocity": 0.9291338582677166,
            "duration": 0.0932017916666723,
            "ticks": 43920,
            "durationTicks": 34
          },
          {
            "time": 120.657943,
            "midi": 36,
            "name": "C2",
            "velocity": 0.9291338582677166,
            "duration": 0.0932017916666723,
            "ticks": 44016,
            "durationTicks": 34
          },
          {
            "time": 120.789522,
            "midi": 34,
            "name": "A#1",
            "velocity": 0.9291338582677166,
            "duration": 0.0932017916666723,
            "ticks": 44064,
            "durationTicks": 34
          },
          {
            "time": 121.05268,
            "midi": 32,
            "name": "G#1",
            "velocity": 0.9291338582677166,
            "duration": 0.0932017916666723,
            "ticks": 44160,
            "durationTicks": 34
          },
          {
            "time": 121.315838,
            "midi": 32,
            "name": "G#1",
            "velocity": 0.9291338582677166,
            "duration": 0.0932017916666723,
            "ticks": 44256,
            "durationTicks": 34
          },
          {
            "time": 121.84215400000001,
            "midi": 27,
            "name": "D#1",
            "velocity": 0.9291338582677166,
            "duration": 0.0932017916666723,
            "ticks": 44448,
            "durationTicks": 34
          },
          {
            "time": 121.973733,
            "midi": 27,
            "name": "D#1",
            "velocity": 0.9291338582677166,
            "duration": 0.0932017916666723,
            "ticks": 44496,
            "durationTicks": 34
          },
          {
            "time": 122.105312,
            "midi": 29,
            "name": "F1",
            "velocity": 0.9291338582677166,
            "duration": 0.0932017916666723,
            "ticks": 44544,
            "durationTicks": 34
          },
          {
            "time": 122.36847,
            "midi": 29,
            "name": "F1",
            "velocity": 0.9291338582677166,
            "duration": 0.0932017916666723,
            "ticks": 44640,
            "durationTicks": 34
          },
          {
            "time": 122.500049,
            "midi": 29,
            "name": "F1",
            "velocity": 0.9291338582677166,
            "duration": 0.0932017916666723,
            "ticks": 44688,
            "durationTicks": 34
          },
          {
            "time": 122.76320700000001,
            "midi": 36,
            "name": "C2",
            "velocity": 0.9291338582677166,
            "duration": 0.0932017916666581,
            "ticks": 44784,
            "durationTicks": 34
          },
          {
            "time": 122.894786,
            "midi": 34,
            "name": "A#1",
            "velocity": 0.9291338582677166,
            "duration": 0.0932017916666723,
            "ticks": 44832,
            "durationTicks": 34
          },
          {
            "time": 123.421102,
            "midi": 32,
            "name": "G#1",
            "velocity": 0.9291338582677166,
            "duration": 0.0932017916666723,
            "ticks": 45024,
            "durationTicks": 34
          },
          {
            "time": 123.68426,
            "midi": 37,
            "name": "C#2",
            "velocity": 0.7874015748031497,
            "duration": 0.0932017916666723,
            "ticks": 45120,
            "durationTicks": 34
          },
          {
            "time": 123.815839,
            "midi": 34,
            "name": "A#1",
            "velocity": 0.9291338582677166,
            "duration": 0.0932017916666723,
            "ticks": 45168,
            "durationTicks": 34
          },
          {
            "time": 124.078997,
            "midi": 37,
            "name": "C#2",
            "velocity": 0.7874015748031497,
            "duration": 0.0932017916666723,
            "ticks": 45264,
            "durationTicks": 34
          },
          {
            "time": 124.210576,
            "midi": 34,
            "name": "A#1",
            "velocity": 0.9291338582677166,
            "duration": 0.0740131875000003,
            "ticks": 45312,
            "durationTicks": 27
          },
          {
            "time": 124.47373400000001,
            "midi": 34,
            "name": "A#1",
            "velocity": 0.9291338582677166,
            "duration": 0.06853072916666747,
            "ticks": 45408,
            "durationTicks": 25
          },
          {
            "time": 124.605313,
            "midi": 34,
            "name": "A#1",
            "velocity": 0.9291338582677166,
            "duration": 0.09594302083333162,
            "ticks": 45456,
            "durationTicks": 35
          },
          {
            "time": 124.868471,
            "midi": 37,
            "name": "C#2",
            "velocity": 0.9291338582677166,
            "duration": 0.11513162500000362,
            "ticks": 45552,
            "durationTicks": 42
          },
          {
            "time": 125.00005,
            "midi": 36,
            "name": "C2",
            "velocity": 0.9291338582677166,
            "duration": 0.0932017916666723,
            "ticks": 45600,
            "durationTicks": 34
          },
          {
            "time": 125.263208,
            "midi": 32,
            "name": "G#1",
            "velocity": 0.9291338582677166,
            "duration": 0.13980268749999425,
            "ticks": 45696,
            "durationTicks": 51
          },
          {
            "time": 125.526366,
            "midi": 34,
            "name": "A#1",
            "velocity": 0.9291338582677166,
            "duration": 0.09594302083333162,
            "ticks": 45792,
            "durationTicks": 35
          },
          {
            "time": 126.052682,
            "midi": 29,
            "name": "F1",
            "velocity": 0.9291338582677166,
            "duration": 0.09594302083333162,
            "ticks": 45984,
            "durationTicks": 35
          },
          {
            "time": 126.184261,
            "midi": 34,
            "name": "A#1",
            "velocity": 0.9291338582677166,
            "duration": 0.06853072916666747,
            "ticks": 46032,
            "durationTicks": 25
          },
          {
            "time": 126.578998,
            "midi": 32,
            "name": "G#1",
            "velocity": 0.9291338582677166,
            "duration": 0.06578950000000816,
            "ticks": 46176,
            "durationTicks": 24
          },
          {
            "time": 126.710577,
            "midi": 34,
            "name": "A#1",
            "velocity": 0.9291338582677166,
            "duration": 0.08497810416666596,
            "ticks": 46224,
            "durationTicks": 31
          },
          {
            "time": 126.973735,
            "midi": 37,
            "name": "C#2",
            "velocity": 0.9291338582677166,
            "duration": 0.08223687499999244,
            "ticks": 46320,
            "durationTicks": 30
          },
          {
            "time": 127.105314,
            "midi": 36,
            "name": "C2",
            "velocity": 0.9291338582677166,
            "duration": 0.07675441666665961,
            "ticks": 46368,
            "durationTicks": 28
          },
          {
            "time": 127.63163,
            "midi": 34,
            "name": "A#1",
            "velocity": 0.9291338582677166,
            "duration": 0.09046056249999879,
            "ticks": 46560,
            "durationTicks": 33
          },
          {
            "time": 128.157946,
            "midi": 32,
            "name": "G#1",
            "velocity": 0.9291338582677166,
            "duration": 0.05756581250000181,
            "ticks": 46752,
            "durationTicks": 21
          },
          {
            "time": 128.289525,
            "midi": 32,
            "name": "G#1",
            "velocity": 0.9291338582677166,
            "duration": 0.07675441666668803,
            "ticks": 46800,
            "durationTicks": 28
          },
          {
            "time": 128.421104,
            "midi": 34,
            "name": "A#1",
            "velocity": 0.9291338582677166,
            "duration": 0.10416670833330954,
            "ticks": 46848,
            "durationTicks": 38
          },
          {
            "time": 128.684262,
            "midi": 34,
            "name": "A#1",
            "velocity": 0.9291338582677166,
            "duration": 0.07401318750001451,
            "ticks": 46944,
            "durationTicks": 27
          },
          {
            "time": 128.815841,
            "midi": 34,
            "name": "A#1",
            "velocity": 0.9291338582677166,
            "duration": 0.08771933333332527,
            "ticks": 46992,
            "durationTicks": 32
          },
          {
            "time": 129.078999,
            "midi": 37,
            "name": "C#2",
            "velocity": 0.9291338582677166,
            "duration": 0.09046056249999879,
            "ticks": 47088,
            "durationTicks": 33
          },
          {
            "time": 129.210578,
            "midi": 36,
            "name": "C2",
            "velocity": 0.9291338582677166,
            "duration": 0.07675441666668803,
            "ticks": 47136,
            "durationTicks": 28
          },
          {
            "time": 129.473736,
            "midi": 32,
            "name": "G#1",
            "velocity": 0.9291338582677166,
            "duration": 0.1315789999999879,
            "ticks": 47232,
            "durationTicks": 48
          },
          {
            "time": 129.736894,
            "midi": 34,
            "name": "A#1",
            "velocity": 0.9291338582677166,
            "duration": 0.0932017916666723,
            "ticks": 47328,
            "durationTicks": 34
          },
          {
            "time": 130.26321000000002,
            "midi": 32,
            "name": "G#1",
            "velocity": 0.9291338582677166,
            "duration": 0.05756581249997339,
            "ticks": 47520,
            "durationTicks": 21
          },
          {
            "time": 130.394789,
            "midi": 32,
            "name": "G#1",
            "velocity": 0.9291338582677166,
            "duration": 0.05756581250000181,
            "ticks": 47568,
            "durationTicks": 21
          },
          {
            "time": 130.526368,
            "midi": 27,
            "name": "D#1",
            "velocity": 0.9133858267716536,
            "duration": 0.13157900000001632,
            "ticks": 47616,
            "durationTicks": 48
          },
          {
            "time": 130.789526,
            "midi": 27,
            "name": "D#1",
            "velocity": 0.7874015748031497,
            "duration": 0.07675441666668803,
            "ticks": 47712,
            "durationTicks": 28
          },
          {
            "time": 130.921105,
            "midi": 32,
            "name": "G#1",
            "velocity": 0.9133858267716536,
            "duration": 0.12883777083331438,
            "ticks": 47760,
            "durationTicks": 47
          },
          {
            "time": 131.18426300000002,
            "midi": 32,
            "name": "G#1",
            "velocity": 0.5590551181102362,
            "duration": 0.04660089583330773,
            "ticks": 47856,
            "durationTicks": 17
          },
          {
            "time": 131.315842,
            "midi": 32,
            "name": "G#1",
            "velocity": 0.9133858267716536,
            "duration": 0.08223687500000665,
            "ticks": 47904,
            "durationTicks": 30
          },
          {
            "time": 131.842158,
            "midi": 32,
            "name": "G#1",
            "velocity": 0.9133858267716536,
            "duration": 0.05482458333332829,
            "ticks": 48096,
            "durationTicks": 20
          },
          {
            "time": 131.973737,
            "midi": 32,
            "name": "G#1",
            "velocity": 0.9133858267716536,
            "duration": 0.09868424999999093,
            "ticks": 48144,
            "durationTicks": 36
          },
          {
            "time": 132.236895,
            "midi": 32,
            "name": "G#1",
            "velocity": 0.7874015748031497,
            "duration": 0.06853072916666747,
            "ticks": 48240,
            "durationTicks": 25
          },
          {
            "time": 132.368474,
            "midi": 34,
            "name": "A#1",
            "velocity": 0.7874015748031497,
            "duration": 0.043859666666691055,
            "ticks": 48288,
            "durationTicks": 16
          },
          {
            "time": 132.500053,
            "midi": 34,
            "name": "A#1",
            "velocity": 0.9133858267716536,
            "duration": 0.06030704166667533,
            "ticks": 48336,
            "durationTicks": 22
          },
          {
            "time": 132.631632,
            "midi": 34,
            "name": "A#1",
            "velocity": 0.9291338582677166,
            "duration": 0.07401318750001451,
            "ticks": 48384,
            "durationTicks": 27
          },
          {
            "time": 132.89479,
            "midi": 34,
            "name": "A#1",
            "velocity": 0.9291338582677166,
            "duration": 0.06853072916666747,
            "ticks": 48480,
            "durationTicks": 25
          },
          {
            "time": 133.026369,
            "midi": 34,
            "name": "A#1",
            "velocity": 0.9291338582677166,
            "duration": 0.09594302083334583,
            "ticks": 48528,
            "durationTicks": 35
          },
          {
            "time": 133.289527,
            "midi": 37,
            "name": "C#2",
            "velocity": 0.9291338582677166,
            "duration": 0.11513162500000362,
            "ticks": 48624,
            "durationTicks": 42
          },
          {
            "time": 133.421106,
            "midi": 36,
            "name": "C2",
            "velocity": 0.9291338582677166,
            "duration": 0.0932017916666723,
            "ticks": 48672,
            "durationTicks": 34
          },
          {
            "time": 133.684264,
            "midi": 32,
            "name": "G#1",
            "velocity": 0.9291338582677166,
            "duration": 0.13980268749998004,
            "ticks": 48768,
            "durationTicks": 51
          },
          {
            "time": 133.947422,
            "midi": 34,
            "name": "A#1",
            "velocity": 0.9291338582677166,
            "duration": 0.09594302083334583,
            "ticks": 48864,
            "durationTicks": 35
          },
          {
            "time": 134.473738,
            "midi": 29,
            "name": "F1",
            "velocity": 0.9291338582677166,
            "duration": 0.09594302083334583,
            "ticks": 49056,
            "durationTicks": 35
          },
          {
            "time": 134.605317,
            "midi": 34,
            "name": "A#1",
            "velocity": 0.9291338582677166,
            "duration": 0.06853072916666747,
            "ticks": 49104,
            "durationTicks": 25
          },
          {
            "time": 135.000054,
            "midi": 32,
            "name": "G#1",
            "velocity": 0.9291338582677166,
            "duration": 0.06578949999999395,
            "ticks": 49248,
            "durationTicks": 24
          },
          {
            "time": 135.131633,
            "midi": 34,
            "name": "A#1",
            "velocity": 0.9291338582677166,
            "duration": 0.08497810416665175,
            "ticks": 49296,
            "durationTicks": 31
          },
          {
            "time": 135.394791,
            "midi": 37,
            "name": "C#2",
            "velocity": 0.9291338582677166,
            "duration": 0.08223687500000665,
            "ticks": 49392,
            "durationTicks": 30
          },
          {
            "time": 135.52637000000001,
            "midi": 36,
            "name": "C2",
            "velocity": 0.9291338582677166,
            "duration": 0.07675441666663119,
            "ticks": 49440,
            "durationTicks": 28
          },
          {
            "time": 136.052686,
            "midi": 34,
            "name": "A#1",
            "velocity": 0.9291338582677166,
            "duration": 0.09046056249999879,
            "ticks": 49632,
            "durationTicks": 33
          },
          {
            "time": 136.579002,
            "midi": 32,
            "name": "G#1",
            "velocity": 0.9291338582677166,
            "duration": 0.05756581250000181,
            "ticks": 49824,
            "durationTicks": 21
          },
          {
            "time": 136.710581,
            "midi": 32,
            "name": "G#1",
            "velocity": 0.9291338582677166,
            "duration": 0.07675441666665961,
            "ticks": 49872,
            "durationTicks": 28
          },
          {
            "time": 136.84216,
            "midi": 34,
            "name": "A#1",
            "velocity": 0.9291338582677166,
            "duration": 0.10416670833333797,
            "ticks": 49920,
            "durationTicks": 38
          },
          {
            "time": 137.105318,
            "midi": 34,
            "name": "A#1",
            "velocity": 0.9291338582677166,
            "duration": 0.07401318749998609,
            "ticks": 50016,
            "durationTicks": 27
          },
          {
            "time": 137.236897,
            "midi": 34,
            "name": "A#1",
            "velocity": 0.9291338582677166,
            "duration": 0.08771933333335369,
            "ticks": 50064,
            "durationTicks": 32
          },
          {
            "time": 137.500055,
            "midi": 37,
            "name": "C#2",
            "velocity": 0.9291338582677166,
            "duration": 0.09046056249999879,
            "ticks": 50160,
            "durationTicks": 33
          },
          {
            "time": 137.631634,
            "midi": 36,
            "name": "C2",
            "velocity": 0.9291338582677166,
            "duration": 0.07675441666665961,
            "ticks": 50208,
            "durationTicks": 28
          },
          {
            "time": 137.894792,
            "midi": 32,
            "name": "G#1",
            "velocity": 0.9291338582677166,
            "duration": 0.13157900000001632,
            "ticks": 50304,
            "durationTicks": 48
          },
          {
            "time": 138.15795,
            "midi": 34,
            "name": "A#1",
            "velocity": 0.9291338582677166,
            "duration": 0.0932017916666723,
            "ticks": 50400,
            "durationTicks": 34
          },
          {
            "time": 138.684266,
            "midi": 32,
            "name": "G#1",
            "velocity": 0.9291338582677166,
            "duration": 0.05756581250000181,
            "ticks": 50592,
            "durationTicks": 21
          },
          {
            "time": 138.815845,
            "midi": 32,
            "name": "G#1",
            "velocity": 0.9291338582677166,
            "duration": 0.05756581250000181,
            "ticks": 50640,
            "durationTicks": 21
          },
          {
            "time": 138.947424,
            "midi": 27,
            "name": "D#1",
            "velocity": 0.9133858267716536,
            "duration": 0.1315789999999879,
            "ticks": 50688,
            "durationTicks": 48
          },
          {
            "time": 139.210582,
            "midi": 27,
            "name": "D#1",
            "velocity": 0.7874015748031497,
            "duration": 0.07675441666665961,
            "ticks": 50784,
            "durationTicks": 28
          },
          {
            "time": 139.342161,
            "midi": 32,
            "name": "G#1",
            "velocity": 0.9133858267716536,
            "duration": 0.1288377708333428,
            "ticks": 50832,
            "durationTicks": 47
          },
          {
            "time": 139.605319,
            "midi": 32,
            "name": "G#1",
            "velocity": 0.5590551181102362,
            "duration": 0.04660089583333615,
            "ticks": 50928,
            "durationTicks": 17
          },
          {
            "time": 139.736898,
            "midi": 32,
            "name": "G#1",
            "velocity": 0.9133858267716536,
            "duration": 0.08223687500000665,
            "ticks": 50976,
            "durationTicks": 30
          },
          {
            "time": 140.263214,
            "midi": 32,
            "name": "G#1",
            "velocity": 0.9133858267716536,
            "duration": 0.05482458333332829,
            "ticks": 51168,
            "durationTicks": 20
          },
          {
            "time": 140.394793,
            "midi": 32,
            "name": "G#1",
            "velocity": 0.9133858267716536,
            "duration": 0.09868425000001935,
            "ticks": 51216,
            "durationTicks": 36
          },
          {
            "time": 140.657951,
            "midi": 32,
            "name": "G#1",
            "velocity": 0.7874015748031497,
            "duration": 0.06853072916666747,
            "ticks": 51312,
            "durationTicks": 25
          },
          {
            "time": 140.78953,
            "midi": 34,
            "name": "A#1",
            "velocity": 0.7874015748031497,
            "duration": 0.04385966666663421,
            "ticks": 51360,
            "durationTicks": 16
          },
          {
            "time": 140.921109,
            "midi": 34,
            "name": "A#1",
            "velocity": 0.9133858267716536,
            "duration": 0.06030704166664691,
            "ticks": 51408,
            "durationTicks": 22
          },
          {
            "time": 141.052688,
            "midi": 34,
            "name": "A#1",
            "velocity": 0.9291338582677166,
            "duration": 0.07401318750001451,
            "ticks": 51456,
            "durationTicks": 27
          },
          {
            "time": 141.315846,
            "midi": 34,
            "name": "A#1",
            "velocity": 0.9291338582677166,
            "duration": 0.06853072916666747,
            "ticks": 51552,
            "durationTicks": 25
          },
          {
            "time": 141.447425,
            "midi": 34,
            "name": "A#1",
            "velocity": 0.9291338582677166,
            "duration": 0.09594302083334583,
            "ticks": 51600,
            "durationTicks": 35
          },
          {
            "time": 141.710583,
            "midi": 37,
            "name": "C#2",
            "velocity": 0.9291338582677166,
            "duration": 0.1151316249999752,
            "ticks": 51696,
            "durationTicks": 42
          },
          {
            "time": 141.842162,
            "midi": 36,
            "name": "C2",
            "velocity": 0.9291338582677166,
            "duration": 0.09320179166664389,
            "ticks": 51744,
            "durationTicks": 34
          },
          {
            "time": 142.10532,
            "midi": 32,
            "name": "G#1",
            "velocity": 0.9291338582677166,
            "duration": 0.13980268750000846,
            "ticks": 51840,
            "durationTicks": 51
          },
          {
            "time": 142.368478,
            "midi": 34,
            "name": "A#1",
            "velocity": 0.9291338582677166,
            "duration": 0.09594302083334583,
            "ticks": 51936,
            "durationTicks": 35
          },
          {
            "time": 142.894794,
            "midi": 29,
            "name": "F1",
            "velocity": 0.9291338582677166,
            "duration": 0.09594302083334583,
            "ticks": 52128,
            "durationTicks": 35
          },
          {
            "time": 143.026373,
            "midi": 34,
            "name": "A#1",
            "velocity": 0.9291338582677166,
            "duration": 0.06853072916663905,
            "ticks": 52176,
            "durationTicks": 25
          },
          {
            "time": 143.42111,
            "midi": 32,
            "name": "G#1",
            "velocity": 0.9291338582677166,
            "duration": 0.06578949999999395,
            "ticks": 52320,
            "durationTicks": 24
          },
          {
            "time": 143.55268900000002,
            "midi": 34,
            "name": "A#1",
            "velocity": 0.9291338582677166,
            "duration": 0.08497810416665175,
            "ticks": 52368,
            "durationTicks": 31
          },
          {
            "time": 143.815847,
            "midi": 37,
            "name": "C#2",
            "velocity": 0.9291338582677166,
            "duration": 0.08223687500000665,
            "ticks": 52464,
            "durationTicks": 30
          },
          {
            "time": 143.947426,
            "midi": 36,
            "name": "C2",
            "velocity": 0.9291338582677166,
            "duration": 0.07675441666665961,
            "ticks": 52512,
            "durationTicks": 28
          },
          {
            "time": 144.47374200000002,
            "midi": 34,
            "name": "A#1",
            "velocity": 0.9291338582677166,
            "duration": 0.09046056249999879,
            "ticks": 52704,
            "durationTicks": 33
          },
          {
            "time": 145.000058,
            "midi": 32,
            "name": "G#1",
            "velocity": 0.9291338582677166,
            "duration": 0.05756581250000181,
            "ticks": 52896,
            "durationTicks": 21
          },
          {
            "time": 145.131637,
            "midi": 32,
            "name": "G#1",
            "velocity": 0.9291338582677166,
            "duration": 0.07675441666665961,
            "ticks": 52944,
            "durationTicks": 28
          },
          {
            "time": 145.263216,
            "midi": 34,
            "name": "A#1",
            "velocity": 0.9291338582677166,
            "duration": 0.10416670833333797,
            "ticks": 52992,
            "durationTicks": 38
          },
          {
            "time": 145.526374,
            "midi": 34,
            "name": "A#1",
            "velocity": 0.9291338582677166,
            "duration": 0.07401318749998609,
            "ticks": 53088,
            "durationTicks": 27
          },
          {
            "time": 145.657953,
            "midi": 34,
            "name": "A#1",
            "velocity": 0.9291338582677166,
            "duration": 0.08771933333335369,
            "ticks": 53136,
            "durationTicks": 32
          },
          {
            "time": 145.921111,
            "midi": 37,
            "name": "C#2",
            "velocity": 0.9291338582677166,
            "duration": 0.09046056249999879,
            "ticks": 53232,
            "durationTicks": 33
          },
          {
            "time": 146.05269,
            "midi": 36,
            "name": "C2",
            "velocity": 0.9291338582677166,
            "duration": 0.07675441666665961,
            "ticks": 53280,
            "durationTicks": 28
          },
          {
            "time": 146.315848,
            "midi": 32,
            "name": "G#1",
            "velocity": 0.9291338582677166,
            "duration": 0.13157900000001632,
            "ticks": 53376,
            "durationTicks": 48
          },
          {
            "time": 146.579006,
            "midi": 34,
            "name": "A#1",
            "velocity": 0.9291338582677166,
            "duration": 0.0932017916666723,
            "ticks": 53472,
            "durationTicks": 34
          },
          {
            "time": 147.105322,
            "midi": 32,
            "name": "G#1",
            "velocity": 0.9291338582677166,
            "duration": 0.05756581250000181,
            "ticks": 53664,
            "durationTicks": 21
          },
          {
            "time": 147.236901,
            "midi": 32,
            "name": "G#1",
            "velocity": 0.9291338582677166,
            "duration": 0.05756581250000181,
            "ticks": 53712,
            "durationTicks": 21
          },
          {
            "time": 147.36848,
            "midi": 27,
            "name": "D#1",
            "velocity": 0.9133858267716536,
            "duration": 0.1315789999999879,
            "ticks": 53760,
            "durationTicks": 48
          },
          {
            "time": 147.631638,
            "midi": 27,
            "name": "D#1",
            "velocity": 0.7874015748031497,
            "duration": 0.07675441666665961,
            "ticks": 53856,
            "durationTicks": 28
          },
          {
            "time": 147.763217,
            "midi": 32,
            "name": "G#1",
            "velocity": 0.9133858267716536,
            "duration": 0.1288377708333428,
            "ticks": 53904,
            "durationTicks": 47
          },
          {
            "time": 148.026375,
            "midi": 32,
            "name": "G#1",
            "velocity": 0.5590551181102362,
            "duration": 0.04660089583333615,
            "ticks": 54000,
            "durationTicks": 17
          },
          {
            "time": 148.157954,
            "midi": 32,
            "name": "G#1",
            "velocity": 0.9133858267716536,
            "duration": 0.08223687500000665,
            "ticks": 54048,
            "durationTicks": 30
          },
          {
            "time": 148.68427,
            "midi": 32,
            "name": "G#1",
            "velocity": 0.9133858267716536,
            "duration": 0.05482458333335671,
            "ticks": 54240,
            "durationTicks": 20
          },
          {
            "time": 148.81584900000001,
            "midi": 32,
            "name": "G#1",
            "velocity": 0.9133858267716536,
            "duration": 0.09868424999999093,
            "ticks": 54288,
            "durationTicks": 36
          },
          {
            "time": 149.079007,
            "midi": 32,
            "name": "G#1",
            "velocity": 0.7874015748031497,
            "duration": 0.06853072916666747,
            "ticks": 54384,
            "durationTicks": 25
          },
          {
            "time": 149.210586,
            "midi": 34,
            "name": "A#1",
            "velocity": 0.7874015748031497,
            "duration": 0.04385966666666263,
            "ticks": 54432,
            "durationTicks": 16
          },
          {
            "time": 149.342165,
            "midi": 34,
            "name": "A#1",
            "velocity": 0.9133858267716536,
            "duration": 0.06030704166667533,
            "ticks": 54480,
            "durationTicks": 22
          },
          {
            "time": 149.473744,
            "midi": 34,
            "name": "A#1",
            "velocity": 0.9291338582677166,
            "duration": 0.07401318749998609,
            "ticks": 54528,
            "durationTicks": 27
          },
          {
            "time": 149.73690200000001,
            "midi": 34,
            "name": "A#1",
            "velocity": 0.9291338582677166,
            "duration": 0.06853072916663905,
            "ticks": 54624,
            "durationTicks": 25
          },
          {
            "time": 149.868481,
            "midi": 34,
            "name": "A#1",
            "velocity": 0.9291338582677166,
            "duration": 0.09594302083334583,
            "ticks": 54672,
            "durationTicks": 35
          },
          {
            "time": 150.131639,
            "midi": 37,
            "name": "C#2",
            "velocity": 0.9291338582677166,
            "duration": 0.11513162500000362,
            "ticks": 54768,
            "durationTicks": 42
          },
          {
            "time": 150.263218,
            "midi": 36,
            "name": "C2",
            "velocity": 0.9291338582677166,
            "duration": 0.0932017916666723,
            "ticks": 54816,
            "durationTicks": 34
          },
          {
            "time": 150.526376,
            "midi": 32,
            "name": "G#1",
            "velocity": 0.9291338582677166,
            "duration": 0.13980268750000846,
            "ticks": 54912,
            "durationTicks": 51
          },
          {
            "time": 150.789534,
            "midi": 34,
            "name": "A#1",
            "velocity": 0.9291338582677166,
            "duration": 0.09594302083334583,
            "ticks": 55008,
            "durationTicks": 35
          },
          {
            "time": 151.31585,
            "midi": 29,
            "name": "F1",
            "velocity": 0.9291338582677166,
            "duration": 0.09594302083334583,
            "ticks": 55200,
            "durationTicks": 35
          },
          {
            "time": 151.447429,
            "midi": 34,
            "name": "A#1",
            "velocity": 0.9291338582677166,
            "duration": 0.06853072916666747,
            "ticks": 55248,
            "durationTicks": 25
          },
          {
            "time": 151.842166,
            "midi": 32,
            "name": "G#1",
            "velocity": 0.9291338582677166,
            "duration": 0.06578950000002237,
            "ticks": 55392,
            "durationTicks": 24
          },
          {
            "time": 151.973745,
            "midi": 34,
            "name": "A#1",
            "velocity": 0.9291338582677166,
            "duration": 0.08497810416665175,
            "ticks": 55440,
            "durationTicks": 31
          },
          {
            "time": 152.236903,
            "midi": 37,
            "name": "C#2",
            "velocity": 0.9291338582677166,
            "duration": 0.08223687499997823,
            "ticks": 55536,
            "durationTicks": 30
          },
          {
            "time": 152.368482,
            "midi": 36,
            "name": "C2",
            "velocity": 0.9291338582677166,
            "duration": 0.07675441666665961,
            "ticks": 55584,
            "durationTicks": 28
          },
          {
            "time": 152.894798,
            "midi": 34,
            "name": "A#1",
            "velocity": 0.9291338582677166,
            "duration": 0.09046056249999879,
            "ticks": 55776,
            "durationTicks": 33
          },
          {
            "time": 153.421114,
            "midi": 32,
            "name": "G#1",
            "velocity": 0.9291338582677166,
            "duration": 0.05756581250000181,
            "ticks": 55968,
            "durationTicks": 21
          },
          {
            "time": 153.552693,
            "midi": 32,
            "name": "G#1",
            "velocity": 0.9291338582677166,
            "duration": 0.07675441666665961,
            "ticks": 56016,
            "durationTicks": 28
          },
          {
            "time": 153.684272,
            "midi": 34,
            "name": "A#1",
            "velocity": 0.9291338582677166,
            "duration": 0.10416670833336639,
            "ticks": 56064,
            "durationTicks": 38
          },
          {
            "time": 153.94743,
            "midi": 34,
            "name": "A#1",
            "velocity": 0.9291338582677166,
            "duration": 0.07401318750001451,
            "ticks": 56160,
            "durationTicks": 27
          },
          {
            "time": 154.079009,
            "midi": 34,
            "name": "A#1",
            "velocity": 0.9291338582677166,
            "duration": 0.08771933333332527,
            "ticks": 56208,
            "durationTicks": 32
          },
          {
            "time": 154.342167,
            "midi": 37,
            "name": "C#2",
            "velocity": 0.9291338582677166,
            "duration": 0.09046056249999879,
            "ticks": 56304,
            "durationTicks": 33
          },
          {
            "time": 154.473746,
            "midi": 36,
            "name": "C2",
            "velocity": 0.9291338582677166,
            "duration": 0.07675441666665961,
            "ticks": 56352,
            "durationTicks": 28
          },
          {
            "time": 154.736904,
            "midi": 32,
            "name": "G#1",
            "velocity": 0.9291338582677166,
            "duration": 0.1315789999999879,
            "ticks": 56448,
            "durationTicks": 48
          },
          {
            "time": 155.000062,
            "midi": 34,
            "name": "A#1",
            "velocity": 0.9291338582677166,
            "duration": 0.09320179166664389,
            "ticks": 56544,
            "durationTicks": 34
          },
          {
            "time": 155.526378,
            "midi": 32,
            "name": "G#1",
            "velocity": 0.9291338582677166,
            "duration": 0.05756581250000181,
            "ticks": 56736,
            "durationTicks": 21
          },
          {
            "time": 155.657957,
            "midi": 32,
            "name": "G#1",
            "velocity": 0.9291338582677166,
            "duration": 0.05756581250000181,
            "ticks": 56784,
            "durationTicks": 21
          },
          {
            "time": 155.789536,
            "midi": 27,
            "name": "D#1",
            "velocity": 0.9133858267716536,
            "duration": 0.13157900000001632,
            "ticks": 56832,
            "durationTicks": 48
          },
          {
            "time": 156.052694,
            "midi": 27,
            "name": "D#1",
            "velocity": 0.7874015748031497,
            "duration": 0.07675441666665961,
            "ticks": 56928,
            "durationTicks": 28
          },
          {
            "time": 156.184273,
            "midi": 32,
            "name": "G#1",
            "velocity": 0.9133858267716536,
            "duration": 0.1288377708333428,
            "ticks": 56976,
            "durationTicks": 47
          },
          {
            "time": 156.447431,
            "midi": 32,
            "name": "G#1",
            "velocity": 0.5590551181102362,
            "duration": 0.046600895833364575,
            "ticks": 57072,
            "durationTicks": 17
          },
          {
            "time": 156.57901,
            "midi": 32,
            "name": "G#1",
            "velocity": 0.9133858267716536,
            "duration": 0.08223687499997823,
            "ticks": 57120,
            "durationTicks": 30
          },
          {
            "time": 157.105326,
            "midi": 32,
            "name": "G#1",
            "velocity": 0.9133858267716536,
            "duration": 0.05482458333335671,
            "ticks": 57312,
            "durationTicks": 20
          },
          {
            "time": 157.236905,
            "midi": 32,
            "name": "G#1",
            "velocity": 0.9133858267716536,
            "duration": 0.09868424999999093,
            "ticks": 57360,
            "durationTicks": 36
          },
          {
            "time": 157.500063,
            "midi": 32,
            "name": "G#1",
            "velocity": 0.7874015748031497,
            "duration": 0.06853072916663905,
            "ticks": 57456,
            "durationTicks": 25
          },
          {
            "time": 157.631642,
            "midi": 34,
            "name": "A#1",
            "velocity": 0.7874015748031497,
            "duration": 0.04385966666666263,
            "ticks": 57504,
            "durationTicks": 16
          },
          {
            "time": 157.76322100000002,
            "midi": 34,
            "name": "A#1",
            "velocity": 0.9133858267716536,
            "duration": 0.06030704166664691,
            "ticks": 57552,
            "durationTicks": 22
          },
          {
            "time": 174.736912,
            "midi": 34,
            "name": "A#1",
            "velocity": 0.9291338582677166,
            "duration": 0.07401318750001451,
            "ticks": 63744,
            "durationTicks": 27
          },
          {
            "time": 175.00007,
            "midi": 34,
            "name": "A#1",
            "velocity": 0.9291338582677166,
            "duration": 0.06853072916666747,
            "ticks": 63840,
            "durationTicks": 25
          },
          {
            "time": 175.131649,
            "midi": 37,
            "name": "C#2",
            "velocity": 0.9291338582677166,
            "duration": 0.09594302083334583,
            "ticks": 63888,
            "durationTicks": 35
          },
          {
            "time": 175.39480700000001,
            "midi": 37,
            "name": "C#2",
            "velocity": 0.9291338582677166,
            "duration": 0.1151316249999752,
            "ticks": 63984,
            "durationTicks": 42
          },
          {
            "time": 175.526386,
            "midi": 36,
            "name": "C2",
            "velocity": 0.9291338582677166,
            "duration": 0.09320179166664389,
            "ticks": 64032,
            "durationTicks": 34
          },
          {
            "time": 175.789544,
            "midi": 32,
            "name": "G#1",
            "velocity": 0.9291338582677166,
            "duration": 0.13980268750000846,
            "ticks": 64128,
            "durationTicks": 51
          },
          {
            "time": 176.052702,
            "midi": 34,
            "name": "A#1",
            "velocity": 0.9291338582677166,
            "duration": 0.09594302083334583,
            "ticks": 64224,
            "durationTicks": 35
          },
          {
            "time": 176.710597,
            "midi": 32,
            "name": "G#1",
            "velocity": 0.9291338582677166,
            "duration": 0.06853072916663905,
            "ticks": 64464,
            "durationTicks": 25
          },
          {
            "time": 176.842176,
            "midi": 34,
            "name": "A#1",
            "velocity": 0.9291338582677166,
            "duration": 0.07949564583336155,
            "ticks": 64512,
            "durationTicks": 29
          },
          {
            "time": 177.105334,
            "midi": 34,
            "name": "A#1",
            "velocity": 0.9291338582677166,
            "duration": 0.06578949999999395,
            "ticks": 64608,
            "durationTicks": 24
          },
          {
            "time": 177.23691300000002,
            "midi": 37,
            "name": "C#2",
            "velocity": 0.9291338582677166,
            "duration": 0.08497810416665175,
            "ticks": 64656,
            "durationTicks": 31
          },
          {
            "time": 177.500071,
            "midi": 37,
            "name": "C#2",
            "velocity": 0.9291338582677166,
            "duration": 0.08223687500000665,
            "ticks": 64752,
            "durationTicks": 30
          },
          {
            "time": 177.63165,
            "midi": 36,
            "name": "C2",
            "velocity": 0.9291338582677166,
            "duration": 0.07675441666665961,
            "ticks": 64800,
            "durationTicks": 28
          },
          {
            "time": 177.894808,
            "midi": 32,
            "name": "G#1",
            "velocity": 0.9291338582677166,
            "duration": 0.09594302083334583,
            "ticks": 64896,
            "durationTicks": 35
          },
          {
            "time": 178.15796600000002,
            "midi": 34,
            "name": "A#1",
            "velocity": 0.9291338582677166,
            "duration": 0.09046056249999879,
            "ticks": 64992,
            "durationTicks": 33
          },
          {
            "time": 178.684282,
            "midi": 32,
            "name": "G#1",
            "velocity": 0.9291338582677166,
            "duration": 0.05756581250000181,
            "ticks": 65184,
            "durationTicks": 21
          },
          {
            "time": 178.815861,
            "midi": 32,
            "name": "G#1",
            "velocity": 0.9291338582677166,
            "duration": 0.07675441666665961,
            "ticks": 65232,
            "durationTicks": 28
          },
          {
            "time": 178.94744,
            "midi": 34,
            "name": "A#1",
            "velocity": 0.9291338582677166,
            "duration": 0.10416670833333797,
            "ticks": 65280,
            "durationTicks": 38
          },
          {
            "time": 179.210598,
            "midi": 34,
            "name": "A#1",
            "velocity": 0.9291338582677166,
            "duration": 0.07401318749998609,
            "ticks": 65376,
            "durationTicks": 27
          },
          {
            "time": 179.342177,
            "midi": 37,
            "name": "C#2",
            "velocity": 0.9291338582677166,
            "duration": 0.08771933333335369,
            "ticks": 65424,
            "durationTicks": 32
          },
          {
            "time": 179.605335,
            "midi": 37,
            "name": "C#2",
            "velocity": 0.9291338582677166,
            "duration": 0.09046056249999879,
            "ticks": 65520,
            "durationTicks": 33
          },
          {
            "time": 179.736914,
            "midi": 36,
            "name": "C2",
            "velocity": 0.9291338582677166,
            "duration": 0.07675441666665961,
            "ticks": 65568,
            "durationTicks": 28
          },
          {
            "time": 180.000072,
            "midi": 32,
            "name": "G#1",
            "velocity": 0.9291338582677166,
            "duration": 0.13157900000001632,
            "ticks": 65664,
            "durationTicks": 48
          },
          {
            "time": 180.26323,
            "midi": 34,
            "name": "A#1",
            "velocity": 0.9291338582677166,
            "duration": 0.0932017916666723,
            "ticks": 65760,
            "durationTicks": 34
          },
          {
            "time": 180.921125,
            "midi": 32,
            "name": "G#1",
            "velocity": 0.9291338582677166,
            "duration": 0.05756581250000181,
            "ticks": 66000,
            "durationTicks": 21
          },
          {
            "time": 181.052704,
            "midi": 34,
            "name": "A#1",
            "velocity": 0.9291338582677166,
            "duration": 0.09868424999999093,
            "ticks": 66048,
            "durationTicks": 36
          },
          {
            "time": 181.315862,
            "midi": 34,
            "name": "A#1",
            "velocity": 0.9291338582677166,
            "duration": 0.07949564583333313,
            "ticks": 66144,
            "durationTicks": 29
          },
          {
            "time": 181.447441,
            "midi": 37,
            "name": "C#2",
            "velocity": 0.9291338582677166,
            "duration": 0.0932017916666723,
            "ticks": 66192,
            "durationTicks": 34
          },
          {
            "time": 181.710599,
            "midi": 37,
            "name": "C#2",
            "velocity": 0.9291338582677166,
            "duration": 0.10690793750001149,
            "ticks": 66288,
            "durationTicks": 39
          },
          {
            "time": 181.842178,
            "midi": 36,
            "name": "C2",
            "velocity": 0.9291338582677166,
            "duration": 0.09046056249999879,
            "ticks": 66336,
            "durationTicks": 33
          },
          {
            "time": 182.105336,
            "midi": 32,
            "name": "G#1",
            "velocity": 0.9291338582677166,
            "duration": 0.10964916666665658,
            "ticks": 66432,
            "durationTicks": 40
          },
          {
            "time": 182.368494,
            "midi": 34,
            "name": "A#1",
            "velocity": 0.9291338582677166,
            "duration": 0.10142547916666445,
            "ticks": 66528,
            "durationTicks": 37
          },
          {
            "time": 182.631652,
            "midi": 29,
            "name": "F1",
            "velocity": 0.9291338582677166,
            "duration": 0.14254391666665356,
            "ticks": 66624,
            "durationTicks": 52
          },
          {
            "time": 182.89481,
            "midi": 32,
            "name": "G#1",
            "velocity": 0.9291338582677166,
            "duration": 0.08497810416665175,
            "ticks": 66720,
            "durationTicks": 31
          },
          {
            "time": 183.026389,
            "midi": 29,
            "name": "F1",
            "velocity": 0.9291338582677166,
            "duration": 0.07127195833334099,
            "ticks": 66768,
            "durationTicks": 26
          },
          {
            "time": 183.157968,
            "midi": 27,
            "name": "D#1",
            "velocity": 0.9291338582677166,
            "duration": 0.09320179166664389,
            "ticks": 66816,
            "durationTicks": 34
          },
          {
            "time": 183.42112600000002,
            "midi": 27,
            "name": "D#1",
            "velocity": 0.9291338582677166,
            "duration": 0.09320179166664389,
            "ticks": 66912,
            "durationTicks": 34
          },
          {
            "time": 183.552705,
            "midi": 27,
            "name": "D#1",
            "velocity": 0.9291338582677166,
            "duration": 0.09320179166664389,
            "ticks": 66960,
            "durationTicks": 34
          },
          {
            "time": 183.815863,
            "midi": 36,
            "name": "C2",
            "velocity": 0.9291338582677166,
            "duration": 0.09320179166664389,
            "ticks": 67056,
            "durationTicks": 34
          },
          {
            "time": 183.947442,
            "midi": 34,
            "name": "A#1",
            "velocity": 0.9291338582677166,
            "duration": 0.0932017916666723,
            "ticks": 67104,
            "durationTicks": 34
          },
          {
            "time": 184.2106,
            "midi": 32,
            "name": "G#1",
            "velocity": 0.9291338582677166,
            "duration": 0.0932017916666723,
            "ticks": 67200,
            "durationTicks": 34
          },
          {
            "time": 184.473758,
            "midi": 32,
            "name": "G#1",
            "velocity": 0.9291338582677166,
            "duration": 0.09320179166664389,
            "ticks": 67296,
            "durationTicks": 34
          },
          {
            "time": 185.000074,
            "midi": 27,
            "name": "D#1",
            "velocity": 0.9291338582677166,
            "duration": 0.09320179166664389,
            "ticks": 67488,
            "durationTicks": 34
          },
          {
            "time": 185.131653,
            "midi": 32,
            "name": "G#1",
            "velocity": 0.9291338582677166,
            "duration": 0.0932017916666723,
            "ticks": 67536,
            "durationTicks": 34
          },
          {
            "time": 185.26323200000002,
            "midi": 29,
            "name": "F1",
            "velocity": 0.9291338582677166,
            "duration": 0.09320179166664389,
            "ticks": 67584,
            "durationTicks": 34
          },
          {
            "time": 185.52639,
            "midi": 29,
            "name": "F1",
            "velocity": 0.9291338582677166,
            "duration": 0.0932017916666723,
            "ticks": 67680,
            "durationTicks": 34
          },
          {
            "time": 185.657969,
            "midi": 36,
            "name": "C2",
            "velocity": 0.9291338582677166,
            "duration": 0.09320179166664389,
            "ticks": 67728,
            "durationTicks": 34
          },
          {
            "time": 185.921127,
            "midi": 36,
            "name": "C2",
            "velocity": 0.9291338582677166,
            "duration": 0.09320179166664389,
            "ticks": 67824,
            "durationTicks": 34
          },
          {
            "time": 186.052706,
            "midi": 34,
            "name": "A#1",
            "velocity": 0.9291338582677166,
            "duration": 0.0932017916666723,
            "ticks": 67872,
            "durationTicks": 34
          },
          {
            "time": 186.579022,
            "midi": 34,
            "name": "A#1",
            "velocity": 0.9291338582677166,
            "duration": 0.09320179166664389,
            "ticks": 68064,
            "durationTicks": 34
          },
          {
            "time": 186.710601,
            "midi": 34,
            "name": "A#1",
            "velocity": 0.9291338582677166,
            "duration": 0.0932017916666723,
            "ticks": 68112,
            "durationTicks": 34
          },
          {
            "time": 186.973759,
            "midi": 36,
            "name": "C2",
            "velocity": 0.9291338582677166,
            "duration": 0.09320179166664389,
            "ticks": 68208,
            "durationTicks": 34
          },
          {
            "time": 187.105338,
            "midi": 34,
            "name": "A#1",
            "velocity": 0.9291338582677166,
            "duration": 0.0932017916666723,
            "ticks": 68256,
            "durationTicks": 34
          },
          {
            "time": 187.368496,
            "midi": 27,
            "name": "D#1",
            "velocity": 0.9291338582677166,
            "duration": 0.0932017916666723,
            "ticks": 68352,
            "durationTicks": 34
          },
          {
            "time": 187.631654,
            "midi": 27,
            "name": "D#1",
            "velocity": 0.9291338582677166,
            "duration": 0.0932017916666723,
            "ticks": 68448,
            "durationTicks": 34
          },
          {
            "time": 187.763233,
            "midi": 36,
            "name": "C2",
            "velocity": 0.9291338582677166,
            "duration": 0.09320179166664389,
            "ticks": 68496,
            "durationTicks": 34
          },
          {
            "time": 188.026391,
            "midi": 36,
            "name": "C2",
            "velocity": 0.9291338582677166,
            "duration": 0.0932017916666723,
            "ticks": 68592,
            "durationTicks": 34
          },
          {
            "time": 188.15797,
            "midi": 34,
            "name": "A#1",
            "velocity": 0.9291338582677166,
            "duration": 0.09320179166664389,
            "ticks": 68640,
            "durationTicks": 34
          },
          {
            "time": 188.421128,
            "midi": 32,
            "name": "G#1",
            "velocity": 0.9291338582677166,
            "duration": 0.09320179166664389,
            "ticks": 68736,
            "durationTicks": 34
          },
          {
            "time": 188.68428600000001,
            "midi": 32,
            "name": "G#1",
            "velocity": 0.9291338582677166,
            "duration": 0.09320179166664389,
            "ticks": 68832,
            "durationTicks": 34
          },
          {
            "time": 189.210602,
            "midi": 27,
            "name": "D#1",
            "velocity": 0.9291338582677166,
            "duration": 0.0932017916666723,
            "ticks": 69024,
            "durationTicks": 34
          },
          {
            "time": 189.342181,
            "midi": 27,
            "name": "D#1",
            "velocity": 0.9291338582677166,
            "duration": 0.09320179166664389,
            "ticks": 69072,
            "durationTicks": 34
          },
          {
            "time": 189.47376,
            "midi": 29,
            "name": "F1",
            "velocity": 0.9291338582677166,
            "duration": 0.0932017916666723,
            "ticks": 69120,
            "durationTicks": 34
          },
          {
            "time": 189.736918,
            "midi": 29,
            "name": "F1",
            "velocity": 0.9291338582677166,
            "duration": 0.09320179166664389,
            "ticks": 69216,
            "durationTicks": 34
          },
          {
            "time": 189.868497,
            "midi": 29,
            "name": "F1",
            "velocity": 0.9291338582677166,
            "duration": 0.0932017916666723,
            "ticks": 69264,
            "durationTicks": 34
          },
          {
            "time": 190.131655,
            "midi": 36,
            "name": "C2",
            "velocity": 0.9291338582677166,
            "duration": 0.0932017916666723,
            "ticks": 69360,
            "durationTicks": 34
          },
          {
            "time": 190.263234,
            "midi": 34,
            "name": "A#1",
            "velocity": 0.9291338582677166,
            "duration": 0.09320179166664389,
            "ticks": 69408,
            "durationTicks": 34
          },
          {
            "time": 190.78955,
            "midi": 32,
            "name": "G#1",
            "velocity": 0.9291338582677166,
            "duration": 0.0932017916666723,
            "ticks": 69600,
            "durationTicks": 34
          },
          {
            "time": 191.052708,
            "midi": 37,
            "name": "C#2",
            "velocity": 0.9291338582677166,
            "duration": 0.0932017916666723,
            "ticks": 69696,
            "durationTicks": 34
          },
          {
            "time": 191.184287,
            "midi": 34,
            "name": "A#1",
            "velocity": 0.9291338582677166,
            "duration": 0.09320179166664389,
            "ticks": 69744,
            "durationTicks": 34
          },
          {
            "time": 191.44744500000002,
            "midi": 37,
            "name": "C#2",
            "velocity": 0.9291338582677166,
            "duration": 0.09320179166664389,
            "ticks": 69840,
            "durationTicks": 34
          },
          {
            "time": 191.579024,
            "midi": 27,
            "name": "D#1",
            "velocity": 0.9291338582677166,
            "duration": 0.09320179166664389,
            "ticks": 69888,
            "durationTicks": 34
          },
          {
            "time": 191.842182,
            "midi": 27,
            "name": "D#1",
            "velocity": 0.9291338582677166,
            "duration": 0.09320179166664389,
            "ticks": 69984,
            "durationTicks": 34
          },
          {
            "time": 191.973761,
            "midi": 27,
            "name": "D#1",
            "velocity": 0.9291338582677166,
            "duration": 0.0932017916666723,
            "ticks": 70032,
            "durationTicks": 34
          },
          {
            "time": 192.236919,
            "midi": 36,
            "name": "C2",
            "velocity": 0.9291338582677166,
            "duration": 0.0932017916666723,
            "ticks": 70128,
            "durationTicks": 34
          },
          {
            "time": 192.368498,
            "midi": 34,
            "name": "A#1",
            "velocity": 0.9291338582677166,
            "duration": 0.0932017916666723,
            "ticks": 70176,
            "durationTicks": 34
          },
          {
            "time": 192.631656,
            "midi": 32,
            "name": "G#1",
            "velocity": 0.9291338582677166,
            "duration": 0.0932017916666723,
            "ticks": 70272,
            "durationTicks": 34
          },
          {
            "time": 192.894814,
            "midi": 32,
            "name": "G#1",
            "velocity": 0.9291338582677166,
            "duration": 0.0932017916666723,
            "ticks": 70368,
            "durationTicks": 34
          },
          {
            "time": 193.42113,
            "midi": 27,
            "name": "D#1",
            "velocity": 0.9291338582677166,
            "duration": 0.09320179166664389,
            "ticks": 70560,
            "durationTicks": 34
          },
          {
            "time": 193.552709,
            "midi": 32,
            "name": "G#1",
            "velocity": 0.9291338582677166,
            "duration": 0.0932017916666723,
            "ticks": 70608,
            "durationTicks": 34
          },
          {
            "time": 193.684288,
            "midi": 29,
            "name": "F1",
            "velocity": 0.9291338582677166,
            "duration": 0.09320179166664389,
            "ticks": 70656,
            "durationTicks": 34
          },
          {
            "time": 193.947446,
            "midi": 29,
            "name": "F1",
            "velocity": 0.9291338582677166,
            "duration": 0.09320179166664389,
            "ticks": 70752,
            "durationTicks": 34
          },
          {
            "time": 194.079025,
            "midi": 36,
            "name": "C2",
            "velocity": 0.9291338582677166,
            "duration": 0.09320179166664389,
            "ticks": 70800,
            "durationTicks": 34
          },
          {
            "time": 194.342183,
            "midi": 36,
            "name": "C2",
            "velocity": 0.9291338582677166,
            "duration": 0.09320179166664389,
            "ticks": 70896,
            "durationTicks": 34
          },
          {
            "time": 194.473762,
            "midi": 34,
            "name": "A#1",
            "velocity": 0.9291338582677166,
            "duration": 0.0932017916666723,
            "ticks": 70944,
            "durationTicks": 34
          },
          {
            "time": 195.000078,
            "midi": 34,
            "name": "A#1",
            "velocity": 0.9291338582677166,
            "duration": 0.09320179166664389,
            "ticks": 71136,
            "durationTicks": 34
          },
          {
            "time": 195.131657,
            "midi": 34,
            "name": "A#1",
            "velocity": 0.9291338582677166,
            "duration": 0.0932017916666723,
            "ticks": 71184,
            "durationTicks": 34
          },
          {
            "time": 195.394815,
            "midi": 36,
            "name": "C2",
            "velocity": 0.9291338582677166,
            "duration": 0.0932017916666723,
            "ticks": 71280,
            "durationTicks": 34
          },
          {
            "time": 195.526394,
            "midi": 34,
            "name": "A#1",
            "velocity": 0.9291338582677166,
            "duration": 0.09320179166664389,
            "ticks": 71328,
            "durationTicks": 34
          },
          {
            "time": 195.78955200000001,
            "midi": 27,
            "name": "D#1",
            "velocity": 0.9291338582677166,
            "duration": 0.09320179166664389,
            "ticks": 71424,
            "durationTicks": 34
          },
          {
            "time": 196.05271,
            "midi": 27,
            "name": "D#1",
            "velocity": 0.9291338582677166,
            "duration": 0.0932017916666723,
            "ticks": 71520,
            "durationTicks": 34
          },
          {
            "time": 196.184289,
            "midi": 36,
            "name": "C2",
            "velocity": 0.9291338582677166,
            "duration": 0.09320179166664389,
            "ticks": 71568,
            "durationTicks": 34
          },
          {
            "time": 196.447447,
            "midi": 36,
            "name": "C2",
            "velocity": 0.9291338582677166,
            "duration": 0.09320179166664389,
            "ticks": 71664,
            "durationTicks": 34
          },
          {
            "time": 196.579026,
            "midi": 34,
            "name": "A#1",
            "velocity": 0.9291338582677166,
            "duration": 0.0932017916666723,
            "ticks": 71712,
            "durationTicks": 34
          },
          {
            "time": 196.842184,
            "midi": 32,
            "name": "G#1",
            "velocity": 0.9291338582677166,
            "duration": 0.09320179166664389,
            "ticks": 71808,
            "durationTicks": 34
          },
          {
            "time": 197.105342,
            "midi": 32,
            "name": "G#1",
            "velocity": 0.9291338582677166,
            "duration": 0.09320179166664389,
            "ticks": 71904,
            "durationTicks": 34
          },
          {
            "time": 197.63165800000002,
            "midi": 27,
            "name": "D#1",
            "velocity": 0.9291338582677166,
            "duration": 0.09320179166664389,
            "ticks": 72096,
            "durationTicks": 34
          },
          {
            "time": 197.763237,
            "midi": 27,
            "name": "D#1",
            "velocity": 0.9291338582677166,
            "duration": 0.09320179166664389,
            "ticks": 72144,
            "durationTicks": 34
          },
          {
            "time": 197.894816,
            "midi": 29,
            "name": "F1",
            "velocity": 0.9291338582677166,
            "duration": 0.0932017916666723,
            "ticks": 72192,
            "durationTicks": 34
          },
          {
            "time": 198.157974,
            "midi": 29,
            "name": "F1",
            "velocity": 0.9291338582677166,
            "duration": 0.0932017916666723,
            "ticks": 72288,
            "durationTicks": 34
          },
          {
            "time": 198.289553,
            "midi": 29,
            "name": "F1",
            "velocity": 0.9291338582677166,
            "duration": 0.09320179166664389,
            "ticks": 72336,
            "durationTicks": 34
          },
          {
            "time": 198.55271100000002,
            "midi": 36,
            "name": "C2",
            "velocity": 0.9291338582677166,
            "duration": 0.09320179166664389,
            "ticks": 72432,
            "durationTicks": 34
          },
          {
            "time": 198.68429,
            "midi": 34,
            "name": "A#1",
            "velocity": 0.9291338582677166,
            "duration": 0.09320179166664389,
            "ticks": 72480,
            "durationTicks": 34
          },
          {
            "time": 199.210606,
            "midi": 32,
            "name": "G#1",
            "velocity": 0.9291338582677166,
            "duration": 0.09320179166664389,
            "ticks": 72672,
            "durationTicks": 34
          },
          {
            "time": 199.473764,
            "midi": 37,
            "name": "C#2",
            "velocity": 0.7874015748031497,
            "duration": 0.0932017916666723,
            "ticks": 72768,
            "durationTicks": 34
          },
          {
            "time": 199.605343,
            "midi": 34,
            "name": "A#1",
            "velocity": 0.9291338582677166,
            "duration": 0.09320179166664389,
            "ticks": 72816,
            "durationTicks": 34
          },
          {
            "time": 199.868501,
            "midi": 37,
            "name": "C#2",
            "velocity": 0.7874015748031497,
            "duration": 0.09320179166664389,
            "ticks": 72912,
            "durationTicks": 34
          },
          {
            "time": 200.00008,
            "midi": 27,
            "name": "D#1",
            "velocity": 0.9291338582677166,
            "duration": 0.0932017916666723,
            "ticks": 72960,
            "durationTicks": 34
          },
          {
            "time": 200.263238,
            "midi": 27,
            "name": "D#1",
            "velocity": 0.9291338582677166,
            "duration": 0.09320179166664389,
            "ticks": 73056,
            "durationTicks": 34
          },
          {
            "time": 200.394817,
            "midi": 27,
            "name": "D#1",
            "velocity": 0.9291338582677166,
            "duration": 0.0932017916666723,
            "ticks": 73104,
            "durationTicks": 34
          },
          {
            "time": 200.657975,
            "midi": 36,
            "name": "C2",
            "velocity": 0.9291338582677166,
            "duration": 0.0932017916666723,
            "ticks": 73200,
            "durationTicks": 34
          },
          {
            "time": 200.789554,
            "midi": 34,
            "name": "A#1",
            "velocity": 0.9291338582677166,
            "duration": 0.09320179166664389,
            "ticks": 73248,
            "durationTicks": 34
          },
          {
            "time": 201.052712,
            "midi": 32,
            "name": "G#1",
            "velocity": 0.9291338582677166,
            "duration": 0.09320179166664389,
            "ticks": 73344,
            "durationTicks": 34
          },
          {
            "time": 201.31587,
            "midi": 32,
            "name": "G#1",
            "velocity": 0.9291338582677166,
            "duration": 0.0932017916666723,
            "ticks": 73440,
            "durationTicks": 34
          },
          {
            "time": 201.842186,
            "midi": 27,
            "name": "D#1",
            "velocity": 0.9291338582677166,
            "duration": 0.0932017916666723,
            "ticks": 73632,
            "durationTicks": 34
          },
          {
            "time": 201.97376500000001,
            "midi": 32,
            "name": "G#1",
            "velocity": 0.9291338582677166,
            "duration": 0.09320179166664389,
            "ticks": 73680,
            "durationTicks": 34
          },
          {
            "time": 202.105344,
            "midi": 29,
            "name": "F1",
            "velocity": 0.9291338582677166,
            "duration": 0.09320179166664389,
            "ticks": 73728,
            "durationTicks": 34
          },
          {
            "time": 202.368502,
            "midi": 29,
            "name": "F1",
            "velocity": 0.9291338582677166,
            "duration": 0.09320179166664389,
            "ticks": 73824,
            "durationTicks": 34
          },
          {
            "time": 202.500081,
            "midi": 36,
            "name": "C2",
            "velocity": 0.9291338582677166,
            "duration": 0.0932017916666723,
            "ticks": 73872,
            "durationTicks": 34
          },
          {
            "time": 202.763239,
            "midi": 36,
            "name": "C2",
            "velocity": 0.9291338582677166,
            "duration": 0.0932017916666723,
            "ticks": 73968,
            "durationTicks": 34
          },
          {
            "time": 202.89481800000001,
            "midi": 34,
            "name": "A#1",
            "velocity": 0.9291338582677166,
            "duration": 0.09320179166664389,
            "ticks": 74016,
            "durationTicks": 34
          },
          {
            "time": 203.421134,
            "midi": 34,
            "name": "A#1",
            "velocity": 0.9291338582677166,
            "duration": 0.0932017916666723,
            "ticks": 74208,
            "durationTicks": 34
          },
          {
            "time": 203.552713,
            "midi": 34,
            "name": "A#1",
            "velocity": 0.9291338582677166,
            "duration": 0.09320179166664389,
            "ticks": 74256,
            "durationTicks": 34
          },
          {
            "time": 203.81587100000002,
            "midi": 36,
            "name": "C2",
            "velocity": 0.9291338582677166,
            "duration": 0.09320179166664389,
            "ticks": 74352,
            "durationTicks": 34
          },
          {
            "time": 203.94745,
            "midi": 34,
            "name": "A#1",
            "velocity": 0.9291338582677166,
            "duration": 0.09320179166664389,
            "ticks": 74400,
            "durationTicks": 34
          },
          {
            "time": 204.210608,
            "midi": 27,
            "name": "D#1",
            "velocity": 0.9291338582677166,
            "duration": 0.09320179166664389,
            "ticks": 74496,
            "durationTicks": 34
          },
          {
            "time": 204.473766,
            "midi": 27,
            "name": "D#1",
            "velocity": 0.9291338582677166,
            "duration": 0.09320179166664389,
            "ticks": 74592,
            "durationTicks": 34
          },
          {
            "time": 204.605345,
            "midi": 36,
            "name": "C2",
            "velocity": 0.9291338582677166,
            "duration": 0.0932017916666723,
            "ticks": 74640,
            "durationTicks": 34
          },
          {
            "time": 204.868503,
            "midi": 36,
            "name": "C2",
            "velocity": 0.9291338582677166,
            "duration": 0.09320179166664389,
            "ticks": 74736,
            "durationTicks": 34
          },
          {
            "time": 205.000082,
            "midi": 34,
            "name": "A#1",
            "velocity": 0.9291338582677166,
            "duration": 0.0932017916666723,
            "ticks": 74784,
            "durationTicks": 34
          },
          {
            "time": 205.26324,
            "midi": 32,
            "name": "G#1",
            "velocity": 0.9291338582677166,
            "duration": 0.0932017916666723,
            "ticks": 74880,
            "durationTicks": 34
          },
          {
            "time": 205.526398,
            "midi": 32,
            "name": "G#1",
            "velocity": 0.9291338582677166,
            "duration": 0.0932017916666723,
            "ticks": 74976,
            "durationTicks": 34
          },
          {
            "time": 206.052714,
            "midi": 27,
            "name": "D#1",
            "velocity": 0.9291338582677166,
            "duration": 0.09320179166664389,
            "ticks": 75168,
            "durationTicks": 34
          },
          {
            "time": 206.184293,
            "midi": 27,
            "name": "D#1",
            "velocity": 0.9291338582677166,
            "duration": 0.0932017916666723,
            "ticks": 75216,
            "durationTicks": 34
          },
          {
            "time": 206.315872,
            "midi": 29,
            "name": "F1",
            "velocity": 0.9291338582677166,
            "duration": 0.09320179166664389,
            "ticks": 75264,
            "durationTicks": 34
          },
          {
            "time": 206.57903,
            "midi": 29,
            "name": "F1",
            "velocity": 0.9291338582677166,
            "duration": 0.0932017916666723,
            "ticks": 75360,
            "durationTicks": 34
          },
          {
            "time": 206.710609,
            "midi": 29,
            "name": "F1",
            "velocity": 0.9291338582677166,
            "duration": 0.09320179166664389,
            "ticks": 75408,
            "durationTicks": 34
          },
          {
            "time": 206.973767,
            "midi": 36,
            "name": "C2",
            "velocity": 0.9291338582677166,
            "duration": 0.09320179166664389,
            "ticks": 75504,
            "durationTicks": 34
          },
          {
            "time": 207.105346,
            "midi": 34,
            "name": "A#1",
            "velocity": 0.9291338582677166,
            "duration": 0.0932017916666723,
            "ticks": 75552,
            "durationTicks": 34
          },
          {
            "time": 207.631662,
            "midi": 32,
            "name": "G#1",
            "velocity": 0.9291338582677166,
            "duration": 0.09320179166664389,
            "ticks": 75744,
            "durationTicks": 34
          },
          {
            "time": 207.89482,
            "midi": 37,
            "name": "C#2",
            "velocity": 0.9291338582677166,
            "duration": 0.09320179166664389,
            "ticks": 75840,
            "durationTicks": 34
          },
          {
            "time": 208.026399,
            "midi": 34,
            "name": "A#1",
            "velocity": 0.9291338582677166,
            "duration": 0.0932017916666723,
            "ticks": 75888,
            "durationTicks": 34
          },
          {
            "time": 208.289557,
            "midi": 37,
            "name": "C#2",
            "velocity": 0.9291338582677166,
            "duration": 0.09320179166664389,
            "ticks": 75984,
            "durationTicks": 34
          },
          {
            "time": 208.421136,
            "midi": 27,
            "name": "D#1",
            "velocity": 0.9291338582677166,
            "duration": 0.0932017916666723,
            "ticks": 76032,
            "durationTicks": 34
          },
          {
            "time": 208.684294,
            "midi": 27,
            "name": "D#1",
            "velocity": 0.9291338582677166,
            "duration": 0.0932017916666723,
            "ticks": 76128,
            "durationTicks": 34
          },
          {
            "time": 208.815873,
            "midi": 27,
            "name": "D#1",
            "velocity": 0.9291338582677166,
            "duration": 0.09320179166664389,
            "ticks": 76176,
            "durationTicks": 34
          },
          {
            "time": 209.07903100000001,
            "midi": 36,
            "name": "C2",
            "velocity": 0.9291338582677166,
            "duration": 0.09320179166664389,
            "ticks": 76272,
            "durationTicks": 34
          },
          {
            "time": 209.21061,
            "midi": 34,
            "name": "A#1",
            "velocity": 0.9291338582677166,
            "duration": 0.09320179166664389,
            "ticks": 76320,
            "durationTicks": 34
          },
          {
            "time": 209.473768,
            "midi": 32,
            "name": "G#1",
            "velocity": 0.9291338582677166,
            "duration": 0.09320179166664389,
            "ticks": 76416,
            "durationTicks": 34
          },
          {
            "time": 209.736926,
            "midi": 32,
            "name": "G#1",
            "velocity": 0.9291338582677166,
            "duration": 0.09320179166664389,
            "ticks": 76512,
            "durationTicks": 34
          },
          {
            "time": 210.263242,
            "midi": 27,
            "name": "D#1",
            "velocity": 0.9291338582677166,
            "duration": 0.0932017916666723,
            "ticks": 76704,
            "durationTicks": 34
          },
          {
            "time": 210.394821,
            "midi": 32,
            "name": "G#1",
            "velocity": 0.9291338582677166,
            "duration": 0.09320179166664389,
            "ticks": 76752,
            "durationTicks": 34
          },
          {
            "time": 210.5264,
            "midi": 29,
            "name": "F1",
            "velocity": 0.9291338582677166,
            "duration": 0.0932017916666723,
            "ticks": 76800,
            "durationTicks": 34
          },
          {
            "time": 210.789558,
            "midi": 29,
            "name": "F1",
            "velocity": 0.9291338582677166,
            "duration": 0.0932017916666723,
            "ticks": 76896,
            "durationTicks": 34
          },
          {
            "time": 210.92113700000002,
            "midi": 36,
            "name": "C2",
            "velocity": 0.9291338582677166,
            "duration": 0.09320179166664389,
            "ticks": 76944,
            "durationTicks": 34
          },
          {
            "time": 211.184295,
            "midi": 36,
            "name": "C2",
            "velocity": 0.9291338582677166,
            "duration": 0.0932017916666723,
            "ticks": 77040,
            "durationTicks": 34
          },
          {
            "time": 211.315874,
            "midi": 34,
            "name": "A#1",
            "velocity": 0.9291338582677166,
            "duration": 0.09320179166664389,
            "ticks": 77088,
            "durationTicks": 34
          },
          {
            "time": 211.84219000000002,
            "midi": 34,
            "name": "A#1",
            "velocity": 0.9291338582677166,
            "duration": 0.09320179166664389,
            "ticks": 77280,
            "durationTicks": 34
          },
          {
            "time": 211.973769,
            "midi": 34,
            "name": "A#1",
            "velocity": 0.9291338582677166,
            "duration": 0.09320179166664389,
            "ticks": 77328,
            "durationTicks": 34
          },
          {
            "time": 212.236927,
            "midi": 36,
            "name": "C2",
            "velocity": 0.9291338582677166,
            "duration": 0.09320179166664389,
            "ticks": 77424,
            "durationTicks": 34
          },
          {
            "time": 212.368506,
            "midi": 34,
            "name": "A#1",
            "velocity": 0.9291338582677166,
            "duration": 0.0932017916666723,
            "ticks": 77472,
            "durationTicks": 34
          },
          {
            "time": 212.631664,
            "midi": 27,
            "name": "D#1",
            "velocity": 0.9291338582677166,
            "duration": 0.0932017916666723,
            "ticks": 77568,
            "durationTicks": 34
          },
          {
            "time": 212.894822,
            "midi": 27,
            "name": "D#1",
            "velocity": 0.9291338582677166,
            "duration": 0.09320179166664389,
            "ticks": 77664,
            "durationTicks": 34
          },
          {
            "time": 213.026401,
            "midi": 36,
            "name": "C2",
            "velocity": 0.9291338582677166,
            "duration": 0.0932017916666723,
            "ticks": 77712,
            "durationTicks": 34
          },
          {
            "time": 213.289559,
            "midi": 36,
            "name": "C2",
            "velocity": 0.9291338582677166,
            "duration": 0.0932017916666723,
            "ticks": 77808,
            "durationTicks": 34
          },
          {
            "time": 213.421138,
            "midi": 34,
            "name": "A#1",
            "velocity": 0.9291338582677166,
            "duration": 0.09320179166664389,
            "ticks": 77856,
            "durationTicks": 34
          },
          {
            "time": 213.684296,
            "midi": 32,
            "name": "G#1",
            "velocity": 0.9291338582677166,
            "duration": 0.0932017916666723,
            "ticks": 77952,
            "durationTicks": 34
          },
          {
            "time": 213.947454,
            "midi": 32,
            "name": "G#1",
            "velocity": 0.9291338582677166,
            "duration": 0.0932017916666723,
            "ticks": 78048,
            "durationTicks": 34
          },
          {
            "time": 214.47377,
            "midi": 27,
            "name": "D#1",
            "velocity": 0.9291338582677166,
            "duration": 0.09320179166664389,
            "ticks": 78240,
            "durationTicks": 34
          },
          {
            "time": 214.605349,
            "midi": 27,
            "name": "D#1",
            "velocity": 0.9291338582677166,
            "duration": 0.0932017916666723,
            "ticks": 78288,
            "durationTicks": 34
          },
          {
            "time": 214.736928,
            "midi": 29,
            "name": "F1",
            "velocity": 0.9291338582677166,
            "duration": 0.09320179166664389,
            "ticks": 78336,
            "durationTicks": 34
          },
          {
            "time": 215.000086,
            "midi": 29,
            "name": "F1",
            "velocity": 0.9291338582677166,
            "duration": 0.09320179166664389,
            "ticks": 78432,
            "durationTicks": 34
          },
          {
            "time": 215.131665,
            "midi": 29,
            "name": "F1",
            "velocity": 0.9291338582677166,
            "duration": 0.0932017916666723,
            "ticks": 78480,
            "durationTicks": 34
          },
          {
            "time": 215.394823,
            "midi": 36,
            "name": "C2",
            "velocity": 0.9291338582677166,
            "duration": 0.09320179166664389,
            "ticks": 78576,
            "durationTicks": 34
          },
          {
            "time": 215.526402,
            "midi": 34,
            "name": "A#1",
            "velocity": 0.9291338582677166,
            "duration": 0.0932017916666723,
            "ticks": 78624,
            "durationTicks": 34
          },
          {
            "time": 216.052718,
            "midi": 32,
            "name": "G#1",
            "velocity": 0.9291338582677166,
            "duration": 0.0932017916666723,
            "ticks": 78816,
            "durationTicks": 34
          },
          {
            "time": 216.315876,
            "midi": 37,
            "name": "C#2",
            "velocity": 0.7874015748031497,
            "duration": 0.09320179166664389,
            "ticks": 78912,
            "durationTicks": 34
          },
          {
            "time": 216.447455,
            "midi": 34,
            "name": "A#1",
            "velocity": 0.9291338582677166,
            "duration": 0.0932017916666723,
            "ticks": 78960,
            "durationTicks": 34
          },
          {
            "time": 216.710613,
            "midi": 37,
            "name": "C#2",
            "velocity": 0.7874015748031497,
            "duration": 0.0932017916666723,
            "ticks": 79056,
            "durationTicks": 34
          },
          {
            "time": 216.842192,
            "midi": 34,
            "name": "A#1",
            "velocity": 0.9291338582677166,
            "duration": 0.07401318749998609,
            "ticks": 79104,
            "durationTicks": 27
          },
          {
            "time": 217.10535000000002,
            "midi": 34,
            "name": "A#1",
            "velocity": 0.9291338582677166,
            "duration": 0.06853072916663905,
            "ticks": 79200,
            "durationTicks": 25
          },
          {
            "time": 217.236929,
            "midi": 34,
            "name": "A#1",
            "velocity": 0.9291338582677166,
            "duration": 0.09594302083334583,
            "ticks": 79248,
            "durationTicks": 35
          },
          {
            "time": 217.500087,
            "midi": 37,
            "name": "C#2",
            "velocity": 0.9291338582677166,
            "duration": 0.11513162500000362,
            "ticks": 79344,
            "durationTicks": 42
          },
          {
            "time": 217.631666,
            "midi": 36,
            "name": "C2",
            "velocity": 0.9291338582677166,
            "duration": 0.0932017916666723,
            "ticks": 79392,
            "durationTicks": 34
          },
          {
            "time": 217.894824,
            "midi": 32,
            "name": "G#1",
            "velocity": 0.9291338582677166,
            "duration": 0.13980268750000846,
            "ticks": 79488,
            "durationTicks": 51
          },
          {
            "time": 218.157982,
            "midi": 34,
            "name": "A#1",
            "velocity": 0.9291338582677166,
            "duration": 0.09594302083334583,
            "ticks": 79584,
            "durationTicks": 35
          },
          {
            "time": 218.684298,
            "midi": 29,
            "name": "F1",
            "velocity": 0.9291338582677166,
            "duration": 0.09594302083334583,
            "ticks": 79776,
            "durationTicks": 35
          },
          {
            "time": 218.815877,
            "midi": 34,
            "name": "A#1",
            "velocity": 0.9291338582677166,
            "duration": 0.06853072916666747,
            "ticks": 79824,
            "durationTicks": 25
          },
          {
            "time": 219.210614,
            "midi": 32,
            "name": "G#1",
            "velocity": 0.9291338582677166,
            "duration": 0.06578950000002237,
            "ticks": 79968,
            "durationTicks": 24
          },
          {
            "time": 219.342193,
            "midi": 34,
            "name": "A#1",
            "velocity": 0.9291338582677166,
            "duration": 0.08497810416665175,
            "ticks": 80016,
            "durationTicks": 31
          },
          {
            "time": 219.605351,
            "midi": 37,
            "name": "C#2",
            "velocity": 0.9291338582677166,
            "duration": 0.08223687499997823,
            "ticks": 80112,
            "durationTicks": 30
          },
          {
            "time": 219.73693,
            "midi": 36,
            "name": "C2",
            "velocity": 0.9291338582677166,
            "duration": 0.07675441666665961,
            "ticks": 80160,
            "durationTicks": 28
          },
          {
            "time": 220.263246,
            "midi": 34,
            "name": "A#1",
            "velocity": 0.9291338582677166,
            "duration": 0.09046056249999879,
            "ticks": 80352,
            "durationTicks": 33
          },
          {
            "time": 220.789562,
            "midi": 32,
            "name": "G#1",
            "velocity": 0.9291338582677166,
            "duration": 0.05756581250000181,
            "ticks": 80544,
            "durationTicks": 21
          },
          {
            "time": 220.921141,
            "midi": 32,
            "name": "G#1",
            "velocity": 0.9291338582677166,
            "duration": 0.07675441666665961,
            "ticks": 80592,
            "durationTicks": 28
          },
          {
            "time": 221.05272,
            "midi": 34,
            "name": "A#1",
            "velocity": 0.9291338582677166,
            "duration": 0.10416670833336639,
            "ticks": 80640,
            "durationTicks": 38
          },
          {
            "time": 221.315878,
            "midi": 34,
            "name": "A#1",
            "velocity": 0.9291338582677166,
            "duration": 0.07401318750001451,
            "ticks": 80736,
            "durationTicks": 27
          },
          {
            "time": 221.447457,
            "midi": 34,
            "name": "A#1",
            "velocity": 0.9291338582677166,
            "duration": 0.08771933333332527,
            "ticks": 80784,
            "durationTicks": 32
          },
          {
            "time": 221.710615,
            "midi": 37,
            "name": "C#2",
            "velocity": 0.9291338582677166,
            "duration": 0.09046056249999879,
            "ticks": 80880,
            "durationTicks": 33
          },
          {
            "time": 221.842194,
            "midi": 36,
            "name": "C2",
            "velocity": 0.9291338582677166,
            "duration": 0.07675441666665961,
            "ticks": 80928,
            "durationTicks": 28
          },
          {
            "time": 222.105352,
            "midi": 32,
            "name": "G#1",
            "velocity": 0.9291338582677166,
            "duration": 0.1315789999999879,
            "ticks": 81024,
            "durationTicks": 48
          },
          {
            "time": 222.36851000000001,
            "midi": 34,
            "name": "A#1",
            "velocity": 0.9291338582677166,
            "duration": 0.09320179166664389,
            "ticks": 81120,
            "durationTicks": 34
          },
          {
            "time": 222.894826,
            "midi": 32,
            "name": "G#1",
            "velocity": 0.9291338582677166,
            "duration": 0.05756581250000181,
            "ticks": 81312,
            "durationTicks": 21
          },
          {
            "time": 223.026405,
            "midi": 32,
            "name": "G#1",
            "velocity": 0.9291338582677166,
            "duration": 0.05756581250000181,
            "ticks": 81360,
            "durationTicks": 21
          },
          {
            "time": 223.157984,
            "midi": 27,
            "name": "D#1",
            "velocity": 0.9133858267716536,
            "duration": 0.13157900000001632,
            "ticks": 81408,
            "durationTicks": 48
          },
          {
            "time": 223.421142,
            "midi": 27,
            "name": "D#1",
            "velocity": 0.7874015748031497,
            "duration": 0.07675441666665961,
            "ticks": 81504,
            "durationTicks": 28
          },
          {
            "time": 223.552721,
            "midi": 32,
            "name": "G#1",
            "velocity": 0.9133858267716536,
            "duration": 0.1288377708333428,
            "ticks": 81552,
            "durationTicks": 47
          },
          {
            "time": 223.815879,
            "midi": 32,
            "name": "G#1",
            "velocity": 0.5590551181102362,
            "duration": 0.046600895833364575,
            "ticks": 81648,
            "durationTicks": 17
          },
          {
            "time": 223.947458,
            "midi": 32,
            "name": "G#1",
            "velocity": 0.9133858267716536,
            "duration": 0.08223687499997823,
            "ticks": 81696,
            "durationTicks": 30
          },
          {
            "time": 224.473774,
            "midi": 32,
            "name": "G#1",
            "velocity": 0.9133858267716536,
            "duration": 0.05482458333335671,
            "ticks": 81888,
            "durationTicks": 20
          },
          {
            "time": 224.605353,
            "midi": 32,
            "name": "G#1",
            "velocity": 0.9133858267716536,
            "duration": 0.09868424999999093,
            "ticks": 81936,
            "durationTicks": 36
          },
          {
            "time": 224.868511,
            "midi": 32,
            "name": "G#1",
            "velocity": 0.7874015748031497,
            "duration": 0.06853072916663905,
            "ticks": 82032,
            "durationTicks": 25
          },
          {
            "time": 225.00009,
            "midi": 34,
            "name": "A#1",
            "velocity": 0.7874015748031497,
            "duration": 0.04385966666666263,
            "ticks": 82080,
            "durationTicks": 16
          },
          {
            "time": 225.13166900000002,
            "midi": 34,
            "name": "A#1",
            "velocity": 0.9133858267716536,
            "duration": 0.06030704166664691,
            "ticks": 82128,
            "durationTicks": 22
          },
          {
            "time": 225.263248,
            "midi": 34,
            "name": "A#1",
            "velocity": 0.9291338582677166,
            "duration": 0.07401318749998609,
            "ticks": 82176,
            "durationTicks": 27
          },
          {
            "time": 225.526406,
            "midi": 34,
            "name": "A#1",
            "velocity": 0.9291338582677166,
            "duration": 0.06853072916663905,
            "ticks": 82272,
            "durationTicks": 25
          },
          {
            "time": 225.657985,
            "midi": 34,
            "name": "A#1",
            "velocity": 0.9291338582677166,
            "duration": 0.09594302083334583,
            "ticks": 82320,
            "durationTicks": 35
          },
          {
            "time": 225.921143,
            "midi": 37,
            "name": "C#2",
            "velocity": 0.9291338582677166,
            "duration": 0.11513162500000362,
            "ticks": 82416,
            "durationTicks": 42
          },
          {
            "time": 226.052722,
            "midi": 36,
            "name": "C2",
            "velocity": 0.9291338582677166,
            "duration": 0.0932017916666723,
            "ticks": 82464,
            "durationTicks": 34
          },
          {
            "time": 226.31588,
            "midi": 32,
            "name": "G#1",
            "velocity": 0.9291338582677166,
            "duration": 0.13980268750000846,
            "ticks": 82560,
            "durationTicks": 51
          },
          {
            "time": 226.579038,
            "midi": 34,
            "name": "A#1",
            "velocity": 0.9291338582677166,
            "duration": 0.09594302083334583,
            "ticks": 82656,
            "durationTicks": 35
          },
          {
            "time": 227.105354,
            "midi": 29,
            "name": "F1",
            "velocity": 0.9291338582677166,
            "duration": 0.09594302083334583,
            "ticks": 82848,
            "durationTicks": 35
          },
          {
            "time": 227.236933,
            "midi": 34,
            "name": "A#1",
            "velocity": 0.9291338582677166,
            "duration": 0.06853072916666747,
            "ticks": 82896,
            "durationTicks": 25
          },
          {
            "time": 227.63167,
            "midi": 32,
            "name": "G#1",
            "velocity": 0.9291338582677166,
            "duration": 0.06578949999999395,
            "ticks": 83040,
            "durationTicks": 24
          },
          {
            "time": 227.763249,
            "midi": 34,
            "name": "A#1",
            "velocity": 0.9291338582677166,
            "duration": 0.08497810416665175,
            "ticks": 83088,
            "durationTicks": 31
          },
          {
            "time": 228.026407,
            "midi": 37,
            "name": "C#2",
            "velocity": 0.9291338582677166,
            "duration": 0.08223687500000665,
            "ticks": 83184,
            "durationTicks": 30
          },
          {
            "time": 228.157986,
            "midi": 36,
            "name": "C2",
            "velocity": 0.9291338582677166,
            "duration": 0.07675441666665961,
            "ticks": 83232,
            "durationTicks": 28
          },
          {
            "time": 228.684302,
            "midi": 34,
            "name": "A#1",
            "velocity": 0.9291338582677166,
            "duration": 0.09046056249999879,
            "ticks": 83424,
            "durationTicks": 33
          },
          {
            "time": 229.210618,
            "midi": 32,
            "name": "G#1",
            "velocity": 0.9291338582677166,
            "duration": 0.05756581250000181,
            "ticks": 83616,
            "durationTicks": 21
          },
          {
            "time": 229.342197,
            "midi": 32,
            "name": "G#1",
            "velocity": 0.9291338582677166,
            "duration": 0.07675441666665961,
            "ticks": 83664,
            "durationTicks": 28
          },
          {
            "time": 229.47377600000002,
            "midi": 34,
            "name": "A#1",
            "velocity": 0.9291338582677166,
            "duration": 0.10416670833333797,
            "ticks": 83712,
            "durationTicks": 38
          },
          {
            "time": 229.736934,
            "midi": 34,
            "name": "A#1",
            "velocity": 0.9291338582677166,
            "duration": 0.07401318750001451,
            "ticks": 83808,
            "durationTicks": 27
          },
          {
            "time": 229.868513,
            "midi": 34,
            "name": "A#1",
            "velocity": 0.9291338582677166,
            "duration": 0.08771933333332527,
            "ticks": 83856,
            "durationTicks": 32
          },
          {
            "time": 230.131671,
            "midi": 37,
            "name": "C#2",
            "velocity": 0.9291338582677166,
            "duration": 0.09046056249999879,
            "ticks": 83952,
            "durationTicks": 33
          },
          {
            "time": 230.26325,
            "midi": 36,
            "name": "C2",
            "velocity": 0.9291338582677166,
            "duration": 0.07675441666665961,
            "ticks": 84000,
            "durationTicks": 28
          },
          {
            "time": 230.526408,
            "midi": 32,
            "name": "G#1",
            "velocity": 0.9291338582677166,
            "duration": 0.1315789999999879,
            "ticks": 84096,
            "durationTicks": 48
          },
          {
            "time": 230.789566,
            "midi": 34,
            "name": "A#1",
            "velocity": 0.9291338582677166,
            "duration": 0.09320179166664389,
            "ticks": 84192,
            "durationTicks": 34
          },
          {
            "time": 231.31588200000002,
            "midi": 32,
            "name": "G#1",
            "velocity": 0.9291338582677166,
            "duration": 0.05756581249997339,
            "ticks": 84384,
            "durationTicks": 21
          },
          {
            "time": 231.447461,
            "midi": 32,
            "name": "G#1",
            "velocity": 0.9291338582677166,
            "duration": 0.05756581250000181,
            "ticks": 84432,
            "durationTicks": 21
          },
          {
            "time": 231.57904,
            "midi": 27,
            "name": "D#1",
            "velocity": 0.9133858267716536,
            "duration": 0.13157900000001632,
            "ticks": 84480,
            "durationTicks": 48
          },
          {
            "time": 231.842198,
            "midi": 27,
            "name": "D#1",
            "velocity": 0.7874015748031497,
            "duration": 0.07675441666665961,
            "ticks": 84576,
            "durationTicks": 28
          },
          {
            "time": 231.973777,
            "midi": 32,
            "name": "G#1",
            "velocity": 0.9133858267716536,
            "duration": 0.1288377708333428,
            "ticks": 84624,
            "durationTicks": 47
          },
          {
            "time": 232.23693500000002,
            "midi": 32,
            "name": "G#1",
            "velocity": 0.5590551181102362,
            "duration": 0.04660089583333615,
            "ticks": 84720,
            "durationTicks": 17
          },
          {
            "time": 232.368514,
            "midi": 32,
            "name": "G#1",
            "velocity": 0.9133858267716536,
            "duration": 0.08223687500000665,
            "ticks": 84768,
            "durationTicks": 30
          },
          {
            "time": 232.89483,
            "midi": 32,
            "name": "G#1",
            "velocity": 0.9133858267716536,
            "duration": 0.05482458333332829,
            "ticks": 84960,
            "durationTicks": 20
          },
          {
            "time": 233.026409,
            "midi": 32,
            "name": "G#1",
            "velocity": 0.9133858267716536,
            "duration": 0.09868424999999093,
            "ticks": 85008,
            "durationTicks": 36
          },
          {
            "time": 233.289567,
            "midi": 32,
            "name": "G#1",
            "velocity": 0.7874015748031497,
            "duration": 0.06853072916666747,
            "ticks": 85104,
            "durationTicks": 25
          },
          {
            "time": 233.421146,
            "midi": 34,
            "name": "A#1",
            "velocity": 0.7874015748031497,
            "duration": 0.04385966666666263,
            "ticks": 85152,
            "durationTicks": 16
          },
          {
            "time": 233.552725,
            "midi": 34,
            "name": "A#1",
            "velocity": 0.9133858267716536,
            "duration": 0.06030704166664691,
            "ticks": 85200,
            "durationTicks": 22
          },
          {
            "time": 241.85590814583335,
            "midi": 34,
            "name": "A#1",
            "velocity": 0.9133858267716536,
            "duration": 0.1672149791666584,
            "ticks": 88229,
            "durationTicks": 61
          }
        ],
        "controlChanges": {
          "0": [
            {
              "number": 0,
              "value": 0,
              "time": 1.5844304583333333,
              "ticks": 578
            }
          ],
          "1": [
            {
              "number": 1,
              "value": 0,
              "time": 0.021929833333333332,
              "ticks": 8
            }
          ],
          "6": [
            {
              "number": 6,
              "value": 0.09448818897637795,
              "time": 0.016447375,
              "ticks": 6
            }
          ],
          "7": [
            {
              "number": 7,
              "value": 0.8661417322834646,
              "time": 1.5899129166666668,
              "ticks": 580
            }
          ],
          "10": [
            {
              "number": 10,
              "value": 0.5039370078740157,
              "time": 1.595395375,
              "ticks": 582
            }
          ],
          "11": [
            {
              "number": 11,
              "value": 1,
              "time": 0.019188604166666668,
              "ticks": 7
            },
            {
              "number": 11,
              "value": 1,
              "time": 0.027412291666666668,
              "ticks": 10
            },
            {
              "number": 11,
              "value": 1,
              "time": 1.6008778333333333,
              "ticks": 584
            }
          ],
          "32": [
            {
              "number": 32,
              "value": 0,
              "time": 1.5844304583333333,
              "ticks": 578
            }
          ],
          "64": [
            {
              "number": 64,
              "value": 0,
              "time": 0.0082236875,
              "ticks": 3
            }
          ],
          "67": [
            {
              "number": 67,
              "value": 0,
              "time": 0.005482458333333333,
              "ticks": 2
            }
          ],
          "91": [
            {
              "number": 91,
              "value": 0,
              "time": 1.6063602916666668,
              "ticks": 586
            }
          ],
          "93": [
            {
              "number": 93,
              "value": 0,
              "time": 1.61184275,
              "ticks": 588
            }
          ],
          "100": [
            {
              "number": 100,
              "value": 0,
              "time": 0.010964916666666666,
              "ticks": 4
            }
          ],
          "101": [
            {
              "number": 101,
              "value": 0,
              "time": 0.013706145833333334,
              "ticks": 5
            }
          ],
          "121": [
            {
              "number": 121,
              "value": 0,
              "time": 0,
              "ticks": 0
            }
          ],
          "123": [
            {
              "number": 123,
              "value": 0,
              "time": 244.20514154166665,
              "ticks": 89086
            }
          ]
        }
      },
      {
        "name": "Synth Choir",
        "channel": 0,
        "instrument": {
          "number": 54,
          "name": "synth voice",
          "family": "ensemble"
        },
        "notes": [
          {
            "time": 6.315792,
            "midi": 58,
            "name": "A#3",
            "velocity": 0.7874015748031497,
            "duration": 0.773026625,
            "ticks": 2304,
            "durationTicks": 282
          },
          {
            "time": 6.315792,
            "midi": 66,
            "name": "F#4",
            "velocity": 0.7874015748031497,
            "duration": 0.844298583333333,
            "ticks": 2304,
            "durationTicks": 308
          },
          {
            "time": 6.315792,
            "midi": 61,
            "name": "C#4",
            "velocity": 0.7874015748031497,
            "duration": 0.7483555624999996,
            "ticks": 2304,
            "durationTicks": 273
          },
          {
            "time": 7.105266,
            "midi": 68,
            "name": "G#4",
            "velocity": 0.7874015748031497,
            "duration": 3.4320189166666655,
            "ticks": 2592,
            "durationTicks": 1252
          },
          {
            "time": 7.105266,
            "midi": 63,
            "name": "D#4",
            "velocity": 0.7874015748031497,
            "duration": 2.0668867916666667,
            "ticks": 2592,
            "durationTicks": 754
          },
          {
            "time": 7.105266,
            "midi": 60,
            "name": "C4",
            "velocity": 0.7874015748031497,
            "duration": 2.0805929375000005,
            "ticks": 2592,
            "durationTicks": 759
          },
          {
            "time": 9.21053,
            "midi": 61,
            "name": "C#4",
            "velocity": 0.7874015748031497,
            "duration": 0.8086626041666651,
            "ticks": 3360,
            "durationTicks": 295
          },
          {
            "time": 9.21053,
            "midi": 65,
            "name": "F4",
            "velocity": 0.7874015748031497,
            "duration": 0.8826757916666654,
            "ticks": 3360,
            "durationTicks": 322
          },
          {
            "time": 10.000004,
            "midi": 63,
            "name": "D#4",
            "velocity": 0.7874015748031497,
            "duration": 0.5263159999999996,
            "ticks": 3648,
            "durationTicks": 192
          },
          {
            "time": 10.000004,
            "midi": 60,
            "name": "C4",
            "velocity": 0.7874015748031497,
            "duration": 0.4797151041666652,
            "ticks": 3648,
            "durationTicks": 175
          },
          {
            "time": 10.52632,
            "midi": 66,
            "name": "F#4",
            "velocity": 0.7874015748031497,
            "duration": 0.8908994791666665,
            "ticks": 3840,
            "durationTicks": 325
          },
          {
            "time": 10.52632,
            "midi": 58,
            "name": "A#3",
            "velocity": 0.7874015748031497,
            "duration": 0.8223687500000008,
            "ticks": 3840,
            "durationTicks": 300
          },
          {
            "time": 10.52632,
            "midi": 61,
            "name": "C#4",
            "velocity": 0.7874015748031497,
            "duration": 0.773026625,
            "ticks": 3840,
            "durationTicks": 282
          },
          {
            "time": 11.315794,
            "midi": 63,
            "name": "D#4",
            "velocity": 0.7874015748031497,
            "duration": 1.8229173958333345,
            "ticks": 4128,
            "durationTicks": 665
          },
          {
            "time": 11.315794,
            "midi": 60,
            "name": "C4",
            "velocity": 0.7874015748031497,
            "duration": 1.8092112500000006,
            "ticks": 4128,
            "durationTicks": 660
          },
          {
            "time": 11.315794,
            "midi": 68,
            "name": "G#4",
            "velocity": 0.7874015748031497,
            "duration": 3.242874104166665,
            "ticks": 4128,
            "durationTicks": 1183
          },
          {
            "time": 12.631584,
            "midi": 56,
            "name": "G#3",
            "velocity": 0.7874015748031497,
            "duration": 0.5043861666666665,
            "ticks": 4608,
            "durationTicks": 184
          },
          {
            "time": 13.1579,
            "midi": 65,
            "name": "F4",
            "velocity": 0.7874015748031497,
            "duration": 1.3870619583333337,
            "ticks": 4800,
            "durationTicks": 506
          },
          {
            "time": 13.1579,
            "midi": 61,
            "name": "C#4",
            "velocity": 0.7874015748031497,
            "duration": 1.4144742499999996,
            "ticks": 4800,
            "durationTicks": 516
          },
          {
            "time": 14.736848,
            "midi": 58,
            "name": "A#3",
            "velocity": 0.7874015748031497,
            "duration": 0.773026625,
            "ticks": 5376,
            "durationTicks": 282
          },
          {
            "time": 14.736848,
            "midi": 66,
            "name": "F#4",
            "velocity": 0.7874015748031497,
            "duration": 0.8442985833333339,
            "ticks": 5376,
            "durationTicks": 308
          },
          {
            "time": 14.736848,
            "midi": 61,
            "name": "C#4",
            "velocity": 0.7874015748031497,
            "duration": 0.7483555625000005,
            "ticks": 5376,
            "durationTicks": 273
          },
          {
            "time": 15.526322,
            "midi": 68,
            "name": "G#4",
            "velocity": 0.7874015748031497,
            "duration": 3.4320189166666673,
            "ticks": 5664,
            "durationTicks": 1252
          },
          {
            "time": 15.526322,
            "midi": 63,
            "name": "D#4",
            "velocity": 0.7874015748031497,
            "duration": 2.0668867916666684,
            "ticks": 5664,
            "durationTicks": 754
          },
          {
            "time": 15.526322,
            "midi": 60,
            "name": "C4",
            "velocity": 0.7874015748031497,
            "duration": 2.0805929375000005,
            "ticks": 5664,
            "durationTicks": 759
          },
          {
            "time": 17.631586,
            "midi": 61,
            "name": "C#4",
            "velocity": 0.7874015748031497,
            "duration": 0.8086626041666705,
            "ticks": 6432,
            "durationTicks": 295
          },
          {
            "time": 17.631586,
            "midi": 65,
            "name": "F4",
            "velocity": 0.7874015748031497,
            "duration": 0.8826757916666708,
            "ticks": 6432,
            "durationTicks": 322
          },
          {
            "time": 18.42106,
            "midi": 63,
            "name": "D#4",
            "velocity": 0.7874015748031497,
            "duration": 0.5263159999999978,
            "ticks": 6720,
            "durationTicks": 192
          },
          {
            "time": 18.42106,
            "midi": 60,
            "name": "C4",
            "velocity": 0.7874015748031497,
            "duration": 0.47971510416666874,
            "ticks": 6720,
            "durationTicks": 175
          },
          {
            "time": 18.947376,
            "midi": 66,
            "name": "F#4",
            "velocity": 0.7874015748031497,
            "duration": 0.89089947916667,
            "ticks": 6912,
            "durationTicks": 325
          },
          {
            "time": 18.947376,
            "midi": 58,
            "name": "A#3",
            "velocity": 0.7874015748031497,
            "duration": 0.8223687500000025,
            "ticks": 6912,
            "durationTicks": 300
          },
          {
            "time": 18.947376,
            "midi": 61,
            "name": "C#4",
            "velocity": 0.7874015748031497,
            "duration": 0.7730266250000035,
            "ticks": 6912,
            "durationTicks": 282
          },
          {
            "time": 19.73685,
            "midi": 63,
            "name": "D#4",
            "velocity": 0.7874015748031497,
            "duration": 1.8229173958333327,
            "ticks": 7200,
            "durationTicks": 665
          },
          {
            "time": 19.73685,
            "midi": 60,
            "name": "C4",
            "velocity": 0.7874015748031497,
            "duration": 1.8092112500000006,
            "ticks": 7200,
            "durationTicks": 660
          },
          {
            "time": 19.73685,
            "midi": 68,
            "name": "G#4",
            "velocity": 0.7874015748031497,
            "duration": 3.242874104166667,
            "ticks": 7200,
            "durationTicks": 1183
          },
          {
            "time": 21.05264,
            "midi": 56,
            "name": "G#3",
            "velocity": 0.7874015748031497,
            "duration": 0.5043861666666665,
            "ticks": 7680,
            "durationTicks": 184
          },
          {
            "time": 21.578956,
            "midi": 65,
            "name": "F4",
            "velocity": 0.7874015748031497,
            "duration": 1.3870619583333301,
            "ticks": 7872,
            "durationTicks": 506
          },
          {
            "time": 21.578956,
            "midi": 61,
            "name": "C#4",
            "velocity": 0.7874015748031497,
            "duration": 1.4144742499999978,
            "ticks": 7872,
            "durationTicks": 516
          },
          {
            "time": 48.421072,
            "midi": 58,
            "name": "A#3",
            "velocity": 0.7874015748031497,
            "duration": 0.773026625,
            "ticks": 17664,
            "durationTicks": 282
          },
          {
            "time": 48.421072,
            "midi": 66,
            "name": "F#4",
            "velocity": 0.7874015748031497,
            "duration": 0.8442985833333339,
            "ticks": 17664,
            "durationTicks": 308
          },
          {
            "time": 48.421072,
            "midi": 61,
            "name": "C#4",
            "velocity": 0.7874015748031497,
            "duration": 0.7483555624999951,
            "ticks": 17664,
            "durationTicks": 273
          },
          {
            "time": 49.210546,
            "midi": 68,
            "name": "G#4",
            "velocity": 0.7874015748031497,
            "duration": 3.4320189166666637,
            "ticks": 17952,
            "durationTicks": 1252
          },
          {
            "time": 49.210546,
            "midi": 63,
            "name": "D#4",
            "velocity": 0.7874015748031497,
            "duration": 2.0668867916666613,
            "ticks": 17952,
            "durationTicks": 754
          },
          {
            "time": 49.210546,
            "midi": 60,
            "name": "C4",
            "velocity": 0.7874015748031497,
            "duration": 2.0805929375000005,
            "ticks": 17952,
            "durationTicks": 759
          },
          {
            "time": 51.31581,
            "midi": 61,
            "name": "C#4",
            "velocity": 0.7874015748031497,
            "duration": 0.8086626041666634,
            "ticks": 18720,
            "durationTicks": 295
          },
          {
            "time": 51.31581,
            "midi": 65,
            "name": "F4",
            "velocity": 0.7874015748031497,
            "duration": 0.8826757916666637,
            "ticks": 18720,
            "durationTicks": 322
          },
          {
            "time": 52.105284,
            "midi": 63,
            "name": "D#4",
            "velocity": 0.7874015748031497,
            "duration": 0.5263160000000013,
            "ticks": 19008,
            "durationTicks": 192
          },
          {
            "time": 52.105284,
            "midi": 60,
            "name": "C4",
            "velocity": 0.7874015748031497,
            "duration": 0.4797151041666652,
            "ticks": 19008,
            "durationTicks": 175
          },
          {
            "time": 52.6316,
            "midi": 66,
            "name": "F#4",
            "velocity": 0.7874015748031497,
            "duration": 0.8908994791666629,
            "ticks": 19200,
            "durationTicks": 325
          },
          {
            "time": 52.6316,
            "midi": 58,
            "name": "A#3",
            "velocity": 0.7874015748031497,
            "duration": 0.8223687500000025,
            "ticks": 19200,
            "durationTicks": 300
          },
          {
            "time": 52.6316,
            "midi": 61,
            "name": "C#4",
            "velocity": 0.7874015748031497,
            "duration": 0.773026625,
            "ticks": 19200,
            "durationTicks": 282
          },
          {
            "time": 53.421074,
            "midi": 63,
            "name": "D#4",
            "velocity": 0.7874015748031497,
            "duration": 1.8229173958333362,
            "ticks": 19488,
            "durationTicks": 665
          },
          {
            "time": 53.421074,
            "midi": 60,
            "name": "C4",
            "velocity": 0.7874015748031497,
            "duration": 1.8092112500000042,
            "ticks": 19488,
            "durationTicks": 660
          },
          {
            "time": 53.421074,
            "midi": 68,
            "name": "G#4",
            "velocity": 0.7874015748031497,
            "duration": 3.242874104166667,
            "ticks": 19488,
            "durationTicks": 1183
          },
          {
            "time": 54.736864,
            "midi": 56,
            "name": "G#3",
            "velocity": 0.7874015748031497,
            "duration": 0.50438616666667,
            "ticks": 19968,
            "durationTicks": 184
          },
          {
            "time": 55.26318,
            "midi": 65,
            "name": "F4",
            "velocity": 0.7874015748031497,
            "duration": 1.3870619583333408,
            "ticks": 20160,
            "durationTicks": 506
          },
          {
            "time": 55.26318,
            "midi": 61,
            "name": "C#4",
            "velocity": 0.7874015748031497,
            "duration": 1.414474250000005,
            "ticks": 20160,
            "durationTicks": 516
          },
          {
            "time": 56.842128,
            "midi": 58,
            "name": "A#3",
            "velocity": 0.7874015748031497,
            "duration": 0.773026625,
            "ticks": 20736,
            "durationTicks": 282
          },
          {
            "time": 56.842128,
            "midi": 66,
            "name": "F#4",
            "velocity": 0.7874015748031497,
            "duration": 0.8442985833333339,
            "ticks": 20736,
            "durationTicks": 308
          },
          {
            "time": 56.842128,
            "midi": 61,
            "name": "C#4",
            "velocity": 0.7874015748031497,
            "duration": 0.7483555624999951,
            "ticks": 20736,
            "durationTicks": 273
          },
          {
            "time": 57.631602,
            "midi": 68,
            "name": "G#4",
            "velocity": 0.7874015748031497,
            "duration": 3.4320189166666637,
            "ticks": 21024,
            "durationTicks": 1252
          },
          {
            "time": 57.631602,
            "midi": 63,
            "name": "D#4",
            "velocity": 0.7874015748031497,
            "duration": 2.0668867916666613,
            "ticks": 21024,
            "durationTicks": 754
          },
          {
            "time": 57.631602,
            "midi": 60,
            "name": "C4",
            "velocity": 0.7874015748031497,
            "duration": 2.0805929375000005,
            "ticks": 21024,
            "durationTicks": 759
          },
          {
            "time": 59.736866,
            "midi": 61,
            "name": "C#4",
            "velocity": 0.7874015748031497,
            "duration": 0.8086626041666634,
            "ticks": 21792,
            "durationTicks": 295
          },
          {
            "time": 59.736866,
            "midi": 65,
            "name": "F4",
            "velocity": 0.7874015748031497,
            "duration": 0.8826757916666637,
            "ticks": 21792,
            "durationTicks": 322
          },
          {
            "time": 60.52634,
            "midi": 63,
            "name": "D#4",
            "velocity": 0.7874015748031497,
            "duration": 0.5263160000000013,
            "ticks": 22080,
            "durationTicks": 192
          },
          {
            "time": 60.52634,
            "midi": 60,
            "name": "C4",
            "velocity": 0.7874015748031497,
            "duration": 0.4797151041666652,
            "ticks": 22080,
            "durationTicks": 175
          },
          {
            "time": 61.052656,
            "midi": 66,
            "name": "F#4",
            "velocity": 0.7874015748031497,
            "duration": 0.8908994791666629,
            "ticks": 22272,
            "durationTicks": 325
          },
          {
            "time": 61.052656,
            "midi": 58,
            "name": "A#3",
            "velocity": 0.7874015748031497,
            "duration": 0.8223687500000025,
            "ticks": 22272,
            "durationTicks": 300
          },
          {
            "time": 61.052656,
            "midi": 61,
            "name": "C#4",
            "velocity": 0.7874015748031497,
            "duration": 0.773026625,
            "ticks": 22272,
            "durationTicks": 282
          },
          {
            "time": 61.84213,
            "midi": 63,
            "name": "D#4",
            "velocity": 0.7874015748031497,
            "duration": 1.8229173958333362,
            "ticks": 22560,
            "durationTicks": 665
          },
          {
            "time": 61.84213,
            "midi": 60,
            "name": "C4",
            "velocity": 0.7874015748031497,
            "duration": 1.8092112500000042,
            "ticks": 22560,
            "durationTicks": 660
          },
          {
            "time": 61.84213,
            "midi": 68,
            "name": "G#4",
            "velocity": 0.7874015748031497,
            "duration": 3.242874104166674,
            "ticks": 22560,
            "durationTicks": 1183
          },
          {
            "time": 63.157920000000004,
            "midi": 56,
            "name": "G#3",
            "velocity": 0.7874015748031497,
            "duration": 0.5043861666666629,
            "ticks": 23040,
            "durationTicks": 184
          },
          {
            "time": 63.684236,
            "midi": 65,
            "name": "F4",
            "velocity": 0.7874015748031497,
            "duration": 1.3870619583333337,
            "ticks": 23232,
            "durationTicks": 506
          },
          {
            "time": 63.684236,
            "midi": 61,
            "name": "C#4",
            "velocity": 0.7874015748031497,
            "duration": 1.4144742499999978,
            "ticks": 23232,
            "durationTicks": 516
          },
          {
            "time": 90.526352,
            "midi": 58,
            "name": "A#3",
            "velocity": 0.7874015748031497,
            "duration": 0.773026625,
            "ticks": 33024,
            "durationTicks": 282
          },
          {
            "time": 90.526352,
            "midi": 66,
            "name": "F#4",
            "velocity": 0.7874015748031497,
            "duration": 0.8442985833333267,
            "ticks": 33024,
            "durationTicks": 308
          },
          {
            "time": 90.526352,
            "midi": 61,
            "name": "C#4",
            "velocity": 0.7874015748031497,
            "duration": 0.7483555624999951,
            "ticks": 33024,
            "durationTicks": 273
          },
          {
            "time": 91.315826,
            "midi": 68,
            "name": "G#4",
            "velocity": 0.7874015748031497,
            "duration": 3.432018916666678,
            "ticks": 33312,
            "durationTicks": 1252
          },
          {
            "time": 91.315826,
            "midi": 63,
            "name": "D#4",
            "velocity": 0.7874015748031497,
            "duration": 2.0668867916666755,
            "ticks": 33312,
            "durationTicks": 754
          },
          {
            "time": 91.315826,
            "midi": 60,
            "name": "C4",
            "velocity": 0.7874015748031497,
            "duration": 2.0805929375000005,
            "ticks": 33312,
            "durationTicks": 759
          },
          {
            "time": 93.42109,
            "midi": 61,
            "name": "C#4",
            "velocity": 0.7874015748031497,
            "duration": 0.8086626041666705,
            "ticks": 34080,
            "durationTicks": 295
          },
          {
            "time": 93.42109,
            "midi": 65,
            "name": "F4",
            "velocity": 0.7874015748031497,
            "duration": 0.8826757916666708,
            "ticks": 34080,
            "durationTicks": 322
          },
          {
            "time": 94.210564,
            "midi": 63,
            "name": "D#4",
            "velocity": 0.7874015748031497,
            "duration": 0.5263159999999942,
            "ticks": 34368,
            "durationTicks": 192
          },
          {
            "time": 94.210564,
            "midi": 60,
            "name": "C4",
            "velocity": 0.7874015748031497,
            "duration": 0.4797151041666723,
            "ticks": 34368,
            "durationTicks": 175
          },
          {
            "time": 94.73688,
            "midi": 66,
            "name": "F#4",
            "velocity": 0.7874015748031497,
            "duration": 0.8908994791666771,
            "ticks": 34560,
            "durationTicks": 325
          },
          {
            "time": 94.73688,
            "midi": 58,
            "name": "A#3",
            "velocity": 0.7874015748031497,
            "duration": 0.8223687499999954,
            "ticks": 34560,
            "durationTicks": 300
          },
          {
            "time": 94.73688,
            "midi": 61,
            "name": "C#4",
            "velocity": 0.7874015748031497,
            "duration": 0.773026625,
            "ticks": 34560,
            "durationTicks": 282
          },
          {
            "time": 95.526354,
            "midi": 63,
            "name": "D#4",
            "velocity": 0.7874015748031497,
            "duration": 1.8229173958333291,
            "ticks": 34848,
            "durationTicks": 665
          },
          {
            "time": 95.526354,
            "midi": 60,
            "name": "C4",
            "velocity": 0.7874015748031497,
            "duration": 1.8092112500000042,
            "ticks": 34848,
            "durationTicks": 660
          },
          {
            "time": 95.526354,
            "midi": 68,
            "name": "G#4",
            "velocity": 0.7874015748031497,
            "duration": 3.242874104166674,
            "ticks": 34848,
            "durationTicks": 1183
          },
          {
            "time": 96.842144,
            "midi": 56,
            "name": "G#3",
            "velocity": 0.7874015748031497,
            "duration": 0.5043861666666629,
            "ticks": 35328,
            "durationTicks": 184
          },
          {
            "time": 97.36846,
            "midi": 65,
            "name": "F4",
            "velocity": 0.7874015748031497,
            "duration": 1.3870619583333337,
            "ticks": 35520,
            "durationTicks": 506
          },
          {
            "time": 97.36846,
            "midi": 61,
            "name": "C#4",
            "velocity": 0.7874015748031497,
            "duration": 1.4144742499999978,
            "ticks": 35520,
            "durationTicks": 516
          },
          {
            "time": 98.947408,
            "midi": 58,
            "name": "A#3",
            "velocity": 0.7874015748031497,
            "duration": 0.773026625,
            "ticks": 36096,
            "durationTicks": 282
          },
          {
            "time": 98.947408,
            "midi": 66,
            "name": "F#4",
            "velocity": 0.7874015748031497,
            "duration": 0.8442985833333267,
            "ticks": 36096,
            "durationTicks": 308
          },
          {
            "time": 98.947408,
            "midi": 61,
            "name": "C#4",
            "velocity": 0.7874015748031497,
            "duration": 0.7483555625000093,
            "ticks": 36096,
            "durationTicks": 273
          },
          {
            "time": 99.736882,
            "midi": 68,
            "name": "G#4",
            "velocity": 0.7874015748031497,
            "duration": 3.432018916666678,
            "ticks": 36384,
            "durationTicks": 1252
          },
          {
            "time": 99.736882,
            "midi": 63,
            "name": "D#4",
            "velocity": 0.7874015748031497,
            "duration": 2.0668867916666755,
            "ticks": 36384,
            "durationTicks": 754
          },
          {
            "time": 99.736882,
            "midi": 60,
            "name": "C4",
            "velocity": 0.7874015748031497,
            "duration": 2.0805929375000005,
            "ticks": 36384,
            "durationTicks": 759
          },
          {
            "time": 101.842146,
            "midi": 61,
            "name": "C#4",
            "velocity": 0.7874015748031497,
            "duration": 0.8086626041666705,
            "ticks": 37152,
            "durationTicks": 295
          },
          {
            "time": 101.842146,
            "midi": 65,
            "name": "F4",
            "velocity": 0.7874015748031497,
            "duration": 0.8826757916666708,
            "ticks": 37152,
            "durationTicks": 322
          },
          {
            "time": 102.63162,
            "midi": 63,
            "name": "D#4",
            "velocity": 0.7874015748031497,
            "duration": 0.5263160000000084,
            "ticks": 37440,
            "durationTicks": 192
          },
          {
            "time": 102.63162,
            "midi": 60,
            "name": "C4",
            "velocity": 0.7874015748031497,
            "duration": 0.4797151041666723,
            "ticks": 37440,
            "durationTicks": 175
          },
          {
            "time": 103.157936,
            "midi": 66,
            "name": "F#4",
            "velocity": 0.7874015748031497,
            "duration": 0.8908994791666629,
            "ticks": 37632,
            "durationTicks": 325
          },
          {
            "time": 103.157936,
            "midi": 58,
            "name": "A#3",
            "velocity": 0.7874015748031497,
            "duration": 0.8223687499999954,
            "ticks": 37632,
            "durationTicks": 300
          },
          {
            "time": 103.157936,
            "midi": 61,
            "name": "C#4",
            "velocity": 0.7874015748031497,
            "duration": 0.773026625,
            "ticks": 37632,
            "durationTicks": 282
          },
          {
            "time": 103.94741,
            "midi": 63,
            "name": "D#4",
            "velocity": 0.7874015748031497,
            "duration": 1.8229173958333291,
            "ticks": 37920,
            "durationTicks": 665
          },
          {
            "time": 103.94741,
            "midi": 60,
            "name": "C4",
            "velocity": 0.7874015748031497,
            "duration": 1.80921124999999,
            "ticks": 37920,
            "durationTicks": 660
          },
          {
            "time": 103.94741,
            "midi": 68,
            "name": "G#4",
            "velocity": 0.7874015748031497,
            "duration": 3.242874104166674,
            "ticks": 37920,
            "durationTicks": 1183
          },
          {
            "time": 105.2632,
            "midi": 56,
            "name": "G#3",
            "velocity": 0.7874015748031497,
            "duration": 0.5043861666666771,
            "ticks": 38400,
            "durationTicks": 184
          },
          {
            "time": 105.789516,
            "midi": 65,
            "name": "F4",
            "velocity": 0.7874015748031497,
            "duration": 1.3870619583333195,
            "ticks": 38592,
            "durationTicks": 506
          },
          {
            "time": 105.789516,
            "midi": 61,
            "name": "C#4",
            "velocity": 0.7874015748031497,
            "duration": 1.4144742499999978,
            "ticks": 38592,
            "durationTicks": 516
          },
          {
            "time": 107.368464,
            "midi": 58,
            "name": "A#3",
            "velocity": 0.7874015748031497,
            "duration": 0.773026625,
            "ticks": 39168,
            "durationTicks": 282
          },
          {
            "time": 107.368464,
            "midi": 66,
            "name": "F#4",
            "velocity": 0.7874015748031497,
            "duration": 0.8442985833333267,
            "ticks": 39168,
            "durationTicks": 308
          },
          {
            "time": 107.368464,
            "midi": 61,
            "name": "C#4",
            "velocity": 0.7874015748031497,
            "duration": 0.7483555624999951,
            "ticks": 39168,
            "durationTicks": 273
          },
          {
            "time": 108.157938,
            "midi": 68,
            "name": "G#4",
            "velocity": 0.7874015748031497,
            "duration": 3.432018916666678,
            "ticks": 39456,
            "durationTicks": 1252
          },
          {
            "time": 108.157938,
            "midi": 63,
            "name": "D#4",
            "velocity": 0.7874015748031497,
            "duration": 2.0668867916666755,
            "ticks": 39456,
            "durationTicks": 754
          },
          {
            "time": 108.157938,
            "midi": 60,
            "name": "C4",
            "velocity": 0.7874015748031497,
            "duration": 2.0805929375000005,
            "ticks": 39456,
            "durationTicks": 759
          },
          {
            "time": 110.263202,
            "midi": 61,
            "name": "C#4",
            "velocity": 0.7874015748031497,
            "duration": 0.8086626041666705,
            "ticks": 40224,
            "durationTicks": 295
          },
          {
            "time": 110.263202,
            "midi": 65,
            "name": "F4",
            "velocity": 0.7874015748031497,
            "duration": 0.8826757916666708,
            "ticks": 40224,
            "durationTicks": 322
          },
          {
            "time": 111.052676,
            "midi": 63,
            "name": "D#4",
            "velocity": 0.7874015748031497,
            "duration": 0.5263159999999942,
            "ticks": 40512,
            "durationTicks": 192
          },
          {
            "time": 111.052676,
            "midi": 60,
            "name": "C4",
            "velocity": 0.7874015748031497,
            "duration": 0.4797151041666723,
            "ticks": 40512,
            "durationTicks": 175
          },
          {
            "time": 111.578992,
            "midi": 66,
            "name": "F#4",
            "velocity": 0.7874015748031497,
            "duration": 0.8908994791666771,
            "ticks": 40704,
            "durationTicks": 325
          },
          {
            "time": 111.578992,
            "midi": 58,
            "name": "A#3",
            "velocity": 0.7874015748031497,
            "duration": 0.8223687499999954,
            "ticks": 40704,
            "durationTicks": 300
          },
          {
            "time": 111.578992,
            "midi": 61,
            "name": "C#4",
            "velocity": 0.7874015748031497,
            "duration": 0.773026625,
            "ticks": 40704,
            "durationTicks": 282
          },
          {
            "time": 112.368466,
            "midi": 63,
            "name": "D#4",
            "velocity": 0.7874015748031497,
            "duration": 1.8229173958333291,
            "ticks": 40992,
            "durationTicks": 665
          },
          {
            "time": 112.368466,
            "midi": 60,
            "name": "C4",
            "velocity": 0.7874015748031497,
            "duration": 1.8092112500000042,
            "ticks": 40992,
            "durationTicks": 660
          },
          {
            "time": 112.368466,
            "midi": 68,
            "name": "G#4",
            "velocity": 0.7874015748031497,
            "duration": 3.242874104166674,
            "ticks": 40992,
            "durationTicks": 1183
          },
          {
            "time": 113.684256,
            "midi": 56,
            "name": "G#3",
            "velocity": 0.7874015748031497,
            "duration": 0.5043861666666629,
            "ticks": 41472,
            "durationTicks": 184
          },
          {
            "time": 114.210572,
            "midi": 65,
            "name": "F4",
            "velocity": 0.7874015748031497,
            "duration": 1.3870619583333337,
            "ticks": 41664,
            "durationTicks": 506
          },
          {
            "time": 114.210572,
            "midi": 61,
            "name": "C#4",
            "velocity": 0.7874015748031497,
            "duration": 1.4144742499999978,
            "ticks": 41664,
            "durationTicks": 516
          },
          {
            "time": 115.78952,
            "midi": 58,
            "name": "A#3",
            "velocity": 0.7874015748031497,
            "duration": 0.773026625,
            "ticks": 42240,
            "durationTicks": 282
          },
          {
            "time": 115.78952,
            "midi": 66,
            "name": "F#4",
            "velocity": 0.7874015748031497,
            "duration": 0.8442985833333267,
            "ticks": 42240,
            "durationTicks": 308
          },
          {
            "time": 115.78952,
            "midi": 61,
            "name": "C#4",
            "velocity": 0.7874015748031497,
            "duration": 0.7483555625000093,
            "ticks": 42240,
            "durationTicks": 273
          },
          {
            "time": 116.578994,
            "midi": 68,
            "name": "G#4",
            "velocity": 0.7874015748031497,
            "duration": 3.432018916666678,
            "ticks": 42528,
            "durationTicks": 1252
          },
          {
            "time": 116.578994,
            "midi": 63,
            "name": "D#4",
            "velocity": 0.7874015748031497,
            "duration": 2.0668867916666755,
            "ticks": 42528,
            "durationTicks": 754
          },
          {
            "time": 116.578994,
            "midi": 60,
            "name": "C4",
            "velocity": 0.7874015748031497,
            "duration": 2.0805929375000005,
            "ticks": 42528,
            "durationTicks": 759
          },
          {
            "time": 118.684258,
            "midi": 61,
            "name": "C#4",
            "velocity": 0.7874015748031497,
            "duration": 0.8086626041666705,
            "ticks": 43296,
            "durationTicks": 295
          },
          {
            "time": 118.684258,
            "midi": 65,
            "name": "F4",
            "velocity": 0.7874015748031497,
            "duration": 0.8826757916666708,
            "ticks": 43296,
            "durationTicks": 322
          },
          {
            "time": 119.473732,
            "midi": 63,
            "name": "D#4",
            "velocity": 0.7874015748031497,
            "duration": 0.5263160000000084,
            "ticks": 43584,
            "durationTicks": 192
          },
          {
            "time": 119.473732,
            "midi": 60,
            "name": "C4",
            "velocity": 0.7874015748031497,
            "duration": 0.4797151041666723,
            "ticks": 43584,
            "durationTicks": 175
          },
          {
            "time": 120.000048,
            "midi": 66,
            "name": "F#4",
            "velocity": 0.7874015748031497,
            "duration": 0.8908994791666629,
            "ticks": 43776,
            "durationTicks": 325
          },
          {
            "time": 120.000048,
            "midi": 58,
            "name": "A#3",
            "velocity": 0.7874015748031497,
            "duration": 0.8223687499999954,
            "ticks": 43776,
            "durationTicks": 300
          },
          {
            "time": 120.000048,
            "midi": 61,
            "name": "C#4",
            "velocity": 0.7874015748031497,
            "duration": 0.773026625,
            "ticks": 43776,
            "durationTicks": 282
          },
          {
            "time": 120.789522,
            "midi": 63,
            "name": "D#4",
            "velocity": 0.7874015748031497,
            "duration": 1.8229173958333291,
            "ticks": 44064,
            "durationTicks": 665
          },
          {
            "time": 120.789522,
            "midi": 60,
            "name": "C4",
            "velocity": 0.7874015748031497,
            "duration": 1.80921124999999,
            "ticks": 44064,
            "durationTicks": 660
          },
          {
            "time": 120.789522,
            "midi": 68,
            "name": "G#4",
            "velocity": 0.7874015748031497,
            "duration": 3.242874104166674,
            "ticks": 44064,
            "durationTicks": 1183
          },
          {
            "time": 122.105312,
            "midi": 56,
            "name": "G#3",
            "velocity": 0.7874015748031497,
            "duration": 0.5043861666666771,
            "ticks": 44544,
            "durationTicks": 184
          },
          {
            "time": 122.631628,
            "midi": 65,
            "name": "F4",
            "velocity": 0.7874015748031497,
            "duration": 1.3870619583333195,
            "ticks": 44736,
            "durationTicks": 506
          },
          {
            "time": 122.631628,
            "midi": 61,
            "name": "C#4",
            "velocity": 0.7874015748031497,
            "duration": 1.4144742499999978,
            "ticks": 44736,
            "durationTicks": 516
          },
          {
            "time": 124.210576,
            "midi": 68,
            "name": "G#4",
            "velocity": 0.7874015748031497,
            "duration": 1.7790577291666665,
            "ticks": 45312,
            "durationTicks": 649
          },
          {
            "time": 126.052682,
            "midi": 65,
            "name": "F4",
            "velocity": 0.7874015748031497,
            "duration": 0.1315790000000021,
            "ticks": 45984,
            "durationTicks": 48
          },
          {
            "time": 126.184261,
            "midi": 63,
            "name": "D#4",
            "velocity": 0.7874015748031497,
            "duration": 0.07949564583331892,
            "ticks": 46032,
            "durationTicks": 29
          },
          {
            "time": 127.894788,
            "midi": 56,
            "name": "G#3",
            "velocity": 0.7874015748031497,
            "duration": 0.48793879166666443,
            "ticks": 46656,
            "durationTicks": 178
          },
          {
            "time": 128.421104,
            "midi": 68,
            "name": "G#4",
            "velocity": 0.7874015748031497,
            "duration": 1.8146937083333228,
            "ticks": 46848,
            "durationTicks": 662
          },
          {
            "time": 130.26321000000002,
            "midi": 65,
            "name": "F4",
            "velocity": 0.7874015748031497,
            "duration": 0.13706145833330652,
            "ticks": 47520,
            "durationTicks": 50
          },
          {
            "time": 130.394789,
            "midi": 63,
            "name": "D#4",
            "velocity": 0.7874015748031497,
            "duration": 0.09046056249999879,
            "ticks": 47568,
            "durationTicks": 33
          },
          {
            "time": 132.105316,
            "midi": 56,
            "name": "G#3",
            "velocity": 0.7874015748031497,
            "duration": 0.4824563333333458,
            "ticks": 48192,
            "durationTicks": 176
          },
          {
            "time": 132.631632,
            "midi": 68,
            "name": "G#4",
            "velocity": 0.7874015748031497,
            "duration": 1.7790577291666807,
            "ticks": 48384,
            "durationTicks": 649
          },
          {
            "time": 134.473738,
            "midi": 65,
            "name": "F4",
            "velocity": 0.7874015748031497,
            "duration": 0.13157900000001632,
            "ticks": 49056,
            "durationTicks": 48
          },
          {
            "time": 134.605317,
            "midi": 63,
            "name": "D#4",
            "velocity": 0.7874015748031497,
            "duration": 0.0794956458333047,
            "ticks": 49104,
            "durationTicks": 29
          },
          {
            "time": 136.315844,
            "midi": 56,
            "name": "G#3",
            "velocity": 0.7874015748031497,
            "duration": 0.48793879166666443,
            "ticks": 49728,
            "durationTicks": 178
          },
          {
            "time": 136.84216,
            "midi": 68,
            "name": "G#4",
            "velocity": 0.7874015748031497,
            "duration": 1.8146937083333512,
            "ticks": 49920,
            "durationTicks": 662
          },
          {
            "time": 138.684266,
            "midi": 65,
            "name": "F4",
            "velocity": 0.7874015748031497,
            "duration": 0.13706145833333494,
            "ticks": 50592,
            "durationTicks": 50
          },
          {
            "time": 138.815845,
            "midi": 63,
            "name": "D#4",
            "velocity": 0.7874015748031497,
            "duration": 0.09046056249999879,
            "ticks": 50640,
            "durationTicks": 33
          },
          {
            "time": 140.526372,
            "midi": 56,
            "name": "G#3",
            "velocity": 0.7874015748031497,
            "duration": 0.4824563333333458,
            "ticks": 51264,
            "durationTicks": 176
          },
          {
            "time": 141.052688,
            "midi": 68,
            "name": "G#4",
            "velocity": 0.7874015748031497,
            "duration": 1.7790577291666807,
            "ticks": 51456,
            "durationTicks": 649
          },
          {
            "time": 142.894794,
            "midi": 65,
            "name": "F4",
            "velocity": 0.7874015748031497,
            "duration": 0.13157900000001632,
            "ticks": 52128,
            "durationTicks": 48
          },
          {
            "time": 143.026373,
            "midi": 63,
            "name": "D#4",
            "velocity": 0.7874015748031497,
            "duration": 0.07949564583333313,
            "ticks": 52176,
            "durationTicks": 29
          },
          {
            "time": 144.7369,
            "midi": 56,
            "name": "G#3",
            "velocity": 0.7874015748031497,
            "duration": 0.48793879166666443,
            "ticks": 52800,
            "durationTicks": 178
          },
          {
            "time": 145.263216,
            "midi": 68,
            "name": "G#4",
            "velocity": 0.7874015748031497,
            "duration": 1.8146937083333512,
            "ticks": 52992,
            "durationTicks": 662
          },
          {
            "time": 147.105322,
            "midi": 65,
            "name": "F4",
            "velocity": 0.7874015748031497,
            "duration": 0.13706145833333494,
            "ticks": 53664,
            "durationTicks": 50
          },
          {
            "time": 147.236901,
            "midi": 63,
            "name": "D#4",
            "velocity": 0.7874015748031497,
            "duration": 0.09046056249999879,
            "ticks": 53712,
            "durationTicks": 33
          },
          {
            "time": 148.947428,
            "midi": 56,
            "name": "G#3",
            "velocity": 0.7874015748031497,
            "duration": 0.4824563333333458,
            "ticks": 54336,
            "durationTicks": 176
          },
          {
            "time": 149.473744,
            "midi": 68,
            "name": "G#4",
            "velocity": 0.7874015748031497,
            "duration": 1.7790577291666523,
            "ticks": 54528,
            "durationTicks": 649
          },
          {
            "time": 151.31585,
            "midi": 65,
            "name": "F4",
            "velocity": 0.7874015748031497,
            "duration": 0.1315789999999879,
            "ticks": 55200,
            "durationTicks": 48
          },
          {
            "time": 151.447429,
            "midi": 63,
            "name": "D#4",
            "velocity": 0.7874015748031497,
            "duration": 0.07949564583333313,
            "ticks": 55248,
            "durationTicks": 29
          },
          {
            "time": 153.157956,
            "midi": 56,
            "name": "G#3",
            "velocity": 0.7874015748031497,
            "duration": 0.487938791666636,
            "ticks": 55872,
            "durationTicks": 178
          },
          {
            "time": 153.684272,
            "midi": 68,
            "name": "G#4",
            "velocity": 0.7874015748031497,
            "duration": 1.8146937083333512,
            "ticks": 56064,
            "durationTicks": 662
          },
          {
            "time": 155.526378,
            "midi": 65,
            "name": "F4",
            "velocity": 0.7874015748031497,
            "duration": 0.13706145833336336,
            "ticks": 56736,
            "durationTicks": 50
          },
          {
            "time": 155.657957,
            "midi": 63,
            "name": "D#4",
            "velocity": 0.7874015748031497,
            "duration": 0.09046056249999879,
            "ticks": 56784,
            "durationTicks": 33
          },
          {
            "time": 183.157968,
            "midi": 58,
            "name": "A#3",
            "velocity": 0.7874015748031497,
            "duration": 0.773026625,
            "ticks": 66816,
            "durationTicks": 282
          },
          {
            "time": 183.157968,
            "midi": 66,
            "name": "F#4",
            "velocity": 0.7874015748031497,
            "duration": 0.844298583333341,
            "ticks": 66816,
            "durationTicks": 308
          },
          {
            "time": 183.157968,
            "midi": 61,
            "name": "C#4",
            "velocity": 0.7874015748031497,
            "duration": 0.7483555624999951,
            "ticks": 66816,
            "durationTicks": 273
          },
          {
            "time": 183.947442,
            "midi": 68,
            "name": "G#4",
            "velocity": 0.7874015748031497,
            "duration": 3.4320189166666637,
            "ticks": 67104,
            "durationTicks": 1252
          },
          {
            "time": 183.947442,
            "midi": 63,
            "name": "D#4",
            "velocity": 0.7874015748031497,
            "duration": 2.0668867916666613,
            "ticks": 67104,
            "durationTicks": 754
          },
          {
            "time": 183.947442,
            "midi": 60,
            "name": "C4",
            "velocity": 0.7874015748031497,
            "duration": 2.0805929375000005,
            "ticks": 67104,
            "durationTicks": 759
          },
          {
            "time": 186.052706,
            "midi": 61,
            "name": "C#4",
            "velocity": 0.7874015748031497,
            "duration": 0.8086626041666705,
            "ticks": 67872,
            "durationTicks": 295
          },
          {
            "time": 186.052706,
            "midi": 65,
            "name": "F4",
            "velocity": 0.7874015748031497,
            "duration": 0.8826757916666566,
            "ticks": 67872,
            "durationTicks": 322
          },
          {
            "time": 186.84218,
            "midi": 63,
            "name": "D#4",
            "velocity": 0.7874015748031497,
            "duration": 0.52631599999998,
            "ticks": 68160,
            "durationTicks": 192
          },
          {
            "time": 186.84218,
            "midi": 60,
            "name": "C4",
            "velocity": 0.7874015748031497,
            "duration": 0.47971510416664387,
            "ticks": 68160,
            "durationTicks": 175
          },
          {
            "time": 187.368496,
            "midi": 66,
            "name": "F#4",
            "velocity": 0.7874015748031497,
            "duration": 0.8908994791666771,
            "ticks": 68352,
            "durationTicks": 325
          },
          {
            "time": 187.368496,
            "midi": 58,
            "name": "A#3",
            "velocity": 0.7874015748031497,
            "duration": 0.8223687500000096,
            "ticks": 68352,
            "durationTicks": 300
          },
          {
            "time": 187.368496,
            "midi": 61,
            "name": "C#4",
            "velocity": 0.7874015748031497,
            "duration": 0.773026625,
            "ticks": 68352,
            "durationTicks": 282
          },
          {
            "time": 188.15797,
            "midi": 63,
            "name": "D#4",
            "velocity": 0.7874015748031497,
            "duration": 1.8229173958333433,
            "ticks": 68640,
            "durationTicks": 665
          },
          {
            "time": 188.15797,
            "midi": 60,
            "name": "C4",
            "velocity": 0.7874015748031497,
            "duration": 1.8092112500000042,
            "ticks": 68640,
            "durationTicks": 660
          },
          {
            "time": 188.15797,
            "midi": 68,
            "name": "G#4",
            "velocity": 0.7874015748031497,
            "duration": 3.2428741041666456,
            "ticks": 68640,
            "durationTicks": 1183
          },
          {
            "time": 189.47376,
            "midi": 56,
            "name": "G#3",
            "velocity": 0.7874015748031497,
            "duration": 0.5043861666666487,
            "ticks": 69120,
            "durationTicks": 184
          },
          {
            "time": 190.000076,
            "midi": 65,
            "name": "F4",
            "velocity": 0.7874015748031497,
            "duration": 1.3870619583333337,
            "ticks": 69312,
            "durationTicks": 506
          },
          {
            "time": 190.000076,
            "midi": 61,
            "name": "C#4",
            "velocity": 0.7874015748031497,
            "duration": 1.4144742499999836,
            "ticks": 69312,
            "durationTicks": 516
          },
          {
            "time": 191.579024,
            "midi": 58,
            "name": "A#3",
            "velocity": 0.7874015748031497,
            "duration": 0.773026625,
            "ticks": 69888,
            "durationTicks": 282
          },
          {
            "time": 191.579024,
            "midi": 66,
            "name": "F#4",
            "velocity": 0.7874015748031497,
            "duration": 0.844298583333341,
            "ticks": 69888,
            "durationTicks": 308
          },
          {
            "time": 191.579024,
            "midi": 61,
            "name": "C#4",
            "velocity": 0.7874015748031497,
            "duration": 0.7483555624999951,
            "ticks": 69888,
            "durationTicks": 273
          },
          {
            "time": 192.368498,
            "midi": 68,
            "name": "G#4",
            "velocity": 0.7874015748031497,
            "duration": 3.4320189166666637,
            "ticks": 70176,
            "durationTicks": 1252
          },
          {
            "time": 192.368498,
            "midi": 63,
            "name": "D#4",
            "velocity": 0.7874015748031497,
            "duration": 2.0668867916666613,
            "ticks": 70176,
            "durationTicks": 754
          },
          {
            "time": 192.368498,
            "midi": 60,
            "name": "C4",
            "velocity": 0.7874015748031497,
            "duration": 2.0805929375000005,
            "ticks": 70176,
            "durationTicks": 759
          },
          {
            "time": 194.473762,
            "midi": 61,
            "name": "C#4",
            "velocity": 0.7874015748031497,
            "duration": 0.8086626041666705,
            "ticks": 70944,
            "durationTicks": 295
          },
          {
            "time": 194.473762,
            "midi": 65,
            "name": "F4",
            "velocity": 0.7874015748031497,
            "duration": 0.8826757916666566,
            "ticks": 70944,
            "durationTicks": 322
          },
          {
            "time": 195.263236,
            "midi": 63,
            "name": "D#4",
            "velocity": 0.7874015748031497,
            "duration": 0.5263160000000084,
            "ticks": 71232,
            "durationTicks": 192
          },
          {
            "time": 195.263236,
            "midi": 60,
            "name": "C4",
            "velocity": 0.7874015748031497,
            "duration": 0.47971510416664387,
            "ticks": 71232,
            "durationTicks": 175
          },
          {
            "time": 195.78955200000001,
            "midi": 66,
            "name": "F#4",
            "velocity": 0.7874015748031497,
            "duration": 0.8908994791666487,
            "ticks": 71424,
            "durationTicks": 325
          },
          {
            "time": 195.78955200000001,
            "midi": 58,
            "name": "A#3",
            "velocity": 0.7874015748031497,
            "duration": 0.8223687499999812,
            "ticks": 71424,
            "durationTicks": 300
          },
          {
            "time": 195.78955200000001,
            "midi": 61,
            "name": "C#4",
            "velocity": 0.7874015748031497,
            "duration": 0.773026625,
            "ticks": 71424,
            "durationTicks": 282
          },
          {
            "time": 196.579026,
            "midi": 63,
            "name": "D#4",
            "velocity": 0.7874015748031497,
            "duration": 1.8229173958333433,
            "ticks": 71712,
            "durationTicks": 665
          },
          {
            "time": 196.579026,
            "midi": 60,
            "name": "C4",
            "velocity": 0.7874015748031497,
            "duration": 1.8092112500000042,
            "ticks": 71712,
            "durationTicks": 660
          },
          {
            "time": 196.579026,
            "midi": 68,
            "name": "G#4",
            "velocity": 0.7874015748031497,
            "duration": 3.242874104166674,
            "ticks": 71712,
            "durationTicks": 1183
          },
          {
            "time": 197.894816,
            "midi": 56,
            "name": "G#3",
            "velocity": 0.7874015748031497,
            "duration": 0.5043861666666771,
            "ticks": 72192,
            "durationTicks": 184
          },
          {
            "time": 198.421132,
            "midi": 65,
            "name": "F4",
            "velocity": 0.7874015748031497,
            "duration": 1.3870619583333337,
            "ticks": 72384,
            "durationTicks": 506
          },
          {
            "time": 198.421132,
            "midi": 61,
            "name": "C#4",
            "velocity": 0.7874015748031497,
            "duration": 1.414474250000012,
            "ticks": 72384,
            "durationTicks": 516
          },
          {
            "time": 200.00008,
            "midi": 58,
            "name": "A#3",
            "velocity": 0.7874015748031497,
            "duration": 0.773026625,
            "ticks": 72960,
            "durationTicks": 282
          },
          {
            "time": 200.00008,
            "midi": 66,
            "name": "F#4",
            "velocity": 0.7874015748031497,
            "duration": 0.844298583333341,
            "ticks": 72960,
            "durationTicks": 308
          },
          {
            "time": 200.00008,
            "midi": 61,
            "name": "C#4",
            "velocity": 0.7874015748031497,
            "duration": 0.7483555624999951,
            "ticks": 72960,
            "durationTicks": 273
          },
          {
            "time": 200.789554,
            "midi": 68,
            "name": "G#4",
            "velocity": 0.7874015748031497,
            "duration": 3.4320189166666353,
            "ticks": 73248,
            "durationTicks": 1252
          },
          {
            "time": 200.789554,
            "midi": 63,
            "name": "D#4",
            "velocity": 0.7874015748031497,
            "duration": 2.0668867916666613,
            "ticks": 73248,
            "durationTicks": 754
          },
          {
            "time": 200.789554,
            "midi": 60,
            "name": "C4",
            "velocity": 0.7874015748031497,
            "duration": 2.0805929375000005,
            "ticks": 73248,
            "durationTicks": 759
          },
          {
            "time": 202.89481800000001,
            "midi": 61,
            "name": "C#4",
            "velocity": 0.7874015748031497,
            "duration": 0.808662604166642,
            "ticks": 74016,
            "durationTicks": 295
          },
          {
            "time": 202.89481800000001,
            "midi": 65,
            "name": "F4",
            "velocity": 0.7874015748031497,
            "duration": 0.8826757916666566,
            "ticks": 74016,
            "durationTicks": 322
          },
          {
            "time": 203.684292,
            "midi": 63,
            "name": "D#4",
            "velocity": 0.7874015748031497,
            "duration": 0.5263160000000084,
            "ticks": 74304,
            "durationTicks": 192
          },
          {
            "time": 203.684292,
            "midi": 60,
            "name": "C4",
            "velocity": 0.7874015748031497,
            "duration": 0.4797151041666723,
            "ticks": 74304,
            "durationTicks": 175
          },
          {
            "time": 204.210608,
            "midi": 66,
            "name": "F#4",
            "velocity": 0.7874015748031497,
            "duration": 0.8908994791666487,
            "ticks": 74496,
            "durationTicks": 325
          },
          {
            "time": 204.210608,
            "midi": 58,
            "name": "A#3",
            "velocity": 0.7874015748031497,
            "duration": 0.8223687499999812,
            "ticks": 74496,
            "durationTicks": 300
          },
          {
            "time": 204.210608,
            "midi": 61,
            "name": "C#4",
            "velocity": 0.7874015748031497,
            "duration": 0.773026625,
            "ticks": 74496,
            "durationTicks": 282
          },
          {
            "time": 205.000082,
            "midi": 63,
            "name": "D#4",
            "velocity": 0.7874015748031497,
            "duration": 1.8229173958333433,
            "ticks": 74784,
            "durationTicks": 665
          },
          {
            "time": 205.000082,
            "midi": 60,
            "name": "C4",
            "velocity": 0.7874015748031497,
            "duration": 1.8092112500000042,
            "ticks": 74784,
            "durationTicks": 660
          },
          {
            "time": 205.000082,
            "midi": 68,
            "name": "G#4",
            "velocity": 0.7874015748031497,
            "duration": 3.242874104166674,
            "ticks": 74784,
            "durationTicks": 1183
          },
          {
            "time": 206.315872,
            "midi": 56,
            "name": "G#3",
            "velocity": 0.7874015748031497,
            "duration": 0.5043861666666487,
            "ticks": 75264,
            "durationTicks": 184
          },
          {
            "time": 206.842188,
            "midi": 65,
            "name": "F4",
            "velocity": 0.7874015748031497,
            "duration": 1.387061958333362,
            "ticks": 75456,
            "durationTicks": 506
          },
          {
            "time": 206.842188,
            "midi": 61,
            "name": "C#4",
            "velocity": 0.7874015748031497,
            "duration": 1.414474250000012,
            "ticks": 75456,
            "durationTicks": 516
          },
          {
            "time": 208.421136,
            "midi": 58,
            "name": "A#3",
            "velocity": 0.7874015748031497,
            "duration": 0.773026625,
            "ticks": 76032,
            "durationTicks": 282
          },
          {
            "time": 208.421136,
            "midi": 66,
            "name": "F#4",
            "velocity": 0.7874015748031497,
            "duration": 0.8442985833333694,
            "ticks": 76032,
            "durationTicks": 308
          },
          {
            "time": 208.421136,
            "midi": 61,
            "name": "C#4",
            "velocity": 0.7874015748031497,
            "duration": 0.7483555625000236,
            "ticks": 76032,
            "durationTicks": 273
          },
          {
            "time": 209.21061,
            "midi": 68,
            "name": "G#4",
            "velocity": 0.7874015748031497,
            "duration": 3.4320189166666637,
            "ticks": 76320,
            "durationTicks": 1252
          },
          {
            "time": 209.21061,
            "midi": 63,
            "name": "D#4",
            "velocity": 0.7874015748031497,
            "duration": 2.0668867916666613,
            "ticks": 76320,
            "durationTicks": 754
          },
          {
            "time": 209.21061,
            "midi": 60,
            "name": "C4",
            "velocity": 0.7874015748031497,
            "duration": 2.0805929375000005,
            "ticks": 76320,
            "durationTicks": 759
          },
          {
            "time": 211.315874,
            "midi": 61,
            "name": "C#4",
            "velocity": 0.7874015748031497,
            "duration": 0.808662604166642,
            "ticks": 77088,
            "durationTicks": 295
          },
          {
            "time": 211.315874,
            "midi": 65,
            "name": "F4",
            "velocity": 0.7874015748031497,
            "duration": 0.8826757916666566,
            "ticks": 77088,
            "durationTicks": 322
          },
          {
            "time": 212.105348,
            "midi": 63,
            "name": "D#4",
            "velocity": 0.7874015748031497,
            "duration": 0.5263160000000084,
            "ticks": 77376,
            "durationTicks": 192
          },
          {
            "time": 212.105348,
            "midi": 60,
            "name": "C4",
            "velocity": 0.7874015748031497,
            "duration": 0.4797151041666723,
            "ticks": 77376,
            "durationTicks": 175
          },
          {
            "time": 212.631664,
            "midi": 66,
            "name": "F#4",
            "velocity": 0.7874015748031497,
            "duration": 0.8908994791666487,
            "ticks": 77568,
            "durationTicks": 325
          },
          {
            "time": 212.631664,
            "midi": 58,
            "name": "A#3",
            "velocity": 0.7874015748031497,
            "duration": 0.8223687500000096,
            "ticks": 77568,
            "durationTicks": 300
          },
          {
            "time": 212.631664,
            "midi": 61,
            "name": "C#4",
            "velocity": 0.7874015748031497,
            "duration": 0.773026625,
            "ticks": 77568,
            "durationTicks": 282
          },
          {
            "time": 213.421138,
            "midi": 63,
            "name": "D#4",
            "velocity": 0.7874015748031497,
            "duration": 1.8229173958333433,
            "ticks": 77856,
            "durationTicks": 665
          },
          {
            "time": 213.421138,
            "midi": 60,
            "name": "C4",
            "velocity": 0.7874015748031497,
            "duration": 1.8092112499999757,
            "ticks": 77856,
            "durationTicks": 660
          },
          {
            "time": 213.421138,
            "midi": 68,
            "name": "G#4",
            "velocity": 0.7874015748031497,
            "duration": 3.2428741041666456,
            "ticks": 77856,
            "durationTicks": 1183
          },
          {
            "time": 214.736928,
            "midi": 56,
            "name": "G#3",
            "velocity": 0.7874015748031497,
            "duration": 0.5043861666666487,
            "ticks": 78336,
            "durationTicks": 184
          },
          {
            "time": 215.26324400000001,
            "midi": 65,
            "name": "F4",
            "velocity": 0.7874015748031497,
            "duration": 1.3870619583333337,
            "ticks": 78528,
            "durationTicks": 506
          },
          {
            "time": 215.26324400000001,
            "midi": 61,
            "name": "C#4",
            "velocity": 0.7874015748031497,
            "duration": 1.4144742499999836,
            "ticks": 78528,
            "durationTicks": 516
          }
        ],
        "controlChanges": {
          "0": [
            {
              "number": 0,
              "value": 0,
              "time": 1.5844304583333333,
              "ticks": 578
            }
          ],
          "1": [
            {
              "number": 1,
              "value": 0,
              "time": 0.021929833333333332,
              "ticks": 8
            }
          ],
          "6": [
            {
              "number": 6,
              "value": 0.09448818897637795,
              "time": 0.016447375,
              "ticks": 6
            }
          ],
          "7": [
            {
              "number": 7,
              "value": 0.7874015748031497,
              "time": 1.5899129166666668,
              "ticks": 580
            }
          ],
          "10": [
            {
              "number": 10,
              "value": 0.5039370078740157,
              "time": 1.595395375,
              "ticks": 582
            }
          ],
          "11": [
            {
              "number": 11,
              "value": 1,
              "time": 0.019188604166666668,
              "ticks": 7
            },
            {
              "number": 11,
              "value": 1,
              "time": 0.027412291666666668,
              "ticks": 10
            },
            {
              "number": 11,
              "value": 1,
              "time": 1.6008778333333333,
              "ticks": 584
            }
          ],
          "32": [
            {
              "number": 32,
              "value": 0,
              "time": 1.5844304583333333,
              "ticks": 578
            }
          ],
          "64": [
            {
              "number": 64,
              "value": 0,
              "time": 0.0082236875,
              "ticks": 3
            }
          ],
          "67": [
            {
              "number": 67,
              "value": 0,
              "time": 0.005482458333333333,
              "ticks": 2
            }
          ],
          "91": [
            {
              "number": 91,
              "value": 0.5039370078740157,
              "time": 1.6063602916666668,
              "ticks": 586
            }
          ],
          "93": [
            {
              "number": 93,
              "value": 0.5039370078740157,
              "time": 1.61184275,
              "ticks": 588
            }
          ],
          "100": [
            {
              "number": 100,
              "value": 0,
              "time": 0.010964916666666666,
              "ticks": 4
            }
          ],
          "101": [
            {
              "number": 101,
              "value": 0,
              "time": 0.013706145833333334,
              "ticks": 5
            }
          ],
          "121": [
            {
              "number": 121,
              "value": 0,
              "time": 0,
              "ticks": 0
            }
          ],
          "123": [
            {
              "number": 123,
              "value": 0,
              "time": 244.20514154166665,
              "ticks": 89086
            }
          ]
        }
      },
      {
        "name": "String Ensemble 1",
        "channel": 0,
        "instrument": {
          "number": 48,
          "name": "string ensemble 1",
          "family": "ensemble"
        },
        "notes": [
          {
            "time": 6.315792,
            "midi": 85,
            "name": "C#6",
            "velocity": 0.7795275590551181,
            "duration": 0.7538380208333333,
            "ticks": 2304,
            "durationTicks": 275
          },
          {
            "time": 7.105266,
            "midi": 87,
            "name": "D#6",
            "velocity": 0.7795275590551181,
            "duration": 1.0608556875000001,
            "ticks": 2592,
            "durationTicks": 387
          },
          {
            "time": 8.157898,
            "midi": 80,
            "name": "G#5",
            "velocity": 0.7795275590551181,
            "duration": 0.2686404583333353,
            "ticks": 2976,
            "durationTicks": 98
          },
          {
            "time": 8.421056,
            "midi": 87,
            "name": "D#6",
            "velocity": 0.7795275590551181,
            "duration": 0.7976976874999995,
            "ticks": 3072,
            "durationTicks": 291
          },
          {
            "time": 9.21053,
            "midi": 89,
            "name": "F6",
            "velocity": 0.7795275590551181,
            "duration": 0.7812503124999992,
            "ticks": 3360,
            "durationTicks": 285
          },
          {
            "time": 10.000004,
            "midi": 92,
            "name": "G#6",
            "velocity": 0.7795275590551181,
            "duration": 0.13980268749999958,
            "ticks": 3648,
            "durationTicks": 51
          },
          {
            "time": 10.131583000000001,
            "midi": 90,
            "name": "F#6",
            "velocity": 0.7795275590551181,
            "duration": 0.13706145833333316,
            "ticks": 3696,
            "durationTicks": 50
          },
          {
            "time": 10.263162,
            "midi": 89,
            "name": "F6",
            "velocity": 0.7795275590551181,
            "duration": 0.150767604166667,
            "ticks": 3744,
            "durationTicks": 55
          },
          {
            "time": 10.394741,
            "midi": 85,
            "name": "C#6",
            "velocity": 0.7795275590551181,
            "duration": 0.9457240625000001,
            "ticks": 3792,
            "durationTicks": 345
          },
          {
            "time": 11.315794,
            "midi": 87,
            "name": "D#6",
            "velocity": 0.7795275590551181,
            "duration": 0.764802937499999,
            "ticks": 4128,
            "durationTicks": 279
          },
          {
            "time": 12.105268,
            "midi": 80,
            "name": "G#5",
            "velocity": 0.7795275590551181,
            "duration": 2.5383782083333344,
            "ticks": 4416,
            "durationTicks": 926
          },
          {
            "time": 14.736848,
            "midi": 85,
            "name": "C#6",
            "velocity": 0.7795275590551181,
            "duration": 0.7538380208333333,
            "ticks": 5376,
            "durationTicks": 275
          },
          {
            "time": 15.526322,
            "midi": 87,
            "name": "D#6",
            "velocity": 0.7795275590551181,
            "duration": 1.0608556874999984,
            "ticks": 5664,
            "durationTicks": 387
          },
          {
            "time": 16.578954,
            "midi": 80,
            "name": "G#5",
            "velocity": 0.7795275590551181,
            "duration": 0.2686404583333335,
            "ticks": 6048,
            "durationTicks": 98
          },
          {
            "time": 16.842112,
            "midi": 87,
            "name": "D#6",
            "velocity": 0.7795275590551181,
            "duration": 0.7976976875000013,
            "ticks": 6144,
            "durationTicks": 291
          },
          {
            "time": 17.631586,
            "midi": 89,
            "name": "F6",
            "velocity": 0.7795275590551181,
            "duration": 0.7812503125000028,
            "ticks": 6432,
            "durationTicks": 285
          },
          {
            "time": 18.42106,
            "midi": 92,
            "name": "G#6",
            "velocity": 0.7795275590551181,
            "duration": 0.1398026874999978,
            "ticks": 6720,
            "durationTicks": 51
          },
          {
            "time": 18.552639,
            "midi": 90,
            "name": "F#6",
            "velocity": 0.7795275590551181,
            "duration": 0.1370614583333314,
            "ticks": 6768,
            "durationTicks": 50
          },
          {
            "time": 18.684218,
            "midi": 89,
            "name": "F6",
            "velocity": 0.7795275590551181,
            "duration": 0.150767604166667,
            "ticks": 6816,
            "durationTicks": 55
          },
          {
            "time": 18.815797,
            "midi": 85,
            "name": "C#6",
            "velocity": 0.7795275590551181,
            "duration": 0.9457240625000018,
            "ticks": 6864,
            "durationTicks": 345
          },
          {
            "time": 19.73685,
            "midi": 87,
            "name": "D#6",
            "velocity": 0.7795275590551181,
            "duration": 0.7648029375000007,
            "ticks": 7200,
            "durationTicks": 279
          },
          {
            "time": 20.526324,
            "midi": 80,
            "name": "G#5",
            "velocity": 0.7795275590551181,
            "duration": 2.5383782083333344,
            "ticks": 7488,
            "durationTicks": 926
          },
          {
            "time": 40.000016,
            "midi": 61,
            "name": "C#4",
            "velocity": 0.7795275590551181,
            "duration": 1.6419962708333316,
            "ticks": 14592,
            "durationTicks": 599
          },
          {
            "time": 40.000016,
            "midi": 73,
            "name": "C#5",
            "velocity": 0.7795275590551181,
            "duration": 1.625548895833333,
            "ticks": 14592,
            "durationTicks": 593
          },
          {
            "time": 40.000016,
            "midi": 70,
            "name": "A#4",
            "velocity": 0.7795275590551181,
            "duration": 1.631031354166666,
            "ticks": 14592,
            "durationTicks": 595
          },
          {
            "time": 40.000016,
            "midi": 63,
            "name": "D#4",
            "velocity": 0.7795275590551181,
            "duration": 1.625548895833333,
            "ticks": 14592,
            "durationTicks": 593
          },
          {
            "time": 40.000016,
            "midi": 66,
            "name": "F#4",
            "velocity": 0.7795275590551181,
            "duration": 1.6337725833333323,
            "ticks": 14592,
            "durationTicks": 596
          },
          {
            "time": 41.842122,
            "midi": 75,
            "name": "D#5",
            "velocity": 0.7795275590551181,
            "duration": 1.9490139374999984,
            "ticks": 15264,
            "durationTicks": 711
          },
          {
            "time": 41.842122,
            "midi": 65,
            "name": "F4",
            "velocity": 0.7795275590551181,
            "duration": 1.9106367291666615,
            "ticks": 15264,
            "durationTicks": 697
          },
          {
            "time": 41.842122,
            "midi": 63,
            "name": "D#4",
            "velocity": 0.7795275590551181,
            "duration": 1.9106367291666615,
            "ticks": 15264,
            "durationTicks": 697
          },
          {
            "time": 41.842122,
            "midi": 72,
            "name": "C5",
            "velocity": 0.7795275590551181,
            "duration": 1.9517551666666648,
            "ticks": 15264,
            "durationTicks": 712
          },
          {
            "time": 41.842122,
            "midi": 68,
            "name": "G#4",
            "velocity": 0.7795275590551181,
            "duration": 1.9490139374999984,
            "ticks": 15264,
            "durationTicks": 711
          },
          {
            "time": 43.947386,
            "midi": 68,
            "name": "G#4",
            "velocity": 0.7795275590551181,
            "duration": 2.0805929375000005,
            "ticks": 16032,
            "durationTicks": 759
          },
          {
            "time": 43.947386,
            "midi": 77,
            "name": "F5",
            "velocity": 0.7795275590551181,
            "duration": 2.1217113749999967,
            "ticks": 16032,
            "durationTicks": 774
          },
          {
            "time": 43.947386,
            "midi": 70,
            "name": "A#4",
            "velocity": 0.7795275590551181,
            "duration": 2.1326762916666624,
            "ticks": 16032,
            "durationTicks": 778
          },
          {
            "time": 43.947386,
            "midi": 73,
            "name": "C#5",
            "velocity": 0.7795275590551181,
            "duration": 2.143641208333335,
            "ticks": 16032,
            "durationTicks": 782
          },
          {
            "time": 43.947386,
            "midi": 66,
            "name": "F#4",
            "velocity": 0.7795275590551181,
            "duration": 2.182018416666665,
            "ticks": 16032,
            "durationTicks": 796
          },
          {
            "time": 46.315808000000004,
            "midi": 73,
            "name": "C#5",
            "velocity": 0.7795275590551181,
            "duration": 0.09046056249999879,
            "ticks": 16896,
            "durationTicks": 33
          },
          {
            "time": 46.315808000000004,
            "midi": 66,
            "name": "F#4",
            "velocity": 0.7795275590551181,
            "duration": 0.06030704166666112,
            "ticks": 16896,
            "durationTicks": 22
          },
          {
            "time": 46.315808000000004,
            "midi": 63,
            "name": "D#4",
            "velocity": 0.7795275590551181,
            "duration": 0.07675441666665961,
            "ticks": 16896,
            "durationTicks": 28
          },
          {
            "time": 46.315808000000004,
            "midi": 70,
            "name": "A#4",
            "velocity": 0.7795275590551181,
            "duration": 0.07675441666665961,
            "ticks": 16896,
            "durationTicks": 28
          },
          {
            "time": 46.710545,
            "midi": 70,
            "name": "A#4",
            "velocity": 0.7795275590551181,
            "duration": 0.06578949999999395,
            "ticks": 17040,
            "durationTicks": 24
          },
          {
            "time": 46.710545,
            "midi": 63,
            "name": "D#4",
            "velocity": 0.7795275590551181,
            "duration": 0.07949564583333313,
            "ticks": 17040,
            "durationTicks": 29
          },
          {
            "time": 46.710545,
            "midi": 73,
            "name": "C#5",
            "velocity": 0.7795275590551181,
            "duration": 0.0932017916666581,
            "ticks": 17040,
            "durationTicks": 34
          },
          {
            "time": 46.710545,
            "midi": 66,
            "name": "F#4",
            "velocity": 0.7795275590551181,
            "duration": 0.08223687499999954,
            "ticks": 17040,
            "durationTicks": 30
          },
          {
            "time": 47.105282,
            "midi": 75,
            "name": "D#5",
            "velocity": 0.7795275590551181,
            "duration": 0.6743423749999948,
            "ticks": 17184,
            "durationTicks": 246
          },
          {
            "time": 47.105282,
            "midi": 65,
            "name": "F4",
            "velocity": 0.7795275590551181,
            "duration": 0.6743423749999948,
            "ticks": 17184,
            "durationTicks": 246
          },
          {
            "time": 47.105282,
            "midi": 72,
            "name": "C5",
            "velocity": 0.7795275590551181,
            "duration": 0.668859916666662,
            "ticks": 17184,
            "durationTicks": 244
          },
          {
            "time": 47.105282,
            "midi": 68,
            "name": "G#4",
            "velocity": 0.7795275590551181,
            "duration": 0.6798248333333348,
            "ticks": 17184,
            "durationTicks": 248
          },
          {
            "time": 47.894756,
            "midi": 68,
            "name": "G#4",
            "velocity": 0.7795275590551181,
            "duration": 0.05208335416666188,
            "ticks": 17472,
            "durationTicks": 19
          },
          {
            "time": 48.026335,
            "midi": 70,
            "name": "A#4",
            "velocity": 0.7795275590551181,
            "duration": 0.08771933333333237,
            "ticks": 17520,
            "durationTicks": 32
          },
          {
            "time": 48.157914,
            "midi": 73,
            "name": "C#5",
            "velocity": 0.7795275590551181,
            "duration": 0.11239039583333721,
            "ticks": 17568,
            "durationTicks": 41
          },
          {
            "time": 48.289493,
            "midi": 70,
            "name": "A#4",
            "velocity": 0.7795275590551181,
            "duration": 0.08771933333333948,
            "ticks": 17616,
            "durationTicks": 32
          },
          {
            "time": 48.421072,
            "midi": 85,
            "name": "C#6",
            "velocity": 0.7795275590551181,
            "duration": 0.7538380208333351,
            "ticks": 17664,
            "durationTicks": 275
          },
          {
            "time": 49.210546,
            "midi": 87,
            "name": "D#6",
            "velocity": 0.7795275590551181,
            "duration": 1.060855687500002,
            "ticks": 17952,
            "durationTicks": 387
          },
          {
            "time": 50.263178,
            "midi": 80,
            "name": "G#5",
            "velocity": 0.7795275590551181,
            "duration": 0.26864045833332995,
            "ticks": 18336,
            "durationTicks": 98
          },
          {
            "time": 50.526336,
            "midi": 87,
            "name": "D#6",
            "velocity": 0.7795275590551181,
            "duration": 0.7976976874999977,
            "ticks": 18432,
            "durationTicks": 291
          },
          {
            "time": 51.31581,
            "midi": 89,
            "name": "F6",
            "velocity": 0.7795275590551181,
            "duration": 0.7812503124999992,
            "ticks": 18720,
            "durationTicks": 285
          },
          {
            "time": 52.105284,
            "midi": 92,
            "name": "G#6",
            "velocity": 0.7795275590551181,
            "duration": 0.13980268750000135,
            "ticks": 19008,
            "durationTicks": 51
          },
          {
            "time": 52.236863,
            "midi": 90,
            "name": "F#6",
            "velocity": 0.7795275590551181,
            "duration": 0.13706145833333494,
            "ticks": 19056,
            "durationTicks": 50
          },
          {
            "time": 52.368442,
            "midi": 89,
            "name": "F6",
            "velocity": 0.7795275590551181,
            "duration": 0.1507676041666599,
            "ticks": 19104,
            "durationTicks": 55
          },
          {
            "time": 52.500021000000004,
            "midi": 85,
            "name": "C#6",
            "velocity": 0.7795275590551181,
            "duration": 0.9457240624999983,
            "ticks": 19152,
            "durationTicks": 345
          },
          {
            "time": 53.421074,
            "midi": 87,
            "name": "D#6",
            "velocity": 0.7795275590551181,
            "duration": 0.7648029375000007,
            "ticks": 19488,
            "durationTicks": 279
          },
          {
            "time": 54.210548,
            "midi": 80,
            "name": "G#5",
            "velocity": 0.7795275590551181,
            "duration": 2.5383782083333344,
            "ticks": 19776,
            "durationTicks": 926
          },
          {
            "time": 56.842128,
            "midi": 85,
            "name": "C#6",
            "velocity": 0.7795275590551181,
            "duration": 0.7538380208333351,
            "ticks": 20736,
            "durationTicks": 275
          },
          {
            "time": 57.631602,
            "midi": 87,
            "name": "D#6",
            "velocity": 0.7795275590551181,
            "duration": 1.060855687500002,
            "ticks": 21024,
            "durationTicks": 387
          },
          {
            "time": 58.684234000000004,
            "midi": 80,
            "name": "G#5",
            "velocity": 0.7795275590551181,
            "duration": 0.26864045833332995,
            "ticks": 21408,
            "durationTicks": 98
          },
          {
            "time": 58.947392,
            "midi": 87,
            "name": "D#6",
            "velocity": 0.7795275590551181,
            "duration": 0.7976976874999977,
            "ticks": 21504,
            "durationTicks": 291
          },
          {
            "time": 59.736866,
            "midi": 89,
            "name": "F6",
            "velocity": 0.7795275590551181,
            "duration": 0.7812503124999992,
            "ticks": 21792,
            "durationTicks": 285
          },
          {
            "time": 60.52634,
            "midi": 92,
            "name": "G#6",
            "velocity": 0.7795275590551181,
            "duration": 0.13980268750000135,
            "ticks": 22080,
            "durationTicks": 51
          },
          {
            "time": 60.657919,
            "midi": 90,
            "name": "F#6",
            "velocity": 0.7795275590551181,
            "duration": 0.13706145833333494,
            "ticks": 22128,
            "durationTicks": 50
          },
          {
            "time": 60.789498,
            "midi": 89,
            "name": "F6",
            "velocity": 0.7795275590551181,
            "duration": 0.1507676041666599,
            "ticks": 22176,
            "durationTicks": 55
          },
          {
            "time": 60.921077000000004,
            "midi": 85,
            "name": "C#6",
            "velocity": 0.7795275590551181,
            "duration": 0.9457240624999983,
            "ticks": 22224,
            "durationTicks": 345
          },
          {
            "time": 61.84213,
            "midi": 87,
            "name": "D#6",
            "velocity": 0.7795275590551181,
            "duration": 0.7648029375000007,
            "ticks": 22560,
            "durationTicks": 279
          },
          {
            "time": 62.631604,
            "midi": 80,
            "name": "G#5",
            "velocity": 0.7795275590551181,
            "duration": 2.5383782083333344,
            "ticks": 22848,
            "durationTicks": 926
          },
          {
            "time": 82.105296,
            "midi": 61,
            "name": "C#4",
            "velocity": 0.7795275590551181,
            "duration": 1.6419962708333316,
            "ticks": 29952,
            "durationTicks": 599
          },
          {
            "time": 82.105296,
            "midi": 73,
            "name": "C#5",
            "velocity": 0.7795275590551181,
            "duration": 1.625548895833333,
            "ticks": 29952,
            "durationTicks": 593
          },
          {
            "time": 82.105296,
            "midi": 70,
            "name": "A#4",
            "velocity": 0.7795275590551181,
            "duration": 1.63103135416668,
            "ticks": 29952,
            "durationTicks": 595
          },
          {
            "time": 82.105296,
            "midi": 63,
            "name": "D#4",
            "velocity": 0.7795275590551181,
            "duration": 1.625548895833333,
            "ticks": 29952,
            "durationTicks": 593
          },
          {
            "time": 82.105296,
            "midi": 66,
            "name": "F#4",
            "velocity": 0.7795275590551181,
            "duration": 1.6337725833333394,
            "ticks": 29952,
            "durationTicks": 596
          },
          {
            "time": 83.947402,
            "midi": 75,
            "name": "D#5",
            "velocity": 0.7795275590551181,
            "duration": 1.9490139374999984,
            "ticks": 30624,
            "durationTicks": 711
          },
          {
            "time": 83.947402,
            "midi": 65,
            "name": "F4",
            "velocity": 0.7795275590551181,
            "duration": 1.9106367291666828,
            "ticks": 30624,
            "durationTicks": 697
          },
          {
            "time": 83.947402,
            "midi": 63,
            "name": "D#4",
            "velocity": 0.7795275590551181,
            "duration": 1.9106367291666828,
            "ticks": 30624,
            "durationTicks": 697
          },
          {
            "time": 83.947402,
            "midi": 72,
            "name": "C5",
            "velocity": 0.7795275590551181,
            "duration": 1.951755166666672,
            "ticks": 30624,
            "durationTicks": 712
          },
          {
            "time": 83.947402,
            "midi": 68,
            "name": "G#4",
            "velocity": 0.7795275590551181,
            "duration": 1.9490139374999984,
            "ticks": 30624,
            "durationTicks": 711
          },
          {
            "time": 86.052666,
            "midi": 68,
            "name": "G#4",
            "velocity": 0.7795275590551181,
            "duration": 2.0805929375000005,
            "ticks": 31392,
            "durationTicks": 759
          },
          {
            "time": 86.052666,
            "midi": 77,
            "name": "F5",
            "velocity": 0.7795275590551181,
            "duration": 2.121711375000004,
            "ticks": 31392,
            "durationTicks": 774
          },
          {
            "time": 86.052666,
            "midi": 70,
            "name": "A#4",
            "velocity": 0.7795275590551181,
            "duration": 2.1326762916666695,
            "ticks": 31392,
            "durationTicks": 778
          },
          {
            "time": 86.052666,
            "midi": 73,
            "name": "C#5",
            "velocity": 0.7795275590551181,
            "duration": 2.143641208333321,
            "ticks": 31392,
            "durationTicks": 782
          },
          {
            "time": 86.052666,
            "midi": 66,
            "name": "F#4",
            "velocity": 0.7795275590551181,
            "duration": 2.182018416666665,
            "ticks": 31392,
            "durationTicks": 796
          },
          {
            "time": 88.421088,
            "midi": 73,
            "name": "C#5",
            "velocity": 0.7795275590551181,
            "duration": 0.09046056249999879,
            "ticks": 32256,
            "durationTicks": 33
          },
          {
            "time": 88.421088,
            "midi": 66,
            "name": "F#4",
            "velocity": 0.7795275590551181,
            "duration": 0.06030704166667533,
            "ticks": 32256,
            "durationTicks": 22
          },
          {
            "time": 88.421088,
            "midi": 63,
            "name": "D#4",
            "velocity": 0.7795275590551181,
            "duration": 0.07675441666667382,
            "ticks": 32256,
            "durationTicks": 28
          },
          {
            "time": 88.421088,
            "midi": 70,
            "name": "A#4",
            "velocity": 0.7795275590551181,
            "duration": 0.07675441666667382,
            "ticks": 32256,
            "durationTicks": 28
          },
          {
            "time": 88.815825,
            "midi": 70,
            "name": "A#4",
            "velocity": 0.7795275590551181,
            "duration": 0.06578949999999395,
            "ticks": 32400,
            "durationTicks": 24
          },
          {
            "time": 88.815825,
            "midi": 63,
            "name": "D#4",
            "velocity": 0.7795275590551181,
            "duration": 0.07949564583331892,
            "ticks": 32400,
            "durationTicks": 29
          },
          {
            "time": 88.815825,
            "midi": 73,
            "name": "C#5",
            "velocity": 0.7795275590551181,
            "duration": 0.0932017916666723,
            "ticks": 32400,
            "durationTicks": 34
          },
          {
            "time": 88.815825,
            "midi": 66,
            "name": "F#4",
            "velocity": 0.7795275590551181,
            "duration": 0.08223687499999244,
            "ticks": 32400,
            "durationTicks": 30
          },
          {
            "time": 89.210562,
            "midi": 75,
            "name": "D#5",
            "velocity": 0.7795275590551181,
            "duration": 0.674342375000009,
            "ticks": 32544,
            "durationTicks": 246
          },
          {
            "time": 89.210562,
            "midi": 65,
            "name": "F4",
            "velocity": 0.7795275590551181,
            "duration": 0.674342375000009,
            "ticks": 32544,
            "durationTicks": 246
          },
          {
            "time": 89.210562,
            "midi": 72,
            "name": "C5",
            "velocity": 0.7795275590551181,
            "duration": 0.6688599166666762,
            "ticks": 32544,
            "durationTicks": 244
          },
          {
            "time": 89.210562,
            "midi": 68,
            "name": "G#4",
            "velocity": 0.7795275590551181,
            "duration": 0.6798248333333277,
            "ticks": 32544,
            "durationTicks": 248
          },
          {
            "time": 90.000036,
            "midi": 68,
            "name": "G#4",
            "velocity": 0.7795275590551181,
            "duration": 0.05208335416668319,
            "ticks": 32832,
            "durationTicks": 19
          },
          {
            "time": 90.131615,
            "midi": 70,
            "name": "A#4",
            "velocity": 0.7795275590551181,
            "duration": 0.08771933333333948,
            "ticks": 32880,
            "durationTicks": 32
          },
          {
            "time": 90.263194,
            "midi": 73,
            "name": "C#5",
            "velocity": 0.7795275590551181,
            "duration": 0.1123903958333301,
            "ticks": 32928,
            "durationTicks": 41
          },
          {
            "time": 90.394773,
            "midi": 70,
            "name": "A#4",
            "velocity": 0.7795275590551181,
            "duration": 0.08771933333332527,
            "ticks": 32976,
            "durationTicks": 32
          },
          {
            "time": 90.526352,
            "midi": 85,
            "name": "C#6",
            "velocity": 0.7795275590551181,
            "duration": 0.753838020833328,
            "ticks": 33024,
            "durationTicks": 275
          },
          {
            "time": 91.315826,
            "midi": 87,
            "name": "D#6",
            "velocity": 0.7795275590551181,
            "duration": 1.0608556874999948,
            "ticks": 33312,
            "durationTicks": 387
          },
          {
            "time": 92.368458,
            "midi": 80,
            "name": "G#5",
            "velocity": 0.7795275590551181,
            "duration": 0.26864045833332284,
            "ticks": 33696,
            "durationTicks": 98
          },
          {
            "time": 92.63161600000001,
            "midi": 87,
            "name": "D#6",
            "velocity": 0.7795275590551181,
            "duration": 0.7976976874999906,
            "ticks": 33792,
            "durationTicks": 291
          },
          {
            "time": 93.42109,
            "midi": 89,
            "name": "F6",
            "velocity": 0.7795275590551181,
            "duration": 0.7812503124999921,
            "ticks": 34080,
            "durationTicks": 285
          },
          {
            "time": 94.210564,
            "midi": 92,
            "name": "G#6",
            "velocity": 0.7795275590551181,
            "duration": 0.13980268749999425,
            "ticks": 34368,
            "durationTicks": 51
          },
          {
            "time": 94.34214300000001,
            "midi": 90,
            "name": "F#6",
            "velocity": 0.7795275590551181,
            "duration": 0.13706145833332073,
            "ticks": 34416,
            "durationTicks": 50
          },
          {
            "time": 94.473722,
            "midi": 89,
            "name": "F6",
            "velocity": 0.7795275590551181,
            "duration": 0.15076760416667412,
            "ticks": 34464,
            "durationTicks": 55
          },
          {
            "time": 94.605301,
            "midi": 85,
            "name": "C#6",
            "velocity": 0.7795275590551181,
            "duration": 0.9457240625000054,
            "ticks": 34512,
            "durationTicks": 345
          },
          {
            "time": 95.526354,
            "midi": 87,
            "name": "D#6",
            "velocity": 0.7795275590551181,
            "duration": 0.7648029375000078,
            "ticks": 34848,
            "durationTicks": 279
          },
          {
            "time": 96.315828,
            "midi": 80,
            "name": "G#5",
            "velocity": 0.7795275590551181,
            "duration": 2.5383782083333273,
            "ticks": 35136,
            "durationTicks": 926
          },
          {
            "time": 98.947408,
            "midi": 85,
            "name": "C#6",
            "velocity": 0.7795275590551181,
            "duration": 0.753838020833328,
            "ticks": 36096,
            "durationTicks": 275
          },
          {
            "time": 99.736882,
            "midi": 87,
            "name": "D#6",
            "velocity": 0.7795275590551181,
            "duration": 1.060855687500009,
            "ticks": 36384,
            "durationTicks": 387
          },
          {
            "time": 100.789514,
            "midi": 80,
            "name": "G#5",
            "velocity": 0.7795275590551181,
            "duration": 0.26864045833333705,
            "ticks": 36768,
            "durationTicks": 98
          },
          {
            "time": 101.052672,
            "midi": 87,
            "name": "D#6",
            "velocity": 0.7795275590551181,
            "duration": 0.7976976875000048,
            "ticks": 36864,
            "durationTicks": 291
          },
          {
            "time": 101.842146,
            "midi": 89,
            "name": "F6",
            "velocity": 0.7795275590551181,
            "duration": 0.7812503125000063,
            "ticks": 37152,
            "durationTicks": 285
          },
          {
            "time": 102.63162,
            "midi": 92,
            "name": "G#6",
            "velocity": 0.7795275590551181,
            "duration": 0.13980268750000846,
            "ticks": 37440,
            "durationTicks": 51
          },
          {
            "time": 102.763199,
            "midi": 90,
            "name": "F#6",
            "velocity": 0.7795275590551181,
            "duration": 0.13706145833333494,
            "ticks": 37488,
            "durationTicks": 50
          },
          {
            "time": 102.894778,
            "midi": 89,
            "name": "F6",
            "velocity": 0.7795275590551181,
            "duration": 0.15076760416667412,
            "ticks": 37536,
            "durationTicks": 55
          },
          {
            "time": 103.026357,
            "midi": 85,
            "name": "C#6",
            "velocity": 0.7795275590551181,
            "duration": 0.9457240624999912,
            "ticks": 37584,
            "durationTicks": 345
          },
          {
            "time": 103.94741,
            "midi": 87,
            "name": "D#6",
            "velocity": 0.7795275590551181,
            "duration": 0.7648029374999936,
            "ticks": 37920,
            "durationTicks": 279
          },
          {
            "time": 104.736884,
            "midi": 80,
            "name": "G#5",
            "velocity": 0.7795275590551181,
            "duration": 2.5383782083333273,
            "ticks": 38208,
            "durationTicks": 926
          },
          {
            "time": 107.368464,
            "midi": 85,
            "name": "C#6",
            "velocity": 0.7795275590551181,
            "duration": 0.753838020833328,
            "ticks": 39168,
            "durationTicks": 275
          },
          {
            "time": 108.157938,
            "midi": 87,
            "name": "D#6",
            "velocity": 0.7795275590551181,
            "duration": 1.0608556874999948,
            "ticks": 39456,
            "durationTicks": 387
          },
          {
            "time": 109.21057,
            "midi": 80,
            "name": "G#5",
            "velocity": 0.7795275590551181,
            "duration": 0.26864045833332284,
            "ticks": 39840,
            "durationTicks": 98
          },
          {
            "time": 109.473728,
            "midi": 87,
            "name": "D#6",
            "velocity": 0.7795275590551181,
            "duration": 0.7976976875000048,
            "ticks": 39936,
            "durationTicks": 291
          },
          {
            "time": 110.263202,
            "midi": 89,
            "name": "F6",
            "velocity": 0.7795275590551181,
            "duration": 0.7812503124999921,
            "ticks": 40224,
            "durationTicks": 285
          },
          {
            "time": 111.052676,
            "midi": 92,
            "name": "G#6",
            "velocity": 0.7795275590551181,
            "duration": 0.13980268749999425,
            "ticks": 40512,
            "durationTicks": 51
          },
          {
            "time": 111.18425500000001,
            "midi": 90,
            "name": "F#6",
            "velocity": 0.7795275590551181,
            "duration": 0.13706145833332073,
            "ticks": 40560,
            "durationTicks": 50
          },
          {
            "time": 111.315834,
            "midi": 89,
            "name": "F6",
            "velocity": 0.7795275590551181,
            "duration": 0.15076760416667412,
            "ticks": 40608,
            "durationTicks": 55
          },
          {
            "time": 111.447413,
            "midi": 85,
            "name": "C#6",
            "velocity": 0.7795275590551181,
            "duration": 0.9457240625000054,
            "ticks": 40656,
            "durationTicks": 345
          },
          {
            "time": 112.368466,
            "midi": 87,
            "name": "D#6",
            "velocity": 0.7795275590551181,
            "duration": 0.7648029375000078,
            "ticks": 40992,
            "durationTicks": 279
          },
          {
            "time": 113.15794,
            "midi": 80,
            "name": "G#5",
            "velocity": 0.7795275590551181,
            "duration": 2.5383782083333273,
            "ticks": 41280,
            "durationTicks": 926
          },
          {
            "time": 115.78952,
            "midi": 85,
            "name": "C#6",
            "velocity": 0.7795275590551181,
            "duration": 0.753838020833328,
            "ticks": 42240,
            "durationTicks": 275
          },
          {
            "time": 116.578994,
            "midi": 87,
            "name": "D#6",
            "velocity": 0.7795275590551181,
            "duration": 1.060855687500009,
            "ticks": 42528,
            "durationTicks": 387
          },
          {
            "time": 117.631626,
            "midi": 80,
            "name": "G#5",
            "velocity": 0.7795275590551181,
            "duration": 0.26864045833333705,
            "ticks": 42912,
            "durationTicks": 98
          },
          {
            "time": 117.894784,
            "midi": 87,
            "name": "D#6",
            "velocity": 0.7795275590551181,
            "duration": 0.7976976875000048,
            "ticks": 43008,
            "durationTicks": 291
          },
          {
            "time": 118.684258,
            "midi": 89,
            "name": "F6",
            "velocity": 0.7795275590551181,
            "duration": 0.7812503125000063,
            "ticks": 43296,
            "durationTicks": 285
          },
          {
            "time": 119.473732,
            "midi": 92,
            "name": "G#6",
            "velocity": 0.7795275590551181,
            "duration": 0.13980268750000846,
            "ticks": 43584,
            "durationTicks": 51
          },
          {
            "time": 119.605311,
            "midi": 90,
            "name": "F#6",
            "velocity": 0.7795275590551181,
            "duration": 0.13706145833333494,
            "ticks": 43632,
            "durationTicks": 50
          },
          {
            "time": 119.73689,
            "midi": 89,
            "name": "F6",
            "velocity": 0.7795275590551181,
            "duration": 0.15076760416667412,
            "ticks": 43680,
            "durationTicks": 55
          },
          {
            "time": 119.868469,
            "midi": 85,
            "name": "C#6",
            "velocity": 0.7795275590551181,
            "duration": 0.9457240624999912,
            "ticks": 43728,
            "durationTicks": 345
          },
          {
            "time": 120.789522,
            "midi": 87,
            "name": "D#6",
            "velocity": 0.7795275590551181,
            "duration": 0.7648029374999936,
            "ticks": 44064,
            "durationTicks": 279
          },
          {
            "time": 121.578996,
            "midi": 80,
            "name": "G#5",
            "velocity": 0.7795275590551181,
            "duration": 2.5383782083333273,
            "ticks": 44352,
            "durationTicks": 926
          },
          {
            "time": 164.210592,
            "midi": 65,
            "name": "F4",
            "velocity": 0.7795275590551181,
            "duration": 0.6195177916666808,
            "ticks": 59904,
            "durationTicks": 226
          },
          {
            "time": 164.210592,
            "midi": 54,
            "name": "F#3",
            "velocity": 0.7795275590551181,
            "duration": 0.603070416666668,
            "ticks": 59904,
            "durationTicks": 220
          },
          {
            "time": 164.210592,
            "midi": 58,
            "name": "A#3",
            "velocity": 0.7795275590551181,
            "duration": 0.600329187500023,
            "ticks": 59904,
            "durationTicks": 219
          },
          {
            "time": 164.210592,
            "midi": 61,
            "name": "C#4",
            "velocity": 0.7795275590551181,
            "duration": 0.6304827083333464,
            "ticks": 59904,
            "durationTicks": 230
          },
          {
            "time": 165.000066,
            "midi": 63,
            "name": "D#4",
            "velocity": 0.7795275590551181,
            "duration": 0.9484652916666505,
            "ticks": 60192,
            "durationTicks": 346
          },
          {
            "time": 165.000066,
            "midi": 56,
            "name": "G#3",
            "velocity": 0.7795275590551181,
            "duration": 0.9512065208333524,
            "ticks": 60192,
            "durationTicks": 347
          },
          {
            "time": 165.000066,
            "midi": 60,
            "name": "C4",
            "velocity": 0.7795275590551181,
            "duration": 0.9429828333333319,
            "ticks": 60192,
            "durationTicks": 344
          },
          {
            "time": 165.000066,
            "midi": 53,
            "name": "F3",
            "velocity": 0.7795275590551181,
            "duration": 0.9402416041666584,
            "ticks": 60192,
            "durationTicks": 343
          },
          {
            "time": 172.631648,
            "midi": 65,
            "name": "F4",
            "velocity": 0.7795275590551181,
            "duration": 0.6195177916666523,
            "ticks": 62976,
            "durationTicks": 226
          },
          {
            "time": 172.631648,
            "midi": 54,
            "name": "F#3",
            "velocity": 0.7795275590551181,
            "duration": 0.6030704166666396,
            "ticks": 62976,
            "durationTicks": 220
          },
          {
            "time": 172.631648,
            "midi": 58,
            "name": "A#3",
            "velocity": 0.7795275590551181,
            "duration": 0.6003291874999945,
            "ticks": 62976,
            "durationTicks": 219
          },
          {
            "time": 172.631648,
            "midi": 61,
            "name": "C#4",
            "velocity": 0.7795275590551181,
            "duration": 0.6304827083333464,
            "ticks": 62976,
            "durationTicks": 230
          },
          {
            "time": 173.421122,
            "midi": 63,
            "name": "D#4",
            "velocity": 0.7795275590551181,
            "duration": 0.9484652916666505,
            "ticks": 63264,
            "durationTicks": 346
          },
          {
            "time": 173.421122,
            "midi": 56,
            "name": "G#3",
            "velocity": 0.7795275590551181,
            "duration": 0.9512065208333524,
            "ticks": 63264,
            "durationTicks": 347
          },
          {
            "time": 173.421122,
            "midi": 60,
            "name": "C4",
            "velocity": 0.7795275590551181,
            "duration": 0.9429828333333603,
            "ticks": 63264,
            "durationTicks": 344
          },
          {
            "time": 173.421122,
            "midi": 53,
            "name": "F3",
            "velocity": 0.7795275590551181,
            "duration": 0.9402416041666584,
            "ticks": 63264,
            "durationTicks": 343
          },
          {
            "time": 174.736912,
            "midi": 61,
            "name": "C#4",
            "velocity": 0.7795275590551181,
            "duration": 1.6419962708333458,
            "ticks": 63744,
            "durationTicks": 599
          },
          {
            "time": 174.736912,
            "midi": 73,
            "name": "C#5",
            "velocity": 0.7795275590551181,
            "duration": 1.6255488958333615,
            "ticks": 63744,
            "durationTicks": 593
          },
          {
            "time": 174.736912,
            "midi": 70,
            "name": "A#4",
            "velocity": 0.7795275590551181,
            "duration": 1.63103135416668,
            "ticks": 63744,
            "durationTicks": 595
          },
          {
            "time": 174.736912,
            "midi": 63,
            "name": "D#4",
            "velocity": 0.7795275590551181,
            "duration": 1.6255488958333615,
            "ticks": 63744,
            "durationTicks": 593
          },
          {
            "time": 174.736912,
            "midi": 66,
            "name": "F#4",
            "velocity": 0.7795275590551181,
            "duration": 1.6337725833333536,
            "ticks": 63744,
            "durationTicks": 596
          },
          {
            "time": 176.579018,
            "midi": 75,
            "name": "D#5",
            "velocity": 0.7795275590551181,
            "duration": 1.9490139375000126,
            "ticks": 64416,
            "durationTicks": 711
          },
          {
            "time": 176.579018,
            "midi": 65,
            "name": "F4",
            "velocity": 0.7795275590551181,
            "duration": 1.9106367291666686,
            "ticks": 64416,
            "durationTicks": 697
          },
          {
            "time": 176.579018,
            "midi": 63,
            "name": "D#4",
            "velocity": 0.7795275590551181,
            "duration": 1.9106367291666686,
            "ticks": 64416,
            "durationTicks": 697
          },
          {
            "time": 176.579018,
            "midi": 72,
            "name": "C5",
            "velocity": 0.7795275590551181,
            "duration": 1.9517551666666577,
            "ticks": 64416,
            "durationTicks": 712
          },
          {
            "time": 176.579018,
            "midi": 68,
            "name": "G#4",
            "velocity": 0.7795275590551181,
            "duration": 1.9490139375000126,
            "ticks": 64416,
            "durationTicks": 711
          },
          {
            "time": 178.684282,
            "midi": 68,
            "name": "G#4",
            "velocity": 0.7795275590551181,
            "duration": 2.0805929375000005,
            "ticks": 65184,
            "durationTicks": 759
          },
          {
            "time": 178.684282,
            "midi": 77,
            "name": "F5",
            "velocity": 0.7795275590551181,
            "duration": 2.121711375000018,
            "ticks": 65184,
            "durationTicks": 774
          },
          {
            "time": 178.684282,
            "midi": 70,
            "name": "A#4",
            "velocity": 0.7795275590551181,
            "duration": 2.1326762916666553,
            "ticks": 65184,
            "durationTicks": 778
          },
          {
            "time": 178.684282,
            "midi": 73,
            "name": "C#5",
            "velocity": 0.7795275590551181,
            "duration": 2.1436412083333494,
            "ticks": 65184,
            "durationTicks": 782
          },
          {
            "time": 178.684282,
            "midi": 66,
            "name": "F#4",
            "velocity": 0.7795275590551181,
            "duration": 2.182018416666665,
            "ticks": 65184,
            "durationTicks": 796
          },
          {
            "time": 181.052704,
            "midi": 73,
            "name": "C#5",
            "velocity": 0.7795275590551181,
            "duration": 0.09046056249999879,
            "ticks": 66048,
            "durationTicks": 33
          },
          {
            "time": 181.052704,
            "midi": 66,
            "name": "F#4",
            "velocity": 0.7795275590551181,
            "duration": 0.06030704166664691,
            "ticks": 66048,
            "durationTicks": 22
          },
          {
            "time": 181.052704,
            "midi": 63,
            "name": "D#4",
            "velocity": 0.7795275590551181,
            "duration": 0.07675441666665961,
            "ticks": 66048,
            "durationTicks": 28
          },
          {
            "time": 181.052704,
            "midi": 70,
            "name": "A#4",
            "velocity": 0.7795275590551181,
            "duration": 0.07675441666665961,
            "ticks": 66048,
            "durationTicks": 28
          },
          {
            "time": 181.447441,
            "midi": 70,
            "name": "A#4",
            "velocity": 0.7795275590551181,
            "duration": 0.06578949999999395,
            "ticks": 66192,
            "durationTicks": 24
          },
          {
            "time": 181.447441,
            "midi": 63,
            "name": "D#4",
            "velocity": 0.7795275590551181,
            "duration": 0.07949564583336155,
            "ticks": 66192,
            "durationTicks": 29
          },
          {
            "time": 181.447441,
            "midi": 73,
            "name": "C#5",
            "velocity": 0.7795275590551181,
            "duration": 0.0932017916666723,
            "ticks": 66192,
            "durationTicks": 34
          },
          {
            "time": 181.447441,
            "midi": 66,
            "name": "F#4",
            "velocity": 0.7795275590551181,
            "duration": 0.08223687500000665,
            "ticks": 66192,
            "durationTicks": 30
          },
          {
            "time": 181.842178,
            "midi": 75,
            "name": "D#5",
            "velocity": 0.7795275590551181,
            "duration": 0.674342375000009,
            "ticks": 66336,
            "durationTicks": 246
          },
          {
            "time": 181.842178,
            "midi": 65,
            "name": "F4",
            "velocity": 0.7795275590551181,
            "duration": 0.674342375000009,
            "ticks": 66336,
            "durationTicks": 246
          },
          {
            "time": 181.842178,
            "midi": 72,
            "name": "C5",
            "velocity": 0.7795275590551181,
            "duration": 0.668859916666662,
            "ticks": 66336,
            "durationTicks": 244
          },
          {
            "time": 181.842178,
            "midi": 68,
            "name": "G#4",
            "velocity": 0.7795275590551181,
            "duration": 0.6798248333333561,
            "ticks": 66336,
            "durationTicks": 248
          },
          {
            "time": 182.631652,
            "midi": 68,
            "name": "G#4",
            "velocity": 0.7795275590551181,
            "duration": 0.05208335416665477,
            "ticks": 66624,
            "durationTicks": 19
          },
          {
            "time": 182.763231,
            "midi": 70,
            "name": "A#4",
            "velocity": 0.7795275590551181,
            "duration": 0.08771933333335369,
            "ticks": 66672,
            "durationTicks": 32
          },
          {
            "time": 182.89481,
            "midi": 73,
            "name": "C#5",
            "velocity": 0.7795275590551181,
            "duration": 0.1123903958333301,
            "ticks": 66720,
            "durationTicks": 41
          },
          {
            "time": 183.026389,
            "midi": 70,
            "name": "A#4",
            "velocity": 0.7795275590551181,
            "duration": 0.08771933333335369,
            "ticks": 66768,
            "durationTicks": 32
          },
          {
            "time": 183.157968,
            "midi": 85,
            "name": "C#6",
            "velocity": 0.7795275590551181,
            "duration": 0.7538380208333422,
            "ticks": 66816,
            "durationTicks": 275
          },
          {
            "time": 183.947442,
            "midi": 87,
            "name": "D#6",
            "velocity": 0.7795275590551181,
            "duration": 1.060855687500009,
            "ticks": 67104,
            "durationTicks": 387
          },
          {
            "time": 185.000074,
            "midi": 80,
            "name": "G#5",
            "velocity": 0.7795275590551181,
            "duration": 0.26864045833332284,
            "ticks": 67488,
            "durationTicks": 98
          },
          {
            "time": 185.26323200000002,
            "midi": 87,
            "name": "D#6",
            "velocity": 0.7795275590551181,
            "duration": 0.7976976874999764,
            "ticks": 67584,
            "durationTicks": 291
          },
          {
            "time": 186.052706,
            "midi": 89,
            "name": "F6",
            "velocity": 0.7795275590551181,
            "duration": 0.7812503124999921,
            "ticks": 67872,
            "durationTicks": 285
          },
          {
            "time": 186.84218,
            "midi": 92,
            "name": "G#6",
            "velocity": 0.7795275590551181,
            "duration": 0.13980268749998004,
            "ticks": 68160,
            "durationTicks": 51
          },
          {
            "time": 186.973759,
            "midi": 90,
            "name": "F#6",
            "velocity": 0.7795275590551181,
            "duration": 0.13706145833333494,
            "ticks": 68208,
            "durationTicks": 50
          },
          {
            "time": 187.105338,
            "midi": 89,
            "name": "F6",
            "velocity": 0.7795275590551181,
            "duration": 0.15076760416667412,
            "ticks": 68256,
            "durationTicks": 55
          },
          {
            "time": 187.236917,
            "midi": 85,
            "name": "C#6",
            "velocity": 0.7795275590551181,
            "duration": 0.9457240625000054,
            "ticks": 68304,
            "durationTicks": 345
          },
          {
            "time": 188.15797,
            "midi": 87,
            "name": "D#6",
            "velocity": 0.7795275590551181,
            "duration": 0.7648029375000078,
            "ticks": 68640,
            "durationTicks": 279
          },
          {
            "time": 188.947444,
            "midi": 80,
            "name": "G#5",
            "velocity": 0.7795275590551181,
            "duration": 2.5383782083333415,
            "ticks": 68928,
            "durationTicks": 926
          },
          {
            "time": 191.579024,
            "midi": 85,
            "name": "C#6",
            "velocity": 0.7795275590551181,
            "duration": 0.7538380208333422,
            "ticks": 69888,
            "durationTicks": 275
          },
          {
            "time": 192.368498,
            "midi": 87,
            "name": "D#6",
            "velocity": 0.7795275590551181,
            "duration": 1.060855687500009,
            "ticks": 70176,
            "durationTicks": 387
          },
          {
            "time": 193.42113,
            "midi": 80,
            "name": "G#5",
            "velocity": 0.7795275590551181,
            "duration": 0.26864045833335126,
            "ticks": 70560,
            "durationTicks": 98
          },
          {
            "time": 193.684288,
            "midi": 87,
            "name": "D#6",
            "velocity": 0.7795275590551181,
            "duration": 0.7976976875000048,
            "ticks": 70656,
            "durationTicks": 291
          },
          {
            "time": 194.473762,
            "midi": 89,
            "name": "F6",
            "velocity": 0.7795275590551181,
            "duration": 0.7812503125000205,
            "ticks": 70944,
            "durationTicks": 285
          },
          {
            "time": 195.263236,
            "midi": 92,
            "name": "G#6",
            "velocity": 0.7795275590551181,
            "duration": 0.13980268750000846,
            "ticks": 71232,
            "durationTicks": 51
          },
          {
            "time": 195.394815,
            "midi": 90,
            "name": "F#6",
            "velocity": 0.7795275590551181,
            "duration": 0.13706145833336336,
            "ticks": 71280,
            "durationTicks": 50
          },
          {
            "time": 195.526394,
            "midi": 89,
            "name": "F6",
            "velocity": 0.7795275590551181,
            "duration": 0.1507676041666457,
            "ticks": 71328,
            "durationTicks": 55
          },
          {
            "time": 195.657973,
            "midi": 85,
            "name": "C#6",
            "velocity": 0.7795275590551181,
            "duration": 0.9457240625000054,
            "ticks": 71376,
            "durationTicks": 345
          },
          {
            "time": 196.579026,
            "midi": 87,
            "name": "D#6",
            "velocity": 0.7795275590551181,
            "duration": 0.7648029375000078,
            "ticks": 71712,
            "durationTicks": 279
          },
          {
            "time": 197.3685,
            "midi": 80,
            "name": "G#5",
            "velocity": 0.7795275590551181,
            "duration": 2.5383782083333415,
            "ticks": 72000,
            "durationTicks": 926
          },
          {
            "time": 200.00008,
            "midi": 85,
            "name": "C#6",
            "velocity": 0.7795275590551181,
            "duration": 0.7538380208333422,
            "ticks": 72960,
            "durationTicks": 275
          },
          {
            "time": 200.789554,
            "midi": 87,
            "name": "D#6",
            "velocity": 0.7795275590551181,
            "duration": 1.0608556874999806,
            "ticks": 73248,
            "durationTicks": 387
          },
          {
            "time": 201.842186,
            "midi": 80,
            "name": "G#5",
            "velocity": 0.7795275590551181,
            "duration": 0.26864045833335126,
            "ticks": 73632,
            "durationTicks": 98
          },
          {
            "time": 202.105344,
            "midi": 87,
            "name": "D#6",
            "velocity": 0.7795275590551181,
            "duration": 0.7976976875000048,
            "ticks": 73728,
            "durationTicks": 291
          },
          {
            "time": 202.89481800000001,
            "midi": 89,
            "name": "F6",
            "velocity": 0.7795275590551181,
            "duration": 0.7812503124999921,
            "ticks": 74016,
            "durationTicks": 285
          },
          {
            "time": 203.684292,
            "midi": 92,
            "name": "G#6",
            "velocity": 0.7795275590551181,
            "duration": 0.13980268750000846,
            "ticks": 74304,
            "durationTicks": 51
          },
          {
            "time": 203.81587100000002,
            "midi": 90,
            "name": "F#6",
            "velocity": 0.7795275590551181,
            "duration": 0.13706145833333494,
            "ticks": 74352,
            "durationTicks": 50
          },
          {
            "time": 203.94745,
            "midi": 89,
            "name": "F6",
            "velocity": 0.7795275590551181,
            "duration": 0.1507676041666457,
            "ticks": 74400,
            "durationTicks": 55
          },
          {
            "time": 204.079029,
            "midi": 85,
            "name": "C#6",
            "velocity": 0.7795275590551181,
            "duration": 0.9457240625000054,
            "ticks": 74448,
            "durationTicks": 345
          },
          {
            "time": 205.000082,
            "midi": 87,
            "name": "D#6",
            "velocity": 0.7795275590551181,
            "duration": 0.7648029375000078,
            "ticks": 74784,
            "durationTicks": 279
          },
          {
            "time": 205.789556,
            "midi": 80,
            "name": "G#5",
            "velocity": 0.7795275590551181,
            "duration": 2.5383782083333415,
            "ticks": 75072,
            "durationTicks": 926
          },
          {
            "time": 208.421136,
            "midi": 85,
            "name": "C#6",
            "velocity": 0.7795275590551181,
            "duration": 0.7538380208333422,
            "ticks": 76032,
            "durationTicks": 275
          },
          {
            "time": 209.21061,
            "midi": 87,
            "name": "D#6",
            "velocity": 0.7795275590551181,
            "duration": 1.060855687500009,
            "ticks": 76320,
            "durationTicks": 387
          },
          {
            "time": 210.263242,
            "midi": 80,
            "name": "G#5",
            "velocity": 0.7795275590551181,
            "duration": 0.26864045833335126,
            "ticks": 76704,
            "durationTicks": 98
          },
          {
            "time": 210.5264,
            "midi": 87,
            "name": "D#6",
            "velocity": 0.7795275590551181,
            "duration": 0.7976976875000048,
            "ticks": 76800,
            "durationTicks": 291
          },
          {
            "time": 211.315874,
            "midi": 89,
            "name": "F6",
            "velocity": 0.7795275590551181,
            "duration": 0.7812503124999921,
            "ticks": 77088,
            "durationTicks": 285
          },
          {
            "time": 212.105348,
            "midi": 92,
            "name": "G#6",
            "velocity": 0.7795275590551181,
            "duration": 0.13980268750000846,
            "ticks": 77376,
            "durationTicks": 51
          },
          {
            "time": 212.236927,
            "midi": 90,
            "name": "F#6",
            "velocity": 0.7795275590551181,
            "duration": 0.13706145833333494,
            "ticks": 77424,
            "durationTicks": 50
          },
          {
            "time": 212.368506,
            "midi": 89,
            "name": "F6",
            "velocity": 0.7795275590551181,
            "duration": 0.15076760416667412,
            "ticks": 77472,
            "durationTicks": 55
          },
          {
            "time": 212.500085,
            "midi": 85,
            "name": "C#6",
            "velocity": 0.7795275590551181,
            "duration": 0.945724062499977,
            "ticks": 77520,
            "durationTicks": 345
          },
          {
            "time": 213.421138,
            "midi": 87,
            "name": "D#6",
            "velocity": 0.7795275590551181,
            "duration": 0.7648029374999794,
            "ticks": 77856,
            "durationTicks": 279
          },
          {
            "time": 214.210612,
            "midi": 80,
            "name": "G#5",
            "velocity": 0.7795275590551181,
            "duration": 2.5383782083333415,
            "ticks": 78144,
            "durationTicks": 926
          }
        ],
        "controlChanges": {
          "0": [
            {
              "number": 0,
              "value": 0,
              "time": 1.5844304583333333,
              "ticks": 578
            }
          ],
          "1": [
            {
              "number": 1,
              "value": 0,
              "time": 0.021929833333333332,
              "ticks": 8
            }
          ],
          "6": [
            {
              "number": 6,
              "value": 0.09448818897637795,
              "time": 0.016447375,
              "ticks": 6
            }
          ],
          "7": [
            {
              "number": 7,
              "value": 0.7086614173228346,
              "time": 1.5899129166666668,
              "ticks": 580
            }
          ],
          "10": [
            {
              "number": 10,
              "value": 0.5039370078740157,
              "time": 1.595395375,
              "ticks": 582
            }
          ],
          "11": [
            {
              "number": 11,
              "value": 1,
              "time": 0.019188604166666668,
              "ticks": 7
            },
            {
              "number": 11,
              "value": 1,
              "time": 0.027412291666666668,
              "ticks": 10
            },
            {
              "number": 11,
              "value": 1,
              "time": 1.6008778333333333,
              "ticks": 584
            }
          ],
          "32": [
            {
              "number": 32,
              "value": 0,
              "time": 1.5844304583333333,
              "ticks": 578
            }
          ],
          "64": [
            {
              "number": 64,
              "value": 0,
              "time": 0.0082236875,
              "ticks": 3
            }
          ],
          "67": [
            {
              "number": 67,
              "value": 0,
              "time": 0.005482458333333333,
              "ticks": 2
            }
          ],
          "91": [
            {
              "number": 91,
              "value": 0.5039370078740157,
              "time": 1.6063602916666668,
              "ticks": 586
            }
          ],
          "93": [
            {
              "number": 93,
              "value": 0,
              "time": 1.61184275,
              "ticks": 588
            }
          ],
          "100": [
            {
              "number": 100,
              "value": 0,
              "time": 0.010964916666666666,
              "ticks": 4
            }
          ],
          "101": [
            {
              "number": 101,
              "value": 0,
              "time": 0.013706145833333334,
              "ticks": 5
            }
          ],
          "121": [
            {
              "number": 121,
              "value": 0,
              "time": 0,
              "ticks": 0
            }
          ],
          "123": [
            {
              "number": 123,
              "value": 0,
              "time": 244.20514154166665,
              "ticks": 89086
            }
          ]
        }
      },
      {
        "name": "Brass Section",
        "channel": 0,
        "instrument": {
          "number": 61,
          "name": "brass section",
          "family": "brass"
        },
        "notes": [
          {
            "time": 13.684216,
            "midi": 85,
            "name": "C#6",
            "velocity": 1,
            "duration": 0.04934212500000079,
            "ticks": 4992,
            "durationTicks": 18
          },
          {
            "time": 13.684216,
            "midi": 68,
            "name": "G#4",
            "velocity": 1,
            "duration": 0.057565812500000035,
            "ticks": 4992,
            "durationTicks": 21
          },
          {
            "time": 13.684216,
            "midi": 80,
            "name": "G#5",
            "velocity": 1,
            "duration": 0.08497810416666773,
            "ticks": 4992,
            "durationTicks": 31
          },
          {
            "time": 13.815795,
            "midi": 80,
            "name": "G#5",
            "velocity": 1,
            "duration": 0.07127195833333388,
            "ticks": 5040,
            "durationTicks": 26
          },
          {
            "time": 13.815795,
            "midi": 68,
            "name": "G#4",
            "velocity": 1,
            "duration": 0.08223687500000132,
            "ticks": 5040,
            "durationTicks": 30
          },
          {
            "time": 13.815795,
            "midi": 85,
            "name": "C#6",
            "velocity": 1,
            "duration": 0.06304827083333464,
            "ticks": 5040,
            "durationTicks": 23
          },
          {
            "time": 14.078953,
            "midi": 80,
            "name": "G#5",
            "velocity": 1,
            "duration": 0.03837720833333336,
            "ticks": 5136,
            "durationTicks": 14
          },
          {
            "time": 14.078953,
            "midi": 85,
            "name": "C#6",
            "velocity": 1,
            "duration": 0.05482458333333362,
            "ticks": 5136,
            "durationTicks": 20
          },
          {
            "time": 14.078953,
            "midi": 68,
            "name": "G#4",
            "velocity": 1,
            "duration": 0.06304827083333464,
            "ticks": 5136,
            "durationTicks": 23
          },
          {
            "time": 14.210532,
            "midi": 68,
            "name": "G#4",
            "velocity": 1,
            "duration": 0.06578949999999928,
            "ticks": 5184,
            "durationTicks": 24
          },
          {
            "time": 14.210532,
            "midi": 80,
            "name": "G#5",
            "velocity": 1,
            "duration": 0.06304827083333286,
            "ticks": 5184,
            "durationTicks": 23
          },
          {
            "time": 14.210532,
            "midi": 85,
            "name": "C#6",
            "velocity": 1,
            "duration": 0.06304827083333286,
            "ticks": 5184,
            "durationTicks": 23
          },
          {
            "time": 14.342111000000001,
            "midi": 80,
            "name": "G#5",
            "velocity": 1,
            "duration": 0.06304827083333286,
            "ticks": 5232,
            "durationTicks": 23
          },
          {
            "time": 14.342111000000001,
            "midi": 85,
            "name": "C#6",
            "velocity": 1,
            "duration": 0.06304827083333286,
            "ticks": 5232,
            "durationTicks": 23
          },
          {
            "time": 14.342111000000001,
            "midi": 68,
            "name": "G#4",
            "velocity": 1,
            "duration": 0.07127195833333388,
            "ticks": 5232,
            "durationTicks": 26
          },
          {
            "time": 14.47369,
            "midi": 80,
            "name": "G#5",
            "velocity": 1,
            "duration": 0.06578950000000106,
            "ticks": 5280,
            "durationTicks": 24
          },
          {
            "time": 14.47369,
            "midi": 85,
            "name": "C#6",
            "velocity": 1,
            "duration": 0.06304827083333464,
            "ticks": 5280,
            "durationTicks": 23
          },
          {
            "time": 14.47369,
            "midi": 68,
            "name": "G#4",
            "velocity": 1,
            "duration": 0.06853072916666747,
            "ticks": 5280,
            "durationTicks": 25
          },
          {
            "time": 14.605269,
            "midi": 80,
            "name": "G#5",
            "velocity": 1,
            "duration": 0.0794956458333349,
            "ticks": 5328,
            "durationTicks": 29
          },
          {
            "time": 14.605269,
            "midi": 85,
            "name": "C#6",
            "velocity": 1,
            "duration": 0.07127195833333388,
            "ticks": 5328,
            "durationTicks": 26
          },
          {
            "time": 14.605269,
            "midi": 68,
            "name": "G#4",
            "velocity": 1,
            "duration": 0.07127195833333388,
            "ticks": 5328,
            "durationTicks": 26
          },
          {
            "time": 22.105272,
            "midi": 85,
            "name": "C#6",
            "velocity": 1,
            "duration": 0.04934212500000257,
            "ticks": 8064,
            "durationTicks": 18
          },
          {
            "time": 22.105272,
            "midi": 68,
            "name": "G#4",
            "velocity": 1,
            "duration": 0.05756581250000181,
            "ticks": 8064,
            "durationTicks": 21
          },
          {
            "time": 22.105272,
            "midi": 80,
            "name": "G#5",
            "velocity": 1,
            "duration": 0.08497810416666951,
            "ticks": 8064,
            "durationTicks": 31
          },
          {
            "time": 22.236851,
            "midi": 80,
            "name": "G#5",
            "velocity": 1,
            "duration": 0.07127195833333033,
            "ticks": 8112,
            "durationTicks": 26
          },
          {
            "time": 22.236851,
            "midi": 68,
            "name": "G#4",
            "velocity": 1,
            "duration": 0.08223687499999954,
            "ticks": 8112,
            "durationTicks": 30
          },
          {
            "time": 22.236851,
            "midi": 85,
            "name": "C#6",
            "velocity": 1,
            "duration": 0.06304827083333109,
            "ticks": 8112,
            "durationTicks": 23
          },
          {
            "time": 22.500009,
            "midi": 80,
            "name": "G#5",
            "velocity": 1,
            "duration": 0.03837720833333336,
            "ticks": 8208,
            "durationTicks": 14
          },
          {
            "time": 22.500009,
            "midi": 85,
            "name": "C#6",
            "velocity": 1,
            "duration": 0.0548245833333354,
            "ticks": 8208,
            "durationTicks": 20
          },
          {
            "time": 22.500009,
            "midi": 68,
            "name": "G#4",
            "velocity": 1,
            "duration": 0.06304827083333464,
            "ticks": 8208,
            "durationTicks": 23
          },
          {
            "time": 22.631588,
            "midi": 68,
            "name": "G#4",
            "velocity": 1,
            "duration": 0.06578950000000106,
            "ticks": 8256,
            "durationTicks": 24
          },
          {
            "time": 22.631588,
            "midi": 80,
            "name": "G#5",
            "velocity": 1,
            "duration": 0.06304827083333109,
            "ticks": 8256,
            "durationTicks": 23
          },
          {
            "time": 22.631588,
            "midi": 85,
            "name": "C#6",
            "velocity": 1,
            "duration": 0.06304827083333109,
            "ticks": 8256,
            "durationTicks": 23
          },
          {
            "time": 22.763167,
            "midi": 80,
            "name": "G#5",
            "velocity": 1,
            "duration": 0.06304827083333464,
            "ticks": 8304,
            "durationTicks": 23
          },
          {
            "time": 22.763167,
            "midi": 85,
            "name": "C#6",
            "velocity": 1,
            "duration": 0.06304827083333464,
            "ticks": 8304,
            "durationTicks": 23
          },
          {
            "time": 22.763167,
            "midi": 68,
            "name": "G#4",
            "velocity": 1,
            "duration": 0.07127195833333388,
            "ticks": 8304,
            "durationTicks": 26
          },
          {
            "time": 22.894746,
            "midi": 80,
            "name": "G#5",
            "velocity": 1,
            "duration": 0.0657894999999975,
            "ticks": 8352,
            "durationTicks": 24
          },
          {
            "time": 22.894746,
            "midi": 85,
            "name": "C#6",
            "velocity": 1,
            "duration": 0.06304827083333109,
            "ticks": 8352,
            "durationTicks": 23
          },
          {
            "time": 22.894746,
            "midi": 68,
            "name": "G#4",
            "velocity": 1,
            "duration": 0.06853072916666747,
            "ticks": 8352,
            "durationTicks": 25
          },
          {
            "time": 23.026325,
            "midi": 80,
            "name": "G#5",
            "velocity": 1,
            "duration": 0.07949564583333313,
            "ticks": 8400,
            "durationTicks": 29
          },
          {
            "time": 23.026325,
            "midi": 85,
            "name": "C#6",
            "velocity": 1,
            "duration": 0.07127195833333388,
            "ticks": 8400,
            "durationTicks": 26
          },
          {
            "time": 23.026325,
            "midi": 68,
            "name": "G#4",
            "velocity": 1,
            "duration": 0.07127195833333388,
            "ticks": 8400,
            "durationTicks": 26
          },
          {
            "time": 29.210538,
            "midi": 68,
            "name": "G#4",
            "velocity": 1,
            "duration": 0.20285095833333244,
            "ticks": 10656,
            "durationTicks": 74
          },
          {
            "time": 29.210538,
            "midi": 56,
            "name": "G#3",
            "velocity": 1,
            "duration": 0.20285095833333244,
            "ticks": 10656,
            "durationTicks": 74
          },
          {
            "time": 29.473696,
            "midi": 68,
            "name": "G#4",
            "velocity": 1,
            "duration": 0.14254391666666777,
            "ticks": 10752,
            "durationTicks": 52
          },
          {
            "time": 29.473696,
            "midi": 80,
            "name": "G#5",
            "velocity": 1,
            "duration": 0.1370614583333314,
            "ticks": 10752,
            "durationTicks": 50
          },
          {
            "time": 30.000012,
            "midi": 80,
            "name": "G#5",
            "velocity": 1,
            "duration": 0.24396939583333221,
            "ticks": 10944,
            "durationTicks": 89
          },
          {
            "time": 30.000012,
            "midi": 68,
            "name": "G#4",
            "velocity": 1,
            "duration": 0.23574570833332942,
            "ticks": 10944,
            "durationTicks": 86
          },
          {
            "time": 30.26317,
            "midi": 63,
            "name": "D#4",
            "velocity": 1,
            "duration": 0.5098686250000029,
            "ticks": 11040,
            "durationTicks": 186
          },
          {
            "time": 30.26317,
            "midi": 75,
            "name": "D#5",
            "velocity": 1,
            "duration": 0.4961624791666708,
            "ticks": 11040,
            "durationTicks": 181
          },
          {
            "time": 30.789486,
            "midi": 65,
            "name": "F4",
            "velocity": 1,
            "duration": 0.2494518541666686,
            "ticks": 11232,
            "durationTicks": 91
          },
          {
            "time": 30.789486,
            "midi": 77,
            "name": "F5",
            "velocity": 1,
            "duration": 0.27686414583333274,
            "ticks": 11232,
            "durationTicks": 101
          },
          {
            "time": 31.052644,
            "midi": 75,
            "name": "D#5",
            "velocity": 1,
            "duration": 0.27686414583333274,
            "ticks": 11328,
            "durationTicks": 101
          },
          {
            "time": 31.052644,
            "midi": 63,
            "name": "D#4",
            "velocity": 1,
            "duration": 0.24396939583333221,
            "ticks": 11328,
            "durationTicks": 89
          },
          {
            "time": 31.315802,
            "midi": 73,
            "name": "C#5",
            "velocity": 1,
            "duration": 0.10416670833333086,
            "ticks": 11424,
            "durationTicks": 38
          },
          {
            "time": 31.315802,
            "midi": 61,
            "name": "C#4",
            "velocity": 1,
            "duration": 0.11513162500000007,
            "ticks": 11424,
            "durationTicks": 42
          },
          {
            "time": 35.789488,
            "midi": 80,
            "name": "G#5",
            "velocity": 0.7952755905511811,
            "duration": 2.1052639999999982,
            "ticks": 13056,
            "durationTicks": 768
          },
          {
            "time": 35.789488,
            "midi": 68,
            "name": "G#4",
            "velocity": 0.7952755905511811,
            "duration": 2.1052639999999982,
            "ticks": 13056,
            "durationTicks": 768
          },
          {
            "time": 38.15791,
            "midi": 65,
            "name": "F4",
            "velocity": 0.7874015748031497,
            "duration": 0.19462727083333675,
            "ticks": 13920,
            "durationTicks": 71
          },
          {
            "time": 38.15791,
            "midi": 77,
            "name": "F5",
            "velocity": 0.7874015748031497,
            "duration": 0.1672149791666655,
            "ticks": 13920,
            "durationTicks": 61
          },
          {
            "time": 38.684226,
            "midi": 75,
            "name": "D#5",
            "velocity": 0.7874015748031497,
            "duration": 0.16995620833333192,
            "ticks": 14112,
            "durationTicks": 62
          },
          {
            "time": 38.684226,
            "midi": 63,
            "name": "D#4",
            "velocity": 0.7874015748031497,
            "duration": 0.19736849999999606,
            "ticks": 14112,
            "durationTicks": 72
          },
          {
            "time": 39.210542000000004,
            "midi": 73,
            "name": "C#5",
            "velocity": 0.7795275590551181,
            "duration": 0.18914481249999682,
            "ticks": 14304,
            "durationTicks": 69
          },
          {
            "time": 39.210542000000004,
            "midi": 61,
            "name": "C#4",
            "velocity": 0.7795275590551181,
            "duration": 0.17269743749999833,
            "ticks": 14304,
            "durationTicks": 63
          },
          {
            "time": 39.736858,
            "midi": 70,
            "name": "A#4",
            "velocity": 0.7795275590551181,
            "duration": 1.847588458333341,
            "ticks": 14496,
            "durationTicks": 674
          },
          {
            "time": 39.736858,
            "midi": 58,
            "name": "A#3",
            "velocity": 0.7795275590551181,
            "duration": 1.847588458333341,
            "ticks": 14496,
            "durationTicks": 674
          },
          {
            "time": 47.105282,
            "midi": 68,
            "name": "G#4",
            "velocity": 1,
            "duration": 0.5263160000000013,
            "ticks": 17184,
            "durationTicks": 192
          },
          {
            "time": 47.105282,
            "midi": 56,
            "name": "G#3",
            "velocity": 1,
            "duration": 0.5263160000000013,
            "ticks": 17184,
            "durationTicks": 192
          },
          {
            "time": 47.631598000000004,
            "midi": 68,
            "name": "G#4",
            "velocity": 1,
            "duration": 0.0548245833333354,
            "ticks": 17376,
            "durationTicks": 20
          },
          {
            "time": 47.631598000000004,
            "midi": 80,
            "name": "G#5",
            "velocity": 1,
            "duration": 0.0548245833333354,
            "ticks": 17376,
            "durationTicks": 20
          },
          {
            "time": 47.763177,
            "midi": 68,
            "name": "G#4",
            "velocity": 1,
            "duration": 0.0548245833333354,
            "ticks": 17424,
            "durationTicks": 20
          },
          {
            "time": 47.763177,
            "midi": 80,
            "name": "G#5",
            "velocity": 1,
            "duration": 0.0548245833333354,
            "ticks": 17424,
            "durationTicks": 20
          },
          {
            "time": 47.894756,
            "midi": 80,
            "name": "G#5",
            "velocity": 1,
            "duration": 0.0548245833333354,
            "ticks": 17472,
            "durationTicks": 20
          },
          {
            "time": 47.894756,
            "midi": 68,
            "name": "G#4",
            "velocity": 1,
            "duration": 0.0548245833333354,
            "ticks": 17472,
            "durationTicks": 20
          },
          {
            "time": 48.026335,
            "midi": 82,
            "name": "A#5",
            "velocity": 1,
            "duration": 0.07675441666665961,
            "ticks": 17520,
            "durationTicks": 28
          },
          {
            "time": 48.026335,
            "midi": 70,
            "name": "A#4",
            "velocity": 1,
            "duration": 0.0548245833333354,
            "ticks": 17520,
            "durationTicks": 20
          },
          {
            "time": 48.157914,
            "midi": 85,
            "name": "C#6",
            "velocity": 1,
            "duration": 0.06578950000000106,
            "ticks": 17568,
            "durationTicks": 24
          },
          {
            "time": 48.157914,
            "midi": 73,
            "name": "C#5",
            "velocity": 1,
            "duration": 0.06578950000000106,
            "ticks": 17568,
            "durationTicks": 24
          },
          {
            "time": 48.289493,
            "midi": 82,
            "name": "A#5",
            "velocity": 1,
            "duration": 0.06578950000000106,
            "ticks": 17616,
            "durationTicks": 24
          },
          {
            "time": 48.289493,
            "midi": 70,
            "name": "A#4",
            "velocity": 1,
            "duration": 0.08771933333333948,
            "ticks": 17616,
            "durationTicks": 32
          },
          {
            "time": 55.789496,
            "midi": 68,
            "name": "G#4",
            "velocity": 1,
            "duration": 0.05756581250000181,
            "ticks": 20352,
            "durationTicks": 21
          },
          {
            "time": 55.789496,
            "midi": 80,
            "name": "G#5",
            "velocity": 1,
            "duration": 0.08497810416666596,
            "ticks": 20352,
            "durationTicks": 31
          },
          {
            "time": 55.921075,
            "midi": 80,
            "name": "G#5",
            "velocity": 1,
            "duration": 0.07127195833333388,
            "ticks": 20400,
            "durationTicks": 26
          },
          {
            "time": 55.921075,
            "midi": 68,
            "name": "G#4",
            "velocity": 1,
            "duration": 0.08223687499999954,
            "ticks": 20400,
            "durationTicks": 30
          },
          {
            "time": 56.184233,
            "midi": 80,
            "name": "G#5",
            "velocity": 1,
            "duration": 0.03837720833333691,
            "ticks": 20496,
            "durationTicks": 14
          },
          {
            "time": 56.184233,
            "midi": 68,
            "name": "G#4",
            "velocity": 1,
            "duration": 0.06304827083333464,
            "ticks": 20496,
            "durationTicks": 23
          },
          {
            "time": 56.315812,
            "midi": 68,
            "name": "G#4",
            "velocity": 1,
            "duration": 0.06578950000000106,
            "ticks": 20544,
            "durationTicks": 24
          },
          {
            "time": 56.315812,
            "midi": 80,
            "name": "G#5",
            "velocity": 1,
            "duration": 0.06304827083333464,
            "ticks": 20544,
            "durationTicks": 23
          },
          {
            "time": 56.447391,
            "midi": 70,
            "name": "A#4",
            "velocity": 1,
            "duration": 0.07127195833333388,
            "ticks": 20592,
            "durationTicks": 26
          },
          {
            "time": 56.447391,
            "midi": 82,
            "name": "A#5",
            "velocity": 1,
            "duration": 0.06304827083333464,
            "ticks": 20592,
            "durationTicks": 23
          },
          {
            "time": 56.57897,
            "midi": 73,
            "name": "C#5",
            "velocity": 1,
            "duration": 0.06853072916666747,
            "ticks": 20640,
            "durationTicks": 25
          },
          {
            "time": 56.57897,
            "midi": 85,
            "name": "C#6",
            "velocity": 1,
            "duration": 0.06304827083334175,
            "ticks": 20640,
            "durationTicks": 23
          },
          {
            "time": 56.710549,
            "midi": 73,
            "name": "C#5",
            "velocity": 1,
            "duration": 0.07127195833333388,
            "ticks": 20688,
            "durationTicks": 26
          },
          {
            "time": 56.710549,
            "midi": 85,
            "name": "C#6",
            "velocity": 1,
            "duration": 0.07127195833333388,
            "ticks": 20688,
            "durationTicks": 26
          },
          {
            "time": 64.210552,
            "midi": 85,
            "name": "C#6",
            "velocity": 1,
            "duration": 0.04934212499999546,
            "ticks": 23424,
            "durationTicks": 18
          },
          {
            "time": 64.210552,
            "midi": 68,
            "name": "G#4",
            "velocity": 1,
            "duration": 0.0575658124999876,
            "ticks": 23424,
            "durationTicks": 21
          },
          {
            "time": 64.210552,
            "midi": 80,
            "name": "G#5",
            "velocity": 1,
            "duration": 0.08497810416665175,
            "ticks": 23424,
            "durationTicks": 31
          },
          {
            "time": 64.342131,
            "midi": 80,
            "name": "G#5",
            "velocity": 1,
            "duration": 0.07127195833334099,
            "ticks": 23472,
            "durationTicks": 26
          },
          {
            "time": 64.342131,
            "midi": 68,
            "name": "G#4",
            "velocity": 1,
            "duration": 0.08223687500000665,
            "ticks": 23472,
            "durationTicks": 30
          },
          {
            "time": 64.342131,
            "midi": 85,
            "name": "C#6",
            "velocity": 1,
            "duration": 0.06304827083333464,
            "ticks": 23472,
            "durationTicks": 23
          },
          {
            "time": 64.605289,
            "midi": 80,
            "name": "G#5",
            "velocity": 1,
            "duration": 0.038377208333344015,
            "ticks": 23568,
            "durationTicks": 14
          },
          {
            "time": 64.605289,
            "midi": 85,
            "name": "C#6",
            "velocity": 1,
            "duration": 0.0548245833333425,
            "ticks": 23568,
            "durationTicks": 20
          },
          {
            "time": 64.605289,
            "midi": 68,
            "name": "G#4",
            "velocity": 1,
            "duration": 0.06304827083333464,
            "ticks": 23568,
            "durationTicks": 23
          },
          {
            "time": 64.736868,
            "midi": 68,
            "name": "G#4",
            "velocity": 1,
            "duration": 0.06578949999999395,
            "ticks": 23616,
            "durationTicks": 24
          },
          {
            "time": 64.736868,
            "midi": 80,
            "name": "G#5",
            "velocity": 1,
            "duration": 0.06304827083333464,
            "ticks": 23616,
            "durationTicks": 23
          },
          {
            "time": 64.736868,
            "midi": 85,
            "name": "C#6",
            "velocity": 1,
            "duration": 0.06304827083333464,
            "ticks": 23616,
            "durationTicks": 23
          },
          {
            "time": 64.868447,
            "midi": 80,
            "name": "G#5",
            "velocity": 1,
            "duration": 0.06304827083333464,
            "ticks": 23664,
            "durationTicks": 23
          },
          {
            "time": 64.868447,
            "midi": 85,
            "name": "C#6",
            "velocity": 1,
            "duration": 0.06304827083333464,
            "ticks": 23664,
            "durationTicks": 23
          },
          {
            "time": 64.868447,
            "midi": 68,
            "name": "G#4",
            "velocity": 1,
            "duration": 0.07127195833332678,
            "ticks": 23664,
            "durationTicks": 26
          },
          {
            "time": 65.000026,
            "midi": 80,
            "name": "G#5",
            "velocity": 1,
            "duration": 0.06578949999999395,
            "ticks": 23712,
            "durationTicks": 24
          },
          {
            "time": 65.000026,
            "midi": 85,
            "name": "C#6",
            "velocity": 1,
            "duration": 0.06304827083333464,
            "ticks": 23712,
            "durationTicks": 23
          },
          {
            "time": 65.000026,
            "midi": 68,
            "name": "G#4",
            "velocity": 1,
            "duration": 0.06853072916665326,
            "ticks": 23712,
            "durationTicks": 25
          },
          {
            "time": 65.13160500000001,
            "midi": 80,
            "name": "G#5",
            "velocity": 1,
            "duration": 0.07949564583333313,
            "ticks": 23760,
            "durationTicks": 29
          },
          {
            "time": 65.13160500000001,
            "midi": 85,
            "name": "C#6",
            "velocity": 1,
            "duration": 0.07127195833332678,
            "ticks": 23760,
            "durationTicks": 26
          },
          {
            "time": 65.13160500000001,
            "midi": 68,
            "name": "G#4",
            "velocity": 1,
            "duration": 0.07127195833332678,
            "ticks": 23760,
            "durationTicks": 26
          },
          {
            "time": 71.31581800000001,
            "midi": 68,
            "name": "G#4",
            "velocity": 1,
            "duration": 0.2028509583333289,
            "ticks": 26016,
            "durationTicks": 74
          },
          {
            "time": 71.31581800000001,
            "midi": 56,
            "name": "G#3",
            "velocity": 1,
            "duration": 0.2028509583333289,
            "ticks": 26016,
            "durationTicks": 74
          },
          {
            "time": 71.578976,
            "midi": 68,
            "name": "G#4",
            "velocity": 1,
            "duration": 0.14254391666668198,
            "ticks": 26112,
            "durationTicks": 52
          },
          {
            "time": 71.578976,
            "midi": 80,
            "name": "G#5",
            "velocity": 1,
            "duration": 0.13706145833333494,
            "ticks": 26112,
            "durationTicks": 50
          },
          {
            "time": 72.105292,
            "midi": 80,
            "name": "G#5",
            "velocity": 1,
            "duration": 0.243969395833318,
            "ticks": 26304,
            "durationTicks": 89
          },
          {
            "time": 72.105292,
            "midi": 68,
            "name": "G#4",
            "velocity": 1,
            "duration": 0.23574570833332587,
            "ticks": 26304,
            "durationTicks": 86
          },
          {
            "time": 72.36845,
            "midi": 63,
            "name": "D#4",
            "velocity": 1,
            "duration": 0.50986862500001,
            "ticks": 26400,
            "durationTicks": 186
          },
          {
            "time": 72.36845,
            "midi": 75,
            "name": "D#5",
            "velocity": 1,
            "duration": 0.4961624791666708,
            "ticks": 26400,
            "durationTicks": 181
          },
          {
            "time": 72.894766,
            "midi": 65,
            "name": "F4",
            "velocity": 1,
            "duration": 0.24945185416666504,
            "ticks": 26592,
            "durationTicks": 91
          },
          {
            "time": 72.894766,
            "midi": 77,
            "name": "F5",
            "velocity": 1,
            "duration": 0.2768641458333292,
            "ticks": 26592,
            "durationTicks": 101
          },
          {
            "time": 73.157924,
            "midi": 75,
            "name": "D#5",
            "velocity": 1,
            "duration": 0.2768641458333292,
            "ticks": 26688,
            "durationTicks": 101
          },
          {
            "time": 73.157924,
            "midi": 63,
            "name": "D#4",
            "velocity": 1,
            "duration": 0.24396939583333221,
            "ticks": 26688,
            "durationTicks": 89
          },
          {
            "time": 73.421082,
            "midi": 73,
            "name": "C#5",
            "velocity": 1,
            "duration": 0.10416670833332375,
            "ticks": 26784,
            "durationTicks": 38
          },
          {
            "time": 73.421082,
            "midi": 61,
            "name": "C#4",
            "velocity": 1,
            "duration": 0.11513162500000362,
            "ticks": 26784,
            "durationTicks": 42
          },
          {
            "time": 80.26319,
            "midi": 63,
            "name": "D#4",
            "velocity": 0.8582677165354331,
            "duration": 0.21655710416668228,
            "ticks": 29280,
            "durationTicks": 79
          },
          {
            "time": 80.26319,
            "midi": 75,
            "name": "D#5",
            "velocity": 0.937007874015748,
            "duration": 0.2055921875000024,
            "ticks": 29280,
            "durationTicks": 75
          },
          {
            "time": 80.526348,
            "midi": 65,
            "name": "F4",
            "velocity": 0.7637795275590551,
            "duration": 0.12609654166666928,
            "ticks": 29376,
            "durationTicks": 46
          },
          {
            "time": 80.526348,
            "midi": 77,
            "name": "F5",
            "velocity": 0.7952755905511811,
            "duration": 0.10690793749999727,
            "ticks": 29376,
            "durationTicks": 39
          },
          {
            "time": 80.789506,
            "midi": 65,
            "name": "F4",
            "velocity": 0.889763779527559,
            "duration": 0.4440791250000018,
            "ticks": 29472,
            "durationTicks": 162
          },
          {
            "time": 80.789506,
            "midi": 77,
            "name": "F5",
            "velocity": 0.8740157480314961,
            "duration": 0.45230281249999393,
            "ticks": 29472,
            "durationTicks": 165
          },
          {
            "time": 81.315822,
            "midi": 63,
            "name": "D#4",
            "velocity": 0.8267716535433071,
            "duration": 0.6496713125000042,
            "ticks": 29664,
            "durationTicks": 237
          },
          {
            "time": 81.315822,
            "midi": 75,
            "name": "D#5",
            "velocity": 0.889763779527559,
            "duration": 0.6277414791666729,
            "ticks": 29664,
            "durationTicks": 229
          },
          {
            "time": 89.210562,
            "midi": 68,
            "name": "G#4",
            "velocity": 1,
            "duration": 0.6661186875000027,
            "ticks": 32544,
            "durationTicks": 243
          },
          {
            "time": 89.210562,
            "midi": 56,
            "name": "G#3",
            "velocity": 1,
            "duration": 0.674342375000009,
            "ticks": 32544,
            "durationTicks": 246
          },
          {
            "time": 90.000036,
            "midi": 56,
            "name": "G#3",
            "velocity": 1,
            "duration": 0.05482458333332829,
            "ticks": 32832,
            "durationTicks": 20
          },
          {
            "time": 90.000036,
            "midi": 68,
            "name": "G#4",
            "velocity": 1,
            "duration": 0.05482458333332829,
            "ticks": 32832,
            "durationTicks": 20
          },
          {
            "time": 90.131615,
            "midi": 58,
            "name": "A#3",
            "velocity": 1,
            "duration": 0.05482458333332829,
            "ticks": 32880,
            "durationTicks": 20
          },
          {
            "time": 90.131615,
            "midi": 70,
            "name": "A#4",
            "velocity": 1,
            "duration": 0.07675441666667382,
            "ticks": 32880,
            "durationTicks": 28
          },
          {
            "time": 90.263194,
            "midi": 61,
            "name": "C#4",
            "velocity": 1,
            "duration": 0.06578950000000816,
            "ticks": 32928,
            "durationTicks": 24
          },
          {
            "time": 90.263194,
            "midi": 73,
            "name": "C#5",
            "velocity": 1,
            "duration": 0.06578950000000816,
            "ticks": 32928,
            "durationTicks": 24
          },
          {
            "time": 90.394773,
            "midi": 58,
            "name": "A#3",
            "velocity": 1,
            "duration": 0.08771933333332527,
            "ticks": 32976,
            "durationTicks": 32
          },
          {
            "time": 90.394773,
            "midi": 70,
            "name": "A#4",
            "velocity": 1,
            "duration": 0.06578949999999395,
            "ticks": 32976,
            "durationTicks": 24
          },
          {
            "time": 97.89477600000001,
            "midi": 68,
            "name": "G#4",
            "velocity": 1,
            "duration": 0.0575658124999876,
            "ticks": 35712,
            "durationTicks": 21
          },
          {
            "time": 97.89477600000001,
            "midi": 80,
            "name": "G#5",
            "velocity": 1,
            "duration": 0.08497810416666596,
            "ticks": 35712,
            "durationTicks": 31
          },
          {
            "time": 98.026355,
            "midi": 80,
            "name": "G#5",
            "velocity": 1,
            "duration": 0.07127195833334099,
            "ticks": 35760,
            "durationTicks": 26
          },
          {
            "time": 98.026355,
            "midi": 68,
            "name": "G#4",
            "velocity": 1,
            "duration": 0.08223687500000665,
            "ticks": 35760,
            "durationTicks": 30
          },
          {
            "time": 98.289513,
            "midi": 80,
            "name": "G#5",
            "velocity": 1,
            "duration": 0.038377208333329804,
            "ticks": 35856,
            "durationTicks": 14
          },
          {
            "time": 98.289513,
            "midi": 68,
            "name": "G#4",
            "velocity": 1,
            "duration": 0.06304827083333464,
            "ticks": 35856,
            "durationTicks": 23
          },
          {
            "time": 98.421092,
            "midi": 68,
            "name": "G#4",
            "velocity": 1,
            "duration": 0.06578949999999395,
            "ticks": 35904,
            "durationTicks": 24
          },
          {
            "time": 98.421092,
            "midi": 80,
            "name": "G#5",
            "velocity": 1,
            "duration": 0.06304827083333464,
            "ticks": 35904,
            "durationTicks": 23
          },
          {
            "time": 98.552671,
            "midi": 70,
            "name": "A#4",
            "velocity": 1,
            "duration": 0.07127195833332678,
            "ticks": 35952,
            "durationTicks": 26
          },
          {
            "time": 98.552671,
            "midi": 82,
            "name": "A#5",
            "velocity": 1,
            "duration": 0.06304827083332043,
            "ticks": 35952,
            "durationTicks": 23
          },
          {
            "time": 98.68425,
            "midi": 73,
            "name": "C#5",
            "velocity": 1,
            "duration": 0.06853072916666747,
            "ticks": 36000,
            "durationTicks": 25
          },
          {
            "time": 98.68425,
            "midi": 85,
            "name": "C#6",
            "velocity": 1,
            "duration": 0.06304827083332043,
            "ticks": 36000,
            "durationTicks": 23
          },
          {
            "time": 98.81582900000001,
            "midi": 73,
            "name": "C#5",
            "velocity": 1,
            "duration": 0.07127195833332678,
            "ticks": 36048,
            "durationTicks": 26
          },
          {
            "time": 98.81582900000001,
            "midi": 85,
            "name": "C#6",
            "velocity": 1,
            "duration": 0.07127195833332678,
            "ticks": 36048,
            "durationTicks": 26
          },
          {
            "time": 106.315832,
            "midi": 85,
            "name": "C#6",
            "velocity": 1,
            "duration": 0.04934212499999546,
            "ticks": 38784,
            "durationTicks": 18
          },
          {
            "time": 106.315832,
            "midi": 68,
            "name": "G#4",
            "velocity": 1,
            "duration": 0.05756581250000181,
            "ticks": 38784,
            "durationTicks": 21
          },
          {
            "time": 106.315832,
            "midi": 80,
            "name": "G#5",
            "velocity": 1,
            "duration": 0.08497810416666596,
            "ticks": 38784,
            "durationTicks": 31
          },
          {
            "time": 106.447411,
            "midi": 80,
            "name": "G#5",
            "velocity": 1,
            "duration": 0.07127195833332678,
            "ticks": 38832,
            "durationTicks": 26
          },
          {
            "time": 106.447411,
            "midi": 68,
            "name": "G#4",
            "velocity": 1,
            "duration": 0.08223687499999244,
            "ticks": 38832,
            "durationTicks": 30
          },
          {
            "time": 106.447411,
            "midi": 85,
            "name": "C#6",
            "velocity": 1,
            "duration": 0.06304827083332043,
            "ticks": 38832,
            "durationTicks": 23
          },
          {
            "time": 106.710569,
            "midi": 80,
            "name": "G#5",
            "velocity": 1,
            "duration": 0.038377208333329804,
            "ticks": 38928,
            "durationTicks": 14
          },
          {
            "time": 106.710569,
            "midi": 85,
            "name": "C#6",
            "velocity": 1,
            "duration": 0.05482458333332829,
            "ticks": 38928,
            "durationTicks": 20
          },
          {
            "time": 106.710569,
            "midi": 68,
            "name": "G#4",
            "velocity": 1,
            "duration": 0.06304827083332043,
            "ticks": 38928,
            "durationTicks": 23
          },
          {
            "time": 106.842148,
            "midi": 68,
            "name": "G#4",
            "velocity": 1,
            "duration": 0.06578950000000816,
            "ticks": 38976,
            "durationTicks": 24
          },
          {
            "time": 106.842148,
            "midi": 80,
            "name": "G#5",
            "velocity": 1,
            "duration": 0.06304827083333464,
            "ticks": 38976,
            "durationTicks": 23
          },
          {
            "time": 106.842148,
            "midi": 85,
            "name": "C#6",
            "velocity": 1,
            "duration": 0.06304827083333464,
            "ticks": 38976,
            "durationTicks": 23
          },
          {
            "time": 106.973727,
            "midi": 80,
            "name": "G#5",
            "velocity": 1,
            "duration": 0.06304827083333464,
            "ticks": 39024,
            "durationTicks": 23
          },
          {
            "time": 106.973727,
            "midi": 85,
            "name": "C#6",
            "velocity": 1,
            "duration": 0.06304827083333464,
            "ticks": 39024,
            "durationTicks": 23
          },
          {
            "time": 106.973727,
            "midi": 68,
            "name": "G#4",
            "velocity": 1,
            "duration": 0.07127195833332678,
            "ticks": 39024,
            "durationTicks": 26
          },
          {
            "time": 107.105306,
            "midi": 80,
            "name": "G#5",
            "velocity": 1,
            "duration": 0.06578950000000816,
            "ticks": 39072,
            "durationTicks": 24
          },
          {
            "time": 107.105306,
            "midi": 85,
            "name": "C#6",
            "velocity": 1,
            "duration": 0.06304827083333464,
            "ticks": 39072,
            "durationTicks": 23
          },
          {
            "time": 107.105306,
            "midi": 68,
            "name": "G#4",
            "velocity": 1,
            "duration": 0.06853072916666747,
            "ticks": 39072,
            "durationTicks": 25
          },
          {
            "time": 107.236885,
            "midi": 80,
            "name": "G#5",
            "velocity": 1,
            "duration": 0.07949564583333313,
            "ticks": 39120,
            "durationTicks": 29
          },
          {
            "time": 107.236885,
            "midi": 85,
            "name": "C#6",
            "velocity": 1,
            "duration": 0.07127195833332678,
            "ticks": 39120,
            "durationTicks": 26
          },
          {
            "time": 107.236885,
            "midi": 68,
            "name": "G#4",
            "velocity": 1,
            "duration": 0.07127195833332678,
            "ticks": 39120,
            "durationTicks": 26
          },
          {
            "time": 114.73688800000001,
            "midi": 68,
            "name": "G#4",
            "velocity": 1,
            "duration": 0.0575658124999876,
            "ticks": 41856,
            "durationTicks": 21
          },
          {
            "time": 114.73688800000001,
            "midi": 80,
            "name": "G#5",
            "velocity": 1,
            "duration": 0.08497810416666596,
            "ticks": 41856,
            "durationTicks": 31
          },
          {
            "time": 114.868467,
            "midi": 80,
            "name": "G#5",
            "velocity": 1,
            "duration": 0.07127195833334099,
            "ticks": 41904,
            "durationTicks": 26
          },
          {
            "time": 114.868467,
            "midi": 68,
            "name": "G#4",
            "velocity": 1,
            "duration": 0.08223687500000665,
            "ticks": 41904,
            "durationTicks": 30
          },
          {
            "time": 115.131625,
            "midi": 80,
            "name": "G#5",
            "velocity": 1,
            "duration": 0.038377208333329804,
            "ticks": 42000,
            "durationTicks": 14
          },
          {
            "time": 115.131625,
            "midi": 68,
            "name": "G#4",
            "velocity": 1,
            "duration": 0.06304827083333464,
            "ticks": 42000,
            "durationTicks": 23
          },
          {
            "time": 115.263204,
            "midi": 68,
            "name": "G#4",
            "velocity": 1,
            "duration": 0.06578949999999395,
            "ticks": 42048,
            "durationTicks": 24
          },
          {
            "time": 115.263204,
            "midi": 80,
            "name": "G#5",
            "velocity": 1,
            "duration": 0.06304827083333464,
            "ticks": 42048,
            "durationTicks": 23
          },
          {
            "time": 115.394783,
            "midi": 70,
            "name": "A#4",
            "velocity": 1,
            "duration": 0.07127195833332678,
            "ticks": 42096,
            "durationTicks": 26
          },
          {
            "time": 115.394783,
            "midi": 82,
            "name": "A#5",
            "velocity": 1,
            "duration": 0.06304827083332043,
            "ticks": 42096,
            "durationTicks": 23
          },
          {
            "time": 115.526362,
            "midi": 73,
            "name": "C#5",
            "velocity": 1,
            "duration": 0.06853072916666747,
            "ticks": 42144,
            "durationTicks": 25
          },
          {
            "time": 115.526362,
            "midi": 85,
            "name": "C#6",
            "velocity": 1,
            "duration": 0.06304827083332043,
            "ticks": 42144,
            "durationTicks": 23
          },
          {
            "time": 115.65794100000001,
            "midi": 73,
            "name": "C#5",
            "velocity": 1,
            "duration": 0.07127195833332678,
            "ticks": 42192,
            "durationTicks": 26
          },
          {
            "time": 115.65794100000001,
            "midi": 85,
            "name": "C#6",
            "velocity": 1,
            "duration": 0.07127195833332678,
            "ticks": 42192,
            "durationTicks": 26
          },
          {
            "time": 123.157944,
            "midi": 85,
            "name": "C#6",
            "velocity": 1,
            "duration": 0.04934212499999546,
            "ticks": 44928,
            "durationTicks": 18
          },
          {
            "time": 123.157944,
            "midi": 68,
            "name": "G#4",
            "velocity": 1,
            "duration": 0.05756581250000181,
            "ticks": 44928,
            "durationTicks": 21
          },
          {
            "time": 123.157944,
            "midi": 80,
            "name": "G#5",
            "velocity": 1,
            "duration": 0.08497810416666596,
            "ticks": 44928,
            "durationTicks": 31
          },
          {
            "time": 123.289523,
            "midi": 80,
            "name": "G#5",
            "velocity": 1,
            "duration": 0.07127195833332678,
            "ticks": 44976,
            "durationTicks": 26
          },
          {
            "time": 123.289523,
            "midi": 68,
            "name": "G#4",
            "velocity": 1,
            "duration": 0.08223687499999244,
            "ticks": 44976,
            "durationTicks": 30
          },
          {
            "time": 123.289523,
            "midi": 85,
            "name": "C#6",
            "velocity": 1,
            "duration": 0.06304827083332043,
            "ticks": 44976,
            "durationTicks": 23
          },
          {
            "time": 123.552681,
            "midi": 80,
            "name": "G#5",
            "velocity": 1,
            "duration": 0.038377208333329804,
            "ticks": 45072,
            "durationTicks": 14
          },
          {
            "time": 123.552681,
            "midi": 85,
            "name": "C#6",
            "velocity": 1,
            "duration": 0.05482458333332829,
            "ticks": 45072,
            "durationTicks": 20
          },
          {
            "time": 123.552681,
            "midi": 68,
            "name": "G#4",
            "velocity": 1,
            "duration": 0.06304827083332043,
            "ticks": 45072,
            "durationTicks": 23
          },
          {
            "time": 123.68426,
            "midi": 68,
            "name": "G#4",
            "velocity": 1,
            "duration": 0.06578950000000816,
            "ticks": 45120,
            "durationTicks": 24
          },
          {
            "time": 123.68426,
            "midi": 80,
            "name": "G#5",
            "velocity": 1,
            "duration": 0.06304827083333464,
            "ticks": 45120,
            "durationTicks": 23
          },
          {
            "time": 123.68426,
            "midi": 85,
            "name": "C#6",
            "velocity": 1,
            "duration": 0.06304827083333464,
            "ticks": 45120,
            "durationTicks": 23
          },
          {
            "time": 123.815839,
            "midi": 80,
            "name": "G#5",
            "velocity": 1,
            "duration": 0.06304827083333464,
            "ticks": 45168,
            "durationTicks": 23
          },
          {
            "time": 123.815839,
            "midi": 85,
            "name": "C#6",
            "velocity": 1,
            "duration": 0.06304827083333464,
            "ticks": 45168,
            "durationTicks": 23
          },
          {
            "time": 123.815839,
            "midi": 68,
            "name": "G#4",
            "velocity": 1,
            "duration": 0.07127195833332678,
            "ticks": 45168,
            "durationTicks": 26
          },
          {
            "time": 123.947418,
            "midi": 80,
            "name": "G#5",
            "velocity": 1,
            "duration": 0.06578950000000816,
            "ticks": 45216,
            "durationTicks": 24
          },
          {
            "time": 123.947418,
            "midi": 85,
            "name": "C#6",
            "velocity": 1,
            "duration": 0.06304827083333464,
            "ticks": 45216,
            "durationTicks": 23
          },
          {
            "time": 123.947418,
            "midi": 68,
            "name": "G#4",
            "velocity": 1,
            "duration": 0.06853072916666747,
            "ticks": 45216,
            "durationTicks": 25
          },
          {
            "time": 124.078997,
            "midi": 80,
            "name": "G#5",
            "velocity": 1,
            "duration": 0.07949564583333313,
            "ticks": 45264,
            "durationTicks": 29
          },
          {
            "time": 124.078997,
            "midi": 85,
            "name": "C#6",
            "velocity": 1,
            "duration": 0.07127195833332678,
            "ticks": 45264,
            "durationTicks": 26
          },
          {
            "time": 124.078997,
            "midi": 68,
            "name": "G#4",
            "velocity": 1,
            "duration": 0.07127195833332678,
            "ticks": 45264,
            "durationTicks": 26
          },
          {
            "time": 141.315846,
            "midi": 68,
            "name": "G#4",
            "velocity": 1,
            "duration": 0.09046056249999879,
            "ticks": 51552,
            "durationTicks": 33
          },
          {
            "time": 141.447425,
            "midi": 70,
            "name": "A#4",
            "velocity": 1,
            "duration": 0.06578949999999395,
            "ticks": 51600,
            "durationTicks": 24
          },
          {
            "time": 141.579004,
            "midi": 73,
            "name": "C#5",
            "velocity": 1,
            "duration": 0.06030704166664691,
            "ticks": 51648,
            "durationTicks": 22
          },
          {
            "time": 141.710583,
            "midi": 70,
            "name": "A#4",
            "velocity": 1,
            "duration": 0.05482458333332829,
            "ticks": 51696,
            "durationTicks": 20
          },
          {
            "time": 141.842162,
            "midi": 77,
            "name": "F5",
            "velocity": 1,
            "duration": 0.16173252083333978,
            "ticks": 51744,
            "durationTicks": 59
          },
          {
            "time": 142.10532,
            "midi": 68,
            "name": "G#4",
            "velocity": 1,
            "duration": 0.09594302083334583,
            "ticks": 51840,
            "durationTicks": 35
          },
          {
            "time": 142.236899,
            "midi": 70,
            "name": "A#4",
            "velocity": 1,
            "duration": 0.07675441666665961,
            "ticks": 51888,
            "durationTicks": 28
          },
          {
            "time": 142.368478,
            "midi": 73,
            "name": "C#5",
            "velocity": 1,
            "duration": 0.08497810416665175,
            "ticks": 51936,
            "durationTicks": 31
          },
          {
            "time": 142.500057,
            "midi": 70,
            "name": "A#4",
            "velocity": 1,
            "duration": 0.04934212500000967,
            "ticks": 51984,
            "durationTicks": 18
          },
          {
            "time": 142.63163600000001,
            "midi": 77,
            "name": "F5",
            "velocity": 1,
            "duration": 0.21655710416663965,
            "ticks": 52032,
            "durationTicks": 79
          },
          {
            "time": 142.894794,
            "midi": 70,
            "name": "A#4",
            "velocity": 1,
            "duration": 0.041118437500017535,
            "ticks": 52128,
            "durationTicks": 15
          },
          {
            "time": 145.526374,
            "midi": 68,
            "name": "G#4",
            "velocity": 1,
            "duration": 0.09046056249999879,
            "ticks": 53088,
            "durationTicks": 33
          },
          {
            "time": 145.657953,
            "midi": 70,
            "name": "A#4",
            "velocity": 1,
            "duration": 0.06578950000002237,
            "ticks": 53136,
            "durationTicks": 24
          },
          {
            "time": 145.789532,
            "midi": 73,
            "name": "C#5",
            "velocity": 1,
            "duration": 0.06030704166664691,
            "ticks": 53184,
            "durationTicks": 22
          },
          {
            "time": 145.921111,
            "midi": 70,
            "name": "A#4",
            "velocity": 1,
            "duration": 0.05482458333335671,
            "ticks": 53232,
            "durationTicks": 20
          },
          {
            "time": 146.05269,
            "midi": 77,
            "name": "F5",
            "velocity": 1,
            "duration": 0.16173252083333978,
            "ticks": 53280,
            "durationTicks": 59
          },
          {
            "time": 146.315848,
            "midi": 68,
            "name": "G#4",
            "velocity": 1,
            "duration": 0.09594302083334583,
            "ticks": 53376,
            "durationTicks": 35
          },
          {
            "time": 146.447427,
            "midi": 70,
            "name": "A#4",
            "velocity": 1,
            "duration": 0.07675441666665961,
            "ticks": 53424,
            "durationTicks": 28
          },
          {
            "time": 146.579006,
            "midi": 73,
            "name": "C#5",
            "velocity": 1,
            "duration": 0.08497810416665175,
            "ticks": 53472,
            "durationTicks": 31
          },
          {
            "time": 146.710585,
            "midi": 70,
            "name": "A#4",
            "velocity": 1,
            "duration": 0.04934212499998125,
            "ticks": 53520,
            "durationTicks": 18
          },
          {
            "time": 146.842164,
            "midi": 77,
            "name": "F5",
            "velocity": 1,
            "duration": 0.21655710416666807,
            "ticks": 53568,
            "durationTicks": 79
          },
          {
            "time": 147.105322,
            "midi": 70,
            "name": "A#4",
            "velocity": 1,
            "duration": 0.04111843749998911,
            "ticks": 53664,
            "durationTicks": 15
          },
          {
            "time": 149.73690200000001,
            "midi": 68,
            "name": "G#4",
            "velocity": 1,
            "duration": 0.09046056249999879,
            "ticks": 54624,
            "durationTicks": 33
          },
          {
            "time": 149.868481,
            "midi": 70,
            "name": "A#4",
            "velocity": 1,
            "duration": 0.06578949999999395,
            "ticks": 54672,
            "durationTicks": 24
          },
          {
            "time": 150.00006,
            "midi": 73,
            "name": "C#5",
            "velocity": 1,
            "duration": 0.06030704166667533,
            "ticks": 54720,
            "durationTicks": 22
          },
          {
            "time": 150.131639,
            "midi": 70,
            "name": "A#4",
            "velocity": 1,
            "duration": 0.05482458333332829,
            "ticks": 54768,
            "durationTicks": 20
          },
          {
            "time": 150.263218,
            "midi": 77,
            "name": "F5",
            "velocity": 1,
            "duration": 0.16173252083333978,
            "ticks": 54816,
            "durationTicks": 59
          },
          {
            "time": 150.526376,
            "midi": 68,
            "name": "G#4",
            "velocity": 1,
            "duration": 0.09594302083334583,
            "ticks": 54912,
            "durationTicks": 35
          },
          {
            "time": 150.65795500000002,
            "midi": 70,
            "name": "A#4",
            "velocity": 1,
            "duration": 0.07675441666663119,
            "ticks": 54960,
            "durationTicks": 28
          },
          {
            "time": 150.789534,
            "midi": 73,
            "name": "C#5",
            "velocity": 1,
            "duration": 0.08497810416665175,
            "ticks": 55008,
            "durationTicks": 31
          },
          {
            "time": 150.921113,
            "midi": 70,
            "name": "A#4",
            "velocity": 1,
            "duration": 0.04934212500000967,
            "ticks": 55056,
            "durationTicks": 18
          },
          {
            "time": 151.052692,
            "midi": 77,
            "name": "F5",
            "velocity": 1,
            "duration": 0.21655710416663965,
            "ticks": 55104,
            "durationTicks": 79
          },
          {
            "time": 151.31585,
            "midi": 70,
            "name": "A#4",
            "velocity": 1,
            "duration": 0.04111843749998911,
            "ticks": 55200,
            "durationTicks": 15
          },
          {
            "time": 153.94743,
            "midi": 68,
            "name": "G#4",
            "velocity": 1,
            "duration": 0.09046056249999879,
            "ticks": 56160,
            "durationTicks": 33
          },
          {
            "time": 154.079009,
            "midi": 70,
            "name": "A#4",
            "velocity": 1,
            "duration": 0.06578949999999395,
            "ticks": 56208,
            "durationTicks": 24
          },
          {
            "time": 154.210588,
            "midi": 73,
            "name": "C#5",
            "velocity": 1,
            "duration": 0.06030704166664691,
            "ticks": 56256,
            "durationTicks": 22
          },
          {
            "time": 154.342167,
            "midi": 70,
            "name": "A#4",
            "velocity": 1,
            "duration": 0.05482458333335671,
            "ticks": 56304,
            "durationTicks": 20
          },
          {
            "time": 154.473746,
            "midi": 77,
            "name": "F5",
            "velocity": 1,
            "duration": 0.16173252083333978,
            "ticks": 56352,
            "durationTicks": 59
          },
          {
            "time": 154.736904,
            "midi": 68,
            "name": "G#4",
            "velocity": 1,
            "duration": 0.09594302083334583,
            "ticks": 56448,
            "durationTicks": 35
          },
          {
            "time": 154.868483,
            "midi": 70,
            "name": "A#4",
            "velocity": 1,
            "duration": 0.07675441666665961,
            "ticks": 56496,
            "durationTicks": 28
          },
          {
            "time": 155.000062,
            "midi": 73,
            "name": "C#5",
            "velocity": 1,
            "duration": 0.08497810416665175,
            "ticks": 56544,
            "durationTicks": 31
          },
          {
            "time": 155.131641,
            "midi": 70,
            "name": "A#4",
            "velocity": 1,
            "duration": 0.04934212500000967,
            "ticks": 56592,
            "durationTicks": 18
          },
          {
            "time": 155.26322,
            "midi": 77,
            "name": "F5",
            "velocity": 1,
            "duration": 0.21655710416666807,
            "ticks": 56640,
            "durationTicks": 79
          },
          {
            "time": 155.526378,
            "midi": 70,
            "name": "A#4",
            "velocity": 1,
            "duration": 0.041118437500017535,
            "ticks": 56736,
            "durationTicks": 15
          },
          {
            "time": 163.94743400000002,
            "midi": 68,
            "name": "G#4",
            "velocity": 1,
            "duration": 0.2028509583333289,
            "ticks": 59808,
            "durationTicks": 74
          },
          {
            "time": 163.94743400000002,
            "midi": 56,
            "name": "G#3",
            "velocity": 1,
            "duration": 0.2028509583333289,
            "ticks": 59808,
            "durationTicks": 74
          },
          {
            "time": 164.210592,
            "midi": 68,
            "name": "G#4",
            "velocity": 1,
            "duration": 0.14254391666665356,
            "ticks": 59904,
            "durationTicks": 52
          },
          {
            "time": 164.210592,
            "midi": 80,
            "name": "G#5",
            "velocity": 1,
            "duration": 0.13706145833336336,
            "ticks": 59904,
            "durationTicks": 50
          },
          {
            "time": 164.736908,
            "midi": 80,
            "name": "G#5",
            "velocity": 1,
            "duration": 0.24396939583334643,
            "ticks": 60096,
            "durationTicks": 89
          },
          {
            "time": 164.736908,
            "midi": 68,
            "name": "G#4",
            "velocity": 1,
            "duration": 0.2357457083333543,
            "ticks": 60096,
            "durationTicks": 86
          },
          {
            "time": 165.000066,
            "midi": 63,
            "name": "D#4",
            "velocity": 1,
            "duration": 0.5098686249999957,
            "ticks": 60192,
            "durationTicks": 186
          },
          {
            "time": 165.000066,
            "midi": 75,
            "name": "D#5",
            "velocity": 1,
            "duration": 0.49616247916665657,
            "ticks": 60192,
            "durationTicks": 181
          },
          {
            "time": 165.526382,
            "midi": 65,
            "name": "F4",
            "velocity": 1,
            "duration": 0.24945185416663662,
            "ticks": 60384,
            "durationTicks": 91
          },
          {
            "time": 165.526382,
            "midi": 77,
            "name": "F5",
            "velocity": 1,
            "duration": 0.2768641458333434,
            "ticks": 60384,
            "durationTicks": 101
          },
          {
            "time": 165.78954,
            "midi": 75,
            "name": "D#5",
            "velocity": 1,
            "duration": 0.2768641458333434,
            "ticks": 60480,
            "durationTicks": 101
          },
          {
            "time": 165.78954,
            "midi": 63,
            "name": "D#4",
            "velocity": 1,
            "duration": 0.24396939583334643,
            "ticks": 60480,
            "durationTicks": 89
          },
          {
            "time": 166.052698,
            "midi": 73,
            "name": "C#5",
            "velocity": 1,
            "duration": 0.10416670833336639,
            "ticks": 60576,
            "durationTicks": 38
          },
          {
            "time": 166.052698,
            "midi": 61,
            "name": "C#4",
            "velocity": 1,
            "duration": 0.11513162500000362,
            "ticks": 60576,
            "durationTicks": 42
          },
          {
            "time": 172.631648,
            "midi": 75,
            "name": "D#5",
            "velocity": 1,
            "duration": 0.25219308333333856,
            "ticks": 62976,
            "durationTicks": 92
          },
          {
            "time": 172.631648,
            "midi": 63,
            "name": "D#4",
            "velocity": 1,
            "duration": 0.27412291666664146,
            "ticks": 62976,
            "durationTicks": 100
          },
          {
            "time": 172.894806,
            "midi": 75,
            "name": "D#5",
            "velocity": 1,
            "duration": 0.252193083333367,
            "ticks": 63072,
            "durationTicks": 92
          },
          {
            "time": 172.894806,
            "midi": 63,
            "name": "D#4",
            "velocity": 1,
            "duration": 0.2631580000000042,
            "ticks": 63072,
            "durationTicks": 96
          },
          {
            "time": 173.157964,
            "midi": 63,
            "name": "D#4",
            "velocity": 1,
            "duration": 0.2631580000000042,
            "ticks": 63168,
            "durationTicks": 96
          },
          {
            "time": 173.157964,
            "midi": 75,
            "name": "D#5",
            "velocity": 1,
            "duration": 0.25219308333333856,
            "ticks": 63168,
            "durationTicks": 92
          },
          {
            "time": 173.421122,
            "midi": 65,
            "name": "F4",
            "velocity": 1,
            "duration": 0.2631580000000042,
            "ticks": 63264,
            "durationTicks": 96
          },
          {
            "time": 173.421122,
            "midi": 77,
            "name": "F5",
            "velocity": 1,
            "duration": 0.2631580000000042,
            "ticks": 63264,
            "durationTicks": 96
          },
          {
            "time": 173.68428,
            "midi": 75,
            "name": "D#5",
            "velocity": 1,
            "duration": 1.0307021666666571,
            "ticks": 63360,
            "durationTicks": 376
          },
          {
            "time": 173.68428,
            "midi": 63,
            "name": "D#4",
            "velocity": 1,
            "duration": 1.0526319999999885,
            "ticks": 63360,
            "durationTicks": 384
          },
          {
            "time": 181.842178,
            "midi": 68,
            "name": "G#4",
            "velocity": 1,
            "duration": 0.6661186875000169,
            "ticks": 66336,
            "durationTicks": 243
          },
          {
            "time": 181.842178,
            "midi": 56,
            "name": "G#3",
            "velocity": 1,
            "duration": 0.674342375000009,
            "ticks": 66336,
            "durationTicks": 246
          },
          {
            "time": 182.631652,
            "midi": 56,
            "name": "G#3",
            "velocity": 1,
            "duration": 0.05482458333335671,
            "ticks": 66624,
            "durationTicks": 20
          },
          {
            "time": 182.631652,
            "midi": 68,
            "name": "G#4",
            "velocity": 1,
            "duration": 0.05482458333335671,
            "ticks": 66624,
            "durationTicks": 20
          },
          {
            "time": 182.763231,
            "midi": 58,
            "name": "A#3",
            "velocity": 1,
            "duration": 0.05482458333335671,
            "ticks": 66672,
            "durationTicks": 20
          },
          {
            "time": 182.763231,
            "midi": 70,
            "name": "A#4",
            "velocity": 1,
            "duration": 0.07675441666665961,
            "ticks": 66672,
            "durationTicks": 28
          },
          {
            "time": 182.89481,
            "midi": 61,
            "name": "C#4",
            "velocity": 1,
            "duration": 0.06578949999999395,
            "ticks": 66720,
            "durationTicks": 24
          },
          {
            "time": 182.89481,
            "midi": 73,
            "name": "C#5",
            "velocity": 1,
            "duration": 0.06578949999999395,
            "ticks": 66720,
            "durationTicks": 24
          },
          {
            "time": 183.026389,
            "midi": 58,
            "name": "A#3",
            "velocity": 1,
            "duration": 0.08771933333335369,
            "ticks": 66768,
            "durationTicks": 32
          },
          {
            "time": 183.026389,
            "midi": 70,
            "name": "A#4",
            "velocity": 1,
            "duration": 0.06578949999999395,
            "ticks": 66768,
            "durationTicks": 24
          },
          {
            "time": 190.52639200000002,
            "midi": 68,
            "name": "G#4",
            "velocity": 1,
            "duration": 0.05756581249997339,
            "ticks": 69504,
            "durationTicks": 21
          },
          {
            "time": 190.52639200000002,
            "midi": 80,
            "name": "G#5",
            "velocity": 1,
            "duration": 0.08497810416665175,
            "ticks": 69504,
            "durationTicks": 31
          },
          {
            "time": 190.657971,
            "midi": 80,
            "name": "G#5",
            "velocity": 1,
            "duration": 0.07127195833334099,
            "ticks": 69552,
            "durationTicks": 26
          },
          {
            "time": 190.657971,
            "midi": 68,
            "name": "G#4",
            "velocity": 1,
            "duration": 0.08223687500000665,
            "ticks": 69552,
            "durationTicks": 30
          },
          {
            "time": 190.921129,
            "midi": 80,
            "name": "G#5",
            "velocity": 1,
            "duration": 0.038377208333344015,
            "ticks": 69648,
            "durationTicks": 14
          },
          {
            "time": 190.921129,
            "midi": 68,
            "name": "G#4",
            "velocity": 1,
            "duration": 0.06304827083334885,
            "ticks": 69648,
            "durationTicks": 23
          },
          {
            "time": 191.052708,
            "midi": 68,
            "name": "G#4",
            "velocity": 1,
            "duration": 0.06578949999999395,
            "ticks": 69696,
            "durationTicks": 24
          },
          {
            "time": 191.052708,
            "midi": 80,
            "name": "G#5",
            "velocity": 1,
            "duration": 0.06304827083334885,
            "ticks": 69696,
            "durationTicks": 23
          },
          {
            "time": 191.184287,
            "midi": 70,
            "name": "A#4",
            "velocity": 1,
            "duration": 0.07127195833334099,
            "ticks": 69744,
            "durationTicks": 26
          },
          {
            "time": 191.184287,
            "midi": 82,
            "name": "A#5",
            "velocity": 1,
            "duration": 0.06304827083332043,
            "ticks": 69744,
            "durationTicks": 23
          },
          {
            "time": 191.315866,
            "midi": 73,
            "name": "C#5",
            "velocity": 1,
            "duration": 0.06853072916666747,
            "ticks": 69792,
            "durationTicks": 25
          },
          {
            "time": 191.315866,
            "midi": 85,
            "name": "C#6",
            "velocity": 1,
            "duration": 0.06304827083334885,
            "ticks": 69792,
            "durationTicks": 23
          },
          {
            "time": 191.44744500000002,
            "midi": 73,
            "name": "C#5",
            "velocity": 1,
            "duration": 0.07127195833334099,
            "ticks": 69840,
            "durationTicks": 26
          },
          {
            "time": 191.44744500000002,
            "midi": 85,
            "name": "C#6",
            "velocity": 1,
            "duration": 0.07127195833334099,
            "ticks": 69840,
            "durationTicks": 26
          },
          {
            "time": 198.947448,
            "midi": 85,
            "name": "C#6",
            "velocity": 1,
            "duration": 0.04934212499998125,
            "ticks": 72576,
            "durationTicks": 18
          },
          {
            "time": 198.947448,
            "midi": 68,
            "name": "G#4",
            "velocity": 1,
            "duration": 0.05756581250000181,
            "ticks": 72576,
            "durationTicks": 21
          },
          {
            "time": 198.947448,
            "midi": 80,
            "name": "G#5",
            "velocity": 1,
            "duration": 0.08497810416665175,
            "ticks": 72576,
            "durationTicks": 31
          },
          {
            "time": 199.079027,
            "midi": 80,
            "name": "G#5",
            "velocity": 1,
            "duration": 0.07127195833334099,
            "ticks": 72624,
            "durationTicks": 26
          },
          {
            "time": 199.079027,
            "midi": 68,
            "name": "G#4",
            "velocity": 1,
            "duration": 0.08223687500000665,
            "ticks": 72624,
            "durationTicks": 30
          },
          {
            "time": 199.079027,
            "midi": 85,
            "name": "C#6",
            "velocity": 1,
            "duration": 0.06304827083334885,
            "ticks": 72624,
            "durationTicks": 23
          },
          {
            "time": 199.342185,
            "midi": 80,
            "name": "G#5",
            "velocity": 1,
            "duration": 0.038377208333344015,
            "ticks": 72720,
            "durationTicks": 14
          },
          {
            "time": 199.342185,
            "midi": 85,
            "name": "C#6",
            "velocity": 1,
            "duration": 0.05482458333335671,
            "ticks": 72720,
            "durationTicks": 20
          },
          {
            "time": 199.342185,
            "midi": 68,
            "name": "G#4",
            "velocity": 1,
            "duration": 0.06304827083334885,
            "ticks": 72720,
            "durationTicks": 23
          },
          {
            "time": 199.473764,
            "midi": 68,
            "name": "G#4",
            "velocity": 1,
            "duration": 0.06578950000002237,
            "ticks": 72768,
            "durationTicks": 24
          },
          {
            "time": 199.473764,
            "midi": 80,
            "name": "G#5",
            "velocity": 1,
            "duration": 0.06304827083334885,
            "ticks": 72768,
            "durationTicks": 23
          },
          {
            "time": 199.473764,
            "midi": 85,
            "name": "C#6",
            "velocity": 1,
            "duration": 0.06304827083334885,
            "ticks": 72768,
            "durationTicks": 23
          },
          {
            "time": 199.605343,
            "midi": 80,
            "name": "G#5",
            "velocity": 1,
            "duration": 0.06304827083334885,
            "ticks": 72816,
            "durationTicks": 23
          },
          {
            "time": 199.605343,
            "midi": 85,
            "name": "C#6",
            "velocity": 1,
            "duration": 0.06304827083334885,
            "ticks": 72816,
            "durationTicks": 23
          },
          {
            "time": 199.605343,
            "midi": 68,
            "name": "G#4",
            "velocity": 1,
            "duration": 0.07127195833334099,
            "ticks": 72816,
            "durationTicks": 26
          },
          {
            "time": 199.736922,
            "midi": 80,
            "name": "G#5",
            "velocity": 1,
            "duration": 0.06578950000002237,
            "ticks": 72864,
            "durationTicks": 24
          },
          {
            "time": 199.736922,
            "midi": 85,
            "name": "C#6",
            "velocity": 1,
            "duration": 0.06304827083334885,
            "ticks": 72864,
            "durationTicks": 23
          },
          {
            "time": 199.736922,
            "midi": 68,
            "name": "G#4",
            "velocity": 1,
            "duration": 0.06853072916666747,
            "ticks": 72864,
            "durationTicks": 25
          },
          {
            "time": 199.868501,
            "midi": 80,
            "name": "G#5",
            "velocity": 1,
            "duration": 0.07949564583333313,
            "ticks": 72912,
            "durationTicks": 29
          },
          {
            "time": 199.868501,
            "midi": 85,
            "name": "C#6",
            "velocity": 1,
            "duration": 0.07127195833334099,
            "ticks": 72912,
            "durationTicks": 26
          },
          {
            "time": 199.868501,
            "midi": 68,
            "name": "G#4",
            "velocity": 1,
            "duration": 0.07127195833334099,
            "ticks": 72912,
            "durationTicks": 26
          },
          {
            "time": 207.368504,
            "midi": 68,
            "name": "G#4",
            "velocity": 1,
            "duration": 0.05756581250000181,
            "ticks": 75648,
            "durationTicks": 21
          },
          {
            "time": 207.368504,
            "midi": 80,
            "name": "G#5",
            "velocity": 1,
            "duration": 0.08497810416665175,
            "ticks": 75648,
            "durationTicks": 31
          },
          {
            "time": 207.500083,
            "midi": 80,
            "name": "G#5",
            "velocity": 1,
            "duration": 0.07127195833336941,
            "ticks": 75696,
            "durationTicks": 26
          },
          {
            "time": 207.500083,
            "midi": 68,
            "name": "G#4",
            "velocity": 1,
            "duration": 0.08223687500000665,
            "ticks": 75696,
            "durationTicks": 30
          },
          {
            "time": 207.763241,
            "midi": 80,
            "name": "G#5",
            "velocity": 1,
            "duration": 0.038377208333344015,
            "ticks": 75792,
            "durationTicks": 14
          },
          {
            "time": 207.763241,
            "midi": 68,
            "name": "G#4",
            "velocity": 1,
            "duration": 0.06304827083334885,
            "ticks": 75792,
            "durationTicks": 23
          },
          {
            "time": 207.89482,
            "midi": 68,
            "name": "G#4",
            "velocity": 1,
            "duration": 0.06578949999999395,
            "ticks": 75840,
            "durationTicks": 24
          },
          {
            "time": 207.89482,
            "midi": 80,
            "name": "G#5",
            "velocity": 1,
            "duration": 0.06304827083334885,
            "ticks": 75840,
            "durationTicks": 23
          },
          {
            "time": 208.026399,
            "midi": 70,
            "name": "A#4",
            "velocity": 1,
            "duration": 0.07127195833334099,
            "ticks": 75888,
            "durationTicks": 26
          },
          {
            "time": 208.026399,
            "midi": 82,
            "name": "A#5",
            "velocity": 1,
            "duration": 0.06304827083334885,
            "ticks": 75888,
            "durationTicks": 23
          },
          {
            "time": 208.157978,
            "midi": 73,
            "name": "C#5",
            "velocity": 1,
            "duration": 0.06853072916663905,
            "ticks": 75936,
            "durationTicks": 25
          },
          {
            "time": 208.157978,
            "midi": 85,
            "name": "C#6",
            "velocity": 1,
            "duration": 0.06304827083332043,
            "ticks": 75936,
            "durationTicks": 23
          },
          {
            "time": 208.289557,
            "midi": 73,
            "name": "C#5",
            "velocity": 1,
            "duration": 0.07127195833334099,
            "ticks": 75984,
            "durationTicks": 26
          },
          {
            "time": 208.289557,
            "midi": 85,
            "name": "C#6",
            "velocity": 1,
            "duration": 0.07127195833334099,
            "ticks": 75984,
            "durationTicks": 26
          },
          {
            "time": 215.78956,
            "midi": 85,
            "name": "C#6",
            "velocity": 1,
            "duration": 0.04934212500000967,
            "ticks": 78720,
            "durationTicks": 18
          },
          {
            "time": 215.78956,
            "midi": 68,
            "name": "G#4",
            "velocity": 1,
            "duration": 0.05756581250000181,
            "ticks": 78720,
            "durationTicks": 21
          },
          {
            "time": 215.78956,
            "midi": 80,
            "name": "G#5",
            "velocity": 1,
            "duration": 0.08497810416665175,
            "ticks": 78720,
            "durationTicks": 31
          },
          {
            "time": 215.921139,
            "midi": 80,
            "name": "G#5",
            "velocity": 1,
            "duration": 0.07127195833334099,
            "ticks": 78768,
            "durationTicks": 26
          },
          {
            "time": 215.921139,
            "midi": 68,
            "name": "G#4",
            "velocity": 1,
            "duration": 0.08223687499997823,
            "ticks": 78768,
            "durationTicks": 30
          },
          {
            "time": 215.921139,
            "midi": 85,
            "name": "C#6",
            "velocity": 1,
            "duration": 0.06304827083334885,
            "ticks": 78768,
            "durationTicks": 23
          },
          {
            "time": 216.18429700000002,
            "midi": 80,
            "name": "G#5",
            "velocity": 1,
            "duration": 0.038377208333344015,
            "ticks": 78864,
            "durationTicks": 14
          },
          {
            "time": 216.18429700000002,
            "midi": 85,
            "name": "C#6",
            "velocity": 1,
            "duration": 0.05482458333332829,
            "ticks": 78864,
            "durationTicks": 20
          },
          {
            "time": 216.18429700000002,
            "midi": 68,
            "name": "G#4",
            "velocity": 1,
            "duration": 0.06304827083332043,
            "ticks": 78864,
            "durationTicks": 23
          },
          {
            "time": 216.315876,
            "midi": 68,
            "name": "G#4",
            "velocity": 1,
            "duration": 0.06578949999999395,
            "ticks": 78912,
            "durationTicks": 24
          },
          {
            "time": 216.315876,
            "midi": 80,
            "name": "G#5",
            "velocity": 1,
            "duration": 0.06304827083334885,
            "ticks": 78912,
            "durationTicks": 23
          },
          {
            "time": 216.315876,
            "midi": 85,
            "name": "C#6",
            "velocity": 1,
            "duration": 0.06304827083334885,
            "ticks": 78912,
            "durationTicks": 23
          },
          {
            "time": 216.447455,
            "midi": 80,
            "name": "G#5",
            "velocity": 1,
            "duration": 0.06304827083334885,
            "ticks": 78960,
            "durationTicks": 23
          },
          {
            "time": 216.447455,
            "midi": 85,
            "name": "C#6",
            "velocity": 1,
            "duration": 0.06304827083334885,
            "ticks": 78960,
            "durationTicks": 23
          },
          {
            "time": 216.447455,
            "midi": 68,
            "name": "G#4",
            "velocity": 1,
            "duration": 0.07127195833334099,
            "ticks": 78960,
            "durationTicks": 26
          },
          {
            "time": 216.579034,
            "midi": 80,
            "name": "G#5",
            "velocity": 1,
            "duration": 0.06578949999999395,
            "ticks": 79008,
            "durationTicks": 24
          },
          {
            "time": 216.579034,
            "midi": 85,
            "name": "C#6",
            "velocity": 1,
            "duration": 0.06304827083334885,
            "ticks": 79008,
            "durationTicks": 23
          },
          {
            "time": 216.579034,
            "midi": 68,
            "name": "G#4",
            "velocity": 1,
            "duration": 0.06853072916663905,
            "ticks": 79008,
            "durationTicks": 25
          },
          {
            "time": 216.710613,
            "midi": 80,
            "name": "G#5",
            "velocity": 1,
            "duration": 0.07949564583336155,
            "ticks": 79056,
            "durationTicks": 29
          },
          {
            "time": 216.710613,
            "midi": 85,
            "name": "C#6",
            "velocity": 1,
            "duration": 0.07127195833334099,
            "ticks": 79056,
            "durationTicks": 26
          },
          {
            "time": 216.710613,
            "midi": 68,
            "name": "G#4",
            "velocity": 1,
            "duration": 0.07127195833334099,
            "ticks": 79056,
            "durationTicks": 26
          },
          {
            "time": 241.84494322916666,
            "midi": 58,
            "name": "A#3",
            "velocity": 0.9133858267716536,
            "duration": 0.20833341666667593,
            "ticks": 88225,
            "durationTicks": 76
          },
          {
            "time": 241.85316691666665,
            "midi": 82,
            "name": "A#5",
            "velocity": 0.9133858267716536,
            "duration": 0.2055921875000024,
            "ticks": 88228,
            "durationTicks": 75
          },
          {
            "time": 241.86139060416667,
            "midi": 70,
            "name": "A#4",
            "velocity": 0.9133858267716536,
            "duration": 0.172697437499977,
            "ticks": 88231,
            "durationTicks": 63
          }
        ],
        "controlChanges": {
          "0": [
            {
              "number": 0,
              "value": 0,
              "time": 1.5844304583333333,
              "ticks": 578
            }
          ],
          "1": [
            {
              "number": 1,
              "value": 0,
              "time": 0.021929833333333332,
              "ticks": 8
            }
          ],
          "6": [
            {
              "number": 6,
              "value": 0.09448818897637795,
              "time": 0.016447375,
              "ticks": 6
            }
          ],
          "7": [
            {
              "number": 7,
              "value": 0.7086614173228346,
              "time": 1.5899129166666668,
              "ticks": 580
            }
          ],
          "10": [
            {
              "number": 10,
              "value": 0.5039370078740157,
              "time": 1.595395375,
              "ticks": 582
            }
          ],
          "11": [
            {
              "number": 11,
              "value": 1,
              "time": 0.019188604166666668,
              "ticks": 7
            },
            {
              "number": 11,
              "value": 1,
              "time": 0.027412291666666668,
              "ticks": 10
            },
            {
              "number": 11,
              "value": 1,
              "time": 1.6008778333333333,
              "ticks": 584
            }
          ],
          "32": [
            {
              "number": 32,
              "value": 0,
              "time": 1.5844304583333333,
              "ticks": 578
            }
          ],
          "64": [
            {
              "number": 64,
              "value": 0,
              "time": 0.0082236875,
              "ticks": 3
            }
          ],
          "67": [
            {
              "number": 67,
              "value": 0,
              "time": 0.005482458333333333,
              "ticks": 2
            }
          ],
          "91": [
            {
              "number": 91,
              "value": 0.5039370078740157,
              "time": 1.6063602916666668,
              "ticks": 586
            }
          ],
          "93": [
            {
              "number": 93,
              "value": 0.4566929133858268,
              "time": 1.61184275,
              "ticks": 588
            }
          ],
          "100": [
            {
              "number": 100,
              "value": 0,
              "time": 0.010964916666666666,
              "ticks": 4
            }
          ],
          "101": [
            {
              "number": 101,
              "value": 0,
              "time": 0.013706145833333334,
              "ticks": 5
            }
          ],
          "121": [
            {
              "number": 121,
              "value": 0,
              "time": 0,
              "ticks": 0
            }
          ],
          "123": [
            {
              "number": 123,
              "value": 0,
              "time": 244.20514154166665,
              "ticks": 89086
            }
          ]
        }
      },
      {
        "name": "Electric Guitar (muted)",
        "channel": 0,
        "instrument": {
          "number": 28,
          "name": "electric guitar (muted)",
          "family": "guitar"
        },
        "notes": [
          {
            "time": 6.447371,
            "midi": 56,
            "name": "G#3",
            "velocity": 0.8346456692913385,
            "duration": 0.043859666666667074,
            "ticks": 2352,
            "durationTicks": 16
          },
          {
            "time": 6.842108,
            "midi": 56,
            "name": "G#3",
            "velocity": 0.8346456692913385,
            "duration": 0.043859666666667074,
            "ticks": 2496,
            "durationTicks": 16
          },
          {
            "time": 7.236845,
            "midi": 53,
            "name": "F3",
            "velocity": 0.8346456692913385,
            "duration": 0.043859666666667074,
            "ticks": 2640,
            "durationTicks": 16
          },
          {
            "time": 7.368424,
            "midi": 56,
            "name": "G#3",
            "velocity": 0.8346456692913385,
            "duration": 0.043859666666667074,
            "ticks": 2688,
            "durationTicks": 16
          },
          {
            "time": 7.763161,
            "midi": 56,
            "name": "G#3",
            "velocity": 0.8346456692913385,
            "duration": 0.043859666666667074,
            "ticks": 2832,
            "durationTicks": 16
          },
          {
            "time": 8.157898,
            "midi": 53,
            "name": "F3",
            "velocity": 0.8346456692913385,
            "duration": 0.04385966666666796,
            "ticks": 2976,
            "durationTicks": 16
          },
          {
            "time": 8.289477,
            "midi": 56,
            "name": "G#3",
            "velocity": 0.8346456692913385,
            "duration": 0.04385966666666796,
            "ticks": 3024,
            "durationTicks": 16
          },
          {
            "time": 8.552635,
            "midi": 56,
            "name": "G#3",
            "velocity": 0.8346456692913385,
            "duration": 0.043859666666666186,
            "ticks": 3120,
            "durationTicks": 16
          },
          {
            "time": 8.947372,
            "midi": 56,
            "name": "G#3",
            "velocity": 0.8346456692913385,
            "duration": 0.043859666666666186,
            "ticks": 3264,
            "durationTicks": 16
          },
          {
            "time": 9.342109,
            "midi": 53,
            "name": "F3",
            "velocity": 0.8346456692913385,
            "duration": 0.043859666666666186,
            "ticks": 3408,
            "durationTicks": 16
          },
          {
            "time": 9.473688,
            "midi": 56,
            "name": "G#3",
            "velocity": 0.8346456692913385,
            "duration": 0.043859666666666186,
            "ticks": 3456,
            "durationTicks": 16
          },
          {
            "time": 9.736846,
            "midi": 56,
            "name": "G#3",
            "velocity": 0.8346456692913385,
            "duration": 0.043859666666666186,
            "ticks": 3552,
            "durationTicks": 16
          },
          {
            "time": 10.000004,
            "midi": 56,
            "name": "G#3",
            "velocity": 0.8346456692913385,
            "duration": 0.043859666666666186,
            "ticks": 3648,
            "durationTicks": 16
          },
          {
            "time": 10.131583000000001,
            "midi": 58,
            "name": "A#3",
            "velocity": 0.8346456692913385,
            "duration": 0.04385966666666441,
            "ticks": 3696,
            "durationTicks": 16
          },
          {
            "time": 10.657899,
            "midi": 56,
            "name": "G#3",
            "velocity": 0.8346456692913385,
            "duration": 0.043859666666666186,
            "ticks": 3888,
            "durationTicks": 16
          },
          {
            "time": 11.052636,
            "midi": 56,
            "name": "G#3",
            "velocity": 0.8346456692913385,
            "duration": 0.043859666666666186,
            "ticks": 4032,
            "durationTicks": 16
          },
          {
            "time": 11.447373,
            "midi": 53,
            "name": "F3",
            "velocity": 0.8346456692913385,
            "duration": 0.043859666666666186,
            "ticks": 4176,
            "durationTicks": 16
          },
          {
            "time": 11.578952000000001,
            "midi": 56,
            "name": "G#3",
            "velocity": 0.8346456692913385,
            "duration": 0.04385966666666441,
            "ticks": 4224,
            "durationTicks": 16
          },
          {
            "time": 11.84211,
            "midi": 56,
            "name": "G#3",
            "velocity": 0.8346456692913385,
            "duration": 0.043859666666666186,
            "ticks": 4320,
            "durationTicks": 16
          },
          {
            "time": 12.368426,
            "midi": 51,
            "name": "D#3",
            "velocity": 0.8346456692913385,
            "duration": 0.043859666666666186,
            "ticks": 4512,
            "durationTicks": 16
          },
          {
            "time": 12.500005,
            "midi": 53,
            "name": "F3",
            "velocity": 0.8346456692913385,
            "duration": 0.043859666666666186,
            "ticks": 4560,
            "durationTicks": 16
          },
          {
            "time": 12.763163,
            "midi": 56,
            "name": "G#3",
            "velocity": 0.8346456692913385,
            "duration": 0.043859666666666186,
            "ticks": 4656,
            "durationTicks": 16
          },
          {
            "time": 13.1579,
            "midi": 56,
            "name": "G#3",
            "velocity": 0.8346456692913385,
            "duration": 0.043859666666666186,
            "ticks": 4800,
            "durationTicks": 16
          },
          {
            "time": 13.552637,
            "midi": 53,
            "name": "F3",
            "velocity": 0.8346456692913385,
            "duration": 0.043859666666666186,
            "ticks": 4944,
            "durationTicks": 16
          },
          {
            "time": 13.684216,
            "midi": 56,
            "name": "G#3",
            "velocity": 0.8346456692913385,
            "duration": 0.043859666666666186,
            "ticks": 4992,
            "durationTicks": 16
          },
          {
            "time": 13.947374,
            "midi": 56,
            "name": "G#3",
            "velocity": 0.8346456692913385,
            "duration": 0.043859666666666186,
            "ticks": 5088,
            "durationTicks": 16
          },
          {
            "time": 14.342111000000001,
            "midi": 56,
            "name": "G#3",
            "velocity": 0.8346456692913385,
            "duration": 0.04385966666666441,
            "ticks": 5232,
            "durationTicks": 16
          },
          {
            "time": 14.605269,
            "midi": 56,
            "name": "G#3",
            "velocity": 0.8346456692913385,
            "duration": 0.043859666666666186,
            "ticks": 5328,
            "durationTicks": 16
          },
          {
            "time": 14.868427,
            "midi": 56,
            "name": "G#3",
            "velocity": 0.8346456692913385,
            "duration": 0.043859666666666186,
            "ticks": 5424,
            "durationTicks": 16
          },
          {
            "time": 15.263164,
            "midi": 56,
            "name": "G#3",
            "velocity": 0.8346456692913385,
            "duration": 0.043859666666666186,
            "ticks": 5568,
            "durationTicks": 16
          },
          {
            "time": 15.657901,
            "midi": 53,
            "name": "F3",
            "velocity": 0.8346456692913385,
            "duration": 0.043859666666666186,
            "ticks": 5712,
            "durationTicks": 16
          },
          {
            "time": 15.789480000000001,
            "midi": 56,
            "name": "G#3",
            "velocity": 0.8346456692913385,
            "duration": 0.04385966666666441,
            "ticks": 5760,
            "durationTicks": 16
          },
          {
            "time": 16.184217,
            "midi": 56,
            "name": "G#3",
            "velocity": 0.8346456692913385,
            "duration": 0.043859666666666186,
            "ticks": 5904,
            "durationTicks": 16
          },
          {
            "time": 16.578954,
            "midi": 53,
            "name": "F3",
            "velocity": 0.8346456692913385,
            "duration": 0.043859666666666186,
            "ticks": 6048,
            "durationTicks": 16
          },
          {
            "time": 16.710533,
            "midi": 56,
            "name": "G#3",
            "velocity": 0.8346456692913385,
            "duration": 0.043859666666666186,
            "ticks": 6096,
            "durationTicks": 16
          },
          {
            "time": 16.973691,
            "midi": 56,
            "name": "G#3",
            "velocity": 0.8346456692913385,
            "duration": 0.04385966666666974,
            "ticks": 6192,
            "durationTicks": 16
          },
          {
            "time": 17.368428,
            "midi": 56,
            "name": "G#3",
            "velocity": 0.8346456692913385,
            "duration": 0.043859666666666186,
            "ticks": 6336,
            "durationTicks": 16
          },
          {
            "time": 17.763165,
            "midi": 53,
            "name": "F3",
            "velocity": 0.8346456692913385,
            "duration": 0.043859666666666186,
            "ticks": 6480,
            "durationTicks": 16
          },
          {
            "time": 17.894744,
            "midi": 56,
            "name": "G#3",
            "velocity": 0.8346456692913385,
            "duration": 0.04385966666666974,
            "ticks": 6528,
            "durationTicks": 16
          },
          {
            "time": 18.157902,
            "midi": 56,
            "name": "G#3",
            "velocity": 0.8346456692913385,
            "duration": 0.04385966666666974,
            "ticks": 6624,
            "durationTicks": 16
          },
          {
            "time": 18.42106,
            "midi": 56,
            "name": "G#3",
            "velocity": 0.8346456692913385,
            "duration": 0.043859666666666186,
            "ticks": 6720,
            "durationTicks": 16
          },
          {
            "time": 18.552639,
            "midi": 58,
            "name": "A#3",
            "velocity": 0.8346456692913385,
            "duration": 0.04385966666666974,
            "ticks": 6768,
            "durationTicks": 16
          },
          {
            "time": 19.078955,
            "midi": 56,
            "name": "G#3",
            "velocity": 0.8346456692913385,
            "duration": 0.043859666666666186,
            "ticks": 6960,
            "durationTicks": 16
          },
          {
            "time": 19.473692,
            "midi": 56,
            "name": "G#3",
            "velocity": 0.8346456692913385,
            "duration": 0.04385966666666974,
            "ticks": 7104,
            "durationTicks": 16
          },
          {
            "time": 19.868429,
            "midi": 53,
            "name": "F3",
            "velocity": 0.8346456692913385,
            "duration": 0.04385966666666974,
            "ticks": 7248,
            "durationTicks": 16
          },
          {
            "time": 20.000008,
            "midi": 56,
            "name": "G#3",
            "velocity": 0.8346456692913385,
            "duration": 0.043859666666666186,
            "ticks": 7296,
            "durationTicks": 16
          },
          {
            "time": 20.263166000000002,
            "midi": 56,
            "name": "G#3",
            "velocity": 0.8346456692913385,
            "duration": 0.043859666666666186,
            "ticks": 7392,
            "durationTicks": 16
          },
          {
            "time": 20.789482,
            "midi": 51,
            "name": "D#3",
            "velocity": 0.8346456692913385,
            "duration": 0.04385966666666974,
            "ticks": 7584,
            "durationTicks": 16
          },
          {
            "time": 20.921061,
            "midi": 53,
            "name": "F3",
            "velocity": 0.8346456692913385,
            "duration": 0.043859666666666186,
            "ticks": 7632,
            "durationTicks": 16
          },
          {
            "time": 21.184219,
            "midi": 56,
            "name": "G#3",
            "velocity": 0.8346456692913385,
            "duration": 0.04385966666666974,
            "ticks": 7728,
            "durationTicks": 16
          },
          {
            "time": 21.578956,
            "midi": 56,
            "name": "G#3",
            "velocity": 0.8346456692913385,
            "duration": 0.043859666666666186,
            "ticks": 7872,
            "durationTicks": 16
          },
          {
            "time": 21.973693,
            "midi": 53,
            "name": "F3",
            "velocity": 0.8346456692913385,
            "duration": 0.043859666666666186,
            "ticks": 8016,
            "durationTicks": 16
          },
          {
            "time": 22.105272,
            "midi": 56,
            "name": "G#3",
            "velocity": 0.8346456692913385,
            "duration": 0.04385966666666974,
            "ticks": 8064,
            "durationTicks": 16
          },
          {
            "time": 22.36843,
            "midi": 56,
            "name": "G#3",
            "velocity": 0.8346456692913385,
            "duration": 0.04385966666666974,
            "ticks": 8160,
            "durationTicks": 16
          },
          {
            "time": 22.763167,
            "midi": 56,
            "name": "G#3",
            "velocity": 0.8346456692913385,
            "duration": 0.04385966666666974,
            "ticks": 8304,
            "durationTicks": 16
          },
          {
            "time": 23.026325,
            "midi": 56,
            "name": "G#3",
            "velocity": 0.8346456692913385,
            "duration": 0.04385966666666974,
            "ticks": 8400,
            "durationTicks": 16
          },
          {
            "time": 23.289483,
            "midi": 56,
            "name": "G#3",
            "velocity": 0.8346456692913385,
            "duration": 0.043859666666666186,
            "ticks": 8496,
            "durationTicks": 16
          },
          {
            "time": 23.68422,
            "midi": 56,
            "name": "G#3",
            "velocity": 0.8346456692913385,
            "duration": 0.04385966666666974,
            "ticks": 8640,
            "durationTicks": 16
          },
          {
            "time": 24.078957,
            "midi": 53,
            "name": "F3",
            "velocity": 0.8346456692913385,
            "duration": 0.04385966666666974,
            "ticks": 8784,
            "durationTicks": 16
          },
          {
            "time": 24.210536,
            "midi": 56,
            "name": "G#3",
            "velocity": 0.8346456692913385,
            "duration": 0.043859666666666186,
            "ticks": 8832,
            "durationTicks": 16
          },
          {
            "time": 24.605273,
            "midi": 56,
            "name": "G#3",
            "velocity": 0.8346456692913385,
            "duration": 0.043859666666666186,
            "ticks": 8976,
            "durationTicks": 16
          },
          {
            "time": 25.00001,
            "midi": 53,
            "name": "F3",
            "velocity": 0.8346456692913385,
            "duration": 0.04385966666666974,
            "ticks": 9120,
            "durationTicks": 16
          },
          {
            "time": 25.131589,
            "midi": 56,
            "name": "G#3",
            "velocity": 0.8346456692913385,
            "duration": 0.043859666666666186,
            "ticks": 9168,
            "durationTicks": 16
          },
          {
            "time": 25.394747,
            "midi": 56,
            "name": "G#3",
            "velocity": 0.8346456692913385,
            "duration": 0.04385966666666974,
            "ticks": 9264,
            "durationTicks": 16
          },
          {
            "time": 25.789484,
            "midi": 56,
            "name": "G#3",
            "velocity": 0.8346456692913385,
            "duration": 0.043859666666666186,
            "ticks": 9408,
            "durationTicks": 16
          },
          {
            "time": 26.184221,
            "midi": 53,
            "name": "F3",
            "velocity": 0.8346456692913385,
            "duration": 0.043859666666666186,
            "ticks": 9552,
            "durationTicks": 16
          },
          {
            "time": 26.3158,
            "midi": 56,
            "name": "G#3",
            "velocity": 0.8346456692913385,
            "duration": 0.04385966666666974,
            "ticks": 9600,
            "durationTicks": 16
          },
          {
            "time": 26.578958,
            "midi": 56,
            "name": "G#3",
            "velocity": 0.8346456692913385,
            "duration": 0.04385966666666974,
            "ticks": 9696,
            "durationTicks": 16
          },
          {
            "time": 26.842116,
            "midi": 56,
            "name": "G#3",
            "velocity": 0.8346456692913385,
            "duration": 0.043859666666666186,
            "ticks": 9792,
            "durationTicks": 16
          },
          {
            "time": 26.973695,
            "midi": 58,
            "name": "A#3",
            "velocity": 0.8346456692913385,
            "duration": 0.04385966666666974,
            "ticks": 9840,
            "durationTicks": 16
          },
          {
            "time": 27.500011,
            "midi": 56,
            "name": "G#3",
            "velocity": 0.8346456692913385,
            "duration": 0.043859666666666186,
            "ticks": 10032,
            "durationTicks": 16
          },
          {
            "time": 27.894748,
            "midi": 56,
            "name": "G#3",
            "velocity": 0.8346456692913385,
            "duration": 0.04385966666666974,
            "ticks": 10176,
            "durationTicks": 16
          },
          {
            "time": 28.289485,
            "midi": 53,
            "name": "F3",
            "velocity": 0.8346456692913385,
            "duration": 0.04385966666666974,
            "ticks": 10320,
            "durationTicks": 16
          },
          {
            "time": 28.421064,
            "midi": 56,
            "name": "G#3",
            "velocity": 0.8346456692913385,
            "duration": 0.043859666666666186,
            "ticks": 10368,
            "durationTicks": 16
          },
          {
            "time": 28.684222000000002,
            "midi": 56,
            "name": "G#3",
            "velocity": 0.8346456692913385,
            "duration": 0.043859666666666186,
            "ticks": 10464,
            "durationTicks": 16
          },
          {
            "time": 29.210538,
            "midi": 51,
            "name": "D#3",
            "velocity": 0.8346456692913385,
            "duration": 0.04385966666666974,
            "ticks": 10656,
            "durationTicks": 16
          },
          {
            "time": 29.342117000000002,
            "midi": 53,
            "name": "F3",
            "velocity": 0.8346456692913385,
            "duration": 0.043859666666666186,
            "ticks": 10704,
            "durationTicks": 16
          },
          {
            "time": 29.605275,
            "midi": 56,
            "name": "G#3",
            "velocity": 0.8346456692913385,
            "duration": 0.04385966666666974,
            "ticks": 10800,
            "durationTicks": 16
          },
          {
            "time": 30.000012,
            "midi": 56,
            "name": "G#3",
            "velocity": 0.8346456692913385,
            "duration": 0.043859666666666186,
            "ticks": 10944,
            "durationTicks": 16
          },
          {
            "time": 30.394749,
            "midi": 53,
            "name": "F3",
            "velocity": 0.8346456692913385,
            "duration": 0.043859666666666186,
            "ticks": 11088,
            "durationTicks": 16
          },
          {
            "time": 30.526328,
            "midi": 56,
            "name": "G#3",
            "velocity": 0.8346456692913385,
            "duration": 0.04385966666666974,
            "ticks": 11136,
            "durationTicks": 16
          },
          {
            "time": 30.789486,
            "midi": 56,
            "name": "G#3",
            "velocity": 0.8346456692913385,
            "duration": 0.04385966666666974,
            "ticks": 11232,
            "durationTicks": 16
          },
          {
            "time": 31.184223,
            "midi": 56,
            "name": "G#3",
            "velocity": 0.8346456692913385,
            "duration": 0.04385966666666974,
            "ticks": 11376,
            "durationTicks": 16
          },
          {
            "time": 31.447381,
            "midi": 56,
            "name": "G#3",
            "velocity": 0.8346456692913385,
            "duration": 0.04385966666666974,
            "ticks": 11472,
            "durationTicks": 16
          },
          {
            "time": 31.710539,
            "midi": 56,
            "name": "G#3",
            "velocity": 0.8346456692913385,
            "duration": 0.043859666666666186,
            "ticks": 11568,
            "durationTicks": 16
          },
          {
            "time": 32.105276,
            "midi": 56,
            "name": "G#3",
            "velocity": 0.8346456692913385,
            "duration": 0.04385966666666263,
            "ticks": 11712,
            "durationTicks": 16
          },
          {
            "time": 32.500013,
            "midi": 53,
            "name": "F3",
            "velocity": 0.8346456692913385,
            "duration": 0.04385966666666263,
            "ticks": 11856,
            "durationTicks": 16
          },
          {
            "time": 32.631592,
            "midi": 56,
            "name": "G#3",
            "velocity": 0.8346456692913385,
            "duration": 0.04385966666666974,
            "ticks": 11904,
            "durationTicks": 16
          },
          {
            "time": 33.026329,
            "midi": 56,
            "name": "G#3",
            "velocity": 0.8346456692913385,
            "duration": 0.04385966666666974,
            "ticks": 12048,
            "durationTicks": 16
          },
          {
            "time": 33.421066,
            "midi": 53,
            "name": "F3",
            "velocity": 0.8346456692913385,
            "duration": 0.04385966666666263,
            "ticks": 12192,
            "durationTicks": 16
          },
          {
            "time": 33.552645,
            "midi": 56,
            "name": "G#3",
            "velocity": 0.8346456692913385,
            "duration": 0.04385966666666974,
            "ticks": 12240,
            "durationTicks": 16
          },
          {
            "time": 33.815803,
            "midi": 56,
            "name": "G#3",
            "velocity": 0.8346456692913385,
            "duration": 0.04385966666666263,
            "ticks": 12336,
            "durationTicks": 16
          },
          {
            "time": 34.21054,
            "midi": 56,
            "name": "G#3",
            "velocity": 0.8346456692913385,
            "duration": 0.04385966666666263,
            "ticks": 12480,
            "durationTicks": 16
          },
          {
            "time": 34.605277,
            "midi": 53,
            "name": "F3",
            "velocity": 0.8346456692913385,
            "duration": 0.04385966666666263,
            "ticks": 12624,
            "durationTicks": 16
          },
          {
            "time": 34.736856,
            "midi": 56,
            "name": "G#3",
            "velocity": 0.8346456692913385,
            "duration": 0.04385966666666263,
            "ticks": 12672,
            "durationTicks": 16
          },
          {
            "time": 35.000014,
            "midi": 56,
            "name": "G#3",
            "velocity": 0.8346456692913385,
            "duration": 0.04385966666666263,
            "ticks": 12768,
            "durationTicks": 16
          },
          {
            "time": 35.263172,
            "midi": 56,
            "name": "G#3",
            "velocity": 0.8346456692913385,
            "duration": 0.04385966666666974,
            "ticks": 12864,
            "durationTicks": 16
          },
          {
            "time": 35.394751,
            "midi": 58,
            "name": "A#3",
            "velocity": 0.8346456692913385,
            "duration": 0.04385966666666263,
            "ticks": 12912,
            "durationTicks": 16
          },
          {
            "time": 35.921067,
            "midi": 56,
            "name": "G#3",
            "velocity": 0.8346456692913385,
            "duration": 0.04385966666666263,
            "ticks": 13104,
            "durationTicks": 16
          },
          {
            "time": 36.315804,
            "midi": 56,
            "name": "G#3",
            "velocity": 0.8346456692913385,
            "duration": 0.04385966666666263,
            "ticks": 13248,
            "durationTicks": 16
          },
          {
            "time": 36.710541,
            "midi": 53,
            "name": "F3",
            "velocity": 0.8346456692913385,
            "duration": 0.04385966666666263,
            "ticks": 13392,
            "durationTicks": 16
          },
          {
            "time": 36.84212,
            "midi": 56,
            "name": "G#3",
            "velocity": 0.8346456692913385,
            "duration": 0.04385966666666263,
            "ticks": 13440,
            "durationTicks": 16
          },
          {
            "time": 37.105278,
            "midi": 56,
            "name": "G#3",
            "velocity": 0.8346456692913385,
            "duration": 0.04385966666666263,
            "ticks": 13536,
            "durationTicks": 16
          },
          {
            "time": 37.631594,
            "midi": 51,
            "name": "D#3",
            "velocity": 0.8346456692913385,
            "duration": 0.04385966666666263,
            "ticks": 13728,
            "durationTicks": 16
          },
          {
            "time": 37.763173,
            "midi": 53,
            "name": "F3",
            "velocity": 0.8346456692913385,
            "duration": 0.04385966666666263,
            "ticks": 13776,
            "durationTicks": 16
          },
          {
            "time": 38.026331,
            "midi": 56,
            "name": "G#3",
            "velocity": 0.8346456692913385,
            "duration": 0.04385966666666263,
            "ticks": 13872,
            "durationTicks": 16
          },
          {
            "time": 38.421068,
            "midi": 56,
            "name": "G#3",
            "velocity": 0.8346456692913385,
            "duration": 0.04385966666666974,
            "ticks": 14016,
            "durationTicks": 16
          },
          {
            "time": 38.815805,
            "midi": 53,
            "name": "F3",
            "velocity": 0.8346456692913385,
            "duration": 0.04385966666666974,
            "ticks": 14160,
            "durationTicks": 16
          },
          {
            "time": 38.947384,
            "midi": 56,
            "name": "G#3",
            "velocity": 0.8346456692913385,
            "duration": 0.04385966666666263,
            "ticks": 14208,
            "durationTicks": 16
          },
          {
            "time": 39.210542000000004,
            "midi": 56,
            "name": "G#3",
            "velocity": 0.8346456692913385,
            "duration": 0.04385966666666263,
            "ticks": 14304,
            "durationTicks": 16
          },
          {
            "time": 39.605279,
            "midi": 56,
            "name": "G#3",
            "velocity": 0.8346456692913385,
            "duration": 0.04385966666666263,
            "ticks": 14448,
            "durationTicks": 16
          },
          {
            "time": 39.868437,
            "midi": 56,
            "name": "G#3",
            "velocity": 0.8346456692913385,
            "duration": 0.04385966666666263,
            "ticks": 14544,
            "durationTicks": 16
          },
          {
            "time": 40.131595,
            "midi": 56,
            "name": "G#3",
            "velocity": 0.8346456692913385,
            "duration": 0.04385966666666974,
            "ticks": 14640,
            "durationTicks": 16
          },
          {
            "time": 40.526332000000004,
            "midi": 56,
            "name": "G#3",
            "velocity": 0.8346456692913385,
            "duration": 0.04385966666666263,
            "ticks": 14784,
            "durationTicks": 16
          },
          {
            "time": 40.921069,
            "midi": 53,
            "name": "F3",
            "velocity": 0.8346456692913385,
            "duration": 0.04385966666666263,
            "ticks": 14928,
            "durationTicks": 16
          },
          {
            "time": 41.052648,
            "midi": 56,
            "name": "G#3",
            "velocity": 0.8346456692913385,
            "duration": 0.04385966666666974,
            "ticks": 14976,
            "durationTicks": 16
          },
          {
            "time": 41.447385,
            "midi": 56,
            "name": "G#3",
            "velocity": 0.8346456692913385,
            "duration": 0.04385966666666974,
            "ticks": 15120,
            "durationTicks": 16
          },
          {
            "time": 41.842122,
            "midi": 53,
            "name": "F3",
            "velocity": 0.8346456692913385,
            "duration": 0.04385966666666263,
            "ticks": 15264,
            "durationTicks": 16
          },
          {
            "time": 41.973701,
            "midi": 56,
            "name": "G#3",
            "velocity": 0.8346456692913385,
            "duration": 0.04385966666666974,
            "ticks": 15312,
            "durationTicks": 16
          },
          {
            "time": 42.236859,
            "midi": 56,
            "name": "G#3",
            "velocity": 0.8346456692913385,
            "duration": 0.04385966666666263,
            "ticks": 15408,
            "durationTicks": 16
          },
          {
            "time": 42.631596,
            "midi": 56,
            "name": "G#3",
            "velocity": 0.8346456692913385,
            "duration": 0.04385966666666263,
            "ticks": 15552,
            "durationTicks": 16
          },
          {
            "time": 43.026333,
            "midi": 53,
            "name": "F3",
            "velocity": 0.8346456692913385,
            "duration": 0.04385966666666263,
            "ticks": 15696,
            "durationTicks": 16
          },
          {
            "time": 43.157912,
            "midi": 56,
            "name": "G#3",
            "velocity": 0.8346456692913385,
            "duration": 0.04385966666666263,
            "ticks": 15744,
            "durationTicks": 16
          },
          {
            "time": 43.42107,
            "midi": 56,
            "name": "G#3",
            "velocity": 0.8346456692913385,
            "duration": 0.04385966666666263,
            "ticks": 15840,
            "durationTicks": 16
          },
          {
            "time": 43.684228,
            "midi": 56,
            "name": "G#3",
            "velocity": 0.8346456692913385,
            "duration": 0.04385966666666974,
            "ticks": 15936,
            "durationTicks": 16
          },
          {
            "time": 43.815807,
            "midi": 58,
            "name": "A#3",
            "velocity": 0.8346456692913385,
            "duration": 0.04385966666666263,
            "ticks": 15984,
            "durationTicks": 16
          },
          {
            "time": 44.342123,
            "midi": 56,
            "name": "G#3",
            "velocity": 0.8346456692913385,
            "duration": 0.04385966666666263,
            "ticks": 16176,
            "durationTicks": 16
          },
          {
            "time": 44.73686,
            "midi": 56,
            "name": "G#3",
            "velocity": 0.8346456692913385,
            "duration": 0.04385966666666263,
            "ticks": 16320,
            "durationTicks": 16
          },
          {
            "time": 45.131597,
            "midi": 53,
            "name": "F3",
            "velocity": 0.8346456692913385,
            "duration": 0.04385966666666263,
            "ticks": 16464,
            "durationTicks": 16
          },
          {
            "time": 45.263176,
            "midi": 56,
            "name": "G#3",
            "velocity": 0.8346456692913385,
            "duration": 0.04385966666666263,
            "ticks": 16512,
            "durationTicks": 16
          },
          {
            "time": 45.526334,
            "midi": 56,
            "name": "G#3",
            "velocity": 0.8346456692913385,
            "duration": 0.04385966666666263,
            "ticks": 16608,
            "durationTicks": 16
          },
          {
            "time": 46.05265,
            "midi": 51,
            "name": "D#3",
            "velocity": 0.8346456692913385,
            "duration": 0.04385966666666263,
            "ticks": 16800,
            "durationTicks": 16
          },
          {
            "time": 46.184229,
            "midi": 53,
            "name": "F3",
            "velocity": 0.8346456692913385,
            "duration": 0.04385966666666263,
            "ticks": 16848,
            "durationTicks": 16
          },
          {
            "time": 46.447387,
            "midi": 56,
            "name": "G#3",
            "velocity": 0.8346456692913385,
            "duration": 0.04385966666666263,
            "ticks": 16944,
            "durationTicks": 16
          },
          {
            "time": 46.842124,
            "midi": 56,
            "name": "G#3",
            "velocity": 0.8346456692913385,
            "duration": 0.04385966666666974,
            "ticks": 17088,
            "durationTicks": 16
          },
          {
            "time": 47.236861,
            "midi": 53,
            "name": "F3",
            "velocity": 0.8346456692913385,
            "duration": 0.04385966666666974,
            "ticks": 17232,
            "durationTicks": 16
          },
          {
            "time": 47.36844,
            "midi": 56,
            "name": "G#3",
            "velocity": 0.8346456692913385,
            "duration": 0.04385966666666263,
            "ticks": 17280,
            "durationTicks": 16
          },
          {
            "time": 47.631598000000004,
            "midi": 56,
            "name": "G#3",
            "velocity": 0.8346456692913385,
            "duration": 0.04385966666666263,
            "ticks": 17376,
            "durationTicks": 16
          },
          {
            "time": 48.026335,
            "midi": 56,
            "name": "G#3",
            "velocity": 0.8346456692913385,
            "duration": 0.04385966666666263,
            "ticks": 17520,
            "durationTicks": 16
          },
          {
            "time": 48.289493,
            "midi": 56,
            "name": "G#3",
            "velocity": 0.8346456692913385,
            "duration": 0.04385966666666263,
            "ticks": 17616,
            "durationTicks": 16
          },
          {
            "time": 48.552651,
            "midi": 56,
            "name": "G#3",
            "velocity": 0.8346456692913385,
            "duration": 0.04385966666666974,
            "ticks": 17712,
            "durationTicks": 16
          },
          {
            "time": 48.947388000000004,
            "midi": 56,
            "name": "G#3",
            "velocity": 0.8346456692913385,
            "duration": 0.04385966666666263,
            "ticks": 17856,
            "durationTicks": 16
          },
          {
            "time": 49.342125,
            "midi": 53,
            "name": "F3",
            "velocity": 0.8346456692913385,
            "duration": 0.04385966666666263,
            "ticks": 18000,
            "durationTicks": 16
          },
          {
            "time": 49.473704,
            "midi": 56,
            "name": "G#3",
            "velocity": 0.8346456692913385,
            "duration": 0.04385966666666974,
            "ticks": 18048,
            "durationTicks": 16
          },
          {
            "time": 49.868441,
            "midi": 56,
            "name": "G#3",
            "velocity": 0.8346456692913385,
            "duration": 0.04385966666666974,
            "ticks": 18192,
            "durationTicks": 16
          },
          {
            "time": 50.263178,
            "midi": 53,
            "name": "F3",
            "velocity": 0.8346456692913385,
            "duration": 0.04385966666666263,
            "ticks": 18336,
            "durationTicks": 16
          },
          {
            "time": 50.394757,
            "midi": 56,
            "name": "G#3",
            "velocity": 0.8346456692913385,
            "duration": 0.04385966666666974,
            "ticks": 18384,
            "durationTicks": 16
          },
          {
            "time": 50.657915,
            "midi": 56,
            "name": "G#3",
            "velocity": 0.8346456692913385,
            "duration": 0.04385966666666263,
            "ticks": 18480,
            "durationTicks": 16
          },
          {
            "time": 51.052652,
            "midi": 56,
            "name": "G#3",
            "velocity": 0.8346456692913385,
            "duration": 0.04385966666666263,
            "ticks": 18624,
            "durationTicks": 16
          },
          {
            "time": 51.447389,
            "midi": 53,
            "name": "F3",
            "velocity": 0.8346456692913385,
            "duration": 0.04385966666666263,
            "ticks": 18768,
            "durationTicks": 16
          },
          {
            "time": 51.578968,
            "midi": 56,
            "name": "G#3",
            "velocity": 0.8346456692913385,
            "duration": 0.04385966666666263,
            "ticks": 18816,
            "durationTicks": 16
          },
          {
            "time": 51.842126,
            "midi": 56,
            "name": "G#3",
            "velocity": 0.8346456692913385,
            "duration": 0.04385966666666263,
            "ticks": 18912,
            "durationTicks": 16
          },
          {
            "time": 52.105284,
            "midi": 56,
            "name": "G#3",
            "velocity": 0.8346456692913385,
            "duration": 0.04385966666666974,
            "ticks": 19008,
            "durationTicks": 16
          },
          {
            "time": 52.236863,
            "midi": 58,
            "name": "A#3",
            "velocity": 0.8346456692913385,
            "duration": 0.04385966666666263,
            "ticks": 19056,
            "durationTicks": 16
          },
          {
            "time": 52.763179,
            "midi": 56,
            "name": "G#3",
            "velocity": 0.8346456692913385,
            "duration": 0.04385966666666263,
            "ticks": 19248,
            "durationTicks": 16
          },
          {
            "time": 53.157916,
            "midi": 56,
            "name": "G#3",
            "velocity": 0.8346456692913385,
            "duration": 0.04385966666666263,
            "ticks": 19392,
            "durationTicks": 16
          },
          {
            "time": 53.552653,
            "midi": 53,
            "name": "F3",
            "velocity": 0.8346456692913385,
            "duration": 0.04385966666666263,
            "ticks": 19536,
            "durationTicks": 16
          },
          {
            "time": 53.684232,
            "midi": 56,
            "name": "G#3",
            "velocity": 0.8346456692913385,
            "duration": 0.04385966666666263,
            "ticks": 19584,
            "durationTicks": 16
          },
          {
            "time": 53.94739,
            "midi": 56,
            "name": "G#3",
            "velocity": 0.8346456692913385,
            "duration": 0.04385966666666263,
            "ticks": 19680,
            "durationTicks": 16
          },
          {
            "time": 54.473706,
            "midi": 51,
            "name": "D#3",
            "velocity": 0.8346456692913385,
            "duration": 0.04385966666666263,
            "ticks": 19872,
            "durationTicks": 16
          },
          {
            "time": 54.605285,
            "midi": 53,
            "name": "F3",
            "velocity": 0.8346456692913385,
            "duration": 0.04385966666666263,
            "ticks": 19920,
            "durationTicks": 16
          },
          {
            "time": 54.868443,
            "midi": 56,
            "name": "G#3",
            "velocity": 0.8346456692913385,
            "duration": 0.04385966666666263,
            "ticks": 20016,
            "durationTicks": 16
          },
          {
            "time": 55.26318,
            "midi": 56,
            "name": "G#3",
            "velocity": 0.8346456692913385,
            "duration": 0.04385966666666974,
            "ticks": 20160,
            "durationTicks": 16
          },
          {
            "time": 55.657917,
            "midi": 53,
            "name": "F3",
            "velocity": 0.8346456692913385,
            "duration": 0.04385966666666974,
            "ticks": 20304,
            "durationTicks": 16
          },
          {
            "time": 55.789496,
            "midi": 56,
            "name": "G#3",
            "velocity": 0.8346456692913385,
            "duration": 0.04385966666666263,
            "ticks": 20352,
            "durationTicks": 16
          },
          {
            "time": 56.052654000000004,
            "midi": 56,
            "name": "G#3",
            "velocity": 0.8346456692913385,
            "duration": 0.04385966666666263,
            "ticks": 20448,
            "durationTicks": 16
          },
          {
            "time": 56.447391,
            "midi": 56,
            "name": "G#3",
            "velocity": 0.8346456692913385,
            "duration": 0.04385966666666263,
            "ticks": 20592,
            "durationTicks": 16
          },
          {
            "time": 56.710549,
            "midi": 56,
            "name": "G#3",
            "velocity": 0.8346456692913385,
            "duration": 0.04385966666666263,
            "ticks": 20688,
            "durationTicks": 16
          },
          {
            "time": 56.973707,
            "midi": 56,
            "name": "G#3",
            "velocity": 0.8346456692913385,
            "duration": 0.04385966666666974,
            "ticks": 20784,
            "durationTicks": 16
          },
          {
            "time": 57.368444000000004,
            "midi": 56,
            "name": "G#3",
            "velocity": 0.8346456692913385,
            "duration": 0.04385966666666263,
            "ticks": 20928,
            "durationTicks": 16
          },
          {
            "time": 57.763181,
            "midi": 53,
            "name": "F3",
            "velocity": 0.8346456692913385,
            "duration": 0.04385966666666263,
            "ticks": 21072,
            "durationTicks": 16
          },
          {
            "time": 57.89476,
            "midi": 56,
            "name": "G#3",
            "velocity": 0.8346456692913385,
            "duration": 0.04385966666666974,
            "ticks": 21120,
            "durationTicks": 16
          },
          {
            "time": 58.289497,
            "midi": 56,
            "name": "G#3",
            "velocity": 0.8346456692913385,
            "duration": 0.04385966666666974,
            "ticks": 21264,
            "durationTicks": 16
          },
          {
            "time": 58.684234000000004,
            "midi": 53,
            "name": "F3",
            "velocity": 0.8346456692913385,
            "duration": 0.04385966666666263,
            "ticks": 21408,
            "durationTicks": 16
          },
          {
            "time": 58.815813,
            "midi": 56,
            "name": "G#3",
            "velocity": 0.8346456692913385,
            "duration": 0.04385966666666974,
            "ticks": 21456,
            "durationTicks": 16
          },
          {
            "time": 59.078971,
            "midi": 56,
            "name": "G#3",
            "velocity": 0.8346456692913385,
            "duration": 0.04385966666666263,
            "ticks": 21552,
            "durationTicks": 16
          },
          {
            "time": 59.473708,
            "midi": 56,
            "name": "G#3",
            "velocity": 0.8346456692913385,
            "duration": 0.04385966666666263,
            "ticks": 21696,
            "durationTicks": 16
          },
          {
            "time": 59.868445,
            "midi": 53,
            "name": "F3",
            "velocity": 0.8346456692913385,
            "duration": 0.04385966666666263,
            "ticks": 21840,
            "durationTicks": 16
          },
          {
            "time": 60.000024,
            "midi": 56,
            "name": "G#3",
            "velocity": 0.8346456692913385,
            "duration": 0.04385966666666263,
            "ticks": 21888,
            "durationTicks": 16
          },
          {
            "time": 60.263182,
            "midi": 56,
            "name": "G#3",
            "velocity": 0.8346456692913385,
            "duration": 0.04385966666666263,
            "ticks": 21984,
            "durationTicks": 16
          },
          {
            "time": 60.52634,
            "midi": 56,
            "name": "G#3",
            "velocity": 0.8346456692913385,
            "duration": 0.04385966666666974,
            "ticks": 22080,
            "durationTicks": 16
          },
          {
            "time": 60.657919,
            "midi": 58,
            "name": "A#3",
            "velocity": 0.8346456692913385,
            "duration": 0.04385966666666263,
            "ticks": 22128,
            "durationTicks": 16
          },
          {
            "time": 61.184235,
            "midi": 56,
            "name": "G#3",
            "velocity": 0.8346456692913385,
            "duration": 0.04385966666666263,
            "ticks": 22320,
            "durationTicks": 16
          },
          {
            "time": 61.578972,
            "midi": 56,
            "name": "G#3",
            "velocity": 0.8346456692913385,
            "duration": 0.04385966666666263,
            "ticks": 22464,
            "durationTicks": 16
          },
          {
            "time": 61.973709,
            "midi": 53,
            "name": "F3",
            "velocity": 0.8346456692913385,
            "duration": 0.04385966666666263,
            "ticks": 22608,
            "durationTicks": 16
          },
          {
            "time": 62.105288,
            "midi": 56,
            "name": "G#3",
            "velocity": 0.8346456692913385,
            "duration": 0.04385966666666263,
            "ticks": 22656,
            "durationTicks": 16
          },
          {
            "time": 62.368446,
            "midi": 56,
            "name": "G#3",
            "velocity": 0.8346456692913385,
            "duration": 0.04385966666666263,
            "ticks": 22752,
            "durationTicks": 16
          },
          {
            "time": 62.894762,
            "midi": 51,
            "name": "D#3",
            "velocity": 0.8346456692913385,
            "duration": 0.04385966666666263,
            "ticks": 22944,
            "durationTicks": 16
          },
          {
            "time": 63.026341,
            "midi": 53,
            "name": "F3",
            "velocity": 0.8346456692913385,
            "duration": 0.04385966666666263,
            "ticks": 22992,
            "durationTicks": 16
          },
          {
            "time": 63.289499,
            "midi": 56,
            "name": "G#3",
            "velocity": 0.8346456692913385,
            "duration": 0.04385966666666263,
            "ticks": 23088,
            "durationTicks": 16
          },
          {
            "time": 63.684236,
            "midi": 56,
            "name": "G#3",
            "velocity": 0.8346456692913385,
            "duration": 0.04385966666666974,
            "ticks": 23232,
            "durationTicks": 16
          },
          {
            "time": 64.078973,
            "midi": 53,
            "name": "F3",
            "velocity": 0.8346456692913385,
            "duration": 0.04385966666666263,
            "ticks": 23376,
            "durationTicks": 16
          },
          {
            "time": 64.210552,
            "midi": 56,
            "name": "G#3",
            "velocity": 0.8346456692913385,
            "duration": 0.04385966666666263,
            "ticks": 23424,
            "durationTicks": 16
          },
          {
            "time": 64.47371,
            "midi": 56,
            "name": "G#3",
            "velocity": 0.8346456692913385,
            "duration": 0.04385966666666263,
            "ticks": 23520,
            "durationTicks": 16
          },
          {
            "time": 64.868447,
            "midi": 56,
            "name": "G#3",
            "velocity": 0.8346456692913385,
            "duration": 0.04385966666666263,
            "ticks": 23664,
            "durationTicks": 16
          },
          {
            "time": 65.13160500000001,
            "midi": 56,
            "name": "G#3",
            "velocity": 0.8346456692913385,
            "duration": 0.04385966666666263,
            "ticks": 23760,
            "durationTicks": 16
          },
          {
            "time": 65.394763,
            "midi": 56,
            "name": "G#3",
            "velocity": 0.8346456692913385,
            "duration": 0.04385966666666263,
            "ticks": 23856,
            "durationTicks": 16
          },
          {
            "time": 65.7895,
            "midi": 56,
            "name": "G#3",
            "velocity": 0.8346456692913385,
            "duration": 0.04385966666666263,
            "ticks": 24000,
            "durationTicks": 16
          },
          {
            "time": 66.184237,
            "midi": 53,
            "name": "F3",
            "velocity": 0.8346456692913385,
            "duration": 0.04385966666666263,
            "ticks": 24144,
            "durationTicks": 16
          },
          {
            "time": 66.315816,
            "midi": 56,
            "name": "G#3",
            "velocity": 0.8346456692913385,
            "duration": 0.04385966666666263,
            "ticks": 24192,
            "durationTicks": 16
          },
          {
            "time": 66.710553,
            "midi": 56,
            "name": "G#3",
            "velocity": 0.8346456692913385,
            "duration": 0.04385966666666263,
            "ticks": 24336,
            "durationTicks": 16
          },
          {
            "time": 67.10529,
            "midi": 53,
            "name": "F3",
            "velocity": 0.8346456692913385,
            "duration": 0.04385966666666263,
            "ticks": 24480,
            "durationTicks": 16
          },
          {
            "time": 67.236869,
            "midi": 56,
            "name": "G#3",
            "velocity": 0.8346456692913385,
            "duration": 0.04385966666666263,
            "ticks": 24528,
            "durationTicks": 16
          },
          {
            "time": 67.500027,
            "midi": 56,
            "name": "G#3",
            "velocity": 0.8346456692913385,
            "duration": 0.04385966666666263,
            "ticks": 24624,
            "durationTicks": 16
          },
          {
            "time": 67.894764,
            "midi": 56,
            "name": "G#3",
            "velocity": 0.8346456692913385,
            "duration": 0.043859666666676844,
            "ticks": 24768,
            "durationTicks": 16
          },
          {
            "time": 68.289501,
            "midi": 53,
            "name": "F3",
            "velocity": 0.8346456692913385,
            "duration": 0.043859666666676844,
            "ticks": 24912,
            "durationTicks": 16
          },
          {
            "time": 68.42108,
            "midi": 56,
            "name": "G#3",
            "velocity": 0.8346456692913385,
            "duration": 0.04385966666666263,
            "ticks": 24960,
            "durationTicks": 16
          },
          {
            "time": 68.68423800000001,
            "midi": 56,
            "name": "G#3",
            "velocity": 0.8346456692913385,
            "duration": 0.04385966666666263,
            "ticks": 25056,
            "durationTicks": 16
          },
          {
            "time": 68.947396,
            "midi": 56,
            "name": "G#3",
            "velocity": 0.8346456692913385,
            "duration": 0.043859666666676844,
            "ticks": 25152,
            "durationTicks": 16
          },
          {
            "time": 69.078975,
            "midi": 58,
            "name": "A#3",
            "velocity": 0.8346456692913385,
            "duration": 0.043859666666676844,
            "ticks": 25200,
            "durationTicks": 16
          },
          {
            "time": 69.605291,
            "midi": 56,
            "name": "G#3",
            "velocity": 0.8346456692913385,
            "duration": 0.043859666666676844,
            "ticks": 25392,
            "durationTicks": 16
          },
          {
            "time": 70.000028,
            "midi": 56,
            "name": "G#3",
            "velocity": 0.8346456692913385,
            "duration": 0.043859666666676844,
            "ticks": 25536,
            "durationTicks": 16
          },
          {
            "time": 70.394765,
            "midi": 53,
            "name": "F3",
            "velocity": 0.8346456692913385,
            "duration": 0.04385966666666263,
            "ticks": 25680,
            "durationTicks": 16
          },
          {
            "time": 70.526344,
            "midi": 56,
            "name": "G#3",
            "velocity": 0.8346456692913385,
            "duration": 0.043859666666676844,
            "ticks": 25728,
            "durationTicks": 16
          },
          {
            "time": 70.789502,
            "midi": 56,
            "name": "G#3",
            "velocity": 0.8346456692913385,
            "duration": 0.043859666666676844,
            "ticks": 25824,
            "durationTicks": 16
          },
          {
            "time": 71.31581800000001,
            "midi": 51,
            "name": "D#3",
            "velocity": 0.8346456692913385,
            "duration": 0.04385966666666263,
            "ticks": 26016,
            "durationTicks": 16
          },
          {
            "time": 71.447397,
            "midi": 53,
            "name": "F3",
            "velocity": 0.8346456692913385,
            "duration": 0.043859666666676844,
            "ticks": 26064,
            "durationTicks": 16
          },
          {
            "time": 71.710555,
            "midi": 56,
            "name": "G#3",
            "velocity": 0.8346456692913385,
            "duration": 0.043859666666676844,
            "ticks": 26160,
            "durationTicks": 16
          },
          {
            "time": 72.105292,
            "midi": 56,
            "name": "G#3",
            "velocity": 0.8346456692913385,
            "duration": 0.04385966666666263,
            "ticks": 26304,
            "durationTicks": 16
          },
          {
            "time": 72.500029,
            "midi": 53,
            "name": "F3",
            "velocity": 0.8346456692913385,
            "duration": 0.043859666666676844,
            "ticks": 26448,
            "durationTicks": 16
          },
          {
            "time": 72.631608,
            "midi": 56,
            "name": "G#3",
            "velocity": 0.8346456692913385,
            "duration": 0.043859666666676844,
            "ticks": 26496,
            "durationTicks": 16
          },
          {
            "time": 72.894766,
            "midi": 56,
            "name": "G#3",
            "velocity": 0.8346456692913385,
            "duration": 0.04385966666666263,
            "ticks": 26592,
            "durationTicks": 16
          },
          {
            "time": 73.289503,
            "midi": 56,
            "name": "G#3",
            "velocity": 0.8346456692913385,
            "duration": 0.043859666666676844,
            "ticks": 26736,
            "durationTicks": 16
          },
          {
            "time": 73.552661,
            "midi": 56,
            "name": "G#3",
            "velocity": 0.8346456692913385,
            "duration": 0.043859666666676844,
            "ticks": 26832,
            "durationTicks": 16
          },
          {
            "time": 73.815819,
            "midi": 56,
            "name": "G#3",
            "velocity": 0.8346456692913385,
            "duration": 0.04385966666666263,
            "ticks": 26928,
            "durationTicks": 16
          },
          {
            "time": 74.210556,
            "midi": 56,
            "name": "G#3",
            "velocity": 0.8346456692913385,
            "duration": 0.043859666666676844,
            "ticks": 27072,
            "durationTicks": 16
          },
          {
            "time": 74.605293,
            "midi": 53,
            "name": "F3",
            "velocity": 0.8346456692913385,
            "duration": 0.04385966666666263,
            "ticks": 27216,
            "durationTicks": 16
          },
          {
            "time": 74.736872,
            "midi": 56,
            "name": "G#3",
            "velocity": 0.8346456692913385,
            "duration": 0.04385966666666263,
            "ticks": 27264,
            "durationTicks": 16
          },
          {
            "time": 75.131609,
            "midi": 56,
            "name": "G#3",
            "velocity": 0.8346456692913385,
            "duration": 0.043859666666676844,
            "ticks": 27408,
            "durationTicks": 16
          },
          {
            "time": 75.526346,
            "midi": 53,
            "name": "F3",
            "velocity": 0.8346456692913385,
            "duration": 0.04385966666666263,
            "ticks": 27552,
            "durationTicks": 16
          },
          {
            "time": 75.657925,
            "midi": 56,
            "name": "G#3",
            "velocity": 0.8346456692913385,
            "duration": 0.04385966666666263,
            "ticks": 27600,
            "durationTicks": 16
          },
          {
            "time": 75.921083,
            "midi": 56,
            "name": "G#3",
            "velocity": 0.8346456692913385,
            "duration": 0.043859666666676844,
            "ticks": 27696,
            "durationTicks": 16
          },
          {
            "time": 76.31582,
            "midi": 56,
            "name": "G#3",
            "velocity": 0.8346456692913385,
            "duration": 0.043859666666676844,
            "ticks": 27840,
            "durationTicks": 16
          },
          {
            "time": 76.710557,
            "midi": 53,
            "name": "F3",
            "velocity": 0.8346456692913385,
            "duration": 0.043859666666676844,
            "ticks": 27984,
            "durationTicks": 16
          },
          {
            "time": 76.842136,
            "midi": 56,
            "name": "G#3",
            "velocity": 0.8346456692913385,
            "duration": 0.043859666666676844,
            "ticks": 28032,
            "durationTicks": 16
          },
          {
            "time": 77.105294,
            "midi": 56,
            "name": "G#3",
            "velocity": 0.8346456692913385,
            "duration": 0.043859666666676844,
            "ticks": 28128,
            "durationTicks": 16
          },
          {
            "time": 77.368452,
            "midi": 56,
            "name": "G#3",
            "velocity": 0.8346456692913385,
            "duration": 0.04385966666666263,
            "ticks": 28224,
            "durationTicks": 16
          },
          {
            "time": 77.500031,
            "midi": 58,
            "name": "A#3",
            "velocity": 0.8346456692913385,
            "duration": 0.04385966666666263,
            "ticks": 28272,
            "durationTicks": 16
          },
          {
            "time": 78.026347,
            "midi": 56,
            "name": "G#3",
            "velocity": 0.8346456692913385,
            "duration": 0.043859666666676844,
            "ticks": 28464,
            "durationTicks": 16
          },
          {
            "time": 78.42108400000001,
            "midi": 56,
            "name": "G#3",
            "velocity": 0.8346456692913385,
            "duration": 0.04385966666666263,
            "ticks": 28608,
            "durationTicks": 16
          },
          {
            "time": 78.815821,
            "midi": 53,
            "name": "F3",
            "velocity": 0.8346456692913385,
            "duration": 0.043859666666676844,
            "ticks": 28752,
            "durationTicks": 16
          },
          {
            "time": 78.9474,
            "midi": 56,
            "name": "G#3",
            "velocity": 0.8346456692913385,
            "duration": 0.043859666666676844,
            "ticks": 28800,
            "durationTicks": 16
          },
          {
            "time": 79.210558,
            "midi": 56,
            "name": "G#3",
            "velocity": 0.8346456692913385,
            "duration": 0.04385966666666263,
            "ticks": 28896,
            "durationTicks": 16
          },
          {
            "time": 79.736874,
            "midi": 51,
            "name": "D#3",
            "velocity": 0.8346456692913385,
            "duration": 0.043859666666676844,
            "ticks": 29088,
            "durationTicks": 16
          },
          {
            "time": 79.868453,
            "midi": 53,
            "name": "F3",
            "velocity": 0.8346456692913385,
            "duration": 0.043859666666676844,
            "ticks": 29136,
            "durationTicks": 16
          },
          {
            "time": 80.131611,
            "midi": 56,
            "name": "G#3",
            "velocity": 0.8346456692913385,
            "duration": 0.04385966666666263,
            "ticks": 29232,
            "durationTicks": 16
          },
          {
            "time": 80.526348,
            "midi": 56,
            "name": "G#3",
            "velocity": 0.8346456692913385,
            "duration": 0.043859666666676844,
            "ticks": 29376,
            "durationTicks": 16
          },
          {
            "time": 80.921085,
            "midi": 53,
            "name": "F3",
            "velocity": 0.8346456692913385,
            "duration": 0.04385966666666263,
            "ticks": 29520,
            "durationTicks": 16
          },
          {
            "time": 81.05266400000001,
            "midi": 56,
            "name": "G#3",
            "velocity": 0.8346456692913385,
            "duration": 0.04385966666666263,
            "ticks": 29568,
            "durationTicks": 16
          },
          {
            "time": 81.315822,
            "midi": 56,
            "name": "G#3",
            "velocity": 0.8346456692913385,
            "duration": 0.043859666666676844,
            "ticks": 29664,
            "durationTicks": 16
          },
          {
            "time": 81.710559,
            "midi": 56,
            "name": "G#3",
            "velocity": 0.8346456692913385,
            "duration": 0.04385966666666263,
            "ticks": 29808,
            "durationTicks": 16
          },
          {
            "time": 81.97371700000001,
            "midi": 56,
            "name": "G#3",
            "velocity": 0.8346456692913385,
            "duration": 0.04385966666666263,
            "ticks": 29904,
            "durationTicks": 16
          },
          {
            "time": 82.236875,
            "midi": 56,
            "name": "G#3",
            "velocity": 0.8346456692913385,
            "duration": 0.043859666666676844,
            "ticks": 30000,
            "durationTicks": 16
          },
          {
            "time": 82.631612,
            "midi": 56,
            "name": "G#3",
            "velocity": 0.8346456692913385,
            "duration": 0.04385966666666263,
            "ticks": 30144,
            "durationTicks": 16
          },
          {
            "time": 83.026349,
            "midi": 53,
            "name": "F3",
            "velocity": 0.8346456692913385,
            "duration": 0.043859666666676844,
            "ticks": 30288,
            "durationTicks": 16
          },
          {
            "time": 83.157928,
            "midi": 56,
            "name": "G#3",
            "velocity": 0.8346456692913385,
            "duration": 0.043859666666676844,
            "ticks": 30336,
            "durationTicks": 16
          },
          {
            "time": 83.552665,
            "midi": 56,
            "name": "G#3",
            "velocity": 0.8346456692913385,
            "duration": 0.04385966666666263,
            "ticks": 30480,
            "durationTicks": 16
          },
          {
            "time": 83.947402,
            "midi": 53,
            "name": "F3",
            "velocity": 0.8346456692913385,
            "duration": 0.043859666666676844,
            "ticks": 30624,
            "durationTicks": 16
          },
          {
            "time": 84.078981,
            "midi": 56,
            "name": "G#3",
            "velocity": 0.8346456692913385,
            "duration": 0.043859666666676844,
            "ticks": 30672,
            "durationTicks": 16
          },
          {
            "time": 84.342139,
            "midi": 56,
            "name": "G#3",
            "velocity": 0.8346456692913385,
            "duration": 0.04385966666666263,
            "ticks": 30768,
            "durationTicks": 16
          },
          {
            "time": 84.736876,
            "midi": 56,
            "name": "G#3",
            "velocity": 0.8346456692913385,
            "duration": 0.043859666666676844,
            "ticks": 30912,
            "durationTicks": 16
          },
          {
            "time": 85.131613,
            "midi": 53,
            "name": "F3",
            "velocity": 0.8346456692913385,
            "duration": 0.043859666666676844,
            "ticks": 31056,
            "durationTicks": 16
          },
          {
            "time": 85.263192,
            "midi": 56,
            "name": "G#3",
            "velocity": 0.8346456692913385,
            "duration": 0.04385966666666263,
            "ticks": 31104,
            "durationTicks": 16
          },
          {
            "time": 85.52635000000001,
            "midi": 56,
            "name": "G#3",
            "velocity": 0.8346456692913385,
            "duration": 0.04385966666666263,
            "ticks": 31200,
            "durationTicks": 16
          },
          {
            "time": 85.789508,
            "midi": 56,
            "name": "G#3",
            "velocity": 0.8346456692913385,
            "duration": 0.043859666666676844,
            "ticks": 31296,
            "durationTicks": 16
          },
          {
            "time": 85.921087,
            "midi": 58,
            "name": "A#3",
            "velocity": 0.8346456692913385,
            "duration": 0.043859666666676844,
            "ticks": 31344,
            "durationTicks": 16
          },
          {
            "time": 86.447403,
            "midi": 56,
            "name": "G#3",
            "velocity": 0.8346456692913385,
            "duration": 0.043859666666676844,
            "ticks": 31536,
            "durationTicks": 16
          },
          {
            "time": 86.84214,
            "midi": 56,
            "name": "G#3",
            "velocity": 0.8346456692913385,
            "duration": 0.043859666666676844,
            "ticks": 31680,
            "durationTicks": 16
          },
          {
            "time": 87.236877,
            "midi": 53,
            "name": "F3",
            "velocity": 0.8346456692913385,
            "duration": 0.04385966666666263,
            "ticks": 31824,
            "durationTicks": 16
          },
          {
            "time": 87.368456,
            "midi": 56,
            "name": "G#3",
            "velocity": 0.8346456692913385,
            "duration": 0.043859666666676844,
            "ticks": 31872,
            "durationTicks": 16
          },
          {
            "time": 87.631614,
            "midi": 56,
            "name": "G#3",
            "velocity": 0.8346456692913385,
            "duration": 0.043859666666676844,
            "ticks": 31968,
            "durationTicks": 16
          },
          {
            "time": 88.15793000000001,
            "midi": 51,
            "name": "D#3",
            "velocity": 0.8346456692913385,
            "duration": 0.04385966666666263,
            "ticks": 32160,
            "durationTicks": 16
          },
          {
            "time": 88.289509,
            "midi": 53,
            "name": "F3",
            "velocity": 0.8346456692913385,
            "duration": 0.043859666666676844,
            "ticks": 32208,
            "durationTicks": 16
          },
          {
            "time": 88.552667,
            "midi": 56,
            "name": "G#3",
            "velocity": 0.8346456692913385,
            "duration": 0.043859666666676844,
            "ticks": 32304,
            "durationTicks": 16
          },
          {
            "time": 88.947404,
            "midi": 56,
            "name": "G#3",
            "velocity": 0.8346456692913385,
            "duration": 0.04385966666666263,
            "ticks": 32448,
            "durationTicks": 16
          },
          {
            "time": 89.342141,
            "midi": 53,
            "name": "F3",
            "velocity": 0.8346456692913385,
            "duration": 0.043859666666676844,
            "ticks": 32592,
            "durationTicks": 16
          },
          {
            "time": 89.47372,
            "midi": 56,
            "name": "G#3",
            "velocity": 0.8346456692913385,
            "duration": 0.043859666666676844,
            "ticks": 32640,
            "durationTicks": 16
          },
          {
            "time": 89.736878,
            "midi": 56,
            "name": "G#3",
            "velocity": 0.8346456692913385,
            "duration": 0.04385966666666263,
            "ticks": 32736,
            "durationTicks": 16
          },
          {
            "time": 90.131615,
            "midi": 56,
            "name": "G#3",
            "velocity": 0.8346456692913385,
            "duration": 0.043859666666676844,
            "ticks": 32880,
            "durationTicks": 16
          },
          {
            "time": 90.394773,
            "midi": 56,
            "name": "G#3",
            "velocity": 0.8346456692913385,
            "duration": 0.043859666666676844,
            "ticks": 32976,
            "durationTicks": 16
          },
          {
            "time": 90.657931,
            "midi": 56,
            "name": "G#3",
            "velocity": 0.8346456692913385,
            "duration": 0.04385966666666263,
            "ticks": 33072,
            "durationTicks": 16
          },
          {
            "time": 91.052668,
            "midi": 56,
            "name": "G#3",
            "velocity": 0.8346456692913385,
            "duration": 0.043859666666676844,
            "ticks": 33216,
            "durationTicks": 16
          },
          {
            "time": 91.447405,
            "midi": 53,
            "name": "F3",
            "velocity": 0.8346456692913385,
            "duration": 0.04385966666666263,
            "ticks": 33360,
            "durationTicks": 16
          },
          {
            "time": 91.578984,
            "midi": 56,
            "name": "G#3",
            "velocity": 0.8346456692913385,
            "duration": 0.04385966666666263,
            "ticks": 33408,
            "durationTicks": 16
          },
          {
            "time": 91.973721,
            "midi": 56,
            "name": "G#3",
            "velocity": 0.8346456692913385,
            "duration": 0.043859666666676844,
            "ticks": 33552,
            "durationTicks": 16
          },
          {
            "time": 92.368458,
            "midi": 53,
            "name": "F3",
            "velocity": 0.8346456692913385,
            "duration": 0.04385966666666263,
            "ticks": 33696,
            "durationTicks": 16
          },
          {
            "time": 92.500037,
            "midi": 56,
            "name": "G#3",
            "velocity": 0.8346456692913385,
            "duration": 0.04385966666666263,
            "ticks": 33744,
            "durationTicks": 16
          },
          {
            "time": 92.763195,
            "midi": 56,
            "name": "G#3",
            "velocity": 0.8346456692913385,
            "duration": 0.043859666666676844,
            "ticks": 33840,
            "durationTicks": 16
          },
          {
            "time": 93.157932,
            "midi": 56,
            "name": "G#3",
            "velocity": 0.8346456692913385,
            "duration": 0.043859666666676844,
            "ticks": 33984,
            "durationTicks": 16
          },
          {
            "time": 93.552669,
            "midi": 53,
            "name": "F3",
            "velocity": 0.8346456692913385,
            "duration": 0.043859666666676844,
            "ticks": 34128,
            "durationTicks": 16
          },
          {
            "time": 93.684248,
            "midi": 56,
            "name": "G#3",
            "velocity": 0.8346456692913385,
            "duration": 0.043859666666676844,
            "ticks": 34176,
            "durationTicks": 16
          },
          {
            "time": 93.947406,
            "midi": 56,
            "name": "G#3",
            "velocity": 0.8346456692913385,
            "duration": 0.043859666666676844,
            "ticks": 34272,
            "durationTicks": 16
          },
          {
            "time": 94.210564,
            "midi": 56,
            "name": "G#3",
            "velocity": 0.8346456692913385,
            "duration": 0.04385966666666263,
            "ticks": 34368,
            "durationTicks": 16
          },
          {
            "time": 94.34214300000001,
            "midi": 58,
            "name": "A#3",
            "velocity": 0.8346456692913385,
            "duration": 0.04385966666666263,
            "ticks": 34416,
            "durationTicks": 16
          },
          {
            "time": 94.868459,
            "midi": 56,
            "name": "G#3",
            "velocity": 0.8346456692913385,
            "duration": 0.043859666666676844,
            "ticks": 34608,
            "durationTicks": 16
          },
          {
            "time": 95.26319600000001,
            "midi": 56,
            "name": "G#3",
            "velocity": 0.8346456692913385,
            "duration": 0.04385966666666263,
            "ticks": 34752,
            "durationTicks": 16
          },
          {
            "time": 95.657933,
            "midi": 53,
            "name": "F3",
            "velocity": 0.8346456692913385,
            "duration": 0.043859666666676844,
            "ticks": 34896,
            "durationTicks": 16
          },
          {
            "time": 95.789512,
            "midi": 56,
            "name": "G#3",
            "velocity": 0.8346456692913385,
            "duration": 0.043859666666676844,
            "ticks": 34944,
            "durationTicks": 16
          },
          {
            "time": 96.05267,
            "midi": 56,
            "name": "G#3",
            "velocity": 0.8346456692913385,
            "duration": 0.04385966666666263,
            "ticks": 35040,
            "durationTicks": 16
          },
          {
            "time": 96.578986,
            "midi": 51,
            "name": "D#3",
            "velocity": 0.8346456692913385,
            "duration": 0.043859666666676844,
            "ticks": 35232,
            "durationTicks": 16
          },
          {
            "time": 96.710565,
            "midi": 53,
            "name": "F3",
            "velocity": 0.8346456692913385,
            "duration": 0.043859666666676844,
            "ticks": 35280,
            "durationTicks": 16
          },
          {
            "time": 96.973723,
            "midi": 56,
            "name": "G#3",
            "velocity": 0.8346456692913385,
            "duration": 0.04385966666666263,
            "ticks": 35376,
            "durationTicks": 16
          },
          {
            "time": 97.36846,
            "midi": 56,
            "name": "G#3",
            "velocity": 0.8346456692913385,
            "duration": 0.043859666666676844,
            "ticks": 35520,
            "durationTicks": 16
          },
          {
            "time": 97.763197,
            "midi": 53,
            "name": "F3",
            "velocity": 0.8346456692913385,
            "duration": 0.04385966666666263,
            "ticks": 35664,
            "durationTicks": 16
          },
          {
            "time": 97.89477600000001,
            "midi": 56,
            "name": "G#3",
            "velocity": 0.8346456692913385,
            "duration": 0.04385966666666263,
            "ticks": 35712,
            "durationTicks": 16
          },
          {
            "time": 98.157934,
            "midi": 56,
            "name": "G#3",
            "velocity": 0.8346456692913385,
            "duration": 0.043859666666676844,
            "ticks": 35808,
            "durationTicks": 16
          },
          {
            "time": 98.552671,
            "midi": 56,
            "name": "G#3",
            "velocity": 0.8346456692913385,
            "duration": 0.04385966666666263,
            "ticks": 35952,
            "durationTicks": 16
          },
          {
            "time": 98.81582900000001,
            "midi": 56,
            "name": "G#3",
            "velocity": 0.8346456692913385,
            "duration": 0.04385966666666263,
            "ticks": 36048,
            "durationTicks": 16
          },
          {
            "time": 99.078987,
            "midi": 56,
            "name": "G#3",
            "velocity": 0.8346456692913385,
            "duration": 0.043859666666676844,
            "ticks": 36144,
            "durationTicks": 16
          },
          {
            "time": 99.473724,
            "midi": 56,
            "name": "G#3",
            "velocity": 0.8346456692913385,
            "duration": 0.04385966666666263,
            "ticks": 36288,
            "durationTicks": 16
          },
          {
            "time": 99.868461,
            "midi": 53,
            "name": "F3",
            "velocity": 0.8346456692913385,
            "duration": 0.043859666666676844,
            "ticks": 36432,
            "durationTicks": 16
          },
          {
            "time": 100.00004,
            "midi": 56,
            "name": "G#3",
            "velocity": 0.8346456692913385,
            "duration": 0.043859666666676844,
            "ticks": 36480,
            "durationTicks": 16
          },
          {
            "time": 100.394777,
            "midi": 56,
            "name": "G#3",
            "velocity": 0.8346456692913385,
            "duration": 0.04385966666666263,
            "ticks": 36624,
            "durationTicks": 16
          },
          {
            "time": 100.789514,
            "midi": 53,
            "name": "F3",
            "velocity": 0.8346456692913385,
            "duration": 0.043859666666676844,
            "ticks": 36768,
            "durationTicks": 16
          },
          {
            "time": 100.921093,
            "midi": 56,
            "name": "G#3",
            "velocity": 0.8346456692913385,
            "duration": 0.043859666666676844,
            "ticks": 36816,
            "durationTicks": 16
          },
          {
            "time": 101.184251,
            "midi": 56,
            "name": "G#3",
            "velocity": 0.8346456692913385,
            "duration": 0.04385966666666263,
            "ticks": 36912,
            "durationTicks": 16
          },
          {
            "time": 101.578988,
            "midi": 56,
            "name": "G#3",
            "velocity": 0.8346456692913385,
            "duration": 0.043859666666676844,
            "ticks": 37056,
            "durationTicks": 16
          },
          {
            "time": 101.973725,
            "midi": 53,
            "name": "F3",
            "velocity": 0.8346456692913385,
            "duration": 0.043859666666676844,
            "ticks": 37200,
            "durationTicks": 16
          },
          {
            "time": 102.105304,
            "midi": 56,
            "name": "G#3",
            "velocity": 0.8346456692913385,
            "duration": 0.04385966666666263,
            "ticks": 37248,
            "durationTicks": 16
          },
          {
            "time": 102.36846200000001,
            "midi": 56,
            "name": "G#3",
            "velocity": 0.8346456692913385,
            "duration": 0.04385966666666263,
            "ticks": 37344,
            "durationTicks": 16
          },
          {
            "time": 102.63162,
            "midi": 56,
            "name": "G#3",
            "velocity": 0.8346456692913385,
            "duration": 0.043859666666676844,
            "ticks": 37440,
            "durationTicks": 16
          },
          {
            "time": 102.763199,
            "midi": 58,
            "name": "A#3",
            "velocity": 0.8346456692913385,
            "duration": 0.043859666666676844,
            "ticks": 37488,
            "durationTicks": 16
          },
          {
            "time": 103.289515,
            "midi": 56,
            "name": "G#3",
            "velocity": 0.8346456692913385,
            "duration": 0.043859666666676844,
            "ticks": 37680,
            "durationTicks": 16
          },
          {
            "time": 103.684252,
            "midi": 56,
            "name": "G#3",
            "velocity": 0.8346456692913385,
            "duration": 0.043859666666676844,
            "ticks": 37824,
            "durationTicks": 16
          },
          {
            "time": 104.078989,
            "midi": 53,
            "name": "F3",
            "velocity": 0.8346456692913385,
            "duration": 0.04385966666666263,
            "ticks": 37968,
            "durationTicks": 16
          },
          {
            "time": 104.210568,
            "midi": 56,
            "name": "G#3",
            "velocity": 0.8346456692913385,
            "duration": 0.043859666666676844,
            "ticks": 38016,
            "durationTicks": 16
          },
          {
            "time": 104.473726,
            "midi": 56,
            "name": "G#3",
            "velocity": 0.8346456692913385,
            "duration": 0.043859666666676844,
            "ticks": 38112,
            "durationTicks": 16
          },
          {
            "time": 105.00004200000001,
            "midi": 51,
            "name": "D#3",
            "velocity": 0.8346456692913385,
            "duration": 0.04385966666666263,
            "ticks": 38304,
            "durationTicks": 16
          },
          {
            "time": 105.131621,
            "midi": 53,
            "name": "F3",
            "velocity": 0.8346456692913385,
            "duration": 0.043859666666676844,
            "ticks": 38352,
            "durationTicks": 16
          },
          {
            "time": 105.394779,
            "midi": 56,
            "name": "G#3",
            "velocity": 0.8346456692913385,
            "duration": 0.043859666666676844,
            "ticks": 38448,
            "durationTicks": 16
          },
          {
            "time": 105.789516,
            "midi": 56,
            "name": "G#3",
            "velocity": 0.8346456692913385,
            "duration": 0.04385966666666263,
            "ticks": 38592,
            "durationTicks": 16
          },
          {
            "time": 106.184253,
            "midi": 53,
            "name": "F3",
            "velocity": 0.8346456692913385,
            "duration": 0.043859666666676844,
            "ticks": 38736,
            "durationTicks": 16
          },
          {
            "time": 106.315832,
            "midi": 56,
            "name": "G#3",
            "velocity": 0.8346456692913385,
            "duration": 0.043859666666676844,
            "ticks": 38784,
            "durationTicks": 16
          },
          {
            "time": 106.57899,
            "midi": 56,
            "name": "G#3",
            "velocity": 0.8346456692913385,
            "duration": 0.04385966666666263,
            "ticks": 38880,
            "durationTicks": 16
          },
          {
            "time": 106.973727,
            "midi": 56,
            "name": "G#3",
            "velocity": 0.8346456692913385,
            "duration": 0.043859666666676844,
            "ticks": 39024,
            "durationTicks": 16
          },
          {
            "time": 107.236885,
            "midi": 56,
            "name": "G#3",
            "velocity": 0.8346456692913385,
            "duration": 0.043859666666676844,
            "ticks": 39120,
            "durationTicks": 16
          },
          {
            "time": 107.500043,
            "midi": 56,
            "name": "G#3",
            "velocity": 0.8346456692913385,
            "duration": 0.04385966666666263,
            "ticks": 39216,
            "durationTicks": 16
          },
          {
            "time": 107.89478,
            "midi": 56,
            "name": "G#3",
            "velocity": 0.8346456692913385,
            "duration": 0.043859666666676844,
            "ticks": 39360,
            "durationTicks": 16
          },
          {
            "time": 108.289517,
            "midi": 53,
            "name": "F3",
            "velocity": 0.8346456692913385,
            "duration": 0.04385966666666263,
            "ticks": 39504,
            "durationTicks": 16
          },
          {
            "time": 108.421096,
            "midi": 56,
            "name": "G#3",
            "velocity": 0.8346456692913385,
            "duration": 0.04385966666666263,
            "ticks": 39552,
            "durationTicks": 16
          },
          {
            "time": 108.815833,
            "midi": 56,
            "name": "G#3",
            "velocity": 0.8346456692913385,
            "duration": 0.043859666666676844,
            "ticks": 39696,
            "durationTicks": 16
          },
          {
            "time": 109.21057,
            "midi": 53,
            "name": "F3",
            "velocity": 0.8346456692913385,
            "duration": 0.04385966666666263,
            "ticks": 39840,
            "durationTicks": 16
          },
          {
            "time": 109.342149,
            "midi": 56,
            "name": "G#3",
            "velocity": 0.8346456692913385,
            "duration": 0.04385966666666263,
            "ticks": 39888,
            "durationTicks": 16
          },
          {
            "time": 109.605307,
            "midi": 56,
            "name": "G#3",
            "velocity": 0.8346456692913385,
            "duration": 0.043859666666676844,
            "ticks": 39984,
            "durationTicks": 16
          },
          {
            "time": 110.000044,
            "midi": 56,
            "name": "G#3",
            "velocity": 0.8346456692913385,
            "duration": 0.043859666666676844,
            "ticks": 40128,
            "durationTicks": 16
          },
          {
            "time": 110.394781,
            "midi": 53,
            "name": "F3",
            "velocity": 0.8346456692913385,
            "duration": 0.043859666666676844,
            "ticks": 40272,
            "durationTicks": 16
          },
          {
            "time": 110.52636,
            "midi": 56,
            "name": "G#3",
            "velocity": 0.8346456692913385,
            "duration": 0.043859666666676844,
            "ticks": 40320,
            "durationTicks": 16
          },
          {
            "time": 110.789518,
            "midi": 56,
            "name": "G#3",
            "velocity": 0.8346456692913385,
            "duration": 0.043859666666676844,
            "ticks": 40416,
            "durationTicks": 16
          },
          {
            "time": 111.052676,
            "midi": 56,
            "name": "G#3",
            "velocity": 0.8346456692913385,
            "duration": 0.04385966666666263,
            "ticks": 40512,
            "durationTicks": 16
          },
          {
            "time": 111.18425500000001,
            "midi": 58,
            "name": "A#3",
            "velocity": 0.8346456692913385,
            "duration": 0.04385966666666263,
            "ticks": 40560,
            "durationTicks": 16
          },
          {
            "time": 111.710571,
            "midi": 56,
            "name": "G#3",
            "velocity": 0.8346456692913385,
            "duration": 0.043859666666676844,
            "ticks": 40752,
            "durationTicks": 16
          },
          {
            "time": 112.10530800000001,
            "midi": 56,
            "name": "G#3",
            "velocity": 0.8346456692913385,
            "duration": 0.04385966666666263,
            "ticks": 40896,
            "durationTicks": 16
          },
          {
            "time": 112.500045,
            "midi": 53,
            "name": "F3",
            "velocity": 0.8346456692913385,
            "duration": 0.043859666666676844,
            "ticks": 41040,
            "durationTicks": 16
          },
          {
            "time": 112.631624,
            "midi": 56,
            "name": "G#3",
            "velocity": 0.8346456692913385,
            "duration": 0.043859666666676844,
            "ticks": 41088,
            "durationTicks": 16
          },
          {
            "time": 112.894782,
            "midi": 56,
            "name": "G#3",
            "velocity": 0.8346456692913385,
            "duration": 0.04385966666666263,
            "ticks": 41184,
            "durationTicks": 16
          },
          {
            "time": 113.421098,
            "midi": 51,
            "name": "D#3",
            "velocity": 0.8346456692913385,
            "duration": 0.043859666666676844,
            "ticks": 41376,
            "durationTicks": 16
          },
          {
            "time": 113.552677,
            "midi": 53,
            "name": "F3",
            "velocity": 0.8346456692913385,
            "duration": 0.043859666666676844,
            "ticks": 41424,
            "durationTicks": 16
          },
          {
            "time": 113.815835,
            "midi": 56,
            "name": "G#3",
            "velocity": 0.8346456692913385,
            "duration": 0.04385966666666263,
            "ticks": 41520,
            "durationTicks": 16
          },
          {
            "time": 114.210572,
            "midi": 56,
            "name": "G#3",
            "velocity": 0.8346456692913385,
            "duration": 0.043859666666676844,
            "ticks": 41664,
            "durationTicks": 16
          },
          {
            "time": 114.605309,
            "midi": 53,
            "name": "F3",
            "velocity": 0.8346456692913385,
            "duration": 0.04385966666666263,
            "ticks": 41808,
            "durationTicks": 16
          },
          {
            "time": 114.73688800000001,
            "midi": 56,
            "name": "G#3",
            "velocity": 0.8346456692913385,
            "duration": 0.04385966666666263,
            "ticks": 41856,
            "durationTicks": 16
          },
          {
            "time": 115.000046,
            "midi": 56,
            "name": "G#3",
            "velocity": 0.8346456692913385,
            "duration": 0.043859666666676844,
            "ticks": 41952,
            "durationTicks": 16
          },
          {
            "time": 115.394783,
            "midi": 56,
            "name": "G#3",
            "velocity": 0.8346456692913385,
            "duration": 0.04385966666666263,
            "ticks": 42096,
            "durationTicks": 16
          },
          {
            "time": 115.65794100000001,
            "midi": 56,
            "name": "G#3",
            "velocity": 0.8346456692913385,
            "duration": 0.04385966666666263,
            "ticks": 42192,
            "durationTicks": 16
          },
          {
            "time": 115.921099,
            "midi": 56,
            "name": "G#3",
            "velocity": 0.8346456692913385,
            "duration": 0.043859666666676844,
            "ticks": 42288,
            "durationTicks": 16
          },
          {
            "time": 116.315836,
            "midi": 56,
            "name": "G#3",
            "velocity": 0.8346456692913385,
            "duration": 0.04385966666666263,
            "ticks": 42432,
            "durationTicks": 16
          },
          {
            "time": 116.710573,
            "midi": 53,
            "name": "F3",
            "velocity": 0.8346456692913385,
            "duration": 0.043859666666676844,
            "ticks": 42576,
            "durationTicks": 16
          },
          {
            "time": 116.842152,
            "midi": 56,
            "name": "G#3",
            "velocity": 0.8346456692913385,
            "duration": 0.043859666666676844,
            "ticks": 42624,
            "durationTicks": 16
          },
          {
            "time": 117.236889,
            "midi": 56,
            "name": "G#3",
            "velocity": 0.8346456692913385,
            "duration": 0.04385966666666263,
            "ticks": 42768,
            "durationTicks": 16
          },
          {
            "time": 117.631626,
            "midi": 53,
            "name": "F3",
            "velocity": 0.8346456692913385,
            "duration": 0.043859666666676844,
            "ticks": 42912,
            "durationTicks": 16
          },
          {
            "time": 117.763205,
            "midi": 56,
            "name": "G#3",
            "velocity": 0.8346456692913385,
            "duration": 0.043859666666676844,
            "ticks": 42960,
            "durationTicks": 16
          },
          {
            "time": 118.026363,
            "midi": 56,
            "name": "G#3",
            "velocity": 0.8346456692913385,
            "duration": 0.04385966666666263,
            "ticks": 43056,
            "durationTicks": 16
          },
          {
            "time": 118.4211,
            "midi": 56,
            "name": "G#3",
            "velocity": 0.8346456692913385,
            "duration": 0.043859666666676844,
            "ticks": 43200,
            "durationTicks": 16
          },
          {
            "time": 118.815837,
            "midi": 53,
            "name": "F3",
            "velocity": 0.8346456692913385,
            "duration": 0.043859666666676844,
            "ticks": 43344,
            "durationTicks": 16
          },
          {
            "time": 118.947416,
            "midi": 56,
            "name": "G#3",
            "velocity": 0.8346456692913385,
            "duration": 0.04385966666666263,
            "ticks": 43392,
            "durationTicks": 16
          },
          {
            "time": 119.21057400000001,
            "midi": 56,
            "name": "G#3",
            "velocity": 0.8346456692913385,
            "duration": 0.04385966666666263,
            "ticks": 43488,
            "durationTicks": 16
          },
          {
            "time": 119.473732,
            "midi": 56,
            "name": "G#3",
            "velocity": 0.8346456692913385,
            "duration": 0.043859666666676844,
            "ticks": 43584,
            "durationTicks": 16
          },
          {
            "time": 119.605311,
            "midi": 58,
            "name": "A#3",
            "velocity": 0.8346456692913385,
            "duration": 0.043859666666676844,
            "ticks": 43632,
            "durationTicks": 16
          },
          {
            "time": 120.131627,
            "midi": 56,
            "name": "G#3",
            "velocity": 0.8346456692913385,
            "duration": 0.043859666666676844,
            "ticks": 43824,
            "durationTicks": 16
          },
          {
            "time": 120.526364,
            "midi": 56,
            "name": "G#3",
            "velocity": 0.8346456692913385,
            "duration": 0.043859666666676844,
            "ticks": 43968,
            "durationTicks": 16
          },
          {
            "time": 120.92110100000001,
            "midi": 53,
            "name": "F3",
            "velocity": 0.8346456692913385,
            "duration": 0.04385966666666263,
            "ticks": 44112,
            "durationTicks": 16
          },
          {
            "time": 121.05268,
            "midi": 56,
            "name": "G#3",
            "velocity": 0.8346456692913385,
            "duration": 0.043859666666676844,
            "ticks": 44160,
            "durationTicks": 16
          },
          {
            "time": 121.315838,
            "midi": 56,
            "name": "G#3",
            "velocity": 0.8346456692913385,
            "duration": 0.043859666666676844,
            "ticks": 44256,
            "durationTicks": 16
          },
          {
            "time": 121.84215400000001,
            "midi": 51,
            "name": "D#3",
            "velocity": 0.8346456692913385,
            "duration": 0.04385966666666263,
            "ticks": 44448,
            "durationTicks": 16
          },
          {
            "time": 121.973733,
            "midi": 53,
            "name": "F3",
            "velocity": 0.8346456692913385,
            "duration": 0.043859666666676844,
            "ticks": 44496,
            "durationTicks": 16
          },
          {
            "time": 122.236891,
            "midi": 56,
            "name": "G#3",
            "velocity": 0.8346456692913385,
            "duration": 0.043859666666676844,
            "ticks": 44592,
            "durationTicks": 16
          },
          {
            "time": 122.631628,
            "midi": 56,
            "name": "G#3",
            "velocity": 0.8346456692913385,
            "duration": 0.04385966666666263,
            "ticks": 44736,
            "durationTicks": 16
          },
          {
            "time": 123.026365,
            "midi": 53,
            "name": "F3",
            "velocity": 0.8346456692913385,
            "duration": 0.043859666666676844,
            "ticks": 44880,
            "durationTicks": 16
          },
          {
            "time": 123.157944,
            "midi": 56,
            "name": "G#3",
            "velocity": 0.8346456692913385,
            "duration": 0.043859666666676844,
            "ticks": 44928,
            "durationTicks": 16
          },
          {
            "time": 123.421102,
            "midi": 56,
            "name": "G#3",
            "velocity": 0.8346456692913385,
            "duration": 0.04385966666666263,
            "ticks": 45024,
            "durationTicks": 16
          },
          {
            "time": 123.815839,
            "midi": 56,
            "name": "G#3",
            "velocity": 0.8346456692913385,
            "duration": 0.043859666666676844,
            "ticks": 45168,
            "durationTicks": 16
          },
          {
            "time": 124.078997,
            "midi": 56,
            "name": "G#3",
            "velocity": 0.8346456692913385,
            "duration": 0.043859666666676844,
            "ticks": 45264,
            "durationTicks": 16
          },
          {
            "time": 124.342155,
            "midi": 56,
            "name": "G#3",
            "velocity": 0.8346456692913385,
            "duration": 0.04385966666666263,
            "ticks": 45360,
            "durationTicks": 16
          },
          {
            "time": 124.736892,
            "midi": 56,
            "name": "G#3",
            "velocity": 0.8346456692913385,
            "duration": 0.043859666666676844,
            "ticks": 45504,
            "durationTicks": 16
          },
          {
            "time": 125.131629,
            "midi": 53,
            "name": "F3",
            "velocity": 0.8346456692913385,
            "duration": 0.04385966666666263,
            "ticks": 45648,
            "durationTicks": 16
          },
          {
            "time": 125.263208,
            "midi": 56,
            "name": "G#3",
            "velocity": 0.8346456692913385,
            "duration": 0.04385966666666263,
            "ticks": 45696,
            "durationTicks": 16
          },
          {
            "time": 125.657945,
            "midi": 56,
            "name": "G#3",
            "velocity": 0.8346456692913385,
            "duration": 0.043859666666676844,
            "ticks": 45840,
            "durationTicks": 16
          },
          {
            "time": 126.052682,
            "midi": 53,
            "name": "F3",
            "velocity": 0.8346456692913385,
            "duration": 0.04385966666666263,
            "ticks": 45984,
            "durationTicks": 16
          },
          {
            "time": 126.184261,
            "midi": 56,
            "name": "G#3",
            "velocity": 0.8346456692913385,
            "duration": 0.04385966666666263,
            "ticks": 46032,
            "durationTicks": 16
          },
          {
            "time": 126.447419,
            "midi": 56,
            "name": "G#3",
            "velocity": 0.8346456692913385,
            "duration": 0.043859666666676844,
            "ticks": 46128,
            "durationTicks": 16
          },
          {
            "time": 126.842156,
            "midi": 56,
            "name": "G#3",
            "velocity": 0.8346456692913385,
            "duration": 0.043859666666676844,
            "ticks": 46272,
            "durationTicks": 16
          },
          {
            "time": 127.236893,
            "midi": 53,
            "name": "F3",
            "velocity": 0.8346456692913385,
            "duration": 0.043859666666676844,
            "ticks": 46416,
            "durationTicks": 16
          },
          {
            "time": 127.368472,
            "midi": 56,
            "name": "G#3",
            "velocity": 0.8346456692913385,
            "duration": 0.043859666666676844,
            "ticks": 46464,
            "durationTicks": 16
          },
          {
            "time": 127.63163,
            "midi": 56,
            "name": "G#3",
            "velocity": 0.8346456692913385,
            "duration": 0.043859666666676844,
            "ticks": 46560,
            "durationTicks": 16
          },
          {
            "time": 127.894788,
            "midi": 56,
            "name": "G#3",
            "velocity": 0.8346456692913385,
            "duration": 0.04385966666666263,
            "ticks": 46656,
            "durationTicks": 16
          },
          {
            "time": 128.026367,
            "midi": 58,
            "name": "A#3",
            "velocity": 0.8346456692913385,
            "duration": 0.043859666666691055,
            "ticks": 46704,
            "durationTicks": 16
          },
          {
            "time": 128.552683,
            "midi": 56,
            "name": "G#3",
            "velocity": 0.8346456692913385,
            "duration": 0.04385966666666263,
            "ticks": 46896,
            "durationTicks": 16
          },
          {
            "time": 128.94742,
            "midi": 56,
            "name": "G#3",
            "velocity": 0.8346456692913385,
            "duration": 0.043859666666691055,
            "ticks": 47040,
            "durationTicks": 16
          },
          {
            "time": 129.34215700000001,
            "midi": 53,
            "name": "F3",
            "velocity": 0.8346456692913385,
            "duration": 0.04385966666666263,
            "ticks": 47184,
            "durationTicks": 16
          },
          {
            "time": 129.473736,
            "midi": 56,
            "name": "G#3",
            "velocity": 0.8346456692913385,
            "duration": 0.04385966666666263,
            "ticks": 47232,
            "durationTicks": 16
          },
          {
            "time": 129.736894,
            "midi": 56,
            "name": "G#3",
            "velocity": 0.8346456692913385,
            "duration": 0.04385966666666263,
            "ticks": 47328,
            "durationTicks": 16
          },
          {
            "time": 130.26321000000002,
            "midi": 51,
            "name": "D#3",
            "velocity": 0.8346456692913385,
            "duration": 0.04385966666666263,
            "ticks": 47520,
            "durationTicks": 16
          },
          {
            "time": 130.394789,
            "midi": 53,
            "name": "F3",
            "velocity": 0.8346456692913385,
            "duration": 0.04385966666666263,
            "ticks": 47568,
            "durationTicks": 16
          },
          {
            "time": 130.657947,
            "midi": 56,
            "name": "G#3",
            "velocity": 0.8346456692913385,
            "duration": 0.04385966666666263,
            "ticks": 47664,
            "durationTicks": 16
          },
          {
            "time": 131.052684,
            "midi": 56,
            "name": "G#3",
            "velocity": 0.8346456692913385,
            "duration": 0.04385966666666263,
            "ticks": 47808,
            "durationTicks": 16
          },
          {
            "time": 131.447421,
            "midi": 53,
            "name": "F3",
            "velocity": 0.8346456692913385,
            "duration": 0.043859666666691055,
            "ticks": 47952,
            "durationTicks": 16
          },
          {
            "time": 131.579,
            "midi": 56,
            "name": "G#3",
            "velocity": 0.8346456692913385,
            "duration": 0.04385966666666263,
            "ticks": 48000,
            "durationTicks": 16
          },
          {
            "time": 131.842158,
            "midi": 56,
            "name": "G#3",
            "velocity": 0.8346456692913385,
            "duration": 0.04385966666666263,
            "ticks": 48096,
            "durationTicks": 16
          },
          {
            "time": 132.236895,
            "midi": 56,
            "name": "G#3",
            "velocity": 0.8346456692913385,
            "duration": 0.04385966666666263,
            "ticks": 48240,
            "durationTicks": 16
          },
          {
            "time": 132.500053,
            "midi": 56,
            "name": "G#3",
            "velocity": 0.8346456692913385,
            "duration": 0.04385966666666263,
            "ticks": 48336,
            "durationTicks": 16
          },
          {
            "time": 132.763211,
            "midi": 56,
            "name": "G#3",
            "velocity": 0.8346456692913385,
            "duration": 0.04385966666666263,
            "ticks": 48432,
            "durationTicks": 16
          },
          {
            "time": 133.157948,
            "midi": 56,
            "name": "G#3",
            "velocity": 0.8346456692913385,
            "duration": 0.04385966666666263,
            "ticks": 48576,
            "durationTicks": 16
          },
          {
            "time": 133.552685,
            "midi": 53,
            "name": "F3",
            "velocity": 0.8346456692913385,
            "duration": 0.04385966666666263,
            "ticks": 48720,
            "durationTicks": 16
          },
          {
            "time": 133.684264,
            "midi": 56,
            "name": "G#3",
            "velocity": 0.8346456692913385,
            "duration": 0.04385966666666263,
            "ticks": 48768,
            "durationTicks": 16
          },
          {
            "time": 134.079001,
            "midi": 56,
            "name": "G#3",
            "velocity": 0.8346456692913385,
            "duration": 0.04385966666666263,
            "ticks": 48912,
            "durationTicks": 16
          },
          {
            "time": 134.473738,
            "midi": 53,
            "name": "F3",
            "velocity": 0.8346456692913385,
            "duration": 0.04385966666666263,
            "ticks": 49056,
            "durationTicks": 16
          },
          {
            "time": 134.605317,
            "midi": 56,
            "name": "G#3",
            "velocity": 0.8346456692913385,
            "duration": 0.04385966666666263,
            "ticks": 49104,
            "durationTicks": 16
          },
          {
            "time": 134.868475,
            "midi": 56,
            "name": "G#3",
            "velocity": 0.8346456692913385,
            "duration": 0.04385966666666263,
            "ticks": 49200,
            "durationTicks": 16
          },
          {
            "time": 135.263212,
            "midi": 56,
            "name": "G#3",
            "velocity": 0.8346456692913385,
            "duration": 0.04385966666663421,
            "ticks": 49344,
            "durationTicks": 16
          },
          {
            "time": 135.657949,
            "midi": 53,
            "name": "F3",
            "velocity": 0.8346456692913385,
            "duration": 0.04385966666666263,
            "ticks": 49488,
            "durationTicks": 16
          },
          {
            "time": 135.789528,
            "midi": 56,
            "name": "G#3",
            "velocity": 0.8346456692913385,
            "duration": 0.04385966666666263,
            "ticks": 49536,
            "durationTicks": 16
          },
          {
            "time": 136.052686,
            "midi": 56,
            "name": "G#3",
            "velocity": 0.8346456692913385,
            "duration": 0.04385966666666263,
            "ticks": 49632,
            "durationTicks": 16
          },
          {
            "time": 136.315844,
            "midi": 56,
            "name": "G#3",
            "velocity": 0.8346456692913385,
            "duration": 0.04385966666666263,
            "ticks": 49728,
            "durationTicks": 16
          },
          {
            "time": 136.44742300000001,
            "midi": 58,
            "name": "A#3",
            "velocity": 0.8346456692913385,
            "duration": 0.04385966666663421,
            "ticks": 49776,
            "durationTicks": 16
          },
          {
            "time": 136.973739,
            "midi": 56,
            "name": "G#3",
            "velocity": 0.8346456692913385,
            "duration": 0.04385966666666263,
            "ticks": 49968,
            "durationTicks": 16
          },
          {
            "time": 137.36847600000002,
            "midi": 56,
            "name": "G#3",
            "velocity": 0.8346456692913385,
            "duration": 0.04385966666663421,
            "ticks": 50112,
            "durationTicks": 16
          },
          {
            "time": 137.763213,
            "midi": 53,
            "name": "F3",
            "velocity": 0.8346456692913385,
            "duration": 0.04385966666666263,
            "ticks": 50256,
            "durationTicks": 16
          },
          {
            "time": 137.894792,
            "midi": 56,
            "name": "G#3",
            "velocity": 0.8346456692913385,
            "duration": 0.04385966666666263,
            "ticks": 50304,
            "durationTicks": 16
          },
          {
            "time": 138.15795,
            "midi": 56,
            "name": "G#3",
            "velocity": 0.8346456692913385,
            "duration": 0.04385966666666263,
            "ticks": 50400,
            "durationTicks": 16
          },
          {
            "time": 138.684266,
            "midi": 51,
            "name": "D#3",
            "velocity": 0.8346456692913385,
            "duration": 0.04385966666666263,
            "ticks": 50592,
            "durationTicks": 16
          },
          {
            "time": 138.815845,
            "midi": 53,
            "name": "F3",
            "velocity": 0.8346456692913385,
            "duration": 0.04385966666666263,
            "ticks": 50640,
            "durationTicks": 16
          },
          {
            "time": 139.079003,
            "midi": 56,
            "name": "G#3",
            "velocity": 0.8346456692913385,
            "duration": 0.04385966666666263,
            "ticks": 50736,
            "durationTicks": 16
          },
          {
            "time": 139.47374,
            "midi": 56,
            "name": "G#3",
            "velocity": 0.8346456692913385,
            "duration": 0.04385966666666263,
            "ticks": 50880,
            "durationTicks": 16
          },
          {
            "time": 139.868477,
            "midi": 53,
            "name": "F3",
            "velocity": 0.8346456692913385,
            "duration": 0.04385966666663421,
            "ticks": 51024,
            "durationTicks": 16
          },
          {
            "time": 140.000056,
            "midi": 56,
            "name": "G#3",
            "velocity": 0.8346456692913385,
            "duration": 0.04385966666666263,
            "ticks": 51072,
            "durationTicks": 16
          },
          {
            "time": 140.263214,
            "midi": 56,
            "name": "G#3",
            "velocity": 0.8346456692913385,
            "duration": 0.04385966666666263,
            "ticks": 51168,
            "durationTicks": 16
          },
          {
            "time": 140.657951,
            "midi": 56,
            "name": "G#3",
            "velocity": 0.8346456692913385,
            "duration": 0.04385966666666263,
            "ticks": 51312,
            "durationTicks": 16
          },
          {
            "time": 140.921109,
            "midi": 56,
            "name": "G#3",
            "velocity": 0.8346456692913385,
            "duration": 0.04385966666666263,
            "ticks": 51408,
            "durationTicks": 16
          },
          {
            "time": 141.184267,
            "midi": 56,
            "name": "G#3",
            "velocity": 0.8346456692913385,
            "duration": 0.04385966666666263,
            "ticks": 51504,
            "durationTicks": 16
          },
          {
            "time": 141.579004,
            "midi": 56,
            "name": "G#3",
            "velocity": 0.8346456692913385,
            "duration": 0.04385966666666263,
            "ticks": 51648,
            "durationTicks": 16
          },
          {
            "time": 141.973741,
            "midi": 53,
            "name": "F3",
            "velocity": 0.8346456692913385,
            "duration": 0.04385966666666263,
            "ticks": 51792,
            "durationTicks": 16
          },
          {
            "time": 142.10532,
            "midi": 56,
            "name": "G#3",
            "velocity": 0.8346456692913385,
            "duration": 0.04385966666666263,
            "ticks": 51840,
            "durationTicks": 16
          },
          {
            "time": 142.500057,
            "midi": 56,
            "name": "G#3",
            "velocity": 0.8346456692913385,
            "duration": 0.04385966666666263,
            "ticks": 51984,
            "durationTicks": 16
          },
          {
            "time": 142.894794,
            "midi": 53,
            "name": "F3",
            "velocity": 0.8346456692913385,
            "duration": 0.04385966666666263,
            "ticks": 52128,
            "durationTicks": 16
          },
          {
            "time": 143.026373,
            "midi": 56,
            "name": "G#3",
            "velocity": 0.8346456692913385,
            "duration": 0.04385966666666263,
            "ticks": 52176,
            "durationTicks": 16
          },
          {
            "time": 143.289531,
            "midi": 56,
            "name": "G#3",
            "velocity": 0.8346456692913385,
            "duration": 0.04385966666663421,
            "ticks": 52272,
            "durationTicks": 16
          },
          {
            "time": 143.684268,
            "midi": 56,
            "name": "G#3",
            "velocity": 0.8346456692913385,
            "duration": 0.04385966666666263,
            "ticks": 52416,
            "durationTicks": 16
          },
          {
            "time": 144.079005,
            "midi": 53,
            "name": "F3",
            "velocity": 0.8346456692913385,
            "duration": 0.04385966666666263,
            "ticks": 52560,
            "durationTicks": 16
          },
          {
            "time": 144.210584,
            "midi": 56,
            "name": "G#3",
            "velocity": 0.8346456692913385,
            "duration": 0.04385966666663421,
            "ticks": 52608,
            "durationTicks": 16
          },
          {
            "time": 144.47374200000002,
            "midi": 56,
            "name": "G#3",
            "velocity": 0.8346456692913385,
            "duration": 0.04385966666663421,
            "ticks": 52704,
            "durationTicks": 16
          },
          {
            "time": 144.7369,
            "midi": 56,
            "name": "G#3",
            "velocity": 0.8346456692913385,
            "duration": 0.04385966666666263,
            "ticks": 52800,
            "durationTicks": 16
          },
          {
            "time": 144.868479,
            "midi": 58,
            "name": "A#3",
            "velocity": 0.8346456692913385,
            "duration": 0.04385966666666263,
            "ticks": 52848,
            "durationTicks": 16
          },
          {
            "time": 145.394795,
            "midi": 56,
            "name": "G#3",
            "velocity": 0.8346456692913385,
            "duration": 0.04385966666666263,
            "ticks": 53040,
            "durationTicks": 16
          },
          {
            "time": 145.789532,
            "midi": 56,
            "name": "G#3",
            "velocity": 0.8346456692913385,
            "duration": 0.04385966666666263,
            "ticks": 53184,
            "durationTicks": 16
          },
          {
            "time": 146.184269,
            "midi": 53,
            "name": "F3",
            "velocity": 0.8346456692913385,
            "duration": 0.04385966666666263,
            "ticks": 53328,
            "durationTicks": 16
          },
          {
            "time": 146.315848,
            "midi": 56,
            "name": "G#3",
            "velocity": 0.8346456692913385,
            "duration": 0.04385966666666263,
            "ticks": 53376,
            "durationTicks": 16
          },
          {
            "time": 146.579006,
            "midi": 56,
            "name": "G#3",
            "velocity": 0.8346456692913385,
            "duration": 0.04385966666666263,
            "ticks": 53472,
            "durationTicks": 16
          },
          {
            "time": 147.105322,
            "midi": 51,
            "name": "D#3",
            "velocity": 0.8346456692913385,
            "duration": 0.04385966666666263,
            "ticks": 53664,
            "durationTicks": 16
          },
          {
            "time": 147.236901,
            "midi": 53,
            "name": "F3",
            "velocity": 0.8346456692913385,
            "duration": 0.04385966666666263,
            "ticks": 53712,
            "durationTicks": 16
          },
          {
            "time": 147.500059,
            "midi": 56,
            "name": "G#3",
            "velocity": 0.8346456692913385,
            "duration": 0.04385966666666263,
            "ticks": 53808,
            "durationTicks": 16
          },
          {
            "time": 147.894796,
            "midi": 56,
            "name": "G#3",
            "velocity": 0.8346456692913385,
            "duration": 0.04385966666663421,
            "ticks": 53952,
            "durationTicks": 16
          },
          {
            "time": 148.289533,
            "midi": 53,
            "name": "F3",
            "velocity": 0.8346456692913385,
            "duration": 0.04385966666666263,
            "ticks": 54096,
            "durationTicks": 16
          },
          {
            "time": 148.421112,
            "midi": 56,
            "name": "G#3",
            "velocity": 0.8346456692913385,
            "duration": 0.04385966666666263,
            "ticks": 54144,
            "durationTicks": 16
          },
          {
            "time": 148.68427,
            "midi": 56,
            "name": "G#3",
            "velocity": 0.8346456692913385,
            "duration": 0.04385966666666263,
            "ticks": 54240,
            "durationTicks": 16
          },
          {
            "time": 149.079007,
            "midi": 56,
            "name": "G#3",
            "velocity": 0.8346456692913385,
            "duration": 0.04385966666666263,
            "ticks": 54384,
            "durationTicks": 16
          },
          {
            "time": 149.342165,
            "midi": 56,
            "name": "G#3",
            "velocity": 0.8346456692913385,
            "duration": 0.04385966666666263,
            "ticks": 54480,
            "durationTicks": 16
          },
          {
            "time": 149.605323,
            "midi": 56,
            "name": "G#3",
            "velocity": 0.8346456692913385,
            "duration": 0.04385966666666263,
            "ticks": 54576,
            "durationTicks": 16
          },
          {
            "time": 150.00006,
            "midi": 56,
            "name": "G#3",
            "velocity": 0.8346456692913385,
            "duration": 0.04385966666666263,
            "ticks": 54720,
            "durationTicks": 16
          },
          {
            "time": 150.394797,
            "midi": 53,
            "name": "F3",
            "velocity": 0.8346456692913385,
            "duration": 0.04385966666663421,
            "ticks": 54864,
            "durationTicks": 16
          },
          {
            "time": 150.526376,
            "midi": 56,
            "name": "G#3",
            "velocity": 0.8346456692913385,
            "duration": 0.04385966666666263,
            "ticks": 54912,
            "durationTicks": 16
          },
          {
            "time": 150.921113,
            "midi": 56,
            "name": "G#3",
            "velocity": 0.8346456692913385,
            "duration": 0.04385966666666263,
            "ticks": 55056,
            "durationTicks": 16
          },
          {
            "time": 151.31585,
            "midi": 53,
            "name": "F3",
            "velocity": 0.8346456692913385,
            "duration": 0.04385966666663421,
            "ticks": 55200,
            "durationTicks": 16
          },
          {
            "time": 151.447429,
            "midi": 56,
            "name": "G#3",
            "velocity": 0.8346456692913385,
            "duration": 0.04385966666666263,
            "ticks": 55248,
            "durationTicks": 16
          },
          {
            "time": 151.710587,
            "midi": 56,
            "name": "G#3",
            "velocity": 0.8346456692913385,
            "duration": 0.04385966666666263,
            "ticks": 55344,
            "durationTicks": 16
          },
          {
            "time": 152.105324,
            "midi": 56,
            "name": "G#3",
            "velocity": 0.8346456692913385,
            "duration": 0.04385966666666263,
            "ticks": 55488,
            "durationTicks": 16
          },
          {
            "time": 152.500061,
            "midi": 53,
            "name": "F3",
            "velocity": 0.8346456692913385,
            "duration": 0.04385966666666263,
            "ticks": 55632,
            "durationTicks": 16
          },
          {
            "time": 152.63164,
            "midi": 56,
            "name": "G#3",
            "velocity": 0.8346456692913385,
            "duration": 0.04385966666666263,
            "ticks": 55680,
            "durationTicks": 16
          },
          {
            "time": 152.894798,
            "midi": 56,
            "name": "G#3",
            "velocity": 0.8346456692913385,
            "duration": 0.04385966666666263,
            "ticks": 55776,
            "durationTicks": 16
          },
          {
            "time": 153.157956,
            "midi": 56,
            "name": "G#3",
            "velocity": 0.8346456692913385,
            "duration": 0.04385966666663421,
            "ticks": 55872,
            "durationTicks": 16
          },
          {
            "time": 153.289535,
            "midi": 58,
            "name": "A#3",
            "velocity": 0.8346456692913385,
            "duration": 0.04385966666666263,
            "ticks": 55920,
            "durationTicks": 16
          },
          {
            "time": 153.815851,
            "midi": 56,
            "name": "G#3",
            "velocity": 0.8346456692913385,
            "duration": 0.04385966666666263,
            "ticks": 56112,
            "durationTicks": 16
          },
          {
            "time": 154.210588,
            "midi": 56,
            "name": "G#3",
            "velocity": 0.8346456692913385,
            "duration": 0.04385966666666263,
            "ticks": 56256,
            "durationTicks": 16
          },
          {
            "time": 154.605325,
            "midi": 53,
            "name": "F3",
            "velocity": 0.8346456692913385,
            "duration": 0.04385966666666263,
            "ticks": 56400,
            "durationTicks": 16
          },
          {
            "time": 154.736904,
            "midi": 56,
            "name": "G#3",
            "velocity": 0.8346456692913385,
            "duration": 0.04385966666666263,
            "ticks": 56448,
            "durationTicks": 16
          },
          {
            "time": 155.000062,
            "midi": 56,
            "name": "G#3",
            "velocity": 0.8346456692913385,
            "duration": 0.04385966666663421,
            "ticks": 56544,
            "durationTicks": 16
          },
          {
            "time": 155.526378,
            "midi": 51,
            "name": "D#3",
            "velocity": 0.8346456692913385,
            "duration": 0.04385966666666263,
            "ticks": 56736,
            "durationTicks": 16
          },
          {
            "time": 155.657957,
            "midi": 53,
            "name": "F3",
            "velocity": 0.8346456692913385,
            "duration": 0.04385966666663421,
            "ticks": 56784,
            "durationTicks": 16
          },
          {
            "time": 155.92111500000001,
            "midi": 56,
            "name": "G#3",
            "velocity": 0.8346456692913385,
            "duration": 0.04385966666663421,
            "ticks": 56880,
            "durationTicks": 16
          },
          {
            "time": 156.315852,
            "midi": 56,
            "name": "G#3",
            "velocity": 0.8346456692913385,
            "duration": 0.04385966666666263,
            "ticks": 57024,
            "durationTicks": 16
          },
          {
            "time": 156.710589,
            "midi": 53,
            "name": "F3",
            "velocity": 0.8346456692913385,
            "duration": 0.04385966666666263,
            "ticks": 57168,
            "durationTicks": 16
          },
          {
            "time": 156.84216800000002,
            "midi": 56,
            "name": "G#3",
            "velocity": 0.8346456692913385,
            "duration": 0.04385966666663421,
            "ticks": 57216,
            "durationTicks": 16
          },
          {
            "time": 157.105326,
            "midi": 56,
            "name": "G#3",
            "velocity": 0.8346456692913385,
            "duration": 0.04385966666666263,
            "ticks": 57312,
            "durationTicks": 16
          },
          {
            "time": 157.500063,
            "midi": 56,
            "name": "G#3",
            "velocity": 0.8346456692913385,
            "duration": 0.04385966666663421,
            "ticks": 57456,
            "durationTicks": 16
          },
          {
            "time": 157.76322100000002,
            "midi": 56,
            "name": "G#3",
            "velocity": 0.8346456692913385,
            "duration": 0.04385966666663421,
            "ticks": 57552,
            "durationTicks": 16
          },
          {
            "time": 174.868491,
            "midi": 56,
            "name": "G#3",
            "velocity": 0.8346456692913385,
            "duration": 0.04385966666666263,
            "ticks": 63792,
            "durationTicks": 16
          },
          {
            "time": 175.263228,
            "midi": 56,
            "name": "G#3",
            "velocity": 0.8346456692913385,
            "duration": 0.04385966666666263,
            "ticks": 63936,
            "durationTicks": 16
          },
          {
            "time": 175.657965,
            "midi": 53,
            "name": "F3",
            "velocity": 0.8346456692913385,
            "duration": 0.04385966666666263,
            "ticks": 64080,
            "durationTicks": 16
          },
          {
            "time": 175.789544,
            "midi": 56,
            "name": "G#3",
            "velocity": 0.8346456692913385,
            "duration": 0.04385966666666263,
            "ticks": 64128,
            "durationTicks": 16
          },
          {
            "time": 176.184281,
            "midi": 56,
            "name": "G#3",
            "velocity": 0.8346456692913385,
            "duration": 0.04385966666666263,
            "ticks": 64272,
            "durationTicks": 16
          },
          {
            "time": 176.579018,
            "midi": 53,
            "name": "F3",
            "velocity": 0.8346456692913385,
            "duration": 0.04385966666666263,
            "ticks": 64416,
            "durationTicks": 16
          },
          {
            "time": 176.710597,
            "midi": 56,
            "name": "G#3",
            "velocity": 0.8346456692913385,
            "duration": 0.04385966666666263,
            "ticks": 64464,
            "durationTicks": 16
          },
          {
            "time": 176.973755,
            "midi": 56,
            "name": "G#3",
            "velocity": 0.8346456692913385,
            "duration": 0.04385966666663421,
            "ticks": 64560,
            "durationTicks": 16
          },
          {
            "time": 177.368492,
            "midi": 56,
            "name": "G#3",
            "velocity": 0.8346456692913385,
            "duration": 0.04385966666666263,
            "ticks": 64704,
            "durationTicks": 16
          },
          {
            "time": 177.763229,
            "midi": 53,
            "name": "F3",
            "velocity": 0.8346456692913385,
            "duration": 0.04385966666666263,
            "ticks": 64848,
            "durationTicks": 16
          },
          {
            "time": 177.894808,
            "midi": 56,
            "name": "G#3",
            "velocity": 0.8346456692913385,
            "duration": 0.04385966666663421,
            "ticks": 64896,
            "durationTicks": 16
          },
          {
            "time": 178.15796600000002,
            "midi": 56,
            "name": "G#3",
            "velocity": 0.8346456692913385,
            "duration": 0.04385966666663421,
            "ticks": 64992,
            "durationTicks": 16
          },
          {
            "time": 178.421124,
            "midi": 56,
            "name": "G#3",
            "velocity": 0.8346456692913385,
            "duration": 0.04385966666666263,
            "ticks": 65088,
            "durationTicks": 16
          },
          {
            "time": 178.552703,
            "midi": 58,
            "name": "A#3",
            "velocity": 0.8346456692913385,
            "duration": 0.04385966666666263,
            "ticks": 65136,
            "durationTicks": 16
          },
          {
            "time": 179.079019,
            "midi": 56,
            "name": "G#3",
            "velocity": 0.8346456692913385,
            "duration": 0.04385966666666263,
            "ticks": 65328,
            "durationTicks": 16
          },
          {
            "time": 179.473756,
            "midi": 56,
            "name": "G#3",
            "velocity": 0.8346456692913385,
            "duration": 0.04385966666666263,
            "ticks": 65472,
            "durationTicks": 16
          },
          {
            "time": 179.868493,
            "midi": 53,
            "name": "F3",
            "velocity": 0.8346456692913385,
            "duration": 0.04385966666666263,
            "ticks": 65616,
            "durationTicks": 16
          },
          {
            "time": 180.000072,
            "midi": 56,
            "name": "G#3",
            "velocity": 0.8346456692913385,
            "duration": 0.04385966666666263,
            "ticks": 65664,
            "durationTicks": 16
          },
          {
            "time": 180.26323,
            "midi": 56,
            "name": "G#3",
            "velocity": 0.8346456692913385,
            "duration": 0.04385966666666263,
            "ticks": 65760,
            "durationTicks": 16
          },
          {
            "time": 180.789546,
            "midi": 51,
            "name": "D#3",
            "velocity": 0.8346456692913385,
            "duration": 0.04385966666666263,
            "ticks": 65952,
            "durationTicks": 16
          },
          {
            "time": 180.921125,
            "midi": 53,
            "name": "F3",
            "velocity": 0.8346456692913385,
            "duration": 0.04385966666666263,
            "ticks": 66000,
            "durationTicks": 16
          },
          {
            "time": 181.184283,
            "midi": 56,
            "name": "G#3",
            "velocity": 0.8346456692913385,
            "duration": 0.04385966666666263,
            "ticks": 66096,
            "durationTicks": 16
          },
          {
            "time": 181.57902,
            "midi": 56,
            "name": "G#3",
            "velocity": 0.8346456692913385,
            "duration": 0.04385966666663421,
            "ticks": 66240,
            "durationTicks": 16
          },
          {
            "time": 181.973757,
            "midi": 53,
            "name": "F3",
            "velocity": 0.8346456692913385,
            "duration": 0.04385966666666263,
            "ticks": 66384,
            "durationTicks": 16
          },
          {
            "time": 182.105336,
            "midi": 56,
            "name": "G#3",
            "velocity": 0.8346456692913385,
            "duration": 0.04385966666666263,
            "ticks": 66432,
            "durationTicks": 16
          },
          {
            "time": 182.368494,
            "midi": 56,
            "name": "G#3",
            "velocity": 0.8346456692913385,
            "duration": 0.04385966666666263,
            "ticks": 66528,
            "durationTicks": 16
          },
          {
            "time": 182.763231,
            "midi": 56,
            "name": "G#3",
            "velocity": 0.8346456692913385,
            "duration": 0.04385966666666263,
            "ticks": 66672,
            "durationTicks": 16
          },
          {
            "time": 183.026389,
            "midi": 56,
            "name": "G#3",
            "velocity": 0.8346456692913385,
            "duration": 0.04385966666666263,
            "ticks": 66768,
            "durationTicks": 16
          },
          {
            "time": 183.289547,
            "midi": 56,
            "name": "G#3",
            "velocity": 0.8346456692913385,
            "duration": 0.04385966666666263,
            "ticks": 66864,
            "durationTicks": 16
          },
          {
            "time": 183.684284,
            "midi": 56,
            "name": "G#3",
            "velocity": 0.8346456692913385,
            "duration": 0.04385966666666263,
            "ticks": 67008,
            "durationTicks": 16
          },
          {
            "time": 184.079021,
            "midi": 53,
            "name": "F3",
            "velocity": 0.8346456692913385,
            "duration": 0.04385966666663421,
            "ticks": 67152,
            "durationTicks": 16
          },
          {
            "time": 184.2106,
            "midi": 56,
            "name": "G#3",
            "velocity": 0.8346456692913385,
            "duration": 0.04385966666666263,
            "ticks": 67200,
            "durationTicks": 16
          },
          {
            "time": 184.605337,
            "midi": 56,
            "name": "G#3",
            "velocity": 0.8346456692913385,
            "duration": 0.04385966666666263,
            "ticks": 67344,
            "durationTicks": 16
          },
          {
            "time": 185.000074,
            "midi": 53,
            "name": "F3",
            "velocity": 0.8346456692913385,
            "duration": 0.04385966666663421,
            "ticks": 67488,
            "durationTicks": 16
          },
          {
            "time": 185.131653,
            "midi": 56,
            "name": "G#3",
            "velocity": 0.8346456692913385,
            "duration": 0.04385966666666263,
            "ticks": 67536,
            "durationTicks": 16
          },
          {
            "time": 185.394811,
            "midi": 56,
            "name": "G#3",
            "velocity": 0.8346456692913385,
            "duration": 0.04385966666666263,
            "ticks": 67632,
            "durationTicks": 16
          },
          {
            "time": 185.789548,
            "midi": 56,
            "name": "G#3",
            "velocity": 0.8346456692913385,
            "duration": 0.04385966666666263,
            "ticks": 67776,
            "durationTicks": 16
          },
          {
            "time": 186.184285,
            "midi": 53,
            "name": "F3",
            "velocity": 0.8346456692913385,
            "duration": 0.04385966666666263,
            "ticks": 67920,
            "durationTicks": 16
          },
          {
            "time": 186.315864,
            "midi": 56,
            "name": "G#3",
            "velocity": 0.8346456692913385,
            "duration": 0.04385966666666263,
            "ticks": 67968,
            "durationTicks": 16
          },
          {
            "time": 186.579022,
            "midi": 56,
            "name": "G#3",
            "velocity": 0.8346456692913385,
            "duration": 0.04385966666666263,
            "ticks": 68064,
            "durationTicks": 16
          },
          {
            "time": 186.84218,
            "midi": 56,
            "name": "G#3",
            "velocity": 0.8346456692913385,
            "duration": 0.04385966666663421,
            "ticks": 68160,
            "durationTicks": 16
          },
          {
            "time": 186.973759,
            "midi": 58,
            "name": "A#3",
            "velocity": 0.8346456692913385,
            "duration": 0.04385966666666263,
            "ticks": 68208,
            "durationTicks": 16
          },
          {
            "time": 187.500075,
            "midi": 56,
            "name": "G#3",
            "velocity": 0.8346456692913385,
            "duration": 0.04385966666666263,
            "ticks": 68400,
            "durationTicks": 16
          },
          {
            "time": 187.894812,
            "midi": 56,
            "name": "G#3",
            "velocity": 0.8346456692913385,
            "duration": 0.04385966666666263,
            "ticks": 68544,
            "durationTicks": 16
          },
          {
            "time": 188.289549,
            "midi": 53,
            "name": "F3",
            "velocity": 0.8346456692913385,
            "duration": 0.04385966666666263,
            "ticks": 68688,
            "durationTicks": 16
          },
          {
            "time": 188.421128,
            "midi": 56,
            "name": "G#3",
            "velocity": 0.8346456692913385,
            "duration": 0.04385966666666263,
            "ticks": 68736,
            "durationTicks": 16
          },
          {
            "time": 188.68428600000001,
            "midi": 56,
            "name": "G#3",
            "velocity": 0.8346456692913385,
            "duration": 0.04385966666663421,
            "ticks": 68832,
            "durationTicks": 16
          },
          {
            "time": 189.210602,
            "midi": 51,
            "name": "D#3",
            "velocity": 0.8346456692913385,
            "duration": 0.04385966666666263,
            "ticks": 69024,
            "durationTicks": 16
          },
          {
            "time": 189.342181,
            "midi": 53,
            "name": "F3",
            "velocity": 0.8346456692913385,
            "duration": 0.04385966666663421,
            "ticks": 69072,
            "durationTicks": 16
          },
          {
            "time": 189.60533900000001,
            "midi": 56,
            "name": "G#3",
            "velocity": 0.8346456692913385,
            "duration": 0.04385966666663421,
            "ticks": 69168,
            "durationTicks": 16
          },
          {
            "time": 190.000076,
            "midi": 56,
            "name": "G#3",
            "velocity": 0.8346456692913385,
            "duration": 0.04385966666666263,
            "ticks": 69312,
            "durationTicks": 16
          },
          {
            "time": 190.394813,
            "midi": 53,
            "name": "F3",
            "velocity": 0.8346456692913385,
            "duration": 0.04385966666666263,
            "ticks": 69456,
            "durationTicks": 16
          },
          {
            "time": 190.52639200000002,
            "midi": 56,
            "name": "G#3",
            "velocity": 0.8346456692913385,
            "duration": 0.04385966666663421,
            "ticks": 69504,
            "durationTicks": 16
          },
          {
            "time": 190.78955,
            "midi": 56,
            "name": "G#3",
            "velocity": 0.8346456692913385,
            "duration": 0.04385966666666263,
            "ticks": 69600,
            "durationTicks": 16
          },
          {
            "time": 191.184287,
            "midi": 56,
            "name": "G#3",
            "velocity": 0.8346456692913385,
            "duration": 0.04385966666663421,
            "ticks": 69744,
            "durationTicks": 16
          },
          {
            "time": 191.44744500000002,
            "midi": 56,
            "name": "G#3",
            "velocity": 0.8346456692913385,
            "duration": 0.04385966666663421,
            "ticks": 69840,
            "durationTicks": 16
          },
          {
            "time": 191.710603,
            "midi": 56,
            "name": "G#3",
            "velocity": 0.8346456692913385,
            "duration": 0.04385966666666263,
            "ticks": 69936,
            "durationTicks": 16
          },
          {
            "time": 192.10534,
            "midi": 56,
            "name": "G#3",
            "velocity": 0.8346456692913385,
            "duration": 0.04385966666663421,
            "ticks": 70080,
            "durationTicks": 16
          },
          {
            "time": 192.500077,
            "midi": 53,
            "name": "F3",
            "velocity": 0.8346456692913385,
            "duration": 0.04385966666666263,
            "ticks": 70224,
            "durationTicks": 16
          },
          {
            "time": 192.631656,
            "midi": 56,
            "name": "G#3",
            "velocity": 0.8346456692913385,
            "duration": 0.04385966666666263,
            "ticks": 70272,
            "durationTicks": 16
          },
          {
            "time": 193.026393,
            "midi": 56,
            "name": "G#3",
            "velocity": 0.8346456692913385,
            "duration": 0.04385966666663421,
            "ticks": 70416,
            "durationTicks": 16
          },
          {
            "time": 193.42113,
            "midi": 53,
            "name": "F3",
            "velocity": 0.8346456692913385,
            "duration": 0.04385966666666263,
            "ticks": 70560,
            "durationTicks": 16
          },
          {
            "time": 193.552709,
            "midi": 56,
            "name": "G#3",
            "velocity": 0.8346456692913385,
            "duration": 0.04385966666666263,
            "ticks": 70608,
            "durationTicks": 16
          },
          {
            "time": 193.815867,
            "midi": 56,
            "name": "G#3",
            "velocity": 0.8346456692913385,
            "duration": 0.04385966666666263,
            "ticks": 70704,
            "durationTicks": 16
          },
          {
            "time": 194.210604,
            "midi": 56,
            "name": "G#3",
            "velocity": 0.8346456692913385,
            "duration": 0.04385966666666263,
            "ticks": 70848,
            "durationTicks": 16
          },
          {
            "time": 194.605341,
            "midi": 53,
            "name": "F3",
            "velocity": 0.8346456692913385,
            "duration": 0.04385966666666263,
            "ticks": 70992,
            "durationTicks": 16
          },
          {
            "time": 194.73692,
            "midi": 56,
            "name": "G#3",
            "velocity": 0.8346456692913385,
            "duration": 0.04385966666666263,
            "ticks": 71040,
            "durationTicks": 16
          },
          {
            "time": 195.000078,
            "midi": 56,
            "name": "G#3",
            "velocity": 0.8346456692913385,
            "duration": 0.04385966666666263,
            "ticks": 71136,
            "durationTicks": 16
          },
          {
            "time": 195.263236,
            "midi": 56,
            "name": "G#3",
            "velocity": 0.8346456692913385,
            "duration": 0.04385966666666263,
            "ticks": 71232,
            "durationTicks": 16
          },
          {
            "time": 195.394815,
            "midi": 58,
            "name": "A#3",
            "velocity": 0.8346456692913385,
            "duration": 0.04385966666666263,
            "ticks": 71280,
            "durationTicks": 16
          },
          {
            "time": 195.921131,
            "midi": 56,
            "name": "G#3",
            "velocity": 0.8346456692913385,
            "duration": 0.04385966666666263,
            "ticks": 71472,
            "durationTicks": 16
          },
          {
            "time": 196.315868,
            "midi": 56,
            "name": "G#3",
            "velocity": 0.8346456692913385,
            "duration": 0.04385966666666263,
            "ticks": 71616,
            "durationTicks": 16
          },
          {
            "time": 196.71060500000002,
            "midi": 53,
            "name": "F3",
            "velocity": 0.8346456692913385,
            "duration": 0.04385966666663421,
            "ticks": 71760,
            "durationTicks": 16
          },
          {
            "time": 196.842184,
            "midi": 56,
            "name": "G#3",
            "velocity": 0.8346456692913385,
            "duration": 0.04385966666666263,
            "ticks": 71808,
            "durationTicks": 16
          },
          {
            "time": 197.105342,
            "midi": 56,
            "name": "G#3",
            "velocity": 0.8346456692913385,
            "duration": 0.04385966666666263,
            "ticks": 71904,
            "durationTicks": 16
          },
          {
            "time": 197.63165800000002,
            "midi": 51,
            "name": "D#3",
            "velocity": 0.8346456692913385,
            "duration": 0.04385966666663421,
            "ticks": 72096,
            "durationTicks": 16
          },
          {
            "time": 197.763237,
            "midi": 53,
            "name": "F3",
            "velocity": 0.8346456692913385,
            "duration": 0.04385966666666263,
            "ticks": 72144,
            "durationTicks": 16
          },
          {
            "time": 198.026395,
            "midi": 56,
            "name": "G#3",
            "velocity": 0.8346456692913385,
            "duration": 0.04385966666666263,
            "ticks": 72240,
            "durationTicks": 16
          },
          {
            "time": 198.421132,
            "midi": 56,
            "name": "G#3",
            "velocity": 0.8346456692913385,
            "duration": 0.04385966666666263,
            "ticks": 72384,
            "durationTicks": 16
          },
          {
            "time": 198.815869,
            "midi": 53,
            "name": "F3",
            "velocity": 0.8346456692913385,
            "duration": 0.04385966666666263,
            "ticks": 72528,
            "durationTicks": 16
          },
          {
            "time": 198.947448,
            "midi": 56,
            "name": "G#3",
            "velocity": 0.8346456692913385,
            "duration": 0.04385966666666263,
            "ticks": 72576,
            "durationTicks": 16
          },
          {
            "time": 199.210606,
            "midi": 56,
            "name": "G#3",
            "velocity": 0.8346456692913385,
            "duration": 0.04385966666663421,
            "ticks": 72672,
            "durationTicks": 16
          },
          {
            "time": 199.605343,
            "midi": 56,
            "name": "G#3",
            "velocity": 0.8346456692913385,
            "duration": 0.04385966666666263,
            "ticks": 72816,
            "durationTicks": 16
          },
          {
            "time": 199.868501,
            "midi": 56,
            "name": "G#3",
            "velocity": 0.8346456692913385,
            "duration": 0.04385966666666263,
            "ticks": 72912,
            "durationTicks": 16
          },
          {
            "time": 200.131659,
            "midi": 56,
            "name": "G#3",
            "velocity": 0.8346456692913385,
            "duration": 0.04385966666663421,
            "ticks": 73008,
            "durationTicks": 16
          },
          {
            "time": 200.526396,
            "midi": 56,
            "name": "G#3",
            "velocity": 0.8346456692913385,
            "duration": 0.04385966666666263,
            "ticks": 73152,
            "durationTicks": 16
          },
          {
            "time": 200.921133,
            "midi": 53,
            "name": "F3",
            "velocity": 0.8346456692913385,
            "duration": 0.04385966666666263,
            "ticks": 73296,
            "durationTicks": 16
          },
          {
            "time": 201.052712,
            "midi": 56,
            "name": "G#3",
            "velocity": 0.8346456692913385,
            "duration": 0.04385966666663421,
            "ticks": 73344,
            "durationTicks": 16
          },
          {
            "time": 201.447449,
            "midi": 56,
            "name": "G#3",
            "velocity": 0.8346456692913385,
            "duration": 0.04385966666666263,
            "ticks": 73488,
            "durationTicks": 16
          },
          {
            "time": 201.842186,
            "midi": 53,
            "name": "F3",
            "velocity": 0.8346456692913385,
            "duration": 0.04385966666666263,
            "ticks": 73632,
            "durationTicks": 16
          },
          {
            "time": 201.97376500000001,
            "midi": 56,
            "name": "G#3",
            "velocity": 0.8346456692913385,
            "duration": 0.04385966666663421,
            "ticks": 73680,
            "durationTicks": 16
          },
          {
            "time": 202.236923,
            "midi": 56,
            "name": "G#3",
            "velocity": 0.8346456692913385,
            "duration": 0.04385966666666263,
            "ticks": 73776,
            "durationTicks": 16
          },
          {
            "time": 202.63166,
            "midi": 56,
            "name": "G#3",
            "velocity": 0.8346456692913385,
            "duration": 0.04385966666663421,
            "ticks": 73920,
            "durationTicks": 16
          },
          {
            "time": 203.026397,
            "midi": 53,
            "name": "F3",
            "velocity": 0.8346456692913385,
            "duration": 0.04385966666666263,
            "ticks": 74064,
            "durationTicks": 16
          },
          {
            "time": 203.157976,
            "midi": 56,
            "name": "G#3",
            "velocity": 0.8346456692913385,
            "duration": 0.04385966666666263,
            "ticks": 74112,
            "durationTicks": 16
          },
          {
            "time": 203.421134,
            "midi": 56,
            "name": "G#3",
            "velocity": 0.8346456692913385,
            "duration": 0.04385966666666263,
            "ticks": 74208,
            "durationTicks": 16
          },
          {
            "time": 203.684292,
            "midi": 56,
            "name": "G#3",
            "velocity": 0.8346456692913385,
            "duration": 0.04385966666666263,
            "ticks": 74304,
            "durationTicks": 16
          },
          {
            "time": 203.81587100000002,
            "midi": 58,
            "name": "A#3",
            "velocity": 0.8346456692913385,
            "duration": 0.04385966666663421,
            "ticks": 74352,
            "durationTicks": 16
          },
          {
            "time": 204.342187,
            "midi": 56,
            "name": "G#3",
            "velocity": 0.8346456692913385,
            "duration": 0.04385966666666263,
            "ticks": 74544,
            "durationTicks": 16
          },
          {
            "time": 204.73692400000002,
            "midi": 56,
            "name": "G#3",
            "velocity": 0.8346456692913385,
            "duration": 0.04385966666663421,
            "ticks": 74688,
            "durationTicks": 16
          },
          {
            "time": 205.131661,
            "midi": 53,
            "name": "F3",
            "velocity": 0.8346456692913385,
            "duration": 0.04385966666666263,
            "ticks": 74832,
            "durationTicks": 16
          },
          {
            "time": 205.26324,
            "midi": 56,
            "name": "G#3",
            "velocity": 0.8346456692913385,
            "duration": 0.04385966666666263,
            "ticks": 74880,
            "durationTicks": 16
          },
          {
            "time": 205.526398,
            "midi": 56,
            "name": "G#3",
            "velocity": 0.8346456692913385,
            "duration": 0.04385966666666263,
            "ticks": 74976,
            "durationTicks": 16
          },
          {
            "time": 206.052714,
            "midi": 51,
            "name": "D#3",
            "velocity": 0.8346456692913385,
            "duration": 0.04385966666666263,
            "ticks": 75168,
            "durationTicks": 16
          },
          {
            "time": 206.184293,
            "midi": 53,
            "name": "F3",
            "velocity": 0.8346456692913385,
            "duration": 0.04385966666666263,
            "ticks": 75216,
            "durationTicks": 16
          },
          {
            "time": 206.447451,
            "midi": 56,
            "name": "G#3",
            "velocity": 0.8346456692913385,
            "duration": 0.04385966666666263,
            "ticks": 75312,
            "durationTicks": 16
          },
          {
            "time": 206.842188,
            "midi": 56,
            "name": "G#3",
            "velocity": 0.8346456692913385,
            "duration": 0.04385966666666263,
            "ticks": 75456,
            "durationTicks": 16
          },
          {
            "time": 207.236925,
            "midi": 53,
            "name": "F3",
            "velocity": 0.8346456692913385,
            "duration": 0.04385966666663421,
            "ticks": 75600,
            "durationTicks": 16
          },
          {
            "time": 207.368504,
            "midi": 56,
            "name": "G#3",
            "velocity": 0.8346456692913385,
            "duration": 0.04385966666666263,
            "ticks": 75648,
            "durationTicks": 16
          },
          {
            "time": 207.631662,
            "midi": 56,
            "name": "G#3",
            "velocity": 0.8346456692913385,
            "duration": 0.04385966666666263,
            "ticks": 75744,
            "durationTicks": 16
          },
          {
            "time": 208.026399,
            "midi": 56,
            "name": "G#3",
            "velocity": 0.8346456692913385,
            "duration": 0.04385966666666263,
            "ticks": 75888,
            "durationTicks": 16
          },
          {
            "time": 208.289557,
            "midi": 56,
            "name": "G#3",
            "velocity": 0.8346456692913385,
            "duration": 0.04385966666666263,
            "ticks": 75984,
            "durationTicks": 16
          },
          {
            "time": 208.552715,
            "midi": 56,
            "name": "G#3",
            "velocity": 0.8346456692913385,
            "duration": 0.04385966666666263,
            "ticks": 76080,
            "durationTicks": 16
          },
          {
            "time": 208.947452,
            "midi": 56,
            "name": "G#3",
            "velocity": 0.8346456692913385,
            "duration": 0.04385966666666263,
            "ticks": 76224,
            "durationTicks": 16
          },
          {
            "time": 209.342189,
            "midi": 53,
            "name": "F3",
            "velocity": 0.8346456692913385,
            "duration": 0.04385966666666263,
            "ticks": 76368,
            "durationTicks": 16
          },
          {
            "time": 209.473768,
            "midi": 56,
            "name": "G#3",
            "velocity": 0.8346456692913385,
            "duration": 0.04385966666666263,
            "ticks": 76416,
            "durationTicks": 16
          },
          {
            "time": 209.868505,
            "midi": 56,
            "name": "G#3",
            "velocity": 0.8346456692913385,
            "duration": 0.04385966666666263,
            "ticks": 76560,
            "durationTicks": 16
          },
          {
            "time": 210.263242,
            "midi": 53,
            "name": "F3",
            "velocity": 0.8346456692913385,
            "duration": 0.04385966666666263,
            "ticks": 76704,
            "durationTicks": 16
          },
          {
            "time": 210.394821,
            "midi": 56,
            "name": "G#3",
            "velocity": 0.8346456692913385,
            "duration": 0.04385966666666263,
            "ticks": 76752,
            "durationTicks": 16
          },
          {
            "time": 210.657979,
            "midi": 56,
            "name": "G#3",
            "velocity": 0.8346456692913385,
            "duration": 0.04385966666663421,
            "ticks": 76848,
            "durationTicks": 16
          },
          {
            "time": 211.052716,
            "midi": 56,
            "name": "G#3",
            "velocity": 0.8346456692913385,
            "duration": 0.04385966666666263,
            "ticks": 76992,
            "durationTicks": 16
          },
          {
            "time": 211.447453,
            "midi": 53,
            "name": "F3",
            "velocity": 0.8346456692913385,
            "duration": 0.04385966666666263,
            "ticks": 77136,
            "durationTicks": 16
          },
          {
            "time": 211.579032,
            "midi": 56,
            "name": "G#3",
            "velocity": 0.8346456692913385,
            "duration": 0.04385966666663421,
            "ticks": 77184,
            "durationTicks": 16
          },
          {
            "time": 211.84219000000002,
            "midi": 56,
            "name": "G#3",
            "velocity": 0.8346456692913385,
            "duration": 0.04385966666663421,
            "ticks": 77280,
            "durationTicks": 16
          },
          {
            "time": 212.105348,
            "midi": 56,
            "name": "G#3",
            "velocity": 0.8346456692913385,
            "duration": 0.04385966666666263,
            "ticks": 77376,
            "durationTicks": 16
          },
          {
            "time": 212.236927,
            "midi": 58,
            "name": "A#3",
            "velocity": 0.8346456692913385,
            "duration": 0.04385966666666263,
            "ticks": 77424,
            "durationTicks": 16
          },
          {
            "time": 212.763243,
            "midi": 56,
            "name": "G#3",
            "velocity": 0.8346456692913385,
            "duration": 0.04385966666666263,
            "ticks": 77616,
            "durationTicks": 16
          },
          {
            "time": 213.15798,
            "midi": 56,
            "name": "G#3",
            "velocity": 0.8346456692913385,
            "duration": 0.04385966666666263,
            "ticks": 77760,
            "durationTicks": 16
          },
          {
            "time": 213.552717,
            "midi": 53,
            "name": "F3",
            "velocity": 0.8346456692913385,
            "duration": 0.04385966666666263,
            "ticks": 77904,
            "durationTicks": 16
          },
          {
            "time": 213.684296,
            "midi": 56,
            "name": "G#3",
            "velocity": 0.8346456692913385,
            "duration": 0.04385966666666263,
            "ticks": 77952,
            "durationTicks": 16
          },
          {
            "time": 213.947454,
            "midi": 56,
            "name": "G#3",
            "velocity": 0.8346456692913385,
            "duration": 0.04385966666666263,
            "ticks": 78048,
            "durationTicks": 16
          },
          {
            "time": 214.47377,
            "midi": 51,
            "name": "D#3",
            "velocity": 0.8346456692913385,
            "duration": 0.04385966666666263,
            "ticks": 78240,
            "durationTicks": 16
          },
          {
            "time": 214.605349,
            "midi": 53,
            "name": "F3",
            "velocity": 0.8346456692913385,
            "duration": 0.04385966666666263,
            "ticks": 78288,
            "durationTicks": 16
          },
          {
            "time": 214.868507,
            "midi": 56,
            "name": "G#3",
            "velocity": 0.8346456692913385,
            "duration": 0.04385966666666263,
            "ticks": 78384,
            "durationTicks": 16
          },
          {
            "time": 215.26324400000001,
            "midi": 56,
            "name": "G#3",
            "velocity": 0.8346456692913385,
            "duration": 0.04385966666663421,
            "ticks": 78528,
            "durationTicks": 16
          },
          {
            "time": 215.657981,
            "midi": 53,
            "name": "F3",
            "velocity": 0.8346456692913385,
            "duration": 0.04385966666666263,
            "ticks": 78672,
            "durationTicks": 16
          },
          {
            "time": 215.78956,
            "midi": 56,
            "name": "G#3",
            "velocity": 0.8346456692913385,
            "duration": 0.04385966666666263,
            "ticks": 78720,
            "durationTicks": 16
          },
          {
            "time": 216.052718,
            "midi": 56,
            "name": "G#3",
            "velocity": 0.8346456692913385,
            "duration": 0.04385966666666263,
            "ticks": 78816,
            "durationTicks": 16
          },
          {
            "time": 216.447455,
            "midi": 56,
            "name": "G#3",
            "velocity": 0.8346456692913385,
            "duration": 0.04385966666666263,
            "ticks": 78960,
            "durationTicks": 16
          },
          {
            "time": 216.710613,
            "midi": 56,
            "name": "G#3",
            "velocity": 0.8346456692913385,
            "duration": 0.04385966666666263,
            "ticks": 79056,
            "durationTicks": 16
          },
          {
            "time": 216.973771,
            "midi": 56,
            "name": "G#3",
            "velocity": 0.8346456692913385,
            "duration": 0.04385966666666263,
            "ticks": 79152,
            "durationTicks": 16
          },
          {
            "time": 217.368508,
            "midi": 56,
            "name": "G#3",
            "velocity": 0.8346456692913385,
            "duration": 0.04385966666666263,
            "ticks": 79296,
            "durationTicks": 16
          },
          {
            "time": 217.763245,
            "midi": 53,
            "name": "F3",
            "velocity": 0.8346456692913385,
            "duration": 0.04385966666663421,
            "ticks": 79440,
            "durationTicks": 16
          },
          {
            "time": 217.894824,
            "midi": 56,
            "name": "G#3",
            "velocity": 0.8346456692913385,
            "duration": 0.04385966666666263,
            "ticks": 79488,
            "durationTicks": 16
          },
          {
            "time": 218.289561,
            "midi": 56,
            "name": "G#3",
            "velocity": 0.8346456692913385,
            "duration": 0.04385966666666263,
            "ticks": 79632,
            "durationTicks": 16
          },
          {
            "time": 218.684298,
            "midi": 53,
            "name": "F3",
            "velocity": 0.8346456692913385,
            "duration": 0.04385966666663421,
            "ticks": 79776,
            "durationTicks": 16
          },
          {
            "time": 218.815877,
            "midi": 56,
            "name": "G#3",
            "velocity": 0.8346456692913385,
            "duration": 0.04385966666666263,
            "ticks": 79824,
            "durationTicks": 16
          },
          {
            "time": 219.079035,
            "midi": 56,
            "name": "G#3",
            "velocity": 0.8346456692913385,
            "duration": 0.04385966666666263,
            "ticks": 79920,
            "durationTicks": 16
          },
          {
            "time": 219.473772,
            "midi": 56,
            "name": "G#3",
            "velocity": 0.8346456692913385,
            "duration": 0.04385966666666263,
            "ticks": 80064,
            "durationTicks": 16
          },
          {
            "time": 219.868509,
            "midi": 53,
            "name": "F3",
            "velocity": 0.8346456692913385,
            "duration": 0.04385966666666263,
            "ticks": 80208,
            "durationTicks": 16
          },
          {
            "time": 220.000088,
            "midi": 56,
            "name": "G#3",
            "velocity": 0.8346456692913385,
            "duration": 0.04385966666666263,
            "ticks": 80256,
            "durationTicks": 16
          },
          {
            "time": 220.263246,
            "midi": 56,
            "name": "G#3",
            "velocity": 0.8346456692913385,
            "duration": 0.04385966666666263,
            "ticks": 80352,
            "durationTicks": 16
          },
          {
            "time": 220.526404,
            "midi": 56,
            "name": "G#3",
            "velocity": 0.8346456692913385,
            "duration": 0.04385966666663421,
            "ticks": 80448,
            "durationTicks": 16
          },
          {
            "time": 220.657983,
            "midi": 58,
            "name": "A#3",
            "velocity": 0.8346456692913385,
            "duration": 0.04385966666666263,
            "ticks": 80496,
            "durationTicks": 16
          },
          {
            "time": 221.184299,
            "midi": 56,
            "name": "G#3",
            "velocity": 0.8346456692913385,
            "duration": 0.04385966666666263,
            "ticks": 80688,
            "durationTicks": 16
          },
          {
            "time": 221.579036,
            "midi": 56,
            "name": "G#3",
            "velocity": 0.8346456692913385,
            "duration": 0.04385966666666263,
            "ticks": 80832,
            "durationTicks": 16
          },
          {
            "time": 221.973773,
            "midi": 53,
            "name": "F3",
            "velocity": 0.8346456692913385,
            "duration": 0.04385966666666263,
            "ticks": 80976,
            "durationTicks": 16
          },
          {
            "time": 222.105352,
            "midi": 56,
            "name": "G#3",
            "velocity": 0.8346456692913385,
            "duration": 0.04385966666666263,
            "ticks": 81024,
            "durationTicks": 16
          },
          {
            "time": 222.36851000000001,
            "midi": 56,
            "name": "G#3",
            "velocity": 0.8346456692913385,
            "duration": 0.04385966666663421,
            "ticks": 81120,
            "durationTicks": 16
          },
          {
            "time": 222.894826,
            "midi": 51,
            "name": "D#3",
            "velocity": 0.8346456692913385,
            "duration": 0.04385966666666263,
            "ticks": 81312,
            "durationTicks": 16
          },
          {
            "time": 223.026405,
            "midi": 53,
            "name": "F3",
            "velocity": 0.8346456692913385,
            "duration": 0.04385966666663421,
            "ticks": 81360,
            "durationTicks": 16
          },
          {
            "time": 223.28956300000002,
            "midi": 56,
            "name": "G#3",
            "velocity": 0.8346456692913385,
            "duration": 0.04385966666663421,
            "ticks": 81456,
            "durationTicks": 16
          },
          {
            "time": 223.6843,
            "midi": 56,
            "name": "G#3",
            "velocity": 0.8346456692913385,
            "duration": 0.04385966666666263,
            "ticks": 81600,
            "durationTicks": 16
          },
          {
            "time": 224.079037,
            "midi": 53,
            "name": "F3",
            "velocity": 0.8346456692913385,
            "duration": 0.04385966666666263,
            "ticks": 81744,
            "durationTicks": 16
          },
          {
            "time": 224.21061600000002,
            "midi": 56,
            "name": "G#3",
            "velocity": 0.8346456692913385,
            "duration": 0.04385966666663421,
            "ticks": 81792,
            "durationTicks": 16
          },
          {
            "time": 224.473774,
            "midi": 56,
            "name": "G#3",
            "velocity": 0.8346456692913385,
            "duration": 0.04385966666666263,
            "ticks": 81888,
            "durationTicks": 16
          },
          {
            "time": 224.868511,
            "midi": 56,
            "name": "G#3",
            "velocity": 0.8346456692913385,
            "duration": 0.04385966666663421,
            "ticks": 82032,
            "durationTicks": 16
          },
          {
            "time": 225.13166900000002,
            "midi": 56,
            "name": "G#3",
            "velocity": 0.8346456692913385,
            "duration": 0.04385966666663421,
            "ticks": 82128,
            "durationTicks": 16
          },
          {
            "time": 225.394827,
            "midi": 56,
            "name": "G#3",
            "velocity": 0.8346456692913385,
            "duration": 0.04385966666666263,
            "ticks": 82224,
            "durationTicks": 16
          },
          {
            "time": 225.789564,
            "midi": 56,
            "name": "G#3",
            "velocity": 0.8346456692913385,
            "duration": 0.04385966666663421,
            "ticks": 82368,
            "durationTicks": 16
          },
          {
            "time": 226.184301,
            "midi": 53,
            "name": "F3",
            "velocity": 0.8346456692913385,
            "duration": 0.04385966666666263,
            "ticks": 82512,
            "durationTicks": 16
          },
          {
            "time": 226.31588,
            "midi": 56,
            "name": "G#3",
            "velocity": 0.8346456692913385,
            "duration": 0.04385966666666263,
            "ticks": 82560,
            "durationTicks": 16
          },
          {
            "time": 226.710617,
            "midi": 56,
            "name": "G#3",
            "velocity": 0.8346456692913385,
            "duration": 0.04385966666663421,
            "ticks": 82704,
            "durationTicks": 16
          },
          {
            "time": 227.105354,
            "midi": 53,
            "name": "F3",
            "velocity": 0.8346456692913385,
            "duration": 0.04385966666666263,
            "ticks": 82848,
            "durationTicks": 16
          },
          {
            "time": 227.236933,
            "midi": 56,
            "name": "G#3",
            "velocity": 0.8346456692913385,
            "duration": 0.04385966666666263,
            "ticks": 82896,
            "durationTicks": 16
          },
          {
            "time": 227.500091,
            "midi": 56,
            "name": "G#3",
            "velocity": 0.8346456692913385,
            "duration": 0.04385966666666263,
            "ticks": 82992,
            "durationTicks": 16
          },
          {
            "time": 227.894828,
            "midi": 56,
            "name": "G#3",
            "velocity": 0.8346456692913385,
            "duration": 0.04385966666666263,
            "ticks": 83136,
            "durationTicks": 16
          },
          {
            "time": 228.289565,
            "midi": 53,
            "name": "F3",
            "velocity": 0.8346456692913385,
            "duration": 0.04385966666666263,
            "ticks": 83280,
            "durationTicks": 16
          },
          {
            "time": 228.421144,
            "midi": 56,
            "name": "G#3",
            "velocity": 0.8346456692913385,
            "duration": 0.04385966666666263,
            "ticks": 83328,
            "durationTicks": 16
          },
          {
            "time": 228.684302,
            "midi": 56,
            "name": "G#3",
            "velocity": 0.8346456692913385,
            "duration": 0.04385966666666263,
            "ticks": 83424,
            "durationTicks": 16
          },
          {
            "time": 228.94746,
            "midi": 56,
            "name": "G#3",
            "velocity": 0.8346456692913385,
            "duration": 0.04385966666666263,
            "ticks": 83520,
            "durationTicks": 16
          },
          {
            "time": 229.079039,
            "midi": 58,
            "name": "A#3",
            "velocity": 0.8346456692913385,
            "duration": 0.04385966666666263,
            "ticks": 83568,
            "durationTicks": 16
          },
          {
            "time": 229.605355,
            "midi": 56,
            "name": "G#3",
            "velocity": 0.8346456692913385,
            "duration": 0.04385966666666263,
            "ticks": 83760,
            "durationTicks": 16
          },
          {
            "time": 230.000092,
            "midi": 56,
            "name": "G#3",
            "velocity": 0.8346456692913385,
            "duration": 0.04385966666666263,
            "ticks": 83904,
            "durationTicks": 16
          },
          {
            "time": 230.39482900000002,
            "midi": 53,
            "name": "F3",
            "velocity": 0.8346456692913385,
            "duration": 0.04385966666663421,
            "ticks": 84048,
            "durationTicks": 16
          },
          {
            "time": 230.526408,
            "midi": 56,
            "name": "G#3",
            "velocity": 0.8346456692913385,
            "duration": 0.04385966666666263,
            "ticks": 84096,
            "durationTicks": 16
          },
          {
            "time": 230.789566,
            "midi": 56,
            "name": "G#3",
            "velocity": 0.8346456692913385,
            "duration": 0.04385966666666263,
            "ticks": 84192,
            "durationTicks": 16
          },
          {
            "time": 231.31588200000002,
            "midi": 51,
            "name": "D#3",
            "velocity": 0.8346456692913385,
            "duration": 0.04385966666663421,
            "ticks": 84384,
            "durationTicks": 16
          },
          {
            "time": 231.447461,
            "midi": 53,
            "name": "F3",
            "velocity": 0.8346456692913385,
            "duration": 0.04385966666666263,
            "ticks": 84432,
            "durationTicks": 16
          },
          {
            "time": 231.710619,
            "midi": 56,
            "name": "G#3",
            "velocity": 0.8346456692913385,
            "duration": 0.04385966666666263,
            "ticks": 84528,
            "durationTicks": 16
          },
          {
            "time": 232.105356,
            "midi": 56,
            "name": "G#3",
            "velocity": 0.8346456692913385,
            "duration": 0.04385966666666263,
            "ticks": 84672,
            "durationTicks": 16
          },
          {
            "time": 232.500093,
            "midi": 53,
            "name": "F3",
            "velocity": 0.8346456692913385,
            "duration": 0.04385966666666263,
            "ticks": 84816,
            "durationTicks": 16
          },
          {
            "time": 232.631672,
            "midi": 56,
            "name": "G#3",
            "velocity": 0.8346456692913385,
            "duration": 0.04385966666666263,
            "ticks": 84864,
            "durationTicks": 16
          },
          {
            "time": 232.89483,
            "midi": 56,
            "name": "G#3",
            "velocity": 0.8346456692913385,
            "duration": 0.04385966666663421,
            "ticks": 84960,
            "durationTicks": 16
          },
          {
            "time": 233.289567,
            "midi": 56,
            "name": "G#3",
            "velocity": 0.8346456692913385,
            "duration": 0.04385966666666263,
            "ticks": 85104,
            "durationTicks": 16
          },
          {
            "time": 233.552725,
            "midi": 56,
            "name": "G#3",
            "velocity": 0.8346456692913385,
            "duration": 0.04385966666666263,
            "ticks": 85200,
            "durationTicks": 16
          },
          {
            "time": 233.815883,
            "midi": 56,
            "name": "G#3",
            "velocity": 0.8346456692913385,
            "duration": 0.04385966666663421,
            "ticks": 85296,
            "durationTicks": 16
          },
          {
            "time": 234.21062,
            "midi": 56,
            "name": "G#3",
            "velocity": 0.8346456692913385,
            "duration": 0.04385966666666263,
            "ticks": 85440,
            "durationTicks": 16
          },
          {
            "time": 234.605357,
            "midi": 53,
            "name": "F3",
            "velocity": 0.8346456692913385,
            "duration": 0.04385966666666263,
            "ticks": 85584,
            "durationTicks": 16
          },
          {
            "time": 234.73693600000001,
            "midi": 56,
            "name": "G#3",
            "velocity": 0.8346456692913385,
            "duration": 0.04385966666663421,
            "ticks": 85632,
            "durationTicks": 16
          },
          {
            "time": 235.131673,
            "midi": 56,
            "name": "G#3",
            "velocity": 0.8346456692913385,
            "duration": 0.04385966666666263,
            "ticks": 85776,
            "durationTicks": 16
          },
          {
            "time": 235.52641,
            "midi": 53,
            "name": "F3",
            "velocity": 0.8346456692913385,
            "duration": 0.04385966666666263,
            "ticks": 85920,
            "durationTicks": 16
          },
          {
            "time": 235.65798900000001,
            "midi": 56,
            "name": "G#3",
            "velocity": 0.8346456692913385,
            "duration": 0.04385966666663421,
            "ticks": 85968,
            "durationTicks": 16
          },
          {
            "time": 235.921147,
            "midi": 56,
            "name": "G#3",
            "velocity": 0.8346456692913385,
            "duration": 0.04385966666666263,
            "ticks": 86064,
            "durationTicks": 16
          },
          {
            "time": 236.315884,
            "midi": 56,
            "name": "G#3",
            "velocity": 0.8346456692913385,
            "duration": 0.04385966666663421,
            "ticks": 86208,
            "durationTicks": 16
          },
          {
            "time": 236.710621,
            "midi": 53,
            "name": "F3",
            "velocity": 0.8346456692913385,
            "duration": 0.04385966666666263,
            "ticks": 86352,
            "durationTicks": 16
          },
          {
            "time": 236.8422,
            "midi": 56,
            "name": "G#3",
            "velocity": 0.8346456692913385,
            "duration": 0.04385966666666263,
            "ticks": 86400,
            "durationTicks": 16
          },
          {
            "time": 237.105358,
            "midi": 56,
            "name": "G#3",
            "velocity": 0.8346456692913385,
            "duration": 0.04385966666666263,
            "ticks": 86496,
            "durationTicks": 16
          },
          {
            "time": 237.368516,
            "midi": 56,
            "name": "G#3",
            "velocity": 0.8346456692913385,
            "duration": 0.04385966666666263,
            "ticks": 86592,
            "durationTicks": 16
          },
          {
            "time": 237.50009500000002,
            "midi": 58,
            "name": "A#3",
            "velocity": 0.8346456692913385,
            "duration": 0.04385966666663421,
            "ticks": 86640,
            "durationTicks": 16
          },
          {
            "time": 238.026411,
            "midi": 56,
            "name": "G#3",
            "velocity": 0.8346456692913385,
            "duration": 0.04385966666666263,
            "ticks": 86832,
            "durationTicks": 16
          },
          {
            "time": 238.42114800000002,
            "midi": 56,
            "name": "G#3",
            "velocity": 0.8346456692913385,
            "duration": 0.04385966666663421,
            "ticks": 86976,
            "durationTicks": 16
          },
          {
            "time": 238.815885,
            "midi": 53,
            "name": "F3",
            "velocity": 0.8346456692913385,
            "duration": 0.04385966666666263,
            "ticks": 87120,
            "durationTicks": 16
          },
          {
            "time": 238.947464,
            "midi": 56,
            "name": "G#3",
            "velocity": 0.8346456692913385,
            "duration": 0.04385966666666263,
            "ticks": 87168,
            "durationTicks": 16
          },
          {
            "time": 239.210622,
            "midi": 56,
            "name": "G#3",
            "velocity": 0.8346456692913385,
            "duration": 0.04385966666666263,
            "ticks": 87264,
            "durationTicks": 16
          },
          {
            "time": 239.736938,
            "midi": 51,
            "name": "D#3",
            "velocity": 0.8346456692913385,
            "duration": 0.04385966666666263,
            "ticks": 87456,
            "durationTicks": 16
          },
          {
            "time": 239.868517,
            "midi": 53,
            "name": "F3",
            "velocity": 0.8346456692913385,
            "duration": 0.04385966666666263,
            "ticks": 87504,
            "durationTicks": 16
          },
          {
            "time": 240.131675,
            "midi": 56,
            "name": "G#3",
            "velocity": 0.8346456692913385,
            "duration": 0.04385966666666263,
            "ticks": 87600,
            "durationTicks": 16
          },
          {
            "time": 240.526412,
            "midi": 56,
            "name": "G#3",
            "velocity": 0.8346456692913385,
            "duration": 0.04385966666666263,
            "ticks": 87744,
            "durationTicks": 16
          },
          {
            "time": 240.921149,
            "midi": 53,
            "name": "F3",
            "velocity": 0.8346456692913385,
            "duration": 0.04385966666663421,
            "ticks": 87888,
            "durationTicks": 16
          },
          {
            "time": 241.052728,
            "midi": 56,
            "name": "G#3",
            "velocity": 0.8346456692913385,
            "duration": 0.04385966666666263,
            "ticks": 87936,
            "durationTicks": 16
          },
          {
            "time": 241.315886,
            "midi": 56,
            "name": "G#3",
            "velocity": 0.8346456692913385,
            "duration": 0.04385966666666263,
            "ticks": 88032,
            "durationTicks": 16
          },
          {
            "time": 241.710623,
            "midi": 56,
            "name": "G#3",
            "velocity": 0.8346456692913385,
            "duration": 0.04385966666666263,
            "ticks": 88176,
            "durationTicks": 16
          },
          {
            "time": 241.973781,
            "midi": 56,
            "name": "G#3",
            "velocity": 0.8346456692913385,
            "duration": 0.04385966666666263,
            "ticks": 88272,
            "durationTicks": 16
          }
        ],
        "controlChanges": {
          "0": [
            {
              "number": 0,
              "value": 0,
              "time": 1.5844304583333333,
              "ticks": 578
            }
          ],
          "1": [
            {
              "number": 1,
              "value": 0,
              "time": 0.021929833333333332,
              "ticks": 8
            }
          ],
          "6": [
            {
              "number": 6,
              "value": 0.09448818897637795,
              "time": 0.016447375,
              "ticks": 6
            }
          ],
          "7": [
            {
              "number": 7,
              "value": 0.6299212598425197,
              "time": 1.5899129166666668,
              "ticks": 580
            }
          ],
          "10": [
            {
              "number": 10,
              "value": 0.5039370078740157,
              "time": 1.595395375,
              "ticks": 582
            }
          ],
          "11": [
            {
              "number": 11,
              "value": 1,
              "time": 0.019188604166666668,
              "ticks": 7
            },
            {
              "number": 11,
              "value": 1,
              "time": 0.027412291666666668,
              "ticks": 10
            },
            {
              "number": 11,
              "value": 1,
              "time": 1.6008778333333333,
              "ticks": 584
            }
          ],
          "32": [
            {
              "number": 32,
              "value": 0,
              "time": 1.5844304583333333,
              "ticks": 578
            }
          ],
          "64": [
            {
              "number": 64,
              "value": 0,
              "time": 0.0082236875,
              "ticks": 3
            }
          ],
          "67": [
            {
              "number": 67,
              "value": 0,
              "time": 0.005482458333333333,
              "ticks": 2
            }
          ],
          "91": [
            {
              "number": 91,
              "value": 0.5039370078740157,
              "time": 1.6063602916666668,
              "ticks": 586
            }
          ],
          "93": [
            {
              "number": 93,
              "value": 0.4251968503937008,
              "time": 1.61184275,
              "ticks": 588
            }
          ],
          "100": [
            {
              "number": 100,
              "value": 0,
              "time": 0.010964916666666666,
              "ticks": 4
            }
          ],
          "101": [
            {
              "number": 101,
              "value": 0,
              "time": 0.013706145833333334,
              "ticks": 5
            }
          ],
          "121": [
            {
              "number": 121,
              "value": 0,
              "time": 0,
              "ticks": 0
            }
          ],
          "123": [
            {
              "number": 123,
              "value": 0,
              "time": 244.20514154166665,
              "ticks": 89086
            }
          ]
        }
      },
      {
        "name": "Tenor Sax",
        "channel": 0,
        "instrument": {
          "number": 66,
          "name": "tenor sax",
          "family": "reed"
        },
        "notes": [
          {
            "time": 23.68422,
            "midi": 58,
            "name": "A#3",
            "velocity": 0.9763779527559056,
            "duration": 0.21929833333333093,
            "ticks": 8640,
            "durationTicks": 80
          },
          {
            "time": 23.947378,
            "midi": 60,
            "name": "C4",
            "velocity": 0.9448818897637795,
            "duration": 0.060307041666668226,
            "ticks": 8736,
            "durationTicks": 22
          },
          {
            "time": 24.210536,
            "midi": 61,
            "name": "C#4",
            "velocity": 1,
            "duration": 0.22203956249999734,
            "ticks": 8832,
            "durationTicks": 81
          },
          {
            "time": 24.473694000000002,
            "midi": 61,
            "name": "C#4",
            "velocity": 0.8976377952755905,
            "duration": 0.14254391666666777,
            "ticks": 8928,
            "durationTicks": 52
          },
          {
            "time": 24.736852,
            "midi": 63,
            "name": "D#4",
            "velocity": 1,
            "duration": 0.10690793750000083,
            "ticks": 9024,
            "durationTicks": 39
          },
          {
            "time": 25.00001,
            "midi": 60,
            "name": "C4",
            "velocity": 1,
            "duration": 0.32620627083333176,
            "ticks": 9120,
            "durationTicks": 119
          },
          {
            "time": 25.394747,
            "midi": 58,
            "name": "A#3",
            "velocity": 0.8661417322834646,
            "duration": 0.06578950000000106,
            "ticks": 9264,
            "durationTicks": 24
          },
          {
            "time": 25.526326,
            "midi": 56,
            "name": "G#3",
            "velocity": 1,
            "duration": 0.7538380208333315,
            "ticks": 9312,
            "durationTicks": 275
          },
          {
            "time": 27.63159,
            "midi": 58,
            "name": "A#3",
            "velocity": 1,
            "duration": 0.20010972916666958,
            "ticks": 10080,
            "durationTicks": 73
          },
          {
            "time": 27.894748,
            "midi": 58,
            "name": "A#3",
            "velocity": 0.9212598425196851,
            "duration": 0.21655710416666807,
            "ticks": 10176,
            "durationTicks": 79
          },
          {
            "time": 28.157906,
            "midi": 60,
            "name": "C4",
            "velocity": 0.968503937007874,
            "duration": 0.20559218749999886,
            "ticks": 10272,
            "durationTicks": 75
          },
          {
            "time": 28.421064,
            "midi": 61,
            "name": "C#4",
            "velocity": 0.968503937007874,
            "duration": 0.20559218749999886,
            "ticks": 10368,
            "durationTicks": 75
          },
          {
            "time": 28.684222000000002,
            "midi": 58,
            "name": "A#3",
            "velocity": 0.8818897637795275,
            "duration": 0.0932017916666652,
            "ticks": 10464,
            "durationTicks": 34
          },
          {
            "time": 29.210538,
            "midi": 56,
            "name": "G#3",
            "velocity": 1,
            "duration": 0.11513162500000007,
            "ticks": 10656,
            "durationTicks": 42
          },
          {
            "time": 29.473696,
            "midi": 68,
            "name": "G#4",
            "velocity": 1,
            "duration": 0.2823466041666691,
            "ticks": 10752,
            "durationTicks": 103
          },
          {
            "time": 30.000012,
            "midi": 68,
            "name": "G#4",
            "velocity": 1,
            "duration": 0.1864035833333304,
            "ticks": 10944,
            "durationTicks": 68
          },
          {
            "time": 30.26317,
            "midi": 63,
            "name": "D#4",
            "velocity": 1,
            "duration": 0.789474000000002,
            "ticks": 11040,
            "durationTicks": 288
          },
          {
            "time": 31.842118,
            "midi": 58,
            "name": "A#3",
            "velocity": 0.937007874015748,
            "duration": 0.08771933333333237,
            "ticks": 11616,
            "durationTicks": 32
          },
          {
            "time": 32.105276,
            "midi": 58,
            "name": "A#3",
            "velocity": 1,
            "duration": 0.2028509583333289,
            "ticks": 11712,
            "durationTicks": 74
          },
          {
            "time": 32.368434,
            "midi": 60,
            "name": "C4",
            "velocity": 0.8740157480314961,
            "duration": 0.05756581250000181,
            "ticks": 11808,
            "durationTicks": 21
          },
          {
            "time": 32.631592,
            "midi": 61,
            "name": "C#4",
            "velocity": 0.984251968503937,
            "duration": 0.23300447916667366,
            "ticks": 11904,
            "durationTicks": 85
          },
          {
            "time": 32.89475,
            "midi": 58,
            "name": "A#3",
            "velocity": 0.9212598425196851,
            "duration": 0.09046056249999879,
            "ticks": 12000,
            "durationTicks": 33
          },
          {
            "time": 33.157908,
            "midi": 61,
            "name": "C#4",
            "velocity": 1,
            "duration": 0.2247807916666673,
            "ticks": 12096,
            "durationTicks": 82
          },
          {
            "time": 33.421066,
            "midi": 63,
            "name": "D#4",
            "velocity": 0.9448818897637795,
            "duration": 0.0740131875000003,
            "ticks": 12192,
            "durationTicks": 27
          },
          {
            "time": 33.947382,
            "midi": 60,
            "name": "C4",
            "velocity": 0.968503937007874,
            "duration": 0.2247807916666673,
            "ticks": 12384,
            "durationTicks": 82
          },
          {
            "time": 34.21054,
            "midi": 58,
            "name": "A#3",
            "velocity": 0.937007874015748,
            "duration": 0.19188604166666323,
            "ticks": 12480,
            "durationTicks": 70
          },
          {
            "time": 34.473698,
            "midi": 60,
            "name": "C4",
            "velocity": 0.9212598425196851,
            "duration": 0.06853072916666747,
            "ticks": 12576,
            "durationTicks": 25
          },
          {
            "time": 34.605277,
            "midi": 58,
            "name": "A#3",
            "velocity": 0.8582677165354331,
            "duration": 0.05756581250000181,
            "ticks": 12624,
            "durationTicks": 21
          },
          {
            "time": 34.736856,
            "midi": 56,
            "name": "G#3",
            "velocity": 1,
            "duration": 0.5317984583333342,
            "ticks": 12672,
            "durationTicks": 194
          },
          {
            "time": 36.052646,
            "midi": 58,
            "name": "A#3",
            "velocity": 1,
            "duration": 0.18092112499999757,
            "ticks": 13152,
            "durationTicks": 66
          },
          {
            "time": 36.315804,
            "midi": 58,
            "name": "A#3",
            "velocity": 1,
            "duration": 0.2055921875000024,
            "ticks": 13248,
            "durationTicks": 75
          },
          {
            "time": 36.578962,
            "midi": 60,
            "name": "C4",
            "velocity": 0.952755905511811,
            "duration": 0.12609654166666928,
            "ticks": 13344,
            "durationTicks": 46
          },
          {
            "time": 36.84212,
            "midi": 61,
            "name": "C#4",
            "velocity": 1,
            "duration": 0.21655710416666096,
            "ticks": 13440,
            "durationTicks": 79
          },
          {
            "time": 37.105278,
            "midi": 58,
            "name": "A#3",
            "velocity": 0.905511811023622,
            "duration": 0.10142547916666445,
            "ticks": 13536,
            "durationTicks": 37
          },
          {
            "time": 37.368436,
            "midi": 56,
            "name": "G#3",
            "velocity": 1,
            "duration": 0.3536185624999959,
            "ticks": 13632,
            "durationTicks": 129
          },
          {
            "time": 37.894752,
            "midi": 63,
            "name": "D#4",
            "velocity": 0.968503937007874,
            "duration": 0.21107464583334234,
            "ticks": 13824,
            "durationTicks": 77
          },
          {
            "time": 38.15791,
            "midi": 63,
            "name": "D#4",
            "velocity": 1,
            "duration": 0.18914481249999682,
            "ticks": 13920,
            "durationTicks": 69
          },
          {
            "time": 38.421068,
            "midi": 63,
            "name": "D#4",
            "velocity": 0.984251968503937,
            "duration": 0.19462727083333675,
            "ticks": 14016,
            "durationTicks": 71
          },
          {
            "time": 38.684226,
            "midi": 65,
            "name": "F4",
            "velocity": 0.968503937007874,
            "duration": 0.18914481249999682,
            "ticks": 14112,
            "durationTicks": 69
          },
          {
            "time": 38.947384,
            "midi": 63,
            "name": "D#4",
            "velocity": 1,
            "duration": 0.5537282916666655,
            "ticks": 14208,
            "durationTicks": 202
          },
          {
            "time": 40.000016,
            "midi": 61,
            "name": "C#4",
            "velocity": 1,
            "duration": 1.1293864166666623,
            "ticks": 14592,
            "durationTicks": 412
          },
          {
            "time": 41.315806,
            "midi": 63,
            "name": "D#4",
            "velocity": 1,
            "duration": 0.09868424999999803,
            "ticks": 15072,
            "durationTicks": 36
          },
          {
            "time": 41.578964,
            "midi": 65,
            "name": "F4",
            "velocity": 1,
            "duration": 0.20833341666666882,
            "ticks": 15168,
            "durationTicks": 76
          },
          {
            "time": 41.842122,
            "midi": 63,
            "name": "D#4",
            "velocity": 1,
            "duration": 0.43311420833333614,
            "ticks": 15264,
            "durationTicks": 158
          },
          {
            "time": 42.368438,
            "midi": 63,
            "name": "D#4",
            "velocity": 0.968503937007874,
            "duration": 0.08771933333333948,
            "ticks": 15456,
            "durationTicks": 32
          },
          {
            "time": 42.631596,
            "midi": 63,
            "name": "D#4",
            "velocity": 1,
            "duration": 0.202850958333336,
            "ticks": 15552,
            "durationTicks": 74
          },
          {
            "time": 42.894754,
            "midi": 65,
            "name": "F4",
            "velocity": 1,
            "duration": 0.183662354166664,
            "ticks": 15648,
            "durationTicks": 67
          },
          {
            "time": 43.157912,
            "midi": 63,
            "name": "D#4",
            "velocity": 1,
            "duration": 0.21655710416666096,
            "ticks": 15744,
            "durationTicks": 79
          },
          {
            "time": 43.42107,
            "midi": 56,
            "name": "G#3",
            "velocity": 0.905511811023622,
            "duration": 0.17269743749999833,
            "ticks": 15840,
            "durationTicks": 63
          },
          {
            "time": 43.684228,
            "midi": 56,
            "name": "G#3",
            "velocity": 1,
            "duration": 0.41666683333333765,
            "ticks": 15936,
            "durationTicks": 152
          },
          {
            "time": 45.000018,
            "midi": 56,
            "name": "G#3",
            "velocity": 1,
            "duration": 0.10690793750000438,
            "ticks": 16416,
            "durationTicks": 39
          },
          {
            "time": 45.263176,
            "midi": 58,
            "name": "A#3",
            "velocity": 1,
            "duration": 0.2055921875000024,
            "ticks": 16512,
            "durationTicks": 75
          },
          {
            "time": 45.526334,
            "midi": 60,
            "name": "C4",
            "velocity": 1,
            "duration": 0.12061408333333645,
            "ticks": 16608,
            "durationTicks": 44
          },
          {
            "time": 45.789492,
            "midi": 61,
            "name": "C#4",
            "velocity": 1,
            "duration": 0.2220395625000009,
            "ticks": 16704,
            "durationTicks": 81
          },
          {
            "time": 46.05265,
            "midi": 58,
            "name": "A#3",
            "velocity": 0.8661417322834646,
            "duration": 0.10964916666666369,
            "ticks": 16800,
            "durationTicks": 40
          },
          {
            "time": 46.578966,
            "midi": 63,
            "name": "D#4",
            "velocity": 1,
            "duration": 0.20833341666666172,
            "ticks": 16992,
            "durationTicks": 76
          },
          {
            "time": 46.842124,
            "midi": 65,
            "name": "F4",
            "velocity": 1,
            "duration": 0.16995620833333902,
            "ticks": 17088,
            "durationTicks": 62
          },
          {
            "time": 47.105282,
            "midi": 63,
            "name": "D#4",
            "velocity": 1,
            "duration": 0.5317984583333342,
            "ticks": 17184,
            "durationTicks": 194
          },
          {
            "time": 47.894756,
            "midi": 56,
            "name": "G#3",
            "velocity": 1,
            "duration": 0.07675441666666671,
            "ticks": 17472,
            "durationTicks": 28
          },
          {
            "time": 48.026335,
            "midi": 58,
            "name": "A#3",
            "velocity": 0.952755905511811,
            "duration": 0.057565812499994706,
            "ticks": 17520,
            "durationTicks": 21
          },
          {
            "time": 48.157914,
            "midi": 61,
            "name": "C#4",
            "velocity": 0.984251968503937,
            "duration": 0.07949564583334023,
            "ticks": 17568,
            "durationTicks": 29
          },
          {
            "time": 48.289493,
            "midi": 58,
            "name": "A#3",
            "velocity": 0.905511811023622,
            "duration": 0.05208335416666188,
            "ticks": 17616,
            "durationTicks": 19
          },
          {
            "time": 48.421072,
            "midi": 65,
            "name": "F4",
            "velocity": 1,
            "duration": 0.28508783333333554,
            "ticks": 17664,
            "durationTicks": 104
          },
          {
            "time": 48.815809,
            "midi": 65,
            "name": "F4",
            "velocity": 1,
            "duration": 0.2768641458333363,
            "ticks": 17808,
            "durationTicks": 101
          },
          {
            "time": 49.210546,
            "midi": 63,
            "name": "D#4",
            "velocity": 1,
            "duration": 0.43859666666666186,
            "ticks": 17952,
            "durationTicks": 160
          },
          {
            "time": 50.00002,
            "midi": 56,
            "name": "G#3",
            "velocity": 1,
            "duration": 0.0740131875000003,
            "ticks": 18240,
            "durationTicks": 27
          },
          {
            "time": 50.131599,
            "midi": 58,
            "name": "A#3",
            "velocity": 0.968503937007874,
            "duration": 0.05208335416666188,
            "ticks": 18288,
            "durationTicks": 19
          },
          {
            "time": 50.263178,
            "midi": 61,
            "name": "C#4",
            "velocity": 0.9763779527559056,
            "duration": 0.08223687499999954,
            "ticks": 18336,
            "durationTicks": 30
          },
          {
            "time": 50.394757,
            "midi": 58,
            "name": "A#3",
            "velocity": 0.952755905511811,
            "duration": 0.05208335416666898,
            "ticks": 18384,
            "durationTicks": 19
          },
          {
            "time": 50.526336,
            "midi": 63,
            "name": "D#4",
            "velocity": 1,
            "duration": 0.3125001249999997,
            "ticks": 18432,
            "durationTicks": 114
          },
          {
            "time": 50.921073,
            "midi": 63,
            "name": "D#4",
            "velocity": 1,
            "duration": 0.2796053750000027,
            "ticks": 18576,
            "durationTicks": 102
          },
          {
            "time": 51.31581,
            "midi": 61,
            "name": "C#4",
            "velocity": 1,
            "duration": 0.2987939791666676,
            "ticks": 18720,
            "durationTicks": 109
          },
          {
            "time": 51.710547,
            "midi": 60,
            "name": "C4",
            "velocity": 0.8267716535433071,
            "duration": 0.07675441666666671,
            "ticks": 18864,
            "durationTicks": 28
          },
          {
            "time": 51.842126,
            "midi": 58,
            "name": "A#3",
            "velocity": 0.9448818897637795,
            "duration": 0.21655710416666096,
            "ticks": 18912,
            "durationTicks": 79
          },
          {
            "time": 52.105284,
            "midi": 56,
            "name": "G#3",
            "velocity": 0.937007874015748,
            "duration": 0.06578950000000106,
            "ticks": 19008,
            "durationTicks": 24
          },
          {
            "time": 52.236863,
            "midi": 58,
            "name": "A#3",
            "velocity": 1,
            "duration": 0.0548245833333354,
            "ticks": 19056,
            "durationTicks": 20
          },
          {
            "time": 52.368442,
            "midi": 61,
            "name": "C#4",
            "velocity": 1,
            "duration": 0.07675441666665961,
            "ticks": 19104,
            "durationTicks": 28
          },
          {
            "time": 52.500021000000004,
            "midi": 58,
            "name": "A#3",
            "velocity": 0.952755905511811,
            "duration": 0.04934212499999546,
            "ticks": 19152,
            "durationTicks": 18
          },
          {
            "time": 52.6316,
            "midi": 61,
            "name": "C#4",
            "velocity": 1,
            "duration": 0.41940806250000406,
            "ticks": 19200,
            "durationTicks": 153
          },
          {
            "time": 53.157916,
            "midi": 63,
            "name": "D#4",
            "velocity": 0.937007874015748,
            "duration": 0.11239039583333721,
            "ticks": 19392,
            "durationTicks": 41
          },
          {
            "time": 53.421074,
            "midi": 60,
            "name": "C4",
            "velocity": 1,
            "duration": 0.3344299583333381,
            "ticks": 19488,
            "durationTicks": 122
          },
          {
            "time": 53.815811000000004,
            "midi": 58,
            "name": "A#3",
            "velocity": 0.8031496062992126,
            "duration": 0.06030704166666112,
            "ticks": 19632,
            "durationTicks": 22
          },
          {
            "time": 53.94739,
            "midi": 56,
            "name": "G#3",
            "velocity": 1,
            "duration": 0.41392560416666413,
            "ticks": 19680,
            "durationTicks": 151
          },
          {
            "time": 54.473706,
            "midi": 56,
            "name": "G#3",
            "velocity": 1,
            "duration": 0.12061408333333645,
            "ticks": 19872,
            "durationTicks": 44
          },
          {
            "time": 54.736864,
            "midi": 63,
            "name": "D#4",
            "velocity": 1,
            "duration": 0.23574570833334008,
            "ticks": 19968,
            "durationTicks": 86
          },
          {
            "time": 55.000022,
            "midi": 61,
            "name": "C#4",
            "velocity": 0.889763779527559,
            "duration": 0.19462727083333675,
            "ticks": 20064,
            "durationTicks": 71
          },
          {
            "time": 55.26318,
            "midi": 61,
            "name": "C#4",
            "velocity": 0.9763779527559056,
            "duration": 0.4824563333333387,
            "ticks": 20160,
            "durationTicks": 176
          },
          {
            "time": 56.315812,
            "midi": 56,
            "name": "G#3",
            "velocity": 0.9763779527559056,
            "duration": 0.06853072916666036,
            "ticks": 20544,
            "durationTicks": 25
          },
          {
            "time": 56.447391,
            "midi": 58,
            "name": "A#3",
            "velocity": 0.984251968503937,
            "duration": 0.057565812499994706,
            "ticks": 20592,
            "durationTicks": 21
          },
          {
            "time": 56.57897,
            "midi": 61,
            "name": "C#4",
            "velocity": 0.968503937007874,
            "duration": 0.08223687499999954,
            "ticks": 20640,
            "durationTicks": 30
          },
          {
            "time": 56.710549,
            "midi": 58,
            "name": "A#3",
            "velocity": 0.9448818897637795,
            "duration": 0.05208335416666188,
            "ticks": 20688,
            "durationTicks": 19
          },
          {
            "time": 56.842128,
            "midi": 65,
            "name": "F4",
            "velocity": 1,
            "duration": 0.43859666666666186,
            "ticks": 20736,
            "durationTicks": 160
          },
          {
            "time": 57.368444000000004,
            "midi": 65,
            "name": "F4",
            "velocity": 1,
            "duration": 0.17817989583333116,
            "ticks": 20928,
            "durationTicks": 65
          },
          {
            "time": 57.631602,
            "midi": 63,
            "name": "D#4",
            "velocity": 1,
            "duration": 0.49068002083333795,
            "ticks": 21024,
            "durationTicks": 179
          },
          {
            "time": 58.421076,
            "midi": 56,
            "name": "G#3",
            "velocity": 0.8740157480314961,
            "duration": 0.06853072916666747,
            "ticks": 21312,
            "durationTicks": 25
          },
          {
            "time": 58.552655,
            "midi": 58,
            "name": "A#3",
            "velocity": 0.952755905511811,
            "duration": 0.04934212500000257,
            "ticks": 21360,
            "durationTicks": 18
          },
          {
            "time": 58.684234000000004,
            "midi": 61,
            "name": "C#4",
            "velocity": 0.937007874015748,
            "duration": 0.08497810416665885,
            "ticks": 21408,
            "durationTicks": 31
          },
          {
            "time": 58.815813,
            "midi": 58,
            "name": "A#3",
            "velocity": 0.7795275590551181,
            "duration": 0.024671062500004837,
            "ticks": 21456,
            "durationTicks": 9
          },
          {
            "time": 58.947392,
            "midi": 68,
            "name": "G#4",
            "velocity": 1,
            "duration": 0.45504404166666745,
            "ticks": 21504,
            "durationTicks": 166
          },
          {
            "time": 59.473708,
            "midi": 61,
            "name": "C#4",
            "velocity": 1,
            "duration": 0.08771933333333237,
            "ticks": 21696,
            "durationTicks": 32
          },
          {
            "time": 59.736866,
            "midi": 61,
            "name": "C#4",
            "velocity": 1,
            "duration": 0.3755483958333343,
            "ticks": 21792,
            "durationTicks": 137
          },
          {
            "time": 60.131603,
            "midi": 60,
            "name": "C4",
            "velocity": 0.8267716535433071,
            "duration": 0.06578950000000106,
            "ticks": 21936,
            "durationTicks": 24
          },
          {
            "time": 60.263182,
            "midi": 58,
            "name": "A#3",
            "velocity": 0.9763779527559056,
            "duration": 0.21381587500000165,
            "ticks": 21984,
            "durationTicks": 78
          },
          {
            "time": 60.52634,
            "midi": 56,
            "name": "G#3",
            "velocity": 0.8976377952755905,
            "duration": 0.06578950000000106,
            "ticks": 22080,
            "durationTicks": 24
          },
          {
            "time": 60.657919,
            "midi": 58,
            "name": "A#3",
            "velocity": 0.9133858267716536,
            "duration": 0.041118437500003324,
            "ticks": 22128,
            "durationTicks": 15
          },
          {
            "time": 60.789498,
            "midi": 61,
            "name": "C#4",
            "velocity": 0.952755905511811,
            "duration": 0.09594302083333162,
            "ticks": 22176,
            "durationTicks": 35
          },
          {
            "time": 60.921077000000004,
            "midi": 58,
            "name": "A#3",
            "velocity": 0.8267716535433071,
            "duration": 0.04111843749999622,
            "ticks": 22224,
            "durationTicks": 15
          },
          {
            "time": 61.052656,
            "midi": 61,
            "name": "C#4",
            "velocity": 1,
            "duration": 0.45230281250000104,
            "ticks": 22272,
            "durationTicks": 165
          },
          {
            "time": 61.578972,
            "midi": 63,
            "name": "D#4",
            "velocity": 0.9448818897637795,
            "duration": 0.0932017916666652,
            "ticks": 22464,
            "durationTicks": 34
          },
          {
            "time": 61.84213,
            "midi": 60,
            "name": "C4",
            "velocity": 0.9133858267716536,
            "duration": 0.35910102083333584,
            "ticks": 22560,
            "durationTicks": 131
          },
          {
            "time": 61.84213,
            "midi": 58,
            "name": "A#3",
            "velocity": 0.9763779527559056,
            "duration": 0.11239039583333721,
            "ticks": 22560,
            "durationTicks": 41
          },
          {
            "time": 62.236867000000004,
            "midi": 58,
            "name": "A#3",
            "velocity": 0.8503937007874016,
            "duration": 0.057565812499994706,
            "ticks": 22704,
            "durationTicks": 21
          },
          {
            "time": 62.368446,
            "midi": 56,
            "name": "G#3",
            "velocity": 1,
            "duration": 0.4248905208333369,
            "ticks": 22752,
            "durationTicks": 155
          },
          {
            "time": 62.894762,
            "midi": 56,
            "name": "G#3",
            "velocity": 1,
            "duration": 0.10964916666666369,
            "ticks": 22944,
            "durationTicks": 40
          },
          {
            "time": 63.157920000000004,
            "midi": 63,
            "name": "D#4",
            "velocity": 1,
            "duration": 0.4468203541666611,
            "ticks": 23040,
            "durationTicks": 163
          },
          {
            "time": 63.684236,
            "midi": 61,
            "name": "C#4",
            "velocity": 1,
            "duration": 0.5756581250000039,
            "ticks": 23232,
            "durationTicks": 210
          },
          {
            "time": 65.526342,
            "midi": 61,
            "name": "C#4",
            "velocity": 0.937007874015748,
            "duration": 0.07675441666665961,
            "ticks": 23904,
            "durationTicks": 28
          },
          {
            "time": 65.7895,
            "midi": 61,
            "name": "C#4",
            "velocity": 0.968503937007874,
            "duration": 0.2604167708333307,
            "ticks": 24000,
            "durationTicks": 95
          },
          {
            "time": 66.052658,
            "midi": 58,
            "name": "A#3",
            "velocity": 0.8582677165354331,
            "duration": 0.2549343125000121,
            "ticks": 24096,
            "durationTicks": 93
          },
          {
            "time": 66.315816,
            "midi": 61,
            "name": "C#4",
            "velocity": 0.952755905511811,
            "duration": 0.2604167708333449,
            "ticks": 24192,
            "durationTicks": 95
          },
          {
            "time": 66.578974,
            "midi": 63,
            "name": "D#4",
            "velocity": 0.968503937007874,
            "duration": 0.6578949999999963,
            "ticks": 24288,
            "durationTicks": 240
          },
          {
            "time": 67.6398296875,
            "midi": 60,
            "name": "C4",
            "velocity": 0.84251968503937,
            "duration": 0.30701766666668107,
            "ticks": 24675,
            "durationTicks": 112
          },
          {
            "time": 67.91395260416667,
            "midi": 58,
            "name": "A#3",
            "velocity": 0.952755905511811,
            "duration": 0.2604167708333307,
            "ticks": 24775,
            "durationTicks": 95
          },
          {
            "time": 68.16340445833333,
            "midi": 56,
            "name": "G#3",
            "velocity": 0.952755905511811,
            "duration": 1.0800442916666668,
            "ticks": 24866,
            "durationTicks": 394
          },
          {
            "time": 69.73687,
            "midi": 58,
            "name": "A#3",
            "velocity": 0.8582677165354331,
            "duration": 0.08223687500000665,
            "ticks": 25440,
            "durationTicks": 30
          },
          {
            "time": 70.000028,
            "midi": 58,
            "name": "A#3",
            "velocity": 0.968503937007874,
            "duration": 0.2768641458333292,
            "ticks": 25536,
            "durationTicks": 101
          },
          {
            "time": 70.263186,
            "midi": 60,
            "name": "C4",
            "velocity": 0.9212598425196851,
            "duration": 0.23848693749999939,
            "ticks": 25632,
            "durationTicks": 87
          },
          {
            "time": 70.526344,
            "midi": 61,
            "name": "C#4",
            "velocity": 0.937007874015748,
            "duration": 0.23848693749999939,
            "ticks": 25728,
            "durationTicks": 87
          },
          {
            "time": 70.789502,
            "midi": 58,
            "name": "A#3",
            "velocity": 0.952755905511811,
            "duration": 0.28234660416667623,
            "ticks": 25824,
            "durationTicks": 103
          },
          {
            "time": 71.05266,
            "midi": 56,
            "name": "G#3",
            "velocity": 0.968503937007874,
            "duration": 0.3125001249999997,
            "ticks": 25920,
            "durationTicks": 114
          },
          {
            "time": 71.842134,
            "midi": 68,
            "name": "G#4",
            "velocity": 0.8740157480314961,
            "duration": 0.0932017916666723,
            "ticks": 26208,
            "durationTicks": 34
          },
          {
            "time": 72.105292,
            "midi": 68,
            "name": "G#4",
            "velocity": 0.9212598425196851,
            "duration": 0.2247807916666602,
            "ticks": 26304,
            "durationTicks": 82
          },
          {
            "time": 72.36845,
            "midi": 63,
            "name": "D#4",
            "velocity": 0.984251968503937,
            "duration": 0.4495615833333346,
            "ticks": 26400,
            "durationTicks": 164
          },
          {
            "time": 72.894766,
            "midi": 65,
            "name": "F4",
            "velocity": 0.8740157480314961,
            "duration": 0.14528514583332708,
            "ticks": 26592,
            "durationTicks": 53
          },
          {
            "time": 73.157924,
            "midi": 63,
            "name": "D#4",
            "velocity": 0.984251968503937,
            "duration": 0.2384869375000136,
            "ticks": 26688,
            "durationTicks": 87
          },
          {
            "time": 73.421082,
            "midi": 61,
            "name": "C#4",
            "velocity": 0.984251968503937,
            "duration": 0.23300447916668077,
            "ticks": 26784,
            "durationTicks": 85
          },
          {
            "time": 73.947398,
            "midi": 58,
            "name": "A#3",
            "velocity": 0.937007874015748,
            "duration": 0.08771933333332527,
            "ticks": 26976,
            "durationTicks": 32
          },
          {
            "time": 74.210556,
            "midi": 58,
            "name": "A#3",
            "velocity": 1,
            "duration": 0.2028509583333289,
            "ticks": 27072,
            "durationTicks": 74
          },
          {
            "time": 74.473714,
            "midi": 60,
            "name": "C4",
            "velocity": 0.8740157480314961,
            "duration": 0.05756581250000181,
            "ticks": 27168,
            "durationTicks": 21
          },
          {
            "time": 74.736872,
            "midi": 61,
            "name": "C#4",
            "velocity": 0.984251968503937,
            "duration": 0.23300447916666656,
            "ticks": 27264,
            "durationTicks": 85
          },
          {
            "time": 75.00003,
            "midi": 58,
            "name": "A#3",
            "velocity": 0.9212598425196851,
            "duration": 0.09046056249999879,
            "ticks": 27360,
            "durationTicks": 33
          },
          {
            "time": 75.263188,
            "midi": 61,
            "name": "C#4",
            "velocity": 1,
            "duration": 0.22478079166667442,
            "ticks": 27456,
            "durationTicks": 82
          },
          {
            "time": 75.526346,
            "midi": 63,
            "name": "D#4",
            "velocity": 0.9448818897637795,
            "duration": 0.0740131875000003,
            "ticks": 27552,
            "durationTicks": 27
          },
          {
            "time": 76.052662,
            "midi": 60,
            "name": "C4",
            "velocity": 0.968503937007874,
            "duration": 0.22478079166667442,
            "ticks": 27744,
            "durationTicks": 82
          },
          {
            "time": 76.31582,
            "midi": 58,
            "name": "A#3",
            "velocity": 0.937007874015748,
            "duration": 0.19188604166666323,
            "ticks": 27840,
            "durationTicks": 70
          },
          {
            "time": 76.578978,
            "midi": 60,
            "name": "C4",
            "velocity": 0.9212598425196851,
            "duration": 0.06853072916666747,
            "ticks": 27936,
            "durationTicks": 25
          },
          {
            "time": 76.710557,
            "midi": 58,
            "name": "A#3",
            "velocity": 0.8582677165354331,
            "duration": 0.05756581250000181,
            "ticks": 27984,
            "durationTicks": 21
          },
          {
            "time": 76.842136,
            "midi": 56,
            "name": "G#3",
            "velocity": 1,
            "duration": 0.5317984583333271,
            "ticks": 28032,
            "durationTicks": 194
          },
          {
            "time": 78.157926,
            "midi": 58,
            "name": "A#3",
            "velocity": 1,
            "duration": 0.18092112499999757,
            "ticks": 28512,
            "durationTicks": 66
          },
          {
            "time": 78.42108400000001,
            "midi": 58,
            "name": "A#3",
            "velocity": 1,
            "duration": 0.2055921874999882,
            "ticks": 28608,
            "durationTicks": 75
          },
          {
            "time": 78.684242,
            "midi": 60,
            "name": "C4",
            "velocity": 0.952755905511811,
            "duration": 0.12609654166666928,
            "ticks": 28704,
            "durationTicks": 46
          },
          {
            "time": 78.9474,
            "midi": 61,
            "name": "C#4",
            "velocity": 1,
            "duration": 0.21655710416666807,
            "ticks": 28800,
            "durationTicks": 79
          },
          {
            "time": 79.210558,
            "midi": 58,
            "name": "A#3",
            "velocity": 0.905511811023622,
            "duration": 0.10142547916666445,
            "ticks": 28896,
            "durationTicks": 37
          },
          {
            "time": 79.473716,
            "midi": 56,
            "name": "G#3",
            "velocity": 1,
            "duration": 0.353618562500003,
            "ticks": 28992,
            "durationTicks": 129
          },
          {
            "time": 80.26319,
            "midi": 63,
            "name": "D#4",
            "velocity": 0.968503937007874,
            "duration": 0.2796053750000027,
            "ticks": 29280,
            "durationTicks": 102
          },
          {
            "time": 80.526348,
            "midi": 65,
            "name": "F4",
            "velocity": 0.889763779527559,
            "duration": 0.1096491666666708,
            "ticks": 29376,
            "durationTicks": 40
          },
          {
            "time": 80.789506,
            "midi": 65,
            "name": "F4",
            "velocity": 0.9212598425196851,
            "duration": 0.5208335416666756,
            "ticks": 29472,
            "durationTicks": 190
          },
          {
            "time": 81.315822,
            "midi": 63,
            "name": "D#4",
            "velocity": 0.952755905511811,
            "duration": 0.693530979166681,
            "ticks": 29664,
            "durationTicks": 253
          },
          {
            "time": 82.105296,
            "midi": 61,
            "name": "C#4",
            "velocity": 1,
            "duration": 1.1293864166666765,
            "ticks": 29952,
            "durationTicks": 412
          },
          {
            "time": 83.421086,
            "midi": 63,
            "name": "D#4",
            "velocity": 1,
            "duration": 0.09868425000000514,
            "ticks": 30432,
            "durationTicks": 36
          },
          {
            "time": 83.684244,
            "midi": 65,
            "name": "F4",
            "velocity": 1,
            "duration": 0.20833341666666172,
            "ticks": 30528,
            "durationTicks": 76
          },
          {
            "time": 83.947402,
            "midi": 63,
            "name": "D#4",
            "velocity": 1,
            "duration": 0.43311420833333614,
            "ticks": 30624,
            "durationTicks": 158
          },
          {
            "time": 84.473718,
            "midi": 63,
            "name": "D#4",
            "velocity": 0.968503937007874,
            "duration": 0.08771933333332527,
            "ticks": 30816,
            "durationTicks": 32
          },
          {
            "time": 84.736876,
            "midi": 63,
            "name": "D#4",
            "velocity": 1,
            "duration": 0.2028509583333289,
            "ticks": 30912,
            "durationTicks": 74
          },
          {
            "time": 85.000034,
            "midi": 65,
            "name": "F4",
            "velocity": 1,
            "duration": 0.1836623541666711,
            "ticks": 31008,
            "durationTicks": 67
          },
          {
            "time": 85.263192,
            "midi": 63,
            "name": "D#4",
            "velocity": 1,
            "duration": 0.21655710416666807,
            "ticks": 31104,
            "durationTicks": 79
          },
          {
            "time": 85.52635000000001,
            "midi": 56,
            "name": "G#3",
            "velocity": 0.905511811023622,
            "duration": 0.17269743749999122,
            "ticks": 31200,
            "durationTicks": 63
          },
          {
            "time": 85.789508,
            "midi": 56,
            "name": "G#3",
            "velocity": 1,
            "duration": 0.41666683333333765,
            "ticks": 31296,
            "durationTicks": 152
          },
          {
            "time": 87.105298,
            "midi": 56,
            "name": "G#3",
            "velocity": 1,
            "duration": 0.10690793749999727,
            "ticks": 31776,
            "durationTicks": 39
          },
          {
            "time": 87.368456,
            "midi": 58,
            "name": "A#3",
            "velocity": 1,
            "duration": 0.2055921875000024,
            "ticks": 31872,
            "durationTicks": 75
          },
          {
            "time": 87.631614,
            "midi": 60,
            "name": "C4",
            "velocity": 1,
            "duration": 0.12061408333333645,
            "ticks": 31968,
            "durationTicks": 44
          },
          {
            "time": 87.894772,
            "midi": 61,
            "name": "C#4",
            "velocity": 1,
            "duration": 0.2220395625000009,
            "ticks": 32064,
            "durationTicks": 81
          },
          {
            "time": 88.15793000000001,
            "midi": 58,
            "name": "A#3",
            "velocity": 0.8661417322834646,
            "duration": 0.1096491666666708,
            "ticks": 32160,
            "durationTicks": 40
          },
          {
            "time": 88.684246,
            "midi": 63,
            "name": "D#4",
            "velocity": 1,
            "duration": 0.20833341666667593,
            "ticks": 32352,
            "durationTicks": 76
          },
          {
            "time": 88.947404,
            "midi": 65,
            "name": "F4",
            "velocity": 1,
            "duration": 0.1699562083333177,
            "ticks": 32448,
            "durationTicks": 62
          },
          {
            "time": 89.210562,
            "midi": 63,
            "name": "D#4",
            "velocity": 1,
            "duration": 0.5317984583333271,
            "ticks": 32544,
            "durationTicks": 194
          },
          {
            "time": 90.000036,
            "midi": 56,
            "name": "G#3",
            "velocity": 1,
            "duration": 0.07675441666667382,
            "ticks": 32832,
            "durationTicks": 28
          },
          {
            "time": 90.131615,
            "midi": 58,
            "name": "A#3",
            "velocity": 0.952755905511811,
            "duration": 0.05756581250000181,
            "ticks": 32880,
            "durationTicks": 21
          },
          {
            "time": 90.263194,
            "midi": 61,
            "name": "C#4",
            "velocity": 0.984251968503937,
            "duration": 0.07949564583333313,
            "ticks": 32928,
            "durationTicks": 29
          },
          {
            "time": 90.394773,
            "midi": 58,
            "name": "A#3",
            "velocity": 0.905511811023622,
            "duration": 0.05208335416666898,
            "ticks": 32976,
            "durationTicks": 19
          },
          {
            "time": 90.526352,
            "midi": 65,
            "name": "F4",
            "velocity": 1,
            "duration": 0.2850878333333213,
            "ticks": 33024,
            "durationTicks": 104
          },
          {
            "time": 90.921089,
            "midi": 65,
            "name": "F4",
            "velocity": 1,
            "duration": 0.2768641458333292,
            "ticks": 33168,
            "durationTicks": 101
          },
          {
            "time": 91.315826,
            "midi": 63,
            "name": "D#4",
            "velocity": 1,
            "duration": 0.43859666666666897,
            "ticks": 33312,
            "durationTicks": 160
          },
          {
            "time": 92.1053,
            "midi": 56,
            "name": "G#3",
            "velocity": 1,
            "duration": 0.0740131875000003,
            "ticks": 33600,
            "durationTicks": 27
          },
          {
            "time": 92.236879,
            "midi": 58,
            "name": "A#3",
            "velocity": 0.968503937007874,
            "duration": 0.05208335416666898,
            "ticks": 33648,
            "durationTicks": 19
          },
          {
            "time": 92.368458,
            "midi": 61,
            "name": "C#4",
            "velocity": 0.9763779527559056,
            "duration": 0.08223687499999244,
            "ticks": 33696,
            "durationTicks": 30
          },
          {
            "time": 92.500037,
            "midi": 58,
            "name": "A#3",
            "velocity": 0.952755905511811,
            "duration": 0.05208335416666898,
            "ticks": 33744,
            "durationTicks": 19
          },
          {
            "time": 92.63161600000001,
            "midi": 63,
            "name": "D#4",
            "velocity": 1,
            "duration": 0.3125001249999997,
            "ticks": 33792,
            "durationTicks": 114
          },
          {
            "time": 93.026353,
            "midi": 63,
            "name": "D#4",
            "velocity": 1,
            "duration": 0.2796053750000027,
            "ticks": 33936,
            "durationTicks": 102
          },
          {
            "time": 93.42109,
            "midi": 61,
            "name": "C#4",
            "velocity": 1,
            "duration": 0.2987939791666605,
            "ticks": 34080,
            "durationTicks": 109
          },
          {
            "time": 93.815827,
            "midi": 60,
            "name": "C4",
            "velocity": 0.8267716535433071,
            "duration": 0.07675441666667382,
            "ticks": 34224,
            "durationTicks": 28
          },
          {
            "time": 93.947406,
            "midi": 58,
            "name": "A#3",
            "velocity": 0.9448818897637795,
            "duration": 0.21655710416666807,
            "ticks": 34272,
            "durationTicks": 79
          },
          {
            "time": 94.210564,
            "midi": 56,
            "name": "G#3",
            "velocity": 0.937007874015748,
            "duration": 0.06578949999999395,
            "ticks": 34368,
            "durationTicks": 24
          },
          {
            "time": 94.34214300000001,
            "midi": 58,
            "name": "A#3",
            "velocity": 1,
            "duration": 0.05482458333332829,
            "ticks": 34416,
            "durationTicks": 20
          },
          {
            "time": 94.473722,
            "midi": 61,
            "name": "C#4",
            "velocity": 1,
            "duration": 0.07675441666667382,
            "ticks": 34464,
            "durationTicks": 28
          },
          {
            "time": 94.605301,
            "midi": 58,
            "name": "A#3",
            "velocity": 0.952755905511811,
            "duration": 0.04934212500000967,
            "ticks": 34512,
            "durationTicks": 18
          },
          {
            "time": 94.73688,
            "midi": 61,
            "name": "C#4",
            "velocity": 1,
            "duration": 0.41940806249999696,
            "ticks": 34560,
            "durationTicks": 153
          },
          {
            "time": 95.26319600000001,
            "midi": 63,
            "name": "D#4",
            "velocity": 0.937007874015748,
            "duration": 0.11239039583331589,
            "ticks": 34752,
            "durationTicks": 41
          },
          {
            "time": 95.526354,
            "midi": 60,
            "name": "C4",
            "velocity": 1,
            "duration": 0.334429958333331,
            "ticks": 34848,
            "durationTicks": 122
          },
          {
            "time": 95.921091,
            "midi": 58,
            "name": "A#3",
            "velocity": 0.8031496062992126,
            "duration": 0.06030704166667533,
            "ticks": 34992,
            "durationTicks": 22
          },
          {
            "time": 96.05267,
            "midi": 56,
            "name": "G#3",
            "velocity": 1,
            "duration": 0.41392560416666413,
            "ticks": 35040,
            "durationTicks": 151
          },
          {
            "time": 96.578986,
            "midi": 56,
            "name": "G#3",
            "velocity": 1,
            "duration": 0.12061408333332224,
            "ticks": 35232,
            "durationTicks": 44
          },
          {
            "time": 96.842144,
            "midi": 63,
            "name": "D#4",
            "velocity": 1,
            "duration": 0.23574570833332587,
            "ticks": 35328,
            "durationTicks": 86
          },
          {
            "time": 97.105302,
            "midi": 61,
            "name": "C#4",
            "velocity": 0.889763779527559,
            "duration": 0.19462727083333675,
            "ticks": 35424,
            "durationTicks": 71
          },
          {
            "time": 97.36846,
            "midi": 61,
            "name": "C#4",
            "velocity": 0.9763779527559056,
            "duration": 0.4824563333333316,
            "ticks": 35520,
            "durationTicks": 176
          },
          {
            "time": 98.421092,
            "midi": 56,
            "name": "G#3",
            "velocity": 0.9763779527559056,
            "duration": 0.06853072916666747,
            "ticks": 35904,
            "durationTicks": 25
          },
          {
            "time": 98.552671,
            "midi": 58,
            "name": "A#3",
            "velocity": 0.984251968503937,
            "duration": 0.05756581250000181,
            "ticks": 35952,
            "durationTicks": 21
          },
          {
            "time": 98.68425,
            "midi": 61,
            "name": "C#4",
            "velocity": 0.968503937007874,
            "duration": 0.08223687499999244,
            "ticks": 36000,
            "durationTicks": 30
          },
          {
            "time": 98.81582900000001,
            "midi": 58,
            "name": "A#3",
            "velocity": 0.9448818897637795,
            "duration": 0.05208335416666898,
            "ticks": 36048,
            "durationTicks": 19
          },
          {
            "time": 98.947408,
            "midi": 65,
            "name": "F4",
            "velocity": 1,
            "duration": 0.4385966666666832,
            "ticks": 36096,
            "durationTicks": 160
          },
          {
            "time": 99.473724,
            "midi": 65,
            "name": "F4",
            "velocity": 1,
            "duration": 0.17817989583332405,
            "ticks": 36288,
            "durationTicks": 65
          },
          {
            "time": 99.736882,
            "midi": 63,
            "name": "D#4",
            "velocity": 1,
            "duration": 0.49068002083333795,
            "ticks": 36384,
            "durationTicks": 179
          },
          {
            "time": 100.526356,
            "midi": 56,
            "name": "G#3",
            "velocity": 0.8740157480314961,
            "duration": 0.06853072916666747,
            "ticks": 36672,
            "durationTicks": 25
          },
          {
            "time": 100.657935,
            "midi": 58,
            "name": "A#3",
            "velocity": 0.952755905511811,
            "duration": 0.04934212500000967,
            "ticks": 36720,
            "durationTicks": 18
          },
          {
            "time": 100.789514,
            "midi": 61,
            "name": "C#4",
            "velocity": 0.937007874015748,
            "duration": 0.08497810416668017,
            "ticks": 36768,
            "durationTicks": 31
          },
          {
            "time": 100.921093,
            "midi": 58,
            "name": "A#3",
            "velocity": 0.7795275590551181,
            "duration": 0.024671062500004837,
            "ticks": 36816,
            "durationTicks": 9
          },
          {
            "time": 101.052672,
            "midi": 68,
            "name": "G#4",
            "velocity": 1,
            "duration": 0.45504404166666745,
            "ticks": 36864,
            "durationTicks": 166
          },
          {
            "time": 101.578988,
            "midi": 61,
            "name": "C#4",
            "velocity": 1,
            "duration": 0.08771933333333948,
            "ticks": 37056,
            "durationTicks": 32
          },
          {
            "time": 101.842146,
            "midi": 61,
            "name": "C#4",
            "velocity": 1,
            "duration": 0.3755483958333343,
            "ticks": 37152,
            "durationTicks": 137
          },
          {
            "time": 102.236883,
            "midi": 60,
            "name": "C4",
            "velocity": 0.8267716535433071,
            "duration": 0.06578949999999395,
            "ticks": 37296,
            "durationTicks": 24
          },
          {
            "time": 102.36846200000001,
            "midi": 58,
            "name": "A#3",
            "velocity": 0.9763779527559056,
            "duration": 0.21381587499999455,
            "ticks": 37344,
            "durationTicks": 78
          },
          {
            "time": 102.63162,
            "midi": 56,
            "name": "G#3",
            "velocity": 0.8976377952755905,
            "duration": 0.06578950000000816,
            "ticks": 37440,
            "durationTicks": 24
          },
          {
            "time": 102.763199,
            "midi": 58,
            "name": "A#3",
            "velocity": 0.9133858267716536,
            "duration": 0.041118437500003324,
            "ticks": 37488,
            "durationTicks": 15
          },
          {
            "time": 102.894778,
            "midi": 61,
            "name": "C#4",
            "velocity": 0.952755905511811,
            "duration": 0.09594302083333162,
            "ticks": 37536,
            "durationTicks": 35
          },
          {
            "time": 103.026357,
            "midi": 58,
            "name": "A#3",
            "velocity": 0.8267716535433071,
            "duration": 0.041118437500003324,
            "ticks": 37584,
            "durationTicks": 15
          },
          {
            "time": 103.157936,
            "midi": 61,
            "name": "C#4",
            "velocity": 1,
            "duration": 0.45230281249999393,
            "ticks": 37632,
            "durationTicks": 165
          },
          {
            "time": 103.684252,
            "midi": 63,
            "name": "D#4",
            "velocity": 0.9448818897637795,
            "duration": 0.0932017916666723,
            "ticks": 37824,
            "durationTicks": 34
          },
          {
            "time": 103.94741,
            "midi": 60,
            "name": "C4",
            "velocity": 0.9133858267716536,
            "duration": 0.3591010208333216,
            "ticks": 37920,
            "durationTicks": 131
          },
          {
            "time": 103.94741,
            "midi": 58,
            "name": "A#3",
            "velocity": 0.9763779527559056,
            "duration": 0.1123903958333301,
            "ticks": 37920,
            "durationTicks": 41
          },
          {
            "time": 104.342147,
            "midi": 58,
            "name": "A#3",
            "velocity": 0.8503937007874016,
            "duration": 0.05756581250000181,
            "ticks": 38064,
            "durationTicks": 21
          },
          {
            "time": 104.473726,
            "midi": 56,
            "name": "G#3",
            "velocity": 1,
            "duration": 0.4248905208333298,
            "ticks": 38112,
            "durationTicks": 155
          },
          {
            "time": 105.00004200000001,
            "midi": 56,
            "name": "G#3",
            "velocity": 1,
            "duration": 0.1096491666666708,
            "ticks": 38304,
            "durationTicks": 40
          },
          {
            "time": 105.2632,
            "midi": 63,
            "name": "D#4",
            "velocity": 1,
            "duration": 0.4468203541666753,
            "ticks": 38400,
            "durationTicks": 163
          },
          {
            "time": 105.789516,
            "midi": 61,
            "name": "C#4",
            "velocity": 1,
            "duration": 0.5756581249999897,
            "ticks": 38592,
            "durationTicks": 210
          },
          {
            "time": 106.842148,
            "midi": 56,
            "name": "G#3",
            "velocity": 0.937007874015748,
            "duration": 0.06030704166667533,
            "ticks": 38976,
            "durationTicks": 22
          },
          {
            "time": 106.973727,
            "midi": 58,
            "name": "A#3",
            "velocity": 0.9763779527559056,
            "duration": 0.06030704166667533,
            "ticks": 39024,
            "durationTicks": 22
          },
          {
            "time": 107.105306,
            "midi": 61,
            "name": "C#4",
            "velocity": 1,
            "duration": 0.0740131875000003,
            "ticks": 39072,
            "durationTicks": 27
          },
          {
            "time": 107.236885,
            "midi": 58,
            "name": "A#3",
            "velocity": 1,
            "duration": 0.07127195833332678,
            "ticks": 39120,
            "durationTicks": 26
          },
          {
            "time": 107.368464,
            "midi": 65,
            "name": "F4",
            "velocity": 1,
            "duration": 0.2850878333333213,
            "ticks": 39168,
            "durationTicks": 104
          },
          {
            "time": 107.763201,
            "midi": 65,
            "name": "F4",
            "velocity": 1,
            "duration": 0.2768641458333292,
            "ticks": 39312,
            "durationTicks": 101
          },
          {
            "time": 108.157938,
            "midi": 63,
            "name": "D#4",
            "velocity": 1,
            "duration": 0.43859666666666897,
            "ticks": 39456,
            "durationTicks": 160
          },
          {
            "time": 108.947412,
            "midi": 56,
            "name": "G#3",
            "velocity": 1,
            "duration": 0.0740131875000003,
            "ticks": 39744,
            "durationTicks": 27
          },
          {
            "time": 109.078991,
            "midi": 58,
            "name": "A#3",
            "velocity": 0.968503937007874,
            "duration": 0.05208335416666898,
            "ticks": 39792,
            "durationTicks": 19
          },
          {
            "time": 109.21057,
            "midi": 61,
            "name": "C#4",
            "velocity": 0.9763779527559056,
            "duration": 0.08223687499999244,
            "ticks": 39840,
            "durationTicks": 30
          },
          {
            "time": 109.342149,
            "midi": 58,
            "name": "A#3",
            "velocity": 0.952755905511811,
            "duration": 0.05208335416666898,
            "ticks": 39888,
            "durationTicks": 19
          },
          {
            "time": 109.473728,
            "midi": 63,
            "name": "D#4",
            "velocity": 1,
            "duration": 0.3125001250000139,
            "ticks": 39936,
            "durationTicks": 114
          },
          {
            "time": 109.868465,
            "midi": 63,
            "name": "D#4",
            "velocity": 1,
            "duration": 0.2796053750000027,
            "ticks": 40080,
            "durationTicks": 102
          },
          {
            "time": 110.263202,
            "midi": 61,
            "name": "C#4",
            "velocity": 1,
            "duration": 0.2987939791666605,
            "ticks": 40224,
            "durationTicks": 109
          },
          {
            "time": 110.657939,
            "midi": 60,
            "name": "C4",
            "velocity": 0.8267716535433071,
            "duration": 0.07675441666667382,
            "ticks": 40368,
            "durationTicks": 28
          },
          {
            "time": 110.789518,
            "midi": 58,
            "name": "A#3",
            "velocity": 0.9448818897637795,
            "duration": 0.21655710416666807,
            "ticks": 40416,
            "durationTicks": 79
          },
          {
            "time": 111.052676,
            "midi": 56,
            "name": "G#3",
            "velocity": 0.937007874015748,
            "duration": 0.06578949999999395,
            "ticks": 40512,
            "durationTicks": 24
          },
          {
            "time": 111.18425500000001,
            "midi": 58,
            "name": "A#3",
            "velocity": 1,
            "duration": 0.05482458333332829,
            "ticks": 40560,
            "durationTicks": 20
          },
          {
            "time": 111.315834,
            "midi": 61,
            "name": "C#4",
            "velocity": 1,
            "duration": 0.07675441666667382,
            "ticks": 40608,
            "durationTicks": 28
          },
          {
            "time": 111.447413,
            "midi": 58,
            "name": "A#3",
            "velocity": 0.952755905511811,
            "duration": 0.04934212500000967,
            "ticks": 40656,
            "durationTicks": 18
          },
          {
            "time": 111.578992,
            "midi": 61,
            "name": "C#4",
            "velocity": 1,
            "duration": 0.41940806249999696,
            "ticks": 40704,
            "durationTicks": 153
          },
          {
            "time": 112.10530800000001,
            "midi": 63,
            "name": "D#4",
            "velocity": 0.937007874015748,
            "duration": 0.11239039583331589,
            "ticks": 40896,
            "durationTicks": 41
          },
          {
            "time": 112.368466,
            "midi": 60,
            "name": "C4",
            "velocity": 1,
            "duration": 0.334429958333331,
            "ticks": 40992,
            "durationTicks": 122
          },
          {
            "time": 112.763203,
            "midi": 58,
            "name": "A#3",
            "velocity": 0.8031496062992126,
            "duration": 0.06030704166667533,
            "ticks": 41136,
            "durationTicks": 22
          },
          {
            "time": 112.894782,
            "midi": 56,
            "name": "G#3",
            "velocity": 1,
            "duration": 0.41392560416666413,
            "ticks": 41184,
            "durationTicks": 151
          },
          {
            "time": 113.421098,
            "midi": 56,
            "name": "G#3",
            "velocity": 1,
            "duration": 0.12061408333332224,
            "ticks": 41376,
            "durationTicks": 44
          },
          {
            "time": 113.684256,
            "midi": 63,
            "name": "D#4",
            "velocity": 1,
            "duration": 0.23574570833332587,
            "ticks": 41472,
            "durationTicks": 86
          },
          {
            "time": 113.947414,
            "midi": 61,
            "name": "C#4",
            "velocity": 0.889763779527559,
            "duration": 0.19462727083333675,
            "ticks": 41568,
            "durationTicks": 71
          },
          {
            "time": 114.210572,
            "midi": 61,
            "name": "C#4",
            "velocity": 0.9763779527559056,
            "duration": 0.4824563333333316,
            "ticks": 41664,
            "durationTicks": 176
          },
          {
            "time": 115.263204,
            "midi": 56,
            "name": "G#3",
            "velocity": 0.9763779527559056,
            "duration": 0.06853072916666747,
            "ticks": 42048,
            "durationTicks": 25
          },
          {
            "time": 115.394783,
            "midi": 58,
            "name": "A#3",
            "velocity": 0.984251968503937,
            "duration": 0.05756581250000181,
            "ticks": 42096,
            "durationTicks": 21
          },
          {
            "time": 115.526362,
            "midi": 61,
            "name": "C#4",
            "velocity": 0.968503937007874,
            "duration": 0.08223687499999244,
            "ticks": 42144,
            "durationTicks": 30
          },
          {
            "time": 115.65794100000001,
            "midi": 58,
            "name": "A#3",
            "velocity": 0.9448818897637795,
            "duration": 0.05208335416666898,
            "ticks": 42192,
            "durationTicks": 19
          },
          {
            "time": 115.78952,
            "midi": 65,
            "name": "F4",
            "velocity": 1,
            "duration": 0.4385966666666832,
            "ticks": 42240,
            "durationTicks": 160
          },
          {
            "time": 116.315836,
            "midi": 65,
            "name": "F4",
            "velocity": 1,
            "duration": 0.17817989583332405,
            "ticks": 42432,
            "durationTicks": 65
          },
          {
            "time": 116.578994,
            "midi": 63,
            "name": "D#4",
            "velocity": 1,
            "duration": 0.49068002083333795,
            "ticks": 42528,
            "durationTicks": 179
          },
          {
            "time": 117.36846800000001,
            "midi": 56,
            "name": "G#3",
            "velocity": 0.8740157480314961,
            "duration": 0.06853072916666747,
            "ticks": 42816,
            "durationTicks": 25
          },
          {
            "time": 117.500047,
            "midi": 58,
            "name": "A#3",
            "velocity": 0.952755905511811,
            "duration": 0.04934212500000967,
            "ticks": 42864,
            "durationTicks": 18
          },
          {
            "time": 117.631626,
            "midi": 61,
            "name": "C#4",
            "velocity": 0.937007874015748,
            "duration": 0.08497810416668017,
            "ticks": 42912,
            "durationTicks": 31
          },
          {
            "time": 117.763205,
            "midi": 58,
            "name": "A#3",
            "velocity": 0.7795275590551181,
            "duration": 0.024671062500004837,
            "ticks": 42960,
            "durationTicks": 9
          },
          {
            "time": 117.894784,
            "midi": 68,
            "name": "G#4",
            "velocity": 1,
            "duration": 0.45504404166666745,
            "ticks": 43008,
            "durationTicks": 166
          },
          {
            "time": 118.4211,
            "midi": 61,
            "name": "C#4",
            "velocity": 1,
            "duration": 0.08771933333333948,
            "ticks": 43200,
            "durationTicks": 32
          },
          {
            "time": 118.684258,
            "midi": 61,
            "name": "C#4",
            "velocity": 1,
            "duration": 0.3755483958333343,
            "ticks": 43296,
            "durationTicks": 137
          },
          {
            "time": 119.078995,
            "midi": 60,
            "name": "C4",
            "velocity": 0.8267716535433071,
            "duration": 0.06578949999999395,
            "ticks": 43440,
            "durationTicks": 24
          },
          {
            "time": 119.21057400000001,
            "midi": 58,
            "name": "A#3",
            "velocity": 0.9763779527559056,
            "duration": 0.21381587499999455,
            "ticks": 43488,
            "durationTicks": 78
          },
          {
            "time": 119.473732,
            "midi": 56,
            "name": "G#3",
            "velocity": 0.8976377952755905,
            "duration": 0.06578950000000816,
            "ticks": 43584,
            "durationTicks": 24
          },
          {
            "time": 119.605311,
            "midi": 58,
            "name": "A#3",
            "velocity": 0.9133858267716536,
            "duration": 0.041118437500003324,
            "ticks": 43632,
            "durationTicks": 15
          },
          {
            "time": 119.73689,
            "midi": 61,
            "name": "C#4",
            "velocity": 0.952755905511811,
            "duration": 0.09594302083333162,
            "ticks": 43680,
            "durationTicks": 35
          },
          {
            "time": 119.868469,
            "midi": 58,
            "name": "A#3",
            "velocity": 0.8267716535433071,
            "duration": 0.041118437500003324,
            "ticks": 43728,
            "durationTicks": 15
          },
          {
            "time": 120.000048,
            "midi": 61,
            "name": "C#4",
            "velocity": 1,
            "duration": 0.45230281249999393,
            "ticks": 43776,
            "durationTicks": 165
          },
          {
            "time": 120.526364,
            "midi": 63,
            "name": "D#4",
            "velocity": 0.9448818897637795,
            "duration": 0.0932017916666723,
            "ticks": 43968,
            "durationTicks": 34
          },
          {
            "time": 120.789522,
            "midi": 60,
            "name": "C4",
            "velocity": 0.9133858267716536,
            "duration": 0.3591010208333216,
            "ticks": 44064,
            "durationTicks": 131
          },
          {
            "time": 120.789522,
            "midi": 58,
            "name": "A#3",
            "velocity": 0.9763779527559056,
            "duration": 0.1123903958333301,
            "ticks": 44064,
            "durationTicks": 41
          },
          {
            "time": 121.184259,
            "midi": 58,
            "name": "A#3",
            "velocity": 0.8503937007874016,
            "duration": 0.05756581250000181,
            "ticks": 44208,
            "durationTicks": 21
          },
          {
            "time": 121.315838,
            "midi": 56,
            "name": "G#3",
            "velocity": 1,
            "duration": 0.4248905208333298,
            "ticks": 44256,
            "durationTicks": 155
          },
          {
            "time": 121.84215400000001,
            "midi": 56,
            "name": "G#3",
            "velocity": 1,
            "duration": 0.1096491666666708,
            "ticks": 44448,
            "durationTicks": 40
          },
          {
            "time": 122.105312,
            "midi": 63,
            "name": "D#4",
            "velocity": 1,
            "duration": 0.4468203541666753,
            "ticks": 44544,
            "durationTicks": 163
          },
          {
            "time": 122.631628,
            "midi": 61,
            "name": "C#4",
            "velocity": 1,
            "duration": 0.5756581249999897,
            "ticks": 44736,
            "durationTicks": 210
          },
          {
            "time": 123.68426,
            "midi": 56,
            "name": "G#3",
            "velocity": 0.937007874015748,
            "duration": 0.06030704166667533,
            "ticks": 45120,
            "durationTicks": 22
          },
          {
            "time": 123.815839,
            "midi": 58,
            "name": "A#3",
            "velocity": 0.9763779527559056,
            "duration": 0.06030704166667533,
            "ticks": 45168,
            "durationTicks": 22
          },
          {
            "time": 123.947418,
            "midi": 61,
            "name": "C#4",
            "velocity": 1,
            "duration": 0.0740131875000003,
            "ticks": 45216,
            "durationTicks": 27
          },
          {
            "time": 124.078997,
            "midi": 58,
            "name": "A#3",
            "velocity": 1,
            "duration": 0.07127195833332678,
            "ticks": 45264,
            "durationTicks": 26
          },
          {
            "time": 158.421116,
            "midi": 58,
            "name": "A#3",
            "velocity": 0.9763779527559056,
            "duration": 0.2192983333333416,
            "ticks": 57792,
            "durationTicks": 80
          },
          {
            "time": 158.684274,
            "midi": 58,
            "name": "A#3",
            "velocity": 0.8346456692913385,
            "duration": 0.21929833333337,
            "ticks": 57888,
            "durationTicks": 80
          },
          {
            "time": 158.684274,
            "midi": 60,
            "name": "C4",
            "velocity": 0.9448818897637795,
            "duration": 0.06030704166667533,
            "ticks": 57888,
            "durationTicks": 22
          },
          {
            "time": 158.947432,
            "midi": 60,
            "name": "C4",
            "velocity": 0.8031496062992126,
            "duration": 0.06030704166667533,
            "ticks": 57984,
            "durationTicks": 22
          },
          {
            "time": 158.947432,
            "midi": 61,
            "name": "C#4",
            "velocity": 1,
            "duration": 0.2220395625000151,
            "ticks": 57984,
            "durationTicks": 81
          },
          {
            "time": 159.21059,
            "midi": 61,
            "name": "C#4",
            "velocity": 0.8582677165354331,
            "duration": 0.14254391666665356,
            "ticks": 58080,
            "durationTicks": 52
          },
          {
            "time": 159.21059,
            "midi": 61,
            "name": "C#4",
            "velocity": 0.8976377952755905,
            "duration": 0.2220395625000151,
            "ticks": 58080,
            "durationTicks": 81
          },
          {
            "time": 159.473748,
            "midi": 61,
            "name": "C#4",
            "velocity": 0.7559055118110236,
            "duration": 0.14254391666665356,
            "ticks": 58176,
            "durationTicks": 52
          },
          {
            "time": 159.473748,
            "midi": 63,
            "name": "D#4",
            "velocity": 1,
            "duration": 0.10690793750001149,
            "ticks": 58176,
            "durationTicks": 39
          },
          {
            "time": 159.736906,
            "midi": 63,
            "name": "D#4",
            "velocity": 0.8582677165354331,
            "duration": 0.10690793749998306,
            "ticks": 58272,
            "durationTicks": 39
          },
          {
            "time": 159.736906,
            "midi": 60,
            "name": "C4",
            "velocity": 1,
            "duration": 0.3262062708333531,
            "ticks": 58272,
            "durationTicks": 119
          },
          {
            "time": 160.000064,
            "midi": 60,
            "name": "C4",
            "velocity": 0.8582677165354331,
            "duration": 0.32620627083332465,
            "ticks": 58368,
            "durationTicks": 119
          },
          {
            "time": 160.131643,
            "midi": 58,
            "name": "A#3",
            "velocity": 0.8661417322834646,
            "duration": 0.06578949999999395,
            "ticks": 58416,
            "durationTicks": 24
          },
          {
            "time": 160.263222,
            "midi": 56,
            "name": "G#3",
            "velocity": 1,
            "duration": 0.7538380208333422,
            "ticks": 58464,
            "durationTicks": 275
          },
          {
            "time": 160.394801,
            "midi": 58,
            "name": "A#3",
            "velocity": 0.7244094488188977,
            "duration": 0.06578949999999395,
            "ticks": 58512,
            "durationTicks": 24
          },
          {
            "time": 160.52638,
            "midi": 56,
            "name": "G#3",
            "velocity": 0.8582677165354331,
            "duration": 0.7538380208333422,
            "ticks": 58560,
            "durationTicks": 275
          },
          {
            "time": 162.368486,
            "midi": 58,
            "name": "A#3",
            "velocity": 1,
            "duration": 0.20010972916665537,
            "ticks": 59232,
            "durationTicks": 73
          },
          {
            "time": 162.631644,
            "midi": 58,
            "name": "A#3",
            "velocity": 0.8582677165354331,
            "duration": 0.20010972916665537,
            "ticks": 59328,
            "durationTicks": 73
          },
          {
            "time": 162.631644,
            "midi": 58,
            "name": "A#3",
            "velocity": 0.9212598425196851,
            "duration": 0.21655710416666807,
            "ticks": 59328,
            "durationTicks": 79
          },
          {
            "time": 162.894802,
            "midi": 58,
            "name": "A#3",
            "velocity": 0.7795275590551181,
            "duration": 0.21655710416666807,
            "ticks": 59424,
            "durationTicks": 79
          },
          {
            "time": 162.894802,
            "midi": 60,
            "name": "C4",
            "velocity": 0.968503937007874,
            "duration": 0.2055921875000024,
            "ticks": 59424,
            "durationTicks": 75
          },
          {
            "time": 163.15796,
            "midi": 60,
            "name": "C4",
            "velocity": 0.8267716535433071,
            "duration": 0.2055921875000024,
            "ticks": 59520,
            "durationTicks": 75
          },
          {
            "time": 163.15796,
            "midi": 61,
            "name": "C#4",
            "velocity": 0.968503937007874,
            "duration": 0.2055921875000024,
            "ticks": 59520,
            "durationTicks": 75
          },
          {
            "time": 163.421118,
            "midi": 61,
            "name": "C#4",
            "velocity": 0.8267716535433071,
            "duration": 0.2055921875000024,
            "ticks": 59616,
            "durationTicks": 75
          },
          {
            "time": 163.421118,
            "midi": 58,
            "name": "A#3",
            "velocity": 0.8818897637795275,
            "duration": 0.09320179166664389,
            "ticks": 59616,
            "durationTicks": 34
          },
          {
            "time": 163.684276,
            "midi": 58,
            "name": "A#3",
            "velocity": 0.7401574803149606,
            "duration": 0.09320179166664389,
            "ticks": 59712,
            "durationTicks": 34
          },
          {
            "time": 163.94743400000002,
            "midi": 56,
            "name": "G#3",
            "velocity": 1,
            "duration": 0.1151316249999752,
            "ticks": 59808,
            "durationTicks": 42
          },
          {
            "time": 164.210592,
            "midi": 56,
            "name": "G#3",
            "velocity": 0.8582677165354331,
            "duration": 0.11513162500000362,
            "ticks": 59904,
            "durationTicks": 42
          },
          {
            "time": 164.210592,
            "midi": 68,
            "name": "G#4",
            "velocity": 1,
            "duration": 0.282346604166662,
            "ticks": 59904,
            "durationTicks": 103
          },
          {
            "time": 164.47375,
            "midi": 68,
            "name": "G#4",
            "velocity": 0.8582677165354331,
            "duration": 0.282346604166662,
            "ticks": 60000,
            "durationTicks": 103
          },
          {
            "time": 164.736908,
            "midi": 68,
            "name": "G#4",
            "velocity": 1,
            "duration": 0.1864035833333446,
            "ticks": 60096,
            "durationTicks": 68
          },
          {
            "time": 165.000066,
            "midi": 68,
            "name": "G#4",
            "velocity": 0.8582677165354331,
            "duration": 0.1864035833333446,
            "ticks": 60192,
            "durationTicks": 68
          },
          {
            "time": 165.000066,
            "midi": 63,
            "name": "D#4",
            "velocity": 1,
            "duration": 0.7894739999999842,
            "ticks": 60192,
            "durationTicks": 288
          },
          {
            "time": 165.263224,
            "midi": 63,
            "name": "D#4",
            "velocity": 0.8582677165354331,
            "duration": 0.7894739999999842,
            "ticks": 60288,
            "durationTicks": 288
          },
          {
            "time": 166.579014,
            "midi": 58,
            "name": "A#3",
            "velocity": 0.937007874015748,
            "duration": 0.08771933333335369,
            "ticks": 60768,
            "durationTicks": 32
          },
          {
            "time": 166.842172,
            "midi": 58,
            "name": "A#3",
            "velocity": 0.7952755905511811,
            "duration": 0.08771933333335369,
            "ticks": 60864,
            "durationTicks": 32
          },
          {
            "time": 166.842172,
            "midi": 58,
            "name": "A#3",
            "velocity": 1,
            "duration": 0.2028509583333289,
            "ticks": 60864,
            "durationTicks": 74
          },
          {
            "time": 167.10533,
            "midi": 58,
            "name": "A#3",
            "velocity": 0.8582677165354331,
            "duration": 0.2028509583333289,
            "ticks": 60960,
            "durationTicks": 74
          },
          {
            "time": 167.10533,
            "midi": 60,
            "name": "C4",
            "velocity": 0.8740157480314961,
            "duration": 0.05756581250000181,
            "ticks": 60960,
            "durationTicks": 21
          },
          {
            "time": 167.368488,
            "midi": 60,
            "name": "C4",
            "velocity": 0.7322834645669292,
            "duration": 0.05756581250000181,
            "ticks": 61056,
            "durationTicks": 21
          },
          {
            "time": 167.368488,
            "midi": 61,
            "name": "C#4",
            "velocity": 0.984251968503937,
            "duration": 0.23300447916665235,
            "ticks": 61056,
            "durationTicks": 85
          },
          {
            "time": 167.631646,
            "midi": 61,
            "name": "C#4",
            "velocity": 0.84251968503937,
            "duration": 0.23300447916668077,
            "ticks": 61152,
            "durationTicks": 85
          },
          {
            "time": 167.631646,
            "midi": 58,
            "name": "A#3",
            "velocity": 0.9212598425196851,
            "duration": 0.09046056249999879,
            "ticks": 61152,
            "durationTicks": 33
          },
          {
            "time": 167.894804,
            "midi": 58,
            "name": "A#3",
            "velocity": 0.7795275590551181,
            "duration": 0.09046056249999879,
            "ticks": 61248,
            "durationTicks": 33
          },
          {
            "time": 167.894804,
            "midi": 61,
            "name": "C#4",
            "velocity": 1,
            "duration": 0.2247807916666602,
            "ticks": 61248,
            "durationTicks": 82
          },
          {
            "time": 168.157962,
            "midi": 61,
            "name": "C#4",
            "velocity": 0.8582677165354331,
            "duration": 0.2247807916666602,
            "ticks": 61344,
            "durationTicks": 82
          },
          {
            "time": 168.157962,
            "midi": 63,
            "name": "D#4",
            "velocity": 0.9448818897637795,
            "duration": 0.07401318750001451,
            "ticks": 61344,
            "durationTicks": 27
          },
          {
            "time": 168.42112,
            "midi": 63,
            "name": "D#4",
            "velocity": 0.8031496062992126,
            "duration": 0.07401318749998609,
            "ticks": 61440,
            "durationTicks": 27
          },
          {
            "time": 168.684278,
            "midi": 60,
            "name": "C4",
            "velocity": 0.968503937007874,
            "duration": 0.2247807916666602,
            "ticks": 61536,
            "durationTicks": 82
          },
          {
            "time": 168.947436,
            "midi": 60,
            "name": "C4",
            "velocity": 0.8267716535433071,
            "duration": 0.2247807916666602,
            "ticks": 61632,
            "durationTicks": 82
          },
          {
            "time": 168.947436,
            "midi": 58,
            "name": "A#3",
            "velocity": 0.937007874015748,
            "duration": 0.1918860416666348,
            "ticks": 61632,
            "durationTicks": 70
          },
          {
            "time": 169.21059400000001,
            "midi": 58,
            "name": "A#3",
            "velocity": 0.7952755905511811,
            "duration": 0.1891448124999897,
            "ticks": 61728,
            "durationTicks": 69
          },
          {
            "time": 169.21059400000001,
            "midi": 60,
            "name": "C4",
            "velocity": 0.9212598425196851,
            "duration": 0.06853072916663905,
            "ticks": 61728,
            "durationTicks": 25
          },
          {
            "time": 169.342173,
            "midi": 58,
            "name": "A#3",
            "velocity": 0.8582677165354331,
            "duration": 0.06030704166664691,
            "ticks": 61776,
            "durationTicks": 22
          },
          {
            "time": 169.473752,
            "midi": 60,
            "name": "C4",
            "velocity": 0.7795275590551181,
            "duration": 0.06853072916666747,
            "ticks": 61824,
            "durationTicks": 25
          },
          {
            "time": 169.473752,
            "midi": 56,
            "name": "G#3",
            "velocity": 1,
            "duration": 0.5317984583333555,
            "ticks": 61824,
            "durationTicks": 194
          },
          {
            "time": 169.605331,
            "midi": 58,
            "name": "A#3",
            "velocity": 0.7165354330708661,
            "duration": 0.05756581250000181,
            "ticks": 61872,
            "durationTicks": 21
          },
          {
            "time": 169.73691,
            "midi": 56,
            "name": "G#3",
            "velocity": 0.8582677165354331,
            "duration": 0.5317984583333555,
            "ticks": 61920,
            "durationTicks": 194
          },
          {
            "time": 170.789542,
            "midi": 58,
            "name": "A#3",
            "velocity": 1,
            "duration": 0.18092112499999757,
            "ticks": 62304,
            "durationTicks": 66
          },
          {
            "time": 171.05270000000002,
            "midi": 58,
            "name": "A#3",
            "velocity": 0.8582677165354331,
            "duration": 0.18092112499999757,
            "ticks": 62400,
            "durationTicks": 66
          },
          {
            "time": 171.05270000000002,
            "midi": 58,
            "name": "A#3",
            "velocity": 1,
            "duration": 0.205592187499974,
            "ticks": 62400,
            "durationTicks": 75
          },
          {
            "time": 171.315858,
            "midi": 58,
            "name": "A#3",
            "velocity": 0.8582677165354331,
            "duration": 0.2055921875000024,
            "ticks": 62496,
            "durationTicks": 75
          },
          {
            "time": 171.315858,
            "midi": 60,
            "name": "C4",
            "velocity": 0.952755905511811,
            "duration": 0.12609654166666928,
            "ticks": 62496,
            "durationTicks": 46
          },
          {
            "time": 171.579016,
            "midi": 60,
            "name": "C4",
            "velocity": 0.8110236220472441,
            "duration": 0.12609654166666928,
            "ticks": 62592,
            "durationTicks": 46
          },
          {
            "time": 171.579016,
            "midi": 61,
            "name": "C#4",
            "velocity": 1,
            "duration": 0.21655710416666807,
            "ticks": 62592,
            "durationTicks": 79
          },
          {
            "time": 171.842174,
            "midi": 61,
            "name": "C#4",
            "velocity": 0.8582677165354331,
            "duration": 0.21655710416666807,
            "ticks": 62688,
            "durationTicks": 79
          },
          {
            "time": 171.842174,
            "midi": 58,
            "name": "A#3",
            "velocity": 0.905511811023622,
            "duration": 0.10142547916666445,
            "ticks": 62688,
            "durationTicks": 37
          },
          {
            "time": 172.105332,
            "midi": 58,
            "name": "A#3",
            "velocity": 0.7637795275590551,
            "duration": 0.10142547916666445,
            "ticks": 62784,
            "durationTicks": 37
          },
          {
            "time": 172.105332,
            "midi": 56,
            "name": "G#3",
            "velocity": 1,
            "duration": 0.353618562500003,
            "ticks": 62784,
            "durationTicks": 129
          },
          {
            "time": 172.36849,
            "midi": 56,
            "name": "G#3",
            "velocity": 0.8582677165354331,
            "duration": 0.353618562500003,
            "ticks": 62880,
            "durationTicks": 129
          },
          {
            "time": 172.631648,
            "midi": 63,
            "name": "D#4",
            "velocity": 0.968503937007874,
            "duration": 0.21107464583332103,
            "ticks": 62976,
            "durationTicks": 77
          },
          {
            "time": 172.894806,
            "midi": 63,
            "name": "D#4",
            "velocity": 0.8267716535433071,
            "duration": 0.18914481250001813,
            "ticks": 63072,
            "durationTicks": 69
          },
          {
            "time": 172.894806,
            "midi": 63,
            "name": "D#4",
            "velocity": 1,
            "duration": 0.21107464583334945,
            "ticks": 63072,
            "durationTicks": 77
          },
          {
            "time": 173.157964,
            "midi": 63,
            "name": "D#4",
            "velocity": 0.8582677165354331,
            "duration": 0.18914481250001813,
            "ticks": 63168,
            "durationTicks": 69
          },
          {
            "time": 173.157964,
            "midi": 63,
            "name": "D#4",
            "velocity": 0.984251968503937,
            "duration": 0.19462727083336517,
            "ticks": 63168,
            "durationTicks": 71
          },
          {
            "time": 173.421122,
            "midi": 63,
            "name": "D#4",
            "velocity": 0.84251968503937,
            "duration": 0.19462727083333675,
            "ticks": 63264,
            "durationTicks": 71
          },
          {
            "time": 173.421122,
            "midi": 65,
            "name": "F4",
            "velocity": 0.968503937007874,
            "duration": 0.18914481250001813,
            "ticks": 63264,
            "durationTicks": 69
          },
          {
            "time": 173.68428,
            "midi": 65,
            "name": "F4",
            "velocity": 0.8267716535433071,
            "duration": 0.1891448124999897,
            "ticks": 63360,
            "durationTicks": 69
          },
          {
            "time": 173.68428,
            "midi": 63,
            "name": "D#4",
            "velocity": 1,
            "duration": 0.5537282916666584,
            "ticks": 63360,
            "durationTicks": 202
          },
          {
            "time": 173.947438,
            "midi": 63,
            "name": "D#4",
            "velocity": 0.8582677165354331,
            "duration": 0.5537282916666584,
            "ticks": 63456,
            "durationTicks": 202
          },
          {
            "time": 174.736912,
            "midi": 61,
            "name": "C#4",
            "velocity": 1,
            "duration": 1.1293864166666765,
            "ticks": 63744,
            "durationTicks": 412
          },
          {
            "time": 176.052702,
            "midi": 63,
            "name": "D#4",
            "velocity": 1,
            "duration": 0.09868424999999093,
            "ticks": 64224,
            "durationTicks": 36
          },
          {
            "time": 176.31586000000001,
            "midi": 65,
            "name": "F4",
            "velocity": 1,
            "duration": 0.2083334166666475,
            "ticks": 64320,
            "durationTicks": 76
          },
          {
            "time": 176.579018,
            "midi": 63,
            "name": "D#4",
            "velocity": 1,
            "duration": 0.43311420833336456,
            "ticks": 64416,
            "durationTicks": 158
          },
          {
            "time": 177.105334,
            "midi": 63,
            "name": "D#4",
            "velocity": 0.968503937007874,
            "duration": 0.08771933333335369,
            "ticks": 64608,
            "durationTicks": 32
          },
          {
            "time": 177.368492,
            "midi": 63,
            "name": "D#4",
            "velocity": 1,
            "duration": 0.2028509583333289,
            "ticks": 64704,
            "durationTicks": 74
          },
          {
            "time": 177.63165,
            "midi": 65,
            "name": "F4",
            "velocity": 1,
            "duration": 0.18366235416664267,
            "ticks": 64800,
            "durationTicks": 67
          },
          {
            "time": 177.894808,
            "midi": 63,
            "name": "D#4",
            "velocity": 1,
            "duration": 0.21655710416663965,
            "ticks": 64896,
            "durationTicks": 79
          },
          {
            "time": 178.15796600000002,
            "midi": 56,
            "name": "G#3",
            "velocity": 0.905511811023622,
            "duration": 0.172697437499977,
            "ticks": 64992,
            "durationTicks": 63
          },
          {
            "time": 178.421124,
            "midi": 56,
            "name": "G#3",
            "velocity": 1,
            "duration": 0.41666683333335186,
            "ticks": 65088,
            "durationTicks": 152
          },
          {
            "time": 179.736914,
            "midi": 56,
            "name": "G#3",
            "velocity": 1,
            "duration": 0.10690793749998306,
            "ticks": 65568,
            "durationTicks": 39
          },
          {
            "time": 180.000072,
            "midi": 58,
            "name": "A#3",
            "velocity": 1,
            "duration": 0.2055921875000024,
            "ticks": 65664,
            "durationTicks": 75
          },
          {
            "time": 180.26323,
            "midi": 60,
            "name": "C4",
            "velocity": 1,
            "duration": 0.12061408333335066,
            "ticks": 65760,
            "durationTicks": 44
          },
          {
            "time": 180.526388,
            "midi": 61,
            "name": "C#4",
            "velocity": 1,
            "duration": 0.2220395625000151,
            "ticks": 65856,
            "durationTicks": 81
          },
          {
            "time": 180.789546,
            "midi": 58,
            "name": "A#3",
            "velocity": 0.8661417322834646,
            "duration": 0.10964916666665658,
            "ticks": 65952,
            "durationTicks": 40
          },
          {
            "time": 181.315862,
            "midi": 63,
            "name": "D#4",
            "velocity": 1,
            "duration": 0.2083334166666475,
            "ticks": 66144,
            "durationTicks": 76
          },
          {
            "time": 181.57902,
            "midi": 65,
            "name": "F4",
            "velocity": 1,
            "duration": 0.16995620833333192,
            "ticks": 66240,
            "durationTicks": 62
          },
          {
            "time": 181.842178,
            "midi": 63,
            "name": "D#4",
            "velocity": 1,
            "duration": 0.5317984583333555,
            "ticks": 66336,
            "durationTicks": 194
          },
          {
            "time": 182.631652,
            "midi": 56,
            "name": "G#3",
            "velocity": 1,
            "duration": 0.07675441666665961,
            "ticks": 66624,
            "durationTicks": 28
          },
          {
            "time": 182.763231,
            "midi": 58,
            "name": "A#3",
            "velocity": 0.952755905511811,
            "duration": 0.05756581250000181,
            "ticks": 66672,
            "durationTicks": 21
          },
          {
            "time": 182.89481,
            "midi": 61,
            "name": "C#4",
            "velocity": 0.984251968503937,
            "duration": 0.07949564583333313,
            "ticks": 66720,
            "durationTicks": 29
          },
          {
            "time": 183.026389,
            "midi": 58,
            "name": "A#3",
            "velocity": 0.905511811023622,
            "duration": 0.05208335416665477,
            "ticks": 66768,
            "durationTicks": 19
          },
          {
            "time": 183.157968,
            "midi": 65,
            "name": "F4",
            "velocity": 1,
            "duration": 0.28508783333333554,
            "ticks": 66816,
            "durationTicks": 104
          },
          {
            "time": 183.552705,
            "midi": 65,
            "name": "F4",
            "velocity": 1,
            "duration": 0.2768641458333434,
            "ticks": 66960,
            "durationTicks": 101
          },
          {
            "time": 183.947442,
            "midi": 63,
            "name": "D#4",
            "velocity": 1,
            "duration": 0.43859666666665476,
            "ticks": 67104,
            "durationTicks": 160
          },
          {
            "time": 184.736916,
            "midi": 56,
            "name": "G#3",
            "velocity": 1,
            "duration": 0.07401318749998609,
            "ticks": 67392,
            "durationTicks": 27
          },
          {
            "time": 184.868495,
            "midi": 58,
            "name": "A#3",
            "velocity": 0.968503937007874,
            "duration": 0.05208335416665477,
            "ticks": 67440,
            "durationTicks": 19
          },
          {
            "time": 185.000074,
            "midi": 61,
            "name": "C#4",
            "velocity": 0.9763779527559056,
            "duration": 0.08223687499997823,
            "ticks": 67488,
            "durationTicks": 30
          },
          {
            "time": 185.131653,
            "midi": 58,
            "name": "A#3",
            "velocity": 0.952755905511811,
            "duration": 0.05208335416665477,
            "ticks": 67536,
            "durationTicks": 19
          },
          {
            "time": 185.26323200000002,
            "midi": 63,
            "name": "D#4",
            "velocity": 1,
            "duration": 0.3125001249999855,
            "ticks": 67584,
            "durationTicks": 114
          },
          {
            "time": 185.657969,
            "midi": 63,
            "name": "D#4",
            "velocity": 1,
            "duration": 0.2796053749999885,
            "ticks": 67728,
            "durationTicks": 102
          },
          {
            "time": 186.052706,
            "midi": 61,
            "name": "C#4",
            "velocity": 1,
            "duration": 0.2987939791666463,
            "ticks": 67872,
            "durationTicks": 109
          },
          {
            "time": 186.447443,
            "midi": 60,
            "name": "C4",
            "velocity": 0.8267716535433071,
            "duration": 0.07675441666665961,
            "ticks": 68016,
            "durationTicks": 28
          },
          {
            "time": 186.579022,
            "midi": 58,
            "name": "A#3",
            "velocity": 0.9448818897637795,
            "duration": 0.21655710416663965,
            "ticks": 68064,
            "durationTicks": 79
          },
          {
            "time": 186.84218,
            "midi": 56,
            "name": "G#3",
            "velocity": 0.937007874015748,
            "duration": 0.06578949999999395,
            "ticks": 68160,
            "durationTicks": 24
          },
          {
            "time": 186.973759,
            "midi": 58,
            "name": "A#3",
            "velocity": 1,
            "duration": 0.05482458333335671,
            "ticks": 68208,
            "durationTicks": 20
          },
          {
            "time": 187.105338,
            "midi": 61,
            "name": "C#4",
            "velocity": 1,
            "duration": 0.07675441666665961,
            "ticks": 68256,
            "durationTicks": 28
          },
          {
            "time": 187.236917,
            "midi": 58,
            "name": "A#3",
            "velocity": 0.952755905511811,
            "duration": 0.04934212500000967,
            "ticks": 68304,
            "durationTicks": 18
          },
          {
            "time": 187.368496,
            "midi": 61,
            "name": "C#4",
            "velocity": 1,
            "duration": 0.41940806249999696,
            "ticks": 68352,
            "durationTicks": 153
          },
          {
            "time": 187.894812,
            "midi": 63,
            "name": "D#4",
            "velocity": 0.937007874015748,
            "duration": 0.1123903958333301,
            "ticks": 68544,
            "durationTicks": 41
          },
          {
            "time": 188.15797,
            "midi": 60,
            "name": "C4",
            "velocity": 1,
            "duration": 0.3344299583333452,
            "ticks": 68640,
            "durationTicks": 122
          },
          {
            "time": 188.552707,
            "midi": 58,
            "name": "A#3",
            "velocity": 0.8031496062992126,
            "duration": 0.06030704166664691,
            "ticks": 68784,
            "durationTicks": 22
          },
          {
            "time": 188.68428600000001,
            "midi": 56,
            "name": "G#3",
            "velocity": 1,
            "duration": 0.4139256041666499,
            "ticks": 68832,
            "durationTicks": 151
          },
          {
            "time": 189.210602,
            "midi": 56,
            "name": "G#3",
            "velocity": 1,
            "duration": 0.12061408333335066,
            "ticks": 69024,
            "durationTicks": 44
          },
          {
            "time": 189.47376,
            "midi": 63,
            "name": "D#4",
            "velocity": 1,
            "duration": 0.2357457083333543,
            "ticks": 69120,
            "durationTicks": 86
          },
          {
            "time": 189.736918,
            "midi": 61,
            "name": "C#4",
            "velocity": 0.889763779527559,
            "duration": 0.19462727083333675,
            "ticks": 69216,
            "durationTicks": 71
          },
          {
            "time": 190.000076,
            "midi": 61,
            "name": "C#4",
            "velocity": 0.9763779527559056,
            "duration": 0.4824563333333458,
            "ticks": 69312,
            "durationTicks": 176
          },
          {
            "time": 191.052708,
            "midi": 56,
            "name": "G#3",
            "velocity": 0.9763779527559056,
            "duration": 0.06853072916666747,
            "ticks": 69696,
            "durationTicks": 25
          },
          {
            "time": 191.184287,
            "midi": 58,
            "name": "A#3",
            "velocity": 0.984251968503937,
            "duration": 0.05756581250000181,
            "ticks": 69744,
            "durationTicks": 21
          },
          {
            "time": 191.315866,
            "midi": 61,
            "name": "C#4",
            "velocity": 0.968503937007874,
            "duration": 0.08223687500000665,
            "ticks": 69792,
            "durationTicks": 30
          },
          {
            "time": 191.44744500000002,
            "midi": 58,
            "name": "A#3",
            "velocity": 0.9448818897637795,
            "duration": 0.05208335416665477,
            "ticks": 69840,
            "durationTicks": 19
          },
          {
            "time": 191.579024,
            "midi": 65,
            "name": "F4",
            "velocity": 1,
            "duration": 0.43859666666665476,
            "ticks": 69888,
            "durationTicks": 160
          },
          {
            "time": 192.10534,
            "midi": 65,
            "name": "F4",
            "velocity": 1,
            "duration": 0.17817989583332405,
            "ticks": 70080,
            "durationTicks": 65
          },
          {
            "time": 192.368498,
            "midi": 63,
            "name": "D#4",
            "velocity": 1,
            "duration": 0.49068002083336637,
            "ticks": 70176,
            "durationTicks": 179
          },
          {
            "time": 193.157972,
            "midi": 56,
            "name": "G#3",
            "velocity": 0.8740157480314961,
            "duration": 0.06853072916666747,
            "ticks": 70464,
            "durationTicks": 25
          },
          {
            "time": 193.289551,
            "midi": 58,
            "name": "A#3",
            "velocity": 0.952755905511811,
            "duration": 0.04934212500000967,
            "ticks": 70512,
            "durationTicks": 18
          },
          {
            "time": 193.42113,
            "midi": 61,
            "name": "C#4",
            "velocity": 0.937007874015748,
            "duration": 0.08497810416665175,
            "ticks": 70560,
            "durationTicks": 31
          },
          {
            "time": 193.552709,
            "midi": 58,
            "name": "A#3",
            "velocity": 0.7795275590551181,
            "duration": 0.024671062500004837,
            "ticks": 70608,
            "durationTicks": 9
          },
          {
            "time": 193.684288,
            "midi": 68,
            "name": "G#4",
            "velocity": 1,
            "duration": 0.45504404166663903,
            "ticks": 70656,
            "durationTicks": 166
          },
          {
            "time": 194.210604,
            "midi": 61,
            "name": "C#4",
            "velocity": 1,
            "duration": 0.08771933333335369,
            "ticks": 70848,
            "durationTicks": 32
          },
          {
            "time": 194.473762,
            "midi": 61,
            "name": "C#4",
            "velocity": 1,
            "duration": 0.37554839583336275,
            "ticks": 70944,
            "durationTicks": 137
          },
          {
            "time": 194.868499,
            "midi": 60,
            "name": "C4",
            "velocity": 0.8267716535433071,
            "duration": 0.06578949999999395,
            "ticks": 71088,
            "durationTicks": 24
          },
          {
            "time": 195.000078,
            "midi": 58,
            "name": "A#3",
            "velocity": 0.9763779527559056,
            "duration": 0.21381587499999455,
            "ticks": 71136,
            "durationTicks": 78
          },
          {
            "time": 195.263236,
            "midi": 56,
            "name": "G#3",
            "velocity": 0.8976377952755905,
            "duration": 0.06578949999999395,
            "ticks": 71232,
            "durationTicks": 24
          },
          {
            "time": 195.394815,
            "midi": 58,
            "name": "A#3",
            "velocity": 0.9133858267716536,
            "duration": 0.041118437500017535,
            "ticks": 71280,
            "durationTicks": 15
          },
          {
            "time": 195.526394,
            "midi": 61,
            "name": "C#4",
            "velocity": 0.952755905511811,
            "duration": 0.09594302083334583,
            "ticks": 71328,
            "durationTicks": 35
          },
          {
            "time": 195.657973,
            "midi": 58,
            "name": "A#3",
            "velocity": 0.8267716535433071,
            "duration": 0.041118437500017535,
            "ticks": 71376,
            "durationTicks": 15
          },
          {
            "time": 195.78955200000001,
            "midi": 61,
            "name": "C#4",
            "velocity": 1,
            "duration": 0.45230281249999393,
            "ticks": 71424,
            "durationTicks": 165
          },
          {
            "time": 196.315868,
            "midi": 63,
            "name": "D#4",
            "velocity": 0.9448818897637795,
            "duration": 0.0932017916666723,
            "ticks": 71616,
            "durationTicks": 34
          },
          {
            "time": 196.579026,
            "midi": 60,
            "name": "C4",
            "velocity": 0.9133858267716536,
            "duration": 0.35910102083335005,
            "ticks": 71712,
            "durationTicks": 131
          },
          {
            "time": 196.579026,
            "midi": 58,
            "name": "A#3",
            "velocity": 0.9763779527559056,
            "duration": 0.11239039583335853,
            "ticks": 71712,
            "durationTicks": 41
          },
          {
            "time": 196.973763,
            "midi": 58,
            "name": "A#3",
            "velocity": 0.8503937007874016,
            "duration": 0.05756581250000181,
            "ticks": 71856,
            "durationTicks": 21
          },
          {
            "time": 197.105342,
            "midi": 56,
            "name": "G#3",
            "velocity": 1,
            "duration": 0.424890520833344,
            "ticks": 71904,
            "durationTicks": 155
          },
          {
            "time": 197.63165800000002,
            "midi": 56,
            "name": "G#3",
            "velocity": 1,
            "duration": 0.10964916666665658,
            "ticks": 72096,
            "durationTicks": 40
          },
          {
            "time": 197.894816,
            "midi": 63,
            "name": "D#4",
            "velocity": 1,
            "duration": 0.4468203541666753,
            "ticks": 72192,
            "durationTicks": 163
          },
          {
            "time": 198.421132,
            "midi": 61,
            "name": "C#4",
            "velocity": 1,
            "duration": 0.5756581249999897,
            "ticks": 72384,
            "durationTicks": 210
          },
          {
            "time": 200.00008,
            "midi": 65,
            "name": "F4",
            "velocity": 1,
            "duration": 0.28508783333333554,
            "ticks": 72960,
            "durationTicks": 104
          },
          {
            "time": 200.394817,
            "midi": 65,
            "name": "F4",
            "velocity": 1,
            "duration": 0.2768641458333434,
            "ticks": 73104,
            "durationTicks": 101
          },
          {
            "time": 200.789554,
            "midi": 63,
            "name": "D#4",
            "velocity": 1,
            "duration": 0.43859666666665476,
            "ticks": 73248,
            "durationTicks": 160
          },
          {
            "time": 201.579028,
            "midi": 56,
            "name": "G#3",
            "velocity": 1,
            "duration": 0.07401318750001451,
            "ticks": 73536,
            "durationTicks": 27
          },
          {
            "time": 201.710607,
            "midi": 58,
            "name": "A#3",
            "velocity": 0.968503937007874,
            "duration": 0.05208335416665477,
            "ticks": 73584,
            "durationTicks": 19
          },
          {
            "time": 201.842186,
            "midi": 61,
            "name": "C#4",
            "velocity": 0.9763779527559056,
            "duration": 0.08223687500000665,
            "ticks": 73632,
            "durationTicks": 30
          },
          {
            "time": 201.97376500000001,
            "midi": 58,
            "name": "A#3",
            "velocity": 0.952755905511811,
            "duration": 0.05208335416665477,
            "ticks": 73680,
            "durationTicks": 19
          },
          {
            "time": 202.105344,
            "midi": 63,
            "name": "D#4",
            "velocity": 1,
            "duration": 0.3125001250000139,
            "ticks": 73728,
            "durationTicks": 114
          },
          {
            "time": 202.500081,
            "midi": 63,
            "name": "D#4",
            "velocity": 1,
            "duration": 0.2796053750000169,
            "ticks": 73872,
            "durationTicks": 102
          },
          {
            "time": 202.89481800000001,
            "midi": 61,
            "name": "C#4",
            "velocity": 1,
            "duration": 0.2987939791666463,
            "ticks": 74016,
            "durationTicks": 109
          },
          {
            "time": 203.289555,
            "midi": 60,
            "name": "C4",
            "velocity": 0.8267716535433071,
            "duration": 0.07675441666665961,
            "ticks": 74160,
            "durationTicks": 28
          },
          {
            "time": 203.421134,
            "midi": 58,
            "name": "A#3",
            "velocity": 0.9448818897637795,
            "duration": 0.21655710416666807,
            "ticks": 74208,
            "durationTicks": 79
          },
          {
            "time": 203.684292,
            "midi": 56,
            "name": "G#3",
            "velocity": 0.937007874015748,
            "duration": 0.06578949999999395,
            "ticks": 74304,
            "durationTicks": 24
          },
          {
            "time": 203.81587100000002,
            "midi": 58,
            "name": "A#3",
            "velocity": 1,
            "duration": 0.05482458333332829,
            "ticks": 74352,
            "durationTicks": 20
          },
          {
            "time": 203.94745,
            "midi": 61,
            "name": "C#4",
            "velocity": 1,
            "duration": 0.07675441666665961,
            "ticks": 74400,
            "durationTicks": 28
          },
          {
            "time": 204.079029,
            "midi": 58,
            "name": "A#3",
            "velocity": 0.952755905511811,
            "duration": 0.04934212500000967,
            "ticks": 74448,
            "durationTicks": 18
          },
          {
            "time": 204.210608,
            "midi": 61,
            "name": "C#4",
            "velocity": 1,
            "duration": 0.41940806249999696,
            "ticks": 74496,
            "durationTicks": 153
          },
          {
            "time": 204.73692400000002,
            "midi": 63,
            "name": "D#4",
            "velocity": 0.937007874015748,
            "duration": 0.1123903958333301,
            "ticks": 74688,
            "durationTicks": 41
          },
          {
            "time": 205.000082,
            "midi": 60,
            "name": "C4",
            "velocity": 1,
            "duration": 0.3344299583333452,
            "ticks": 74784,
            "durationTicks": 122
          },
          {
            "time": 205.394819,
            "midi": 58,
            "name": "A#3",
            "velocity": 0.8031496062992126,
            "duration": 0.06030704166664691,
            "ticks": 74928,
            "durationTicks": 22
          },
          {
            "time": 205.526398,
            "midi": 56,
            "name": "G#3",
            "velocity": 1,
            "duration": 0.4139256041666499,
            "ticks": 74976,
            "durationTicks": 151
          },
          {
            "time": 206.052714,
            "midi": 56,
            "name": "G#3",
            "velocity": 1,
            "duration": 0.12061408333335066,
            "ticks": 75168,
            "durationTicks": 44
          },
          {
            "time": 206.315872,
            "midi": 63,
            "name": "D#4",
            "velocity": 1,
            "duration": 0.23574570833332587,
            "ticks": 75264,
            "durationTicks": 86
          },
          {
            "time": 206.57903,
            "midi": 61,
            "name": "C#4",
            "velocity": 0.889763779527559,
            "duration": 0.19462727083336517,
            "ticks": 75360,
            "durationTicks": 71
          },
          {
            "time": 206.842188,
            "midi": 61,
            "name": "C#4",
            "velocity": 0.9763779527559056,
            "duration": 0.4824563333333458,
            "ticks": 75456,
            "durationTicks": 176
          },
          {
            "time": 207.89482,
            "midi": 56,
            "name": "G#3",
            "velocity": 0.9763779527559056,
            "duration": 0.06853072916663905,
            "ticks": 75840,
            "durationTicks": 25
          },
          {
            "time": 208.026399,
            "midi": 58,
            "name": "A#3",
            "velocity": 0.984251968503937,
            "duration": 0.05756581250000181,
            "ticks": 75888,
            "durationTicks": 21
          },
          {
            "time": 208.157978,
            "midi": 61,
            "name": "C#4",
            "velocity": 0.968503937007874,
            "duration": 0.08223687499997823,
            "ticks": 75936,
            "durationTicks": 30
          },
          {
            "time": 208.289557,
            "midi": 58,
            "name": "A#3",
            "velocity": 0.9448818897637795,
            "duration": 0.05208335416665477,
            "ticks": 75984,
            "durationTicks": 19
          },
          {
            "time": 208.421136,
            "midi": 65,
            "name": "F4",
            "velocity": 1,
            "duration": 0.4385966666666832,
            "ticks": 76032,
            "durationTicks": 160
          },
          {
            "time": 208.947452,
            "midi": 65,
            "name": "F4",
            "velocity": 1,
            "duration": 0.17817989583335248,
            "ticks": 76224,
            "durationTicks": 65
          },
          {
            "time": 209.21061,
            "midi": 63,
            "name": "D#4",
            "velocity": 1,
            "duration": 0.49068002083333795,
            "ticks": 76320,
            "durationTicks": 179
          },
          {
            "time": 210.00008400000002,
            "midi": 56,
            "name": "G#3",
            "velocity": 0.8740157480314961,
            "duration": 0.06853072916663905,
            "ticks": 76608,
            "durationTicks": 25
          },
          {
            "time": 210.131663,
            "midi": 58,
            "name": "A#3",
            "velocity": 0.952755905511811,
            "duration": 0.04934212500000967,
            "ticks": 76656,
            "durationTicks": 18
          },
          {
            "time": 210.263242,
            "midi": 61,
            "name": "C#4",
            "velocity": 0.937007874015748,
            "duration": 0.08497810416668017,
            "ticks": 76704,
            "durationTicks": 31
          },
          {
            "time": 210.394821,
            "midi": 58,
            "name": "A#3",
            "velocity": 0.7795275590551181,
            "duration": 0.024671062500004837,
            "ticks": 76752,
            "durationTicks": 9
          },
          {
            "time": 210.5264,
            "midi": 68,
            "name": "G#4",
            "velocity": 1,
            "duration": 0.45504404166666745,
            "ticks": 76800,
            "durationTicks": 166
          },
          {
            "time": 211.052716,
            "midi": 61,
            "name": "C#4",
            "velocity": 1,
            "duration": 0.08771933333335369,
            "ticks": 76992,
            "durationTicks": 32
          },
          {
            "time": 211.315874,
            "midi": 61,
            "name": "C#4",
            "velocity": 1,
            "duration": 0.3755483958333343,
            "ticks": 77088,
            "durationTicks": 137
          },
          {
            "time": 211.710611,
            "midi": 60,
            "name": "C4",
            "velocity": 0.8267716535433071,
            "duration": 0.06578949999999395,
            "ticks": 77232,
            "durationTicks": 24
          },
          {
            "time": 211.84219000000002,
            "midi": 58,
            "name": "A#3",
            "velocity": 0.9763779527559056,
            "duration": 0.21381587499999455,
            "ticks": 77280,
            "durationTicks": 78
          },
          {
            "time": 212.105348,
            "midi": 56,
            "name": "G#3",
            "velocity": 0.8976377952755905,
            "duration": 0.06578950000002237,
            "ticks": 77376,
            "durationTicks": 24
          },
          {
            "time": 212.236927,
            "midi": 58,
            "name": "A#3",
            "velocity": 0.9133858267716536,
            "duration": 0.04111843749998911,
            "ticks": 77424,
            "durationTicks": 15
          },
          {
            "time": 212.368506,
            "midi": 61,
            "name": "C#4",
            "velocity": 0.952755905511811,
            "duration": 0.09594302083334583,
            "ticks": 77472,
            "durationTicks": 35
          },
          {
            "time": 212.500085,
            "midi": 58,
            "name": "A#3",
            "velocity": 0.8267716535433071,
            "duration": 0.04111843749998911,
            "ticks": 77520,
            "durationTicks": 15
          },
          {
            "time": 212.631664,
            "midi": 61,
            "name": "C#4",
            "velocity": 1,
            "duration": 0.45230281249999393,
            "ticks": 77568,
            "durationTicks": 165
          },
          {
            "time": 213.15798,
            "midi": 63,
            "name": "D#4",
            "velocity": 0.9448818897637795,
            "duration": 0.09320179166664389,
            "ticks": 77760,
            "durationTicks": 34
          },
          {
            "time": 213.421138,
            "midi": 60,
            "name": "C4",
            "velocity": 0.9133858267716536,
            "duration": 0.3591010208333216,
            "ticks": 77856,
            "durationTicks": 131
          },
          {
            "time": 213.421138,
            "midi": 58,
            "name": "A#3",
            "velocity": 0.9763779527559056,
            "duration": 0.1123903958333301,
            "ticks": 77856,
            "durationTicks": 41
          },
          {
            "time": 213.815875,
            "midi": 58,
            "name": "A#3",
            "velocity": 0.8503937007874016,
            "duration": 0.05756581250000181,
            "ticks": 78000,
            "durationTicks": 21
          },
          {
            "time": 213.947454,
            "midi": 56,
            "name": "G#3",
            "velocity": 1,
            "duration": 0.424890520833344,
            "ticks": 78048,
            "durationTicks": 155
          },
          {
            "time": 214.47377,
            "midi": 56,
            "name": "G#3",
            "velocity": 1,
            "duration": 0.10964916666665658,
            "ticks": 78240,
            "durationTicks": 40
          },
          {
            "time": 214.736928,
            "midi": 63,
            "name": "D#4",
            "velocity": 1,
            "duration": 0.4468203541666469,
            "ticks": 78336,
            "durationTicks": 163
          },
          {
            "time": 215.26324400000001,
            "midi": 61,
            "name": "C#4",
            "velocity": 1,
            "duration": 0.5756581249999897,
            "ticks": 78528,
            "durationTicks": 210
          },
          {
            "time": 216.315876,
            "midi": 56,
            "name": "G#3",
            "velocity": 0.937007874015748,
            "duration": 0.06030704166664691,
            "ticks": 78912,
            "durationTicks": 22
          },
          {
            "time": 216.447455,
            "midi": 58,
            "name": "A#3",
            "velocity": 0.9763779527559056,
            "duration": 0.06030704166667533,
            "ticks": 78960,
            "durationTicks": 22
          },
          {
            "time": 216.579034,
            "midi": 61,
            "name": "C#4",
            "velocity": 1,
            "duration": 0.07401318749998609,
            "ticks": 79008,
            "durationTicks": 27
          },
          {
            "time": 216.710613,
            "midi": 58,
            "name": "A#3",
            "velocity": 1,
            "duration": 0.07127195833334099,
            "ticks": 79056,
            "durationTicks": 26
          }
        ],
        "controlChanges": {
          "0": [
            {
              "number": 0,
              "value": 0,
              "time": 1.5844304583333333,
              "ticks": 578
            }
          ],
          "1": [
            {
              "number": 1,
              "value": 0,
              "time": 0.021929833333333332,
              "ticks": 8
            },
            {
              "number": 1,
              "value": 0.03937007874015748,
              "time": 23.7417858125,
              "ticks": 8661
            },
            {
              "number": 1,
              "value": 0.07874015748031496,
              "time": 23.7582331875,
              "ticks": 8667
            },
            {
              "number": 1,
              "value": 0.015748031496062992,
              "time": 23.78290425,
              "ticks": 8676
            },
            {
              "number": 1,
              "value": 0.06299212598425197,
              "time": 23.81031654166667,
              "ticks": 8686
            },
            {
              "number": 1,
              "value": 0.12598425196850394,
              "time": 23.834987604166667,
              "ticks": 8695
            },
            {
              "number": 1,
              "value": 0.2125984251968504,
              "time": 23.8569174375,
              "ticks": 8703
            },
            {
              "number": 1,
              "value": 0.2755905511811024,
              "time": 23.88432972916667,
              "ticks": 8713
            },
            {
              "number": 1,
              "value": 0.33858267716535434,
              "time": 23.909000791666667,
              "ticks": 8722
            },
            {
              "number": 1,
              "value": 0.3779527559055118,
              "time": 23.930930625000002,
              "ticks": 8730
            },
            {
              "number": 1,
              "value": 0.4094488188976378,
              "time": 23.9556016875,
              "ticks": 8739
            },
            {
              "number": 1,
              "value": 0.4251968503937008,
              "time": 23.983013979166667,
              "ticks": 8749
            },
            {
              "number": 1,
              "value": 0.3858267716535433,
              "time": 24.01042627083333,
              "ticks": 8759
            },
            {
              "number": 1,
              "value": 0.30708661417322836,
              "time": 24.032356104166666,
              "ticks": 8767
            },
            {
              "number": 1,
              "value": 0.28346456692913385,
              "time": 24.05976839583333,
              "ticks": 8777
            },
            {
              "number": 1,
              "value": 0.3228346456692913,
              "time": 24.087180687500002,
              "ticks": 8787
            },
            {
              "number": 1,
              "value": 0.36220472440944884,
              "time": 24.106369291666667,
              "ticks": 8794
            },
            {
              "number": 1,
              "value": 0.3858267716535433,
              "time": 24.131040354166668,
              "ticks": 8803
            },
            {
              "number": 1,
              "value": 0.4015748031496063,
              "time": 24.1529701875,
              "ticks": 8811
            },
            {
              "number": 1,
              "value": 0.4094488188976378,
              "time": 24.19682985416667,
              "ticks": 8827
            },
            {
              "number": 1,
              "value": 0.4251968503937008,
              "time": 24.20779477083333,
              "ticks": 8831
            },
            {
              "number": 1,
              "value": 0.48031496062992124,
              "time": 24.226983375,
              "ticks": 8838
            },
            {
              "number": 1,
              "value": 0.49606299212598426,
              "time": 24.254395666666667,
              "ticks": 8848
            },
            {
              "number": 1,
              "value": 0.4645669291338583,
              "time": 24.30373779166667,
              "ticks": 8866
            },
            {
              "number": 1,
              "value": 0.48031496062992124,
              "time": 24.336632541666667,
              "ticks": 8878
            },
            {
              "number": 1,
              "value": 0.5039370078740157,
              "time": 24.355821145833332,
              "ticks": 8885
            },
            {
              "number": 1,
              "value": 0.5275590551181102,
              "time": 24.3832334375,
              "ticks": 8895
            },
            {
              "number": 1,
              "value": 0.5511811023622047,
              "time": 24.3996808125,
              "ticks": 8901
            },
            {
              "number": 1,
              "value": 0.5590551181102362,
              "time": 24.43531679166667,
              "ticks": 8914
            },
            {
              "number": 1,
              "value": 0.5748031496062992,
              "time": 24.45998785416667,
              "ticks": 8923
            },
            {
              "number": 1,
              "value": 0.5905511811023622,
              "time": 24.484658916666667,
              "ticks": 8932
            },
            {
              "number": 1,
              "value": 0.5984251968503937,
              "time": 24.503847520833332,
              "ticks": 8939
            },
            {
              "number": 1,
              "value": 0.5826771653543307,
              "time": 24.534001041666667,
              "ticks": 8950
            },
            {
              "number": 1,
              "value": 0.5748031496062992,
              "time": 24.558672104166668,
              "ticks": 8959
            },
            {
              "number": 1,
              "value": 0.5984251968503937,
              "time": 24.5806019375,
              "ticks": 8967
            },
            {
              "number": 1,
              "value": 0.6141732283464567,
              "time": 24.602531770833334,
              "ticks": 8975
            },
            {
              "number": 1,
              "value": 0.5984251968503937,
              "time": 24.63816775,
              "ticks": 8988
            },
            {
              "number": 1,
              "value": 0.5196850393700787,
              "time": 24.649132666666667,
              "ticks": 8992
            },
            {
              "number": 1,
              "value": 0.4251968503937008,
              "time": 24.6710625,
              "ticks": 9000
            },
            {
              "number": 1,
              "value": 0.41732283464566927,
              "time": 24.6957335625,
              "ticks": 9009
            },
            {
              "number": 1,
              "value": 0.48031496062992124,
              "time": 24.720404625,
              "ticks": 9018
            },
            {
              "number": 1,
              "value": 0.5118110236220472,
              "time": 24.747816916666668,
              "ticks": 9028
            },
            {
              "number": 1,
              "value": 0.5196850393700787,
              "time": 24.76974675,
              "ticks": 9036
            },
            {
              "number": 1,
              "value": 0.2992125984251969,
              "time": 24.7944178125,
              "ticks": 9045
            },
            {
              "number": 1,
              "value": 0.047244094488188976,
              "time": 24.82183010416667,
              "ticks": 9055
            },
            {
              "number": 1,
              "value": 0,
              "time": 24.849242395833333,
              "ticks": 9065
            },
            {
              "number": 1,
              "value": 0.031496062992125984,
              "time": 25.592115500000002,
              "ticks": 9336
            },
            {
              "number": 1,
              "value": 0.06299212598425197,
              "time": 25.608562875,
              "ticks": 9342
            },
            {
              "number": 1,
              "value": 0.14960629921259844,
              "time": 25.633233937500002,
              "ticks": 9351
            },
            {
              "number": 1,
              "value": 0.23622047244094488,
              "time": 25.66064622916667,
              "ticks": 9361
            },
            {
              "number": 1,
              "value": 0.31496062992125984,
              "time": 25.6825760625,
              "ticks": 9369
            },
            {
              "number": 1,
              "value": 0.3543307086614173,
              "time": 25.71272958333333,
              "ticks": 9380
            },
            {
              "number": 1,
              "value": 0.3779527559055118,
              "time": 25.73465941666667,
              "ticks": 9388
            },
            {
              "number": 1,
              "value": 0.3937007874015748,
              "time": 25.759330479166668,
              "ticks": 9397
            },
            {
              "number": 1,
              "value": 0.4094488188976378,
              "time": 25.792225229166668,
              "ticks": 9409
            },
            {
              "number": 1,
              "value": 0.4251968503937008,
              "time": 25.805931375,
              "ticks": 9414
            },
            {
              "number": 1,
              "value": 0.4409448818897638,
              "time": 25.838826125,
              "ticks": 9426
            },
            {
              "number": 1,
              "value": 0.44881889763779526,
              "time": 25.8963919375,
              "ticks": 9447
            },
            {
              "number": 1,
              "value": 0.4645669291338583,
              "time": 25.921063,
              "ticks": 9456
            },
            {
              "number": 1,
              "value": 0.47244094488188976,
              "time": 25.94299283333333,
              "ticks": 9464
            },
            {
              "number": 1,
              "value": 0.4881889763779528,
              "time": 25.956698979166667,
              "ticks": 9469
            },
            {
              "number": 1,
              "value": 0.49606299212598426,
              "time": 26.000558645833333,
              "ticks": 9485
            },
            {
              "number": 1,
              "value": 0.5118110236220472,
              "time": 26.01426479166667,
              "ticks": 9490
            },
            {
              "number": 1,
              "value": 0.5196850393700787,
              "time": 26.041677083333333,
              "ticks": 9500
            },
            {
              "number": 1,
              "value": 0.5275590551181102,
              "time": 26.0608656875,
              "ticks": 9507
            },
            {
              "number": 1,
              "value": 0.5354330708661418,
              "time": 26.082795520833333,
              "ticks": 9515
            },
            {
              "number": 1,
              "value": 0.5511811023622047,
              "time": 26.1102078125,
              "ticks": 9525
            },
            {
              "number": 1,
              "value": 0.5669291338582677,
              "time": 26.134878875000002,
              "ticks": 9534
            },
            {
              "number": 1,
              "value": 0.5354330708661418,
              "time": 26.1595499375,
              "ticks": 9543
            },
            {
              "number": 1,
              "value": 0.3228346456692913,
              "time": 26.1759973125,
              "ticks": 9549
            },
            {
              "number": 1,
              "value": 0.03937007874015748,
              "time": 26.20340960416667,
              "ticks": 9559
            },
            {
              "number": 1,
              "value": 0,
              "time": 26.228080666666667,
              "ticks": 9568
            },
            {
              "number": 1,
              "value": 0.1889763779527559,
              "time": 28.90077910416667,
              "ticks": 10543
            },
            {
              "number": 1,
              "value": 0.10236220472440945,
              "time": 28.91722647916667,
              "ticks": 10549
            },
            {
              "number": 1,
              "value": 0.023622047244094488,
              "time": 28.94189754166667,
              "ticks": 10558
            },
            {
              "number": 1,
              "value": 0,
              "time": 28.963827375,
              "ticks": 10566
            },
            {
              "number": 1,
              "value": 0.07086614173228346,
              "time": 30.30702966666667,
              "ticks": 11056
            },
            {
              "number": 1,
              "value": 0.2204724409448819,
              "time": 30.323477041666667,
              "ticks": 11062
            },
            {
              "number": 1,
              "value": 0.31496062992125984,
              "time": 30.34814810416667,
              "ticks": 11071
            },
            {
              "number": 1,
              "value": 0.3700787401574803,
              "time": 30.37281916666667,
              "ticks": 11080
            },
            {
              "number": 1,
              "value": 0.3858267716535433,
              "time": 30.400231458333334,
              "ticks": 11090
            },
            {
              "number": 1,
              "value": 0.4094488188976378,
              "time": 30.42490252083333,
              "ticks": 11099
            },
            {
              "number": 1,
              "value": 0.41732283464566927,
              "time": 30.46327972916667,
              "ticks": 11113
            },
            {
              "number": 1,
              "value": 0.4330708661417323,
              "time": 30.474244645833334,
              "ticks": 11117
            },
            {
              "number": 1,
              "value": 0.4409448818897638,
              "time": 30.53729291666667,
              "ticks": 11140
            },
            {
              "number": 1,
              "value": 0.4566929133858268,
              "time": 30.5509990625,
              "ticks": 11145
            },
            {
              "number": 1,
              "value": 0.48031496062992124,
              "time": 30.57018766666667,
              "ticks": 11152
            },
            {
              "number": 1,
              "value": 0.49606299212598426,
              "time": 30.5921175,
              "ticks": 11160
            },
            {
              "number": 1,
              "value": 0.5039370078740157,
              "time": 30.6332359375,
              "ticks": 11175
            },
            {
              "number": 1,
              "value": 0.5118110236220472,
              "time": 30.646942083333332,
              "ticks": 11180
            },
            {
              "number": 1,
              "value": 0,
              "time": 30.657907,
              "ticks": 11184
            },
            {
              "number": 1,
              "value": 0.09448818897637795,
              "time": 31.85308291666667,
              "ticks": 11620
            },
            {
              "number": 1,
              "value": 0.14960629921259844,
              "time": 31.87775397916667,
              "ticks": 11629
            },
            {
              "number": 1,
              "value": 0.18110236220472442,
              "time": 31.8996838125,
              "ticks": 11637
            },
            {
              "number": 1,
              "value": 0.16535433070866143,
              "time": 31.9325785625,
              "ticks": 11649
            },
            {
              "number": 1,
              "value": 0.18110236220472442,
              "time": 31.957249625,
              "ticks": 11658
            },
            {
              "number": 1,
              "value": 0.1889763779527559,
              "time": 31.976438229166668,
              "ticks": 11665
            },
            {
              "number": 1,
              "value": 0.2125984251968504,
              "time": 31.9983680625,
              "ticks": 11673
            },
            {
              "number": 1,
              "value": 0.2440944881889764,
              "time": 32.02578035416667,
              "ticks": 11683
            },
            {
              "number": 1,
              "value": 0.25984251968503935,
              "time": 32.053192645833334,
              "ticks": 11693
            },
            {
              "number": 1,
              "value": 0.2677165354330709,
              "time": 32.08608739583333,
              "ticks": 11705
            },
            {
              "number": 1,
              "value": 0.28346456692913385,
              "time": 32.10801722916667,
              "ticks": 11713
            },
            {
              "number": 1,
              "value": 0.3228346456692913,
              "time": 32.121723375,
              "ticks": 11718
            },
            {
              "number": 1,
              "value": 0.25196850393700787,
              "time": 32.154618125,
              "ticks": 11730
            },
            {
              "number": 1,
              "value": 0.18110236220472442,
              "time": 32.17380672916667,
              "ticks": 11737
            },
            {
              "number": 1,
              "value": 0.2204724409448819,
              "time": 32.201219020833335,
              "ticks": 11747
            },
            {
              "number": 1,
              "value": 0.2677165354330709,
              "time": 32.223148854166666,
              "ticks": 11755
            },
            {
              "number": 1,
              "value": 0.30708661417322836,
              "time": 32.24781991666667,
              "ticks": 11764
            },
            {
              "number": 1,
              "value": 0.3543307086614173,
              "time": 32.27249097916667,
              "ticks": 11773
            },
            {
              "number": 1,
              "value": 0.3937007874015748,
              "time": 32.2944208125,
              "ticks": 11781
            },
            {
              "number": 1,
              "value": 0.3779527559055118,
              "time": 32.32457433333333,
              "ticks": 11792
            },
            {
              "number": 1,
              "value": 0.3858267716535433,
              "time": 32.34650416666667,
              "ticks": 11800
            },
            {
              "number": 1,
              "value": 0.4094488188976378,
              "time": 32.37117522916667,
              "ticks": 11809
            },
            {
              "number": 1,
              "value": 0.41732283464566927,
              "time": 32.40406997916667,
              "ticks": 11821
            },
            {
              "number": 1,
              "value": 0.33858267716535434,
              "time": 32.417776125,
              "ticks": 11826
            },
            {
              "number": 1,
              "value": 0.31496062992125984,
              "time": 32.44518841666667,
              "ticks": 11836
            },
            {
              "number": 1,
              "value": 0.3228346456692913,
              "time": 32.48630685416667,
              "ticks": 11851
            },
            {
              "number": 1,
              "value": 0.36220472440944884,
              "time": 32.4917893125,
              "ticks": 11853
            },
            {
              "number": 1,
              "value": 0.3779527559055118,
              "time": 32.53290775,
              "ticks": 11868
            },
            {
              "number": 1,
              "value": 0.3858267716535433,
              "time": 32.56032004166667,
              "ticks": 11878
            },
            {
              "number": 1,
              "value": 0.3937007874015748,
              "time": 32.57128495833333,
              "ticks": 11882
            },
            {
              "number": 1,
              "value": 0.4015748031496063,
              "time": 32.60143847916667,
              "ticks": 11893
            },
            {
              "number": 1,
              "value": 0.4094488188976378,
              "time": 32.63707445833333,
              "ticks": 11906
            },
            {
              "number": 1,
              "value": 0.4330708661417323,
              "time": 32.64255691666667,
              "ticks": 11908
            },
            {
              "number": 1,
              "value": 0.4094488188976378,
              "time": 32.678192895833334,
              "ticks": 11921
            },
            {
              "number": 1,
              "value": 0.4251968503937008,
              "time": 32.7056051875,
              "ticks": 11931
            },
            {
              "number": 1,
              "value": 0.41732283464566927,
              "time": 32.74124116666667,
              "ticks": 11944
            },
            {
              "number": 1,
              "value": 0.44881889763779526,
              "time": 32.763171,
              "ticks": 11952
            },
            {
              "number": 1,
              "value": 0.4094488188976378,
              "time": 32.796065750000004,
              "ticks": 11964
            },
            {
              "number": 1,
              "value": 0.3228346456692913,
              "time": 32.81525435416667,
              "ticks": 11971
            },
            {
              "number": 1,
              "value": 0.2755905511811024,
              "time": 32.83992541666667,
              "ticks": 11980
            },
            {
              "number": 1,
              "value": 0.2992125984251969,
              "time": 32.878302625,
              "ticks": 11994
            },
            {
              "number": 1,
              "value": 0.33858267716535434,
              "time": 32.88926754166667,
              "ticks": 11998
            },
            {
              "number": 1,
              "value": 0.3779527559055118,
              "time": 32.91393860416667,
              "ticks": 12007
            },
            {
              "number": 1,
              "value": 0.4015748031496063,
              "time": 32.93860966666667,
              "ticks": 12016
            },
            {
              "number": 1,
              "value": 0.41732283464566927,
              "time": 32.966021958333336,
              "ticks": 12026
            },
            {
              "number": 1,
              "value": 0.4330708661417323,
              "time": 33.012622854166665,
              "ticks": 12043
            },
            {
              "number": 1,
              "value": 0.4566929133858268,
              "time": 33.160649229166665,
              "ticks": 12097
            },
            {
              "number": 1,
              "value": 0.48031496062992124,
              "time": 33.18532029166667,
              "ticks": 12106
            },
            {
              "number": 1,
              "value": 0.5039370078740157,
              "time": 33.20999135416667,
              "ticks": 12115
            },
            {
              "number": 1,
              "value": 0.49606299212598426,
              "time": 33.25385102083333,
              "ticks": 12131
            },
            {
              "number": 1,
              "value": 0.5196850393700787,
              "time": 33.26755716666667,
              "ticks": 12136
            },
            {
              "number": 1,
              "value": 0.5354330708661418,
              "time": 33.28400454166667,
              "ticks": 12142
            },
            {
              "number": 1,
              "value": 0.5511811023622047,
              "time": 33.34157035416667,
              "ticks": 12163
            },
            {
              "number": 1,
              "value": 0.5590551181102362,
              "time": 33.36624141666667,
              "ticks": 12172
            },
            {
              "number": 1,
              "value": 0.5275590551181102,
              "time": 33.3799475625,
              "ticks": 12177
            },
            {
              "number": 1,
              "value": 0.49606299212598426,
              "time": 33.41010108333333,
              "ticks": 12188
            },
            {
              "number": 1,
              "value": 0.4409448818897638,
              "time": 33.4292896875,
              "ticks": 12195
            },
            {
              "number": 1,
              "value": 0.4330708661417323,
              "time": 33.45670197916667,
              "ticks": 12205
            },
            {
              "number": 1,
              "value": 0.4015748031496063,
              "time": 33.4868555,
              "ticks": 12216
            },
            {
              "number": 1,
              "value": 0.33070866141732286,
              "time": 33.503302875,
              "ticks": 12222
            },
            {
              "number": 1,
              "value": 0.15748031496062992,
              "time": 33.5279739375,
              "ticks": 12231
            },
            {
              "number": 1,
              "value": 0.023622047244094488,
              "time": 33.55538622916667,
              "ticks": 12241
            },
            {
              "number": 1,
              "value": 0,
              "time": 33.5773160625,
              "ticks": 12249
            },
            {
              "number": 1,
              "value": 0.07874015748031496,
              "time": 34.391461125,
              "ticks": 12546
            },
            {
              "number": 1,
              "value": 0.13385826771653545,
              "time": 34.42161464583334,
              "ticks": 12557
            },
            {
              "number": 1,
              "value": 0.16535433070866143,
              "time": 34.44354447916666,
              "ticks": 12565
            },
            {
              "number": 1,
              "value": 0.2125984251968504,
              "time": 34.468215541666666,
              "ticks": 12574
            },
            {
              "number": 1,
              "value": 0.25984251968503935,
              "time": 34.490145375,
              "ticks": 12582
            },
            {
              "number": 1,
              "value": 0.30708661417322836,
              "time": 34.5148164375,
              "ticks": 12591
            },
            {
              "number": 1,
              "value": 0.31496062992125984,
              "time": 34.542228729166666,
              "ticks": 12601
            },
            {
              "number": 1,
              "value": 0.2992125984251969,
              "time": 34.59979454166667,
              "ticks": 12622
            },
            {
              "number": 1,
              "value": 0.2755905511811024,
              "time": 34.61898314583333,
              "ticks": 12629
            },
            {
              "number": 1,
              "value": 0.2677165354330709,
              "time": 34.63817175,
              "ticks": 12636
            },
            {
              "number": 1,
              "value": 0.25984251968503935,
              "time": 34.668325270833336,
              "ticks": 12647
            },
            {
              "number": 1,
              "value": 0.2755905511811024,
              "time": 34.6957375625,
              "ticks": 12657
            },
            {
              "number": 1,
              "value": 0.2992125984251969,
              "time": 34.71766739583334,
              "ticks": 12665
            },
            {
              "number": 1,
              "value": 0.3228346456692913,
              "time": 34.742338458333336,
              "ticks": 12674
            },
            {
              "number": 1,
              "value": 0.33070866141732286,
              "time": 34.780715666666666,
              "ticks": 12688
            },
            {
              "number": 1,
              "value": 0.3464566929133858,
              "time": 34.786198125,
              "ticks": 12690
            },
            {
              "number": 1,
              "value": 0.3858267716535433,
              "time": 34.862952541666665,
              "ticks": 12718
            },
            {
              "number": 1,
              "value": 0.4015748031496063,
              "time": 34.884882375000004,
              "ticks": 12726
            },
            {
              "number": 1,
              "value": 0.4094488188976378,
              "time": 34.9095534375,
              "ticks": 12735
            },
            {
              "number": 1,
              "value": 0.4015748031496063,
              "time": 34.936965729166666,
              "ticks": 12745
            },
            {
              "number": 1,
              "value": 0.4251968503937008,
              "time": 34.96163679166666,
              "ticks": 12754
            },
            {
              "number": 1,
              "value": 0.4409448818897638,
              "time": 34.983566625,
              "ticks": 12762
            },
            {
              "number": 1,
              "value": 0.4330708661417323,
              "time": 35.035649979166664,
              "ticks": 12781
            },
            {
              "number": 1,
              "value": 0.4409448818897638,
              "time": 35.082250875,
              "ticks": 12798
            },
            {
              "number": 1,
              "value": 0.4645669291338583,
              "time": 35.131593,
              "ticks": 12816
            },
            {
              "number": 1,
              "value": 0.48031496062992124,
              "time": 35.1562640625,
              "ticks": 12825
            },
            {
              "number": 1,
              "value": 0.3937007874015748,
              "time": 35.20834741666666,
              "ticks": 12844
            },
            {
              "number": 1,
              "value": 0.10236220472440945,
              "time": 35.23027725,
              "ticks": 12852
            },
            {
              "number": 1,
              "value": 0,
              "time": 35.2549483125,
              "ticks": 12861
            },
            {
              "number": 1,
              "value": 0.07874015748031496,
              "time": 36.269203104166664,
              "ticks": 13231
            },
            {
              "number": 1,
              "value": 0.15748031496062992,
              "time": 36.2911329375,
              "ticks": 13239
            },
            {
              "number": 1,
              "value": 0.25984251968503935,
              "time": 36.315804,
              "ticks": 13248
            },
            {
              "number": 1,
              "value": 0.3464566929133858,
              "time": 36.3404750625,
              "ticks": 13257
            },
            {
              "number": 1,
              "value": 0.3779527559055118,
              "time": 36.36788735416666,
              "ticks": 13267
            },
            {
              "number": 1,
              "value": 0.36220472440944884,
              "time": 36.398040875,
              "ticks": 13278
            },
            {
              "number": 1,
              "value": 0.36220472440944884,
              "time": 36.417229479166664,
              "ticks": 13285
            },
            {
              "number": 1,
              "value": 0.3700787401574803,
              "time": 36.44190054166666,
              "ticks": 13294
            },
            {
              "number": 1,
              "value": 0.33858267716535434,
              "time": 36.46657160416667,
              "ticks": 13303
            },
            {
              "number": 1,
              "value": 0.28346456692913385,
              "time": 36.491242666666665,
              "ticks": 13312
            },
            {
              "number": 1,
              "value": 0.29133858267716534,
              "time": 36.535102333333334,
              "ticks": 13328
            },
            {
              "number": 1,
              "value": 0.3228346456692913,
              "time": 36.54058479166667,
              "ticks": 13330
            },
            {
              "number": 1,
              "value": 0.3464566929133858,
              "time": 36.562514625,
              "ticks": 13338
            },
            {
              "number": 1,
              "value": 0.3700787401574803,
              "time": 36.58992691666666,
              "ticks": 13348
            },
            {
              "number": 1,
              "value": 0.3858267716535433,
              "time": 36.617339208333334,
              "ticks": 13358
            },
            {
              "number": 1,
              "value": 0.33858267716535434,
              "time": 36.639269041666665,
              "ticks": 13366
            },
            {
              "number": 1,
              "value": 0.3228346456692913,
              "time": 36.661198875000004,
              "ticks": 13374
            },
            {
              "number": 1,
              "value": 0.33070866141732286,
              "time": 36.69957608333333,
              "ticks": 13388
            },
            {
              "number": 1,
              "value": 0.29133858267716534,
              "time": 36.710541,
              "ticks": 13392
            },
            {
              "number": 1,
              "value": 0.2440944881889764,
              "time": 36.73795329166666,
              "ticks": 13402
            },
            {
              "number": 1,
              "value": 0.2204724409448819,
              "time": 36.76262435416666,
              "ticks": 13411
            },
            {
              "number": 1,
              "value": 0.25196850393700787,
              "time": 36.795519104166665,
              "ticks": 13423
            },
            {
              "number": 1,
              "value": 0.28346456692913385,
              "time": 36.811966479166664,
              "ticks": 13429
            },
            {
              "number": 1,
              "value": 0.31496062992125984,
              "time": 36.83663754166666,
              "ticks": 13438
            },
            {
              "number": 1,
              "value": 0.3464566929133858,
              "time": 36.861308604166666,
              "ticks": 13447
            },
            {
              "number": 1,
              "value": 0.3779527559055118,
              "time": 36.88872089583334,
              "ticks": 13457
            },
            {
              "number": 1,
              "value": 0.3937007874015748,
              "time": 36.91065072916666,
              "ticks": 13465
            },
            {
              "number": 1,
              "value": 0.4094488188976378,
              "time": 36.93532179166667,
              "ticks": 13474
            },
            {
              "number": 1,
              "value": 0.4094488188976378,
              "time": 36.959992854166664,
              "ticks": 13483
            },
            {
              "number": 1,
              "value": 0.4251968503937008,
              "time": 37.00933497916667,
              "ticks": 13501
            },
            {
              "number": 1,
              "value": 0.4330708661417323,
              "time": 37.0641595625,
              "ticks": 13521
            },
            {
              "number": 1,
              "value": 0.4330708661417323,
              "time": 37.0806069375,
              "ticks": 13527
            },
            {
              "number": 1,
              "value": 0.44881889763779526,
              "time": 37.11898414583334,
              "ticks": 13541
            },
            {
              "number": 1,
              "value": 0.44881889763779526,
              "time": 37.160102583333334,
              "ticks": 13556
            },
            {
              "number": 1,
              "value": 0.4566929133858268,
              "time": 37.1957385625,
              "ticks": 13569
            },
            {
              "number": 1,
              "value": 0.44881889763779526,
              "time": 37.2121859375,
              "ticks": 13575
            },
            {
              "number": 1,
              "value": 0.44881889763779526,
              "time": 37.23137454166667,
              "ticks": 13582
            },
            {
              "number": 1,
              "value": 0.47244094488188976,
              "time": 37.253304375,
              "ticks": 13590
            },
            {
              "number": 1,
              "value": 0.4881889763779528,
              "time": 37.28345789583334,
              "ticks": 13601
            },
            {
              "number": 1,
              "value": 0.4645669291338583,
              "time": 37.3108701875,
              "ticks": 13611
            },
            {
              "number": 1,
              "value": 0.4409448818897638,
              "time": 37.3273175625,
              "ticks": 13617
            },
            {
              "number": 1,
              "value": 0.4566929133858268,
              "time": 37.368436,
              "ticks": 13632
            },
            {
              "number": 1,
              "value": 0.47244094488188976,
              "time": 37.37940091666666,
              "ticks": 13636
            },
            {
              "number": 1,
              "value": 0.5039370078740157,
              "time": 37.404071979166666,
              "ticks": 13645
            },
            {
              "number": 1,
              "value": 0.5196850393700787,
              "time": 37.428743041666664,
              "ticks": 13654
            },
            {
              "number": 1,
              "value": 0.5354330708661418,
              "time": 37.456155333333335,
              "ticks": 13664
            },
            {
              "number": 1,
              "value": 0.5433070866141733,
              "time": 37.4753439375,
              "ticks": 13671
            },
            {
              "number": 1,
              "value": 0.5196850393700787,
              "time": 37.502756229166664,
              "ticks": 13681
            },
            {
              "number": 1,
              "value": 0.5275590551181102,
              "time": 37.546615895833334,
              "ticks": 13697
            },
            {
              "number": 1,
              "value": 0.5511811023622047,
              "time": 37.55209835416667,
              "ticks": 13699
            },
            {
              "number": 1,
              "value": 0.5669291338582677,
              "time": 37.582251875,
              "ticks": 13710
            },
            {
              "number": 1,
              "value": 0.5511811023622047,
              "time": 37.6069229375,
              "ticks": 13719
            },
            {
              "number": 1,
              "value": 0.4645669291338583,
              "time": 37.6233703125,
              "ticks": 13725
            },
            {
              "number": 1,
              "value": 0.11811023622047244,
              "time": 37.648041375,
              "ticks": 13734
            },
            {
              "number": 1,
              "value": 0,
              "time": 37.67545366666666,
              "ticks": 13744
            },
            {
              "number": 1,
              "value": 0.015748031496062992,
              "time": 38.13598016666666,
              "ticks": 13912
            },
            {
              "number": 1,
              "value": 0.09448818897637795,
              "time": 38.141462625,
              "ticks": 13914
            },
            {
              "number": 1,
              "value": 0.25196850393700787,
              "time": 38.16887491666667,
              "ticks": 13924
            },
            {
              "number": 1,
              "value": 0.3858267716535433,
              "time": 38.193545979166664,
              "ticks": 13933
            },
            {
              "number": 1,
              "value": 0.44881889763779526,
              "time": 38.21821704166666,
              "ticks": 13942
            },
            {
              "number": 1,
              "value": 0.48031496062992124,
              "time": 38.24288810416667,
              "ticks": 13951
            },
            {
              "number": 1,
              "value": 0.44881889763779526,
              "time": 38.31690129166667,
              "ticks": 13978
            },
            {
              "number": 1,
              "value": 0.3779527559055118,
              "time": 38.341572354166665,
              "ticks": 13987
            },
            {
              "number": 1,
              "value": 0.2992125984251969,
              "time": 38.3635021875,
              "ticks": 13995
            },
            {
              "number": 1,
              "value": 0.31496062992125984,
              "time": 38.393655708333334,
              "ticks": 14006
            },
            {
              "number": 1,
              "value": 0.3700787401574803,
              "time": 38.415585541666665,
              "ticks": 14014
            },
            {
              "number": 1,
              "value": 0.41732283464566927,
              "time": 38.437515375000004,
              "ticks": 14022
            },
            {
              "number": 1,
              "value": 0.4566929133858268,
              "time": 38.4621864375,
              "ticks": 14031
            },
            {
              "number": 1,
              "value": 0.3543307086614173,
              "time": 38.489598729166666,
              "ticks": 14041
            },
            {
              "number": 1,
              "value": 0.2755905511811024,
              "time": 38.51426979166666,
              "ticks": 14050
            },
            {
              "number": 1,
              "value": 0.30708661417322836,
              "time": 38.5444233125,
              "ticks": 14061
            },
            {
              "number": 1,
              "value": 0.3464566929133858,
              "time": 38.5608706875,
              "ticks": 14067
            },
            {
              "number": 1,
              "value": 0.3700787401574803,
              "time": 38.588282979166664,
              "ticks": 14077
            },
            {
              "number": 1,
              "value": 0.31496062992125984,
              "time": 38.6184365,
              "ticks": 14088
            },
            {
              "number": 1,
              "value": 0.28346456692913385,
              "time": 38.634883875,
              "ticks": 14094
            },
            {
              "number": 1,
              "value": 0.29133858267716534,
              "time": 38.66503739583334,
              "ticks": 14105
            },
            {
              "number": 1,
              "value": 0.25984251968503935,
              "time": 38.69519091666667,
              "ticks": 14116
            },
            {
              "number": 1,
              "value": 0.25984251968503935,
              "time": 38.71163829166667,
              "ticks": 14122
            },
            {
              "number": 1,
              "value": 0.30708661417322836,
              "time": 38.733568125,
              "ticks": 14130
            },
            {
              "number": 1,
              "value": 0.33858267716535434,
              "time": 38.7582391875,
              "ticks": 14139
            },
            {
              "number": 1,
              "value": 0.3543307086614173,
              "time": 38.78565147916667,
              "ticks": 14149
            },
            {
              "number": 1,
              "value": 0.3543307086614173,
              "time": 38.810322541666665,
              "ticks": 14158
            },
            {
              "number": 1,
              "value": 0.30708661417322836,
              "time": 38.83499360416666,
              "ticks": 14167
            },
            {
              "number": 1,
              "value": 0.14960629921259844,
              "time": 38.8569234375,
              "ticks": 14175
            },
            {
              "number": 1,
              "value": 0.06299212598425197,
              "time": 38.884335729166665,
              "ticks": 14185
            },
            {
              "number": 1,
              "value": 0.08661417322834646,
              "time": 38.919971708333335,
              "ticks": 14198
            },
            {
              "number": 1,
              "value": 0.14960629921259844,
              "time": 38.930936625,
              "ticks": 14202
            },
            {
              "number": 1,
              "value": 0.2440944881889764,
              "time": 38.9556076875,
              "ticks": 14211
            },
            {
              "number": 1,
              "value": 0.31496062992125984,
              "time": 38.98301997916666,
              "ticks": 14221
            },
            {
              "number": 1,
              "value": 0.3543307086614173,
              "time": 39.0049498125,
              "ticks": 14229
            },
            {
              "number": 1,
              "value": 0.36220472440944884,
              "time": 39.029620875,
              "ticks": 14238
            },
            {
              "number": 1,
              "value": 0.3858267716535433,
              "time": 39.05703316666666,
              "ticks": 14248
            },
            {
              "number": 1,
              "value": 0.4015748031496063,
              "time": 39.08170422916667,
              "ticks": 14257
            },
            {
              "number": 1,
              "value": 0.4330708661417323,
              "time": 39.106375291666666,
              "ticks": 14266
            },
            {
              "number": 1,
              "value": 0.44881889763779526,
              "time": 39.128305125,
              "ticks": 14274
            },
            {
              "number": 1,
              "value": 0.4409448818897638,
              "time": 39.161199875,
              "ticks": 14286
            },
            {
              "number": 1,
              "value": 0.4645669291338583,
              "time": 39.1858709375,
              "ticks": 14295
            },
            {
              "number": 1,
              "value": 0.4881889763779528,
              "time": 39.2023183125,
              "ticks": 14301
            },
            {
              "number": 1,
              "value": 0.49606299212598426,
              "time": 39.23795429166667,
              "ticks": 14314
            },
            {
              "number": 1,
              "value": 0.5039370078740157,
              "time": 39.254401666666666,
              "ticks": 14320
            },
            {
              "number": 1,
              "value": 0.5118110236220472,
              "time": 39.32019116666667,
              "ticks": 14344
            },
            {
              "number": 1,
              "value": 0.5275590551181102,
              "time": 39.33115608333333,
              "ticks": 14348
            },
            {
              "number": 1,
              "value": 0.5354330708661418,
              "time": 39.36405083333334,
              "ticks": 14360
            },
            {
              "number": 1,
              "value": 0.5196850393700787,
              "time": 39.391463125,
              "ticks": 14370
            },
            {
              "number": 1,
              "value": 0.49606299212598426,
              "time": 39.40516927083333,
              "ticks": 14375
            },
            {
              "number": 1,
              "value": 0.48031496062992124,
              "time": 39.43806402083334,
              "ticks": 14387
            },
            {
              "number": 1,
              "value": 0.2992125984251969,
              "time": 39.45177016666666,
              "ticks": 14392
            },
            {
              "number": 1,
              "value": 0,
              "time": 39.4737,
              "ticks": 14400
            },
            {
              "number": 1,
              "value": 0.11811023622047244,
              "time": 40.027428291666666,
              "ticks": 14602
            },
            {
              "number": 1,
              "value": 0.25196850393700787,
              "time": 40.04661689583334,
              "ticks": 14609
            },
            {
              "number": 1,
              "value": 0.2992125984251969,
              "time": 40.06854672916666,
              "ticks": 14617
            },
            {
              "number": 1,
              "value": 0.31496062992125984,
              "time": 40.109665166666666,
              "ticks": 14632
            },
            {
              "number": 1,
              "value": 0.33070866141732286,
              "time": 40.12063008333334,
              "ticks": 14636
            },
            {
              "number": 1,
              "value": 0.3464566929133858,
              "time": 40.153524833333336,
              "ticks": 14648
            },
            {
              "number": 1,
              "value": 0.3779527559055118,
              "time": 40.16448975,
              "ticks": 14652
            },
            {
              "number": 1,
              "value": 0.3700787401574803,
              "time": 40.208349416666664,
              "ticks": 14668
            },
            {
              "number": 1,
              "value": 0.3464566929133858,
              "time": 40.213831875000004,
              "ticks": 14670
            },
            {
              "number": 1,
              "value": 0.36220472440944884,
              "time": 40.252209083333334,
              "ticks": 14684
            },
            {
              "number": 1,
              "value": 0.3858267716535433,
              "time": 40.263174,
              "ticks": 14688
            },
            {
              "number": 1,
              "value": 0.3937007874015748,
              "time": 40.3042924375,
              "ticks": 14703
            },
            {
              "number": 1,
              "value": 0.3543307086614173,
              "time": 40.339928416666666,
              "ticks": 14716
            },
            {
              "number": 1,
              "value": 0.31496062992125984,
              "time": 40.36185825,
              "ticks": 14724
            },
            {
              "number": 1,
              "value": 0.28346456692913385,
              "time": 40.392011770833335,
              "ticks": 14735
            },
            {
              "number": 1,
              "value": 0.25984251968503935,
              "time": 40.411200375,
              "ticks": 14742
            },
            {
              "number": 1,
              "value": 0.23622047244094488,
              "time": 40.46328372916666,
              "ticks": 14761
            },
            {
              "number": 1,
              "value": 0.2440944881889764,
              "time": 40.5016609375,
              "ticks": 14775
            },
            {
              "number": 1,
              "value": 0.28346456692913385,
              "time": 40.51536708333334,
              "ticks": 14780
            },
            {
              "number": 1,
              "value": 0.30708661417322836,
              "time": 40.542779375,
              "ticks": 14790
            },
            {
              "number": 1,
              "value": 0.33070866141732286,
              "time": 40.56196797916667,
              "ticks": 14797
            },
            {
              "number": 1,
              "value": 0.3464566929133858,
              "time": 40.5838978125,
              "ticks": 14805
            },
            {
              "number": 1,
              "value": 0.3543307086614173,
              "time": 40.61131010416666,
              "ticks": 14815
            },
            {
              "number": 1,
              "value": 0.36220472440944884,
              "time": 40.63598116666667,
              "ticks": 14824
            },
            {
              "number": 1,
              "value": 0.3543307086614173,
              "time": 40.66339345833334,
              "ticks": 14834
            },
            {
              "number": 1,
              "value": 0.3228346456692913,
              "time": 40.68532329166666,
              "ticks": 14842
            },
            {
              "number": 1,
              "value": 0.3228346456692913,
              "time": 40.756595250000004,
              "ticks": 14868
            },
            {
              "number": 1,
              "value": 0.3543307086614173,
              "time": 40.786748770833334,
              "ticks": 14879
            },
            {
              "number": 1,
              "value": 0.3700787401574803,
              "time": 40.8141610625,
              "ticks": 14889
            },
            {
              "number": 1,
              "value": 0.3779527559055118,
              "time": 40.852538270833335,
              "ticks": 14903
            },
            {
              "number": 1,
              "value": 0.3858267716535433,
              "time": 40.871726875,
              "ticks": 14910
            },
            {
              "number": 1,
              "value": 0.4015748031496063,
              "time": 40.88817425,
              "ticks": 14916
            },
            {
              "number": 1,
              "value": 0.4094488188976378,
              "time": 40.904621625,
              "ticks": 14922
            },
            {
              "number": 1,
              "value": 0.41732283464566927,
              "time": 40.9292926875,
              "ticks": 14931
            },
            {
              "number": 1,
              "value": 0.4251968503937008,
              "time": 40.973152354166665,
              "ticks": 14947
            },
            {
              "number": 1,
              "value": 0.4094488188976378,
              "time": 41.02249447916667,
              "ticks": 14965
            },
            {
              "number": 1,
              "value": 0.09448818897637795,
              "time": 41.0279769375,
              "ticks": 14967
            },
            {
              "number": 1,
              "value": 0,
              "time": 41.055389229166664,
              "ticks": 14977
            },
            {
              "number": 1,
              "value": 0.03937007874015748,
              "time": 42.020301895833335,
              "ticks": 15329
            },
            {
              "number": 1,
              "value": 0.09448818897637795,
              "time": 42.042231729166666,
              "ticks": 15337
            },
            {
              "number": 1,
              "value": 0.14173228346456693,
              "time": 42.0641615625,
              "ticks": 15345
            },
            {
              "number": 1,
              "value": 0.1889763779527559,
              "time": 42.088832625,
              "ticks": 15354
            },
            {
              "number": 1,
              "value": 0.2283464566929134,
              "time": 42.11898614583334,
              "ticks": 15365
            },
            {
              "number": 1,
              "value": 0.2677165354330709,
              "time": 42.140915979166664,
              "ticks": 15373
            },
            {
              "number": 1,
              "value": 0.2992125984251969,
              "time": 42.1628458125,
              "ticks": 15381
            },
            {
              "number": 1,
              "value": 0.33070866141732286,
              "time": 42.187516875,
              "ticks": 15390
            },
            {
              "number": 1,
              "value": 0.33858267716535434,
              "time": 42.2286353125,
              "ticks": 15405
            },
            {
              "number": 1,
              "value": 0.3464566929133858,
              "time": 42.25604760416667,
              "ticks": 15415
            },
            {
              "number": 1,
              "value": 0.3228346456692913,
              "time": 42.26975375,
              "ticks": 15420
            },
            {
              "number": 1,
              "value": 0.23622047244094488,
              "time": 42.286201125,
              "ticks": 15426
            },
            {
              "number": 1,
              "value": 0.18110236220472442,
              "time": 42.31361341666666,
              "ticks": 15436
            },
            {
              "number": 1,
              "value": 0.13385826771653545,
              "time": 42.33828447916667,
              "ticks": 15445
            },
            {
              "number": 1,
              "value": 0.07086614173228346,
              "time": 42.362955541666665,
              "ticks": 15454
            },
            {
              "number": 1,
              "value": 0.031496062992125984,
              "time": 42.384885375,
              "ticks": 15462
            },
            {
              "number": 1,
              "value": 0.07086614173228346,
              "time": 42.415038895833334,
              "ticks": 15473
            },
            {
              "number": 1,
              "value": 0.08661417322834646,
              "time": 42.436968729166665,
              "ticks": 15481
            },
            {
              "number": 1,
              "value": 0.10236220472440945,
              "time": 42.4588985625,
              "ticks": 15489
            },
            {
              "number": 1,
              "value": 0.13385826771653545,
              "time": 42.489052083333334,
              "ticks": 15500
            },
            {
              "number": 1,
              "value": 0.13385826771653545,
              "time": 42.510981916666665,
              "ticks": 15508
            },
            {
              "number": 1,
              "value": 0.09448818897637795,
              "time": 42.532911750000004,
              "ticks": 15516
            },
            {
              "number": 1,
              "value": 0.11023622047244094,
              "time": 42.56854772916667,
              "ticks": 15529
            },
            {
              "number": 1,
              "value": 0.14960629921259844,
              "time": 42.582253875,
              "ticks": 15534
            },
            {
              "number": 1,
              "value": 0.18110236220472442,
              "time": 42.60966616666666,
              "ticks": 15544
            },
            {
              "number": 1,
              "value": 0.23622047244094488,
              "time": 42.63433722916666,
              "ticks": 15553
            },
            {
              "number": 1,
              "value": 0.2992125984251969,
              "time": 42.6562670625,
              "ticks": 15561
            },
            {
              "number": 1,
              "value": 0.3543307086614173,
              "time": 42.680938125,
              "ticks": 15570
            },
            {
              "number": 1,
              "value": 0.33070866141732286,
              "time": 42.719315333333334,
              "ticks": 15584
            },
            {
              "number": 1,
              "value": 0.10236220472440945,
              "time": 42.733021479166666,
              "ticks": 15589
            },
            {
              "number": 1,
              "value": 0,
              "time": 42.7549513125,
              "ticks": 15597
            },
            {
              "number": 1,
              "value": 0.12598425196850394,
              "time": 43.18532429166667,
              "ticks": 15754
            },
            {
              "number": 1,
              "value": 0.30708661417322836,
              "time": 43.201771666666666,
              "ticks": 15760
            },
            {
              "number": 1,
              "value": 0.4409448818897638,
              "time": 43.2237015,
              "ticks": 15768
            },
            {
              "number": 1,
              "value": 0.4881889763779528,
              "time": 43.25111379166666,
              "ticks": 15778
            },
            {
              "number": 1,
              "value": 0.49606299212598426,
              "time": 43.275784854166666,
              "ticks": 15787
            },
            {
              "number": 1,
              "value": 0.4645669291338583,
              "time": 43.300455916666664,
              "ticks": 15796
            },
            {
              "number": 1,
              "value": 0.3937007874015748,
              "time": 43.32238575,
              "ticks": 15804
            },
            {
              "number": 1,
              "value": 0.2283464566929134,
              "time": 43.3470568125,
              "ticks": 15813
            },
            {
              "number": 1,
              "value": 0.08661417322834646,
              "time": 43.374469104166664,
              "ticks": 15823
            },
            {
              "number": 1,
              "value": 0.023622047244094488,
              "time": 43.3963989375,
              "ticks": 15831
            },
            {
              "number": 1,
              "value": 0.007874015748031496,
              "time": 43.42107,
              "ticks": 15840
            },
            {
              "number": 1,
              "value": 0.023622047244094488,
              "time": 43.448482291666664,
              "ticks": 15850
            },
            {
              "number": 1,
              "value": 0.047244094488188976,
              "time": 43.47315335416666,
              "ticks": 15859
            },
            {
              "number": 1,
              "value": 0.06299212598425197,
              "time": 43.50056564583333,
              "ticks": 15869
            },
            {
              "number": 1,
              "value": 0.09448818897637795,
              "time": 43.51975425,
              "ticks": 15876
            },
            {
              "number": 1,
              "value": 0.12598425196850394,
              "time": 43.54716654166666,
              "ticks": 15886
            },
            {
              "number": 1,
              "value": 0.14960629921259844,
              "time": 43.569096375,
              "ticks": 15894
            },
            {
              "number": 1,
              "value": 0.16535433070866143,
              "time": 43.59924989583334,
              "ticks": 15905
            },
            {
              "number": 1,
              "value": 0.1732283464566929,
              "time": 43.662298166666666,
              "ticks": 15928
            },
            {
              "number": 1,
              "value": 0.2125984251968504,
              "time": 43.667780625,
              "ticks": 15930
            },
            {
              "number": 1,
              "value": 0.2677165354330709,
              "time": 43.69519291666666,
              "ticks": 15940
            },
            {
              "number": 1,
              "value": 0.2283464566929134,
              "time": 43.71712275,
              "ticks": 15948
            },
            {
              "number": 1,
              "value": 0.12598425196850394,
              "time": 43.744535041666666,
              "ticks": 15958
            },
            {
              "number": 1,
              "value": 0.14960629921259844,
              "time": 43.766464875000004,
              "ticks": 15966
            },
            {
              "number": 1,
              "value": 0.1889763779527559,
              "time": 43.796618395833335,
              "ticks": 15977
            },
            {
              "number": 1,
              "value": 0.2204724409448819,
              "time": 43.818548229166666,
              "ticks": 15985
            },
            {
              "number": 1,
              "value": 0.25196850393700787,
              "time": 43.843219291666664,
              "ticks": 15994
            },
            {
              "number": 1,
              "value": 0.28346456692913385,
              "time": 43.865149125,
              "ticks": 16002
            },
            {
              "number": 1,
              "value": 0.29133858267716534,
              "time": 43.8898201875,
              "ticks": 16011
            },
            {
              "number": 1,
              "value": 0.31496062992125984,
              "time": 43.91449125,
              "ticks": 16020
            },
            {
              "number": 1,
              "value": 0.3543307086614173,
              "time": 43.94190354166666,
              "ticks": 16030
            },
            {
              "number": 1,
              "value": 0.3937007874015748,
              "time": 43.963833375,
              "ticks": 16038
            },
            {
              "number": 1,
              "value": 0.4015748031496063,
              "time": 43.99398689583334,
              "ticks": 16049
            },
            {
              "number": 1,
              "value": 0.4094488188976378,
              "time": 44.03236410416667,
              "ticks": 16063
            },
            {
              "number": 1,
              "value": 0.28346456692913385,
              "time": 44.04607025,
              "ticks": 16068
            },
            {
              "number": 1,
              "value": 0,
              "time": 44.062517625,
              "ticks": 16074
            },
            {
              "number": 1,
              "value": 0.11023622047244094,
              "time": 45.0246890625,
              "ticks": 16425
            },
            {
              "number": 1,
              "value": 0.2440944881889764,
              "time": 45.049360125,
              "ticks": 16434
            },
            {
              "number": 1,
              "value": 0.2204724409448819,
              "time": 45.0904785625,
              "ticks": 16449
            },
            {
              "number": 1,
              "value": 0.11023622047244094,
              "time": 45.10144347916666,
              "ticks": 16453
            },
            {
              "number": 1,
              "value": 0,
              "time": 45.1233733125,
              "ticks": 16461
            },
            {
              "number": 1,
              "value": 0.05511811023622047,
              "time": 45.740149875,
              "ticks": 16686
            },
            {
              "number": 1,
              "value": 0.14173228346456693,
              "time": 45.77030339583334,
              "ticks": 16697
            },
            {
              "number": 1,
              "value": 0.2440944881889764,
              "time": 45.79223322916666,
              "ticks": 16705
            },
            {
              "number": 1,
              "value": 0.33858267716535434,
              "time": 45.8141630625,
              "ticks": 16713
            },
            {
              "number": 1,
              "value": 0.36220472440944884,
              "time": 45.84431658333334,
              "ticks": 16724
            },
            {
              "number": 1,
              "value": 0.3858267716535433,
              "time": 45.8635051875,
              "ticks": 16731
            },
            {
              "number": 1,
              "value": 0.3937007874015748,
              "time": 45.90188239583333,
              "ticks": 16745
            },
            {
              "number": 1,
              "value": 0.4251968503937008,
              "time": 45.9128473125,
              "ticks": 16749
            },
            {
              "number": 1,
              "value": 0.48031496062992124,
              "time": 45.937518375,
              "ticks": 16758
            },
            {
              "number": 1,
              "value": 0.5118110236220472,
              "time": 45.96493066666667,
              "ticks": 16768
            },
            {
              "number": 1,
              "value": 0.4015748031496063,
              "time": 45.9950841875,
              "ticks": 16779
            },
            {
              "number": 1,
              "value": 0.11811023622047244,
              "time": 46.011531562500004,
              "ticks": 16785
            },
            {
              "number": 1,
              "value": 0,
              "time": 46.03894385416667,
              "ticks": 16795
            },
            {
              "number": 1,
              "value": 0.16535433070866143,
              "time": 46.578966,
              "ticks": 16992
            },
            {
              "number": 1,
              "value": 0.33858267716535434,
              "time": 46.606378291666665,
              "ticks": 17002
            },
            {
              "number": 1,
              "value": 0.4330708661417323,
              "time": 46.628308125000004,
              "ticks": 17010
            },
            {
              "number": 1,
              "value": 0.44881889763779526,
              "time": 46.66394410416667,
              "ticks": 17023
            },
            {
              "number": 1,
              "value": 0.47244094488188976,
              "time": 46.680391479166666,
              "ticks": 17029
            },
            {
              "number": 1,
              "value": 0.4645669291338583,
              "time": 46.702321312500004,
              "ticks": 17037
            },
            {
              "number": 1,
              "value": 0.41732283464566927,
              "time": 46.726992375,
              "ticks": 17046
            },
            {
              "number": 1,
              "value": 0.3464566929133858,
              "time": 46.754404666666666,
              "ticks": 17056
            },
            {
              "number": 1,
              "value": 0.12598425196850394,
              "time": 46.7763345,
              "ticks": 17064
            },
            {
              "number": 1,
              "value": 0.023622047244094488,
              "time": 46.8010055625,
              "ticks": 17073
            },
            {
              "number": 1,
              "value": 0.06299212598425197,
              "time": 46.825676625,
              "ticks": 17082
            },
            {
              "number": 1,
              "value": 0.14173228346456693,
              "time": 46.8503476875,
              "ticks": 17091
            },
            {
              "number": 1,
              "value": 0.18110236220472442,
              "time": 46.880501208333335,
              "ticks": 17102
            },
            {
              "number": 1,
              "value": 0.1968503937007874,
              "time": 46.90243104166667,
              "ticks": 17110
            },
            {
              "number": 1,
              "value": 0.09448818897637795,
              "time": 46.924360875,
              "ticks": 17118
            },
            {
              "number": 1,
              "value": 0.015748031496062992,
              "time": 46.954514395833336,
              "ticks": 17129
            },
            {
              "number": 1,
              "value": 0,
              "time": 46.97644422916667,
              "ticks": 17137
            },
            {
              "number": 1,
              "value": 0.1889763779527559,
              "time": 47.121729375,
              "ticks": 17190
            },
            {
              "number": 1,
              "value": 0.3464566929133858,
              "time": 47.149141666666665,
              "ticks": 17200
            },
            {
              "number": 1,
              "value": 0.4409448818897638,
              "time": 47.171071500000004,
              "ticks": 17208
            },
            {
              "number": 1,
              "value": 0.49606299212598426,
              "time": 47.1957425625,
              "ticks": 17217
            },
            {
              "number": 1,
              "value": 0.5275590551181102,
              "time": 47.223154854166665,
              "ticks": 17227
            },
            {
              "number": 1,
              "value": 0.5433070866141733,
              "time": 47.24782591666666,
              "ticks": 17236
            },
            {
              "number": 1,
              "value": 0.47244094488188976,
              "time": 47.26975575,
              "ticks": 17244
            },
            {
              "number": 1,
              "value": 0.4094488188976378,
              "time": 47.2944268125,
              "ticks": 17253
            },
            {
              "number": 1,
              "value": 0.47244094488188976,
              "time": 47.32183910416666,
              "ticks": 17263
            },
            {
              "number": 1,
              "value": 0.5039370078740157,
              "time": 47.34651016666666,
              "ticks": 17272
            },
            {
              "number": 1,
              "value": 0.5275590551181102,
              "time": 47.36844,
              "ticks": 17280
            },
            {
              "number": 1,
              "value": 0.5433070866141733,
              "time": 47.39859352083334,
              "ticks": 17291
            },
            {
              "number": 1,
              "value": 0.5669291338582677,
              "time": 47.42052335416666,
              "ticks": 17299
            },
            {
              "number": 1,
              "value": 0.5905511811023622,
              "time": 47.4424531875,
              "ticks": 17307
            },
            {
              "number": 1,
              "value": 0.6299212598425197,
              "time": 47.46712425,
              "ticks": 17316
            },
            {
              "number": 1,
              "value": 0.6299212598425197,
              "time": 47.4917953125,
              "ticks": 17325
            },
            {
              "number": 1,
              "value": 0.5748031496062992,
              "time": 47.51920760416667,
              "ticks": 17335
            },
            {
              "number": 1,
              "value": 0.4094488188976378,
              "time": 47.543878666666664,
              "ticks": 17344
            },
            {
              "number": 1,
              "value": 0.07874015748031496,
              "time": 47.5658085,
              "ticks": 17352
            },
            {
              "number": 1,
              "value": 0,
              "time": 47.59322079166667,
              "ticks": 17362
            },
            {
              "number": 1,
              "value": 0.08661417322834646,
              "time": 48.83499760416667,
              "ticks": 17815
            },
            {
              "number": 1,
              "value": 0.2125984251968504,
              "time": 48.851444979166665,
              "ticks": 17821
            },
            {
              "number": 1,
              "value": 0.28346456692913385,
              "time": 48.8733748125,
              "ticks": 17829
            },
            {
              "number": 1,
              "value": 0.33858267716535434,
              "time": 48.90078710416667,
              "ticks": 17839
            },
            {
              "number": 1,
              "value": 0.3700787401574803,
              "time": 48.9227169375,
              "ticks": 17847
            },
            {
              "number": 1,
              "value": 0.4015748031496063,
              "time": 48.95012922916666,
              "ticks": 17857
            },
            {
              "number": 1,
              "value": 0.4251968503937008,
              "time": 48.97480029166667,
              "ticks": 17866
            },
            {
              "number": 1,
              "value": 0.4566929133858268,
              "time": 48.996730125,
              "ticks": 17874
            },
            {
              "number": 1,
              "value": 0.4645669291338583,
              "time": 49.03236610416666,
              "ticks": 17887
            },
            {
              "number": 1,
              "value": 0.44881889763779526,
              "time": 49.062519625,
              "ticks": 17898
            },
            {
              "number": 1,
              "value": 0.3937007874015748,
              "time": 49.073484541666666,
              "ticks": 17902
            },
            {
              "number": 1,
              "value": 0.3779527559055118,
              "time": 49.095414375,
              "ticks": 17910
            },
            {
              "number": 1,
              "value": 0.3543307086614173,
              "time": 49.147497729166666,
              "ticks": 17929
            },
            {
              "number": 1,
              "value": 0.3937007874015748,
              "time": 49.177651250000004,
              "ticks": 17940
            },
            {
              "number": 1,
              "value": 0.4566929133858268,
              "time": 49.194098625,
              "ticks": 17946
            },
            {
              "number": 1,
              "value": 0.49606299212598426,
              "time": 49.221510916666666,
              "ticks": 17956
            },
            {
              "number": 1,
              "value": 0.5433070866141733,
              "time": 49.246181979166664,
              "ticks": 17965
            },
            {
              "number": 1,
              "value": 0.5826771653543307,
              "time": 49.2681118125,
              "ticks": 17973
            },
            {
              "number": 1,
              "value": 0.6062992125984252,
              "time": 49.292782875,
              "ticks": 17982
            },
            {
              "number": 1,
              "value": 0.5590551181102362,
              "time": 49.3667960625,
              "ticks": 18009
            },
            {
              "number": 1,
              "value": 0.4881889763779528,
              "time": 49.394208354166665,
              "ticks": 18019
            },
            {
              "number": 1,
              "value": 0.3700787401574803,
              "time": 49.41887941666666,
              "ticks": 18028
            },
            {
              "number": 1,
              "value": 0.29133858267716534,
              "time": 49.44355047916667,
              "ticks": 18037
            },
            {
              "number": 1,
              "value": 0.2992125984251969,
              "time": 49.47096277083334,
              "ticks": 18047
            },
            {
              "number": 1,
              "value": 0.33070866141732286,
              "time": 49.50111629166666,
              "ticks": 18058
            },
            {
              "number": 1,
              "value": 0.3937007874015748,
              "time": 49.51756366666667,
              "ticks": 18064
            },
            {
              "number": 1,
              "value": 0.41732283464566927,
              "time": 49.5394935,
              "ticks": 18072
            },
            {
              "number": 1,
              "value": 0.4566929133858268,
              "time": 49.564164562500004,
              "ticks": 18081
            },
            {
              "number": 1,
              "value": 0.3779527559055118,
              "time": 49.5970593125,
              "ticks": 18093
            },
            {
              "number": 1,
              "value": 0.14960629921259844,
              "time": 49.616247916666666,
              "ticks": 18100
            },
            {
              "number": 1,
              "value": 0,
              "time": 49.64091897916666,
              "ticks": 18109
            },
            {
              "number": 1,
              "value": 0.13385826771653545,
              "time": 50.921073,
              "ticks": 18576
            },
            {
              "number": 1,
              "value": 0.33858267716535434,
              "time": 50.95122652083334,
              "ticks": 18587
            },
            {
              "number": 1,
              "value": 0.4645669291338583,
              "time": 50.97315635416666,
              "ticks": 18595
            },
            {
              "number": 1,
              "value": 0.5196850393700787,
              "time": 50.9950861875,
              "ticks": 18603
            },
            {
              "number": 1,
              "value": 0.5275590551181102,
              "time": 51.03894585416666,
              "ticks": 18619
            },
            {
              "number": 1,
              "value": 0.5669291338582677,
              "time": 51.049910770833336,
              "ticks": 18623
            },
            {
              "number": 1,
              "value": 0.5826771653543307,
              "time": 51.0773230625,
              "ticks": 18633
            },
            {
              "number": 1,
              "value": 0.4645669291338583,
              "time": 51.096511666666665,
              "ticks": 18640
            },
            {
              "number": 1,
              "value": 0.2677165354330709,
              "time": 51.1184415,
              "ticks": 18648
            },
            {
              "number": 1,
              "value": 0.15748031496062992,
              "time": 51.14585379166667,
              "ticks": 18658
            },
            {
              "number": 1,
              "value": 0.07086614173228346,
              "time": 51.17326608333334,
              "ticks": 18668
            },
            {
              "number": 1,
              "value": 0,
              "time": 51.19519591666666,
              "ticks": 18676
            },
            {
              "number": 1,
              "value": 0.015748031496062992,
              "time": 51.713288229166665,
              "ticks": 18865
            },
            {
              "number": 1,
              "value": 0.023622047244094488,
              "time": 51.7516654375,
              "ticks": 18879
            },
            {
              "number": 1,
              "value": 0.047244094488188976,
              "time": 51.81197247916666,
              "ticks": 18901
            },
            {
              "number": 1,
              "value": 0.09448818897637795,
              "time": 51.8339023125,
              "ticks": 18909
            },
            {
              "number": 1,
              "value": 0.16535433070866143,
              "time": 51.858573375,
              "ticks": 18918
            },
            {
              "number": 1,
              "value": 0.2755905511811024,
              "time": 51.883244437500004,
              "ticks": 18927
            },
            {
              "number": 1,
              "value": 0.3464566929133858,
              "time": 51.91065672916667,
              "ticks": 18937
            },
            {
              "number": 1,
              "value": 0.4094488188976378,
              "time": 51.9325865625,
              "ticks": 18945
            },
            {
              "number": 1,
              "value": 0.47244094488188976,
              "time": 51.96274008333334,
              "ticks": 18956
            },
            {
              "number": 1,
              "value": 0.5354330708661418,
              "time": 51.98466991666667,
              "ticks": 18964
            },
            {
              "number": 1,
              "value": 0.5590551181102362,
              "time": 52.009340979166666,
              "ticks": 18973
            },
            {
              "number": 1,
              "value": 0.31496062992125984,
              "time": 52.0312708125,
              "ticks": 18981
            },
            {
              "number": 1,
              "value": 0.23622047244094488,
              "time": 52.061424333333335,
              "ticks": 18992
            },
            {
              "number": 1,
              "value": 0.2125984251968504,
              "time": 52.105284,
              "ticks": 19008
            },
            {
              "number": 1,
              "value": 0.18110236220472442,
              "time": 52.14091997916667,
              "ticks": 19021
            },
            {
              "number": 1,
              "value": 0.07874015748031496,
              "time": 52.154626125,
              "ticks": 19026
            },
            {
              "number": 1,
              "value": 0.015748031496062992,
              "time": 52.182038416666664,
              "ticks": 19036
            },
            {
              "number": 1,
              "value": 0,
              "time": 52.20670947916666,
              "ticks": 19045
            },
            {
              "number": 1,
              "value": 0.031496062992125984,
              "time": 52.264275291666664,
              "ticks": 19066
            },
            {
              "number": 1,
              "value": 0.06299212598425197,
              "time": 52.28072266666666,
              "ticks": 19072
            },
            {
              "number": 1,
              "value": 0.10236220472440945,
              "time": 52.30539372916667,
              "ticks": 19081
            },
            {
              "number": 1,
              "value": 0.18110236220472442,
              "time": 52.3273235625,
              "ticks": 19089
            },
            {
              "number": 1,
              "value": 0.25196850393700787,
              "time": 52.35473585416666,
              "ticks": 19099
            },
            {
              "number": 1,
              "value": 0.29133858267716534,
              "time": 52.37940691666667,
              "ticks": 19108
            },
            {
              "number": 1,
              "value": 0.2125984251968504,
              "time": 52.404077979166665,
              "ticks": 19117
            },
            {
              "number": 1,
              "value": 0.1732283464566929,
              "time": 52.4260078125,
              "ticks": 19125
            },
            {
              "number": 1,
              "value": 0.13385826771653545,
              "time": 52.45342010416667,
              "ticks": 19135
            },
            {
              "number": 1,
              "value": 0.12598425196850394,
              "time": 52.486314854166665,
              "ticks": 19147
            },
            {
              "number": 1,
              "value": 0.14960629921259844,
              "time": 52.5082446875,
              "ticks": 19155
            },
            {
              "number": 1,
              "value": 0.11023622047244094,
              "time": 52.53565697916667,
              "ticks": 19165
            },
            {
              "number": 1,
              "value": 0.07874015748031496,
              "time": 52.55484558333334,
              "ticks": 19172
            },
            {
              "number": 1,
              "value": 0.11811023622047244,
              "time": 52.57951664583334,
              "ticks": 19181
            },
            {
              "number": 1,
              "value": 0.16535433070866143,
              "time": 52.60144647916667,
              "ticks": 19189
            },
            {
              "number": 1,
              "value": 0.25984251968503935,
              "time": 52.6233763125,
              "ticks": 19197
            },
            {
              "number": 1,
              "value": 0.4566929133858268,
              "time": 52.648047375,
              "ticks": 19206
            },
            {
              "number": 1,
              "value": 0.5354330708661418,
              "time": 52.67545966666666,
              "ticks": 19216
            },
            {
              "number": 1,
              "value": 0.5669291338582677,
              "time": 52.6973895,
              "ticks": 19224
            },
            {
              "number": 1,
              "value": 0.5826771653543307,
              "time": 52.7220605625,
              "ticks": 19233
            },
            {
              "number": 1,
              "value": 0.6062992125984252,
              "time": 52.75769654166667,
              "ticks": 19246
            },
            {
              "number": 1,
              "value": 0.6141732283464567,
              "time": 52.78510883333334,
              "ticks": 19256
            },
            {
              "number": 1,
              "value": 0.6220472440944882,
              "time": 52.798814979166664,
              "ticks": 19261
            },
            {
              "number": 1,
              "value": 0.6141732283464567,
              "time": 52.826227270833336,
              "ticks": 19271
            },
            {
              "number": 1,
              "value": 0.6299212598425197,
              "time": 52.8536395625,
              "ticks": 19281
            },
            {
              "number": 1,
              "value": 0.6614173228346457,
              "time": 52.8700869375,
              "ticks": 19287
            },
            {
              "number": 1,
              "value": 0.6771653543307087,
              "time": 52.894758,
              "ticks": 19296
            },
            {
              "number": 1,
              "value": 0.6456692913385826,
              "time": 52.92217029166667,
              "ticks": 19306
            },
            {
              "number": 1,
              "value": 0.5669291338582677,
              "time": 52.946841354166665,
              "ticks": 19315
            },
            {
              "number": 1,
              "value": 0.5433070866141733,
              "time": 52.9687711875,
              "ticks": 19323
            },
            {
              "number": 1,
              "value": 0.5748031496062992,
              "time": 52.99344225,
              "ticks": 19332
            },
            {
              "number": 1,
              "value": 0.5354330708661418,
              "time": 53.029078229166664,
              "ticks": 19345
            },
            {
              "number": 1,
              "value": 0.49606299212598426,
              "time": 53.04552560416666,
              "ticks": 19351
            },
            {
              "number": 1,
              "value": 0.4015748031496063,
              "time": 53.0674554375,
              "ticks": 19359
            },
            {
              "number": 1,
              "value": 0.3779527559055118,
              "time": 53.0921265,
              "ticks": 19368
            },
            {
              "number": 1,
              "value": 0.33858267716535434,
              "time": 53.12502125,
              "ticks": 19380
            },
            {
              "number": 1,
              "value": 0.25196850393700787,
              "time": 53.14420985416667,
              "ticks": 19387
            },
            {
              "number": 1,
              "value": 0.10236220472440945,
              "time": 53.1661396875,
              "ticks": 19395
            },
            {
              "number": 1,
              "value": 0,
              "time": 53.19081075,
              "ticks": 19404
            },
            {
              "number": 1,
              "value": 0.047244094488188976,
              "time": 53.733574125000004,
              "ticks": 19602
            },
            {
              "number": 1,
              "value": 0.10236220472440945,
              "time": 53.7582451875,
              "ticks": 19611
            },
            {
              "number": 1,
              "value": 0.13385826771653545,
              "time": 53.785657479166666,
              "ticks": 19621
            },
            {
              "number": 1,
              "value": 0.15748031496062992,
              "time": 53.81306977083334,
              "ticks": 19631
            },
            {
              "number": 1,
              "value": 0.18110236220472442,
              "time": 53.83499960416666,
              "ticks": 19639
            },
            {
              "number": 1,
              "value": 0.2204724409448819,
              "time": 53.86241189583334,
              "ticks": 19649
            },
            {
              "number": 1,
              "value": 0.23622047244094488,
              "time": 53.884341729166664,
              "ticks": 19657
            },
            {
              "number": 1,
              "value": 0.2440944881889764,
              "time": 53.90901279166666,
              "ticks": 19666
            },
            {
              "number": 1,
              "value": 0.29133858267716534,
              "time": 53.93642508333333,
              "ticks": 19676
            },
            {
              "number": 1,
              "value": 0.3543307086614173,
              "time": 53.96109614583334,
              "ticks": 19685
            },
            {
              "number": 1,
              "value": 0.4015748031496063,
              "time": 53.98028475,
              "ticks": 19692
            },
            {
              "number": 1,
              "value": 0.4409448818897638,
              "time": 54.0049558125,
              "ticks": 19701
            },
            {
              "number": 1,
              "value": 0.47244094488188976,
              "time": 54.029626875,
              "ticks": 19710
            },
            {
              "number": 1,
              "value": 0.5039370078740157,
              "time": 54.0542979375,
              "ticks": 19719
            },
            {
              "number": 1,
              "value": 0.5275590551181102,
              "time": 54.0871926875,
              "ticks": 19731
            },
            {
              "number": 1,
              "value": 0.5669291338582677,
              "time": 54.106381291666665,
              "ticks": 19738
            },
            {
              "number": 1,
              "value": 0.5984251968503937,
              "time": 54.133793583333336,
              "ticks": 19748
            },
            {
              "number": 1,
              "value": 0.6141732283464567,
              "time": 54.15572341666667,
              "ticks": 19756
            },
            {
              "number": 1,
              "value": 0.6299212598425197,
              "time": 54.180394479166665,
              "ticks": 19765
            },
            {
              "number": 1,
              "value": 0.6220472440944882,
              "time": 54.24892520833334,
              "ticks": 19790
            },
            {
              "number": 1,
              "value": 0.6377952755905512,
              "time": 54.30923225,
              "ticks": 19812
            },
            {
              "number": 1,
              "value": 0.6614173228346457,
              "time": 54.325679625,
              "ticks": 19818
            },
            {
              "number": 1,
              "value": 0.5984251968503937,
              "time": 54.37502175,
              "ticks": 19836
            },
            {
              "number": 1,
              "value": 0.6141732283464567,
              "time": 54.4161401875,
              "ticks": 19851
            },
            {
              "number": 1,
              "value": 0.6220472440944882,
              "time": 54.427105104166664,
              "ticks": 19855
            },
            {
              "number": 1,
              "value": 0.5748031496062992,
              "time": 54.45177616666666,
              "ticks": 19864
            },
            {
              "number": 1,
              "value": 0.4881889763779528,
              "time": 54.473706,
              "ticks": 19872
            },
            {
              "number": 1,
              "value": 0.2440944881889764,
              "time": 54.4983770625,
              "ticks": 19881
            },
            {
              "number": 1,
              "value": 0.023622047244094488,
              "time": 54.52578935416666,
              "ticks": 19891
            },
            {
              "number": 1,
              "value": 0,
              "time": 54.5477191875,
              "ticks": 19899
            },
            {
              "number": 1,
              "value": 0.047244094488188976,
              "time": 55.27688614583334,
              "ticks": 20165
            },
            {
              "number": 1,
              "value": 0.2047244094488189,
              "time": 55.2878510625,
              "ticks": 20169
            },
            {
              "number": 1,
              "value": 0.31496062992125984,
              "time": 55.318004583333334,
              "ticks": 20180
            },
            {
              "number": 1,
              "value": 0.4015748031496063,
              "time": 55.339934416666665,
              "ticks": 20188
            },
            {
              "number": 1,
              "value": 0.44881889763779526,
              "time": 55.36460547916666,
              "ticks": 20197
            },
            {
              "number": 1,
              "value": 0.48031496062992124,
              "time": 55.392017770833334,
              "ticks": 20207
            },
            {
              "number": 1,
              "value": 0.5118110236220472,
              "time": 55.4194300625,
              "ticks": 20217
            },
            {
              "number": 1,
              "value": 0.5354330708661418,
              "time": 55.43861866666666,
              "ticks": 20224
            },
            {
              "number": 1,
              "value": 0.5433070866141733,
              "time": 55.48247833333334,
              "ticks": 20240
            },
            {
              "number": 1,
              "value": 0.5590551181102362,
              "time": 55.487960791666666,
              "ticks": 20242
            },
            {
              "number": 1,
              "value": 0.5748031496062992,
              "time": 55.542785375,
              "ticks": 20262
            },
            {
              "number": 1,
              "value": 0.6141732283464567,
              "time": 55.55923275,
              "ticks": 20268
            },
            {
              "number": 1,
              "value": 0.6062992125984252,
              "time": 55.622281020833334,
              "ticks": 20291
            },
            {
              "number": 1,
              "value": 0.5984251968503937,
              "time": 55.641469625,
              "ticks": 20298
            },
            {
              "number": 1,
              "value": 0.5511811023622047,
              "time": 55.657917,
              "ticks": 20304
            },
            {
              "number": 1,
              "value": 0.4566929133858268,
              "time": 55.68532929166666,
              "ticks": 20314
            },
            {
              "number": 1,
              "value": 0.1889763779527559,
              "time": 55.71000035416667,
              "ticks": 20323
            },
            {
              "number": 1,
              "value": 0,
              "time": 55.7319301875,
              "ticks": 20331
            },
            {
              "number": 1,
              "value": 0.007874015748031496,
              "time": 57.234123770833335,
              "ticks": 20879
            },
            {
              "number": 1,
              "value": 0.03937007874015748,
              "time": 57.242347458333334,
              "ticks": 20882
            },
            {
              "number": 1,
              "value": 0.07874015748031496,
              "time": 57.264277291666666,
              "ticks": 20890
            },
            {
              "number": 1,
              "value": 0.14960629921259844,
              "time": 57.28894835416666,
              "ticks": 20899
            },
            {
              "number": 1,
              "value": 0.2204724409448819,
              "time": 57.3108781875,
              "ticks": 20907
            },
            {
              "number": 1,
              "value": 0.25984251968503935,
              "time": 57.34103170833334,
              "ticks": 20918
            },
            {
              "number": 1,
              "value": 0.28346456692913385,
              "time": 57.362961541666664,
              "ticks": 20926
            },
            {
              "number": 1,
              "value": 0.31496062992125984,
              "time": 57.38763260416666,
              "ticks": 20935
            },
            {
              "number": 1,
              "value": 0.3464566929133858,
              "time": 57.4095624375,
              "ticks": 20943
            },
            {
              "number": 1,
              "value": 0.3700787401574803,
              "time": 57.4342335,
              "ticks": 20952
            },
            {
              "number": 1,
              "value": 0.3858267716535433,
              "time": 57.502764229166665,
              "ticks": 20977
            },
            {
              "number": 1,
              "value": 0.3937007874015748,
              "time": 57.51372914583334,
              "ticks": 20981
            },
            {
              "number": 1,
              "value": 0.3700787401574803,
              "time": 57.53565897916666,
              "ticks": 20989
            },
            {
              "number": 1,
              "value": 0.3937007874015748,
              "time": 57.568553729166666,
              "ticks": 21001
            },
            {
              "number": 1,
              "value": 0.4015748031496063,
              "time": 57.582259875,
              "ticks": 21006
            },
            {
              "number": 1,
              "value": 0.4566929133858268,
              "time": 57.63434322916667,
              "ticks": 21025
            },
            {
              "number": 1,
              "value": 0.49606299212598426,
              "time": 57.659014291666665,
              "ticks": 21034
            },
            {
              "number": 1,
              "value": 0.5590551181102362,
              "time": 57.680944125,
              "ticks": 21042
            },
            {
              "number": 1,
              "value": 0.5826771653543307,
              "time": 57.70835641666667,
              "ticks": 21052
            },
            {
              "number": 1,
              "value": 0.5669291338582677,
              "time": 57.77414591666666,
              "ticks": 21076
            },
            {
              "number": 1,
              "value": 0.49606299212598426,
              "time": 57.779628375,
              "ticks": 21078
            },
            {
              "number": 1,
              "value": 0.4566929133858268,
              "time": 57.807040666666666,
              "ticks": 21088
            },
            {
              "number": 1,
              "value": 0.47244094488188976,
              "time": 57.842676645833336,
              "ticks": 21101
            },
            {
              "number": 1,
              "value": 0.5275590551181102,
              "time": 57.8536415625,
              "ticks": 21105
            },
            {
              "number": 1,
              "value": 0.5433070866141733,
              "time": 57.88379508333334,
              "ticks": 21116
            },
            {
              "number": 1,
              "value": 0.5511811023622047,
              "time": 57.905724916666664,
              "ticks": 21124
            },
            {
              "number": 1,
              "value": 0.5590551181102362,
              "time": 57.9358784375,
              "ticks": 21135
            },
            {
              "number": 1,
              "value": 0.5748031496062992,
              "time": 57.9523258125,
              "ticks": 21141
            },
            {
              "number": 1,
              "value": 0.5826771653543307,
              "time": 57.998926708333336,
              "ticks": 21158
            },
            {
              "number": 1,
              "value": 0.5275590551181102,
              "time": 58.01263285416667,
              "ticks": 21163
            },
            {
              "number": 1,
              "value": 0.3779527559055118,
              "time": 58.02908022916667,
              "ticks": 21169
            },
            {
              "number": 1,
              "value": 0.2755905511811024,
              "time": 58.053751291666664,
              "ticks": 21178
            },
            {
              "number": 1,
              "value": 0.08661417322834646,
              "time": 58.075681125,
              "ticks": 21186
            },
            {
              "number": 1,
              "value": 0.015748031496062992,
              "time": 58.10309341666667,
              "ticks": 21196
            },
            {
              "number": 1,
              "value": 0,
              "time": 58.13050570833334,
              "ticks": 21206
            },
            {
              "number": 1,
              "value": 0.031496062992125984,
              "time": 58.53072516666666,
              "ticks": 21352
            },
            {
              "number": 1,
              "value": 0.11811023622047244,
              "time": 58.54717254166666,
              "ticks": 21358
            },
            {
              "number": 1,
              "value": 0.2125984251968504,
              "time": 58.571843604166666,
              "ticks": 21367
            },
            {
              "number": 1,
              "value": 0.29133858267716534,
              "time": 58.5937734375,
              "ticks": 21375
            },
            {
              "number": 1,
              "value": 0.3228346456692913,
              "time": 58.62118572916666,
              "ticks": 21385
            },
            {
              "number": 1,
              "value": 0.33070866141732286,
              "time": 58.64585679166667,
              "ticks": 21394
            },
            {
              "number": 1,
              "value": 0.3464566929133858,
              "time": 58.67326908333334,
              "ticks": 21404
            },
            {
              "number": 1,
              "value": 0.2677165354330709,
              "time": 58.697940145833336,
              "ticks": 21413
            },
            {
              "number": 1,
              "value": 0.09448818897637795,
              "time": 58.71712875,
              "ticks": 21420
            },
            {
              "number": 1,
              "value": 0,
              "time": 58.744541041666665,
              "ticks": 21430
            },
            {
              "number": 1,
              "value": 0.09448818897637795,
              "time": 59.196843854166666,
              "ticks": 21595
            },
            {
              "number": 1,
              "value": 0.29133858267716534,
              "time": 59.213291229166664,
              "ticks": 21601
            },
            {
              "number": 1,
              "value": 0.4645669291338583,
              "time": 59.23796229166666,
              "ticks": 21610
            },
            {
              "number": 1,
              "value": 0.5354330708661418,
              "time": 59.259892125,
              "ticks": 21618
            },
            {
              "number": 1,
              "value": 0.5748031496062992,
              "time": 59.287304416666665,
              "ticks": 21628
            },
            {
              "number": 1,
              "value": 0.6062992125984252,
              "time": 59.30923425,
              "ticks": 21636
            },
            {
              "number": 1,
              "value": 0.6141732283464567,
              "time": 59.3339053125,
              "ticks": 21645
            },
            {
              "number": 1,
              "value": 0.5433070866141733,
              "time": 59.369541291666664,
              "ticks": 21658
            },
            {
              "number": 1,
              "value": 0.2992125984251969,
              "time": 59.38598866666666,
              "ticks": 21664
            },
            {
              "number": 1,
              "value": 0.031496062992125984,
              "time": 59.41065972916667,
              "ticks": 21673
            },
            {
              "number": 1,
              "value": 0,
              "time": 59.435330791666665,
              "ticks": 21682
            },
            {
              "number": 1,
              "value": 0.14960629921259844,
              "time": 59.709453708333335,
              "ticks": 21782
            },
            {
              "number": 1,
              "value": 0.3779527559055118,
              "time": 59.731383541666666,
              "ticks": 21790
            },
            {
              "number": 1,
              "value": 0.5275590551181102,
              "time": 59.756054604166664,
              "ticks": 21799
            },
            {
              "number": 1,
              "value": 0.5905511811023622,
              "time": 59.7779844375,
              "ticks": 21807
            },
            {
              "number": 1,
              "value": 0.6299212598425197,
              "time": 59.80539672916667,
              "ticks": 21817
            },
            {
              "number": 1,
              "value": 0.6614173228346457,
              "time": 59.8273265625,
              "ticks": 21825
            },
            {
              "number": 1,
              "value": 0.6535433070866141,
              "time": 59.87118622916667,
              "ticks": 21841
            },
            {
              "number": 1,
              "value": 0.6141732283464567,
              "time": 59.88215114583333,
              "ticks": 21845
            },
            {
              "number": 1,
              "value": 0.5669291338582677,
              "time": 59.904080979166665,
              "ticks": 21853
            },
            {
              "number": 1,
              "value": 0.5039370078740157,
              "time": 59.92875204166666,
              "ticks": 21862
            },
            {
              "number": 1,
              "value": 0.4645669291338583,
              "time": 59.950681875,
              "ticks": 21870
            },
            {
              "number": 1,
              "value": 0.3858267716535433,
              "time": 59.978094166666665,
              "ticks": 21880
            },
            {
              "number": 1,
              "value": 0.12598425196850394,
              "time": 60.000024,
              "ticks": 21888
            },
            {
              "number": 1,
              "value": 0.07086614173228346,
              "time": 60.02743629166667,
              "ticks": 21898
            },
            {
              "number": 1,
              "value": 0,
              "time": 60.049366125,
              "ticks": 21906
            },
            {
              "number": 1,
              "value": 0.023622047244094488,
              "time": 60.416690833333334,
              "ticks": 22040
            },
            {
              "number": 1,
              "value": 0.2204724409448819,
              "time": 60.42217329166667,
              "ticks": 22042
            },
            {
              "number": 1,
              "value": 0.25984251968503935,
              "time": 60.444103125,
              "ticks": 22050
            },
            {
              "number": 1,
              "value": 0.047244094488188976,
              "time": 60.47151541666666,
              "ticks": 22060
            },
            {
              "number": 1,
              "value": 0,
              "time": 60.49618647916667,
              "ticks": 22069
            },
            {
              "number": 1,
              "value": 0.031496062992125984,
              "time": 60.641471625,
              "ticks": 22122
            },
            {
              "number": 1,
              "value": 0.023622047244094488,
              "time": 60.67984883333334,
              "ticks": 22136
            },
            {
              "number": 1,
              "value": 0.031496062992125984,
              "time": 60.71000235416666,
              "ticks": 22147
            },
            {
              "number": 1,
              "value": 0.09448818897637795,
              "time": 60.740155875,
              "ticks": 22158
            },
            {
              "number": 1,
              "value": 0.18110236220472442,
              "time": 60.76756816666666,
              "ticks": 22168
            },
            {
              "number": 1,
              "value": 0.2440944881889764,
              "time": 60.79223922916667,
              "ticks": 22177
            },
            {
              "number": 1,
              "value": 0.2677165354330709,
              "time": 60.8141690625,
              "ticks": 22185
            },
            {
              "number": 1,
              "value": 0.25196850393700787,
              "time": 60.841581354166664,
              "ticks": 22195
            },
            {
              "number": 1,
              "value": 0.28346456692913385,
              "time": 60.86625241666666,
              "ticks": 22204
            },
            {
              "number": 1,
              "value": 0.2992125984251969,
              "time": 60.890923479166666,
              "ticks": 22213
            },
            {
              "number": 1,
              "value": 0.25984251968503935,
              "time": 60.91833577083334,
              "ticks": 22223
            },
            {
              "number": 1,
              "value": 0.28346456692913385,
              "time": 60.9457480625,
              "ticks": 22233
            },
            {
              "number": 1,
              "value": 0.2992125984251969,
              "time": 60.9621954375,
              "ticks": 22239
            },
            {
              "number": 1,
              "value": 0.30708661417322836,
              "time": 60.99783141666666,
              "ticks": 22252
            },
            {
              "number": 1,
              "value": 0.2992125984251969,
              "time": 61.017020020833336,
              "ticks": 22259
            },
            {
              "number": 1,
              "value": 0.4015748031496063,
              "time": 61.03894985416667,
              "ticks": 22267
            },
            {
              "number": 1,
              "value": 0.5354330708661418,
              "time": 61.063620916666665,
              "ticks": 22276
            },
            {
              "number": 1,
              "value": 0.6062992125984252,
              "time": 61.08829197916666,
              "ticks": 22285
            },
            {
              "number": 1,
              "value": 0.6456692913385826,
              "time": 61.1102218125,
              "ticks": 22293
            },
            {
              "number": 1,
              "value": 0.6614173228346457,
              "time": 61.145857791666664,
              "ticks": 22306
            },
            {
              "number": 1,
              "value": 0.6692913385826772,
              "time": 61.173270083333335,
              "ticks": 22316
            },
            {
              "number": 1,
              "value": 0.7007874015748031,
              "time": 61.184235,
              "ticks": 22320
            },
            {
              "number": 1,
              "value": 0.7086614173228346,
              "time": 61.211647291666665,
              "ticks": 22330
            },
            {
              "number": 1,
              "value": 0.6614173228346457,
              "time": 61.2418008125,
              "ticks": 22341
            },
            {
              "number": 1,
              "value": 0.6141732283464567,
              "time": 61.2582481875,
              "ticks": 22347
            },
            {
              "number": 1,
              "value": 0.5511811023622047,
              "time": 61.307590312500004,
              "ticks": 22365
            },
            {
              "number": 1,
              "value": 0.5354330708661418,
              "time": 61.33500260416667,
              "ticks": 22375
            },
            {
              "number": 1,
              "value": 0.5275590551181102,
              "time": 61.3733798125,
              "ticks": 22389
            },
            {
              "number": 1,
              "value": 0.5511811023622047,
              "time": 61.39256841666666,
              "ticks": 22396
            },
            {
              "number": 1,
              "value": 0.47244094488188976,
              "time": 61.41723947916667,
              "ticks": 22405
            },
            {
              "number": 1,
              "value": 0.4251968503937008,
              "time": 61.433686854166666,
              "ticks": 22411
            },
            {
              "number": 1,
              "value": 0.4409448818897638,
              "time": 61.46109914583334,
              "ticks": 22421
            },
            {
              "number": 1,
              "value": 0.5118110236220472,
              "time": 61.507700041666666,
              "ticks": 22438
            },
            {
              "number": 1,
              "value": 0.5590551181102362,
              "time": 61.532371104166664,
              "ticks": 22447
            },
            {
              "number": 1,
              "value": 0.3858267716535433,
              "time": 61.559783395833335,
              "ticks": 22457
            },
            {
              "number": 1,
              "value": 0.023622047244094488,
              "time": 61.58445445833333,
              "ticks": 22466
            },
            {
              "number": 1,
              "value": 0,
              "time": 61.606384291666664,
              "ticks": 22474
            },
            {
              "number": 1,
              "value": 0.031496062992125984,
              "time": 62.105288,
              "ticks": 22656
            },
            {
              "number": 1,
              "value": 0.08661417322834646,
              "time": 62.121735375,
              "ticks": 22662
            },
            {
              "number": 1,
              "value": 0.13385826771653545,
              "time": 62.149147666666664,
              "ticks": 22672
            },
            {
              "number": 1,
              "value": 0.1732283464566929,
              "time": 62.17381872916666,
              "ticks": 22681
            },
            {
              "number": 1,
              "value": 0.18110236220472442,
              "time": 62.1957485625,
              "ticks": 22689
            },
            {
              "number": 1,
              "value": 0.1732283464566929,
              "time": 62.220419625,
              "ticks": 22698
            },
            {
              "number": 1,
              "value": 0.18110236220472442,
              "time": 62.24783191666666,
              "ticks": 22708
            },
            {
              "number": 1,
              "value": 0.2204724409448819,
              "time": 62.2779854375,
              "ticks": 22719
            },
            {
              "number": 1,
              "value": 0.28346456692913385,
              "time": 62.2944328125,
              "ticks": 22725
            },
            {
              "number": 1,
              "value": 0.31496062992125984,
              "time": 62.319103875,
              "ticks": 22734
            },
            {
              "number": 1,
              "value": 0.33070866141732286,
              "time": 62.34651616666667,
              "ticks": 22744
            },
            {
              "number": 1,
              "value": 0.3543307086614173,
              "time": 62.371187229166665,
              "ticks": 22753
            },
            {
              "number": 1,
              "value": 0.4015748031496063,
              "time": 62.393117062500004,
              "ticks": 22761
            },
            {
              "number": 1,
              "value": 0.4330708661417323,
              "time": 62.42052935416667,
              "ticks": 22771
            },
            {
              "number": 1,
              "value": 0.44881889763779526,
              "time": 62.445200416666665,
              "ticks": 22780
            },
            {
              "number": 1,
              "value": 0.4645669291338583,
              "time": 62.47261270833334,
              "ticks": 22790
            },
            {
              "number": 1,
              "value": 0.4881889763779528,
              "time": 62.497283770833334,
              "ticks": 22799
            },
            {
              "number": 1,
              "value": 0.49606299212598426,
              "time": 62.54388466666666,
              "ticks": 22816
            },
            {
              "number": 1,
              "value": 0.5039370078740157,
              "time": 62.579520645833334,
              "ticks": 22829
            },
            {
              "number": 1,
              "value": 0.5118110236220472,
              "time": 62.59596802083334,
              "ticks": 22835
            },
            {
              "number": 1,
              "value": 0.5196850393700787,
              "time": 62.623380312500004,
              "ticks": 22845
            },
            {
              "number": 1,
              "value": 0.5433070866141733,
              "time": 62.64256891666666,
              "ticks": 22852
            },
            {
              "number": 1,
              "value": 0.5511811023622047,
              "time": 62.6727224375,
              "ticks": 22863
            },
            {
              "number": 1,
              "value": 0.5433070866141733,
              "time": 62.7056171875,
              "ticks": 22875
            },
            {
              "number": 1,
              "value": 0.5354330708661418,
              "time": 62.7220645625,
              "ticks": 22881
            },
            {
              "number": 1,
              "value": 0.5590551181102362,
              "time": 62.74125316666667,
              "ticks": 22888
            },
            {
              "number": 1,
              "value": 0.5748031496062992,
              "time": 62.76866545833334,
              "ticks": 22898
            },
            {
              "number": 1,
              "value": 0.5905511811023622,
              "time": 62.79881897916667,
              "ticks": 22909
            },
            {
              "number": 1,
              "value": 0.5826771653543307,
              "time": 62.867349708333336,
              "ticks": 22934
            },
            {
              "number": 1,
              "value": 0.49606299212598426,
              "time": 62.88927954166667,
              "ticks": 22942
            },
            {
              "number": 1,
              "value": 0.33858267716535434,
              "time": 62.913950604166665,
              "ticks": 22951
            },
            {
              "number": 1,
              "value": 0.07086614173228346,
              "time": 62.93862166666666,
              "ticks": 22960
            },
            {
              "number": 1,
              "value": 0,
              "time": 62.9605515,
              "ticks": 22968
            },
            {
              "number": 1,
              "value": 0.03937007874015748,
              "time": 63.71987197916666,
              "ticks": 23245
            },
            {
              "number": 1,
              "value": 0.1968503937007874,
              "time": 63.730836895833335,
              "ticks": 23249
            },
            {
              "number": 1,
              "value": 0.31496062992125984,
              "time": 63.752766729166666,
              "ticks": 23257
            },
            {
              "number": 1,
              "value": 0.3700787401574803,
              "time": 63.7746965625,
              "ticks": 23265
            },
            {
              "number": 1,
              "value": 0.4094488188976378,
              "time": 63.804850083333335,
              "ticks": 23276
            },
            {
              "number": 1,
              "value": 0.4330708661417323,
              "time": 63.826779916666666,
              "ticks": 23284
            },
            {
              "number": 1,
              "value": 0.4566929133858268,
              "time": 63.851450979166664,
              "ticks": 23293
            },
            {
              "number": 1,
              "value": 0.4645669291338583,
              "time": 63.878863270833335,
              "ticks": 23303
            },
            {
              "number": 1,
              "value": 0.4409448818897638,
              "time": 63.90353433333334,
              "ticks": 23312
            },
            {
              "number": 1,
              "value": 0.4251968503937008,
              "time": 63.925464166666664,
              "ticks": 23320
            },
            {
              "number": 1,
              "value": 0.44881889763779526,
              "time": 63.947394,
              "ticks": 23328
            },
            {
              "number": 1,
              "value": 0.4645669291338583,
              "time": 63.97754752083333,
              "ticks": 23339
            },
            {
              "number": 1,
              "value": 0.47244094488188976,
              "time": 64.0049598125,
              "ticks": 23349
            },
            {
              "number": 1,
              "value": 0.48031496062992124,
              "time": 64.0214071875,
              "ticks": 23355
            },
            {
              "number": 1,
              "value": 0.4881889763779528,
              "time": 64.05704316666666,
              "ticks": 23368
            },
            {
              "number": 1,
              "value": 0.49606299212598426,
              "time": 64.07623177083333,
              "ticks": 23375
            },
            {
              "number": 1,
              "value": 0.5039370078740157,
              "time": 64.10912652083334,
              "ticks": 23387
            },
            {
              "number": 1,
              "value": 0.5118110236220472,
              "time": 64.128315125,
              "ticks": 23394
            },
            {
              "number": 1,
              "value": 0.5039370078740157,
              "time": 64.17217479166666,
              "ticks": 23410
            },
            {
              "number": 1,
              "value": 0.11811023622047244,
              "time": 64.194104625,
              "ticks": 23418
            },
            {
              "number": 1,
              "value": 0,
              "time": 64.2187756875,
              "ticks": 23427
            },
            {
              "number": 1,
              "value": 0.09448818897637795,
              "time": 73.95836291666667,
              "ticks": 26980
            },
            {
              "number": 1,
              "value": 0.14960629921259844,
              "time": 73.98303397916668,
              "ticks": 26989
            },
            {
              "number": 1,
              "value": 0.18110236220472442,
              "time": 74.0049638125,
              "ticks": 26997
            },
            {
              "number": 1,
              "value": 0.16535433070866143,
              "time": 74.0378585625,
              "ticks": 27009
            },
            {
              "number": 1,
              "value": 0.1889763779527559,
              "time": 74.062529625,
              "ticks": 27018
            },
            {
              "number": 1,
              "value": 0.2125984251968504,
              "time": 74.1036480625,
              "ticks": 27033
            },
            {
              "number": 1,
              "value": 0.2440944881889764,
              "time": 74.13106035416668,
              "ticks": 27043
            },
            {
              "number": 1,
              "value": 0.25984251968503935,
              "time": 74.15847264583333,
              "ticks": 27053
            },
            {
              "number": 1,
              "value": 0.2677165354330709,
              "time": 74.19136739583332,
              "ticks": 27065
            },
            {
              "number": 1,
              "value": 0.3228346456692913,
              "time": 74.21329722916667,
              "ticks": 27073
            },
            {
              "number": 1,
              "value": 0.18110236220472442,
              "time": 74.259898125,
              "ticks": 27090
            },
            {
              "number": 1,
              "value": 0.2204724409448819,
              "time": 74.30649902083333,
              "ticks": 27107
            },
            {
              "number": 1,
              "value": 0.2677165354330709,
              "time": 74.32842885416667,
              "ticks": 27115
            },
            {
              "number": 1,
              "value": 0.30708661417322836,
              "time": 74.35309991666668,
              "ticks": 27124
            },
            {
              "number": 1,
              "value": 0.3543307086614173,
              "time": 74.37777097916667,
              "ticks": 27133
            },
            {
              "number": 1,
              "value": 0.3937007874015748,
              "time": 74.3997008125,
              "ticks": 27141
            },
            {
              "number": 1,
              "value": 0.3779527559055118,
              "time": 74.42985433333332,
              "ticks": 27152
            },
            {
              "number": 1,
              "value": 0.3858267716535433,
              "time": 74.45178416666667,
              "ticks": 27160
            },
            {
              "number": 1,
              "value": 0.4094488188976378,
              "time": 74.47645522916667,
              "ticks": 27169
            },
            {
              "number": 1,
              "value": 0.33858267716535434,
              "time": 74.50934997916667,
              "ticks": 27181
            },
            {
              "number": 1,
              "value": 0.31496062992125984,
              "time": 74.55046841666667,
              "ticks": 27196
            },
            {
              "number": 1,
              "value": 0.36220472440944884,
              "time": 74.59158685416668,
              "ticks": 27211
            },
            {
              "number": 1,
              "value": 0.3779527559055118,
              "time": 74.63818775,
              "ticks": 27228
            },
            {
              "number": 1,
              "value": 0.3937007874015748,
              "time": 74.66560004166668,
              "ticks": 27238
            },
            {
              "number": 1,
              "value": 0.4015748031496063,
              "time": 74.70671847916667,
              "ticks": 27253
            },
            {
              "number": 1,
              "value": 0.4330708661417323,
              "time": 74.74235445833332,
              "ticks": 27266
            },
            {
              "number": 1,
              "value": 0.4094488188976378,
              "time": 74.78347289583333,
              "ticks": 27281
            },
            {
              "number": 1,
              "value": 0.4251968503937008,
              "time": 74.8108851875,
              "ticks": 27291
            },
            {
              "number": 1,
              "value": 0.41732283464566927,
              "time": 74.84652116666668,
              "ticks": 27304
            },
            {
              "number": 1,
              "value": 0.44881889763779526,
              "time": 74.86845100000001,
              "ticks": 27312
            },
            {
              "number": 1,
              "value": 0.3228346456692913,
              "time": 74.90134575,
              "ticks": 27324
            },
            {
              "number": 1,
              "value": 0.2755905511811024,
              "time": 74.94520541666667,
              "ticks": 27340
            },
            {
              "number": 1,
              "value": 0.33858267716535434,
              "time": 74.983582625,
              "ticks": 27354
            },
            {
              "number": 1,
              "value": 0.3779527559055118,
              "time": 75.01921860416667,
              "ticks": 27367
            },
            {
              "number": 1,
              "value": 0.4015748031496063,
              "time": 75.04388966666667,
              "ticks": 27376
            },
            {
              "number": 1,
              "value": 0.41732283464566927,
              "time": 75.07130195833334,
              "ticks": 27386
            },
            {
              "number": 1,
              "value": 0.4330708661417323,
              "time": 75.11790285416667,
              "ticks": 27403
            },
            {
              "number": 1,
              "value": 0.4566929133858268,
              "time": 75.26592922916667,
              "ticks": 27457
            },
            {
              "number": 1,
              "value": 0.48031496062992124,
              "time": 75.29060029166668,
              "ticks": 27466
            },
            {
              "number": 1,
              "value": 0.5039370078740157,
              "time": 75.31527135416667,
              "ticks": 27475
            },
            {
              "number": 1,
              "value": 0.49606299212598426,
              "time": 75.35913102083333,
              "ticks": 27491
            },
            {
              "number": 1,
              "value": 0.5354330708661418,
              "time": 75.37283716666667,
              "ticks": 27496
            },
            {
              "number": 1,
              "value": 0.5511811023622047,
              "time": 75.44685035416667,
              "ticks": 27523
            },
            {
              "number": 1,
              "value": 0.5275590551181102,
              "time": 75.47152141666668,
              "ticks": 27532
            },
            {
              "number": 1,
              "value": 0.49606299212598426,
              "time": 75.51538108333332,
              "ticks": 27548
            },
            {
              "number": 1,
              "value": 0.4409448818897638,
              "time": 75.5345696875,
              "ticks": 27555
            },
            {
              "number": 1,
              "value": 0.4330708661417323,
              "time": 75.56198197916667,
              "ticks": 27565
            },
            {
              "number": 1,
              "value": 0.33070866141732286,
              "time": 75.5921355,
              "ticks": 27576
            },
            {
              "number": 1,
              "value": 0.15748031496062992,
              "time": 75.6332539375,
              "ticks": 27591
            },
            {
              "number": 1,
              "value": 0.023622047244094488,
              "time": 75.66066622916668,
              "ticks": 27601
            },
            {
              "number": 1,
              "value": 0,
              "time": 75.6825960625,
              "ticks": 27609
            },
            {
              "number": 1,
              "value": 0.07874015748031496,
              "time": 76.496741125,
              "ticks": 27906
            },
            {
              "number": 1,
              "value": 0.13385826771653545,
              "time": 76.52689464583332,
              "ticks": 27917
            },
            {
              "number": 1,
              "value": 0.16535433070866143,
              "time": 76.54882447916667,
              "ticks": 27925
            },
            {
              "number": 1,
              "value": 0.2125984251968504,
              "time": 76.57349554166667,
              "ticks": 27934
            },
            {
              "number": 1,
              "value": 0.25984251968503935,
              "time": 76.595425375,
              "ticks": 27942
            },
            {
              "number": 1,
              "value": 0.30708661417322836,
              "time": 76.6200964375,
              "ticks": 27951
            },
            {
              "number": 1,
              "value": 0.31496062992125984,
              "time": 76.64750872916667,
              "ticks": 27961
            },
            {
              "number": 1,
              "value": 0.2755905511811024,
              "time": 76.70507454166668,
              "ticks": 27982
            },
            {
              "number": 1,
              "value": 0.2677165354330709,
              "time": 76.74345175,
              "ticks": 27996
            },
            {
              "number": 1,
              "value": 0.25984251968503935,
              "time": 76.77360527083333,
              "ticks": 28007
            },
            {
              "number": 1,
              "value": 0.2992125984251969,
              "time": 76.80101756250001,
              "ticks": 28017
            },
            {
              "number": 1,
              "value": 0.3228346456692913,
              "time": 76.84761845833333,
              "ticks": 28034
            },
            {
              "number": 1,
              "value": 0.3464566929133858,
              "time": 76.88599566666667,
              "ticks": 28048
            },
            {
              "number": 1,
              "value": 0.3858267716535433,
              "time": 76.96823254166667,
              "ticks": 28078
            },
            {
              "number": 1,
              "value": 0.4015748031496063,
              "time": 76.990162375,
              "ticks": 28086
            },
            {
              "number": 1,
              "value": 0.4094488188976378,
              "time": 77.0148334375,
              "ticks": 28095
            },
            {
              "number": 1,
              "value": 0.4015748031496063,
              "time": 77.04224572916667,
              "ticks": 28105
            },
            {
              "number": 1,
              "value": 0.4251968503937008,
              "time": 77.06691679166667,
              "ticks": 28114
            },
            {
              "number": 1,
              "value": 0.4409448818897638,
              "time": 77.088846625,
              "ticks": 28122
            },
            {
              "number": 1,
              "value": 0.4330708661417323,
              "time": 77.14092997916667,
              "ticks": 28141
            },
            {
              "number": 1,
              "value": 0.4409448818897638,
              "time": 77.18753087500001,
              "ticks": 28158
            },
            {
              "number": 1,
              "value": 0.4645669291338583,
              "time": 77.236873,
              "ticks": 28176
            },
            {
              "number": 1,
              "value": 0.48031496062992124,
              "time": 77.26154406250001,
              "ticks": 28185
            },
            {
              "number": 1,
              "value": 0.3937007874015748,
              "time": 77.31362741666668,
              "ticks": 28204
            },
            {
              "number": 1,
              "value": 0.10236220472440945,
              "time": 77.33555725000001,
              "ticks": 28212
            },
            {
              "number": 1,
              "value": 0,
              "time": 77.3602283125,
              "ticks": 28221
            },
            {
              "number": 1,
              "value": 0.07874015748031496,
              "time": 78.37448310416667,
              "ticks": 28591
            },
            {
              "number": 1,
              "value": 0.15748031496062992,
              "time": 78.3964129375,
              "ticks": 28599
            },
            {
              "number": 1,
              "value": 0.25984251968503935,
              "time": 78.42108400000001,
              "ticks": 28608
            },
            {
              "number": 1,
              "value": 0.3464566929133858,
              "time": 78.4457550625,
              "ticks": 28617
            },
            {
              "number": 1,
              "value": 0.3779527559055118,
              "time": 78.47316735416668,
              "ticks": 28627
            },
            {
              "number": 1,
              "value": 0.36220472440944884,
              "time": 78.503320875,
              "ticks": 28638
            },
            {
              "number": 1,
              "value": 0.3700787401574803,
              "time": 78.54718054166668,
              "ticks": 28654
            },
            {
              "number": 1,
              "value": 0.33858267716535434,
              "time": 78.57185160416667,
              "ticks": 28663
            },
            {
              "number": 1,
              "value": 0.28346456692913385,
              "time": 78.59652266666667,
              "ticks": 28672
            },
            {
              "number": 1,
              "value": 0.3228346456692913,
              "time": 78.64038233333333,
              "ticks": 28688
            },
            {
              "number": 1,
              "value": 0.3464566929133858,
              "time": 78.667794625,
              "ticks": 28698
            },
            {
              "number": 1,
              "value": 0.3700787401574803,
              "time": 78.69520691666668,
              "ticks": 28708
            },
            {
              "number": 1,
              "value": 0.3858267716535433,
              "time": 78.72261920833333,
              "ticks": 28718
            },
            {
              "number": 1,
              "value": 0.33858267716535434,
              "time": 78.74454904166667,
              "ticks": 28726
            },
            {
              "number": 1,
              "value": 0.3228346456692913,
              "time": 78.766478875,
              "ticks": 28734
            },
            {
              "number": 1,
              "value": 0.29133858267716534,
              "time": 78.80485608333333,
              "ticks": 28748
            },
            {
              "number": 1,
              "value": 0.2440944881889764,
              "time": 78.84323329166668,
              "ticks": 28762
            },
            {
              "number": 1,
              "value": 0.2204724409448819,
              "time": 78.86790435416667,
              "ticks": 28771
            },
            {
              "number": 1,
              "value": 0.28346456692913385,
              "time": 78.90079910416667,
              "ticks": 28783
            },
            {
              "number": 1,
              "value": 0.31496062992125984,
              "time": 78.94191754166667,
              "ticks": 28798
            },
            {
              "number": 1,
              "value": 0.3464566929133858,
              "time": 78.96658860416667,
              "ticks": 28807
            },
            {
              "number": 1,
              "value": 0.3779527559055118,
              "time": 78.99400089583332,
              "ticks": 28817
            },
            {
              "number": 1,
              "value": 0.3937007874015748,
              "time": 79.01593072916667,
              "ticks": 28825
            },
            {
              "number": 1,
              "value": 0.4094488188976378,
              "time": 79.04060179166667,
              "ticks": 28834
            },
            {
              "number": 1,
              "value": 0.4094488188976378,
              "time": 79.06527285416668,
              "ticks": 28843
            },
            {
              "number": 1,
              "value": 0.4251968503937008,
              "time": 79.11461497916667,
              "ticks": 28861
            },
            {
              "number": 1,
              "value": 0.4330708661417323,
              "time": 79.1694395625,
              "ticks": 28881
            },
            {
              "number": 1,
              "value": 0.44881889763779526,
              "time": 79.22426414583333,
              "ticks": 28901
            },
            {
              "number": 1,
              "value": 0.44881889763779526,
              "time": 79.26538258333333,
              "ticks": 28916
            },
            {
              "number": 1,
              "value": 0.4566929133858268,
              "time": 79.3010185625,
              "ticks": 28929
            },
            {
              "number": 1,
              "value": 0.44881889763779526,
              "time": 79.3174659375,
              "ticks": 28935
            },
            {
              "number": 1,
              "value": 0.47244094488188976,
              "time": 79.358584375,
              "ticks": 28950
            },
            {
              "number": 1,
              "value": 0.4881889763779528,
              "time": 79.38873789583333,
              "ticks": 28961
            },
            {
              "number": 1,
              "value": 0.4409448818897638,
              "time": 79.4161501875,
              "ticks": 28971
            },
            {
              "number": 1,
              "value": 0.47244094488188976,
              "time": 79.473716,
              "ticks": 28992
            },
            {
              "number": 1,
              "value": 0.5039370078740157,
              "time": 79.50935197916667,
              "ticks": 29005
            },
            {
              "number": 1,
              "value": 0.5196850393700787,
              "time": 79.53402304166667,
              "ticks": 29014
            },
            {
              "number": 1,
              "value": 0.5354330708661418,
              "time": 79.56143533333334,
              "ticks": 29024
            },
            {
              "number": 1,
              "value": 0.5433070866141733,
              "time": 79.58062393750001,
              "ticks": 29031
            },
            {
              "number": 1,
              "value": 0.5196850393700787,
              "time": 79.60803622916667,
              "ticks": 29041
            },
            {
              "number": 1,
              "value": 0.5511811023622047,
              "time": 79.65189589583333,
              "ticks": 29057
            },
            {
              "number": 1,
              "value": 0.5669291338582677,
              "time": 79.687531875,
              "ticks": 29070
            },
            {
              "number": 1,
              "value": 0.4645669291338583,
              "time": 79.7122029375,
              "ticks": 29079
            },
            {
              "number": 1,
              "value": 0.11811023622047244,
              "time": 79.753321375,
              "ticks": 29094
            },
            {
              "number": 1,
              "value": 0,
              "time": 79.78073366666668,
              "ticks": 29104
            },
            {
              "number": 1,
              "value": 0.25196850393700787,
              "time": 82.13270829166667,
              "ticks": 29962
            },
            {
              "number": 1,
              "value": 0.2992125984251969,
              "time": 82.17382672916668,
              "ticks": 29977
            },
            {
              "number": 1,
              "value": 0.33070866141732286,
              "time": 82.21494516666667,
              "ticks": 29992
            },
            {
              "number": 1,
              "value": 0.3779527559055118,
              "time": 82.25880483333333,
              "ticks": 30008
            },
            {
              "number": 1,
              "value": 0.3464566929133858,
              "time": 82.31362941666667,
              "ticks": 30028
            },
            {
              "number": 1,
              "value": 0.3858267716535433,
              "time": 82.35748908333333,
              "ticks": 30044
            },
            {
              "number": 1,
              "value": 0.3937007874015748,
              "time": 82.4095724375,
              "ticks": 30063
            },
            {
              "number": 1,
              "value": 0.3543307086614173,
              "time": 82.44520841666667,
              "ticks": 30076
            },
            {
              "number": 1,
              "value": 0.31496062992125984,
              "time": 82.46713825,
              "ticks": 30084
            },
            {
              "number": 1,
              "value": 0.28346456692913385,
              "time": 82.49729177083333,
              "ticks": 30095
            },
            {
              "number": 1,
              "value": 0.25984251968503935,
              "time": 82.516480375,
              "ticks": 30102
            },
            {
              "number": 1,
              "value": 0.23622047244094488,
              "time": 82.56856372916667,
              "ticks": 30121
            },
            {
              "number": 1,
              "value": 0.28346456692913385,
              "time": 82.6069409375,
              "ticks": 30135
            },
            {
              "number": 1,
              "value": 0.33070866141732286,
              "time": 82.648059375,
              "ticks": 30150
            },
            {
              "number": 1,
              "value": 0.3464566929133858,
              "time": 82.6891778125,
              "ticks": 30165
            },
            {
              "number": 1,
              "value": 0.3543307086614173,
              "time": 82.71659010416667,
              "ticks": 30175
            },
            {
              "number": 1,
              "value": 0.36220472440944884,
              "time": 82.74126116666667,
              "ticks": 30184
            },
            {
              "number": 1,
              "value": 0.3543307086614173,
              "time": 82.76867345833332,
              "ticks": 30194
            },
            {
              "number": 1,
              "value": 0.3228346456692913,
              "time": 82.79060329166667,
              "ticks": 30202
            },
            {
              "number": 1,
              "value": 0.3228346456692913,
              "time": 82.86187525,
              "ticks": 30228
            },
            {
              "number": 1,
              "value": 0.3543307086614173,
              "time": 82.89202877083333,
              "ticks": 30239
            },
            {
              "number": 1,
              "value": 0.3700787401574803,
              "time": 82.9194410625,
              "ticks": 30249
            },
            {
              "number": 1,
              "value": 0.3779527559055118,
              "time": 82.95781827083333,
              "ticks": 30263
            },
            {
              "number": 1,
              "value": 0.3858267716535433,
              "time": 82.977006875,
              "ticks": 30270
            },
            {
              "number": 1,
              "value": 0.4094488188976378,
              "time": 82.99345425,
              "ticks": 30276
            },
            {
              "number": 1,
              "value": 0.41732283464566927,
              "time": 83.0345726875,
              "ticks": 30291
            },
            {
              "number": 1,
              "value": 0.4251968503937008,
              "time": 83.07843235416668,
              "ticks": 30307
            },
            {
              "number": 1,
              "value": 0.09448818897637795,
              "time": 83.12777447916667,
              "ticks": 30325
            },
            {
              "number": 1,
              "value": 0,
              "time": 83.16066922916667,
              "ticks": 30337
            },
            {
              "number": 1,
              "value": 0.03937007874015748,
              "time": 84.12558189583334,
              "ticks": 30689
            },
            {
              "number": 1,
              "value": 0.09448818897637795,
              "time": 84.14751172916667,
              "ticks": 30697
            },
            {
              "number": 1,
              "value": 0.14173228346456693,
              "time": 84.1694415625,
              "ticks": 30705
            },
            {
              "number": 1,
              "value": 0.1889763779527559,
              "time": 84.194112625,
              "ticks": 30714
            },
            {
              "number": 1,
              "value": 0.2283464566929134,
              "time": 84.22426614583333,
              "ticks": 30725
            },
            {
              "number": 1,
              "value": 0.2677165354330709,
              "time": 84.24619597916667,
              "ticks": 30733
            },
            {
              "number": 1,
              "value": 0.2992125984251969,
              "time": 84.2681258125,
              "ticks": 30741
            },
            {
              "number": 1,
              "value": 0.33070866141732286,
              "time": 84.29279687500001,
              "ticks": 30750
            },
            {
              "number": 1,
              "value": 0.33858267716535434,
              "time": 84.3339153125,
              "ticks": 30765
            },
            {
              "number": 1,
              "value": 0.3464566929133858,
              "time": 84.36132760416668,
              "ticks": 30775
            },
            {
              "number": 1,
              "value": 0.23622047244094488,
              "time": 84.37503375,
              "ticks": 30780
            },
            {
              "number": 1,
              "value": 0.18110236220472442,
              "time": 84.41889341666668,
              "ticks": 30796
            },
            {
              "number": 1,
              "value": 0.13385826771653545,
              "time": 84.44356447916667,
              "ticks": 30805
            },
            {
              "number": 1,
              "value": 0.07086614173228346,
              "time": 84.46823554166667,
              "ticks": 30814
            },
            {
              "number": 1,
              "value": 0.031496062992125984,
              "time": 84.490165375,
              "ticks": 30822
            },
            {
              "number": 1,
              "value": 0.07086614173228346,
              "time": 84.52031889583333,
              "ticks": 30833
            },
            {
              "number": 1,
              "value": 0.08661417322834646,
              "time": 84.54224872916667,
              "ticks": 30841
            },
            {
              "number": 1,
              "value": 0.10236220472440945,
              "time": 84.5641785625,
              "ticks": 30849
            },
            {
              "number": 1,
              "value": 0.13385826771653545,
              "time": 84.59433208333333,
              "ticks": 30860
            },
            {
              "number": 1,
              "value": 0.13385826771653545,
              "time": 84.61626191666667,
              "ticks": 30868
            },
            {
              "number": 1,
              "value": 0.09448818897637795,
              "time": 84.63819175,
              "ticks": 30876
            },
            {
              "number": 1,
              "value": 0.14960629921259844,
              "time": 84.67382772916667,
              "ticks": 30889
            },
            {
              "number": 1,
              "value": 0.18110236220472442,
              "time": 84.71494616666668,
              "ticks": 30904
            },
            {
              "number": 1,
              "value": 0.23622047244094488,
              "time": 84.73961722916667,
              "ticks": 30913
            },
            {
              "number": 1,
              "value": 0.2992125984251969,
              "time": 84.7615470625,
              "ticks": 30921
            },
            {
              "number": 1,
              "value": 0.3543307086614173,
              "time": 84.786218125,
              "ticks": 30930
            },
            {
              "number": 1,
              "value": 0.10236220472440945,
              "time": 84.82459533333333,
              "ticks": 30944
            },
            {
              "number": 1,
              "value": 0,
              "time": 84.8602313125,
              "ticks": 30957
            },
            {
              "number": 1,
              "value": 0.30708661417322836,
              "time": 85.29060429166667,
              "ticks": 31114
            },
            {
              "number": 1,
              "value": 0.4409448818897638,
              "time": 85.3289815,
              "ticks": 31128
            },
            {
              "number": 1,
              "value": 0.4881889763779528,
              "time": 85.35639379166668,
              "ticks": 31138
            },
            {
              "number": 1,
              "value": 0.49606299212598426,
              "time": 85.38106485416667,
              "ticks": 31147
            },
            {
              "number": 1,
              "value": 0.4645669291338583,
              "time": 85.40573591666667,
              "ticks": 31156
            },
            {
              "number": 1,
              "value": 0.3937007874015748,
              "time": 85.42766575,
              "ticks": 31164
            },
            {
              "number": 1,
              "value": 0.2283464566929134,
              "time": 85.45233681250001,
              "ticks": 31173
            },
            {
              "number": 1,
              "value": 0.08661417322834646,
              "time": 85.47974910416667,
              "ticks": 31183
            },
            {
              "number": 1,
              "value": 0.023622047244094488,
              "time": 85.5016789375,
              "ticks": 31191
            },
            {
              "number": 1,
              "value": 0.007874015748031496,
              "time": 85.52635000000001,
              "ticks": 31200
            },
            {
              "number": 1,
              "value": 0.023622047244094488,
              "time": 85.55376229166667,
              "ticks": 31210
            },
            {
              "number": 1,
              "value": 0.047244094488188976,
              "time": 85.57843335416668,
              "ticks": 31219
            },
            {
              "number": 1,
              "value": 0.06299212598425197,
              "time": 85.60584564583333,
              "ticks": 31229
            },
            {
              "number": 1,
              "value": 0.09448818897637795,
              "time": 85.62503425,
              "ticks": 31236
            },
            {
              "number": 1,
              "value": 0.12598425196850394,
              "time": 85.65244654166668,
              "ticks": 31246
            },
            {
              "number": 1,
              "value": 0.14960629921259844,
              "time": 85.674376375,
              "ticks": 31254
            },
            {
              "number": 1,
              "value": 0.16535433070866143,
              "time": 85.70452989583333,
              "ticks": 31265
            },
            {
              "number": 1,
              "value": 0.2125984251968504,
              "time": 85.76757816666667,
              "ticks": 31288
            },
            {
              "number": 1,
              "value": 0.2677165354330709,
              "time": 85.80047291666668,
              "ticks": 31300
            },
            {
              "number": 1,
              "value": 0.2283464566929134,
              "time": 85.82240275,
              "ticks": 31308
            },
            {
              "number": 1,
              "value": 0.12598425196850394,
              "time": 85.84981504166667,
              "ticks": 31318
            },
            {
              "number": 1,
              "value": 0.14960629921259844,
              "time": 85.871744875,
              "ticks": 31326
            },
            {
              "number": 1,
              "value": 0.1889763779527559,
              "time": 85.90189839583333,
              "ticks": 31337
            },
            {
              "number": 1,
              "value": 0.2204724409448819,
              "time": 85.92382822916667,
              "ticks": 31345
            },
            {
              "number": 1,
              "value": 0.25196850393700787,
              "time": 85.94849929166668,
              "ticks": 31354
            },
            {
              "number": 1,
              "value": 0.28346456692913385,
              "time": 85.970429125,
              "ticks": 31362
            },
            {
              "number": 1,
              "value": 0.29133858267716534,
              "time": 85.9951001875,
              "ticks": 31371
            },
            {
              "number": 1,
              "value": 0.31496062992125984,
              "time": 86.01977125,
              "ticks": 31380
            },
            {
              "number": 1,
              "value": 0.3543307086614173,
              "time": 86.04718354166667,
              "ticks": 31390
            },
            {
              "number": 1,
              "value": 0.3937007874015748,
              "time": 86.069113375,
              "ticks": 31398
            },
            {
              "number": 1,
              "value": 0.4015748031496063,
              "time": 86.09926689583332,
              "ticks": 31409
            },
            {
              "number": 1,
              "value": 0.4094488188976378,
              "time": 86.13764410416667,
              "ticks": 31423
            },
            {
              "number": 1,
              "value": 0,
              "time": 86.15135025000001,
              "ticks": 31428
            },
            {
              "number": 1,
              "value": 0.11023622047244094,
              "time": 87.1299690625,
              "ticks": 31785
            },
            {
              "number": 1,
              "value": 0.2440944881889764,
              "time": 87.154640125,
              "ticks": 31794
            },
            {
              "number": 1,
              "value": 0.11023622047244094,
              "time": 87.1957585625,
              "ticks": 31809
            },
            {
              "number": 1,
              "value": 0,
              "time": 87.2286533125,
              "ticks": 31821
            },
            {
              "number": 1,
              "value": 0.05511811023622047,
              "time": 87.84542987500001,
              "ticks": 32046
            },
            {
              "number": 1,
              "value": 0.14173228346456693,
              "time": 87.87558339583333,
              "ticks": 32057
            },
            {
              "number": 1,
              "value": 0.2440944881889764,
              "time": 87.89751322916668,
              "ticks": 32065
            },
            {
              "number": 1,
              "value": 0.33858267716535434,
              "time": 87.91944306250001,
              "ticks": 32073
            },
            {
              "number": 1,
              "value": 0.36220472440944884,
              "time": 87.94959658333333,
              "ticks": 32084
            },
            {
              "number": 1,
              "value": 0.3858267716535433,
              "time": 87.9687851875,
              "ticks": 32091
            },
            {
              "number": 1,
              "value": 0.4251968503937008,
              "time": 88.00716239583333,
              "ticks": 32105
            },
            {
              "number": 1,
              "value": 0.48031496062992124,
              "time": 88.042798375,
              "ticks": 32118
            },
            {
              "number": 1,
              "value": 0.5118110236220472,
              "time": 88.07021066666667,
              "ticks": 32128
            },
            {
              "number": 1,
              "value": 0.11811023622047244,
              "time": 88.1003641875,
              "ticks": 32139
            },
            {
              "number": 1,
              "value": 0,
              "time": 88.14422385416667,
              "ticks": 32155
            },
            {
              "number": 1,
              "value": 0.16535433070866143,
              "time": 88.684246,
              "ticks": 32352
            },
            {
              "number": 1,
              "value": 0.33858267716535434,
              "time": 88.71165829166667,
              "ticks": 32362
            },
            {
              "number": 1,
              "value": 0.4330708661417323,
              "time": 88.733588125,
              "ticks": 32370
            },
            {
              "number": 1,
              "value": 0.47244094488188976,
              "time": 88.76922410416667,
              "ticks": 32383
            },
            {
              "number": 1,
              "value": 0.4645669291338583,
              "time": 88.8076013125,
              "ticks": 32397
            },
            {
              "number": 1,
              "value": 0.41732283464566927,
              "time": 88.832272375,
              "ticks": 32406
            },
            {
              "number": 1,
              "value": 0.3464566929133858,
              "time": 88.85968466666667,
              "ticks": 32416
            },
            {
              "number": 1,
              "value": 0.12598425196850394,
              "time": 88.8816145,
              "ticks": 32424
            },
            {
              "number": 1,
              "value": 0.023622047244094488,
              "time": 88.9062855625,
              "ticks": 32433
            },
            {
              "number": 1,
              "value": 0.06299212598425197,
              "time": 88.93095662500001,
              "ticks": 32442
            },
            {
              "number": 1,
              "value": 0.14173228346456693,
              "time": 88.9556276875,
              "ticks": 32451
            },
            {
              "number": 1,
              "value": 0.18110236220472442,
              "time": 88.98578120833334,
              "ticks": 32462
            },
            {
              "number": 1,
              "value": 0.1968503937007874,
              "time": 89.00771104166667,
              "ticks": 32470
            },
            {
              "number": 1,
              "value": 0.09448818897637795,
              "time": 89.029640875,
              "ticks": 32478
            },
            {
              "number": 1,
              "value": 0.015748031496062992,
              "time": 89.05979439583334,
              "ticks": 32489
            },
            {
              "number": 1,
              "value": 0,
              "time": 89.08172422916667,
              "ticks": 32497
            },
            {
              "number": 1,
              "value": 0.1889763779527559,
              "time": 89.227009375,
              "ticks": 32550
            },
            {
              "number": 1,
              "value": 0.3464566929133858,
              "time": 89.25442166666667,
              "ticks": 32560
            },
            {
              "number": 1,
              "value": 0.4409448818897638,
              "time": 89.2763515,
              "ticks": 32568
            },
            {
              "number": 1,
              "value": 0.49606299212598426,
              "time": 89.3010225625,
              "ticks": 32577
            },
            {
              "number": 1,
              "value": 0.5275590551181102,
              "time": 89.32843485416667,
              "ticks": 32587
            },
            {
              "number": 1,
              "value": 0.5433070866141733,
              "time": 89.35310591666668,
              "ticks": 32596
            },
            {
              "number": 1,
              "value": 0.47244094488188976,
              "time": 89.37503575,
              "ticks": 32604
            },
            {
              "number": 1,
              "value": 0.4094488188976378,
              "time": 89.3997068125,
              "ticks": 32613
            },
            {
              "number": 1,
              "value": 0.47244094488188976,
              "time": 89.42711910416668,
              "ticks": 32623
            },
            {
              "number": 1,
              "value": 0.5039370078740157,
              "time": 89.45179016666667,
              "ticks": 32632
            },
            {
              "number": 1,
              "value": 0.5275590551181102,
              "time": 89.47372,
              "ticks": 32640
            },
            {
              "number": 1,
              "value": 0.5433070866141733,
              "time": 89.50387352083332,
              "ticks": 32651
            },
            {
              "number": 1,
              "value": 0.5669291338582677,
              "time": 89.52580335416667,
              "ticks": 32659
            },
            {
              "number": 1,
              "value": 0.5905511811023622,
              "time": 89.5477331875,
              "ticks": 32667
            },
            {
              "number": 1,
              "value": 0.6299212598425197,
              "time": 89.57240425,
              "ticks": 32676
            },
            {
              "number": 1,
              "value": 0.6299212598425197,
              "time": 89.5970753125,
              "ticks": 32685
            },
            {
              "number": 1,
              "value": 0.5748031496062992,
              "time": 89.62448760416667,
              "ticks": 32695
            },
            {
              "number": 1,
              "value": 0.4094488188976378,
              "time": 89.64915866666668,
              "ticks": 32704
            },
            {
              "number": 1,
              "value": 0.07874015748031496,
              "time": 89.6710885,
              "ticks": 32712
            },
            {
              "number": 1,
              "value": 0,
              "time": 89.69850079166667,
              "ticks": 32722
            },
            {
              "number": 1,
              "value": 0.2125984251968504,
              "time": 90.94027760416667,
              "ticks": 33175
            },
            {
              "number": 1,
              "value": 0.28346456692913385,
              "time": 90.9786548125,
              "ticks": 33189
            },
            {
              "number": 1,
              "value": 0.33858267716535434,
              "time": 91.00606710416668,
              "ticks": 33199
            },
            {
              "number": 1,
              "value": 0.3700787401574803,
              "time": 91.0279969375,
              "ticks": 33207
            },
            {
              "number": 1,
              "value": 0.4015748031496063,
              "time": 91.05540922916667,
              "ticks": 33217
            },
            {
              "number": 1,
              "value": 0.4251968503937008,
              "time": 91.08008029166668,
              "ticks": 33226
            },
            {
              "number": 1,
              "value": 0.4566929133858268,
              "time": 91.102010125,
              "ticks": 33234
            },
            {
              "number": 1,
              "value": 0.4645669291338583,
              "time": 91.13764610416668,
              "ticks": 33247
            },
            {
              "number": 1,
              "value": 0.3937007874015748,
              "time": 91.167799625,
              "ticks": 33258
            },
            {
              "number": 1,
              "value": 0.3779527559055118,
              "time": 91.200694375,
              "ticks": 33270
            },
            {
              "number": 1,
              "value": 0.3543307086614173,
              "time": 91.25277772916667,
              "ticks": 33289
            },
            {
              "number": 1,
              "value": 0.4566929133858268,
              "time": 91.28293125,
              "ticks": 33300
            },
            {
              "number": 1,
              "value": 0.49606299212598426,
              "time": 91.32679091666667,
              "ticks": 33316
            },
            {
              "number": 1,
              "value": 0.5433070866141733,
              "time": 91.35146197916667,
              "ticks": 33325
            },
            {
              "number": 1,
              "value": 0.5826771653543307,
              "time": 91.3733918125,
              "ticks": 33333
            },
            {
              "number": 1,
              "value": 0.6062992125984252,
              "time": 91.39806287500001,
              "ticks": 33342
            },
            {
              "number": 1,
              "value": 0.5590551181102362,
              "time": 91.4720760625,
              "ticks": 33369
            },
            {
              "number": 1,
              "value": 0.4881889763779528,
              "time": 91.49948835416667,
              "ticks": 33379
            },
            {
              "number": 1,
              "value": 0.3700787401574803,
              "time": 91.52415941666668,
              "ticks": 33388
            },
            {
              "number": 1,
              "value": 0.29133858267716534,
              "time": 91.54883047916667,
              "ticks": 33397
            },
            {
              "number": 1,
              "value": 0.2992125984251969,
              "time": 91.57624277083333,
              "ticks": 33407
            },
            {
              "number": 1,
              "value": 0.3937007874015748,
              "time": 91.60639629166667,
              "ticks": 33418
            },
            {
              "number": 1,
              "value": 0.41732283464566927,
              "time": 91.6447735,
              "ticks": 33432
            },
            {
              "number": 1,
              "value": 0.4566929133858268,
              "time": 91.6694445625,
              "ticks": 33441
            },
            {
              "number": 1,
              "value": 0.14960629921259844,
              "time": 91.7023393125,
              "ticks": 33453
            },
            {
              "number": 1,
              "value": 0,
              "time": 91.74619897916668,
              "ticks": 33469
            },
            {
              "number": 1,
              "value": 0.13385826771653545,
              "time": 93.026353,
              "ticks": 33936
            },
            {
              "number": 1,
              "value": 0.33858267716535434,
              "time": 93.05650652083332,
              "ticks": 33947
            },
            {
              "number": 1,
              "value": 0.4645669291338583,
              "time": 93.07843635416667,
              "ticks": 33955
            },
            {
              "number": 1,
              "value": 0.5196850393700787,
              "time": 93.1003661875,
              "ticks": 33963
            },
            {
              "number": 1,
              "value": 0.5669291338582677,
              "time": 93.14422585416668,
              "ticks": 33979
            },
            {
              "number": 1,
              "value": 0.4645669291338583,
              "time": 93.18260306250001,
              "ticks": 33993
            },
            {
              "number": 1,
              "value": 0.2677165354330709,
              "time": 93.2237215,
              "ticks": 34008
            },
            {
              "number": 1,
              "value": 0.15748031496062992,
              "time": 93.25113379166667,
              "ticks": 34018
            },
            {
              "number": 1,
              "value": 0.07086614173228346,
              "time": 93.27854608333332,
              "ticks": 34028
            },
            {
              "number": 1,
              "value": 0,
              "time": 93.30047591666667,
              "ticks": 34036
            },
            {
              "number": 1,
              "value": 0.015748031496062992,
              "time": 93.81856822916667,
              "ticks": 34225
            },
            {
              "number": 1,
              "value": 0.023622047244094488,
              "time": 93.8569454375,
              "ticks": 34239
            },
            {
              "number": 1,
              "value": 0.047244094488188976,
              "time": 93.91725247916668,
              "ticks": 34261
            },
            {
              "number": 1,
              "value": 0.09448818897637795,
              "time": 93.9391823125,
              "ticks": 34269
            },
            {
              "number": 1,
              "value": 0.16535433070866143,
              "time": 93.963853375,
              "ticks": 34278
            },
            {
              "number": 1,
              "value": 0.2755905511811024,
              "time": 93.9885244375,
              "ticks": 34287
            },
            {
              "number": 1,
              "value": 0.3464566929133858,
              "time": 94.01593672916667,
              "ticks": 34297
            },
            {
              "number": 1,
              "value": 0.4094488188976378,
              "time": 94.0378665625,
              "ticks": 34305
            },
            {
              "number": 1,
              "value": 0.47244094488188976,
              "time": 94.06802008333332,
              "ticks": 34316
            },
            {
              "number": 1,
              "value": 0.5354330708661418,
              "time": 94.08994991666667,
              "ticks": 34324
            },
            {
              "number": 1,
              "value": 0.5590551181102362,
              "time": 94.11462097916667,
              "ticks": 34333
            },
            {
              "number": 1,
              "value": 0.31496062992125984,
              "time": 94.1365508125,
              "ticks": 34341
            },
            {
              "number": 1,
              "value": 0.23622047244094488,
              "time": 94.16670433333333,
              "ticks": 34352
            },
            {
              "number": 1,
              "value": 0.2125984251968504,
              "time": 94.210564,
              "ticks": 34368
            },
            {
              "number": 1,
              "value": 0.07874015748031496,
              "time": 94.24619997916668,
              "ticks": 34381
            },
            {
              "number": 1,
              "value": 0.015748031496062992,
              "time": 94.28731841666668,
              "ticks": 34396
            },
            {
              "number": 1,
              "value": 0,
              "time": 94.31198947916667,
              "ticks": 34405
            },
            {
              "number": 1,
              "value": 0.06299212598425197,
              "time": 94.36955529166667,
              "ticks": 34426
            },
            {
              "number": 1,
              "value": 0.10236220472440945,
              "time": 94.41067372916667,
              "ticks": 34441
            },
            {
              "number": 1,
              "value": 0.18110236220472442,
              "time": 94.4326035625,
              "ticks": 34449
            },
            {
              "number": 1,
              "value": 0.25196850393700787,
              "time": 94.46001585416667,
              "ticks": 34459
            },
            {
              "number": 1,
              "value": 0.29133858267716534,
              "time": 94.48468691666667,
              "ticks": 34468
            },
            {
              "number": 1,
              "value": 0.2125984251968504,
              "time": 94.50935797916668,
              "ticks": 34477
            },
            {
              "number": 1,
              "value": 0.1732283464566929,
              "time": 94.5312878125,
              "ticks": 34485
            },
            {
              "number": 1,
              "value": 0.13385826771653545,
              "time": 94.55870010416668,
              "ticks": 34495
            },
            {
              "number": 1,
              "value": 0.12598425196850394,
              "time": 94.59159485416667,
              "ticks": 34507
            },
            {
              "number": 1,
              "value": 0.14960629921259844,
              "time": 94.6135246875,
              "ticks": 34515
            },
            {
              "number": 1,
              "value": 0.07874015748031496,
              "time": 94.64093697916667,
              "ticks": 34525
            },
            {
              "number": 1,
              "value": 0.11811023622047244,
              "time": 94.68479664583333,
              "ticks": 34541
            },
            {
              "number": 1,
              "value": 0.16535433070866143,
              "time": 94.70672647916668,
              "ticks": 34549
            },
            {
              "number": 1,
              "value": 0.25984251968503935,
              "time": 94.72865631250001,
              "ticks": 34557
            },
            {
              "number": 1,
              "value": 0.4566929133858268,
              "time": 94.753327375,
              "ticks": 34566
            },
            {
              "number": 1,
              "value": 0.5354330708661418,
              "time": 94.78073966666668,
              "ticks": 34576
            },
            {
              "number": 1,
              "value": 0.5669291338582677,
              "time": 94.80266950000001,
              "ticks": 34584
            },
            {
              "number": 1,
              "value": 0.5826771653543307,
              "time": 94.8273405625,
              "ticks": 34593
            },
            {
              "number": 1,
              "value": 0.6062992125984252,
              "time": 94.86297654166667,
              "ticks": 34606
            },
            {
              "number": 1,
              "value": 0.6220472440944882,
              "time": 94.89038883333333,
              "ticks": 34616
            },
            {
              "number": 1,
              "value": 0.6141732283464567,
              "time": 94.93150727083334,
              "ticks": 34631
            },
            {
              "number": 1,
              "value": 0.6614173228346457,
              "time": 94.9589195625,
              "ticks": 34641
            },
            {
              "number": 1,
              "value": 0.6771653543307087,
              "time": 95.000038,
              "ticks": 34656
            },
            {
              "number": 1,
              "value": 0.6456692913385826,
              "time": 95.02745029166667,
              "ticks": 34666
            },
            {
              "number": 1,
              "value": 0.5669291338582677,
              "time": 95.05212135416667,
              "ticks": 34675
            },
            {
              "number": 1,
              "value": 0.5433070866141733,
              "time": 95.0740511875,
              "ticks": 34683
            },
            {
              "number": 1,
              "value": 0.5748031496062992,
              "time": 95.09872225,
              "ticks": 34692
            },
            {
              "number": 1,
              "value": 0.49606299212598426,
              "time": 95.13435822916668,
              "ticks": 34705
            },
            {
              "number": 1,
              "value": 0.4015748031496063,
              "time": 95.1727354375,
              "ticks": 34719
            },
            {
              "number": 1,
              "value": 0.3779527559055118,
              "time": 95.1974065,
              "ticks": 34728
            },
            {
              "number": 1,
              "value": 0.25196850393700787,
              "time": 95.23030125,
              "ticks": 34740
            },
            {
              "number": 1,
              "value": 0.10236220472440945,
              "time": 95.2714196875,
              "ticks": 34755
            },
            {
              "number": 1,
              "value": 0,
              "time": 95.29609075,
              "ticks": 34764
            },
            {
              "number": 1,
              "value": 0.047244094488188976,
              "time": 95.838854125,
              "ticks": 34962
            },
            {
              "number": 1,
              "value": 0.10236220472440945,
              "time": 95.8635251875,
              "ticks": 34971
            },
            {
              "number": 1,
              "value": 0.13385826771653545,
              "time": 95.89093747916667,
              "ticks": 34981
            },
            {
              "number": 1,
              "value": 0.15748031496062992,
              "time": 95.91834977083333,
              "ticks": 34991
            },
            {
              "number": 1,
              "value": 0.18110236220472442,
              "time": 95.94027960416668,
              "ticks": 34999
            },
            {
              "number": 1,
              "value": 0.2204724409448819,
              "time": 95.96769189583333,
              "ticks": 35009
            },
            {
              "number": 1,
              "value": 0.23622047244094488,
              "time": 95.98962172916667,
              "ticks": 35017
            },
            {
              "number": 1,
              "value": 0.2440944881889764,
              "time": 96.01429279166668,
              "ticks": 35026
            },
            {
              "number": 1,
              "value": 0.29133858267716534,
              "time": 96.04170508333333,
              "ticks": 35036
            },
            {
              "number": 1,
              "value": 0.3543307086614173,
              "time": 96.06637614583333,
              "ticks": 35045
            },
            {
              "number": 1,
              "value": 0.4015748031496063,
              "time": 96.08556475,
              "ticks": 35052
            },
            {
              "number": 1,
              "value": 0.4409448818897638,
              "time": 96.11023581250001,
              "ticks": 35061
            },
            {
              "number": 1,
              "value": 0.47244094488188976,
              "time": 96.134906875,
              "ticks": 35070
            },
            {
              "number": 1,
              "value": 0.5039370078740157,
              "time": 96.1595779375,
              "ticks": 35079
            },
            {
              "number": 1,
              "value": 0.5669291338582677,
              "time": 96.1924726875,
              "ticks": 35091
            },
            {
              "number": 1,
              "value": 0.5984251968503937,
              "time": 96.23907358333332,
              "ticks": 35108
            },
            {
              "number": 1,
              "value": 0.6141732283464567,
              "time": 96.26100341666667,
              "ticks": 35116
            },
            {
              "number": 1,
              "value": 0.6299212598425197,
              "time": 96.28567447916667,
              "ticks": 35125
            },
            {
              "number": 1,
              "value": 0.6220472440944882,
              "time": 96.35420520833333,
              "ticks": 35150
            },
            {
              "number": 1,
              "value": 0.6614173228346457,
              "time": 96.41451225,
              "ticks": 35172
            },
            {
              "number": 1,
              "value": 0.5984251968503937,
              "time": 96.48030175,
              "ticks": 35196
            },
            {
              "number": 1,
              "value": 0.6220472440944882,
              "time": 96.5214201875,
              "ticks": 35211
            },
            {
              "number": 1,
              "value": 0.5748031496062992,
              "time": 96.55705616666667,
              "ticks": 35224
            },
            {
              "number": 1,
              "value": 0.4881889763779528,
              "time": 96.578986,
              "ticks": 35232
            },
            {
              "number": 1,
              "value": 0.2440944881889764,
              "time": 96.6036570625,
              "ticks": 35241
            },
            {
              "number": 1,
              "value": 0.023622047244094488,
              "time": 96.63106935416667,
              "ticks": 35251
            },
            {
              "number": 1,
              "value": 0,
              "time": 96.6529991875,
              "ticks": 35259
            },
            {
              "number": 1,
              "value": 0.2047244094488189,
              "time": 97.38216614583332,
              "ticks": 35525
            },
            {
              "number": 1,
              "value": 0.31496062992125984,
              "time": 97.42328458333333,
              "ticks": 35540
            },
            {
              "number": 1,
              "value": 0.4015748031496063,
              "time": 97.44521441666667,
              "ticks": 35548
            },
            {
              "number": 1,
              "value": 0.44881889763779526,
              "time": 97.46988547916668,
              "ticks": 35557
            },
            {
              "number": 1,
              "value": 0.48031496062992124,
              "time": 97.49729777083333,
              "ticks": 35567
            },
            {
              "number": 1,
              "value": 0.5354330708661418,
              "time": 97.5247100625,
              "ticks": 35577
            },
            {
              "number": 1,
              "value": 0.5590551181102362,
              "time": 97.58775833333333,
              "ticks": 35600
            },
            {
              "number": 1,
              "value": 0.6141732283464567,
              "time": 97.648065375,
              "ticks": 35622
            },
            {
              "number": 1,
              "value": 0.6062992125984252,
              "time": 97.72756102083333,
              "ticks": 35651
            },
            {
              "number": 1,
              "value": 0.5511811023622047,
              "time": 97.746749625,
              "ticks": 35658
            },
            {
              "number": 1,
              "value": 0.4566929133858268,
              "time": 97.79060929166667,
              "ticks": 35674
            },
            {
              "number": 1,
              "value": 0.1889763779527559,
              "time": 97.81528035416667,
              "ticks": 35683
            },
            {
              "number": 1,
              "value": 0,
              "time": 97.8372101875,
              "ticks": 35691
            },
            {
              "number": 1,
              "value": 0.03937007874015748,
              "time": 99.33940377083333,
              "ticks": 36239
            },
            {
              "number": 1,
              "value": 0.07874015748031496,
              "time": 99.36955729166667,
              "ticks": 36250
            },
            {
              "number": 1,
              "value": 0.14960629921259844,
              "time": 99.39422835416667,
              "ticks": 36259
            },
            {
              "number": 1,
              "value": 0.2204724409448819,
              "time": 99.4161581875,
              "ticks": 36267
            },
            {
              "number": 1,
              "value": 0.25984251968503935,
              "time": 99.44631170833333,
              "ticks": 36278
            },
            {
              "number": 1,
              "value": 0.28346456692913385,
              "time": 99.46824154166667,
              "ticks": 36286
            },
            {
              "number": 1,
              "value": 0.31496062992125984,
              "time": 99.49291260416668,
              "ticks": 36295
            },
            {
              "number": 1,
              "value": 0.3464566929133858,
              "time": 99.51484243750001,
              "ticks": 36303
            },
            {
              "number": 1,
              "value": 0.3700787401574803,
              "time": 99.5395135,
              "ticks": 36312
            },
            {
              "number": 1,
              "value": 0.3937007874015748,
              "time": 99.60804422916668,
              "ticks": 36337
            },
            {
              "number": 1,
              "value": 0.3700787401574803,
              "time": 99.64093897916668,
              "ticks": 36349
            },
            {
              "number": 1,
              "value": 0.4015748031496063,
              "time": 99.67383372916667,
              "ticks": 36361
            },
            {
              "number": 1,
              "value": 0.4566929133858268,
              "time": 99.73962322916667,
              "ticks": 36385
            },
            {
              "number": 1,
              "value": 0.49606299212598426,
              "time": 99.76429429166667,
              "ticks": 36394
            },
            {
              "number": 1,
              "value": 0.5590551181102362,
              "time": 99.786224125,
              "ticks": 36402
            },
            {
              "number": 1,
              "value": 0.5826771653543307,
              "time": 99.81363641666667,
              "ticks": 36412
            },
            {
              "number": 1,
              "value": 0.49606299212598426,
              "time": 99.87942591666668,
              "ticks": 36436
            },
            {
              "number": 1,
              "value": 0.4566929133858268,
              "time": 99.91232066666667,
              "ticks": 36448
            },
            {
              "number": 1,
              "value": 0.5275590551181102,
              "time": 99.94795664583333,
              "ticks": 36461
            },
            {
              "number": 1,
              "value": 0.5433070866141733,
              "time": 99.98907508333333,
              "ticks": 36476
            },
            {
              "number": 1,
              "value": 0.5511811023622047,
              "time": 100.01100491666668,
              "ticks": 36484
            },
            {
              "number": 1,
              "value": 0.5748031496062992,
              "time": 100.0411584375,
              "ticks": 36495
            },
            {
              "number": 1,
              "value": 0.5826771653543307,
              "time": 100.10420670833334,
              "ticks": 36518
            },
            {
              "number": 1,
              "value": 0.3779527559055118,
              "time": 100.11791285416668,
              "ticks": 36523
            },
            {
              "number": 1,
              "value": 0.2755905511811024,
              "time": 100.15903129166668,
              "ticks": 36538
            },
            {
              "number": 1,
              "value": 0.08661417322834646,
              "time": 100.180961125,
              "ticks": 36546
            },
            {
              "number": 1,
              "value": 0.015748031496062992,
              "time": 100.20837341666667,
              "ticks": 36556
            },
            {
              "number": 1,
              "value": 0,
              "time": 100.23578570833332,
              "ticks": 36566
            },
            {
              "number": 1,
              "value": 0.11811023622047244,
              "time": 100.63600516666668,
              "ticks": 36712
            },
            {
              "number": 1,
              "value": 0.2125984251968504,
              "time": 100.67712360416667,
              "ticks": 36727
            },
            {
              "number": 1,
              "value": 0.29133858267716534,
              "time": 100.6990534375,
              "ticks": 36735
            },
            {
              "number": 1,
              "value": 0.3228346456692913,
              "time": 100.72646572916668,
              "ticks": 36745
            },
            {
              "number": 1,
              "value": 0.33070866141732286,
              "time": 100.75113679166667,
              "ticks": 36754
            },
            {
              "number": 1,
              "value": 0.3464566929133858,
              "time": 100.77854908333333,
              "ticks": 36764
            },
            {
              "number": 1,
              "value": 0.2677165354330709,
              "time": 100.80322014583334,
              "ticks": 36773
            },
            {
              "number": 1,
              "value": 0.09448818897637795,
              "time": 100.82240875000001,
              "ticks": 36780
            },
            {
              "number": 1,
              "value": 0,
              "time": 100.84982104166667,
              "ticks": 36790
            },
            {
              "number": 1,
              "value": 0.29133858267716534,
              "time": 101.30212385416667,
              "ticks": 36955
            },
            {
              "number": 1,
              "value": 0.4645669291338583,
              "time": 101.34324229166667,
              "ticks": 36970
            },
            {
              "number": 1,
              "value": 0.5354330708661418,
              "time": 101.365172125,
              "ticks": 36978
            },
            {
              "number": 1,
              "value": 0.5748031496062992,
              "time": 101.39258441666668,
              "ticks": 36988
            },
            {
              "number": 1,
              "value": 0.6062992125984252,
              "time": 101.41451425,
              "ticks": 36996
            },
            {
              "number": 1,
              "value": 0.6141732283464567,
              "time": 101.4391853125,
              "ticks": 37005
            },
            {
              "number": 1,
              "value": 0.2992125984251969,
              "time": 101.47482129166667,
              "ticks": 37018
            },
            {
              "number": 1,
              "value": 0.031496062992125984,
              "time": 101.51593972916667,
              "ticks": 37033
            },
            {
              "number": 1,
              "value": 0,
              "time": 101.54061079166668,
              "ticks": 37042
            },
            {
              "number": 1,
              "value": 0.14960629921259844,
              "time": 101.81473370833334,
              "ticks": 37142
            },
            {
              "number": 1,
              "value": 0.3779527559055118,
              "time": 101.83666354166667,
              "ticks": 37150
            },
            {
              "number": 1,
              "value": 0.5275590551181102,
              "time": 101.86133460416667,
              "ticks": 37159
            },
            {
              "number": 1,
              "value": 0.5905511811023622,
              "time": 101.8832644375,
              "ticks": 37167
            },
            {
              "number": 1,
              "value": 0.6299212598425197,
              "time": 101.91067672916667,
              "ticks": 37177
            },
            {
              "number": 1,
              "value": 0.6614173228346457,
              "time": 101.9326065625,
              "ticks": 37185
            },
            {
              "number": 1,
              "value": 0.6141732283464567,
              "time": 101.97646622916668,
              "ticks": 37201
            },
            {
              "number": 1,
              "value": 0.5669291338582677,
              "time": 102.00936097916667,
              "ticks": 37213
            },
            {
              "number": 1,
              "value": 0.5039370078740157,
              "time": 102.03403204166668,
              "ticks": 37222
            },
            {
              "number": 1,
              "value": 0.4645669291338583,
              "time": 102.055961875,
              "ticks": 37230
            },
            {
              "number": 1,
              "value": 0.3858267716535433,
              "time": 102.08337416666667,
              "ticks": 37240
            },
            {
              "number": 1,
              "value": 0.12598425196850394,
              "time": 102.105304,
              "ticks": 37248
            },
            {
              "number": 1,
              "value": 0.07086614173228346,
              "time": 102.13271629166667,
              "ticks": 37258
            },
            {
              "number": 1,
              "value": 0,
              "time": 102.154646125,
              "ticks": 37266
            },
            {
              "number": 1,
              "value": 0.2204724409448819,
              "time": 102.52197083333333,
              "ticks": 37400
            },
            {
              "number": 1,
              "value": 0.25984251968503935,
              "time": 102.549383125,
              "ticks": 37410
            },
            {
              "number": 1,
              "value": 0.047244094488188976,
              "time": 102.57679541666667,
              "ticks": 37420
            },
            {
              "number": 1,
              "value": 0,
              "time": 102.60146647916667,
              "ticks": 37429
            },
            {
              "number": 1,
              "value": 0.031496062992125984,
              "time": 102.746751625,
              "ticks": 37482
            },
            {
              "number": 1,
              "value": 0.023622047244094488,
              "time": 102.78512883333333,
              "ticks": 37496
            },
            {
              "number": 1,
              "value": 0.031496062992125984,
              "time": 102.81528235416667,
              "ticks": 37507
            },
            {
              "number": 1,
              "value": 0.09448818897637795,
              "time": 102.845435875,
              "ticks": 37518
            },
            {
              "number": 1,
              "value": 0.18110236220472442,
              "time": 102.87284816666667,
              "ticks": 37528
            },
            {
              "number": 1,
              "value": 0.2440944881889764,
              "time": 102.89751922916668,
              "ticks": 37537
            },
            {
              "number": 1,
              "value": 0.2677165354330709,
              "time": 102.91944906250001,
              "ticks": 37545
            },
            {
              "number": 1,
              "value": 0.25196850393700787,
              "time": 102.94686135416667,
              "ticks": 37555
            },
            {
              "number": 1,
              "value": 0.28346456692913385,
              "time": 102.97153241666668,
              "ticks": 37564
            },
            {
              "number": 1,
              "value": 0.2992125984251969,
              "time": 102.99620347916667,
              "ticks": 37573
            },
            {
              "number": 1,
              "value": 0.25984251968503935,
              "time": 103.02361577083333,
              "ticks": 37583
            },
            {
              "number": 1,
              "value": 0.2992125984251969,
              "time": 103.0510280625,
              "ticks": 37593
            },
            {
              "number": 1,
              "value": 0.2992125984251969,
              "time": 103.10311141666668,
              "ticks": 37612
            },
            {
              "number": 1,
              "value": 0.4015748031496063,
              "time": 103.14422985416667,
              "ticks": 37627
            },
            {
              "number": 1,
              "value": 0.5354330708661418,
              "time": 103.16890091666667,
              "ticks": 37636
            },
            {
              "number": 1,
              "value": 0.6062992125984252,
              "time": 103.19357197916668,
              "ticks": 37645
            },
            {
              "number": 1,
              "value": 0.6456692913385826,
              "time": 103.2155018125,
              "ticks": 37653
            },
            {
              "number": 1,
              "value": 0.6614173228346457,
              "time": 103.25113779166668,
              "ticks": 37666
            },
            {
              "number": 1,
              "value": 0.7007874015748031,
              "time": 103.27855008333333,
              "ticks": 37676
            },
            {
              "number": 1,
              "value": 0.7086614173228346,
              "time": 103.31692729166667,
              "ticks": 37690
            },
            {
              "number": 1,
              "value": 0.6141732283464567,
              "time": 103.3470808125,
              "ticks": 37701
            },
            {
              "number": 1,
              "value": 0.5511811023622047,
              "time": 103.4128703125,
              "ticks": 37725
            },
            {
              "number": 1,
              "value": 0.5354330708661418,
              "time": 103.44028260416667,
              "ticks": 37735
            },
            {
              "number": 1,
              "value": 0.5275590551181102,
              "time": 103.4786598125,
              "ticks": 37749
            },
            {
              "number": 1,
              "value": 0.5511811023622047,
              "time": 103.49784841666667,
              "ticks": 37756
            },
            {
              "number": 1,
              "value": 0.4251968503937008,
              "time": 103.52251947916668,
              "ticks": 37765
            },
            {
              "number": 1,
              "value": 0.4409448818897638,
              "time": 103.56637914583332,
              "ticks": 37781
            },
            {
              "number": 1,
              "value": 0.5118110236220472,
              "time": 103.61298004166667,
              "ticks": 37798
            },
            {
              "number": 1,
              "value": 0.5590551181102362,
              "time": 103.63765110416668,
              "ticks": 37807
            },
            {
              "number": 1,
              "value": 0.3858267716535433,
              "time": 103.66506339583333,
              "ticks": 37817
            },
            {
              "number": 1,
              "value": 0.023622047244094488,
              "time": 103.68973445833333,
              "ticks": 37826
            },
            {
              "number": 1,
              "value": 0,
              "time": 103.71166429166668,
              "ticks": 37834
            },
            {
              "number": 1,
              "value": 0.08661417322834646,
              "time": 104.210568,
              "ticks": 38016
            },
            {
              "number": 1,
              "value": 0.13385826771653545,
              "time": 104.25442766666667,
              "ticks": 38032
            },
            {
              "number": 1,
              "value": 0.1732283464566929,
              "time": 104.27909872916668,
              "ticks": 38041
            },
            {
              "number": 1,
              "value": 0.18110236220472442,
              "time": 104.30102856250001,
              "ticks": 38049
            },
            {
              "number": 1,
              "value": 0.1732283464566929,
              "time": 104.325699625,
              "ticks": 38058
            },
            {
              "number": 1,
              "value": 0.18110236220472442,
              "time": 104.35311191666668,
              "ticks": 38068
            },
            {
              "number": 1,
              "value": 0.28346456692913385,
              "time": 104.3832654375,
              "ticks": 38079
            },
            {
              "number": 1,
              "value": 0.31496062992125984,
              "time": 104.424383875,
              "ticks": 38094
            },
            {
              "number": 1,
              "value": 0.33070866141732286,
              "time": 104.45179616666667,
              "ticks": 38104
            },
            {
              "number": 1,
              "value": 0.3543307086614173,
              "time": 104.47646722916667,
              "ticks": 38113
            },
            {
              "number": 1,
              "value": 0.4015748031496063,
              "time": 104.4983970625,
              "ticks": 38121
            },
            {
              "number": 1,
              "value": 0.4330708661417323,
              "time": 104.52580935416667,
              "ticks": 38131
            },
            {
              "number": 1,
              "value": 0.44881889763779526,
              "time": 104.55048041666667,
              "ticks": 38140
            },
            {
              "number": 1,
              "value": 0.4645669291338583,
              "time": 104.57789270833332,
              "ticks": 38150
            },
            {
              "number": 1,
              "value": 0.4881889763779528,
              "time": 104.60256377083333,
              "ticks": 38159
            },
            {
              "number": 1,
              "value": 0.49606299212598426,
              "time": 104.64916466666668,
              "ticks": 38176
            },
            {
              "number": 1,
              "value": 0.5118110236220472,
              "time": 104.68480064583333,
              "ticks": 38189
            },
            {
              "number": 1,
              "value": 0.5433070866141733,
              "time": 104.7286603125,
              "ticks": 38205
            },
            {
              "number": 1,
              "value": 0.5511811023622047,
              "time": 104.7780024375,
              "ticks": 38223
            },
            {
              "number": 1,
              "value": 0.5433070866141733,
              "time": 104.8108971875,
              "ticks": 38235
            },
            {
              "number": 1,
              "value": 0.5590551181102362,
              "time": 104.8273445625,
              "ticks": 38241
            },
            {
              "number": 1,
              "value": 0.5748031496062992,
              "time": 104.87394545833332,
              "ticks": 38258
            },
            {
              "number": 1,
              "value": 0.5905511811023622,
              "time": 104.90409897916668,
              "ticks": 38269
            },
            {
              "number": 1,
              "value": 0.5826771653543307,
              "time": 104.97262970833333,
              "ticks": 38294
            },
            {
              "number": 1,
              "value": 0.49606299212598426,
              "time": 104.99455954166667,
              "ticks": 38302
            },
            {
              "number": 1,
              "value": 0.33858267716535434,
              "time": 105.01923060416668,
              "ticks": 38311
            },
            {
              "number": 1,
              "value": 0.07086614173228346,
              "time": 105.04390166666667,
              "ticks": 38320
            },
            {
              "number": 1,
              "value": 0,
              "time": 105.0658315,
              "ticks": 38328
            },
            {
              "number": 1,
              "value": 0.1968503937007874,
              "time": 105.82515197916668,
              "ticks": 38605
            },
            {
              "number": 1,
              "value": 0.31496062992125984,
              "time": 105.85804672916667,
              "ticks": 38617
            },
            {
              "number": 1,
              "value": 0.3700787401574803,
              "time": 105.8799765625,
              "ticks": 38625
            },
            {
              "number": 1,
              "value": 0.4094488188976378,
              "time": 105.91013008333333,
              "ticks": 38636
            },
            {
              "number": 1,
              "value": 0.4330708661417323,
              "time": 105.93205991666667,
              "ticks": 38644
            },
            {
              "number": 1,
              "value": 0.4566929133858268,
              "time": 105.95673097916668,
              "ticks": 38653
            },
            {
              "number": 1,
              "value": 0.4645669291338583,
              "time": 105.98414327083333,
              "ticks": 38663
            },
            {
              "number": 1,
              "value": 0.4409448818897638,
              "time": 106.00881433333333,
              "ticks": 38672
            },
            {
              "number": 1,
              "value": 0.4251968503937008,
              "time": 106.03074416666668,
              "ticks": 38680
            },
            {
              "number": 1,
              "value": 0.44881889763779526,
              "time": 106.052674,
              "ticks": 38688
            },
            {
              "number": 1,
              "value": 0.4645669291338583,
              "time": 106.08282752083333,
              "ticks": 38699
            },
            {
              "number": 1,
              "value": 0.48031496062992124,
              "time": 106.1102398125,
              "ticks": 38709
            },
            {
              "number": 1,
              "value": 0.49606299212598426,
              "time": 106.16232316666667,
              "ticks": 38728
            },
            {
              "number": 1,
              "value": 0.5039370078740157,
              "time": 106.21440652083334,
              "ticks": 38747
            },
            {
              "number": 1,
              "value": 0.5118110236220472,
              "time": 106.23359512500001,
              "ticks": 38754
            },
            {
              "number": 1,
              "value": 0.5039370078740157,
              "time": 106.27745479166667,
              "ticks": 38770
            },
            {
              "number": 1,
              "value": 0.11811023622047244,
              "time": 106.299384625,
              "ticks": 38778
            },
            {
              "number": 1,
              "value": 0,
              "time": 106.3240556875,
              "ticks": 38787
            },
            {
              "number": 1,
              "value": 0.08661417322834646,
              "time": 107.78238960416667,
              "ticks": 39319
            },
            {
              "number": 1,
              "value": 0.2125984251968504,
              "time": 107.79883697916668,
              "ticks": 39325
            },
            {
              "number": 1,
              "value": 0.28346456692913385,
              "time": 107.8207668125,
              "ticks": 39333
            },
            {
              "number": 1,
              "value": 0.33858267716535434,
              "time": 107.84817910416668,
              "ticks": 39343
            },
            {
              "number": 1,
              "value": 0.3700787401574803,
              "time": 107.8701089375,
              "ticks": 39351
            },
            {
              "number": 1,
              "value": 0.4015748031496063,
              "time": 107.89752122916667,
              "ticks": 39361
            },
            {
              "number": 1,
              "value": 0.4251968503937008,
              "time": 107.92219229166668,
              "ticks": 39370
            },
            {
              "number": 1,
              "value": 0.4566929133858268,
              "time": 107.944122125,
              "ticks": 39378
            },
            {
              "number": 1,
              "value": 0.4645669291338583,
              "time": 107.97975810416668,
              "ticks": 39391
            },
            {
              "number": 1,
              "value": 0.3937007874015748,
              "time": 108.009911625,
              "ticks": 39402
            },
            {
              "number": 1,
              "value": 0.3779527559055118,
              "time": 108.042806375,
              "ticks": 39414
            },
            {
              "number": 1,
              "value": 0.3543307086614173,
              "time": 108.09488972916667,
              "ticks": 39433
            },
            {
              "number": 1,
              "value": 0.3937007874015748,
              "time": 108.12504325,
              "ticks": 39444
            },
            {
              "number": 1,
              "value": 0.4566929133858268,
              "time": 108.141490625,
              "ticks": 39450
            },
            {
              "number": 1,
              "value": 0.49606299212598426,
              "time": 108.16890291666667,
              "ticks": 39460
            },
            {
              "number": 1,
              "value": 0.5433070866141733,
              "time": 108.19357397916667,
              "ticks": 39469
            },
            {
              "number": 1,
              "value": 0.5826771653543307,
              "time": 108.2155038125,
              "ticks": 39477
            },
            {
              "number": 1,
              "value": 0.6062992125984252,
              "time": 108.24017487500001,
              "ticks": 39486
            },
            {
              "number": 1,
              "value": 0.5590551181102362,
              "time": 108.3141880625,
              "ticks": 39513
            },
            {
              "number": 1,
              "value": 0.4881889763779528,
              "time": 108.34160035416667,
              "ticks": 39523
            },
            {
              "number": 1,
              "value": 0.3700787401574803,
              "time": 108.36627141666668,
              "ticks": 39532
            },
            {
              "number": 1,
              "value": 0.29133858267716534,
              "time": 108.39094247916667,
              "ticks": 39541
            },
            {
              "number": 1,
              "value": 0.2992125984251969,
              "time": 108.41835477083333,
              "ticks": 39551
            },
            {
              "number": 1,
              "value": 0.33070866141732286,
              "time": 108.44850829166667,
              "ticks": 39562
            },
            {
              "number": 1,
              "value": 0.3937007874015748,
              "time": 108.46495566666667,
              "ticks": 39568
            },
            {
              "number": 1,
              "value": 0.41732283464566927,
              "time": 108.4868855,
              "ticks": 39576
            },
            {
              "number": 1,
              "value": 0.4566929133858268,
              "time": 108.5115565625,
              "ticks": 39585
            },
            {
              "number": 1,
              "value": 0.3779527559055118,
              "time": 108.5444513125,
              "ticks": 39597
            },
            {
              "number": 1,
              "value": 0.14960629921259844,
              "time": 108.56363991666667,
              "ticks": 39604
            },
            {
              "number": 1,
              "value": 0,
              "time": 108.58831097916668,
              "ticks": 39613
            },
            {
              "number": 1,
              "value": 0.13385826771653545,
              "time": 109.868465,
              "ticks": 40080
            },
            {
              "number": 1,
              "value": 0.33858267716535434,
              "time": 109.89861852083332,
              "ticks": 40091
            },
            {
              "number": 1,
              "value": 0.4645669291338583,
              "time": 109.92054835416667,
              "ticks": 40099
            },
            {
              "number": 1,
              "value": 0.5196850393700787,
              "time": 109.9424781875,
              "ticks": 40107
            },
            {
              "number": 1,
              "value": 0.5669291338582677,
              "time": 109.98633785416668,
              "ticks": 40123
            },
            {
              "number": 1,
              "value": 0.5826771653543307,
              "time": 110.02471506250001,
              "ticks": 40137
            },
            {
              "number": 1,
              "value": 0.4645669291338583,
              "time": 110.04390366666668,
              "ticks": 40144
            },
            {
              "number": 1,
              "value": 0.2677165354330709,
              "time": 110.0658335,
              "ticks": 40152
            },
            {
              "number": 1,
              "value": 0.15748031496062992,
              "time": 110.09324579166667,
              "ticks": 40162
            },
            {
              "number": 1,
              "value": 0.07086614173228346,
              "time": 110.12065808333332,
              "ticks": 40172
            },
            {
              "number": 1,
              "value": 0,
              "time": 110.14258791666667,
              "ticks": 40180
            },
            {
              "number": 1,
              "value": 0.015748031496062992,
              "time": 110.66068022916667,
              "ticks": 40369
            },
            {
              "number": 1,
              "value": 0.023622047244094488,
              "time": 110.6990574375,
              "ticks": 40383
            },
            {
              "number": 1,
              "value": 0.047244094488188976,
              "time": 110.75936447916668,
              "ticks": 40405
            },
            {
              "number": 1,
              "value": 0.09448818897637795,
              "time": 110.7812943125,
              "ticks": 40413
            },
            {
              "number": 1,
              "value": 0.16535433070866143,
              "time": 110.805965375,
              "ticks": 40422
            },
            {
              "number": 1,
              "value": 0.2755905511811024,
              "time": 110.8306364375,
              "ticks": 40431
            },
            {
              "number": 1,
              "value": 0.3464566929133858,
              "time": 110.85804872916667,
              "ticks": 40441
            },
            {
              "number": 1,
              "value": 0.4094488188976378,
              "time": 110.8799785625,
              "ticks": 40449
            },
            {
              "number": 1,
              "value": 0.47244094488188976,
              "time": 110.91013208333332,
              "ticks": 40460
            },
            {
              "number": 1,
              "value": 0.5354330708661418,
              "time": 110.93206191666667,
              "ticks": 40468
            },
            {
              "number": 1,
              "value": 0.5590551181102362,
              "time": 110.95673297916667,
              "ticks": 40477
            },
            {
              "number": 1,
              "value": 0.31496062992125984,
              "time": 110.9786628125,
              "ticks": 40485
            },
            {
              "number": 1,
              "value": 0.23622047244094488,
              "time": 111.00881633333333,
              "ticks": 40496
            },
            {
              "number": 1,
              "value": 0.2125984251968504,
              "time": 111.052676,
              "ticks": 40512
            },
            {
              "number": 1,
              "value": 0.18110236220472442,
              "time": 111.08831197916668,
              "ticks": 40525
            },
            {
              "number": 1,
              "value": 0.07874015748031496,
              "time": 111.102018125,
              "ticks": 40530
            },
            {
              "number": 1,
              "value": 0.015748031496062992,
              "time": 111.12943041666668,
              "ticks": 40540
            },
            {
              "number": 1,
              "value": 0,
              "time": 111.15410147916667,
              "ticks": 40549
            },
            {
              "number": 1,
              "value": 0.031496062992125984,
              "time": 111.21166729166667,
              "ticks": 40570
            },
            {
              "number": 1,
              "value": 0.06299212598425197,
              "time": 111.22811466666667,
              "ticks": 40576
            },
            {
              "number": 1,
              "value": 0.10236220472440945,
              "time": 111.25278572916667,
              "ticks": 40585
            },
            {
              "number": 1,
              "value": 0.18110236220472442,
              "time": 111.2747155625,
              "ticks": 40593
            },
            {
              "number": 1,
              "value": 0.25196850393700787,
              "time": 111.30212785416667,
              "ticks": 40603
            },
            {
              "number": 1,
              "value": 0.29133858267716534,
              "time": 111.32679891666668,
              "ticks": 40612
            },
            {
              "number": 1,
              "value": 0.2125984251968504,
              "time": 111.35146997916668,
              "ticks": 40621
            },
            {
              "number": 1,
              "value": 0.1732283464566929,
              "time": 111.3733998125,
              "ticks": 40629
            },
            {
              "number": 1,
              "value": 0.13385826771653545,
              "time": 111.40081210416668,
              "ticks": 40639
            },
            {
              "number": 1,
              "value": 0.12598425196850394,
              "time": 111.43370685416667,
              "ticks": 40651
            },
            {
              "number": 1,
              "value": 0.14960629921259844,
              "time": 111.4556366875,
              "ticks": 40659
            },
            {
              "number": 1,
              "value": 0.11023622047244094,
              "time": 111.48304897916667,
              "ticks": 40669
            },
            {
              "number": 1,
              "value": 0.07874015748031496,
              "time": 111.50223758333333,
              "ticks": 40676
            },
            {
              "number": 1,
              "value": 0.11811023622047244,
              "time": 111.52690864583333,
              "ticks": 40685
            },
            {
              "number": 1,
              "value": 0.16535433070866143,
              "time": 111.54883847916668,
              "ticks": 40693
            },
            {
              "number": 1,
              "value": 0.25984251968503935,
              "time": 111.57076831250001,
              "ticks": 40701
            },
            {
              "number": 1,
              "value": 0.4566929133858268,
              "time": 111.595439375,
              "ticks": 40710
            },
            {
              "number": 1,
              "value": 0.5354330708661418,
              "time": 111.62285166666668,
              "ticks": 40720
            },
            {
              "number": 1,
              "value": 0.5669291338582677,
              "time": 111.64478150000001,
              "ticks": 40728
            },
            {
              "number": 1,
              "value": 0.5826771653543307,
              "time": 111.6694525625,
              "ticks": 40737
            },
            {
              "number": 1,
              "value": 0.6062992125984252,
              "time": 111.70508854166667,
              "ticks": 40750
            },
            {
              "number": 1,
              "value": 0.6141732283464567,
              "time": 111.73250083333333,
              "ticks": 40760
            },
            {
              "number": 1,
              "value": 0.6220472440944882,
              "time": 111.74620697916667,
              "ticks": 40765
            },
            {
              "number": 1,
              "value": 0.6141732283464567,
              "time": 111.77361927083334,
              "ticks": 40775
            },
            {
              "number": 1,
              "value": 0.6299212598425197,
              "time": 111.8010315625,
              "ticks": 40785
            },
            {
              "number": 1,
              "value": 0.6614173228346457,
              "time": 111.8174789375,
              "ticks": 40791
            },
            {
              "number": 1,
              "value": 0.6771653543307087,
              "time": 111.84215,
              "ticks": 40800
            },
            {
              "number": 1,
              "value": 0.6456692913385826,
              "time": 111.86956229166667,
              "ticks": 40810
            },
            {
              "number": 1,
              "value": 0.5669291338582677,
              "time": 111.89423335416667,
              "ticks": 40819
            },
            {
              "number": 1,
              "value": 0.5433070866141733,
              "time": 111.9161631875,
              "ticks": 40827
            },
            {
              "number": 1,
              "value": 0.5748031496062992,
              "time": 111.94083425,
              "ticks": 40836
            },
            {
              "number": 1,
              "value": 0.5354330708661418,
              "time": 111.97647022916668,
              "ticks": 40849
            },
            {
              "number": 1,
              "value": 0.49606299212598426,
              "time": 111.99291760416668,
              "ticks": 40855
            },
            {
              "number": 1,
              "value": 0.4015748031496063,
              "time": 112.0148474375,
              "ticks": 40863
            },
            {
              "number": 1,
              "value": 0.3779527559055118,
              "time": 112.0395185,
              "ticks": 40872
            },
            {
              "number": 1,
              "value": 0.33858267716535434,
              "time": 112.07241325,
              "ticks": 40884
            },
            {
              "number": 1,
              "value": 0.25196850393700787,
              "time": 112.09160185416667,
              "ticks": 40891
            },
            {
              "number": 1,
              "value": 0.10236220472440945,
              "time": 112.1135316875,
              "ticks": 40899
            },
            {
              "number": 1,
              "value": 0,
              "time": 112.13820275,
              "ticks": 40908
            },
            {
              "number": 1,
              "value": 0.047244094488188976,
              "time": 112.680966125,
              "ticks": 41106
            },
            {
              "number": 1,
              "value": 0.10236220472440945,
              "time": 112.7056371875,
              "ticks": 41115
            },
            {
              "number": 1,
              "value": 0.13385826771653545,
              "time": 112.73304947916667,
              "ticks": 41125
            },
            {
              "number": 1,
              "value": 0.15748031496062992,
              "time": 112.76046177083333,
              "ticks": 41135
            },
            {
              "number": 1,
              "value": 0.18110236220472442,
              "time": 112.78239160416668,
              "ticks": 41143
            },
            {
              "number": 1,
              "value": 0.2204724409448819,
              "time": 112.80980389583333,
              "ticks": 41153
            },
            {
              "number": 1,
              "value": 0.23622047244094488,
              "time": 112.83173372916667,
              "ticks": 41161
            },
            {
              "number": 1,
              "value": 0.2440944881889764,
              "time": 112.85640479166668,
              "ticks": 41170
            },
            {
              "number": 1,
              "value": 0.29133858267716534,
              "time": 112.88381708333333,
              "ticks": 41180
            },
            {
              "number": 1,
              "value": 0.3543307086614173,
              "time": 112.90848814583333,
              "ticks": 41189
            },
            {
              "number": 1,
              "value": 0.4015748031496063,
              "time": 112.92767675,
              "ticks": 41196
            },
            {
              "number": 1,
              "value": 0.4409448818897638,
              "time": 112.95234781250001,
              "ticks": 41205
            },
            {
              "number": 1,
              "value": 0.47244094488188976,
              "time": 112.977018875,
              "ticks": 41214
            },
            {
              "number": 1,
              "value": 0.5039370078740157,
              "time": 113.0016899375,
              "ticks": 41223
            },
            {
              "number": 1,
              "value": 0.5275590551181102,
              "time": 113.0345846875,
              "ticks": 41235
            },
            {
              "number": 1,
              "value": 0.5669291338582677,
              "time": 113.05377329166667,
              "ticks": 41242
            },
            {
              "number": 1,
              "value": 0.5984251968503937,
              "time": 113.08118558333332,
              "ticks": 41252
            },
            {
              "number": 1,
              "value": 0.6141732283464567,
              "time": 113.10311541666667,
              "ticks": 41260
            },
            {
              "number": 1,
              "value": 0.6299212598425197,
              "time": 113.12778647916667,
              "ticks": 41269
            },
            {
              "number": 1,
              "value": 0.6220472440944882,
              "time": 113.19631720833333,
              "ticks": 41294
            },
            {
              "number": 1,
              "value": 0.6377952755905512,
              "time": 113.25662425,
              "ticks": 41316
            },
            {
              "number": 1,
              "value": 0.6614173228346457,
              "time": 113.273071625,
              "ticks": 41322
            },
            {
              "number": 1,
              "value": 0.5984251968503937,
              "time": 113.32241375,
              "ticks": 41340
            },
            {
              "number": 1,
              "value": 0.6220472440944882,
              "time": 113.3635321875,
              "ticks": 41355
            },
            {
              "number": 1,
              "value": 0.5748031496062992,
              "time": 113.39916816666667,
              "ticks": 41368
            },
            {
              "number": 1,
              "value": 0.4881889763779528,
              "time": 113.421098,
              "ticks": 41376
            },
            {
              "number": 1,
              "value": 0.2440944881889764,
              "time": 113.4457690625,
              "ticks": 41385
            },
            {
              "number": 1,
              "value": 0.023622047244094488,
              "time": 113.47318135416667,
              "ticks": 41395
            },
            {
              "number": 1,
              "value": 0,
              "time": 113.4951111875,
              "ticks": 41403
            },
            {
              "number": 1,
              "value": 0.047244094488188976,
              "time": 114.22427814583332,
              "ticks": 41669
            },
            {
              "number": 1,
              "value": 0.2047244094488189,
              "time": 114.2352430625,
              "ticks": 41673
            },
            {
              "number": 1,
              "value": 0.31496062992125984,
              "time": 114.26539658333333,
              "ticks": 41684
            },
            {
              "number": 1,
              "value": 0.4015748031496063,
              "time": 114.28732641666667,
              "ticks": 41692
            },
            {
              "number": 1,
              "value": 0.44881889763779526,
              "time": 114.31199747916668,
              "ticks": 41701
            },
            {
              "number": 1,
              "value": 0.48031496062992124,
              "time": 114.33940977083333,
              "ticks": 41711
            },
            {
              "number": 1,
              "value": 0.5118110236220472,
              "time": 114.3668220625,
              "ticks": 41721
            },
            {
              "number": 1,
              "value": 0.5354330708661418,
              "time": 114.38601066666668,
              "ticks": 41728
            },
            {
              "number": 1,
              "value": 0.5590551181102362,
              "time": 114.42987033333333,
              "ticks": 41744
            },
            {
              "number": 1,
              "value": 0.5748031496062992,
              "time": 114.490177375,
              "ticks": 41766
            },
            {
              "number": 1,
              "value": 0.6141732283464567,
              "time": 114.50662475,
              "ticks": 41772
            },
            {
              "number": 1,
              "value": 0.6062992125984252,
              "time": 114.56967302083333,
              "ticks": 41795
            },
            {
              "number": 1,
              "value": 0.5984251968503937,
              "time": 114.588861625,
              "ticks": 41802
            },
            {
              "number": 1,
              "value": 0.5511811023622047,
              "time": 114.605309,
              "ticks": 41808
            },
            {
              "number": 1,
              "value": 0.4566929133858268,
              "time": 114.63272129166667,
              "ticks": 41818
            },
            {
              "number": 1,
              "value": 0.1889763779527559,
              "time": 114.65739235416667,
              "ticks": 41827
            },
            {
              "number": 1,
              "value": 0,
              "time": 114.6793221875,
              "ticks": 41835
            },
            {
              "number": 1,
              "value": 0.03937007874015748,
              "time": 116.18151577083333,
              "ticks": 42383
            },
            {
              "number": 1,
              "value": 0.07874015748031496,
              "time": 116.21166929166667,
              "ticks": 42394
            },
            {
              "number": 1,
              "value": 0.14960629921259844,
              "time": 116.23634035416667,
              "ticks": 42403
            },
            {
              "number": 1,
              "value": 0.2204724409448819,
              "time": 116.2582701875,
              "ticks": 42411
            },
            {
              "number": 1,
              "value": 0.25984251968503935,
              "time": 116.28842370833333,
              "ticks": 42422
            },
            {
              "number": 1,
              "value": 0.28346456692913385,
              "time": 116.31035354166667,
              "ticks": 42430
            },
            {
              "number": 1,
              "value": 0.31496062992125984,
              "time": 116.33502460416668,
              "ticks": 42439
            },
            {
              "number": 1,
              "value": 0.3464566929133858,
              "time": 116.35695443750001,
              "ticks": 42447
            },
            {
              "number": 1,
              "value": 0.3700787401574803,
              "time": 116.3816255,
              "ticks": 42456
            },
            {
              "number": 1,
              "value": 0.3937007874015748,
              "time": 116.45015622916668,
              "ticks": 42481
            },
            {
              "number": 1,
              "value": 0.3700787401574803,
              "time": 116.48305097916668,
              "ticks": 42493
            },
            {
              "number": 1,
              "value": 0.3937007874015748,
              "time": 116.51594572916667,
              "ticks": 42505
            },
            {
              "number": 1,
              "value": 0.4015748031496063,
              "time": 116.529651875,
              "ticks": 42510
            },
            {
              "number": 1,
              "value": 0.4566929133858268,
              "time": 116.58173522916667,
              "ticks": 42529
            },
            {
              "number": 1,
              "value": 0.49606299212598426,
              "time": 116.60640629166667,
              "ticks": 42538
            },
            {
              "number": 1,
              "value": 0.5590551181102362,
              "time": 116.628336125,
              "ticks": 42546
            },
            {
              "number": 1,
              "value": 0.5826771653543307,
              "time": 116.65574841666667,
              "ticks": 42556
            },
            {
              "number": 1,
              "value": 0.49606299212598426,
              "time": 116.72153791666668,
              "ticks": 42580
            },
            {
              "number": 1,
              "value": 0.4566929133858268,
              "time": 116.75443266666667,
              "ticks": 42592
            },
            {
              "number": 1,
              "value": 0.47244094488188976,
              "time": 116.79006864583333,
              "ticks": 42605
            },
            {
              "number": 1,
              "value": 0.5275590551181102,
              "time": 116.8010335625,
              "ticks": 42609
            },
            {
              "number": 1,
              "value": 0.5433070866141733,
              "time": 116.83118708333333,
              "ticks": 42620
            },
            {
              "number": 1,
              "value": 0.5511811023622047,
              "time": 116.85311691666668,
              "ticks": 42628
            },
            {
              "number": 1,
              "value": 0.5590551181102362,
              "time": 116.8832704375,
              "ticks": 42639
            },
            {
              "number": 1,
              "value": 0.5748031496062992,
              "time": 116.8997178125,
              "ticks": 42645
            },
            {
              "number": 1,
              "value": 0.5275590551181102,
              "time": 116.94631870833334,
              "ticks": 42662
            },
            {
              "number": 1,
              "value": 0.3779527559055118,
              "time": 116.97647222916667,
              "ticks": 42673
            },
            {
              "number": 1,
              "value": 0.2755905511811024,
              "time": 117.00114329166668,
              "ticks": 42682
            },
            {
              "number": 1,
              "value": 0.08661417322834646,
              "time": 117.023073125,
              "ticks": 42690
            },
            {
              "number": 1,
              "value": 0.015748031496062992,
              "time": 117.05048541666667,
              "ticks": 42700
            },
            {
              "number": 1,
              "value": 0,
              "time": 117.07789770833332,
              "ticks": 42710
            },
            {
              "number": 1,
              "value": 0.031496062992125984,
              "time": 117.47811716666668,
              "ticks": 42856
            },
            {
              "number": 1,
              "value": 0.11811023622047244,
              "time": 117.49456454166668,
              "ticks": 42862
            },
            {
              "number": 1,
              "value": 0.2125984251968504,
              "time": 117.51923560416667,
              "ticks": 42871
            },
            {
              "number": 1,
              "value": 0.29133858267716534,
              "time": 117.5411654375,
              "ticks": 42879
            },
            {
              "number": 1,
              "value": 0.3228346456692913,
              "time": 117.56857772916668,
              "ticks": 42889
            },
            {
              "number": 1,
              "value": 0.33070866141732286,
              "time": 117.59324879166667,
              "ticks": 42898
            },
            {
              "number": 1,
              "value": 0.3464566929133858,
              "time": 117.62066108333333,
              "ticks": 42908
            },
            {
              "number": 1,
              "value": 0.2677165354330709,
              "time": 117.64533214583334,
              "ticks": 42917
            },
            {
              "number": 1,
              "value": 0.09448818897637795,
              "time": 117.66452075000001,
              "ticks": 42924
            },
            {
              "number": 1,
              "value": 0,
              "time": 117.69193304166667,
              "ticks": 42934
            },
            {
              "number": 1,
              "value": 0.09448818897637795,
              "time": 118.14423585416667,
              "ticks": 43099
            },
            {
              "number": 1,
              "value": 0.29133858267716534,
              "time": 118.16068322916668,
              "ticks": 43105
            },
            {
              "number": 1,
              "value": 0.4645669291338583,
              "time": 118.18535429166667,
              "ticks": 43114
            },
            {
              "number": 1,
              "value": 0.5354330708661418,
              "time": 118.207284125,
              "ticks": 43122
            },
            {
              "number": 1,
              "value": 0.5748031496062992,
              "time": 118.23469641666668,
              "ticks": 43132
            },
            {
              "number": 1,
              "value": 0.6062992125984252,
              "time": 118.25662625,
              "ticks": 43140
            },
            {
              "number": 1,
              "value": 0.6141732283464567,
              "time": 118.2812973125,
              "ticks": 43149
            },
            {
              "number": 1,
              "value": 0.5433070866141733,
              "time": 118.31693329166667,
              "ticks": 43162
            },
            {
              "number": 1,
              "value": 0.2992125984251969,
              "time": 118.33338066666667,
              "ticks": 43168
            },
            {
              "number": 1,
              "value": 0.031496062992125984,
              "time": 118.35805172916668,
              "ticks": 43177
            },
            {
              "number": 1,
              "value": 0,
              "time": 118.38272279166668,
              "ticks": 43186
            },
            {
              "number": 1,
              "value": 0.14960629921259844,
              "time": 118.65684570833334,
              "ticks": 43286
            },
            {
              "number": 1,
              "value": 0.3779527559055118,
              "time": 118.67877554166667,
              "ticks": 43294
            },
            {
              "number": 1,
              "value": 0.5275590551181102,
              "time": 118.70344660416667,
              "ticks": 43303
            },
            {
              "number": 1,
              "value": 0.5905511811023622,
              "time": 118.7253764375,
              "ticks": 43311
            },
            {
              "number": 1,
              "value": 0.6299212598425197,
              "time": 118.75278872916667,
              "ticks": 43321
            },
            {
              "number": 1,
              "value": 0.6614173228346457,
              "time": 118.7747185625,
              "ticks": 43329
            },
            {
              "number": 1,
              "value": 0.6141732283464567,
              "time": 118.81857822916668,
              "ticks": 43345
            },
            {
              "number": 1,
              "value": 0.5669291338582677,
              "time": 118.85147297916667,
              "ticks": 43357
            },
            {
              "number": 1,
              "value": 0.5039370078740157,
              "time": 118.87614404166668,
              "ticks": 43366
            },
            {
              "number": 1,
              "value": 0.4645669291338583,
              "time": 118.898073875,
              "ticks": 43374
            },
            {
              "number": 1,
              "value": 0.3858267716535433,
              "time": 118.92548616666667,
              "ticks": 43384
            },
            {
              "number": 1,
              "value": 0.12598425196850394,
              "time": 118.947416,
              "ticks": 43392
            },
            {
              "number": 1,
              "value": 0.07086614173228346,
              "time": 118.97482829166667,
              "ticks": 43402
            },
            {
              "number": 1,
              "value": 0,
              "time": 118.996758125,
              "ticks": 43410
            },
            {
              "number": 1,
              "value": 0.2204724409448819,
              "time": 119.36408283333333,
              "ticks": 43544
            },
            {
              "number": 1,
              "value": 0.25984251968503935,
              "time": 119.391495125,
              "ticks": 43554
            },
            {
              "number": 1,
              "value": 0.047244094488188976,
              "time": 119.41890741666667,
              "ticks": 43564
            },
            {
              "number": 1,
              "value": 0,
              "time": 119.44357847916667,
              "ticks": 43573
            },
            {
              "number": 1,
              "value": 0.031496062992125984,
              "time": 119.588863625,
              "ticks": 43626
            },
            {
              "number": 1,
              "value": 0.023622047244094488,
              "time": 119.62724083333333,
              "ticks": 43640
            },
            {
              "number": 1,
              "value": 0.031496062992125984,
              "time": 119.65739435416667,
              "ticks": 43651
            },
            {
              "number": 1,
              "value": 0.09448818897637795,
              "time": 119.687547875,
              "ticks": 43662
            },
            {
              "number": 1,
              "value": 0.18110236220472442,
              "time": 119.71496016666667,
              "ticks": 43672
            },
            {
              "number": 1,
              "value": 0.2440944881889764,
              "time": 119.73963122916668,
              "ticks": 43681
            },
            {
              "number": 1,
              "value": 0.2677165354330709,
              "time": 119.76156106250001,
              "ticks": 43689
            },
            {
              "number": 1,
              "value": 0.25196850393700787,
              "time": 119.78897335416667,
              "ticks": 43699
            },
            {
              "number": 1,
              "value": 0.28346456692913385,
              "time": 119.81364441666668,
              "ticks": 43708
            },
            {
              "number": 1,
              "value": 0.2992125984251969,
              "time": 119.83831547916667,
              "ticks": 43717
            },
            {
              "number": 1,
              "value": 0.25984251968503935,
              "time": 119.86572777083333,
              "ticks": 43727
            },
            {
              "number": 1,
              "value": 0.28346456692913385,
              "time": 119.8931400625,
              "ticks": 43737
            },
            {
              "number": 1,
              "value": 0.2992125984251969,
              "time": 119.90958743750001,
              "ticks": 43743
            },
            {
              "number": 1,
              "value": 0.30708661417322836,
              "time": 119.94522341666668,
              "ticks": 43756
            },
            {
              "number": 1,
              "value": 0.2992125984251969,
              "time": 119.96441202083334,
              "ticks": 43763
            },
            {
              "number": 1,
              "value": 0.4015748031496063,
              "time": 119.98634185416667,
              "ticks": 43771
            },
            {
              "number": 1,
              "value": 0.5354330708661418,
              "time": 120.01101291666667,
              "ticks": 43780
            },
            {
              "number": 1,
              "value": 0.6062992125984252,
              "time": 120.03568397916668,
              "ticks": 43789
            },
            {
              "number": 1,
              "value": 0.6456692913385826,
              "time": 120.0576138125,
              "ticks": 43797
            },
            {
              "number": 1,
              "value": 0.6614173228346457,
              "time": 120.09324979166668,
              "ticks": 43810
            },
            {
              "number": 1,
              "value": 0.6692913385826772,
              "time": 120.12066208333333,
              "ticks": 43820
            },
            {
              "number": 1,
              "value": 0.7007874015748031,
              "time": 120.131627,
              "ticks": 43824
            },
            {
              "number": 1,
              "value": 0.7086614173228346,
              "time": 120.15903929166667,
              "ticks": 43834
            },
            {
              "number": 1,
              "value": 0.6614173228346457,
              "time": 120.1891928125,
              "ticks": 43845
            },
            {
              "number": 1,
              "value": 0.6141732283464567,
              "time": 120.2056401875,
              "ticks": 43851
            },
            {
              "number": 1,
              "value": 0.5511811023622047,
              "time": 120.2549823125,
              "ticks": 43869
            },
            {
              "number": 1,
              "value": 0.5354330708661418,
              "time": 120.28239460416667,
              "ticks": 43879
            },
            {
              "number": 1,
              "value": 0.5511811023622047,
              "time": 120.3207718125,
              "ticks": 43893
            },
            {
              "number": 1,
              "value": 0.47244094488188976,
              "time": 120.36463147916668,
              "ticks": 43909
            },
            {
              "number": 1,
              "value": 0.4251968503937008,
              "time": 120.38107885416667,
              "ticks": 43915
            },
            {
              "number": 1,
              "value": 0.4409448818897638,
              "time": 120.40849114583332,
              "ticks": 43925
            },
            {
              "number": 1,
              "value": 0.5118110236220472,
              "time": 120.45509204166667,
              "ticks": 43942
            },
            {
              "number": 1,
              "value": 0.5590551181102362,
              "time": 120.47976310416668,
              "ticks": 43951
            },
            {
              "number": 1,
              "value": 0.3858267716535433,
              "time": 120.50717539583333,
              "ticks": 43961
            },
            {
              "number": 1,
              "value": 0.023622047244094488,
              "time": 120.53184645833333,
              "ticks": 43970
            },
            {
              "number": 1,
              "value": 0,
              "time": 120.55377629166668,
              "ticks": 43978
            },
            {
              "number": 1,
              "value": 0.031496062992125984,
              "time": 121.05268,
              "ticks": 44160
            },
            {
              "number": 1,
              "value": 0.08661417322834646,
              "time": 121.06912737500001,
              "ticks": 44166
            },
            {
              "number": 1,
              "value": 0.13385826771653545,
              "time": 121.09653966666667,
              "ticks": 44176
            },
            {
              "number": 1,
              "value": 0.1732283464566929,
              "time": 121.12121072916668,
              "ticks": 44185
            },
            {
              "number": 1,
              "value": 0.18110236220472442,
              "time": 121.14314056250001,
              "ticks": 44193
            },
            {
              "number": 1,
              "value": 0.1732283464566929,
              "time": 121.167811625,
              "ticks": 44202
            },
            {
              "number": 1,
              "value": 0.18110236220472442,
              "time": 121.19522391666668,
              "ticks": 44212
            },
            {
              "number": 1,
              "value": 0.2204724409448819,
              "time": 121.2253774375,
              "ticks": 44223
            },
            {
              "number": 1,
              "value": 0.28346456692913385,
              "time": 121.2418248125,
              "ticks": 44229
            },
            {
              "number": 1,
              "value": 0.31496062992125984,
              "time": 121.266495875,
              "ticks": 44238
            },
            {
              "number": 1,
              "value": 0.33070866141732286,
              "time": 121.29390816666667,
              "ticks": 44248
            },
            {
              "number": 1,
              "value": 0.3543307086614173,
              "time": 121.31857922916667,
              "ticks": 44257
            },
            {
              "number": 1,
              "value": 0.4015748031496063,
              "time": 121.3405090625,
              "ticks": 44265
            },
            {
              "number": 1,
              "value": 0.4330708661417323,
              "time": 121.36792135416667,
              "ticks": 44275
            },
            {
              "number": 1,
              "value": 0.44881889763779526,
              "time": 121.39259241666667,
              "ticks": 44284
            },
            {
              "number": 1,
              "value": 0.4645669291338583,
              "time": 121.42000470833332,
              "ticks": 44294
            },
            {
              "number": 1,
              "value": 0.4881889763779528,
              "time": 121.44467577083333,
              "ticks": 44303
            },
            {
              "number": 1,
              "value": 0.49606299212598426,
              "time": 121.49127666666668,
              "ticks": 44320
            },
            {
              "number": 1,
              "value": 0.5039370078740157,
              "time": 121.52691264583333,
              "ticks": 44333
            },
            {
              "number": 1,
              "value": 0.5118110236220472,
              "time": 121.54336002083333,
              "ticks": 44339
            },
            {
              "number": 1,
              "value": 0.5196850393700787,
              "time": 121.5707723125,
              "ticks": 44349
            },
            {
              "number": 1,
              "value": 0.5433070866141733,
              "time": 121.58996091666667,
              "ticks": 44356
            },
            {
              "number": 1,
              "value": 0.5511811023622047,
              "time": 121.6201144375,
              "ticks": 44367
            },
            {
              "number": 1,
              "value": 0.5354330708661418,
              "time": 121.6530091875,
              "ticks": 44379
            },
            {
              "number": 1,
              "value": 0.5590551181102362,
              "time": 121.68864516666667,
              "ticks": 44392
            },
            {
              "number": 1,
              "value": 0.5748031496062992,
              "time": 121.71605745833332,
              "ticks": 44402
            },
            {
              "number": 1,
              "value": 0.5905511811023622,
              "time": 121.74621097916668,
              "ticks": 44413
            },
            {
              "number": 1,
              "value": 0.5826771653543307,
              "time": 121.81474170833333,
              "ticks": 44438
            },
            {
              "number": 1,
              "value": 0.49606299212598426,
              "time": 121.83667154166668,
              "ticks": 44446
            },
            {
              "number": 1,
              "value": 0.33858267716535434,
              "time": 121.86134260416668,
              "ticks": 44455
            },
            {
              "number": 1,
              "value": 0.07086614173228346,
              "time": 121.88601366666667,
              "ticks": 44464
            },
            {
              "number": 1,
              "value": 0,
              "time": 121.9079435,
              "ticks": 44472
            },
            {
              "number": 1,
              "value": 0.1968503937007874,
              "time": 122.66726397916668,
              "ticks": 44749
            },
            {
              "number": 1,
              "value": 0.31496062992125984,
              "time": 122.70015872916667,
              "ticks": 44761
            },
            {
              "number": 1,
              "value": 0.3700787401574803,
              "time": 122.7220885625,
              "ticks": 44769
            },
            {
              "number": 1,
              "value": 0.4094488188976378,
              "time": 122.75224208333333,
              "ticks": 44780
            },
            {
              "number": 1,
              "value": 0.4330708661417323,
              "time": 122.77417191666667,
              "ticks": 44788
            },
            {
              "number": 1,
              "value": 0.4566929133858268,
              "time": 122.79884297916668,
              "ticks": 44797
            },
            {
              "number": 1,
              "value": 0.4645669291338583,
              "time": 122.82625527083333,
              "ticks": 44807
            },
            {
              "number": 1,
              "value": 0.4409448818897638,
              "time": 122.85092633333333,
              "ticks": 44816
            },
            {
              "number": 1,
              "value": 0.4251968503937008,
              "time": 122.87285616666668,
              "ticks": 44824
            },
            {
              "number": 1,
              "value": 0.44881889763779526,
              "time": 122.894786,
              "ticks": 44832
            },
            {
              "number": 1,
              "value": 0.4645669291338583,
              "time": 122.92493952083333,
              "ticks": 44843
            },
            {
              "number": 1,
              "value": 0.47244094488188976,
              "time": 122.9523518125,
              "ticks": 44853
            },
            {
              "number": 1,
              "value": 0.48031496062992124,
              "time": 122.9687991875,
              "ticks": 44859
            },
            {
              "number": 1,
              "value": 0.4881889763779528,
              "time": 123.00443516666667,
              "ticks": 44872
            },
            {
              "number": 1,
              "value": 0.49606299212598426,
              "time": 123.02362377083332,
              "ticks": 44879
            },
            {
              "number": 1,
              "value": 0.5039370078740157,
              "time": 123.05651852083334,
              "ticks": 44891
            },
            {
              "number": 1,
              "value": 0.5118110236220472,
              "time": 123.07570712500001,
              "ticks": 44898
            },
            {
              "number": 1,
              "value": 0.5039370078740157,
              "time": 123.11956679166667,
              "ticks": 44914
            },
            {
              "number": 1,
              "value": 0.11811023622047244,
              "time": 123.141496625,
              "ticks": 44922
            },
            {
              "number": 1,
              "value": 0,
              "time": 123.1661676875,
              "ticks": 44931
            },
            {
              "number": 1,
              "value": 0.03937007874015748,
              "time": 158.4786818125,
              "ticks": 57813
            },
            {
              "number": 1,
              "value": 0.07874015748031496,
              "time": 158.4951291875,
              "ticks": 57819
            },
            {
              "number": 1,
              "value": 0.015748031496062992,
              "time": 158.51980025,
              "ticks": 57828
            },
            {
              "number": 1,
              "value": 0.06299212598425197,
              "time": 158.54721254166665,
              "ticks": 57838
            },
            {
              "number": 1,
              "value": 0.12598425196850394,
              "time": 158.57188360416666,
              "ticks": 57847
            },
            {
              "number": 1,
              "value": 0.2125984251968504,
              "time": 158.5938134375,
              "ticks": 57855
            },
            {
              "number": 1,
              "value": 0.2755905511811024,
              "time": 158.62122572916667,
              "ticks": 57865
            },
            {
              "number": 1,
              "value": 0.33858267716535434,
              "time": 158.64589679166667,
              "ticks": 57874
            },
            {
              "number": 1,
              "value": 0.3779527559055118,
              "time": 158.667826625,
              "ticks": 57882
            },
            {
              "number": 1,
              "value": 0.4094488188976378,
              "time": 158.6924976875,
              "ticks": 57891
            },
            {
              "number": 1,
              "value": 0.4251968503937008,
              "time": 158.71990997916666,
              "ticks": 57901
            },
            {
              "number": 1,
              "value": 0.03937007874015748,
              "time": 158.7418398125,
              "ticks": 57909
            },
            {
              "number": 1,
              "value": 0.3858267716535433,
              "time": 158.74732227083334,
              "ticks": 57911
            },
            {
              "number": 1,
              "value": 0.07874015748031496,
              "time": 158.7582871875,
              "ticks": 57915
            },
            {
              "number": 1,
              "value": 0.30708661417322836,
              "time": 158.76925210416667,
              "ticks": 57919
            },
            {
              "number": 1,
              "value": 0.015748031496062992,
              "time": 158.78295825,
              "ticks": 57924
            },
            {
              "number": 1,
              "value": 0.28346456692913385,
              "time": 158.79666439583335,
              "ticks": 57929
            },
            {
              "number": 1,
              "value": 0.06299212598425197,
              "time": 158.81037054166666,
              "ticks": 57934
            },
            {
              "number": 1,
              "value": 0.3228346456692913,
              "time": 158.8240766875,
              "ticks": 57939
            },
            {
              "number": 1,
              "value": 0.12598425196850394,
              "time": 158.83504160416666,
              "ticks": 57943
            },
            {
              "number": 1,
              "value": 0.36220472440944884,
              "time": 158.84326529166665,
              "ticks": 57946
            },
            {
              "number": 1,
              "value": 0.2125984251968504,
              "time": 158.8569714375,
              "ticks": 57951
            },
            {
              "number": 1,
              "value": 0.3858267716535433,
              "time": 158.86793635416666,
              "ticks": 57955
            },
            {
              "number": 1,
              "value": 0.2755905511811024,
              "time": 158.88438372916667,
              "ticks": 57961
            },
            {
              "number": 1,
              "value": 0.4015748031496063,
              "time": 158.8898661875,
              "ticks": 57963
            },
            {
              "number": 1,
              "value": 0.33858267716535434,
              "time": 158.90905479166665,
              "ticks": 57970
            },
            {
              "number": 1,
              "value": 0.3779527559055118,
              "time": 158.930984625,
              "ticks": 57978
            },
            {
              "number": 1,
              "value": 0.4251968503937008,
              "time": 158.93372585416665,
              "ticks": 57979
            },
            {
              "number": 1,
              "value": 0.4094488188976378,
              "time": 158.9556556875,
              "ticks": 57987
            },
            {
              "number": 1,
              "value": 0.48031496062992124,
              "time": 158.963879375,
              "ticks": 57990
            },
            {
              "number": 1,
              "value": 0.4251968503937008,
              "time": 158.98306797916666,
              "ticks": 57997
            },
            {
              "number": 1,
              "value": 0.49606299212598426,
              "time": 158.99129166666665,
              "ticks": 58000
            },
            {
              "number": 1,
              "value": 0.3858267716535433,
              "time": 159.01048027083334,
              "ticks": 58007
            },
            {
              "number": 1,
              "value": 0.30708661417322836,
              "time": 159.03241010416667,
              "ticks": 58015
            },
            {
              "number": 1,
              "value": 0.4645669291338583,
              "time": 159.04063379166666,
              "ticks": 58018
            },
            {
              "number": 1,
              "value": 0.28346456692913385,
              "time": 159.05982239583335,
              "ticks": 58025
            },
            {
              "number": 1,
              "value": 0.48031496062992124,
              "time": 159.07352854166666,
              "ticks": 58030
            },
            {
              "number": 1,
              "value": 0.3228346456692913,
              "time": 159.0872346875,
              "ticks": 58035
            },
            {
              "number": 1,
              "value": 0.5039370078740157,
              "time": 159.09271714583335,
              "ticks": 58037
            },
            {
              "number": 1,
              "value": 0.36220472440944884,
              "time": 159.10642329166666,
              "ticks": 58042
            },
            {
              "number": 1,
              "value": 0.5275590551181102,
              "time": 159.1201294375,
              "ticks": 58047
            },
            {
              "number": 1,
              "value": 0.3858267716535433,
              "time": 159.13109435416666,
              "ticks": 58051
            },
            {
              "number": 1,
              "value": 0.5511811023622047,
              "time": 159.1365768125,
              "ticks": 58053
            },
            {
              "number": 1,
              "value": 0.4015748031496063,
              "time": 159.1530241875,
              "ticks": 58059
            },
            {
              "number": 1,
              "value": 0.5590551181102362,
              "time": 159.17221279166665,
              "ticks": 58066
            },
            {
              "number": 1,
              "value": 0.4094488188976378,
              "time": 159.19688385416666,
              "ticks": 58075
            },
            {
              "number": 1,
              "value": 0.5748031496062992,
              "time": 159.19688385416666,
              "ticks": 58075
            },
            {
              "number": 1,
              "value": 0.4251968503937008,
              "time": 159.20784877083335,
              "ticks": 58079
            },
            {
              "number": 1,
              "value": 0.5905511811023622,
              "time": 159.22155491666666,
              "ticks": 58084
            },
            {
              "number": 1,
              "value": 0.48031496062992124,
              "time": 159.227037375,
              "ticks": 58086
            },
            {
              "number": 1,
              "value": 0.5984251968503937,
              "time": 159.24074352083335,
              "ticks": 58091
            },
            {
              "number": 1,
              "value": 0.49606299212598426,
              "time": 159.25444966666666,
              "ticks": 58096
            },
            {
              "number": 1,
              "value": 0.5826771653543307,
              "time": 159.27089704166667,
              "ticks": 58102
            },
            {
              "number": 1,
              "value": 0.5748031496062992,
              "time": 159.29556810416665,
              "ticks": 58111
            },
            {
              "number": 1,
              "value": 0.4645669291338583,
              "time": 159.30379179166667,
              "ticks": 58114
            },
            {
              "number": 1,
              "value": 0.5984251968503937,
              "time": 159.3174979375,
              "ticks": 58119
            },
            {
              "number": 1,
              "value": 0.48031496062992124,
              "time": 159.33668654166667,
              "ticks": 58126
            },
            {
              "number": 1,
              "value": 0.6141732283464567,
              "time": 159.33942777083334,
              "ticks": 58127
            },
            {
              "number": 1,
              "value": 0.5039370078740157,
              "time": 159.35587514583335,
              "ticks": 58133
            },
            {
              "number": 1,
              "value": 0.5196850393700787,
              "time": 159.37506375,
              "ticks": 58140
            },
            {
              "number": 1,
              "value": 0.5275590551181102,
              "time": 159.3832874375,
              "ticks": 58143
            },
            {
              "number": 1,
              "value": 0.5511811023622047,
              "time": 159.39973481250001,
              "ticks": 58149
            },
            {
              "number": 1,
              "value": 0.4251968503937008,
              "time": 159.4079585,
              "ticks": 58152
            },
            {
              "number": 1,
              "value": 0.41732283464566927,
              "time": 159.4326295625,
              "ticks": 58161
            },
            {
              "number": 1,
              "value": 0.5590551181102362,
              "time": 159.43537079166666,
              "ticks": 58162
            },
            {
              "number": 1,
              "value": 0.48031496062992124,
              "time": 159.457300625,
              "ticks": 58170
            },
            {
              "number": 1,
              "value": 0.5748031496062992,
              "time": 159.46004185416666,
              "ticks": 58171
            },
            {
              "number": 1,
              "value": 0.5905511811023622,
              "time": 159.48471291666667,
              "ticks": 58180
            },
            {
              "number": 1,
              "value": 0.5118110236220472,
              "time": 159.48471291666667,
              "ticks": 58180
            },
            {
              "number": 1,
              "value": 0.5984251968503937,
              "time": 159.50390152083335,
              "ticks": 58187
            },
            {
              "number": 1,
              "value": 0.5196850393700787,
              "time": 159.50664275,
              "ticks": 58188
            },
            {
              "number": 1,
              "value": 0.2992125984251969,
              "time": 159.5313138125,
              "ticks": 58197
            },
            {
              "number": 1,
              "value": 0.5826771653543307,
              "time": 159.53405504166665,
              "ticks": 58198
            },
            {
              "number": 1,
              "value": 0.5748031496062992,
              "time": 159.55872610416665,
              "ticks": 58207
            },
            {
              "number": 1,
              "value": 0.047244094488188976,
              "time": 159.55872610416665,
              "ticks": 58207
            },
            {
              "number": 1,
              "value": 0.5984251968503937,
              "time": 159.5806559375,
              "ticks": 58215
            },
            {
              "number": 1,
              "value": 0,
              "time": 159.58613839583336,
              "ticks": 58217
            },
            {
              "number": 1,
              "value": 0.6141732283464567,
              "time": 159.60258577083334,
              "ticks": 58223
            },
            {
              "number": 1,
              "value": 0.5984251968503937,
              "time": 159.63822175,
              "ticks": 58236
            },
            {
              "number": 1,
              "value": 0.5196850393700787,
              "time": 159.64918666666665,
              "ticks": 58240
            },
            {
              "number": 1,
              "value": 0.4251968503937008,
              "time": 159.6711165,
              "ticks": 58248
            },
            {
              "number": 1,
              "value": 0.41732283464566927,
              "time": 159.69578756250002,
              "ticks": 58257
            },
            {
              "number": 1,
              "value": 0.48031496062992124,
              "time": 159.720458625,
              "ticks": 58266
            },
            {
              "number": 1,
              "value": 0.5118110236220472,
              "time": 159.74787091666667,
              "ticks": 58276
            },
            {
              "number": 1,
              "value": 0.5196850393700787,
              "time": 159.76980075,
              "ticks": 58284
            },
            {
              "number": 1,
              "value": 0.2992125984251969,
              "time": 159.7944718125,
              "ticks": 58293
            },
            {
              "number": 1,
              "value": 0.047244094488188976,
              "time": 159.82188410416666,
              "ticks": 58303
            },
            {
              "number": 1,
              "value": 0,
              "time": 159.84929639583333,
              "ticks": 58313
            },
            {
              "number": 1,
              "value": 0.031496062992125984,
              "time": 160.3290115,
              "ticks": 58488
            },
            {
              "number": 1,
              "value": 0.06299212598425197,
              "time": 160.345458875,
              "ticks": 58494
            },
            {
              "number": 1,
              "value": 0.14960629921259844,
              "time": 160.3701299375,
              "ticks": 58503
            },
            {
              "number": 1,
              "value": 0.23622047244094488,
              "time": 160.39754222916665,
              "ticks": 58513
            },
            {
              "number": 1,
              "value": 0.31496062992125984,
              "time": 160.4194720625,
              "ticks": 58521
            },
            {
              "number": 1,
              "value": 0.3543307086614173,
              "time": 160.44962558333336,
              "ticks": 58532
            },
            {
              "number": 1,
              "value": 0.3779527559055118,
              "time": 160.47155541666666,
              "ticks": 58540
            },
            {
              "number": 1,
              "value": 0.3937007874015748,
              "time": 160.49622647916667,
              "ticks": 58549
            },
            {
              "number": 1,
              "value": 0.4094488188976378,
              "time": 160.52912122916666,
              "ticks": 58561
            },
            {
              "number": 1,
              "value": 0.4251968503937008,
              "time": 160.542827375,
              "ticks": 58566
            },
            {
              "number": 1,
              "value": 0.4409448818897638,
              "time": 160.575722125,
              "ticks": 58578
            },
            {
              "number": 1,
              "value": 0.031496062992125984,
              "time": 160.5921695,
              "ticks": 58584
            },
            {
              "number": 1,
              "value": 0.06299212598425197,
              "time": 160.608616875,
              "ticks": 58590
            },
            {
              "number": 1,
              "value": 0.14960629921259844,
              "time": 160.6332879375,
              "ticks": 58599
            },
            {
              "number": 1,
              "value": 0.44881889763779526,
              "time": 160.6332879375,
              "ticks": 58599
            },
            {
              "number": 1,
              "value": 0.47244094488188976,
              "time": 160.657959,
              "ticks": 58608
            },
            {
              "number": 1,
              "value": 0.23622047244094488,
              "time": 160.66070022916665,
              "ticks": 58609
            },
            {
              "number": 1,
              "value": 0.31496062992125984,
              "time": 160.6826300625,
              "ticks": 58617
            },
            {
              "number": 1,
              "value": 0.4881889763779528,
              "time": 160.69359497916665,
              "ticks": 58621
            },
            {
              "number": 1,
              "value": 0.3543307086614173,
              "time": 160.71278358333333,
              "ticks": 58628
            },
            {
              "number": 1,
              "value": 0.3779527559055118,
              "time": 160.73471341666666,
              "ticks": 58636
            },
            {
              "number": 1,
              "value": 0.5118110236220472,
              "time": 160.73745464583334,
              "ticks": 58637
            },
            {
              "number": 1,
              "value": 0.3937007874015748,
              "time": 160.75938447916667,
              "ticks": 58645
            },
            {
              "number": 1,
              "value": 0.5196850393700787,
              "time": 160.77857308333336,
              "ticks": 58652
            },
            {
              "number": 1,
              "value": 0.4094488188976378,
              "time": 160.79227922916667,
              "ticks": 58657
            },
            {
              "number": 1,
              "value": 0.5275590551181102,
              "time": 160.7977616875,
              "ticks": 58659
            },
            {
              "number": 1,
              "value": 0.4251968503937008,
              "time": 160.805985375,
              "ticks": 58662
            },
            {
              "number": 1,
              "value": 0.5354330708661418,
              "time": 160.81969152083335,
              "ticks": 58667
            },
            {
              "number": 1,
              "value": 0.4409448818897638,
              "time": 160.838880125,
              "ticks": 58674
            },
            {
              "number": 1,
              "value": 0.5511811023622047,
              "time": 160.8471038125,
              "ticks": 58677
            },
            {
              "number": 1,
              "value": 0.5669291338582677,
              "time": 160.871774875,
              "ticks": 58686
            },
            {
              "number": 1,
              "value": 0.44881889763779526,
              "time": 160.8964459375,
              "ticks": 58695
            },
            {
              "number": 1,
              "value": 0.5354330708661418,
              "time": 160.8964459375,
              "ticks": 58695
            },
            {
              "number": 1,
              "value": 0.3228346456692913,
              "time": 160.9128933125,
              "ticks": 58701
            },
            {
              "number": 1,
              "value": 0.4645669291338583,
              "time": 160.921117,
              "ticks": 58704
            },
            {
              "number": 1,
              "value": 0.03937007874015748,
              "time": 160.94030560416667,
              "ticks": 58711
            },
            {
              "number": 1,
              "value": 0.47244094488188976,
              "time": 160.94304683333334,
              "ticks": 58712
            },
            {
              "number": 1,
              "value": 0.4881889763779528,
              "time": 160.95675297916665,
              "ticks": 58717
            },
            {
              "number": 1,
              "value": 0,
              "time": 160.96497666666667,
              "ticks": 58720
            },
            {
              "number": 1,
              "value": 0.49606299212598426,
              "time": 161.00061264583334,
              "ticks": 58733
            },
            {
              "number": 1,
              "value": 0.5118110236220472,
              "time": 161.01431879166665,
              "ticks": 58738
            },
            {
              "number": 1,
              "value": 0.5196850393700787,
              "time": 161.04173108333333,
              "ticks": 58748
            },
            {
              "number": 1,
              "value": 0.5275590551181102,
              "time": 161.0609196875,
              "ticks": 58755
            },
            {
              "number": 1,
              "value": 0.5354330708661418,
              "time": 161.08284952083335,
              "ticks": 58763
            },
            {
              "number": 1,
              "value": 0.5511811023622047,
              "time": 161.1102618125,
              "ticks": 58773
            },
            {
              "number": 1,
              "value": 0.5669291338582677,
              "time": 161.134932875,
              "ticks": 58782
            },
            {
              "number": 1,
              "value": 0.5354330708661418,
              "time": 161.1596039375,
              "ticks": 58791
            },
            {
              "number": 1,
              "value": 0.3228346456692913,
              "time": 161.1760513125,
              "ticks": 58797
            },
            {
              "number": 1,
              "value": 0.03937007874015748,
              "time": 161.20346360416667,
              "ticks": 58807
            },
            {
              "number": 1,
              "value": 0,
              "time": 161.22813466666665,
              "ticks": 58816
            },
            {
              "number": 1,
              "value": 0.1889763779527559,
              "time": 163.63767510416665,
              "ticks": 59695
            },
            {
              "number": 1,
              "value": 0.10236220472440945,
              "time": 163.65412247916666,
              "ticks": 59701
            },
            {
              "number": 1,
              "value": 0.023622047244094488,
              "time": 163.67879354166666,
              "ticks": 59710
            },
            {
              "number": 1,
              "value": 0,
              "time": 163.700723375,
              "ticks": 59718
            },
            {
              "number": 1,
              "value": 0.1889763779527559,
              "time": 163.90083310416665,
              "ticks": 59791
            },
            {
              "number": 1,
              "value": 0.10236220472440945,
              "time": 163.91728047916666,
              "ticks": 59797
            },
            {
              "number": 1,
              "value": 0.023622047244094488,
              "time": 163.94195154166667,
              "ticks": 59806
            },
            {
              "number": 1,
              "value": 0,
              "time": 163.963881375,
              "ticks": 59814
            },
            {
              "number": 1,
              "value": 0.07086614173228346,
              "time": 165.04392566666667,
              "ticks": 60208
            },
            {
              "number": 1,
              "value": 0.2204724409448819,
              "time": 165.06037304166665,
              "ticks": 60214
            },
            {
              "number": 1,
              "value": 0.31496062992125984,
              "time": 165.08504410416666,
              "ticks": 60223
            },
            {
              "number": 1,
              "value": 0.3700787401574803,
              "time": 165.10971516666666,
              "ticks": 60232
            },
            {
              "number": 1,
              "value": 0.3858267716535433,
              "time": 165.13712745833334,
              "ticks": 60242
            },
            {
              "number": 1,
              "value": 0.4094488188976378,
              "time": 165.16179852083334,
              "ticks": 60251
            },
            {
              "number": 1,
              "value": 0.4330708661417323,
              "time": 165.20017572916666,
              "ticks": 60265
            },
            {
              "number": 1,
              "value": 0.4566929133858268,
              "time": 165.27418891666665,
              "ticks": 60292
            },
            {
              "number": 1,
              "value": 0.07086614173228346,
              "time": 165.30708366666667,
              "ticks": 60304
            },
            {
              "number": 1,
              "value": 0.48031496062992124,
              "time": 165.30708366666667,
              "ticks": 60304
            },
            {
              "number": 1,
              "value": 0.2204724409448819,
              "time": 165.32353104166666,
              "ticks": 60310
            },
            {
              "number": 1,
              "value": 0.49606299212598426,
              "time": 165.3290135,
              "ticks": 60312
            },
            {
              "number": 1,
              "value": 0.31496062992125984,
              "time": 165.34820210416666,
              "ticks": 60319
            },
            {
              "number": 1,
              "value": 0.5118110236220472,
              "time": 165.3701319375,
              "ticks": 60327
            },
            {
              "number": 1,
              "value": 0.3700787401574803,
              "time": 165.37287316666666,
              "ticks": 60328
            },
            {
              "number": 1,
              "value": 0,
              "time": 165.394803,
              "ticks": 60336
            },
            {
              "number": 1,
              "value": 0.3858267716535433,
              "time": 165.40028545833334,
              "ticks": 60338
            },
            {
              "number": 1,
              "value": 0.4094488188976378,
              "time": 165.42495652083335,
              "ticks": 60347
            },
            {
              "number": 1,
              "value": 0.41732283464566927,
              "time": 165.46333372916666,
              "ticks": 60361
            },
            {
              "number": 1,
              "value": 0.4330708661417323,
              "time": 165.47429864583336,
              "ticks": 60365
            },
            {
              "number": 1,
              "value": 0.4409448818897638,
              "time": 165.53734691666665,
              "ticks": 60388
            },
            {
              "number": 1,
              "value": 0.4566929133858268,
              "time": 165.5510530625,
              "ticks": 60393
            },
            {
              "number": 1,
              "value": 0.48031496062992124,
              "time": 165.57024166666665,
              "ticks": 60400
            },
            {
              "number": 1,
              "value": 0.49606299212598426,
              "time": 165.5921715,
              "ticks": 60408
            },
            {
              "number": 1,
              "value": 0.5039370078740157,
              "time": 165.6332899375,
              "ticks": 60423
            },
            {
              "number": 1,
              "value": 0.5118110236220472,
              "time": 165.64699608333333,
              "ticks": 60428
            },
            {
              "number": 1,
              "value": 0,
              "time": 165.657961,
              "ticks": 60432
            },
            {
              "number": 1,
              "value": 0.09448818897637795,
              "time": 166.58997891666667,
              "ticks": 60772
            },
            {
              "number": 1,
              "value": 0.14960629921259844,
              "time": 166.61464997916667,
              "ticks": 60781
            },
            {
              "number": 1,
              "value": 0.18110236220472442,
              "time": 166.6365798125,
              "ticks": 60789
            },
            {
              "number": 1,
              "value": 0.16535433070866143,
              "time": 166.6694745625,
              "ticks": 60801
            },
            {
              "number": 1,
              "value": 0.18110236220472442,
              "time": 166.694145625,
              "ticks": 60810
            },
            {
              "number": 1,
              "value": 0.1889763779527559,
              "time": 166.71333422916666,
              "ticks": 60817
            },
            {
              "number": 1,
              "value": 0.2125984251968504,
              "time": 166.7352640625,
              "ticks": 60825
            },
            {
              "number": 1,
              "value": 0.2440944881889764,
              "time": 166.76267635416667,
              "ticks": 60835
            },
            {
              "number": 1,
              "value": 0.25984251968503935,
              "time": 166.79008864583335,
              "ticks": 60845
            },
            {
              "number": 1,
              "value": 0.2677165354330709,
              "time": 166.82298339583335,
              "ticks": 60857
            },
            {
              "number": 1,
              "value": 0.28346456692913385,
              "time": 166.84491322916665,
              "ticks": 60865
            },
            {
              "number": 1,
              "value": 0.09448818897637795,
              "time": 166.85313691666667,
              "ticks": 60868
            },
            {
              "number": 1,
              "value": 0.3228346456692913,
              "time": 166.858619375,
              "ticks": 60870
            },
            {
              "number": 1,
              "value": 0.14960629921259844,
              "time": 166.87780797916665,
              "ticks": 60877
            },
            {
              "number": 1,
              "value": 0.25196850393700787,
              "time": 166.89151412500001,
              "ticks": 60882
            },
            {
              "number": 1,
              "value": 0.18110236220472442,
              "time": 166.8997378125,
              "ticks": 60885
            },
            {
              "number": 1,
              "value": 0.18110236220472442,
              "time": 166.91070272916667,
              "ticks": 60889
            },
            {
              "number": 1,
              "value": 0.16535433070866143,
              "time": 166.9326325625,
              "ticks": 60897
            },
            {
              "number": 1,
              "value": 0.2204724409448819,
              "time": 166.93811502083335,
              "ticks": 60899
            },
            {
              "number": 1,
              "value": 0.18110236220472442,
              "time": 166.957303625,
              "ticks": 60906
            },
            {
              "number": 1,
              "value": 0.2677165354330709,
              "time": 166.96004485416665,
              "ticks": 60907
            },
            {
              "number": 1,
              "value": 0.1889763779527559,
              "time": 166.97649222916667,
              "ticks": 60913
            },
            {
              "number": 1,
              "value": 0.30708661417322836,
              "time": 166.98471591666666,
              "ticks": 60916
            },
            {
              "number": 1,
              "value": 0.2125984251968504,
              "time": 166.9984220625,
              "ticks": 60921
            },
            {
              "number": 1,
              "value": 0.3543307086614173,
              "time": 167.00938697916666,
              "ticks": 60925
            },
            {
              "number": 1,
              "value": 0.2440944881889764,
              "time": 167.02583435416665,
              "ticks": 60931
            },
            {
              "number": 1,
              "value": 0.3937007874015748,
              "time": 167.0313168125,
              "ticks": 60933
            },
            {
              "number": 1,
              "value": 0.25984251968503935,
              "time": 167.05324664583335,
              "ticks": 60941
            },
            {
              "number": 1,
              "value": 0.3779527559055118,
              "time": 167.06147033333335,
              "ticks": 60944
            },
            {
              "number": 1,
              "value": 0.3858267716535433,
              "time": 167.08340016666665,
              "ticks": 60952
            },
            {
              "number": 1,
              "value": 0.2677165354330709,
              "time": 167.08614139583335,
              "ticks": 60953
            },
            {
              "number": 1,
              "value": 0.28346456692913385,
              "time": 167.10807122916665,
              "ticks": 60961
            },
            {
              "number": 1,
              "value": 0.4094488188976378,
              "time": 167.10807122916665,
              "ticks": 60961
            },
            {
              "number": 1,
              "value": 0.3228346456692913,
              "time": 167.121777375,
              "ticks": 60966
            },
            {
              "number": 1,
              "value": 0.41732283464566927,
              "time": 167.14096597916665,
              "ticks": 60973
            },
            {
              "number": 1,
              "value": 0.25196850393700787,
              "time": 167.154672125,
              "ticks": 60978
            },
            {
              "number": 1,
              "value": 0.33858267716535434,
              "time": 167.154672125,
              "ticks": 60978
            },
            {
              "number": 1,
              "value": 0.18110236220472442,
              "time": 167.17386072916665,
              "ticks": 60985
            },
            {
              "number": 1,
              "value": 0.31496062992125984,
              "time": 167.18208441666667,
              "ticks": 60988
            },
            {
              "number": 1,
              "value": 0.2204724409448819,
              "time": 167.20127302083336,
              "ticks": 60995
            },
            {
              "number": 1,
              "value": 0.2677165354330709,
              "time": 167.22320285416666,
              "ticks": 61003
            },
            {
              "number": 1,
              "value": 0.36220472440944884,
              "time": 167.22320285416666,
              "ticks": 61003
            },
            {
              "number": 1,
              "value": 0.30708661417322836,
              "time": 167.24787391666666,
              "ticks": 61012
            },
            {
              "number": 1,
              "value": 0.3779527559055118,
              "time": 167.26980375,
              "ticks": 61020
            },
            {
              "number": 1,
              "value": 0.3543307086614173,
              "time": 167.27254497916667,
              "ticks": 61021
            },
            {
              "number": 1,
              "value": 0.3937007874015748,
              "time": 167.2944748125,
              "ticks": 61029
            },
            {
              "number": 1,
              "value": 0.3937007874015748,
              "time": 167.29721604166667,
              "ticks": 61030
            },
            {
              "number": 1,
              "value": 0.3779527559055118,
              "time": 167.32462833333335,
              "ticks": 61040
            },
            {
              "number": 1,
              "value": 0.4015748031496063,
              "time": 167.33833447916666,
              "ticks": 61045
            },
            {
              "number": 1,
              "value": 0.3858267716535433,
              "time": 167.34655816666665,
              "ticks": 61048
            },
            {
              "number": 1,
              "value": 0.4094488188976378,
              "time": 167.37122922916666,
              "ticks": 61057
            },
            {
              "number": 1,
              "value": 0.4330708661417323,
              "time": 167.37397045833333,
              "ticks": 61058
            },
            {
              "number": 1,
              "value": 0.41732283464566927,
              "time": 167.40412397916666,
              "ticks": 61069
            },
            {
              "number": 1,
              "value": 0.4094488188976378,
              "time": 167.41508889583335,
              "ticks": 61073
            },
            {
              "number": 1,
              "value": 0.33858267716535434,
              "time": 167.417830125,
              "ticks": 61074
            },
            {
              "number": 1,
              "value": 0.4251968503937008,
              "time": 167.4425011875,
              "ticks": 61083
            },
            {
              "number": 1,
              "value": 0.31496062992125984,
              "time": 167.44524241666664,
              "ticks": 61084
            },
            {
              "number": 1,
              "value": 0.41732283464566927,
              "time": 167.47813716666667,
              "ticks": 61096
            },
            {
              "number": 1,
              "value": 0.3228346456692913,
              "time": 167.48636085416666,
              "ticks": 61099
            },
            {
              "number": 1,
              "value": 0.36220472440944884,
              "time": 167.4918433125,
              "ticks": 61101
            },
            {
              "number": 1,
              "value": 0.44881889763779526,
              "time": 167.500067,
              "ticks": 61104
            },
            {
              "number": 1,
              "value": 0.3779527559055118,
              "time": 167.53296175,
              "ticks": 61116
            },
            {
              "number": 1,
              "value": 0.4094488188976378,
              "time": 167.53296175,
              "ticks": 61116
            },
            {
              "number": 1,
              "value": 0.3228346456692913,
              "time": 167.55215035416666,
              "ticks": 61123
            },
            {
              "number": 1,
              "value": 0.3858267716535433,
              "time": 167.56037404166665,
              "ticks": 61126
            },
            {
              "number": 1,
              "value": 0.3937007874015748,
              "time": 167.57133895833334,
              "ticks": 61130
            },
            {
              "number": 1,
              "value": 0.2755905511811024,
              "time": 167.57682141666666,
              "ticks": 61132
            },
            {
              "number": 1,
              "value": 0.4015748031496063,
              "time": 167.60149247916667,
              "ticks": 61141
            },
            {
              "number": 1,
              "value": 0.33858267716535434,
              "time": 167.615198625,
              "ticks": 61146
            },
            {
              "number": 1,
              "value": 0.4094488188976378,
              "time": 167.63712845833334,
              "ticks": 61154
            },
            {
              "number": 1,
              "value": 0.4330708661417323,
              "time": 167.64261091666665,
              "ticks": 61156
            },
            {
              "number": 1,
              "value": 0.3779527559055118,
              "time": 167.65083460416665,
              "ticks": 61159
            },
            {
              "number": 1,
              "value": 0.4015748031496063,
              "time": 167.67550566666665,
              "ticks": 61168
            },
            {
              "number": 1,
              "value": 0.4094488188976378,
              "time": 167.67824689583335,
              "ticks": 61169
            },
            {
              "number": 1,
              "value": 0.41732283464566927,
              "time": 167.70291795833336,
              "ticks": 61178
            },
            {
              "number": 1,
              "value": 0.4251968503937008,
              "time": 167.7056591875,
              "ticks": 61179
            },
            {
              "number": 1,
              "value": 0.41732283464566927,
              "time": 167.74129516666665,
              "ticks": 61192
            },
            {
              "number": 1,
              "value": 0.4330708661417323,
              "time": 167.74951885416667,
              "ticks": 61195
            },
            {
              "number": 1,
              "value": 0.44881889763779526,
              "time": 167.763225,
              "ticks": 61200
            },
            {
              "number": 1,
              "value": 0.4094488188976378,
              "time": 167.79611975,
              "ticks": 61212
            },
            {
              "number": 1,
              "value": 0.3228346456692913,
              "time": 167.81530835416666,
              "ticks": 61219
            },
            {
              "number": 1,
              "value": 0.2755905511811024,
              "time": 167.83997941666667,
              "ticks": 61228
            },
            {
              "number": 1,
              "value": 0.2992125984251969,
              "time": 167.878356625,
              "ticks": 61242
            },
            {
              "number": 1,
              "value": 0.33858267716535434,
              "time": 167.88932154166665,
              "ticks": 61246
            },
            {
              "number": 1,
              "value": 0.4566929133858268,
              "time": 167.89754522916667,
              "ticks": 61249
            },
            {
              "number": 1,
              "value": 0.3779527559055118,
              "time": 167.91399260416665,
              "ticks": 61255
            },
            {
              "number": 1,
              "value": 0.48031496062992124,
              "time": 167.92221629166667,
              "ticks": 61258
            },
            {
              "number": 1,
              "value": 0.4015748031496063,
              "time": 167.93866366666666,
              "ticks": 61264
            },
            {
              "number": 1,
              "value": 0.5039370078740157,
              "time": 167.94688735416665,
              "ticks": 61267
            },
            {
              "number": 1,
              "value": 0.41732283464566927,
              "time": 167.96607595833333,
              "ticks": 61274
            },
            {
              "number": 1,
              "value": 0.5196850393700787,
              "time": 167.99074702083334,
              "ticks": 61283
            },
            {
              "number": 1,
              "value": 0.4330708661417323,
              "time": 168.01267685416667,
              "ticks": 61291
            },
            {
              "number": 1,
              "value": 0.5354330708661418,
              "time": 168.02090054166666,
              "ticks": 61294
            },
            {
              "number": 1,
              "value": 0.5511811023622047,
              "time": 168.07846635416666,
              "ticks": 61315
            },
            {
              "number": 1,
              "value": 0.5590551181102362,
              "time": 168.10313741666667,
              "ticks": 61324
            },
            {
              "number": 1,
              "value": 0.5275590551181102,
              "time": 168.1168435625,
              "ticks": 61329
            },
            {
              "number": 1,
              "value": 0.49606299212598426,
              "time": 168.14699708333333,
              "ticks": 61340
            },
            {
              "number": 1,
              "value": 0.4566929133858268,
              "time": 168.16070322916667,
              "ticks": 61345
            },
            {
              "number": 1,
              "value": 0.4409448818897638,
              "time": 168.1661856875,
              "ticks": 61347
            },
            {
              "number": 1,
              "value": 0.48031496062992124,
              "time": 168.18537429166665,
              "ticks": 61354
            },
            {
              "number": 1,
              "value": 0.4330708661417323,
              "time": 168.19359797916667,
              "ticks": 61357
            },
            {
              "number": 1,
              "value": 0.5039370078740157,
              "time": 168.21004535416665,
              "ticks": 61363
            },
            {
              "number": 1,
              "value": 0.4015748031496063,
              "time": 168.2237515,
              "ticks": 61368
            },
            {
              "number": 1,
              "value": 0.33070866141732286,
              "time": 168.240198875,
              "ticks": 61374
            },
            {
              "number": 1,
              "value": 0.49606299212598426,
              "time": 168.25390502083334,
              "ticks": 61379
            },
            {
              "number": 1,
              "value": 0.15748031496062992,
              "time": 168.2648699375,
              "ticks": 61383
            },
            {
              "number": 1,
              "value": 0.5196850393700787,
              "time": 168.26761116666665,
              "ticks": 61384
            },
            {
              "number": 1,
              "value": 0.5354330708661418,
              "time": 168.28405854166667,
              "ticks": 61390
            },
            {
              "number": 1,
              "value": 0.023622047244094488,
              "time": 168.29228222916666,
              "ticks": 61393
            },
            {
              "number": 1,
              "value": 0,
              "time": 168.3142120625,
              "ticks": 61401
            },
            {
              "number": 1,
              "value": 0.5511811023622047,
              "time": 168.34162435416667,
              "ticks": 61411
            },
            {
              "number": 1,
              "value": 0.5590551181102362,
              "time": 168.36629541666665,
              "ticks": 61420
            },
            {
              "number": 1,
              "value": 0.5275590551181102,
              "time": 168.3800015625,
              "ticks": 61425
            },
            {
              "number": 1,
              "value": 0.49606299212598426,
              "time": 168.41015508333334,
              "ticks": 61436
            },
            {
              "number": 1,
              "value": 0.4409448818897638,
              "time": 168.4293436875,
              "ticks": 61443
            },
            {
              "number": 1,
              "value": 0.4330708661417323,
              "time": 168.45675597916667,
              "ticks": 61453
            },
            {
              "number": 1,
              "value": 0.4015748031496063,
              "time": 168.4869095,
              "ticks": 61464
            },
            {
              "number": 1,
              "value": 0.33070866141732286,
              "time": 168.503356875,
              "ticks": 61470
            },
            {
              "number": 1,
              "value": 0.15748031496062992,
              "time": 168.5280279375,
              "ticks": 61479
            },
            {
              "number": 1,
              "value": 0.023622047244094488,
              "time": 168.55544022916666,
              "ticks": 61489
            },
            {
              "number": 1,
              "value": 0,
              "time": 168.5773700625,
              "ticks": 61497
            },
            {
              "number": 1,
              "value": 0.07874015748031496,
              "time": 169.128357125,
              "ticks": 61698
            },
            {
              "number": 1,
              "value": 0.13385826771653545,
              "time": 169.15851064583333,
              "ticks": 61709
            },
            {
              "number": 1,
              "value": 0.16535433070866143,
              "time": 169.18044047916666,
              "ticks": 61717
            },
            {
              "number": 1,
              "value": 0.2125984251968504,
              "time": 169.20511154166667,
              "ticks": 61726
            },
            {
              "number": 1,
              "value": 0.25984251968503935,
              "time": 169.227041375,
              "ticks": 61734
            },
            {
              "number": 1,
              "value": 0.30708661417322836,
              "time": 169.2517124375,
              "ticks": 61743
            },
            {
              "number": 1,
              "value": 0.31496062992125984,
              "time": 169.27912472916665,
              "ticks": 61753
            },
            {
              "number": 1,
              "value": 0.2992125984251969,
              "time": 169.33669054166666,
              "ticks": 61774
            },
            {
              "number": 1,
              "value": 0.2755905511811024,
              "time": 169.35587914583334,
              "ticks": 61781
            },
            {
              "number": 1,
              "value": 0.2677165354330709,
              "time": 169.37506775,
              "ticks": 61788
            },
            {
              "number": 1,
              "value": 0.07874015748031496,
              "time": 169.391515125,
              "ticks": 61794
            },
            {
              "number": 1,
              "value": 0.25984251968503935,
              "time": 169.40522127083335,
              "ticks": 61799
            },
            {
              "number": 1,
              "value": 0.13385826771653545,
              "time": 169.42166864583334,
              "ticks": 61805
            },
            {
              "number": 1,
              "value": 0.2755905511811024,
              "time": 169.4326335625,
              "ticks": 61809
            },
            {
              "number": 1,
              "value": 0.16535433070866143,
              "time": 169.44359847916667,
              "ticks": 61813
            },
            {
              "number": 1,
              "value": 0.2992125984251969,
              "time": 169.45456339583333,
              "ticks": 61817
            },
            {
              "number": 1,
              "value": 0.2125984251968504,
              "time": 169.46826954166667,
              "ticks": 61822
            },
            {
              "number": 1,
              "value": 0.3228346456692913,
              "time": 169.47923445833334,
              "ticks": 61826
            },
            {
              "number": 1,
              "value": 0.25984251968503935,
              "time": 169.490199375,
              "ticks": 61830
            },
            {
              "number": 1,
              "value": 0.30708661417322836,
              "time": 169.5148704375,
              "ticks": 61839
            },
            {
              "number": 1,
              "value": 0.3464566929133858,
              "time": 169.51761166666665,
              "ticks": 61840
            },
            {
              "number": 1,
              "value": 0.31496062992125984,
              "time": 169.54228272916666,
              "ticks": 61849
            },
            {
              "number": 1,
              "value": 0.2992125984251969,
              "time": 169.59984854166666,
              "ticks": 61870
            },
            {
              "number": 1,
              "value": 0.3858267716535433,
              "time": 169.59984854166666,
              "ticks": 61870
            },
            {
              "number": 1,
              "value": 0.2755905511811024,
              "time": 169.61903714583335,
              "ticks": 61877
            },
            {
              "number": 1,
              "value": 0.4015748031496063,
              "time": 169.621778375,
              "ticks": 61878
            },
            {
              "number": 1,
              "value": 0.2677165354330709,
              "time": 169.63822575,
              "ticks": 61884
            },
            {
              "number": 1,
              "value": 0.4094488188976378,
              "time": 169.6464494375,
              "ticks": 61887
            },
            {
              "number": 1,
              "value": 0.25984251968503935,
              "time": 169.66837927083336,
              "ticks": 61895
            },
            {
              "number": 1,
              "value": 0.4015748031496063,
              "time": 169.67386172916665,
              "ticks": 61897
            },
            {
              "number": 1,
              "value": 0.2755905511811024,
              "time": 169.6957915625,
              "ticks": 61905
            },
            {
              "number": 1,
              "value": 0.4251968503937008,
              "time": 169.69853279166665,
              "ticks": 61906
            },
            {
              "number": 1,
              "value": 0.2992125984251969,
              "time": 169.71772139583334,
              "ticks": 61913
            },
            {
              "number": 1,
              "value": 0.4409448818897638,
              "time": 169.720462625,
              "ticks": 61914
            },
            {
              "number": 1,
              "value": 0.3228346456692913,
              "time": 169.74239245833334,
              "ticks": 61922
            },
            {
              "number": 1,
              "value": 0.4330708661417323,
              "time": 169.77254597916667,
              "ticks": 61933
            },
            {
              "number": 1,
              "value": 0.33070866141732286,
              "time": 169.78076966666666,
              "ticks": 61936
            },
            {
              "number": 1,
              "value": 0.3464566929133858,
              "time": 169.786252125,
              "ticks": 61938
            },
            {
              "number": 1,
              "value": 0.4409448818897638,
              "time": 169.819146875,
              "ticks": 61950
            },
            {
              "number": 1,
              "value": 0.3858267716535433,
              "time": 169.86300654166666,
              "ticks": 61966
            },
            {
              "number": 1,
              "value": 0.4645669291338583,
              "time": 169.868489,
              "ticks": 61968
            },
            {
              "number": 1,
              "value": 0.4015748031496063,
              "time": 169.884936375,
              "ticks": 61974
            },
            {
              "number": 1,
              "value": 0.48031496062992124,
              "time": 169.89316006250002,
              "ticks": 61977
            },
            {
              "number": 1,
              "value": 0.4094488188976378,
              "time": 169.9096074375,
              "ticks": 61983
            },
            {
              "number": 1,
              "value": 0.4015748031496063,
              "time": 169.93701972916665,
              "ticks": 61993
            },
            {
              "number": 1,
              "value": 0.3937007874015748,
              "time": 169.94524341666667,
              "ticks": 61996
            },
            {
              "number": 1,
              "value": 0.4251968503937008,
              "time": 169.96169079166665,
              "ticks": 62002
            },
            {
              "number": 1,
              "value": 0.10236220472440945,
              "time": 169.96717325,
              "ticks": 62004
            },
            {
              "number": 1,
              "value": 0.4409448818897638,
              "time": 169.98362062500001,
              "ticks": 62010
            },
            {
              "number": 1,
              "value": 0,
              "time": 169.9918443125,
              "ticks": 62013
            },
            {
              "number": 1,
              "value": 0.4330708661417323,
              "time": 170.03570397916667,
              "ticks": 62029
            },
            {
              "number": 1,
              "value": 0.4409448818897638,
              "time": 170.082304875,
              "ticks": 62046
            },
            {
              "number": 1,
              "value": 0.4645669291338583,
              "time": 170.13164700000002,
              "ticks": 62064
            },
            {
              "number": 1,
              "value": 0.48031496062992124,
              "time": 170.1563180625,
              "ticks": 62073
            },
            {
              "number": 1,
              "value": 0.3937007874015748,
              "time": 170.20840141666665,
              "ticks": 62092
            },
            {
              "number": 1,
              "value": 0.10236220472440945,
              "time": 170.23033125,
              "ticks": 62100
            },
            {
              "number": 1,
              "value": 0,
              "time": 170.2550023125,
              "ticks": 62109
            },
            {
              "number": 1,
              "value": 0.07874015748031496,
              "time": 171.00609910416665,
              "ticks": 62383
            },
            {
              "number": 1,
              "value": 0.15748031496062992,
              "time": 171.0280289375,
              "ticks": 62391
            },
            {
              "number": 1,
              "value": 0.25984251968503935,
              "time": 171.05270000000002,
              "ticks": 62400
            },
            {
              "number": 1,
              "value": 0.3464566929133858,
              "time": 171.0773710625,
              "ticks": 62409
            },
            {
              "number": 1,
              "value": 0.3779527559055118,
              "time": 171.10478335416667,
              "ticks": 62419
            },
            {
              "number": 1,
              "value": 0.36220472440944884,
              "time": 171.134936875,
              "ticks": 62430
            },
            {
              "number": 1,
              "value": 0.36220472440944884,
              "time": 171.15412547916665,
              "ticks": 62437
            },
            {
              "number": 1,
              "value": 0.3700787401574803,
              "time": 171.17879654166666,
              "ticks": 62446
            },
            {
              "number": 1,
              "value": 0.33858267716535434,
              "time": 171.20346760416666,
              "ticks": 62455
            },
            {
              "number": 1,
              "value": 0.28346456692913385,
              "time": 171.22813866666667,
              "ticks": 62464
            },
            {
              "number": 1,
              "value": 0.07874015748031496,
              "time": 171.26925710416666,
              "ticks": 62479
            },
            {
              "number": 1,
              "value": 0.3228346456692913,
              "time": 171.27199833333336,
              "ticks": 62480
            },
            {
              "number": 1,
              "value": 0.15748031496062992,
              "time": 171.29118693750002,
              "ticks": 62487
            },
            {
              "number": 1,
              "value": 0.3464566929133858,
              "time": 171.299410625,
              "ticks": 62490
            },
            {
              "number": 1,
              "value": 0.25984251968503935,
              "time": 171.315858,
              "ticks": 62496
            },
            {
              "number": 1,
              "value": 0.3700787401574803,
              "time": 171.32682291666666,
              "ticks": 62500
            },
            {
              "number": 1,
              "value": 0.3464566929133858,
              "time": 171.3405290625,
              "ticks": 62505
            },
            {
              "number": 1,
              "value": 0.3858267716535433,
              "time": 171.35423520833334,
              "ticks": 62510
            },
            {
              "number": 1,
              "value": 0.3779527559055118,
              "time": 171.36794135416665,
              "ticks": 62515
            },
            {
              "number": 1,
              "value": 0.33858267716535434,
              "time": 171.37616504166667,
              "ticks": 62518
            },
            {
              "number": 1,
              "value": 0.36220472440944884,
              "time": 171.398094875,
              "ticks": 62526
            },
            {
              "number": 1,
              "value": 0.3228346456692913,
              "time": 171.398094875,
              "ticks": 62526
            },
            {
              "number": 1,
              "value": 0.36220472440944884,
              "time": 171.41728347916666,
              "ticks": 62533
            },
            {
              "number": 1,
              "value": 0.33070866141732286,
              "time": 171.43647208333334,
              "ticks": 62540
            },
            {
              "number": 1,
              "value": 0.3700787401574803,
              "time": 171.44195454166666,
              "ticks": 62542
            },
            {
              "number": 1,
              "value": 0.29133858267716534,
              "time": 171.447437,
              "ticks": 62544
            },
            {
              "number": 1,
              "value": 0.33858267716535434,
              "time": 171.46662560416667,
              "ticks": 62551
            },
            {
              "number": 1,
              "value": 0.2440944881889764,
              "time": 171.47484929166666,
              "ticks": 62554
            },
            {
              "number": 1,
              "value": 0.28346456692913385,
              "time": 171.49129666666667,
              "ticks": 62560
            },
            {
              "number": 1,
              "value": 0.2204724409448819,
              "time": 171.49952035416666,
              "ticks": 62563
            },
            {
              "number": 1,
              "value": 0.25196850393700787,
              "time": 171.53241510416666,
              "ticks": 62575
            },
            {
              "number": 1,
              "value": 0.29133858267716534,
              "time": 171.53515633333333,
              "ticks": 62576
            },
            {
              "number": 1,
              "value": 0.3228346456692913,
              "time": 171.54063879166665,
              "ticks": 62578
            },
            {
              "number": 1,
              "value": 0.28346456692913385,
              "time": 171.54886247916667,
              "ticks": 62581
            },
            {
              "number": 1,
              "value": 0.3464566929133858,
              "time": 171.562568625,
              "ticks": 62586
            },
            {
              "number": 1,
              "value": 0.31496062992125984,
              "time": 171.57353354166665,
              "ticks": 62590
            },
            {
              "number": 1,
              "value": 0.3700787401574803,
              "time": 171.58998091666666,
              "ticks": 62596
            },
            {
              "number": 1,
              "value": 0.3464566929133858,
              "time": 171.59820460416665,
              "ticks": 62599
            },
            {
              "number": 1,
              "value": 0.3858267716535433,
              "time": 171.61739320833334,
              "ticks": 62606
            },
            {
              "number": 1,
              "value": 0.3779527559055118,
              "time": 171.62561689583333,
              "ticks": 62609
            },
            {
              "number": 1,
              "value": 0.33858267716535434,
              "time": 171.63932304166667,
              "ticks": 62614
            },
            {
              "number": 1,
              "value": 0.3937007874015748,
              "time": 171.64754672916666,
              "ticks": 62617
            },
            {
              "number": 1,
              "value": 0.3228346456692913,
              "time": 171.661252875,
              "ticks": 62622
            },
            {
              "number": 1,
              "value": 0.4094488188976378,
              "time": 171.67221779166667,
              "ticks": 62626
            },
            {
              "number": 1,
              "value": 0.4094488188976378,
              "time": 171.69688885416664,
              "ticks": 62635
            },
            {
              "number": 1,
              "value": 0.33070866141732286,
              "time": 171.69963008333335,
              "ticks": 62636
            },
            {
              "number": 1,
              "value": 0.29133858267716534,
              "time": 171.710595,
              "ticks": 62640
            },
            {
              "number": 1,
              "value": 0.2440944881889764,
              "time": 171.73800729166666,
              "ticks": 62650
            },
            {
              "number": 1,
              "value": 0.4251968503937008,
              "time": 171.74623097916665,
              "ticks": 62653
            },
            {
              "number": 1,
              "value": 0.2204724409448819,
              "time": 171.76267835416667,
              "ticks": 62659
            },
            {
              "number": 1,
              "value": 0.25196850393700787,
              "time": 171.79557310416666,
              "ticks": 62671
            },
            {
              "number": 1,
              "value": 0.4330708661417323,
              "time": 171.8010555625,
              "ticks": 62673
            },
            {
              "number": 1,
              "value": 0.28346456692913385,
              "time": 171.81202047916665,
              "ticks": 62677
            },
            {
              "number": 1,
              "value": 0.4330708661417323,
              "time": 171.8175029375,
              "ticks": 62679
            },
            {
              "number": 1,
              "value": 0.31496062992125984,
              "time": 171.83669154166665,
              "ticks": 62686
            },
            {
              "number": 1,
              "value": 0.44881889763779526,
              "time": 171.85588014583334,
              "ticks": 62693
            },
            {
              "number": 1,
              "value": 0.3464566929133858,
              "time": 171.86136260416666,
              "ticks": 62695
            },
            {
              "number": 1,
              "value": 0.3779527559055118,
              "time": 171.88877489583334,
              "ticks": 62705
            },
            {
              "number": 1,
              "value": 0.44881889763779526,
              "time": 171.89699858333336,
              "ticks": 62708
            },
            {
              "number": 1,
              "value": 0.3937007874015748,
              "time": 171.91070472916667,
              "ticks": 62713
            },
            {
              "number": 1,
              "value": 0.44881889763779526,
              "time": 171.9326345625,
              "ticks": 62721
            },
            {
              "number": 1,
              "value": 0.4094488188976378,
              "time": 171.93537579166667,
              "ticks": 62722
            },
            {
              "number": 1,
              "value": 0.4094488188976378,
              "time": 171.96004685416665,
              "ticks": 62731
            },
            {
              "number": 1,
              "value": 0.44881889763779526,
              "time": 171.96827054166667,
              "ticks": 62734
            },
            {
              "number": 1,
              "value": 0.47244094488188976,
              "time": 171.990200375,
              "ticks": 62742
            },
            {
              "number": 1,
              "value": 0.4251968503937008,
              "time": 172.00938897916666,
              "ticks": 62749
            },
            {
              "number": 1,
              "value": 0.4881889763779528,
              "time": 172.02035389583335,
              "ticks": 62753
            },
            {
              "number": 1,
              "value": 0.4645669291338583,
              "time": 172.0477661875,
              "ticks": 62763
            },
            {
              "number": 1,
              "value": 0.4330708661417323,
              "time": 172.06421356250002,
              "ticks": 62769
            },
            {
              "number": 1,
              "value": 0.4409448818897638,
              "time": 172.06421356250002,
              "ticks": 62769
            },
            {
              "number": 1,
              "value": 0.4330708661417323,
              "time": 172.0806609375,
              "ticks": 62775
            },
            {
              "number": 1,
              "value": 0.47244094488188976,
              "time": 172.105332,
              "ticks": 62784
            },
            {
              "number": 1,
              "value": 0.44881889763779526,
              "time": 172.11903814583334,
              "ticks": 62789
            },
            {
              "number": 1,
              "value": 0.5039370078740157,
              "time": 172.14096797916665,
              "ticks": 62797
            },
            {
              "number": 1,
              "value": 0.44881889763779526,
              "time": 172.16015658333333,
              "ticks": 62804
            },
            {
              "number": 1,
              "value": 0.5196850393700787,
              "time": 172.16563904166665,
              "ticks": 62806
            },
            {
              "number": 1,
              "value": 0.5354330708661418,
              "time": 172.19305133333336,
              "ticks": 62816
            },
            {
              "number": 1,
              "value": 0.4566929133858268,
              "time": 172.1957925625,
              "ticks": 62817
            },
            {
              "number": 1,
              "value": 0.44881889763779526,
              "time": 172.21223993750002,
              "ticks": 62823
            },
            {
              "number": 1,
              "value": 0.5433070866141733,
              "time": 172.21223993750002,
              "ticks": 62823
            },
            {
              "number": 1,
              "value": 0.44881889763779526,
              "time": 172.23142854166665,
              "ticks": 62830
            },
            {
              "number": 1,
              "value": 0.5196850393700787,
              "time": 172.23965222916667,
              "ticks": 62833
            },
            {
              "number": 1,
              "value": 0.47244094488188976,
              "time": 172.253358375,
              "ticks": 62838
            },
            {
              "number": 1,
              "value": 0.4881889763779528,
              "time": 172.28351189583336,
              "ticks": 62849
            },
            {
              "number": 1,
              "value": 0.5511811023622047,
              "time": 172.28351189583336,
              "ticks": 62849
            },
            {
              "number": 1,
              "value": 0.4645669291338583,
              "time": 172.3109241875,
              "ticks": 62859
            },
            {
              "number": 1,
              "value": 0.5669291338582677,
              "time": 172.319147875,
              "ticks": 62862
            },
            {
              "number": 1,
              "value": 0.4409448818897638,
              "time": 172.3273715625,
              "ticks": 62865
            },
            {
              "number": 1,
              "value": 0.5511811023622047,
              "time": 172.3438189375,
              "ticks": 62871
            },
            {
              "number": 1,
              "value": 0.4645669291338583,
              "time": 172.3602663125,
              "ticks": 62877
            },
            {
              "number": 1,
              "value": 0.4566929133858268,
              "time": 172.36849,
              "ticks": 62880
            },
            {
              "number": 1,
              "value": 0.47244094488188976,
              "time": 172.37945491666665,
              "ticks": 62884
            },
            {
              "number": 1,
              "value": 0.11811023622047244,
              "time": 172.384937375,
              "ticks": 62886
            },
            {
              "number": 1,
              "value": 0.5039370078740157,
              "time": 172.40412597916665,
              "ticks": 62893
            },
            {
              "number": 1,
              "value": 0,
              "time": 172.41234966666667,
              "ticks": 62896
            },
            {
              "number": 1,
              "value": 0.5196850393700787,
              "time": 172.42879704166666,
              "ticks": 62902
            },
            {
              "number": 1,
              "value": 0.5354330708661418,
              "time": 172.45620933333333,
              "ticks": 62912
            },
            {
              "number": 1,
              "value": 0.5433070866141733,
              "time": 172.4753979375,
              "ticks": 62919
            },
            {
              "number": 1,
              "value": 0.5196850393700787,
              "time": 172.50281022916667,
              "ticks": 62929
            },
            {
              "number": 1,
              "value": 0.5275590551181102,
              "time": 172.54666989583333,
              "ticks": 62945
            },
            {
              "number": 1,
              "value": 0.5511811023622047,
              "time": 172.55215235416665,
              "ticks": 62947
            },
            {
              "number": 1,
              "value": 0.5669291338582677,
              "time": 172.582305875,
              "ticks": 62958
            },
            {
              "number": 1,
              "value": 0.5511811023622047,
              "time": 172.6069769375,
              "ticks": 62967
            },
            {
              "number": 1,
              "value": 0.4645669291338583,
              "time": 172.6234243125,
              "ticks": 62973
            },
            {
              "number": 1,
              "value": 0.11811023622047244,
              "time": 172.648095375,
              "ticks": 62982
            },
            {
              "number": 1,
              "value": 0,
              "time": 172.67550766666665,
              "ticks": 62992
            },
            {
              "number": 1,
              "value": 0.09448818897637795,
              "time": 172.87287616666666,
              "ticks": 63064
            },
            {
              "number": 1,
              "value": 0.25196850393700787,
              "time": 172.90577091666665,
              "ticks": 63076
            },
            {
              "number": 1,
              "value": 0.3858267716535433,
              "time": 172.93044197916666,
              "ticks": 63085
            },
            {
              "number": 1,
              "value": 0.44881889763779526,
              "time": 172.95511304166666,
              "ticks": 63094
            },
            {
              "number": 1,
              "value": 0.48031496062992124,
              "time": 172.97978410416667,
              "ticks": 63103
            },
            {
              "number": 1,
              "value": 0.44881889763779526,
              "time": 173.05379729166665,
              "ticks": 63130
            },
            {
              "number": 1,
              "value": 0.3779527559055118,
              "time": 173.07846835416666,
              "ticks": 63139
            },
            {
              "number": 1,
              "value": 0.2992125984251969,
              "time": 173.1003981875,
              "ticks": 63147
            },
            {
              "number": 1,
              "value": 0.31496062992125984,
              "time": 173.13055170833334,
              "ticks": 63158
            },
            {
              "number": 1,
              "value": 0.015748031496062992,
              "time": 173.13603416666666,
              "ticks": 63160
            },
            {
              "number": 1,
              "value": 0.09448818897637795,
              "time": 173.141516625,
              "ticks": 63162
            },
            {
              "number": 1,
              "value": 0.3700787401574803,
              "time": 173.15248154166665,
              "ticks": 63166
            },
            {
              "number": 1,
              "value": 0.25196850393700787,
              "time": 173.16892891666666,
              "ticks": 63172
            },
            {
              "number": 1,
              "value": 0.41732283464566927,
              "time": 173.174411375,
              "ticks": 63174
            },
            {
              "number": 1,
              "value": 0.3858267716535433,
              "time": 173.19359997916666,
              "ticks": 63181
            },
            {
              "number": 1,
              "value": 0.4566929133858268,
              "time": 173.1990824375,
              "ticks": 63183
            },
            {
              "number": 1,
              "value": 0.44881889763779526,
              "time": 173.21827104166667,
              "ticks": 63190
            },
            {
              "number": 1,
              "value": 0.3543307086614173,
              "time": 173.22649472916666,
              "ticks": 63193
            },
            {
              "number": 1,
              "value": 0.48031496062992124,
              "time": 173.24294210416667,
              "ticks": 63199
            },
            {
              "number": 1,
              "value": 0.2755905511811024,
              "time": 173.25116579166666,
              "ticks": 63202
            },
            {
              "number": 1,
              "value": 0.30708661417322836,
              "time": 173.2813193125,
              "ticks": 63213
            },
            {
              "number": 1,
              "value": 0.3464566929133858,
              "time": 173.2977666875,
              "ticks": 63219
            },
            {
              "number": 1,
              "value": 0.44881889763779526,
              "time": 173.31695529166666,
              "ticks": 63226
            },
            {
              "number": 1,
              "value": 0.3700787401574803,
              "time": 173.32517897916665,
              "ticks": 63229
            },
            {
              "number": 1,
              "value": 0.3779527559055118,
              "time": 173.34162635416666,
              "ticks": 63235
            },
            {
              "number": 1,
              "value": 0.31496062992125984,
              "time": 173.3553325,
              "ticks": 63240
            },
            {
              "number": 1,
              "value": 0.2992125984251969,
              "time": 173.3635561875,
              "ticks": 63243
            },
            {
              "number": 1,
              "value": 0.28346456692913385,
              "time": 173.37177987500002,
              "ticks": 63246
            },
            {
              "number": 1,
              "value": 0.31496062992125984,
              "time": 173.39370970833335,
              "ticks": 63254
            },
            {
              "number": 1,
              "value": 0.29133858267716534,
              "time": 173.40193339583334,
              "ticks": 63257
            },
            {
              "number": 1,
              "value": 0.3700787401574803,
              "time": 173.41563954166665,
              "ticks": 63262
            },
            {
              "number": 1,
              "value": 0.25984251968503935,
              "time": 173.43208691666666,
              "ticks": 63268
            },
            {
              "number": 1,
              "value": 0.41732283464566927,
              "time": 173.437569375,
              "ticks": 63270
            },
            {
              "number": 1,
              "value": 0.25984251968503935,
              "time": 173.44853429166665,
              "ticks": 63274
            },
            {
              "number": 1,
              "value": 0.4566929133858268,
              "time": 173.46224043750001,
              "ticks": 63279
            },
            {
              "number": 1,
              "value": 0.30708661417322836,
              "time": 173.470464125,
              "ticks": 63282
            },
            {
              "number": 1,
              "value": 0.3543307086614173,
              "time": 173.48965272916666,
              "ticks": 63289
            },
            {
              "number": 1,
              "value": 0.33858267716535434,
              "time": 173.4951351875,
              "ticks": 63291
            },
            {
              "number": 1,
              "value": 0.2755905511811024,
              "time": 173.51432379166667,
              "ticks": 63298
            },
            {
              "number": 1,
              "value": 0.3543307086614173,
              "time": 173.52254747916666,
              "ticks": 63301
            },
            {
              "number": 1,
              "value": 0.30708661417322836,
              "time": 173.5444773125,
              "ticks": 63309
            },
            {
              "number": 1,
              "value": 0.3543307086614173,
              "time": 173.54721854166667,
              "ticks": 63310
            },
            {
              "number": 1,
              "value": 0.3464566929133858,
              "time": 173.5609246875,
              "ticks": 63315
            },
            {
              "number": 1,
              "value": 0.30708661417322836,
              "time": 173.57188960416667,
              "ticks": 63319
            },
            {
              "number": 1,
              "value": 0.3700787401574803,
              "time": 173.58833697916666,
              "ticks": 63325
            },
            {
              "number": 1,
              "value": 0.14960629921259844,
              "time": 173.5938194375,
              "ticks": 63327
            },
            {
              "number": 1,
              "value": 0.31496062992125984,
              "time": 173.6184905,
              "ticks": 63336
            },
            {
              "number": 1,
              "value": 0.06299212598425197,
              "time": 173.62123172916665,
              "ticks": 63337
            },
            {
              "number": 1,
              "value": 0.28346456692913385,
              "time": 173.634937875,
              "ticks": 63342
            },
            {
              "number": 1,
              "value": 0.08661417322834646,
              "time": 173.65686770833335,
              "ticks": 63350
            },
            {
              "number": 1,
              "value": 0.29133858267716534,
              "time": 173.66509139583334,
              "ticks": 63353
            },
            {
              "number": 1,
              "value": 0.14960629921259844,
              "time": 173.667832625,
              "ticks": 63354
            },
            {
              "number": 1,
              "value": 0.2440944881889764,
              "time": 173.6925036875,
              "ticks": 63363
            },
            {
              "number": 1,
              "value": 0.25984251968503935,
              "time": 173.69524491666667,
              "ticks": 63364
            },
            {
              "number": 1,
              "value": 0.25984251968503935,
              "time": 173.71169229166665,
              "ticks": 63370
            },
            {
              "number": 1,
              "value": 0.31496062992125984,
              "time": 173.71991597916667,
              "ticks": 63373
            },
            {
              "number": 1,
              "value": 0.30708661417322836,
              "time": 173.733622125,
              "ticks": 63378
            },
            {
              "number": 1,
              "value": 0.3543307086614173,
              "time": 173.7418458125,
              "ticks": 63381
            },
            {
              "number": 1,
              "value": 0.33858267716535434,
              "time": 173.75829318750002,
              "ticks": 63387
            },
            {
              "number": 1,
              "value": 0.36220472440944884,
              "time": 173.766516875,
              "ticks": 63390
            },
            {
              "number": 1,
              "value": 0.3543307086614173,
              "time": 173.78570547916667,
              "ticks": 63397
            },
            {
              "number": 1,
              "value": 0.3858267716535433,
              "time": 173.79392916666666,
              "ticks": 63400
            },
            {
              "number": 1,
              "value": 0.3543307086614173,
              "time": 173.81037654166667,
              "ticks": 63406
            },
            {
              "number": 1,
              "value": 0.4015748031496063,
              "time": 173.81860022916666,
              "ticks": 63409
            },
            {
              "number": 1,
              "value": 0.30708661417322836,
              "time": 173.83504760416665,
              "ticks": 63415
            },
            {
              "number": 1,
              "value": 0.4330708661417323,
              "time": 173.84327129166667,
              "ticks": 63418
            },
            {
              "number": 1,
              "value": 0.14960629921259844,
              "time": 173.8569774375,
              "ticks": 63423
            },
            {
              "number": 1,
              "value": 0.44881889763779526,
              "time": 173.865201125,
              "ticks": 63426
            },
            {
              "number": 1,
              "value": 0.06299212598425197,
              "time": 173.88438972916666,
              "ticks": 63433
            },
            {
              "number": 1,
              "value": 0.4409448818897638,
              "time": 173.898095875,
              "ticks": 63438
            },
            {
              "number": 1,
              "value": 0.08661417322834646,
              "time": 173.92002570833336,
              "ticks": 63446
            },
            {
              "number": 1,
              "value": 0.4645669291338583,
              "time": 173.9227669375,
              "ticks": 63447
            },
            {
              "number": 1,
              "value": 0.14960629921259844,
              "time": 173.930990625,
              "ticks": 63450
            },
            {
              "number": 1,
              "value": 0.4881889763779528,
              "time": 173.9392143125,
              "ticks": 63453
            },
            {
              "number": 1,
              "value": 0.2440944881889764,
              "time": 173.9556616875,
              "ticks": 63459
            },
            {
              "number": 1,
              "value": 0.49606299212598426,
              "time": 173.97485029166666,
              "ticks": 63466
            },
            {
              "number": 1,
              "value": 0.31496062992125984,
              "time": 173.98307397916665,
              "ticks": 63469
            },
            {
              "number": 1,
              "value": 0.5039370078740157,
              "time": 173.99129766666667,
              "ticks": 63472
            },
            {
              "number": 1,
              "value": 0.3543307086614173,
              "time": 174.0050038125,
              "ticks": 63477
            },
            {
              "number": 1,
              "value": 0.36220472440944884,
              "time": 174.029674875,
              "ticks": 63486
            },
            {
              "number": 1,
              "value": 0.3858267716535433,
              "time": 174.05708716666666,
              "ticks": 63496
            },
            {
              "number": 1,
              "value": 0.5275590551181102,
              "time": 174.05708716666666,
              "ticks": 63496
            },
            {
              "number": 1,
              "value": 0.4015748031496063,
              "time": 174.08175822916667,
              "ticks": 63505
            },
            {
              "number": 1,
              "value": 0.5354330708661418,
              "time": 174.10094683333335,
              "ticks": 63512
            },
            {
              "number": 1,
              "value": 0.4330708661417323,
              "time": 174.10642929166667,
              "ticks": 63514
            },
            {
              "number": 1,
              "value": 0.44881889763779526,
              "time": 174.128359125,
              "ticks": 63522
            },
            {
              "number": 1,
              "value": 0.49606299212598426,
              "time": 174.128359125,
              "ticks": 63522
            },
            {
              "number": 1,
              "value": 0.4409448818897638,
              "time": 174.161253875,
              "ticks": 63534
            },
            {
              "number": 1,
              "value": 0.48031496062992124,
              "time": 174.17496002083334,
              "ticks": 63539
            },
            {
              "number": 1,
              "value": 0.4645669291338583,
              "time": 174.1859249375,
              "ticks": 63543
            },
            {
              "number": 1,
              "value": 0.2992125984251969,
              "time": 174.18866616666665,
              "ticks": 63544
            },
            {
              "number": 1,
              "value": 0.4881889763779528,
              "time": 174.2023723125,
              "ticks": 63549
            },
            {
              "number": 1,
              "value": 0,
              "time": 174.210596,
              "ticks": 63552
            },
            {
              "number": 1,
              "value": 0.49606299212598426,
              "time": 174.23800829166666,
              "ticks": 63562
            },
            {
              "number": 1,
              "value": 0.5039370078740157,
              "time": 174.25445566666667,
              "ticks": 63568
            },
            {
              "number": 1,
              "value": 0.5118110236220472,
              "time": 174.32024516666667,
              "ticks": 63592
            },
            {
              "number": 1,
              "value": 0.5275590551181102,
              "time": 174.33121008333333,
              "ticks": 63596
            },
            {
              "number": 1,
              "value": 0.5354330708661418,
              "time": 174.36410483333336,
              "ticks": 63608
            },
            {
              "number": 1,
              "value": 0.5196850393700787,
              "time": 174.391517125,
              "ticks": 63618
            },
            {
              "number": 1,
              "value": 0.49606299212598426,
              "time": 174.40522327083335,
              "ticks": 63623
            },
            {
              "number": 1,
              "value": 0.48031496062992124,
              "time": 174.43811802083334,
              "ticks": 63635
            },
            {
              "number": 1,
              "value": 0.2992125984251969,
              "time": 174.45182416666665,
              "ticks": 63640
            },
            {
              "number": 1,
              "value": 0,
              "time": 174.473754,
              "ticks": 63648
            },
            {
              "number": 1,
              "value": 0.11811023622047244,
              "time": 174.76432429166667,
              "ticks": 63754
            },
            {
              "number": 1,
              "value": 0.25196850393700787,
              "time": 174.78351289583335,
              "ticks": 63761
            },
            {
              "number": 1,
              "value": 0.2992125984251969,
              "time": 174.80544272916666,
              "ticks": 63769
            },
            {
              "number": 1,
              "value": 0.33070866141732286,
              "time": 174.84656116666665,
              "ticks": 63784
            },
            {
              "number": 1,
              "value": 0.3464566929133858,
              "time": 174.89042083333334,
              "ticks": 63800
            },
            {
              "number": 1,
              "value": 0.3779527559055118,
              "time": 174.90138575,
              "ticks": 63804
            },
            {
              "number": 1,
              "value": 0.3464566929133858,
              "time": 174.94524541666667,
              "ticks": 63820
            },
            {
              "number": 1,
              "value": 0.36220472440944884,
              "time": 174.98910508333336,
              "ticks": 63836
            },
            {
              "number": 1,
              "value": 0.3858267716535433,
              "time": 175.00007,
              "ticks": 63840
            },
            {
              "number": 1,
              "value": 0.3937007874015748,
              "time": 175.0411884375,
              "ticks": 63855
            },
            {
              "number": 1,
              "value": 0.3543307086614173,
              "time": 175.07682441666665,
              "ticks": 63868
            },
            {
              "number": 1,
              "value": 0.31496062992125984,
              "time": 175.09875425,
              "ticks": 63876
            },
            {
              "number": 1,
              "value": 0.28346456692913385,
              "time": 175.12890777083334,
              "ticks": 63887
            },
            {
              "number": 1,
              "value": 0.25984251968503935,
              "time": 175.148096375,
              "ticks": 63894
            },
            {
              "number": 1,
              "value": 0.23622047244094488,
              "time": 175.20017972916665,
              "ticks": 63913
            },
            {
              "number": 1,
              "value": 0.28346456692913385,
              "time": 175.2385569375,
              "ticks": 63927
            },
            {
              "number": 1,
              "value": 0.30708661417322836,
              "time": 175.279675375,
              "ticks": 63942
            },
            {
              "number": 1,
              "value": 0.33070866141732286,
              "time": 175.29886397916667,
              "ticks": 63949
            },
            {
              "number": 1,
              "value": 0.3464566929133858,
              "time": 175.3207938125,
              "ticks": 63957
            },
            {
              "number": 1,
              "value": 0.3543307086614173,
              "time": 175.34820610416665,
              "ticks": 63967
            },
            {
              "number": 1,
              "value": 0.36220472440944884,
              "time": 175.37287716666665,
              "ticks": 63976
            },
            {
              "number": 1,
              "value": 0.3543307086614173,
              "time": 175.40028945833333,
              "ticks": 63986
            },
            {
              "number": 1,
              "value": 0.3228346456692913,
              "time": 175.42221929166666,
              "ticks": 63994
            },
            {
              "number": 1,
              "value": 0.3228346456692913,
              "time": 175.49349125,
              "ticks": 64020
            },
            {
              "number": 1,
              "value": 0.3543307086614173,
              "time": 175.52364477083336,
              "ticks": 64031
            },
            {
              "number": 1,
              "value": 0.3700787401574803,
              "time": 175.5510570625,
              "ticks": 64041
            },
            {
              "number": 1,
              "value": 0.3779527559055118,
              "time": 175.58943427083335,
              "ticks": 64055
            },
            {
              "number": 1,
              "value": 0.4015748031496063,
              "time": 175.608622875,
              "ticks": 64062
            },
            {
              "number": 1,
              "value": 0.4094488188976378,
              "time": 175.641517625,
              "ticks": 64074
            },
            {
              "number": 1,
              "value": 0.41732283464566927,
              "time": 175.6661886875,
              "ticks": 64083
            },
            {
              "number": 1,
              "value": 0.4251968503937008,
              "time": 175.71004835416664,
              "ticks": 64099
            },
            {
              "number": 1,
              "value": 0.09448818897637795,
              "time": 175.75939047916665,
              "ticks": 64117
            },
            {
              "number": 1,
              "value": 0,
              "time": 175.79228522916665,
              "ticks": 64129
            },
            {
              "number": 1,
              "value": 0.03937007874015748,
              "time": 176.75719789583334,
              "ticks": 64481
            },
            {
              "number": 1,
              "value": 0.09448818897637795,
              "time": 176.77912772916665,
              "ticks": 64489
            },
            {
              "number": 1,
              "value": 0.14173228346456693,
              "time": 176.8010575625,
              "ticks": 64497
            },
            {
              "number": 1,
              "value": 0.1889763779527559,
              "time": 176.825728625,
              "ticks": 64506
            },
            {
              "number": 1,
              "value": 0.2283464566929134,
              "time": 176.85588214583333,
              "ticks": 64517
            },
            {
              "number": 1,
              "value": 0.2677165354330709,
              "time": 176.87781197916667,
              "ticks": 64525
            },
            {
              "number": 1,
              "value": 0.2992125984251969,
              "time": 176.8997418125,
              "ticks": 64533
            },
            {
              "number": 1,
              "value": 0.33070866141732286,
              "time": 176.924412875,
              "ticks": 64542
            },
            {
              "number": 1,
              "value": 0.33858267716535434,
              "time": 176.9655313125,
              "ticks": 64557
            },
            {
              "number": 1,
              "value": 0.3228346456692913,
              "time": 176.99294360416667,
              "ticks": 64567
            },
            {
              "number": 1,
              "value": 0.23622047244094488,
              "time": 177.023097125,
              "ticks": 64578
            },
            {
              "number": 1,
              "value": 0.18110236220472442,
              "time": 177.05050941666667,
              "ticks": 64588
            },
            {
              "number": 1,
              "value": 0.13385826771653545,
              "time": 177.07518047916665,
              "ticks": 64597
            },
            {
              "number": 1,
              "value": 0.07086614173228346,
              "time": 177.09985154166665,
              "ticks": 64606
            },
            {
              "number": 1,
              "value": 0.031496062992125984,
              "time": 177.121781375,
              "ticks": 64614
            },
            {
              "number": 1,
              "value": 0.07086614173228346,
              "time": 177.15193489583334,
              "ticks": 64625
            },
            {
              "number": 1,
              "value": 0.08661417322834646,
              "time": 177.17386472916667,
              "ticks": 64633
            },
            {
              "number": 1,
              "value": 0.10236220472440945,
              "time": 177.1957945625,
              "ticks": 64641
            },
            {
              "number": 1,
              "value": 0.13385826771653545,
              "time": 177.22594808333335,
              "ticks": 64652
            },
            {
              "number": 1,
              "value": 0.13385826771653545,
              "time": 177.24787791666665,
              "ticks": 64660
            },
            {
              "number": 1,
              "value": 0.09448818897637795,
              "time": 177.26980775,
              "ticks": 64668
            },
            {
              "number": 1,
              "value": 0.11023622047244094,
              "time": 177.30544372916665,
              "ticks": 64681
            },
            {
              "number": 1,
              "value": 0.14960629921259844,
              "time": 177.319149875,
              "ticks": 64686
            },
            {
              "number": 1,
              "value": 0.18110236220472442,
              "time": 177.34656216666667,
              "ticks": 64696
            },
            {
              "number": 1,
              "value": 0.23622047244094488,
              "time": 177.37123322916665,
              "ticks": 64705
            },
            {
              "number": 1,
              "value": 0.2992125984251969,
              "time": 177.3931630625,
              "ticks": 64713
            },
            {
              "number": 1,
              "value": 0.3543307086614173,
              "time": 177.417834125,
              "ticks": 64722
            },
            {
              "number": 1,
              "value": 0.33070866141732286,
              "time": 177.45621133333336,
              "ticks": 64736
            },
            {
              "number": 1,
              "value": 0.10236220472440945,
              "time": 177.46991747916667,
              "ticks": 64741
            },
            {
              "number": 1,
              "value": 0,
              "time": 177.4918473125,
              "ticks": 64749
            },
            {
              "number": 1,
              "value": 0.12598425196850394,
              "time": 177.92222029166666,
              "ticks": 64906
            },
            {
              "number": 1,
              "value": 0.30708661417322836,
              "time": 177.93866766666665,
              "ticks": 64912
            },
            {
              "number": 1,
              "value": 0.4409448818897638,
              "time": 177.9605975,
              "ticks": 64920
            },
            {
              "number": 1,
              "value": 0.4881889763779528,
              "time": 177.98800979166666,
              "ticks": 64930
            },
            {
              "number": 1,
              "value": 0.49606299212598426,
              "time": 178.01268085416666,
              "ticks": 64939
            },
            {
              "number": 1,
              "value": 0.4645669291338583,
              "time": 178.03735191666667,
              "ticks": 64948
            },
            {
              "number": 1,
              "value": 0.3937007874015748,
              "time": 178.05928175,
              "ticks": 64956
            },
            {
              "number": 1,
              "value": 0.2283464566929134,
              "time": 178.0839528125,
              "ticks": 64965
            },
            {
              "number": 1,
              "value": 0.08661417322834646,
              "time": 178.11136510416665,
              "ticks": 64975
            },
            {
              "number": 1,
              "value": 0.023622047244094488,
              "time": 178.1332949375,
              "ticks": 64983
            },
            {
              "number": 1,
              "value": 0.007874015748031496,
              "time": 178.15796600000002,
              "ticks": 64992
            },
            {
              "number": 1,
              "value": 0.023622047244094488,
              "time": 178.18537829166667,
              "ticks": 65002
            },
            {
              "number": 1,
              "value": 0.047244094488188976,
              "time": 178.21004935416667,
              "ticks": 65011
            },
            {
              "number": 1,
              "value": 0.06299212598425197,
              "time": 178.23746164583335,
              "ticks": 65021
            },
            {
              "number": 1,
              "value": 0.09448818897637795,
              "time": 178.25665025,
              "ticks": 65028
            },
            {
              "number": 1,
              "value": 0.12598425196850394,
              "time": 178.28406254166666,
              "ticks": 65038
            },
            {
              "number": 1,
              "value": 0.14960629921259844,
              "time": 178.305992375,
              "ticks": 65046
            },
            {
              "number": 1,
              "value": 0.16535433070866143,
              "time": 178.33614589583334,
              "ticks": 65057
            },
            {
              "number": 1,
              "value": 0.2125984251968504,
              "time": 178.39919416666666,
              "ticks": 65080
            },
            {
              "number": 1,
              "value": 0.2677165354330709,
              "time": 178.43208891666666,
              "ticks": 65092
            },
            {
              "number": 1,
              "value": 0.2283464566929134,
              "time": 178.45401875,
              "ticks": 65100
            },
            {
              "number": 1,
              "value": 0.12598425196850394,
              "time": 178.48143104166667,
              "ticks": 65110
            },
            {
              "number": 1,
              "value": 0.14960629921259844,
              "time": 178.503360875,
              "ticks": 65118
            },
            {
              "number": 1,
              "value": 0.1889763779527559,
              "time": 178.53351439583335,
              "ticks": 65129
            },
            {
              "number": 1,
              "value": 0.2204724409448819,
              "time": 178.55544422916665,
              "ticks": 65137
            },
            {
              "number": 1,
              "value": 0.25196850393700787,
              "time": 178.58011529166666,
              "ticks": 65146
            },
            {
              "number": 1,
              "value": 0.28346456692913385,
              "time": 178.602045125,
              "ticks": 65154
            },
            {
              "number": 1,
              "value": 0.29133858267716534,
              "time": 178.6267161875,
              "ticks": 65163
            },
            {
              "number": 1,
              "value": 0.31496062992125984,
              "time": 178.65138725,
              "ticks": 65172
            },
            {
              "number": 1,
              "value": 0.3543307086614173,
              "time": 178.67879954166665,
              "ticks": 65182
            },
            {
              "number": 1,
              "value": 0.3937007874015748,
              "time": 178.700729375,
              "ticks": 65190
            },
            {
              "number": 1,
              "value": 0.4015748031496063,
              "time": 178.73088289583333,
              "ticks": 65201
            },
            {
              "number": 1,
              "value": 0.28346456692913385,
              "time": 178.76926010416665,
              "ticks": 65215
            },
            {
              "number": 1,
              "value": 0,
              "time": 178.799413625,
              "ticks": 65226
            },
            {
              "number": 1,
              "value": 0.11023622047244094,
              "time": 179.7615850625,
              "ticks": 65577
            },
            {
              "number": 1,
              "value": 0.2440944881889764,
              "time": 179.786256125,
              "ticks": 65586
            },
            {
              "number": 1,
              "value": 0.11023622047244094,
              "time": 179.8273745625,
              "ticks": 65601
            },
            {
              "number": 1,
              "value": 0,
              "time": 179.8602693125,
              "ticks": 65613
            },
            {
              "number": 1,
              "value": 0.05511811023622047,
              "time": 180.47704587500002,
              "ticks": 65838
            },
            {
              "number": 1,
              "value": 0.14173228346456693,
              "time": 180.50719939583334,
              "ticks": 65849
            },
            {
              "number": 1,
              "value": 0.2440944881889764,
              "time": 180.52912922916667,
              "ticks": 65857
            },
            {
              "number": 1,
              "value": 0.33858267716535434,
              "time": 180.5510590625,
              "ticks": 65865
            },
            {
              "number": 1,
              "value": 0.36220472440944884,
              "time": 180.58121258333335,
              "ticks": 65876
            },
            {
              "number": 1,
              "value": 0.3858267716535433,
              "time": 180.6004011875,
              "ticks": 65883
            },
            {
              "number": 1,
              "value": 0.3937007874015748,
              "time": 180.63877839583336,
              "ticks": 65897
            },
            {
              "number": 1,
              "value": 0.4251968503937008,
              "time": 180.6497433125,
              "ticks": 65901
            },
            {
              "number": 1,
              "value": 0.48031496062992124,
              "time": 180.674414375,
              "ticks": 65910
            },
            {
              "number": 1,
              "value": 0.5118110236220472,
              "time": 180.70182666666665,
              "ticks": 65920
            },
            {
              "number": 1,
              "value": 0.4015748031496063,
              "time": 180.7319801875,
              "ticks": 65931
            },
            {
              "number": 1,
              "value": 0.11811023622047244,
              "time": 180.7484275625,
              "ticks": 65937
            },
            {
              "number": 1,
              "value": 0,
              "time": 180.77583985416666,
              "ticks": 65947
            },
            {
              "number": 1,
              "value": 0.16535433070866143,
              "time": 181.315862,
              "ticks": 66144
            },
            {
              "number": 1,
              "value": 0.33858267716535434,
              "time": 181.34327429166666,
              "ticks": 66154
            },
            {
              "number": 1,
              "value": 0.4330708661417323,
              "time": 181.365204125,
              "ticks": 66162
            },
            {
              "number": 1,
              "value": 0.44881889763779526,
              "time": 181.40084010416666,
              "ticks": 66175
            },
            {
              "number": 1,
              "value": 0.47244094488188976,
              "time": 181.41728747916665,
              "ticks": 66181
            },
            {
              "number": 1,
              "value": 0.4645669291338583,
              "time": 181.4392173125,
              "ticks": 66189
            },
            {
              "number": 1,
              "value": 0.41732283464566927,
              "time": 181.463888375,
              "ticks": 66198
            },
            {
              "number": 1,
              "value": 0.3464566929133858,
              "time": 181.49130066666666,
              "ticks": 66208
            },
            {
              "number": 1,
              "value": 0.12598425196850394,
              "time": 181.5132305,
              "ticks": 66216
            },
            {
              "number": 1,
              "value": 0.023622047244094488,
              "time": 181.5379015625,
              "ticks": 66225
            },
            {
              "number": 1,
              "value": 0.06299212598425197,
              "time": 181.562572625,
              "ticks": 66234
            },
            {
              "number": 1,
              "value": 0.14173228346456693,
              "time": 181.5872436875,
              "ticks": 66243
            },
            {
              "number": 1,
              "value": 0.18110236220472442,
              "time": 181.61739720833336,
              "ticks": 66254
            },
            {
              "number": 1,
              "value": 0.1968503937007874,
              "time": 181.63932704166666,
              "ticks": 66262
            },
            {
              "number": 1,
              "value": 0.09448818897637795,
              "time": 181.661256875,
              "ticks": 66270
            },
            {
              "number": 1,
              "value": 0.015748031496062992,
              "time": 181.69141039583334,
              "ticks": 66281
            },
            {
              "number": 1,
              "value": 0,
              "time": 181.71334022916665,
              "ticks": 66289
            },
            {
              "number": 1,
              "value": 0.1889763779527559,
              "time": 181.858625375,
              "ticks": 66342
            },
            {
              "number": 1,
              "value": 0.3464566929133858,
              "time": 181.88603766666665,
              "ticks": 66352
            },
            {
              "number": 1,
              "value": 0.4409448818897638,
              "time": 181.9079675,
              "ticks": 66360
            },
            {
              "number": 1,
              "value": 0.49606299212598426,
              "time": 181.9326385625,
              "ticks": 66369
            },
            {
              "number": 1,
              "value": 0.5275590551181102,
              "time": 181.96005085416667,
              "ticks": 66379
            },
            {
              "number": 1,
              "value": 0.5433070866141733,
              "time": 181.98472191666667,
              "ticks": 66388
            },
            {
              "number": 1,
              "value": 0.47244094488188976,
              "time": 182.00665175,
              "ticks": 66396
            },
            {
              "number": 1,
              "value": 0.4094488188976378,
              "time": 182.0313228125,
              "ticks": 66405
            },
            {
              "number": 1,
              "value": 0.47244094488188976,
              "time": 182.05873510416666,
              "ticks": 66415
            },
            {
              "number": 1,
              "value": 0.5039370078740157,
              "time": 182.08340616666666,
              "ticks": 66424
            },
            {
              "number": 1,
              "value": 0.5275590551181102,
              "time": 182.105336,
              "ticks": 66432
            },
            {
              "number": 1,
              "value": 0.5433070866141733,
              "time": 182.13548952083335,
              "ticks": 66443
            },
            {
              "number": 1,
              "value": 0.5669291338582677,
              "time": 182.15741935416665,
              "ticks": 66451
            },
            {
              "number": 1,
              "value": 0.5905511811023622,
              "time": 182.1793491875,
              "ticks": 66459
            },
            {
              "number": 1,
              "value": 0.6299212598425197,
              "time": 182.20402025,
              "ticks": 66468
            },
            {
              "number": 1,
              "value": 0.6299212598425197,
              "time": 182.2286913125,
              "ticks": 66477
            },
            {
              "number": 1,
              "value": 0.5748031496062992,
              "time": 182.25610360416667,
              "ticks": 66487
            },
            {
              "number": 1,
              "value": 0.4094488188976378,
              "time": 182.28077466666664,
              "ticks": 66496
            },
            {
              "number": 1,
              "value": 0.07874015748031496,
              "time": 182.3027045,
              "ticks": 66504
            },
            {
              "number": 1,
              "value": 0,
              "time": 182.33011679166665,
              "ticks": 66514
            },
            {
              "number": 1,
              "value": 0.08661417322834646,
              "time": 183.57189360416666,
              "ticks": 66967
            },
            {
              "number": 1,
              "value": 0.2125984251968504,
              "time": 183.58834097916665,
              "ticks": 66973
            },
            {
              "number": 1,
              "value": 0.28346456692913385,
              "time": 183.6102708125,
              "ticks": 66981
            },
            {
              "number": 1,
              "value": 0.33858267716535434,
              "time": 183.63768310416665,
              "ticks": 66991
            },
            {
              "number": 1,
              "value": 0.3700787401574803,
              "time": 183.65961293750001,
              "ticks": 66999
            },
            {
              "number": 1,
              "value": 0.4015748031496063,
              "time": 183.68702522916666,
              "ticks": 67009
            },
            {
              "number": 1,
              "value": 0.4251968503937008,
              "time": 183.71169629166667,
              "ticks": 67018
            },
            {
              "number": 1,
              "value": 0.4566929133858268,
              "time": 183.733626125,
              "ticks": 67026
            },
            {
              "number": 1,
              "value": 0.4645669291338583,
              "time": 183.76926210416667,
              "ticks": 67039
            },
            {
              "number": 1,
              "value": 0.3937007874015748,
              "time": 183.799415625,
              "ticks": 67050
            },
            {
              "number": 1,
              "value": 0.3779527559055118,
              "time": 183.832310375,
              "ticks": 67062
            },
            {
              "number": 1,
              "value": 0.3543307086614173,
              "time": 183.88439372916665,
              "ticks": 67081
            },
            {
              "number": 1,
              "value": 0.3937007874015748,
              "time": 183.91454725,
              "ticks": 67092
            },
            {
              "number": 1,
              "value": 0.4566929133858268,
              "time": 183.930994625,
              "ticks": 67098
            },
            {
              "number": 1,
              "value": 0.49606299212598426,
              "time": 183.95840691666666,
              "ticks": 67108
            },
            {
              "number": 1,
              "value": 0.5433070866141733,
              "time": 183.98307797916667,
              "ticks": 67117
            },
            {
              "number": 1,
              "value": 0.5826771653543307,
              "time": 184.0050078125,
              "ticks": 67125
            },
            {
              "number": 1,
              "value": 0.6062992125984252,
              "time": 184.029678875,
              "ticks": 67134
            },
            {
              "number": 1,
              "value": 0.5590551181102362,
              "time": 184.1036920625,
              "ticks": 67161
            },
            {
              "number": 1,
              "value": 0.4881889763779528,
              "time": 184.13110435416667,
              "ticks": 67171
            },
            {
              "number": 1,
              "value": 0.3700787401574803,
              "time": 184.15577541666667,
              "ticks": 67180
            },
            {
              "number": 1,
              "value": 0.29133858267716534,
              "time": 184.18044647916665,
              "ticks": 67189
            },
            {
              "number": 1,
              "value": 0.2992125984251969,
              "time": 184.20785877083335,
              "ticks": 67199
            },
            {
              "number": 1,
              "value": 0.33070866141732286,
              "time": 184.23801229166665,
              "ticks": 67210
            },
            {
              "number": 1,
              "value": 0.3937007874015748,
              "time": 184.25445966666666,
              "ticks": 67216
            },
            {
              "number": 1,
              "value": 0.41732283464566927,
              "time": 184.2763895,
              "ticks": 67224
            },
            {
              "number": 1,
              "value": 0.4566929133858268,
              "time": 184.3010605625,
              "ticks": 67233
            },
            {
              "number": 1,
              "value": 0.3779527559055118,
              "time": 184.3339553125,
              "ticks": 67245
            },
            {
              "number": 1,
              "value": 0.14960629921259844,
              "time": 184.35314391666665,
              "ticks": 67252
            },
            {
              "number": 1,
              "value": 0,
              "time": 184.37781497916666,
              "ticks": 67261
            },
            {
              "number": 1,
              "value": 0.13385826771653545,
              "time": 185.657969,
              "ticks": 67728
            },
            {
              "number": 1,
              "value": 0.33858267716535434,
              "time": 185.68812252083333,
              "ticks": 67739
            },
            {
              "number": 1,
              "value": 0.4645669291338583,
              "time": 185.71005235416666,
              "ticks": 67747
            },
            {
              "number": 1,
              "value": 0.5196850393700787,
              "time": 185.7319821875,
              "ticks": 67755
            },
            {
              "number": 1,
              "value": 0.5669291338582677,
              "time": 185.77584185416666,
              "ticks": 67771
            },
            {
              "number": 1,
              "value": 0.5826771653543307,
              "time": 185.8142190625,
              "ticks": 67785
            },
            {
              "number": 1,
              "value": 0.4645669291338583,
              "time": 185.83340766666666,
              "ticks": 67792
            },
            {
              "number": 1,
              "value": 0.2677165354330709,
              "time": 185.8553375,
              "ticks": 67800
            },
            {
              "number": 1,
              "value": 0.15748031496062992,
              "time": 185.88274979166667,
              "ticks": 67810
            },
            {
              "number": 1,
              "value": 0.07086614173228346,
              "time": 185.91016208333335,
              "ticks": 67820
            },
            {
              "number": 1,
              "value": 0,
              "time": 185.93209191666665,
              "ticks": 67828
            },
            {
              "number": 1,
              "value": 0.015748031496062992,
              "time": 186.45018422916667,
              "ticks": 68017
            },
            {
              "number": 1,
              "value": 0.023622047244094488,
              "time": 186.4885614375,
              "ticks": 68031
            },
            {
              "number": 1,
              "value": 0.047244094488188976,
              "time": 186.54886847916666,
              "ticks": 68053
            },
            {
              "number": 1,
              "value": 0.09448818897637795,
              "time": 186.5707983125,
              "ticks": 68061
            },
            {
              "number": 1,
              "value": 0.16535433070866143,
              "time": 186.595469375,
              "ticks": 68070
            },
            {
              "number": 1,
              "value": 0.2755905511811024,
              "time": 186.6201404375,
              "ticks": 68079
            },
            {
              "number": 1,
              "value": 0.3464566929133858,
              "time": 186.64755272916665,
              "ticks": 68089
            },
            {
              "number": 1,
              "value": 0.4094488188976378,
              "time": 186.6694825625,
              "ticks": 68097
            },
            {
              "number": 1,
              "value": 0.47244094488188976,
              "time": 186.69963608333333,
              "ticks": 68108
            },
            {
              "number": 1,
              "value": 0.5354330708661418,
              "time": 186.72156591666666,
              "ticks": 68116
            },
            {
              "number": 1,
              "value": 0.5590551181102362,
              "time": 186.74623697916667,
              "ticks": 68125
            },
            {
              "number": 1,
              "value": 0.31496062992125984,
              "time": 186.7681668125,
              "ticks": 68133
            },
            {
              "number": 1,
              "value": 0.23622047244094488,
              "time": 186.79832033333335,
              "ticks": 68144
            },
            {
              "number": 1,
              "value": 0.2125984251968504,
              "time": 186.84218,
              "ticks": 68160
            },
            {
              "number": 1,
              "value": 0.18110236220472442,
              "time": 186.87781597916666,
              "ticks": 68173
            },
            {
              "number": 1,
              "value": 0.07874015748031496,
              "time": 186.891522125,
              "ticks": 68178
            },
            {
              "number": 1,
              "value": 0.015748031496062992,
              "time": 186.91893441666667,
              "ticks": 68188
            },
            {
              "number": 1,
              "value": 0,
              "time": 186.94360547916665,
              "ticks": 68197
            },
            {
              "number": 1,
              "value": 0.031496062992125984,
              "time": 187.00117129166665,
              "ticks": 68218
            },
            {
              "number": 1,
              "value": 0.06299212598425197,
              "time": 187.01761866666666,
              "ticks": 68224
            },
            {
              "number": 1,
              "value": 0.10236220472440945,
              "time": 187.04228972916667,
              "ticks": 68233
            },
            {
              "number": 1,
              "value": 0.18110236220472442,
              "time": 187.0642195625,
              "ticks": 68241
            },
            {
              "number": 1,
              "value": 0.25196850393700787,
              "time": 187.09163185416665,
              "ticks": 68251
            },
            {
              "number": 1,
              "value": 0.29133858267716534,
              "time": 187.11630291666665,
              "ticks": 68260
            },
            {
              "number": 1,
              "value": 0.2125984251968504,
              "time": 187.14097397916666,
              "ticks": 68269
            },
            {
              "number": 1,
              "value": 0.1732283464566929,
              "time": 187.1629038125,
              "ticks": 68277
            },
            {
              "number": 1,
              "value": 0.13385826771653545,
              "time": 187.19031610416667,
              "ticks": 68287
            },
            {
              "number": 1,
              "value": 0.12598425196850394,
              "time": 187.22321085416667,
              "ticks": 68299
            },
            {
              "number": 1,
              "value": 0.14960629921259844,
              "time": 187.2451406875,
              "ticks": 68307
            },
            {
              "number": 1,
              "value": 0.11023622047244094,
              "time": 187.27255297916665,
              "ticks": 68317
            },
            {
              "number": 1,
              "value": 0.07874015748031496,
              "time": 187.29174158333333,
              "ticks": 68324
            },
            {
              "number": 1,
              "value": 0.11811023622047244,
              "time": 187.31641264583334,
              "ticks": 68333
            },
            {
              "number": 1,
              "value": 0.16535433070866143,
              "time": 187.33834247916667,
              "ticks": 68341
            },
            {
              "number": 1,
              "value": 0.25984251968503935,
              "time": 187.3602723125,
              "ticks": 68349
            },
            {
              "number": 1,
              "value": 0.4566929133858268,
              "time": 187.384943375,
              "ticks": 68358
            },
            {
              "number": 1,
              "value": 0.5354330708661418,
              "time": 187.41235566666666,
              "ticks": 68368
            },
            {
              "number": 1,
              "value": 0.5669291338582677,
              "time": 187.43428550000002,
              "ticks": 68376
            },
            {
              "number": 1,
              "value": 0.5826771653543307,
              "time": 187.4589565625,
              "ticks": 68385
            },
            {
              "number": 1,
              "value": 0.6062992125984252,
              "time": 187.49459254166666,
              "ticks": 68398
            },
            {
              "number": 1,
              "value": 0.6141732283464567,
              "time": 187.52200483333334,
              "ticks": 68408
            },
            {
              "number": 1,
              "value": 0.6220472440944882,
              "time": 187.53571097916665,
              "ticks": 68413
            },
            {
              "number": 1,
              "value": 0.6141732283464567,
              "time": 187.56312327083336,
              "ticks": 68423
            },
            {
              "number": 1,
              "value": 0.6299212598425197,
              "time": 187.5905355625,
              "ticks": 68433
            },
            {
              "number": 1,
              "value": 0.6614173228346457,
              "time": 187.6069829375,
              "ticks": 68439
            },
            {
              "number": 1,
              "value": 0.6771653543307087,
              "time": 187.631654,
              "ticks": 68448
            },
            {
              "number": 1,
              "value": 0.6456692913385826,
              "time": 187.65906629166665,
              "ticks": 68458
            },
            {
              "number": 1,
              "value": 0.5669291338582677,
              "time": 187.68373735416665,
              "ticks": 68467
            },
            {
              "number": 1,
              "value": 0.5433070866141733,
              "time": 187.7056671875,
              "ticks": 68475
            },
            {
              "number": 1,
              "value": 0.5748031496062992,
              "time": 187.73033825,
              "ticks": 68484
            },
            {
              "number": 1,
              "value": 0.5354330708661418,
              "time": 187.76597422916666,
              "ticks": 68497
            },
            {
              "number": 1,
              "value": 0.49606299212598426,
              "time": 187.78242160416667,
              "ticks": 68503
            },
            {
              "number": 1,
              "value": 0.4015748031496063,
              "time": 187.8043514375,
              "ticks": 68511
            },
            {
              "number": 1,
              "value": 0.3779527559055118,
              "time": 187.8290225,
              "ticks": 68520
            },
            {
              "number": 1,
              "value": 0.33858267716535434,
              "time": 187.86191725,
              "ticks": 68532
            },
            {
              "number": 1,
              "value": 0.25196850393700787,
              "time": 187.88110585416666,
              "ticks": 68539
            },
            {
              "number": 1,
              "value": 0.10236220472440945,
              "time": 187.9030356875,
              "ticks": 68547
            },
            {
              "number": 1,
              "value": 0,
              "time": 187.92770675,
              "ticks": 68556
            },
            {
              "number": 1,
              "value": 0.047244094488188976,
              "time": 188.470470125,
              "ticks": 68754
            },
            {
              "number": 1,
              "value": 0.10236220472440945,
              "time": 188.4951411875,
              "ticks": 68763
            },
            {
              "number": 1,
              "value": 0.13385826771653545,
              "time": 188.52255347916665,
              "ticks": 68773
            },
            {
              "number": 1,
              "value": 0.15748031496062992,
              "time": 188.54996577083335,
              "ticks": 68783
            },
            {
              "number": 1,
              "value": 0.18110236220472442,
              "time": 188.57189560416666,
              "ticks": 68791
            },
            {
              "number": 1,
              "value": 0.2204724409448819,
              "time": 188.59930789583333,
              "ticks": 68801
            },
            {
              "number": 1,
              "value": 0.23622047244094488,
              "time": 188.62123772916667,
              "ticks": 68809
            },
            {
              "number": 1,
              "value": 0.2440944881889764,
              "time": 188.64590879166667,
              "ticks": 68818
            },
            {
              "number": 1,
              "value": 0.29133858267716534,
              "time": 188.67332108333335,
              "ticks": 68828
            },
            {
              "number": 1,
              "value": 0.3543307086614173,
              "time": 188.69799214583335,
              "ticks": 68837
            },
            {
              "number": 1,
              "value": 0.4015748031496063,
              "time": 188.71718075,
              "ticks": 68844
            },
            {
              "number": 1,
              "value": 0.4409448818897638,
              "time": 188.74185181250002,
              "ticks": 68853
            },
            {
              "number": 1,
              "value": 0.47244094488188976,
              "time": 188.766522875,
              "ticks": 68862
            },
            {
              "number": 1,
              "value": 0.5039370078740157,
              "time": 188.7911939375,
              "ticks": 68871
            },
            {
              "number": 1,
              "value": 0.5275590551181102,
              "time": 188.8240886875,
              "ticks": 68883
            },
            {
              "number": 1,
              "value": 0.5669291338582677,
              "time": 188.84327729166665,
              "ticks": 68890
            },
            {
              "number": 1,
              "value": 0.5984251968503937,
              "time": 188.87068958333336,
              "ticks": 68900
            },
            {
              "number": 1,
              "value": 0.6141732283464567,
              "time": 188.89261941666666,
              "ticks": 68908
            },
            {
              "number": 1,
              "value": 0.6299212598425197,
              "time": 188.91729047916667,
              "ticks": 68917
            },
            {
              "number": 1,
              "value": 0.6220472440944882,
              "time": 188.98582120833333,
              "ticks": 68942
            },
            {
              "number": 1,
              "value": 0.6377952755905512,
              "time": 189.04612825,
              "ticks": 68964
            },
            {
              "number": 1,
              "value": 0.6614173228346457,
              "time": 189.062575625,
              "ticks": 68970
            },
            {
              "number": 1,
              "value": 0.5984251968503937,
              "time": 189.11191775,
              "ticks": 68988
            },
            {
              "number": 1,
              "value": 0.6220472440944882,
              "time": 189.1530361875,
              "ticks": 69003
            },
            {
              "number": 1,
              "value": 0.5748031496062992,
              "time": 189.18867216666666,
              "ticks": 69016
            },
            {
              "number": 1,
              "value": 0.4881889763779528,
              "time": 189.210602,
              "ticks": 69024
            },
            {
              "number": 1,
              "value": 0.2440944881889764,
              "time": 189.2352730625,
              "ticks": 69033
            },
            {
              "number": 1,
              "value": 0.023622047244094488,
              "time": 189.26268535416665,
              "ticks": 69043
            },
            {
              "number": 1,
              "value": 0,
              "time": 189.2846151875,
              "ticks": 69051
            },
            {
              "number": 1,
              "value": 0.047244094488188976,
              "time": 190.01378214583335,
              "ticks": 69317
            },
            {
              "number": 1,
              "value": 0.2047244094488189,
              "time": 190.0247470625,
              "ticks": 69321
            },
            {
              "number": 1,
              "value": 0.31496062992125984,
              "time": 190.05490058333334,
              "ticks": 69332
            },
            {
              "number": 1,
              "value": 0.4015748031496063,
              "time": 190.07683041666667,
              "ticks": 69340
            },
            {
              "number": 1,
              "value": 0.44881889763779526,
              "time": 190.10150147916667,
              "ticks": 69349
            },
            {
              "number": 1,
              "value": 0.48031496062992124,
              "time": 190.12891377083335,
              "ticks": 69359
            },
            {
              "number": 1,
              "value": 0.5118110236220472,
              "time": 190.1563260625,
              "ticks": 69369
            },
            {
              "number": 1,
              "value": 0.5354330708661418,
              "time": 190.17551466666666,
              "ticks": 69376
            },
            {
              "number": 1,
              "value": 0.5590551181102362,
              "time": 190.21937433333335,
              "ticks": 69392
            },
            {
              "number": 1,
              "value": 0.5748031496062992,
              "time": 190.279681375,
              "ticks": 69414
            },
            {
              "number": 1,
              "value": 0.6141732283464567,
              "time": 190.29612875,
              "ticks": 69420
            },
            {
              "number": 1,
              "value": 0.6062992125984252,
              "time": 190.35917702083336,
              "ticks": 69443
            },
            {
              "number": 1,
              "value": 0.5984251968503937,
              "time": 190.37836562500001,
              "ticks": 69450
            },
            {
              "number": 1,
              "value": 0.5511811023622047,
              "time": 190.394813,
              "ticks": 69456
            },
            {
              "number": 1,
              "value": 0.4566929133858268,
              "time": 190.42222529166665,
              "ticks": 69466
            },
            {
              "number": 1,
              "value": 0.1889763779527559,
              "time": 190.44689635416665,
              "ticks": 69475
            },
            {
              "number": 1,
              "value": 0,
              "time": 190.4688261875,
              "ticks": 69483
            },
            {
              "number": 1,
              "value": 0.03937007874015748,
              "time": 191.97101977083335,
              "ticks": 70031
            },
            {
              "number": 1,
              "value": 0.07874015748031496,
              "time": 192.00117329166665,
              "ticks": 70042
            },
            {
              "number": 1,
              "value": 0.14960629921259844,
              "time": 192.02584435416665,
              "ticks": 70051
            },
            {
              "number": 1,
              "value": 0.2204724409448819,
              "time": 192.0477741875,
              "ticks": 70059
            },
            {
              "number": 1,
              "value": 0.25984251968503935,
              "time": 192.07792770833333,
              "ticks": 70070
            },
            {
              "number": 1,
              "value": 0.28346456692913385,
              "time": 192.09985754166667,
              "ticks": 70078
            },
            {
              "number": 1,
              "value": 0.31496062992125984,
              "time": 192.12452860416667,
              "ticks": 70087
            },
            {
              "number": 1,
              "value": 0.3464566929133858,
              "time": 192.1464584375,
              "ticks": 70095
            },
            {
              "number": 1,
              "value": 0.3700787401574803,
              "time": 192.1711295,
              "ticks": 70104
            },
            {
              "number": 1,
              "value": 0.3937007874015748,
              "time": 192.23966022916665,
              "ticks": 70129
            },
            {
              "number": 1,
              "value": 0.3700787401574803,
              "time": 192.27255497916667,
              "ticks": 70141
            },
            {
              "number": 1,
              "value": 0.3937007874015748,
              "time": 192.30544972916667,
              "ticks": 70153
            },
            {
              "number": 1,
              "value": 0.4015748031496063,
              "time": 192.319155875,
              "ticks": 70158
            },
            {
              "number": 1,
              "value": 0.4566929133858268,
              "time": 192.37123922916666,
              "ticks": 70177
            },
            {
              "number": 1,
              "value": 0.49606299212598426,
              "time": 192.39591029166667,
              "ticks": 70186
            },
            {
              "number": 1,
              "value": 0.5590551181102362,
              "time": 192.417840125,
              "ticks": 70194
            },
            {
              "number": 1,
              "value": 0.5826771653543307,
              "time": 192.44525241666665,
              "ticks": 70204
            },
            {
              "number": 1,
              "value": 0.49606299212598426,
              "time": 192.51104191666667,
              "ticks": 70228
            },
            {
              "number": 1,
              "value": 0.4566929133858268,
              "time": 192.54393666666667,
              "ticks": 70240
            },
            {
              "number": 1,
              "value": 0.47244094488188976,
              "time": 192.57957264583334,
              "ticks": 70253
            },
            {
              "number": 1,
              "value": 0.5275590551181102,
              "time": 192.5905375625,
              "ticks": 70257
            },
            {
              "number": 1,
              "value": 0.5433070866141733,
              "time": 192.62069108333336,
              "ticks": 70268
            },
            {
              "number": 1,
              "value": 0.5511811023622047,
              "time": 192.64262091666666,
              "ticks": 70276
            },
            {
              "number": 1,
              "value": 0.5590551181102362,
              "time": 192.6727744375,
              "ticks": 70287
            },
            {
              "number": 1,
              "value": 0.5748031496062992,
              "time": 192.6892218125,
              "ticks": 70293
            },
            {
              "number": 1,
              "value": 0.5275590551181102,
              "time": 192.73582270833336,
              "ticks": 70310
            },
            {
              "number": 1,
              "value": 0.3779527559055118,
              "time": 192.76597622916665,
              "ticks": 70321
            },
            {
              "number": 1,
              "value": 0.2755905511811024,
              "time": 192.79064729166666,
              "ticks": 70330
            },
            {
              "number": 1,
              "value": 0.08661417322834646,
              "time": 192.812577125,
              "ticks": 70338
            },
            {
              "number": 1,
              "value": 0.015748031496062992,
              "time": 192.83998941666667,
              "ticks": 70348
            },
            {
              "number": 1,
              "value": 0,
              "time": 192.86740170833335,
              "ticks": 70358
            },
            {
              "number": 1,
              "value": 0.031496062992125984,
              "time": 193.26762116666666,
              "ticks": 70504
            },
            {
              "number": 1,
              "value": 0.11811023622047244,
              "time": 193.28406854166667,
              "ticks": 70510
            },
            {
              "number": 1,
              "value": 0.2125984251968504,
              "time": 193.30873960416665,
              "ticks": 70519
            },
            {
              "number": 1,
              "value": 0.29133858267716534,
              "time": 193.3306694375,
              "ticks": 70527
            },
            {
              "number": 1,
              "value": 0.3228346456692913,
              "time": 193.35808172916666,
              "ticks": 70537
            },
            {
              "number": 1,
              "value": 0.33070866141732286,
              "time": 193.38275279166666,
              "ticks": 70546
            },
            {
              "number": 1,
              "value": 0.3464566929133858,
              "time": 193.41016508333334,
              "ticks": 70556
            },
            {
              "number": 1,
              "value": 0.2677165354330709,
              "time": 193.43483614583334,
              "ticks": 70565
            },
            {
              "number": 1,
              "value": 0.09448818897637795,
              "time": 193.45402475,
              "ticks": 70572
            },
            {
              "number": 1,
              "value": 0,
              "time": 193.48143704166665,
              "ticks": 70582
            },
            {
              "number": 1,
              "value": 0.09448818897637795,
              "time": 193.93373985416665,
              "ticks": 70747
            },
            {
              "number": 1,
              "value": 0.29133858267716534,
              "time": 193.95018722916666,
              "ticks": 70753
            },
            {
              "number": 1,
              "value": 0.4645669291338583,
              "time": 193.97485829166666,
              "ticks": 70762
            },
            {
              "number": 1,
              "value": 0.5354330708661418,
              "time": 193.996788125,
              "ticks": 70770
            },
            {
              "number": 1,
              "value": 0.5748031496062992,
              "time": 194.02420041666664,
              "ticks": 70780
            },
            {
              "number": 1,
              "value": 0.6062992125984252,
              "time": 194.04613025,
              "ticks": 70788
            },
            {
              "number": 1,
              "value": 0.6141732283464567,
              "time": 194.0708013125,
              "ticks": 70797
            },
            {
              "number": 1,
              "value": 0.5433070866141733,
              "time": 194.10643729166665,
              "ticks": 70810
            },
            {
              "number": 1,
              "value": 0.2992125984251969,
              "time": 194.12288466666666,
              "ticks": 70816
            },
            {
              "number": 1,
              "value": 0.031496062992125984,
              "time": 194.14755572916667,
              "ticks": 70825
            },
            {
              "number": 1,
              "value": 0,
              "time": 194.17222679166665,
              "ticks": 70834
            },
            {
              "number": 1,
              "value": 0.14960629921259844,
              "time": 194.44634970833334,
              "ticks": 70934
            },
            {
              "number": 1,
              "value": 0.3779527559055118,
              "time": 194.46827954166665,
              "ticks": 70942
            },
            {
              "number": 1,
              "value": 0.5275590551181102,
              "time": 194.49295060416665,
              "ticks": 70951
            },
            {
              "number": 1,
              "value": 0.5905511811023622,
              "time": 194.5148804375,
              "ticks": 70959
            },
            {
              "number": 1,
              "value": 0.6299212598425197,
              "time": 194.54229272916666,
              "ticks": 70969
            },
            {
              "number": 1,
              "value": 0.6614173228346457,
              "time": 194.5642225625,
              "ticks": 70977
            },
            {
              "number": 1,
              "value": 0.6141732283464567,
              "time": 194.60808222916665,
              "ticks": 70993
            },
            {
              "number": 1,
              "value": 0.5669291338582677,
              "time": 194.64097697916665,
              "ticks": 71005
            },
            {
              "number": 1,
              "value": 0.5039370078740157,
              "time": 194.66564804166666,
              "ticks": 71014
            },
            {
              "number": 1,
              "value": 0.4645669291338583,
              "time": 194.687577875,
              "ticks": 71022
            },
            {
              "number": 1,
              "value": 0.3858267716535433,
              "time": 194.71499016666667,
              "ticks": 71032
            },
            {
              "number": 1,
              "value": 0.12598425196850394,
              "time": 194.73692,
              "ticks": 71040
            },
            {
              "number": 1,
              "value": 0.07086614173228346,
              "time": 194.76433229166665,
              "ticks": 71050
            },
            {
              "number": 1,
              "value": 0,
              "time": 194.786262125,
              "ticks": 71058
            },
            {
              "number": 1,
              "value": 0.2204724409448819,
              "time": 195.15358683333335,
              "ticks": 71192
            },
            {
              "number": 1,
              "value": 0.25984251968503935,
              "time": 195.180999125,
              "ticks": 71202
            },
            {
              "number": 1,
              "value": 0.047244094488188976,
              "time": 195.20841141666665,
              "ticks": 71212
            },
            {
              "number": 1,
              "value": 0,
              "time": 195.23308247916665,
              "ticks": 71221
            },
            {
              "number": 1,
              "value": 0.031496062992125984,
              "time": 195.378367625,
              "ticks": 71274
            },
            {
              "number": 1,
              "value": 0.023622047244094488,
              "time": 195.41674483333335,
              "ticks": 71288
            },
            {
              "number": 1,
              "value": 0.031496062992125984,
              "time": 195.44689835416665,
              "ticks": 71299
            },
            {
              "number": 1,
              "value": 0.09448818897637795,
              "time": 195.477051875,
              "ticks": 71310
            },
            {
              "number": 1,
              "value": 0.18110236220472442,
              "time": 195.50446416666665,
              "ticks": 71320
            },
            {
              "number": 1,
              "value": 0.2440944881889764,
              "time": 195.52913522916666,
              "ticks": 71329
            },
            {
              "number": 1,
              "value": 0.2677165354330709,
              "time": 195.55106506250002,
              "ticks": 71337
            },
            {
              "number": 1,
              "value": 0.25196850393700787,
              "time": 195.57847735416667,
              "ticks": 71347
            },
            {
              "number": 1,
              "value": 0.28346456692913385,
              "time": 195.60314841666667,
              "ticks": 71356
            },
            {
              "number": 1,
              "value": 0.2992125984251969,
              "time": 195.62781947916665,
              "ticks": 71365
            },
            {
              "number": 1,
              "value": 0.25984251968503935,
              "time": 195.65523177083335,
              "ticks": 71375
            },
            {
              "number": 1,
              "value": 0.28346456692913385,
              "time": 195.6826440625,
              "ticks": 71385
            },
            {
              "number": 1,
              "value": 0.2992125984251969,
              "time": 195.69909143750002,
              "ticks": 71391
            },
            {
              "number": 1,
              "value": 0.30708661417322836,
              "time": 195.73472741666666,
              "ticks": 71404
            },
            {
              "number": 1,
              "value": 0.2992125984251969,
              "time": 195.75391602083334,
              "ticks": 71411
            },
            {
              "number": 1,
              "value": 0.4015748031496063,
              "time": 195.77584585416665,
              "ticks": 71419
            },
            {
              "number": 1,
              "value": 0.5354330708661418,
              "time": 195.80051691666665,
              "ticks": 71428
            },
            {
              "number": 1,
              "value": 0.6062992125984252,
              "time": 195.82518797916666,
              "ticks": 71437
            },
            {
              "number": 1,
              "value": 0.6456692913385826,
              "time": 195.8471178125,
              "ticks": 71445
            },
            {
              "number": 1,
              "value": 0.6614173228346457,
              "time": 195.88275379166666,
              "ticks": 71458
            },
            {
              "number": 1,
              "value": 0.6692913385826772,
              "time": 195.91016608333334,
              "ticks": 71468
            },
            {
              "number": 1,
              "value": 0.7007874015748031,
              "time": 195.921131,
              "ticks": 71472
            },
            {
              "number": 1,
              "value": 0.7086614173228346,
              "time": 195.94854329166665,
              "ticks": 71482
            },
            {
              "number": 1,
              "value": 0.6614173228346457,
              "time": 195.9786968125,
              "ticks": 71493
            },
            {
              "number": 1,
              "value": 0.6141732283464567,
              "time": 195.9951441875,
              "ticks": 71499
            },
            {
              "number": 1,
              "value": 0.5511811023622047,
              "time": 196.0444863125,
              "ticks": 71517
            },
            {
              "number": 1,
              "value": 0.5354330708661418,
              "time": 196.07189860416665,
              "ticks": 71527
            },
            {
              "number": 1,
              "value": 0.5511811023622047,
              "time": 196.1102758125,
              "ticks": 71541
            },
            {
              "number": 1,
              "value": 0.47244094488188976,
              "time": 196.15413547916665,
              "ticks": 71557
            },
            {
              "number": 1,
              "value": 0.4251968503937008,
              "time": 196.17058285416667,
              "ticks": 71563
            },
            {
              "number": 1,
              "value": 0.4409448818897638,
              "time": 196.19799514583335,
              "ticks": 71573
            },
            {
              "number": 1,
              "value": 0.5118110236220472,
              "time": 196.24459604166665,
              "ticks": 71590
            },
            {
              "number": 1,
              "value": 0.5590551181102362,
              "time": 196.26926710416666,
              "ticks": 71599
            },
            {
              "number": 1,
              "value": 0.3858267716535433,
              "time": 196.29667939583334,
              "ticks": 71609
            },
            {
              "number": 1,
              "value": 0.023622047244094488,
              "time": 196.32135045833334,
              "ticks": 71618
            },
            {
              "number": 1,
              "value": 0,
              "time": 196.34328029166667,
              "ticks": 71626
            },
            {
              "number": 1,
              "value": 0.031496062992125984,
              "time": 196.842184,
              "ticks": 71808
            },
            {
              "number": 1,
              "value": 0.08661417322834646,
              "time": 196.85863137500002,
              "ticks": 71814
            },
            {
              "number": 1,
              "value": 0.13385826771653545,
              "time": 196.88604366666667,
              "ticks": 71824
            },
            {
              "number": 1,
              "value": 0.1732283464566929,
              "time": 196.91071472916667,
              "ticks": 71833
            },
            {
              "number": 1,
              "value": 0.18110236220472442,
              "time": 196.9326445625,
              "ticks": 71841
            },
            {
              "number": 1,
              "value": 0.1732283464566929,
              "time": 196.957315625,
              "ticks": 71850
            },
            {
              "number": 1,
              "value": 0.18110236220472442,
              "time": 196.98472791666666,
              "ticks": 71860
            },
            {
              "number": 1,
              "value": 0.2204724409448819,
              "time": 197.0148814375,
              "ticks": 71871
            },
            {
              "number": 1,
              "value": 0.28346456692913385,
              "time": 197.0313288125,
              "ticks": 71877
            },
            {
              "number": 1,
              "value": 0.31496062992125984,
              "time": 197.055999875,
              "ticks": 71886
            },
            {
              "number": 1,
              "value": 0.33070866141732286,
              "time": 197.08341216666665,
              "ticks": 71896
            },
            {
              "number": 1,
              "value": 0.3543307086614173,
              "time": 197.10808322916665,
              "ticks": 71905
            },
            {
              "number": 1,
              "value": 0.4015748031496063,
              "time": 197.1300130625,
              "ticks": 71913
            },
            {
              "number": 1,
              "value": 0.4330708661417323,
              "time": 197.15742535416666,
              "ticks": 71923
            },
            {
              "number": 1,
              "value": 0.44881889763779526,
              "time": 197.18209641666667,
              "ticks": 71932
            },
            {
              "number": 1,
              "value": 0.4645669291338583,
              "time": 197.20950870833335,
              "ticks": 71942
            },
            {
              "number": 1,
              "value": 0.4881889763779528,
              "time": 197.23417977083335,
              "ticks": 71951
            },
            {
              "number": 1,
              "value": 0.49606299212598426,
              "time": 197.28078066666666,
              "ticks": 71968
            },
            {
              "number": 1,
              "value": 0.5039370078740157,
              "time": 197.31641664583336,
              "ticks": 71981
            },
            {
              "number": 1,
              "value": 0.5118110236220472,
              "time": 197.33286402083334,
              "ticks": 71987
            },
            {
              "number": 1,
              "value": 0.5196850393700787,
              "time": 197.3602763125,
              "ticks": 71997
            },
            {
              "number": 1,
              "value": 0.5433070866141733,
              "time": 197.37946491666665,
              "ticks": 72004
            },
            {
              "number": 1,
              "value": 0.5511811023622047,
              "time": 197.4096184375,
              "ticks": 72015
            },
            {
              "number": 1,
              "value": 0.5354330708661418,
              "time": 197.4425131875,
              "ticks": 72027
            },
            {
              "number": 1,
              "value": 0.5590551181102362,
              "time": 197.47814916666667,
              "ticks": 72040
            },
            {
              "number": 1,
              "value": 0.5748031496062992,
              "time": 197.50556145833335,
              "ticks": 72050
            },
            {
              "number": 1,
              "value": 0.5905511811023622,
              "time": 197.53571497916667,
              "ticks": 72061
            },
            {
              "number": 1,
              "value": 0.5826771653543307,
              "time": 197.60424570833334,
              "ticks": 72086
            },
            {
              "number": 1,
              "value": 0.49606299212598426,
              "time": 197.62617554166667,
              "ticks": 72094
            },
            {
              "number": 1,
              "value": 0.33858267716535434,
              "time": 197.65084660416665,
              "ticks": 72103
            },
            {
              "number": 1,
              "value": 0.07086614173228346,
              "time": 197.67551766666665,
              "ticks": 72112
            },
            {
              "number": 1,
              "value": 0,
              "time": 197.6974475,
              "ticks": 72120
            },
            {
              "number": 1,
              "value": 0.1968503937007874,
              "time": 198.45676797916667,
              "ticks": 72397
            },
            {
              "number": 1,
              "value": 0.31496062992125984,
              "time": 198.48966272916667,
              "ticks": 72409
            },
            {
              "number": 1,
              "value": 0.3700787401574803,
              "time": 198.5115925625,
              "ticks": 72417
            },
            {
              "number": 1,
              "value": 0.4094488188976378,
              "time": 198.54174608333335,
              "ticks": 72428
            },
            {
              "number": 1,
              "value": 0.4330708661417323,
              "time": 198.56367591666665,
              "ticks": 72436
            },
            {
              "number": 1,
              "value": 0.4566929133858268,
              "time": 198.58834697916666,
              "ticks": 72445
            },
            {
              "number": 1,
              "value": 0.4645669291338583,
              "time": 198.61575927083334,
              "ticks": 72455
            },
            {
              "number": 1,
              "value": 0.4409448818897638,
              "time": 198.64043033333334,
              "ticks": 72464
            },
            {
              "number": 1,
              "value": 0.4251968503937008,
              "time": 198.66236016666667,
              "ticks": 72472
            },
            {
              "number": 1,
              "value": 0.44881889763779526,
              "time": 198.68429,
              "ticks": 72480
            },
            {
              "number": 1,
              "value": 0.4645669291338583,
              "time": 198.71444352083336,
              "ticks": 72491
            },
            {
              "number": 1,
              "value": 0.47244094488188976,
              "time": 198.7418558125,
              "ticks": 72501
            },
            {
              "number": 1,
              "value": 0.48031496062992124,
              "time": 198.7583031875,
              "ticks": 72507
            },
            {
              "number": 1,
              "value": 0.4881889763779528,
              "time": 198.79393916666666,
              "ticks": 72520
            },
            {
              "number": 1,
              "value": 0.49606299212598426,
              "time": 198.81312777083335,
              "ticks": 72527
            },
            {
              "number": 1,
              "value": 0.5039370078740157,
              "time": 198.84602252083334,
              "ticks": 72539
            },
            {
              "number": 1,
              "value": 0.5118110236220472,
              "time": 198.865211125,
              "ticks": 72546
            },
            {
              "number": 1,
              "value": 0.5039370078740157,
              "time": 198.90907079166666,
              "ticks": 72562
            },
            {
              "number": 1,
              "value": 0.11811023622047244,
              "time": 198.931000625,
              "ticks": 72570
            },
            {
              "number": 1,
              "value": 0,
              "time": 198.9556716875,
              "ticks": 72579
            },
            {
              "number": 1,
              "value": 0.08661417322834646,
              "time": 200.41400560416665,
              "ticks": 73111
            },
            {
              "number": 1,
              "value": 0.2125984251968504,
              "time": 200.43045297916666,
              "ticks": 73117
            },
            {
              "number": 1,
              "value": 0.28346456692913385,
              "time": 200.4523828125,
              "ticks": 73125
            },
            {
              "number": 1,
              "value": 0.33858267716535434,
              "time": 200.47979510416667,
              "ticks": 73135
            },
            {
              "number": 1,
              "value": 0.3700787401574803,
              "time": 200.5017249375,
              "ticks": 73143
            },
            {
              "number": 1,
              "value": 0.4015748031496063,
              "time": 200.52913722916665,
              "ticks": 73153
            },
            {
              "number": 1,
              "value": 0.4251968503937008,
              "time": 200.55380829166666,
              "ticks": 73162
            },
            {
              "number": 1,
              "value": 0.4566929133858268,
              "time": 200.57573812500002,
              "ticks": 73170
            },
            {
              "number": 1,
              "value": 0.4645669291338583,
              "time": 200.61137410416666,
              "ticks": 73183
            },
            {
              "number": 1,
              "value": 0.44881889763779526,
              "time": 200.641527625,
              "ticks": 73194
            },
            {
              "number": 1,
              "value": 0.3937007874015748,
              "time": 200.65249254166665,
              "ticks": 73198
            },
            {
              "number": 1,
              "value": 0.3779527559055118,
              "time": 200.674422375,
              "ticks": 73206
            },
            {
              "number": 1,
              "value": 0.3543307086614173,
              "time": 200.72650572916666,
              "ticks": 73225
            },
            {
              "number": 1,
              "value": 0.3937007874015748,
              "time": 200.75665925,
              "ticks": 73236
            },
            {
              "number": 1,
              "value": 0.4566929133858268,
              "time": 200.773106625,
              "ticks": 73242
            },
            {
              "number": 1,
              "value": 0.49606299212598426,
              "time": 200.80051891666665,
              "ticks": 73252
            },
            {
              "number": 1,
              "value": 0.5433070866141733,
              "time": 200.82518997916665,
              "ticks": 73261
            },
            {
              "number": 1,
              "value": 0.5826771653543307,
              "time": 200.8471198125,
              "ticks": 73269
            },
            {
              "number": 1,
              "value": 0.6062992125984252,
              "time": 200.87179087500002,
              "ticks": 73278
            },
            {
              "number": 1,
              "value": 0.5590551181102362,
              "time": 200.9458040625,
              "ticks": 73305
            },
            {
              "number": 1,
              "value": 0.4881889763779528,
              "time": 200.97321635416665,
              "ticks": 73315
            },
            {
              "number": 1,
              "value": 0.3700787401574803,
              "time": 200.99788741666666,
              "ticks": 73324
            },
            {
              "number": 1,
              "value": 0.29133858267716534,
              "time": 201.02255847916666,
              "ticks": 73333
            },
            {
              "number": 1,
              "value": 0.2992125984251969,
              "time": 201.04997077083334,
              "ticks": 73343
            },
            {
              "number": 1,
              "value": 0.33070866141732286,
              "time": 201.08012429166666,
              "ticks": 73354
            },
            {
              "number": 1,
              "value": 0.3937007874015748,
              "time": 201.09657166666665,
              "ticks": 73360
            },
            {
              "number": 1,
              "value": 0.41732283464566927,
              "time": 201.1185015,
              "ticks": 73368
            },
            {
              "number": 1,
              "value": 0.4566929133858268,
              "time": 201.1431725625,
              "ticks": 73377
            },
            {
              "number": 1,
              "value": 0.3779527559055118,
              "time": 201.1760673125,
              "ticks": 73389
            },
            {
              "number": 1,
              "value": 0.14960629921259844,
              "time": 201.19525591666667,
              "ticks": 73396
            },
            {
              "number": 1,
              "value": 0,
              "time": 201.21992697916667,
              "ticks": 73405
            },
            {
              "number": 1,
              "value": 0.13385826771653545,
              "time": 202.500081,
              "ticks": 73872
            },
            {
              "number": 1,
              "value": 0.33858267716535434,
              "time": 202.53023452083335,
              "ticks": 73883
            },
            {
              "number": 1,
              "value": 0.4645669291338583,
              "time": 202.55216435416665,
              "ticks": 73891
            },
            {
              "number": 1,
              "value": 0.5196850393700787,
              "time": 202.5740941875,
              "ticks": 73899
            },
            {
              "number": 1,
              "value": 0.5275590551181102,
              "time": 202.61795385416667,
              "ticks": 73915
            },
            {
              "number": 1,
              "value": 0.5669291338582677,
              "time": 202.62891877083334,
              "ticks": 73919
            },
            {
              "number": 1,
              "value": 0.5826771653543307,
              "time": 202.65633106250002,
              "ticks": 73929
            },
            {
              "number": 1,
              "value": 0.4645669291338583,
              "time": 202.67551966666664,
              "ticks": 73936
            },
            {
              "number": 1,
              "value": 0.2677165354330709,
              "time": 202.6974495,
              "ticks": 73944
            },
            {
              "number": 1,
              "value": 0.15748031496062992,
              "time": 202.72486179166665,
              "ticks": 73954
            },
            {
              "number": 1,
              "value": 0.07086614173228346,
              "time": 202.75227408333333,
              "ticks": 73964
            },
            {
              "number": 1,
              "value": 0,
              "time": 202.77420391666666,
              "ticks": 73972
            },
            {
              "number": 1,
              "value": 0.015748031496062992,
              "time": 203.29229622916665,
              "ticks": 74161
            },
            {
              "number": 1,
              "value": 0.023622047244094488,
              "time": 203.3306734375,
              "ticks": 74175
            },
            {
              "number": 1,
              "value": 0.047244094488188976,
              "time": 203.39098047916667,
              "ticks": 74197
            },
            {
              "number": 1,
              "value": 0.09448818897637795,
              "time": 203.4129103125,
              "ticks": 74205
            },
            {
              "number": 1,
              "value": 0.16535433070866143,
              "time": 203.437581375,
              "ticks": 74214
            },
            {
              "number": 1,
              "value": 0.2755905511811024,
              "time": 203.4622524375,
              "ticks": 74223
            },
            {
              "number": 1,
              "value": 0.3464566929133858,
              "time": 203.48966472916666,
              "ticks": 74233
            },
            {
              "number": 1,
              "value": 0.4094488188976378,
              "time": 203.5115945625,
              "ticks": 74241
            },
            {
              "number": 1,
              "value": 0.47244094488188976,
              "time": 203.54174808333335,
              "ticks": 74252
            },
            {
              "number": 1,
              "value": 0.5354330708661418,
              "time": 203.56367791666665,
              "ticks": 74260
            },
            {
              "number": 1,
              "value": 0.5590551181102362,
              "time": 203.58834897916665,
              "ticks": 74269
            },
            {
              "number": 1,
              "value": 0.31496062992125984,
              "time": 203.6102788125,
              "ticks": 74277
            },
            {
              "number": 1,
              "value": 0.23622047244094488,
              "time": 203.64043233333334,
              "ticks": 74288
            },
            {
              "number": 1,
              "value": 0.2125984251968504,
              "time": 203.684292,
              "ticks": 74304
            },
            {
              "number": 1,
              "value": 0.18110236220472442,
              "time": 203.71992797916667,
              "ticks": 74317
            },
            {
              "number": 1,
              "value": 0.07874015748031496,
              "time": 203.733634125,
              "ticks": 74322
            },
            {
              "number": 1,
              "value": 0.015748031496062992,
              "time": 203.76104641666666,
              "ticks": 74332
            },
            {
              "number": 1,
              "value": 0,
              "time": 203.78571747916666,
              "ticks": 74341
            },
            {
              "number": 1,
              "value": 0.031496062992125984,
              "time": 203.84328329166667,
              "ticks": 74362
            },
            {
              "number": 1,
              "value": 0.06299212598425197,
              "time": 203.85973066666665,
              "ticks": 74368
            },
            {
              "number": 1,
              "value": 0.10236220472440945,
              "time": 203.88440172916665,
              "ticks": 74377
            },
            {
              "number": 1,
              "value": 0.18110236220472442,
              "time": 203.90633156250001,
              "ticks": 74385
            },
            {
              "number": 1,
              "value": 0.25196850393700787,
              "time": 203.93374385416666,
              "ticks": 74395
            },
            {
              "number": 1,
              "value": 0.29133858267716534,
              "time": 203.95841491666667,
              "ticks": 74404
            },
            {
              "number": 1,
              "value": 0.2125984251968504,
              "time": 203.98308597916665,
              "ticks": 74413
            },
            {
              "number": 1,
              "value": 0.1732283464566929,
              "time": 204.0050158125,
              "ticks": 74421
            },
            {
              "number": 1,
              "value": 0.13385826771653545,
              "time": 204.03242810416666,
              "ticks": 74431
            },
            {
              "number": 1,
              "value": 0.12598425196850394,
              "time": 204.06532285416665,
              "ticks": 74443
            },
            {
              "number": 1,
              "value": 0.14960629921259844,
              "time": 204.0872526875,
              "ticks": 74451
            },
            {
              "number": 1,
              "value": 0.11023622047244094,
              "time": 204.11466497916666,
              "ticks": 74461
            },
            {
              "number": 1,
              "value": 0.07874015748031496,
              "time": 204.13385358333335,
              "ticks": 74468
            },
            {
              "number": 1,
              "value": 0.11811023622047244,
              "time": 204.15852464583335,
              "ticks": 74477
            },
            {
              "number": 1,
              "value": 0.16535433070866143,
              "time": 204.18045447916666,
              "ticks": 74485
            },
            {
              "number": 1,
              "value": 0.25984251968503935,
              "time": 204.20238431250002,
              "ticks": 74493
            },
            {
              "number": 1,
              "value": 0.4566929133858268,
              "time": 204.227055375,
              "ticks": 74502
            },
            {
              "number": 1,
              "value": 0.5354330708661418,
              "time": 204.25446766666667,
              "ticks": 74512
            },
            {
              "number": 1,
              "value": 0.5669291338582677,
              "time": 204.2763975,
              "ticks": 74520
            },
            {
              "number": 1,
              "value": 0.5826771653543307,
              "time": 204.3010685625,
              "ticks": 74529
            },
            {
              "number": 1,
              "value": 0.6062992125984252,
              "time": 204.33670454166665,
              "ticks": 74542
            },
            {
              "number": 1,
              "value": 0.6141732283464567,
              "time": 204.36411683333336,
              "ticks": 74552
            },
            {
              "number": 1,
              "value": 0.6220472440944882,
              "time": 204.37782297916667,
              "ticks": 74557
            },
            {
              "number": 1,
              "value": 0.6141732283464567,
              "time": 204.40523527083334,
              "ticks": 74567
            },
            {
              "number": 1,
              "value": 0.6299212598425197,
              "time": 204.4326475625,
              "ticks": 74577
            },
            {
              "number": 1,
              "value": 0.6614173228346457,
              "time": 204.4490949375,
              "ticks": 74583
            },
            {
              "number": 1,
              "value": 0.6771653543307087,
              "time": 204.473766,
              "ticks": 74592
            },
            {
              "number": 1,
              "value": 0.6456692913385826,
              "time": 204.50117829166666,
              "ticks": 74602
            },
            {
              "number": 1,
              "value": 0.5669291338582677,
              "time": 204.52584935416667,
              "ticks": 74611
            },
            {
              "number": 1,
              "value": 0.5433070866141733,
              "time": 204.5477791875,
              "ticks": 74619
            },
            {
              "number": 1,
              "value": 0.5748031496062992,
              "time": 204.57245025,
              "ticks": 74628
            },
            {
              "number": 1,
              "value": 0.5354330708661418,
              "time": 204.60808622916664,
              "ticks": 74641
            },
            {
              "number": 1,
              "value": 0.49606299212598426,
              "time": 204.62453360416666,
              "ticks": 74647
            },
            {
              "number": 1,
              "value": 0.4015748031496063,
              "time": 204.6464634375,
              "ticks": 74655
            },
            {
              "number": 1,
              "value": 0.3779527559055118,
              "time": 204.6711345,
              "ticks": 74664
            },
            {
              "number": 1,
              "value": 0.33858267716535434,
              "time": 204.70402925,
              "ticks": 74676
            },
            {
              "number": 1,
              "value": 0.25196850393700787,
              "time": 204.72321785416665,
              "ticks": 74683
            },
            {
              "number": 1,
              "value": 0.10236220472440945,
              "time": 204.7451476875,
              "ticks": 74691
            },
            {
              "number": 1,
              "value": 0,
              "time": 204.76981875,
              "ticks": 74700
            },
            {
              "number": 1,
              "value": 0.047244094488188976,
              "time": 205.312582125,
              "ticks": 74898
            },
            {
              "number": 1,
              "value": 0.10236220472440945,
              "time": 205.3372531875,
              "ticks": 74907
            },
            {
              "number": 1,
              "value": 0.13385826771653545,
              "time": 205.36466547916666,
              "ticks": 74917
            },
            {
              "number": 1,
              "value": 0.15748031496062992,
              "time": 205.39207777083334,
              "ticks": 74927
            },
            {
              "number": 1,
              "value": 0.18110236220472442,
              "time": 205.41400760416667,
              "ticks": 74935
            },
            {
              "number": 1,
              "value": 0.2204724409448819,
              "time": 205.44141989583335,
              "ticks": 74945
            },
            {
              "number": 1,
              "value": 0.23622047244094488,
              "time": 205.46334972916665,
              "ticks": 74953
            },
            {
              "number": 1,
              "value": 0.2440944881889764,
              "time": 205.48802079166666,
              "ticks": 74962
            },
            {
              "number": 1,
              "value": 0.29133858267716534,
              "time": 205.51543308333333,
              "ticks": 74972
            },
            {
              "number": 1,
              "value": 0.3543307086614173,
              "time": 205.54010414583334,
              "ticks": 74981
            },
            {
              "number": 1,
              "value": 0.4015748031496063,
              "time": 205.55929275,
              "ticks": 74988
            },
            {
              "number": 1,
              "value": 0.4409448818897638,
              "time": 205.5839638125,
              "ticks": 74997
            },
            {
              "number": 1,
              "value": 0.47244094488188976,
              "time": 205.608634875,
              "ticks": 75006
            },
            {
              "number": 1,
              "value": 0.5039370078740157,
              "time": 205.6333059375,
              "ticks": 75015
            },
            {
              "number": 1,
              "value": 0.5275590551181102,
              "time": 205.6662006875,
              "ticks": 75027
            },
            {
              "number": 1,
              "value": 0.5669291338582677,
              "time": 205.68538929166667,
              "ticks": 75034
            },
            {
              "number": 1,
              "value": 0.5984251968503937,
              "time": 205.71280158333334,
              "ticks": 75044
            },
            {
              "number": 1,
              "value": 0.6141732283464567,
              "time": 205.73473141666665,
              "ticks": 75052
            },
            {
              "number": 1,
              "value": 0.6299212598425197,
              "time": 205.75940247916665,
              "ticks": 75061
            },
            {
              "number": 1,
              "value": 0.6220472440944882,
              "time": 205.82793320833335,
              "ticks": 75086
            },
            {
              "number": 1,
              "value": 0.6377952755905512,
              "time": 205.88824025,
              "ticks": 75108
            },
            {
              "number": 1,
              "value": 0.6614173228346457,
              "time": 205.904687625,
              "ticks": 75114
            },
            {
              "number": 1,
              "value": 0.5984251968503937,
              "time": 205.95402975,
              "ticks": 75132
            },
            {
              "number": 1,
              "value": 0.6141732283464567,
              "time": 205.9951481875,
              "ticks": 75147
            },
            {
              "number": 1,
              "value": 0.6220472440944882,
              "time": 206.00611310416667,
              "ticks": 75151
            },
            {
              "number": 1,
              "value": 0.5748031496062992,
              "time": 206.03078416666665,
              "ticks": 75160
            },
            {
              "number": 1,
              "value": 0.4881889763779528,
              "time": 206.052714,
              "ticks": 75168
            },
            {
              "number": 1,
              "value": 0.2440944881889764,
              "time": 206.0773850625,
              "ticks": 75177
            },
            {
              "number": 1,
              "value": 0.023622047244094488,
              "time": 206.10479735416666,
              "ticks": 75187
            },
            {
              "number": 1,
              "value": 0,
              "time": 206.1267271875,
              "ticks": 75195
            },
            {
              "number": 1,
              "value": 0.047244094488188976,
              "time": 206.85589414583333,
              "ticks": 75461
            },
            {
              "number": 1,
              "value": 0.2047244094488189,
              "time": 206.8668590625,
              "ticks": 75465
            },
            {
              "number": 1,
              "value": 0.31496062992125984,
              "time": 206.89701258333335,
              "ticks": 75476
            },
            {
              "number": 1,
              "value": 0.4015748031496063,
              "time": 206.91894241666665,
              "ticks": 75484
            },
            {
              "number": 1,
              "value": 0.44881889763779526,
              "time": 206.94361347916666,
              "ticks": 75493
            },
            {
              "number": 1,
              "value": 0.48031496062992124,
              "time": 206.97102577083334,
              "ticks": 75503
            },
            {
              "number": 1,
              "value": 0.5118110236220472,
              "time": 206.99843806250001,
              "ticks": 75513
            },
            {
              "number": 1,
              "value": 0.5354330708661418,
              "time": 207.01762666666667,
              "ticks": 75520
            },
            {
              "number": 1,
              "value": 0.5433070866141733,
              "time": 207.06148633333333,
              "ticks": 75536
            },
            {
              "number": 1,
              "value": 0.5590551181102362,
              "time": 207.06696879166665,
              "ticks": 75538
            },
            {
              "number": 1,
              "value": 0.5748031496062992,
              "time": 207.121793375,
              "ticks": 75558
            },
            {
              "number": 1,
              "value": 0.6141732283464567,
              "time": 207.13824075,
              "ticks": 75564
            },
            {
              "number": 1,
              "value": 0.6062992125984252,
              "time": 207.20128902083334,
              "ticks": 75587
            },
            {
              "number": 1,
              "value": 0.5984251968503937,
              "time": 207.220477625,
              "ticks": 75594
            },
            {
              "number": 1,
              "value": 0.5511811023622047,
              "time": 207.236925,
              "ticks": 75600
            },
            {
              "number": 1,
              "value": 0.4566929133858268,
              "time": 207.26433729166666,
              "ticks": 75610
            },
            {
              "number": 1,
              "value": 0.1889763779527559,
              "time": 207.28900835416667,
              "ticks": 75619
            },
            {
              "number": 1,
              "value": 0,
              "time": 207.3109381875,
              "ticks": 75627
            },
            {
              "number": 1,
              "value": 0.007874015748031496,
              "time": 208.81313177083334,
              "ticks": 76175
            },
            {
              "number": 1,
              "value": 0.03937007874015748,
              "time": 208.82135545833336,
              "ticks": 76178
            },
            {
              "number": 1,
              "value": 0.07874015748031496,
              "time": 208.84328529166666,
              "ticks": 76186
            },
            {
              "number": 1,
              "value": 0.14960629921259844,
              "time": 208.86795635416667,
              "ticks": 76195
            },
            {
              "number": 1,
              "value": 0.2204724409448819,
              "time": 208.8898861875,
              "ticks": 76203
            },
            {
              "number": 1,
              "value": 0.25984251968503935,
              "time": 208.92003970833335,
              "ticks": 76214
            },
            {
              "number": 1,
              "value": 0.28346456692913385,
              "time": 208.94196954166665,
              "ticks": 76222
            },
            {
              "number": 1,
              "value": 0.31496062992125984,
              "time": 208.96664060416666,
              "ticks": 76231
            },
            {
              "number": 1,
              "value": 0.3464566929133858,
              "time": 208.98857043750002,
              "ticks": 76239
            },
            {
              "number": 1,
              "value": 0.3700787401574803,
              "time": 209.0132415,
              "ticks": 76248
            },
            {
              "number": 1,
              "value": 0.3858267716535433,
              "time": 209.08177222916666,
              "ticks": 76273
            },
            {
              "number": 1,
              "value": 0.3937007874015748,
              "time": 209.09273714583335,
              "ticks": 76277
            },
            {
              "number": 1,
              "value": 0.3700787401574803,
              "time": 209.11466697916666,
              "ticks": 76285
            },
            {
              "number": 1,
              "value": 0.3937007874015748,
              "time": 209.14756172916665,
              "ticks": 76297
            },
            {
              "number": 1,
              "value": 0.4015748031496063,
              "time": 209.161267875,
              "ticks": 76302
            },
            {
              "number": 1,
              "value": 0.4566929133858268,
              "time": 209.21335122916665,
              "ticks": 76321
            },
            {
              "number": 1,
              "value": 0.49606299212598426,
              "time": 209.23802229166665,
              "ticks": 76330
            },
            {
              "number": 1,
              "value": 0.5590551181102362,
              "time": 209.259952125,
              "ticks": 76338
            },
            {
              "number": 1,
              "value": 0.5826771653543307,
              "time": 209.28736441666666,
              "ticks": 76348
            },
            {
              "number": 1,
              "value": 0.5669291338582677,
              "time": 209.35315391666666,
              "ticks": 76372
            },
            {
              "number": 1,
              "value": 0.49606299212598426,
              "time": 209.358636375,
              "ticks": 76374
            },
            {
              "number": 1,
              "value": 0.4566929133858268,
              "time": 209.38604866666665,
              "ticks": 76384
            },
            {
              "number": 1,
              "value": 0.47244094488188976,
              "time": 209.42168464583335,
              "ticks": 76397
            },
            {
              "number": 1,
              "value": 0.5275590551181102,
              "time": 209.4326495625,
              "ticks": 76401
            },
            {
              "number": 1,
              "value": 0.5433070866141733,
              "time": 209.46280308333334,
              "ticks": 76412
            },
            {
              "number": 1,
              "value": 0.5511811023622047,
              "time": 209.48473291666667,
              "ticks": 76420
            },
            {
              "number": 1,
              "value": 0.5590551181102362,
              "time": 209.5148864375,
              "ticks": 76431
            },
            {
              "number": 1,
              "value": 0.5748031496062992,
              "time": 209.5313338125,
              "ticks": 76437
            },
            {
              "number": 1,
              "value": 0.5826771653543307,
              "time": 209.57793470833334,
              "ticks": 76454
            },
            {
              "number": 1,
              "value": 0.5275590551181102,
              "time": 209.59164085416666,
              "ticks": 76459
            },
            {
              "number": 1,
              "value": 0.3779527559055118,
              "time": 209.60808822916667,
              "ticks": 76465
            },
            {
              "number": 1,
              "value": 0.2755905511811024,
              "time": 209.63275929166667,
              "ticks": 76474
            },
            {
              "number": 1,
              "value": 0.08661417322834646,
              "time": 209.654689125,
              "ticks": 76482
            },
            {
              "number": 1,
              "value": 0.015748031496062992,
              "time": 209.68210141666665,
              "ticks": 76492
            },
            {
              "number": 1,
              "value": 0,
              "time": 209.70951370833333,
              "ticks": 76502
            },
            {
              "number": 1,
              "value": 0.031496062992125984,
              "time": 210.10973316666667,
              "ticks": 76648
            },
            {
              "number": 1,
              "value": 0.11811023622047244,
              "time": 210.12618054166666,
              "ticks": 76654
            },
            {
              "number": 1,
              "value": 0.2125984251968504,
              "time": 210.15085160416666,
              "ticks": 76663
            },
            {
              "number": 1,
              "value": 0.29133858267716534,
              "time": 210.1727814375,
              "ticks": 76671
            },
            {
              "number": 1,
              "value": 0.3228346456692913,
              "time": 210.20019372916667,
              "ticks": 76681
            },
            {
              "number": 1,
              "value": 0.33070866141732286,
              "time": 210.22486479166665,
              "ticks": 76690
            },
            {
              "number": 1,
              "value": 0.3464566929133858,
              "time": 210.25227708333335,
              "ticks": 76700
            },
            {
              "number": 1,
              "value": 0.2677165354330709,
              "time": 210.27694814583336,
              "ticks": 76709
            },
            {
              "number": 1,
              "value": 0.09448818897637795,
              "time": 210.29613675000002,
              "ticks": 76716
            },
            {
              "number": 1,
              "value": 0,
              "time": 210.32354904166667,
              "ticks": 76726
            },
            {
              "number": 1,
              "value": 0.09448818897637795,
              "time": 210.77585185416666,
              "ticks": 76891
            },
            {
              "number": 1,
              "value": 0.29133858267716534,
              "time": 210.79229922916667,
              "ticks": 76897
            },
            {
              "number": 1,
              "value": 0.4645669291338583,
              "time": 210.81697029166665,
              "ticks": 76906
            },
            {
              "number": 1,
              "value": 0.5354330708661418,
              "time": 210.838900125,
              "ticks": 76914
            },
            {
              "number": 1,
              "value": 0.5748031496062992,
              "time": 210.86631241666666,
              "ticks": 76924
            },
            {
              "number": 1,
              "value": 0.6062992125984252,
              "time": 210.88824225,
              "ticks": 76932
            },
            {
              "number": 1,
              "value": 0.6141732283464567,
              "time": 210.9129133125,
              "ticks": 76941
            },
            {
              "number": 1,
              "value": 0.5433070866141733,
              "time": 210.94854929166667,
              "ticks": 76954
            },
            {
              "number": 1,
              "value": 0.2992125984251969,
              "time": 210.96499666666665,
              "ticks": 76960
            },
            {
              "number": 1,
              "value": 0.031496062992125984,
              "time": 210.98966772916665,
              "ticks": 76969
            },
            {
              "number": 1,
              "value": 0,
              "time": 211.01433879166666,
              "ticks": 76978
            },
            {
              "number": 1,
              "value": 0.14960629921259844,
              "time": 211.28846170833336,
              "ticks": 77078
            },
            {
              "number": 1,
              "value": 0.3779527559055118,
              "time": 211.31039154166666,
              "ticks": 77086
            },
            {
              "number": 1,
              "value": 0.5275590551181102,
              "time": 211.33506260416667,
              "ticks": 77095
            },
            {
              "number": 1,
              "value": 0.5905511811023622,
              "time": 211.3569924375,
              "ticks": 77103
            },
            {
              "number": 1,
              "value": 0.6299212598425197,
              "time": 211.38440472916665,
              "ticks": 77113
            },
            {
              "number": 1,
              "value": 0.6614173228346457,
              "time": 211.4063345625,
              "ticks": 77121
            },
            {
              "number": 1,
              "value": 0.6535433070866141,
              "time": 211.45019422916667,
              "ticks": 77137
            },
            {
              "number": 1,
              "value": 0.6141732283464567,
              "time": 211.46115914583334,
              "ticks": 77141
            },
            {
              "number": 1,
              "value": 0.5669291338582677,
              "time": 211.48308897916667,
              "ticks": 77149
            },
            {
              "number": 1,
              "value": 0.5039370078740157,
              "time": 211.50776004166667,
              "ticks": 77158
            },
            {
              "number": 1,
              "value": 0.4645669291338583,
              "time": 211.529689875,
              "ticks": 77166
            },
            {
              "number": 1,
              "value": 0.3858267716535433,
              "time": 211.55710216666665,
              "ticks": 77176
            },
            {
              "number": 1,
              "value": 0.12598425196850394,
              "time": 211.579032,
              "ticks": 77184
            },
            {
              "number": 1,
              "value": 0.07086614173228346,
              "time": 211.60644429166666,
              "ticks": 77194
            },
            {
              "number": 1,
              "value": 0,
              "time": 211.628374125,
              "ticks": 77202
            },
            {
              "number": 1,
              "value": 0.023622047244094488,
              "time": 211.99569883333334,
              "ticks": 77336
            },
            {
              "number": 1,
              "value": 0.2204724409448819,
              "time": 212.00118129166665,
              "ticks": 77338
            },
            {
              "number": 1,
              "value": 0.25984251968503935,
              "time": 212.023111125,
              "ticks": 77346
            },
            {
              "number": 1,
              "value": 0.047244094488188976,
              "time": 212.05052341666666,
              "ticks": 77356
            },
            {
              "number": 1,
              "value": 0,
              "time": 212.07519447916667,
              "ticks": 77365
            },
            {
              "number": 1,
              "value": 0.031496062992125984,
              "time": 212.220479625,
              "ticks": 77418
            },
            {
              "number": 1,
              "value": 0.023622047244094488,
              "time": 212.25885683333334,
              "ticks": 77432
            },
            {
              "number": 1,
              "value": 0.031496062992125984,
              "time": 212.28901035416666,
              "ticks": 77443
            },
            {
              "number": 1,
              "value": 0.09448818897637795,
              "time": 212.31916387500002,
              "ticks": 77454
            },
            {
              "number": 1,
              "value": 0.18110236220472442,
              "time": 212.34657616666667,
              "ticks": 77464
            },
            {
              "number": 1,
              "value": 0.2440944881889764,
              "time": 212.37124722916667,
              "ticks": 77473
            },
            {
              "number": 1,
              "value": 0.2677165354330709,
              "time": 212.3931770625,
              "ticks": 77481
            },
            {
              "number": 1,
              "value": 0.25196850393700787,
              "time": 212.42058935416665,
              "ticks": 77491
            },
            {
              "number": 1,
              "value": 0.28346456692913385,
              "time": 212.44526041666666,
              "ticks": 77500
            },
            {
              "number": 1,
              "value": 0.2992125984251969,
              "time": 212.46993147916666,
              "ticks": 77509
            },
            {
              "number": 1,
              "value": 0.25984251968503935,
              "time": 212.49734377083334,
              "ticks": 77519
            },
            {
              "number": 1,
              "value": 0.28346456692913385,
              "time": 212.5247560625,
              "ticks": 77529
            },
            {
              "number": 1,
              "value": 0.2992125984251969,
              "time": 212.5412034375,
              "ticks": 77535
            },
            {
              "number": 1,
              "value": 0.30708661417322836,
              "time": 212.57683941666667,
              "ticks": 77548
            },
            {
              "number": 1,
              "value": 0.2992125984251969,
              "time": 212.59602802083336,
              "ticks": 77555
            },
            {
              "number": 1,
              "value": 0.4015748031496063,
              "time": 212.61795785416666,
              "ticks": 77563
            },
            {
              "number": 1,
              "value": 0.5354330708661418,
              "time": 212.64262891666667,
              "ticks": 77572
            },
            {
              "number": 1,
              "value": 0.6062992125984252,
              "time": 212.66729997916667,
              "ticks": 77581
            },
            {
              "number": 1,
              "value": 0.6456692913385826,
              "time": 212.6892298125,
              "ticks": 77589
            },
            {
              "number": 1,
              "value": 0.6614173228346457,
              "time": 212.72486579166667,
              "ticks": 77602
            },
            {
              "number": 1,
              "value": 0.6692913385826772,
              "time": 212.75227808333335,
              "ticks": 77612
            },
            {
              "number": 1,
              "value": 0.7007874015748031,
              "time": 212.763243,
              "ticks": 77616
            },
            {
              "number": 1,
              "value": 0.7086614173228346,
              "time": 212.79065529166667,
              "ticks": 77626
            },
            {
              "number": 1,
              "value": 0.6614173228346457,
              "time": 212.8208088125,
              "ticks": 77637
            },
            {
              "number": 1,
              "value": 0.6141732283464567,
              "time": 212.8372561875,
              "ticks": 77643
            },
            {
              "number": 1,
              "value": 0.5511811023622047,
              "time": 212.8865983125,
              "ticks": 77661
            },
            {
              "number": 1,
              "value": 0.5354330708661418,
              "time": 212.91401060416666,
              "ticks": 77671
            },
            {
              "number": 1,
              "value": 0.5275590551181102,
              "time": 212.9523878125,
              "ticks": 77685
            },
            {
              "number": 1,
              "value": 0.5511811023622047,
              "time": 212.97157641666666,
              "ticks": 77692
            },
            {
              "number": 1,
              "value": 0.47244094488188976,
              "time": 212.99624747916667,
              "ticks": 77701
            },
            {
              "number": 1,
              "value": 0.4251968503937008,
              "time": 213.01269485416665,
              "ticks": 77707
            },
            {
              "number": 1,
              "value": 0.4409448818897638,
              "time": 213.04010714583333,
              "ticks": 77717
            },
            {
              "number": 1,
              "value": 0.5118110236220472,
              "time": 213.08670804166667,
              "ticks": 77734
            },
            {
              "number": 1,
              "value": 0.5590551181102362,
              "time": 213.11137910416667,
              "ticks": 77743
            },
            {
              "number": 1,
              "value": 0.3858267716535433,
              "time": 213.13879139583335,
              "ticks": 77753
            },
            {
              "number": 1,
              "value": 0.023622047244094488,
              "time": 213.16346245833336,
              "ticks": 77762
            },
            {
              "number": 1,
              "value": 0,
              "time": 213.18539229166666,
              "ticks": 77770
            },
            {
              "number": 1,
              "value": 0.031496062992125984,
              "time": 213.684296,
              "ticks": 77952
            },
            {
              "number": 1,
              "value": 0.08661417322834646,
              "time": 213.700743375,
              "ticks": 77958
            },
            {
              "number": 1,
              "value": 0.13385826771653545,
              "time": 213.72815566666665,
              "ticks": 77968
            },
            {
              "number": 1,
              "value": 0.1732283464566929,
              "time": 213.75282672916666,
              "ticks": 77977
            },
            {
              "number": 1,
              "value": 0.18110236220472442,
              "time": 213.77475656250002,
              "ticks": 77985
            },
            {
              "number": 1,
              "value": 0.1732283464566929,
              "time": 213.799427625,
              "ticks": 77994
            },
            {
              "number": 1,
              "value": 0.18110236220472442,
              "time": 213.82683991666667,
              "ticks": 78004
            },
            {
              "number": 1,
              "value": 0.2204724409448819,
              "time": 213.8569934375,
              "ticks": 78015
            },
            {
              "number": 1,
              "value": 0.28346456692913385,
              "time": 213.8734408125,
              "ticks": 78021
            },
            {
              "number": 1,
              "value": 0.31496062992125984,
              "time": 213.898111875,
              "ticks": 78030
            },
            {
              "number": 1,
              "value": 0.33070866141732286,
              "time": 213.92552416666666,
              "ticks": 78040
            },
            {
              "number": 1,
              "value": 0.3543307086614173,
              "time": 213.95019522916667,
              "ticks": 78049
            },
            {
              "number": 1,
              "value": 0.4015748031496063,
              "time": 213.9721250625,
              "ticks": 78057
            },
            {
              "number": 1,
              "value": 0.4330708661417323,
              "time": 213.99953735416665,
              "ticks": 78067
            },
            {
              "number": 1,
              "value": 0.44881889763779526,
              "time": 214.02420841666665,
              "ticks": 78076
            },
            {
              "number": 1,
              "value": 0.4645669291338583,
              "time": 214.05162070833336,
              "ticks": 78086
            },
            {
              "number": 1,
              "value": 0.4881889763779528,
              "time": 214.07629177083334,
              "ticks": 78095
            },
            {
              "number": 1,
              "value": 0.49606299212598426,
              "time": 214.12289266666667,
              "ticks": 78112
            },
            {
              "number": 1,
              "value": 0.5039370078740157,
              "time": 214.15852864583334,
              "ticks": 78125
            },
            {
              "number": 1,
              "value": 0.5118110236220472,
              "time": 214.17497602083336,
              "ticks": 78131
            },
            {
              "number": 1,
              "value": 0.5196850393700787,
              "time": 214.2023883125,
              "ticks": 78141
            },
            {
              "number": 1,
              "value": 0.5433070866141733,
              "time": 214.22157691666666,
              "ticks": 78148
            },
            {
              "number": 1,
              "value": 0.5511811023622047,
              "time": 214.25173043750002,
              "ticks": 78159
            },
            {
              "number": 1,
              "value": 0.5433070866141733,
              "time": 214.2846251875,
              "ticks": 78171
            },
            {
              "number": 1,
              "value": 0.5354330708661418,
              "time": 214.3010725625,
              "ticks": 78177
            },
            {
              "number": 1,
              "value": 0.5590551181102362,
              "time": 214.32026116666665,
              "ticks": 78184
            },
            {
              "number": 1,
              "value": 0.5748031496062992,
              "time": 214.34767345833333,
              "ticks": 78194
            },
            {
              "number": 1,
              "value": 0.5905511811023622,
              "time": 214.37782697916666,
              "ticks": 78205
            },
            {
              "number": 1,
              "value": 0.5826771653543307,
              "time": 214.44635770833335,
              "ticks": 78230
            },
            {
              "number": 1,
              "value": 0.49606299212598426,
              "time": 214.46828754166665,
              "ticks": 78238
            },
            {
              "number": 1,
              "value": 0.33858267716535434,
              "time": 214.49295860416666,
              "ticks": 78247
            },
            {
              "number": 1,
              "value": 0.07086614173228346,
              "time": 214.51762966666666,
              "ticks": 78256
            },
            {
              "number": 1,
              "value": 0,
              "time": 214.5395595,
              "ticks": 78264
            },
            {
              "number": 1,
              "value": 0.03937007874015748,
              "time": 215.29887997916666,
              "ticks": 78541
            },
            {
              "number": 1,
              "value": 0.1968503937007874,
              "time": 215.30984489583335,
              "ticks": 78545
            },
            {
              "number": 1,
              "value": 0.31496062992125984,
              "time": 215.33177472916665,
              "ticks": 78553
            },
            {
              "number": 1,
              "value": 0.3700787401574803,
              "time": 215.3537045625,
              "ticks": 78561
            },
            {
              "number": 1,
              "value": 0.4094488188976378,
              "time": 215.38385808333334,
              "ticks": 78572
            },
            {
              "number": 1,
              "value": 0.4330708661417323,
              "time": 215.40578791666667,
              "ticks": 78580
            },
            {
              "number": 1,
              "value": 0.4566929133858268,
              "time": 215.43045897916667,
              "ticks": 78589
            },
            {
              "number": 1,
              "value": 0.4645669291338583,
              "time": 215.45787127083335,
              "ticks": 78599
            },
            {
              "number": 1,
              "value": 0.4409448818897638,
              "time": 215.48254233333336,
              "ticks": 78608
            },
            {
              "number": 1,
              "value": 0.4251968503937008,
              "time": 215.50447216666666,
              "ticks": 78616
            },
            {
              "number": 1,
              "value": 0.44881889763779526,
              "time": 215.526402,
              "ticks": 78624
            },
            {
              "number": 1,
              "value": 0.4645669291338583,
              "time": 215.55655552083334,
              "ticks": 78635
            },
            {
              "number": 1,
              "value": 0.47244094488188976,
              "time": 215.5839678125,
              "ticks": 78645
            },
            {
              "number": 1,
              "value": 0.48031496062992124,
              "time": 215.6004151875,
              "ticks": 78651
            },
            {
              "number": 1,
              "value": 0.4881889763779528,
              "time": 215.63605116666665,
              "ticks": 78664
            },
            {
              "number": 1,
              "value": 0.49606299212598426,
              "time": 215.65523977083333,
              "ticks": 78671
            },
            {
              "number": 1,
              "value": 0.5039370078740157,
              "time": 215.68813452083336,
              "ticks": 78683
            },
            {
              "number": 1,
              "value": 0.5118110236220472,
              "time": 215.70732312500002,
              "ticks": 78690
            },
            {
              "number": 1,
              "value": 0.5039370078740157,
              "time": 215.75118279166665,
              "ticks": 78706
            },
            {
              "number": 1,
              "value": 0.11811023622047244,
              "time": 215.773112625,
              "ticks": 78714
            },
            {
              "number": 1,
              "value": 0,
              "time": 215.79778368750002,
              "ticks": 78723
            }
          ],
          "6": [
            {
              "number": 6,
              "value": 0.015748031496062992,
              "time": 0.016447375,
              "ticks": 6
            }
          ],
          "7": [
            {
              "number": 7,
              "value": 0.7086614173228346,
              "time": 1.5899129166666668,
              "ticks": 580
            }
          ],
          "10": [
            {
              "number": 10,
              "value": 0.5039370078740157,
              "time": 1.595395375,
              "ticks": 582
            }
          ],
          "11": [
            {
              "number": 11,
              "value": 1,
              "time": 0.019188604166666668,
              "ticks": 7
            },
            {
              "number": 11,
              "value": 1,
              "time": 0.027412291666666668,
              "ticks": 10
            },
            {
              "number": 11,
              "value": 1,
              "time": 1.6008778333333333,
              "ticks": 584
            }
          ],
          "32": [
            {
              "number": 32,
              "value": 0,
              "time": 1.5844304583333333,
              "ticks": 578
            }
          ],
          "64": [
            {
              "number": 64,
              "value": 0,
              "time": 0.0082236875,
              "ticks": 3
            }
          ],
          "67": [
            {
              "number": 67,
              "value": 0,
              "time": 0.005482458333333333,
              "ticks": 2
            }
          ],
          "91": [
            {
              "number": 91,
              "value": 0.6299212598425197,
              "time": 1.6063602916666668,
              "ticks": 586
            }
          ],
          "93": [
            {
              "number": 93,
              "value": 0,
              "time": 1.61184275,
              "ticks": 588
            }
          ],
          "100": [
            {
              "number": 100,
              "value": 0,
              "time": 0.010964916666666666,
              "ticks": 4
            }
          ],
          "101": [
            {
              "number": 101,
              "value": 0,
              "time": 0.013706145833333334,
              "ticks": 5
            }
          ],
          "121": [
            {
              "number": 121,
              "value": 0,
              "time": 0,
              "ticks": 0
            }
          ],
          "123": [
            {
              "number": 123,
              "value": 0,
              "time": 244.210624,
              "ticks": 89088
            }
          ]
        }
      },
      {
        "name": "",
        "channel": 0,
        "instrument": {
          "number": 0,
          "name": "acoustic grand piano",
          "family": "piano"
        },
        "notes": [],
        "controlChanges": {}
      },
      {
        "name": "",
        "channel": 0,
        "instrument": {
          "number": 0,
          "name": "acoustic grand piano",
          "family": "piano"
        },
        "notes": [],
        "controlChanges": {}
      },
      {
        "name": "",
        "channel": 0,
        "instrument": {
          "number": 0,
          "name": "acoustic grand piano",
          "family": "piano"
        },
        "notes": [],
        "controlChanges": {}
      }
    ]
  }