{
    "header": {
      "name": "",
      "ppq": 96,
      "meta": [
        {
          "type": "keySignature",
          "ticks": 0
        }
      ],
      "tempos": [
        {
          "ticks": 0,
          "bpm": 169.0002788504601
        }
      ],
      "timeSignatures": [
        {
          "ticks": 0,
          "timeSignature": [
            4,
            4
          ],
          "measures": 0
        }
      ]
    },
    "tracks": [
      {
        "name": "Slap Bass 2         ",
        "channel": 0,
        "instrument": {
          "number": 36,
          "name": "slap bass 1",
          "family": "bass"
        },
        "notes": [
          {
            "time": 12.714476062500001,
            "midi": 47,
            "name": "B2",
            "velocity": 1,
            "duration": 0.1553251875000008,
            "ticks": 3438,
            "durationTicks": 42
          },
          {
            "time": 13.391250093750001,
            "midi": 35,
            "name": "B1",
            "velocity": 1,
            "duration": 0.16272162500000142,
            "ticks": 3621,
            "durationTicks": 44
          },
          {
            "time": 13.7499773125,
            "midi": 35,
            "name": "B1",
            "velocity": 1,
            "duration": 0.10355012500000171,
            "ticks": 3718,
            "durationTicks": 28
          },
          {
            "time": 13.923793593750002,
            "midi": 35,
            "name": "B1",
            "velocity": 1,
            "duration": 0.1183430000000012,
            "ticks": 3765,
            "durationTicks": 32
          },
          {
            "time": 14.1050063125,
            "midi": 47,
            "name": "B2",
            "velocity": 1,
            "duration": 0.14423053125000074,
            "ticks": 3814,
            "durationTicks": 39
          },
          {
            "time": 14.312106562500002,
            "midi": 47,
            "name": "B2",
            "velocity": 1,
            "duration": 0.18121271874999856,
            "ticks": 3870,
            "durationTicks": 49
          },
          {
            "time": 14.637549812500001,
            "midi": 35,
            "name": "B1",
            "velocity": 1,
            "duration": 0.14792875000000016,
            "ticks": 3958,
            "durationTicks": 40
          },
          {
            "time": 15.173791531250002,
            "midi": 35,
            "name": "B1",
            "velocity": 1,
            "duration": 0.11094656250000057,
            "ticks": 4103,
            "durationTicks": 30
          },
          {
            "time": 15.318022062500003,
            "midi": 35,
            "name": "B1",
            "velocity": 1,
            "duration": 0.12204121875000062,
            "ticks": 4142,
            "durationTicks": 33
          },
          {
            "time": 15.528820531250002,
            "midi": 47,
            "name": "B2",
            "velocity": 1,
            "duration": 0.18121271875000033,
            "ticks": 4199,
            "durationTicks": 49
          },
          {
            "time": 16.24257675,
            "midi": 35,
            "name": "B1",
            "velocity": 1,
            "duration": 0.1553251875000008,
            "ticks": 4392,
            "durationTicks": 42
          },
          {
            "time": 16.6345879375,
            "midi": 35,
            "name": "B1",
            "velocity": 1,
            "duration": 0.10724834375000114,
            "ticks": 4498,
            "durationTicks": 29
          },
          {
            "time": 16.804706000000003,
            "midi": 35,
            "name": "B1",
            "velocity": 1,
            "duration": 0.11834299999999942,
            "ticks": 4544,
            "durationTicks": 32
          },
          {
            "time": 16.95263475,
            "midi": 47,
            "name": "B2",
            "velocity": 1,
            "duration": 0.1479287499999984,
            "ticks": 4584,
            "durationTicks": 40
          },
          {
            "time": 17.130149250000002,
            "midi": 47,
            "name": "B2",
            "velocity": 1,
            "duration": 0.1701180624999985,
            "ticks": 4632,
            "durationTicks": 46
          },
          {
            "time": 17.48517825,
            "midi": 35,
            "name": "B1",
            "velocity": 1,
            "duration": 0.19230737500000217,
            "ticks": 4728,
            "durationTicks": 52
          },
          {
            "time": 18.417129375000002,
            "midi": 35,
            "name": "B1",
            "velocity": 1,
            "duration": 0.11834299999999942,
            "ticks": 4980,
            "durationTicks": 32
          },
          {
            "time": 18.5872474375,
            "midi": 35,
            "name": "B1",
            "velocity": 1,
            "duration": 0.11834300000000297,
            "ticks": 5026,
            "durationTicks": 32
          },
          {
            "time": 18.768460156250004,
            "midi": 35,
            "name": "B1",
            "velocity": 1,
            "duration": 0.11094656249999701,
            "ticks": 5075,
            "durationTicks": 30
          },
          {
            "time": 19.65603265625,
            "midi": 40,
            "name": "E2",
            "velocity": 1,
            "duration": 0.13313587500000068,
            "ticks": 5315,
            "durationTicks": 36
          },
          {
            "time": 20.011061656250003,
            "midi": 40,
            "name": "E2",
            "velocity": 1,
            "duration": 0.1294376562499977,
            "ticks": 5411,
            "durationTicks": 35
          },
          {
            "time": 20.369788875,
            "midi": 40,
            "name": "E2",
            "velocity": 1,
            "duration": 0.09985190625000229,
            "ticks": 5508,
            "durationTicks": 27
          },
          {
            "time": 20.55100159375,
            "midi": 40,
            "name": "E2",
            "velocity": 1,
            "duration": 0.4807684375000001,
            "ticks": 5557,
            "durationTicks": 130
          },
          {
            "time": 21.264757812500005,
            "midi": 33,
            "name": "A1",
            "velocity": 1,
            "duration": 0.12204121874999885,
            "ticks": 5750,
            "durationTicks": 33
          },
          {
            "time": 21.438574093750002,
            "midi": 33,
            "name": "A1",
            "velocity": 1,
            "duration": 0.11834299999999942,
            "ticks": 5797,
            "durationTicks": 32
          },
          {
            "time": 21.619786812500003,
            "midi": 33,
            "name": "A1",
            "velocity": 1,
            "duration": 0.12573943749999827,
            "ticks": 5846,
            "durationTicks": 34
          },
          {
            "time": 22.50366109375,
            "midi": 38,
            "name": "D2",
            "velocity": 1,
            "duration": 0.13313587500000068,
            "ticks": 6085,
            "durationTicks": 36
          },
          {
            "time": 22.862388312500002,
            "midi": 38,
            "name": "D2",
            "velocity": 1,
            "duration": 0.12573943750000183,
            "ticks": 6182,
            "durationTicks": 34
          },
          {
            "time": 23.2174173125,
            "midi": 38,
            "name": "D2",
            "velocity": 1,
            "duration": 0.11834300000000297,
            "ticks": 6278,
            "durationTicks": 32
          },
          {
            "time": 23.402328250000004,
            "midi": 37,
            "name": "C#2",
            "velocity": 1,
            "duration": 0.543638156250001,
            "ticks": 6328,
            "durationTicks": 147
          },
          {
            "time": 24.11608446875,
            "midi": 35,
            "name": "B1",
            "velocity": 1,
            "duration": 0.11464478125000355,
            "ticks": 6521,
            "durationTicks": 31
          },
          {
            "time": 24.28620253125,
            "midi": 35,
            "name": "B1",
            "velocity": 1,
            "duration": 0.11464478125000355,
            "ticks": 6567,
            "durationTicks": 31
          },
          {
            "time": 24.467415250000005,
            "midi": 35,
            "name": "B1",
            "velocity": 1,
            "duration": 0.11094656250000057,
            "ticks": 6616,
            "durationTicks": 30
          },
          {
            "time": 25.354987750000003,
            "midi": 40,
            "name": "E2",
            "velocity": 1,
            "duration": 0.12943765625000125,
            "ticks": 6856,
            "durationTicks": 35
          },
          {
            "time": 25.710016750000005,
            "midi": 40,
            "name": "E2",
            "velocity": 1,
            "duration": 0.12573943749999472,
            "ticks": 6952,
            "durationTicks": 34
          },
          {
            "time": 26.065045750000003,
            "midi": 40,
            "name": "E2",
            "velocity": 1,
            "duration": 0.10355012499999816,
            "ticks": 7048,
            "durationTicks": 28
          },
          {
            "time": 26.249956687500003,
            "midi": 40,
            "name": "E2",
            "velocity": 1,
            "duration": 0.4807684375000001,
            "ticks": 7098,
            "durationTicks": 130
          },
          {
            "time": 26.963712906250006,
            "midi": 33,
            "name": "A1",
            "velocity": 1,
            "duration": 0.12204121874999885,
            "ticks": 7291,
            "durationTicks": 33
          },
          {
            "time": 27.13383096875,
            "midi": 33,
            "name": "A1",
            "velocity": 1,
            "duration": 0.12204121874999885,
            "ticks": 7337,
            "durationTicks": 33
          },
          {
            "time": 27.315043687500005,
            "midi": 33,
            "name": "A1",
            "velocity": 1,
            "duration": 0.12573943749999827,
            "ticks": 7386,
            "durationTicks": 34
          },
          {
            "time": 28.202616187500002,
            "midi": 38,
            "name": "D2",
            "velocity": 1,
            "duration": 0.13313587500000068,
            "ticks": 7626,
            "durationTicks": 36
          },
          {
            "time": 28.557645187500004,
            "midi": 38,
            "name": "D2",
            "velocity": 1,
            "duration": 0.1294376562499977,
            "ticks": 7722,
            "durationTicks": 35
          },
          {
            "time": 28.916372406250005,
            "midi": 38,
            "name": "D2",
            "velocity": 1,
            "duration": 0.11464478124999644,
            "ticks": 7819,
            "durationTicks": 31
          },
          {
            "time": 29.097585125000002,
            "midi": 37,
            "name": "C#2",
            "velocity": 1,
            "duration": 0.5473363750000004,
            "ticks": 7868,
            "durationTicks": 148
          },
          {
            "time": 29.815039562500004,
            "midi": 35,
            "name": "B1",
            "velocity": 1,
            "duration": 0.11464478124999644,
            "ticks": 8062,
            "durationTicks": 31
          },
          {
            "time": 29.985157625000003,
            "midi": 35,
            "name": "B1",
            "velocity": 1,
            "duration": 0.11464478125,
            "ticks": 8108,
            "durationTicks": 31
          },
          {
            "time": 30.166370343750003,
            "midi": 35,
            "name": "B1",
            "velocity": 1,
            "duration": 0.11464478125,
            "ticks": 8157,
            "durationTicks": 31
          },
          {
            "time": 31.053942843750004,
            "midi": 40,
            "name": "E2",
            "velocity": 1,
            "duration": 0.1294376562499977,
            "ticks": 8397,
            "durationTicks": 35
          },
          {
            "time": 31.408971843750003,
            "midi": 40,
            "name": "E2",
            "velocity": 1,
            "duration": 0.12573943750000183,
            "ticks": 8493,
            "durationTicks": 34
          },
          {
            "time": 31.764000843750004,
            "midi": 40,
            "name": "E2",
            "velocity": 1,
            "duration": 0.09985190624999873,
            "ticks": 8589,
            "durationTicks": 27
          },
          {
            "time": 31.94891178125,
            "midi": 40,
            "name": "E2",
            "velocity": 1,
            "duration": 0.4770702187500042,
            "ticks": 8639,
            "durationTicks": 129
          },
          {
            "time": 32.662668000000004,
            "midi": 35,
            "name": "B1",
            "velocity": 1,
            "duration": 0.12204121874999885,
            "ticks": 8832,
            "durationTicks": 33
          },
          {
            "time": 32.832786062500006,
            "midi": 35,
            "name": "B1",
            "velocity": 1,
            "duration": 0.12573943749999472,
            "ticks": 8878,
            "durationTicks": 34
          },
          {
            "time": 33.01399878125,
            "midi": 35,
            "name": "B1",
            "velocity": 1,
            "duration": 0.12573943750000183,
            "ticks": 8927,
            "durationTicks": 34
          },
          {
            "time": 33.90157128125,
            "midi": 40,
            "name": "E2",
            "velocity": 1,
            "duration": 0.1294376562500048,
            "ticks": 9167,
            "durationTicks": 35
          },
          {
            "time": 34.25660028125,
            "midi": 40,
            "name": "E2",
            "velocity": 1,
            "duration": 0.12573943750000183,
            "ticks": 9263,
            "durationTicks": 34
          },
          {
            "time": 34.61162928125,
            "midi": 40,
            "name": "E2",
            "velocity": 1,
            "duration": 0.11834300000000297,
            "ticks": 9359,
            "durationTicks": 32
          },
          {
            "time": 34.79654021875,
            "midi": 40,
            "name": "E2",
            "velocity": 1,
            "duration": 0.5436381562500046,
            "ticks": 9409,
            "durationTicks": 147
          },
          {
            "time": 35.5102964375,
            "midi": 35,
            "name": "B1",
            "velocity": 1,
            "duration": 0.11834300000000297,
            "ticks": 9602,
            "durationTicks": 32
          },
          {
            "time": 35.680414500000005,
            "midi": 35,
            "name": "B1",
            "velocity": 1,
            "duration": 0.11834299999999587,
            "ticks": 9648,
            "durationTicks": 32
          },
          {
            "time": 35.86162721875001,
            "midi": 35,
            "name": "B1",
            "velocity": 1,
            "duration": 0.11834299999999587,
            "ticks": 9697,
            "durationTicks": 32
          },
          {
            "time": 36.749199718750006,
            "midi": 40,
            "name": "E2",
            "velocity": 1,
            "duration": 0.13313587500000068,
            "ticks": 9937,
            "durationTicks": 36
          },
          {
            "time": 37.10422871875001,
            "midi": 40,
            "name": "E2",
            "velocity": 1,
            "duration": 0.1294376562499977,
            "ticks": 10033,
            "durationTicks": 35
          },
          {
            "time": 37.45925771875,
            "midi": 40,
            "name": "E2",
            "velocity": 1,
            "duration": 0.10355012499999816,
            "ticks": 10129,
            "durationTicks": 28
          },
          {
            "time": 37.64416865625,
            "midi": 40,
            "name": "E2",
            "velocity": 1,
            "duration": 0.48076843750000364,
            "ticks": 10179,
            "durationTicks": 130
          },
          {
            "time": 38.35792487500001,
            "midi": 33,
            "name": "A1",
            "velocity": 1,
            "duration": 0.12204121874999885,
            "ticks": 10372,
            "durationTicks": 33
          },
          {
            "time": 38.53174115625001,
            "midi": 33,
            "name": "A1",
            "velocity": 1,
            "duration": 0.12573943750000183,
            "ticks": 10419,
            "durationTicks": 34
          },
          {
            "time": 38.70925565625,
            "midi": 33,
            "name": "A1",
            "velocity": 1,
            "duration": 0.1294376562500048,
            "ticks": 10467,
            "durationTicks": 35
          },
          {
            "time": 39.596828156250005,
            "midi": 38,
            "name": "D2",
            "velocity": 1,
            "duration": 0.13313587500000068,
            "ticks": 10707,
            "durationTicks": 36
          },
          {
            "time": 39.955555375,
            "midi": 38,
            "name": "D2",
            "velocity": 1,
            "duration": 0.12573943750000183,
            "ticks": 10804,
            "durationTicks": 34
          },
          {
            "time": 40.310584375000005,
            "midi": 38,
            "name": "D2",
            "velocity": 1,
            "duration": 0.11834300000000297,
            "ticks": 10900,
            "durationTicks": 32
          },
          {
            "time": 40.495495312500005,
            "midi": 37,
            "name": "C#2",
            "velocity": 1,
            "duration": 0.5436381562499975,
            "ticks": 10950,
            "durationTicks": 147
          },
          {
            "time": 41.209251531250004,
            "midi": 35,
            "name": "B1",
            "velocity": 1,
            "duration": 0.11464478125,
            "ticks": 11143,
            "durationTicks": 31
          },
          {
            "time": 41.379369593750006,
            "midi": 35,
            "name": "B1",
            "velocity": 1,
            "duration": 0.11834300000000297,
            "ticks": 11189,
            "durationTicks": 32
          },
          {
            "time": 41.5605823125,
            "midi": 35,
            "name": "B1",
            "velocity": 1,
            "duration": 0.11464478125,
            "ticks": 11238,
            "durationTicks": 31
          },
          {
            "time": 42.44815481250001,
            "midi": 40,
            "name": "E2",
            "velocity": 1,
            "duration": 0.1294376562499977,
            "ticks": 11478,
            "durationTicks": 35
          },
          {
            "time": 42.8031838125,
            "midi": 40,
            "name": "E2",
            "velocity": 1,
            "duration": 0.12573943750000183,
            "ticks": 11574,
            "durationTicks": 34
          },
          {
            "time": 43.158212812500004,
            "midi": 40,
            "name": "E2",
            "velocity": 1,
            "duration": 0.10355012500000527,
            "ticks": 11670,
            "durationTicks": 28
          },
          {
            "time": 43.343123750000004,
            "midi": 40,
            "name": "E2",
            "velocity": 1,
            "duration": 0.48076843750000364,
            "ticks": 11720,
            "durationTicks": 130
          },
          {
            "time": 44.05687996875,
            "midi": 33,
            "name": "A1",
            "velocity": 1,
            "duration": 0.12204121874999885,
            "ticks": 11913,
            "durationTicks": 33
          },
          {
            "time": 44.226998031250005,
            "midi": 33,
            "name": "A1",
            "velocity": 1,
            "duration": 0.1294376562499977,
            "ticks": 11959,
            "durationTicks": 35
          },
          {
            "time": 44.40821075,
            "midi": 33,
            "name": "A1",
            "velocity": 1,
            "duration": 0.12573943750000183,
            "ticks": 12008,
            "durationTicks": 34
          },
          {
            "time": 45.29578325000001,
            "midi": 38,
            "name": "D2",
            "velocity": 1,
            "duration": 0.13313587499999358,
            "ticks": 12248,
            "durationTicks": 36
          },
          {
            "time": 45.65081225000001,
            "midi": 38,
            "name": "D2",
            "velocity": 1,
            "duration": 0.1294376562499906,
            "ticks": 12344,
            "durationTicks": 35
          },
          {
            "time": 46.009539468750006,
            "midi": 38,
            "name": "D2",
            "velocity": 1,
            "duration": 0.11464478124999289,
            "ticks": 12441,
            "durationTicks": 31
          },
          {
            "time": 46.1907521875,
            "midi": 37,
            "name": "C#2",
            "velocity": 1,
            "duration": 0.5473363750000075,
            "ticks": 12490,
            "durationTicks": 148
          },
          {
            "time": 46.90450840625001,
            "midi": 35,
            "name": "B1",
            "velocity": 1,
            "duration": 0.11834299999998876,
            "ticks": 12683,
            "durationTicks": 32
          },
          {
            "time": 47.074626468750004,
            "midi": 35,
            "name": "B1",
            "velocity": 1,
            "duration": 0.11834300000000297,
            "ticks": 12729,
            "durationTicks": 32
          },
          {
            "time": 47.25953740625001,
            "midi": 35,
            "name": "B1",
            "velocity": 1,
            "duration": 0.11464478124999289,
            "ticks": 12779,
            "durationTicks": 31
          },
          {
            "time": 48.1434116875,
            "midi": 40,
            "name": "E2",
            "velocity": 1,
            "duration": 0.13313587500000068,
            "ticks": 13018,
            "durationTicks": 36
          },
          {
            "time": 48.50213890625001,
            "midi": 40,
            "name": "E2",
            "velocity": 1,
            "duration": 0.12573943749999472,
            "ticks": 13115,
            "durationTicks": 34
          },
          {
            "time": 48.857167906250005,
            "midi": 40,
            "name": "E2",
            "velocity": 1,
            "duration": 0.10355012499999816,
            "ticks": 13211,
            "durationTicks": 28
          },
          {
            "time": 49.038380625,
            "midi": 40,
            "name": "E2",
            "velocity": 1,
            "duration": 0.4844666562500066,
            "ticks": 13260,
            "durationTicks": 131
          },
          {
            "time": 49.75213684375,
            "midi": 42,
            "name": "F#2",
            "velocity": 1,
            "duration": 0.12573943750000893,
            "ticks": 13453,
            "durationTicks": 34
          },
          {
            "time": 49.92595312500001,
            "midi": 42,
            "name": "F#2",
            "velocity": 1,
            "duration": 0.12573943749999472,
            "ticks": 13500,
            "durationTicks": 34
          },
          {
            "time": 50.10716584375,
            "midi": 42,
            "name": "F#2",
            "velocity": 1,
            "duration": 0.12573943750000893,
            "ticks": 13549,
            "durationTicks": 34
          },
          {
            "time": 50.99473834375,
            "midi": 38,
            "name": "D2",
            "velocity": 1,
            "duration": 0.13313587500000068,
            "ticks": 13789,
            "durationTicks": 36
          },
          {
            "time": 51.34976734375,
            "midi": 38,
            "name": "D2",
            "velocity": 1,
            "duration": 0.12573943750000893,
            "ticks": 13885,
            "durationTicks": 34
          },
          {
            "time": 51.704796343750004,
            "midi": 54,
            "name": "F#3",
            "velocity": 1,
            "duration": 0.1627216250000032,
            "ticks": 13981,
            "durationTicks": 44
          },
          {
            "time": 51.889707281250004,
            "midi": 52,
            "name": "E3",
            "velocity": 1,
            "duration": 0.15532518750000435,
            "ticks": 14031,
            "durationTicks": 42
          },
          {
            "time": 52.06352356250001,
            "midi": 50,
            "name": "D3",
            "velocity": 1,
            "duration": 0.1627216249999961,
            "ticks": 14078,
            "durationTicks": 44
          },
          {
            "time": 52.244736281250006,
            "midi": 49,
            "name": "C#3",
            "velocity": 1,
            "duration": 0.15532518749999724,
            "ticks": 14127,
            "durationTicks": 42
          },
          {
            "time": 52.41855256250001,
            "midi": 47,
            "name": "B2",
            "velocity": 1,
            "duration": 0.162721624999989,
            "ticks": 14174,
            "durationTicks": 44
          },
          {
            "time": 52.603463500000004,
            "midi": 33,
            "name": "A1",
            "velocity": 1,
            "duration": 0.12204121874999885,
            "ticks": 14224,
            "durationTicks": 33
          },
          {
            "time": 52.773581562500006,
            "midi": 33,
            "name": "A1",
            "velocity": 1,
            "duration": 0.11464478125,
            "ticks": 14270,
            "durationTicks": 31
          },
          {
            "time": 52.95479428125,
            "midi": 33,
            "name": "A1",
            "velocity": 1,
            "duration": 0.2588753125000025,
            "ticks": 14319,
            "durationTicks": 70
          },
          {
            "time": 53.309823281250004,
            "midi": 33,
            "name": "A1",
            "velocity": 1,
            "duration": 0.24778065625000067,
            "ticks": 14415,
            "durationTicks": 67
          },
          {
            "time": 53.664852281250006,
            "midi": 33,
            "name": "A1",
            "velocity": 1,
            "duration": 0.25147887500000365,
            "ticks": 14511,
            "durationTicks": 68
          },
          {
            "time": 54.02727771875001,
            "midi": 32,
            "name": "G#1",
            "velocity": 1,
            "duration": 0.2440824375000048,
            "ticks": 14609,
            "durationTicks": 66
          },
          {
            "time": 54.378608500000006,
            "midi": 32,
            "name": "G#1",
            "velocity": 1,
            "duration": 0.2736681875000002,
            "ticks": 14704,
            "durationTicks": 74
          },
          {
            "time": 54.7336375,
            "midi": 32,
            "name": "G#1",
            "velocity": 1,
            "duration": 0.25147887500000365,
            "ticks": 14800,
            "durationTicks": 68
          },
          {
            "time": 55.09236471875001,
            "midi": 32,
            "name": "G#1",
            "velocity": 1,
            "duration": 0.2773664062499961,
            "ticks": 14897,
            "durationTicks": 75
          },
          {
            "time": 55.4510919375,
            "midi": 30,
            "name": "F#1",
            "velocity": 1,
            "duration": 0.26627175000000136,
            "ticks": 14994,
            "durationTicks": 72
          },
          {
            "time": 55.80242271875001,
            "midi": 30,
            "name": "F#1",
            "velocity": 1,
            "duration": 0.2588753124999954,
            "ticks": 15089,
            "durationTicks": 70
          },
          {
            "time": 56.15745171875001,
            "midi": 30,
            "name": "F#1",
            "velocity": 1,
            "duration": 0.28106462499999907,
            "ticks": 15185,
            "durationTicks": 76
          },
          {
            "time": 56.51617893750001,
            "midi": 30,
            "name": "F#1",
            "velocity": 1,
            "duration": 0.3291414687500023,
            "ticks": 15282,
            "durationTicks": 89
          },
          {
            "time": 56.8712079375,
            "midi": 38,
            "name": "D2",
            "velocity": 1,
            "duration": 0.10355012499999816,
            "ticks": 15378,
            "durationTicks": 28
          },
          {
            "time": 57.04502421875001,
            "midi": 38,
            "name": "D2",
            "velocity": 1,
            "duration": 0.08875725000000045,
            "ticks": 15425,
            "durationTicks": 24
          },
          {
            "time": 57.226236937500005,
            "midi": 38,
            "name": "D2",
            "velocity": 1,
            "duration": 0.09245546874999633,
            "ticks": 15474,
            "durationTicks": 25
          },
          {
            "time": 57.403751437500006,
            "midi": 38,
            "name": "D2",
            "velocity": 1,
            "duration": 0.09615368750000641,
            "ticks": 15522,
            "durationTicks": 26
          },
          {
            "time": 57.58496415625,
            "midi": 38,
            "name": "D2",
            "velocity": 1,
            "duration": 0.10724834375000114,
            "ticks": 15571,
            "durationTicks": 29
          },
          {
            "time": 57.75878043750001,
            "midi": 38,
            "name": "D2",
            "velocity": 1,
            "duration": 0.10355012499999816,
            "ticks": 15618,
            "durationTicks": 28
          },
          {
            "time": 57.939993156250004,
            "midi": 38,
            "name": "D2",
            "velocity": 1,
            "duration": 0.1146447812500071,
            "ticks": 15667,
            "durationTicks": 31
          },
          {
            "time": 58.11380943750001,
            "midi": 38,
            "name": "D2",
            "velocity": 1,
            "duration": 0.11464478124999289,
            "ticks": 15714,
            "durationTicks": 31
          },
          {
            "time": 58.302418593750005,
            "midi": 33,
            "name": "A1",
            "velocity": 1,
            "duration": 0.11834300000000297,
            "ticks": 15765,
            "durationTicks": 32
          },
          {
            "time": 58.468838437500004,
            "midi": 33,
            "name": "A1",
            "velocity": 1,
            "duration": 0.12573943750000183,
            "ticks": 15810,
            "durationTicks": 34
          },
          {
            "time": 58.65374937500001,
            "midi": 33,
            "name": "A1",
            "velocity": 1,
            "duration": 0.25517709374999953,
            "ticks": 15860,
            "durationTicks": 69
          },
          {
            "time": 59.00877837500001,
            "midi": 33,
            "name": "A1",
            "velocity": 1,
            "duration": 0.2736681874999931,
            "ticks": 15956,
            "durationTicks": 74
          },
          {
            "time": 59.36380737500001,
            "midi": 33,
            "name": "A1",
            "velocity": 1,
            "duration": 0.28476284374999494,
            "ticks": 16052,
            "durationTicks": 77
          },
          {
            "time": 59.7262328125,
            "midi": 32,
            "name": "G#1",
            "velocity": 1,
            "duration": 0.25147887500000365,
            "ticks": 16150,
            "durationTicks": 68
          },
          {
            "time": 60.07756359375001,
            "midi": 32,
            "name": "G#1",
            "velocity": 1,
            "duration": 0.2884610624999979,
            "ticks": 16245,
            "durationTicks": 78
          },
          {
            "time": 60.43259259375001,
            "midi": 32,
            "name": "G#1",
            "velocity": 1,
            "duration": 0.2736681875000002,
            "ticks": 16341,
            "durationTicks": 74
          },
          {
            "time": 60.78762159375,
            "midi": 32,
            "name": "G#1",
            "velocity": 1,
            "duration": 0.288461062500005,
            "ticks": 16437,
            "durationTicks": 78
          },
          {
            "time": 61.15004703125001,
            "midi": 30,
            "name": "F#1",
            "velocity": 1,
            "duration": 0.24778065624999357,
            "ticks": 16535,
            "durationTicks": 67
          },
          {
            "time": 61.5013778125,
            "midi": 30,
            "name": "F#1",
            "velocity": 1,
            "duration": 0.2736681875000002,
            "ticks": 16630,
            "durationTicks": 74
          },
          {
            "time": 61.856406812500005,
            "midi": 30,
            "name": "F#1",
            "velocity": 1,
            "duration": 0.2884610624999979,
            "ticks": 16726,
            "durationTicks": 78
          },
          {
            "time": 62.21513403125001,
            "midi": 30,
            "name": "F#1",
            "velocity": 1,
            "duration": 0.2773664062500032,
            "ticks": 16823,
            "durationTicks": 75
          },
          {
            "time": 62.57016303125001,
            "midi": 38,
            "name": "D2",
            "velocity": 1,
            "duration": 0.11094656249999701,
            "ticks": 16919,
            "durationTicks": 30
          },
          {
            "time": 62.74767753125001,
            "midi": 38,
            "name": "D2",
            "velocity": 1,
            "duration": 0.0961536874999922,
            "ticks": 16967,
            "durationTicks": 26
          },
          {
            "time": 62.92519203125001,
            "midi": 38,
            "name": "D2",
            "velocity": 1,
            "duration": 0.08875725000000045,
            "ticks": 17015,
            "durationTicks": 24
          },
          {
            "time": 63.10640475000001,
            "midi": 38,
            "name": "D2",
            "velocity": 1,
            "duration": 0.08875725000000045,
            "ticks": 17064,
            "durationTicks": 24
          },
          {
            "time": 63.28022103125001,
            "midi": 38,
            "name": "D2",
            "velocity": 1,
            "duration": 0.10355012499999816,
            "ticks": 17111,
            "durationTicks": 28
          },
          {
            "time": 63.461433750000005,
            "midi": 38,
            "name": "D2",
            "velocity": 1,
            "duration": 0.10355012499999816,
            "ticks": 17160,
            "durationTicks": 28
          },
          {
            "time": 63.638948250000006,
            "midi": 38,
            "name": "D2",
            "velocity": 1,
            "duration": 0.08875725000000045,
            "ticks": 17208,
            "durationTicks": 24
          },
          {
            "time": 63.81646275000001,
            "midi": 38,
            "name": "D2",
            "velocity": 1,
            "duration": 0.09245546874999633,
            "ticks": 17256,
            "durationTicks": 25
          },
          {
            "time": 63.99767546875,
            "midi": 33,
            "name": "A1",
            "velocity": 1,
            "duration": 0.11834300000001008,
            "ticks": 17305,
            "durationTicks": 32
          },
          {
            "time": 64.17518996875,
            "midi": 33,
            "name": "A1",
            "velocity": 1,
            "duration": 0.10724834375000114,
            "ticks": 17353,
            "durationTicks": 29
          },
          {
            "time": 64.34900625,
            "midi": 33,
            "name": "A1",
            "velocity": 1,
            "duration": 0.1294376562500048,
            "ticks": 17400,
            "durationTicks": 35
          },
          {
            "time": 65.24027696875001,
            "midi": 33,
            "name": "A1",
            "velocity": 1,
            "duration": 0.13683409374999655,
            "ticks": 17641,
            "durationTicks": 37
          },
          {
            "time": 65.42148968750001,
            "midi": 32,
            "name": "G#1",
            "velocity": 1,
            "duration": 0.11464478124999289,
            "ticks": 17690,
            "durationTicks": 31
          },
          {
            "time": 65.59900418750001,
            "midi": 32,
            "name": "G#1",
            "velocity": 1,
            "duration": 0.12204121874999885,
            "ticks": 17738,
            "durationTicks": 33
          },
          {
            "time": 65.77282046875,
            "midi": 32,
            "name": "G#1",
            "velocity": 1,
            "duration": 0.15902340625001443,
            "ticks": 17785,
            "durationTicks": 43
          },
          {
            "time": 66.6640911875,
            "midi": 32,
            "name": "G#1",
            "velocity": 1,
            "duration": 0.11834299999999587,
            "ticks": 18026,
            "durationTicks": 32
          },
          {
            "time": 66.84530390625001,
            "midi": 30,
            "name": "F#1",
            "velocity": 1,
            "duration": 0.11464478124999289,
            "ticks": 18075,
            "durationTicks": 31
          },
          {
            "time": 67.02281840625001,
            "midi": 30,
            "name": "F#1",
            "velocity": 1,
            "duration": 0.10724834375000114,
            "ticks": 18123,
            "durationTicks": 29
          },
          {
            "time": 67.19663468750001,
            "midi": 30,
            "name": "F#1",
            "velocity": 1,
            "duration": 0.1442305312500025,
            "ticks": 18170,
            "durationTicks": 39
          },
          {
            "time": 68.091603625,
            "midi": 38,
            "name": "D2",
            "velocity": 1,
            "duration": 0.1146447812500071,
            "ticks": 18412,
            "durationTicks": 31
          },
          {
            "time": 68.26541990625,
            "midi": 38,
            "name": "D2",
            "velocity": 1,
            "duration": 0.1294376562500048,
            "ticks": 18459,
            "durationTicks": 35
          },
          {
            "time": 68.446632625,
            "midi": 38,
            "name": "D2",
            "velocity": 1,
            "duration": 0.11094656250000412,
            "ticks": 18508,
            "durationTicks": 30
          },
          {
            "time": 68.62414712500001,
            "midi": 38,
            "name": "D2",
            "velocity": 1,
            "duration": 0.10724834375000114,
            "ticks": 18556,
            "durationTicks": 29
          },
          {
            "time": 68.80166162500001,
            "midi": 38,
            "name": "D2",
            "velocity": 1,
            "duration": 0.11094656249998991,
            "ticks": 18604,
            "durationTicks": 30
          },
          {
            "time": 68.97917612500001,
            "midi": 38,
            "name": "D2",
            "velocity": 1,
            "duration": 0.10355012499999816,
            "ticks": 18652,
            "durationTicks": 28
          },
          {
            "time": 69.16038884375001,
            "midi": 42,
            "name": "F#2",
            "velocity": 1,
            "duration": 0.12204121874999885,
            "ticks": 18701,
            "durationTicks": 33
          },
          {
            "time": 69.33420512500001,
            "midi": 40,
            "name": "E2",
            "velocity": 1,
            "duration": 0.12573943750000183,
            "ticks": 18748,
            "durationTicks": 34
          },
          {
            "time": 69.51541784375001,
            "midi": 38,
            "name": "D2",
            "velocity": 1,
            "duration": 0.12573943749998762,
            "ticks": 18797,
            "durationTicks": 34
          },
          {
            "time": 69.70032878125001,
            "midi": 33,
            "name": "A1",
            "velocity": 1,
            "duration": 0.2107984687499993,
            "ticks": 18847,
            "durationTicks": 57
          },
          {
            "time": 70.04796134375002,
            "midi": 33,
            "name": "A1",
            "velocity": 1,
            "duration": 0.23298778124998876,
            "ticks": 18941,
            "durationTicks": 63
          },
          {
            "time": 70.40668856250001,
            "midi": 33,
            "name": "A1",
            "velocity": 1,
            "duration": 0.18491093750000687,
            "ticks": 19038,
            "durationTicks": 50
          },
          {
            "time": 70.76171756250001,
            "midi": 33,
            "name": "A1",
            "velocity": 1,
            "duration": 0.2625735312499984,
            "ticks": 19134,
            "durationTicks": 71
          },
          {
            "time": 71.11674656250001,
            "midi": 32,
            "name": "G#1",
            "velocity": 1,
            "duration": 0.26996996874999013,
            "ticks": 19230,
            "durationTicks": 73
          },
          {
            "time": 71.47177556250001,
            "midi": 32,
            "name": "G#1",
            "velocity": 1,
            "duration": 0.2551770937499924,
            "ticks": 19326,
            "durationTicks": 69
          },
          {
            "time": 71.83050278125,
            "midi": 32,
            "name": "G#1",
            "velocity": 1,
            "duration": 0.2810646250000133,
            "ticks": 19423,
            "durationTicks": 76
          },
          {
            "time": 72.18553178125,
            "midi": 32,
            "name": "G#1",
            "velocity": 1,
            "duration": 0.26996996875000434,
            "ticks": 19519,
            "durationTicks": 73
          },
          {
            "time": 72.54056078125001,
            "midi": 38,
            "name": "D2",
            "velocity": 1,
            "duration": 0.11834299999999587,
            "ticks": 19615,
            "durationTicks": 32
          },
          {
            "time": 72.72177350000001,
            "midi": 38,
            "name": "D2",
            "velocity": 1,
            "duration": 0.0961536874999922,
            "ticks": 19664,
            "durationTicks": 26
          },
          {
            "time": 72.89558978125001,
            "midi": 38,
            "name": "D2",
            "velocity": 1,
            "duration": 0.09985190624999518,
            "ticks": 19711,
            "durationTicks": 27
          },
          {
            "time": 73.07680250000001,
            "midi": 38,
            "name": "D2",
            "velocity": 1,
            "duration": 0.09985190624999518,
            "ticks": 19760,
            "durationTicks": 27
          },
          {
            "time": 73.25431700000001,
            "midi": 38,
            "name": "D2",
            "velocity": 1,
            "duration": 0.10355012499999816,
            "ticks": 19808,
            "durationTicks": 28
          },
          {
            "time": 73.43552971875,
            "midi": 38,
            "name": "D2",
            "velocity": 1,
            "duration": 0.09615368750000641,
            "ticks": 19857,
            "durationTicks": 26
          },
          {
            "time": 73.60934600000002,
            "midi": 38,
            "name": "D2",
            "velocity": 1,
            "duration": 0.09985190624999518,
            "ticks": 19904,
            "durationTicks": 27
          },
          {
            "time": 73.79055871875,
            "midi": 38,
            "name": "D2",
            "velocity": 1,
            "duration": 0.11094656250000412,
            "ticks": 19953,
            "durationTicks": 30
          },
          {
            "time": 73.96807321875,
            "midi": 40,
            "name": "E2",
            "velocity": 1,
            "duration": 0.11464478124999289,
            "ticks": 20001,
            "durationTicks": 31
          },
          {
            "time": 74.14558771875001,
            "midi": 40,
            "name": "E2",
            "velocity": 1,
            "duration": 0.08505903124999747,
            "ticks": 20049,
            "durationTicks": 23
          },
          {
            "time": 74.32310221875001,
            "midi": 40,
            "name": "E2",
            "velocity": 1,
            "duration": 0.09985190624999518,
            "ticks": 20097,
            "durationTicks": 27
          },
          {
            "time": 74.50061671875001,
            "midi": 40,
            "name": "E2",
            "velocity": 1,
            "duration": 0.09985190624999518,
            "ticks": 20145,
            "durationTicks": 27
          },
          {
            "time": 74.67813121875001,
            "midi": 40,
            "name": "E2",
            "velocity": 1,
            "duration": 0.11834299999999587,
            "ticks": 20193,
            "durationTicks": 32
          },
          {
            "time": 74.8593439375,
            "midi": 40,
            "name": "E2",
            "velocity": 1,
            "duration": 0.12204121874999885,
            "ticks": 20242,
            "durationTicks": 33
          },
          {
            "time": 75.03316021875001,
            "midi": 40,
            "name": "E2",
            "velocity": 1,
            "duration": 0.11464478124999289,
            "ticks": 20289,
            "durationTicks": 31
          },
          {
            "time": 75.2143729375,
            "midi": 40,
            "name": "E2",
            "velocity": 1,
            "duration": 0.09615368750000641,
            "ticks": 20338,
            "durationTicks": 26
          },
          {
            "time": 75.39558565625,
            "midi": 35,
            "name": "B1",
            "velocity": 1,
            "duration": 0.11834299999999587,
            "ticks": 20387,
            "durationTicks": 32
          },
          {
            "time": 75.5694019375,
            "midi": 35,
            "name": "B1",
            "velocity": 1,
            "duration": 0.1146447812500071,
            "ticks": 20434,
            "durationTicks": 31
          },
          {
            "time": 75.7469164375,
            "midi": 35,
            "name": "B1",
            "velocity": 1,
            "duration": 0.11834300000001008,
            "ticks": 20482,
            "durationTicks": 32
          },
          {
            "time": 76.63818715625001,
            "midi": 40,
            "name": "E2",
            "velocity": 1,
            "duration": 0.1294376562499906,
            "ticks": 20723,
            "durationTicks": 35
          },
          {
            "time": 76.99321615625001,
            "midi": 40,
            "name": "E2",
            "velocity": 1,
            "duration": 0.12573943749998762,
            "ticks": 20819,
            "durationTicks": 34
          },
          {
            "time": 77.351943375,
            "midi": 40,
            "name": "E2",
            "velocity": 1,
            "duration": 0.09615368750000641,
            "ticks": 20916,
            "durationTicks": 26
          },
          {
            "time": 77.529457875,
            "midi": 40,
            "name": "E2",
            "velocity": 1,
            "duration": 0.48076843750000364,
            "ticks": 20964,
            "durationTicks": 130
          },
          {
            "time": 78.24321409375001,
            "midi": 33,
            "name": "A1",
            "velocity": 1,
            "duration": 0.12204121874999885,
            "ticks": 21157,
            "durationTicks": 33
          },
          {
            "time": 78.42072859375,
            "midi": 33,
            "name": "A1",
            "velocity": 1,
            "duration": 0.12204121875001306,
            "ticks": 21205,
            "durationTicks": 33
          },
          {
            "time": 78.59454487500001,
            "midi": 33,
            "name": "A1",
            "velocity": 1,
            "duration": 0.1294376562500048,
            "ticks": 21252,
            "durationTicks": 35
          },
          {
            "time": 79.48951381250001,
            "midi": 38,
            "name": "D2",
            "velocity": 1,
            "duration": 0.12573943750000183,
            "ticks": 21494,
            "durationTicks": 34
          },
          {
            "time": 79.84454281250001,
            "midi": 38,
            "name": "D2",
            "velocity": 1,
            "duration": 0.12204121874999885,
            "ticks": 21590,
            "durationTicks": 33
          },
          {
            "time": 80.19957181250001,
            "midi": 38,
            "name": "D2",
            "velocity": 1,
            "duration": 0.11464478124999289,
            "ticks": 21686,
            "durationTicks": 31
          },
          {
            "time": 80.38078453125001,
            "midi": 37,
            "name": "C#2",
            "velocity": 1,
            "duration": 0.5436381562499975,
            "ticks": 21735,
            "durationTicks": 147
          },
          {
            "time": 81.09454075000001,
            "midi": 35,
            "name": "B1",
            "velocity": 1,
            "duration": 0.1146447812500071,
            "ticks": 21928,
            "durationTicks": 31
          },
          {
            "time": 81.26835703125,
            "midi": 35,
            "name": "B1",
            "velocity": 1,
            "duration": 0.1146447812500071,
            "ticks": 21975,
            "durationTicks": 31
          },
          {
            "time": 81.44587153125,
            "midi": 35,
            "name": "B1",
            "velocity": 1,
            "duration": 0.11464478124999289,
            "ticks": 22023,
            "durationTicks": 31
          },
          {
            "time": 82.33714225,
            "midi": 40,
            "name": "E2",
            "velocity": 1,
            "duration": 0.12573943750001604,
            "ticks": 22264,
            "durationTicks": 34
          },
          {
            "time": 82.69217125,
            "midi": 40,
            "name": "E2",
            "velocity": 1,
            "duration": 0.12204121874999885,
            "ticks": 22360,
            "durationTicks": 33
          },
          {
            "time": 83.05089846875,
            "midi": 40,
            "name": "E2",
            "velocity": 1,
            "duration": 0.09615368750000641,
            "ticks": 22457,
            "durationTicks": 26
          },
          {
            "time": 83.22841296875,
            "midi": 40,
            "name": "E2",
            "velocity": 1,
            "duration": 0.48076843750000364,
            "ticks": 22505,
            "durationTicks": 130
          },
          {
            "time": 83.94216918750001,
            "midi": 33,
            "name": "A1",
            "velocity": 1,
            "duration": 0.12204121874999885,
            "ticks": 22698,
            "durationTicks": 33
          },
          {
            "time": 84.11968368750001,
            "midi": 33,
            "name": "A1",
            "velocity": 1,
            "duration": 0.12204121874999885,
            "ticks": 22746,
            "durationTicks": 33
          },
          {
            "time": 84.29349996875001,
            "midi": 33,
            "name": "A1",
            "velocity": 1,
            "duration": 0.12573943750000183,
            "ticks": 22793,
            "durationTicks": 34
          },
          {
            "time": 85.18846890625001,
            "midi": 38,
            "name": "D2",
            "velocity": 1,
            "duration": 0.12573943750000183,
            "ticks": 23035,
            "durationTicks": 34
          },
          {
            "time": 85.54349790625001,
            "midi": 38,
            "name": "D2",
            "velocity": 1,
            "duration": 0.12204121874999885,
            "ticks": 23131,
            "durationTicks": 33
          },
          {
            "time": 85.89852690625001,
            "midi": 38,
            "name": "D2",
            "velocity": 1,
            "duration": 0.11094656249998991,
            "ticks": 23227,
            "durationTicks": 30
          },
          {
            "time": 86.07604140625,
            "midi": 37,
            "name": "C#2",
            "velocity": 1,
            "duration": 0.5473363750000146,
            "ticks": 23275,
            "durationTicks": 148
          },
          {
            "time": 86.78979762500002,
            "midi": 35,
            "name": "B1",
            "velocity": 1,
            "duration": 0.11834299999998166,
            "ticks": 23468,
            "durationTicks": 32
          },
          {
            "time": 86.967312125,
            "midi": 35,
            "name": "B1",
            "velocity": 1,
            "duration": 0.11094656250000412,
            "ticks": 23516,
            "durationTicks": 30
          },
          {
            "time": 87.14482662500001,
            "midi": 35,
            "name": "B1",
            "velocity": 1,
            "duration": 0.1146447812500071,
            "ticks": 23564,
            "durationTicks": 31
          },
          {
            "time": 88.03609734375001,
            "midi": 40,
            "name": "E2",
            "velocity": 1,
            "duration": 0.12573943749998762,
            "ticks": 23805,
            "durationTicks": 34
          },
          {
            "time": 88.39112634375002,
            "midi": 40,
            "name": "E2",
            "velocity": 1,
            "duration": 0.1294376562499906,
            "ticks": 23901,
            "durationTicks": 35
          },
          {
            "time": 88.74615534375,
            "midi": 40,
            "name": "E2",
            "velocity": 1,
            "duration": 0.09985190625000939,
            "ticks": 23997,
            "durationTicks": 27
          },
          {
            "time": 88.92366984375,
            "midi": 40,
            "name": "E2",
            "velocity": 1,
            "duration": 0.4844666562500066,
            "ticks": 24045,
            "durationTicks": 131
          },
          {
            "time": 89.63742606250001,
            "midi": 42,
            "name": "F#2",
            "velocity": 1,
            "duration": 0.12573943750000183,
            "ticks": 24238,
            "durationTicks": 34
          },
          {
            "time": 89.81494056250001,
            "midi": 42,
            "name": "F#2",
            "velocity": 1,
            "duration": 0.12204121874999885,
            "ticks": 24286,
            "durationTicks": 33
          },
          {
            "time": 89.9924550625,
            "midi": 42,
            "name": "F#2",
            "velocity": 1,
            "duration": 0.12573943750001604,
            "ticks": 24334,
            "durationTicks": 34
          },
          {
            "time": 90.88372578125,
            "midi": 38,
            "name": "D2",
            "velocity": 1,
            "duration": 0.1294376562500048,
            "ticks": 24575,
            "durationTicks": 35
          },
          {
            "time": 91.24245300000001,
            "midi": 38,
            "name": "D2",
            "velocity": 1,
            "duration": 0.12573943750000183,
            "ticks": 24672,
            "durationTicks": 34
          },
          {
            "time": 91.59748200000001,
            "midi": 54,
            "name": "F#3",
            "velocity": 1,
            "duration": 0.15532518749999724,
            "ticks": 24768,
            "durationTicks": 42
          },
          {
            "time": 91.77499650000001,
            "midi": 52,
            "name": "E3",
            "velocity": 1,
            "duration": 0.15902340625000022,
            "ticks": 24816,
            "durationTicks": 43
          },
          {
            "time": 91.95251100000002,
            "midi": 50,
            "name": "D3",
            "velocity": 1,
            "duration": 0.15902340625000022,
            "ticks": 24864,
            "durationTicks": 43
          },
          {
            "time": 92.13002550000002,
            "midi": 49,
            "name": "C#3",
            "velocity": 1,
            "duration": 0.15902340625000022,
            "ticks": 24912,
            "durationTicks": 43
          },
          {
            "time": 92.30754000000002,
            "midi": 47,
            "name": "B2",
            "velocity": 1,
            "duration": 0.15902340625000022,
            "ticks": 24960,
            "durationTicks": 43
          },
          {
            "time": 92.48875271875002,
            "midi": 33,
            "name": "A1",
            "velocity": 1,
            "duration": 0.12204121874999885,
            "ticks": 25009,
            "durationTicks": 33
          },
          {
            "time": 92.662569,
            "midi": 33,
            "name": "A1",
            "velocity": 1,
            "duration": 0.11094656250000412,
            "ticks": 25056,
            "durationTicks": 30
          },
          {
            "time": 92.8400835,
            "midi": 33,
            "name": "A1",
            "velocity": 1,
            "duration": 0.2625735312499984,
            "ticks": 25104,
            "durationTicks": 71
          },
          {
            "time": 93.19511250000001,
            "midi": 33,
            "name": "A1",
            "velocity": 1,
            "duration": 0.24778065625001489,
            "ticks": 25200,
            "durationTicks": 67
          },
          {
            "time": 93.55383971875001,
            "midi": 33,
            "name": "A1",
            "velocity": 1,
            "duration": 0.24778065624998646,
            "ticks": 25297,
            "durationTicks": 67
          },
          {
            "time": 93.9125669375,
            "midi": 32,
            "name": "G#1",
            "velocity": 1,
            "duration": 0.2440824374999977,
            "ticks": 25394,
            "durationTicks": 66
          },
          {
            "time": 94.26389771875002,
            "midi": 32,
            "name": "G#1",
            "velocity": 1,
            "duration": 0.2773664062499961,
            "ticks": 25489,
            "durationTicks": 75
          },
          {
            "time": 94.61892671875002,
            "midi": 32,
            "name": "G#1",
            "velocity": 1,
            "duration": 0.25147887499998944,
            "ticks": 25585,
            "durationTicks": 68
          },
          {
            "time": 94.97765393750001,
            "midi": 32,
            "name": "G#1",
            "velocity": 1,
            "duration": 0.2773664062499961,
            "ticks": 25682,
            "durationTicks": 75
          },
          {
            "time": 95.33638115625001,
            "midi": 30,
            "name": "F#1",
            "velocity": 1,
            "duration": 0.26627175000000136,
            "ticks": 25779,
            "durationTicks": 72
          },
          {
            "time": 95.6877119375,
            "midi": 30,
            "name": "F#1",
            "velocity": 1,
            "duration": 0.2588753125000096,
            "ticks": 25874,
            "durationTicks": 70
          },
          {
            "time": 96.0427409375,
            "midi": 30,
            "name": "F#1",
            "velocity": 1,
            "duration": 0.2810646250000133,
            "ticks": 25970,
            "durationTicks": 76
          },
          {
            "time": 96.40146815625,
            "midi": 30,
            "name": "F#1",
            "velocity": 1,
            "duration": 0.32914146874999517,
            "ticks": 26067,
            "durationTicks": 89
          },
          {
            "time": 96.75649715625,
            "midi": 38,
            "name": "D2",
            "velocity": 1,
            "duration": 0.10724834375000114,
            "ticks": 26163,
            "durationTicks": 29
          },
          {
            "time": 96.93770987500002,
            "midi": 38,
            "name": "D2",
            "velocity": 1,
            "duration": 0.08136081249998028,
            "ticks": 26212,
            "durationTicks": 22
          },
          {
            "time": 97.11152615625001,
            "midi": 38,
            "name": "D2",
            "velocity": 1,
            "duration": 0.0961536874999922,
            "ticks": 26259,
            "durationTicks": 26
          },
          {
            "time": 97.29273887500001,
            "midi": 38,
            "name": "D2",
            "velocity": 1,
            "duration": 0.09985190625000939,
            "ticks": 26308,
            "durationTicks": 27
          },
          {
            "time": 97.47025337500001,
            "midi": 38,
            "name": "D2",
            "velocity": 1,
            "duration": 0.10724834375000114,
            "ticks": 26356,
            "durationTicks": 29
          },
          {
            "time": 97.64776787500001,
            "midi": 38,
            "name": "D2",
            "velocity": 1,
            "duration": 0.09985190625000939,
            "ticks": 26404,
            "durationTicks": 27
          },
          {
            "time": 97.82528237500001,
            "midi": 38,
            "name": "D2",
            "velocity": 1,
            "duration": 0.11464478124999289,
            "ticks": 26452,
            "durationTicks": 31
          },
          {
            "time": 98.00649509375,
            "midi": 38,
            "name": "D2",
            "velocity": 1,
            "duration": 0.10724834375001535,
            "ticks": 26501,
            "durationTicks": 29
          },
          {
            "time": 98.18770781250001,
            "midi": 33,
            "name": "A1",
            "velocity": 1,
            "duration": 0.11834299999999587,
            "ticks": 26550,
            "durationTicks": 32
          },
          {
            "time": 98.36152409375,
            "midi": 33,
            "name": "A1",
            "velocity": 1,
            "duration": 0.11834300000001008,
            "ticks": 26597,
            "durationTicks": 32
          },
          {
            "time": 98.53903859375,
            "midi": 33,
            "name": "A1",
            "velocity": 1,
            "duration": 0.2551770937499924,
            "ticks": 26645,
            "durationTicks": 69
          },
          {
            "time": 98.89406759375001,
            "midi": 33,
            "name": "A1",
            "velocity": 1,
            "duration": 0.2773664062499961,
            "ticks": 26741,
            "durationTicks": 75
          },
          {
            "time": 99.24909659375001,
            "midi": 33,
            "name": "A1",
            "velocity": 1,
            "duration": 0.28106462499999907,
            "ticks": 26837,
            "durationTicks": 76
          },
          {
            "time": 99.61152203125002,
            "midi": 32,
            "name": "G#1",
            "velocity": 1,
            "duration": 0.25147887499998944,
            "ticks": 26935,
            "durationTicks": 68
          },
          {
            "time": 99.96285281250002,
            "midi": 32,
            "name": "G#1",
            "velocity": 1,
            "duration": 0.2884610624999908,
            "ticks": 27030,
            "durationTicks": 78
          },
          {
            "time": 100.3178818125,
            "midi": 32,
            "name": "G#1",
            "velocity": 1,
            "duration": 0.2736681874999931,
            "ticks": 27126,
            "durationTicks": 74
          },
          {
            "time": 100.6729108125,
            "midi": 32,
            "name": "G#1",
            "velocity": 1,
            "duration": 0.288461062500005,
            "ticks": 27222,
            "durationTicks": 78
          },
          {
            "time": 101.03533625,
            "midi": 30,
            "name": "F#1",
            "velocity": 1,
            "duration": 0.24778065625001489,
            "ticks": 27320,
            "durationTicks": 67
          },
          {
            "time": 101.38666703125001,
            "midi": 30,
            "name": "F#1",
            "velocity": 1,
            "duration": 0.2773664062500103,
            "ticks": 27415,
            "durationTicks": 75
          },
          {
            "time": 101.74169603125002,
            "midi": 30,
            "name": "F#1",
            "velocity": 1,
            "duration": 0.2958574999999968,
            "ticks": 27511,
            "durationTicks": 80
          },
          {
            "time": 102.10042325,
            "midi": 30,
            "name": "F#1",
            "velocity": 1,
            "duration": 0.2773664062499961,
            "ticks": 27608,
            "durationTicks": 75
          },
          {
            "time": 102.45545225000001,
            "midi": 38,
            "name": "D2",
            "velocity": 1,
            "duration": 0.11094656249998991,
            "ticks": 27704,
            "durationTicks": 30
          },
          {
            "time": 102.63296675000001,
            "midi": 38,
            "name": "D2",
            "velocity": 1,
            "duration": 0.09985190624999518,
            "ticks": 27752,
            "durationTicks": 27
          },
          {
            "time": 102.81048125000001,
            "midi": 38,
            "name": "D2",
            "velocity": 1,
            "duration": 0.09245546875000343,
            "ticks": 27800,
            "durationTicks": 25
          },
          {
            "time": 102.99169396875001,
            "midi": 38,
            "name": "D2",
            "velocity": 1,
            "duration": 0.08875725000000045,
            "ticks": 27849,
            "durationTicks": 24
          },
          {
            "time": 103.16551025000001,
            "midi": 38,
            "name": "D2",
            "velocity": 1,
            "duration": 0.10355012499999816,
            "ticks": 27896,
            "durationTicks": 28
          },
          {
            "time": 103.34672296875002,
            "midi": 38,
            "name": "D2",
            "velocity": 1,
            "duration": 0.10355012499999816,
            "ticks": 27945,
            "durationTicks": 28
          },
          {
            "time": 103.52423746875002,
            "midi": 38,
            "name": "D2",
            "velocity": 1,
            "duration": 0.09245546875000343,
            "ticks": 27993,
            "durationTicks": 25
          },
          {
            "time": 103.70175196875002,
            "midi": 38,
            "name": "D2",
            "velocity": 1,
            "duration": 0.08875725000000045,
            "ticks": 28041,
            "durationTicks": 24
          },
          {
            "time": 103.88296468750002,
            "midi": 33,
            "name": "A1",
            "velocity": 1,
            "duration": 0.11834299999999587,
            "ticks": 28090,
            "durationTicks": 32
          },
          {
            "time": 104.06047918750002,
            "midi": 33,
            "name": "A1",
            "velocity": 1,
            "duration": 0.11094656249998991,
            "ticks": 28138,
            "durationTicks": 30
          },
          {
            "time": 104.23429546875,
            "midi": 33,
            "name": "A1",
            "velocity": 1,
            "duration": 0.1294376562500048,
            "ticks": 28185,
            "durationTicks": 35
          },
          {
            "time": 105.12556618750001,
            "midi": 33,
            "name": "A1",
            "velocity": 1,
            "duration": 0.13683409374999655,
            "ticks": 28426,
            "durationTicks": 37
          },
          {
            "time": 105.30677890625,
            "midi": 32,
            "name": "G#1",
            "velocity": 1,
            "duration": 0.1146447812500071,
            "ticks": 28475,
            "durationTicks": 31
          },
          {
            "time": 105.48429340625,
            "midi": 32,
            "name": "G#1",
            "velocity": 1,
            "duration": 0.12204121874999885,
            "ticks": 28523,
            "durationTicks": 33
          },
          {
            "time": 105.65810968750002,
            "midi": 32,
            "name": "G#1",
            "velocity": 1,
            "duration": 0.159023406249986,
            "ticks": 28570,
            "durationTicks": 43
          },
          {
            "time": 106.55307862500001,
            "midi": 32,
            "name": "G#1",
            "velocity": 1,
            "duration": 0.11094656250000412,
            "ticks": 28812,
            "durationTicks": 30
          },
          {
            "time": 106.73059312500001,
            "midi": 30,
            "name": "F#1",
            "velocity": 1,
            "duration": 0.1146447812500071,
            "ticks": 28860,
            "durationTicks": 31
          },
          {
            "time": 106.90810762500001,
            "midi": 30,
            "name": "F#1",
            "velocity": 1,
            "duration": 0.1146447812500071,
            "ticks": 28908,
            "durationTicks": 31
          },
          {
            "time": 107.08192390625001,
            "midi": 30,
            "name": "F#1",
            "velocity": 1,
            "duration": 0.1442305312499883,
            "ticks": 28955,
            "durationTicks": 39
          },
          {
            "time": 107.97689284375002,
            "midi": 38,
            "name": "D2",
            "velocity": 1,
            "duration": 0.11464478124997868,
            "ticks": 29197,
            "durationTicks": 31
          },
          {
            "time": 108.150709125,
            "midi": 38,
            "name": "D2",
            "velocity": 1,
            "duration": 0.1294376562500048,
            "ticks": 29244,
            "durationTicks": 35
          },
          {
            "time": 108.33192184375002,
            "midi": 38,
            "name": "D2",
            "velocity": 1,
            "duration": 0.11094656249998991,
            "ticks": 29293,
            "durationTicks": 30
          },
          {
            "time": 108.50943634375002,
            "midi": 38,
            "name": "D2",
            "velocity": 1,
            "duration": 0.10724834374998693,
            "ticks": 29341,
            "durationTicks": 29
          },
          {
            "time": 108.6906490625,
            "midi": 38,
            "name": "D2",
            "velocity": 1,
            "duration": 0.10724834375001535,
            "ticks": 29390,
            "durationTicks": 29
          },
          {
            "time": 108.86446534375001,
            "midi": 38,
            "name": "D2",
            "velocity": 1,
            "duration": 0.10355012499999816,
            "ticks": 29437,
            "durationTicks": 28
          },
          {
            "time": 109.0456780625,
            "midi": 42,
            "name": "F#2",
            "velocity": 1,
            "duration": 0.12204121874999885,
            "ticks": 29486,
            "durationTicks": 33
          },
          {
            "time": 109.2231925625,
            "midi": 40,
            "name": "E2",
            "velocity": 1,
            "duration": 0.12204121874999885,
            "ticks": 29534,
            "durationTicks": 33
          },
          {
            "time": 109.4007070625,
            "midi": 38,
            "name": "D2",
            "velocity": 1,
            "duration": 0.12573943750000183,
            "ticks": 29582,
            "durationTicks": 34
          },
          {
            "time": 109.58561800000003,
            "midi": 33,
            "name": "A1",
            "velocity": 1,
            "duration": 0.2107984687499993,
            "ticks": 29632,
            "durationTicks": 57
          },
          {
            "time": 109.9332505625,
            "midi": 33,
            "name": "A1",
            "velocity": 1,
            "duration": 0.24038421875000893,
            "ticks": 29726,
            "durationTicks": 65
          },
          {
            "time": 110.29197778125001,
            "midi": 33,
            "name": "A1",
            "velocity": 1,
            "duration": 0.19230737500001283,
            "ticks": 29823,
            "durationTicks": 52
          },
          {
            "time": 110.64700678125001,
            "midi": 33,
            "name": "A1",
            "velocity": 1,
            "duration": 0.2625735312499984,
            "ticks": 29919,
            "durationTicks": 71
          },
          {
            "time": 111.00203578125002,
            "midi": 32,
            "name": "G#1",
            "velocity": 1,
            "duration": 0.26996996875000434,
            "ticks": 30015,
            "durationTicks": 73
          },
          {
            "time": 111.35706478125002,
            "midi": 32,
            "name": "G#1",
            "velocity": 1,
            "duration": 0.2551770937499924,
            "ticks": 30111,
            "durationTicks": 69
          },
          {
            "time": 111.71579200000002,
            "midi": 32,
            "name": "G#1",
            "velocity": 1,
            "duration": 0.28106462499998486,
            "ticks": 30208,
            "durationTicks": 76
          },
          {
            "time": 112.07082100000002,
            "midi": 32,
            "name": "G#1",
            "velocity": 1,
            "duration": 0.2699699687499759,
            "ticks": 30304,
            "durationTicks": 73
          },
          {
            "time": 112.42585000000003,
            "midi": 38,
            "name": "D2",
            "velocity": 1,
            "duration": 0.12204121874999885,
            "ticks": 30400,
            "durationTicks": 33
          },
          {
            "time": 112.60706271875,
            "midi": 38,
            "name": "D2",
            "velocity": 1,
            "duration": 0.09615368750002062,
            "ticks": 30449,
            "durationTicks": 26
          },
          {
            "time": 112.78087900000001,
            "midi": 38,
            "name": "D2",
            "velocity": 1,
            "duration": 0.09985190625000939,
            "ticks": 30496,
            "durationTicks": 27
          },
          {
            "time": 112.96209171875,
            "midi": 38,
            "name": "D2",
            "velocity": 1,
            "duration": 0.09985190625000939,
            "ticks": 30545,
            "durationTicks": 27
          },
          {
            "time": 113.13960621875,
            "midi": 38,
            "name": "D2",
            "velocity": 1,
            "duration": 0.10724834375001535,
            "ticks": 30593,
            "durationTicks": 29
          },
          {
            "time": 113.32081893750001,
            "midi": 38,
            "name": "D2",
            "velocity": 1,
            "duration": 0.0961536874999922,
            "ticks": 30642,
            "durationTicks": 26
          },
          {
            "time": 113.49463521875,
            "midi": 38,
            "name": "D2",
            "velocity": 1,
            "duration": 0.09985190624999518,
            "ticks": 30689,
            "durationTicks": 27
          },
          {
            "time": 113.67584793750001,
            "midi": 38,
            "name": "D2",
            "velocity": 1,
            "duration": 0.11094656250000412,
            "ticks": 30738,
            "durationTicks": 30
          },
          {
            "time": 113.85336243750001,
            "midi": 40,
            "name": "E2",
            "velocity": 1,
            "duration": 0.12204121874999885,
            "ticks": 30786,
            "durationTicks": 33
          },
          {
            "time": 114.03087693750001,
            "midi": 40,
            "name": "E2",
            "velocity": 1,
            "duration": 0.08505903124999747,
            "ticks": 30834,
            "durationTicks": 23
          },
          {
            "time": 114.20839143750001,
            "midi": 40,
            "name": "E2",
            "velocity": 1,
            "duration": 0.09985190624999518,
            "ticks": 30882,
            "durationTicks": 27
          },
          {
            "time": 114.38590593750001,
            "midi": 40,
            "name": "E2",
            "velocity": 1,
            "duration": 0.09985190624999518,
            "ticks": 30930,
            "durationTicks": 27
          },
          {
            "time": 114.56342043750001,
            "midi": 40,
            "name": "E2",
            "velocity": 1,
            "duration": 0.12204121874999885,
            "ticks": 30978,
            "durationTicks": 33
          },
          {
            "time": 114.74463315625002,
            "midi": 40,
            "name": "E2",
            "velocity": 1,
            "duration": 0.12204121874999885,
            "ticks": 31027,
            "durationTicks": 33
          },
          {
            "time": 114.91844943750002,
            "midi": 40,
            "name": "E2",
            "velocity": 1,
            "duration": 0.1146447812500071,
            "ticks": 31074,
            "durationTicks": 31
          },
          {
            "time": 115.09966215625002,
            "midi": 40,
            "name": "E2",
            "velocity": 1,
            "duration": 0.0961536874999922,
            "ticks": 31123,
            "durationTicks": 26
          },
          {
            "time": 115.27717665625002,
            "midi": 37,
            "name": "C#2",
            "velocity": 1,
            "duration": 0.11464478124997868,
            "ticks": 31171,
            "durationTicks": 31
          },
          {
            "time": 115.99093287500001,
            "midi": 25,
            "name": "C#1",
            "velocity": 1,
            "duration": 0.11464478124999289,
            "ticks": 31364,
            "durationTicks": 31
          },
          {
            "time": 116.345961875,
            "midi": 32,
            "name": "G#1",
            "velocity": 1,
            "duration": 0.10724834375001535,
            "ticks": 31460,
            "durationTicks": 29
          },
          {
            "time": 116.523476375,
            "midi": 25,
            "name": "C#1",
            "velocity": 1,
            "duration": 0.07766259375000573,
            "ticks": 31508,
            "durationTicks": 21
          },
          {
            "time": 116.700990875,
            "midi": 37,
            "name": "C#2",
            "velocity": 1,
            "duration": 0.10724834375001535,
            "ticks": 31556,
            "durationTicks": 29
          },
          {
            "time": 116.878505375,
            "midi": 37,
            "name": "C#2",
            "velocity": 1,
            "duration": 0.09985190625000939,
            "ticks": 31604,
            "durationTicks": 27
          },
          {
            "time": 117.23723259375001,
            "midi": 25,
            "name": "C#1",
            "velocity": 1,
            "duration": 0.10724834375000114,
            "ticks": 31701,
            "durationTicks": 29
          },
          {
            "time": 117.76977609375001,
            "midi": 37,
            "name": "C#2",
            "velocity": 1,
            "duration": 0.11094656250000412,
            "ticks": 31845,
            "durationTicks": 30
          },
          {
            "time": 117.94729059375001,
            "midi": 25,
            "name": "C#1",
            "velocity": 1,
            "duration": 0.07396437499998854,
            "ticks": 31893,
            "durationTicks": 20
          },
          {
            "time": 118.12480509375001,
            "midi": 43,
            "name": "G2",
            "velocity": 1,
            "duration": 0.11834299999999587,
            "ticks": 31941,
            "durationTicks": 32
          },
          {
            "time": 118.83856131250002,
            "midi": 31,
            "name": "G1",
            "velocity": 1,
            "duration": 0.11464478124999289,
            "ticks": 32134,
            "durationTicks": 31
          },
          {
            "time": 119.19359031250002,
            "midi": 38,
            "name": "D2",
            "velocity": 1,
            "duration": 0.10724834374998693,
            "ticks": 32230,
            "durationTicks": 29
          },
          {
            "time": 119.37110481250002,
            "midi": 31,
            "name": "G1",
            "velocity": 1,
            "duration": 0.08136081249998028,
            "ticks": 32278,
            "durationTicks": 22
          },
          {
            "time": 119.54861931250002,
            "midi": 43,
            "name": "G2",
            "velocity": 1,
            "duration": 0.10724834374998693,
            "ticks": 32326,
            "durationTicks": 29
          },
          {
            "time": 119.72983203125001,
            "midi": 43,
            "name": "G2",
            "velocity": 1,
            "duration": 0.09615368750000641,
            "ticks": 32375,
            "durationTicks": 26
          },
          {
            "time": 120.08486103125,
            "midi": 31,
            "name": "G1",
            "velocity": 1,
            "duration": 0.10724834375001535,
            "ticks": 32471,
            "durationTicks": 29
          },
          {
            "time": 120.61740453125,
            "midi": 43,
            "name": "G2",
            "velocity": 1,
            "duration": 0.11094656250000412,
            "ticks": 32615,
            "durationTicks": 30
          },
          {
            "time": 120.79861725,
            "midi": 31,
            "name": "G1",
            "velocity": 1,
            "duration": 0.07026615625001398,
            "ticks": 32664,
            "durationTicks": 19
          },
          {
            "time": 120.97613175000001,
            "midi": 37,
            "name": "C#2",
            "velocity": 1,
            "duration": 0.1146447812500071,
            "ticks": 32712,
            "durationTicks": 31
          },
          {
            "time": 121.68988796875001,
            "midi": 25,
            "name": "C#1",
            "velocity": 1,
            "duration": 0.11464478124999289,
            "ticks": 32905,
            "durationTicks": 31
          },
          {
            "time": 122.04491696875002,
            "midi": 32,
            "name": "G#1",
            "velocity": 1,
            "duration": 0.10355012499998395,
            "ticks": 33001,
            "durationTicks": 28
          },
          {
            "time": 122.22243146875002,
            "midi": 25,
            "name": "C#1",
            "velocity": 1,
            "duration": 0.07766259375000573,
            "ticks": 33049,
            "durationTicks": 21
          },
          {
            "time": 122.39994596875002,
            "midi": 37,
            "name": "C#2",
            "velocity": 1,
            "duration": 0.10724834375000114,
            "ticks": 33097,
            "durationTicks": 29
          },
          {
            "time": 122.57746046875002,
            "midi": 37,
            "name": "C#2",
            "velocity": 1,
            "duration": 0.09985190624999518,
            "ticks": 33145,
            "durationTicks": 27
          },
          {
            "time": 122.93618768750001,
            "midi": 25,
            "name": "C#1",
            "velocity": 1,
            "duration": 0.10724834375001535,
            "ticks": 33242,
            "durationTicks": 29
          },
          {
            "time": 123.46873118750001,
            "midi": 37,
            "name": "C#2",
            "velocity": 1,
            "duration": 0.11094656249998991,
            "ticks": 33386,
            "durationTicks": 30
          },
          {
            "time": 123.64624568750001,
            "midi": 25,
            "name": "C#1",
            "velocity": 1,
            "duration": 0.07396437500000275,
            "ticks": 33434,
            "durationTicks": 20
          },
          {
            "time": 123.83115662500002,
            "midi": 43,
            "name": "G2",
            "velocity": 1,
            "duration": 0.10724834374998693,
            "ticks": 33484,
            "durationTicks": 29
          },
          {
            "time": 124.53751640625002,
            "midi": 31,
            "name": "G1",
            "velocity": 1,
            "duration": 0.1146447812500071,
            "ticks": 33675,
            "durationTicks": 31
          },
          {
            "time": 124.89254540625001,
            "midi": 38,
            "name": "D2",
            "velocity": 1,
            "duration": 0.10724834375000114,
            "ticks": 33771,
            "durationTicks": 29
          },
          {
            "time": 125.07375812500003,
            "midi": 31,
            "name": "G1",
            "velocity": 1,
            "duration": 0.07396437499998854,
            "ticks": 33820,
            "durationTicks": 20
          },
          {
            "time": 125.24757440625001,
            "midi": 43,
            "name": "G2",
            "velocity": 1,
            "duration": 0.10724834375000114,
            "ticks": 33867,
            "durationTicks": 29
          },
          {
            "time": 125.42878712500001,
            "midi": 43,
            "name": "G2",
            "velocity": 1,
            "duration": 0.09615368750000641,
            "ticks": 33916,
            "durationTicks": 26
          },
          {
            "time": 125.78381612500002,
            "midi": 31,
            "name": "G1",
            "velocity": 1,
            "duration": 0.10724834375000114,
            "ticks": 34012,
            "durationTicks": 29
          },
          {
            "time": 126.31635962500002,
            "midi": 43,
            "name": "G2",
            "velocity": 1,
            "duration": 0.11094656250000412,
            "ticks": 34156,
            "durationTicks": 30
          },
          {
            "time": 126.49387412500002,
            "midi": 31,
            "name": "G1",
            "velocity": 1,
            "duration": 0.07396437499998854,
            "ticks": 34204,
            "durationTicks": 20
          },
          {
            "time": 126.68248328125001,
            "midi": 47,
            "name": "B2",
            "velocity": 1,
            "duration": 0.10724834375000114,
            "ticks": 34255,
            "durationTicks": 29
          },
          {
            "time": 127.38514484375001,
            "midi": 35,
            "name": "B1",
            "velocity": 1,
            "duration": 0.1146447812500071,
            "ticks": 34445,
            "durationTicks": 31
          },
          {
            "time": 127.74017384375001,
            "midi": 42,
            "name": "F#2",
            "velocity": 1,
            "duration": 0.10724834375000114,
            "ticks": 34541,
            "durationTicks": 29
          },
          {
            "time": 127.92138656250002,
            "midi": 35,
            "name": "B1",
            "velocity": 1,
            "duration": 0.07766259374999152,
            "ticks": 34590,
            "durationTicks": 21
          },
          {
            "time": 128.09520284375,
            "midi": 47,
            "name": "B2",
            "velocity": 1,
            "duration": 0.10724834375002956,
            "ticks": 34637,
            "durationTicks": 29
          },
          {
            "time": 128.2764155625,
            "midi": 47,
            "name": "B2",
            "velocity": 1,
            "duration": 0.10355012500002658,
            "ticks": 34686,
            "durationTicks": 28
          },
          {
            "time": 128.6314445625,
            "midi": 35,
            "name": "B1",
            "velocity": 1,
            "duration": 0.10724834375000114,
            "ticks": 34782,
            "durationTicks": 29
          },
          {
            "time": 129.1639880625,
            "midi": 47,
            "name": "B2",
            "velocity": 1,
            "duration": 0.1146447812500071,
            "ticks": 34926,
            "durationTicks": 31
          },
          {
            "time": 129.34520078125,
            "midi": 35,
            "name": "B1",
            "velocity": 1,
            "duration": 0.07396437500000275,
            "ticks": 34975,
            "durationTicks": 20
          },
          {
            "time": 129.53011171875002,
            "midi": 40,
            "name": "E2",
            "velocity": 1,
            "duration": 0.10724834374997272,
            "ticks": 35025,
            "durationTicks": 29
          },
          {
            "time": 130.23647150000002,
            "midi": 28,
            "name": "E1",
            "velocity": 1,
            "duration": 0.11464478124997868,
            "ticks": 35216,
            "durationTicks": 31
          },
          {
            "time": 130.5915005,
            "midi": 35,
            "name": "B1",
            "velocity": 1,
            "duration": 0.10355012500002658,
            "ticks": 35312,
            "durationTicks": 28
          },
          {
            "time": 130.769015,
            "midi": 28,
            "name": "E1",
            "velocity": 1,
            "duration": 0.07766259375000573,
            "ticks": 35360,
            "durationTicks": 21
          },
          {
            "time": 130.9465295,
            "midi": 40,
            "name": "E2",
            "velocity": 1,
            "duration": 0.07026615625002819,
            "ticks": 35408,
            "durationTicks": 19
          },
          {
            "time": 131.124044,
            "midi": 40,
            "name": "E2",
            "velocity": 1,
            "duration": 0.07396437500003117,
            "ticks": 35456,
            "durationTicks": 20
          },
          {
            "time": 131.3015585,
            "midi": 28,
            "name": "E1",
            "velocity": 1,
            "duration": 0.23668600000002016,
            "ticks": 35504,
            "durationTicks": 64
          },
          {
            "time": 131.66028571875,
            "midi": 28,
            "name": "E1",
            "velocity": 1,
            "duration": 0.23668600000002016,
            "ticks": 35601,
            "durationTicks": 64
          },
          {
            "time": 132.01531471875,
            "midi": 28,
            "name": "E1",
            "velocity": 1,
            "duration": 0.23668600000002016,
            "ticks": 35697,
            "durationTicks": 64
          },
          {
            "time": 138.07299703125003,
            "midi": 35,
            "name": "B1",
            "velocity": 1,
            "duration": 0.11834299999998166,
            "ticks": 37335,
            "durationTicks": 32
          },
          {
            "time": 138.25051153125003,
            "midi": 35,
            "name": "B1",
            "velocity": 1,
            "duration": 0.1146447812500071,
            "ticks": 37383,
            "durationTicks": 31
          },
          {
            "time": 138.42802603125003,
            "midi": 35,
            "name": "B1",
            "velocity": 1,
            "duration": 0.1146447812500071,
            "ticks": 37431,
            "durationTicks": 31
          },
          {
            "time": 139.31929675000003,
            "midi": 40,
            "name": "E2",
            "velocity": 1,
            "duration": 0.12573943749998762,
            "ticks": 37672,
            "durationTicks": 34
          },
          {
            "time": 139.67432575,
            "midi": 40,
            "name": "E2",
            "velocity": 1,
            "duration": 0.12573943749998762,
            "ticks": 37768,
            "durationTicks": 34
          },
          {
            "time": 140.02935475,
            "midi": 40,
            "name": "E2",
            "velocity": 1,
            "duration": 0.0998519062500236,
            "ticks": 37864,
            "durationTicks": 27
          },
          {
            "time": 140.21056746875,
            "midi": 40,
            "name": "E2",
            "velocity": 1,
            "duration": 0.47707021874998645,
            "ticks": 37913,
            "durationTicks": 129
          },
          {
            "time": 140.92432368750002,
            "midi": 33,
            "name": "A1",
            "velocity": 1,
            "duration": 0.11834299999998166,
            "ticks": 38106,
            "durationTicks": 32
          },
          {
            "time": 141.09813996875002,
            "midi": 33,
            "name": "A1",
            "velocity": 1,
            "duration": 0.12204121874998464,
            "ticks": 38153,
            "durationTicks": 33
          },
          {
            "time": 141.27565446875002,
            "midi": 33,
            "name": "A1",
            "velocity": 1,
            "duration": 0.12573943749998762,
            "ticks": 38201,
            "durationTicks": 34
          },
          {
            "time": 142.16692518750003,
            "midi": 38,
            "name": "D2",
            "velocity": 1,
            "duration": 0.12573943749998762,
            "ticks": 38442,
            "durationTicks": 34
          },
          {
            "time": 142.52195418750003,
            "midi": 38,
            "name": "D2",
            "velocity": 1,
            "duration": 0.12573943749998762,
            "ticks": 38538,
            "durationTicks": 34
          },
          {
            "time": 142.8769831875,
            "midi": 38,
            "name": "D2",
            "velocity": 1,
            "duration": 0.11834300000001008,
            "ticks": 38634,
            "durationTicks": 32
          },
          {
            "time": 143.05819590625003,
            "midi": 37,
            "name": "C#2",
            "velocity": 1,
            "duration": 0.5473363749999862,
            "ticks": 38683,
            "durationTicks": 148
          },
          {
            "time": 143.771952125,
            "midi": 35,
            "name": "B1",
            "velocity": 1,
            "duration": 0.12204121874998464,
            "ticks": 38876,
            "durationTicks": 33
          },
          {
            "time": 143.94576840625,
            "midi": 35,
            "name": "B1",
            "velocity": 1,
            "duration": 0.11834300000001008,
            "ticks": 38923,
            "durationTicks": 32
          },
          {
            "time": 144.12328290625,
            "midi": 35,
            "name": "B1",
            "velocity": 1,
            "duration": 0.1146447812500071,
            "ticks": 38971,
            "durationTicks": 31
          },
          {
            "time": 145.01455362500002,
            "midi": 40,
            "name": "E2",
            "velocity": 1,
            "duration": 0.12573943749998762,
            "ticks": 39212,
            "durationTicks": 34
          },
          {
            "time": 145.37328084375002,
            "midi": 40,
            "name": "E2",
            "velocity": 1,
            "duration": 0.12573943749998762,
            "ticks": 39309,
            "durationTicks": 34
          },
          {
            "time": 145.72830984375003,
            "midi": 40,
            "name": "E2",
            "velocity": 1,
            "duration": 0.09985190624999518,
            "ticks": 39405,
            "durationTicks": 27
          },
          {
            "time": 145.90582434375003,
            "midi": 40,
            "name": "E2",
            "velocity": 1,
            "duration": 0.48076843749998943,
            "ticks": 39453,
            "durationTicks": 130
          },
          {
            "time": 146.61958056250003,
            "midi": 33,
            "name": "A1",
            "velocity": 1,
            "duration": 0.12573943749998762,
            "ticks": 39646,
            "durationTicks": 34
          },
          {
            "time": 146.79709506250003,
            "midi": 33,
            "name": "A1",
            "velocity": 1,
            "duration": 0.12204121874998464,
            "ticks": 39694,
            "durationTicks": 33
          },
          {
            "time": 146.97091134375,
            "midi": 33,
            "name": "A1",
            "velocity": 1,
            "duration": 0.12573943750001604,
            "ticks": 39741,
            "durationTicks": 34
          },
          {
            "time": 147.86588028125,
            "midi": 38,
            "name": "D2",
            "velocity": 1,
            "duration": 0.12943765625001902,
            "ticks": 39983,
            "durationTicks": 35
          },
          {
            "time": 148.22090928125002,
            "midi": 38,
            "name": "D2",
            "velocity": 1,
            "duration": 0.12573943749998762,
            "ticks": 40079,
            "durationTicks": 34
          },
          {
            "time": 148.57593828125002,
            "midi": 38,
            "name": "D2",
            "velocity": 1,
            "duration": 0.11834300000001008,
            "ticks": 40175,
            "durationTicks": 32
          },
          {
            "time": 148.75345278125002,
            "midi": 37,
            "name": "C#2",
            "velocity": 1,
            "duration": 0.5510345937500176,
            "ticks": 40223,
            "durationTicks": 149
          },
          {
            "time": 149.47090721875003,
            "midi": 35,
            "name": "B1",
            "velocity": 1,
            "duration": 0.12204121874998464,
            "ticks": 40417,
            "durationTicks": 33
          },
          {
            "time": 149.64472350000003,
            "midi": 35,
            "name": "B1",
            "velocity": 1,
            "duration": 0.11834299999998166,
            "ticks": 40464,
            "durationTicks": 32
          },
          {
            "time": 149.82223800000003,
            "midi": 35,
            "name": "B1",
            "velocity": 1,
            "duration": 0.1146447812500071,
            "ticks": 40512,
            "durationTicks": 31
          },
          {
            "time": 150.71350871875003,
            "midi": 40,
            "name": "E2",
            "velocity": 1,
            "duration": 0.1294376562499906,
            "ticks": 40753,
            "durationTicks": 35
          },
          {
            "time": 151.06853771875004,
            "midi": 40,
            "name": "E2",
            "velocity": 1,
            "duration": 0.12573943749998762,
            "ticks": 40849,
            "durationTicks": 34
          },
          {
            "time": 151.4272649375,
            "midi": 40,
            "name": "E2",
            "velocity": 1,
            "duration": 0.09985190624999518,
            "ticks": 40946,
            "durationTicks": 27
          },
          {
            "time": 151.6047794375,
            "midi": 40,
            "name": "E2",
            "velocity": 1,
            "duration": 0.48076843749998943,
            "ticks": 40994,
            "durationTicks": 130
          },
          {
            "time": 152.31853565625002,
            "midi": 35,
            "name": "B1",
            "velocity": 1,
            "duration": 0.12204121874998464,
            "ticks": 41187,
            "durationTicks": 33
          },
          {
            "time": 152.49235193750002,
            "midi": 35,
            "name": "B1",
            "velocity": 1,
            "duration": 0.12204121874998464,
            "ticks": 41234,
            "durationTicks": 33
          },
          {
            "time": 152.66986643750002,
            "midi": 35,
            "name": "B1",
            "velocity": 1,
            "duration": 0.12573943749998762,
            "ticks": 41282,
            "durationTicks": 34
          },
          {
            "time": 153.56113715625003,
            "midi": 40,
            "name": "E2",
            "velocity": 1,
            "duration": 0.13313587499999358,
            "ticks": 41523,
            "durationTicks": 36
          },
          {
            "time": 153.91616615625003,
            "midi": 40,
            "name": "E2",
            "velocity": 1,
            "duration": 0.1294376562499906,
            "ticks": 41619,
            "durationTicks": 35
          },
          {
            "time": 154.27489337500003,
            "midi": 40,
            "name": "E2",
            "velocity": 1,
            "duration": 0.11464478124997868,
            "ticks": 41716,
            "durationTicks": 31
          },
          {
            "time": 154.45240787500003,
            "midi": 40,
            "name": "E2",
            "velocity": 1,
            "duration": 0.5510345937499892,
            "ticks": 41764,
            "durationTicks": 149
          },
          {
            "time": 155.16616409375,
            "midi": 35,
            "name": "B1",
            "velocity": 1,
            "duration": 0.12204121874998464,
            "ticks": 41957,
            "durationTicks": 33
          },
          {
            "time": 155.339980375,
            "midi": 35,
            "name": "B1",
            "velocity": 1,
            "duration": 0.11834300000001008,
            "ticks": 42004,
            "durationTicks": 32
          },
          {
            "time": 155.517494875,
            "midi": 35,
            "name": "B1",
            "velocity": 1,
            "duration": 0.11834300000001008,
            "ticks": 42052,
            "durationTicks": 32
          },
          {
            "time": 156.40876559375002,
            "midi": 40,
            "name": "E2",
            "velocity": 1,
            "duration": 0.13313587499999358,
            "ticks": 42293,
            "durationTicks": 36
          },
          {
            "time": 156.76379459375002,
            "midi": 40,
            "name": "E2",
            "velocity": 1,
            "duration": 0.1294376562499906,
            "ticks": 42389,
            "durationTicks": 35
          },
          {
            "time": 157.12252181250003,
            "midi": 40,
            "name": "E2",
            "velocity": 1,
            "duration": 0.10355012499999816,
            "ticks": 42486,
            "durationTicks": 28
          },
          {
            "time": 157.30003631250003,
            "midi": 40,
            "name": "E2",
            "velocity": 1,
            "duration": 0.48076843749998943,
            "ticks": 42534,
            "durationTicks": 130
          },
          {
            "time": 158.01379253125003,
            "midi": 33,
            "name": "A1",
            "velocity": 1,
            "duration": 0.12204121874998464,
            "ticks": 42727,
            "durationTicks": 33
          },
          {
            "time": 158.19130703125003,
            "midi": 33,
            "name": "A1",
            "velocity": 1,
            "duration": 0.12204121874998464,
            "ticks": 42775,
            "durationTicks": 33
          },
          {
            "time": 158.3651233125,
            "midi": 33,
            "name": "A1",
            "velocity": 1,
            "duration": 0.12943765625001902,
            "ticks": 42822,
            "durationTicks": 35
          },
          {
            "time": 159.26009225,
            "midi": 38,
            "name": "D2",
            "velocity": 1,
            "duration": 0.13313587499999358,
            "ticks": 43064,
            "durationTicks": 36
          },
          {
            "time": 159.61512125000002,
            "midi": 38,
            "name": "D2",
            "velocity": 1,
            "duration": 0.12573943750001604,
            "ticks": 43160,
            "durationTicks": 34
          },
          {
            "time": 159.97015025000002,
            "midi": 38,
            "name": "D2",
            "velocity": 1,
            "duration": 0.11834300000001008,
            "ticks": 43256,
            "durationTicks": 32
          },
          {
            "time": 160.15136296875002,
            "midi": 37,
            "name": "C#2",
            "velocity": 1,
            "duration": 0.5510345937499892,
            "ticks": 43305,
            "durationTicks": 149
          },
          {
            "time": 160.86511918750003,
            "midi": 35,
            "name": "B1",
            "velocity": 1,
            "duration": 0.12204121874998464,
            "ticks": 43498,
            "durationTicks": 33
          },
          {
            "time": 161.03893546875003,
            "midi": 35,
            "name": "B1",
            "velocity": 1,
            "duration": 0.11834299999998166,
            "ticks": 43545,
            "durationTicks": 32
          },
          {
            "time": 161.21644996875003,
            "midi": 35,
            "name": "B1",
            "velocity": 1,
            "duration": 0.1146447812500071,
            "ticks": 43593,
            "durationTicks": 31
          },
          {
            "time": 162.10772068750003,
            "midi": 40,
            "name": "E2",
            "velocity": 1,
            "duration": 0.13313587499999358,
            "ticks": 43834,
            "durationTicks": 36
          },
          {
            "time": 162.46274968750004,
            "midi": 40,
            "name": "E2",
            "velocity": 1,
            "duration": 0.1294376562499906,
            "ticks": 43930,
            "durationTicks": 35
          },
          {
            "time": 162.81777868750004,
            "midi": 40,
            "name": "E2",
            "velocity": 1,
            "duration": 0.10355012499996974,
            "ticks": 44026,
            "durationTicks": 28
          },
          {
            "time": 162.99899140625,
            "midi": 40,
            "name": "E2",
            "velocity": 1,
            "duration": 0.48076843750001785,
            "ticks": 44075,
            "durationTicks": 130
          },
          {
            "time": 163.71274762500002,
            "midi": 33,
            "name": "A1",
            "velocity": 1,
            "duration": 0.12204121874998464,
            "ticks": 44268,
            "durationTicks": 33
          },
          {
            "time": 163.89026212500002,
            "midi": 33,
            "name": "A1",
            "velocity": 1,
            "duration": 0.12204121874998464,
            "ticks": 44316,
            "durationTicks": 33
          },
          {
            "time": 164.06407840625002,
            "midi": 33,
            "name": "A1",
            "velocity": 1,
            "duration": 0.12573943749998762,
            "ticks": 44363,
            "durationTicks": 34
          },
          {
            "time": 164.95904734375003,
            "midi": 38,
            "name": "D2",
            "velocity": 1,
            "duration": 0.1294376562499906,
            "ticks": 44605,
            "durationTicks": 35
          },
          {
            "time": 165.31407634375003,
            "midi": 38,
            "name": "D2",
            "velocity": 1,
            "duration": 0.12573943749998762,
            "ticks": 44701,
            "durationTicks": 34
          },
          {
            "time": 165.66910534375003,
            "midi": 38,
            "name": "D2",
            "velocity": 1,
            "duration": 0.11834299999998166,
            "ticks": 44797,
            "durationTicks": 32
          },
          {
            "time": 165.8503180625,
            "midi": 37,
            "name": "C#2",
            "velocity": 1,
            "duration": 0.5473363750000146,
            "ticks": 44846,
            "durationTicks": 148
          },
          {
            "time": 166.5603760625,
            "midi": 35,
            "name": "B1",
            "velocity": 1,
            "duration": 0.12573943750001604,
            "ticks": 45038,
            "durationTicks": 34
          },
          {
            "time": 166.7378905625,
            "midi": 35,
            "name": "B1",
            "velocity": 1,
            "duration": 0.11834300000001008,
            "ticks": 45086,
            "durationTicks": 32
          },
          {
            "time": 166.9154050625,
            "midi": 35,
            "name": "B1",
            "velocity": 1,
            "duration": 0.1146447812500071,
            "ticks": 45134,
            "durationTicks": 31
          },
          {
            "time": 167.80667578125002,
            "midi": 40,
            "name": "E2",
            "velocity": 1,
            "duration": 0.13313587499999358,
            "ticks": 45375,
            "durationTicks": 36
          },
          {
            "time": 168.16170478125002,
            "midi": 40,
            "name": "E2",
            "velocity": 1,
            "duration": 0.1294376562499906,
            "ticks": 45471,
            "durationTicks": 35
          },
          {
            "time": 168.51673378125003,
            "midi": 40,
            "name": "E2",
            "velocity": 1,
            "duration": 0.10355012499999816,
            "ticks": 45567,
            "durationTicks": 28
          },
          {
            "time": 168.69794650000003,
            "midi": 40,
            "name": "E2",
            "velocity": 1,
            "duration": 0.48076843749998943,
            "ticks": 45616,
            "durationTicks": 130
          },
          {
            "time": 169.41170271875,
            "midi": 42,
            "name": "F#2",
            "velocity": 1,
            "duration": 0.12204121875001306,
            "ticks": 45809,
            "durationTicks": 33
          },
          {
            "time": 169.58551900000003,
            "midi": 42,
            "name": "F#2",
            "velocity": 1,
            "duration": 0.12204121874998464,
            "ticks": 45856,
            "durationTicks": 33
          },
          {
            "time": 169.76303350000003,
            "midi": 42,
            "name": "F#2",
            "velocity": 1,
            "duration": 0.12573943749998762,
            "ticks": 45904,
            "durationTicks": 34
          },
          {
            "time": 170.65430421875,
            "midi": 38,
            "name": "D2",
            "velocity": 1,
            "duration": 0.13313587499999358,
            "ticks": 46145,
            "durationTicks": 36
          },
          {
            "time": 171.01303143750002,
            "midi": 38,
            "name": "D2",
            "velocity": 1,
            "duration": 0.12573943750001604,
            "ticks": 46242,
            "durationTicks": 34
          },
          {
            "time": 171.36806043750002,
            "midi": 54,
            "name": "F#3",
            "velocity": 1,
            "duration": 0.162721624999989,
            "ticks": 46338,
            "durationTicks": 44
          },
          {
            "time": 171.54557493750002,
            "midi": 52,
            "name": "E3",
            "velocity": 1,
            "duration": 0.15902340625001443,
            "ticks": 46386,
            "durationTicks": 43
          },
          {
            "time": 171.72308943750002,
            "midi": 50,
            "name": "D3",
            "velocity": 1,
            "duration": 0.162721624999989,
            "ticks": 46434,
            "durationTicks": 44
          },
          {
            "time": 171.90060393750002,
            "midi": 49,
            "name": "C#3",
            "velocity": 1,
            "duration": 0.15902340625001443,
            "ticks": 46482,
            "durationTicks": 43
          },
          {
            "time": 172.07811843750002,
            "midi": 47,
            "name": "B2",
            "velocity": 1,
            "duration": 0.16641984374999197,
            "ticks": 46530,
            "durationTicks": 45
          },
          {
            "time": 172.25933115625003,
            "midi": 33,
            "name": "A1",
            "velocity": 1,
            "duration": 0.12204121874998464,
            "ticks": 46579,
            "durationTicks": 33
          },
          {
            "time": 172.43314743750003,
            "midi": 33,
            "name": "A1",
            "velocity": 1,
            "duration": 0.11094656250000412,
            "ticks": 46626,
            "durationTicks": 30
          },
          {
            "time": 172.61066193750003,
            "midi": 33,
            "name": "A1",
            "velocity": 1,
            "duration": 0.26257353124998417,
            "ticks": 46674,
            "durationTicks": 71
          },
          {
            "time": 172.96569093750003,
            "midi": 33,
            "name": "A1",
            "velocity": 1,
            "duration": 0.2551770937499782,
            "ticks": 46770,
            "durationTicks": 69
          },
          {
            "time": 173.32441815625003,
            "midi": 33,
            "name": "A1",
            "velocity": 1,
            "duration": 0.24778065624997225,
            "ticks": 46867,
            "durationTicks": 67
          },
          {
            "time": 173.68684359375,
            "midi": 32,
            "name": "G#1",
            "velocity": 1,
            "duration": 0.24038421874999472,
            "ticks": 46965,
            "durationTicks": 65
          },
          {
            "time": 174.04187259375,
            "midi": 32,
            "name": "G#1",
            "velocity": 1,
            "duration": 0.26996996875001855,
            "ticks": 47061,
            "durationTicks": 73
          },
          {
            "time": 174.39690159375002,
            "midi": 32,
            "name": "G#1",
            "velocity": 1,
            "duration": 0.24778065625000067,
            "ticks": 47157,
            "durationTicks": 67
          },
          {
            "time": 174.75193059375002,
            "midi": 32,
            "name": "G#1",
            "velocity": 1,
            "duration": 0.2773664062499961,
            "ticks": 47253,
            "durationTicks": 75
          },
          {
            "time": 175.11435603125003,
            "midi": 30,
            "name": "F#1",
            "velocity": 1,
            "duration": 0.2588753124999812,
            "ticks": 47351,
            "durationTicks": 70
          },
          {
            "time": 175.46568681250002,
            "midi": 30,
            "name": "F#1",
            "velocity": 1,
            "duration": 0.25147887500000365,
            "ticks": 47446,
            "durationTicks": 68
          },
          {
            "time": 175.82071581250003,
            "midi": 30,
            "name": "F#1",
            "velocity": 1,
            "duration": 0.2773664062499961,
            "ticks": 47542,
            "durationTicks": 75
          },
          {
            "time": 176.17574481250003,
            "midi": 30,
            "name": "F#1",
            "velocity": 1,
            "duration": 0.325443249999978,
            "ticks": 47638,
            "durationTicks": 88
          },
          {
            "time": 176.53447203125,
            "midi": 38,
            "name": "D2",
            "velocity": 1,
            "duration": 0.09985190624999518,
            "ticks": 47735,
            "durationTicks": 27
          },
          {
            "time": 176.70828831250003,
            "midi": 38,
            "name": "D2",
            "velocity": 1,
            "duration": 0.08875724999998624,
            "ticks": 47782,
            "durationTicks": 24
          },
          {
            "time": 176.88950103125,
            "midi": 38,
            "name": "D2",
            "velocity": 1,
            "duration": 0.08875725000001466,
            "ticks": 47831,
            "durationTicks": 24
          },
          {
            "time": 177.06331731250003,
            "midi": 38,
            "name": "D2",
            "velocity": 1,
            "duration": 0.09985190624999518,
            "ticks": 47878,
            "durationTicks": 27
          },
          {
            "time": 177.24453003125,
            "midi": 38,
            "name": "D2",
            "velocity": 1,
            "duration": 0.10724834375002956,
            "ticks": 47927,
            "durationTicks": 29
          },
          {
            "time": 177.41834631250003,
            "midi": 38,
            "name": "D2",
            "velocity": 1,
            "duration": 0.10355012499996974,
            "ticks": 47974,
            "durationTicks": 28
          },
          {
            "time": 177.60325725,
            "midi": 38,
            "name": "D2",
            "velocity": 1,
            "duration": 0.10724834375000114,
            "ticks": 48024,
            "durationTicks": 29
          },
          {
            "time": 177.77337531250004,
            "midi": 38,
            "name": "D2",
            "velocity": 1,
            "duration": 0.11094656250000412,
            "ticks": 48070,
            "durationTicks": 30
          },
          {
            "time": 177.96198446875002,
            "midi": 33,
            "name": "A1",
            "velocity": 1,
            "duration": 0.11834300000001008,
            "ticks": 48121,
            "durationTicks": 32
          },
          {
            "time": 178.13210253125,
            "midi": 33,
            "name": "A1",
            "velocity": 1,
            "duration": 0.11834300000001008,
            "ticks": 48167,
            "durationTicks": 32
          },
          {
            "time": 178.31331525000002,
            "midi": 33,
            "name": "A1",
            "velocity": 1,
            "duration": 0.25517709375000663,
            "ticks": 48216,
            "durationTicks": 69
          },
          {
            "time": 178.66834425000002,
            "midi": 33,
            "name": "A1",
            "velocity": 1,
            "duration": 0.2736681874999931,
            "ticks": 48312,
            "durationTicks": 74
          },
          {
            "time": 179.02707146875002,
            "midi": 33,
            "name": "A1",
            "velocity": 1,
            "duration": 0.2773664062499961,
            "ticks": 48409,
            "durationTicks": 75
          },
          {
            "time": 179.3857986875,
            "midi": 32,
            "name": "G#1",
            "velocity": 1,
            "duration": 0.2477806562500291,
            "ticks": 48506,
            "durationTicks": 67
          },
          {
            "time": 179.73712946875003,
            "midi": 32,
            "name": "G#1",
            "velocity": 1,
            "duration": 0.28476284375000205,
            "ticks": 48601,
            "durationTicks": 77
          },
          {
            "time": 180.09215846875003,
            "midi": 32,
            "name": "G#1",
            "velocity": 1,
            "duration": 0.26996996874999013,
            "ticks": 48697,
            "durationTicks": 73
          },
          {
            "time": 180.4508856875,
            "midi": 32,
            "name": "G#1",
            "velocity": 1,
            "duration": 0.2810646250000275,
            "ticks": 48794,
            "durationTicks": 76
          },
          {
            "time": 180.80961290625,
            "midi": 30,
            "name": "F#1",
            "velocity": 1,
            "duration": 0.25147887500000365,
            "ticks": 48891,
            "durationTicks": 68
          },
          {
            "time": 181.1609436875,
            "midi": 30,
            "name": "F#1",
            "velocity": 1,
            "duration": 0.27366818750002153,
            "ticks": 48986,
            "durationTicks": 74
          },
          {
            "time": 181.51967090625,
            "midi": 30,
            "name": "F#1",
            "velocity": 1,
            "duration": 0.288461062500005,
            "ticks": 49083,
            "durationTicks": 78
          },
          {
            "time": 181.87469990625002,
            "midi": 30,
            "name": "F#1",
            "velocity": 1,
            "duration": 0.2773664062499961,
            "ticks": 49179,
            "durationTicks": 75
          },
          {
            "time": 182.23342712500002,
            "midi": 38,
            "name": "D2",
            "velocity": 1,
            "duration": 0.10724834375000114,
            "ticks": 49276,
            "durationTicks": 29
          },
          {
            "time": 182.40354518750004,
            "midi": 38,
            "name": "D2",
            "velocity": 1,
            "duration": 0.09985190624999518,
            "ticks": 49322,
            "durationTicks": 27
          },
          {
            "time": 182.588456125,
            "midi": 38,
            "name": "D2",
            "velocity": 1,
            "duration": 0.0850590312500401,
            "ticks": 49372,
            "durationTicks": 23
          },
          {
            "time": 182.76227240625002,
            "midi": 38,
            "name": "D2",
            "velocity": 1,
            "duration": 0.09245546874998922,
            "ticks": 49419,
            "durationTicks": 25
          },
          {
            "time": 182.943485125,
            "midi": 38,
            "name": "D2",
            "velocity": 1,
            "duration": 0.09615368750002062,
            "ticks": 49468,
            "durationTicks": 26
          },
          {
            "time": 183.11730140625002,
            "midi": 38,
            "name": "D2",
            "velocity": 1,
            "duration": 0.10355012499999816,
            "ticks": 49515,
            "durationTicks": 28
          },
          {
            "time": 183.298514125,
            "midi": 38,
            "name": "D2",
            "velocity": 1,
            "duration": 0.08875725000001466,
            "ticks": 49564,
            "durationTicks": 24
          },
          {
            "time": 183.47233040625002,
            "midi": 38,
            "name": "D2",
            "velocity": 1,
            "duration": 0.09615368750002062,
            "ticks": 49611,
            "durationTicks": 26
          },
          {
            "time": 183.66093956250003,
            "midi": 33,
            "name": "A1",
            "velocity": 1,
            "duration": 0.11834300000001008,
            "ticks": 49662,
            "durationTicks": 32
          },
          {
            "time": 183.82735940625003,
            "midi": 33,
            "name": "A1",
            "velocity": 1,
            "duration": 0.11464478124997868,
            "ticks": 49707,
            "durationTicks": 31
          },
          {
            "time": 184.008572125,
            "midi": 33,
            "name": "A1",
            "velocity": 1,
            "duration": 0.12573943750004446,
            "ticks": 49756,
            "durationTicks": 34
          },
          {
            "time": 184.896144625,
            "midi": 33,
            "name": "A1",
            "velocity": 1,
            "duration": 0.13683409375002498,
            "ticks": 49996,
            "durationTicks": 37
          },
          {
            "time": 185.0810555625,
            "midi": 32,
            "name": "G#1",
            "velocity": 1,
            "duration": 0.11094656250000412,
            "ticks": 50046,
            "durationTicks": 30
          },
          {
            "time": 185.25487184375004,
            "midi": 32,
            "name": "G#1",
            "velocity": 1,
            "duration": 0.12204121874998464,
            "ticks": 50093,
            "durationTicks": 33
          },
          {
            "time": 185.4360845625,
            "midi": 32,
            "name": "G#1",
            "velocity": 1,
            "duration": 0.15162696875000847,
            "ticks": 50142,
            "durationTicks": 41
          },
          {
            "time": 186.32365706250002,
            "midi": 32,
            "name": "G#1",
            "velocity": 1,
            "duration": 0.11834300000001008,
            "ticks": 50382,
            "durationTicks": 32
          },
          {
            "time": 186.50856800000003,
            "midi": 30,
            "name": "F#1",
            "velocity": 1,
            "duration": 0.10724834374997272,
            "ticks": 50432,
            "durationTicks": 29
          },
          {
            "time": 186.67868606250002,
            "midi": 30,
            "name": "F#1",
            "velocity": 1,
            "duration": 0.11464478124997868,
            "ticks": 50478,
            "durationTicks": 31
          },
          {
            "time": 186.85989878125,
            "midi": 30,
            "name": "F#1",
            "velocity": 1,
            "duration": 0.13683409375002498,
            "ticks": 50527,
            "durationTicks": 37
          },
          {
            "time": 187.74747128125,
            "midi": 38,
            "name": "D2",
            "velocity": 1,
            "duration": 0.11834300000001008,
            "ticks": 50767,
            "durationTicks": 32
          },
          {
            "time": 187.92868400000003,
            "midi": 38,
            "name": "D2",
            "velocity": 1,
            "duration": 0.12204121875001306,
            "ticks": 50816,
            "durationTicks": 33
          },
          {
            "time": 188.10250028125,
            "midi": 38,
            "name": "D2",
            "velocity": 1,
            "duration": 0.11094656250000412,
            "ticks": 50863,
            "durationTicks": 30
          },
          {
            "time": 188.28371300000003,
            "midi": 38,
            "name": "D2",
            "velocity": 1,
            "duration": 0.10724834374997272,
            "ticks": 50912,
            "durationTicks": 29
          },
          {
            "time": 188.45752928125,
            "midi": 38,
            "name": "D2",
            "velocity": 1,
            "duration": 0.11094656250000412,
            "ticks": 50959,
            "durationTicks": 30
          },
          {
            "time": 188.63874200000004,
            "midi": 38,
            "name": "D2",
            "velocity": 1,
            "duration": 0.09985190624999518,
            "ticks": 51008,
            "durationTicks": 27
          },
          {
            "time": 188.81625650000004,
            "midi": 42,
            "name": "F#2",
            "velocity": 1,
            "duration": 0.12204121874998464,
            "ticks": 51056,
            "durationTicks": 33
          },
          {
            "time": 188.99746921875,
            "midi": 40,
            "name": "E2",
            "velocity": 1,
            "duration": 0.12204121875001306,
            "ticks": 51105,
            "durationTicks": 33
          },
          {
            "time": 189.17128550000004,
            "midi": 38,
            "name": "D2",
            "velocity": 1,
            "duration": 0.12573943749998762,
            "ticks": 51152,
            "durationTicks": 34
          },
          {
            "time": 189.36359287500002,
            "midi": 33,
            "name": "A1",
            "velocity": 1,
            "duration": 0.11094656250000412,
            "ticks": 51204,
            "durationTicks": 30
          },
          {
            "time": 189.52631450000004,
            "midi": 33,
            "name": "A1",
            "velocity": 1,
            "duration": 0.11094656250000412,
            "ticks": 51248,
            "durationTicks": 30
          },
          {
            "time": 189.71122543750002,
            "midi": 33,
            "name": "A1",
            "velocity": 1,
            "duration": 0.2588753125000096,
            "ticks": 51298,
            "durationTicks": 70
          },
          {
            "time": 190.06625443750002,
            "midi": 33,
            "name": "A1",
            "velocity": 1,
            "duration": 0.24778065625000067,
            "ticks": 51394,
            "durationTicks": 67
          },
          {
            "time": 190.4212834375,
            "midi": 33,
            "name": "A1",
            "velocity": 1,
            "duration": 0.24408243750002612,
            "ticks": 51490,
            "durationTicks": 66
          },
          {
            "time": 190.78001065625003,
            "midi": 32,
            "name": "G#1",
            "velocity": 1,
            "duration": 0.2403842187499663,
            "ticks": 51587,
            "durationTicks": 65
          },
          {
            "time": 191.13503965625003,
            "midi": 32,
            "name": "G#1",
            "velocity": 1,
            "duration": 0.2736681874999647,
            "ticks": 51683,
            "durationTicks": 74
          },
          {
            "time": 191.49006865625003,
            "midi": 32,
            "name": "G#1",
            "velocity": 1,
            "duration": 0.24778065625000067,
            "ticks": 51779,
            "durationTicks": 67
          },
          {
            "time": 191.84509765625003,
            "midi": 32,
            "name": "G#1",
            "velocity": 1,
            "duration": 0.2773664062499961,
            "ticks": 51875,
            "durationTicks": 75
          },
          {
            "time": 192.20752309375,
            "midi": 30,
            "name": "F#1",
            "velocity": 1,
            "duration": 0.2625735312500126,
            "ticks": 51973,
            "durationTicks": 71
          },
          {
            "time": 192.558853875,
            "midi": 30,
            "name": "F#1",
            "velocity": 1,
            "duration": 0.2514788750000321,
            "ticks": 52068,
            "durationTicks": 68
          },
          {
            "time": 192.913882875,
            "midi": 30,
            "name": "F#1",
            "velocity": 1,
            "duration": 0.2773664062499961,
            "ticks": 52164,
            "durationTicks": 75
          },
          {
            "time": 193.26891187500001,
            "midi": 30,
            "name": "F#1",
            "velocity": 1,
            "duration": 0.3254432500000064,
            "ticks": 52260,
            "durationTicks": 88
          },
          {
            "time": 193.62763909375002,
            "midi": 38,
            "name": "D2",
            "velocity": 1,
            "duration": 0.10355012500002658,
            "ticks": 52357,
            "durationTicks": 28
          },
          {
            "time": 193.80145537500002,
            "midi": 38,
            "name": "D2",
            "velocity": 1,
            "duration": 0.08875725000001466,
            "ticks": 52404,
            "durationTicks": 24
          },
          {
            "time": 193.98266809375002,
            "midi": 38,
            "name": "D2",
            "velocity": 1,
            "duration": 0.08875724999998624,
            "ticks": 52453,
            "durationTicks": 24
          },
          {
            "time": 194.15648437500002,
            "midi": 38,
            "name": "D2",
            "velocity": 1,
            "duration": 0.09985190624999518,
            "ticks": 52500,
            "durationTicks": 27
          },
          {
            "time": 194.33769709375,
            "midi": 38,
            "name": "D2",
            "velocity": 1,
            "duration": 0.10724834375002956,
            "ticks": 52549,
            "durationTicks": 29
          },
          {
            "time": 194.51151337500002,
            "midi": 38,
            "name": "D2",
            "velocity": 1,
            "duration": 0.10724834375000114,
            "ticks": 52596,
            "durationTicks": 29
          },
          {
            "time": 194.69642431250003,
            "midi": 38,
            "name": "D2",
            "velocity": 1,
            "duration": 0.11094656250000412,
            "ticks": 52646,
            "durationTicks": 30
          },
          {
            "time": 194.87024059375,
            "midi": 38,
            "name": "D2",
            "velocity": 1,
            "duration": 0.10724834375002956,
            "ticks": 52693,
            "durationTicks": 29
          },
          {
            "time": 195.05515153125003,
            "midi": 33,
            "name": "A1",
            "velocity": 1,
            "duration": 0.11834300000001008,
            "ticks": 52743,
            "durationTicks": 32
          },
          {
            "time": 195.22526959375,
            "midi": 33,
            "name": "A1",
            "velocity": 1,
            "duration": 0.12573943750004446,
            "ticks": 52789,
            "durationTicks": 34
          },
          {
            "time": 195.40648231250003,
            "midi": 33,
            "name": "A1",
            "velocity": 1,
            "duration": 0.25517709375000663,
            "ticks": 52838,
            "durationTicks": 69
          },
          {
            "time": 195.76151131250003,
            "midi": 33,
            "name": "A1",
            "velocity": 1,
            "duration": 0.2736681874999647,
            "ticks": 52934,
            "durationTicks": 74
          },
          {
            "time": 196.12023853125,
            "midi": 33,
            "name": "A1",
            "velocity": 1,
            "duration": 0.2773664062500245,
            "ticks": 53031,
            "durationTicks": 75
          },
          {
            "time": 196.47896575000001,
            "midi": 32,
            "name": "G#1",
            "velocity": 1,
            "duration": 0.25147887500000365,
            "ticks": 53128,
            "durationTicks": 68
          },
          {
            "time": 196.83029653125,
            "midi": 32,
            "name": "G#1",
            "velocity": 1,
            "duration": 0.28476284375003047,
            "ticks": 53223,
            "durationTicks": 77
          },
          {
            "time": 197.18902375000002,
            "midi": 32,
            "name": "G#1",
            "velocity": 1,
            "duration": 0.26627174999998715,
            "ticks": 53320,
            "durationTicks": 72
          },
          {
            "time": 197.54405275000002,
            "midi": 32,
            "name": "G#1",
            "velocity": 1,
            "duration": 0.28476284375000205,
            "ticks": 53416,
            "durationTicks": 77
          },
          {
            "time": 197.90277996875002,
            "midi": 30,
            "name": "F#1",
            "velocity": 1,
            "duration": 0.25147887499997523,
            "ticks": 53513,
            "durationTicks": 68
          },
          {
            "time": 198.25780896875003,
            "midi": 30,
            "name": "F#1",
            "velocity": 1,
            "duration": 0.26996996874999013,
            "ticks": 53609,
            "durationTicks": 73
          },
          {
            "time": 198.61283796875003,
            "midi": 30,
            "name": "F#1",
            "velocity": 1,
            "duration": 0.288461062500005,
            "ticks": 53705,
            "durationTicks": 78
          },
          {
            "time": 198.96786696875003,
            "midi": 30,
            "name": "F#1",
            "velocity": 1,
            "duration": 0.2773664062499961,
            "ticks": 53801,
            "durationTicks": 75
          },
          {
            "time": 199.32659418750004,
            "midi": 38,
            "name": "D2",
            "velocity": 1,
            "duration": 0.1109465624999757,
            "ticks": 53898,
            "durationTicks": 30
          },
          {
            "time": 199.49671225,
            "midi": 38,
            "name": "D2",
            "velocity": 1,
            "duration": 0.09985190624999518,
            "ticks": 53944,
            "durationTicks": 27
          },
          {
            "time": 199.6816231875,
            "midi": 38,
            "name": "D2",
            "velocity": 1,
            "duration": 0.08875725000001466,
            "ticks": 53994,
            "durationTicks": 24
          },
          {
            "time": 199.85543946875003,
            "midi": 38,
            "name": "D2",
            "velocity": 1,
            "duration": 0.09245546874998922,
            "ticks": 54041,
            "durationTicks": 25
          },
          {
            "time": 200.0366521875,
            "midi": 38,
            "name": "D2",
            "velocity": 1,
            "duration": 0.09615368750002062,
            "ticks": 54090,
            "durationTicks": 26
          },
          {
            "time": 200.21046846875004,
            "midi": 38,
            "name": "D2",
            "velocity": 1,
            "duration": 0.11094656250000412,
            "ticks": 54137,
            "durationTicks": 30
          },
          {
            "time": 200.3916811875,
            "midi": 38,
            "name": "D2",
            "velocity": 1,
            "duration": 0.08875725000001466,
            "ticks": 54186,
            "durationTicks": 24
          },
          {
            "time": 200.56549746875004,
            "midi": 38,
            "name": "D2",
            "velocity": 1,
            "duration": 0.09615368749996378,
            "ticks": 54233,
            "durationTicks": 26
          },
          {
            "time": 200.75410662500005,
            "midi": 33,
            "name": "A1",
            "velocity": 1,
            "duration": 0.12204121874998464,
            "ticks": 54284,
            "durationTicks": 33
          },
          {
            "time": 200.92422468750001,
            "midi": 33,
            "name": "A1",
            "velocity": 1,
            "duration": 0.10724834375002956,
            "ticks": 54330,
            "durationTicks": 29
          },
          {
            "time": 201.10543740625002,
            "midi": 33,
            "name": "A1",
            "velocity": 1,
            "duration": 0.2588753125000096,
            "ticks": 54379,
            "durationTicks": 70
          },
          {
            "time": 201.46046640625002,
            "midi": 33,
            "name": "A1",
            "velocity": 1,
            "duration": 0.2477806562500291,
            "ticks": 54475,
            "durationTicks": 67
          },
          {
            "time": 201.81919362500003,
            "midi": 33,
            "name": "A1",
            "velocity": 1,
            "duration": 0.24038421874999472,
            "ticks": 54572,
            "durationTicks": 65
          },
          {
            "time": 202.17422262500003,
            "midi": 32,
            "name": "G#1",
            "velocity": 1,
            "duration": 0.2440824374999977,
            "ticks": 54668,
            "durationTicks": 66
          },
          {
            "time": 202.52925162500003,
            "midi": 32,
            "name": "G#1",
            "velocity": 1,
            "duration": 0.2736681874999931,
            "ticks": 54764,
            "durationTicks": 74
          },
          {
            "time": 202.88428062500003,
            "midi": 32,
            "name": "G#1",
            "velocity": 1,
            "duration": 0.25147887499997523,
            "ticks": 54860,
            "durationTicks": 68
          },
          {
            "time": 203.24300784375004,
            "midi": 32,
            "name": "G#1",
            "velocity": 1,
            "duration": 0.2773664062499961,
            "ticks": 54957,
            "durationTicks": 75
          },
          {
            "time": 203.6017350625,
            "midi": 30,
            "name": "F#1",
            "velocity": 1,
            "duration": 0.26627174999998715,
            "ticks": 55054,
            "durationTicks": 72
          },
          {
            "time": 203.95306584375,
            "midi": 30,
            "name": "F#1",
            "velocity": 1,
            "duration": 0.25517709375000663,
            "ticks": 55149,
            "durationTicks": 69
          },
          {
            "time": 204.30809484375,
            "midi": 30,
            "name": "F#1",
            "velocity": 1,
            "duration": 0.28106462499999907,
            "ticks": 55245,
            "durationTicks": 76
          },
          {
            "time": 204.66682206250002,
            "midi": 30,
            "name": "F#1",
            "velocity": 1,
            "duration": 0.3217450312500034,
            "ticks": 55342,
            "durationTicks": 87
          },
          {
            "time": 205.02185106250002,
            "midi": 38,
            "name": "D2",
            "velocity": 1,
            "duration": 0.10355012500002658,
            "ticks": 55438,
            "durationTicks": 28
          },
          {
            "time": 205.19566734375002,
            "midi": 38,
            "name": "D2",
            "velocity": 1,
            "duration": 0.08875725000001466,
            "ticks": 55485,
            "durationTicks": 24
          },
          {
            "time": 205.38057828125002,
            "midi": 38,
            "name": "D2",
            "velocity": 1,
            "duration": 0.08505903124998326,
            "ticks": 55535,
            "durationTicks": 23
          },
          {
            "time": 205.55439456250002,
            "midi": 38,
            "name": "D2",
            "velocity": 1,
            "duration": 0.0961536874999922,
            "ticks": 55582,
            "durationTicks": 26
          },
          {
            "time": 205.73560728125003,
            "midi": 38,
            "name": "D2",
            "velocity": 1,
            "duration": 0.10724834374997272,
            "ticks": 55631,
            "durationTicks": 29
          },
          {
            "time": 205.9094235625,
            "midi": 38,
            "name": "D2",
            "velocity": 1,
            "duration": 0.10355012500002658,
            "ticks": 55678,
            "durationTicks": 28
          },
          {
            "time": 206.09063628125003,
            "midi": 38,
            "name": "D2",
            "velocity": 1,
            "duration": 0.1146447812500071,
            "ticks": 55727,
            "durationTicks": 31
          },
          {
            "time": 206.2644525625,
            "midi": 38,
            "name": "D2",
            "velocity": 1,
            "duration": 0.11094656250000412,
            "ticks": 55774,
            "durationTicks": 30
          },
          {
            "time": 206.45306171875,
            "midi": 33,
            "name": "A1",
            "velocity": 1,
            "duration": 0.12204121875001306,
            "ticks": 55825,
            "durationTicks": 33
          },
          {
            "time": 206.6194815625,
            "midi": 33,
            "name": "A1",
            "velocity": 1,
            "duration": 0.11094656250000412,
            "ticks": 55870,
            "durationTicks": 30
          },
          {
            "time": 206.80439250000003,
            "midi": 33,
            "name": "A1",
            "velocity": 1,
            "duration": 0.2588753124999812,
            "ticks": 55920,
            "durationTicks": 70
          },
          {
            "time": 207.15942150000004,
            "midi": 33,
            "name": "A1",
            "velocity": 1,
            "duration": 0.24778065624997225,
            "ticks": 56016,
            "durationTicks": 67
          },
          {
            "time": 207.5144505,
            "midi": 33,
            "name": "A1",
            "velocity": 1,
            "duration": 0.24408243750002612,
            "ticks": 56112,
            "durationTicks": 66
          },
          {
            "time": 207.87317771875001,
            "midi": 32,
            "name": "G#1",
            "velocity": 1,
            "duration": 0.24038421874999472,
            "ticks": 56209,
            "durationTicks": 65
          },
          {
            "time": 208.22820671875002,
            "midi": 32,
            "name": "G#1",
            "velocity": 1,
            "duration": 0.2736681874999931,
            "ticks": 56305,
            "durationTicks": 74
          },
          {
            "time": 208.58323571875002,
            "midi": 32,
            "name": "G#1",
            "velocity": 1,
            "duration": 0.2477806562500291,
            "ticks": 56401,
            "durationTicks": 67
          },
          {
            "time": 208.94196293750002,
            "midi": 32,
            "name": "G#1",
            "velocity": 1,
            "duration": 0.2773664062500245,
            "ticks": 56498,
            "durationTicks": 75
          },
          {
            "time": 209.30069015625003,
            "midi": 30,
            "name": "F#1",
            "velocity": 1,
            "duration": 0.26627174999998715,
            "ticks": 56595,
            "durationTicks": 72
          },
          {
            "time": 209.65202093750003,
            "midi": 30,
            "name": "F#1",
            "velocity": 1,
            "duration": 0.25517709375000663,
            "ticks": 56690,
            "durationTicks": 69
          },
          {
            "time": 210.00704993750003,
            "midi": 30,
            "name": "F#1",
            "velocity": 1,
            "duration": 0.28106462499999907,
            "ticks": 56786,
            "durationTicks": 76
          },
          {
            "time": 210.36577715625003,
            "midi": 30,
            "name": "F#1",
            "velocity": 1,
            "duration": 0.3217450312500034,
            "ticks": 56883,
            "durationTicks": 87
          },
          {
            "time": 210.72080615625003,
            "midi": 38,
            "name": "D2",
            "velocity": 1,
            "duration": 0.10355012499996974,
            "ticks": 56979,
            "durationTicks": 28
          },
          {
            "time": 210.89462243750003,
            "midi": 38,
            "name": "D2",
            "velocity": 1,
            "duration": 0.08875725000001466,
            "ticks": 57026,
            "durationTicks": 24
          },
          {
            "time": 211.07583515625004,
            "midi": 38,
            "name": "D2",
            "velocity": 1,
            "duration": 0.08875724999998624,
            "ticks": 57075,
            "durationTicks": 24
          },
          {
            "time": 211.24965143750003,
            "midi": 38,
            "name": "D2",
            "velocity": 1,
            "duration": 0.09985190624999518,
            "ticks": 57122,
            "durationTicks": 27
          },
          {
            "time": 211.43086415625,
            "midi": 38,
            "name": "D2",
            "velocity": 1,
            "duration": 0.11094656250000412,
            "ticks": 57171,
            "durationTicks": 30
          },
          {
            "time": 211.60468043750004,
            "midi": 38,
            "name": "D2",
            "velocity": 1,
            "duration": 0.10724834374997272,
            "ticks": 57218,
            "durationTicks": 29
          },
          {
            "time": 211.78959137500001,
            "midi": 38,
            "name": "D2",
            "velocity": 1,
            "duration": 0.11464478125003552,
            "ticks": 57268,
            "durationTicks": 31
          },
          {
            "time": 211.96340765625,
            "midi": 38,
            "name": "D2",
            "velocity": 1,
            "duration": 0.10724834375002956,
            "ticks": 57315,
            "durationTicks": 29
          },
          {
            "time": 212.15201681250002,
            "midi": 33,
            "name": "A1",
            "velocity": 1,
            "duration": 0.11464478124997868,
            "ticks": 57366,
            "durationTicks": 31
          },
          {
            "time": 212.31843665625001,
            "midi": 33,
            "name": "A1",
            "velocity": 1,
            "duration": 0.12573943749998762,
            "ticks": 57411,
            "durationTicks": 34
          },
          {
            "time": 212.49964937500002,
            "midi": 33,
            "name": "A1",
            "velocity": 1,
            "duration": 0.2551770937499782,
            "ticks": 57460,
            "durationTicks": 69
          },
          {
            "time": 212.85467837500002,
            "midi": 33,
            "name": "A1",
            "velocity": 1,
            "duration": 0.2773664062499961,
            "ticks": 57556,
            "durationTicks": 75
          },
          {
            "time": 213.21340559375002,
            "midi": 33,
            "name": "A1",
            "velocity": 1,
            "duration": 0.2773664062500245,
            "ticks": 57653,
            "durationTicks": 75
          },
          {
            "time": 213.57583103125,
            "midi": 32,
            "name": "G#1",
            "velocity": 1,
            "duration": 0.2477806562500291,
            "ticks": 57751,
            "durationTicks": 67
          },
          {
            "time": 213.92716181250003,
            "midi": 32,
            "name": "G#1",
            "velocity": 1,
            "duration": 0.28106462499997065,
            "ticks": 57846,
            "durationTicks": 76
          },
          {
            "time": 214.28219081250003,
            "midi": 32,
            "name": "G#1",
            "velocity": 1,
            "duration": 0.26627174999998715,
            "ticks": 57942,
            "durationTicks": 72
          },
          {
            "time": 214.63721981250004,
            "midi": 32,
            "name": "G#1",
            "velocity": 1,
            "duration": 0.28476284375000205,
            "ticks": 58038,
            "durationTicks": 77
          },
          {
            "time": 214.99964525000004,
            "midi": 30,
            "name": "F#1",
            "velocity": 1,
            "duration": 0.24778065624997225,
            "ticks": 58136,
            "durationTicks": 67
          },
          {
            "time": 215.35097603125,
            "midi": 30,
            "name": "F#1",
            "velocity": 1,
            "duration": 0.27366818750002153,
            "ticks": 58231,
            "durationTicks": 74
          },
          {
            "time": 215.70600503125002,
            "midi": 30,
            "name": "F#1",
            "velocity": 1,
            "duration": 0.288461062500005,
            "ticks": 58327,
            "durationTicks": 78
          },
          {
            "time": 216.06473225000005,
            "midi": 30,
            "name": "F#1",
            "velocity": 1,
            "duration": 0.2773664062499961,
            "ticks": 58424,
            "durationTicks": 75
          },
          {
            "time": 216.41976125000005,
            "midi": 38,
            "name": "D2",
            "velocity": 1,
            "duration": 0.1109465624999757,
            "ticks": 58520,
            "durationTicks": 30
          },
          {
            "time": 216.59357753125002,
            "midi": 38,
            "name": "D2",
            "velocity": 1,
            "duration": 0.09985190624999518,
            "ticks": 58567,
            "durationTicks": 27
          },
          {
            "time": 216.77479025000002,
            "midi": 38,
            "name": "D2",
            "velocity": 1,
            "duration": 0.08875725000001466,
            "ticks": 58616,
            "durationTicks": 24
          },
          {
            "time": 216.94860653125002,
            "midi": 38,
            "name": "D2",
            "velocity": 1,
            "duration": 0.0961536874999922,
            "ticks": 58663,
            "durationTicks": 26
          },
          {
            "time": 217.12981925000003,
            "midi": 38,
            "name": "D2",
            "velocity": 1,
            "duration": 0.0998519062500236,
            "ticks": 58712,
            "durationTicks": 27
          },
          {
            "time": 217.31103196875003,
            "midi": 38,
            "name": "D2",
            "velocity": 1,
            "duration": 0.10355012499996974,
            "ticks": 58761,
            "durationTicks": 28
          },
          {
            "time": 217.48854646875003,
            "midi": 38,
            "name": "D2",
            "velocity": 1,
            "duration": 0.08505903125001169,
            "ticks": 58809,
            "durationTicks": 23
          },
          {
            "time": 217.66236275000003,
            "midi": 38,
            "name": "D2",
            "velocity": 1,
            "duration": 0.09245546874998922,
            "ticks": 58856,
            "durationTicks": 25
          },
          {
            "time": 217.854670125,
            "midi": 33,
            "name": "A1",
            "velocity": 1,
            "duration": 0.1146447812500071,
            "ticks": 58908,
            "durationTicks": 31
          },
          {
            "time": 218.01739175000003,
            "midi": 33,
            "name": "A1",
            "velocity": 1,
            "duration": 0.10724834374997272,
            "ticks": 58952,
            "durationTicks": 29
          },
          {
            "time": 218.19860446875003,
            "midi": 33,
            "name": "A1",
            "velocity": 1,
            "duration": 0.2588753124999812,
            "ticks": 59001,
            "durationTicks": 70
          },
          {
            "time": 218.55363346875004,
            "midi": 33,
            "name": "A1",
            "velocity": 1,
            "duration": 0.24778065624997225,
            "ticks": 59097,
            "durationTicks": 67
          },
          {
            "time": 218.91975712500002,
            "midi": 33,
            "name": "A1",
            "velocity": 1,
            "duration": 0.23298778125001718,
            "ticks": 59196,
            "durationTicks": 63
          },
          {
            "time": 219.27478612500002,
            "midi": 32,
            "name": "G#1",
            "velocity": 1,
            "duration": 0.23668599999999174,
            "ticks": 59292,
            "durationTicks": 64
          },
          {
            "time": 219.62611690625005,
            "midi": 32,
            "name": "G#1",
            "velocity": 1,
            "duration": 0.26996996874999013,
            "ticks": 59387,
            "durationTicks": 73
          },
          {
            "time": 219.97744768750002,
            "midi": 32,
            "name": "G#1",
            "velocity": 1,
            "duration": 0.25147887500000365,
            "ticks": 59482,
            "durationTicks": 68
          },
          {
            "time": 220.33617490625005,
            "midi": 32,
            "name": "G#1",
            "velocity": 1,
            "duration": 0.2773664062499961,
            "ticks": 59579,
            "durationTicks": 75
          },
          {
            "time": 220.70229856250003,
            "midi": 30,
            "name": "F#1",
            "velocity": 1,
            "duration": 0.2588753124999812,
            "ticks": 59678,
            "durationTicks": 70
          },
          {
            "time": 221.04993112500003,
            "midi": 30,
            "name": "F#1",
            "velocity": 1,
            "duration": 0.25517709375000663,
            "ticks": 59772,
            "durationTicks": 69
          },
          {
            "time": 221.40126190625003,
            "midi": 30,
            "name": "F#1",
            "velocity": 1,
            "duration": 0.28106462499999907,
            "ticks": 59867,
            "durationTicks": 76
          },
          {
            "time": 221.76738556250004,
            "midi": 30,
            "name": "F#1",
            "velocity": 1,
            "duration": 0.3217450312500034,
            "ticks": 59966,
            "durationTicks": 87
          },
          {
            "time": 222.11501812500003,
            "midi": 38,
            "name": "D2",
            "velocity": 1,
            "duration": 0.10355012499996974,
            "ticks": 60060,
            "durationTicks": 28
          },
          {
            "time": 222.28883440625003,
            "midi": 38,
            "name": "D2",
            "velocity": 1,
            "duration": 0.08875725000001466,
            "ticks": 60107,
            "durationTicks": 24
          },
          {
            "time": 222.47374534375,
            "midi": 38,
            "name": "D2",
            "velocity": 1,
            "duration": 0.08505903125001169,
            "ticks": 60157,
            "durationTicks": 23
          },
          {
            "time": 222.64756162500004,
            "midi": 38,
            "name": "D2",
            "velocity": 1,
            "duration": 0.09985190624999518,
            "ticks": 60204,
            "durationTicks": 27
          },
          {
            "time": 222.82877434375,
            "midi": 38,
            "name": "D2",
            "velocity": 1,
            "duration": 0.10724834375000114,
            "ticks": 60253,
            "durationTicks": 29
          },
          {
            "time": 223.002590625,
            "midi": 38,
            "name": "D2",
            "velocity": 1,
            "duration": 0.10355012499999816,
            "ticks": 60300,
            "durationTicks": 28
          },
          {
            "time": 223.18380334375001,
            "midi": 38,
            "name": "D2",
            "velocity": 1,
            "duration": 0.11464478125003552,
            "ticks": 60349,
            "durationTicks": 31
          },
          {
            "time": 223.357619625,
            "midi": 38,
            "name": "D2",
            "velocity": 1,
            "duration": 0.11094656250000412,
            "ticks": 60396,
            "durationTicks": 30
          }
        ],
        "controlChanges": {
          "7": [
            {
              "number": 7,
              "value": 0.9448818897637795,
              "time": 0,
              "ticks": 0
            },
            {
              "number": 7,
              "value": 0.7795275590551181,
              "time": 213.39831653125,
              "ticks": 57703
            },
            {
              "number": 7,
              "value": 0.7716535433070866,
              "time": 213.47967734375004,
              "ticks": 57725
            },
            {
              "number": 7,
              "value": 0.7637795275590551,
              "time": 213.58322746875,
              "ticks": 57753
            },
            {
              "number": 7,
              "value": 0.7559055118110236,
              "time": 213.69417403125001,
              "ticks": 57783
            },
            {
              "number": 7,
              "value": 0.7480314960629921,
              "time": 213.73485443750005,
              "ticks": 57794
            },
            {
              "number": 7,
              "value": 0.7401574803149606,
              "time": 213.80142237500004,
              "ticks": 57812
            },
            {
              "number": 7,
              "value": 0.7322834645669292,
              "time": 213.96044578125003,
              "ticks": 57855
            },
            {
              "number": 7,
              "value": 0.7244094488188977,
              "time": 214.08248700000001,
              "ticks": 57888
            },
            {
              "number": 7,
              "value": 0.7165354330708661,
              "time": 214.186037125,
              "ticks": 57916
            },
            {
              "number": 7,
              "value": 0.7086614173228346,
              "time": 214.4301195625,
              "ticks": 57982
            },
            {
              "number": 7,
              "value": 0.7007874015748031,
              "time": 214.60393584375004,
              "ticks": 58029
            },
            {
              "number": 7,
              "value": 0.6929133858267716,
              "time": 214.748166375,
              "ticks": 58068
            },
            {
              "number": 7,
              "value": 0.6850393700787402,
              "time": 214.81473431250004,
              "ticks": 58086
            },
            {
              "number": 7,
              "value": 0.6771653543307087,
              "time": 214.99224881250004,
              "ticks": 58134
            },
            {
              "number": 7,
              "value": 0.6692913385826772,
              "time": 215.04032565625002,
              "ticks": 58147
            },
            {
              "number": 7,
              "value": 0.6614173228346457,
              "time": 215.0957989375,
              "ticks": 58162
            },
            {
              "number": 7,
              "value": 0.6535433070866141,
              "time": 215.12538468750003,
              "ticks": 58170
            },
            {
              "number": 7,
              "value": 0.6456692913385826,
              "time": 215.2067455,
              "ticks": 58192
            },
            {
              "number": 7,
              "value": 0.6377952755905512,
              "time": 215.39165643750002,
              "ticks": 58242
            },
            {
              "number": 7,
              "value": 0.6299212598425197,
              "time": 215.49890478125005,
              "ticks": 58271
            },
            {
              "number": 7,
              "value": 0.6220472440944882,
              "time": 215.59136025000004,
              "ticks": 58296
            },
            {
              "number": 7,
              "value": 0.6141732283464567,
              "time": 215.75408187500003,
              "ticks": 58340
            },
            {
              "number": 7,
              "value": 0.6062992125984252,
              "time": 215.85763200000002,
              "ticks": 58368
            },
            {
              "number": 7,
              "value": 0.5984251968503937,
              "time": 215.91310528125,
              "ticks": 58383
            },
            {
              "number": 7,
              "value": 0.5905511811023622,
              "time": 216.049939375,
              "ticks": 58420
            },
            {
              "number": 7,
              "value": 0.5826771653543307,
              "time": 216.13869662500002,
              "ticks": 58444
            },
            {
              "number": 7,
              "value": 0.5748031496062992,
              "time": 216.19416990625,
              "ticks": 58459
            },
            {
              "number": 7,
              "value": 0.5669291338582677,
              "time": 216.2496431875,
              "ticks": 58474
            },
            {
              "number": 7,
              "value": 0.5590551181102362,
              "time": 216.33100400000004,
              "ticks": 58496
            },
            {
              "number": 7,
              "value": 0.5511811023622047,
              "time": 216.40866659375004,
              "ticks": 58517
            },
            {
              "number": 7,
              "value": 0.5433070866141733,
              "time": 216.52331137500002,
              "ticks": 58548
            },
            {
              "number": 7,
              "value": 0.5354330708661418,
              "time": 216.56029356250002,
              "ticks": 58558
            },
            {
              "number": 7,
              "value": 0.5275590551181102,
              "time": 216.60097396875003,
              "ticks": 58569
            },
            {
              "number": 7,
              "value": 0.5196850393700787,
              "time": 216.61576684375,
              "ticks": 58573
            },
            {
              "number": 7,
              "value": 0.5118110236220472,
              "time": 216.65644725,
              "ticks": 58584
            },
            {
              "number": 7,
              "value": 0.5039370078740157,
              "time": 216.76369559375004,
              "ticks": 58613
            },
            {
              "number": 7,
              "value": 0.49606299212598426,
              "time": 216.81916887500003,
              "ticks": 58628
            },
            {
              "number": 7,
              "value": 0.4881889763779528,
              "time": 216.99298515625,
              "ticks": 58675
            },
            {
              "number": 7,
              "value": 0.48031496062992124,
              "time": 217.22967115625005,
              "ticks": 58739
            },
            {
              "number": 7,
              "value": 0.47244094488188976,
              "time": 217.31103196875003,
              "ticks": 58761
            },
            {
              "number": 7,
              "value": 0.4645669291338583,
              "time": 217.4330731875,
              "ticks": 58794
            },
            {
              "number": 7,
              "value": 0.4566929133858268,
              "time": 217.55141618750002,
              "ticks": 58826
            },
            {
              "number": 7,
              "value": 0.44881889763779526,
              "time": 217.71043959375,
              "ticks": 58869
            },
            {
              "number": 7,
              "value": 0.4409448818897638,
              "time": 217.854670125,
              "ticks": 58908
            },
            {
              "number": 7,
              "value": 0.4330708661417323,
              "time": 217.95082381250003,
              "ticks": 58934
            },
            {
              "number": 7,
              "value": 0.4251968503937008,
              "time": 218.00629709375005,
              "ticks": 58949
            },
            {
              "number": 7,
              "value": 0.41732283464566927,
              "time": 218.08765790625003,
              "ticks": 58971
            },
            {
              "number": 7,
              "value": 0.4094488188976378,
              "time": 218.29845637500003,
              "ticks": 59028
            },
            {
              "number": 7,
              "value": 0.4015748031496063,
              "time": 218.4020065,
              "ticks": 59056
            },
            {
              "number": 7,
              "value": 0.3937007874015748,
              "time": 218.50185840625002,
              "ticks": 59083
            },
            {
              "number": 7,
              "value": 0.3858267716535433,
              "time": 218.53884059375002,
              "ticks": 59093
            },
            {
              "number": 7,
              "value": 0.3779527559055118,
              "time": 218.60910675000002,
              "ticks": 59112
            },
            {
              "number": 7,
              "value": 0.3700787401574803,
              "time": 218.76813015625,
              "ticks": 59155
            },
            {
              "number": 7,
              "value": 0.36220472440944884,
              "time": 218.83469809375,
              "ticks": 59173
            },
            {
              "number": 7,
              "value": 0.3543307086614173,
              "time": 218.91605890625004,
              "ticks": 59195
            },
            {
              "number": 7,
              "value": 0.3464566929133858,
              "time": 218.98262684375004,
              "ticks": 59213
            },
            {
              "number": 7,
              "value": 0.33858267716535434,
              "time": 219.03440190625,
              "ticks": 59227
            },
            {
              "number": 7,
              "value": 0.33070866141732286,
              "time": 219.18602887500003,
              "ticks": 59268
            },
            {
              "number": 7,
              "value": 0.3228346456692913,
              "time": 219.22670928125004,
              "ticks": 59279
            },
            {
              "number": 7,
              "value": 0.31496062992125984,
              "time": 219.26369146875,
              "ticks": 59289
            },
            {
              "number": 7,
              "value": 0.30708661417322836,
              "time": 219.3561469375,
              "ticks": 59314
            },
            {
              "number": 7,
              "value": 0.2992125984251969,
              "time": 219.41531843750005,
              "ticks": 59330
            },
            {
              "number": 7,
              "value": 0.29133858267716534,
              "time": 219.45599884375002,
              "ticks": 59341
            },
            {
              "number": 7,
              "value": 0.28346456692913385,
              "time": 219.52256678125002,
              "ticks": 59359
            },
            {
              "number": 7,
              "value": 0.2755905511811024,
              "time": 219.69268484375004,
              "ticks": 59405
            },
            {
              "number": 7,
              "value": 0.2677165354330709,
              "time": 219.76295100000002,
              "ticks": 59424
            },
            {
              "number": 7,
              "value": 0.25984251968503935,
              "time": 219.85540646875,
              "ticks": 59449
            },
            {
              "number": 7,
              "value": 0.25196850393700787,
              "time": 219.94786193750005,
              "ticks": 59474
            },
            {
              "number": 7,
              "value": 0.2440944881889764,
              "time": 220.04401562500001,
              "ticks": 59500
            },
            {
              "number": 7,
              "value": 0.23622047244094488,
              "time": 220.14756575000004,
              "ticks": 59528
            },
            {
              "number": 7,
              "value": 0.2283464566929134,
              "time": 220.25481409375,
              "ticks": 59557
            },
            {
              "number": 7,
              "value": 0.2204724409448819,
              "time": 220.29919271875002,
              "ticks": 59569
            },
            {
              "number": 7,
              "value": 0.2125984251968504,
              "time": 220.428630375,
              "ticks": 59604
            },
            {
              "number": 7,
              "value": 0.2047244094488189,
              "time": 220.49889653125,
              "ticks": 59623
            },
            {
              "number": 7,
              "value": 0.1968503937007874,
              "time": 220.5543698125,
              "ticks": 59638
            },
            {
              "number": 7,
              "value": 0.1889763779527559,
              "time": 220.58025734375005,
              "ticks": 59645
            },
            {
              "number": 7,
              "value": 0.18110236220472442,
              "time": 220.66901459375003,
              "ticks": 59669
            },
            {
              "number": 7,
              "value": 0.1732283464566929,
              "time": 220.70229856250003,
              "ticks": 59678
            },
            {
              "number": 7,
              "value": 0.16535433070866143,
              "time": 220.73928075000003,
              "ticks": 59688
            },
            {
              "number": 7,
              "value": 0.15748031496062992,
              "time": 220.76886650000003,
              "ticks": 59696
            },
            {
              "number": 7,
              "value": 0.14960629921259844,
              "time": 220.80954690625,
              "ticks": 59707
            },
            {
              "number": 7,
              "value": 0.14173228346456693,
              "time": 220.83543443750003,
              "ticks": 59714
            },
            {
              "number": 7,
              "value": 0.13385826771653545,
              "time": 220.86502018750002,
              "ticks": 59722
            },
            {
              "number": 7,
              "value": 0.12598425196850394,
              "time": 220.9537774375,
              "ticks": 59746
            },
            {
              "number": 7,
              "value": 0.11811023622047244,
              "time": 221.0277418125,
              "ticks": 59766
            },
            {
              "number": 7,
              "value": 0.11023622047244094,
              "time": 221.09061153125003,
              "ticks": 59783
            },
            {
              "number": 7,
              "value": 0.10236220472440945,
              "time": 221.1312919375,
              "ticks": 59794
            },
            {
              "number": 7,
              "value": 0.09448818897637795,
              "time": 221.18676521875,
              "ticks": 59809
            },
            {
              "number": 7,
              "value": 0.08661417322834646,
              "time": 221.3088064375,
              "ticks": 59842
            },
            {
              "number": 7,
              "value": 0.07874015748031496,
              "time": 221.35318506250002,
              "ticks": 59854
            },
            {
              "number": 7,
              "value": 0.07086614173228346,
              "time": 221.375374375,
              "ticks": 59860
            },
            {
              "number": 7,
              "value": 0.06299212598425197,
              "time": 221.50851025,
              "ticks": 59896
            },
            {
              "number": 7,
              "value": 0.05511811023622047,
              "time": 221.52330312500004,
              "ticks": 59900
            },
            {
              "number": 7,
              "value": 0.047244094488188976,
              "time": 221.53809600000002,
              "ticks": 59904
            },
            {
              "number": 7,
              "value": 0.03937007874015748,
              "time": 221.552888875,
              "ticks": 59908
            },
            {
              "number": 7,
              "value": 0.031496062992125984,
              "time": 221.57877640625003,
              "ticks": 59915
            },
            {
              "number": 7,
              "value": 0.023622047244094488,
              "time": 221.60836215625002,
              "ticks": 59923
            },
            {
              "number": 7,
              "value": 0.015748031496062992,
              "time": 221.76738556250004,
              "ticks": 59966
            },
            {
              "number": 7,
              "value": 0.007874015748031496,
              "time": 221.82285884375003,
              "ticks": 59981
            },
            {
              "number": 7,
              "value": 0,
              "time": 221.86353925,
              "ticks": 59992
            },
            {
              "number": 7,
              "value": 0.7795275590551181,
              "time": 223.54622878125002,
              "ticks": 60447
            }
          ],
          "10": [
            {
              "number": 10,
              "value": 0.47244094488188976,
              "time": 0,
              "ticks": 0
            }
          ],
          "64": [
            {
              "number": 64,
              "value": 0,
              "time": 224.79992493750004,
              "ticks": 60786
            }
          ]
        }
      },
      {
        "name": "Elec Guitar 1       ",
        "channel": 0,
        "instrument": {
          "number": 27,
          "name": "electric guitar (clean)",
          "family": "guitar"
        },
        "notes": [
          {
            "time": 7.0155209687500015,
            "midi": 78,
            "name": "F#5",
            "velocity": 1,
            "duration": 5.680463999999999,
            "ticks": 1897,
            "durationTicks": 1536
          },
          {
            "time": 7.0414085,
            "midi": 83,
            "name": "B5",
            "velocity": 1,
            "duration": 5.65457646875,
            "ticks": 1904,
            "durationTicks": 1529
          },
          {
            "time": 7.070994250000001,
            "midi": 74,
            "name": "D5",
            "velocity": 1,
            "duration": 5.6249907187499995,
            "ticks": 1912,
            "durationTicks": 1521
          },
          {
            "time": 7.104278218750001,
            "midi": 86,
            "name": "D6",
            "velocity": 1,
            "duration": 5.591706749999999,
            "ticks": 1921,
            "durationTicks": 1512
          },
          {
            "time": 7.126467531250001,
            "midi": 90,
            "name": "F#6",
            "velocity": 1,
            "duration": 5.569517437499999,
            "ticks": 1927,
            "durationTicks": 1506
          },
          {
            "time": 9.86314940625,
            "midi": 73,
            "name": "C#5",
            "velocity": 1,
            "duration": 1.0576905625000013,
            "ticks": 2667,
            "durationTicks": 286
          },
          {
            "time": 10.395692906250002,
            "midi": 69,
            "name": "A4",
            "velocity": 1,
            "duration": 2.3002920624999987,
            "ticks": 2811,
            "durationTicks": 622
          },
          {
            "time": 15.562104500000002,
            "midi": 61,
            "name": "C#4",
            "velocity": 1,
            "duration": 0.5140524062500003,
            "ticks": 4208,
            "durationTicks": 139
          },
          {
            "time": 16.09094978125,
            "midi": 73,
            "name": "C#5",
            "velocity": 1,
            "duration": 0.5103541875000026,
            "ticks": 4351,
            "durationTicks": 138
          },
          {
            "time": 16.63088971875,
            "midi": 69,
            "name": "A4",
            "velocity": 1,
            "duration": 1.5532518750000008,
            "ticks": 4497,
            "durationTicks": 420
          },
          {
            "time": 18.417129375000002,
            "midi": 78,
            "name": "F#5",
            "velocity": 1,
            "duration": 0.07766259374999862,
            "ticks": 4980,
            "durationTicks": 21
          },
          {
            "time": 18.5872474375,
            "midi": 78,
            "name": "F#5",
            "velocity": 1,
            "duration": 0.10724834375000114,
            "ticks": 5026,
            "durationTicks": 29
          },
          {
            "time": 18.768460156250004,
            "midi": 74,
            "name": "D5",
            "velocity": 1,
            "duration": 0.10724834374999759,
            "ticks": 5075,
            "durationTicks": 29
          },
          {
            "time": 18.94597465625,
            "midi": 71,
            "name": "B4",
            "velocity": 1,
            "duration": 0.09615368749999931,
            "ticks": 5123,
            "durationTicks": 26
          },
          {
            "time": 19.301003656250003,
            "midi": 71,
            "name": "B4",
            "velocity": 1,
            "duration": 0.11094656250000057,
            "ticks": 5219,
            "durationTicks": 30
          },
          {
            "time": 19.65603265625,
            "midi": 76,
            "name": "E5",
            "velocity": 1,
            "duration": 0.09615368749999931,
            "ticks": 5315,
            "durationTicks": 26
          },
          {
            "time": 20.011061656250003,
            "midi": 76,
            "name": "E5",
            "velocity": 1,
            "duration": 0.10724834374999759,
            "ticks": 5411,
            "durationTicks": 29
          },
          {
            "time": 20.36609065625,
            "midi": 76,
            "name": "E5",
            "velocity": 1,
            "duration": 0.11464478125,
            "ticks": 5507,
            "durationTicks": 31
          },
          {
            "time": 20.55100159375,
            "midi": 80,
            "name": "G#5",
            "velocity": 1,
            "duration": 0.08505903125000103,
            "ticks": 5557,
            "durationTicks": 23
          },
          {
            "time": 20.724817875000003,
            "midi": 80,
            "name": "G#5",
            "velocity": 1,
            "duration": 0.09615368749999931,
            "ticks": 5604,
            "durationTicks": 26
          },
          {
            "time": 20.90603059375,
            "midi": 81,
            "name": "A5",
            "velocity": 1,
            "duration": 0.09985190625000229,
            "ticks": 5653,
            "durationTicks": 27
          },
          {
            "time": 21.079846875,
            "midi": 83,
            "name": "B5",
            "velocity": 1,
            "duration": 0.11094656250000057,
            "ticks": 5700,
            "durationTicks": 30
          },
          {
            "time": 21.264757812500005,
            "midi": 81,
            "name": "A5",
            "velocity": 1,
            "duration": 0.08505903124999747,
            "ticks": 5750,
            "durationTicks": 23
          },
          {
            "time": 21.434875875000003,
            "midi": 81,
            "name": "A5",
            "velocity": 1,
            "duration": 0.09985190624999873,
            "ticks": 5796,
            "durationTicks": 27
          },
          {
            "time": 21.61608859375,
            "midi": 81,
            "name": "A5",
            "velocity": 1,
            "duration": 0.08875725000000045,
            "ticks": 5845,
            "durationTicks": 24
          },
          {
            "time": 21.79360309375,
            "midi": 76,
            "name": "E5",
            "velocity": 1,
            "duration": 0.09615368750000286,
            "ticks": 5893,
            "durationTicks": 26
          },
          {
            "time": 22.148632093750003,
            "midi": 74,
            "name": "D5",
            "velocity": 1,
            "duration": 0.08505903125000103,
            "ticks": 5989,
            "durationTicks": 23
          },
          {
            "time": 22.50366109375,
            "midi": 78,
            "name": "F#5",
            "velocity": 1,
            "duration": 0.09615368750000286,
            "ticks": 6085,
            "durationTicks": 26
          },
          {
            "time": 22.858690093750003,
            "midi": 78,
            "name": "F#5",
            "velocity": 1,
            "duration": 0.09985190625000229,
            "ticks": 6181,
            "durationTicks": 27
          },
          {
            "time": 23.2174173125,
            "midi": 78,
            "name": "F#5",
            "velocity": 1,
            "duration": 0.09615368750000286,
            "ticks": 6278,
            "durationTicks": 26
          },
          {
            "time": 23.398630031250004,
            "midi": 76,
            "name": "E5",
            "velocity": 1,
            "duration": 0.09985190624999873,
            "ticks": 6327,
            "durationTicks": 27
          },
          {
            "time": 23.57614453125,
            "midi": 76,
            "name": "E5",
            "velocity": 1,
            "duration": 0.09985190625000229,
            "ticks": 6375,
            "durationTicks": 27
          },
          {
            "time": 23.753659031250002,
            "midi": 78,
            "name": "F#5",
            "velocity": 1,
            "duration": 0.08505903124999747,
            "ticks": 6423,
            "durationTicks": 23
          },
          {
            "time": 23.9274753125,
            "midi": 76,
            "name": "E5",
            "velocity": 1,
            "duration": 0.10355012500000171,
            "ticks": 6470,
            "durationTicks": 28
          },
          {
            "time": 24.112386250000004,
            "midi": 78,
            "name": "F#5",
            "velocity": 1,
            "duration": 0.08505903124999747,
            "ticks": 6520,
            "durationTicks": 23
          },
          {
            "time": 24.28620253125,
            "midi": 78,
            "name": "F#5",
            "velocity": 1,
            "duration": 0.09615368749999931,
            "ticks": 6567,
            "durationTicks": 26
          },
          {
            "time": 24.467415250000005,
            "midi": 74,
            "name": "D5",
            "velocity": 1,
            "duration": 0.09615368749999575,
            "ticks": 6616,
            "durationTicks": 26
          },
          {
            "time": 24.641231531250003,
            "midi": 71,
            "name": "B4",
            "velocity": 1,
            "duration": 0.0813608125000016,
            "ticks": 6663,
            "durationTicks": 22
          },
          {
            "time": 24.999958750000005,
            "midi": 71,
            "name": "B4",
            "velocity": 1,
            "duration": 0.09985190624999873,
            "ticks": 6760,
            "durationTicks": 27
          },
          {
            "time": 25.354987750000003,
            "midi": 76,
            "name": "E5",
            "velocity": 1,
            "duration": 0.10724834375000114,
            "ticks": 6856,
            "durationTicks": 29
          },
          {
            "time": 25.710016750000005,
            "midi": 76,
            "name": "E5",
            "velocity": 1,
            "duration": 0.11834299999999942,
            "ticks": 6952,
            "durationTicks": 32
          },
          {
            "time": 26.065045750000003,
            "midi": 76,
            "name": "E5",
            "velocity": 1,
            "duration": 0.10724834375000114,
            "ticks": 7048,
            "durationTicks": 29
          },
          {
            "time": 26.249956687500003,
            "midi": 80,
            "name": "G#5",
            "velocity": 1,
            "duration": 0.08875725000000045,
            "ticks": 7098,
            "durationTicks": 24
          },
          {
            "time": 26.42377296875,
            "midi": 80,
            "name": "G#5",
            "velocity": 1,
            "duration": 0.08875725000000045,
            "ticks": 7145,
            "durationTicks": 24
          },
          {
            "time": 26.604985687500005,
            "midi": 81,
            "name": "A5",
            "velocity": 1,
            "duration": 0.08505903124999747,
            "ticks": 7194,
            "durationTicks": 23
          },
          {
            "time": 26.778801968750003,
            "midi": 83,
            "name": "B5",
            "velocity": 1,
            "duration": 0.09615368750000286,
            "ticks": 7241,
            "durationTicks": 26
          },
          {
            "time": 26.963712906250006,
            "midi": 81,
            "name": "A5",
            "velocity": 1,
            "duration": 0.07026615624999621,
            "ticks": 7291,
            "durationTicks": 19
          },
          {
            "time": 27.13383096875,
            "midi": 81,
            "name": "A5",
            "velocity": 1,
            "duration": 0.08875725000000045,
            "ticks": 7337,
            "durationTicks": 24
          },
          {
            "time": 27.315043687500005,
            "midi": 81,
            "name": "A5",
            "velocity": 1,
            "duration": 0.06656793749999679,
            "ticks": 7386,
            "durationTicks": 18
          },
          {
            "time": 27.488859968750003,
            "midi": 76,
            "name": "E5",
            "velocity": 1,
            "duration": 0.07766259374999862,
            "ticks": 7433,
            "durationTicks": 21
          },
          {
            "time": 27.847587187500004,
            "midi": 74,
            "name": "D5",
            "velocity": 1,
            "duration": 0.06656793750000034,
            "ticks": 7530,
            "durationTicks": 18
          },
          {
            "time": 28.202616187500002,
            "midi": 78,
            "name": "F#5",
            "velocity": 1,
            "duration": 0.08505903125000103,
            "ticks": 7626,
            "durationTicks": 23
          },
          {
            "time": 28.557645187500004,
            "midi": 78,
            "name": "F#5",
            "velocity": 1,
            "duration": 0.09245546874999988,
            "ticks": 7722,
            "durationTicks": 25
          },
          {
            "time": 28.916372406250005,
            "midi": 78,
            "name": "F#5",
            "velocity": 1,
            "duration": 0.09615368749999931,
            "ticks": 7819,
            "durationTicks": 26
          },
          {
            "time": 29.097585125000002,
            "midi": 76,
            "name": "E5",
            "velocity": 1,
            "duration": 0.08505903125000458,
            "ticks": 7868,
            "durationTicks": 23
          },
          {
            "time": 29.271401406250003,
            "midi": 76,
            "name": "E5",
            "velocity": 1,
            "duration": 0.11094656250000057,
            "ticks": 7915,
            "durationTicks": 30
          },
          {
            "time": 29.452614125,
            "midi": 78,
            "name": "F#5",
            "velocity": 1,
            "duration": 0.09245546875000343,
            "ticks": 7964,
            "durationTicks": 25
          },
          {
            "time": 29.626430406250005,
            "midi": 76,
            "name": "E5",
            "velocity": 1,
            "duration": 0.10355012499999461,
            "ticks": 8011,
            "durationTicks": 28
          },
          {
            "time": 29.815039562500004,
            "midi": 78,
            "name": "F#5",
            "velocity": 1,
            "duration": 0.0739643749999992,
            "ticks": 8062,
            "durationTicks": 20
          },
          {
            "time": 29.981459406250003,
            "midi": 78,
            "name": "F#5",
            "velocity": 1,
            "duration": 0.11464478124999644,
            "ticks": 8107,
            "durationTicks": 31
          },
          {
            "time": 30.166370343750003,
            "midi": 74,
            "name": "D5",
            "velocity": 1,
            "duration": 0.10355012500000171,
            "ticks": 8157,
            "durationTicks": 28
          },
          {
            "time": 30.340186625,
            "midi": 71,
            "name": "B4",
            "velocity": 1,
            "duration": 0.09615368750000286,
            "ticks": 8204,
            "durationTicks": 26
          },
          {
            "time": 30.695215625000003,
            "midi": 71,
            "name": "B4",
            "velocity": 1,
            "duration": 0.11094656249999701,
            "ticks": 8300,
            "durationTicks": 30
          },
          {
            "time": 31.050244625,
            "midi": 76,
            "name": "E5",
            "velocity": 1,
            "duration": 0.09985190624999873,
            "ticks": 8396,
            "durationTicks": 27
          },
          {
            "time": 31.408971843750003,
            "midi": 76,
            "name": "E5",
            "velocity": 1,
            "duration": 0.11094656250000057,
            "ticks": 8493,
            "durationTicks": 30
          },
          {
            "time": 31.764000843750004,
            "midi": 76,
            "name": "E5",
            "velocity": 1,
            "duration": 0.11094656250000057,
            "ticks": 8589,
            "durationTicks": 30
          },
          {
            "time": 31.945213562500005,
            "midi": 80,
            "name": "G#5",
            "velocity": 1,
            "duration": 0.088757250000004,
            "ticks": 8638,
            "durationTicks": 24
          },
          {
            "time": 32.1227280625,
            "midi": 80,
            "name": "G#5",
            "velocity": 1,
            "duration": 0.09245546874999633,
            "ticks": 8686,
            "durationTicks": 25
          },
          {
            "time": 32.3002425625,
            "midi": 81,
            "name": "A5",
            "velocity": 1,
            "duration": 0.10355012499999816,
            "ticks": 8734,
            "durationTicks": 28
          },
          {
            "time": 32.47405884375,
            "midi": 83,
            "name": "B5",
            "velocity": 1,
            "duration": 0.1146447812500071,
            "ticks": 8781,
            "durationTicks": 31
          },
          {
            "time": 32.662668000000004,
            "midi": 81,
            "name": "A5",
            "velocity": 1,
            "duration": 0.0813608125000016,
            "ticks": 8832,
            "durationTicks": 22
          },
          {
            "time": 32.832786062500006,
            "midi": 81,
            "name": "A5",
            "velocity": 1,
            "duration": 0.09615368749999931,
            "ticks": 8878,
            "durationTicks": 26
          },
          {
            "time": 33.01399878125,
            "midi": 81,
            "name": "A5",
            "velocity": 1,
            "duration": 0.08505903125000458,
            "ticks": 8927,
            "durationTicks": 23
          },
          {
            "time": 33.18781506250001,
            "midi": 78,
            "name": "F#5",
            "velocity": 1,
            "duration": 0.09615368749999931,
            "ticks": 8974,
            "durationTicks": 26
          },
          {
            "time": 33.546542281250005,
            "midi": 74,
            "name": "D5",
            "velocity": 1,
            "duration": 0.08505903124999747,
            "ticks": 9071,
            "durationTicks": 23
          },
          {
            "time": 33.90157128125,
            "midi": 78,
            "name": "F#5",
            "velocity": 1,
            "duration": 0.09615368750000641,
            "ticks": 9167,
            "durationTicks": 26
          },
          {
            "time": 34.25660028125,
            "midi": 78,
            "name": "F#5",
            "velocity": 1,
            "duration": 0.09615368750000641,
            "ticks": 9263,
            "durationTicks": 26
          },
          {
            "time": 34.61162928125,
            "midi": 78,
            "name": "F#5",
            "velocity": 1,
            "duration": 0.09615368749999931,
            "ticks": 9359,
            "durationTicks": 26
          },
          {
            "time": 34.79654021875,
            "midi": 76,
            "name": "E5",
            "velocity": 1,
            "duration": 0.09985190625000229,
            "ticks": 9409,
            "durationTicks": 27
          },
          {
            "time": 34.9703565,
            "midi": 76,
            "name": "E5",
            "velocity": 1,
            "duration": 0.09985190625000229,
            "ticks": 9456,
            "durationTicks": 27
          },
          {
            "time": 35.151569218750005,
            "midi": 76,
            "name": "E5",
            "velocity": 1,
            "duration": 0.08505903124999747,
            "ticks": 9505,
            "durationTicks": 23
          },
          {
            "time": 69.6966305625,
            "midi": 76,
            "name": "E5",
            "velocity": 1,
            "duration": 0.6989633437500089,
            "ticks": 18846,
            "durationTicks": 189
          },
          {
            "time": 69.7114234375,
            "midi": 73,
            "name": "C#5",
            "velocity": 1,
            "duration": 0.7063597812500007,
            "ticks": 18850,
            "durationTicks": 191
          },
          {
            "time": 69.73361275,
            "midi": 81,
            "name": "A5",
            "velocity": 1,
            "duration": 0.7026615625000119,
            "ticks": 18856,
            "durationTicks": 190
          },
          {
            "time": 69.75580206250001,
            "midi": 69,
            "name": "A4",
            "velocity": 1,
            "duration": 0.7063597812500007,
            "ticks": 18862,
            "durationTicks": 191
          },
          {
            "time": 71.11674656250001,
            "midi": 76,
            "name": "E5",
            "velocity": 1,
            "duration": 0.7026615624999977,
            "ticks": 19230,
            "durationTicks": 190
          },
          {
            "time": 71.13523765625001,
            "midi": 71,
            "name": "B4",
            "velocity": 1,
            "duration": 0.7063597812499864,
            "ticks": 19235,
            "durationTicks": 191
          },
          {
            "time": 71.15742696875002,
            "midi": 83,
            "name": "B5",
            "velocity": 1,
            "duration": 0.7026615624999977,
            "ticks": 19241,
            "durationTicks": 190
          },
          {
            "time": 71.17961628125,
            "midi": 80,
            "name": "G#5",
            "velocity": 1,
            "duration": 0.7063597812500007,
            "ticks": 19247,
            "durationTicks": 191
          },
          {
            "time": 72.54056078125001,
            "midi": 81,
            "name": "A5",
            "velocity": 1,
            "duration": 0.7063597812500007,
            "ticks": 19615,
            "durationTicks": 191
          },
          {
            "time": 72.55905187500001,
            "midi": 86,
            "name": "D6",
            "velocity": 1,
            "duration": 0.7063597812500007,
            "ticks": 19620,
            "durationTicks": 191
          },
          {
            "time": 72.58493940625,
            "midi": 74,
            "name": "D5",
            "velocity": 1,
            "duration": 0.6989633437500089,
            "ticks": 19627,
            "durationTicks": 189
          },
          {
            "time": 72.6034305,
            "midi": 78,
            "name": "F#5",
            "velocity": 1,
            "duration": 0.7063597812500149,
            "ticks": 19632,
            "durationTicks": 191
          },
          {
            "time": 73.96437500000002,
            "midi": 76,
            "name": "E5",
            "velocity": 1,
            "duration": 0.7063597812499864,
            "ticks": 20000,
            "durationTicks": 191
          },
          {
            "time": 73.98286609375,
            "midi": 83,
            "name": "B5",
            "velocity": 1,
            "duration": 0.7063597812500007,
            "ticks": 20005,
            "durationTicks": 191
          },
          {
            "time": 74.00875362500001,
            "midi": 88,
            "name": "E6",
            "velocity": 1,
            "duration": 0.7026615624999977,
            "ticks": 20012,
            "durationTicks": 190
          },
          {
            "time": 74.02724471875,
            "midi": 80,
            "name": "G#5",
            "velocity": 1,
            "duration": 0.7063597812500149,
            "ticks": 20017,
            "durationTicks": 191
          },
          {
            "time": 109.58191978125001,
            "midi": 76,
            "name": "E5",
            "velocity": 1,
            "duration": 0.6989633437500089,
            "ticks": 29631,
            "durationTicks": 189
          },
          {
            "time": 109.60041087500001,
            "midi": 73,
            "name": "C#5",
            "velocity": 1,
            "duration": 0.7026615624999977,
            "ticks": 29636,
            "durationTicks": 190
          },
          {
            "time": 109.61890196875002,
            "midi": 81,
            "name": "A5",
            "velocity": 1,
            "duration": 0.7063597812499864,
            "ticks": 29641,
            "durationTicks": 191
          },
          {
            "time": 109.6447895,
            "midi": 69,
            "name": "A4",
            "velocity": 1,
            "duration": 0.7026615625000119,
            "ticks": 29648,
            "durationTicks": 190
          },
          {
            "time": 111.00203578125002,
            "midi": 76,
            "name": "E5",
            "velocity": 1,
            "duration": 0.7063597812499864,
            "ticks": 30015,
            "durationTicks": 191
          },
          {
            "time": 111.02422509375002,
            "midi": 71,
            "name": "B4",
            "velocity": 1,
            "duration": 0.7026615624999977,
            "ticks": 30021,
            "durationTicks": 190
          },
          {
            "time": 111.0427161875,
            "midi": 83,
            "name": "B5",
            "velocity": 1,
            "duration": 0.7100580000000036,
            "ticks": 30026,
            "durationTicks": 192
          },
          {
            "time": 111.06860371875001,
            "midi": 80,
            "name": "G#5",
            "velocity": 1,
            "duration": 0.7026615625000119,
            "ticks": 30033,
            "durationTicks": 190
          },
          {
            "time": 112.42585000000003,
            "midi": 81,
            "name": "A5",
            "velocity": 1,
            "duration": 0.7063597812499864,
            "ticks": 30400,
            "durationTicks": 191
          },
          {
            "time": 112.44803931250001,
            "midi": 86,
            "name": "D6",
            "velocity": 1,
            "duration": 0.7026615624999977,
            "ticks": 30406,
            "durationTicks": 190
          },
          {
            "time": 112.47022862500002,
            "midi": 74,
            "name": "D5",
            "velocity": 1,
            "duration": 0.7063597812500007,
            "ticks": 30412,
            "durationTicks": 191
          },
          {
            "time": 112.49241793750002,
            "midi": 78,
            "name": "F#5",
            "velocity": 1,
            "duration": 0.7026615624999835,
            "ticks": 30418,
            "durationTicks": 190
          },
          {
            "time": 113.84966421875001,
            "midi": 76,
            "name": "E5",
            "velocity": 1,
            "duration": 0.7063597812500149,
            "ticks": 30785,
            "durationTicks": 191
          },
          {
            "time": 113.87185353125001,
            "midi": 83,
            "name": "B5",
            "velocity": 1,
            "duration": 0.7026615624999977,
            "ticks": 30791,
            "durationTicks": 190
          },
          {
            "time": 113.89404284375,
            "midi": 88,
            "name": "E6",
            "velocity": 1,
            "duration": 0.7063597812500149,
            "ticks": 30797,
            "durationTicks": 191
          },
          {
            "time": 113.919930375,
            "midi": 80,
            "name": "G#5",
            "velocity": 1,
            "duration": 0.6989633437500089,
            "ticks": 30804,
            "durationTicks": 189
          },
          {
            "time": 115.27347843750002,
            "midi": 76,
            "name": "E5",
            "velocity": 1,
            "duration": 1.4090213437499983,
            "ticks": 31170,
            "durationTicks": 381
          },
          {
            "time": 115.31785706250001,
            "midi": 73,
            "name": "C#5",
            "velocity": 1,
            "duration": 1.4090213437499983,
            "ticks": 31182,
            "durationTicks": 381
          },
          {
            "time": 115.36223568750002,
            "midi": 68,
            "name": "G#4",
            "velocity": 1,
            "duration": 1.4090213437499983,
            "ticks": 31194,
            "durationTicks": 381
          },
          {
            "time": 115.40661431250001,
            "midi": 80,
            "name": "G#5",
            "velocity": 1,
            "duration": 1.4127195625000155,
            "ticks": 31206,
            "durationTicks": 382
          },
          {
            "time": 120.97613175000001,
            "midi": 80,
            "name": "G#5",
            "velocity": 1,
            "duration": 0.05547328125000206,
            "ticks": 32712,
            "durationTicks": 15
          },
          {
            "time": 121.06119078125,
            "midi": 79,
            "name": "G5",
            "velocity": 1,
            "duration": 0.05917150000000504,
            "ticks": 32735,
            "durationTicks": 16
          },
          {
            "time": 121.15364625000001,
            "midi": 78,
            "name": "F#5",
            "velocity": 1,
            "duration": 0.05917150000000504,
            "ticks": 32760,
            "durationTicks": 16
          },
          {
            "time": 121.24240350000001,
            "midi": 77,
            "name": "F5",
            "velocity": 1,
            "duration": 0.05547328125000206,
            "ticks": 32784,
            "durationTicks": 15
          },
          {
            "time": 121.32746253125,
            "midi": 76,
            "name": "E5",
            "velocity": 1,
            "duration": 0.05917150000000504,
            "ticks": 32807,
            "durationTicks": 16
          },
          {
            "time": 121.41621978125,
            "midi": 77,
            "name": "F5",
            "velocity": 1,
            "duration": 0.06286971875000802,
            "ticks": 32831,
            "durationTicks": 17
          },
          {
            "time": 121.50867525000001,
            "midi": 78,
            "name": "F#5",
            "velocity": 1,
            "duration": 0.05917150000000504,
            "ticks": 32856,
            "durationTicks": 16
          },
          {
            "time": 121.59743250000001,
            "midi": 79,
            "name": "G5",
            "velocity": 1,
            "duration": 0.05547328125000206,
            "ticks": 32880,
            "durationTicks": 15
          },
          {
            "time": 121.68988796875001,
            "midi": 80,
            "name": "G#5",
            "velocity": 1,
            "duration": 0.05177506249999908,
            "ticks": 32905,
            "durationTicks": 14
          },
          {
            "time": 121.77494700000001,
            "midi": 79,
            "name": "G5",
            "velocity": 1,
            "duration": 0.05917150000000504,
            "ticks": 32928,
            "durationTicks": 16
          },
          {
            "time": 121.86740246875002,
            "midi": 78,
            "name": "F#5",
            "velocity": 1,
            "duration": 0.05547328125000206,
            "ticks": 32953,
            "durationTicks": 15
          },
          {
            "time": 121.95246150000001,
            "midi": 77,
            "name": "F5",
            "velocity": 1,
            "duration": 0.05547328125000206,
            "ticks": 32976,
            "durationTicks": 15
          },
          {
            "time": 122.04121875000001,
            "midi": 76,
            "name": "E5",
            "velocity": 1,
            "duration": 0.05917150000000504,
            "ticks": 33000,
            "durationTicks": 16
          },
          {
            "time": 122.12997600000001,
            "midi": 77,
            "name": "F5",
            "velocity": 1,
            "duration": 0.05917150000000504,
            "ticks": 33024,
            "durationTicks": 16
          },
          {
            "time": 122.22243146875002,
            "midi": 78,
            "name": "F#5",
            "velocity": 1,
            "duration": 0.05917149999999083,
            "ticks": 33049,
            "durationTicks": 16
          },
          {
            "time": 122.31118871875002,
            "midi": 79,
            "name": "G5",
            "velocity": 1,
            "duration": 0.05547328125000206,
            "ticks": 33073,
            "durationTicks": 15
          },
          {
            "time": 122.39994596875002,
            "midi": 80,
            "name": "G#5",
            "velocity": 1,
            "duration": 0.05547328125000206,
            "ticks": 33097,
            "durationTicks": 15
          },
          {
            "time": 122.48500500000002,
            "midi": 79,
            "name": "G5",
            "velocity": 1,
            "duration": 0.05917150000000504,
            "ticks": 33120,
            "durationTicks": 16
          },
          {
            "time": 122.57746046875002,
            "midi": 78,
            "name": "F#5",
            "velocity": 1,
            "duration": 0.05917149999999083,
            "ticks": 33145,
            "durationTicks": 16
          },
          {
            "time": 122.66621771875002,
            "midi": 77,
            "name": "F5",
            "velocity": 1,
            "duration": 0.05547328125000206,
            "ticks": 33169,
            "durationTicks": 15
          },
          {
            "time": 122.75497496875002,
            "midi": 76,
            "name": "E5",
            "velocity": 1,
            "duration": 0.05547328125000206,
            "ticks": 33193,
            "durationTicks": 15
          },
          {
            "time": 122.84003400000002,
            "midi": 77,
            "name": "F5",
            "velocity": 1,
            "duration": 0.06286971874999381,
            "ticks": 33216,
            "durationTicks": 17
          },
          {
            "time": 122.93248946875002,
            "midi": 78,
            "name": "F#5",
            "velocity": 1,
            "duration": 0.05917149999999083,
            "ticks": 33241,
            "durationTicks": 16
          },
          {
            "time": 123.02124671875002,
            "midi": 79,
            "name": "G5",
            "velocity": 1,
            "duration": 0.05547328125000206,
            "ticks": 33265,
            "durationTicks": 15
          },
          {
            "time": 123.11370218750001,
            "midi": 80,
            "name": "G#5",
            "velocity": 1,
            "duration": 0.05547328125000206,
            "ticks": 33290,
            "durationTicks": 15
          },
          {
            "time": 123.19876121875002,
            "midi": 79,
            "name": "G5",
            "velocity": 1,
            "duration": 0.05917149999999083,
            "ticks": 33313,
            "durationTicks": 16
          },
          {
            "time": 123.29121668750001,
            "midi": 78,
            "name": "F#5",
            "velocity": 1,
            "duration": 0.05547328125000206,
            "ticks": 33338,
            "durationTicks": 15
          },
          {
            "time": 123.37997393750001,
            "midi": 77,
            "name": "F5",
            "velocity": 1,
            "duration": 0.05547328125000206,
            "ticks": 33362,
            "durationTicks": 15
          },
          {
            "time": 123.46873118750001,
            "midi": 76,
            "name": "E5",
            "velocity": 1,
            "duration": 0.05547328124998785,
            "ticks": 33386,
            "durationTicks": 15
          },
          {
            "time": 123.550092,
            "midi": 77,
            "name": "F5",
            "velocity": 1,
            "duration": 0.06286971874999381,
            "ticks": 33408,
            "durationTicks": 17
          },
          {
            "time": 123.64624568750001,
            "midi": 78,
            "name": "F#5",
            "velocity": 1,
            "duration": 0.05917150000000504,
            "ticks": 33434,
            "durationTicks": 16
          },
          {
            "time": 123.73500293750001,
            "midi": 79,
            "name": "G5",
            "velocity": 1,
            "duration": 0.05547328124998785,
            "ticks": 33458,
            "durationTicks": 15
          },
          {
            "time": 123.82745840625002,
            "midi": 80,
            "name": "G#5",
            "velocity": 1,
            "duration": 0.05177506249998487,
            "ticks": 33483,
            "durationTicks": 14
          },
          {
            "time": 123.90881921875003,
            "midi": 79,
            "name": "G5",
            "velocity": 1,
            "duration": 0.06286971874999381,
            "ticks": 33505,
            "durationTicks": 17
          },
          {
            "time": 124.0012746875,
            "midi": 78,
            "name": "F#5",
            "velocity": 1,
            "duration": 0.05917150000001925,
            "ticks": 33530,
            "durationTicks": 16
          },
          {
            "time": 124.0900319375,
            "midi": 77,
            "name": "F5",
            "velocity": 1,
            "duration": 0.05547328125000206,
            "ticks": 33554,
            "durationTicks": 15
          },
          {
            "time": 124.1787891875,
            "midi": 76,
            "name": "E5",
            "velocity": 1,
            "duration": 0.05547328125000206,
            "ticks": 33578,
            "durationTicks": 15
          },
          {
            "time": 124.2675464375,
            "midi": 77,
            "name": "F5",
            "velocity": 1,
            "duration": 0.05917150000000504,
            "ticks": 33602,
            "durationTicks": 16
          },
          {
            "time": 124.36000190625002,
            "midi": 78,
            "name": "F#5",
            "velocity": 1,
            "duration": 0.05547328124998785,
            "ticks": 33627,
            "durationTicks": 15
          },
          {
            "time": 124.44875915625002,
            "midi": 79,
            "name": "G5",
            "velocity": 1,
            "duration": 0.05177506249998487,
            "ticks": 33651,
            "durationTicks": 14
          },
          {
            "time": 124.53751640625002,
            "midi": 80,
            "name": "G#5",
            "velocity": 1,
            "duration": 0.05547328124998785,
            "ticks": 33675,
            "durationTicks": 15
          },
          {
            "time": 124.6225754375,
            "midi": 79,
            "name": "G5",
            "velocity": 1,
            "duration": 0.05917150000000504,
            "ticks": 33698,
            "durationTicks": 16
          },
          {
            "time": 124.71503090625,
            "midi": 78,
            "name": "F#5",
            "velocity": 1,
            "duration": 0.05917150000001925,
            "ticks": 33723,
            "durationTicks": 16
          },
          {
            "time": 124.80378815625001,
            "midi": 77,
            "name": "F5",
            "velocity": 1,
            "duration": 0.05547328125000206,
            "ticks": 33747,
            "durationTicks": 15
          },
          {
            "time": 124.89254540625001,
            "midi": 76,
            "name": "E5",
            "velocity": 1,
            "duration": 0.05547328125000206,
            "ticks": 33771,
            "durationTicks": 15
          },
          {
            "time": 124.9776044375,
            "midi": 77,
            "name": "F5",
            "velocity": 1,
            "duration": 0.06286971875000802,
            "ticks": 33794,
            "durationTicks": 17
          },
          {
            "time": 125.07005990625001,
            "midi": 78,
            "name": "F#5",
            "velocity": 1,
            "duration": 0.05917150000000504,
            "ticks": 33819,
            "durationTicks": 16
          },
          {
            "time": 125.15881715625001,
            "midi": 79,
            "name": "G5",
            "velocity": 1,
            "duration": 0.05547328125000206,
            "ticks": 33843,
            "durationTicks": 15
          },
          {
            "time": 125.24757440625001,
            "midi": 80,
            "name": "G#5",
            "velocity": 1,
            "duration": 0.05547328125000206,
            "ticks": 33867,
            "durationTicks": 15
          },
          {
            "time": 125.33633165625001,
            "midi": 79,
            "name": "G5",
            "velocity": 1,
            "duration": 0.05917150000000504,
            "ticks": 33891,
            "durationTicks": 16
          },
          {
            "time": 125.42508890625001,
            "midi": 78,
            "name": "F#5",
            "velocity": 1,
            "duration": 0.05917150000000504,
            "ticks": 33915,
            "durationTicks": 16
          },
          {
            "time": 125.51384615625001,
            "midi": 77,
            "name": "F5",
            "velocity": 1,
            "duration": 0.05547328125000206,
            "ticks": 33939,
            "durationTicks": 15
          },
          {
            "time": 125.60260340625001,
            "midi": 76,
            "name": "E5",
            "velocity": 1,
            "duration": 0.05917150000000504,
            "ticks": 33963,
            "durationTicks": 16
          },
          {
            "time": 125.69136065625001,
            "midi": 77,
            "name": "F5",
            "velocity": 1,
            "duration": 0.05917150000000504,
            "ticks": 33987,
            "durationTicks": 16
          },
          {
            "time": 125.78381612500002,
            "midi": 78,
            "name": "F#5",
            "velocity": 1,
            "duration": 0.05547328125000206,
            "ticks": 34012,
            "durationTicks": 15
          },
          {
            "time": 125.87257337500002,
            "midi": 79,
            "name": "G5",
            "velocity": 1,
            "duration": 0.05547328125000206,
            "ticks": 34036,
            "durationTicks": 15
          },
          {
            "time": 125.96133062500002,
            "midi": 73,
            "name": "C#5",
            "velocity": 1,
            "duration": 0.6915669062499887,
            "ticks": 34060,
            "durationTicks": 187
          },
          {
            "time": 125.96133062500002,
            "midi": 85,
            "name": "C#6",
            "velocity": 1,
            "duration": 0.6915669062499887,
            "ticks": 34060,
            "durationTicks": 187
          },
          {
            "time": 126.67878506250001,
            "midi": 73,
            "name": "C#5",
            "velocity": 1,
            "duration": 0.0813608125000087,
            "ticks": 34254,
            "durationTicks": 22
          },
          {
            "time": 126.67878506250001,
            "midi": 85,
            "name": "C#6",
            "velocity": 1,
            "duration": 0.09985190624999518,
            "ticks": 34254,
            "durationTicks": 27
          },
          {
            "time": 126.67878506250001,
            "midi": 80,
            "name": "G#5",
            "velocity": 0.8818897637795275,
            "duration": 0.06656793749999679,
            "ticks": 34254,
            "durationTicks": 18
          },
          {
            "time": 126.76014587500002,
            "midi": 79,
            "name": "G5",
            "velocity": 0.8818897637795275,
            "duration": 0.07396437499998854,
            "ticks": 34276,
            "durationTicks": 20
          },
          {
            "time": 126.85260134375001,
            "midi": 78,
            "name": "F#5",
            "velocity": 0.8818897637795275,
            "duration": 0.07396437500001696,
            "ticks": 34301,
            "durationTicks": 20
          },
          {
            "time": 126.85260134375001,
            "midi": 74,
            "name": "D5",
            "velocity": 1,
            "duration": 1.5125714687500107,
            "ticks": 34301,
            "durationTicks": 409
          },
          {
            "time": 126.85260134375001,
            "midi": 86,
            "name": "D6",
            "velocity": 1,
            "duration": 1.5125714687500107,
            "ticks": 34301,
            "durationTicks": 409
          },
          {
            "time": 126.94135859375001,
            "midi": 77,
            "name": "F5",
            "velocity": 0.8818897637795275,
            "duration": 0.06656793749999679,
            "ticks": 34325,
            "durationTicks": 18
          },
          {
            "time": 127.02641762500002,
            "midi": 76,
            "name": "E5",
            "velocity": 0.8818897637795275,
            "duration": 0.07396437499998854,
            "ticks": 34348,
            "durationTicks": 20
          },
          {
            "time": 127.11517487500002,
            "midi": 77,
            "name": "F5",
            "velocity": 0.8818897637795275,
            "duration": 0.07396437499998854,
            "ticks": 34372,
            "durationTicks": 20
          },
          {
            "time": 127.20763034375001,
            "midi": 78,
            "name": "F#5",
            "velocity": 0.8818897637795275,
            "duration": 0.07396437500000275,
            "ticks": 34397,
            "durationTicks": 20
          },
          {
            "time": 127.29638759375001,
            "midi": 79,
            "name": "G5",
            "velocity": 0.8818897637795275,
            "duration": 0.07026615624999977,
            "ticks": 34421,
            "durationTicks": 19
          },
          {
            "time": 127.38514484375001,
            "midi": 80,
            "name": "G#5",
            "velocity": 0.905511811023622,
            "duration": 0.07026615624999977,
            "ticks": 34445,
            "durationTicks": 19
          },
          {
            "time": 127.47020387500002,
            "midi": 79,
            "name": "G5",
            "velocity": 0.905511811023622,
            "duration": 0.07766259374999152,
            "ticks": 34468,
            "durationTicks": 21
          },
          {
            "time": 127.56635756250002,
            "midi": 78,
            "name": "F#5",
            "velocity": 0.905511811023622,
            "duration": 0.07026615624999977,
            "ticks": 34494,
            "durationTicks": 19
          },
          {
            "time": 127.65141659375001,
            "midi": 77,
            "name": "F5",
            "velocity": 0.9133858267716536,
            "duration": 0.07026615624999977,
            "ticks": 34517,
            "durationTicks": 19
          },
          {
            "time": 127.74017384375001,
            "midi": 76,
            "name": "E5",
            "velocity": 0.9133858267716536,
            "duration": 0.07396437500000275,
            "ticks": 34541,
            "durationTicks": 20
          },
          {
            "time": 127.82893109375,
            "midi": 77,
            "name": "F5",
            "velocity": 0.9133858267716536,
            "duration": 0.07396437500001696,
            "ticks": 34565,
            "durationTicks": 20
          },
          {
            "time": 127.91768834375,
            "midi": 78,
            "name": "F#5",
            "velocity": 0.9133858267716536,
            "duration": 0.07396437500001696,
            "ticks": 34589,
            "durationTicks": 20
          },
          {
            "time": 128.01014381250002,
            "midi": 79,
            "name": "G5",
            "velocity": 0.9448818897637795,
            "duration": 0.06656793749999679,
            "ticks": 34614,
            "durationTicks": 18
          },
          {
            "time": 128.09520284375,
            "midi": 80,
            "name": "G#5",
            "velocity": 0.9448818897637795,
            "duration": 0.07396437500003117,
            "ticks": 34637,
            "durationTicks": 20
          },
          {
            "time": 128.18396009375002,
            "midi": 79,
            "name": "G5",
            "velocity": 0.952755905511811,
            "duration": 0.07396437500000275,
            "ticks": 34661,
            "durationTicks": 20
          },
          {
            "time": 128.2764155625,
            "midi": 78,
            "name": "F#5",
            "velocity": 0.952755905511811,
            "duration": 0.07396437500000275,
            "ticks": 34686,
            "durationTicks": 20
          },
          {
            "time": 128.36517281250002,
            "midi": 77,
            "name": "F5",
            "velocity": 0.952755905511811,
            "duration": 0.07026615624999977,
            "ticks": 34710,
            "durationTicks": 19
          },
          {
            "time": 128.45023184375,
            "midi": 76,
            "name": "E5",
            "velocity": 0.968503937007874,
            "duration": 0.07396437500003117,
            "ticks": 34733,
            "durationTicks": 20
          },
          {
            "time": 128.53898909375002,
            "midi": 77,
            "name": "F5",
            "velocity": 0.968503937007874,
            "duration": 0.07396437500000275,
            "ticks": 34757,
            "durationTicks": 20
          },
          {
            "time": 128.6314445625,
            "midi": 78,
            "name": "F#5",
            "velocity": 1,
            "duration": 0.07396437500000275,
            "ticks": 34782,
            "durationTicks": 20
          },
          {
            "time": 128.72020181250002,
            "midi": 79,
            "name": "G5",
            "velocity": 1,
            "duration": 0.07026615624999977,
            "ticks": 34806,
            "durationTicks": 19
          },
          {
            "time": 128.8089590625,
            "midi": 80,
            "name": "G#5",
            "velocity": 1,
            "duration": 0.07026615624999977,
            "ticks": 34830,
            "durationTicks": 19
          },
          {
            "time": 128.8089590625,
            "midi": 69,
            "name": "A4",
            "velocity": 1,
            "duration": 0.451182687499994,
            "ticks": 34830,
            "durationTicks": 122
          },
          {
            "time": 128.81265728125,
            "midi": 81,
            "name": "A5",
            "velocity": 1,
            "duration": 0.4363898124999821,
            "ticks": 34831,
            "durationTicks": 118
          },
          {
            "time": 128.89401809375002,
            "midi": 79,
            "name": "G5",
            "velocity": 1,
            "duration": 0.0776625937499773,
            "ticks": 34853,
            "durationTicks": 21
          },
          {
            "time": 128.99017178125,
            "midi": 78,
            "name": "F#5",
            "velocity": 1,
            "duration": 0.07026615624999977,
            "ticks": 34879,
            "durationTicks": 19
          },
          {
            "time": 129.07892903125003,
            "midi": 77,
            "name": "F5",
            "velocity": 1,
            "duration": 0.06656793749999679,
            "ticks": 34903,
            "durationTicks": 18
          },
          {
            "time": 129.1639880625,
            "midi": 76,
            "name": "E5",
            "velocity": 1,
            "duration": 0.07396437500000275,
            "ticks": 34926,
            "durationTicks": 20
          },
          {
            "time": 129.25274531250002,
            "midi": 77,
            "name": "F5",
            "velocity": 1,
            "duration": 0.07396437499997432,
            "ticks": 34950,
            "durationTicks": 20
          },
          {
            "time": 129.34520078125,
            "midi": 78,
            "name": "F#5",
            "velocity": 1,
            "duration": 0.07396437500000275,
            "ticks": 34975,
            "durationTicks": 20
          },
          {
            "time": 129.43395803125003,
            "midi": 79,
            "name": "G5",
            "velocity": 1,
            "duration": 0.07026615624997135,
            "ticks": 34999,
            "durationTicks": 19
          },
          {
            "time": 129.52641350000002,
            "midi": 69,
            "name": "A4",
            "velocity": 1,
            "duration": 0.09985190624999518,
            "ticks": 35024,
            "durationTicks": 27
          },
          {
            "time": 129.53011171875002,
            "midi": 81,
            "name": "A5",
            "velocity": 1,
            "duration": 0.08875724999998624,
            "ticks": 35025,
            "durationTicks": 24
          },
          {
            "time": 129.53011171875002,
            "midi": 80,
            "name": "G#5",
            "velocity": 1,
            "duration": 0.06286971874999381,
            "ticks": 35025,
            "durationTicks": 17
          },
          {
            "time": 129.60777431250003,
            "midi": 79,
            "name": "G5",
            "velocity": 1,
            "duration": 0.07396437499997432,
            "ticks": 35046,
            "durationTicks": 20
          },
          {
            "time": 129.70022978125002,
            "midi": 71,
            "name": "B4",
            "velocity": 1,
            "duration": 2.226327687500003,
            "ticks": 35071,
            "durationTicks": 602
          },
          {
            "time": 129.70022978125002,
            "midi": 83,
            "name": "B5",
            "velocity": 1,
            "duration": 2.211534812499991,
            "ticks": 35071,
            "durationTicks": 598
          },
          {
            "time": 129.70022978125002,
            "midi": 78,
            "name": "F#5",
            "velocity": 1,
            "duration": 0.07396437500000275,
            "ticks": 35071,
            "durationTicks": 20
          },
          {
            "time": 129.78898703125003,
            "midi": 77,
            "name": "F5",
            "velocity": 1,
            "duration": 0.07026615624997135,
            "ticks": 35095,
            "durationTicks": 19
          },
          {
            "time": 129.87774428125002,
            "midi": 76,
            "name": "E5",
            "velocity": 1,
            "duration": 0.07026615624999977,
            "ticks": 35119,
            "durationTicks": 19
          },
          {
            "time": 129.9628033125,
            "midi": 77,
            "name": "F5",
            "velocity": 1,
            "duration": 0.07766259375000573,
            "ticks": 35142,
            "durationTicks": 21
          },
          {
            "time": 130.05525878125002,
            "midi": 78,
            "name": "F#5",
            "velocity": 1,
            "duration": 0.07396437500000275,
            "ticks": 35167,
            "durationTicks": 20
          },
          {
            "time": 130.14401603125003,
            "midi": 79,
            "name": "G5",
            "velocity": 1,
            "duration": 0.07026615624997135,
            "ticks": 35191,
            "durationTicks": 19
          },
          {
            "time": 130.23277328125002,
            "midi": 80,
            "name": "G#5",
            "velocity": 1,
            "duration": 0.07396437500000275,
            "ticks": 35215,
            "durationTicks": 20
          },
          {
            "time": 130.32153053125003,
            "midi": 79,
            "name": "G5",
            "velocity": 1,
            "duration": 0.07396437499997432,
            "ticks": 35239,
            "durationTicks": 20
          },
          {
            "time": 130.413986,
            "midi": 78,
            "name": "F#5",
            "velocity": 1,
            "duration": 0.07026615625002819,
            "ticks": 35264,
            "durationTicks": 19
          },
          {
            "time": 130.50274325,
            "midi": 77,
            "name": "F5",
            "velocity": 1,
            "duration": 0.06656793749999679,
            "ticks": 35288,
            "durationTicks": 18
          },
          {
            "time": 130.58780228125002,
            "midi": 76,
            "name": "E5",
            "velocity": 1,
            "duration": 0.07396437500000275,
            "ticks": 35311,
            "durationTicks": 20
          },
          {
            "time": 130.67655953125004,
            "midi": 77,
            "name": "F5",
            "velocity": 1,
            "duration": 0.07396437499997432,
            "ticks": 35335,
            "durationTicks": 20
          },
          {
            "time": 130.769015,
            "midi": 78,
            "name": "F#5",
            "velocity": 1,
            "duration": 0.07396437500003117,
            "ticks": 35360,
            "durationTicks": 20
          },
          {
            "time": 130.85777225,
            "midi": 79,
            "name": "G5",
            "velocity": 1,
            "duration": 0.07026615624999977,
            "ticks": 35384,
            "durationTicks": 19
          },
          {
            "time": 130.94283128125002,
            "midi": 80,
            "name": "G#5",
            "velocity": 1,
            "duration": 0.07396437500000275,
            "ticks": 35407,
            "durationTicks": 20
          },
          {
            "time": 131.03158853125,
            "midi": 79,
            "name": "G5",
            "velocity": 1,
            "duration": 0.07766259375000573,
            "ticks": 35431,
            "durationTicks": 21
          },
          {
            "time": 131.124044,
            "midi": 78,
            "name": "F#5",
            "velocity": 1,
            "duration": 0.07396437500003117,
            "ticks": 35456,
            "durationTicks": 20
          },
          {
            "time": 131.21280125,
            "midi": 77,
            "name": "F5",
            "velocity": 1,
            "duration": 0.07026615624999977,
            "ticks": 35480,
            "durationTicks": 19
          },
          {
            "time": 131.3015585,
            "midi": 76,
            "name": "E5",
            "velocity": 1,
            "duration": 0.07396437500003117,
            "ticks": 35504,
            "durationTicks": 20
          },
          {
            "time": 131.39031575,
            "midi": 77,
            "name": "F5",
            "velocity": 1,
            "duration": 0.07396437500000275,
            "ticks": 35528,
            "durationTicks": 20
          },
          {
            "time": 131.479073,
            "midi": 78,
            "name": "F#5",
            "velocity": 1,
            "duration": 0.07396437500003117,
            "ticks": 35552,
            "durationTicks": 20
          },
          {
            "time": 131.56783025000001,
            "midi": 79,
            "name": "G5",
            "velocity": 1,
            "duration": 0.07026615624999977,
            "ticks": 35576,
            "durationTicks": 19
          },
          {
            "time": 131.66028571875,
            "midi": 80,
            "name": "G#5",
            "velocity": 1,
            "duration": 0.07026615625002819,
            "ticks": 35601,
            "durationTicks": 19
          },
          {
            "time": 131.74534475000002,
            "midi": 79,
            "name": "G5",
            "velocity": 1,
            "duration": 0.07396437500000275,
            "ticks": 35624,
            "durationTicks": 20
          },
          {
            "time": 131.83780021875,
            "midi": 78,
            "name": "F#5",
            "velocity": 1,
            "duration": 0.07396437500000275,
            "ticks": 35649,
            "durationTicks": 20
          },
          {
            "time": 131.92655746875002,
            "midi": 77,
            "name": "F5",
            "velocity": 1,
            "duration": 0.07026615624999977,
            "ticks": 35673,
            "durationTicks": 19
          },
          {
            "time": 132.0116165,
            "midi": 76,
            "name": "E5",
            "velocity": 1,
            "duration": 0.07396437500003117,
            "ticks": 35696,
            "durationTicks": 20
          },
          {
            "time": 132.10037375000002,
            "midi": 77,
            "name": "F5",
            "velocity": 1,
            "duration": 0.07396437500000275,
            "ticks": 35720,
            "durationTicks": 20
          },
          {
            "time": 132.19282921875,
            "midi": 78,
            "name": "F#5",
            "velocity": 1,
            "duration": 0.07396437500000275,
            "ticks": 35745,
            "durationTicks": 20
          },
          {
            "time": 132.28158646875002,
            "midi": 79,
            "name": "G5",
            "velocity": 1,
            "duration": 0.07026615624999977,
            "ticks": 35769,
            "durationTicks": 19
          },
          {
            "time": 132.3666455,
            "midi": 78,
            "name": "F#5",
            "velocity": 1,
            "duration": 0.08505903125001169,
            "ticks": 35792,
            "durationTicks": 23
          },
          {
            "time": 132.54785821875,
            "midi": 78,
            "name": "F#5",
            "velocity": 1,
            "duration": 0.11094656250000412,
            "ticks": 35841,
            "durationTicks": 30
          },
          {
            "time": 132.72537271875,
            "midi": 74,
            "name": "D5",
            "velocity": 1,
            "duration": 0.11094656250000412,
            "ticks": 35889,
            "durationTicks": 30
          },
          {
            "time": 132.9065854375,
            "midi": 71,
            "name": "B4",
            "velocity": 1,
            "duration": 0.0961536874999922,
            "ticks": 35938,
            "durationTicks": 26
          },
          {
            "time": 133.26161443750001,
            "midi": 71,
            "name": "B4",
            "velocity": 1,
            "duration": 0.1146447812500071,
            "ticks": 36034,
            "durationTicks": 31
          },
          {
            "time": 133.61664343750002,
            "midi": 76,
            "name": "E5",
            "velocity": 1,
            "duration": 0.09985190624999518,
            "ticks": 36130,
            "durationTicks": 27
          },
          {
            "time": 133.97167243750002,
            "midi": 76,
            "name": "E5",
            "velocity": 1,
            "duration": 0.11094656250000412,
            "ticks": 36226,
            "durationTicks": 30
          },
          {
            "time": 134.33039965625,
            "midi": 76,
            "name": "E5",
            "velocity": 1,
            "duration": 0.10724834375002956,
            "ticks": 36323,
            "durationTicks": 29
          },
          {
            "time": 134.50791415625,
            "midi": 80,
            "name": "G#5",
            "velocity": 1,
            "duration": 0.09245546875001764,
            "ticks": 36371,
            "durationTicks": 25
          },
          {
            "time": 134.68542865625,
            "midi": 80,
            "name": "G#5",
            "velocity": 1,
            "duration": 0.0998519062500236,
            "ticks": 36419,
            "durationTicks": 27
          },
          {
            "time": 134.85924493750002,
            "midi": 81,
            "name": "A5",
            "velocity": 1,
            "duration": 0.10724834375000114,
            "ticks": 36466,
            "durationTicks": 29
          },
          {
            "time": 135.04045765625,
            "midi": 83,
            "name": "B5",
            "velocity": 1,
            "duration": 0.11094656250000412,
            "ticks": 36515,
            "durationTicks": 30
          },
          {
            "time": 135.21797215625,
            "midi": 78,
            "name": "F#5",
            "velocity": 1,
            "duration": 0.0813608125000087,
            "ticks": 36563,
            "durationTicks": 22
          },
          {
            "time": 135.399184875,
            "midi": 78,
            "name": "F#5",
            "velocity": 1,
            "duration": 0.10724834375000114,
            "ticks": 36612,
            "durationTicks": 29
          },
          {
            "time": 135.57300115625,
            "midi": 74,
            "name": "D5",
            "velocity": 1,
            "duration": 0.1146447812500071,
            "ticks": 36659,
            "durationTicks": 31
          },
          {
            "time": 135.754213875,
            "midi": 71,
            "name": "B4",
            "velocity": 1,
            "duration": 0.0998519062500236,
            "ticks": 36708,
            "durationTicks": 27
          },
          {
            "time": 136.109242875,
            "midi": 71,
            "name": "B4",
            "velocity": 1,
            "duration": 0.1146447812500071,
            "ticks": 36804,
            "durationTicks": 31
          },
          {
            "time": 136.46797009375,
            "midi": 76,
            "name": "E5",
            "velocity": 1,
            "duration": 0.0961536874999922,
            "ticks": 36901,
            "durationTicks": 26
          },
          {
            "time": 136.82299909375,
            "midi": 76,
            "name": "E5",
            "velocity": 1,
            "duration": 0.10724834375000114,
            "ticks": 36997,
            "durationTicks": 29
          },
          {
            "time": 137.18172631250002,
            "midi": 76,
            "name": "E5",
            "velocity": 1,
            "duration": 0.10355012499999816,
            "ticks": 37094,
            "durationTicks": 28
          },
          {
            "time": 137.35924081250002,
            "midi": 80,
            "name": "G#5",
            "velocity": 1,
            "duration": 0.08875724999998624,
            "ticks": 37142,
            "durationTicks": 24
          },
          {
            "time": 137.53675531250002,
            "midi": 80,
            "name": "G#5",
            "velocity": 1,
            "duration": 0.0961536874999922,
            "ticks": 37190,
            "durationTicks": 26
          },
          {
            "time": 137.71057159375002,
            "midi": 81,
            "name": "A5",
            "velocity": 1,
            "duration": 0.10355012499999816,
            "ticks": 37237,
            "durationTicks": 28
          },
          {
            "time": 137.89178431250002,
            "midi": 83,
            "name": "B5",
            "velocity": 1,
            "duration": 0.10724834375000114,
            "ticks": 37286,
            "durationTicks": 29
          },
          {
            "time": 138.07299703125003,
            "midi": 78,
            "name": "F#5",
            "velocity": 1,
            "duration": 0.0776625937499773,
            "ticks": 37335,
            "durationTicks": 21
          },
          {
            "time": 138.2468133125,
            "midi": 78,
            "name": "F#5",
            "velocity": 1,
            "duration": 0.10724834375002956,
            "ticks": 37382,
            "durationTicks": 29
          },
          {
            "time": 138.42802603125003,
            "midi": 74,
            "name": "D5",
            "velocity": 1,
            "duration": 0.10724834374997272,
            "ticks": 37431,
            "durationTicks": 29
          },
          {
            "time": 138.60554053125003,
            "midi": 71,
            "name": "B4",
            "velocity": 1,
            "duration": 0.0961536874999922,
            "ticks": 37479,
            "durationTicks": 26
          },
          {
            "time": 138.96056953125,
            "midi": 71,
            "name": "B4",
            "velocity": 1,
            "duration": 0.11094656250000412,
            "ticks": 37575,
            "durationTicks": 30
          },
          {
            "time": 139.31559853125,
            "midi": 76,
            "name": "E5",
            "velocity": 1,
            "duration": 0.0998519062500236,
            "ticks": 37671,
            "durationTicks": 27
          },
          {
            "time": 139.67432575,
            "midi": 76,
            "name": "E5",
            "velocity": 1,
            "duration": 0.10724834375000114,
            "ticks": 37768,
            "durationTicks": 29
          },
          {
            "time": 140.02935475,
            "midi": 76,
            "name": "E5",
            "velocity": 1,
            "duration": 0.10724834375000114,
            "ticks": 37864,
            "durationTicks": 29
          },
          {
            "time": 140.21056746875,
            "midi": 80,
            "name": "G#5",
            "velocity": 1,
            "duration": 0.08875724999998624,
            "ticks": 37913,
            "durationTicks": 24
          },
          {
            "time": 140.38808196875001,
            "midi": 80,
            "name": "G#5",
            "velocity": 1,
            "duration": 0.09245546874998922,
            "ticks": 37961,
            "durationTicks": 25
          },
          {
            "time": 140.56189825,
            "midi": 81,
            "name": "A5",
            "velocity": 1,
            "duration": 0.09985190624999518,
            "ticks": 38008,
            "durationTicks": 27
          },
          {
            "time": 140.74311096875002,
            "midi": 83,
            "name": "B5",
            "velocity": 1,
            "duration": 0.10355012499999816,
            "ticks": 38057,
            "durationTicks": 28
          },
          {
            "time": 140.92432368750002,
            "midi": 81,
            "name": "A5",
            "velocity": 1,
            "duration": 0.07766259375000573,
            "ticks": 38106,
            "durationTicks": 21
          },
          {
            "time": 141.09813996875002,
            "midi": 81,
            "name": "A5",
            "velocity": 1,
            "duration": 0.09245546874998922,
            "ticks": 38153,
            "durationTicks": 25
          },
          {
            "time": 141.27565446875002,
            "midi": 81,
            "name": "A5",
            "velocity": 1,
            "duration": 0.08505903125001169,
            "ticks": 38201,
            "durationTicks": 23
          },
          {
            "time": 141.45316896875002,
            "midi": 76,
            "name": "E5",
            "velocity": 1,
            "duration": 0.09245546874998922,
            "ticks": 38249,
            "durationTicks": 25
          },
          {
            "time": 141.81189618750003,
            "midi": 74,
            "name": "D5",
            "velocity": 1,
            "duration": 0.08505903124998326,
            "ticks": 38346,
            "durationTicks": 23
          },
          {
            "time": 142.16692518750003,
            "midi": 78,
            "name": "F#5",
            "velocity": 1,
            "duration": 0.0961536874999922,
            "ticks": 38442,
            "durationTicks": 26
          },
          {
            "time": 142.52195418750003,
            "midi": 78,
            "name": "F#5",
            "velocity": 1,
            "duration": 0.0961536874999922,
            "ticks": 38538,
            "durationTicks": 26
          },
          {
            "time": 142.8769831875,
            "midi": 78,
            "name": "F#5",
            "velocity": 1,
            "duration": 0.09245546875001764,
            "ticks": 38634,
            "durationTicks": 25
          },
          {
            "time": 143.05819590625003,
            "midi": 76,
            "name": "E5",
            "velocity": 1,
            "duration": 0.0961536874999922,
            "ticks": 38683,
            "durationTicks": 26
          },
          {
            "time": 143.23571040625004,
            "midi": 76,
            "name": "E5",
            "velocity": 1,
            "duration": 0.09985190624999518,
            "ticks": 38731,
            "durationTicks": 27
          },
          {
            "time": 143.4095266875,
            "midi": 78,
            "name": "F#5",
            "velocity": 1,
            "duration": 0.09245546875001764,
            "ticks": 38778,
            "durationTicks": 25
          },
          {
            "time": 143.59073940625,
            "midi": 76,
            "name": "E5",
            "velocity": 1,
            "duration": 0.0998519062500236,
            "ticks": 38827,
            "durationTicks": 27
          },
          {
            "time": 143.771952125,
            "midi": 78,
            "name": "F#5",
            "velocity": 1,
            "duration": 0.08505903125001169,
            "ticks": 38876,
            "durationTicks": 23
          },
          {
            "time": 143.94576840625,
            "midi": 78,
            "name": "F#5",
            "velocity": 1,
            "duration": 0.0961536874999922,
            "ticks": 38923,
            "durationTicks": 26
          },
          {
            "time": 144.12328290625,
            "midi": 74,
            "name": "D5",
            "velocity": 1,
            "duration": 0.0961536874999922,
            "ticks": 38971,
            "durationTicks": 26
          },
          {
            "time": 144.30079740625,
            "midi": 71,
            "name": "B4",
            "velocity": 1,
            "duration": 0.08505903125001169,
            "ticks": 39019,
            "durationTicks": 23
          },
          {
            "time": 144.65952462500002,
            "midi": 71,
            "name": "B4",
            "velocity": 1,
            "duration": 0.09985190624999518,
            "ticks": 39116,
            "durationTicks": 27
          },
          {
            "time": 145.01455362500002,
            "midi": 76,
            "name": "E5",
            "velocity": 1,
            "duration": 0.10355012499999816,
            "ticks": 39212,
            "durationTicks": 28
          },
          {
            "time": 145.36958262500002,
            "midi": 76,
            "name": "E5",
            "velocity": 1,
            "duration": 0.11834300000001008,
            "ticks": 39308,
            "durationTicks": 32
          },
          {
            "time": 145.72830984375003,
            "midi": 76,
            "name": "E5",
            "velocity": 1,
            "duration": 0.09985190624999518,
            "ticks": 39405,
            "durationTicks": 27
          },
          {
            "time": 145.90582434375003,
            "midi": 80,
            "name": "G#5",
            "velocity": 1,
            "duration": 0.09245546874998922,
            "ticks": 39453,
            "durationTicks": 25
          },
          {
            "time": 146.08333884375003,
            "midi": 80,
            "name": "G#5",
            "velocity": 1,
            "duration": 0.08505903124998326,
            "ticks": 39501,
            "durationTicks": 23
          },
          {
            "time": 146.26085334375003,
            "midi": 81,
            "name": "A5",
            "velocity": 1,
            "duration": 0.08875724999998624,
            "ticks": 39549,
            "durationTicks": 24
          },
          {
            "time": 146.43836784375003,
            "midi": 83,
            "name": "B5",
            "velocity": 1,
            "duration": 0.09245546874998922,
            "ticks": 39597,
            "durationTicks": 25
          },
          {
            "time": 146.61958056250003,
            "midi": 81,
            "name": "A5",
            "velocity": 1,
            "duration": 0.0776625937499773,
            "ticks": 39646,
            "durationTicks": 21
          },
          {
            "time": 146.79339684375,
            "midi": 81,
            "name": "A5",
            "velocity": 1,
            "duration": 0.08875725000001466,
            "ticks": 39693,
            "durationTicks": 24
          },
          {
            "time": 146.97091134375,
            "midi": 81,
            "name": "A5",
            "velocity": 1,
            "duration": 0.06656793750002521,
            "ticks": 39741,
            "durationTicks": 18
          },
          {
            "time": 147.15212406250004,
            "midi": 76,
            "name": "E5",
            "velocity": 1,
            "duration": 0.07396437499997432,
            "ticks": 39790,
            "durationTicks": 20
          },
          {
            "time": 147.51085128125,
            "midi": 74,
            "name": "D5",
            "velocity": 1,
            "duration": 0.05917149999999083,
            "ticks": 39887,
            "durationTicks": 16
          },
          {
            "time": 147.8621820625,
            "midi": 78,
            "name": "F#5",
            "velocity": 1,
            "duration": 0.07766259375000573,
            "ticks": 39982,
            "durationTicks": 21
          },
          {
            "time": 148.22090928125002,
            "midi": 78,
            "name": "F#5",
            "velocity": 1,
            "duration": 0.08505903125001169,
            "ticks": 40079,
            "durationTicks": 23
          },
          {
            "time": 148.57593828125002,
            "midi": 78,
            "name": "F#5",
            "velocity": 1,
            "duration": 0.09245546874998922,
            "ticks": 40175,
            "durationTicks": 25
          },
          {
            "time": 148.75345278125002,
            "midi": 76,
            "name": "E5",
            "velocity": 1,
            "duration": 0.08505903125001169,
            "ticks": 40223,
            "durationTicks": 23
          },
          {
            "time": 148.93466550000002,
            "midi": 76,
            "name": "E5",
            "velocity": 1,
            "duration": 0.10355012499999816,
            "ticks": 40272,
            "durationTicks": 28
          },
          {
            "time": 149.10848178125002,
            "midi": 78,
            "name": "F#5",
            "velocity": 1,
            "duration": 0.0961536874999922,
            "ticks": 40319,
            "durationTicks": 26
          },
          {
            "time": 149.28969450000002,
            "midi": 76,
            "name": "E5",
            "velocity": 1,
            "duration": 0.09985190624999518,
            "ticks": 40368,
            "durationTicks": 27
          },
          {
            "time": 149.46720900000003,
            "midi": 78,
            "name": "F#5",
            "velocity": 1,
            "duration": 0.0813608125000087,
            "ticks": 40416,
            "durationTicks": 22
          },
          {
            "time": 149.82223800000003,
            "midi": 74,
            "name": "D5",
            "velocity": 1,
            "duration": 0.1109465624999757,
            "ticks": 40512,
            "durationTicks": 30
          },
          {
            "time": 149.99975250000003,
            "midi": 71,
            "name": "B4",
            "velocity": 1,
            "duration": 0.0961536874999922,
            "ticks": 40560,
            "durationTicks": 26
          },
          {
            "time": 150.35847971875003,
            "midi": 71,
            "name": "B4",
            "velocity": 1,
            "duration": 0.11094656250000412,
            "ticks": 40657,
            "durationTicks": 30
          },
          {
            "time": 150.71350871875003,
            "midi": 76,
            "name": "E5",
            "velocity": 1,
            "duration": 0.0961536874999922,
            "ticks": 40753,
            "durationTicks": 26
          },
          {
            "time": 151.06853771875004,
            "midi": 76,
            "name": "E5",
            "velocity": 1,
            "duration": 0.10724834374997272,
            "ticks": 40849,
            "durationTicks": 29
          },
          {
            "time": 151.42356671875,
            "midi": 76,
            "name": "E5",
            "velocity": 1,
            "duration": 0.10724834375000114,
            "ticks": 40945,
            "durationTicks": 29
          },
          {
            "time": 151.78229393750001,
            "midi": 80,
            "name": "G#5",
            "velocity": 1,
            "duration": 0.09615368750002062,
            "ticks": 41042,
            "durationTicks": 26
          },
          {
            "time": 151.95611021875,
            "midi": 81,
            "name": "A5",
            "velocity": 1,
            "duration": 0.10355012499999816,
            "ticks": 41089,
            "durationTicks": 28
          },
          {
            "time": 152.13732293750002,
            "midi": 83,
            "name": "B5",
            "velocity": 1,
            "duration": 0.10724834375000114,
            "ticks": 41138,
            "durationTicks": 29
          },
          {
            "time": 152.31853565625002,
            "midi": 81,
            "name": "A5",
            "velocity": 1,
            "duration": 0.0813608125000087,
            "ticks": 41187,
            "durationTicks": 22
          },
          {
            "time": 152.49235193750002,
            "midi": 81,
            "name": "A5",
            "velocity": 1,
            "duration": 0.09245546874998922,
            "ticks": 41234,
            "durationTicks": 25
          },
          {
            "time": 152.66986643750002,
            "midi": 81,
            "name": "A5",
            "velocity": 1,
            "duration": 0.08505903125001169,
            "ticks": 41282,
            "durationTicks": 23
          },
          {
            "time": 153.20610815625002,
            "midi": 74,
            "name": "D5",
            "velocity": 1,
            "duration": 0.08505903124998326,
            "ticks": 41427,
            "durationTicks": 23
          },
          {
            "time": 154.45240787500003,
            "midi": 76,
            "name": "E5",
            "velocity": 1,
            "duration": 0.09985190624999518,
            "ticks": 41764,
            "durationTicks": 27
          },
          {
            "time": 154.62992237500004,
            "midi": 76,
            "name": "E5",
            "velocity": 1,
            "duration": 0.10355012499996974,
            "ticks": 41812,
            "durationTicks": 28
          }
        ],
        "controlChanges": {
          "7": [
            {
              "number": 7,
              "value": 0.8267716535433071,
              "time": 0,
              "ticks": 0
            },
            {
              "number": 7,
              "value": 0.7952755905511811,
              "time": 120.95394243750002,
              "ticks": 32706
            },
            {
              "number": 7,
              "value": 0.7952755905511811,
              "time": 123.53529912500001,
              "ticks": 33404
            },
            {
              "number": 7,
              "value": 0.7874015748031497,
              "time": 123.550092,
              "ticks": 33408
            },
            {
              "number": 7,
              "value": 0.7795275590551181,
              "time": 123.56488487500002,
              "ticks": 33412
            },
            {
              "number": 7,
              "value": 0.7716535433070866,
              "time": 123.57228131250001,
              "ticks": 33414
            },
            {
              "number": 7,
              "value": 0.7637795275590551,
              "time": 123.59077240625001,
              "ticks": 33419
            },
            {
              "number": 7,
              "value": 0.7559055118110236,
              "time": 123.60556528125001,
              "ticks": 33423
            },
            {
              "number": 7,
              "value": 0.7480314960629921,
              "time": 123.64994390625002,
              "ticks": 33435
            },
            {
              "number": 7,
              "value": 0.7401574803149606,
              "time": 123.83115662500002,
              "ticks": 33484
            },
            {
              "number": 7,
              "value": 0.7322834645669292,
              "time": 123.89032812500001,
              "ticks": 33500
            },
            {
              "number": 7,
              "value": 0.7244094488188977,
              "time": 123.91621565625002,
              "ticks": 33507
            },
            {
              "number": 7,
              "value": 0.7165354330708661,
              "time": 123.94580140625001,
              "ticks": 33515
            },
            {
              "number": 7,
              "value": 0.7086614173228346,
              "time": 123.96059428125001,
              "ticks": 33519
            },
            {
              "number": 7,
              "value": 0.7007874015748031,
              "time": 123.97538715625002,
              "ticks": 33523
            },
            {
              "number": 7,
              "value": 0.6929133858267716,
              "time": 124.0012746875,
              "ticks": 33530
            },
            {
              "number": 7,
              "value": 0.6850393700787402,
              "time": 124.04195509375002,
              "ticks": 33541
            },
            {
              "number": 7,
              "value": 0.6771653543307087,
              "time": 124.1787891875,
              "ticks": 33578
            },
            {
              "number": 7,
              "value": 0.6692913385826772,
              "time": 124.21577137500002,
              "ticks": 33588
            },
            {
              "number": 7,
              "value": 0.6614173228346457,
              "time": 124.24165890625002,
              "ticks": 33595
            },
            {
              "number": 7,
              "value": 0.6535433070866141,
              "time": 124.27124465625002,
              "ticks": 33603
            },
            {
              "number": 7,
              "value": 0.6456692913385826,
              "time": 124.28603753125002,
              "ticks": 33607
            },
            {
              "number": 7,
              "value": 0.6377952755905512,
              "time": 124.31192506250001,
              "ticks": 33614
            },
            {
              "number": 7,
              "value": 0.6299212598425197,
              "time": 124.3267179375,
              "ticks": 33618
            },
            {
              "number": 7,
              "value": 0.6220472440944882,
              "time": 124.3563036875,
              "ticks": 33626
            },
            {
              "number": 7,
              "value": 0.6141732283464567,
              "time": 124.38958765625,
              "ticks": 33635
            },
            {
              "number": 7,
              "value": 0.6062992125984252,
              "time": 124.42287162500001,
              "ticks": 33644
            },
            {
              "number": 7,
              "value": 0.5984251968503937,
              "time": 124.46355203125002,
              "ticks": 33655
            },
            {
              "number": 7,
              "value": 0.5905511811023622,
              "time": 124.50423243750001,
              "ticks": 33666
            },
            {
              "number": 7,
              "value": 0.5826771653543307,
              "time": 124.60778256250002,
              "ticks": 33694
            },
            {
              "number": 7,
              "value": 0.5748031496062992,
              "time": 124.66325584375002,
              "ticks": 33709
            },
            {
              "number": 7,
              "value": 0.5669291338582677,
              "time": 124.69284159375002,
              "ticks": 33717
            },
            {
              "number": 7,
              "value": 0.5590551181102362,
              "time": 124.71872912500002,
              "ticks": 33724
            },
            {
              "number": 7,
              "value": 0.5511811023622047,
              "time": 124.74831487500002,
              "ticks": 33732
            },
            {
              "number": 7,
              "value": 0.5433070866141733,
              "time": 124.75571131250001,
              "ticks": 33734
            },
            {
              "number": 7,
              "value": 0.5354330708661418,
              "time": 124.77420240625003,
              "ticks": 33739
            },
            {
              "number": 7,
              "value": 0.5275590551181102,
              "time": 124.80378815625001,
              "ticks": 33747
            },
            {
              "number": 7,
              "value": 0.5196850393700787,
              "time": 124.82597746875001,
              "ticks": 33753
            },
            {
              "number": 7,
              "value": 0.5118110236220472,
              "time": 124.91473471875001,
              "ticks": 33777
            },
            {
              "number": 7,
              "value": 0.5039370078740157,
              "time": 124.93692403125002,
              "ticks": 33783
            },
            {
              "number": 7,
              "value": 0.49606299212598426,
              "time": 124.95171690625003,
              "ticks": 33787
            },
            {
              "number": 7,
              "value": 0.4881889763779528,
              "time": 124.96650978125001,
              "ticks": 33791
            },
            {
              "number": 7,
              "value": 0.48031496062992124,
              "time": 124.98500087500003,
              "ticks": 33796
            },
            {
              "number": 7,
              "value": 0.47244094488188976,
              "time": 125.014586625,
              "ticks": 33804
            },
            {
              "number": 7,
              "value": 0.4645669291338583,
              "time": 125.04047415625001,
              "ticks": 33811
            },
            {
              "number": 7,
              "value": 0.4566929133858268,
              "time": 125.05156881250002,
              "ticks": 33814
            },
            {
              "number": 7,
              "value": 0.44881889763779526,
              "time": 125.07005990625001,
              "ticks": 33819
            },
            {
              "number": 7,
              "value": 0.4409448818897638,
              "time": 125.09964565625,
              "ticks": 33827
            },
            {
              "number": 7,
              "value": 0.4330708661417323,
              "time": 125.12183496875001,
              "ticks": 33833
            },
            {
              "number": 7,
              "value": 0.4251968503937008,
              "time": 125.16251537500003,
              "ticks": 33844
            },
            {
              "number": 7,
              "value": 0.41732283464566927,
              "time": 125.17730825000001,
              "ticks": 33848
            },
            {
              "number": 7,
              "value": 0.4094488188976378,
              "time": 125.20319578125002,
              "ticks": 33855
            },
            {
              "number": 7,
              "value": 0.4015748031496063,
              "time": 125.24757440625001,
              "ticks": 33867
            },
            {
              "number": 7,
              "value": 0.3937007874015748,
              "time": 125.25866906250002,
              "ticks": 33870
            },
            {
              "number": 7,
              "value": 0.3858267716535433,
              "time": 125.28455659375003,
              "ticks": 33877
            },
            {
              "number": 7,
              "value": 0.3700787401574803,
              "time": 125.30674590625001,
              "ticks": 33883
            },
            {
              "number": 7,
              "value": 0.36220472440944884,
              "time": 125.31414234375002,
              "ticks": 33885
            },
            {
              "number": 7,
              "value": 0.3464566929133858,
              "time": 125.32893521875002,
              "ticks": 33889
            },
            {
              "number": 7,
              "value": 0.33070866141732286,
              "time": 125.34372809375,
              "ticks": 33893
            },
            {
              "number": 7,
              "value": 0.31496062992125984,
              "time": 125.35852096875001,
              "ticks": 33897
            },
            {
              "number": 7,
              "value": 0.29133858267716534,
              "time": 125.37331384375003,
              "ticks": 33901
            },
            {
              "number": 7,
              "value": 0.2677165354330709,
              "time": 125.38810671875001,
              "ticks": 33905
            },
            {
              "number": 7,
              "value": 0.23622047244094488,
              "time": 125.40289959375,
              "ticks": 33909
            },
            {
              "number": 7,
              "value": 0.2125984251968504,
              "time": 125.41769246875002,
              "ticks": 33913
            },
            {
              "number": 7,
              "value": 0.1732283464566929,
              "time": 125.43618356250002,
              "ticks": 33918
            },
            {
              "number": 7,
              "value": 0.13385826771653545,
              "time": 125.45097643750002,
              "ticks": 33922
            },
            {
              "number": 7,
              "value": 0.10236220472440945,
              "time": 125.45837287500001,
              "ticks": 33924
            },
            {
              "number": 7,
              "value": 0.06299212598425197,
              "time": 125.47316575000002,
              "ticks": 33928
            },
            {
              "number": 7,
              "value": 0.015748031496062992,
              "time": 125.49165684375001,
              "ticks": 33933
            },
            {
              "number": 7,
              "value": 0.8740157480314961,
              "time": 125.94283953125,
              "ticks": 34055
            },
            {
              "number": 7,
              "value": 0.8740157480314961,
              "time": 126.62331178125001,
              "ticks": 34239
            },
            {
              "number": 7,
              "value": 0.8740157480314961,
              "time": 211.46784634375,
              "ticks": 57181
            },
            {
              "number": 7,
              "value": 0.8661417322834646,
              "time": 211.73411809375,
              "ticks": 57253
            },
            {
              "number": 7,
              "value": 0.8582677165354331,
              "time": 211.90423615625005,
              "ticks": 57299
            },
            {
              "number": 7,
              "value": 0.8503937007874016,
              "time": 212.01518271875003,
              "ticks": 57329
            },
            {
              "number": 7,
              "value": 0.84251968503937,
              "time": 212.12612928125003,
              "ticks": 57359
            },
            {
              "number": 7,
              "value": 0.8346456692913385,
              "time": 212.31843665625001,
              "ticks": 57411
            },
            {
              "number": 7,
              "value": 0.8267716535433071,
              "time": 212.42568500000004,
              "ticks": 57440
            },
            {
              "number": 7,
              "value": 0.8188976377952756,
              "time": 212.75482646875,
              "ticks": 57529
            },
            {
              "number": 7,
              "value": 0.8110236220472441,
              "time": 212.83988550000004,
              "ticks": 57552
            },
            {
              "number": 7,
              "value": 0.8031496062992126,
              "time": 213.09136437500004,
              "ticks": 57620
            },
            {
              "number": 7,
              "value": 0.7952755905511811,
              "time": 213.17272518750002,
              "ticks": 57642
            },
            {
              "number": 7,
              "value": 0.7874015748031497,
              "time": 213.27627531250002,
              "ticks": 57670
            },
            {
              "number": 7,
              "value": 0.7795275590551181,
              "time": 213.39831653125,
              "ticks": 57703
            },
            {
              "number": 7,
              "value": 0.7716535433070866,
              "time": 213.47967734375004,
              "ticks": 57725
            },
            {
              "number": 7,
              "value": 0.7637795275590551,
              "time": 213.58322746875,
              "ticks": 57753
            },
            {
              "number": 7,
              "value": 0.7559055118110236,
              "time": 213.69417403125001,
              "ticks": 57783
            },
            {
              "number": 7,
              "value": 0.7480314960629921,
              "time": 213.73485443750005,
              "ticks": 57794
            },
            {
              "number": 7,
              "value": 0.7401574803149606,
              "time": 213.79772415625,
              "ticks": 57811
            },
            {
              "number": 7,
              "value": 0.7322834645669292,
              "time": 213.96044578125003,
              "ticks": 57855
            },
            {
              "number": 7,
              "value": 0.7244094488188977,
              "time": 214.08248700000001,
              "ticks": 57888
            },
            {
              "number": 7,
              "value": 0.7165354330708661,
              "time": 214.186037125,
              "ticks": 57916
            },
            {
              "number": 7,
              "value": 0.7086614173228346,
              "time": 214.42642134375004,
              "ticks": 57981
            },
            {
              "number": 7,
              "value": 0.7007874015748031,
              "time": 214.60393584375004,
              "ticks": 58029
            },
            {
              "number": 7,
              "value": 0.6929133858267716,
              "time": 214.748166375,
              "ticks": 58068
            },
            {
              "number": 7,
              "value": 0.6850393700787402,
              "time": 214.81473431250004,
              "ticks": 58086
            },
            {
              "number": 7,
              "value": 0.6771653543307087,
              "time": 214.98855059375003,
              "ticks": 58133
            },
            {
              "number": 7,
              "value": 0.6692913385826772,
              "time": 215.04032565625002,
              "ticks": 58147
            },
            {
              "number": 7,
              "value": 0.6614173228346457,
              "time": 215.0957989375,
              "ticks": 58162
            },
            {
              "number": 7,
              "value": 0.6535433070866141,
              "time": 215.12538468750003,
              "ticks": 58170
            },
            {
              "number": 7,
              "value": 0.6456692913385826,
              "time": 215.2067455,
              "ticks": 58192
            },
            {
              "number": 7,
              "value": 0.6377952755905512,
              "time": 215.39165643750002,
              "ticks": 58242
            },
            {
              "number": 7,
              "value": 0.6299212598425197,
              "time": 215.49520656250002,
              "ticks": 58270
            },
            {
              "number": 7,
              "value": 0.6220472440944882,
              "time": 215.59136025000004,
              "ticks": 58296
            },
            {
              "number": 7,
              "value": 0.6141732283464567,
              "time": 215.75408187500003,
              "ticks": 58340
            },
            {
              "number": 7,
              "value": 0.6062992125984252,
              "time": 215.85763200000002,
              "ticks": 58368
            },
            {
              "number": 7,
              "value": 0.5984251968503937,
              "time": 215.91310528125,
              "ticks": 58383
            },
            {
              "number": 7,
              "value": 0.5905511811023622,
              "time": 216.049939375,
              "ticks": 58420
            },
            {
              "number": 7,
              "value": 0.5826771653543307,
              "time": 216.13869662500002,
              "ticks": 58444
            },
            {
              "number": 7,
              "value": 0.5748031496062992,
              "time": 216.19416990625,
              "ticks": 58459
            },
            {
              "number": 7,
              "value": 0.5669291338582677,
              "time": 216.2496431875,
              "ticks": 58474
            },
            {
              "number": 7,
              "value": 0.5590551181102362,
              "time": 216.32730578125,
              "ticks": 58495
            },
            {
              "number": 7,
              "value": 0.5511811023622047,
              "time": 216.40866659375004,
              "ticks": 58517
            },
            {
              "number": 7,
              "value": 0.5433070866141733,
              "time": 216.51961315625005,
              "ticks": 58547
            },
            {
              "number": 7,
              "value": 0.5354330708661418,
              "time": 216.56029356250002,
              "ticks": 58558
            },
            {
              "number": 7,
              "value": 0.5275590551181102,
              "time": 216.60097396875003,
              "ticks": 58569
            },
            {
              "number": 7,
              "value": 0.5196850393700787,
              "time": 216.61576684375,
              "ticks": 58573
            },
            {
              "number": 7,
              "value": 0.5118110236220472,
              "time": 216.65644725,
              "ticks": 58584
            },
            {
              "number": 7,
              "value": 0.5039370078740157,
              "time": 216.759997375,
              "ticks": 58612
            },
            {
              "number": 7,
              "value": 0.49606299212598426,
              "time": 216.81547065625,
              "ticks": 58627
            },
            {
              "number": 7,
              "value": 0.4881889763779528,
              "time": 216.99298515625,
              "ticks": 58675
            },
            {
              "number": 7,
              "value": 0.48031496062992124,
              "time": 217.22597293750002,
              "ticks": 58738
            },
            {
              "number": 7,
              "value": 0.47244094488188976,
              "time": 217.31103196875003,
              "ticks": 58761
            },
            {
              "number": 7,
              "value": 0.4645669291338583,
              "time": 217.4330731875,
              "ticks": 58794
            },
            {
              "number": 7,
              "value": 0.4566929133858268,
              "time": 217.54771796875002,
              "ticks": 58825
            },
            {
              "number": 7,
              "value": 0.44881889763779526,
              "time": 217.71043959375,
              "ticks": 58869
            },
            {
              "number": 7,
              "value": 0.4409448818897638,
              "time": 217.854670125,
              "ticks": 58908
            },
            {
              "number": 7,
              "value": 0.4330708661417323,
              "time": 217.95082381250003,
              "ticks": 58934
            },
            {
              "number": 7,
              "value": 0.4251968503937008,
              "time": 218.00629709375005,
              "ticks": 58949
            },
            {
              "number": 7,
              "value": 0.41732283464566927,
              "time": 218.08395968750003,
              "ticks": 58970
            },
            {
              "number": 7,
              "value": 0.4094488188976378,
              "time": 218.29475815625003,
              "ticks": 59027
            },
            {
              "number": 7,
              "value": 0.4015748031496063,
              "time": 218.4020065,
              "ticks": 59056
            },
            {
              "number": 7,
              "value": 0.3937007874015748,
              "time": 218.50185840625002,
              "ticks": 59083
            },
            {
              "number": 7,
              "value": 0.3858267716535433,
              "time": 218.53884059375002,
              "ticks": 59093
            },
            {
              "number": 7,
              "value": 0.3779527559055118,
              "time": 218.60540853125005,
              "ticks": 59111
            },
            {
              "number": 7,
              "value": 0.3700787401574803,
              "time": 218.76813015625,
              "ticks": 59155
            },
            {
              "number": 7,
              "value": 0.36220472440944884,
              "time": 218.83469809375,
              "ticks": 59173
            },
            {
              "number": 7,
              "value": 0.3543307086614173,
              "time": 218.91605890625004,
              "ticks": 59195
            },
            {
              "number": 7,
              "value": 0.3464566929133858,
              "time": 218.98262684375004,
              "ticks": 59213
            },
            {
              "number": 7,
              "value": 0.33858267716535434,
              "time": 219.03440190625,
              "ticks": 59227
            },
            {
              "number": 7,
              "value": 0.33070866141732286,
              "time": 219.18602887500003,
              "ticks": 59268
            },
            {
              "number": 7,
              "value": 0.3228346456692913,
              "time": 219.2230110625,
              "ticks": 59278
            },
            {
              "number": 7,
              "value": 0.31496062992125984,
              "time": 219.26369146875,
              "ticks": 59289
            },
            {
              "number": 7,
              "value": 0.30708661417322836,
              "time": 219.3561469375,
              "ticks": 59314
            },
            {
              "number": 7,
              "value": 0.2992125984251969,
              "time": 219.41531843750005,
              "ticks": 59330
            },
            {
              "number": 7,
              "value": 0.29133858267716534,
              "time": 219.45599884375002,
              "ticks": 59341
            },
            {
              "number": 7,
              "value": 0.28346456692913385,
              "time": 219.51886856250002,
              "ticks": 59358
            },
            {
              "number": 7,
              "value": 0.2755905511811024,
              "time": 219.688986625,
              "ticks": 59404
            },
            {
              "number": 7,
              "value": 0.2677165354330709,
              "time": 219.75925278125004,
              "ticks": 59423
            },
            {
              "number": 7,
              "value": 0.25984251968503935,
              "time": 219.85540646875,
              "ticks": 59449
            },
            {
              "number": 7,
              "value": 0.25196850393700787,
              "time": 219.94786193750005,
              "ticks": 59474
            },
            {
              "number": 7,
              "value": 0.2440944881889764,
              "time": 220.04031740625,
              "ticks": 59499
            },
            {
              "number": 7,
              "value": 0.23622047244094488,
              "time": 220.14756575000004,
              "ticks": 59528
            },
            {
              "number": 7,
              "value": 0.2283464566929134,
              "time": 220.25481409375,
              "ticks": 59557
            },
            {
              "number": 7,
              "value": 0.2204724409448819,
              "time": 220.29919271875002,
              "ticks": 59569
            },
            {
              "number": 7,
              "value": 0.2125984251968504,
              "time": 220.428630375,
              "ticks": 59604
            },
            {
              "number": 7,
              "value": 0.2047244094488189,
              "time": 220.49889653125,
              "ticks": 59623
            },
            {
              "number": 7,
              "value": 0.1968503937007874,
              "time": 220.5543698125,
              "ticks": 59638
            },
            {
              "number": 7,
              "value": 0.1889763779527559,
              "time": 220.57655912500002,
              "ticks": 59644
            },
            {
              "number": 7,
              "value": 0.18110236220472442,
              "time": 220.66901459375003,
              "ticks": 59669
            },
            {
              "number": 7,
              "value": 0.1732283464566929,
              "time": 220.69860034375,
              "ticks": 59677
            },
            {
              "number": 7,
              "value": 0.16535433070866143,
              "time": 220.73928075000003,
              "ticks": 59688
            },
            {
              "number": 7,
              "value": 0.15748031496062992,
              "time": 220.76886650000003,
              "ticks": 59696
            },
            {
              "number": 7,
              "value": 0.14960629921259844,
              "time": 220.80954690625,
              "ticks": 59707
            },
            {
              "number": 7,
              "value": 0.14173228346456693,
              "time": 220.83543443750003,
              "ticks": 59714
            },
            {
              "number": 7,
              "value": 0.13385826771653545,
              "time": 220.86502018750002,
              "ticks": 59722
            },
            {
              "number": 7,
              "value": 0.12598425196850394,
              "time": 220.9537774375,
              "ticks": 59746
            },
            {
              "number": 7,
              "value": 0.11811023622047244,
              "time": 221.02404359375004,
              "ticks": 59765
            },
            {
              "number": 7,
              "value": 0.11023622047244094,
              "time": 221.09061153125003,
              "ticks": 59783
            },
            {
              "number": 7,
              "value": 0.10236220472440945,
              "time": 221.1312919375,
              "ticks": 59794
            },
            {
              "number": 7,
              "value": 0.09448818897637795,
              "time": 221.18676521875,
              "ticks": 59809
            },
            {
              "number": 7,
              "value": 0.08661417322834646,
              "time": 221.30510821875004,
              "ticks": 59841
            },
            {
              "number": 7,
              "value": 0.07874015748031496,
              "time": 221.34948684375001,
              "ticks": 59853
            },
            {
              "number": 7,
              "value": 0.07086614173228346,
              "time": 221.375374375,
              "ticks": 59860
            },
            {
              "number": 7,
              "value": 0.06299212598425197,
              "time": 221.50481203125003,
              "ticks": 59895
            },
            {
              "number": 7,
              "value": 0.05511811023622047,
              "time": 221.51960490625,
              "ticks": 59899
            },
            {
              "number": 7,
              "value": 0.047244094488188976,
              "time": 221.53809600000002,
              "ticks": 59904
            },
            {
              "number": 7,
              "value": 0.03937007874015748,
              "time": 221.552888875,
              "ticks": 59908
            },
            {
              "number": 7,
              "value": 0.031496062992125984,
              "time": 221.57877640625003,
              "ticks": 59915
            },
            {
              "number": 7,
              "value": 0.023622047244094488,
              "time": 221.60466393750002,
              "ticks": 59922
            },
            {
              "number": 7,
              "value": 0.015748031496062992,
              "time": 221.76368734375,
              "ticks": 59965
            },
            {
              "number": 7,
              "value": 0.007874015748031496,
              "time": 221.82285884375003,
              "ticks": 59981
            },
            {
              "number": 7,
              "value": 0,
              "time": 221.86353925,
              "ticks": 59992
            },
            {
              "number": 7,
              "value": 0.8740157480314961,
              "time": 223.54622878125002,
              "ticks": 60447
            }
          ],
          "10": [
            {
              "number": 10,
              "value": 0.31496062992125984,
              "time": 0,
              "ticks": 0
            }
          ],
          "64": [
            {
              "number": 64,
              "value": 0,
              "time": 224.80732137500004,
              "ticks": 60788
            }
          ]
        }
      },
      {
        "name": "String Sect 3       ",
        "channel": 0,
        "instrument": {
          "number": 49,
          "name": "string ensemble 2",
          "family": "ensemble"
        },
        "notes": [
          {
            "time": 12.714476062500001,
            "midi": 62,
            "name": "D4",
            "velocity": 1,
            "duration": 5.680464000000001,
            "ticks": 3438,
            "durationTicks": 1536
          },
          {
            "time": 12.714476062500001,
            "midi": 59,
            "name": "B3",
            "velocity": 1,
            "duration": 5.680464000000001,
            "ticks": 3438,
            "durationTicks": 1536
          },
          {
            "time": 12.714476062500001,
            "midi": 54,
            "name": "F#3",
            "velocity": 0.9212598425196851,
            "duration": 5.680464000000001,
            "ticks": 3438,
            "durationTicks": 1536
          },
          {
            "time": 18.413431156250002,
            "midi": 74,
            "name": "D5",
            "velocity": 1,
            "duration": 1.405323124999999,
            "ticks": 4979,
            "durationTicks": 380
          },
          {
            "time": 18.413431156250002,
            "midi": 78,
            "name": "F#5",
            "velocity": 1,
            "duration": 1.405323124999999,
            "ticks": 4979,
            "durationTicks": 380
          },
          {
            "time": 18.413431156250002,
            "midi": 71,
            "name": "B4",
            "velocity": 0.7874015748031497,
            "duration": 1.405323124999999,
            "ticks": 4979,
            "durationTicks": 380
          },
          {
            "time": 19.833547156250003,
            "midi": 76,
            "name": "E5",
            "velocity": 0.952755905511811,
            "duration": 1.4090213437500019,
            "ticks": 5363,
            "durationTicks": 381
          },
          {
            "time": 19.833547156250003,
            "midi": 71,
            "name": "B4",
            "velocity": 0.952755905511811,
            "duration": 1.4090213437500019,
            "ticks": 5363,
            "durationTicks": 381
          },
          {
            "time": 19.837245375000002,
            "midi": 80,
            "name": "G#5",
            "velocity": 1,
            "duration": 1.4053231250000024,
            "ticks": 5364,
            "durationTicks": 380
          },
          {
            "time": 21.26105959375,
            "midi": 76,
            "name": "E5",
            "velocity": 1,
            "duration": 1.4053231250000024,
            "ticks": 5749,
            "durationTicks": 380
          },
          {
            "time": 21.26105959375,
            "midi": 81,
            "name": "A5",
            "velocity": 1,
            "duration": 1.4053231250000024,
            "ticks": 5749,
            "durationTicks": 380
          },
          {
            "time": 21.264757812500005,
            "midi": 73,
            "name": "C#5",
            "velocity": 1,
            "duration": 1.4016249062499995,
            "ticks": 5750,
            "durationTicks": 379
          },
          {
            "time": 22.684873812500005,
            "midi": 78,
            "name": "F#5",
            "velocity": 1,
            "duration": 1.405323124999999,
            "ticks": 6134,
            "durationTicks": 380
          },
          {
            "time": 22.684873812500005,
            "midi": 74,
            "name": "D5",
            "velocity": 1,
            "duration": 1.405323124999999,
            "ticks": 6134,
            "durationTicks": 380
          },
          {
            "time": 22.688572031250004,
            "midi": 81,
            "name": "A5",
            "velocity": 1,
            "duration": 1.4016249062499995,
            "ticks": 6135,
            "durationTicks": 379
          },
          {
            "time": 24.112386250000004,
            "midi": 74,
            "name": "D5",
            "velocity": 1,
            "duration": 1.401624906249996,
            "ticks": 6520,
            "durationTicks": 379
          },
          {
            "time": 24.112386250000004,
            "midi": 78,
            "name": "F#5",
            "velocity": 1,
            "duration": 1.401624906249996,
            "ticks": 6520,
            "durationTicks": 379
          },
          {
            "time": 24.112386250000004,
            "midi": 71,
            "name": "B4",
            "velocity": 0.7874015748031497,
            "duration": 1.401624906249996,
            "ticks": 6520,
            "durationTicks": 379
          },
          {
            "time": 25.532502250000004,
            "midi": 76,
            "name": "E5",
            "velocity": 0.952755905511811,
            "duration": 1.4090213437500019,
            "ticks": 6904,
            "durationTicks": 381
          },
          {
            "time": 25.532502250000004,
            "midi": 71,
            "name": "B4",
            "velocity": 0.952755905511811,
            "duration": 1.4090213437500019,
            "ticks": 6904,
            "durationTicks": 381
          },
          {
            "time": 25.53620046875,
            "midi": 80,
            "name": "G#5",
            "velocity": 1,
            "duration": 1.405323125000006,
            "ticks": 6905,
            "durationTicks": 380
          },
          {
            "time": 26.960014687500003,
            "midi": 76,
            "name": "E5",
            "velocity": 1,
            "duration": 1.405323124999999,
            "ticks": 7290,
            "durationTicks": 380
          },
          {
            "time": 26.960014687500003,
            "midi": 81,
            "name": "A5",
            "velocity": 1,
            "duration": 1.405323124999999,
            "ticks": 7290,
            "durationTicks": 380
          },
          {
            "time": 26.963712906250006,
            "midi": 73,
            "name": "C#5",
            "velocity": 1,
            "duration": 1.401624906249996,
            "ticks": 7291,
            "durationTicks": 379
          },
          {
            "time": 28.383828906250006,
            "midi": 78,
            "name": "F#5",
            "velocity": 1,
            "duration": 1.405323124999999,
            "ticks": 7675,
            "durationTicks": 380
          },
          {
            "time": 28.383828906250006,
            "midi": 74,
            "name": "D5",
            "velocity": 1,
            "duration": 1.405323124999999,
            "ticks": 7675,
            "durationTicks": 380
          },
          {
            "time": 28.383828906250006,
            "midi": 81,
            "name": "A5",
            "velocity": 1,
            "duration": 1.405323124999999,
            "ticks": 7675,
            "durationTicks": 380
          },
          {
            "time": 29.811341343750005,
            "midi": 74,
            "name": "D5",
            "velocity": 1,
            "duration": 1.4016249062499995,
            "ticks": 8061,
            "durationTicks": 379
          },
          {
            "time": 29.811341343750005,
            "midi": 78,
            "name": "F#5",
            "velocity": 1,
            "duration": 1.4016249062499995,
            "ticks": 8061,
            "durationTicks": 379
          },
          {
            "time": 29.815039562500004,
            "midi": 71,
            "name": "B4",
            "velocity": 0.8503937007874016,
            "duration": 1.3979266875,
            "ticks": 8062,
            "durationTicks": 378
          },
          {
            "time": 31.235155562500005,
            "midi": 76,
            "name": "E5",
            "velocity": 1,
            "duration": 1.4016249062499995,
            "ticks": 8446,
            "durationTicks": 379
          },
          {
            "time": 31.235155562500005,
            "midi": 71,
            "name": "B4",
            "velocity": 1,
            "duration": 1.4016249062499995,
            "ticks": 8446,
            "durationTicks": 379
          },
          {
            "time": 31.235155562500005,
            "midi": 80,
            "name": "G#5",
            "velocity": 1,
            "duration": 1.4016249062499995,
            "ticks": 8446,
            "durationTicks": 379
          },
          {
            "time": 32.65896978125,
            "midi": 74,
            "name": "D5",
            "velocity": 1,
            "duration": 1.4053231250000024,
            "ticks": 8831,
            "durationTicks": 380
          },
          {
            "time": 32.65896978125,
            "midi": 78,
            "name": "F#5",
            "velocity": 1,
            "duration": 1.4053231250000024,
            "ticks": 8831,
            "durationTicks": 380
          },
          {
            "time": 32.662668000000004,
            "midi": 71,
            "name": "B4",
            "velocity": 1,
            "duration": 1.4016249062499995,
            "ticks": 8832,
            "durationTicks": 379
          },
          {
            "time": 34.082784000000004,
            "midi": 76,
            "name": "E5",
            "velocity": 1,
            "duration": 1.4053231249999953,
            "ticks": 9216,
            "durationTicks": 380
          },
          {
            "time": 34.082784000000004,
            "midi": 71,
            "name": "B4",
            "velocity": 1,
            "duration": 1.4053231249999953,
            "ticks": 9216,
            "durationTicks": 380
          },
          {
            "time": 34.082784000000004,
            "midi": 80,
            "name": "G#5",
            "velocity": 1,
            "duration": 1.4053231249999953,
            "ticks": 9216,
            "durationTicks": 380
          },
          {
            "time": 35.50659821875001,
            "midi": 59,
            "name": "B3",
            "velocity": 1,
            "duration": 1.4053231249999953,
            "ticks": 9601,
            "durationTicks": 380
          },
          {
            "time": 35.50659821875001,
            "midi": 66,
            "name": "F#4",
            "velocity": 1,
            "duration": 1.4053231249999953,
            "ticks": 9601,
            "durationTicks": 380
          },
          {
            "time": 35.5102964375,
            "midi": 62,
            "name": "D4",
            "velocity": 1,
            "duration": 1.4016249062499995,
            "ticks": 9602,
            "durationTicks": 379
          },
          {
            "time": 36.9304124375,
            "midi": 68,
            "name": "G#4",
            "velocity": 1,
            "duration": 1.4053231250000024,
            "ticks": 9986,
            "durationTicks": 380
          },
          {
            "time": 36.9304124375,
            "midi": 59,
            "name": "B3",
            "velocity": 0.9448818897637795,
            "duration": 1.4053231250000024,
            "ticks": 9986,
            "durationTicks": 380
          },
          {
            "time": 36.934110656250006,
            "midi": 64,
            "name": "E4",
            "velocity": 1,
            "duration": 1.4016249062499995,
            "ticks": 9987,
            "durationTicks": 379
          },
          {
            "time": 38.354226656250006,
            "midi": 57,
            "name": "A3",
            "velocity": 1,
            "duration": 1.4053231249999953,
            "ticks": 10371,
            "durationTicks": 380
          },
          {
            "time": 38.354226656250006,
            "midi": 64,
            "name": "E4",
            "velocity": 1,
            "duration": 1.4127195625000013,
            "ticks": 10371,
            "durationTicks": 382
          },
          {
            "time": 38.35792487500001,
            "midi": 61,
            "name": "C#4",
            "velocity": 1,
            "duration": 1.4016249062499924,
            "ticks": 10372,
            "durationTicks": 379
          },
          {
            "time": 39.77804087500001,
            "midi": 62,
            "name": "D4",
            "velocity": 1,
            "duration": 1.4090213437499983,
            "ticks": 10756,
            "durationTicks": 381
          },
          {
            "time": 39.77804087500001,
            "midi": 66,
            "name": "F#4",
            "velocity": 1,
            "duration": 1.4090213437499983,
            "ticks": 10756,
            "durationTicks": 381
          },
          {
            "time": 39.781739093750005,
            "midi": 57,
            "name": "A3",
            "velocity": 0.9606299212598425,
            "duration": 1.4053231250000024,
            "ticks": 10757,
            "durationTicks": 380
          },
          {
            "time": 41.2055533125,
            "midi": 59,
            "name": "B3",
            "velocity": 1,
            "duration": 1.4053231250000024,
            "ticks": 11142,
            "durationTicks": 380
          },
          {
            "time": 41.2055533125,
            "midi": 66,
            "name": "F#4",
            "velocity": 1,
            "duration": 1.4053231250000024,
            "ticks": 11142,
            "durationTicks": 380
          },
          {
            "time": 41.2055533125,
            "midi": 62,
            "name": "D4",
            "velocity": 1,
            "duration": 1.4053231250000024,
            "ticks": 11142,
            "durationTicks": 380
          },
          {
            "time": 42.629367531250004,
            "midi": 68,
            "name": "G#4",
            "velocity": 1,
            "duration": 1.4053231250000024,
            "ticks": 11527,
            "durationTicks": 380
          },
          {
            "time": 42.629367531250004,
            "midi": 59,
            "name": "B3",
            "velocity": 0.9448818897637795,
            "duration": 1.4053231250000024,
            "ticks": 11527,
            "durationTicks": 380
          },
          {
            "time": 42.63306575,
            "midi": 64,
            "name": "E4",
            "velocity": 1,
            "duration": 1.4016249062500066,
            "ticks": 11528,
            "durationTicks": 379
          },
          {
            "time": 44.05318175,
            "midi": 57,
            "name": "A3",
            "velocity": 1,
            "duration": 1.4053231250000024,
            "ticks": 11912,
            "durationTicks": 380
          },
          {
            "time": 44.05318175,
            "midi": 64,
            "name": "E4",
            "velocity": 1,
            "duration": 1.4053231250000024,
            "ticks": 11912,
            "durationTicks": 380
          },
          {
            "time": 44.05687996875,
            "midi": 61,
            "name": "C#4",
            "velocity": 1,
            "duration": 1.4016249062499995,
            "ticks": 11913,
            "durationTicks": 379
          },
          {
            "time": 45.47699596875,
            "midi": 62,
            "name": "D4",
            "velocity": 1,
            "duration": 1.4053231250000024,
            "ticks": 12297,
            "durationTicks": 380
          },
          {
            "time": 45.47699596875,
            "midi": 66,
            "name": "F#4",
            "velocity": 1,
            "duration": 1.4053231250000024,
            "ticks": 12297,
            "durationTicks": 380
          },
          {
            "time": 45.4806941875,
            "midi": 57,
            "name": "A3",
            "velocity": 0.9606299212598425,
            "duration": 1.4016249062500066,
            "ticks": 12298,
            "durationTicks": 379
          },
          {
            "time": 46.9008101875,
            "midi": 59,
            "name": "B3",
            "velocity": 1,
            "duration": 1.4053231250000024,
            "ticks": 12682,
            "durationTicks": 380
          },
          {
            "time": 46.9008101875,
            "midi": 62,
            "name": "D4",
            "velocity": 1,
            "duration": 1.4090213437500054,
            "ticks": 12682,
            "durationTicks": 381
          },
          {
            "time": 46.90450840625001,
            "midi": 66,
            "name": "F#4",
            "velocity": 1,
            "duration": 1.4053231249999953,
            "ticks": 12683,
            "durationTicks": 380
          },
          {
            "time": 48.32462440625001,
            "midi": 64,
            "name": "E4",
            "velocity": 1,
            "duration": 1.4090213437499983,
            "ticks": 13067,
            "durationTicks": 381
          },
          {
            "time": 48.32462440625001,
            "midi": 59,
            "name": "B3",
            "velocity": 1,
            "duration": 1.4090213437499983,
            "ticks": 13067,
            "durationTicks": 381
          },
          {
            "time": 48.328322625000006,
            "midi": 68,
            "name": "G#4",
            "velocity": 1,
            "duration": 1.4053231250000024,
            "ticks": 13068,
            "durationTicks": 380
          },
          {
            "time": 49.748438625000006,
            "midi": 61,
            "name": "C#4",
            "velocity": 1,
            "duration": 1.4090213437499983,
            "ticks": 13452,
            "durationTicks": 381
          },
          {
            "time": 49.748438625000006,
            "midi": 66,
            "name": "F#4",
            "velocity": 1,
            "duration": 1.4090213437499983,
            "ticks": 13452,
            "durationTicks": 381
          },
          {
            "time": 49.75213684375,
            "midi": 69,
            "name": "A4",
            "velocity": 1,
            "duration": 1.4053231250000024,
            "ticks": 13453,
            "durationTicks": 380
          },
          {
            "time": 51.17595106250001,
            "midi": 62,
            "name": "D4",
            "velocity": 1,
            "duration": 1.4053231249999882,
            "ticks": 13838,
            "durationTicks": 380
          },
          {
            "time": 51.17595106250001,
            "midi": 66,
            "name": "F#4",
            "velocity": 1,
            "duration": 1.4053231249999882,
            "ticks": 13838,
            "durationTicks": 380
          },
          {
            "time": 51.17964928125001,
            "midi": 69,
            "name": "A4",
            "velocity": 1,
            "duration": 1.4016249062499924,
            "ticks": 13839,
            "durationTicks": 379
          },
          {
            "time": 52.603463500000004,
            "midi": 61,
            "name": "C#4",
            "velocity": 1,
            "duration": 1.4053231250000024,
            "ticks": 14224,
            "durationTicks": 380
          },
          {
            "time": 52.603463500000004,
            "midi": 69,
            "name": "A4",
            "velocity": 1,
            "duration": 1.4053231250000024,
            "ticks": 14224,
            "durationTicks": 380
          },
          {
            "time": 52.603463500000004,
            "midi": 64,
            "name": "E4",
            "velocity": 1,
            "duration": 2.8291373437499985,
            "ticks": 14224,
            "durationTicks": 765
          },
          {
            "time": 54.023579500000004,
            "midi": 68,
            "name": "G#4",
            "velocity": 1,
            "duration": 1.4090213437499983,
            "ticks": 14608,
            "durationTicks": 381
          },
          {
            "time": 54.023579500000004,
            "midi": 59,
            "name": "B3",
            "velocity": 1,
            "duration": 1.4090213437499983,
            "ticks": 14608,
            "durationTicks": 381
          },
          {
            "time": 55.44739371875001,
            "midi": 69,
            "name": "A4",
            "velocity": 1,
            "duration": 2.8328355625000015,
            "ticks": 14993,
            "durationTicks": 766
          },
          {
            "time": 55.44739371875001,
            "midi": 61,
            "name": "C#4",
            "velocity": 1,
            "duration": 2.8328355625000015,
            "ticks": 14993,
            "durationTicks": 766
          },
          {
            "time": 55.4510919375,
            "midi": 66,
            "name": "F#4",
            "velocity": 1,
            "duration": 2.8291373437500056,
            "ticks": 14994,
            "durationTicks": 765
          },
          {
            "time": 58.29872037500001,
            "midi": 64,
            "name": "E4",
            "velocity": 1,
            "duration": 1.4090213437499983,
            "ticks": 15764,
            "durationTicks": 381
          },
          {
            "time": 58.29872037500001,
            "midi": 73,
            "name": "C#5",
            "velocity": 1,
            "duration": 1.4090213437499983,
            "ticks": 15764,
            "durationTicks": 381
          },
          {
            "time": 58.302418593750005,
            "midi": 69,
            "name": "A4",
            "velocity": 1,
            "duration": 1.4053231250000024,
            "ticks": 15765,
            "durationTicks": 380
          },
          {
            "time": 59.722534593750005,
            "midi": 71,
            "name": "B4",
            "velocity": 0.937007874015748,
            "duration": 1.4053231250000024,
            "ticks": 16149,
            "durationTicks": 380
          },
          {
            "time": 59.722534593750005,
            "midi": 68,
            "name": "G#4",
            "velocity": 1,
            "duration": 1.4053231250000024,
            "ticks": 16149,
            "durationTicks": 380
          },
          {
            "time": 59.722534593750005,
            "midi": 76,
            "name": "E5",
            "velocity": 1,
            "duration": 1.4053231250000024,
            "ticks": 16149,
            "durationTicks": 380
          },
          {
            "time": 61.1463488125,
            "midi": 78,
            "name": "F#5",
            "velocity": 1,
            "duration": 2.8328355625000086,
            "ticks": 16534,
            "durationTicks": 766
          },
          {
            "time": 61.1463488125,
            "midi": 73,
            "name": "C#5",
            "velocity": 1,
            "duration": 2.8328355625000086,
            "ticks": 16534,
            "durationTicks": 766
          },
          {
            "time": 61.1463488125,
            "midi": 69,
            "name": "A4",
            "velocity": 1,
            "duration": 2.8328355625000086,
            "ticks": 16534,
            "durationTicks": 766
          },
          {
            "time": 63.99767546875,
            "midi": 49,
            "name": "C#3",
            "velocity": 1,
            "duration": 1.4053231250000096,
            "ticks": 17305,
            "durationTicks": 380
          },
          {
            "time": 63.99767546875,
            "midi": 61,
            "name": "C#4",
            "velocity": 1,
            "duration": 1.4053231250000096,
            "ticks": 17305,
            "durationTicks": 380
          },
          {
            "time": 65.41779146875001,
            "midi": 52,
            "name": "E3",
            "velocity": 1,
            "duration": 1.4090213437499983,
            "ticks": 17689,
            "durationTicks": 381
          },
          {
            "time": 65.41779146875001,
            "midi": 64,
            "name": "E4",
            "velocity": 1,
            "duration": 1.4090213437499983,
            "ticks": 17689,
            "durationTicks": 381
          },
          {
            "time": 66.8416056875,
            "midi": 54,
            "name": "F#3",
            "velocity": 1,
            "duration": 2.8328355624999944,
            "ticks": 18074,
            "durationTicks": 766
          },
          {
            "time": 66.84530390625001,
            "midi": 66,
            "name": "F#4",
            "velocity": 1,
            "duration": 2.8291373437499914,
            "ticks": 18075,
            "durationTicks": 765
          },
          {
            "time": 75.3918874375,
            "midi": 59,
            "name": "B3",
            "velocity": 1,
            "duration": 1.4053231250000096,
            "ticks": 20386,
            "durationTicks": 380
          },
          {
            "time": 75.3918874375,
            "midi": 66,
            "name": "F#4",
            "velocity": 1,
            "duration": 1.4053231250000096,
            "ticks": 20386,
            "durationTicks": 380
          },
          {
            "time": 75.39558565625,
            "midi": 62,
            "name": "D4",
            "velocity": 1,
            "duration": 1.4016249062500066,
            "ticks": 20387,
            "durationTicks": 379
          },
          {
            "time": 76.81570165625001,
            "midi": 68,
            "name": "G#4",
            "velocity": 1,
            "duration": 1.4053231249999953,
            "ticks": 20771,
            "durationTicks": 380
          },
          {
            "time": 76.81570165625001,
            "midi": 59,
            "name": "B3",
            "velocity": 0.9448818897637795,
            "duration": 1.4053231249999953,
            "ticks": 20771,
            "durationTicks": 380
          },
          {
            "time": 76.819399875,
            "midi": 64,
            "name": "E4",
            "velocity": 1,
            "duration": 1.4016249062500066,
            "ticks": 20772,
            "durationTicks": 379
          },
          {
            "time": 78.23951587500001,
            "midi": 57,
            "name": "A3",
            "velocity": 1,
            "duration": 1.4053231250000096,
            "ticks": 21156,
            "durationTicks": 380
          },
          {
            "time": 78.23951587500001,
            "midi": 64,
            "name": "E4",
            "velocity": 1,
            "duration": 1.4053231250000096,
            "ticks": 21156,
            "durationTicks": 380
          },
          {
            "time": 78.24321409375001,
            "midi": 61,
            "name": "C#4",
            "velocity": 1,
            "duration": 1.4016249062500066,
            "ticks": 21157,
            "durationTicks": 379
          },
          {
            "time": 79.66333009375,
            "midi": 62,
            "name": "D4",
            "velocity": 1,
            "duration": 1.4090213437499983,
            "ticks": 21541,
            "durationTicks": 381
          },
          {
            "time": 79.66702831250001,
            "midi": 66,
            "name": "F#4",
            "velocity": 1,
            "duration": 1.4053231249999953,
            "ticks": 21542,
            "durationTicks": 380
          },
          {
            "time": 79.66702831250001,
            "midi": 57,
            "name": "A3",
            "velocity": 0.9606299212598425,
            "duration": 1.4053231249999953,
            "ticks": 21542,
            "durationTicks": 380
          },
          {
            "time": 81.09084253125,
            "midi": 59,
            "name": "B3",
            "velocity": 1,
            "duration": 1.4053231250000096,
            "ticks": 21927,
            "durationTicks": 380
          },
          {
            "time": 81.09084253125,
            "midi": 66,
            "name": "F#4",
            "velocity": 1,
            "duration": 1.4053231250000096,
            "ticks": 21927,
            "durationTicks": 380
          },
          {
            "time": 81.09084253125,
            "midi": 62,
            "name": "D4",
            "velocity": 1,
            "duration": 1.4053231250000096,
            "ticks": 21927,
            "durationTicks": 380
          },
          {
            "time": 82.51465675,
            "midi": 68,
            "name": "G#4",
            "velocity": 1,
            "duration": 1.4053231250000096,
            "ticks": 22312,
            "durationTicks": 380
          },
          {
            "time": 82.51465675,
            "midi": 59,
            "name": "B3",
            "velocity": 0.9448818897637795,
            "duration": 1.4053231250000096,
            "ticks": 22312,
            "durationTicks": 380
          },
          {
            "time": 82.51465675,
            "midi": 64,
            "name": "E4",
            "velocity": 1,
            "duration": 1.4053231250000096,
            "ticks": 22312,
            "durationTicks": 380
          },
          {
            "time": 83.93847096875001,
            "midi": 57,
            "name": "A3",
            "velocity": 1,
            "duration": 1.4053231249999953,
            "ticks": 22697,
            "durationTicks": 380
          },
          {
            "time": 83.93847096875001,
            "midi": 64,
            "name": "E4",
            "velocity": 1,
            "duration": 1.4053231249999953,
            "ticks": 22697,
            "durationTicks": 380
          },
          {
            "time": 83.94216918750001,
            "midi": 61,
            "name": "C#4",
            "velocity": 1,
            "duration": 1.4016249062499924,
            "ticks": 22698,
            "durationTicks": 379
          },
          {
            "time": 85.3622851875,
            "midi": 62,
            "name": "D4",
            "velocity": 1,
            "duration": 1.4053231250000096,
            "ticks": 23082,
            "durationTicks": 380
          },
          {
            "time": 85.3622851875,
            "midi": 66,
            "name": "F#4",
            "velocity": 1,
            "duration": 1.4053231250000096,
            "ticks": 23082,
            "durationTicks": 380
          },
          {
            "time": 85.36598340625001,
            "midi": 57,
            "name": "A3",
            "velocity": 0.9606299212598425,
            "duration": 1.4016249062500066,
            "ticks": 23083,
            "durationTicks": 379
          },
          {
            "time": 86.78609940625,
            "midi": 59,
            "name": "B3",
            "velocity": 1,
            "duration": 1.4053231250000096,
            "ticks": 23467,
            "durationTicks": 380
          },
          {
            "time": 86.78609940625,
            "midi": 62,
            "name": "D4",
            "velocity": 1,
            "duration": 1.4053231250000096,
            "ticks": 23467,
            "durationTicks": 380
          },
          {
            "time": 86.78979762500002,
            "midi": 66,
            "name": "F#4",
            "velocity": 1,
            "duration": 1.4016249062499924,
            "ticks": 23468,
            "durationTicks": 379
          },
          {
            "time": 88.20991362500001,
            "midi": 64,
            "name": "E4",
            "velocity": 1,
            "duration": 1.4090213437499983,
            "ticks": 23852,
            "durationTicks": 381
          },
          {
            "time": 88.21361184375002,
            "midi": 59,
            "name": "B3",
            "velocity": 1,
            "duration": 1.4053231249999953,
            "ticks": 23853,
            "durationTicks": 380
          },
          {
            "time": 88.21361184375002,
            "midi": 68,
            "name": "G#4",
            "velocity": 1,
            "duration": 1.4053231249999953,
            "ticks": 23853,
            "durationTicks": 380
          },
          {
            "time": 89.63372784375001,
            "midi": 61,
            "name": "C#4",
            "velocity": 1,
            "duration": 1.4090213437499983,
            "ticks": 24237,
            "durationTicks": 381
          },
          {
            "time": 89.63742606250001,
            "midi": 66,
            "name": "F#4",
            "velocity": 1,
            "duration": 1.4053231249999953,
            "ticks": 24238,
            "durationTicks": 380
          },
          {
            "time": 89.63742606250001,
            "midi": 69,
            "name": "A4",
            "velocity": 1,
            "duration": 1.4053231249999953,
            "ticks": 24238,
            "durationTicks": 380
          },
          {
            "time": 91.06124028125001,
            "midi": 62,
            "name": "D4",
            "velocity": 1,
            "duration": 1.4053231250000096,
            "ticks": 24623,
            "durationTicks": 380
          },
          {
            "time": 91.06124028125001,
            "midi": 66,
            "name": "F#4",
            "velocity": 1,
            "duration": 1.4053231250000096,
            "ticks": 24623,
            "durationTicks": 380
          },
          {
            "time": 91.06493850000001,
            "midi": 69,
            "name": "A4",
            "velocity": 1,
            "duration": 1.4016249062500066,
            "ticks": 24624,
            "durationTicks": 379
          },
          {
            "time": 92.48875271875002,
            "midi": 61,
            "name": "C#4",
            "velocity": 1,
            "duration": 1.4053231249999953,
            "ticks": 25009,
            "durationTicks": 380
          },
          {
            "time": 92.48875271875002,
            "midi": 69,
            "name": "A4",
            "velocity": 1,
            "duration": 1.4053231249999953,
            "ticks": 25009,
            "durationTicks": 380
          },
          {
            "time": 92.48875271875002,
            "midi": 64,
            "name": "E4",
            "velocity": 1,
            "duration": 2.8291373437499914,
            "ticks": 25009,
            "durationTicks": 765
          },
          {
            "time": 93.90886871875001,
            "midi": 68,
            "name": "G#4",
            "velocity": 1,
            "duration": 1.4090213437499983,
            "ticks": 25393,
            "durationTicks": 381
          },
          {
            "time": 93.90886871875001,
            "midi": 59,
            "name": "B3",
            "velocity": 1,
            "duration": 1.4090213437499983,
            "ticks": 25393,
            "durationTicks": 381
          },
          {
            "time": 95.33268293750001,
            "midi": 69,
            "name": "A4",
            "velocity": 1,
            "duration": 2.8328355624999944,
            "ticks": 25778,
            "durationTicks": 766
          },
          {
            "time": 95.33268293750001,
            "midi": 61,
            "name": "C#4",
            "velocity": 1,
            "duration": 2.8328355624999944,
            "ticks": 25778,
            "durationTicks": 766
          },
          {
            "time": 95.33638115625001,
            "midi": 66,
            "name": "F#4",
            "velocity": 1,
            "duration": 2.8291373437499914,
            "ticks": 25779,
            "durationTicks": 765
          },
          {
            "time": 98.18400959375,
            "midi": 64,
            "name": "E4",
            "velocity": 1,
            "duration": 1.4090213437499983,
            "ticks": 26549,
            "durationTicks": 381
          },
          {
            "time": 98.18400959375,
            "midi": 73,
            "name": "C#5",
            "velocity": 1,
            "duration": 1.4090213437499983,
            "ticks": 26549,
            "durationTicks": 381
          },
          {
            "time": 98.18770781250001,
            "midi": 69,
            "name": "A4",
            "velocity": 1,
            "duration": 1.4053231249999953,
            "ticks": 26550,
            "durationTicks": 380
          },
          {
            "time": 99.60782381250002,
            "midi": 71,
            "name": "B4",
            "velocity": 0.937007874015748,
            "duration": 1.4053231249999953,
            "ticks": 26934,
            "durationTicks": 380
          },
          {
            "time": 99.60782381250002,
            "midi": 68,
            "name": "G#4",
            "velocity": 1,
            "duration": 1.4090213437499983,
            "ticks": 26934,
            "durationTicks": 381
          },
          {
            "time": 99.60782381250002,
            "midi": 76,
            "name": "E5",
            "velocity": 1,
            "duration": 1.4090213437499983,
            "ticks": 26934,
            "durationTicks": 381
          },
          {
            "time": 101.03163803125001,
            "midi": 78,
            "name": "F#5",
            "velocity": 1,
            "duration": 2.8328355624999944,
            "ticks": 27319,
            "durationTicks": 766
          },
          {
            "time": 101.03163803125001,
            "midi": 73,
            "name": "C#5",
            "velocity": 1,
            "duration": 2.8328355624999944,
            "ticks": 27319,
            "durationTicks": 766
          },
          {
            "time": 101.03163803125001,
            "midi": 69,
            "name": "A4",
            "velocity": 1,
            "duration": 2.8328355624999944,
            "ticks": 27319,
            "durationTicks": 766
          },
          {
            "time": 103.88296468750002,
            "midi": 49,
            "name": "C#3",
            "velocity": 1,
            "duration": 1.4053231249999953,
            "ticks": 28090,
            "durationTicks": 380
          },
          {
            "time": 103.88296468750002,
            "midi": 61,
            "name": "C#4",
            "velocity": 1,
            "duration": 1.4053231249999953,
            "ticks": 28090,
            "durationTicks": 380
          },
          {
            "time": 105.30308068750001,
            "midi": 52,
            "name": "E3",
            "velocity": 1,
            "duration": 1.4090213437499983,
            "ticks": 28474,
            "durationTicks": 381
          },
          {
            "time": 105.30308068750001,
            "midi": 64,
            "name": "E4",
            "velocity": 1,
            "duration": 1.4090213437499983,
            "ticks": 28474,
            "durationTicks": 381
          },
          {
            "time": 106.72689490625001,
            "midi": 54,
            "name": "F#3",
            "velocity": 1,
            "duration": 2.8328355625000086,
            "ticks": 28859,
            "durationTicks": 766
          },
          {
            "time": 106.73059312500001,
            "midi": 66,
            "name": "F#4",
            "velocity": 1,
            "duration": 2.8291373437500056,
            "ticks": 28860,
            "durationTicks": 765
          },
          {
            "time": 118.10261578125001,
            "midi": 67,
            "name": "G4",
            "velocity": 1,
            "duration": 1.0724834374999972,
            "ticks": 31935,
            "durationTicks": 290
          },
          {
            "time": 118.10261578125001,
            "midi": 71,
            "name": "B4",
            "velocity": 1,
            "duration": 1.083578093749992,
            "ticks": 31935,
            "durationTicks": 293
          },
          {
            "time": 120.97243353125,
            "midi": 49,
            "name": "C#3",
            "velocity": 1,
            "duration": 2.8328355625000086,
            "ticks": 32711,
            "durationTicks": 766
          },
          {
            "time": 120.97243353125,
            "midi": 37,
            "name": "C#2",
            "velocity": 1,
            "duration": 2.8513266562500093,
            "ticks": 32711,
            "durationTicks": 771
          },
          {
            "time": 120.97613175000001,
            "midi": 61,
            "name": "C#4",
            "velocity": 1,
            "duration": 0.033283968750012605,
            "ticks": 32712,
            "durationTicks": 9
          },
          {
            "time": 121.15364625000001,
            "midi": 61,
            "name": "C#4",
            "velocity": 1,
            "duration": 2.507392312500002,
            "ticks": 32760,
            "durationTicks": 678
          },
          {
            "time": 121.68618975000001,
            "midi": 56,
            "name": "G#3",
            "velocity": 1,
            "duration": 0.684170468749997,
            "ticks": 32904,
            "durationTicks": 185
          },
          {
            "time": 122.39624775000001,
            "midi": 64,
            "name": "E4",
            "velocity": 1,
            "duration": 1.0539923437499965,
            "ticks": 33096,
            "durationTicks": 285
          },
          {
            "time": 123.46503296875002,
            "midi": 68,
            "name": "G#4",
            "velocity": 1,
            "duration": 0.3402361249999899,
            "ticks": 33385,
            "durationTicks": 92
          },
          {
            "time": 123.82376018750001,
            "midi": 43,
            "name": "G2",
            "velocity": 1,
            "duration": 2.8291373437499914,
            "ticks": 33482,
            "durationTicks": 765
          },
          {
            "time": 123.82376018750001,
            "midi": 67,
            "name": "G4",
            "velocity": 1,
            "duration": 2.8291373437499914,
            "ticks": 33482,
            "durationTicks": 765
          },
          {
            "time": 123.82376018750001,
            "midi": 62,
            "name": "D4",
            "velocity": 1,
            "duration": 2.8291373437499914,
            "ticks": 33482,
            "durationTicks": 765
          },
          {
            "time": 123.82745840625002,
            "midi": 31,
            "name": "G1",
            "velocity": 1,
            "duration": 2.8254391249999884,
            "ticks": 33483,
            "durationTicks": 764
          },
          {
            "time": 126.67138862500002,
            "midi": 66,
            "name": "F#4",
            "velocity": 1,
            "duration": 2.8143444687499937,
            "ticks": 34252,
            "durationTicks": 761
          },
          {
            "time": 126.67138862500002,
            "midi": 62,
            "name": "D4",
            "velocity": 1,
            "duration": 2.8143444687499937,
            "ticks": 34252,
            "durationTicks": 761
          },
          {
            "time": 126.67138862500002,
            "midi": 71,
            "name": "B4",
            "velocity": 1,
            "duration": 2.8143444687499937,
            "ticks": 34252,
            "durationTicks": 761
          },
          {
            "time": 126.67508684375001,
            "midi": 47,
            "name": "B2",
            "velocity": 1,
            "duration": 2.8291373437499914,
            "ticks": 34253,
            "durationTicks": 765
          },
          {
            "time": 126.67878506250001,
            "midi": 35,
            "name": "B1",
            "velocity": 1,
            "duration": 2.821740906250014,
            "ticks": 34254,
            "durationTicks": 763
          },
          {
            "time": 129.5190170625,
            "midi": 64,
            "name": "E4",
            "velocity": 1,
            "duration": 2.8180426874999966,
            "ticks": 35022,
            "durationTicks": 762
          },
          {
            "time": 129.52271528125002,
            "midi": 71,
            "name": "B4",
            "velocity": 1,
            "duration": 2.8143444687499937,
            "ticks": 35023,
            "durationTicks": 761
          },
          {
            "time": 129.52271528125002,
            "midi": 52,
            "name": "E3",
            "velocity": 1,
            "duration": 2.8291373437500056,
            "ticks": 35023,
            "durationTicks": 765
          },
          {
            "time": 129.52271528125002,
            "midi": 68,
            "name": "G#4",
            "velocity": 1,
            "duration": 2.8143444687499937,
            "ticks": 35023,
            "durationTicks": 761
          },
          {
            "time": 129.52641350000002,
            "midi": 40,
            "name": "E2",
            "velocity": 1,
            "duration": 2.8254391250000026,
            "ticks": 35024,
            "durationTicks": 764
          },
          {
            "time": 138.0692988125,
            "midi": 74,
            "name": "D5",
            "velocity": 1,
            "duration": 1.4053231250000238,
            "ticks": 37334,
            "durationTicks": 380
          },
          {
            "time": 138.0692988125,
            "midi": 78,
            "name": "F#5",
            "velocity": 1,
            "duration": 1.4053231250000238,
            "ticks": 37334,
            "durationTicks": 380
          },
          {
            "time": 138.07299703125003,
            "midi": 71,
            "name": "B4",
            "velocity": 0.7874015748031497,
            "duration": 1.4016249062499924,
            "ticks": 37335,
            "durationTicks": 379
          },
          {
            "time": 139.49311303125,
            "midi": 76,
            "name": "E5",
            "velocity": 0.952755905511811,
            "duration": 1.4053231249999953,
            "ticks": 37719,
            "durationTicks": 380
          },
          {
            "time": 139.49311303125,
            "midi": 71,
            "name": "B4",
            "velocity": 0.952755905511811,
            "duration": 1.4053231249999953,
            "ticks": 37719,
            "durationTicks": 380
          },
          {
            "time": 139.49311303125,
            "midi": 80,
            "name": "G#5",
            "velocity": 1,
            "duration": 1.4053231249999953,
            "ticks": 37719,
            "durationTicks": 380
          },
          {
            "time": 140.92062546875002,
            "midi": 76,
            "name": "E5",
            "velocity": 1,
            "duration": 1.4016249062499924,
            "ticks": 38105,
            "durationTicks": 379
          },
          {
            "time": 140.92062546875002,
            "midi": 81,
            "name": "A5",
            "velocity": 1,
            "duration": 1.4016249062499924,
            "ticks": 38105,
            "durationTicks": 379
          },
          {
            "time": 140.92062546875002,
            "midi": 73,
            "name": "C#5",
            "velocity": 1,
            "duration": 1.4016249062499924,
            "ticks": 38105,
            "durationTicks": 379
          },
          {
            "time": 142.34074146875,
            "midi": 78,
            "name": "F#5",
            "velocity": 1,
            "duration": 1.4090213437499983,
            "ticks": 38489,
            "durationTicks": 381
          },
          {
            "time": 142.34074146875,
            "midi": 74,
            "name": "D5",
            "velocity": 1,
            "duration": 1.4090213437499983,
            "ticks": 38489,
            "durationTicks": 381
          },
          {
            "time": 142.34443968750003,
            "midi": 81,
            "name": "A5",
            "velocity": 1,
            "duration": 1.405323124999967,
            "ticks": 38490,
            "durationTicks": 380
          },
          {
            "time": 143.76825390625,
            "midi": 74,
            "name": "D5",
            "velocity": 1,
            "duration": 1.4016249062499924,
            "ticks": 38875,
            "durationTicks": 379
          },
          {
            "time": 143.76825390625,
            "midi": 78,
            "name": "F#5",
            "velocity": 1,
            "duration": 1.4016249062499924,
            "ticks": 38875,
            "durationTicks": 379
          },
          {
            "time": 143.76825390625,
            "midi": 71,
            "name": "B4",
            "velocity": 0.7874015748031497,
            "duration": 1.4016249062499924,
            "ticks": 38875,
            "durationTicks": 379
          },
          {
            "time": 145.18836990625002,
            "midi": 76,
            "name": "E5",
            "velocity": 0.952755905511811,
            "duration": 1.4090213437499983,
            "ticks": 39259,
            "durationTicks": 381
          },
          {
            "time": 145.18836990625002,
            "midi": 71,
            "name": "B4",
            "velocity": 0.952755905511811,
            "duration": 1.4090213437499983,
            "ticks": 39259,
            "durationTicks": 381
          },
          {
            "time": 145.19206812500002,
            "midi": 80,
            "name": "G#5",
            "velocity": 1,
            "duration": 1.4053231249999953,
            "ticks": 39260,
            "durationTicks": 380
          },
          {
            "time": 146.61588234375003,
            "midi": 76,
            "name": "E5",
            "velocity": 1,
            "duration": 1.405323124999967,
            "ticks": 39645,
            "durationTicks": 380
          },
          {
            "time": 146.61588234375003,
            "midi": 81,
            "name": "A5",
            "velocity": 1,
            "duration": 1.405323124999967,
            "ticks": 39645,
            "durationTicks": 380
          },
          {
            "time": 146.61958056250003,
            "midi": 73,
            "name": "C#5",
            "velocity": 1,
            "duration": 1.401624906249964,
            "ticks": 39646,
            "durationTicks": 379
          },
          {
            "time": 148.0396965625,
            "midi": 78,
            "name": "F#5",
            "velocity": 1,
            "duration": 1.4090213437499983,
            "ticks": 40030,
            "durationTicks": 381
          },
          {
            "time": 148.0396965625,
            "midi": 74,
            "name": "D5",
            "velocity": 1,
            "duration": 1.4090213437499983,
            "ticks": 40030,
            "durationTicks": 381
          },
          {
            "time": 148.0396965625,
            "midi": 81,
            "name": "A5",
            "velocity": 1,
            "duration": 1.4090213437499983,
            "ticks": 40030,
            "durationTicks": 381
          },
          {
            "time": 149.46720900000003,
            "midi": 74,
            "name": "D5",
            "velocity": 1,
            "duration": 1.4016249062499924,
            "ticks": 40416,
            "durationTicks": 379
          },
          {
            "time": 149.46720900000003,
            "midi": 78,
            "name": "F#5",
            "velocity": 1,
            "duration": 1.4016249062499924,
            "ticks": 40416,
            "durationTicks": 379
          },
          {
            "time": 149.46720900000003,
            "midi": 71,
            "name": "B4",
            "velocity": 0.8503937007874016,
            "duration": 1.4016249062499924,
            "ticks": 40416,
            "durationTicks": 379
          },
          {
            "time": 150.887325,
            "midi": 76,
            "name": "E5",
            "velocity": 1,
            "duration": 1.4053231249999953,
            "ticks": 40800,
            "durationTicks": 380
          },
          {
            "time": 150.887325,
            "midi": 71,
            "name": "B4",
            "velocity": 1,
            "duration": 1.4053231249999953,
            "ticks": 40800,
            "durationTicks": 380
          },
          {
            "time": 150.89102321875004,
            "midi": 80,
            "name": "G#5",
            "velocity": 1,
            "duration": 1.401624906249964,
            "ticks": 40801,
            "durationTicks": 379
          },
          {
            "time": 152.31483743750002,
            "midi": 74,
            "name": "D5",
            "velocity": 1,
            "duration": 1.4053231249999953,
            "ticks": 41186,
            "durationTicks": 380
          },
          {
            "time": 152.31483743750002,
            "midi": 78,
            "name": "F#5",
            "velocity": 1,
            "duration": 1.4053231249999953,
            "ticks": 41186,
            "durationTicks": 380
          },
          {
            "time": 152.31853565625002,
            "midi": 71,
            "name": "B4",
            "velocity": 1,
            "duration": 1.4016249062499924,
            "ticks": 41187,
            "durationTicks": 379
          },
          {
            "time": 153.7349534375,
            "midi": 76,
            "name": "E5",
            "velocity": 1,
            "duration": 1.4090213437500267,
            "ticks": 41570,
            "durationTicks": 381
          },
          {
            "time": 153.73865165625003,
            "midi": 71,
            "name": "B4",
            "velocity": 1,
            "duration": 1.4053231249999953,
            "ticks": 41571,
            "durationTicks": 380
          },
          {
            "time": 153.73865165625003,
            "midi": 80,
            "name": "G#5",
            "velocity": 1,
            "duration": 1.4053231249999953,
            "ticks": 41571,
            "durationTicks": 380
          },
          {
            "time": 155.16246587500004,
            "midi": 59,
            "name": "B3",
            "velocity": 1,
            "duration": 1.405323124999967,
            "ticks": 41956,
            "durationTicks": 380
          },
          {
            "time": 155.16246587500004,
            "midi": 66,
            "name": "F#4",
            "velocity": 1,
            "duration": 1.405323124999967,
            "ticks": 41956,
            "durationTicks": 380
          },
          {
            "time": 155.16616409375,
            "midi": 62,
            "name": "D4",
            "velocity": 1,
            "duration": 1.4016249062499924,
            "ticks": 41957,
            "durationTicks": 379
          },
          {
            "time": 156.58628009375002,
            "midi": 68,
            "name": "G#4",
            "velocity": 1,
            "duration": 1.4053231249999953,
            "ticks": 42341,
            "durationTicks": 380
          },
          {
            "time": 156.58628009375002,
            "midi": 59,
            "name": "B3",
            "velocity": 0.9448818897637795,
            "duration": 1.4053231249999953,
            "ticks": 42341,
            "durationTicks": 380
          },
          {
            "time": 156.58997831250002,
            "midi": 64,
            "name": "E4",
            "velocity": 1,
            "duration": 1.4016249062499924,
            "ticks": 42342,
            "durationTicks": 379
          },
          {
            "time": 158.01009431250003,
            "midi": 57,
            "name": "A3",
            "velocity": 1,
            "duration": 1.405323124999967,
            "ticks": 42726,
            "durationTicks": 380
          },
          {
            "time": 158.01009431250003,
            "midi": 64,
            "name": "E4",
            "velocity": 1,
            "duration": 1.4090213437499983,
            "ticks": 42726,
            "durationTicks": 381
          },
          {
            "time": 158.01379253125003,
            "midi": 61,
            "name": "C#4",
            "velocity": 1,
            "duration": 1.4053231249999953,
            "ticks": 42727,
            "durationTicks": 380
          },
          {
            "time": 159.43390853125,
            "midi": 62,
            "name": "D4",
            "velocity": 1,
            "duration": 1.4090213437500267,
            "ticks": 43111,
            "durationTicks": 381
          },
          {
            "time": 159.43760675000001,
            "midi": 66,
            "name": "F#4",
            "velocity": 1,
            "duration": 1.4053231250000238,
            "ticks": 43112,
            "durationTicks": 380
          },
          {
            "time": 159.43760675000001,
            "midi": 57,
            "name": "A3",
            "velocity": 0.9606299212598425,
            "duration": 1.4053231250000238,
            "ticks": 43112,
            "durationTicks": 380
          },
          {
            "time": 160.86142096875002,
            "midi": 59,
            "name": "B3",
            "velocity": 1,
            "duration": 1.4053231249999953,
            "ticks": 43497,
            "durationTicks": 380
          },
          {
            "time": 160.86142096875002,
            "midi": 66,
            "name": "F#4",
            "velocity": 1,
            "duration": 1.4053231249999953,
            "ticks": 43497,
            "durationTicks": 380
          },
          {
            "time": 160.86142096875002,
            "midi": 62,
            "name": "D4",
            "velocity": 1,
            "duration": 1.4053231249999953,
            "ticks": 43497,
            "durationTicks": 380
          },
          {
            "time": 162.28523518750004,
            "midi": 68,
            "name": "G#4",
            "velocity": 1,
            "duration": 1.4053231249999953,
            "ticks": 43882,
            "durationTicks": 380
          },
          {
            "time": 162.28523518750004,
            "midi": 59,
            "name": "B3",
            "velocity": 0.9448818897637795,
            "duration": 1.4053231249999953,
            "ticks": 43882,
            "durationTicks": 380
          },
          {
            "time": 162.28523518750004,
            "midi": 64,
            "name": "E4",
            "velocity": 1,
            "duration": 1.4053231249999953,
            "ticks": 43882,
            "durationTicks": 380
          },
          {
            "time": 163.70904940625002,
            "midi": 57,
            "name": "A3",
            "velocity": 1,
            "duration": 1.4090213437499983,
            "ticks": 44267,
            "durationTicks": 381
          },
          {
            "time": 163.70904940625002,
            "midi": 64,
            "name": "E4",
            "velocity": 1,
            "duration": 1.4090213437499983,
            "ticks": 44267,
            "durationTicks": 381
          },
          {
            "time": 163.71274762500002,
            "midi": 61,
            "name": "C#4",
            "velocity": 1,
            "duration": 1.4053231249999953,
            "ticks": 44268,
            "durationTicks": 380
          },
          {
            "time": 165.13286362500003,
            "midi": 62,
            "name": "D4",
            "velocity": 1,
            "duration": 1.4127195625000013,
            "ticks": 44652,
            "durationTicks": 382
          },
          {
            "time": 165.13286362500003,
            "midi": 66,
            "name": "F#4",
            "velocity": 1,
            "duration": 1.4127195625000013,
            "ticks": 44652,
            "durationTicks": 382
          },
          {
            "time": 165.13656184375003,
            "midi": 57,
            "name": "A3",
            "velocity": 0.9606299212598425,
            "duration": 1.4090213437499983,
            "ticks": 44653,
            "durationTicks": 381
          },
          {
            "time": 166.55667784375004,
            "midi": 59,
            "name": "B3",
            "velocity": 1,
            "duration": 1.4127195624999729,
            "ticks": 45037,
            "durationTicks": 382
          },
          {
            "time": 166.55667784375004,
            "midi": 62,
            "name": "D4",
            "velocity": 1,
            "duration": 1.4127195624999729,
            "ticks": 45037,
            "durationTicks": 382
          },
          {
            "time": 166.5603760625,
            "midi": 66,
            "name": "F#4",
            "velocity": 1,
            "duration": 1.4090213437499983,
            "ticks": 45038,
            "durationTicks": 381
          },
          {
            "time": 167.98049206250002,
            "midi": 64,
            "name": "E4",
            "velocity": 1,
            "duration": 1.4127195625000013,
            "ticks": 45422,
            "durationTicks": 382
          },
          {
            "time": 167.98419028125002,
            "midi": 59,
            "name": "B3",
            "velocity": 1,
            "duration": 1.4090213437499983,
            "ticks": 45423,
            "durationTicks": 381
          },
          {
            "time": 167.98419028125002,
            "midi": 68,
            "name": "G#4",
            "velocity": 1,
            "duration": 1.4090213437499983,
            "ticks": 45423,
            "durationTicks": 381
          },
          {
            "time": 169.40800450000003,
            "midi": 61,
            "name": "C#4",
            "velocity": 1,
            "duration": 1.4090213437499983,
            "ticks": 45808,
            "durationTicks": 381
          },
          {
            "time": 169.40800450000003,
            "midi": 66,
            "name": "F#4",
            "velocity": 1,
            "duration": 1.4090213437499983,
            "ticks": 45808,
            "durationTicks": 381
          },
          {
            "time": 169.40800450000003,
            "midi": 69,
            "name": "A4",
            "velocity": 1,
            "duration": 1.4090213437499983,
            "ticks": 45808,
            "durationTicks": 381
          },
          {
            "time": 170.83181871875001,
            "midi": 62,
            "name": "D4",
            "velocity": 1,
            "duration": 1.4090213437499983,
            "ticks": 46193,
            "durationTicks": 381
          },
          {
            "time": 170.83181871875001,
            "midi": 66,
            "name": "F#4",
            "velocity": 1,
            "duration": 1.4127195625000013,
            "ticks": 46193,
            "durationTicks": 382
          },
          {
            "time": 170.83551693750002,
            "midi": 69,
            "name": "A4",
            "velocity": 1,
            "duration": 1.4090213437499983,
            "ticks": 46194,
            "durationTicks": 381
          },
          {
            "time": 172.25563293750002,
            "midi": 61,
            "name": "C#4",
            "velocity": 1,
            "duration": 1.4127195625000013,
            "ticks": 46578,
            "durationTicks": 382
          },
          {
            "time": 172.25933115625003,
            "midi": 69,
            "name": "A4",
            "velocity": 1,
            "duration": 1.4090213437499983,
            "ticks": 46579,
            "durationTicks": 381
          },
          {
            "time": 172.25933115625003,
            "midi": 64,
            "name": "E4",
            "velocity": 1,
            "duration": 2.83283556249998,
            "ticks": 46579,
            "durationTicks": 766
          },
          {
            "time": 173.683145375,
            "midi": 68,
            "name": "G#4",
            "velocity": 1,
            "duration": 1.4090213437499983,
            "ticks": 46964,
            "durationTicks": 381
          },
          {
            "time": 173.68684359375,
            "midi": 59,
            "name": "B3",
            "velocity": 1,
            "duration": 1.4053231249999953,
            "ticks": 46965,
            "durationTicks": 380
          },
          {
            "time": 175.10695959375002,
            "midi": 69,
            "name": "A4",
            "velocity": 1,
            "duration": 2.8328355625000086,
            "ticks": 47349,
            "durationTicks": 766
          },
          {
            "time": 175.10695959375002,
            "midi": 61,
            "name": "C#4",
            "velocity": 1,
            "duration": 2.8328355625000086,
            "ticks": 47349,
            "durationTicks": 766
          },
          {
            "time": 175.11065781250002,
            "midi": 66,
            "name": "F#4",
            "velocity": 1,
            "duration": 2.8291373437500056,
            "ticks": 47350,
            "durationTicks": 765
          },
          {
            "time": 177.95828625000001,
            "midi": 64,
            "name": "E4",
            "velocity": 1,
            "duration": 1.4090213437499983,
            "ticks": 48120,
            "durationTicks": 381
          },
          {
            "time": 177.95828625000001,
            "midi": 73,
            "name": "C#5",
            "velocity": 1,
            "duration": 1.4090213437499983,
            "ticks": 48120,
            "durationTicks": 381
          },
          {
            "time": 177.96198446875002,
            "midi": 69,
            "name": "A4",
            "velocity": 1,
            "duration": 1.4053231249999953,
            "ticks": 48121,
            "durationTicks": 380
          },
          {
            "time": 179.38210046875002,
            "midi": 71,
            "name": "B4",
            "velocity": 0.937007874015748,
            "duration": 1.4090213437499983,
            "ticks": 48505,
            "durationTicks": 381
          },
          {
            "time": 179.38210046875002,
            "midi": 68,
            "name": "G#4",
            "velocity": 1,
            "duration": 1.4090213437499983,
            "ticks": 48505,
            "durationTicks": 381
          },
          {
            "time": 179.3857986875,
            "midi": 76,
            "name": "E5",
            "velocity": 1,
            "duration": 1.4053231250000238,
            "ticks": 48506,
            "durationTicks": 380
          },
          {
            "time": 180.8059146875,
            "midi": 78,
            "name": "F#5",
            "velocity": 1,
            "duration": 2.8328355625000086,
            "ticks": 48890,
            "durationTicks": 766
          },
          {
            "time": 180.8059146875,
            "midi": 73,
            "name": "C#5",
            "velocity": 1,
            "duration": 2.8365337812500115,
            "ticks": 48890,
            "durationTicks": 767
          },
          {
            "time": 180.80961290625,
            "midi": 69,
            "name": "A4",
            "velocity": 1,
            "duration": 2.8328355625000086,
            "ticks": 48891,
            "durationTicks": 766
          },
          {
            "time": 183.65724134375003,
            "midi": 49,
            "name": "C#3",
            "velocity": 1,
            "duration": 1.405323124999967,
            "ticks": 49661,
            "durationTicks": 380
          },
          {
            "time": 183.65724134375003,
            "midi": 61,
            "name": "C#4",
            "velocity": 1,
            "duration": 1.405323124999967,
            "ticks": 49661,
            "durationTicks": 380
          },
          {
            "time": 185.07735734375004,
            "midi": 52,
            "name": "E3",
            "velocity": 1,
            "duration": 1.4090213437499983,
            "ticks": 50045,
            "durationTicks": 381
          },
          {
            "time": 185.0810555625,
            "midi": 64,
            "name": "E4",
            "velocity": 1,
            "duration": 1.4053231250000238,
            "ticks": 50046,
            "durationTicks": 380
          },
          {
            "time": 186.50486978125,
            "midi": 54,
            "name": "F#3",
            "velocity": 1,
            "duration": 2.8291373437500056,
            "ticks": 50431,
            "durationTicks": 765
          },
          {
            "time": 186.50486978125,
            "midi": 66,
            "name": "F#4",
            "velocity": 1,
            "duration": 2.8291373437500056,
            "ticks": 50431,
            "durationTicks": 765
          },
          {
            "time": 189.35989465625002,
            "midi": 61,
            "name": "C#4",
            "velocity": 1,
            "duration": 1.4016249062499924,
            "ticks": 51203,
            "durationTicks": 379
          },
          {
            "time": 189.35989465625002,
            "midi": 69,
            "name": "A4",
            "velocity": 1,
            "duration": 1.4016249062499924,
            "ticks": 51203,
            "durationTicks": 379
          },
          {
            "time": 189.35989465625002,
            "midi": 64,
            "name": "E4",
            "velocity": 1,
            "duration": 2.825439124999974,
            "ticks": 51203,
            "durationTicks": 764
          },
          {
            "time": 190.7763124375,
            "midi": 68,
            "name": "G#4",
            "velocity": 1,
            "duration": 1.4090213437499983,
            "ticks": 51586,
            "durationTicks": 381
          },
          {
            "time": 190.78001065625003,
            "midi": 59,
            "name": "B3",
            "velocity": 1,
            "duration": 1.405323124999967,
            "ticks": 51587,
            "durationTicks": 380
          },
          {
            "time": 192.203824875,
            "midi": 69,
            "name": "A4",
            "velocity": 1,
            "duration": 2.8328355625000086,
            "ticks": 51972,
            "durationTicks": 766
          },
          {
            "time": 192.203824875,
            "midi": 61,
            "name": "C#4",
            "velocity": 1,
            "duration": 2.8328355625000086,
            "ticks": 51972,
            "durationTicks": 766
          },
          {
            "time": 192.203824875,
            "midi": 66,
            "name": "F#4",
            "velocity": 1,
            "duration": 2.8328355625000086,
            "ticks": 51972,
            "durationTicks": 766
          },
          {
            "time": 195.05145331250003,
            "midi": 73,
            "name": "C#5",
            "velocity": 1,
            "duration": 1.4090213437499983,
            "ticks": 52742,
            "durationTicks": 381
          },
          {
            "time": 195.05145331250003,
            "midi": 64,
            "name": "E4",
            "velocity": 1,
            "duration": 1.4090213437499983,
            "ticks": 52742,
            "durationTicks": 381
          },
          {
            "time": 195.05515153125003,
            "midi": 69,
            "name": "A4",
            "velocity": 1,
            "duration": 1.4053231249999953,
            "ticks": 52743,
            "durationTicks": 380
          },
          {
            "time": 196.47526753125,
            "midi": 76,
            "name": "E5",
            "velocity": 1,
            "duration": 1.4090213437499983,
            "ticks": 53127,
            "durationTicks": 381
          },
          {
            "time": 196.47526753125,
            "midi": 71,
            "name": "B4",
            "velocity": 0.937007874015748,
            "duration": 1.4090213437499983,
            "ticks": 53127,
            "durationTicks": 381
          },
          {
            "time": 196.47896575000001,
            "midi": 68,
            "name": "G#4",
            "velocity": 1,
            "duration": 1.4053231249999953,
            "ticks": 53128,
            "durationTicks": 380
          },
          {
            "time": 197.89908175000002,
            "midi": 69,
            "name": "A4",
            "velocity": 1,
            "duration": 2.8365337812500115,
            "ticks": 53512,
            "durationTicks": 767
          },
          {
            "time": 197.89908175000002,
            "midi": 78,
            "name": "F#5",
            "velocity": 1,
            "duration": 2.8365337812500115,
            "ticks": 53512,
            "durationTicks": 767
          },
          {
            "time": 197.90277996875002,
            "midi": 73,
            "name": "C#5",
            "velocity": 1,
            "duration": 2.8328355625000086,
            "ticks": 53513,
            "durationTicks": 766
          },
          {
            "time": 200.75040840625002,
            "midi": 61,
            "name": "C#4",
            "velocity": 1,
            "duration": 1.4053231249999953,
            "ticks": 54283,
            "durationTicks": 380
          },
          {
            "time": 200.75410662500005,
            "midi": 69,
            "name": "A4",
            "velocity": 1,
            "duration": 1.401624906249964,
            "ticks": 54284,
            "durationTicks": 379
          },
          {
            "time": 200.75410662500005,
            "midi": 64,
            "name": "E4",
            "velocity": 1,
            "duration": 2.825439124999974,
            "ticks": 54284,
            "durationTicks": 764
          },
          {
            "time": 202.17422262500003,
            "midi": 68,
            "name": "G#4",
            "velocity": 1,
            "duration": 1.4053231249999953,
            "ticks": 54668,
            "durationTicks": 380
          },
          {
            "time": 202.17422262500003,
            "midi": 59,
            "name": "B3",
            "velocity": 1,
            "duration": 1.4053231249999953,
            "ticks": 54668,
            "durationTicks": 380
          },
          {
            "time": 203.59803684375,
            "midi": 69,
            "name": "A4",
            "velocity": 1,
            "duration": 2.8328355625000086,
            "ticks": 55053,
            "durationTicks": 766
          },
          {
            "time": 203.59803684375,
            "midi": 61,
            "name": "C#4",
            "velocity": 1,
            "duration": 2.8328355625000086,
            "ticks": 55053,
            "durationTicks": 766
          },
          {
            "time": 203.6017350625,
            "midi": 66,
            "name": "F#4",
            "velocity": 1,
            "duration": 2.8291373437500056,
            "ticks": 55054,
            "durationTicks": 765
          },
          {
            "time": 206.44936350000003,
            "midi": 61,
            "name": "C#4",
            "velocity": 1,
            "duration": 1.4053231249999953,
            "ticks": 55824,
            "durationTicks": 380
          },
          {
            "time": 206.45306171875,
            "midi": 69,
            "name": "A4",
            "velocity": 1,
            "duration": 1.4016249062500208,
            "ticks": 55825,
            "durationTicks": 379
          },
          {
            "time": 206.45306171875,
            "midi": 64,
            "name": "E4",
            "velocity": 1,
            "duration": 2.8254391250000026,
            "ticks": 55825,
            "durationTicks": 764
          },
          {
            "time": 207.87317771875001,
            "midi": 68,
            "name": "G#4",
            "velocity": 1,
            "duration": 1.4053231249999953,
            "ticks": 56209,
            "durationTicks": 380
          },
          {
            "time": 207.87317771875001,
            "midi": 59,
            "name": "B3",
            "velocity": 1,
            "duration": 1.4053231249999953,
            "ticks": 56209,
            "durationTicks": 380
          },
          {
            "time": 209.29699193750002,
            "midi": 69,
            "name": "A4",
            "velocity": 1,
            "duration": 2.8291373437500056,
            "ticks": 56594,
            "durationTicks": 765
          },
          {
            "time": 209.29699193750002,
            "midi": 61,
            "name": "C#4",
            "velocity": 1,
            "duration": 2.8291373437500056,
            "ticks": 56594,
            "durationTicks": 765
          },
          {
            "time": 209.30069015625003,
            "midi": 66,
            "name": "F#4",
            "velocity": 1,
            "duration": 2.8254391250000026,
            "ticks": 56595,
            "durationTicks": 764
          },
          {
            "time": 212.14831859375005,
            "midi": 73,
            "name": "C#5",
            "velocity": 1,
            "duration": 1.405323124999967,
            "ticks": 57365,
            "durationTicks": 380
          },
          {
            "time": 212.14831859375005,
            "midi": 64,
            "name": "E4",
            "velocity": 1,
            "duration": 1.405323124999967,
            "ticks": 57365,
            "durationTicks": 380
          },
          {
            "time": 212.14831859375005,
            "midi": 69,
            "name": "A4",
            "velocity": 1,
            "duration": 1.405323124999967,
            "ticks": 57365,
            "durationTicks": 380
          },
          {
            "time": 213.57213281250003,
            "midi": 76,
            "name": "E5",
            "velocity": 1,
            "duration": 1.4053231249999953,
            "ticks": 57750,
            "durationTicks": 380
          },
          {
            "time": 213.57213281250003,
            "midi": 71,
            "name": "B4",
            "velocity": 0.937007874015748,
            "duration": 1.4053231249999953,
            "ticks": 57750,
            "durationTicks": 380
          },
          {
            "time": 213.57213281250003,
            "midi": 68,
            "name": "G#4",
            "velocity": 1,
            "duration": 1.4053231249999953,
            "ticks": 57750,
            "durationTicks": 380
          },
          {
            "time": 214.99594703125,
            "midi": 69,
            "name": "A4",
            "velocity": 1,
            "duration": 2.8291373437500056,
            "ticks": 58135,
            "durationTicks": 765
          },
          {
            "time": 214.99594703125,
            "midi": 78,
            "name": "F#5",
            "velocity": 1,
            "duration": 2.832835562500037,
            "ticks": 58135,
            "durationTicks": 766
          },
          {
            "time": 214.99594703125,
            "midi": 73,
            "name": "C#5",
            "velocity": 1,
            "duration": 2.832835562500037,
            "ticks": 58135,
            "durationTicks": 766
          },
          {
            "time": 217.85097190625004,
            "midi": 64,
            "name": "E4",
            "velocity": 1,
            "duration": 2.8217409062499996,
            "ticks": 58907,
            "durationTicks": 763
          },
          {
            "time": 217.85097190625004,
            "midi": 69,
            "name": "A4",
            "velocity": 1,
            "duration": 1.3979266874999894,
            "ticks": 58907,
            "durationTicks": 378
          },
          {
            "time": 217.85097190625004,
            "midi": 61,
            "name": "C#4",
            "velocity": 1,
            "duration": 1.3979266874999894,
            "ticks": 58907,
            "durationTicks": 378
          },
          {
            "time": 219.27108790625005,
            "midi": 68,
            "name": "G#4",
            "velocity": 1,
            "duration": 1.4016249062499924,
            "ticks": 59291,
            "durationTicks": 379
          },
          {
            "time": 219.27108790625005,
            "midi": 59,
            "name": "B3",
            "velocity": 1,
            "duration": 1.4016249062499924,
            "ticks": 59291,
            "durationTicks": 379
          },
          {
            "time": 220.69860034375,
            "midi": 69,
            "name": "A4",
            "velocity": 1,
            "duration": 2.825439125000031,
            "ticks": 59677,
            "durationTicks": 764
          },
          {
            "time": 220.69860034375,
            "midi": 61,
            "name": "C#4",
            "velocity": 1,
            "duration": 2.825439125000031,
            "ticks": 59677,
            "durationTicks": 764
          },
          {
            "time": 220.69860034375,
            "midi": 66,
            "name": "F#4",
            "velocity": 1,
            "duration": 2.825439125000031,
            "ticks": 59677,
            "durationTicks": 764
          }
        ],
        "controlChanges": {
          "7": [
            {
              "number": 7,
              "value": 0.5118110236220472,
              "time": 0,
              "ticks": 0
            },
            {
              "number": 7,
              "value": 0.1968503937007874,
              "time": 12.355748843750002,
              "ticks": 3341
            },
            {
              "number": 7,
              "value": 0.2047244094488189,
              "time": 12.533263343750003,
              "ticks": 3389
            },
            {
              "number": 7,
              "value": 0.2125984251968504,
              "time": 12.666399218750001,
              "ticks": 3425
            },
            {
              "number": 7,
              "value": 0.2204724409448819,
              "time": 12.803233312500002,
              "ticks": 3462
            },
            {
              "number": 7,
              "value": 0.2283464566929134,
              "time": 12.977049593750003,
              "ticks": 3509
            },
            {
              "number": 7,
              "value": 0.23622047244094488,
              "time": 13.110185468750002,
              "ticks": 3545
            },
            {
              "number": 7,
              "value": 0.2440944881889764,
              "time": 13.243321343750003,
              "ticks": 3581
            },
            {
              "number": 7,
              "value": 0.25196850393700787,
              "time": 13.376457218750001,
              "ticks": 3617
            },
            {
              "number": 7,
              "value": 0.25984251968503935,
              "time": 13.553971718750002,
              "ticks": 3665
            },
            {
              "number": 7,
              "value": 0.2677165354330709,
              "time": 13.687107593750003,
              "ticks": 3701
            },
            {
              "number": 7,
              "value": 0.2755905511811024,
              "time": 13.823941687500001,
              "ticks": 3738
            },
            {
              "number": 7,
              "value": 0.28346456692913385,
              "time": 13.997757968750003,
              "ticks": 3785
            },
            {
              "number": 7,
              "value": 0.29133858267716534,
              "time": 14.13829028125,
              "ticks": 3823
            },
            {
              "number": 7,
              "value": 0.2992125984251969,
              "time": 14.264029718750002,
              "ticks": 3857
            },
            {
              "number": 7,
              "value": 0.30708661417322836,
              "time": 14.4008638125,
              "ticks": 3894
            },
            {
              "number": 7,
              "value": 0.31496062992125984,
              "time": 14.582076531250001,
              "ticks": 3943
            },
            {
              "number": 7,
              "value": 0.3228346456692913,
              "time": 14.711514187500002,
              "ticks": 3978
            },
            {
              "number": 7,
              "value": 0.33070866141732286,
              "time": 14.852046500000002,
              "ticks": 4016
            },
            {
              "number": 7,
              "value": 0.33858267716535434,
              "time": 15.025862781250002,
              "ticks": 4063
            },
            {
              "number": 7,
              "value": 0.3464566929133858,
              "time": 15.15899865625,
              "ticks": 4099
            },
            {
              "number": 7,
              "value": 0.3543307086614173,
              "time": 15.295832750000002,
              "ticks": 4136
            },
            {
              "number": 7,
              "value": 0.36220472440944884,
              "time": 15.42527040625,
              "ticks": 4171
            },
            {
              "number": 7,
              "value": 0.3700787401574803,
              "time": 15.602784906250001,
              "ticks": 4219
            },
            {
              "number": 7,
              "value": 0.3779527559055118,
              "time": 15.735920781250002,
              "ticks": 4255
            },
            {
              "number": 7,
              "value": 0.3858267716535433,
              "time": 15.86905665625,
              "ticks": 4291
            },
            {
              "number": 7,
              "value": 0.3937007874015748,
              "time": 16.04657115625,
              "ticks": 4339
            },
            {
              "number": 7,
              "value": 0.4015748031496063,
              "time": 16.17970703125,
              "ticks": 4375
            },
            {
              "number": 7,
              "value": 0.4094488188976378,
              "time": 16.316541125000004,
              "ticks": 4412
            },
            {
              "number": 7,
              "value": 0.41732283464566927,
              "time": 16.449677,
              "ticks": 4448
            },
            {
              "number": 7,
              "value": 0.4251968503937008,
              "time": 16.63088971875,
              "ticks": 4497
            },
            {
              "number": 7,
              "value": 0.4330708661417323,
              "time": 16.75662915625,
              "ticks": 4531
            },
            {
              "number": 7,
              "value": 0.4409448818897638,
              "time": 16.893463250000003,
              "ticks": 4568
            },
            {
              "number": 7,
              "value": 0.44881889763779526,
              "time": 17.030297343750004,
              "ticks": 4605
            },
            {
              "number": 7,
              "value": 0.4566929133858268,
              "time": 17.204113625,
              "ticks": 4652
            },
            {
              "number": 7,
              "value": 0.4645669291338583,
              "time": 17.34094771875,
              "ticks": 4689
            },
            {
              "number": 7,
              "value": 0.47244094488188976,
              "time": 17.470385375000003,
              "ticks": 4724
            },
            {
              "number": 7,
              "value": 0.48031496062992124,
              "time": 17.651598093750003,
              "ticks": 4773
            },
            {
              "number": 7,
              "value": 0.4881889763779528,
              "time": 17.78473396875,
              "ticks": 4809
            },
            {
              "number": 7,
              "value": 0.49606299212598426,
              "time": 17.91786984375,
              "ticks": 4845
            },
            {
              "number": 7,
              "value": 0.4330708661417323,
              "time": 18.047307500000002,
              "ticks": 4880
            },
            {
              "number": 7,
              "value": 0.3464566929133858,
              "time": 35.50659821875001,
              "ticks": 9601
            },
            {
              "number": 7,
              "value": 0.4330708661417323,
              "time": 52.59976528125001,
              "ticks": 14223
            },
            {
              "number": 7,
              "value": 0.3464566929133858,
              "time": 75.12191746875001,
              "ticks": 20313
            },
            {
              "number": 7,
              "value": 0.4330708661417323,
              "time": 92.4850545,
              "ticks": 25008
            },
            {
              "number": 7,
              "value": 0.5984251968503937,
              "time": 118.03604784375001,
              "ticks": 31917
            },
            {
              "number": 7,
              "value": 0.5511811023622047,
              "time": 120.79491903125,
              "ticks": 32663
            },
            {
              "number": 7,
              "value": 0.4330708661417323,
              "time": 137.9805415625,
              "ticks": 37310
            },
            {
              "number": 7,
              "value": 0.3464566929133858,
              "time": 155.07370862500002,
              "ticks": 41932
            },
            {
              "number": 7,
              "value": 0.4330708661417323,
              "time": 172.25563293750002,
              "ticks": 46578
            },
            {
              "number": 7,
              "value": 0.4566929133858268,
              "time": 189.35619643750002,
              "ticks": 51202
            },
            {
              "number": 7,
              "value": 0.3858267716535433,
              "time": 214.63721981250004,
              "ticks": 58038
            },
            {
              "number": 7,
              "value": 0.3779527559055118,
              "time": 214.85541471875004,
              "ticks": 58097
            },
            {
              "number": 7,
              "value": 0.3700787401574803,
              "time": 215.04032565625002,
              "ticks": 58147
            },
            {
              "number": 7,
              "value": 0.36220472440944884,
              "time": 215.25852056250002,
              "ticks": 58206
            },
            {
              "number": 7,
              "value": 0.3543307086614173,
              "time": 215.43233684375005,
              "ticks": 58253
            },
            {
              "number": 7,
              "value": 0.3464566929133858,
              "time": 215.65792818750003,
              "ticks": 58314
            },
            {
              "number": 7,
              "value": 0.33858267716535434,
              "time": 215.83544268750003,
              "ticks": 58362
            },
            {
              "number": 7,
              "value": 0.33070866141732286,
              "time": 216.06103403125002,
              "ticks": 58423
            },
            {
              "number": 7,
              "value": 0.3228346456692913,
              "time": 216.23485031250001,
              "ticks": 58470
            },
            {
              "number": 7,
              "value": 0.31496062992125984,
              "time": 216.46044165625,
              "ticks": 58531
            },
            {
              "number": 7,
              "value": 0.30708661417322836,
              "time": 216.63795615625,
              "ticks": 58579
            },
            {
              "number": 7,
              "value": 0.2992125984251969,
              "time": 216.85984928125,
              "ticks": 58639
            },
            {
              "number": 7,
              "value": 0.29133858267716534,
              "time": 217.03736378125,
              "ticks": 58687
            },
            {
              "number": 7,
              "value": 0.28346456692913385,
              "time": 217.25925690625002,
              "ticks": 58747
            },
            {
              "number": 7,
              "value": 0.2755905511811024,
              "time": 217.44046962500005,
              "ticks": 58796
            },
            {
              "number": 7,
              "value": 0.2677165354330709,
              "time": 217.65866453125,
              "ticks": 58855
            },
            {
              "number": 7,
              "value": 0.25984251968503935,
              "time": 217.85097190625004,
              "ticks": 58907
            },
            {
              "number": 7,
              "value": 0.25196850393700787,
              "time": 218.06177037500004,
              "ticks": 58964
            },
            {
              "number": 7,
              "value": 0.2440944881889764,
              "time": 218.24298309375,
              "ticks": 59013
            },
            {
              "number": 7,
              "value": 0.23622047244094488,
              "time": 218.46117800000005,
              "ticks": 59072
            },
            {
              "number": 7,
              "value": 0.2283464566929134,
              "time": 218.63869250000005,
              "ticks": 59120
            },
            {
              "number": 7,
              "value": 0.2204724409448819,
              "time": 218.86428384375003,
              "ticks": 59181
            },
            {
              "number": 7,
              "value": 0.2125984251968504,
              "time": 219.03810012500003,
              "ticks": 59228
            },
            {
              "number": 7,
              "value": 0.2047244094488189,
              "time": 219.27108790625005,
              "ticks": 59291
            },
            {
              "number": 7,
              "value": 0.1968503937007874,
              "time": 219.44120596875,
              "ticks": 59337
            },
            {
              "number": 7,
              "value": 0.1889763779527559,
              "time": 219.62241868750002,
              "ticks": 59386
            },
            {
              "number": 7,
              "value": 0.18110236220472442,
              "time": 219.84061359375002,
              "ticks": 59445
            },
            {
              "number": 7,
              "value": 0.1732283464566929,
              "time": 220.02182631250002,
              "ticks": 59494
            },
            {
              "number": 7,
              "value": 0.16535433070866143,
              "time": 220.2437194375,
              "ticks": 59554
            },
            {
              "number": 7,
              "value": 0.15748031496062992,
              "time": 220.4212339375,
              "ticks": 59602
            },
            {
              "number": 7,
              "value": 0.14960629921259844,
              "time": 220.6431270625,
              "ticks": 59662
            },
            {
              "number": 7,
              "value": 0.14173228346456693,
              "time": 220.82064156250001,
              "ticks": 59710
            },
            {
              "number": 7,
              "value": 0.13385826771653545,
              "time": 221.04623290625003,
              "ticks": 59771
            },
            {
              "number": 7,
              "value": 0.12598425196850394,
              "time": 221.22004918750002,
              "ticks": 59818
            },
            {
              "number": 7,
              "value": 0.11811023622047244,
              "time": 221.44564053125004,
              "ticks": 59879
            },
            {
              "number": 7,
              "value": 0.11023622047244094,
              "time": 221.62315503125004,
              "ticks": 59927
            },
            {
              "number": 7,
              "value": 0.10236220472440945,
              "time": 221.84504815625004,
              "ticks": 59987
            },
            {
              "number": 7,
              "value": 0.09448818897637795,
              "time": 222.02256265625005,
              "ticks": 60035
            },
            {
              "number": 7,
              "value": 0.08661417322834646,
              "time": 222.24445578125002,
              "ticks": 60095
            },
            {
              "number": 7,
              "value": 0.07874015748031496,
              "time": 222.42566850000003,
              "ticks": 60144
            },
            {
              "number": 7,
              "value": 0.07086614173228346,
              "time": 222.64756162500004,
              "ticks": 60204
            },
            {
              "number": 7,
              "value": 0.06299212598425197,
              "time": 222.82877434375,
              "ticks": 60253
            },
            {
              "number": 7,
              "value": 0.05511811023622047,
              "time": 223.04696925000002,
              "ticks": 60312
            },
            {
              "number": 7,
              "value": 0.047244094488188976,
              "time": 223.22818196875002,
              "ticks": 60361
            },
            {
              "number": 7,
              "value": 0.03937007874015748,
              "time": 223.45007509375,
              "ticks": 60421
            },
            {
              "number": 7,
              "value": 0.031496062992125984,
              "time": 223.62389137500003,
              "ticks": 60468
            },
            {
              "number": 7,
              "value": 0.023622047244094488,
              "time": 223.84948271875,
              "ticks": 60529
            },
            {
              "number": 7,
              "value": 0.015748031496062992,
              "time": 224.02329900000004,
              "ticks": 60576
            },
            {
              "number": 7,
              "value": 0.007874015748031496,
              "time": 224.20451171875,
              "ticks": 60625
            },
            {
              "number": 7,
              "value": 0,
              "time": 224.42640484375002,
              "ticks": 60685
            }
          ],
          "10": [
            {
              "number": 10,
              "value": 0.5905511811023622,
              "time": 0,
              "ticks": 0
            }
          ],
          "64": [
            {
              "number": 64,
              "value": 0,
              "time": 224.81841603125005,
              "ticks": 60791
            }
          ]
        }
      },
      {
        "name": "Doctor Solo         ",
        "channel": 0,
        "instrument": {
          "number": 88,
          "name": "pad 1 (new age)",
          "family": "synth pad"
        },
        "notes": [
          {
            "time": 18.409732937500003,
            "midi": 78,
            "name": "F#5",
            "velocity": 1,
            "duration": 0.1294376562499977,
            "ticks": 4978,
            "durationTicks": 35
          },
          {
            "time": 18.409732937500003,
            "midi": 90,
            "name": "F#6",
            "velocity": 1,
            "duration": 0.1294376562499977,
            "ticks": 4978,
            "durationTicks": 35
          },
          {
            "time": 18.5872474375,
            "midi": 90,
            "name": "F#6",
            "velocity": 1,
            "duration": 0.17381628125000148,
            "ticks": 5026,
            "durationTicks": 47
          },
          {
            "time": 18.5872474375,
            "midi": 78,
            "name": "F#5",
            "velocity": 1,
            "duration": 0.17381628125000148,
            "ticks": 5026,
            "durationTicks": 47
          },
          {
            "time": 18.768460156250004,
            "midi": 86,
            "name": "D6",
            "velocity": 1,
            "duration": 0.17381628124999793,
            "ticks": 5075,
            "durationTicks": 47
          },
          {
            "time": 18.768460156250004,
            "midi": 74,
            "name": "D5",
            "velocity": 1,
            "duration": 0.17381628124999793,
            "ticks": 5075,
            "durationTicks": 47
          },
          {
            "time": 18.942276437500002,
            "midi": 71,
            "name": "B4",
            "velocity": 1,
            "duration": 0.15162696875000137,
            "ticks": 5122,
            "durationTicks": 41
          },
          {
            "time": 18.94597465625,
            "midi": 83,
            "name": "B5",
            "velocity": 1,
            "duration": 0.14792875000000194,
            "ticks": 5123,
            "durationTicks": 40
          },
          {
            "time": 19.301003656250003,
            "midi": 83,
            "name": "B5",
            "velocity": 1,
            "duration": 0.1775145000000009,
            "ticks": 5219,
            "durationTicks": 48
          },
          {
            "time": 19.301003656250003,
            "midi": 71,
            "name": "B4",
            "velocity": 1,
            "duration": 0.1775145000000009,
            "ticks": 5219,
            "durationTicks": 48
          },
          {
            "time": 19.652334437500002,
            "midi": 88,
            "name": "E6",
            "velocity": 1,
            "duration": 0.1553251875000008,
            "ticks": 5314,
            "durationTicks": 42
          },
          {
            "time": 19.652334437500002,
            "midi": 76,
            "name": "E5",
            "velocity": 1,
            "duration": 0.1553251875000008,
            "ticks": 5314,
            "durationTicks": 42
          },
          {
            "time": 20.011061656250003,
            "midi": 76,
            "name": "E5",
            "velocity": 1,
            "duration": 0.17381628124999793,
            "ticks": 5411,
            "durationTicks": 47
          },
          {
            "time": 20.011061656250003,
            "midi": 88,
            "name": "E6",
            "velocity": 1,
            "duration": 0.17381628124999793,
            "ticks": 5411,
            "durationTicks": 47
          },
          {
            "time": 20.36609065625,
            "midi": 88,
            "name": "E6",
            "velocity": 1,
            "duration": 0.17381628125000148,
            "ticks": 5507,
            "durationTicks": 47
          },
          {
            "time": 20.36609065625,
            "midi": 76,
            "name": "E5",
            "velocity": 1,
            "duration": 0.17381628125000148,
            "ticks": 5507,
            "durationTicks": 47
          },
          {
            "time": 20.55100159375,
            "midi": 92,
            "name": "G#6",
            "velocity": 1,
            "duration": 0.14053231249999953,
            "ticks": 5557,
            "durationTicks": 38
          },
          {
            "time": 20.55100159375,
            "midi": 80,
            "name": "G#5",
            "velocity": 1,
            "duration": 0.14053231249999953,
            "ticks": 5557,
            "durationTicks": 38
          },
          {
            "time": 20.724817875000003,
            "midi": 80,
            "name": "G#5",
            "velocity": 1,
            "duration": 0.15162696875000137,
            "ticks": 5604,
            "durationTicks": 41
          },
          {
            "time": 20.724817875000003,
            "midi": 92,
            "name": "G#6",
            "velocity": 1,
            "duration": 0.15162696875000137,
            "ticks": 5604,
            "durationTicks": 41
          },
          {
            "time": 20.902332375000004,
            "midi": 93,
            "name": "A6",
            "velocity": 1,
            "duration": 0.15902340624999667,
            "ticks": 5652,
            "durationTicks": 43
          },
          {
            "time": 20.90603059375,
            "midi": 81,
            "name": "A5",
            "velocity": 1,
            "duration": 0.1553251875000008,
            "ticks": 5653,
            "durationTicks": 42
          },
          {
            "time": 21.079846875,
            "midi": 95,
            "name": "B6",
            "velocity": 1,
            "duration": 0.17381628125000148,
            "ticks": 5700,
            "durationTicks": 47
          },
          {
            "time": 21.079846875,
            "midi": 83,
            "name": "B5",
            "velocity": 1,
            "duration": 0.17381628125000148,
            "ticks": 5700,
            "durationTicks": 47
          },
          {
            "time": 21.26105959375,
            "midi": 81,
            "name": "A5",
            "velocity": 1,
            "duration": 0.1368340937500001,
            "ticks": 5749,
            "durationTicks": 37
          },
          {
            "time": 21.26105959375,
            "midi": 93,
            "name": "A6",
            "velocity": 1,
            "duration": 0.1368340937500001,
            "ticks": 5749,
            "durationTicks": 37
          },
          {
            "time": 21.434875875000003,
            "midi": 93,
            "name": "A6",
            "velocity": 1,
            "duration": 0.15162696875000137,
            "ticks": 5796,
            "durationTicks": 41
          },
          {
            "time": 21.434875875000003,
            "midi": 81,
            "name": "A5",
            "velocity": 1,
            "duration": 0.1553251875000008,
            "ticks": 5796,
            "durationTicks": 42
          },
          {
            "time": 21.61608859375,
            "midi": 93,
            "name": "A6",
            "velocity": 1,
            "duration": 0.13683409375000366,
            "ticks": 5845,
            "durationTicks": 37
          },
          {
            "time": 21.61608859375,
            "midi": 81,
            "name": "A5",
            "velocity": 1,
            "duration": 0.13683409375000366,
            "ticks": 5845,
            "durationTicks": 37
          },
          {
            "time": 21.789904875,
            "midi": 76,
            "name": "E5",
            "velocity": 1,
            "duration": 0.1553251875000008,
            "ticks": 5892,
            "durationTicks": 42
          },
          {
            "time": 21.789904875,
            "midi": 88,
            "name": "E6",
            "velocity": 1,
            "duration": 0.1553251875000008,
            "ticks": 5892,
            "durationTicks": 42
          },
          {
            "time": 22.148632093750003,
            "midi": 86,
            "name": "D6",
            "velocity": 1,
            "duration": 0.1368340937500001,
            "ticks": 5989,
            "durationTicks": 37
          },
          {
            "time": 22.148632093750003,
            "midi": 74,
            "name": "D5",
            "velocity": 1,
            "duration": 0.1368340937500001,
            "ticks": 5989,
            "durationTicks": 37
          },
          {
            "time": 22.50366109375,
            "midi": 90,
            "name": "F#6",
            "velocity": 1,
            "duration": 0.15162696875000137,
            "ticks": 6085,
            "durationTicks": 41
          },
          {
            "time": 22.50366109375,
            "midi": 78,
            "name": "F#5",
            "velocity": 1,
            "duration": 0.15162696875000137,
            "ticks": 6085,
            "durationTicks": 41
          },
          {
            "time": 22.858690093750003,
            "midi": 78,
            "name": "F#5",
            "velocity": 1,
            "duration": 0.1553251875000008,
            "ticks": 6181,
            "durationTicks": 42
          },
          {
            "time": 22.858690093750003,
            "midi": 90,
            "name": "F#6",
            "velocity": 1,
            "duration": 0.1553251875000008,
            "ticks": 6181,
            "durationTicks": 42
          },
          {
            "time": 23.213719093750004,
            "midi": 90,
            "name": "F#6",
            "velocity": 1,
            "duration": 0.1553251875000008,
            "ticks": 6277,
            "durationTicks": 42
          },
          {
            "time": 23.2174173125,
            "midi": 78,
            "name": "F#5",
            "velocity": 1,
            "duration": 0.15162696875000492,
            "ticks": 6278,
            "durationTicks": 41
          },
          {
            "time": 23.398630031250004,
            "midi": 88,
            "name": "E6",
            "velocity": 1,
            "duration": 0.15532518749999724,
            "ticks": 6327,
            "durationTicks": 42
          },
          {
            "time": 23.398630031250004,
            "midi": 76,
            "name": "E5",
            "velocity": 1,
            "duration": 0.15532518749999724,
            "ticks": 6327,
            "durationTicks": 42
          },
          {
            "time": 23.572446312500002,
            "midi": 76,
            "name": "E5",
            "velocity": 1,
            "duration": 0.15902340625000022,
            "ticks": 6374,
            "durationTicks": 43
          },
          {
            "time": 23.572446312500002,
            "midi": 88,
            "name": "E6",
            "velocity": 1,
            "duration": 0.15902340625000022,
            "ticks": 6374,
            "durationTicks": 43
          },
          {
            "time": 23.753659031250002,
            "midi": 90,
            "name": "F#6",
            "velocity": 1,
            "duration": 0.14053231249999953,
            "ticks": 6423,
            "durationTicks": 38
          },
          {
            "time": 23.753659031250002,
            "midi": 78,
            "name": "F#5",
            "velocity": 1,
            "duration": 0.14423053124999896,
            "ticks": 6423,
            "durationTicks": 39
          },
          {
            "time": 23.9274753125,
            "midi": 88,
            "name": "E6",
            "velocity": 1,
            "duration": 0.15902340625000377,
            "ticks": 6470,
            "durationTicks": 43
          },
          {
            "time": 23.9274753125,
            "midi": 76,
            "name": "E5",
            "velocity": 1,
            "duration": 0.15902340625000377,
            "ticks": 6470,
            "durationTicks": 43
          },
          {
            "time": 24.108688031250004,
            "midi": 78,
            "name": "F#5",
            "velocity": 1,
            "duration": 0.14423053124999896,
            "ticks": 6519,
            "durationTicks": 39
          },
          {
            "time": 24.108688031250004,
            "midi": 90,
            "name": "F#6",
            "velocity": 1,
            "duration": 0.14423053124999896,
            "ticks": 6519,
            "durationTicks": 39
          },
          {
            "time": 24.282504312500002,
            "midi": 90,
            "name": "F#6",
            "velocity": 1,
            "duration": 0.15532518749999724,
            "ticks": 6566,
            "durationTicks": 42
          },
          {
            "time": 24.282504312500002,
            "midi": 78,
            "name": "F#5",
            "velocity": 1,
            "duration": 0.15532518749999724,
            "ticks": 6566,
            "durationTicks": 42
          },
          {
            "time": 24.463717031250003,
            "midi": 86,
            "name": "D6",
            "velocity": 1,
            "duration": 0.1553251875000008,
            "ticks": 6615,
            "durationTicks": 42
          },
          {
            "time": 24.467415250000005,
            "midi": 74,
            "name": "D5",
            "velocity": 1,
            "duration": 0.15162696874999781,
            "ticks": 6616,
            "durationTicks": 41
          },
          {
            "time": 24.641231531250003,
            "midi": 71,
            "name": "B4",
            "velocity": 1,
            "duration": 0.12573943750000183,
            "ticks": 6663,
            "durationTicks": 34
          },
          {
            "time": 24.641231531250003,
            "midi": 83,
            "name": "B5",
            "velocity": 1,
            "duration": 0.12573943750000183,
            "ticks": 6663,
            "durationTicks": 34
          },
          {
            "time": 24.99626053125,
            "midi": 83,
            "name": "B5",
            "velocity": 1,
            "duration": 0.15902340625000377,
            "ticks": 6759,
            "durationTicks": 43
          },
          {
            "time": 24.999958750000005,
            "midi": 71,
            "name": "B4",
            "velocity": 1,
            "duration": 0.1553251875000008,
            "ticks": 6760,
            "durationTicks": 42
          },
          {
            "time": 25.351289531250004,
            "midi": 88,
            "name": "E6",
            "velocity": 1,
            "duration": 0.17011806250000205,
            "ticks": 6855,
            "durationTicks": 46
          },
          {
            "time": 25.351289531250004,
            "midi": 76,
            "name": "E5",
            "velocity": 1,
            "duration": 0.17011806250000205,
            "ticks": 6855,
            "durationTicks": 46
          },
          {
            "time": 25.70631853125,
            "midi": 76,
            "name": "E5",
            "velocity": 1,
            "duration": 0.18491093749999976,
            "ticks": 6951,
            "durationTicks": 50
          },
          {
            "time": 25.70631853125,
            "midi": 88,
            "name": "E6",
            "velocity": 1,
            "duration": 0.18491093749999976,
            "ticks": 6951,
            "durationTicks": 50
          },
          {
            "time": 26.065045750000003,
            "midi": 88,
            "name": "E6",
            "velocity": 1,
            "duration": 0.16641984375000263,
            "ticks": 7048,
            "durationTicks": 45
          },
          {
            "time": 26.065045750000003,
            "midi": 76,
            "name": "E5",
            "velocity": 1,
            "duration": 0.16641984375000263,
            "ticks": 7048,
            "durationTicks": 45
          },
          {
            "time": 26.24625846875,
            "midi": 92,
            "name": "G#6",
            "velocity": 1,
            "duration": 0.14792875000000194,
            "ticks": 7097,
            "durationTicks": 40
          },
          {
            "time": 26.24625846875,
            "midi": 80,
            "name": "G#5",
            "velocity": 1,
            "duration": 0.14792875000000194,
            "ticks": 7097,
            "durationTicks": 40
          },
          {
            "time": 26.420074750000005,
            "midi": 80,
            "name": "G#5",
            "velocity": 1,
            "duration": 0.14423053124999896,
            "ticks": 7144,
            "durationTicks": 39
          },
          {
            "time": 26.420074750000005,
            "midi": 92,
            "name": "G#6",
            "velocity": 1,
            "duration": 0.14423053124999896,
            "ticks": 7144,
            "durationTicks": 39
          },
          {
            "time": 26.60128746875,
            "midi": 93,
            "name": "A6",
            "velocity": 1,
            "duration": 0.14423053124999896,
            "ticks": 7193,
            "durationTicks": 39
          },
          {
            "time": 26.60128746875,
            "midi": 81,
            "name": "A5",
            "velocity": 1,
            "duration": 0.14423053124999896,
            "ticks": 7193,
            "durationTicks": 39
          },
          {
            "time": 26.775103750000003,
            "midi": 95,
            "name": "B6",
            "velocity": 1,
            "duration": 0.1553251875000008,
            "ticks": 7240,
            "durationTicks": 42
          },
          {
            "time": 26.775103750000003,
            "midi": 83,
            "name": "B5",
            "velocity": 1,
            "duration": 0.1553251875000008,
            "ticks": 7240,
            "durationTicks": 42
          },
          {
            "time": 26.95631646875,
            "midi": 81,
            "name": "A5",
            "velocity": 1,
            "duration": 0.12573943750000183,
            "ticks": 7289,
            "durationTicks": 34
          },
          {
            "time": 26.960014687500003,
            "midi": 93,
            "name": "A6",
            "velocity": 1,
            "duration": 0.12204121874999885,
            "ticks": 7290,
            "durationTicks": 33
          },
          {
            "time": 27.13383096875,
            "midi": 93,
            "name": "A6",
            "velocity": 1,
            "duration": 0.13683409375000366,
            "ticks": 7337,
            "durationTicks": 37
          },
          {
            "time": 27.13383096875,
            "midi": 81,
            "name": "A5",
            "velocity": 1,
            "duration": 0.13683409375000366,
            "ticks": 7337,
            "durationTicks": 37
          },
          {
            "time": 27.315043687500005,
            "midi": 93,
            "name": "A6",
            "velocity": 1,
            "duration": 0.10355012500000171,
            "ticks": 7386,
            "durationTicks": 28
          },
          {
            "time": 27.315043687500005,
            "midi": 81,
            "name": "A5",
            "velocity": 1,
            "duration": 0.10355012500000171,
            "ticks": 7386,
            "durationTicks": 28
          },
          {
            "time": 27.488859968750003,
            "midi": 76,
            "name": "E5",
            "velocity": 1,
            "duration": 0.12204121874999885,
            "ticks": 7433,
            "durationTicks": 33
          },
          {
            "time": 27.488859968750003,
            "midi": 88,
            "name": "E6",
            "velocity": 1,
            "duration": 0.12204121874999885,
            "ticks": 7433,
            "durationTicks": 33
          },
          {
            "time": 27.847587187500004,
            "midi": 86,
            "name": "D6",
            "velocity": 1,
            "duration": 0.09615368749999931,
            "ticks": 7530,
            "durationTicks": 26
          },
          {
            "time": 27.847587187500004,
            "midi": 74,
            "name": "D5",
            "velocity": 1,
            "duration": 0.09615368749999931,
            "ticks": 7530,
            "durationTicks": 26
          },
          {
            "time": 28.202616187500002,
            "midi": 90,
            "name": "F#6",
            "velocity": 1,
            "duration": 0.1220412187500024,
            "ticks": 7626,
            "durationTicks": 33
          },
          {
            "time": 28.202616187500002,
            "midi": 78,
            "name": "F#5",
            "velocity": 1,
            "duration": 0.1220412187500024,
            "ticks": 7626,
            "durationTicks": 33
          },
          {
            "time": 28.557645187500004,
            "midi": 78,
            "name": "F#5",
            "velocity": 1,
            "duration": 0.14423053124999896,
            "ticks": 7722,
            "durationTicks": 39
          },
          {
            "time": 28.557645187500004,
            "midi": 90,
            "name": "F#6",
            "velocity": 1,
            "duration": 0.14423053124999896,
            "ticks": 7722,
            "durationTicks": 39
          },
          {
            "time": 28.912674187500002,
            "midi": 90,
            "name": "F#6",
            "velocity": 1,
            "duration": 0.1553251875000008,
            "ticks": 7818,
            "durationTicks": 42
          },
          {
            "time": 28.912674187500002,
            "midi": 78,
            "name": "F#5",
            "velocity": 1,
            "duration": 0.1553251875000008,
            "ticks": 7818,
            "durationTicks": 42
          },
          {
            "time": 29.097585125000002,
            "midi": 88,
            "name": "E6",
            "velocity": 1,
            "duration": 0.13313587500000068,
            "ticks": 7868,
            "durationTicks": 36
          },
          {
            "time": 29.097585125000002,
            "midi": 76,
            "name": "E5",
            "velocity": 1,
            "duration": 0.13313587500000068,
            "ticks": 7868,
            "durationTicks": 36
          },
          {
            "time": 29.271401406250003,
            "midi": 76,
            "name": "E5",
            "velocity": 1,
            "duration": 0.1701180624999985,
            "ticks": 7915,
            "durationTicks": 46
          },
          {
            "time": 29.271401406250003,
            "midi": 88,
            "name": "E6",
            "velocity": 1,
            "duration": 0.1701180624999985,
            "ticks": 7915,
            "durationTicks": 46
          },
          {
            "time": 29.448915906250004,
            "midi": 90,
            "name": "F#6",
            "velocity": 1,
            "duration": 0.1479287499999984,
            "ticks": 7963,
            "durationTicks": 40
          },
          {
            "time": 29.448915906250004,
            "midi": 78,
            "name": "F#5",
            "velocity": 1,
            "duration": 0.1479287499999984,
            "ticks": 7963,
            "durationTicks": 40
          },
          {
            "time": 29.626430406250005,
            "midi": 88,
            "name": "E6",
            "velocity": 1,
            "duration": 0.15902340624999667,
            "ticks": 8011,
            "durationTicks": 43
          },
          {
            "time": 29.626430406250005,
            "midi": 76,
            "name": "E5",
            "velocity": 1,
            "duration": 0.15902340624999667,
            "ticks": 8011,
            "durationTicks": 43
          },
          {
            "time": 29.811341343750005,
            "midi": 78,
            "name": "F#5",
            "velocity": 1,
            "duration": 0.12204121874999885,
            "ticks": 8061,
            "durationTicks": 33
          },
          {
            "time": 29.811341343750005,
            "midi": 90,
            "name": "F#6",
            "velocity": 1,
            "duration": 0.12204121874999885,
            "ticks": 8061,
            "durationTicks": 33
          },
          {
            "time": 29.981459406250003,
            "midi": 90,
            "name": "F#6",
            "velocity": 1,
            "duration": 0.17381628125000148,
            "ticks": 8107,
            "durationTicks": 47
          },
          {
            "time": 29.981459406250003,
            "midi": 78,
            "name": "F#5",
            "velocity": 1,
            "duration": 0.17381628125000148,
            "ticks": 8107,
            "durationTicks": 47
          },
          {
            "time": 30.162672125,
            "midi": 86,
            "name": "D6",
            "velocity": 1,
            "duration": 0.17381628125000503,
            "ticks": 8156,
            "durationTicks": 47
          },
          {
            "time": 30.162672125,
            "midi": 74,
            "name": "D5",
            "velocity": 1,
            "duration": 0.17381628125000503,
            "ticks": 8156,
            "durationTicks": 47
          },
          {
            "time": 30.340186625,
            "midi": 71,
            "name": "B4",
            "velocity": 1,
            "duration": 0.15162696875000492,
            "ticks": 8204,
            "durationTicks": 41
          },
          {
            "time": 30.340186625,
            "midi": 83,
            "name": "B5",
            "velocity": 1,
            "duration": 0.15162696875000492,
            "ticks": 8204,
            "durationTicks": 41
          },
          {
            "time": 30.695215625000003,
            "midi": 83,
            "name": "B5",
            "velocity": 1,
            "duration": 0.18121271875000033,
            "ticks": 8300,
            "durationTicks": 49
          },
          {
            "time": 30.695215625000003,
            "midi": 71,
            "name": "B4",
            "velocity": 1,
            "duration": 0.18121271875000033,
            "ticks": 8300,
            "durationTicks": 49
          },
          {
            "time": 31.050244625,
            "midi": 88,
            "name": "E6",
            "velocity": 1,
            "duration": 0.1553251875000008,
            "ticks": 8396,
            "durationTicks": 42
          },
          {
            "time": 31.050244625,
            "midi": 76,
            "name": "E5",
            "velocity": 1,
            "duration": 0.1553251875000008,
            "ticks": 8396,
            "durationTicks": 42
          },
          {
            "time": 31.405273625000003,
            "midi": 76,
            "name": "E5",
            "velocity": 1,
            "duration": 0.17381628125000148,
            "ticks": 8492,
            "durationTicks": 47
          },
          {
            "time": 31.405273625000003,
            "midi": 88,
            "name": "E6",
            "velocity": 1,
            "duration": 0.17381628125000148,
            "ticks": 8492,
            "durationTicks": 47
          },
          {
            "time": 31.760302625,
            "midi": 88,
            "name": "E6",
            "velocity": 1,
            "duration": 0.17381628125000503,
            "ticks": 8588,
            "durationTicks": 47
          },
          {
            "time": 31.760302625,
            "midi": 76,
            "name": "E5",
            "velocity": 1,
            "duration": 0.17381628125000503,
            "ticks": 8588,
            "durationTicks": 47
          },
          {
            "time": 31.945213562500005,
            "midi": 92,
            "name": "G#6",
            "velocity": 1,
            "duration": 0.14053231249999598,
            "ticks": 8638,
            "durationTicks": 38
          },
          {
            "time": 31.945213562500005,
            "midi": 80,
            "name": "G#5",
            "velocity": 1,
            "duration": 0.14053231249999598,
            "ticks": 8638,
            "durationTicks": 38
          },
          {
            "time": 32.119029843750006,
            "midi": 80,
            "name": "G#5",
            "velocity": 1,
            "duration": 0.15162696874999426,
            "ticks": 8685,
            "durationTicks": 41
          },
          {
            "time": 32.119029843750006,
            "midi": 92,
            "name": "G#6",
            "velocity": 1,
            "duration": 0.15162696874999426,
            "ticks": 8685,
            "durationTicks": 41
          },
          {
            "time": 32.3002425625,
            "midi": 93,
            "name": "A6",
            "velocity": 1,
            "duration": 0.15532518750000435,
            "ticks": 8734,
            "durationTicks": 42
          },
          {
            "time": 32.3002425625,
            "midi": 81,
            "name": "A5",
            "velocity": 1,
            "duration": 0.15532518750000435,
            "ticks": 8734,
            "durationTicks": 42
          },
          {
            "time": 32.47405884375,
            "midi": 95,
            "name": "B6",
            "velocity": 1,
            "duration": 0.17381628124999793,
            "ticks": 8781,
            "durationTicks": 47
          },
          {
            "time": 32.47405884375,
            "midi": 83,
            "name": "B5",
            "velocity": 1,
            "duration": 0.17381628124999793,
            "ticks": 8781,
            "durationTicks": 47
          },
          {
            "time": 32.65896978125,
            "midi": 81,
            "name": "A5",
            "velocity": 1,
            "duration": 0.13313587500000068,
            "ticks": 8831,
            "durationTicks": 36
          },
          {
            "time": 32.65896978125,
            "midi": 93,
            "name": "A6",
            "velocity": 1,
            "duration": 0.13313587500000068,
            "ticks": 8831,
            "durationTicks": 36
          },
          {
            "time": 32.82908784375,
            "midi": 93,
            "name": "A6",
            "velocity": 1,
            "duration": 0.15532518750000435,
            "ticks": 8877,
            "durationTicks": 42
          },
          {
            "time": 32.82908784375,
            "midi": 81,
            "name": "A5",
            "velocity": 1,
            "duration": 0.15532518750000435,
            "ticks": 8877,
            "durationTicks": 42
          },
          {
            "time": 33.01030056250001,
            "midi": 93,
            "name": "A6",
            "velocity": 1,
            "duration": 0.14053231249999953,
            "ticks": 8926,
            "durationTicks": 38
          },
          {
            "time": 33.01399878125,
            "midi": 81,
            "name": "A5",
            "velocity": 1,
            "duration": 0.13683409375000366,
            "ticks": 8927,
            "durationTicks": 37
          },
          {
            "time": 33.18781506250001,
            "midi": 78,
            "name": "F#5",
            "velocity": 1,
            "duration": 0.15162696874999426,
            "ticks": 8974,
            "durationTicks": 41
          },
          {
            "time": 33.18781506250001,
            "midi": 90,
            "name": "F#6",
            "velocity": 1,
            "duration": 0.15162696874999426,
            "ticks": 8974,
            "durationTicks": 41
          },
          {
            "time": 33.5428440625,
            "midi": 86,
            "name": "D6",
            "velocity": 1,
            "duration": 0.13683409374999655,
            "ticks": 9070,
            "durationTicks": 37
          },
          {
            "time": 33.546542281250005,
            "midi": 74,
            "name": "D5",
            "velocity": 1,
            "duration": 0.13313587499999358,
            "ticks": 9071,
            "durationTicks": 36
          },
          {
            "time": 33.897873062500004,
            "midi": 90,
            "name": "F#6",
            "velocity": 1,
            "duration": 0.15532518750000435,
            "ticks": 9166,
            "durationTicks": 42
          },
          {
            "time": 33.897873062500004,
            "midi": 78,
            "name": "F#5",
            "velocity": 1,
            "duration": 0.15532518750000435,
            "ticks": 9166,
            "durationTicks": 42
          },
          {
            "time": 34.252902062500006,
            "midi": 78,
            "name": "F#5",
            "velocity": 1,
            "duration": 0.15532518749999724,
            "ticks": 9262,
            "durationTicks": 42
          },
          {
            "time": 34.25660028125,
            "midi": 90,
            "name": "F#6",
            "velocity": 1,
            "duration": 0.15162696875000137,
            "ticks": 9263,
            "durationTicks": 41
          },
          {
            "time": 34.61162928125,
            "midi": 90,
            "name": "F#6",
            "velocity": 1,
            "duration": 0.15162696875000137,
            "ticks": 9359,
            "durationTicks": 41
          },
          {
            "time": 34.61162928125,
            "midi": 78,
            "name": "F#5",
            "velocity": 1,
            "duration": 0.15162696875000137,
            "ticks": 9359,
            "durationTicks": 41
          },
          {
            "time": 34.79284200000001,
            "midi": 88,
            "name": "E6",
            "velocity": 1,
            "duration": 0.15902340625000022,
            "ticks": 9408,
            "durationTicks": 43
          },
          {
            "time": 34.79284200000001,
            "midi": 76,
            "name": "E5",
            "velocity": 1,
            "duration": 0.15902340625000022,
            "ticks": 9408,
            "durationTicks": 43
          },
          {
            "time": 34.966658281250005,
            "midi": 76,
            "name": "E5",
            "velocity": 1,
            "duration": 0.15902340625000022,
            "ticks": 9455,
            "durationTicks": 43
          },
          {
            "time": 34.9703565,
            "midi": 88,
            "name": "E6",
            "velocity": 1,
            "duration": 0.15532518750000435,
            "ticks": 9456,
            "durationTicks": 42
          },
          {
            "time": 35.147871,
            "midi": 76,
            "name": "E5",
            "velocity": 1,
            "duration": 0.1442305312500025,
            "ticks": 9504,
            "durationTicks": 39
          },
          {
            "time": 35.151569218750005,
            "midi": 88,
            "name": "E6",
            "velocity": 1,
            "duration": 0.14053231249999953,
            "ticks": 9505,
            "durationTicks": 38
          },
          {
            "time": 132.3666455,
            "midi": 78,
            "name": "F#5",
            "velocity": 1,
            "duration": 0.12943765625001902,
            "ticks": 35792,
            "durationTicks": 35
          },
          {
            "time": 132.3666455,
            "midi": 90,
            "name": "F#6",
            "velocity": 1,
            "duration": 0.12943765625001902,
            "ticks": 35792,
            "durationTicks": 35
          },
          {
            "time": 132.54785821875,
            "midi": 90,
            "name": "F#6",
            "velocity": 1,
            "duration": 0.17381628124999793,
            "ticks": 35841,
            "durationTicks": 47
          },
          {
            "time": 132.54785821875,
            "midi": 78,
            "name": "F#5",
            "velocity": 1,
            "duration": 0.17381628124999793,
            "ticks": 35841,
            "durationTicks": 47
          },
          {
            "time": 132.72537271875,
            "midi": 86,
            "name": "D6",
            "velocity": 1,
            "duration": 0.17381628124999793,
            "ticks": 35889,
            "durationTicks": 47
          },
          {
            "time": 132.72537271875,
            "midi": 74,
            "name": "D5",
            "velocity": 1,
            "duration": 0.17381628124999793,
            "ticks": 35889,
            "durationTicks": 47
          },
          {
            "time": 132.90288721875,
            "midi": 71,
            "name": "B4",
            "velocity": 1,
            "duration": 0.15532518750001145,
            "ticks": 35937,
            "durationTicks": 42
          },
          {
            "time": 132.90288721875,
            "midi": 83,
            "name": "B5",
            "velocity": 1,
            "duration": 0.15532518750001145,
            "ticks": 35937,
            "durationTicks": 42
          },
          {
            "time": 133.26161443750001,
            "midi": 83,
            "name": "B5",
            "velocity": 1,
            "duration": 0.17381628124999793,
            "ticks": 36034,
            "durationTicks": 47
          },
          {
            "time": 133.26161443750001,
            "midi": 71,
            "name": "B4",
            "velocity": 1,
            "duration": 0.17381628124999793,
            "ticks": 36034,
            "durationTicks": 47
          },
          {
            "time": 133.61664343750002,
            "midi": 88,
            "name": "E6",
            "velocity": 1,
            "duration": 0.15532518750001145,
            "ticks": 36130,
            "durationTicks": 42
          },
          {
            "time": 133.61664343750002,
            "midi": 76,
            "name": "E5",
            "velocity": 1,
            "duration": 0.15532518750001145,
            "ticks": 36130,
            "durationTicks": 42
          },
          {
            "time": 133.97167243750002,
            "midi": 76,
            "name": "E5",
            "velocity": 1,
            "duration": 0.17381628124999793,
            "ticks": 36226,
            "durationTicks": 47
          },
          {
            "time": 133.97167243750002,
            "midi": 88,
            "name": "E6",
            "velocity": 1,
            "duration": 0.17381628124999793,
            "ticks": 36226,
            "durationTicks": 47
          },
          {
            "time": 134.32670143750002,
            "midi": 88,
            "name": "E6",
            "velocity": 1,
            "duration": 0.1775145000000009,
            "ticks": 36322,
            "durationTicks": 48
          },
          {
            "time": 134.32670143750002,
            "midi": 76,
            "name": "E5",
            "velocity": 1,
            "duration": 0.1775145000000009,
            "ticks": 36322,
            "durationTicks": 48
          },
          {
            "time": 134.50421593750002,
            "midi": 92,
            "name": "G#6",
            "velocity": 1,
            "duration": 0.1442305312500025,
            "ticks": 36370,
            "durationTicks": 39
          },
          {
            "time": 134.50791415625,
            "midi": 80,
            "name": "G#5",
            "velocity": 1,
            "duration": 0.14053231250002796,
            "ticks": 36371,
            "durationTicks": 38
          },
          {
            "time": 134.68542865625,
            "midi": 80,
            "name": "G#5",
            "velocity": 1,
            "duration": 0.15532518750001145,
            "ticks": 36419,
            "durationTicks": 42
          },
          {
            "time": 134.68542865625,
            "midi": 92,
            "name": "G#6",
            "velocity": 1,
            "duration": 0.15532518750001145,
            "ticks": 36419,
            "durationTicks": 42
          },
          {
            "time": 134.85924493750002,
            "midi": 93,
            "name": "A6",
            "velocity": 1,
            "duration": 0.159023406249986,
            "ticks": 36466,
            "durationTicks": 43
          },
          {
            "time": 134.85924493750002,
            "midi": 81,
            "name": "A5",
            "velocity": 1,
            "duration": 0.159023406249986,
            "ticks": 36466,
            "durationTicks": 43
          },
          {
            "time": 135.04045765625,
            "midi": 95,
            "name": "B6",
            "velocity": 1,
            "duration": 0.17381628125002635,
            "ticks": 36515,
            "durationTicks": 47
          },
          {
            "time": 135.04045765625,
            "midi": 83,
            "name": "B5",
            "velocity": 1,
            "duration": 0.1775145000000009,
            "ticks": 36515,
            "durationTicks": 48
          },
          {
            "time": 135.21797215625,
            "midi": 78,
            "name": "F#5",
            "velocity": 1,
            "duration": 0.12943765625001902,
            "ticks": 36563,
            "durationTicks": 35
          },
          {
            "time": 135.21797215625,
            "midi": 90,
            "name": "F#6",
            "velocity": 1,
            "duration": 0.12943765625001902,
            "ticks": 36563,
            "durationTicks": 35
          },
          {
            "time": 135.39548665625,
            "midi": 90,
            "name": "F#6",
            "velocity": 1,
            "duration": 0.1775145000000009,
            "ticks": 36611,
            "durationTicks": 48
          },
          {
            "time": 135.39548665625,
            "midi": 78,
            "name": "F#5",
            "velocity": 1,
            "duration": 0.1775145000000009,
            "ticks": 36611,
            "durationTicks": 48
          },
          {
            "time": 135.57300115625,
            "midi": 86,
            "name": "D6",
            "velocity": 1,
            "duration": 0.17381628125002635,
            "ticks": 36659,
            "durationTicks": 47
          },
          {
            "time": 135.57300115625,
            "midi": 74,
            "name": "D5",
            "velocity": 1,
            "duration": 0.17381628125002635,
            "ticks": 36659,
            "durationTicks": 47
          },
          {
            "time": 135.754213875,
            "midi": 71,
            "name": "B4",
            "velocity": 1,
            "duration": 0.15532518750001145,
            "ticks": 36708,
            "durationTicks": 42
          },
          {
            "time": 135.754213875,
            "midi": 83,
            "name": "B5",
            "velocity": 1,
            "duration": 0.15532518750001145,
            "ticks": 36708,
            "durationTicks": 42
          },
          {
            "time": 136.109242875,
            "midi": 83,
            "name": "B5",
            "velocity": 1,
            "duration": 0.17381628124999793,
            "ticks": 36804,
            "durationTicks": 47
          },
          {
            "time": 136.109242875,
            "midi": 71,
            "name": "B4",
            "velocity": 1,
            "duration": 0.17381628124999793,
            "ticks": 36804,
            "durationTicks": 47
          },
          {
            "time": 136.464271875,
            "midi": 88,
            "name": "E6",
            "velocity": 1,
            "duration": 0.15532518750001145,
            "ticks": 36900,
            "durationTicks": 42
          },
          {
            "time": 136.464271875,
            "midi": 76,
            "name": "E5",
            "velocity": 1,
            "duration": 0.15532518750001145,
            "ticks": 36900,
            "durationTicks": 42
          },
          {
            "time": 136.819300875,
            "midi": 76,
            "name": "E5",
            "velocity": 1,
            "duration": 0.1775145000000009,
            "ticks": 36996,
            "durationTicks": 48
          },
          {
            "time": 136.82299909375,
            "midi": 88,
            "name": "E6",
            "velocity": 1,
            "duration": 0.17381628124999793,
            "ticks": 36997,
            "durationTicks": 47
          },
          {
            "time": 137.17802809375002,
            "midi": 88,
            "name": "E6",
            "velocity": 1,
            "duration": 0.17381628124999793,
            "ticks": 37093,
            "durationTicks": 47
          },
          {
            "time": 137.17802809375002,
            "midi": 76,
            "name": "E5",
            "velocity": 1,
            "duration": 0.17381628124999793,
            "ticks": 37093,
            "durationTicks": 47
          },
          {
            "time": 137.35554259375002,
            "midi": 92,
            "name": "G#6",
            "velocity": 1,
            "duration": 0.14053231249999953,
            "ticks": 37141,
            "durationTicks": 38
          },
          {
            "time": 137.35554259375002,
            "midi": 80,
            "name": "G#5",
            "velocity": 1,
            "duration": 0.14053231249999953,
            "ticks": 37141,
            "durationTicks": 38
          },
          {
            "time": 137.53305709375002,
            "midi": 80,
            "name": "G#5",
            "velocity": 1,
            "duration": 0.15532518750001145,
            "ticks": 37189,
            "durationTicks": 42
          },
          {
            "time": 137.53675531250002,
            "midi": 92,
            "name": "G#6",
            "velocity": 1,
            "duration": 0.15162696875000847,
            "ticks": 37190,
            "durationTicks": 41
          },
          {
            "time": 137.71057159375002,
            "midi": 93,
            "name": "A6",
            "velocity": 1,
            "duration": 0.159023406249986,
            "ticks": 37237,
            "durationTicks": 43
          },
          {
            "time": 137.71057159375002,
            "midi": 81,
            "name": "A5",
            "velocity": 1,
            "duration": 0.159023406249986,
            "ticks": 37237,
            "durationTicks": 43
          },
          {
            "time": 137.88808609375002,
            "midi": 95,
            "name": "B6",
            "velocity": 1,
            "duration": 0.162721624999989,
            "ticks": 37285,
            "durationTicks": 44
          },
          {
            "time": 137.88808609375002,
            "midi": 83,
            "name": "B5",
            "velocity": 1,
            "duration": 0.162721624999989,
            "ticks": 37285,
            "durationTicks": 44
          },
          {
            "time": 138.06560059375002,
            "midi": 78,
            "name": "F#5",
            "velocity": 1,
            "duration": 0.1294376562499906,
            "ticks": 37333,
            "durationTicks": 35
          },
          {
            "time": 138.0692988125,
            "midi": 90,
            "name": "F#6",
            "velocity": 1,
            "duration": 0.12573943750001604,
            "ticks": 37334,
            "durationTicks": 34
          },
          {
            "time": 138.2468133125,
            "midi": 90,
            "name": "F#6",
            "velocity": 1,
            "duration": 0.1775145000000009,
            "ticks": 37382,
            "durationTicks": 48
          },
          {
            "time": 138.2468133125,
            "midi": 78,
            "name": "F#5",
            "velocity": 1,
            "duration": 0.1775145000000009,
            "ticks": 37382,
            "durationTicks": 48
          },
          {
            "time": 138.4243278125,
            "midi": 86,
            "name": "D6",
            "velocity": 1,
            "duration": 0.17011806250002337,
            "ticks": 37430,
            "durationTicks": 46
          },
          {
            "time": 138.4243278125,
            "midi": 74,
            "name": "D5",
            "velocity": 1,
            "duration": 0.17011806250002337,
            "ticks": 37430,
            "durationTicks": 46
          },
          {
            "time": 138.6018423125,
            "midi": 71,
            "name": "B4",
            "velocity": 1,
            "duration": 0.15532518750001145,
            "ticks": 37478,
            "durationTicks": 42
          },
          {
            "time": 138.6018423125,
            "midi": 83,
            "name": "B5",
            "velocity": 1,
            "duration": 0.15532518750001145,
            "ticks": 37478,
            "durationTicks": 42
          },
          {
            "time": 138.96056953125,
            "midi": 83,
            "name": "B5",
            "velocity": 1,
            "duration": 0.1775145000000009,
            "ticks": 37575,
            "durationTicks": 48
          },
          {
            "time": 138.96056953125,
            "midi": 71,
            "name": "B4",
            "velocity": 1,
            "duration": 0.1775145000000009,
            "ticks": 37575,
            "durationTicks": 48
          },
          {
            "time": 139.31559853125,
            "midi": 88,
            "name": "E6",
            "velocity": 1,
            "duration": 0.15162696875000847,
            "ticks": 37671,
            "durationTicks": 41
          },
          {
            "time": 139.31559853125,
            "midi": 76,
            "name": "E5",
            "velocity": 1,
            "duration": 0.15162696875000847,
            "ticks": 37671,
            "durationTicks": 41
          },
          {
            "time": 139.67062753125,
            "midi": 76,
            "name": "E5",
            "velocity": 1,
            "duration": 0.1775145000000009,
            "ticks": 37767,
            "durationTicks": 48
          },
          {
            "time": 139.67062753125,
            "midi": 88,
            "name": "E6",
            "velocity": 1,
            "duration": 0.1775145000000009,
            "ticks": 37767,
            "durationTicks": 48
          },
          {
            "time": 140.02565653125,
            "midi": 88,
            "name": "E6",
            "velocity": 1,
            "duration": 0.1812127187500039,
            "ticks": 37863,
            "durationTicks": 49
          },
          {
            "time": 140.02565653125,
            "midi": 76,
            "name": "E5",
            "velocity": 1,
            "duration": 0.1812127187500039,
            "ticks": 37863,
            "durationTicks": 49
          },
          {
            "time": 140.20686925,
            "midi": 92,
            "name": "G#6",
            "velocity": 1,
            "duration": 0.14053231249999953,
            "ticks": 37912,
            "durationTicks": 38
          },
          {
            "time": 140.20686925,
            "midi": 80,
            "name": "G#5",
            "velocity": 1,
            "duration": 0.14053231249999953,
            "ticks": 37912,
            "durationTicks": 38
          },
          {
            "time": 140.38438375,
            "midi": 80,
            "name": "G#5",
            "velocity": 1,
            "duration": 0.15162696875000847,
            "ticks": 37960,
            "durationTicks": 41
          },
          {
            "time": 140.38438375,
            "midi": 92,
            "name": "G#6",
            "velocity": 1,
            "duration": 0.15162696875000847,
            "ticks": 37960,
            "durationTicks": 41
          },
          {
            "time": 140.55820003125,
            "midi": 93,
            "name": "A6",
            "velocity": 1,
            "duration": 0.15902340625001443,
            "ticks": 38007,
            "durationTicks": 43
          },
          {
            "time": 140.55820003125,
            "midi": 81,
            "name": "A5",
            "velocity": 1,
            "duration": 0.15902340625001443,
            "ticks": 38007,
            "durationTicks": 43
          },
          {
            "time": 140.73941275,
            "midi": 95,
            "name": "B6",
            "velocity": 1,
            "duration": 0.1775145000000009,
            "ticks": 38056,
            "durationTicks": 48
          },
          {
            "time": 140.73941275,
            "midi": 83,
            "name": "B5",
            "velocity": 1,
            "duration": 0.1775145000000009,
            "ticks": 38056,
            "durationTicks": 48
          },
          {
            "time": 140.91692725000001,
            "midi": 81,
            "name": "A5",
            "velocity": 1,
            "duration": 0.13683409374999655,
            "ticks": 38104,
            "durationTicks": 37
          },
          {
            "time": 140.91692725000001,
            "midi": 93,
            "name": "A6",
            "velocity": 1,
            "duration": 0.13683409374999655,
            "ticks": 38104,
            "durationTicks": 37
          },
          {
            "time": 141.09444175000002,
            "midi": 93,
            "name": "A6",
            "velocity": 1,
            "duration": 0.15162696875000847,
            "ticks": 38152,
            "durationTicks": 41
          },
          {
            "time": 141.09444175000002,
            "midi": 81,
            "name": "A5",
            "velocity": 1,
            "duration": 0.15162696875000847,
            "ticks": 38152,
            "durationTicks": 41
          },
          {
            "time": 141.27195625000002,
            "midi": 93,
            "name": "A6",
            "velocity": 1,
            "duration": 0.13683409374999655,
            "ticks": 38200,
            "durationTicks": 37
          },
          {
            "time": 141.27195625000002,
            "midi": 81,
            "name": "A5",
            "velocity": 1,
            "duration": 0.13683409374999655,
            "ticks": 38200,
            "durationTicks": 37
          },
          {
            "time": 141.45316896875002,
            "midi": 76,
            "name": "E5",
            "velocity": 1,
            "duration": 0.1479287500000055,
            "ticks": 38249,
            "durationTicks": 40
          },
          {
            "time": 141.45316896875002,
            "midi": 88,
            "name": "E6",
            "velocity": 1,
            "duration": 0.1479287500000055,
            "ticks": 38249,
            "durationTicks": 40
          },
          {
            "time": 141.80819796875002,
            "midi": 86,
            "name": "D6",
            "velocity": 1,
            "duration": 0.13683409374999655,
            "ticks": 38345,
            "durationTicks": 37
          },
          {
            "time": 141.81189618750003,
            "midi": 74,
            "name": "D5",
            "velocity": 1,
            "duration": 0.13313587499999358,
            "ticks": 38346,
            "durationTicks": 36
          },
          {
            "time": 142.16322696875,
            "midi": 90,
            "name": "F#6",
            "velocity": 1,
            "duration": 0.15532518750001145,
            "ticks": 38441,
            "durationTicks": 42
          },
          {
            "time": 142.16322696875,
            "midi": 78,
            "name": "F#5",
            "velocity": 1,
            "duration": 0.15532518750001145,
            "ticks": 38441,
            "durationTicks": 42
          },
          {
            "time": 142.51825596875,
            "midi": 78,
            "name": "F#5",
            "velocity": 1,
            "duration": 0.15532518750001145,
            "ticks": 38537,
            "durationTicks": 42
          },
          {
            "time": 142.51825596875,
            "midi": 90,
            "name": "F#6",
            "velocity": 1,
            "duration": 0.15532518750001145,
            "ticks": 38537,
            "durationTicks": 42
          },
          {
            "time": 142.8769831875,
            "midi": 90,
            "name": "F#6",
            "velocity": 1,
            "duration": 0.14792875000003392,
            "ticks": 38634,
            "durationTicks": 40
          },
          {
            "time": 142.8769831875,
            "midi": 78,
            "name": "F#5",
            "velocity": 1,
            "duration": 0.14792875000003392,
            "ticks": 38634,
            "durationTicks": 40
          },
          {
            "time": 143.0544976875,
            "midi": 88,
            "name": "E6",
            "velocity": 1,
            "duration": 0.15532518750001145,
            "ticks": 38682,
            "durationTicks": 42
          },
          {
            "time": 143.0544976875,
            "midi": 76,
            "name": "E5",
            "velocity": 1,
            "duration": 0.15532518750001145,
            "ticks": 38682,
            "durationTicks": 42
          },
          {
            "time": 143.2320121875,
            "midi": 76,
            "name": "E5",
            "velocity": 1,
            "duration": 0.15902340625001443,
            "ticks": 38730,
            "durationTicks": 43
          },
          {
            "time": 143.23571040625004,
            "midi": 88,
            "name": "E6",
            "velocity": 1,
            "duration": 0.15532518749998303,
            "ticks": 38731,
            "durationTicks": 42
          },
          {
            "time": 143.4095266875,
            "midi": 90,
            "name": "F#6",
            "velocity": 1,
            "duration": 0.14053231249999953,
            "ticks": 38778,
            "durationTicks": 38
          },
          {
            "time": 143.4095266875,
            "midi": 78,
            "name": "F#5",
            "velocity": 1,
            "duration": 0.14053231249999953,
            "ticks": 38778,
            "durationTicks": 38
          },
          {
            "time": 143.5870411875,
            "midi": 88,
            "name": "E6",
            "velocity": 1,
            "duration": 0.15902340625001443,
            "ticks": 38826,
            "durationTicks": 43
          },
          {
            "time": 143.59073940625,
            "midi": 76,
            "name": "E5",
            "velocity": 1,
            "duration": 0.15532518750001145,
            "ticks": 38827,
            "durationTicks": 42
          },
          {
            "time": 143.7645556875,
            "midi": 78,
            "name": "F#5",
            "velocity": 1,
            "duration": 0.1442305312500025,
            "ticks": 38874,
            "durationTicks": 39
          },
          {
            "time": 143.7645556875,
            "midi": 90,
            "name": "F#6",
            "velocity": 1,
            "duration": 0.1442305312500025,
            "ticks": 38874,
            "durationTicks": 39
          },
          {
            "time": 143.94576840625,
            "midi": 90,
            "name": "F#6",
            "velocity": 1,
            "duration": 0.15162696875000847,
            "ticks": 38923,
            "durationTicks": 41
          },
          {
            "time": 143.94576840625,
            "midi": 78,
            "name": "F#5",
            "velocity": 1,
            "duration": 0.15162696875000847,
            "ticks": 38923,
            "durationTicks": 41
          },
          {
            "time": 144.1195846875,
            "midi": 86,
            "name": "D6",
            "velocity": 1,
            "duration": 0.15532518750001145,
            "ticks": 38970,
            "durationTicks": 42
          },
          {
            "time": 144.12328290625,
            "midi": 74,
            "name": "D5",
            "velocity": 1,
            "duration": 0.15162696875000847,
            "ticks": 38971,
            "durationTicks": 41
          },
          {
            "time": 144.30079740625,
            "midi": 71,
            "name": "B4",
            "velocity": 1,
            "duration": 0.1294376562499906,
            "ticks": 39019,
            "durationTicks": 35
          },
          {
            "time": 144.30079740625,
            "midi": 83,
            "name": "B5",
            "velocity": 1,
            "duration": 0.1294376562499906,
            "ticks": 39019,
            "durationTicks": 35
          },
          {
            "time": 144.65952462500002,
            "midi": 83,
            "name": "B5",
            "velocity": 1,
            "duration": 0.15532518749998303,
            "ticks": 39116,
            "durationTicks": 42
          },
          {
            "time": 144.65952462500002,
            "midi": 71,
            "name": "B4",
            "velocity": 1,
            "duration": 0.15532518749998303,
            "ticks": 39116,
            "durationTicks": 42
          },
          {
            "time": 145.01455362500002,
            "midi": 88,
            "name": "E6",
            "velocity": 1,
            "duration": 0.16641984374999197,
            "ticks": 39212,
            "durationTicks": 45
          },
          {
            "time": 145.01455362500002,
            "midi": 76,
            "name": "E5",
            "velocity": 1,
            "duration": 0.16641984374999197,
            "ticks": 39212,
            "durationTicks": 45
          },
          {
            "time": 145.36958262500002,
            "midi": 76,
            "name": "E5",
            "velocity": 1,
            "duration": 0.1775145000000009,
            "ticks": 39308,
            "durationTicks": 48
          },
          {
            "time": 145.36958262500002,
            "midi": 88,
            "name": "E6",
            "velocity": 1,
            "duration": 0.1775145000000009,
            "ticks": 39308,
            "durationTicks": 48
          },
          {
            "time": 145.72461162500002,
            "midi": 88,
            "name": "E6",
            "velocity": 1,
            "duration": 0.17011806249999495,
            "ticks": 39404,
            "durationTicks": 46
          },
          {
            "time": 145.72461162500002,
            "midi": 76,
            "name": "E5",
            "velocity": 1,
            "duration": 0.17011806249999495,
            "ticks": 39404,
            "durationTicks": 46
          },
          {
            "time": 145.902126125,
            "midi": 92,
            "name": "G#6",
            "velocity": 1,
            "duration": 0.1516269687500369,
            "ticks": 39452,
            "durationTicks": 41
          },
          {
            "time": 145.90582434375003,
            "midi": 80,
            "name": "G#5",
            "velocity": 1,
            "duration": 0.1479287500000055,
            "ticks": 39453,
            "durationTicks": 40
          },
          {
            "time": 146.08333884375003,
            "midi": 80,
            "name": "G#5",
            "velocity": 1,
            "duration": 0.1442305312500025,
            "ticks": 39501,
            "durationTicks": 39
          },
          {
            "time": 146.08333884375003,
            "midi": 92,
            "name": "G#6",
            "velocity": 1,
            "duration": 0.1442305312500025,
            "ticks": 39501,
            "durationTicks": 39
          },
          {
            "time": 146.257155125,
            "midi": 93,
            "name": "A6",
            "velocity": 1,
            "duration": 0.1442305312500025,
            "ticks": 39548,
            "durationTicks": 39
          },
          {
            "time": 146.257155125,
            "midi": 81,
            "name": "A5",
            "velocity": 1,
            "duration": 0.1442305312500025,
            "ticks": 39548,
            "durationTicks": 39
          },
          {
            "time": 146.43836784375003,
            "midi": 95,
            "name": "B6",
            "velocity": 1,
            "duration": 0.1479287500000055,
            "ticks": 39597,
            "durationTicks": 40
          },
          {
            "time": 146.43836784375003,
            "midi": 83,
            "name": "B5",
            "velocity": 1,
            "duration": 0.1479287500000055,
            "ticks": 39597,
            "durationTicks": 40
          },
          {
            "time": 146.612184125,
            "midi": 81,
            "name": "A5",
            "velocity": 1,
            "duration": 0.12943765625001902,
            "ticks": 39644,
            "durationTicks": 35
          },
          {
            "time": 146.612184125,
            "midi": 93,
            "name": "A6",
            "velocity": 1,
            "duration": 0.12943765625001902,
            "ticks": 39644,
            "durationTicks": 35
          },
          {
            "time": 146.79339684375,
            "midi": 93,
            "name": "A6",
            "velocity": 1,
            "duration": 0.14053231249999953,
            "ticks": 39693,
            "durationTicks": 38
          },
          {
            "time": 146.79339684375,
            "midi": 81,
            "name": "A5",
            "velocity": 1,
            "duration": 0.14053231249999953,
            "ticks": 39693,
            "durationTicks": 38
          },
          {
            "time": 146.97091134375,
            "midi": 93,
            "name": "A6",
            "velocity": 1,
            "duration": 0.10355012500002658,
            "ticks": 39741,
            "durationTicks": 28
          },
          {
            "time": 146.97091134375,
            "midi": 81,
            "name": "A5",
            "velocity": 1,
            "duration": 0.10355012500002658,
            "ticks": 39741,
            "durationTicks": 28
          },
          {
            "time": 147.14842584375,
            "midi": 76,
            "name": "E5",
            "velocity": 1,
            "duration": 0.11834300000001008,
            "ticks": 39789,
            "durationTicks": 32
          },
          {
            "time": 147.15212406250004,
            "midi": 88,
            "name": "E6",
            "velocity": 1,
            "duration": 0.11464478124997868,
            "ticks": 39790,
            "durationTicks": 31
          },
          {
            "time": 147.5071530625,
            "midi": 86,
            "name": "D6",
            "velocity": 1,
            "duration": 0.09615368750002062,
            "ticks": 39886,
            "durationTicks": 26
          },
          {
            "time": 147.5071530625,
            "midi": 74,
            "name": "D5",
            "velocity": 1,
            "duration": 0.09615368750002062,
            "ticks": 39886,
            "durationTicks": 26
          },
          {
            "time": 147.8621820625,
            "midi": 90,
            "name": "F#6",
            "velocity": 1,
            "duration": 0.12204121875001306,
            "ticks": 39982,
            "durationTicks": 33
          },
          {
            "time": 147.8621820625,
            "midi": 78,
            "name": "F#5",
            "velocity": 1,
            "duration": 0.12204121875001306,
            "ticks": 39982,
            "durationTicks": 33
          },
          {
            "time": 148.2172110625,
            "midi": 78,
            "name": "F#5",
            "velocity": 1,
            "duration": 0.1442305312500025,
            "ticks": 40078,
            "durationTicks": 39
          },
          {
            "time": 148.2172110625,
            "midi": 90,
            "name": "F#6",
            "velocity": 1,
            "duration": 0.1442305312500025,
            "ticks": 40078,
            "durationTicks": 39
          },
          {
            "time": 148.57224006250001,
            "midi": 90,
            "name": "F#6",
            "velocity": 1,
            "duration": 0.15162696875000847,
            "ticks": 40174,
            "durationTicks": 41
          },
          {
            "time": 148.57224006250001,
            "midi": 78,
            "name": "F#5",
            "velocity": 1,
            "duration": 0.15162696875000847,
            "ticks": 40174,
            "durationTicks": 41
          },
          {
            "time": 148.75345278125002,
            "midi": 88,
            "name": "E6",
            "velocity": 1,
            "duration": 0.13683409374999655,
            "ticks": 40223,
            "durationTicks": 37
          },
          {
            "time": 148.75345278125002,
            "midi": 76,
            "name": "E5",
            "velocity": 1,
            "duration": 0.13683409374999655,
            "ticks": 40223,
            "durationTicks": 37
          },
          {
            "time": 148.93096728125002,
            "midi": 76,
            "name": "E5",
            "velocity": 1,
            "duration": 0.17381628124999793,
            "ticks": 40271,
            "durationTicks": 47
          },
          {
            "time": 148.93096728125002,
            "midi": 88,
            "name": "E6",
            "velocity": 1,
            "duration": 0.17381628124999793,
            "ticks": 40271,
            "durationTicks": 47
          },
          {
            "time": 149.10848178125002,
            "midi": 90,
            "name": "F#6",
            "velocity": 1,
            "duration": 0.15162696875000847,
            "ticks": 40319,
            "durationTicks": 41
          },
          {
            "time": 149.10848178125002,
            "midi": 78,
            "name": "F#5",
            "velocity": 1,
            "duration": 0.15162696875000847,
            "ticks": 40319,
            "durationTicks": 41
          },
          {
            "time": 149.28599628125002,
            "midi": 88,
            "name": "E6",
            "velocity": 1,
            "duration": 0.159023406249986,
            "ticks": 40367,
            "durationTicks": 43
          },
          {
            "time": 149.28599628125002,
            "midi": 76,
            "name": "E5",
            "velocity": 1,
            "duration": 0.159023406249986,
            "ticks": 40367,
            "durationTicks": 43
          },
          {
            "time": 149.46351078125002,
            "midi": 78,
            "name": "F#5",
            "velocity": 1,
            "duration": 0.12573943749998762,
            "ticks": 40415,
            "durationTicks": 34
          },
          {
            "time": 149.46351078125002,
            "midi": 90,
            "name": "F#6",
            "velocity": 1,
            "duration": 0.1294376562499906,
            "ticks": 40415,
            "durationTicks": 35
          },
          {
            "time": 149.64102528125002,
            "midi": 90,
            "name": "F#6",
            "velocity": 1,
            "duration": 0.17751449999997249,
            "ticks": 40463,
            "durationTicks": 48
          },
          {
            "time": 149.64102528125002,
            "midi": 78,
            "name": "F#5",
            "velocity": 1,
            "duration": 0.17751449999997249,
            "ticks": 40463,
            "durationTicks": 48
          },
          {
            "time": 149.82223800000003,
            "midi": 86,
            "name": "D6",
            "velocity": 1,
            "duration": 0.17011806249999495,
            "ticks": 40512,
            "durationTicks": 46
          },
          {
            "time": 149.82223800000003,
            "midi": 74,
            "name": "D5",
            "velocity": 1,
            "duration": 0.17011806249999495,
            "ticks": 40512,
            "durationTicks": 46
          },
          {
            "time": 149.99975250000003,
            "midi": 71,
            "name": "B4",
            "velocity": 1,
            "duration": 0.15162696874998005,
            "ticks": 40560,
            "durationTicks": 41
          },
          {
            "time": 149.99975250000003,
            "midi": 83,
            "name": "B5",
            "velocity": 1,
            "duration": 0.15162696874998005,
            "ticks": 40560,
            "durationTicks": 41
          },
          {
            "time": 150.35478150000003,
            "midi": 83,
            "name": "B5",
            "velocity": 1,
            "duration": 0.1812127187500039,
            "ticks": 40656,
            "durationTicks": 49
          },
          {
            "time": 150.35847971875003,
            "midi": 71,
            "name": "B4",
            "velocity": 1,
            "duration": 0.1775145000000009,
            "ticks": 40657,
            "durationTicks": 48
          },
          {
            "time": 150.7098105,
            "midi": 88,
            "name": "E6",
            "velocity": 1,
            "duration": 0.15532518750001145,
            "ticks": 40752,
            "durationTicks": 42
          },
          {
            "time": 150.7098105,
            "midi": 76,
            "name": "E5",
            "velocity": 1,
            "duration": 0.15532518750001145,
            "ticks": 40752,
            "durationTicks": 42
          },
          {
            "time": 151.06853771875004,
            "midi": 76,
            "name": "E5",
            "velocity": 1,
            "duration": 0.1738162812499695,
            "ticks": 40849,
            "durationTicks": 47
          },
          {
            "time": 151.06853771875004,
            "midi": 88,
            "name": "E6",
            "velocity": 1,
            "duration": 0.1738162812499695,
            "ticks": 40849,
            "durationTicks": 47
          },
          {
            "time": 151.42356671875,
            "midi": 88,
            "name": "E6",
            "velocity": 1,
            "duration": 0.1775145000000009,
            "ticks": 40945,
            "durationTicks": 48
          },
          {
            "time": 151.42356671875,
            "midi": 76,
            "name": "E5",
            "velocity": 1,
            "duration": 0.1775145000000009,
            "ticks": 40945,
            "durationTicks": 48
          },
          {
            "time": 151.6047794375,
            "midi": 92,
            "name": "G#6",
            "velocity": 1,
            "duration": 0.13683409374999655,
            "ticks": 40994,
            "durationTicks": 37
          },
          {
            "time": 151.6047794375,
            "midi": 80,
            "name": "G#5",
            "velocity": 1,
            "duration": 0.13683409374999655,
            "ticks": 40994,
            "durationTicks": 37
          },
          {
            "time": 151.77859571875,
            "midi": 80,
            "name": "G#5",
            "velocity": 1,
            "duration": 0.15532518750001145,
            "ticks": 41041,
            "durationTicks": 42
          },
          {
            "time": 151.78229393750001,
            "midi": 92,
            "name": "G#6",
            "velocity": 1,
            "duration": 0.15162696875000847,
            "ticks": 41042,
            "durationTicks": 41
          },
          {
            "time": 151.95611021875,
            "midi": 93,
            "name": "A6",
            "velocity": 1,
            "duration": 0.159023406249986,
            "ticks": 41089,
            "durationTicks": 43
          },
          {
            "time": 151.95611021875,
            "midi": 81,
            "name": "A5",
            "velocity": 1,
            "duration": 0.159023406249986,
            "ticks": 41089,
            "durationTicks": 43
          },
          {
            "time": 152.13362471875,
            "midi": 95,
            "name": "B6",
            "velocity": 1,
            "duration": 0.1775145000000009,
            "ticks": 41137,
            "durationTicks": 48
          },
          {
            "time": 152.13362471875,
            "midi": 83,
            "name": "B5",
            "velocity": 1,
            "duration": 0.1775145000000009,
            "ticks": 41137,
            "durationTicks": 48
          },
          {
            "time": 152.31483743750002,
            "midi": 81,
            "name": "A5",
            "velocity": 1,
            "duration": 0.14053231249999953,
            "ticks": 41186,
            "durationTicks": 38
          },
          {
            "time": 152.31483743750002,
            "midi": 93,
            "name": "A6",
            "velocity": 1,
            "duration": 0.14053231249999953,
            "ticks": 41186,
            "durationTicks": 38
          },
          {
            "time": 152.49235193750002,
            "midi": 93,
            "name": "A6",
            "velocity": 1,
            "duration": 0.1479287500000055,
            "ticks": 41234,
            "durationTicks": 40
          },
          {
            "time": 152.49235193750002,
            "midi": 81,
            "name": "A5",
            "velocity": 1,
            "duration": 0.1479287500000055,
            "ticks": 41234,
            "durationTicks": 40
          },
          {
            "time": 152.66616821875002,
            "midi": 93,
            "name": "A6",
            "velocity": 1,
            "duration": 0.1442305312500025,
            "ticks": 41281,
            "durationTicks": 39
          },
          {
            "time": 152.66616821875002,
            "midi": 81,
            "name": "A5",
            "velocity": 1,
            "duration": 0.1442305312500025,
            "ticks": 41281,
            "durationTicks": 39
          },
          {
            "time": 152.84738093750002,
            "midi": 78,
            "name": "F#5",
            "velocity": 1,
            "duration": 0.1479287500000055,
            "ticks": 41330,
            "durationTicks": 40
          },
          {
            "time": 152.84738093750002,
            "midi": 90,
            "name": "F#6",
            "velocity": 1,
            "duration": 0.15162696875000847,
            "ticks": 41330,
            "durationTicks": 41
          },
          {
            "time": 153.20610815625002,
            "midi": 86,
            "name": "D6",
            "velocity": 1,
            "duration": 0.13683409374999655,
            "ticks": 41427,
            "durationTicks": 37
          },
          {
            "time": 153.20610815625002,
            "midi": 74,
            "name": "D5",
            "velocity": 1,
            "duration": 0.13683409374999655,
            "ticks": 41427,
            "durationTicks": 37
          },
          {
            "time": 153.56113715625003,
            "midi": 90,
            "name": "F#6",
            "velocity": 1,
            "duration": 0.15162696874998005,
            "ticks": 41523,
            "durationTicks": 41
          },
          {
            "time": 153.56113715625003,
            "midi": 78,
            "name": "F#5",
            "velocity": 1,
            "duration": 0.15162696874998005,
            "ticks": 41523,
            "durationTicks": 41
          },
          {
            "time": 153.91616615625003,
            "midi": 78,
            "name": "F#5",
            "velocity": 1,
            "duration": 0.15532518749998303,
            "ticks": 41619,
            "durationTicks": 42
          },
          {
            "time": 153.91616615625003,
            "midi": 90,
            "name": "F#6",
            "velocity": 1,
            "duration": 0.15532518749998303,
            "ticks": 41619,
            "durationTicks": 42
          },
          {
            "time": 154.27119515625003,
            "midi": 90,
            "name": "F#6",
            "velocity": 1,
            "duration": 0.1479287500000055,
            "ticks": 41715,
            "durationTicks": 40
          },
          {
            "time": 154.27119515625003,
            "midi": 78,
            "name": "F#5",
            "velocity": 1,
            "duration": 0.1479287500000055,
            "ticks": 41715,
            "durationTicks": 40
          },
          {
            "time": 154.44870965625,
            "midi": 88,
            "name": "E6",
            "velocity": 1,
            "duration": 0.15902340625001443,
            "ticks": 41763,
            "durationTicks": 43
          },
          {
            "time": 154.44870965625,
            "midi": 76,
            "name": "E5",
            "velocity": 1,
            "duration": 0.15902340625001443,
            "ticks": 41763,
            "durationTicks": 43
          },
          {
            "time": 154.62992237500004,
            "midi": 76,
            "name": "E5",
            "velocity": 1,
            "duration": 0.15532518749998303,
            "ticks": 41812,
            "durationTicks": 42
          },
          {
            "time": 154.62992237500004,
            "midi": 88,
            "name": "E6",
            "velocity": 1,
            "duration": 0.15532518749998303,
            "ticks": 41812,
            "durationTicks": 42
          },
          {
            "time": 154.80373865625,
            "midi": 76,
            "name": "E5",
            "velocity": 1,
            "duration": 0.1442305312500025,
            "ticks": 41859,
            "durationTicks": 39
          },
          {
            "time": 154.80743687500004,
            "midi": 88,
            "name": "E6",
            "velocity": 1,
            "duration": 0.1405323124999711,
            "ticks": 41860,
            "durationTicks": 38
          }
        ],
        "controlChanges": {
          "7": [
            {
              "number": 7,
              "value": 0.6929133858267716,
              "time": 0,
              "ticks": 0
            },
            {
              "number": 7,
              "value": 0.5433070866141733,
              "time": 216.51961315625005,
              "ticks": 58547
            },
            {
              "number": 7,
              "value": 0.5354330708661418,
              "time": 216.56029356250002,
              "ticks": 58558
            },
            {
              "number": 7,
              "value": 0.5275590551181102,
              "time": 216.60097396875003,
              "ticks": 58569
            },
            {
              "number": 7,
              "value": 0.5196850393700787,
              "time": 216.61576684375,
              "ticks": 58573
            },
            {
              "number": 7,
              "value": 0.5118110236220472,
              "time": 216.65644725,
              "ticks": 58584
            },
            {
              "number": 7,
              "value": 0.5039370078740157,
              "time": 216.759997375,
              "ticks": 58612
            },
            {
              "number": 7,
              "value": 0.49606299212598426,
              "time": 216.81547065625,
              "ticks": 58627
            },
            {
              "number": 7,
              "value": 0.4881889763779528,
              "time": 216.98928693750003,
              "ticks": 58674
            },
            {
              "number": 7,
              "value": 0.48031496062992124,
              "time": 217.22597293750002,
              "ticks": 58738
            },
            {
              "number": 7,
              "value": 0.47244094488188976,
              "time": 217.31103196875003,
              "ticks": 58761
            },
            {
              "number": 7,
              "value": 0.4645669291338583,
              "time": 217.4330731875,
              "ticks": 58794
            },
            {
              "number": 7,
              "value": 0.4566929133858268,
              "time": 217.54771796875002,
              "ticks": 58825
            },
            {
              "number": 7,
              "value": 0.44881889763779526,
              "time": 217.70674137500004,
              "ticks": 58868
            },
            {
              "number": 7,
              "value": 0.4409448818897638,
              "time": 217.8472736875,
              "ticks": 58906
            },
            {
              "number": 7,
              "value": 0.4330708661417323,
              "time": 217.95082381250003,
              "ticks": 58934
            },
            {
              "number": 7,
              "value": 0.4251968503937008,
              "time": 218.00259887500002,
              "ticks": 58948
            },
            {
              "number": 7,
              "value": 0.41732283464566927,
              "time": 218.08395968750003,
              "ticks": 58970
            },
            {
              "number": 7,
              "value": 0.4094488188976378,
              "time": 218.29475815625003,
              "ticks": 59027
            },
            {
              "number": 7,
              "value": 0.4015748031496063,
              "time": 218.4020065,
              "ticks": 59056
            },
            {
              "number": 7,
              "value": 0.3937007874015748,
              "time": 218.50185840625002,
              "ticks": 59083
            },
            {
              "number": 7,
              "value": 0.3858267716535433,
              "time": 218.53514237500002,
              "ticks": 59092
            },
            {
              "number": 7,
              "value": 0.3779527559055118,
              "time": 218.60540853125005,
              "ticks": 59111
            },
            {
              "number": 7,
              "value": 0.3700787401574803,
              "time": 218.76813015625,
              "ticks": 59155
            },
            {
              "number": 7,
              "value": 0.36220472440944884,
              "time": 218.83099987500003,
              "ticks": 59172
            },
            {
              "number": 7,
              "value": 0.3543307086614173,
              "time": 218.91605890625004,
              "ticks": 59195
            },
            {
              "number": 7,
              "value": 0.3464566929133858,
              "time": 218.98262684375004,
              "ticks": 59213
            },
            {
              "number": 7,
              "value": 0.33858267716535434,
              "time": 219.03070368750002,
              "ticks": 59226
            },
            {
              "number": 7,
              "value": 0.33070866141732286,
              "time": 219.18233065625003,
              "ticks": 59267
            },
            {
              "number": 7,
              "value": 0.3228346456692913,
              "time": 219.2230110625,
              "ticks": 59278
            },
            {
              "number": 7,
              "value": 0.31496062992125984,
              "time": 219.26369146875,
              "ticks": 59289
            },
            {
              "number": 7,
              "value": 0.30708661417322836,
              "time": 219.35244871875003,
              "ticks": 59313
            },
            {
              "number": 7,
              "value": 0.2992125984251969,
              "time": 219.41531843750005,
              "ticks": 59330
            },
            {
              "number": 7,
              "value": 0.29133858267716534,
              "time": 219.45230062500002,
              "ticks": 59340
            },
            {
              "number": 7,
              "value": 0.28346456692913385,
              "time": 219.51886856250002,
              "ticks": 59358
            },
            {
              "number": 7,
              "value": 0.2755905511811024,
              "time": 219.688986625,
              "ticks": 59404
            },
            {
              "number": 7,
              "value": 0.2677165354330709,
              "time": 219.75925278125004,
              "ticks": 59423
            },
            {
              "number": 7,
              "value": 0.25984251968503935,
              "time": 219.85540646875,
              "ticks": 59449
            },
            {
              "number": 7,
              "value": 0.25196850393700787,
              "time": 219.94416371875002,
              "ticks": 59473
            },
            {
              "number": 7,
              "value": 0.2440944881889764,
              "time": 220.04031740625,
              "ticks": 59499
            },
            {
              "number": 7,
              "value": 0.23622047244094488,
              "time": 220.14756575000004,
              "ticks": 59528
            },
            {
              "number": 7,
              "value": 0.2283464566929134,
              "time": 220.251115875,
              "ticks": 59556
            },
            {
              "number": 7,
              "value": 0.2204724409448819,
              "time": 220.29549450000002,
              "ticks": 59568
            },
            {
              "number": 7,
              "value": 0.2125984251968504,
              "time": 220.428630375,
              "ticks": 59604
            },
            {
              "number": 7,
              "value": 0.2047244094488189,
              "time": 220.49889653125,
              "ticks": 59623
            },
            {
              "number": 7,
              "value": 0.1968503937007874,
              "time": 220.55067159375002,
              "ticks": 59637
            },
            {
              "number": 7,
              "value": 0.1889763779527559,
              "time": 220.57655912500002,
              "ticks": 59644
            },
            {
              "number": 7,
              "value": 0.18110236220472442,
              "time": 220.66901459375003,
              "ticks": 59669
            },
            {
              "number": 7,
              "value": 0.1732283464566929,
              "time": 220.69860034375,
              "ticks": 59677
            },
            {
              "number": 7,
              "value": 0.16535433070866143,
              "time": 220.73928075000003,
              "ticks": 59688
            },
            {
              "number": 7,
              "value": 0.15748031496062992,
              "time": 220.76886650000003,
              "ticks": 59696
            },
            {
              "number": 7,
              "value": 0.14960629921259844,
              "time": 220.80954690625,
              "ticks": 59707
            },
            {
              "number": 7,
              "value": 0.14173228346456693,
              "time": 220.83173621875002,
              "ticks": 59713
            },
            {
              "number": 7,
              "value": 0.13385826771653545,
              "time": 220.86132196875002,
              "ticks": 59721
            },
            {
              "number": 7,
              "value": 0.12598425196850394,
              "time": 220.9537774375,
              "ticks": 59746
            },
            {
              "number": 7,
              "value": 0.11811023622047244,
              "time": 221.02404359375004,
              "ticks": 59765
            },
            {
              "number": 7,
              "value": 0.11023622047244094,
              "time": 221.09061153125003,
              "ticks": 59783
            },
            {
              "number": 7,
              "value": 0.10236220472440945,
              "time": 221.12759371875003,
              "ticks": 59793
            },
            {
              "number": 7,
              "value": 0.09448818897637795,
              "time": 221.18306700000002,
              "ticks": 59808
            },
            {
              "number": 7,
              "value": 0.08661417322834646,
              "time": 221.30510821875004,
              "ticks": 59841
            },
            {
              "number": 7,
              "value": 0.07874015748031496,
              "time": 221.34948684375001,
              "ticks": 59853
            },
            {
              "number": 7,
              "value": 0.07086614173228346,
              "time": 221.375374375,
              "ticks": 59860
            },
            {
              "number": 7,
              "value": 0.06299212598425197,
              "time": 221.50481203125003,
              "ticks": 59895
            },
            {
              "number": 7,
              "value": 0.05511811023622047,
              "time": 221.51960490625,
              "ticks": 59899
            },
            {
              "number": 7,
              "value": 0.047244094488188976,
              "time": 221.53439778125005,
              "ticks": 59903
            },
            {
              "number": 7,
              "value": 0.03937007874015748,
              "time": 221.54919065625003,
              "ticks": 59907
            },
            {
              "number": 7,
              "value": 0.031496062992125984,
              "time": 221.5750781875,
              "ticks": 59914
            },
            {
              "number": 7,
              "value": 0.023622047244094488,
              "time": 221.60466393750002,
              "ticks": 59922
            },
            {
              "number": 7,
              "value": 0.015748031496062992,
              "time": 221.76368734375,
              "ticks": 59965
            },
            {
              "number": 7,
              "value": 0.007874015748031496,
              "time": 221.82285884375003,
              "ticks": 59981
            },
            {
              "number": 7,
              "value": 0,
              "time": 221.85984103125003,
              "ticks": 59991
            },
            {
              "number": 7,
              "value": 0.5433070866141733,
              "time": 223.54253056250005,
              "ticks": 60446
            }
          ],
          "10": [
            {
              "number": 10,
              "value": 0.6299212598425197,
              "time": 0,
              "ticks": 0
            }
          ],
          "64": [
            {
              "number": 64,
              "value": 0,
              "time": 224.82581246875,
              "ticks": 60793
            }
          ]
        }
      },
      {
        "name": "Harpsichord 2       ",
        "channel": 0,
        "instrument": {
          "number": 6,
          "name": "harpsichord",
          "family": "piano"
        },
        "notes": [
          {
            "time": 29.807643125000002,
            "midi": 90,
            "name": "F#6",
            "velocity": 1,
            "duration": 1.253696156250001,
            "ticks": 8060,
            "durationTicks": 339
          },
          {
            "time": 29.807643125000002,
            "midi": 78,
            "name": "F#5",
            "velocity": 1,
            "duration": 1.2093175312500009,
            "ticks": 8060,
            "durationTicks": 327
          },
          {
            "time": 31.231457343750005,
            "midi": 80,
            "name": "G#5",
            "velocity": 1,
            "duration": 1.3572462812500028,
            "ticks": 8445,
            "durationTicks": 367
          },
          {
            "time": 31.231457343750005,
            "midi": 92,
            "name": "G#6",
            "velocity": 1,
            "duration": 1.3979266875,
            "ticks": 8445,
            "durationTicks": 378
          },
          {
            "time": 32.655271562500005,
            "midi": 81,
            "name": "A5",
            "velocity": 1,
            "duration": 1.2352050625000004,
            "ticks": 8830,
            "durationTicks": 334
          },
          {
            "time": 32.655271562500005,
            "midi": 93,
            "name": "A6",
            "velocity": 1,
            "duration": 1.2869801249999995,
            "ticks": 8830,
            "durationTicks": 348
          },
          {
            "time": 34.07908578125,
            "midi": 83,
            "name": "B5",
            "velocity": 1,
            "duration": 1.4090213437499983,
            "ticks": 9215,
            "durationTicks": 381
          },
          {
            "time": 34.082784000000004,
            "midi": 95,
            "name": "B6",
            "velocity": 1,
            "duration": 1.4053231249999953,
            "ticks": 9216,
            "durationTicks": 380
          },
          {
            "time": 35.502900000000004,
            "midi": 47,
            "name": "B2",
            "velocity": 1,
            "duration": 0.04068040624999725,
            "ticks": 9600,
            "durationTicks": 11
          },
          {
            "time": 35.680414500000005,
            "midi": 47,
            "name": "B2",
            "velocity": 1,
            "duration": 0.04068040624999725,
            "ticks": 9648,
            "durationTicks": 11
          },
          {
            "time": 35.86162721875001,
            "midi": 50,
            "name": "D3",
            "velocity": 1,
            "duration": 0.03698218749999427,
            "ticks": 9697,
            "durationTicks": 10
          },
          {
            "time": 36.03544350000001,
            "midi": 54,
            "name": "F#3",
            "velocity": 1,
            "duration": 0.04437862500000023,
            "ticks": 9744,
            "durationTicks": 12
          },
          {
            "time": 36.2203544375,
            "midi": 59,
            "name": "B3",
            "velocity": 1,
            "duration": 0.0332839687500055,
            "ticks": 9794,
            "durationTicks": 9
          },
          {
            "time": 36.394170718750004,
            "midi": 54,
            "name": "F#3",
            "velocity": 1,
            "duration": 0.04068040624999725,
            "ticks": 9841,
            "durationTicks": 11
          },
          {
            "time": 36.5753834375,
            "midi": 50,
            "name": "D3",
            "velocity": 1,
            "duration": 0.033283968749998394,
            "ticks": 9890,
            "durationTicks": 9
          },
          {
            "time": 36.749199718750006,
            "midi": 47,
            "name": "B2",
            "velocity": 1,
            "duration": 0.04068040624999725,
            "ticks": 9937,
            "durationTicks": 11
          },
          {
            "time": 36.9304124375,
            "midi": 52,
            "name": "E3",
            "velocity": 1,
            "duration": 0.03698218750000137,
            "ticks": 9986,
            "durationTicks": 10
          },
          {
            "time": 37.10422871875001,
            "midi": 52,
            "name": "E3",
            "velocity": 1,
            "duration": 0.04437862500000023,
            "ticks": 10033,
            "durationTicks": 12
          },
          {
            "time": 37.285441437500005,
            "midi": 56,
            "name": "G#3",
            "velocity": 1,
            "duration": 0.03698218750000137,
            "ticks": 10082,
            "durationTicks": 10
          },
          {
            "time": 37.45925771875,
            "midi": 59,
            "name": "B3",
            "velocity": 1,
            "duration": 0.04437862500000023,
            "ticks": 10129,
            "durationTicks": 12
          },
          {
            "time": 37.64416865625,
            "midi": 64,
            "name": "E4",
            "velocity": 1,
            "duration": 0.033283968749998394,
            "ticks": 10179,
            "durationTicks": 9
          },
          {
            "time": 37.8179849375,
            "midi": 59,
            "name": "B3",
            "velocity": 1,
            "duration": 0.04068040625000435,
            "ticks": 10226,
            "durationTicks": 11
          },
          {
            "time": 37.999197656250004,
            "midi": 56,
            "name": "G#3",
            "velocity": 1,
            "duration": 0.03698218750000137,
            "ticks": 10275,
            "durationTicks": 10
          },
          {
            "time": 38.1730139375,
            "midi": 52,
            "name": "E3",
            "velocity": 1,
            "duration": 0.04068040625000435,
            "ticks": 10322,
            "durationTicks": 11
          },
          {
            "time": 38.354226656250006,
            "midi": 45,
            "name": "A2",
            "velocity": 1,
            "duration": 0.03698218750000137,
            "ticks": 10371,
            "durationTicks": 10
          },
          {
            "time": 38.528042937500004,
            "midi": 45,
            "name": "A2",
            "velocity": 1,
            "duration": 0.04437862500000023,
            "ticks": 10418,
            "durationTicks": 12
          },
          {
            "time": 38.70925565625,
            "midi": 49,
            "name": "C#3",
            "velocity": 1,
            "duration": 0.03698218750000848,
            "ticks": 10467,
            "durationTicks": 10
          },
          {
            "time": 38.88677015625,
            "midi": 52,
            "name": "E3",
            "velocity": 1,
            "duration": 0.04068040625000435,
            "ticks": 10515,
            "durationTicks": 11
          },
          {
            "time": 39.067982875000006,
            "midi": 57,
            "name": "A3",
            "velocity": 1,
            "duration": 0.03698218749999427,
            "ticks": 10564,
            "durationTicks": 10
          },
          {
            "time": 39.24179915625,
            "midi": 52,
            "name": "E3",
            "velocity": 1,
            "duration": 0.04068040624999725,
            "ticks": 10611,
            "durationTicks": 11
          },
          {
            "time": 39.42301187500001,
            "midi": 49,
            "name": "C#3",
            "velocity": 1,
            "duration": 0.03698218749999427,
            "ticks": 10660,
            "durationTicks": 10
          },
          {
            "time": 39.596828156250005,
            "midi": 45,
            "name": "A2",
            "velocity": 1,
            "duration": 0.04437862500000023,
            "ticks": 10707,
            "durationTicks": 12
          },
          {
            "time": 39.77804087500001,
            "midi": 45,
            "name": "A2",
            "velocity": 1,
            "duration": 0.03698218749999427,
            "ticks": 10756,
            "durationTicks": 10
          },
          {
            "time": 39.95185715625001,
            "midi": 45,
            "name": "A2",
            "velocity": 1,
            "duration": 0.04437862500000023,
            "ticks": 10803,
            "durationTicks": 12
          },
          {
            "time": 40.133069875000004,
            "midi": 50,
            "name": "D3",
            "velocity": 1,
            "duration": 0.03698218750000137,
            "ticks": 10852,
            "durationTicks": 10
          },
          {
            "time": 40.310584375000005,
            "midi": 54,
            "name": "F#3",
            "velocity": 1,
            "duration": 0.04068040624999725,
            "ticks": 10900,
            "durationTicks": 11
          },
          {
            "time": 40.49179709375,
            "midi": 57,
            "name": "A3",
            "velocity": 1,
            "duration": 0.03698218750000137,
            "ticks": 10949,
            "durationTicks": 10
          },
          {
            "time": 40.66561337500001,
            "midi": 54,
            "name": "F#3",
            "velocity": 1,
            "duration": 0.04437862500000023,
            "ticks": 10996,
            "durationTicks": 12
          },
          {
            "time": 40.84682609375,
            "midi": 50,
            "name": "D3",
            "velocity": 1,
            "duration": 0.03698218750000137,
            "ticks": 11045,
            "durationTicks": 10
          },
          {
            "time": 41.02064237500001,
            "midi": 45,
            "name": "A2",
            "velocity": 1,
            "duration": 0.04437862500000023,
            "ticks": 11092,
            "durationTicks": 12
          },
          {
            "time": 41.201855093750005,
            "midi": 47,
            "name": "B2",
            "velocity": 1,
            "duration": 0.03698218750000137,
            "ticks": 11141,
            "durationTicks": 10
          },
          {
            "time": 41.375671375,
            "midi": 47,
            "name": "B2",
            "velocity": 1,
            "duration": 0.04437862500000023,
            "ticks": 11188,
            "durationTicks": 12
          },
          {
            "time": 41.55688409375,
            "midi": 50,
            "name": "D3",
            "velocity": 1,
            "duration": 0.04068040625000435,
            "ticks": 11237,
            "durationTicks": 11
          },
          {
            "time": 41.73439859375,
            "midi": 54,
            "name": "F#3",
            "velocity": 1,
            "duration": 0.04068040625000435,
            "ticks": 11285,
            "durationTicks": 11
          },
          {
            "time": 41.91930953125001,
            "midi": 59,
            "name": "B3",
            "velocity": 1,
            "duration": 0.033283968749998394,
            "ticks": 11335,
            "durationTicks": 9
          },
          {
            "time": 42.093125812500006,
            "midi": 54,
            "name": "F#3",
            "velocity": 1,
            "duration": 0.04068040624999725,
            "ticks": 11382,
            "durationTicks": 11
          },
          {
            "time": 42.27064031250001,
            "midi": 50,
            "name": "D3",
            "velocity": 1,
            "duration": 0.03698218750000137,
            "ticks": 11430,
            "durationTicks": 10
          },
          {
            "time": 42.444456593750004,
            "midi": 47,
            "name": "B2",
            "velocity": 1,
            "duration": 0.04437862500000023,
            "ticks": 11477,
            "durationTicks": 12
          },
          {
            "time": 42.629367531250004,
            "midi": 52,
            "name": "E3",
            "velocity": 1,
            "duration": 0.0332839687500055,
            "ticks": 11527,
            "durationTicks": 9
          },
          {
            "time": 42.8031838125,
            "midi": 52,
            "name": "E3",
            "velocity": 1,
            "duration": 0.04068040625000435,
            "ticks": 11574,
            "durationTicks": 11
          },
          {
            "time": 42.984396531250006,
            "midi": 56,
            "name": "G#3",
            "velocity": 1,
            "duration": 0.03698218749999427,
            "ticks": 11623,
            "durationTicks": 10
          },
          {
            "time": 43.158212812500004,
            "midi": 59,
            "name": "B3",
            "velocity": 1,
            "duration": 0.04437862500000023,
            "ticks": 11670,
            "durationTicks": 12
          },
          {
            "time": 43.33942553125001,
            "midi": 64,
            "name": "E4",
            "velocity": 1,
            "duration": 0.03698218749999427,
            "ticks": 11719,
            "durationTicks": 10
          },
          {
            "time": 43.513241812500006,
            "midi": 59,
            "name": "B3",
            "velocity": 1,
            "duration": 0.04437862500000023,
            "ticks": 11766,
            "durationTicks": 12
          },
          {
            "time": 43.69445453125001,
            "midi": 56,
            "name": "G#3",
            "velocity": 1,
            "duration": 0.03698218749999427,
            "ticks": 11815,
            "durationTicks": 10
          },
          {
            "time": 43.86827081250001,
            "midi": 52,
            "name": "E3",
            "velocity": 1,
            "duration": 0.04437862500000023,
            "ticks": 11862,
            "durationTicks": 12
          },
          {
            "time": 44.05318175,
            "midi": 45,
            "name": "A2",
            "velocity": 1,
            "duration": 0.03698218750000137,
            "ticks": 11912,
            "durationTicks": 10
          },
          {
            "time": 44.226998031250005,
            "midi": 45,
            "name": "A2",
            "velocity": 1,
            "duration": 0.04068040624999725,
            "ticks": 11959,
            "durationTicks": 11
          },
          {
            "time": 44.40821075,
            "midi": 49,
            "name": "C#3",
            "velocity": 1,
            "duration": 0.03698218750000137,
            "ticks": 12008,
            "durationTicks": 10
          },
          {
            "time": 44.58202703125001,
            "midi": 52,
            "name": "E3",
            "velocity": 1,
            "duration": 0.04437862500000023,
            "ticks": 12055,
            "durationTicks": 12
          },
          {
            "time": 44.76693796875001,
            "midi": 57,
            "name": "A3",
            "velocity": 1,
            "duration": 0.033283968749998394,
            "ticks": 12105,
            "durationTicks": 9
          },
          {
            "time": 44.940754250000005,
            "midi": 52,
            "name": "E3",
            "velocity": 1,
            "duration": 0.04068040625000435,
            "ticks": 12152,
            "durationTicks": 11
          },
          {
            "time": 45.12196696875,
            "midi": 49,
            "name": "C#3",
            "velocity": 1,
            "duration": 0.03698218750000848,
            "ticks": 12201,
            "durationTicks": 10
          },
          {
            "time": 45.29578325000001,
            "midi": 45,
            "name": "A2",
            "velocity": 1,
            "duration": 0.04068040624999725,
            "ticks": 12248,
            "durationTicks": 11
          },
          {
            "time": 45.47699596875,
            "midi": 45,
            "name": "A2",
            "velocity": 1,
            "duration": 0.03698218750000137,
            "ticks": 12297,
            "durationTicks": 10
          },
          {
            "time": 45.65081225000001,
            "midi": 45,
            "name": "A2",
            "velocity": 1,
            "duration": 0.04437862500000023,
            "ticks": 12344,
            "durationTicks": 12
          },
          {
            "time": 45.832024968750005,
            "midi": 50,
            "name": "D3",
            "velocity": 1,
            "duration": 0.03698218749999427,
            "ticks": 12393,
            "durationTicks": 10
          },
          {
            "time": 46.00584125000001,
            "midi": 54,
            "name": "F#3",
            "velocity": 1,
            "duration": 0.04437862500000023,
            "ticks": 12440,
            "durationTicks": 12
          },
          {
            "time": 46.1907521875,
            "midi": 57,
            "name": "A3",
            "velocity": 1,
            "duration": 0.033283968749998394,
            "ticks": 12490,
            "durationTicks": 9
          },
          {
            "time": 46.36456846875001,
            "midi": 54,
            "name": "F#3",
            "velocity": 1,
            "duration": 0.04068040624999725,
            "ticks": 12537,
            "durationTicks": 11
          },
          {
            "time": 46.545781187500005,
            "midi": 50,
            "name": "D3",
            "velocity": 1,
            "duration": 0.03698218750000137,
            "ticks": 12586,
            "durationTicks": 10
          },
          {
            "time": 46.71959746875,
            "midi": 45,
            "name": "A2",
            "velocity": 1,
            "duration": 0.04437862500000023,
            "ticks": 12633,
            "durationTicks": 12
          },
          {
            "time": 46.9008101875,
            "midi": 47,
            "name": "B2",
            "velocity": 1,
            "duration": 0.03698218750000848,
            "ticks": 12682,
            "durationTicks": 10
          },
          {
            "time": 47.074626468750004,
            "midi": 47,
            "name": "B2",
            "velocity": 1,
            "duration": 0.04437862500000023,
            "ticks": 12729,
            "durationTicks": 12
          },
          {
            "time": 47.2558391875,
            "midi": 50,
            "name": "D3",
            "velocity": 1,
            "duration": 0.03698218750000848,
            "ticks": 12778,
            "durationTicks": 10
          },
          {
            "time": 47.429655468750006,
            "midi": 54,
            "name": "F#3",
            "velocity": 1,
            "duration": 0.04437862500000023,
            "ticks": 12825,
            "durationTicks": 12
          },
          {
            "time": 47.614566406250006,
            "midi": 59,
            "name": "B3",
            "velocity": 1,
            "duration": 0.03698218750000137,
            "ticks": 12875,
            "durationTicks": 10
          },
          {
            "time": 47.788382687500004,
            "midi": 54,
            "name": "F#3",
            "velocity": 1,
            "duration": 0.04068040625000435,
            "ticks": 12922,
            "durationTicks": 11
          },
          {
            "time": 47.96959540625001,
            "midi": 50,
            "name": "D3",
            "velocity": 1,
            "duration": 0.03698218749999427,
            "ticks": 12971,
            "durationTicks": 10
          },
          {
            "time": 48.1434116875,
            "midi": 47,
            "name": "B2",
            "velocity": 1,
            "duration": 0.04437862500000023,
            "ticks": 13018,
            "durationTicks": 12
          },
          {
            "time": 48.32462440625001,
            "midi": 52,
            "name": "E3",
            "velocity": 1,
            "duration": 0.03698218749999427,
            "ticks": 13067,
            "durationTicks": 10
          },
          {
            "time": 48.4984406875,
            "midi": 52,
            "name": "E3",
            "velocity": 1,
            "duration": 0.04437862500000023,
            "ticks": 13114,
            "durationTicks": 12
          },
          {
            "time": 48.67965340625001,
            "midi": 56,
            "name": "G#3",
            "velocity": 1,
            "duration": 0.03698218749999427,
            "ticks": 13163,
            "durationTicks": 10
          },
          {
            "time": 48.857167906250005,
            "midi": 59,
            "name": "B3",
            "velocity": 1,
            "duration": 0.04068040624999725,
            "ticks": 13211,
            "durationTicks": 11
          },
          {
            "time": 49.038380625,
            "midi": 64,
            "name": "E4",
            "velocity": 1,
            "duration": 0.03698218750000137,
            "ticks": 13260,
            "durationTicks": 10
          },
          {
            "time": 49.21219690625001,
            "midi": 59,
            "name": "B3",
            "velocity": 1,
            "duration": 0.04437862500000023,
            "ticks": 13307,
            "durationTicks": 12
          },
          {
            "time": 49.393409625000004,
            "midi": 56,
            "name": "G#3",
            "velocity": 1,
            "duration": 0.03698218750000137,
            "ticks": 13356,
            "durationTicks": 10
          },
          {
            "time": 49.56722590625001,
            "midi": 52,
            "name": "E3",
            "velocity": 1,
            "duration": 0.04437862500000023,
            "ticks": 13403,
            "durationTicks": 12
          },
          {
            "time": 49.748438625000006,
            "midi": 54,
            "name": "F#3",
            "velocity": 1,
            "duration": 0.03698218749999427,
            "ticks": 13452,
            "durationTicks": 10
          },
          {
            "time": 49.92225490625001,
            "midi": 54,
            "name": "F#3",
            "velocity": 1,
            "duration": 0.04437862500000023,
            "ticks": 13499,
            "durationTicks": 12
          },
          {
            "time": 50.10716584375,
            "midi": 57,
            "name": "A3",
            "velocity": 1,
            "duration": 0.03698218750000848,
            "ticks": 13549,
            "durationTicks": 10
          },
          {
            "time": 50.28098212500001,
            "midi": 61,
            "name": "C#4",
            "velocity": 1,
            "duration": 0.04437862500000023,
            "ticks": 13596,
            "durationTicks": 12
          },
          {
            "time": 50.46589306250001,
            "midi": 66,
            "name": "F#4",
            "velocity": 1,
            "duration": 0.033283968749998394,
            "ticks": 13646,
            "durationTicks": 9
          },
          {
            "time": 50.63970934375,
            "midi": 61,
            "name": "C#4",
            "velocity": 1,
            "duration": 0.04068040625000435,
            "ticks": 13693,
            "durationTicks": 11
          },
          {
            "time": 50.82092206250001,
            "midi": 57,
            "name": "A3",
            "velocity": 1,
            "duration": 0.033283968749998394,
            "ticks": 13742,
            "durationTicks": 9
          },
          {
            "time": 50.99473834375,
            "midi": 54,
            "name": "F#3",
            "velocity": 1,
            "duration": 0.04068040625000435,
            "ticks": 13789,
            "durationTicks": 11
          },
          {
            "time": 51.17595106250001,
            "midi": 50,
            "name": "D3",
            "velocity": 1,
            "duration": 0.03698218749999427,
            "ticks": 13838,
            "durationTicks": 10
          },
          {
            "time": 51.34976734375,
            "midi": 50,
            "name": "D3",
            "velocity": 1,
            "duration": 0.04068040625000435,
            "ticks": 13885,
            "durationTicks": 11
          },
          {
            "time": 51.53098006250001,
            "midi": 54,
            "name": "F#3",
            "velocity": 1,
            "duration": 0.03698218750000137,
            "ticks": 13934,
            "durationTicks": 10
          },
          {
            "time": 51.704796343750004,
            "midi": 57,
            "name": "A3",
            "velocity": 1,
            "duration": 0.04437862500000023,
            "ticks": 13981,
            "durationTicks": 12
          },
          {
            "time": 51.889707281250004,
            "midi": 62,
            "name": "D4",
            "velocity": 1,
            "duration": 0.033283968749998394,
            "ticks": 14031,
            "durationTicks": 9
          },
          {
            "time": 52.05982534375,
            "midi": 57,
            "name": "A3",
            "velocity": 1,
            "duration": 0.04437862500000023,
            "ticks": 14077,
            "durationTicks": 12
          },
          {
            "time": 52.24103806250001,
            "midi": 54,
            "name": "F#3",
            "velocity": 1,
            "duration": 0.03698218749999427,
            "ticks": 14126,
            "durationTicks": 10
          },
          {
            "time": 52.41855256250001,
            "midi": 50,
            "name": "D3",
            "velocity": 1,
            "duration": 0.04068040624999014,
            "ticks": 14174,
            "durationTicks": 11
          },
          {
            "time": 75.3918874375,
            "midi": 47,
            "name": "B2",
            "velocity": 1,
            "duration": 0.036982187500015584,
            "ticks": 20386,
            "durationTicks": 10
          },
          {
            "time": 75.5694019375,
            "midi": 47,
            "name": "B2",
            "velocity": 1,
            "duration": 0.03698218750000137,
            "ticks": 20434,
            "durationTicks": 10
          },
          {
            "time": 75.7469164375,
            "midi": 50,
            "name": "D3",
            "velocity": 1,
            "duration": 0.03698218750000137,
            "ticks": 20482,
            "durationTicks": 10
          },
          {
            "time": 75.92812915625001,
            "midi": 54,
            "name": "F#3",
            "velocity": 1,
            "duration": 0.03698218750000137,
            "ticks": 20531,
            "durationTicks": 10
          },
          {
            "time": 76.10564365625001,
            "midi": 59,
            "name": "B3",
            "velocity": 1,
            "duration": 0.033283968749998394,
            "ticks": 20579,
            "durationTicks": 9
          },
          {
            "time": 76.28315815625001,
            "midi": 54,
            "name": "F#3",
            "velocity": 1,
            "duration": 0.03698218750000137,
            "ticks": 20627,
            "durationTicks": 10
          },
          {
            "time": 76.46067265625001,
            "midi": 50,
            "name": "D3",
            "velocity": 1,
            "duration": 0.03698218750000137,
            "ticks": 20675,
            "durationTicks": 10
          },
          {
            "time": 76.63818715625001,
            "midi": 47,
            "name": "B2",
            "velocity": 1,
            "duration": 0.03698218750000137,
            "ticks": 20723,
            "durationTicks": 10
          },
          {
            "time": 76.81570165625001,
            "midi": 52,
            "name": "E3",
            "velocity": 1,
            "duration": 0.03698218750000137,
            "ticks": 20771,
            "durationTicks": 10
          },
          {
            "time": 76.99321615625001,
            "midi": 52,
            "name": "E3",
            "velocity": 1,
            "duration": 0.04068040624999014,
            "ticks": 20819,
            "durationTicks": 11
          },
          {
            "time": 77.17073065625002,
            "midi": 56,
            "name": "G#3",
            "velocity": 1,
            "duration": 0.03698218749998716,
            "ticks": 20867,
            "durationTicks": 10
          },
          {
            "time": 77.351943375,
            "midi": 59,
            "name": "B3",
            "velocity": 1,
            "duration": 0.03698218750000137,
            "ticks": 20916,
            "durationTicks": 10
          },
          {
            "time": 77.529457875,
            "midi": 64,
            "name": "E4",
            "velocity": 1,
            "duration": 0.033283968749998394,
            "ticks": 20964,
            "durationTicks": 9
          },
          {
            "time": 77.706972375,
            "midi": 59,
            "name": "B3",
            "velocity": 1,
            "duration": 0.03698218750000137,
            "ticks": 21012,
            "durationTicks": 10
          },
          {
            "time": 77.88078865625002,
            "midi": 56,
            "name": "G#3",
            "velocity": 1,
            "duration": 0.04068040624999014,
            "ticks": 21059,
            "durationTicks": 11
          },
          {
            "time": 78.06200137500001,
            "midi": 52,
            "name": "E3",
            "velocity": 1,
            "duration": 0.03698218750000137,
            "ticks": 21108,
            "durationTicks": 10
          },
          {
            "time": 78.23951587500001,
            "midi": 45,
            "name": "A2",
            "velocity": 1,
            "duration": 0.03698218750000137,
            "ticks": 21156,
            "durationTicks": 10
          },
          {
            "time": 78.42072859375,
            "midi": 45,
            "name": "A2",
            "velocity": 1,
            "duration": 0.036982187500015584,
            "ticks": 21205,
            "durationTicks": 10
          },
          {
            "time": 78.59454487500001,
            "midi": 49,
            "name": "C#3",
            "velocity": 1,
            "duration": 0.03698218749998716,
            "ticks": 21252,
            "durationTicks": 10
          },
          {
            "time": 78.77575759375,
            "midi": 52,
            "name": "E3",
            "velocity": 1,
            "duration": 0.036982187500015584,
            "ticks": 21301,
            "durationTicks": 10
          },
          {
            "time": 78.95327209375,
            "midi": 57,
            "name": "A3",
            "velocity": 1,
            "duration": 0.036982187500015584,
            "ticks": 21349,
            "durationTicks": 10
          },
          {
            "time": 79.1344848125,
            "midi": 52,
            "name": "E3",
            "velocity": 1,
            "duration": 0.033283968750012605,
            "ticks": 21398,
            "durationTicks": 9
          },
          {
            "time": 79.30830109375,
            "midi": 49,
            "name": "C#3",
            "velocity": 1,
            "duration": 0.036982187500015584,
            "ticks": 21445,
            "durationTicks": 10
          },
          {
            "time": 79.48581559375,
            "midi": 45,
            "name": "A2",
            "velocity": 1,
            "duration": 0.04437862500000733,
            "ticks": 21493,
            "durationTicks": 12
          },
          {
            "time": 79.66333009375,
            "midi": 45,
            "name": "A2",
            "velocity": 1,
            "duration": 0.03698218750000137,
            "ticks": 21541,
            "durationTicks": 10
          },
          {
            "time": 79.84454281250001,
            "midi": 45,
            "name": "A2",
            "velocity": 1,
            "duration": 0.03698218750000137,
            "ticks": 21590,
            "durationTicks": 10
          },
          {
            "time": 80.01835909375,
            "midi": 50,
            "name": "D3",
            "velocity": 1,
            "duration": 0.03698218750000137,
            "ticks": 21637,
            "durationTicks": 10
          },
          {
            "time": 80.19957181250001,
            "midi": 54,
            "name": "F#3",
            "velocity": 1,
            "duration": 0.03698218750000137,
            "ticks": 21686,
            "durationTicks": 10
          },
          {
            "time": 80.37708631250001,
            "midi": 57,
            "name": "A3",
            "velocity": 1,
            "duration": 0.03698218750000137,
            "ticks": 21734,
            "durationTicks": 10
          },
          {
            "time": 80.55829903125002,
            "midi": 54,
            "name": "F#3",
            "velocity": 1,
            "duration": 0.03698218749998716,
            "ticks": 21783,
            "durationTicks": 10
          },
          {
            "time": 80.73211531250001,
            "midi": 50,
            "name": "D3",
            "velocity": 1,
            "duration": 0.03698218750000137,
            "ticks": 21830,
            "durationTicks": 10
          },
          {
            "time": 80.90962981250001,
            "midi": 45,
            "name": "A2",
            "velocity": 1,
            "duration": 0.04068040624999014,
            "ticks": 21878,
            "durationTicks": 11
          },
          {
            "time": 81.08714431250002,
            "midi": 47,
            "name": "B2",
            "velocity": 1,
            "duration": 0.03698218749998716,
            "ticks": 21926,
            "durationTicks": 10
          },
          {
            "time": 81.26835703125,
            "midi": 47,
            "name": "B2",
            "velocity": 1,
            "duration": 0.03698218750000137,
            "ticks": 21975,
            "durationTicks": 10
          },
          {
            "time": 81.44217331250002,
            "midi": 50,
            "name": "D3",
            "velocity": 1,
            "duration": 0.04068040624999014,
            "ticks": 22022,
            "durationTicks": 11
          },
          {
            "time": 81.62338603125,
            "midi": 54,
            "name": "F#3",
            "velocity": 1,
            "duration": 0.03698218750000137,
            "ticks": 22071,
            "durationTicks": 10
          },
          {
            "time": 81.80459875000001,
            "midi": 59,
            "name": "B3",
            "velocity": 1,
            "duration": 0.033283968749998394,
            "ticks": 22120,
            "durationTicks": 9
          },
          {
            "time": 81.98211325000001,
            "midi": 54,
            "name": "F#3",
            "velocity": 1,
            "duration": 0.03698218750000137,
            "ticks": 22168,
            "durationTicks": 10
          },
          {
            "time": 82.15592953125001,
            "midi": 50,
            "name": "D3",
            "velocity": 1,
            "duration": 0.03698218750000137,
            "ticks": 22215,
            "durationTicks": 10
          },
          {
            "time": 82.33714225,
            "midi": 47,
            "name": "B2",
            "velocity": 1,
            "duration": 0.036982187500015584,
            "ticks": 22264,
            "durationTicks": 10
          },
          {
            "time": 82.51095853125001,
            "midi": 52,
            "name": "E3",
            "velocity": 1,
            "duration": 0.03698218749998716,
            "ticks": 22311,
            "durationTicks": 10
          },
          {
            "time": 82.69217125,
            "midi": 52,
            "name": "E3",
            "velocity": 1,
            "duration": 0.036982187500015584,
            "ticks": 22360,
            "durationTicks": 10
          },
          {
            "time": 82.86968575,
            "midi": 56,
            "name": "G#3",
            "velocity": 1,
            "duration": 0.036982187500015584,
            "ticks": 22408,
            "durationTicks": 10
          },
          {
            "time": 83.04720025,
            "midi": 59,
            "name": "B3",
            "velocity": 1,
            "duration": 0.04068040625000435,
            "ticks": 22456,
            "durationTicks": 11
          },
          {
            "time": 83.22471475,
            "midi": 64,
            "name": "E4",
            "velocity": 1,
            "duration": 0.036982187500015584,
            "ticks": 22504,
            "durationTicks": 10
          },
          {
            "time": 83.40592746875001,
            "midi": 59,
            "name": "B3",
            "velocity": 1,
            "duration": 0.03698218750000137,
            "ticks": 22553,
            "durationTicks": 10
          },
          {
            "time": 83.57974375,
            "midi": 56,
            "name": "G#3",
            "velocity": 1,
            "duration": 0.03698218750000137,
            "ticks": 22600,
            "durationTicks": 10
          },
          {
            "time": 83.76095646875001,
            "midi": 52,
            "name": "E3",
            "velocity": 1,
            "duration": 0.03698218750000137,
            "ticks": 22649,
            "durationTicks": 10
          },
          {
            "time": 83.93847096875001,
            "midi": 45,
            "name": "A2",
            "velocity": 1,
            "duration": 0.03698218750000137,
            "ticks": 22697,
            "durationTicks": 10
          },
          {
            "time": 84.11598546875001,
            "midi": 45,
            "name": "A2",
            "velocity": 1,
            "duration": 0.04068040624999014,
            "ticks": 22745,
            "durationTicks": 11
          },
          {
            "time": 84.29349996875001,
            "midi": 49,
            "name": "C#3",
            "velocity": 1,
            "duration": 0.03698218750000137,
            "ticks": 22793,
            "durationTicks": 10
          },
          {
            "time": 84.47471268750002,
            "midi": 52,
            "name": "E3",
            "velocity": 1,
            "duration": 0.03698218749998716,
            "ticks": 22842,
            "durationTicks": 10
          },
          {
            "time": 84.6522271875,
            "midi": 57,
            "name": "A3",
            "velocity": 1,
            "duration": 0.033283968750012605,
            "ticks": 22890,
            "durationTicks": 9
          },
          {
            "time": 84.8297416875,
            "midi": 52,
            "name": "E3",
            "velocity": 1,
            "duration": 0.03698218750000137,
            "ticks": 22938,
            "durationTicks": 10
          },
          {
            "time": 85.0072561875,
            "midi": 49,
            "name": "C#3",
            "velocity": 1,
            "duration": 0.03698218750000137,
            "ticks": 22986,
            "durationTicks": 10
          },
          {
            "time": 85.1847706875,
            "midi": 45,
            "name": "A2",
            "velocity": 1,
            "duration": 0.03698218750000137,
            "ticks": 23034,
            "durationTicks": 10
          },
          {
            "time": 85.3622851875,
            "midi": 45,
            "name": "A2",
            "velocity": 1,
            "duration": 0.03698218750000137,
            "ticks": 23082,
            "durationTicks": 10
          },
          {
            "time": 85.54349790625001,
            "midi": 45,
            "name": "A2",
            "velocity": 1,
            "duration": 0.03698218750000137,
            "ticks": 23131,
            "durationTicks": 10
          },
          {
            "time": 85.71731418750001,
            "midi": 50,
            "name": "D3",
            "velocity": 1,
            "duration": 0.03698218750000137,
            "ticks": 23178,
            "durationTicks": 10
          },
          {
            "time": 85.89852690625001,
            "midi": 54,
            "name": "F#3",
            "velocity": 1,
            "duration": 0.03698218750000137,
            "ticks": 23227,
            "durationTicks": 10
          },
          {
            "time": 86.07604140625,
            "midi": 57,
            "name": "A3",
            "velocity": 1,
            "duration": 0.033283968750012605,
            "ticks": 23275,
            "durationTicks": 9
          },
          {
            "time": 86.25355590625,
            "midi": 54,
            "name": "F#3",
            "velocity": 1,
            "duration": 0.036982187500015584,
            "ticks": 23323,
            "durationTicks": 10
          },
          {
            "time": 86.43107040625,
            "midi": 50,
            "name": "D3",
            "velocity": 1,
            "duration": 0.036982187500015584,
            "ticks": 23371,
            "durationTicks": 10
          },
          {
            "time": 86.60858490625,
            "midi": 45,
            "name": "A2",
            "velocity": 1,
            "duration": 0.04068040625000435,
            "ticks": 23419,
            "durationTicks": 11
          },
          {
            "time": 86.78609940625,
            "midi": 47,
            "name": "B2",
            "velocity": 1,
            "duration": 0.036982187500015584,
            "ticks": 23467,
            "durationTicks": 10
          },
          {
            "time": 86.967312125,
            "midi": 47,
            "name": "B2",
            "velocity": 1,
            "duration": 0.03698218750000137,
            "ticks": 23516,
            "durationTicks": 10
          },
          {
            "time": 87.14112840625,
            "midi": 50,
            "name": "D3",
            "velocity": 1,
            "duration": 0.036982187500015584,
            "ticks": 23563,
            "durationTicks": 10
          },
          {
            "time": 87.32234112500001,
            "midi": 54,
            "name": "F#3",
            "velocity": 1,
            "duration": 0.03698218750000137,
            "ticks": 23612,
            "durationTicks": 10
          },
          {
            "time": 87.49985562500001,
            "midi": 59,
            "name": "B3",
            "velocity": 1,
            "duration": 0.03698218750000137,
            "ticks": 23660,
            "durationTicks": 10
          },
          {
            "time": 87.68106834375001,
            "midi": 54,
            "name": "F#3",
            "velocity": 1,
            "duration": 0.03698218749998716,
            "ticks": 23709,
            "durationTicks": 10
          },
          {
            "time": 87.85488462500001,
            "midi": 50,
            "name": "D3",
            "velocity": 1,
            "duration": 0.03698218750000137,
            "ticks": 23756,
            "durationTicks": 10
          },
          {
            "time": 88.03609734375001,
            "midi": 47,
            "name": "B2",
            "velocity": 1,
            "duration": 0.03698218749998716,
            "ticks": 23805,
            "durationTicks": 10
          },
          {
            "time": 88.20991362500001,
            "midi": 52,
            "name": "E3",
            "velocity": 1,
            "duration": 0.03698218750000137,
            "ticks": 23852,
            "durationTicks": 10
          },
          {
            "time": 88.39112634375002,
            "midi": 52,
            "name": "E3",
            "velocity": 1,
            "duration": 0.03698218749998716,
            "ticks": 23901,
            "durationTicks": 10
          },
          {
            "time": 88.56494262500001,
            "midi": 56,
            "name": "G#3",
            "velocity": 1,
            "duration": 0.04068040624999014,
            "ticks": 23948,
            "durationTicks": 11
          },
          {
            "time": 88.74615534375,
            "midi": 59,
            "name": "B3",
            "velocity": 1,
            "duration": 0.03698218750000137,
            "ticks": 23997,
            "durationTicks": 10
          },
          {
            "time": 88.92366984375,
            "midi": 64,
            "name": "E4",
            "velocity": 1,
            "duration": 0.03698218750000137,
            "ticks": 24045,
            "durationTicks": 10
          },
          {
            "time": 89.10488256250001,
            "midi": 59,
            "name": "B3",
            "velocity": 1,
            "duration": 0.03698218750000137,
            "ticks": 24094,
            "durationTicks": 10
          },
          {
            "time": 89.27869884375,
            "midi": 56,
            "name": "G#3",
            "velocity": 1,
            "duration": 0.03698218750000137,
            "ticks": 24141,
            "durationTicks": 10
          },
          {
            "time": 89.45991156250001,
            "midi": 52,
            "name": "E3",
            "velocity": 1,
            "duration": 0.03698218750000137,
            "ticks": 24190,
            "durationTicks": 10
          },
          {
            "time": 89.63372784375001,
            "midi": 54,
            "name": "F#3",
            "velocity": 1,
            "duration": 0.03698218750000137,
            "ticks": 24237,
            "durationTicks": 10
          },
          {
            "time": 89.81494056250001,
            "midi": 54,
            "name": "F#3",
            "velocity": 1,
            "duration": 0.03698218750000137,
            "ticks": 24286,
            "durationTicks": 10
          },
          {
            "time": 89.9924550625,
            "midi": 57,
            "name": "A3",
            "velocity": 1,
            "duration": 0.036982187500015584,
            "ticks": 24334,
            "durationTicks": 10
          },
          {
            "time": 90.1699695625,
            "midi": 61,
            "name": "C#4",
            "velocity": 1,
            "duration": 0.04068040625000435,
            "ticks": 24382,
            "durationTicks": 11
          },
          {
            "time": 90.35118228125002,
            "midi": 66,
            "name": "F#4",
            "velocity": 1,
            "duration": 0.033283968749998394,
            "ticks": 24431,
            "durationTicks": 9
          },
          {
            "time": 90.52869678125002,
            "midi": 61,
            "name": "C#4",
            "velocity": 1,
            "duration": 0.03698218749998716,
            "ticks": 24479,
            "durationTicks": 10
          },
          {
            "time": 90.70621128125002,
            "midi": 57,
            "name": "A3",
            "velocity": 1,
            "duration": 0.033283968749998394,
            "ticks": 24527,
            "durationTicks": 9
          },
          {
            "time": 90.88372578125,
            "midi": 54,
            "name": "F#3",
            "velocity": 1,
            "duration": 0.03698218750000137,
            "ticks": 24575,
            "durationTicks": 10
          },
          {
            "time": 91.06124028125001,
            "midi": 50,
            "name": "D3",
            "velocity": 1,
            "duration": 0.03698218750000137,
            "ticks": 24623,
            "durationTicks": 10
          },
          {
            "time": 91.23875478125001,
            "midi": 50,
            "name": "D3",
            "velocity": 1,
            "duration": 0.03698218750000137,
            "ticks": 24671,
            "durationTicks": 10
          },
          {
            "time": 91.41626928125001,
            "midi": 54,
            "name": "F#3",
            "velocity": 1,
            "duration": 0.03698218750000137,
            "ticks": 24719,
            "durationTicks": 10
          },
          {
            "time": 91.59748200000001,
            "midi": 57,
            "name": "A3",
            "velocity": 1,
            "duration": 0.03698218750000137,
            "ticks": 24768,
            "durationTicks": 10
          },
          {
            "time": 91.77499650000001,
            "midi": 62,
            "name": "D4",
            "velocity": 1,
            "duration": 0.033283968749998394,
            "ticks": 24816,
            "durationTicks": 9
          },
          {
            "time": 91.95251100000002,
            "midi": 57,
            "name": "A3",
            "velocity": 1,
            "duration": 0.03698218750000137,
            "ticks": 24864,
            "durationTicks": 10
          },
          {
            "time": 92.12632728125,
            "midi": 54,
            "name": "F#3",
            "velocity": 1,
            "duration": 0.036982187500015584,
            "ticks": 24911,
            "durationTicks": 10
          },
          {
            "time": 92.30754000000002,
            "midi": 50,
            "name": "D3",
            "velocity": 1,
            "duration": 0.03698218750000137,
            "ticks": 24960,
            "durationTicks": 10
          },
          {
            "time": 155.16246587500004,
            "midi": 47,
            "name": "B2",
            "velocity": 1,
            "duration": 0.04068040624997593,
            "ticks": 41956,
            "durationTicks": 11
          },
          {
            "time": 155.339980375,
            "midi": 47,
            "name": "B2",
            "velocity": 1,
            "duration": 0.04068040625000435,
            "ticks": 42004,
            "durationTicks": 11
          },
          {
            "time": 155.517494875,
            "midi": 50,
            "name": "D3",
            "velocity": 1,
            "duration": 0.04068040625000435,
            "ticks": 42052,
            "durationTicks": 11
          },
          {
            "time": 155.69870759375002,
            "midi": 54,
            "name": "F#3",
            "velocity": 1,
            "duration": 0.03698218750000137,
            "ticks": 42101,
            "durationTicks": 10
          },
          {
            "time": 155.87622209375002,
            "midi": 59,
            "name": "B3",
            "velocity": 1,
            "duration": 0.04068040625000435,
            "ticks": 42149,
            "durationTicks": 11
          },
          {
            "time": 156.05373659375002,
            "midi": 54,
            "name": "F#3",
            "velocity": 1,
            "duration": 0.03698218750000137,
            "ticks": 42197,
            "durationTicks": 10
          },
          {
            "time": 156.23125109375002,
            "midi": 50,
            "name": "D3",
            "velocity": 1,
            "duration": 0.04068040625000435,
            "ticks": 42245,
            "durationTicks": 11
          },
          {
            "time": 156.40876559375002,
            "midi": 47,
            "name": "B2",
            "velocity": 1,
            "duration": 0.03698218750000137,
            "ticks": 42293,
            "durationTicks": 10
          },
          {
            "time": 156.58628009375002,
            "midi": 52,
            "name": "E3",
            "velocity": 1,
            "duration": 0.04068040625000435,
            "ticks": 42341,
            "durationTicks": 11
          },
          {
            "time": 156.76379459375002,
            "midi": 52,
            "name": "E3",
            "velocity": 1,
            "duration": 0.04068040625000435,
            "ticks": 42389,
            "durationTicks": 11
          },
          {
            "time": 156.94130909375002,
            "midi": 56,
            "name": "G#3",
            "velocity": 1,
            "duration": 0.04068040625000435,
            "ticks": 42437,
            "durationTicks": 11
          },
          {
            "time": 157.12252181250003,
            "midi": 59,
            "name": "B3",
            "velocity": 1,
            "duration": 0.03698218750000137,
            "ticks": 42486,
            "durationTicks": 10
          },
          {
            "time": 157.30003631250003,
            "midi": 64,
            "name": "E4",
            "velocity": 1,
            "duration": 0.04068040624997593,
            "ticks": 42534,
            "durationTicks": 11
          },
          {
            "time": 157.47755081250003,
            "midi": 59,
            "name": "B3",
            "velocity": 1,
            "duration": 0.03698218750000137,
            "ticks": 42582,
            "durationTicks": 10
          },
          {
            "time": 157.65506531250003,
            "midi": 56,
            "name": "G#3",
            "velocity": 1,
            "duration": 0.04068040624997593,
            "ticks": 42630,
            "durationTicks": 11
          },
          {
            "time": 157.83257981250003,
            "midi": 52,
            "name": "E3",
            "velocity": 1,
            "duration": 0.04068040624997593,
            "ticks": 42678,
            "durationTicks": 11
          },
          {
            "time": 158.01009431250003,
            "midi": 45,
            "name": "A2",
            "velocity": 1,
            "duration": 0.04068040624997593,
            "ticks": 42726,
            "durationTicks": 11
          },
          {
            "time": 158.19130703125003,
            "midi": 45,
            "name": "A2",
            "velocity": 1,
            "duration": 0.03698218749997295,
            "ticks": 42775,
            "durationTicks": 10
          },
          {
            "time": 158.3651233125,
            "midi": 49,
            "name": "C#3",
            "velocity": 1,
            "duration": 0.04437862500000733,
            "ticks": 42822,
            "durationTicks": 12
          },
          {
            "time": 158.54633603125004,
            "midi": 52,
            "name": "E3",
            "velocity": 1,
            "duration": 0.03698218749997295,
            "ticks": 42871,
            "durationTicks": 10
          },
          {
            "time": 158.72385053125004,
            "midi": 57,
            "name": "A3",
            "velocity": 1,
            "duration": 0.04068040624997593,
            "ticks": 42919,
            "durationTicks": 11
          },
          {
            "time": 158.90506325,
            "midi": 52,
            "name": "E3",
            "velocity": 1,
            "duration": 0.033283968749998394,
            "ticks": 42968,
            "durationTicks": 9
          },
          {
            "time": 159.07887953125004,
            "midi": 49,
            "name": "C#3",
            "velocity": 1,
            "duration": 0.04068040624997593,
            "ticks": 43015,
            "durationTicks": 11
          },
          {
            "time": 159.25639403125,
            "midi": 45,
            "name": "A2",
            "velocity": 1,
            "duration": 0.04068040625000435,
            "ticks": 43063,
            "durationTicks": 11
          },
          {
            "time": 159.43390853125,
            "midi": 45,
            "name": "A2",
            "velocity": 1,
            "duration": 0.04437862500000733,
            "ticks": 43111,
            "durationTicks": 12
          },
          {
            "time": 159.61512125000002,
            "midi": 45,
            "name": "A2",
            "velocity": 1,
            "duration": 0.03698218750000137,
            "ticks": 43160,
            "durationTicks": 10
          },
          {
            "time": 159.78893753125,
            "midi": 50,
            "name": "D3",
            "velocity": 1,
            "duration": 0.04437862500000733,
            "ticks": 43207,
            "durationTicks": 12
          },
          {
            "time": 159.97015025000002,
            "midi": 54,
            "name": "F#3",
            "velocity": 1,
            "duration": 0.03698218750000137,
            "ticks": 43256,
            "durationTicks": 10
          },
          {
            "time": 160.14766475000002,
            "midi": 57,
            "name": "A3",
            "velocity": 1,
            "duration": 0.04068040625000435,
            "ticks": 43304,
            "durationTicks": 11
          },
          {
            "time": 160.32517925000002,
            "midi": 54,
            "name": "F#3",
            "velocity": 1,
            "duration": 0.04068040625000435,
            "ticks": 43352,
            "durationTicks": 11
          },
          {
            "time": 160.50269375000002,
            "midi": 50,
            "name": "D3",
            "velocity": 1,
            "duration": 0.04068040625000435,
            "ticks": 43400,
            "durationTicks": 11
          },
          {
            "time": 160.68020825000002,
            "midi": 45,
            "name": "A2",
            "velocity": 1,
            "duration": 0.04068040625000435,
            "ticks": 43448,
            "durationTicks": 11
          },
          {
            "time": 160.85772275000002,
            "midi": 47,
            "name": "B2",
            "velocity": 1,
            "duration": 0.04437862499997891,
            "ticks": 43496,
            "durationTicks": 12
          },
          {
            "time": 161.03893546875003,
            "midi": 47,
            "name": "B2",
            "velocity": 1,
            "duration": 0.03698218750000137,
            "ticks": 43545,
            "durationTicks": 10
          },
          {
            "time": 161.21644996875003,
            "midi": 50,
            "name": "D3",
            "velocity": 1,
            "duration": 0.04068040624997593,
            "ticks": 43593,
            "durationTicks": 11
          },
          {
            "time": 161.39396446875003,
            "midi": 54,
            "name": "F#3",
            "velocity": 1,
            "duration": 0.03698218750000137,
            "ticks": 43641,
            "durationTicks": 10
          },
          {
            "time": 161.57517718750003,
            "midi": 59,
            "name": "B3",
            "velocity": 1,
            "duration": 0.03698218749997295,
            "ticks": 43690,
            "durationTicks": 10
          },
          {
            "time": 161.75269168750003,
            "midi": 54,
            "name": "F#3",
            "velocity": 1,
            "duration": 0.03698218749997295,
            "ticks": 43738,
            "durationTicks": 10
          },
          {
            "time": 161.92650796875003,
            "midi": 50,
            "name": "D3",
            "velocity": 1,
            "duration": 0.04437862499997891,
            "ticks": 43785,
            "durationTicks": 12
          },
          {
            "time": 162.10772068750003,
            "midi": 47,
            "name": "B2",
            "velocity": 1,
            "duration": 0.03698218749997295,
            "ticks": 43834,
            "durationTicks": 10
          },
          {
            "time": 162.28153696875,
            "midi": 52,
            "name": "E3",
            "velocity": 1,
            "duration": 0.04437862500000733,
            "ticks": 43881,
            "durationTicks": 12
          },
          {
            "time": 162.46274968750004,
            "midi": 52,
            "name": "E3",
            "velocity": 1,
            "duration": 0.03698218749997295,
            "ticks": 43930,
            "durationTicks": 10
          },
          {
            "time": 162.64026418750004,
            "midi": 56,
            "name": "G#3",
            "velocity": 1,
            "duration": 0.04068040624997593,
            "ticks": 43978,
            "durationTicks": 11
          },
          {
            "time": 162.81777868750004,
            "midi": 59,
            "name": "B3",
            "velocity": 1,
            "duration": 0.04068040624997593,
            "ticks": 44026,
            "durationTicks": 11
          },
          {
            "time": 162.99899140625,
            "midi": 64,
            "name": "E4",
            "velocity": 1,
            "duration": 0.04068040625000435,
            "ticks": 44075,
            "durationTicks": 11
          },
          {
            "time": 163.17650590625001,
            "midi": 59,
            "name": "B3",
            "velocity": 1,
            "duration": 0.03698218750000137,
            "ticks": 44123,
            "durationTicks": 10
          },
          {
            "time": 163.3503221875,
            "midi": 56,
            "name": "G#3",
            "velocity": 1,
            "duration": 0.04437862500000733,
            "ticks": 44170,
            "durationTicks": 12
          },
          {
            "time": 163.53153490625002,
            "midi": 52,
            "name": "E3",
            "velocity": 1,
            "duration": 0.03698218750000137,
            "ticks": 44219,
            "durationTicks": 10
          },
          {
            "time": 163.70904940625002,
            "midi": 45,
            "name": "A2",
            "velocity": 1,
            "duration": 0.04068040625000435,
            "ticks": 44267,
            "durationTicks": 11
          },
          {
            "time": 163.88656390625002,
            "midi": 45,
            "name": "A2",
            "velocity": 1,
            "duration": 0.04068040625000435,
            "ticks": 44315,
            "durationTicks": 11
          },
          {
            "time": 164.06407840625002,
            "midi": 49,
            "name": "C#3",
            "velocity": 1,
            "duration": 0.04437862499997891,
            "ticks": 44363,
            "durationTicks": 12
          },
          {
            "time": 164.24529112500002,
            "midi": 52,
            "name": "E3",
            "velocity": 1,
            "duration": 0.03698218750000137,
            "ticks": 44412,
            "durationTicks": 10
          },
          {
            "time": 164.42280562500002,
            "midi": 57,
            "name": "A3",
            "velocity": 1,
            "duration": 0.04068040624997593,
            "ticks": 44460,
            "durationTicks": 11
          },
          {
            "time": 164.60032012500002,
            "midi": 52,
            "name": "E3",
            "velocity": 1,
            "duration": 0.03698218750000137,
            "ticks": 44508,
            "durationTicks": 10
          },
          {
            "time": 164.77783462500003,
            "midi": 49,
            "name": "C#3",
            "velocity": 1,
            "duration": 0.04068040624997593,
            "ticks": 44556,
            "durationTicks": 11
          },
          {
            "time": 164.95534912500003,
            "midi": 45,
            "name": "A2",
            "velocity": 1,
            "duration": 0.03698218750000137,
            "ticks": 44604,
            "durationTicks": 10
          },
          {
            "time": 165.13286362500003,
            "midi": 45,
            "name": "A2",
            "velocity": 1,
            "duration": 0.04068040624997593,
            "ticks": 44652,
            "durationTicks": 11
          },
          {
            "time": 165.31407634375003,
            "midi": 45,
            "name": "A2",
            "velocity": 1,
            "duration": 0.03698218749997295,
            "ticks": 44701,
            "durationTicks": 10
          },
          {
            "time": 165.48789262500003,
            "midi": 50,
            "name": "D3",
            "velocity": 1,
            "duration": 0.04437862499997891,
            "ticks": 44748,
            "durationTicks": 12
          },
          {
            "time": 165.66910534375003,
            "midi": 54,
            "name": "F#3",
            "velocity": 1,
            "duration": 0.03698218749997295,
            "ticks": 44797,
            "durationTicks": 10
          },
          {
            "time": 165.84661984375003,
            "midi": 57,
            "name": "A3",
            "velocity": 1,
            "duration": 0.04068040624997593,
            "ticks": 44845,
            "durationTicks": 11
          },
          {
            "time": 166.02413434375003,
            "midi": 54,
            "name": "F#3",
            "velocity": 1,
            "duration": 0.03698218749997295,
            "ticks": 44893,
            "durationTicks": 10
          },
          {
            "time": 166.20164884375004,
            "midi": 50,
            "name": "D3",
            "velocity": 1,
            "duration": 0.04068040624997593,
            "ticks": 44941,
            "durationTicks": 11
          },
          {
            "time": 166.37916334375004,
            "midi": 45,
            "name": "A2",
            "velocity": 1,
            "duration": 0.04068040624997593,
            "ticks": 44989,
            "durationTicks": 11
          },
          {
            "time": 166.55667784375004,
            "midi": 47,
            "name": "B2",
            "velocity": 1,
            "duration": 0.04437862499997891,
            "ticks": 45037,
            "durationTicks": 12
          },
          {
            "time": 166.73419234375004,
            "midi": 47,
            "name": "B2",
            "velocity": 1,
            "duration": 0.04068040624997593,
            "ticks": 45085,
            "durationTicks": 11
          },
          {
            "time": 166.91170684375,
            "midi": 50,
            "name": "D3",
            "velocity": 1,
            "duration": 0.04437862500000733,
            "ticks": 45133,
            "durationTicks": 12
          },
          {
            "time": 167.09291956250001,
            "midi": 54,
            "name": "F#3",
            "velocity": 1,
            "duration": 0.03698218750000137,
            "ticks": 45182,
            "durationTicks": 10
          },
          {
            "time": 167.27043406250002,
            "midi": 59,
            "name": "B3",
            "velocity": 1,
            "duration": 0.04068040625000435,
            "ticks": 45230,
            "durationTicks": 11
          },
          {
            "time": 167.45164678125002,
            "midi": 54,
            "name": "F#3",
            "velocity": 1,
            "duration": 0.03698218750000137,
            "ticks": 45279,
            "durationTicks": 10
          },
          {
            "time": 167.62546306250002,
            "midi": 50,
            "name": "D3",
            "velocity": 1,
            "duration": 0.04068040625000435,
            "ticks": 45326,
            "durationTicks": 11
          },
          {
            "time": 167.80667578125002,
            "midi": 47,
            "name": "B2",
            "velocity": 1,
            "duration": 0.03698218750000137,
            "ticks": 45375,
            "durationTicks": 10
          },
          {
            "time": 167.98049206250002,
            "midi": 52,
            "name": "E3",
            "velocity": 1,
            "duration": 0.04437862499997891,
            "ticks": 45422,
            "durationTicks": 12
          },
          {
            "time": 168.16170478125002,
            "midi": 52,
            "name": "E3",
            "velocity": 1,
            "duration": 0.03698218750000137,
            "ticks": 45471,
            "durationTicks": 10
          },
          {
            "time": 168.33552106250002,
            "midi": 56,
            "name": "G#3",
            "velocity": 1,
            "duration": 0.04437862499997891,
            "ticks": 45518,
            "durationTicks": 12
          },
          {
            "time": 168.51673378125003,
            "midi": 59,
            "name": "B3",
            "velocity": 1,
            "duration": 0.03698218750000137,
            "ticks": 45567,
            "durationTicks": 10
          },
          {
            "time": 168.69424828125003,
            "midi": 64,
            "name": "E4",
            "velocity": 1,
            "duration": 0.04068040624997593,
            "ticks": 45615,
            "durationTicks": 11
          },
          {
            "time": 168.87546100000003,
            "midi": 59,
            "name": "B3",
            "velocity": 1,
            "duration": 0.03698218749997295,
            "ticks": 45664,
            "durationTicks": 10
          },
          {
            "time": 169.04927728125003,
            "midi": 56,
            "name": "G#3",
            "velocity": 1,
            "duration": 0.04437862499997891,
            "ticks": 45711,
            "durationTicks": 12
          },
          {
            "time": 169.23049000000003,
            "midi": 52,
            "name": "E3",
            "velocity": 1,
            "duration": 0.03698218749997295,
            "ticks": 45760,
            "durationTicks": 10
          },
          {
            "time": 169.40430628125003,
            "midi": 54,
            "name": "F#3",
            "velocity": 1,
            "duration": 0.04437862499997891,
            "ticks": 45807,
            "durationTicks": 12
          },
          {
            "time": 169.58551900000003,
            "midi": 54,
            "name": "F#3",
            "velocity": 1,
            "duration": 0.03698218749997295,
            "ticks": 45856,
            "durationTicks": 10
          },
          {
            "time": 169.76303350000003,
            "midi": 57,
            "name": "A3",
            "velocity": 1,
            "duration": 0.04068040624997593,
            "ticks": 45904,
            "durationTicks": 11
          },
          {
            "time": 169.94054800000004,
            "midi": 61,
            "name": "C#4",
            "velocity": 1,
            "duration": 0.04068040624997593,
            "ticks": 45952,
            "durationTicks": 11
          },
          {
            "time": 170.12176071875,
            "midi": 66,
            "name": "F#4",
            "velocity": 1,
            "duration": 0.03698218750000137,
            "ticks": 46001,
            "durationTicks": 10
          },
          {
            "time": 170.29927521875,
            "midi": 61,
            "name": "C#4",
            "velocity": 1,
            "duration": 0.03698218750000137,
            "ticks": 46049,
            "durationTicks": 10
          },
          {
            "time": 170.47678971875,
            "midi": 57,
            "name": "A3",
            "velocity": 1,
            "duration": 0.04068040625000435,
            "ticks": 46097,
            "durationTicks": 11
          },
          {
            "time": 170.65430421875,
            "midi": 54,
            "name": "F#3",
            "velocity": 1,
            "duration": 0.03698218750000137,
            "ticks": 46145,
            "durationTicks": 10
          },
          {
            "time": 170.83181871875001,
            "midi": 50,
            "name": "D3",
            "velocity": 1,
            "duration": 0.04068040625000435,
            "ticks": 46193,
            "durationTicks": 11
          },
          {
            "time": 171.00933321875002,
            "midi": 50,
            "name": "D3",
            "velocity": 1,
            "duration": 0.03698218750000137,
            "ticks": 46241,
            "durationTicks": 10
          },
          {
            "time": 171.18684771875002,
            "midi": 54,
            "name": "F#3",
            "velocity": 1,
            "duration": 0.04068040625000435,
            "ticks": 46289,
            "durationTicks": 11
          },
          {
            "time": 171.36806043750002,
            "midi": 57,
            "name": "A3",
            "velocity": 1,
            "duration": 0.03698218750000137,
            "ticks": 46338,
            "durationTicks": 10
          },
          {
            "time": 171.54557493750002,
            "midi": 62,
            "name": "D4",
            "velocity": 1,
            "duration": 0.04068040625000435,
            "ticks": 46386,
            "durationTicks": 11
          },
          {
            "time": 171.72308943750002,
            "midi": 57,
            "name": "A3",
            "velocity": 1,
            "duration": 0.03698218750000137,
            "ticks": 46434,
            "durationTicks": 10
          },
          {
            "time": 171.89690571875002,
            "midi": 54,
            "name": "F#3",
            "velocity": 1,
            "duration": 0.04437862499997891,
            "ticks": 46481,
            "durationTicks": 12
          },
          {
            "time": 172.07811843750002,
            "midi": 50,
            "name": "D3",
            "velocity": 1,
            "duration": 0.03698218750000137,
            "ticks": 46530,
            "durationTicks": 10
          }
        ],
        "controlChanges": {
          "7": [
            {
              "number": 7,
              "value": 0.8188976377952756,
              "time": 0,
              "ticks": 0
            },
            {
              "number": 7,
              "value": 0.6929133858267716,
              "time": 214.748166375,
              "ticks": 58068
            },
            {
              "number": 7,
              "value": 0.6850393700787402,
              "time": 214.81473431250004,
              "ticks": 58086
            },
            {
              "number": 7,
              "value": 0.6771653543307087,
              "time": 214.98855059375003,
              "ticks": 58133
            },
            {
              "number": 7,
              "value": 0.6692913385826772,
              "time": 215.04032565625002,
              "ticks": 58147
            },
            {
              "number": 7,
              "value": 0.6614173228346457,
              "time": 215.0957989375,
              "ticks": 58162
            },
            {
              "number": 7,
              "value": 0.6535433070866141,
              "time": 215.12538468750003,
              "ticks": 58170
            },
            {
              "number": 7,
              "value": 0.6456692913385826,
              "time": 215.20304728125004,
              "ticks": 58191
            },
            {
              "number": 7,
              "value": 0.6377952755905512,
              "time": 215.39165643750002,
              "ticks": 58242
            },
            {
              "number": 7,
              "value": 0.6299212598425197,
              "time": 215.49520656250002,
              "ticks": 58270
            },
            {
              "number": 7,
              "value": 0.6220472440944882,
              "time": 215.59136025000004,
              "ticks": 58296
            },
            {
              "number": 7,
              "value": 0.6141732283464567,
              "time": 215.75038365625002,
              "ticks": 58339
            },
            {
              "number": 7,
              "value": 0.6062992125984252,
              "time": 215.85763200000002,
              "ticks": 58368
            },
            {
              "number": 7,
              "value": 0.5984251968503937,
              "time": 215.91310528125,
              "ticks": 58383
            },
            {
              "number": 7,
              "value": 0.5905511811023622,
              "time": 216.04624115625003,
              "ticks": 58419
            },
            {
              "number": 7,
              "value": 0.5826771653543307,
              "time": 216.13869662500002,
              "ticks": 58444
            },
            {
              "number": 7,
              "value": 0.5748031496062992,
              "time": 216.19416990625,
              "ticks": 58459
            },
            {
              "number": 7,
              "value": 0.5669291338582677,
              "time": 216.24594496875002,
              "ticks": 58473
            },
            {
              "number": 7,
              "value": 0.5590551181102362,
              "time": 216.32730578125,
              "ticks": 58495
            },
            {
              "number": 7,
              "value": 0.5511811023622047,
              "time": 216.40866659375004,
              "ticks": 58517
            },
            {
              "number": 7,
              "value": 0.5433070866141733,
              "time": 216.51961315625005,
              "ticks": 58547
            },
            {
              "number": 7,
              "value": 0.5354330708661418,
              "time": 216.56029356250002,
              "ticks": 58558
            },
            {
              "number": 7,
              "value": 0.5275590551181102,
              "time": 216.59727575000005,
              "ticks": 58568
            },
            {
              "number": 7,
              "value": 0.5196850393700787,
              "time": 216.61576684375,
              "ticks": 58573
            },
            {
              "number": 7,
              "value": 0.5118110236220472,
              "time": 216.65274903125004,
              "ticks": 58583
            },
            {
              "number": 7,
              "value": 0.5039370078740157,
              "time": 216.759997375,
              "ticks": 58612
            },
            {
              "number": 7,
              "value": 0.49606299212598426,
              "time": 216.81547065625,
              "ticks": 58627
            },
            {
              "number": 7,
              "value": 0.4881889763779528,
              "time": 216.98928693750003,
              "ticks": 58674
            },
            {
              "number": 7,
              "value": 0.48031496062992124,
              "time": 217.22597293750002,
              "ticks": 58738
            },
            {
              "number": 7,
              "value": 0.47244094488188976,
              "time": 217.30733375000003,
              "ticks": 58760
            },
            {
              "number": 7,
              "value": 0.4645669291338583,
              "time": 217.4330731875,
              "ticks": 58794
            },
            {
              "number": 7,
              "value": 0.4566929133858268,
              "time": 217.54771796875002,
              "ticks": 58825
            },
            {
              "number": 7,
              "value": 0.44881889763779526,
              "time": 217.70674137500004,
              "ticks": 58868
            },
            {
              "number": 7,
              "value": 0.4409448818897638,
              "time": 217.8472736875,
              "ticks": 58906
            },
            {
              "number": 7,
              "value": 0.4330708661417323,
              "time": 217.94712559375,
              "ticks": 58933
            },
            {
              "number": 7,
              "value": 0.4251968503937008,
              "time": 218.00259887500002,
              "ticks": 58948
            },
            {
              "number": 7,
              "value": 0.41732283464566927,
              "time": 218.08395968750003,
              "ticks": 58970
            },
            {
              "number": 7,
              "value": 0.4094488188976378,
              "time": 218.29475815625003,
              "ticks": 59027
            },
            {
              "number": 7,
              "value": 0.4015748031496063,
              "time": 218.39830828125002,
              "ticks": 59055
            },
            {
              "number": 7,
              "value": 0.3937007874015748,
              "time": 218.49816018750002,
              "ticks": 59082
            },
            {
              "number": 7,
              "value": 0.3858267716535433,
              "time": 218.53514237500002,
              "ticks": 59092
            },
            {
              "number": 7,
              "value": 0.3779527559055118,
              "time": 218.60540853125005,
              "ticks": 59111
            },
            {
              "number": 7,
              "value": 0.3700787401574803,
              "time": 218.76443193750004,
              "ticks": 59154
            },
            {
              "number": 7,
              "value": 0.36220472440944884,
              "time": 218.83099987500003,
              "ticks": 59172
            },
            {
              "number": 7,
              "value": 0.3543307086614173,
              "time": 218.91605890625004,
              "ticks": 59195
            },
            {
              "number": 7,
              "value": 0.3464566929133858,
              "time": 218.98262684375004,
              "ticks": 59213
            },
            {
              "number": 7,
              "value": 0.33858267716535434,
              "time": 219.03070368750002,
              "ticks": 59226
            },
            {
              "number": 7,
              "value": 0.33070866141732286,
              "time": 219.18233065625003,
              "ticks": 59267
            },
            {
              "number": 7,
              "value": 0.3228346456692913,
              "time": 219.2230110625,
              "ticks": 59278
            },
            {
              "number": 7,
              "value": 0.31496062992125984,
              "time": 219.26369146875,
              "ticks": 59289
            },
            {
              "number": 7,
              "value": 0.30708661417322836,
              "time": 219.35244871875003,
              "ticks": 59313
            },
            {
              "number": 7,
              "value": 0.2992125984251969,
              "time": 219.41162021875002,
              "ticks": 59329
            },
            {
              "number": 7,
              "value": 0.29133858267716534,
              "time": 219.45230062500002,
              "ticks": 59340
            },
            {
              "number": 7,
              "value": 0.28346456692913385,
              "time": 219.51886856250002,
              "ticks": 59358
            },
            {
              "number": 7,
              "value": 0.2755905511811024,
              "time": 219.688986625,
              "ticks": 59404
            },
            {
              "number": 7,
              "value": 0.2677165354330709,
              "time": 219.75925278125004,
              "ticks": 59423
            },
            {
              "number": 7,
              "value": 0.25984251968503935,
              "time": 219.85540646875,
              "ticks": 59449
            },
            {
              "number": 7,
              "value": 0.25196850393700787,
              "time": 219.94416371875002,
              "ticks": 59473
            },
            {
              "number": 7,
              "value": 0.2440944881889764,
              "time": 220.04031740625,
              "ticks": 59499
            },
            {
              "number": 7,
              "value": 0.23622047244094488,
              "time": 220.14386753125,
              "ticks": 59527
            },
            {
              "number": 7,
              "value": 0.2283464566929134,
              "time": 220.251115875,
              "ticks": 59556
            },
            {
              "number": 7,
              "value": 0.2204724409448819,
              "time": 220.29549450000002,
              "ticks": 59568
            },
            {
              "number": 7,
              "value": 0.2125984251968504,
              "time": 220.428630375,
              "ticks": 59604
            },
            {
              "number": 7,
              "value": 0.2047244094488189,
              "time": 220.49519831250004,
              "ticks": 59622
            },
            {
              "number": 7,
              "value": 0.1968503937007874,
              "time": 220.55067159375002,
              "ticks": 59637
            },
            {
              "number": 7,
              "value": 0.1889763779527559,
              "time": 220.57655912500002,
              "ticks": 59644
            },
            {
              "number": 7,
              "value": 0.18110236220472442,
              "time": 220.665316375,
              "ticks": 59668
            },
            {
              "number": 7,
              "value": 0.1732283464566929,
              "time": 220.69490212500003,
              "ticks": 59676
            },
            {
              "number": 7,
              "value": 0.16535433070866143,
              "time": 220.73558253125003,
              "ticks": 59687
            },
            {
              "number": 7,
              "value": 0.15748031496062992,
              "time": 220.76886650000003,
              "ticks": 59696
            },
            {
              "number": 7,
              "value": 0.14960629921259844,
              "time": 220.80584868750003,
              "ticks": 59706
            },
            {
              "number": 7,
              "value": 0.14173228346456693,
              "time": 220.83173621875002,
              "ticks": 59713
            },
            {
              "number": 7,
              "value": 0.13385826771653545,
              "time": 220.86132196875002,
              "ticks": 59721
            },
            {
              "number": 7,
              "value": 0.12598425196850394,
              "time": 220.9537774375,
              "ticks": 59746
            },
            {
              "number": 7,
              "value": 0.11811023622047244,
              "time": 221.02404359375004,
              "ticks": 59765
            },
            {
              "number": 7,
              "value": 0.11023622047244094,
              "time": 221.0869133125,
              "ticks": 59782
            },
            {
              "number": 7,
              "value": 0.10236220472440945,
              "time": 221.12759371875003,
              "ticks": 59793
            },
            {
              "number": 7,
              "value": 0.09448818897637795,
              "time": 221.18306700000002,
              "ticks": 59808
            },
            {
              "number": 7,
              "value": 0.08661417322834646,
              "time": 221.30510821875004,
              "ticks": 59841
            },
            {
              "number": 7,
              "value": 0.07874015748031496,
              "time": 221.34948684375001,
              "ticks": 59853
            },
            {
              "number": 7,
              "value": 0.07086614173228346,
              "time": 221.375374375,
              "ticks": 59860
            },
            {
              "number": 7,
              "value": 0.06299212598425197,
              "time": 221.50481203125003,
              "ticks": 59895
            },
            {
              "number": 7,
              "value": 0.05511811023622047,
              "time": 221.51960490625,
              "ticks": 59899
            },
            {
              "number": 7,
              "value": 0.047244094488188976,
              "time": 221.53439778125005,
              "ticks": 59903
            },
            {
              "number": 7,
              "value": 0.03937007874015748,
              "time": 221.54919065625003,
              "ticks": 59907
            },
            {
              "number": 7,
              "value": 0.031496062992125984,
              "time": 221.5750781875,
              "ticks": 59914
            },
            {
              "number": 7,
              "value": 0.023622047244094488,
              "time": 221.60466393750002,
              "ticks": 59922
            },
            {
              "number": 7,
              "value": 0.015748031496062992,
              "time": 221.76368734375,
              "ticks": 59965
            },
            {
              "number": 7,
              "value": 0.007874015748031496,
              "time": 221.81916062500002,
              "ticks": 59980
            },
            {
              "number": 7,
              "value": 0,
              "time": 221.85984103125003,
              "ticks": 59991
            },
            {
              "number": 7,
              "value": 0.6929133858267716,
              "time": 223.54253056250005,
              "ticks": 60446
            }
          ],
          "10": [
            {
              "number": 10,
              "value": 0.7480314960629921,
              "time": 0,
              "ticks": 0
            }
          ],
          "64": [
            {
              "number": 64,
              "value": 0,
              "time": 224.836907125,
              "ticks": 60796
            }
          ]
        }
      },
      {
        "name": "Syn Brass 1         ",
        "channel": 0,
        "instrument": {
          "number": 63,
          "name": "synthbrass 2",
          "family": "brass"
        },
        "notes": [
          {
            "time": 35.502900000000004,
            "midi": 62,
            "name": "D4",
            "velocity": 1,
            "duration": 0.42899337499999746,
            "ticks": 9600,
            "durationTicks": 116
          },
          {
            "time": 36.03544350000001,
            "midi": 62,
            "name": "D4",
            "velocity": 1,
            "duration": 0.3254432499999993,
            "ticks": 9744,
            "durationTicks": 88
          },
          {
            "time": 36.394170718750004,
            "midi": 61,
            "name": "C#4",
            "velocity": 1,
            "duration": 0.16641984374999907,
            "ticks": 9841,
            "durationTicks": 45
          },
          {
            "time": 36.5753834375,
            "midi": 59,
            "name": "B3",
            "velocity": 1,
            "duration": 1.6346126875000024,
            "ticks": 9890,
            "durationTicks": 442
          },
          {
            "time": 38.354226656250006,
            "midi": 61,
            "name": "C#4",
            "velocity": 1,
            "duration": 0.14053231249999953,
            "ticks": 10371,
            "durationTicks": 38
          },
          {
            "time": 38.528042937500004,
            "midi": 61,
            "name": "C#4",
            "velocity": 1,
            "duration": 0.24038421875000182,
            "ticks": 10418,
            "durationTicks": 65
          },
          {
            "time": 38.883071937500006,
            "midi": 61,
            "name": "C#4",
            "velocity": 1,
            "duration": 0.340236124999997,
            "ticks": 10514,
            "durationTicks": 92
          },
          {
            "time": 39.24179915625,
            "midi": 57,
            "name": "A3",
            "velocity": 1,
            "duration": 0.2440824374999977,
            "ticks": 10611,
            "durationTicks": 66
          },
          {
            "time": 39.95185715625001,
            "midi": 66,
            "name": "F#4",
            "velocity": 1,
            "duration": 0.1442305312499954,
            "ticks": 10803,
            "durationTicks": 39
          },
          {
            "time": 40.310584375000005,
            "midi": 66,
            "name": "F#4",
            "velocity": 1,
            "duration": 0.09615368749999931,
            "ticks": 10900,
            "durationTicks": 26
          },
          {
            "time": 40.49179709375,
            "midi": 66,
            "name": "F#4",
            "velocity": 1,
            "duration": 0.33653790625000113,
            "ticks": 10949,
            "durationTicks": 91
          },
          {
            "time": 40.84682609375,
            "midi": 64,
            "name": "E4",
            "velocity": 1,
            "duration": 0.3402361250000041,
            "ticks": 11045,
            "durationTicks": 92
          },
          {
            "time": 41.201855093750005,
            "midi": 62,
            "name": "D4",
            "velocity": 1,
            "duration": 0.4363898124999963,
            "ticks": 11141,
            "durationTicks": 118
          },
          {
            "time": 41.73439859375,
            "midi": 62,
            "name": "D4",
            "velocity": 1,
            "duration": 0.12573943750000183,
            "ticks": 11285,
            "durationTicks": 34
          },
          {
            "time": 41.915611312500005,
            "midi": 62,
            "name": "D4",
            "velocity": 1,
            "duration": 0.15532518749999724,
            "ticks": 11334,
            "durationTicks": 42
          },
          {
            "time": 42.08942759375,
            "midi": 61,
            "name": "C#4",
            "velocity": 1,
            "duration": 0.3254432499999993,
            "ticks": 11381,
            "durationTicks": 88
          },
          {
            "time": 42.444456593750004,
            "midi": 59,
            "name": "B3",
            "velocity": 1,
            "duration": 1.309169437499996,
            "ticks": 11477,
            "durationTicks": 354
          },
          {
            "time": 44.049483531250004,
            "midi": 61,
            "name": "C#4",
            "velocity": 1,
            "duration": 0.15162696875000137,
            "ticks": 11911,
            "durationTicks": 41
          },
          {
            "time": 44.226998031250005,
            "midi": 61,
            "name": "C#4",
            "velocity": 1,
            "duration": 0.21819490624999816,
            "ticks": 11959,
            "durationTicks": 59
          },
          {
            "time": 44.58202703125001,
            "midi": 61,
            "name": "C#4",
            "velocity": 1,
            "duration": 0.340236124999997,
            "ticks": 12055,
            "durationTicks": 92
          },
          {
            "time": 44.940754250000005,
            "midi": 59,
            "name": "B3",
            "velocity": 1,
            "duration": 0.33653790625000113,
            "ticks": 12152,
            "durationTicks": 91
          },
          {
            "time": 45.29578325000001,
            "midi": 57,
            "name": "A3",
            "velocity": 1,
            "duration": 0.33653790625000113,
            "ticks": 12248,
            "durationTicks": 91
          },
          {
            "time": 45.65081225000001,
            "midi": 59,
            "name": "B3",
            "velocity": 1,
            "duration": 0.3402361249999899,
            "ticks": 12344,
            "durationTicks": 92
          },
          {
            "time": 46.00584125000001,
            "midi": 61,
            "name": "C#4",
            "velocity": 1,
            "duration": 0.17381628124999082,
            "ticks": 12440,
            "durationTicks": 47
          },
          {
            "time": 46.1907521875,
            "midi": 59,
            "name": "B3",
            "velocity": 1,
            "duration": 0.3291414687500023,
            "ticks": 12490,
            "durationTicks": 89
          },
          {
            "time": 46.545781187500005,
            "midi": 57,
            "name": "A3",
            "velocity": 1,
            "duration": 0.3217450312499963,
            "ticks": 12586,
            "durationTicks": 87
          },
          {
            "time": 47.2558391875,
            "midi": 62,
            "name": "D4",
            "velocity": 1,
            "duration": 0.4733720000000048,
            "ticks": 12778,
            "durationTicks": 128
          },
          {
            "time": 47.788382687500004,
            "midi": 62,
            "name": "D4",
            "velocity": 1,
            "duration": 0.1294376562500048,
            "ticks": 12922,
            "durationTicks": 35
          },
          {
            "time": 47.96959540625001,
            "midi": 62,
            "name": "D4",
            "velocity": 1,
            "duration": 0.12204121874999885,
            "ticks": 12971,
            "durationTicks": 33
          },
          {
            "time": 48.1434116875,
            "midi": 62,
            "name": "D4",
            "velocity": 1,
            "duration": 0.2440824375000048,
            "ticks": 13018,
            "durationTicks": 66
          },
          {
            "time": 50.10716584375,
            "midi": 57,
            "name": "A3",
            "velocity": 1,
            "duration": 0.11094656249999701,
            "ticks": 13549,
            "durationTicks": 30
          },
          {
            "time": 50.28098212500001,
            "midi": 57,
            "name": "A3",
            "velocity": 1,
            "duration": 0.10724834375000114,
            "ticks": 13596,
            "durationTicks": 29
          },
          {
            "time": 50.462194843750005,
            "midi": 57,
            "name": "A3",
            "velocity": 1,
            "duration": 0.10355012500000527,
            "ticks": 13645,
            "durationTicks": 28
          },
          {
            "time": 50.636011125,
            "midi": 57,
            "name": "A3",
            "velocity": 1,
            "duration": 0.09985190625000229,
            "ticks": 13692,
            "durationTicks": 27
          },
          {
            "time": 50.81722384375,
            "midi": 57,
            "name": "A3",
            "velocity": 1,
            "duration": 0.09985190625000229,
            "ticks": 13741,
            "durationTicks": 27
          },
          {
            "time": 50.991040125000005,
            "midi": 57,
            "name": "A3",
            "velocity": 1,
            "duration": 0.09985190625000229,
            "ticks": 13788,
            "durationTicks": 27
          },
          {
            "time": 51.17225284375,
            "midi": 57,
            "name": "A3",
            "velocity": 1,
            "duration": 0.2292895625000071,
            "ticks": 13837,
            "durationTicks": 62
          },
          {
            "time": 51.34976734375,
            "midi": 56,
            "name": "G#3",
            "velocity": 1,
            "duration": 0.33653790625000823,
            "ticks": 13885,
            "durationTicks": 91
          },
          {
            "time": 51.704796343750004,
            "midi": 54,
            "name": "F#3",
            "velocity": 1,
            "duration": 0.4400880312499993,
            "ticks": 13981,
            "durationTicks": 119
          },
          {
            "time": 52.59976528125001,
            "midi": 45,
            "name": "A2",
            "velocity": 1,
            "duration": 1.4053231250000024,
            "ticks": 14223,
            "durationTicks": 380
          },
          {
            "time": 54.023579500000004,
            "midi": 56,
            "name": "G#3",
            "velocity": 1,
            "duration": 1.4053231250000024,
            "ticks": 14608,
            "durationTicks": 380
          },
          {
            "time": 55.44739371875001,
            "midi": 57,
            "name": "A3",
            "velocity": 1,
            "duration": 2.8328355625000015,
            "ticks": 14993,
            "durationTicks": 766
          },
          {
            "time": 56.8712079375,
            "midi": 64,
            "name": "E4",
            "velocity": 1,
            "duration": 0.44378625000000227,
            "ticks": 15378,
            "durationTicks": 120
          },
          {
            "time": 57.40005321875001,
            "midi": 66,
            "name": "F#4",
            "velocity": 1,
            "duration": 0.43269159375000044,
            "ticks": 15521,
            "durationTicks": 117
          },
          {
            "time": 57.84753768750001,
            "midi": 64,
            "name": "E4",
            "velocity": 1,
            "duration": 0.4400880312499993,
            "ticks": 15642,
            "durationTicks": 119
          },
          {
            "time": 58.29872037500001,
            "midi": 57,
            "name": "A3",
            "velocity": 1,
            "duration": 1.4053231249999953,
            "ticks": 15764,
            "durationTicks": 380
          },
          {
            "time": 59.71883637500001,
            "midi": 64,
            "name": "E4",
            "velocity": 1,
            "duration": 1.4090213437499983,
            "ticks": 16148,
            "durationTicks": 381
          },
          {
            "time": 61.142650593750005,
            "midi": 66,
            "name": "F#4",
            "velocity": 1,
            "duration": 1.4275124375000061,
            "ticks": 16533,
            "durationTicks": 386
          },
          {
            "time": 62.57016303125001,
            "midi": 64,
            "name": "E4",
            "velocity": 1,
            "duration": 0.44378625000000227,
            "ticks": 16919,
            "durationTicks": 120
          },
          {
            "time": 63.10640475000001,
            "midi": 66,
            "name": "F#4",
            "velocity": 1,
            "duration": 0.4400880312499993,
            "ticks": 17064,
            "durationTicks": 119
          },
          {
            "time": 63.54649278125001,
            "midi": 64,
            "name": "E4",
            "velocity": 1,
            "duration": 0.43269159375000044,
            "ticks": 17183,
            "durationTicks": 117
          },
          {
            "time": 63.99397725000001,
            "midi": 61,
            "name": "C#4",
            "velocity": 1,
            "duration": 1.4053231250000024,
            "ticks": 17304,
            "durationTicks": 380
          },
          {
            "time": 65.41779146875001,
            "midi": 68,
            "name": "G#4",
            "velocity": 1,
            "duration": 1.3868320312499947,
            "ticks": 17689,
            "durationTicks": 375
          },
          {
            "time": 66.8416056875,
            "midi": 69,
            "name": "A4",
            "velocity": 1,
            "duration": 1.7640503437500001,
            "ticks": 18074,
            "durationTicks": 477
          },
          {
            "time": 68.62044890625,
            "midi": 71,
            "name": "B4",
            "velocity": 1,
            "duration": 0.16641984375000618,
            "ticks": 18555,
            "durationTicks": 45
          },
          {
            "time": 68.80166162500001,
            "midi": 73,
            "name": "C#5",
            "velocity": 1,
            "duration": 0.3402361250000041,
            "ticks": 18604,
            "durationTicks": 92
          },
          {
            "time": 69.16038884375001,
            "midi": 71,
            "name": "B4",
            "velocity": 1,
            "duration": 0.15902340625000022,
            "ticks": 18701,
            "durationTicks": 43
          },
          {
            "time": 69.33420512500001,
            "midi": 69,
            "name": "A4",
            "velocity": 1,
            "duration": 0.26996996875000434,
            "ticks": 18748,
            "durationTicks": 73
          },
          {
            "time": 69.6966305625,
            "midi": 76,
            "name": "E5",
            "velocity": 1,
            "duration": 5.676765781250012,
            "ticks": 18846,
            "durationTicks": 1535
          },
          {
            "time": 75.38818921875001,
            "midi": 62,
            "name": "D4",
            "velocity": 1,
            "duration": 0.42899337500000456,
            "ticks": 20385,
            "durationTicks": 116
          },
          {
            "time": 75.9244309375,
            "midi": 62,
            "name": "D4",
            "velocity": 1,
            "duration": 0.3217450312500034,
            "ticks": 20530,
            "durationTicks": 87
          },
          {
            "time": 76.28315815625001,
            "midi": 61,
            "name": "C#4",
            "velocity": 1,
            "duration": 0.162721624999989,
            "ticks": 20627,
            "durationTicks": 44
          },
          {
            "time": 76.46067265625001,
            "midi": 59,
            "name": "B3",
            "velocity": 1,
            "duration": 1.6346126874999953,
            "ticks": 20675,
            "durationTicks": 442
          },
          {
            "time": 78.23951587500001,
            "midi": 61,
            "name": "C#4",
            "velocity": 1,
            "duration": 0.14792874999999128,
            "ticks": 21156,
            "durationTicks": 40
          },
          {
            "time": 78.41703037500001,
            "midi": 61,
            "name": "C#4",
            "velocity": 1,
            "duration": 0.23668599999999174,
            "ticks": 21204,
            "durationTicks": 64
          },
          {
            "time": 78.77575759375,
            "midi": 61,
            "name": "C#4",
            "velocity": 1,
            "duration": 0.3402361250000041,
            "ticks": 21301,
            "durationTicks": 92
          },
          {
            "time": 79.13078659375,
            "midi": 57,
            "name": "A3",
            "velocity": 1,
            "duration": 0.24038421875000893,
            "ticks": 21397,
            "durationTicks": 65
          },
          {
            "time": 79.84454281250001,
            "midi": 66,
            "name": "F#4",
            "velocity": 1,
            "duration": 0.13683409374999655,
            "ticks": 21590,
            "durationTicks": 37
          },
          {
            "time": 80.19957181250001,
            "midi": 66,
            "name": "F#4",
            "velocity": 1,
            "duration": 0.09985190624999518,
            "ticks": 21686,
            "durationTicks": 27
          },
          {
            "time": 80.37708631250001,
            "midi": 66,
            "name": "F#4",
            "velocity": 1,
            "duration": 0.33653790625000113,
            "ticks": 21734,
            "durationTicks": 91
          },
          {
            "time": 80.73211531250001,
            "midi": 64,
            "name": "E4",
            "velocity": 1,
            "duration": 0.33653790625000113,
            "ticks": 21830,
            "durationTicks": 91
          },
          {
            "time": 81.08714431250002,
            "midi": 62,
            "name": "D4",
            "velocity": 1,
            "duration": 0.4363898124999963,
            "ticks": 21926,
            "durationTicks": 118
          },
          {
            "time": 81.62338603125,
            "midi": 62,
            "name": "D4",
            "velocity": 1,
            "duration": 0.12204121874999885,
            "ticks": 22071,
            "durationTicks": 33
          },
          {
            "time": 81.80090053125001,
            "midi": 62,
            "name": "D4",
            "velocity": 1,
            "duration": 0.1627216250000032,
            "ticks": 22119,
            "durationTicks": 44
          },
          {
            "time": 81.98211325000001,
            "midi": 61,
            "name": "C#4",
            "velocity": 1,
            "duration": 0.3217450312499892,
            "ticks": 22168,
            "durationTicks": 87
          },
          {
            "time": 82.33714225,
            "midi": 59,
            "name": "B3",
            "velocity": 1,
            "duration": 1.3054712187500144,
            "ticks": 22264,
            "durationTicks": 353
          },
          {
            "time": 83.93847096875001,
            "midi": 61,
            "name": "C#4",
            "velocity": 1,
            "duration": 0.1479287500000055,
            "ticks": 22697,
            "durationTicks": 40
          },
          {
            "time": 84.11598546875001,
            "midi": 61,
            "name": "C#4",
            "velocity": 1,
            "duration": 0.21449668750000228,
            "ticks": 22745,
            "durationTicks": 58
          },
          {
            "time": 84.47101446875001,
            "midi": 61,
            "name": "C#4",
            "velocity": 1,
            "duration": 0.3402361249999899,
            "ticks": 22841,
            "durationTicks": 92
          },
          {
            "time": 84.8297416875,
            "midi": 59,
            "name": "B3",
            "velocity": 1,
            "duration": 0.33653790625000113,
            "ticks": 22938,
            "durationTicks": 91
          },
          {
            "time": 85.1847706875,
            "midi": 57,
            "name": "A3",
            "velocity": 1,
            "duration": 0.3402361250000041,
            "ticks": 23034,
            "durationTicks": 92
          },
          {
            "time": 85.53979968750001,
            "midi": 59,
            "name": "B3",
            "velocity": 1,
            "duration": 0.3402361250000041,
            "ticks": 23130,
            "durationTicks": 92
          },
          {
            "time": 85.89852690625001,
            "midi": 61,
            "name": "C#4",
            "velocity": 1,
            "duration": 0.16641984374999197,
            "ticks": 23227,
            "durationTicks": 45
          },
          {
            "time": 86.07604140625,
            "midi": 59,
            "name": "B3",
            "velocity": 1,
            "duration": 0.3291414687500094,
            "ticks": 23275,
            "durationTicks": 89
          },
          {
            "time": 86.43107040625,
            "midi": 57,
            "name": "A3",
            "velocity": 1,
            "duration": 0.3217450312500034,
            "ticks": 23371,
            "durationTicks": 87
          },
          {
            "time": 87.14112840625,
            "midi": 62,
            "name": "D4",
            "velocity": 1,
            "duration": 0.48076843750000364,
            "ticks": 23563,
            "durationTicks": 130
          },
          {
            "time": 87.68106834375001,
            "midi": 62,
            "name": "D4",
            "velocity": 1,
            "duration": 0.12573943749998762,
            "ticks": 23709,
            "durationTicks": 34
          },
          {
            "time": 87.85488462500001,
            "midi": 62,
            "name": "D4",
            "velocity": 1,
            "duration": 0.12204121874999885,
            "ticks": 23756,
            "durationTicks": 33
          },
          {
            "time": 88.03239912500001,
            "midi": 62,
            "name": "D4",
            "velocity": 1,
            "duration": 0.24038421874999472,
            "ticks": 23804,
            "durationTicks": 65
          },
          {
            "time": 89.9924550625,
            "midi": 57,
            "name": "A3",
            "velocity": 1,
            "duration": 0.11094656250000412,
            "ticks": 24334,
            "durationTicks": 30
          },
          {
            "time": 90.1699695625,
            "midi": 57,
            "name": "A3",
            "velocity": 1,
            "duration": 0.10355012500001237,
            "ticks": 24382,
            "durationTicks": 28
          },
          {
            "time": 90.3474840625,
            "midi": 57,
            "name": "A3",
            "velocity": 1,
            "duration": 0.10724834375001535,
            "ticks": 24430,
            "durationTicks": 29
          },
          {
            "time": 90.52869678125002,
            "midi": 57,
            "name": "A3",
            "velocity": 1,
            "duration": 0.0961536874999922,
            "ticks": 24479,
            "durationTicks": 26
          },
          {
            "time": 90.7025130625,
            "midi": 57,
            "name": "A3",
            "velocity": 1,
            "duration": 0.09985190625000939,
            "ticks": 24526,
            "durationTicks": 27
          },
          {
            "time": 90.88372578125,
            "midi": 57,
            "name": "A3",
            "velocity": 1,
            "duration": 0.09245546875000343,
            "ticks": 24575,
            "durationTicks": 25
          },
          {
            "time": 91.05754206250002,
            "midi": 57,
            "name": "A3",
            "velocity": 1,
            "duration": 0.22928956249998578,
            "ticks": 24622,
            "durationTicks": 62
          },
          {
            "time": 91.23875478125001,
            "midi": 56,
            "name": "G#3",
            "velocity": 1,
            "duration": 0.3402361250000041,
            "ticks": 24671,
            "durationTicks": 92
          },
          {
            "time": 91.59378378125,
            "midi": 54,
            "name": "F#3",
            "velocity": 1,
            "duration": 0.44378625000000227,
            "ticks": 24767,
            "durationTicks": 120
          },
          {
            "time": 92.4850545,
            "midi": 45,
            "name": "A2",
            "velocity": 1,
            "duration": 1.4053231249999953,
            "ticks": 25008,
            "durationTicks": 380
          },
          {
            "time": 93.90886871875001,
            "midi": 56,
            "name": "G#3",
            "velocity": 1,
            "duration": 1.4053231249999953,
            "ticks": 25393,
            "durationTicks": 380
          },
          {
            "time": 95.33268293750001,
            "midi": 57,
            "name": "A3",
            "velocity": 1,
            "duration": 2.8328355624999944,
            "ticks": 25778,
            "durationTicks": 766
          },
          {
            "time": 96.75649715625,
            "midi": 64,
            "name": "E4",
            "velocity": 1,
            "duration": 0.44378625000000227,
            "ticks": 26163,
            "durationTicks": 120
          },
          {
            "time": 97.29273887500001,
            "midi": 66,
            "name": "F#4",
            "velocity": 1,
            "duration": 0.42529515624998737,
            "ticks": 26308,
            "durationTicks": 115
          },
          {
            "time": 97.73282690625001,
            "midi": 64,
            "name": "E4",
            "velocity": 1,
            "duration": 0.4400880312499993,
            "ticks": 26427,
            "durationTicks": 119
          },
          {
            "time": 98.18400959375,
            "midi": 57,
            "name": "A3",
            "velocity": 1,
            "duration": 1.4053231250000096,
            "ticks": 26549,
            "durationTicks": 380
          },
          {
            "time": 99.60782381250002,
            "midi": 64,
            "name": "E4",
            "velocity": 1,
            "duration": 1.4053231249999953,
            "ticks": 26934,
            "durationTicks": 380
          },
          {
            "time": 101.02793981250001,
            "midi": 66,
            "name": "F#4",
            "velocity": 1,
            "duration": 1.427512437499999,
            "ticks": 27318,
            "durationTicks": 386
          },
          {
            "time": 102.45545225000001,
            "midi": 64,
            "name": "E4",
            "velocity": 1,
            "duration": 0.44378625000000227,
            "ticks": 27704,
            "durationTicks": 120
          },
          {
            "time": 102.99169396875001,
            "midi": 66,
            "name": "F#4",
            "velocity": 1,
            "duration": 0.4400880312499851,
            "ticks": 27849,
            "durationTicks": 119
          },
          {
            "time": 103.431782,
            "midi": 64,
            "name": "E4",
            "velocity": 1,
            "duration": 0.43269159375000754,
            "ticks": 27968,
            "durationTicks": 117
          },
          {
            "time": 103.87926646875002,
            "midi": 61,
            "name": "C#4",
            "velocity": 1,
            "duration": 1.4053231249999811,
            "ticks": 28089,
            "durationTicks": 380
          },
          {
            "time": 105.30308068750001,
            "midi": 68,
            "name": "G#4",
            "velocity": 1,
            "duration": 1.3942284687500006,
            "ticks": 28474,
            "durationTicks": 377
          },
          {
            "time": 106.72689490625001,
            "midi": 69,
            "name": "A4",
            "velocity": 1,
            "duration": 1.7640503437500001,
            "ticks": 28859,
            "durationTicks": 477
          },
          {
            "time": 108.50573812500001,
            "midi": 71,
            "name": "B4",
            "velocity": 1,
            "duration": 0.16641984375000618,
            "ticks": 29340,
            "durationTicks": 45
          },
          {
            "time": 108.68695084375001,
            "midi": 73,
            "name": "C#5",
            "velocity": 1,
            "duration": 0.3402361250000041,
            "ticks": 29389,
            "durationTicks": 92
          },
          {
            "time": 109.0456780625,
            "midi": 71,
            "name": "B4",
            "velocity": 1,
            "duration": 0.15902340625001443,
            "ticks": 29486,
            "durationTicks": 43
          },
          {
            "time": 109.21949434375001,
            "midi": 69,
            "name": "A4",
            "velocity": 1,
            "duration": 0.26996996874999013,
            "ticks": 29533,
            "durationTicks": 73
          },
          {
            "time": 109.58191978125001,
            "midi": 76,
            "name": "E5",
            "velocity": 1,
            "duration": 5.680464000000001,
            "ticks": 29631,
            "durationTicks": 1536
          },
          {
            "time": 155.16246587500004,
            "midi": 62,
            "name": "D4",
            "velocity": 1,
            "duration": 0.42529515624997316,
            "ticks": 41956,
            "durationTicks": 115
          },
          {
            "time": 155.695009375,
            "midi": 62,
            "name": "D4",
            "velocity": 1,
            "duration": 0.3217450312500034,
            "ticks": 42100,
            "durationTicks": 87
          },
          {
            "time": 156.05373659375002,
            "midi": 61,
            "name": "C#4",
            "velocity": 1,
            "duration": 0.1627216250000174,
            "ticks": 42197,
            "durationTicks": 44
          },
          {
            "time": 156.23125109375002,
            "midi": 59,
            "name": "B3",
            "velocity": 1,
            "duration": 1.6346126875000095,
            "ticks": 42245,
            "durationTicks": 442
          },
          {
            "time": 158.01009431250003,
            "midi": 61,
            "name": "C#4",
            "velocity": 1,
            "duration": 0.1479287500000055,
            "ticks": 42726,
            "durationTicks": 40
          },
          {
            "time": 158.18760881250003,
            "midi": 61,
            "name": "C#4",
            "velocity": 1,
            "duration": 0.23668599999999174,
            "ticks": 42774,
            "durationTicks": 64
          },
          {
            "time": 158.54633603125004,
            "midi": 61,
            "name": "C#4",
            "velocity": 1,
            "duration": 0.3365379062499869,
            "ticks": 42871,
            "durationTicks": 91
          },
          {
            "time": 158.90136503125004,
            "midi": 57,
            "name": "A3",
            "velocity": 1,
            "duration": 0.2440824374999977,
            "ticks": 42967,
            "durationTicks": 66
          },
          {
            "time": 159.61512125000002,
            "midi": 66,
            "name": "F#4",
            "velocity": 1,
            "duration": 0.13683409374999655,
            "ticks": 43160,
            "durationTicks": 37
          },
          {
            "time": 159.97015025000002,
            "midi": 66,
            "name": "F#4",
            "velocity": 1,
            "duration": 0.09985190624999518,
            "ticks": 43256,
            "durationTicks": 27
          },
          {
            "time": 160.14766475000002,
            "midi": 66,
            "name": "F#4",
            "velocity": 1,
            "duration": 0.3365379062499869,
            "ticks": 43304,
            "durationTicks": 91
          },
          {
            "time": 160.50269375000002,
            "midi": 64,
            "name": "E4",
            "velocity": 1,
            "duration": 0.3365379062499869,
            "ticks": 43400,
            "durationTicks": 91
          },
          {
            "time": 160.85772275000002,
            "midi": 62,
            "name": "D4",
            "velocity": 1,
            "duration": 0.4400880312500135,
            "ticks": 43496,
            "durationTicks": 119
          },
          {
            "time": 161.39396446875003,
            "midi": 62,
            "name": "D4",
            "velocity": 1,
            "duration": 0.12573943749998762,
            "ticks": 43641,
            "durationTicks": 34
          },
          {
            "time": 161.57147896875003,
            "midi": 62,
            "name": "D4",
            "velocity": 1,
            "duration": 0.162721624999989,
            "ticks": 43689,
            "durationTicks": 44
          },
          {
            "time": 161.75269168750003,
            "midi": 61,
            "name": "C#4",
            "velocity": 1,
            "duration": 0.3217450312500034,
            "ticks": 43738,
            "durationTicks": 87
          },
          {
            "time": 162.10772068750003,
            "midi": 59,
            "name": "B3",
            "velocity": 1,
            "duration": 1.3054712187499717,
            "ticks": 43834,
            "durationTicks": 353
          },
          {
            "time": 163.70904940625002,
            "midi": 61,
            "name": "C#4",
            "velocity": 1,
            "duration": 0.15162696875000847,
            "ticks": 44267,
            "durationTicks": 41
          },
          {
            "time": 163.88656390625002,
            "midi": 61,
            "name": "C#4",
            "velocity": 1,
            "duration": 0.21819490625000526,
            "ticks": 44315,
            "durationTicks": 59
          },
          {
            "time": 164.24159290625002,
            "midi": 61,
            "name": "C#4",
            "velocity": 1,
            "duration": 0.3402361250000183,
            "ticks": 44411,
            "durationTicks": 92
          },
          {
            "time": 164.60032012500002,
            "midi": 59,
            "name": "B3",
            "velocity": 1,
            "duration": 0.3365379062499869,
            "ticks": 44508,
            "durationTicks": 91
          },
          {
            "time": 164.95534912500003,
            "midi": 57,
            "name": "A3",
            "velocity": 1,
            "duration": 0.3402361249999899,
            "ticks": 44604,
            "durationTicks": 92
          },
          {
            "time": 165.31037812500003,
            "midi": 59,
            "name": "B3",
            "velocity": 1,
            "duration": 0.3402361249999899,
            "ticks": 44700,
            "durationTicks": 92
          },
          {
            "time": 165.66910534375003,
            "midi": 61,
            "name": "C#4",
            "velocity": 1,
            "duration": 0.1775145000000009,
            "ticks": 44797,
            "durationTicks": 48
          },
          {
            "time": 165.84661984375003,
            "midi": 59,
            "name": "B3",
            "velocity": 1,
            "duration": 0.3365379062499869,
            "ticks": 44845,
            "durationTicks": 91
          },
          {
            "time": 166.20164884375004,
            "midi": 57,
            "name": "A3",
            "velocity": 1,
            "duration": 0.325443249999978,
            "ticks": 44941,
            "durationTicks": 88
          },
          {
            "time": 166.91170684375,
            "midi": 62,
            "name": "D4",
            "velocity": 1,
            "duration": 0.48076843749998943,
            "ticks": 45133,
            "durationTicks": 130
          },
          {
            "time": 167.44794856250002,
            "midi": 62,
            "name": "D4",
            "velocity": 1,
            "duration": 0.12943765625001902,
            "ticks": 45278,
            "durationTicks": 35
          },
          {
            "time": 167.62546306250002,
            "midi": 62,
            "name": "D4",
            "velocity": 1,
            "duration": 0.12573943749998762,
            "ticks": 45326,
            "durationTicks": 34
          },
          {
            "time": 167.80297756250002,
            "midi": 62,
            "name": "D4",
            "velocity": 1,
            "duration": 0.2440824374999977,
            "ticks": 45374,
            "durationTicks": 66
          },
          {
            "time": 169.76303350000003,
            "midi": 57,
            "name": "A3",
            "velocity": 1,
            "duration": 0.11094656250000412,
            "ticks": 45904,
            "durationTicks": 30
          },
          {
            "time": 169.94054800000004,
            "midi": 57,
            "name": "A3",
            "velocity": 1,
            "duration": 0.10355012499996974,
            "ticks": 45952,
            "durationTicks": 28
          },
          {
            "time": 170.11806250000004,
            "midi": 57,
            "name": "A3",
            "velocity": 1,
            "duration": 0.10724834374997272,
            "ticks": 46000,
            "durationTicks": 29
          },
          {
            "time": 170.29927521875,
            "midi": 57,
            "name": "A3",
            "velocity": 1,
            "duration": 0.09615368750002062,
            "ticks": 46049,
            "durationTicks": 26
          },
          {
            "time": 170.47309150000004,
            "midi": 57,
            "name": "A3",
            "velocity": 1,
            "duration": 0.09985190624999518,
            "ticks": 46096,
            "durationTicks": 27
          },
          {
            "time": 170.65430421875,
            "midi": 57,
            "name": "A3",
            "velocity": 1,
            "duration": 0.09245546875001764,
            "ticks": 46145,
            "durationTicks": 25
          },
          {
            "time": 170.83181871875001,
            "midi": 57,
            "name": "A3",
            "velocity": 1,
            "duration": 0.22559134375001122,
            "ticks": 46193,
            "durationTicks": 61
          },
          {
            "time": 171.00933321875002,
            "midi": 56,
            "name": "G#3",
            "velocity": 1,
            "duration": 0.3402361250000183,
            "ticks": 46241,
            "durationTicks": 92
          },
          {
            "time": 171.36436221875002,
            "midi": 54,
            "name": "F#3",
            "velocity": 1,
            "duration": 0.44378624999998806,
            "ticks": 46337,
            "durationTicks": 120
          },
          {
            "time": 172.25563293750002,
            "midi": 45,
            "name": "A2",
            "velocity": 1,
            "duration": 1.4127195625000013,
            "ticks": 46578,
            "durationTicks": 382
          },
          {
            "time": 173.683145375,
            "midi": 56,
            "name": "G#3",
            "velocity": 1,
            "duration": 1.4090213437499983,
            "ticks": 46964,
            "durationTicks": 381
          },
          {
            "time": 175.10695959375002,
            "midi": 57,
            "name": "A3",
            "velocity": 1,
            "duration": 2.8328355625000086,
            "ticks": 47349,
            "durationTicks": 766
          },
          {
            "time": 176.53077381250003,
            "midi": 64,
            "name": "E4",
            "velocity": 1,
            "duration": 0.44378624999998806,
            "ticks": 47734,
            "durationTicks": 120
          },
          {
            "time": 177.06331731250003,
            "midi": 66,
            "name": "F#4",
            "velocity": 1,
            "duration": 0.42899337499997614,
            "ticks": 47878,
            "durationTicks": 116
          },
          {
            "time": 177.50710356250002,
            "midi": 64,
            "name": "E4",
            "velocity": 1,
            "duration": 0.4437862500000165,
            "ticks": 47998,
            "durationTicks": 120
          },
          {
            "time": 177.95828625000001,
            "midi": 57,
            "name": "A3",
            "velocity": 1,
            "duration": 1.4090213437499983,
            "ticks": 48120,
            "durationTicks": 381
          },
          {
            "time": 179.38210046875002,
            "midi": 64,
            "name": "E4",
            "velocity": 1,
            "duration": 1.4053231249999953,
            "ticks": 48505,
            "durationTicks": 380
          },
          {
            "time": 180.8059146875,
            "midi": 66,
            "name": "F#4",
            "velocity": 1,
            "duration": 1.4238142187500102,
            "ticks": 48890,
            "durationTicks": 385
          },
          {
            "time": 182.22972890625002,
            "midi": 64,
            "name": "E4",
            "velocity": 1,
            "duration": 0.4400880312500135,
            "ticks": 49275,
            "durationTicks": 119
          },
          {
            "time": 182.75857418750005,
            "midi": 66,
            "name": "F#4",
            "velocity": 1,
            "duration": 0.4474844687499626,
            "ticks": 49418,
            "durationTicks": 121
          },
          {
            "time": 183.209756875,
            "midi": 64,
            "name": "E4",
            "velocity": 1,
            "duration": 0.42899337500000456,
            "ticks": 49540,
            "durationTicks": 116
          },
          {
            "time": 183.65724134375003,
            "midi": 61,
            "name": "C#4",
            "velocity": 1,
            "duration": 1.405323124999967,
            "ticks": 49661,
            "durationTicks": 380
          },
          {
            "time": 185.07735734375004,
            "midi": 68,
            "name": "G#4",
            "velocity": 1,
            "duration": 1.3905302499999834,
            "ticks": 50045,
            "durationTicks": 376
          },
          {
            "time": 186.50486978125,
            "midi": 69,
            "name": "A4",
            "velocity": 1,
            "duration": 1.7603521250000256,
            "ticks": 50431,
            "durationTicks": 476
          },
          {
            "time": 188.28371300000003,
            "midi": 71,
            "name": "B4",
            "velocity": 1,
            "duration": 0.159023406249986,
            "ticks": 50912,
            "durationTicks": 43
          },
          {
            "time": 188.45752928125,
            "midi": 73,
            "name": "C#5",
            "velocity": 1,
            "duration": 0.3476325625000243,
            "ticks": 50959,
            "durationTicks": 94
          },
          {
            "time": 188.81625650000004,
            "midi": 71,
            "name": "B4",
            "velocity": 1,
            "duration": 0.16272162499996057,
            "ticks": 51056,
            "durationTicks": 44
          },
          {
            "time": 188.99746921875,
            "midi": 69,
            "name": "A4",
            "velocity": 1,
            "duration": 0.2662717500000156,
            "ticks": 51105,
            "durationTicks": 72
          },
          {
            "time": 189.35619643750002,
            "midi": 45,
            "name": "A2",
            "velocity": 1,
            "duration": 1.4053231249999953,
            "ticks": 51202,
            "durationTicks": 380
          },
          {
            "time": 189.35619643750002,
            "midi": 76,
            "name": "E5",
            "velocity": 1,
            "duration": 5.676765781249998,
            "ticks": 51202,
            "durationTicks": 1535
          },
          {
            "time": 190.7763124375,
            "midi": 56,
            "name": "G#3",
            "velocity": 1,
            "duration": 1.4090213437499983,
            "ticks": 51586,
            "durationTicks": 381
          },
          {
            "time": 192.20012665625003,
            "midi": 57,
            "name": "A3",
            "velocity": 1,
            "duration": 2.83283556249998,
            "ticks": 51971,
            "durationTicks": 766
          },
          {
            "time": 193.62394087500002,
            "midi": 64,
            "name": "E4",
            "velocity": 1,
            "duration": 0.0036982187500029795,
            "ticks": 52356,
            "durationTicks": 1
          },
          {
            "time": 193.62394087500002,
            "midi": 64,
            "name": "E4",
            "velocity": 1,
            "duration": 0.4437862500000165,
            "ticks": 52356,
            "durationTicks": 120
          },
          {
            "time": 194.15648437500002,
            "midi": 66,
            "name": "F#4",
            "velocity": 1,
            "duration": 0.003698218749974558,
            "ticks": 52500,
            "durationTicks": 1
          },
          {
            "time": 194.15648437500002,
            "midi": 66,
            "name": "F#4",
            "velocity": 1,
            "duration": 0.41420049999999264,
            "ticks": 52500,
            "durationTicks": 112
          },
          {
            "time": 194.600270625,
            "midi": 64,
            "name": "E4",
            "velocity": 1,
            "duration": 0.09615368750002062,
            "ticks": 52620,
            "durationTicks": 26
          },
          {
            "time": 194.69642431250003,
            "midi": 64,
            "name": "E4",
            "velocity": 1,
            "duration": 0.3365379062499869,
            "ticks": 52646,
            "durationTicks": 91
          },
          {
            "time": 195.05145331250003,
            "midi": 57,
            "name": "A3",
            "velocity": 1,
            "duration": 1.4090213437499983,
            "ticks": 52742,
            "durationTicks": 381
          },
          {
            "time": 196.47526753125,
            "midi": 64,
            "name": "E4",
            "velocity": 1,
            "duration": 1.4053231250000238,
            "ticks": 53127,
            "durationTicks": 380
          },
          {
            "time": 197.89908175000002,
            "midi": 66,
            "name": "F#4",
            "velocity": 1,
            "duration": 1.4238142187500102,
            "ticks": 53512,
            "durationTicks": 385
          },
          {
            "time": 199.32659418750004,
            "midi": 64,
            "name": "E4",
            "velocity": 1,
            "duration": 0.4363898124999821,
            "ticks": 53898,
            "durationTicks": 118
          },
          {
            "time": 199.85543946875003,
            "midi": 66,
            "name": "F#4",
            "velocity": 1,
            "duration": 0.44378624999998806,
            "ticks": 54041,
            "durationTicks": 120
          },
          {
            "time": 200.30292393750003,
            "midi": 64,
            "name": "E4",
            "velocity": 1,
            "duration": 0.42899337500000456,
            "ticks": 54162,
            "durationTicks": 116
          },
          {
            "time": 200.75040840625002,
            "midi": 61,
            "name": "C#4",
            "velocity": 1,
            "duration": 1.4053231249999953,
            "ticks": 54283,
            "durationTicks": 380
          },
          {
            "time": 202.17422262500003,
            "midi": 68,
            "name": "G#4",
            "velocity": 1,
            "duration": 1.3868320312500089,
            "ticks": 54668,
            "durationTicks": 375
          },
          {
            "time": 203.59803684375,
            "midi": 69,
            "name": "A4",
            "velocity": 1,
            "duration": 1.7640503437500001,
            "ticks": 55053,
            "durationTicks": 477
          },
          {
            "time": 205.37688006250002,
            "midi": 71,
            "name": "B4",
            "velocity": 1,
            "duration": 0.15902340625001443,
            "ticks": 55534,
            "durationTicks": 43
          },
          {
            "time": 205.55069634375002,
            "midi": 73,
            "name": "C#5",
            "velocity": 1,
            "duration": 0.34763256249999586,
            "ticks": 55581,
            "durationTicks": 94
          },
          {
            "time": 205.9094235625,
            "midi": 71,
            "name": "B4",
            "velocity": 1,
            "duration": 0.1627216250000174,
            "ticks": 55678,
            "durationTicks": 44
          },
          {
            "time": 206.09063628125003,
            "midi": 69,
            "name": "A4",
            "velocity": 1,
            "duration": 0.26996996874999013,
            "ticks": 55727,
            "durationTicks": 73
          },
          {
            "time": 206.44936350000003,
            "midi": 76,
            "name": "E5",
            "velocity": 1,
            "duration": 5.676765781249998,
            "ticks": 55824,
            "durationTicks": 1535
          },
          {
            "time": 206.44936350000003,
            "midi": 45,
            "name": "A2",
            "velocity": 1,
            "duration": 1.4053231249999953,
            "ticks": 55824,
            "durationTicks": 380
          },
          {
            "time": 207.8694795,
            "midi": 56,
            "name": "G#3",
            "velocity": 1,
            "duration": 1.4090213437499983,
            "ticks": 56208,
            "durationTicks": 381
          },
          {
            "time": 209.29329371875002,
            "midi": 57,
            "name": "A3",
            "velocity": 1,
            "duration": 2.8328355625000086,
            "ticks": 56593,
            "durationTicks": 766
          },
          {
            "time": 210.72080615625003,
            "midi": 64,
            "name": "E4",
            "velocity": 1,
            "duration": 0.4400880312500135,
            "ticks": 56979,
            "durationTicks": 119
          },
          {
            "time": 211.24965143750003,
            "midi": 66,
            "name": "F#4",
            "velocity": 1,
            "duration": 0.41420049999999264,
            "ticks": 57122,
            "durationTicks": 112
          },
          {
            "time": 211.69713590625003,
            "midi": 64,
            "name": "E4",
            "velocity": 1,
            "duration": 0.42899337500000456,
            "ticks": 57243,
            "durationTicks": 116
          },
          {
            "time": 212.14462037500002,
            "midi": 57,
            "name": "A3",
            "velocity": 1,
            "duration": 1.4090213437499983,
            "ticks": 57364,
            "durationTicks": 381
          },
          {
            "time": 213.56843459375003,
            "midi": 64,
            "name": "E4",
            "velocity": 1,
            "duration": 1.4090213437499983,
            "ticks": 57749,
            "durationTicks": 381
          },
          {
            "time": 214.99594703125,
            "midi": 66,
            "name": "F#4",
            "velocity": 1,
            "duration": 1.4201160000000073,
            "ticks": 58135,
            "durationTicks": 384
          },
          {
            "time": 216.41976125000005,
            "midi": 64,
            "name": "E4",
            "velocity": 1,
            "duration": 0.44008803124995666,
            "ticks": 58520,
            "durationTicks": 119
          },
          {
            "time": 216.94860653125002,
            "midi": 66,
            "name": "F#4",
            "velocity": 1,
            "duration": 0.3587272187500048,
            "ticks": 58663,
            "durationTicks": 97
          },
          {
            "time": 217.39609100000004,
            "midi": 64,
            "name": "E4",
            "velocity": 1,
            "duration": 0.42899337499997614,
            "ticks": 58784,
            "durationTicks": 116
          },
          {
            "time": 217.8472736875,
            "midi": 61,
            "name": "C#4",
            "velocity": 1,
            "duration": 1.4016249062500208,
            "ticks": 58906,
            "durationTicks": 379
          },
          {
            "time": 219.2673896875,
            "midi": 68,
            "name": "G#4",
            "velocity": 1,
            "duration": 1.3868320312500089,
            "ticks": 59290,
            "durationTicks": 375
          },
          {
            "time": 220.69490212500003,
            "midi": 69,
            "name": "A4",
            "velocity": 1,
            "duration": 1.7603521249999972,
            "ticks": 59676,
            "durationTicks": 476
          },
          {
            "time": 222.47374534375,
            "midi": 71,
            "name": "B4",
            "velocity": 1,
            "duration": 0.15532518750001145,
            "ticks": 60157,
            "durationTicks": 42
          },
          {
            "time": 222.64756162500004,
            "midi": 73,
            "name": "C#5",
            "velocity": 1,
            "duration": 0.3439343437499929,
            "ticks": 60204,
            "durationTicks": 93
          },
          {
            "time": 223.002590625,
            "midi": 71,
            "name": "B4",
            "velocity": 1,
            "duration": 0.1627216250000174,
            "ticks": 60300,
            "durationTicks": 44
          },
          {
            "time": 223.18380334375001,
            "midi": 69,
            "name": "A4",
            "velocity": 1,
            "duration": 0.26996996875001855,
            "ticks": 60349,
            "durationTicks": 73
          }
        ],
        "controlChanges": {
          "7": [
            {
              "number": 7,
              "value": 0.8110236220472441,
              "time": 0,
              "ticks": 0
            },
            {
              "number": 7,
              "value": 0.7795275590551181,
              "time": 213.39831653125,
              "ticks": 57703
            },
            {
              "number": 7,
              "value": 0.7716535433070866,
              "time": 213.475979125,
              "ticks": 57724
            },
            {
              "number": 7,
              "value": 0.7637795275590551,
              "time": 213.58322746875,
              "ticks": 57753
            },
            {
              "number": 7,
              "value": 0.7559055118110236,
              "time": 213.69417403125001,
              "ticks": 57783
            },
            {
              "number": 7,
              "value": 0.7480314960629921,
              "time": 213.73485443750005,
              "ticks": 57794
            },
            {
              "number": 7,
              "value": 0.7401574803149606,
              "time": 213.79772415625,
              "ticks": 57811
            },
            {
              "number": 7,
              "value": 0.7322834645669292,
              "time": 213.96044578125003,
              "ticks": 57855
            },
            {
              "number": 7,
              "value": 0.7244094488188977,
              "time": 214.07878878125004,
              "ticks": 57887
            },
            {
              "number": 7,
              "value": 0.7165354330708661,
              "time": 214.186037125,
              "ticks": 57916
            },
            {
              "number": 7,
              "value": 0.7086614173228346,
              "time": 214.42642134375004,
              "ticks": 57981
            },
            {
              "number": 7,
              "value": 0.7007874015748031,
              "time": 214.60023762500003,
              "ticks": 58028
            },
            {
              "number": 7,
              "value": 0.6929133858267716,
              "time": 214.748166375,
              "ticks": 58068
            },
            {
              "number": 7,
              "value": 0.6850393700787402,
              "time": 214.81473431250004,
              "ticks": 58086
            },
            {
              "number": 7,
              "value": 0.6771653543307087,
              "time": 214.98855059375003,
              "ticks": 58133
            },
            {
              "number": 7,
              "value": 0.6692913385826772,
              "time": 215.03662743750002,
              "ticks": 58146
            },
            {
              "number": 7,
              "value": 0.6614173228346457,
              "time": 215.09210071875003,
              "ticks": 58161
            },
            {
              "number": 7,
              "value": 0.6535433070866141,
              "time": 215.12538468750003,
              "ticks": 58170
            },
            {
              "number": 7,
              "value": 0.6456692913385826,
              "time": 215.20304728125004,
              "ticks": 58191
            },
            {
              "number": 7,
              "value": 0.6377952755905512,
              "time": 215.38795821875004,
              "ticks": 58241
            },
            {
              "number": 7,
              "value": 0.6299212598425197,
              "time": 215.49520656250002,
              "ticks": 58270
            },
            {
              "number": 7,
              "value": 0.6220472440944882,
              "time": 215.59136025000004,
              "ticks": 58296
            },
            {
              "number": 7,
              "value": 0.6141732283464567,
              "time": 215.75038365625002,
              "ticks": 58339
            },
            {
              "number": 7,
              "value": 0.6062992125984252,
              "time": 215.85763200000002,
              "ticks": 58368
            },
            {
              "number": 7,
              "value": 0.5984251968503937,
              "time": 215.90940706250004,
              "ticks": 58382
            },
            {
              "number": 7,
              "value": 0.5905511811023622,
              "time": 216.04624115625003,
              "ticks": 58419
            },
            {
              "number": 7,
              "value": 0.5826771653543307,
              "time": 216.13499840625002,
              "ticks": 58443
            },
            {
              "number": 7,
              "value": 0.5748031496062992,
              "time": 216.19047168750004,
              "ticks": 58458
            },
            {
              "number": 7,
              "value": 0.5669291338582677,
              "time": 216.24594496875002,
              "ticks": 58473
            },
            {
              "number": 7,
              "value": 0.5590551181102362,
              "time": 216.32730578125,
              "ticks": 58495
            },
            {
              "number": 7,
              "value": 0.5511811023622047,
              "time": 216.40866659375004,
              "ticks": 58517
            },
            {
              "number": 7,
              "value": 0.5433070866141733,
              "time": 216.5159149375,
              "ticks": 58546
            },
            {
              "number": 7,
              "value": 0.5354330708661418,
              "time": 216.55659534375002,
              "ticks": 58557
            },
            {
              "number": 7,
              "value": 0.5275590551181102,
              "time": 216.59727575000005,
              "ticks": 58568
            },
            {
              "number": 7,
              "value": 0.5196850393700787,
              "time": 216.61206862500003,
              "ticks": 58572
            },
            {
              "number": 7,
              "value": 0.5118110236220472,
              "time": 216.65274903125004,
              "ticks": 58583
            },
            {
              "number": 7,
              "value": 0.5039370078740157,
              "time": 216.759997375,
              "ticks": 58612
            },
            {
              "number": 7,
              "value": 0.49606299212598426,
              "time": 216.81177243750003,
              "ticks": 58626
            },
            {
              "number": 7,
              "value": 0.4881889763779528,
              "time": 216.98928693750003,
              "ticks": 58674
            },
            {
              "number": 7,
              "value": 0.48031496062992124,
              "time": 217.22597293750002,
              "ticks": 58738
            },
            {
              "number": 7,
              "value": 0.47244094488188976,
              "time": 217.30733375000003,
              "ticks": 58760
            },
            {
              "number": 7,
              "value": 0.4645669291338583,
              "time": 217.42937496875004,
              "ticks": 58793
            },
            {
              "number": 7,
              "value": 0.4566929133858268,
              "time": 217.54771796875002,
              "ticks": 58825
            },
            {
              "number": 7,
              "value": 0.44881889763779526,
              "time": 217.70674137500004,
              "ticks": 58868
            },
            {
              "number": 7,
              "value": 0.4409448818897638,
              "time": 217.8472736875,
              "ticks": 58906
            },
            {
              "number": 7,
              "value": 0.4330708661417323,
              "time": 217.94712559375,
              "ticks": 58933
            },
            {
              "number": 7,
              "value": 0.4251968503937008,
              "time": 218.00259887500002,
              "ticks": 58948
            },
            {
              "number": 7,
              "value": 0.41732283464566927,
              "time": 218.08395968750003,
              "ticks": 58970
            },
            {
              "number": 7,
              "value": 0.4094488188976378,
              "time": 218.29475815625003,
              "ticks": 59027
            },
            {
              "number": 7,
              "value": 0.4015748031496063,
              "time": 218.39830828125002,
              "ticks": 59055
            },
            {
              "number": 7,
              "value": 0.3937007874015748,
              "time": 218.49816018750002,
              "ticks": 59082
            },
            {
              "number": 7,
              "value": 0.3858267716535433,
              "time": 218.53514237500002,
              "ticks": 59092
            },
            {
              "number": 7,
              "value": 0.3779527559055118,
              "time": 218.60540853125005,
              "ticks": 59111
            },
            {
              "number": 7,
              "value": 0.3700787401574803,
              "time": 218.76443193750004,
              "ticks": 59154
            },
            {
              "number": 7,
              "value": 0.36220472440944884,
              "time": 218.83099987500003,
              "ticks": 59172
            },
            {
              "number": 7,
              "value": 0.3543307086614173,
              "time": 218.9123606875,
              "ticks": 59194
            },
            {
              "number": 7,
              "value": 0.3464566929133858,
              "time": 218.978928625,
              "ticks": 59212
            },
            {
              "number": 7,
              "value": 0.33858267716535434,
              "time": 219.03070368750002,
              "ticks": 59226
            },
            {
              "number": 7,
              "value": 0.33070866141732286,
              "time": 219.18233065625003,
              "ticks": 59267
            },
            {
              "number": 7,
              "value": 0.3228346456692913,
              "time": 219.2230110625,
              "ticks": 59278
            },
            {
              "number": 7,
              "value": 0.31496062992125984,
              "time": 219.25999325000004,
              "ticks": 59288
            },
            {
              "number": 7,
              "value": 0.30708661417322836,
              "time": 219.35244871875003,
              "ticks": 59313
            },
            {
              "number": 7,
              "value": 0.2992125984251969,
              "time": 219.41162021875002,
              "ticks": 59329
            },
            {
              "number": 7,
              "value": 0.29133858267716534,
              "time": 219.45230062500002,
              "ticks": 59340
            },
            {
              "number": 7,
              "value": 0.28346456692913385,
              "time": 219.51517034375004,
              "ticks": 59357
            },
            {
              "number": 7,
              "value": 0.2755905511811024,
              "time": 219.688986625,
              "ticks": 59404
            },
            {
              "number": 7,
              "value": 0.2677165354330709,
              "time": 219.75925278125004,
              "ticks": 59423
            },
            {
              "number": 7,
              "value": 0.25984251968503935,
              "time": 219.85170825000003,
              "ticks": 59448
            },
            {
              "number": 7,
              "value": 0.25196850393700787,
              "time": 219.94416371875002,
              "ticks": 59473
            },
            {
              "number": 7,
              "value": 0.2440944881889764,
              "time": 220.04031740625,
              "ticks": 59499
            },
            {
              "number": 7,
              "value": 0.23622047244094488,
              "time": 220.14386753125,
              "ticks": 59527
            },
            {
              "number": 7,
              "value": 0.2283464566929134,
              "time": 220.251115875,
              "ticks": 59556
            },
            {
              "number": 7,
              "value": 0.2204724409448819,
              "time": 220.29549450000002,
              "ticks": 59568
            },
            {
              "number": 7,
              "value": 0.2125984251968504,
              "time": 220.42493215625004,
              "ticks": 59603
            },
            {
              "number": 7,
              "value": 0.2047244094488189,
              "time": 220.49519831250004,
              "ticks": 59622
            },
            {
              "number": 7,
              "value": 0.1968503937007874,
              "time": 220.55067159375002,
              "ticks": 59637
            },
            {
              "number": 7,
              "value": 0.1889763779527559,
              "time": 220.57655912500002,
              "ticks": 59644
            },
            {
              "number": 7,
              "value": 0.18110236220472442,
              "time": 220.665316375,
              "ticks": 59668
            },
            {
              "number": 7,
              "value": 0.1732283464566929,
              "time": 220.69490212500003,
              "ticks": 59676
            },
            {
              "number": 7,
              "value": 0.16535433070866143,
              "time": 220.73558253125003,
              "ticks": 59687
            },
            {
              "number": 7,
              "value": 0.15748031496062992,
              "time": 220.76516828125,
              "ticks": 59695
            },
            {
              "number": 7,
              "value": 0.14960629921259844,
              "time": 220.80584868750003,
              "ticks": 59706
            },
            {
              "number": 7,
              "value": 0.14173228346456693,
              "time": 220.83173621875002,
              "ticks": 59713
            },
            {
              "number": 7,
              "value": 0.13385826771653545,
              "time": 220.86132196875002,
              "ticks": 59721
            },
            {
              "number": 7,
              "value": 0.12598425196850394,
              "time": 220.95007921875003,
              "ticks": 59745
            },
            {
              "number": 7,
              "value": 0.11811023622047244,
              "time": 221.020345375,
              "ticks": 59764
            },
            {
              "number": 7,
              "value": 0.11023622047244094,
              "time": 221.0869133125,
              "ticks": 59782
            },
            {
              "number": 7,
              "value": 0.10236220472440945,
              "time": 221.12759371875003,
              "ticks": 59793
            },
            {
              "number": 7,
              "value": 0.09448818897637795,
              "time": 221.18306700000002,
              "ticks": 59808
            },
            {
              "number": 7,
              "value": 0.08661417322834646,
              "time": 221.30141000000003,
              "ticks": 59840
            },
            {
              "number": 7,
              "value": 0.07874015748031496,
              "time": 221.34948684375001,
              "ticks": 59853
            },
            {
              "number": 7,
              "value": 0.07086614173228346,
              "time": 221.37167615625003,
              "ticks": 59859
            },
            {
              "number": 7,
              "value": 0.06299212598425197,
              "time": 221.50481203125003,
              "ticks": 59895
            },
            {
              "number": 7,
              "value": 0.05511811023622047,
              "time": 221.51960490625,
              "ticks": 59899
            },
            {
              "number": 7,
              "value": 0.047244094488188976,
              "time": 221.53439778125005,
              "ticks": 59903
            },
            {
              "number": 7,
              "value": 0.03937007874015748,
              "time": 221.54919065625003,
              "ticks": 59907
            },
            {
              "number": 7,
              "value": 0.031496062992125984,
              "time": 221.5750781875,
              "ticks": 59914
            },
            {
              "number": 7,
              "value": 0.023622047244094488,
              "time": 221.60466393750002,
              "ticks": 59922
            },
            {
              "number": 7,
              "value": 0.015748031496062992,
              "time": 221.76368734375,
              "ticks": 59965
            },
            {
              "number": 7,
              "value": 0.007874015748031496,
              "time": 221.81916062500002,
              "ticks": 59980
            },
            {
              "number": 7,
              "value": 0,
              "time": 221.85984103125003,
              "ticks": 59991
            },
            {
              "number": 7,
              "value": 0.7795275590551181,
              "time": 223.53883234375002,
              "ticks": 60445
            }
          ],
          "10": [
            {
              "number": 10,
              "value": 0.47244094488188976,
              "time": 0,
              "ticks": 0
            }
          ],
          "64": [
            {
              "number": 64,
              "value": 0,
              "time": 224.84430356250002,
              "ticks": 60798
            }
          ]
        }
      },
      {
        "name": "Chorale             ",
        "channel": 0,
        "instrument": {
          "number": 52,
          "name": "choir aahs",
          "family": "ensemble"
        },
        "notes": [
          {
            "time": 52.59606706250001,
            "midi": 64,
            "name": "E4",
            "velocity": 1,
            "duration": 2.744078312499994,
            "ticks": 14222,
            "durationTicks": 742
          },
          {
            "time": 52.59976528125001,
            "midi": 57,
            "name": "A3",
            "velocity": 1,
            "duration": 1.4053231250000024,
            "ticks": 14223,
            "durationTicks": 380
          },
          {
            "time": 54.01988128125001,
            "midi": 56,
            "name": "G#3",
            "velocity": 1,
            "duration": 1.3202640937499979,
            "ticks": 14607,
            "durationTicks": 357
          },
          {
            "time": 55.354938250000004,
            "midi": 61,
            "name": "C#4",
            "velocity": 1,
            "duration": 2.925291031250005,
            "ticks": 14968,
            "durationTicks": 791
          },
          {
            "time": 55.354938250000004,
            "midi": 66,
            "name": "F#4",
            "velocity": 1,
            "duration": 2.0377185312500004,
            "ticks": 14968,
            "durationTicks": 551
          },
          {
            "time": 58.295022156250006,
            "midi": 64,
            "name": "E4",
            "velocity": 1,
            "duration": 2.740380093749998,
            "ticks": 15763,
            "durationTicks": 741
          },
          {
            "time": 58.295022156250006,
            "midi": 57,
            "name": "A3",
            "velocity": 1,
            "duration": 1.4090213437499983,
            "ticks": 15763,
            "durationTicks": 381
          },
          {
            "time": 59.71883637500001,
            "midi": 56,
            "name": "G#3",
            "velocity": 1,
            "duration": 1.316565874999995,
            "ticks": 16148,
            "durationTicks": 356
          },
          {
            "time": 61.053893343750005,
            "midi": 61,
            "name": "C#4",
            "velocity": 1,
            "duration": 2.921592812500002,
            "ticks": 16509,
            "durationTicks": 790
          },
          {
            "time": 61.053893343750005,
            "midi": 66,
            "name": "F#4",
            "velocity": 1,
            "duration": 2.0340203124999974,
            "ticks": 16509,
            "durationTicks": 550
          },
          {
            "time": 63.99397725000001,
            "midi": 64,
            "name": "E4",
            "velocity": 1,
            "duration": 2.8180426875000038,
            "ticks": 17304,
            "durationTicks": 762
          },
          {
            "time": 63.99397725000001,
            "midi": 61,
            "name": "C#4",
            "velocity": 1,
            "duration": 2.8143444687500008,
            "ticks": 17304,
            "durationTicks": 761
          },
          {
            "time": 66.8416056875,
            "midi": 66,
            "name": "F#4",
            "velocity": 1,
            "duration": 2.818042687500011,
            "ticks": 18074,
            "durationTicks": 762
          },
          {
            "time": 69.69293234375002,
            "midi": 64,
            "name": "E4",
            "velocity": 1,
            "duration": 5.680464000000001,
            "ticks": 18845,
            "durationTicks": 1536
          },
          {
            "time": 69.6966305625,
            "midi": 71,
            "name": "B4",
            "velocity": 1,
            "duration": 5.676765781250012,
            "ticks": 18846,
            "durationTicks": 1535
          },
          {
            "time": 92.48135628125,
            "midi": 64,
            "name": "E4",
            "velocity": 1,
            "duration": 2.744078312500008,
            "ticks": 25007,
            "durationTicks": 742
          },
          {
            "time": 92.4850545,
            "midi": 57,
            "name": "A3",
            "velocity": 1,
            "duration": 1.4053231249999953,
            "ticks": 25008,
            "durationTicks": 380
          },
          {
            "time": 93.90886871875001,
            "midi": 56,
            "name": "G#3",
            "velocity": 1,
            "duration": 1.316565874999995,
            "ticks": 25393,
            "durationTicks": 356
          },
          {
            "time": 95.24022746875002,
            "midi": 61,
            "name": "C#4",
            "velocity": 1,
            "duration": 2.9252910312499836,
            "ticks": 25753,
            "durationTicks": 791
          },
          {
            "time": 95.24022746875002,
            "midi": 66,
            "name": "F#4",
            "velocity": 1,
            "duration": 2.034020312499976,
            "ticks": 25753,
            "durationTicks": 550
          },
          {
            "time": 98.18031137500002,
            "midi": 64,
            "name": "E4",
            "velocity": 1,
            "duration": 2.740380093750005,
            "ticks": 26548,
            "durationTicks": 741
          },
          {
            "time": 98.18031137500002,
            "midi": 57,
            "name": "A3",
            "velocity": 1,
            "duration": 1.4090213437499983,
            "ticks": 26548,
            "durationTicks": 381
          },
          {
            "time": 99.60412559375,
            "midi": 56,
            "name": "G#3",
            "velocity": 1,
            "duration": 1.3165658750000233,
            "ticks": 26933,
            "durationTicks": 356
          },
          {
            "time": 100.93918256250001,
            "midi": 61,
            "name": "C#4",
            "velocity": 1,
            "duration": 2.921592812500009,
            "ticks": 27294,
            "durationTicks": 790
          },
          {
            "time": 100.93918256250001,
            "midi": 66,
            "name": "F#4",
            "velocity": 1,
            "duration": 2.0340203125000045,
            "ticks": 27294,
            "durationTicks": 550
          },
          {
            "time": 103.87926646875002,
            "midi": 64,
            "name": "E4",
            "velocity": 1,
            "duration": 2.8180426874999966,
            "ticks": 28089,
            "durationTicks": 762
          },
          {
            "time": 103.87926646875002,
            "midi": 61,
            "name": "C#4",
            "velocity": 1,
            "duration": 2.8180426874999966,
            "ticks": 28089,
            "durationTicks": 762
          },
          {
            "time": 106.72689490625001,
            "midi": 66,
            "name": "F#4",
            "velocity": 1,
            "duration": 2.8180426874999966,
            "ticks": 28859,
            "durationTicks": 762
          },
          {
            "time": 109.5782215625,
            "midi": 64,
            "name": "E4",
            "velocity": 1,
            "duration": 5.680464000000001,
            "ticks": 29630,
            "durationTicks": 1536
          },
          {
            "time": 109.58191978125001,
            "midi": 71,
            "name": "B4",
            "velocity": 1,
            "duration": 5.676765781249998,
            "ticks": 29631,
            "durationTicks": 1535
          },
          {
            "time": 172.25193471875002,
            "midi": 64,
            "name": "E4",
            "velocity": 1,
            "duration": 2.747776531249997,
            "ticks": 46577,
            "durationTicks": 743
          },
          {
            "time": 172.25563293750002,
            "midi": 57,
            "name": "A3",
            "velocity": 1,
            "duration": 1.4090213437499983,
            "ticks": 46578,
            "durationTicks": 381
          },
          {
            "time": 173.683145375,
            "midi": 56,
            "name": "G#3",
            "velocity": 1,
            "duration": 1.316565875000009,
            "ticks": 46964,
            "durationTicks": 356
          },
          {
            "time": 175.01820234375003,
            "midi": 61,
            "name": "C#4",
            "velocity": 1,
            "duration": 2.921592812499995,
            "ticks": 47325,
            "durationTicks": 790
          },
          {
            "time": 175.01820234375003,
            "midi": 66,
            "name": "F#4",
            "velocity": 1,
            "duration": 2.0266238749999843,
            "ticks": 47325,
            "durationTicks": 548
          },
          {
            "time": 177.95458803125,
            "midi": 64,
            "name": "E4",
            "velocity": 1,
            "duration": 2.7440783125000223,
            "ticks": 48119,
            "durationTicks": 742
          },
          {
            "time": 177.95828625000001,
            "midi": 57,
            "name": "A3",
            "velocity": 1,
            "duration": 1.4053231249999953,
            "ticks": 48120,
            "durationTicks": 380
          },
          {
            "time": 179.38210046875002,
            "midi": 56,
            "name": "G#3",
            "velocity": 1,
            "duration": 1.316565875000009,
            "ticks": 48505,
            "durationTicks": 356
          },
          {
            "time": 180.71345921875002,
            "midi": 61,
            "name": "C#4",
            "velocity": 1,
            "duration": 2.925291031249998,
            "ticks": 48865,
            "durationTicks": 791
          },
          {
            "time": 180.71345921875002,
            "midi": 66,
            "name": "F#4",
            "velocity": 1,
            "duration": 2.0303220937499873,
            "ticks": 48865,
            "durationTicks": 549
          },
          {
            "time": 183.653543125,
            "midi": 64,
            "name": "E4",
            "velocity": 1,
            "duration": 2.8180426874999966,
            "ticks": 49660,
            "durationTicks": 762
          },
          {
            "time": 183.653543125,
            "midi": 61,
            "name": "C#4",
            "velocity": 1,
            "duration": 2.8180426874999966,
            "ticks": 49660,
            "durationTicks": 762
          },
          {
            "time": 186.50117156250002,
            "midi": 66,
            "name": "F#4",
            "velocity": 1,
            "duration": 2.8180426874999966,
            "ticks": 50430,
            "durationTicks": 762
          },
          {
            "time": 189.35249821875001,
            "midi": 64,
            "name": "E4",
            "velocity": 1,
            "duration": 5.680464000000001,
            "ticks": 51201,
            "durationTicks": 1536
          },
          {
            "time": 189.35619643750002,
            "midi": 71,
            "name": "B4",
            "velocity": 1,
            "duration": 5.676765781249998,
            "ticks": 51202,
            "durationTicks": 1535
          },
          {
            "time": 195.05145331250003,
            "midi": 57,
            "name": "A3",
            "velocity": 1,
            "duration": 1.405323124999967,
            "ticks": 52742,
            "durationTicks": 380
          },
          {
            "time": 195.05145331250003,
            "midi": 64,
            "name": "E4",
            "velocity": 1,
            "duration": 2.7403800937500193,
            "ticks": 52742,
            "durationTicks": 741
          },
          {
            "time": 196.47526753125,
            "midi": 56,
            "name": "G#3",
            "velocity": 1,
            "duration": 1.3165658750000375,
            "ticks": 53127,
            "durationTicks": 356
          },
          {
            "time": 197.80662628125003,
            "midi": 61,
            "name": "C#4",
            "velocity": 1,
            "duration": 2.925291031249998,
            "ticks": 53487,
            "durationTicks": 791
          },
          {
            "time": 197.80662628125003,
            "midi": 66,
            "name": "F#4",
            "velocity": 1,
            "duration": 2.0303220937499873,
            "ticks": 53487,
            "durationTicks": 549
          },
          {
            "time": 200.7467101875,
            "midi": 64,
            "name": "E4",
            "velocity": 1,
            "duration": 2.8180426874999966,
            "ticks": 54282,
            "durationTicks": 762
          },
          {
            "time": 200.75040840625002,
            "midi": 61,
            "name": "C#4",
            "velocity": 1,
            "duration": 2.8143444687499937,
            "ticks": 54283,
            "durationTicks": 761
          },
          {
            "time": 203.59803684375,
            "midi": 66,
            "name": "F#4",
            "velocity": 1,
            "duration": 2.814344468750022,
            "ticks": 55053,
            "durationTicks": 761
          },
          {
            "time": 206.44566528125003,
            "midi": 64,
            "name": "E4",
            "velocity": 1,
            "duration": 5.680464000000001,
            "ticks": 55823,
            "durationTicks": 1536
          },
          {
            "time": 206.44566528125003,
            "midi": 71,
            "name": "B4",
            "velocity": 1,
            "duration": 5.680464000000001,
            "ticks": 55823,
            "durationTicks": 1536
          },
          {
            "time": 212.14462037500002,
            "midi": 64,
            "name": "E4",
            "velocity": 1,
            "duration": 2.740380093749991,
            "ticks": 57364,
            "durationTicks": 741
          },
          {
            "time": 212.14462037500002,
            "midi": 57,
            "name": "A3",
            "velocity": 1,
            "duration": 1.4053231249999953,
            "ticks": 57364,
            "durationTicks": 380
          },
          {
            "time": 213.56843459375003,
            "midi": 56,
            "name": "G#3",
            "velocity": 1,
            "duration": 1.3165658749999807,
            "ticks": 57749,
            "durationTicks": 356
          },
          {
            "time": 214.89979334375005,
            "midi": 66,
            "name": "F#4",
            "velocity": 1,
            "duration": 2.034020312499962,
            "ticks": 58109,
            "durationTicks": 550
          },
          {
            "time": 214.89979334375005,
            "midi": 61,
            "name": "C#4",
            "velocity": 1,
            "duration": 2.9252910312499694,
            "ticks": 58109,
            "durationTicks": 791
          },
          {
            "time": 217.84357546875003,
            "midi": 64,
            "name": "E4",
            "velocity": 1,
            "duration": 2.8143444687499937,
            "ticks": 58905,
            "durationTicks": 761
          },
          {
            "time": 217.84357546875003,
            "midi": 61,
            "name": "C#4",
            "velocity": 1,
            "duration": 2.8143444687499937,
            "ticks": 58905,
            "durationTicks": 761
          },
          {
            "time": 220.69120390625002,
            "midi": 66,
            "name": "F#4",
            "velocity": 1,
            "duration": 2.818042687500025,
            "ticks": 59675,
            "durationTicks": 762
          }
        ],
        "controlChanges": {
          "7": [
            {
              "number": 7,
              "value": 0.7480314960629921,
              "time": 0,
              "ticks": 0
            },
            {
              "number": 7,
              "value": 0.984251968503937,
              "time": 208.1061655,
              "ticks": 56272
            },
            {
              "number": 7,
              "value": 0.9763779527559056,
              "time": 208.73856090625,
              "ticks": 56443
            },
            {
              "number": 7,
              "value": 0.968503937007874,
              "time": 208.993738,
              "ticks": 56512
            },
            {
              "number": 7,
              "value": 0.9606299212598425,
              "time": 209.30808659375003,
              "ticks": 56597
            },
            {
              "number": 7,
              "value": 0.952755905511811,
              "time": 209.62983162500004,
              "ticks": 56684
            },
            {
              "number": 7,
              "value": 0.9448818897637795,
              "time": 209.85542296875002,
              "ticks": 56745
            },
            {
              "number": 7,
              "value": 0.937007874015748,
              "time": 209.97746418750003,
              "ticks": 56778
            },
            {
              "number": 7,
              "value": 0.9291338582677166,
              "time": 210.25113237500003,
              "ticks": 56852
            },
            {
              "number": 7,
              "value": 0.9212598425196851,
              "time": 210.546989875,
              "ticks": 56932
            },
            {
              "number": 7,
              "value": 0.9133858267716536,
              "time": 210.65423821875,
              "ticks": 56961
            },
            {
              "number": 7,
              "value": 0.905511811023622,
              "time": 210.93530284375,
              "ticks": 57037
            },
            {
              "number": 7,
              "value": 0.8976377952755905,
              "time": 211.05364584375002,
              "ticks": 57069
            },
            {
              "number": 7,
              "value": 0.889763779527559,
              "time": 211.26444431250002,
              "ticks": 57126
            },
            {
              "number": 7,
              "value": 0.8818897637795275,
              "time": 211.38648553125003,
              "ticks": 57159
            },
            {
              "number": 7,
              "value": 0.8740157480314961,
              "time": 211.46414812500004,
              "ticks": 57180
            },
            {
              "number": 7,
              "value": 0.8661417322834646,
              "time": 211.73041987500002,
              "ticks": 57252
            },
            {
              "number": 7,
              "value": 0.8582677165354331,
              "time": 211.90053793750002,
              "ticks": 57298
            },
            {
              "number": 7,
              "value": 0.8503937007874016,
              "time": 212.01148450000002,
              "ticks": 57328
            },
            {
              "number": 7,
              "value": 0.7322834645669292,
              "time": 213.95674756250003,
              "ticks": 57854
            },
            {
              "number": 7,
              "value": 0.7244094488188977,
              "time": 214.07878878125004,
              "ticks": 57887
            },
            {
              "number": 7,
              "value": 0.7165354330708661,
              "time": 214.186037125,
              "ticks": 57916
            },
            {
              "number": 7,
              "value": 0.7086614173228346,
              "time": 214.42642134375004,
              "ticks": 57981
            },
            {
              "number": 7,
              "value": 0.7007874015748031,
              "time": 214.60023762500003,
              "ticks": 58028
            },
            {
              "number": 7,
              "value": 0.6929133858267716,
              "time": 214.74446815625004,
              "ticks": 58067
            },
            {
              "number": 7,
              "value": 0.6850393700787402,
              "time": 214.81103609375003,
              "ticks": 58085
            },
            {
              "number": 7,
              "value": 0.6771653543307087,
              "time": 214.98855059375003,
              "ticks": 58133
            },
            {
              "number": 7,
              "value": 0.6692913385826772,
              "time": 215.03662743750002,
              "ticks": 58146
            },
            {
              "number": 7,
              "value": 0.6614173228346457,
              "time": 215.09210071875003,
              "ticks": 58161
            },
            {
              "number": 7,
              "value": 0.6535433070866141,
              "time": 215.12168646875003,
              "ticks": 58169
            },
            {
              "number": 7,
              "value": 0.6456692913385826,
              "time": 215.20304728125004,
              "ticks": 58191
            },
            {
              "number": 7,
              "value": 0.6377952755905512,
              "time": 215.38795821875004,
              "ticks": 58241
            },
            {
              "number": 7,
              "value": 0.6299212598425197,
              "time": 215.49520656250002,
              "ticks": 58270
            },
            {
              "number": 7,
              "value": 0.6220472440944882,
              "time": 215.58766203125003,
              "ticks": 58295
            },
            {
              "number": 7,
              "value": 0.6141732283464567,
              "time": 215.75038365625002,
              "ticks": 58339
            },
            {
              "number": 7,
              "value": 0.6062992125984252,
              "time": 215.85393378125005,
              "ticks": 58367
            },
            {
              "number": 7,
              "value": 0.5984251968503937,
              "time": 215.90940706250004,
              "ticks": 58382
            },
            {
              "number": 7,
              "value": 0.5905511811023622,
              "time": 216.04624115625003,
              "ticks": 58419
            },
            {
              "number": 7,
              "value": 0.5826771653543307,
              "time": 216.13499840625002,
              "ticks": 58443
            },
            {
              "number": 7,
              "value": 0.5748031496062992,
              "time": 216.19047168750004,
              "ticks": 58458
            },
            {
              "number": 7,
              "value": 0.5669291338582677,
              "time": 216.24594496875002,
              "ticks": 58473
            },
            {
              "number": 7,
              "value": 0.5590551181102362,
              "time": 216.32730578125,
              "ticks": 58495
            },
            {
              "number": 7,
              "value": 0.5511811023622047,
              "time": 216.404968375,
              "ticks": 58516
            },
            {
              "number": 7,
              "value": 0.5433070866141733,
              "time": 216.5159149375,
              "ticks": 58546
            },
            {
              "number": 7,
              "value": 0.5354330708661418,
              "time": 216.55659534375002,
              "ticks": 58557
            },
            {
              "number": 7,
              "value": 0.5275590551181102,
              "time": 216.59727575000005,
              "ticks": 58568
            },
            {
              "number": 7,
              "value": 0.5196850393700787,
              "time": 216.61206862500003,
              "ticks": 58572
            },
            {
              "number": 7,
              "value": 0.5118110236220472,
              "time": 216.65274903125004,
              "ticks": 58583
            },
            {
              "number": 7,
              "value": 0.5039370078740157,
              "time": 216.75629915625004,
              "ticks": 58611
            },
            {
              "number": 7,
              "value": 0.49606299212598426,
              "time": 216.81177243750003,
              "ticks": 58626
            },
            {
              "number": 7,
              "value": 0.4881889763779528,
              "time": 216.98928693750003,
              "ticks": 58674
            },
            {
              "number": 7,
              "value": 0.48031496062992124,
              "time": 217.22227471875001,
              "ticks": 58737
            },
            {
              "number": 7,
              "value": 0.47244094488188976,
              "time": 217.30363553125002,
              "ticks": 58759
            },
            {
              "number": 7,
              "value": 0.4645669291338583,
              "time": 217.42937496875004,
              "ticks": 58793
            },
            {
              "number": 7,
              "value": 0.4566929133858268,
              "time": 217.54401975000002,
              "ticks": 58824
            },
            {
              "number": 7,
              "value": 0.44881889763779526,
              "time": 217.70674137500004,
              "ticks": 58868
            },
            {
              "number": 7,
              "value": 0.4409448818897638,
              "time": 217.84357546875003,
              "ticks": 58905
            },
            {
              "number": 7,
              "value": 0.4330708661417323,
              "time": 217.94712559375,
              "ticks": 58933
            },
            {
              "number": 7,
              "value": 0.4251968503937008,
              "time": 218.00259887500002,
              "ticks": 58948
            },
            {
              "number": 7,
              "value": 0.41732283464566927,
              "time": 218.08026146875002,
              "ticks": 58969
            },
            {
              "number": 7,
              "value": 0.4094488188976378,
              "time": 218.29105993750002,
              "ticks": 59026
            },
            {
              "number": 7,
              "value": 0.4015748031496063,
              "time": 218.39830828125002,
              "ticks": 59055
            },
            {
              "number": 7,
              "value": 0.3937007874015748,
              "time": 218.49816018750002,
              "ticks": 59082
            },
            {
              "number": 7,
              "value": 0.3858267716535433,
              "time": 218.53144415625002,
              "ticks": 59091
            },
            {
              "number": 7,
              "value": 0.3779527559055118,
              "time": 218.60171031250002,
              "ticks": 59110
            },
            {
              "number": 7,
              "value": 0.3700787401574803,
              "time": 218.76443193750004,
              "ticks": 59154
            },
            {
              "number": 7,
              "value": 0.36220472440944884,
              "time": 218.82730165625003,
              "ticks": 59171
            },
            {
              "number": 7,
              "value": 0.3543307086614173,
              "time": 218.9123606875,
              "ticks": 59194
            },
            {
              "number": 7,
              "value": 0.3464566929133858,
              "time": 218.978928625,
              "ticks": 59212
            },
            {
              "number": 7,
              "value": 0.33858267716535434,
              "time": 219.03070368750002,
              "ticks": 59226
            },
            {
              "number": 7,
              "value": 0.33070866141732286,
              "time": 219.18233065625003,
              "ticks": 59267
            },
            {
              "number": 7,
              "value": 0.3228346456692913,
              "time": 219.21931284375003,
              "ticks": 59277
            },
            {
              "number": 7,
              "value": 0.31496062992125984,
              "time": 219.25999325000004,
              "ticks": 59288
            },
            {
              "number": 7,
              "value": 0.30708661417322836,
              "time": 219.35244871875003,
              "ticks": 59313
            },
            {
              "number": 7,
              "value": 0.2992125984251969,
              "time": 219.41162021875002,
              "ticks": 59329
            },
            {
              "number": 7,
              "value": 0.29133858267716534,
              "time": 219.45230062500002,
              "ticks": 59340
            },
            {
              "number": 7,
              "value": 0.28346456692913385,
              "time": 219.51517034375004,
              "ticks": 59357
            },
            {
              "number": 7,
              "value": 0.2755905511811024,
              "time": 219.68528840625004,
              "ticks": 59403
            },
            {
              "number": 7,
              "value": 0.2677165354330709,
              "time": 219.7555545625,
              "ticks": 59422
            },
            {
              "number": 7,
              "value": 0.25984251968503935,
              "time": 219.85170825000003,
              "ticks": 59448
            },
            {
              "number": 7,
              "value": 0.25196850393700787,
              "time": 219.94416371875002,
              "ticks": 59473
            },
            {
              "number": 7,
              "value": 0.2440944881889764,
              "time": 220.03661918750004,
              "ticks": 59498
            },
            {
              "number": 7,
              "value": 0.23622047244094488,
              "time": 220.14386753125,
              "ticks": 59527
            },
            {
              "number": 7,
              "value": 0.2283464566929134,
              "time": 220.24741765625004,
              "ticks": 59555
            },
            {
              "number": 7,
              "value": 0.2204724409448819,
              "time": 220.29549450000002,
              "ticks": 59568
            },
            {
              "number": 7,
              "value": 0.2125984251968504,
              "time": 220.42493215625004,
              "ticks": 59603
            },
            {
              "number": 7,
              "value": 0.2047244094488189,
              "time": 220.49519831250004,
              "ticks": 59622
            },
            {
              "number": 7,
              "value": 0.1968503937007874,
              "time": 220.55067159375002,
              "ticks": 59637
            },
            {
              "number": 7,
              "value": 0.1889763779527559,
              "time": 220.57286090625,
              "ticks": 59643
            },
            {
              "number": 7,
              "value": 0.18110236220472442,
              "time": 220.665316375,
              "ticks": 59668
            },
            {
              "number": 7,
              "value": 0.1732283464566929,
              "time": 220.69120390625002,
              "ticks": 59675
            },
            {
              "number": 7,
              "value": 0.16535433070866143,
              "time": 220.73558253125003,
              "ticks": 59687
            },
            {
              "number": 7,
              "value": 0.15748031496062992,
              "time": 220.76516828125,
              "ticks": 59695
            },
            {
              "number": 7,
              "value": 0.14960629921259844,
              "time": 220.80584868750003,
              "ticks": 59706
            },
            {
              "number": 7,
              "value": 0.14173228346456693,
              "time": 220.83173621875002,
              "ticks": 59713
            },
            {
              "number": 7,
              "value": 0.13385826771653545,
              "time": 220.86132196875002,
              "ticks": 59721
            },
            {
              "number": 7,
              "value": 0.12598425196850394,
              "time": 220.95007921875003,
              "ticks": 59745
            },
            {
              "number": 7,
              "value": 0.11811023622047244,
              "time": 221.020345375,
              "ticks": 59764
            },
            {
              "number": 7,
              "value": 0.11023622047244094,
              "time": 221.0869133125,
              "ticks": 59782
            },
            {
              "number": 7,
              "value": 0.10236220472440945,
              "time": 221.12759371875003,
              "ticks": 59793
            },
            {
              "number": 7,
              "value": 0.09448818897637795,
              "time": 221.18306700000002,
              "ticks": 59808
            },
            {
              "number": 7,
              "value": 0.08661417322834646,
              "time": 221.30141000000003,
              "ticks": 59840
            },
            {
              "number": 7,
              "value": 0.07874015748031496,
              "time": 221.34578862500004,
              "ticks": 59852
            },
            {
              "number": 7,
              "value": 0.07086614173228346,
              "time": 221.37167615625003,
              "ticks": 59859
            },
            {
              "number": 7,
              "value": 0.06299212598425197,
              "time": 221.50111381250005,
              "ticks": 59894
            },
            {
              "number": 7,
              "value": 0.05511811023622047,
              "time": 221.51590668750003,
              "ticks": 59898
            },
            {
              "number": 7,
              "value": 0.047244094488188976,
              "time": 221.53069956250002,
              "ticks": 59902
            },
            {
              "number": 7,
              "value": 0.03937007874015748,
              "time": 221.54919065625003,
              "ticks": 59907
            },
            {
              "number": 7,
              "value": 0.031496062992125984,
              "time": 221.57137996875002,
              "ticks": 59913
            },
            {
              "number": 7,
              "value": 0.023622047244094488,
              "time": 221.60096571875005,
              "ticks": 59921
            },
            {
              "number": 7,
              "value": 0.015748031496062992,
              "time": 221.75998912500003,
              "ticks": 59964
            },
            {
              "number": 7,
              "value": 0.007874015748031496,
              "time": 221.81916062500002,
              "ticks": 59980
            },
            {
              "number": 7,
              "value": 0,
              "time": 221.85984103125003,
              "ticks": 59991
            },
            {
              "number": 7,
              "value": 0.7322834645669292,
              "time": 223.53883234375002,
              "ticks": 60445
            }
          ],
          "10": [
            {
              "number": 10,
              "value": 0.31496062992125984,
              "time": 0,
              "ticks": 0
            }
          ],
          "64": [
            {
              "number": 64,
              "value": 0,
              "time": 224.85539821875003,
              "ticks": 60801
            }
          ]
        }
      },
      {
        "name": "Percussion          ",
        "channel": 0,
        "instrument": {
          "number": 0,
          "name": "acoustic grand piano",
          "family": "piano"
        },
        "notes": [
          {
            "time": 1.3128676562500001,
            "midi": 36,
            "name": "C2",
            "velocity": 1,
            "duration": 0.08875725000000001,
            "ticks": 355,
            "durationTicks": 24
          },
          {
            "time": 1.3128676562500001,
            "midi": 61,
            "name": "C#4",
            "velocity": 1,
            "duration": 0.08875725000000001,
            "ticks": 355,
            "durationTicks": 24
          },
          {
            "time": 1.3165658750000002,
            "midi": 42,
            "name": "F#2",
            "velocity": 1,
            "duration": 0.08875725000000001,
            "ticks": 356,
            "durationTicks": 24
          },
          {
            "time": 1.4903821562500004,
            "midi": 61,
            "name": "C#4",
            "velocity": 1,
            "duration": 0.0850590312499997,
            "ticks": 403,
            "durationTicks": 23
          },
          {
            "time": 1.4903821562500004,
            "midi": 42,
            "name": "F#2",
            "velocity": 1,
            "duration": 0.07396437499999986,
            "ticks": 403,
            "durationTicks": 20
          },
          {
            "time": 1.671594875,
            "midi": 38,
            "name": "D2",
            "velocity": 1,
            "duration": 0.08505903125000036,
            "ticks": 452,
            "durationTicks": 23
          },
          {
            "time": 1.671594875,
            "midi": 61,
            "name": "C#4",
            "velocity": 1,
            "duration": 0.08505903125000036,
            "ticks": 452,
            "durationTicks": 23
          },
          {
            "time": 1.671594875,
            "midi": 42,
            "name": "F#2",
            "velocity": 1,
            "duration": 0.07766259374999995,
            "ticks": 452,
            "durationTicks": 21
          },
          {
            "time": 1.8454111562500004,
            "midi": 61,
            "name": "C#4",
            "velocity": 1,
            "duration": 0.0850590312499997,
            "ticks": 499,
            "durationTicks": 23
          },
          {
            "time": 1.8454111562500004,
            "midi": 42,
            "name": "F#2",
            "velocity": 1,
            "duration": 0.0850590312499997,
            "ticks": 499,
            "durationTicks": 23
          },
          {
            "time": 2.0266238750000003,
            "midi": 36,
            "name": "C2",
            "velocity": 1,
            "duration": 0.08505903125000014,
            "ticks": 548,
            "durationTicks": 23
          },
          {
            "time": 2.0266238750000003,
            "midi": 61,
            "name": "C#4",
            "velocity": 1,
            "duration": 0.08505903125000014,
            "ticks": 548,
            "durationTicks": 23
          },
          {
            "time": 2.0266238750000003,
            "midi": 40,
            "name": "E2",
            "velocity": 1,
            "duration": 0.35502900000000004,
            "ticks": 548,
            "durationTicks": 96
          },
          {
            "time": 2.03032209375,
            "midi": 51,
            "name": "D#3",
            "velocity": 1,
            "duration": 0.3661236562500001,
            "ticks": 549,
            "durationTicks": 99
          },
          {
            "time": 2.03032209375,
            "midi": 42,
            "name": "F#2",
            "velocity": 1,
            "duration": 0.08136081250000027,
            "ticks": 549,
            "durationTicks": 22
          },
          {
            "time": 2.2004401562500004,
            "midi": 36,
            "name": "C2",
            "velocity": 1,
            "duration": 0.0850590312499997,
            "ticks": 595,
            "durationTicks": 23
          },
          {
            "time": 2.2004401562500004,
            "midi": 61,
            "name": "C#4",
            "velocity": 1,
            "duration": 0.0850590312499997,
            "ticks": 595,
            "durationTicks": 23
          },
          {
            "time": 2.2041383750000003,
            "midi": 42,
            "name": "F#2",
            "velocity": 1,
            "duration": 0.09245546874999988,
            "ticks": 596,
            "durationTicks": 25
          },
          {
            "time": 2.38535109375,
            "midi": 38,
            "name": "D2",
            "velocity": 1,
            "duration": 0.08136081250000027,
            "ticks": 645,
            "durationTicks": 22
          },
          {
            "time": 2.38535109375,
            "midi": 61,
            "name": "C#4",
            "velocity": 1,
            "duration": 0.08136081250000027,
            "ticks": 645,
            "durationTicks": 22
          },
          {
            "time": 2.38535109375,
            "midi": 42,
            "name": "F#2",
            "velocity": 1,
            "duration": 0.08875725000000001,
            "ticks": 645,
            "durationTicks": 24
          },
          {
            "time": 2.5591673750000004,
            "midi": 61,
            "name": "C#4",
            "velocity": 1,
            "duration": 0.08505903125000014,
            "ticks": 692,
            "durationTicks": 23
          },
          {
            "time": 2.5591673750000004,
            "midi": 42,
            "name": "F#2",
            "velocity": 1,
            "duration": 0.09245546874999988,
            "ticks": 692,
            "durationTicks": 25
          },
          {
            "time": 2.7403800937500002,
            "midi": 36,
            "name": "C2",
            "velocity": 1,
            "duration": 0.08505903125000014,
            "ticks": 741,
            "durationTicks": 23
          },
          {
            "time": 2.7403800937500002,
            "midi": 61,
            "name": "C#4",
            "velocity": 1,
            "duration": 0.08505903125000014,
            "ticks": 741,
            "durationTicks": 23
          },
          {
            "time": 2.7403800937500002,
            "midi": 42,
            "name": "F#2",
            "velocity": 1,
            "duration": 0.10355012499999994,
            "ticks": 741,
            "durationTicks": 28
          },
          {
            "time": 2.9141963750000004,
            "midi": 61,
            "name": "C#4",
            "velocity": 1,
            "duration": 0.0850590312499997,
            "ticks": 788,
            "durationTicks": 23
          },
          {
            "time": 2.9141963750000004,
            "midi": 42,
            "name": "F#2",
            "velocity": 1,
            "duration": 0.0850590312499997,
            "ticks": 788,
            "durationTicks": 23
          },
          {
            "time": 3.0954090937500003,
            "midi": 38,
            "name": "D2",
            "velocity": 1,
            "duration": 0.08505903125000014,
            "ticks": 837,
            "durationTicks": 23
          },
          {
            "time": 3.0954090937500003,
            "midi": 61,
            "name": "C#4",
            "velocity": 1,
            "duration": 0.08505903125000014,
            "ticks": 837,
            "durationTicks": 23
          },
          {
            "time": 3.0954090937500003,
            "midi": 42,
            "name": "F#2",
            "velocity": 1,
            "duration": 0.08505903125000014,
            "ticks": 837,
            "durationTicks": 23
          },
          {
            "time": 3.2692253750000004,
            "midi": 61,
            "name": "C#4",
            "velocity": 1,
            "duration": 0.0850590312499997,
            "ticks": 884,
            "durationTicks": 23
          },
          {
            "time": 3.2692253750000004,
            "midi": 42,
            "name": "F#2",
            "velocity": 1,
            "duration": 0.09245546874999988,
            "ticks": 884,
            "durationTicks": 25
          },
          {
            "time": 3.4504380937500003,
            "midi": 36,
            "name": "C2",
            "velocity": 1,
            "duration": 0.08505903125000014,
            "ticks": 933,
            "durationTicks": 23
          },
          {
            "time": 3.4504380937500003,
            "midi": 61,
            "name": "C#4",
            "velocity": 1,
            "duration": 0.08505903125000014,
            "ticks": 933,
            "durationTicks": 23
          },
          {
            "time": 3.4541363125,
            "midi": 51,
            "name": "D#3",
            "velocity": 1,
            "duration": 0.31804681250000044,
            "ticks": 934,
            "durationTicks": 86
          },
          {
            "time": 3.4541363125,
            "midi": 40,
            "name": "E2",
            "velocity": 1,
            "duration": 0.32174503124999987,
            "ticks": 934,
            "durationTicks": 87
          },
          {
            "time": 3.4541363125,
            "midi": 42,
            "name": "F#2",
            "velocity": 1,
            "duration": 0.08505903125000014,
            "ticks": 934,
            "durationTicks": 23
          },
          {
            "time": 3.6279525937500003,
            "midi": 36,
            "name": "C2",
            "velocity": 1,
            "duration": 0.08505903125000014,
            "ticks": 981,
            "durationTicks": 23
          },
          {
            "time": 3.6279525937500003,
            "midi": 61,
            "name": "C#4",
            "velocity": 1,
            "duration": 0.08505903125000014,
            "ticks": 981,
            "durationTicks": 23
          },
          {
            "time": 3.6279525937500003,
            "midi": 42,
            "name": "F#2",
            "velocity": 1,
            "duration": 0.08875725000000001,
            "ticks": 981,
            "durationTicks": 24
          },
          {
            "time": 3.8091653125000002,
            "midi": 38,
            "name": "D2",
            "velocity": 1,
            "duration": 0.08136081250000027,
            "ticks": 1030,
            "durationTicks": 22
          },
          {
            "time": 3.8091653125000002,
            "midi": 61,
            "name": "C#4",
            "velocity": 1,
            "duration": 0.08136081250000027,
            "ticks": 1030,
            "durationTicks": 22
          },
          {
            "time": 3.8091653125000002,
            "midi": 42,
            "name": "F#2",
            "velocity": 1,
            "duration": 0.08875725000000001,
            "ticks": 1030,
            "durationTicks": 24
          },
          {
            "time": 3.9829815937500004,
            "midi": 61,
            "name": "C#4",
            "velocity": 1,
            "duration": 0.08505903125000058,
            "ticks": 1077,
            "durationTicks": 23
          },
          {
            "time": 3.9829815937500004,
            "midi": 42,
            "name": "F#2",
            "velocity": 1,
            "duration": 0.09615368750000064,
            "ticks": 1077,
            "durationTicks": 26
          },
          {
            "time": 4.1641943125,
            "midi": 36,
            "name": "C2",
            "velocity": 1,
            "duration": 0.08505903125000014,
            "ticks": 1126,
            "durationTicks": 23
          },
          {
            "time": 4.1641943125,
            "midi": 61,
            "name": "C#4",
            "velocity": 1,
            "duration": 0.08505903125000014,
            "ticks": 1126,
            "durationTicks": 23
          },
          {
            "time": 4.1641943125,
            "midi": 42,
            "name": "F#2",
            "velocity": 1,
            "duration": 0.08875724999999957,
            "ticks": 1126,
            "durationTicks": 24
          },
          {
            "time": 4.338010593750001,
            "midi": 61,
            "name": "C#4",
            "velocity": 1,
            "duration": 0.08505903125000014,
            "ticks": 1173,
            "durationTicks": 23
          },
          {
            "time": 4.338010593750001,
            "midi": 42,
            "name": "F#2",
            "velocity": 1,
            "duration": 0.0961536875000002,
            "ticks": 1173,
            "durationTicks": 26
          },
          {
            "time": 4.5192233125,
            "midi": 38,
            "name": "D2",
            "velocity": 1,
            "duration": 0.08505903125000014,
            "ticks": 1222,
            "durationTicks": 23
          },
          {
            "time": 4.5192233125,
            "midi": 61,
            "name": "C#4",
            "velocity": 1,
            "duration": 0.08505903125000014,
            "ticks": 1222,
            "durationTicks": 23
          },
          {
            "time": 4.522921531250001,
            "midi": 42,
            "name": "F#2",
            "velocity": 1,
            "duration": 0.08136081249999982,
            "ticks": 1223,
            "durationTicks": 22
          },
          {
            "time": 4.693039593750001,
            "midi": 61,
            "name": "C#4",
            "velocity": 1,
            "duration": 0.08875724999999957,
            "ticks": 1269,
            "durationTicks": 24
          },
          {
            "time": 4.6967378125,
            "midi": 42,
            "name": "F#2",
            "velocity": 1,
            "duration": 0.08505903125000014,
            "ticks": 1270,
            "durationTicks": 23
          },
          {
            "time": 4.8742523125,
            "midi": 36,
            "name": "C2",
            "velocity": 1,
            "duration": 0.08505903125000014,
            "ticks": 1318,
            "durationTicks": 23
          },
          {
            "time": 4.877950531250001,
            "midi": 61,
            "name": "C#4",
            "velocity": 1,
            "duration": 0.08505903124999925,
            "ticks": 1319,
            "durationTicks": 23
          },
          {
            "time": 4.877950531250001,
            "midi": 40,
            "name": "E2",
            "velocity": 1,
            "duration": 0.35502900000000004,
            "ticks": 1319,
            "durationTicks": 96
          },
          {
            "time": 4.877950531250001,
            "midi": 51,
            "name": "D#3",
            "velocity": 1,
            "duration": 0.3698218749999995,
            "ticks": 1319,
            "durationTicks": 100
          },
          {
            "time": 4.877950531250001,
            "midi": 42,
            "name": "F#2",
            "velocity": 1,
            "duration": 0.08136081249999982,
            "ticks": 1319,
            "durationTicks": 22
          },
          {
            "time": 5.0517668125,
            "midi": 36,
            "name": "C2",
            "velocity": 1,
            "duration": 0.08505903125000014,
            "ticks": 1366,
            "durationTicks": 23
          },
          {
            "time": 5.0517668125,
            "midi": 61,
            "name": "C#4",
            "velocity": 1,
            "duration": 0.08505903125000014,
            "ticks": 1366,
            "durationTicks": 23
          },
          {
            "time": 5.0517668125,
            "midi": 42,
            "name": "F#2",
            "velocity": 1,
            "duration": 0.08505903125000014,
            "ticks": 1366,
            "durationTicks": 23
          },
          {
            "time": 5.232979531250001,
            "midi": 38,
            "name": "D2",
            "velocity": 1,
            "duration": 0.08505903124999925,
            "ticks": 1415,
            "durationTicks": 23
          },
          {
            "time": 5.232979531250001,
            "midi": 61,
            "name": "C#4",
            "velocity": 1,
            "duration": 0.08505903124999925,
            "ticks": 1415,
            "durationTicks": 23
          },
          {
            "time": 5.232979531250001,
            "midi": 42,
            "name": "F#2",
            "velocity": 1,
            "duration": 0.08505903124999925,
            "ticks": 1415,
            "durationTicks": 23
          },
          {
            "time": 5.4067958125,
            "midi": 61,
            "name": "C#4",
            "velocity": 1,
            "duration": 0.08505903125000014,
            "ticks": 1462,
            "durationTicks": 23
          },
          {
            "time": 5.4067958125,
            "midi": 42,
            "name": "F#2",
            "velocity": 1,
            "duration": 0.08505903125000014,
            "ticks": 1462,
            "durationTicks": 23
          },
          {
            "time": 5.588008531250001,
            "midi": 36,
            "name": "C2",
            "velocity": 1,
            "duration": 0.08505903124999925,
            "ticks": 1511,
            "durationTicks": 23
          },
          {
            "time": 5.588008531250001,
            "midi": 61,
            "name": "C#4",
            "velocity": 1,
            "duration": 0.08505903124999925,
            "ticks": 1511,
            "durationTicks": 23
          },
          {
            "time": 5.588008531250001,
            "midi": 42,
            "name": "F#2",
            "velocity": 1,
            "duration": 0.06656793750000034,
            "ticks": 1511,
            "durationTicks": 18
          },
          {
            "time": 5.761824812500001,
            "midi": 61,
            "name": "C#4",
            "velocity": 1,
            "duration": 0.08505903124999925,
            "ticks": 1558,
            "durationTicks": 23
          },
          {
            "time": 5.76552303125,
            "midi": 42,
            "name": "F#2",
            "velocity": 1,
            "duration": 0.06286971875000091,
            "ticks": 1559,
            "durationTicks": 17
          },
          {
            "time": 5.94303753125,
            "midi": 38,
            "name": "D2",
            "velocity": 1,
            "duration": 0.08505903125000103,
            "ticks": 1607,
            "durationTicks": 23
          },
          {
            "time": 5.94303753125,
            "midi": 61,
            "name": "C#4",
            "velocity": 1,
            "duration": 0.08505903125000103,
            "ticks": 1607,
            "durationTicks": 23
          },
          {
            "time": 5.94673575,
            "midi": 42,
            "name": "F#2",
            "velocity": 1,
            "duration": 0.07396437500000008,
            "ticks": 1608,
            "durationTicks": 20
          },
          {
            "time": 6.12055203125,
            "midi": 61,
            "name": "C#4",
            "velocity": 1,
            "duration": 0.08505903125000103,
            "ticks": 1655,
            "durationTicks": 23
          },
          {
            "time": 6.12055203125,
            "midi": 42,
            "name": "F#2",
            "velocity": 1,
            "duration": 0.055473281250000284,
            "ticks": 1655,
            "durationTicks": 15
          },
          {
            "time": 6.30176475,
            "midi": 36,
            "name": "C2",
            "velocity": 1,
            "duration": 0.08505903125000014,
            "ticks": 1704,
            "durationTicks": 23
          },
          {
            "time": 6.30176475,
            "midi": 61,
            "name": "C#4",
            "velocity": 1,
            "duration": 0.08505903125000014,
            "ticks": 1704,
            "durationTicks": 23
          },
          {
            "time": 6.30176475,
            "midi": 51,
            "name": "D#3",
            "velocity": 1,
            "duration": 0.31804681250000044,
            "ticks": 1704,
            "durationTicks": 86
          },
          {
            "time": 6.30176475,
            "midi": 40,
            "name": "E2",
            "velocity": 1,
            "duration": 0.32544325000000107,
            "ticks": 1704,
            "durationTicks": 88
          },
          {
            "time": 6.30176475,
            "midi": 42,
            "name": "F#2",
            "velocity": 1,
            "duration": 0.07396437500000008,
            "ticks": 1704,
            "durationTicks": 20
          },
          {
            "time": 6.47558103125,
            "midi": 36,
            "name": "C2",
            "velocity": 1,
            "duration": 0.08505903125000103,
            "ticks": 1751,
            "durationTicks": 23
          },
          {
            "time": 6.47558103125,
            "midi": 61,
            "name": "C#4",
            "velocity": 1,
            "duration": 0.08505903125000103,
            "ticks": 1751,
            "durationTicks": 23
          },
          {
            "time": 6.47558103125,
            "midi": 42,
            "name": "F#2",
            "velocity": 1,
            "duration": 0.08505903125000103,
            "ticks": 1751,
            "durationTicks": 23
          },
          {
            "time": 6.65679375,
            "midi": 38,
            "name": "D2",
            "velocity": 1,
            "duration": 0.08505903125000014,
            "ticks": 1800,
            "durationTicks": 23
          },
          {
            "time": 6.65679375,
            "midi": 61,
            "name": "C#4",
            "velocity": 1,
            "duration": 0.08505903125000014,
            "ticks": 1800,
            "durationTicks": 23
          },
          {
            "time": 6.65679375,
            "midi": 42,
            "name": "F#2",
            "velocity": 1,
            "duration": 0.08505903125000014,
            "ticks": 1800,
            "durationTicks": 23
          },
          {
            "time": 6.83061003125,
            "midi": 61,
            "name": "C#4",
            "velocity": 1,
            "duration": 0.08505903125000103,
            "ticks": 1847,
            "durationTicks": 23
          },
          {
            "time": 6.83061003125,
            "midi": 42,
            "name": "F#2",
            "velocity": 1,
            "duration": 0.09245546875000077,
            "ticks": 1847,
            "durationTicks": 25
          },
          {
            "time": 7.01182275,
            "midi": 36,
            "name": "C2",
            "velocity": 1,
            "duration": 0.08505903125000014,
            "ticks": 1896,
            "durationTicks": 23
          },
          {
            "time": 7.01182275,
            "midi": 61,
            "name": "C#4",
            "velocity": 1,
            "duration": 0.08505903125000014,
            "ticks": 1896,
            "durationTicks": 23
          },
          {
            "time": 7.0155209687500015,
            "midi": 42,
            "name": "F#2",
            "velocity": 1,
            "duration": 0.08875724999999957,
            "ticks": 1897,
            "durationTicks": 24
          },
          {
            "time": 7.189337250000001,
            "midi": 61,
            "name": "C#4",
            "velocity": 1,
            "duration": 0.08505903124999925,
            "ticks": 1944,
            "durationTicks": 23
          },
          {
            "time": 7.189337250000001,
            "midi": 42,
            "name": "F#2",
            "velocity": 1,
            "duration": 0.0739643749999992,
            "ticks": 1944,
            "durationTicks": 20
          },
          {
            "time": 7.36685175,
            "midi": 38,
            "name": "D2",
            "velocity": 1,
            "duration": 0.08505903125000014,
            "ticks": 1992,
            "durationTicks": 23
          },
          {
            "time": 7.36685175,
            "midi": 61,
            "name": "C#4",
            "velocity": 1,
            "duration": 0.08505903125000014,
            "ticks": 1992,
            "durationTicks": 23
          },
          {
            "time": 7.370549968750002,
            "midi": 42,
            "name": "F#2",
            "velocity": 1,
            "duration": 0.07766259374999951,
            "ticks": 1993,
            "durationTicks": 21
          },
          {
            "time": 7.544366250000001,
            "midi": 61,
            "name": "C#4",
            "velocity": 1,
            "duration": 0.08505903124999925,
            "ticks": 2040,
            "durationTicks": 23
          },
          {
            "time": 7.544366250000001,
            "midi": 42,
            "name": "F#2",
            "velocity": 1,
            "duration": 0.08505903124999925,
            "ticks": 2040,
            "durationTicks": 23
          },
          {
            "time": 7.725578968750002,
            "midi": 36,
            "name": "C2",
            "velocity": 1,
            "duration": 0.08505903124999925,
            "ticks": 2089,
            "durationTicks": 23
          },
          {
            "time": 7.725578968750002,
            "midi": 61,
            "name": "C#4",
            "velocity": 1,
            "duration": 0.08505903124999925,
            "ticks": 2089,
            "durationTicks": 23
          },
          {
            "time": 7.725578968750002,
            "midi": 40,
            "name": "E2",
            "velocity": 1,
            "duration": 0.35502900000000004,
            "ticks": 2089,
            "durationTicks": 96
          },
          {
            "time": 7.725578968750002,
            "midi": 51,
            "name": "D#3",
            "velocity": 1,
            "duration": 0.3698218749999995,
            "ticks": 2089,
            "durationTicks": 100
          },
          {
            "time": 7.7292771875,
            "midi": 42,
            "name": "F#2",
            "velocity": 1,
            "duration": 0.08136081250000071,
            "ticks": 2090,
            "durationTicks": 22
          },
          {
            "time": 7.899395250000001,
            "midi": 36,
            "name": "C2",
            "velocity": 1,
            "duration": 0.08505903124999925,
            "ticks": 2136,
            "durationTicks": 23
          },
          {
            "time": 7.899395250000001,
            "midi": 61,
            "name": "C#4",
            "velocity": 1,
            "duration": 0.08505903124999925,
            "ticks": 2136,
            "durationTicks": 23
          },
          {
            "time": 7.903093468750002,
            "midi": 42,
            "name": "F#2",
            "velocity": 1,
            "duration": 0.09245546874999899,
            "ticks": 2137,
            "durationTicks": 25
          },
          {
            "time": 8.080607968750002,
            "midi": 38,
            "name": "D2",
            "velocity": 1,
            "duration": 0.08505903124999925,
            "ticks": 2185,
            "durationTicks": 23
          },
          {
            "time": 8.084306187500001,
            "midi": 61,
            "name": "C#4",
            "velocity": 1,
            "duration": 0.08136081249999982,
            "ticks": 2186,
            "durationTicks": 22
          },
          {
            "time": 8.084306187500001,
            "midi": 42,
            "name": "F#2",
            "velocity": 1,
            "duration": 0.08505903125000103,
            "ticks": 2186,
            "durationTicks": 23
          },
          {
            "time": 8.254424250000001,
            "midi": 61,
            "name": "C#4",
            "velocity": 1,
            "duration": 0.08875724999999868,
            "ticks": 2232,
            "durationTicks": 24
          },
          {
            "time": 8.254424250000001,
            "midi": 42,
            "name": "F#2",
            "velocity": 1,
            "duration": 0.09615368749999931,
            "ticks": 2232,
            "durationTicks": 26
          },
          {
            "time": 8.435636968750002,
            "midi": 36,
            "name": "C2",
            "velocity": 1,
            "duration": 0.08875725000000045,
            "ticks": 2281,
            "durationTicks": 24
          },
          {
            "time": 8.439335187500001,
            "midi": 61,
            "name": "C#4",
            "velocity": 1,
            "duration": 0.08505903125000103,
            "ticks": 2282,
            "durationTicks": 23
          },
          {
            "time": 8.439335187500001,
            "midi": 42,
            "name": "F#2",
            "velocity": 1,
            "duration": 0.09615368750000108,
            "ticks": 2282,
            "durationTicks": 26
          },
          {
            "time": 8.61315146875,
            "midi": 61,
            "name": "C#4",
            "velocity": 1,
            "duration": 0.08505903125000103,
            "ticks": 2329,
            "durationTicks": 23
          },
          {
            "time": 8.61315146875,
            "midi": 42,
            "name": "F#2",
            "velocity": 1,
            "duration": 0.08505903125000103,
            "ticks": 2329,
            "durationTicks": 23
          },
          {
            "time": 8.794364187500001,
            "midi": 38,
            "name": "D2",
            "velocity": 1,
            "duration": 0.08505903125000103,
            "ticks": 2378,
            "durationTicks": 23
          },
          {
            "time": 8.794364187500001,
            "midi": 61,
            "name": "C#4",
            "velocity": 1,
            "duration": 0.08505903125000103,
            "ticks": 2378,
            "durationTicks": 23
          },
          {
            "time": 8.794364187500001,
            "midi": 42,
            "name": "F#2",
            "velocity": 1,
            "duration": 0.08505903125000103,
            "ticks": 2378,
            "durationTicks": 23
          },
          {
            "time": 8.96818046875,
            "midi": 61,
            "name": "C#4",
            "velocity": 1,
            "duration": 0.08505903124999925,
            "ticks": 2425,
            "durationTicks": 23
          },
          {
            "time": 8.96818046875,
            "midi": 42,
            "name": "F#2",
            "velocity": 1,
            "duration": 0.08875725000000045,
            "ticks": 2425,
            "durationTicks": 24
          },
          {
            "time": 9.149393187500001,
            "midi": 36,
            "name": "C2",
            "velocity": 1,
            "duration": 0.08505903125000103,
            "ticks": 2474,
            "durationTicks": 23
          },
          {
            "time": 9.149393187500001,
            "midi": 61,
            "name": "C#4",
            "velocity": 1,
            "duration": 0.08505903125000103,
            "ticks": 2474,
            "durationTicks": 23
          },
          {
            "time": 9.149393187500001,
            "midi": 51,
            "name": "D#3",
            "velocity": 1,
            "duration": 0.32174503124999987,
            "ticks": 2474,
            "durationTicks": 87
          },
          {
            "time": 9.15309140625,
            "midi": 40,
            "name": "E2",
            "velocity": 1,
            "duration": 0.32174503124999987,
            "ticks": 2475,
            "durationTicks": 87
          },
          {
            "time": 9.15309140625,
            "midi": 42,
            "name": "F#2",
            "velocity": 1,
            "duration": 0.08505903124999925,
            "ticks": 2475,
            "durationTicks": 23
          },
          {
            "time": 9.323209468750001,
            "midi": 36,
            "name": "C2",
            "velocity": 1,
            "duration": 0.08505903125000103,
            "ticks": 2521,
            "durationTicks": 23
          },
          {
            "time": 9.3269076875,
            "midi": 61,
            "name": "C#4",
            "velocity": 1,
            "duration": 0.0813608125000016,
            "ticks": 2522,
            "durationTicks": 22
          },
          {
            "time": 9.3269076875,
            "midi": 42,
            "name": "F#2",
            "velocity": 1,
            "duration": 0.08875725000000045,
            "ticks": 2522,
            "durationTicks": 24
          },
          {
            "time": 9.504422187500001,
            "midi": 38,
            "name": "D2",
            "velocity": 1,
            "duration": 0.08505903125000103,
            "ticks": 2570,
            "durationTicks": 23
          },
          {
            "time": 9.504422187500001,
            "midi": 61,
            "name": "C#4",
            "velocity": 1,
            "duration": 0.08505903125000103,
            "ticks": 2570,
            "durationTicks": 23
          },
          {
            "time": 9.50812040625,
            "midi": 42,
            "name": "F#2",
            "velocity": 1,
            "duration": 0.08875725000000045,
            "ticks": 2571,
            "durationTicks": 24
          },
          {
            "time": 9.6819366875,
            "midi": 61,
            "name": "C#4",
            "velocity": 1,
            "duration": 0.08505903125000103,
            "ticks": 2618,
            "durationTicks": 23
          },
          {
            "time": 9.6819366875,
            "midi": 42,
            "name": "F#2",
            "velocity": 1,
            "duration": 0.09245546874999988,
            "ticks": 2618,
            "durationTicks": 25
          },
          {
            "time": 9.859451187500001,
            "midi": 36,
            "name": "C2",
            "velocity": 1,
            "duration": 0.08505903125000103,
            "ticks": 2666,
            "durationTicks": 23
          },
          {
            "time": 9.859451187500001,
            "midi": 61,
            "name": "C#4",
            "velocity": 1,
            "duration": 0.08505903125000103,
            "ticks": 2666,
            "durationTicks": 23
          },
          {
            "time": 9.86314940625,
            "midi": 42,
            "name": "F#2",
            "velocity": 1,
            "duration": 0.08875725000000045,
            "ticks": 2667,
            "durationTicks": 24
          },
          {
            "time": 10.0369656875,
            "midi": 61,
            "name": "C#4",
            "velocity": 1,
            "duration": 0.08505903125000103,
            "ticks": 2714,
            "durationTicks": 23
          },
          {
            "time": 10.0369656875,
            "midi": 42,
            "name": "F#2",
            "velocity": 1,
            "duration": 0.09615368750000108,
            "ticks": 2714,
            "durationTicks": 26
          },
          {
            "time": 10.21817840625,
            "midi": 38,
            "name": "D2",
            "velocity": 1,
            "duration": 0.08505903124999925,
            "ticks": 2763,
            "durationTicks": 23
          },
          {
            "time": 10.21817840625,
            "midi": 61,
            "name": "C#4",
            "velocity": 1,
            "duration": 0.08505903124999925,
            "ticks": 2763,
            "durationTicks": 23
          },
          {
            "time": 10.21817840625,
            "midi": 42,
            "name": "F#2",
            "velocity": 1,
            "duration": 0.08505903124999925,
            "ticks": 2763,
            "durationTicks": 23
          },
          {
            "time": 10.3919946875,
            "midi": 61,
            "name": "C#4",
            "velocity": 1,
            "duration": 0.08505903125000103,
            "ticks": 2810,
            "durationTicks": 23
          },
          {
            "time": 10.3919946875,
            "midi": 42,
            "name": "F#2",
            "velocity": 1,
            "duration": 0.08505903125000103,
            "ticks": 2810,
            "durationTicks": 23
          },
          {
            "time": 10.57320740625,
            "midi": 36,
            "name": "C2",
            "velocity": 1,
            "duration": 0.08505903124999925,
            "ticks": 2859,
            "durationTicks": 23
          },
          {
            "time": 10.57320740625,
            "midi": 61,
            "name": "C#4",
            "velocity": 1,
            "duration": 0.08505903124999925,
            "ticks": 2859,
            "durationTicks": 23
          },
          {
            "time": 10.57320740625,
            "midi": 40,
            "name": "E2",
            "velocity": 1,
            "duration": 0.35502900000000004,
            "ticks": 2859,
            "durationTicks": 96
          },
          {
            "time": 10.576905625000002,
            "midi": 51,
            "name": "D#3",
            "velocity": 1,
            "duration": 0.3698218749999995,
            "ticks": 2860,
            "durationTicks": 100
          },
          {
            "time": 10.576905625000002,
            "midi": 42,
            "name": "F#2",
            "velocity": 1,
            "duration": 0.08136081249999805,
            "ticks": 2860,
            "durationTicks": 22
          },
          {
            "time": 10.750721906250002,
            "midi": 36,
            "name": "C2",
            "velocity": 1,
            "duration": 0.08505903124999925,
            "ticks": 2907,
            "durationTicks": 23
          },
          {
            "time": 10.750721906250002,
            "midi": 61,
            "name": "C#4",
            "velocity": 1,
            "duration": 0.08505903124999925,
            "ticks": 2907,
            "durationTicks": 23
          },
          {
            "time": 10.750721906250002,
            "midi": 42,
            "name": "F#2",
            "velocity": 1,
            "duration": 0.08505903124999925,
            "ticks": 2907,
            "durationTicks": 23
          },
          {
            "time": 10.931934625000002,
            "midi": 38,
            "name": "D2",
            "velocity": 1,
            "duration": 0.08136081249999805,
            "ticks": 2956,
            "durationTicks": 22
          },
          {
            "time": 10.931934625000002,
            "midi": 61,
            "name": "C#4",
            "velocity": 1,
            "duration": 0.08136081249999805,
            "ticks": 2956,
            "durationTicks": 22
          },
          {
            "time": 10.931934625000002,
            "midi": 42,
            "name": "F#2",
            "velocity": 1,
            "duration": 0.08875725000000045,
            "ticks": 2956,
            "durationTicks": 24
          },
          {
            "time": 11.105750906250002,
            "midi": 61,
            "name": "C#4",
            "velocity": 1,
            "duration": 0.08505903124999925,
            "ticks": 3003,
            "durationTicks": 23
          },
          {
            "time": 11.105750906250002,
            "midi": 42,
            "name": "F#2",
            "velocity": 1,
            "duration": 0.08505903124999925,
            "ticks": 3003,
            "durationTicks": 23
          },
          {
            "time": 11.286963625000002,
            "midi": 36,
            "name": "C2",
            "velocity": 1,
            "duration": 0.08505903124999925,
            "ticks": 3052,
            "durationTicks": 23
          },
          {
            "time": 11.286963625000002,
            "midi": 61,
            "name": "C#4",
            "velocity": 1,
            "duration": 0.08505903124999925,
            "ticks": 3052,
            "durationTicks": 23
          },
          {
            "time": 11.286963625000002,
            "midi": 42,
            "name": "F#2",
            "velocity": 1,
            "duration": 0.06286971874999914,
            "ticks": 3052,
            "durationTicks": 17
          },
          {
            "time": 11.460779906250002,
            "midi": 61,
            "name": "C#4",
            "velocity": 1,
            "duration": 0.08505903125000103,
            "ticks": 3099,
            "durationTicks": 23
          },
          {
            "time": 11.460779906250002,
            "midi": 42,
            "name": "F#2",
            "velocity": 1,
            "duration": 0.06656793750000034,
            "ticks": 3099,
            "durationTicks": 18
          },
          {
            "time": 11.641992625,
            "midi": 38,
            "name": "D2",
            "velocity": 1,
            "duration": 0.08505903125000103,
            "ticks": 3148,
            "durationTicks": 23
          },
          {
            "time": 11.641992625,
            "midi": 61,
            "name": "C#4",
            "velocity": 1,
            "duration": 0.08505903125000103,
            "ticks": 3148,
            "durationTicks": 23
          },
          {
            "time": 11.641992625,
            "midi": 42,
            "name": "F#2",
            "velocity": 1,
            "duration": 0.07396437500000097,
            "ticks": 3148,
            "durationTicks": 20
          },
          {
            "time": 11.815808906250002,
            "midi": 61,
            "name": "C#4",
            "velocity": 1,
            "duration": 0.08505903125000103,
            "ticks": 3195,
            "durationTicks": 23
          },
          {
            "time": 11.815808906250002,
            "midi": 42,
            "name": "F#2",
            "velocity": 1,
            "duration": 0.055473281250000284,
            "ticks": 3195,
            "durationTicks": 15
          },
          {
            "time": 11.997021625,
            "midi": 36,
            "name": "C2",
            "velocity": 1,
            "duration": 0.08505903125000103,
            "ticks": 3244,
            "durationTicks": 23
          },
          {
            "time": 11.997021625,
            "midi": 61,
            "name": "C#4",
            "velocity": 1,
            "duration": 0.08505903125000103,
            "ticks": 3244,
            "durationTicks": 23
          },
          {
            "time": 12.000719843750002,
            "midi": 51,
            "name": "D#3",
            "velocity": 1,
            "duration": 0.31804681249999867,
            "ticks": 3245,
            "durationTicks": 86
          },
          {
            "time": 12.000719843750002,
            "midi": 40,
            "name": "E2",
            "velocity": 1,
            "duration": 0.32174503124999987,
            "ticks": 3245,
            "durationTicks": 87
          },
          {
            "time": 12.000719843750002,
            "midi": 42,
            "name": "F#2",
            "velocity": 1,
            "duration": 0.0739643749999992,
            "ticks": 3245,
            "durationTicks": 20
          },
          {
            "time": 12.174536125000001,
            "midi": 36,
            "name": "C2",
            "velocity": 1,
            "duration": 0.08505903124999925,
            "ticks": 3292,
            "durationTicks": 23
          },
          {
            "time": 12.174536125000001,
            "midi": 61,
            "name": "C#4",
            "velocity": 1,
            "duration": 0.08505903124999925,
            "ticks": 3292,
            "durationTicks": 23
          },
          {
            "time": 12.174536125000001,
            "midi": 42,
            "name": "F#2",
            "velocity": 1,
            "duration": 0.08505903124999925,
            "ticks": 3292,
            "durationTicks": 23
          },
          {
            "time": 12.355748843750002,
            "midi": 38,
            "name": "D2",
            "velocity": 1,
            "duration": 0.08505903124999925,
            "ticks": 3341,
            "durationTicks": 23
          },
          {
            "time": 12.355748843750002,
            "midi": 61,
            "name": "C#4",
            "velocity": 1,
            "duration": 0.08505903124999925,
            "ticks": 3341,
            "durationTicks": 23
          },
          {
            "time": 12.355748843750002,
            "midi": 42,
            "name": "F#2",
            "velocity": 1,
            "duration": 0.08505903124999925,
            "ticks": 3341,
            "durationTicks": 23
          },
          {
            "time": 12.529565125000001,
            "midi": 61,
            "name": "C#4",
            "velocity": 1,
            "duration": 0.08505903124999925,
            "ticks": 3388,
            "durationTicks": 23
          },
          {
            "time": 12.529565125000001,
            "midi": 42,
            "name": "F#2",
            "velocity": 1,
            "duration": 0.08875724999999868,
            "ticks": 3388,
            "durationTicks": 24
          },
          {
            "time": 12.710777843750002,
            "midi": 36,
            "name": "C2",
            "velocity": 1,
            "duration": 0.08505903124999925,
            "ticks": 3437,
            "durationTicks": 23
          },
          {
            "time": 12.710777843750002,
            "midi": 61,
            "name": "C#4",
            "velocity": 1,
            "duration": 0.08505903124999925,
            "ticks": 3437,
            "durationTicks": 23
          },
          {
            "time": 12.710777843750002,
            "midi": 42,
            "name": "F#2",
            "velocity": 1,
            "duration": 0.08875725000000045,
            "ticks": 3437,
            "durationTicks": 24
          },
          {
            "time": 12.884594125000001,
            "midi": 61,
            "name": "C#4",
            "velocity": 1,
            "duration": 0.08505903124999925,
            "ticks": 3484,
            "durationTicks": 23
          },
          {
            "time": 12.888292343750003,
            "midi": 42,
            "name": "F#2",
            "velocity": 1,
            "duration": 0.07396437499999742,
            "ticks": 3485,
            "durationTicks": 20
          },
          {
            "time": 13.065806843750002,
            "midi": 38,
            "name": "D2",
            "velocity": 1,
            "duration": 0.08505903124999925,
            "ticks": 3533,
            "durationTicks": 23
          },
          {
            "time": 13.065806843750002,
            "midi": 61,
            "name": "C#4",
            "velocity": 1,
            "duration": 0.08505903124999925,
            "ticks": 3533,
            "durationTicks": 23
          },
          {
            "time": 13.069505062500001,
            "midi": 42,
            "name": "F#2",
            "velocity": 1,
            "duration": 0.0776625937500004,
            "ticks": 3534,
            "durationTicks": 21
          },
          {
            "time": 13.243321343750003,
            "midi": 61,
            "name": "C#4",
            "velocity": 1,
            "duration": 0.08505903124999747,
            "ticks": 3581,
            "durationTicks": 23
          },
          {
            "time": 13.243321343750003,
            "midi": 42,
            "name": "F#2",
            "velocity": 1,
            "duration": 0.08505903124999747,
            "ticks": 3581,
            "durationTicks": 23
          },
          {
            "time": 13.420835843750002,
            "midi": 36,
            "name": "C2",
            "velocity": 1,
            "duration": 0.08505903124999925,
            "ticks": 3629,
            "durationTicks": 23
          },
          {
            "time": 13.420835843750002,
            "midi": 61,
            "name": "C#4",
            "velocity": 1,
            "duration": 0.08875725000000045,
            "ticks": 3629,
            "durationTicks": 24
          },
          {
            "time": 13.424534062500001,
            "midi": 40,
            "name": "E2",
            "velocity": 1,
            "duration": 0.35502900000000004,
            "ticks": 3630,
            "durationTicks": 96
          },
          {
            "time": 13.424534062500001,
            "midi": 51,
            "name": "D#3",
            "velocity": 1,
            "duration": 0.3698218749999995,
            "ticks": 3630,
            "durationTicks": 100
          },
          {
            "time": 13.424534062500001,
            "midi": 42,
            "name": "F#2",
            "velocity": 1,
            "duration": 0.08136081249999982,
            "ticks": 3630,
            "durationTicks": 22
          },
          {
            "time": 13.598350343750003,
            "midi": 36,
            "name": "C2",
            "velocity": 1,
            "duration": 0.08505903124999747,
            "ticks": 3677,
            "durationTicks": 23
          },
          {
            "time": 13.598350343750003,
            "midi": 61,
            "name": "C#4",
            "velocity": 1,
            "duration": 0.08505903124999747,
            "ticks": 3677,
            "durationTicks": 23
          },
          {
            "time": 13.598350343750003,
            "midi": 42,
            "name": "F#2",
            "velocity": 1,
            "duration": 0.09615368749999753,
            "ticks": 3677,
            "durationTicks": 26
          },
          {
            "time": 13.779563062500001,
            "midi": 38,
            "name": "D2",
            "velocity": 1,
            "duration": 0.08505903125000103,
            "ticks": 3726,
            "durationTicks": 23
          },
          {
            "time": 13.779563062500001,
            "midi": 61,
            "name": "C#4",
            "velocity": 1,
            "duration": 0.08505903125000103,
            "ticks": 3726,
            "durationTicks": 23
          },
          {
            "time": 13.779563062500001,
            "midi": 42,
            "name": "F#2",
            "velocity": 1,
            "duration": 0.08875725000000045,
            "ticks": 3726,
            "durationTicks": 24
          },
          {
            "time": 13.953379343750003,
            "midi": 61,
            "name": "C#4",
            "velocity": 1,
            "duration": 0.08505903124999747,
            "ticks": 3773,
            "durationTicks": 23
          },
          {
            "time": 13.953379343750003,
            "midi": 42,
            "name": "F#2",
            "velocity": 1,
            "duration": 0.09615368749999753,
            "ticks": 3773,
            "durationTicks": 26
          },
          {
            "time": 14.134592062500001,
            "midi": 36,
            "name": "C2",
            "velocity": 1,
            "duration": 0.08505903125000103,
            "ticks": 3822,
            "durationTicks": 23
          },
          {
            "time": 14.134592062500001,
            "midi": 61,
            "name": "C#4",
            "velocity": 1,
            "duration": 0.08505903125000103,
            "ticks": 3822,
            "durationTicks": 23
          },
          {
            "time": 14.134592062500001,
            "midi": 42,
            "name": "F#2",
            "velocity": 1,
            "duration": 0.09985190625000051,
            "ticks": 3822,
            "durationTicks": 27
          },
          {
            "time": 14.308408343750003,
            "midi": 61,
            "name": "C#4",
            "velocity": 1,
            "duration": 0.08875725000000045,
            "ticks": 3869,
            "durationTicks": 24
          },
          {
            "time": 14.308408343750003,
            "midi": 42,
            "name": "F#2",
            "velocity": 1,
            "duration": 0.08875725000000045,
            "ticks": 3869,
            "durationTicks": 24
          },
          {
            "time": 14.489621062500001,
            "midi": 38,
            "name": "D2",
            "velocity": 1,
            "duration": 0.08505903125000103,
            "ticks": 3918,
            "durationTicks": 23
          },
          {
            "time": 14.49331928125,
            "midi": 61,
            "name": "C#4",
            "velocity": 1,
            "duration": 0.08505903125000103,
            "ticks": 3919,
            "durationTicks": 23
          },
          {
            "time": 14.49331928125,
            "midi": 42,
            "name": "F#2",
            "velocity": 1,
            "duration": 0.0813608125000016,
            "ticks": 3919,
            "durationTicks": 22
          },
          {
            "time": 14.667135562500002,
            "midi": 61,
            "name": "C#4",
            "velocity": 1,
            "duration": 0.08505903125000103,
            "ticks": 3966,
            "durationTicks": 23
          },
          {
            "time": 14.667135562500002,
            "midi": 42,
            "name": "F#2",
            "velocity": 1,
            "duration": 0.08875724999999868,
            "ticks": 3966,
            "durationTicks": 24
          },
          {
            "time": 14.84834828125,
            "midi": 36,
            "name": "C2",
            "velocity": 1,
            "duration": 0.08505903125000103,
            "ticks": 4015,
            "durationTicks": 23
          },
          {
            "time": 14.84834828125,
            "midi": 61,
            "name": "C#4",
            "velocity": 1,
            "duration": 0.08505903125000103,
            "ticks": 4015,
            "durationTicks": 23
          },
          {
            "time": 14.84834828125,
            "midi": 51,
            "name": "D#3",
            "velocity": 1,
            "duration": 0.31804681250000044,
            "ticks": 4015,
            "durationTicks": 86
          },
          {
            "time": 14.84834828125,
            "midi": 40,
            "name": "E2",
            "velocity": 1,
            "duration": 0.32544325000000107,
            "ticks": 4015,
            "durationTicks": 88
          },
          {
            "time": 14.852046500000002,
            "midi": 42,
            "name": "F#2",
            "velocity": 1,
            "duration": 0.08505903124999925,
            "ticks": 4016,
            "durationTicks": 23
          },
          {
            "time": 15.022164562500002,
            "midi": 36,
            "name": "C2",
            "velocity": 1,
            "duration": 0.08505903125000103,
            "ticks": 4062,
            "durationTicks": 23
          },
          {
            "time": 15.022164562500002,
            "midi": 61,
            "name": "C#4",
            "velocity": 1,
            "duration": 0.08505903125000103,
            "ticks": 4062,
            "durationTicks": 23
          },
          {
            "time": 15.025862781250002,
            "midi": 42,
            "name": "F#2",
            "velocity": 1,
            "duration": 0.08505903124999925,
            "ticks": 4063,
            "durationTicks": 23
          },
          {
            "time": 15.20337728125,
            "midi": 38,
            "name": "D2",
            "velocity": 1,
            "duration": 0.08505903125000103,
            "ticks": 4111,
            "durationTicks": 23
          },
          {
            "time": 15.20337728125,
            "midi": 61,
            "name": "C#4",
            "velocity": 1,
            "duration": 0.08505903125000103,
            "ticks": 4111,
            "durationTicks": 23
          },
          {
            "time": 15.20337728125,
            "midi": 42,
            "name": "F#2",
            "velocity": 1,
            "duration": 0.08875725000000045,
            "ticks": 4111,
            "durationTicks": 24
          },
          {
            "time": 15.377193562500002,
            "midi": 61,
            "name": "C#4",
            "velocity": 1,
            "duration": 0.08505903125000103,
            "ticks": 4158,
            "durationTicks": 23
          },
          {
            "time": 15.380891781250002,
            "midi": 42,
            "name": "F#2",
            "velocity": 1,
            "duration": 0.09245546875000166,
            "ticks": 4159,
            "durationTicks": 25
          },
          {
            "time": 15.55840628125,
            "midi": 36,
            "name": "C2",
            "velocity": 1,
            "duration": 0.08505903125000103,
            "ticks": 4207,
            "durationTicks": 23
          },
          {
            "time": 15.55840628125,
            "midi": 61,
            "name": "C#4",
            "velocity": 1,
            "duration": 0.08505903125000103,
            "ticks": 4207,
            "durationTicks": 23
          },
          {
            "time": 15.562104500000002,
            "midi": 42,
            "name": "F#2",
            "velocity": 1,
            "duration": 0.08875725000000045,
            "ticks": 4208,
            "durationTicks": 24
          },
          {
            "time": 15.735920781250002,
            "midi": 61,
            "name": "C#4",
            "velocity": 1,
            "duration": 0.08505903124999925,
            "ticks": 4255,
            "durationTicks": 23
          },
          {
            "time": 15.735920781250002,
            "midi": 42,
            "name": "F#2",
            "velocity": 1,
            "duration": 0.09985190624999873,
            "ticks": 4255,
            "durationTicks": 27
          },
          {
            "time": 15.91343528125,
            "midi": 38,
            "name": "D2",
            "velocity": 1,
            "duration": 0.08875724999999868,
            "ticks": 4303,
            "durationTicks": 24
          },
          {
            "time": 15.91343528125,
            "midi": 61,
            "name": "C#4",
            "velocity": 1,
            "duration": 0.08875724999999868,
            "ticks": 4303,
            "durationTicks": 24
          },
          {
            "time": 15.917133500000002,
            "midi": 42,
            "name": "F#2",
            "velocity": 1,
            "duration": 0.08505903124999747,
            "ticks": 4304,
            "durationTicks": 23
          },
          {
            "time": 16.09094978125,
            "midi": 61,
            "name": "C#4",
            "velocity": 1,
            "duration": 0.08505903125000103,
            "ticks": 4351,
            "durationTicks": 23
          },
          {
            "time": 16.09094978125,
            "midi": 42,
            "name": "F#2",
            "velocity": 1,
            "duration": 0.08505903125000103,
            "ticks": 4351,
            "durationTicks": 23
          },
          {
            "time": 16.272162500000004,
            "midi": 36,
            "name": "C2",
            "velocity": 1,
            "duration": 0.08505903124999747,
            "ticks": 4400,
            "durationTicks": 23
          },
          {
            "time": 16.272162500000004,
            "midi": 61,
            "name": "C#4",
            "velocity": 1,
            "duration": 0.08505903124999747,
            "ticks": 4400,
            "durationTicks": 23
          },
          {
            "time": 16.272162500000004,
            "midi": 40,
            "name": "E2",
            "velocity": 1,
            "duration": 0.35502899999999826,
            "ticks": 4400,
            "durationTicks": 96
          },
          {
            "time": 16.272162500000004,
            "midi": 51,
            "name": "D#3",
            "velocity": 1,
            "duration": 0.3698218749999995,
            "ticks": 4400,
            "durationTicks": 100
          },
          {
            "time": 16.275860718750003,
            "midi": 42,
            "name": "F#2",
            "velocity": 1,
            "duration": 0.08136081249999805,
            "ticks": 4401,
            "durationTicks": 22
          },
          {
            "time": 16.445978781250002,
            "midi": 36,
            "name": "C2",
            "velocity": 1,
            "duration": 0.08875725000000045,
            "ticks": 4447,
            "durationTicks": 24
          },
          {
            "time": 16.445978781250002,
            "midi": 61,
            "name": "C#4",
            "velocity": 1,
            "duration": 0.08875725000000045,
            "ticks": 4447,
            "durationTicks": 24
          },
          {
            "time": 16.449677,
            "midi": 42,
            "name": "F#2",
            "velocity": 1,
            "duration": 0.0813608125000016,
            "ticks": 4448,
            "durationTicks": 22
          },
          {
            "time": 16.627191500000002,
            "midi": 38,
            "name": "D2",
            "velocity": 1,
            "duration": 0.08505903124999747,
            "ticks": 4496,
            "durationTicks": 23
          },
          {
            "time": 16.63088971875,
            "midi": 61,
            "name": "C#4",
            "velocity": 1,
            "duration": 0.08136081249999805,
            "ticks": 4497,
            "durationTicks": 22
          },
          {
            "time": 16.63088971875,
            "midi": 42,
            "name": "F#2",
            "velocity": 1,
            "duration": 0.08505903125000103,
            "ticks": 4497,
            "durationTicks": 23
          },
          {
            "time": 16.804706000000003,
            "midi": 61,
            "name": "C#4",
            "velocity": 1,
            "duration": 0.08505903124999747,
            "ticks": 4544,
            "durationTicks": 23
          },
          {
            "time": 16.804706000000003,
            "midi": 42,
            "name": "F#2",
            "velocity": 1,
            "duration": 0.08505903124999747,
            "ticks": 4544,
            "durationTicks": 23
          },
          {
            "time": 16.982220500000004,
            "midi": 36,
            "name": "C2",
            "velocity": 1,
            "duration": 0.08505903124999747,
            "ticks": 4592,
            "durationTicks": 23
          },
          {
            "time": 16.985918718750003,
            "midi": 61,
            "name": "C#4",
            "velocity": 1,
            "duration": 0.08505903125000103,
            "ticks": 4593,
            "durationTicks": 23
          },
          {
            "time": 16.985918718750003,
            "midi": 42,
            "name": "F#2",
            "velocity": 1,
            "duration": 0.06286971875000091,
            "ticks": 4593,
            "durationTicks": 17
          },
          {
            "time": 17.159735,
            "midi": 61,
            "name": "C#4",
            "velocity": 1,
            "duration": 0.08505903125000103,
            "ticks": 4640,
            "durationTicks": 23
          },
          {
            "time": 17.159735,
            "midi": 42,
            "name": "F#2",
            "velocity": 1,
            "duration": 0.06286971875000091,
            "ticks": 4640,
            "durationTicks": 17
          },
          {
            "time": 17.34094771875,
            "midi": 38,
            "name": "D2",
            "velocity": 1,
            "duration": 0.08505903125000103,
            "ticks": 4689,
            "durationTicks": 23
          },
          {
            "time": 17.34094771875,
            "midi": 61,
            "name": "C#4",
            "velocity": 1,
            "duration": 0.08505903125000103,
            "ticks": 4689,
            "durationTicks": 23
          },
          {
            "time": 17.34094771875,
            "midi": 42,
            "name": "F#2",
            "velocity": 1,
            "duration": 0.07396437500000275,
            "ticks": 4689,
            "durationTicks": 20
          },
          {
            "time": 17.514764000000003,
            "midi": 61,
            "name": "C#4",
            "velocity": 1,
            "duration": 0.08505903124999747,
            "ticks": 4736,
            "durationTicks": 23
          },
          {
            "time": 17.514764000000003,
            "midi": 42,
            "name": "F#2",
            "velocity": 1,
            "duration": 0.05547328124999851,
            "ticks": 4736,
            "durationTicks": 15
          },
          {
            "time": 17.695976718750003,
            "midi": 36,
            "name": "C2",
            "velocity": 1,
            "duration": 0.08505903125000103,
            "ticks": 4785,
            "durationTicks": 23
          },
          {
            "time": 17.695976718750003,
            "midi": 61,
            "name": "C#4",
            "velocity": 1,
            "duration": 0.08505903125000103,
            "ticks": 4785,
            "durationTicks": 23
          },
          {
            "time": 17.695976718750003,
            "midi": 51,
            "name": "D#3",
            "velocity": 1,
            "duration": 0.32174503124999987,
            "ticks": 4785,
            "durationTicks": 87
          },
          {
            "time": 17.699674937500003,
            "midi": 40,
            "name": "E2",
            "velocity": 1,
            "duration": 0.32174503124999987,
            "ticks": 4786,
            "durationTicks": 87
          },
          {
            "time": 17.699674937500003,
            "midi": 42,
            "name": "F#2",
            "velocity": 1,
            "duration": 0.07026615624999977,
            "ticks": 4786,
            "durationTicks": 19
          },
          {
            "time": 17.869793,
            "midi": 36,
            "name": "C2",
            "velocity": 1,
            "duration": 0.08505903125000103,
            "ticks": 4832,
            "durationTicks": 23
          },
          {
            "time": 17.87349121875,
            "midi": 61,
            "name": "C#4",
            "velocity": 1,
            "duration": 0.08505903125000103,
            "ticks": 4833,
            "durationTicks": 23
          },
          {
            "time": 17.87349121875,
            "midi": 42,
            "name": "F#2",
            "velocity": 1,
            "duration": 0.0813608125000016,
            "ticks": 4833,
            "durationTicks": 22
          },
          {
            "time": 18.05100571875,
            "midi": 38,
            "name": "D2",
            "velocity": 1,
            "duration": 0.08505903125000103,
            "ticks": 4881,
            "durationTicks": 23
          },
          {
            "time": 18.05100571875,
            "midi": 61,
            "name": "C#4",
            "velocity": 1,
            "duration": 0.08875725000000045,
            "ticks": 4881,
            "durationTicks": 24
          },
          {
            "time": 18.0547039375,
            "midi": 42,
            "name": "F#2",
            "velocity": 1,
            "duration": 0.0813608125000016,
            "ticks": 4882,
            "durationTicks": 22
          },
          {
            "time": 18.228520218750003,
            "midi": 61,
            "name": "C#4",
            "velocity": 1,
            "duration": 0.08505903125000103,
            "ticks": 4929,
            "durationTicks": 23
          },
          {
            "time": 18.228520218750003,
            "midi": 42,
            "name": "F#2",
            "velocity": 1,
            "duration": 0.08875725000000045,
            "ticks": 4929,
            "durationTicks": 24
          },
          {
            "time": 18.409732937500003,
            "midi": 36,
            "name": "C2",
            "velocity": 1,
            "duration": 0.08505903124999747,
            "ticks": 4978,
            "durationTicks": 23
          },
          {
            "time": 18.409732937500003,
            "midi": 61,
            "name": "C#4",
            "velocity": 1,
            "duration": 0.08505903124999747,
            "ticks": 4978,
            "durationTicks": 23
          },
          {
            "time": 18.409732937500003,
            "midi": 42,
            "name": "F#2",
            "velocity": 1,
            "duration": 0.0887572499999969,
            "ticks": 4978,
            "durationTicks": 24
          },
          {
            "time": 18.58354921875,
            "midi": 61,
            "name": "C#4",
            "velocity": 1,
            "duration": 0.08505903125000103,
            "ticks": 5025,
            "durationTicks": 23
          },
          {
            "time": 18.58354921875,
            "midi": 42,
            "name": "F#2",
            "velocity": 1,
            "duration": 0.07396437500000275,
            "ticks": 5025,
            "durationTicks": 20
          },
          {
            "time": 18.7647619375,
            "midi": 38,
            "name": "D2",
            "velocity": 1,
            "duration": 0.08505903125000103,
            "ticks": 5074,
            "durationTicks": 23
          },
          {
            "time": 18.7647619375,
            "midi": 61,
            "name": "C#4",
            "velocity": 1,
            "duration": 0.08505903125000103,
            "ticks": 5074,
            "durationTicks": 23
          },
          {
            "time": 18.7647619375,
            "midi": 42,
            "name": "F#2",
            "velocity": 1,
            "duration": 0.0813608125000016,
            "ticks": 5074,
            "durationTicks": 22
          },
          {
            "time": 18.938578218750003,
            "midi": 61,
            "name": "C#4",
            "velocity": 1,
            "duration": 0.08505903125000103,
            "ticks": 5121,
            "durationTicks": 23
          },
          {
            "time": 18.942276437500002,
            "midi": 42,
            "name": "F#2",
            "velocity": 1,
            "duration": 0.08505903125000103,
            "ticks": 5122,
            "durationTicks": 23
          },
          {
            "time": 19.119790937500003,
            "midi": 36,
            "name": "C2",
            "velocity": 1,
            "duration": 0.08505903124999747,
            "ticks": 5170,
            "durationTicks": 23
          },
          {
            "time": 19.119790937500003,
            "midi": 61,
            "name": "C#4",
            "velocity": 1,
            "duration": 0.0887572499999969,
            "ticks": 5170,
            "durationTicks": 24
          },
          {
            "time": 19.123489156250002,
            "midi": 40,
            "name": "E2",
            "velocity": 1,
            "duration": 0.35133078124999884,
            "ticks": 5171,
            "durationTicks": 95
          },
          {
            "time": 19.123489156250002,
            "midi": 51,
            "name": "D#3",
            "velocity": 1,
            "duration": 0.37352009374999895,
            "ticks": 5171,
            "durationTicks": 101
          },
          {
            "time": 19.123489156250002,
            "midi": 42,
            "name": "F#2",
            "velocity": 1,
            "duration": 0.08136081249999805,
            "ticks": 5171,
            "durationTicks": 22
          },
          {
            "time": 19.2973054375,
            "midi": 36,
            "name": "C2",
            "velocity": 1,
            "duration": 0.08505903125000103,
            "ticks": 5218,
            "durationTicks": 23
          },
          {
            "time": 19.2973054375,
            "midi": 61,
            "name": "C#4",
            "velocity": 1,
            "duration": 0.08505903125000103,
            "ticks": 5218,
            "durationTicks": 23
          },
          {
            "time": 19.2973054375,
            "midi": 42,
            "name": "F#2",
            "velocity": 1,
            "duration": 0.09245546875000343,
            "ticks": 5218,
            "durationTicks": 25
          },
          {
            "time": 19.478518156250004,
            "midi": 38,
            "name": "D2",
            "velocity": 1,
            "duration": 0.08505903124999747,
            "ticks": 5267,
            "durationTicks": 23
          },
          {
            "time": 19.478518156250004,
            "midi": 61,
            "name": "C#4",
            "velocity": 1,
            "duration": 0.08136081249999805,
            "ticks": 5267,
            "durationTicks": 22
          },
          {
            "time": 19.478518156250004,
            "midi": 42,
            "name": "F#2",
            "velocity": 1,
            "duration": 0.08875725000000045,
            "ticks": 5267,
            "durationTicks": 24
          },
          {
            "time": 19.652334437500002,
            "midi": 61,
            "name": "C#4",
            "velocity": 1,
            "duration": 0.08505903125000103,
            "ticks": 5314,
            "durationTicks": 23
          },
          {
            "time": 19.652334437500002,
            "midi": 42,
            "name": "F#2",
            "velocity": 1,
            "duration": 0.09615368749999931,
            "ticks": 5314,
            "durationTicks": 26
          },
          {
            "time": 19.833547156250003,
            "midi": 36,
            "name": "C2",
            "velocity": 1,
            "duration": 0.08505903124999747,
            "ticks": 5363,
            "durationTicks": 23
          },
          {
            "time": 19.833547156250003,
            "midi": 61,
            "name": "C#4",
            "velocity": 1,
            "duration": 0.08505903124999747,
            "ticks": 5363,
            "durationTicks": 23
          },
          {
            "time": 19.833547156250003,
            "midi": 42,
            "name": "F#2",
            "velocity": 1,
            "duration": 0.10355012499999816,
            "ticks": 5363,
            "durationTicks": 28
          },
          {
            "time": 20.0073634375,
            "midi": 61,
            "name": "C#4",
            "velocity": 1,
            "duration": 0.08505903125000103,
            "ticks": 5410,
            "durationTicks": 23
          },
          {
            "time": 20.0073634375,
            "midi": 42,
            "name": "F#2",
            "velocity": 1,
            "duration": 0.08505903125000103,
            "ticks": 5410,
            "durationTicks": 23
          },
          {
            "time": 20.188576156250004,
            "midi": 38,
            "name": "D2",
            "velocity": 1,
            "duration": 0.08505903124999747,
            "ticks": 5459,
            "durationTicks": 23
          },
          {
            "time": 20.188576156250004,
            "midi": 61,
            "name": "C#4",
            "velocity": 1,
            "duration": 0.08505903124999747,
            "ticks": 5459,
            "durationTicks": 23
          },
          {
            "time": 20.188576156250004,
            "midi": 42,
            "name": "F#2",
            "velocity": 1,
            "duration": 0.08505903124999747,
            "ticks": 5459,
            "durationTicks": 23
          },
          {
            "time": 20.36609065625,
            "midi": 61,
            "name": "C#4",
            "velocity": 1,
            "duration": 0.08505903125000103,
            "ticks": 5507,
            "durationTicks": 23
          },
          {
            "time": 20.36609065625,
            "midi": 42,
            "name": "F#2",
            "velocity": 1,
            "duration": 0.08875725000000045,
            "ticks": 5507,
            "durationTicks": 24
          },
          {
            "time": 20.543605156250003,
            "midi": 36,
            "name": "C2",
            "velocity": 1,
            "duration": 0.08505903124999747,
            "ticks": 5555,
            "durationTicks": 23
          },
          {
            "time": 20.543605156250003,
            "midi": 61,
            "name": "C#4",
            "velocity": 1,
            "duration": 0.08875725000000045,
            "ticks": 5555,
            "durationTicks": 24
          },
          {
            "time": 20.547303375000002,
            "midi": 51,
            "name": "D#3",
            "velocity": 1,
            "duration": 0.31804681250000044,
            "ticks": 5556,
            "durationTicks": 86
          },
          {
            "time": 20.547303375000002,
            "midi": 40,
            "name": "E2",
            "velocity": 1,
            "duration": 0.32174503124999987,
            "ticks": 5556,
            "durationTicks": 87
          },
          {
            "time": 20.547303375000002,
            "midi": 42,
            "name": "F#2",
            "velocity": 1,
            "duration": 0.08875725000000045,
            "ticks": 5556,
            "durationTicks": 24
          },
          {
            "time": 20.721119656250004,
            "midi": 36,
            "name": "C2",
            "velocity": 1,
            "duration": 0.08505903124999747,
            "ticks": 5603,
            "durationTicks": 23
          },
          {
            "time": 20.721119656250004,
            "midi": 61,
            "name": "C#4",
            "velocity": 1,
            "duration": 0.08505903124999747,
            "ticks": 5603,
            "durationTicks": 23
          },
          {
            "time": 20.721119656250004,
            "midi": 42,
            "name": "F#2",
            "velocity": 1,
            "duration": 0.08875725000000045,
            "ticks": 5603,
            "durationTicks": 24
          },
          {
            "time": 20.902332375000004,
            "midi": 38,
            "name": "D2",
            "velocity": 1,
            "duration": 0.08505903125000103,
            "ticks": 5652,
            "durationTicks": 23
          },
          {
            "time": 20.902332375000004,
            "midi": 61,
            "name": "C#4",
            "velocity": 1,
            "duration": 0.08505903125000103,
            "ticks": 5652,
            "durationTicks": 23
          },
          {
            "time": 20.902332375000004,
            "midi": 42,
            "name": "F#2",
            "velocity": 1,
            "duration": 0.0887572499999969,
            "ticks": 5652,
            "durationTicks": 24
          },
          {
            "time": 21.076148656250002,
            "midi": 61,
            "name": "C#4",
            "velocity": 1,
            "duration": 0.08505903125000103,
            "ticks": 5699,
            "durationTicks": 23
          },
          {
            "time": 21.076148656250002,
            "midi": 42,
            "name": "F#2",
            "velocity": 1,
            "duration": 0.09615368749999931,
            "ticks": 5699,
            "durationTicks": 26
          },
          {
            "time": 21.257361375000002,
            "midi": 36,
            "name": "C2",
            "velocity": 1,
            "duration": 0.08505903125000103,
            "ticks": 5748,
            "durationTicks": 23
          },
          {
            "time": 21.257361375000002,
            "midi": 61,
            "name": "C#4",
            "velocity": 1,
            "duration": 0.08505903125000103,
            "ticks": 5748,
            "durationTicks": 23
          },
          {
            "time": 21.257361375000002,
            "midi": 42,
            "name": "F#2",
            "velocity": 1,
            "duration": 0.08875725000000045,
            "ticks": 5748,
            "durationTicks": 24
          },
          {
            "time": 21.431177656250004,
            "midi": 61,
            "name": "C#4",
            "velocity": 1,
            "duration": 0.08505903124999747,
            "ticks": 5795,
            "durationTicks": 23
          },
          {
            "time": 21.434875875000003,
            "midi": 42,
            "name": "F#2",
            "velocity": 1,
            "duration": 0.09615368749999931,
            "ticks": 5796,
            "durationTicks": 26
          },
          {
            "time": 21.612390375000004,
            "midi": 38,
            "name": "D2",
            "velocity": 1,
            "duration": 0.08505903125000103,
            "ticks": 5844,
            "durationTicks": 23
          },
          {
            "time": 21.612390375000004,
            "midi": 61,
            "name": "C#4",
            "velocity": 1,
            "duration": 0.08505903125000103,
            "ticks": 5844,
            "durationTicks": 23
          },
          {
            "time": 21.61608859375,
            "midi": 42,
            "name": "F#2",
            "velocity": 1,
            "duration": 0.08136081250000515,
            "ticks": 5845,
            "durationTicks": 22
          },
          {
            "time": 21.789904875,
            "midi": 61,
            "name": "C#4",
            "velocity": 1,
            "duration": 0.08505903125000103,
            "ticks": 5892,
            "durationTicks": 23
          },
          {
            "time": 21.789904875,
            "midi": 42,
            "name": "F#2",
            "velocity": 1,
            "duration": 0.08505903125000103,
            "ticks": 5892,
            "durationTicks": 23
          },
          {
            "time": 21.967419375000002,
            "midi": 36,
            "name": "C2",
            "velocity": 1,
            "duration": 0.08875725000000045,
            "ticks": 5940,
            "durationTicks": 24
          },
          {
            "time": 21.967419375000002,
            "midi": 61,
            "name": "C#4",
            "velocity": 1,
            "duration": 0.08875725000000045,
            "ticks": 5940,
            "durationTicks": 24
          },
          {
            "time": 21.97111759375,
            "midi": 40,
            "name": "E2",
            "velocity": 1,
            "duration": 0.35502899999999826,
            "ticks": 5941,
            "durationTicks": 96
          },
          {
            "time": 21.97111759375,
            "midi": 51,
            "name": "D#3",
            "velocity": 1,
            "duration": 0.3735200937500025,
            "ticks": 5941,
            "durationTicks": 101
          },
          {
            "time": 21.97111759375,
            "midi": 42,
            "name": "F#2",
            "velocity": 1,
            "duration": 0.08505903125000103,
            "ticks": 5941,
            "durationTicks": 23
          },
          {
            "time": 22.144933875000003,
            "midi": 36,
            "name": "C2",
            "velocity": 1,
            "duration": 0.08505903125000103,
            "ticks": 5988,
            "durationTicks": 23
          },
          {
            "time": 22.144933875000003,
            "midi": 61,
            "name": "C#4",
            "velocity": 1,
            "duration": 0.08505903125000103,
            "ticks": 5988,
            "durationTicks": 23
          },
          {
            "time": 22.148632093750003,
            "midi": 42,
            "name": "F#2",
            "velocity": 1,
            "duration": 0.0813608125000016,
            "ticks": 5989,
            "durationTicks": 22
          },
          {
            "time": 22.32614659375,
            "midi": 38,
            "name": "D2",
            "velocity": 1,
            "duration": 0.08505903125000103,
            "ticks": 6037,
            "durationTicks": 23
          },
          {
            "time": 22.32614659375,
            "midi": 61,
            "name": "C#4",
            "velocity": 1,
            "duration": 0.08505903125000103,
            "ticks": 6037,
            "durationTicks": 23
          },
          {
            "time": 22.32614659375,
            "midi": 42,
            "name": "F#2",
            "velocity": 1,
            "duration": 0.08875725000000045,
            "ticks": 6037,
            "durationTicks": 24
          },
          {
            "time": 22.499962875,
            "midi": 61,
            "name": "C#4",
            "velocity": 1,
            "duration": 0.08875725000000045,
            "ticks": 6084,
            "durationTicks": 24
          },
          {
            "time": 22.499962875,
            "midi": 42,
            "name": "F#2",
            "velocity": 1,
            "duration": 0.08505903125000103,
            "ticks": 6084,
            "durationTicks": 23
          },
          {
            "time": 22.68117559375,
            "midi": 36,
            "name": "C2",
            "velocity": 1,
            "duration": 0.08505903125000103,
            "ticks": 6133,
            "durationTicks": 23
          },
          {
            "time": 22.68117559375,
            "midi": 61,
            "name": "C#4",
            "velocity": 1,
            "duration": 0.08505903125000103,
            "ticks": 6133,
            "durationTicks": 23
          },
          {
            "time": 22.68117559375,
            "midi": 42,
            "name": "F#2",
            "velocity": 1,
            "duration": 0.0665679375000039,
            "ticks": 6133,
            "durationTicks": 18
          },
          {
            "time": 22.858690093750003,
            "midi": 61,
            "name": "C#4",
            "velocity": 1,
            "duration": 0.08505903125000103,
            "ticks": 6181,
            "durationTicks": 23
          },
          {
            "time": 22.858690093750003,
            "midi": 42,
            "name": "F#2",
            "velocity": 1,
            "duration": 0.06286971875000091,
            "ticks": 6181,
            "durationTicks": 17
          },
          {
            "time": 23.036204593750004,
            "midi": 38,
            "name": "D2",
            "velocity": 1,
            "duration": 0.08505903124999747,
            "ticks": 6229,
            "durationTicks": 23
          },
          {
            "time": 23.036204593750004,
            "midi": 61,
            "name": "C#4",
            "velocity": 1,
            "duration": 0.08505903124999747,
            "ticks": 6229,
            "durationTicks": 23
          },
          {
            "time": 23.0399028125,
            "midi": 42,
            "name": "F#2",
            "velocity": 1,
            "duration": 0.0739643750000063,
            "ticks": 6230,
            "durationTicks": 20
          },
          {
            "time": 23.213719093750004,
            "midi": 61,
            "name": "C#4",
            "velocity": 1,
            "duration": 0.08505903124999747,
            "ticks": 6277,
            "durationTicks": 23
          },
          {
            "time": 23.213719093750004,
            "midi": 42,
            "name": "F#2",
            "velocity": 1,
            "duration": 0.05547328124999851,
            "ticks": 6277,
            "durationTicks": 15
          },
          {
            "time": 23.3949318125,
            "midi": 36,
            "name": "C2",
            "velocity": 1,
            "duration": 0.08505903125000458,
            "ticks": 6326,
            "durationTicks": 23
          },
          {
            "time": 23.3949318125,
            "midi": 61,
            "name": "C#4",
            "velocity": 1,
            "duration": 0.08505903125000458,
            "ticks": 6326,
            "durationTicks": 23
          },
          {
            "time": 23.3949318125,
            "midi": 51,
            "name": "D#3",
            "velocity": 1,
            "duration": 0.318046812500004,
            "ticks": 6326,
            "durationTicks": 86
          },
          {
            "time": 23.3949318125,
            "midi": 40,
            "name": "E2",
            "velocity": 1,
            "duration": 0.32544325000000285,
            "ticks": 6326,
            "durationTicks": 88
          },
          {
            "time": 23.398630031250004,
            "midi": 42,
            "name": "F#2",
            "velocity": 1,
            "duration": 0.07026615624999977,
            "ticks": 6327,
            "durationTicks": 19
          },
          {
            "time": 23.568748093750003,
            "midi": 36,
            "name": "C2",
            "velocity": 1,
            "duration": 0.08505903125000103,
            "ticks": 6373,
            "durationTicks": 23
          },
          {
            "time": 23.568748093750003,
            "midi": 61,
            "name": "C#4",
            "velocity": 1,
            "duration": 0.08875725000000045,
            "ticks": 6373,
            "durationTicks": 24
          },
          {
            "time": 23.572446312500002,
            "midi": 42,
            "name": "F#2",
            "velocity": 1,
            "duration": 0.0813608125000016,
            "ticks": 6374,
            "durationTicks": 22
          },
          {
            "time": 23.7499608125,
            "midi": 38,
            "name": "D2",
            "velocity": 1,
            "duration": 0.08505903125000458,
            "ticks": 6422,
            "durationTicks": 23
          },
          {
            "time": 23.7499608125,
            "midi": 61,
            "name": "C#4",
            "velocity": 1,
            "duration": 0.08505903125000458,
            "ticks": 6422,
            "durationTicks": 23
          },
          {
            "time": 23.7499608125,
            "midi": 42,
            "name": "F#2",
            "velocity": 1,
            "duration": 0.08505903125000458,
            "ticks": 6422,
            "durationTicks": 23
          },
          {
            "time": 23.923777093750004,
            "midi": 61,
            "name": "C#4",
            "velocity": 1,
            "duration": 0.08505903124999747,
            "ticks": 6469,
            "durationTicks": 23
          },
          {
            "time": 23.923777093750004,
            "midi": 42,
            "name": "F#2",
            "velocity": 1,
            "duration": 0.09245546874999633,
            "ticks": 6469,
            "durationTicks": 25
          },
          {
            "time": 24.1049898125,
            "midi": 36,
            "name": "C2",
            "velocity": 1,
            "duration": 0.08505903125000458,
            "ticks": 6518,
            "durationTicks": 23
          },
          {
            "time": 24.108688031250004,
            "midi": 61,
            "name": "C#4",
            "velocity": 1,
            "duration": 0.0813608125000016,
            "ticks": 6519,
            "durationTicks": 22
          },
          {
            "time": 24.108688031250004,
            "midi": 42,
            "name": "F#2",
            "velocity": 1,
            "duration": 0.09615368749999575,
            "ticks": 6519,
            "durationTicks": 26
          },
          {
            "time": 24.282504312500002,
            "midi": 61,
            "name": "C#4",
            "velocity": 1,
            "duration": 0.08505903125000103,
            "ticks": 6566,
            "durationTicks": 23
          },
          {
            "time": 24.282504312500002,
            "midi": 42,
            "name": "F#2",
            "velocity": 1,
            "duration": 0.08505903125000103,
            "ticks": 6566,
            "durationTicks": 23
          },
          {
            "time": 24.463717031250003,
            "midi": 38,
            "name": "D2",
            "velocity": 1,
            "duration": 0.08505903124999747,
            "ticks": 6615,
            "durationTicks": 23
          },
          {
            "time": 24.463717031250003,
            "midi": 61,
            "name": "C#4",
            "velocity": 1,
            "duration": 0.08505903124999747,
            "ticks": 6615,
            "durationTicks": 23
          },
          {
            "time": 24.463717031250003,
            "midi": 42,
            "name": "F#2",
            "velocity": 1,
            "duration": 0.07766259374999862,
            "ticks": 6615,
            "durationTicks": 21
          },
          {
            "time": 24.6375333125,
            "midi": 61,
            "name": "C#4",
            "velocity": 1,
            "duration": 0.08505903125000458,
            "ticks": 6662,
            "durationTicks": 23
          },
          {
            "time": 24.6375333125,
            "midi": 42,
            "name": "F#2",
            "velocity": 1,
            "duration": 0.07396437500000275,
            "ticks": 6662,
            "durationTicks": 20
          },
          {
            "time": 24.818746031250004,
            "midi": 36,
            "name": "C2",
            "velocity": 1,
            "duration": 0.08505903124999747,
            "ticks": 6711,
            "durationTicks": 23
          },
          {
            "time": 24.818746031250004,
            "midi": 61,
            "name": "C#4",
            "velocity": 1,
            "duration": 0.08505903124999747,
            "ticks": 6711,
            "durationTicks": 23
          },
          {
            "time": 24.818746031250004,
            "midi": 40,
            "name": "E2",
            "velocity": 1,
            "duration": 0.35502899999999826,
            "ticks": 6711,
            "durationTicks": 96
          },
          {
            "time": 24.822444250000004,
            "midi": 51,
            "name": "D#3",
            "velocity": 1,
            "duration": 0.37352009374999895,
            "ticks": 6712,
            "durationTicks": 101
          },
          {
            "time": 24.822444250000004,
            "midi": 42,
            "name": "F#2",
            "velocity": 1,
            "duration": 0.06656793750000034,
            "ticks": 6712,
            "durationTicks": 18
          },
          {
            "time": 24.992562312500002,
            "midi": 36,
            "name": "C2",
            "velocity": 1,
            "duration": 0.08505903125000103,
            "ticks": 6758,
            "durationTicks": 23
          },
          {
            "time": 24.992562312500002,
            "midi": 61,
            "name": "C#4",
            "velocity": 1,
            "duration": 0.08875725000000045,
            "ticks": 6758,
            "durationTicks": 24
          },
          {
            "time": 24.99626053125,
            "midi": 42,
            "name": "F#2",
            "velocity": 1,
            "duration": 0.0813608125000016,
            "ticks": 6759,
            "durationTicks": 22
          },
          {
            "time": 25.173775031250003,
            "midi": 38,
            "name": "D2",
            "velocity": 1,
            "duration": 0.08505903124999747,
            "ticks": 6807,
            "durationTicks": 23
          },
          {
            "time": 25.173775031250003,
            "midi": 61,
            "name": "C#4",
            "velocity": 1,
            "duration": 0.08505903124999747,
            "ticks": 6807,
            "durationTicks": 23
          },
          {
            "time": 25.177473250000006,
            "midi": 42,
            "name": "F#2",
            "velocity": 1,
            "duration": 0.08875725000000045,
            "ticks": 6808,
            "durationTicks": 24
          },
          {
            "time": 25.351289531250004,
            "midi": 61,
            "name": "C#4",
            "velocity": 1,
            "duration": 0.08505903124999747,
            "ticks": 6855,
            "durationTicks": 23
          },
          {
            "time": 25.351289531250004,
            "midi": 42,
            "name": "F#2",
            "velocity": 1,
            "duration": 0.08505903124999747,
            "ticks": 6855,
            "durationTicks": 23
          },
          {
            "time": 25.528804031250004,
            "midi": 36,
            "name": "C2",
            "velocity": 1,
            "duration": 0.08505903124999747,
            "ticks": 6903,
            "durationTicks": 23
          },
          {
            "time": 25.528804031250004,
            "midi": 61,
            "name": "C#4",
            "velocity": 1,
            "duration": 0.0887572499999969,
            "ticks": 6903,
            "durationTicks": 24
          },
          {
            "time": 25.532502250000004,
            "midi": 42,
            "name": "F#2",
            "velocity": 1,
            "duration": 0.07766259375000217,
            "ticks": 6904,
            "durationTicks": 21
          },
          {
            "time": 25.70631853125,
            "midi": 61,
            "name": "C#4",
            "velocity": 1,
            "duration": 0.08505903125000103,
            "ticks": 6951,
            "durationTicks": 23
          },
          {
            "time": 25.70631853125,
            "midi": 42,
            "name": "F#2",
            "velocity": 1,
            "duration": 0.07026615625000332,
            "ticks": 6951,
            "durationTicks": 19
          },
          {
            "time": 25.887531250000006,
            "midi": 38,
            "name": "D2",
            "velocity": 1,
            "duration": 0.08505903124999747,
            "ticks": 7000,
            "durationTicks": 23
          },
          {
            "time": 25.887531250000006,
            "midi": 61,
            "name": "C#4",
            "velocity": 1,
            "duration": 0.08505903124999747,
            "ticks": 7000,
            "durationTicks": 23
          },
          {
            "time": 25.887531250000006,
            "midi": 42,
            "name": "F#2",
            "velocity": 1,
            "duration": 0.07026615624999621,
            "ticks": 7000,
            "durationTicks": 19
          },
          {
            "time": 26.061347531250004,
            "midi": 61,
            "name": "C#4",
            "velocity": 1,
            "duration": 0.08505903124999747,
            "ticks": 7047,
            "durationTicks": 23
          },
          {
            "time": 26.061347531250004,
            "midi": 42,
            "name": "F#2",
            "velocity": 1,
            "duration": 0.07026615624999977,
            "ticks": 7047,
            "durationTicks": 19
          },
          {
            "time": 26.242560250000004,
            "midi": 36,
            "name": "C2",
            "velocity": 1,
            "duration": 0.08505903124999747,
            "ticks": 7096,
            "durationTicks": 23
          },
          {
            "time": 26.242560250000004,
            "midi": 61,
            "name": "C#4",
            "velocity": 1,
            "duration": 0.08505903124999747,
            "ticks": 7096,
            "durationTicks": 23
          },
          {
            "time": 26.242560250000004,
            "midi": 51,
            "name": "D#3",
            "velocity": 1,
            "duration": 0.32174503124999987,
            "ticks": 7096,
            "durationTicks": 87
          },
          {
            "time": 26.24625846875,
            "midi": 40,
            "name": "E2",
            "velocity": 1,
            "duration": 0.32174503124999987,
            "ticks": 7097,
            "durationTicks": 87
          },
          {
            "time": 26.24625846875,
            "midi": 42,
            "name": "F#2",
            "velocity": 1,
            "duration": 0.06656793750000034,
            "ticks": 7097,
            "durationTicks": 18
          },
          {
            "time": 26.416376531250002,
            "midi": 36,
            "name": "C2",
            "velocity": 1,
            "duration": 0.08875725000000045,
            "ticks": 7143,
            "durationTicks": 24
          },
          {
            "time": 26.416376531250002,
            "midi": 61,
            "name": "C#4",
            "velocity": 1,
            "duration": 0.08875725000000045,
            "ticks": 7143,
            "durationTicks": 24
          },
          {
            "time": 26.420074750000005,
            "midi": 42,
            "name": "F#2",
            "velocity": 1,
            "duration": 0.07766259374999862,
            "ticks": 7144,
            "durationTicks": 21
          },
          {
            "time": 26.597589250000006,
            "midi": 38,
            "name": "D2",
            "velocity": 1,
            "duration": 0.08505903124999747,
            "ticks": 7192,
            "durationTicks": 23
          },
          {
            "time": 26.597589250000006,
            "midi": 61,
            "name": "C#4",
            "velocity": 1,
            "duration": 0.08505903124999747,
            "ticks": 7192,
            "durationTicks": 23
          },
          {
            "time": 26.60128746875,
            "midi": 42,
            "name": "F#2",
            "velocity": 1,
            "duration": 0.08875725000000045,
            "ticks": 7193,
            "durationTicks": 24
          },
          {
            "time": 26.775103750000003,
            "midi": 61,
            "name": "C#4",
            "velocity": 1,
            "duration": 0.08505903125000103,
            "ticks": 7240,
            "durationTicks": 23
          },
          {
            "time": 26.775103750000003,
            "midi": 42,
            "name": "F#2",
            "velocity": 1,
            "duration": 0.09985190625000229,
            "ticks": 7240,
            "durationTicks": 27
          },
          {
            "time": 26.95631646875,
            "midi": 36,
            "name": "C2",
            "velocity": 1,
            "duration": 0.08505903125000458,
            "ticks": 7289,
            "durationTicks": 23
          },
          {
            "time": 26.95631646875,
            "midi": 61,
            "name": "C#4",
            "velocity": 1,
            "duration": 0.08505903125000458,
            "ticks": 7289,
            "durationTicks": 23
          },
          {
            "time": 26.95631646875,
            "midi": 42,
            "name": "F#2",
            "velocity": 1,
            "duration": 0.1294376562500048,
            "ticks": 7289,
            "durationTicks": 35
          },
          {
            "time": 27.130132750000005,
            "midi": 61,
            "name": "C#4",
            "velocity": 1,
            "duration": 0.08505903124999747,
            "ticks": 7336,
            "durationTicks": 23
          },
          {
            "time": 27.130132750000005,
            "midi": 42,
            "name": "F#2",
            "velocity": 1,
            "duration": 0.08875725000000045,
            "ticks": 7336,
            "durationTicks": 24
          },
          {
            "time": 27.31134546875,
            "midi": 38,
            "name": "D2",
            "velocity": 1,
            "duration": 0.08505903125000458,
            "ticks": 7385,
            "durationTicks": 23
          },
          {
            "time": 27.31134546875,
            "midi": 61,
            "name": "C#4",
            "velocity": 1,
            "duration": 0.08505903125000458,
            "ticks": 7385,
            "durationTicks": 23
          },
          {
            "time": 27.31134546875,
            "midi": 42,
            "name": "F#2",
            "velocity": 1,
            "duration": 0.07026615624999977,
            "ticks": 7385,
            "durationTicks": 19
          },
          {
            "time": 27.485161750000003,
            "midi": 61,
            "name": "C#4",
            "velocity": 1,
            "duration": 0.08505903125000103,
            "ticks": 7432,
            "durationTicks": 23
          },
          {
            "time": 27.488859968750003,
            "midi": 42,
            "name": "F#2",
            "velocity": 1,
            "duration": 0.07396437500000275,
            "ticks": 7433,
            "durationTicks": 20
          },
          {
            "time": 27.66637446875,
            "midi": 36,
            "name": "C2",
            "velocity": 1,
            "duration": 0.08505903125000458,
            "ticks": 7481,
            "durationTicks": 23
          },
          {
            "time": 27.66637446875,
            "midi": 61,
            "name": "C#4",
            "velocity": 1,
            "duration": 0.08505903125000458,
            "ticks": 7481,
            "durationTicks": 23
          },
          {
            "time": 27.670072687500003,
            "midi": 40,
            "name": "E2",
            "velocity": 1,
            "duration": 0.35133078124999884,
            "ticks": 7482,
            "durationTicks": 95
          },
          {
            "time": 27.670072687500003,
            "midi": 51,
            "name": "D#3",
            "velocity": 1,
            "duration": 0.37352009374999895,
            "ticks": 7482,
            "durationTicks": 101
          },
          {
            "time": 27.670072687500003,
            "midi": 42,
            "name": "F#2",
            "velocity": 1,
            "duration": 0.0739643749999992,
            "ticks": 7482,
            "durationTicks": 20
          },
          {
            "time": 27.84388896875,
            "midi": 36,
            "name": "C2",
            "velocity": 1,
            "duration": 0.08505903125000458,
            "ticks": 7529,
            "durationTicks": 23
          },
          {
            "time": 27.84388896875,
            "midi": 61,
            "name": "C#4",
            "velocity": 1,
            "duration": 0.08505903125000458,
            "ticks": 7529,
            "durationTicks": 23
          },
          {
            "time": 27.84388896875,
            "midi": 42,
            "name": "F#2",
            "velocity": 1,
            "duration": 0.07396437500000275,
            "ticks": 7529,
            "durationTicks": 20
          },
          {
            "time": 28.025101687500005,
            "midi": 38,
            "name": "D2",
            "velocity": 1,
            "duration": 0.08505903124999747,
            "ticks": 7578,
            "durationTicks": 23
          },
          {
            "time": 28.025101687500005,
            "midi": 61,
            "name": "C#4",
            "velocity": 1,
            "duration": 0.08505903124999747,
            "ticks": 7578,
            "durationTicks": 23
          },
          {
            "time": 28.025101687500005,
            "midi": 42,
            "name": "F#2",
            "velocity": 1,
            "duration": 0.08505903124999747,
            "ticks": 7578,
            "durationTicks": 23
          },
          {
            "time": 28.198917968750003,
            "midi": 61,
            "name": "C#4",
            "velocity": 1,
            "duration": 0.08505903125000103,
            "ticks": 7625,
            "durationTicks": 23
          },
          {
            "time": 28.198917968750003,
            "midi": 42,
            "name": "F#2",
            "velocity": 1,
            "duration": 0.08505903125000103,
            "ticks": 7625,
            "durationTicks": 23
          },
          {
            "time": 28.380130687500003,
            "midi": 36,
            "name": "C2",
            "velocity": 1,
            "duration": 0.08505903124999747,
            "ticks": 7674,
            "durationTicks": 23
          },
          {
            "time": 28.380130687500003,
            "midi": 61,
            "name": "C#4",
            "velocity": 1,
            "duration": 0.08505903124999747,
            "ticks": 7674,
            "durationTicks": 23
          },
          {
            "time": 28.380130687500003,
            "midi": 42,
            "name": "F#2",
            "velocity": 1,
            "duration": 0.11094656250000057,
            "ticks": 7674,
            "durationTicks": 30
          },
          {
            "time": 28.55394696875,
            "midi": 61,
            "name": "C#4",
            "velocity": 1,
            "duration": 0.08505903125000458,
            "ticks": 7721,
            "durationTicks": 23
          },
          {
            "time": 28.55394696875,
            "midi": 42,
            "name": "F#2",
            "velocity": 1,
            "duration": 0.08505903125000458,
            "ticks": 7721,
            "durationTicks": 23
          },
          {
            "time": 28.735159687500005,
            "midi": 38,
            "name": "D2",
            "velocity": 1,
            "duration": 0.08505903124999747,
            "ticks": 7770,
            "durationTicks": 23
          },
          {
            "time": 28.735159687500005,
            "midi": 61,
            "name": "C#4",
            "velocity": 1,
            "duration": 0.08505903124999747,
            "ticks": 7770,
            "durationTicks": 23
          },
          {
            "time": 28.738857906250004,
            "midi": 42,
            "name": "F#2",
            "velocity": 1,
            "duration": 0.07026615624999621,
            "ticks": 7771,
            "durationTicks": 19
          },
          {
            "time": 28.912674187500002,
            "midi": 61,
            "name": "C#4",
            "velocity": 1,
            "duration": 0.08505903125000103,
            "ticks": 7818,
            "durationTicks": 23
          },
          {
            "time": 28.912674187500002,
            "midi": 42,
            "name": "F#2",
            "velocity": 1,
            "duration": 0.08505903125000103,
            "ticks": 7818,
            "durationTicks": 23
          },
          {
            "time": 29.090188687500003,
            "midi": 36,
            "name": "C2",
            "velocity": 1,
            "duration": 0.08505903124999747,
            "ticks": 7866,
            "durationTicks": 23
          },
          {
            "time": 29.090188687500003,
            "midi": 61,
            "name": "C#4",
            "velocity": 1,
            "duration": 0.08875725000000045,
            "ticks": 7866,
            "durationTicks": 24
          },
          {
            "time": 29.093886906250006,
            "midi": 51,
            "name": "D#3",
            "velocity": 1,
            "duration": 0.3180468124999969,
            "ticks": 7867,
            "durationTicks": 86
          },
          {
            "time": 29.093886906250006,
            "midi": 40,
            "name": "E2",
            "velocity": 1,
            "duration": 0.32174503124999987,
            "ticks": 7867,
            "durationTicks": 87
          },
          {
            "time": 29.093886906250006,
            "midi": 42,
            "name": "F#2",
            "velocity": 1,
            "duration": 0.0813608124999945,
            "ticks": 7867,
            "durationTicks": 22
          },
          {
            "time": 29.267703187500004,
            "midi": 36,
            "name": "C2",
            "velocity": 1,
            "duration": 0.08505903124999747,
            "ticks": 7914,
            "durationTicks": 23
          },
          {
            "time": 29.267703187500004,
            "midi": 61,
            "name": "C#4",
            "velocity": 1,
            "duration": 0.08505903124999747,
            "ticks": 7914,
            "durationTicks": 23
          },
          {
            "time": 29.267703187500004,
            "midi": 42,
            "name": "F#2",
            "velocity": 1,
            "duration": 0.08875725000000045,
            "ticks": 7914,
            "durationTicks": 24
          },
          {
            "time": 29.448915906250004,
            "midi": 38,
            "name": "D2",
            "velocity": 1,
            "duration": 0.08505903124999747,
            "ticks": 7963,
            "durationTicks": 23
          },
          {
            "time": 29.448915906250004,
            "midi": 61,
            "name": "C#4",
            "velocity": 1,
            "duration": 0.08505903124999747,
            "ticks": 7963,
            "durationTicks": 23
          },
          {
            "time": 29.448915906250004,
            "midi": 42,
            "name": "F#2",
            "velocity": 1,
            "duration": 0.0739643749999992,
            "ticks": 7963,
            "durationTicks": 20
          },
          {
            "time": 29.622732187500002,
            "midi": 61,
            "name": "C#4",
            "velocity": 1,
            "duration": 0.08505903125000103,
            "ticks": 8010,
            "durationTicks": 23
          },
          {
            "time": 29.622732187500002,
            "midi": 42,
            "name": "F#2",
            "velocity": 1,
            "duration": 0.08505903125000103,
            "ticks": 8010,
            "durationTicks": 23
          },
          {
            "time": 29.803944906250006,
            "midi": 36,
            "name": "C2",
            "velocity": 1,
            "duration": 0.08505903124999747,
            "ticks": 8059,
            "durationTicks": 23
          },
          {
            "time": 29.803944906250006,
            "midi": 61,
            "name": "C#4",
            "velocity": 1,
            "duration": 0.08505903124999747,
            "ticks": 8059,
            "durationTicks": 23
          },
          {
            "time": 29.803944906250006,
            "midi": 42,
            "name": "F#2",
            "velocity": 1,
            "duration": 0.09245546874999633,
            "ticks": 8059,
            "durationTicks": 25
          },
          {
            "time": 29.807643125000002,
            "midi": 49,
            "name": "C#3",
            "velocity": 1,
            "duration": 1.2499979375000017,
            "ticks": 8060,
            "durationTicks": 338
          },
          {
            "time": 29.977761187500004,
            "midi": 61,
            "name": "C#4",
            "velocity": 1,
            "duration": 0.08505903124999747,
            "ticks": 8106,
            "durationTicks": 23
          },
          {
            "time": 29.977761187500004,
            "midi": 42,
            "name": "F#2",
            "velocity": 1,
            "duration": 0.07766259374999862,
            "ticks": 8106,
            "durationTicks": 21
          },
          {
            "time": 30.158973906250004,
            "midi": 38,
            "name": "D2",
            "velocity": 1,
            "duration": 0.08505903124999747,
            "ticks": 8155,
            "durationTicks": 23
          },
          {
            "time": 30.162672125,
            "midi": 61,
            "name": "C#4",
            "velocity": 1,
            "duration": 0.0813608125000016,
            "ticks": 8156,
            "durationTicks": 22
          },
          {
            "time": 30.162672125,
            "midi": 42,
            "name": "F#2",
            "velocity": 1,
            "duration": 0.07766259375000217,
            "ticks": 8156,
            "durationTicks": 21
          },
          {
            "time": 30.336488406250005,
            "midi": 61,
            "name": "C#4",
            "velocity": 1,
            "duration": 0.08505903124999747,
            "ticks": 8203,
            "durationTicks": 23
          },
          {
            "time": 30.336488406250005,
            "midi": 42,
            "name": "F#2",
            "velocity": 1,
            "duration": 0.08505903124999747,
            "ticks": 8203,
            "durationTicks": 23
          },
          {
            "time": 30.517701125000002,
            "midi": 36,
            "name": "C2",
            "velocity": 1,
            "duration": 0.08505903125000458,
            "ticks": 8252,
            "durationTicks": 23
          },
          {
            "time": 30.517701125000002,
            "midi": 61,
            "name": "C#4",
            "velocity": 1,
            "duration": 0.08505903125000458,
            "ticks": 8252,
            "durationTicks": 23
          },
          {
            "time": 30.517701125000002,
            "midi": 40,
            "name": "E2",
            "velocity": 1,
            "duration": 0.35502899999999826,
            "ticks": 8252,
            "durationTicks": 96
          },
          {
            "time": 30.517701125000002,
            "midi": 51,
            "name": "D#3",
            "velocity": 1,
            "duration": 0.3735200937500025,
            "ticks": 8252,
            "durationTicks": 101
          },
          {
            "time": 30.517701125000002,
            "midi": 42,
            "name": "F#2",
            "velocity": 1,
            "duration": 0.08505903125000458,
            "ticks": 8252,
            "durationTicks": 23
          },
          {
            "time": 30.691517406250004,
            "midi": 36,
            "name": "C2",
            "velocity": 1,
            "duration": 0.08505903125000103,
            "ticks": 8299,
            "durationTicks": 23
          },
          {
            "time": 30.691517406250004,
            "midi": 61,
            "name": "C#4",
            "velocity": 1,
            "duration": 0.08505903125000103,
            "ticks": 8299,
            "durationTicks": 23
          },
          {
            "time": 30.695215625000003,
            "midi": 42,
            "name": "F#2",
            "velocity": 1,
            "duration": 0.09245546874999988,
            "ticks": 8300,
            "durationTicks": 25
          },
          {
            "time": 30.872730125,
            "midi": 38,
            "name": "D2",
            "velocity": 1,
            "duration": 0.08505903125000458,
            "ticks": 8348,
            "durationTicks": 23
          },
          {
            "time": 30.872730125,
            "midi": 61,
            "name": "C#4",
            "velocity": 1,
            "duration": 0.08505903125000458,
            "ticks": 8348,
            "durationTicks": 23
          },
          {
            "time": 30.876428343750003,
            "midi": 42,
            "name": "F#2",
            "velocity": 1,
            "duration": 0.08505903124999747,
            "ticks": 8349,
            "durationTicks": 23
          },
          {
            "time": 31.046546406250005,
            "midi": 61,
            "name": "C#4",
            "velocity": 1,
            "duration": 0.08505903124999747,
            "ticks": 8395,
            "durationTicks": 23
          },
          {
            "time": 31.046546406250005,
            "midi": 42,
            "name": "F#2",
            "velocity": 1,
            "duration": 0.09615368749999931,
            "ticks": 8395,
            "durationTicks": 26
          },
          {
            "time": 31.227759125000002,
            "midi": 36,
            "name": "C2",
            "velocity": 1,
            "duration": 0.08505903125000458,
            "ticks": 8444,
            "durationTicks": 23
          },
          {
            "time": 31.227759125000002,
            "midi": 61,
            "name": "C#4",
            "velocity": 1,
            "duration": 0.08505903125000458,
            "ticks": 8444,
            "durationTicks": 23
          },
          {
            "time": 31.231457343750005,
            "midi": 42,
            "name": "F#2",
            "velocity": 1,
            "duration": 0.10355012500000171,
            "ticks": 8445,
            "durationTicks": 28
          },
          {
            "time": 31.405273625000003,
            "midi": 61,
            "name": "C#4",
            "velocity": 1,
            "duration": 0.08505903125000103,
            "ticks": 8492,
            "durationTicks": 23
          },
          {
            "time": 31.405273625000003,
            "midi": 42,
            "name": "F#2",
            "velocity": 1,
            "duration": 0.08505903125000103,
            "ticks": 8492,
            "durationTicks": 23
          },
          {
            "time": 31.582788125,
            "midi": 38,
            "name": "D2",
            "velocity": 1,
            "duration": 0.08505903125000458,
            "ticks": 8540,
            "durationTicks": 23
          },
          {
            "time": 31.582788125,
            "midi": 61,
            "name": "C#4",
            "velocity": 1,
            "duration": 0.08875725000000045,
            "ticks": 8540,
            "durationTicks": 24
          },
          {
            "time": 31.586486343750003,
            "midi": 42,
            "name": "F#2",
            "velocity": 1,
            "duration": 0.0813608125000016,
            "ticks": 8541,
            "durationTicks": 22
          },
          {
            "time": 31.760302625,
            "midi": 61,
            "name": "C#4",
            "velocity": 1,
            "duration": 0.08505903125000458,
            "ticks": 8588,
            "durationTicks": 23
          },
          {
            "time": 31.760302625,
            "midi": 42,
            "name": "F#2",
            "velocity": 1,
            "duration": 0.08875725000000045,
            "ticks": 8588,
            "durationTicks": 24
          },
          {
            "time": 31.941515343750005,
            "midi": 36,
            "name": "C2",
            "velocity": 1,
            "duration": 0.08505903124999747,
            "ticks": 8637,
            "durationTicks": 23
          },
          {
            "time": 31.941515343750005,
            "midi": 61,
            "name": "C#4",
            "velocity": 1,
            "duration": 0.08505903124999747,
            "ticks": 8637,
            "durationTicks": 23
          },
          {
            "time": 31.941515343750005,
            "midi": 51,
            "name": "D#3",
            "velocity": 1,
            "duration": 0.3217450312499963,
            "ticks": 8637,
            "durationTicks": 87
          },
          {
            "time": 31.941515343750005,
            "midi": 40,
            "name": "E2",
            "velocity": 1,
            "duration": 0.3254432499999993,
            "ticks": 8637,
            "durationTicks": 88
          },
          {
            "time": 31.945213562500005,
            "midi": 42,
            "name": "F#2",
            "velocity": 1,
            "duration": 0.08505903125000103,
            "ticks": 8638,
            "durationTicks": 23
          },
          {
            "time": 32.115331625,
            "midi": 36,
            "name": "C2",
            "velocity": 1,
            "duration": 0.08505903125000458,
            "ticks": 8684,
            "durationTicks": 23
          },
          {
            "time": 32.115331625,
            "midi": 61,
            "name": "C#4",
            "velocity": 1,
            "duration": 0.08505903125000458,
            "ticks": 8684,
            "durationTicks": 23
          },
          {
            "time": 32.119029843750006,
            "midi": 42,
            "name": "F#2",
            "velocity": 1,
            "duration": 0.08875725000000045,
            "ticks": 8685,
            "durationTicks": 24
          },
          {
            "time": 32.29654434375001,
            "midi": 38,
            "name": "D2",
            "velocity": 1,
            "duration": 0.08505903124999747,
            "ticks": 8733,
            "durationTicks": 23
          },
          {
            "time": 32.29654434375001,
            "midi": 61,
            "name": "C#4",
            "velocity": 1,
            "duration": 0.08505903124999747,
            "ticks": 8733,
            "durationTicks": 23
          },
          {
            "time": 32.3002425625,
            "midi": 42,
            "name": "F#2",
            "velocity": 1,
            "duration": 0.08505903124999747,
            "ticks": 8734,
            "durationTicks": 23
          },
          {
            "time": 32.47405884375,
            "midi": 61,
            "name": "C#4",
            "velocity": 1,
            "duration": 0.08505903125000458,
            "ticks": 8781,
            "durationTicks": 23
          },
          {
            "time": 32.47405884375,
            "midi": 42,
            "name": "F#2",
            "velocity": 1,
            "duration": 0.09245546875000343,
            "ticks": 8781,
            "durationTicks": 25
          },
          {
            "time": 32.65157334375,
            "midi": 36,
            "name": "C2",
            "velocity": 1,
            "duration": 0.08505903124999747,
            "ticks": 8829,
            "durationTicks": 23
          },
          {
            "time": 32.655271562500005,
            "midi": 61,
            "name": "C#4",
            "velocity": 1,
            "duration": 0.0813608124999945,
            "ticks": 8830,
            "durationTicks": 22
          },
          {
            "time": 32.655271562500005,
            "midi": 42,
            "name": "F#2",
            "velocity": 1,
            "duration": 0.08875725000000045,
            "ticks": 8830,
            "durationTicks": 24
          },
          {
            "time": 32.82908784375,
            "midi": 61,
            "name": "C#4",
            "velocity": 1,
            "duration": 0.08505903124999747,
            "ticks": 8877,
            "durationTicks": 23
          },
          {
            "time": 32.82908784375,
            "midi": 42,
            "name": "F#2",
            "velocity": 1,
            "duration": 0.09985190625000229,
            "ticks": 8877,
            "durationTicks": 27
          },
          {
            "time": 33.01030056250001,
            "midi": 38,
            "name": "D2",
            "velocity": 1,
            "duration": 0.08505903124999747,
            "ticks": 8926,
            "durationTicks": 23
          },
          {
            "time": 33.01030056250001,
            "midi": 61,
            "name": "C#4",
            "velocity": 1,
            "duration": 0.08505903124999747,
            "ticks": 8926,
            "durationTicks": 23
          },
          {
            "time": 33.01030056250001,
            "midi": 42,
            "name": "F#2",
            "velocity": 1,
            "duration": 0.08505903124999747,
            "ticks": 8926,
            "durationTicks": 23
          },
          {
            "time": 33.184116843750004,
            "midi": 61,
            "name": "C#4",
            "velocity": 1,
            "duration": 0.08505903124999747,
            "ticks": 8973,
            "durationTicks": 23
          },
          {
            "time": 33.184116843750004,
            "midi": 42,
            "name": "F#2",
            "velocity": 1,
            "duration": 0.08505903124999747,
            "ticks": 8973,
            "durationTicks": 23
          },
          {
            "time": 33.36532956250001,
            "midi": 36,
            "name": "C2",
            "velocity": 1,
            "duration": 0.08505903124999747,
            "ticks": 9022,
            "durationTicks": 23
          },
          {
            "time": 33.36532956250001,
            "midi": 61,
            "name": "C#4",
            "velocity": 1,
            "duration": 0.08505903124999747,
            "ticks": 9022,
            "durationTicks": 23
          },
          {
            "time": 33.36532956250001,
            "midi": 40,
            "name": "E2",
            "velocity": 1,
            "duration": 0.3550289999999947,
            "ticks": 9022,
            "durationTicks": 96
          },
          {
            "time": 33.369027781250004,
            "midi": 51,
            "name": "D#3",
            "velocity": 1,
            "duration": 0.3735200937500025,
            "ticks": 9023,
            "durationTicks": 101
          },
          {
            "time": 33.369027781250004,
            "midi": 42,
            "name": "F#2",
            "velocity": 1,
            "duration": 0.0813608125000016,
            "ticks": 9023,
            "durationTicks": 22
          },
          {
            "time": 33.539145843750006,
            "midi": 36,
            "name": "C2",
            "velocity": 1,
            "duration": 0.08505903124999747,
            "ticks": 9069,
            "durationTicks": 23
          },
          {
            "time": 33.5428440625,
            "midi": 61,
            "name": "C#4",
            "velocity": 1,
            "duration": 0.08505903125000458,
            "ticks": 9070,
            "durationTicks": 23
          },
          {
            "time": 33.5428440625,
            "midi": 42,
            "name": "F#2",
            "velocity": 1,
            "duration": 0.0813608125000016,
            "ticks": 9070,
            "durationTicks": 22
          },
          {
            "time": 33.72405678125,
            "midi": 38,
            "name": "D2",
            "velocity": 1,
            "duration": 0.0813608125000016,
            "ticks": 9119,
            "durationTicks": 22
          },
          {
            "time": 33.72405678125,
            "midi": 61,
            "name": "C#4",
            "velocity": 1,
            "duration": 0.0813608125000016,
            "ticks": 9119,
            "durationTicks": 22
          },
          {
            "time": 33.72405678125,
            "midi": 42,
            "name": "F#2",
            "velocity": 1,
            "duration": 0.08875725000000045,
            "ticks": 9119,
            "durationTicks": 24
          },
          {
            "time": 33.897873062500004,
            "midi": 61,
            "name": "C#4",
            "velocity": 1,
            "duration": 0.08505903124999747,
            "ticks": 9166,
            "durationTicks": 23
          },
          {
            "time": 33.897873062500004,
            "midi": 42,
            "name": "F#2",
            "velocity": 1,
            "duration": 0.08505903124999747,
            "ticks": 9166,
            "durationTicks": 23
          },
          {
            "time": 34.07908578125,
            "midi": 36,
            "name": "C2",
            "velocity": 1,
            "duration": 0.0813608125000016,
            "ticks": 9215,
            "durationTicks": 22
          },
          {
            "time": 34.07908578125,
            "midi": 61,
            "name": "C#4",
            "velocity": 1,
            "duration": 0.08505903125000458,
            "ticks": 9215,
            "durationTicks": 23
          },
          {
            "time": 34.07908578125,
            "midi": 42,
            "name": "F#2",
            "velocity": 1,
            "duration": 0.06286971875000802,
            "ticks": 9215,
            "durationTicks": 17
          },
          {
            "time": 34.252902062500006,
            "midi": 61,
            "name": "C#4",
            "velocity": 1,
            "duration": 0.08505903124999747,
            "ticks": 9262,
            "durationTicks": 23
          },
          {
            "time": 34.252902062500006,
            "midi": 42,
            "name": "F#2",
            "velocity": 1,
            "duration": 0.06656793749999679,
            "ticks": 9262,
            "durationTicks": 18
          },
          {
            "time": 34.43411478125,
            "midi": 38,
            "name": "D2",
            "velocity": 1,
            "duration": 0.08505903125000458,
            "ticks": 9311,
            "durationTicks": 23
          },
          {
            "time": 34.43411478125,
            "midi": 61,
            "name": "C#4",
            "velocity": 1,
            "duration": 0.08505903125000458,
            "ticks": 9311,
            "durationTicks": 23
          },
          {
            "time": 34.43411478125,
            "midi": 42,
            "name": "F#2",
            "velocity": 1,
            "duration": 0.07396437500000275,
            "ticks": 9311,
            "durationTicks": 20
          },
          {
            "time": 34.60793106250001,
            "midi": 61,
            "name": "C#4",
            "velocity": 1,
            "duration": 0.08505903124999747,
            "ticks": 9358,
            "durationTicks": 23
          },
          {
            "time": 34.61162928125,
            "midi": 42,
            "name": "F#2",
            "velocity": 1,
            "duration": 0.05177506249999908,
            "ticks": 9359,
            "durationTicks": 14
          },
          {
            "time": 34.789143781250004,
            "midi": 36,
            "name": "C2",
            "velocity": 1,
            "duration": 0.08505903125000458,
            "ticks": 9407,
            "durationTicks": 23
          },
          {
            "time": 34.789143781250004,
            "midi": 61,
            "name": "C#4",
            "velocity": 1,
            "duration": 0.08505903125000458,
            "ticks": 9407,
            "durationTicks": 23
          },
          {
            "time": 34.79284200000001,
            "midi": 51,
            "name": "D#3",
            "velocity": 1,
            "duration": 0.31804681249999334,
            "ticks": 9408,
            "durationTicks": 86
          },
          {
            "time": 34.79284200000001,
            "midi": 40,
            "name": "E2",
            "velocity": 1,
            "duration": 0.3217450312499963,
            "ticks": 9408,
            "durationTicks": 87
          },
          {
            "time": 34.79284200000001,
            "midi": 42,
            "name": "F#2",
            "velocity": 1,
            "duration": 0.07026615624999977,
            "ticks": 9408,
            "durationTicks": 19
          },
          {
            "time": 34.966658281250005,
            "midi": 36,
            "name": "C2",
            "velocity": 1,
            "duration": 0.08505903124999747,
            "ticks": 9455,
            "durationTicks": 23
          },
          {
            "time": 34.966658281250005,
            "midi": 61,
            "name": "C#4",
            "velocity": 1,
            "duration": 0.08505903124999747,
            "ticks": 9455,
            "durationTicks": 23
          },
          {
            "time": 34.966658281250005,
            "midi": 42,
            "name": "F#2",
            "velocity": 1,
            "duration": 0.08505903124999747,
            "ticks": 9455,
            "durationTicks": 23
          },
          {
            "time": 35.14417278125,
            "midi": 38,
            "name": "D2",
            "velocity": 1,
            "duration": 0.08505903125000458,
            "ticks": 9503,
            "durationTicks": 23
          },
          {
            "time": 35.14417278125,
            "midi": 61,
            "name": "C#4",
            "velocity": 1,
            "duration": 0.08875725000000045,
            "ticks": 9503,
            "durationTicks": 24
          },
          {
            "time": 35.147871,
            "midi": 42,
            "name": "F#2",
            "velocity": 1,
            "duration": 0.0813608125000016,
            "ticks": 9504,
            "durationTicks": 22
          },
          {
            "time": 35.32168728125,
            "midi": 38,
            "name": "D2",
            "velocity": 1,
            "duration": 0.08505903125000458,
            "ticks": 9551,
            "durationTicks": 23
          },
          {
            "time": 35.32168728125,
            "midi": 61,
            "name": "C#4",
            "velocity": 1,
            "duration": 0.08505903125000458,
            "ticks": 9551,
            "durationTicks": 23
          },
          {
            "time": 35.32168728125,
            "midi": 42,
            "name": "F#2",
            "velocity": 1,
            "duration": 0.08875725000000045,
            "ticks": 9551,
            "durationTicks": 24
          },
          {
            "time": 35.502900000000004,
            "midi": 36,
            "name": "C2",
            "velocity": 1,
            "duration": 0.08505903124999747,
            "ticks": 9600,
            "durationTicks": 23
          },
          {
            "time": 35.502900000000004,
            "midi": 61,
            "name": "C#4",
            "velocity": 1,
            "duration": 0.08505903124999747,
            "ticks": 9600,
            "durationTicks": 23
          },
          {
            "time": 35.502900000000004,
            "midi": 42,
            "name": "F#2",
            "velocity": 1,
            "duration": 0.08875725000000045,
            "ticks": 9600,
            "durationTicks": 24
          },
          {
            "time": 35.67671628125,
            "midi": 61,
            "name": "C#4",
            "velocity": 1,
            "duration": 0.08505903125000458,
            "ticks": 9647,
            "durationTicks": 23
          },
          {
            "time": 35.67671628125,
            "midi": 42,
            "name": "F#2",
            "velocity": 1,
            "duration": 0.07396437500000275,
            "ticks": 9647,
            "durationTicks": 20
          },
          {
            "time": 35.857929000000006,
            "midi": 38,
            "name": "D2",
            "velocity": 1,
            "duration": 0.08505903124999747,
            "ticks": 9696,
            "durationTicks": 23
          },
          {
            "time": 35.857929000000006,
            "midi": 61,
            "name": "C#4",
            "velocity": 1,
            "duration": 0.08505903124999747,
            "ticks": 9696,
            "durationTicks": 23
          },
          {
            "time": 35.857929000000006,
            "midi": 42,
            "name": "F#2",
            "velocity": 1,
            "duration": 0.0813608125000016,
            "ticks": 9696,
            "durationTicks": 22
          },
          {
            "time": 36.031745281250004,
            "midi": 61,
            "name": "C#4",
            "velocity": 1,
            "duration": 0.08875725000000045,
            "ticks": 9743,
            "durationTicks": 24
          },
          {
            "time": 36.031745281250004,
            "midi": 42,
            "name": "F#2",
            "velocity": 1,
            "duration": 0.08875725000000045,
            "ticks": 9743,
            "durationTicks": 24
          },
          {
            "time": 36.212958,
            "midi": 36,
            "name": "C2",
            "velocity": 1,
            "duration": 0.08505903125000458,
            "ticks": 9792,
            "durationTicks": 23
          },
          {
            "time": 36.21665621875,
            "midi": 61,
            "name": "C#4",
            "velocity": 1,
            "duration": 0.08505903124999747,
            "ticks": 9793,
            "durationTicks": 23
          },
          {
            "time": 36.21665621875,
            "midi": 40,
            "name": "E2",
            "velocity": 1,
            "duration": 0.3550290000000018,
            "ticks": 9793,
            "durationTicks": 96
          },
          {
            "time": 36.21665621875,
            "midi": 51,
            "name": "D#3",
            "velocity": 1,
            "duration": 0.3735200937500025,
            "ticks": 9793,
            "durationTicks": 101
          },
          {
            "time": 36.21665621875,
            "midi": 42,
            "name": "F#2",
            "velocity": 1,
            "duration": 0.0813608125000016,
            "ticks": 9793,
            "durationTicks": 22
          },
          {
            "time": 36.3904725,
            "midi": 36,
            "name": "C2",
            "velocity": 1,
            "duration": 0.08505903124999747,
            "ticks": 9840,
            "durationTicks": 23
          },
          {
            "time": 36.3904725,
            "midi": 61,
            "name": "C#4",
            "velocity": 1,
            "duration": 0.08505903124999747,
            "ticks": 9840,
            "durationTicks": 23
          },
          {
            "time": 36.3904725,
            "midi": 42,
            "name": "F#2",
            "velocity": 1,
            "duration": 0.09245546875000343,
            "ticks": 9840,
            "durationTicks": 25
          },
          {
            "time": 36.571685218750005,
            "midi": 38,
            "name": "D2",
            "velocity": 1,
            "duration": 0.08505903124999747,
            "ticks": 9889,
            "durationTicks": 23
          },
          {
            "time": 36.571685218750005,
            "midi": 61,
            "name": "C#4",
            "velocity": 1,
            "duration": 0.08505903124999747,
            "ticks": 9889,
            "durationTicks": 23
          },
          {
            "time": 36.571685218750005,
            "midi": 42,
            "name": "F#2",
            "velocity": 1,
            "duration": 0.08875725000000045,
            "ticks": 9889,
            "durationTicks": 24
          },
          {
            "time": 36.7455015,
            "midi": 61,
            "name": "C#4",
            "velocity": 1,
            "duration": 0.08505903124999747,
            "ticks": 9936,
            "durationTicks": 23
          },
          {
            "time": 36.7455015,
            "midi": 42,
            "name": "F#2",
            "velocity": 1,
            "duration": 0.09615368749999931,
            "ticks": 9936,
            "durationTicks": 26
          },
          {
            "time": 36.92671421875001,
            "midi": 36,
            "name": "C2",
            "velocity": 1,
            "duration": 0.08505903124999747,
            "ticks": 9985,
            "durationTicks": 23
          },
          {
            "time": 36.92671421875001,
            "midi": 61,
            "name": "C#4",
            "velocity": 1,
            "duration": 0.08505903124999747,
            "ticks": 9985,
            "durationTicks": 23
          },
          {
            "time": 36.92671421875001,
            "midi": 42,
            "name": "F#2",
            "velocity": 1,
            "duration": 0.10355012499999816,
            "ticks": 9985,
            "durationTicks": 28
          },
          {
            "time": 37.100530500000005,
            "midi": 61,
            "name": "C#4",
            "velocity": 1,
            "duration": 0.08505903124999747,
            "ticks": 10032,
            "durationTicks": 23
          },
          {
            "time": 37.10422871875001,
            "midi": 42,
            "name": "F#2",
            "velocity": 1,
            "duration": 0.0813608124999945,
            "ticks": 10033,
            "durationTicks": 22
          },
          {
            "time": 37.28174321875001,
            "midi": 38,
            "name": "D2",
            "velocity": 1,
            "duration": 0.08505903124999747,
            "ticks": 10081,
            "durationTicks": 23
          },
          {
            "time": 37.28174321875001,
            "midi": 61,
            "name": "C#4",
            "velocity": 1,
            "duration": 0.08505903124999747,
            "ticks": 10081,
            "durationTicks": 23
          },
          {
            "time": 37.285441437500005,
            "midi": 42,
            "name": "F#2",
            "velocity": 1,
            "duration": 0.0813608125000016,
            "ticks": 10082,
            "durationTicks": 22
          },
          {
            "time": 37.45925771875,
            "midi": 61,
            "name": "C#4",
            "velocity": 1,
            "duration": 0.08505903125000458,
            "ticks": 10129,
            "durationTicks": 23
          },
          {
            "time": 37.45925771875,
            "midi": 42,
            "name": "F#2",
            "velocity": 1,
            "duration": 0.08875725000000045,
            "ticks": 10129,
            "durationTicks": 24
          },
          {
            "time": 37.636772218750004,
            "midi": 36,
            "name": "C2",
            "velocity": 1,
            "duration": 0.08875725000000045,
            "ticks": 10177,
            "durationTicks": 24
          },
          {
            "time": 37.636772218750004,
            "midi": 61,
            "name": "C#4",
            "velocity": 1,
            "duration": 0.08875725000000045,
            "ticks": 10177,
            "durationTicks": 24
          },
          {
            "time": 37.6404704375,
            "midi": 51,
            "name": "D#3",
            "velocity": 1,
            "duration": 0.31804681250000755,
            "ticks": 10178,
            "durationTicks": 86
          },
          {
            "time": 37.6404704375,
            "midi": 40,
            "name": "E2",
            "velocity": 1,
            "duration": 0.3254432500000064,
            "ticks": 10178,
            "durationTicks": 88
          },
          {
            "time": 37.6404704375,
            "midi": 42,
            "name": "F#2",
            "velocity": 1,
            "duration": 0.08875725000000045,
            "ticks": 10178,
            "durationTicks": 24
          },
          {
            "time": 37.814286718750004,
            "midi": 36,
            "name": "C2",
            "velocity": 1,
            "duration": 0.08505903124999747,
            "ticks": 10225,
            "durationTicks": 23
          },
          {
            "time": 37.814286718750004,
            "midi": 61,
            "name": "C#4",
            "velocity": 1,
            "duration": 0.08505903124999747,
            "ticks": 10225,
            "durationTicks": 23
          },
          {
            "time": 37.814286718750004,
            "midi": 42,
            "name": "F#2",
            "velocity": 1,
            "duration": 0.08875725000000045,
            "ticks": 10225,
            "durationTicks": 24
          },
          {
            "time": 37.9954994375,
            "midi": 38,
            "name": "D2",
            "velocity": 1,
            "duration": 0.08505903125000458,
            "ticks": 10274,
            "durationTicks": 23
          },
          {
            "time": 37.9954994375,
            "midi": 61,
            "name": "C#4",
            "velocity": 1,
            "duration": 0.08505903125000458,
            "ticks": 10274,
            "durationTicks": 23
          },
          {
            "time": 37.9954994375,
            "midi": 42,
            "name": "F#2",
            "velocity": 1,
            "duration": 0.08875725000000045,
            "ticks": 10274,
            "durationTicks": 24
          },
          {
            "time": 38.169315718750006,
            "midi": 61,
            "name": "C#4",
            "velocity": 1,
            "duration": 0.08505903124999747,
            "ticks": 10321,
            "durationTicks": 23
          },
          {
            "time": 38.169315718750006,
            "midi": 42,
            "name": "F#2",
            "velocity": 1,
            "duration": 0.09615368749999931,
            "ticks": 10321,
            "durationTicks": 26
          },
          {
            "time": 38.3505284375,
            "midi": 36,
            "name": "C2",
            "velocity": 1,
            "duration": 0.08505903125000458,
            "ticks": 10370,
            "durationTicks": 23
          },
          {
            "time": 38.3505284375,
            "midi": 61,
            "name": "C#4",
            "velocity": 1,
            "duration": 0.08505903125000458,
            "ticks": 10370,
            "durationTicks": 23
          },
          {
            "time": 38.3505284375,
            "midi": 42,
            "name": "F#2",
            "velocity": 1,
            "duration": 0.08875725000000045,
            "ticks": 10370,
            "durationTicks": 24
          },
          {
            "time": 38.528042937500004,
            "midi": 61,
            "name": "C#4",
            "velocity": 1,
            "duration": 0.08505903125000458,
            "ticks": 10418,
            "durationTicks": 23
          },
          {
            "time": 38.528042937500004,
            "midi": 42,
            "name": "F#2",
            "velocity": 1,
            "duration": 0.09985190624999518,
            "ticks": 10418,
            "durationTicks": 27
          },
          {
            "time": 38.705557437500005,
            "midi": 38,
            "name": "D2",
            "velocity": 1,
            "duration": 0.08505903125000458,
            "ticks": 10466,
            "durationTicks": 23
          },
          {
            "time": 38.705557437500005,
            "midi": 61,
            "name": "C#4",
            "velocity": 1,
            "duration": 0.08875725000000045,
            "ticks": 10466,
            "durationTicks": 24
          },
          {
            "time": 38.70925565625,
            "midi": 42,
            "name": "F#2",
            "velocity": 1,
            "duration": 0.0813608125000087,
            "ticks": 10467,
            "durationTicks": 22
          },
          {
            "time": 38.883071937500006,
            "midi": 61,
            "name": "C#4",
            "velocity": 1,
            "duration": 0.08505903124999747,
            "ticks": 10514,
            "durationTicks": 23
          },
          {
            "time": 38.883071937500006,
            "midi": 42,
            "name": "F#2",
            "velocity": 1,
            "duration": 0.08505903124999747,
            "ticks": 10514,
            "durationTicks": 23
          },
          {
            "time": 39.06428465625,
            "midi": 36,
            "name": "C2",
            "velocity": 1,
            "duration": 0.08505903124999747,
            "ticks": 10563,
            "durationTicks": 23
          },
          {
            "time": 39.06428465625,
            "midi": 61,
            "name": "C#4",
            "velocity": 1,
            "duration": 0.08505903124999747,
            "ticks": 10563,
            "durationTicks": 23
          },
          {
            "time": 39.06428465625,
            "midi": 40,
            "name": "E2",
            "velocity": 1,
            "duration": 0.3550290000000018,
            "ticks": 10563,
            "durationTicks": 96
          },
          {
            "time": 39.06428465625,
            "midi": 51,
            "name": "D#3",
            "velocity": 1,
            "duration": 0.3735200937500025,
            "ticks": 10563,
            "durationTicks": 101
          },
          {
            "time": 39.067982875000006,
            "midi": 42,
            "name": "F#2",
            "velocity": 1,
            "duration": 0.0813608124999945,
            "ticks": 10564,
            "durationTicks": 22
          },
          {
            "time": 39.2381009375,
            "midi": 36,
            "name": "C2",
            "velocity": 1,
            "duration": 0.08505903125000458,
            "ticks": 10610,
            "durationTicks": 23
          },
          {
            "time": 39.2381009375,
            "midi": 61,
            "name": "C#4",
            "velocity": 1,
            "duration": 0.08875725000000045,
            "ticks": 10610,
            "durationTicks": 24
          },
          {
            "time": 39.24179915625,
            "midi": 42,
            "name": "F#2",
            "velocity": 1,
            "duration": 0.0813608125000016,
            "ticks": 10611,
            "durationTicks": 22
          },
          {
            "time": 39.419313656250004,
            "midi": 38,
            "name": "D2",
            "velocity": 1,
            "duration": 0.08505903124999747,
            "ticks": 10659,
            "durationTicks": 23
          },
          {
            "time": 39.419313656250004,
            "midi": 61,
            "name": "C#4",
            "velocity": 1,
            "duration": 0.08505903124999747,
            "ticks": 10659,
            "durationTicks": 23
          },
          {
            "time": 39.42301187500001,
            "midi": 42,
            "name": "F#2",
            "velocity": 1,
            "duration": 0.08505903124999747,
            "ticks": 10660,
            "durationTicks": 23
          },
          {
            "time": 39.5931299375,
            "midi": 61,
            "name": "C#4",
            "velocity": 1,
            "duration": 0.08505903125000458,
            "ticks": 10706,
            "durationTicks": 23
          },
          {
            "time": 39.596828156250005,
            "midi": 42,
            "name": "F#2",
            "velocity": 1,
            "duration": 0.0813608125000016,
            "ticks": 10707,
            "durationTicks": 22
          },
          {
            "time": 39.774342656250006,
            "midi": 36,
            "name": "C2",
            "velocity": 1,
            "duration": 0.08505903124999747,
            "ticks": 10755,
            "durationTicks": 23
          },
          {
            "time": 39.774342656250006,
            "midi": 61,
            "name": "C#4",
            "velocity": 1,
            "duration": 0.08505903124999747,
            "ticks": 10755,
            "durationTicks": 23
          },
          {
            "time": 39.77804087500001,
            "midi": 42,
            "name": "F#2",
            "velocity": 1,
            "duration": 0.06286971874999381,
            "ticks": 10756,
            "durationTicks": 17
          },
          {
            "time": 39.95185715625001,
            "midi": 61,
            "name": "C#4",
            "velocity": 1,
            "duration": 0.08505903124999747,
            "ticks": 10803,
            "durationTicks": 23
          },
          {
            "time": 39.95185715625001,
            "midi": 42,
            "name": "F#2",
            "velocity": 1,
            "duration": 0.06286971874999381,
            "ticks": 10803,
            "durationTicks": 17
          },
          {
            "time": 40.133069875000004,
            "midi": 38,
            "name": "D2",
            "velocity": 1,
            "duration": 0.0813608125000016,
            "ticks": 10852,
            "durationTicks": 22
          },
          {
            "time": 40.133069875000004,
            "midi": 61,
            "name": "C#4",
            "velocity": 1,
            "duration": 0.08505903124999747,
            "ticks": 10852,
            "durationTicks": 23
          },
          {
            "time": 40.133069875000004,
            "midi": 42,
            "name": "F#2",
            "velocity": 1,
            "duration": 0.07396437500000275,
            "ticks": 10852,
            "durationTicks": 20
          },
          {
            "time": 40.30688615625,
            "midi": 61,
            "name": "C#4",
            "velocity": 1,
            "duration": 0.08505903124999747,
            "ticks": 10899,
            "durationTicks": 23
          },
          {
            "time": 40.30688615625,
            "midi": 42,
            "name": "F#2",
            "velocity": 1,
            "duration": 0.05547328125000206,
            "ticks": 10899,
            "durationTicks": 15
          },
          {
            "time": 40.488098875000006,
            "midi": 36,
            "name": "C2",
            "velocity": 1,
            "duration": 0.08505903124999747,
            "ticks": 10948,
            "durationTicks": 23
          },
          {
            "time": 40.488098875000006,
            "midi": 61,
            "name": "C#4",
            "velocity": 1,
            "duration": 0.08505903124999747,
            "ticks": 10948,
            "durationTicks": 23
          },
          {
            "time": 40.488098875000006,
            "midi": 51,
            "name": "D#3",
            "velocity": 1,
            "duration": 0.3217450312500034,
            "ticks": 10948,
            "durationTicks": 87
          },
          {
            "time": 40.49179709375,
            "midi": 40,
            "name": "E2",
            "velocity": 1,
            "duration": 0.3217450312500034,
            "ticks": 10949,
            "durationTicks": 87
          },
          {
            "time": 40.49179709375,
            "midi": 42,
            "name": "F#2",
            "velocity": 1,
            "duration": 0.07026615624999977,
            "ticks": 10949,
            "durationTicks": 19
          },
          {
            "time": 40.661915156250004,
            "midi": 36,
            "name": "C2",
            "velocity": 1,
            "duration": 0.08505903124999747,
            "ticks": 10995,
            "durationTicks": 23
          },
          {
            "time": 40.66561337500001,
            "midi": 61,
            "name": "C#4",
            "velocity": 1,
            "duration": 0.08505903124999747,
            "ticks": 10996,
            "durationTicks": 23
          },
          {
            "time": 40.66561337500001,
            "midi": 42,
            "name": "F#2",
            "velocity": 1,
            "duration": 0.0813608124999945,
            "ticks": 10996,
            "durationTicks": 22
          },
          {
            "time": 40.84312787500001,
            "midi": 38,
            "name": "D2",
            "velocity": 1,
            "duration": 0.08505903124999747,
            "ticks": 11044,
            "durationTicks": 23
          },
          {
            "time": 40.84312787500001,
            "midi": 61,
            "name": "C#4",
            "velocity": 1,
            "duration": 0.08505903124999747,
            "ticks": 11044,
            "durationTicks": 23
          },
          {
            "time": 40.84682609375,
            "midi": 42,
            "name": "F#2",
            "velocity": 1,
            "duration": 0.0813608125000016,
            "ticks": 11045,
            "durationTicks": 22
          },
          {
            "time": 41.02064237500001,
            "midi": 61,
            "name": "C#4",
            "velocity": 1,
            "duration": 0.08505903124999747,
            "ticks": 11092,
            "durationTicks": 23
          },
          {
            "time": 41.02064237500001,
            "midi": 42,
            "name": "F#2",
            "velocity": 1,
            "duration": 0.08875725000000045,
            "ticks": 11092,
            "durationTicks": 24
          },
          {
            "time": 41.19815687500001,
            "midi": 36,
            "name": "C2",
            "velocity": 1,
            "duration": 0.08505903124999747,
            "ticks": 11140,
            "durationTicks": 23
          },
          {
            "time": 41.19815687500001,
            "midi": 61,
            "name": "C#4",
            "velocity": 1,
            "duration": 0.08505903124999747,
            "ticks": 11140,
            "durationTicks": 23
          },
          {
            "time": 41.201855093750005,
            "midi": 42,
            "name": "F#2",
            "velocity": 1,
            "duration": 0.09615368749999931,
            "ticks": 11141,
            "durationTicks": 26
          },
          {
            "time": 41.375671375,
            "midi": 61,
            "name": "C#4",
            "velocity": 1,
            "duration": 0.08505903125000458,
            "ticks": 11188,
            "durationTicks": 23
          },
          {
            "time": 41.375671375,
            "midi": 42,
            "name": "F#2",
            "velocity": 1,
            "duration": 0.08505903125000458,
            "ticks": 11188,
            "durationTicks": 23
          },
          {
            "time": 41.55688409375,
            "midi": 38,
            "name": "D2",
            "velocity": 1,
            "duration": 0.08505903125000458,
            "ticks": 11237,
            "durationTicks": 23
          },
          {
            "time": 41.55688409375,
            "midi": 61,
            "name": "C#4",
            "velocity": 1,
            "duration": 0.08505903125000458,
            "ticks": 11237,
            "durationTicks": 23
          },
          {
            "time": 41.55688409375,
            "midi": 42,
            "name": "F#2",
            "velocity": 1,
            "duration": 0.07766259375000573,
            "ticks": 11237,
            "durationTicks": 21
          },
          {
            "time": 41.730700375000005,
            "midi": 61,
            "name": "C#4",
            "velocity": 1,
            "duration": 0.08505903124999747,
            "ticks": 11284,
            "durationTicks": 23
          },
          {
            "time": 41.730700375000005,
            "midi": 42,
            "name": "F#2",
            "velocity": 1,
            "duration": 0.07396437500000275,
            "ticks": 11284,
            "durationTicks": 20
          },
          {
            "time": 41.91191309375,
            "midi": 36,
            "name": "C2",
            "velocity": 1,
            "duration": 0.08505903125000458,
            "ticks": 11333,
            "durationTicks": 23
          },
          {
            "time": 41.91191309375,
            "midi": 61,
            "name": "C#4",
            "velocity": 1,
            "duration": 0.08505903125000458,
            "ticks": 11333,
            "durationTicks": 23
          },
          {
            "time": 41.91191309375,
            "midi": 40,
            "name": "E2",
            "velocity": 1,
            "duration": 0.3550290000000018,
            "ticks": 11333,
            "durationTicks": 96
          },
          {
            "time": 41.915611312500005,
            "midi": 51,
            "name": "D#3",
            "velocity": 1,
            "duration": 0.3735200937499954,
            "ticks": 11334,
            "durationTicks": 101
          },
          {
            "time": 41.915611312500005,
            "midi": 42,
            "name": "F#2",
            "velocity": 1,
            "duration": 0.06656793749999679,
            "ticks": 11334,
            "durationTicks": 18
          },
          {
            "time": 42.08572937500001,
            "midi": 36,
            "name": "C2",
            "velocity": 1,
            "duration": 0.08875725000000045,
            "ticks": 11380,
            "durationTicks": 24
          },
          {
            "time": 42.08942759375,
            "midi": 61,
            "name": "C#4",
            "velocity": 1,
            "duration": 0.08505903125000458,
            "ticks": 11381,
            "durationTicks": 23
          },
          {
            "time": 42.08942759375,
            "midi": 42,
            "name": "F#2",
            "velocity": 1,
            "duration": 0.08505903125000458,
            "ticks": 11381,
            "durationTicks": 23
          },
          {
            "time": 42.27064031250001,
            "midi": 38,
            "name": "D2",
            "velocity": 1,
            "duration": 0.08505903124999747,
            "ticks": 11430,
            "durationTicks": 23
          },
          {
            "time": 42.27064031250001,
            "midi": 61,
            "name": "C#4",
            "velocity": 1,
            "duration": 0.0813608125000016,
            "ticks": 11430,
            "durationTicks": 22
          },
          {
            "time": 42.27064031250001,
            "midi": 42,
            "name": "F#2",
            "velocity": 1,
            "duration": 0.08875725000000045,
            "ticks": 11430,
            "durationTicks": 24
          },
          {
            "time": 42.444456593750004,
            "midi": 61,
            "name": "C#4",
            "velocity": 1,
            "duration": 0.08505903125000458,
            "ticks": 11477,
            "durationTicks": 23
          },
          {
            "time": 42.444456593750004,
            "midi": 42,
            "name": "F#2",
            "velocity": 1,
            "duration": 0.08505903125000458,
            "ticks": 11477,
            "durationTicks": 23
          },
          {
            "time": 42.6256693125,
            "midi": 36,
            "name": "C2",
            "velocity": 1,
            "duration": 0.08505903125000458,
            "ticks": 11526,
            "durationTicks": 23
          },
          {
            "time": 42.6256693125,
            "midi": 61,
            "name": "C#4",
            "velocity": 1,
            "duration": 0.08505903125000458,
            "ticks": 11526,
            "durationTicks": 23
          },
          {
            "time": 42.6256693125,
            "midi": 42,
            "name": "F#2",
            "velocity": 1,
            "duration": 0.07766259375000573,
            "ticks": 11526,
            "durationTicks": 21
          },
          {
            "time": 42.799485593750006,
            "midi": 61,
            "name": "C#4",
            "velocity": 1,
            "duration": 0.08505903124999747,
            "ticks": 11573,
            "durationTicks": 23
          },
          {
            "time": 42.799485593750006,
            "midi": 42,
            "name": "F#2",
            "velocity": 1,
            "duration": 0.07026615624999977,
            "ticks": 11573,
            "durationTicks": 19
          },
          {
            "time": 42.9806983125,
            "midi": 38,
            "name": "D2",
            "velocity": 1,
            "duration": 0.08505903124999747,
            "ticks": 11622,
            "durationTicks": 23
          },
          {
            "time": 42.9806983125,
            "midi": 61,
            "name": "C#4",
            "velocity": 1,
            "duration": 0.08505903124999747,
            "ticks": 11622,
            "durationTicks": 23
          },
          {
            "time": 42.9806983125,
            "midi": 42,
            "name": "F#2",
            "velocity": 1,
            "duration": 0.07026615625000687,
            "ticks": 11622,
            "durationTicks": 19
          },
          {
            "time": 43.15451459375,
            "midi": 61,
            "name": "C#4",
            "velocity": 1,
            "duration": 0.08505903125000458,
            "ticks": 11669,
            "durationTicks": 23
          },
          {
            "time": 43.158212812500004,
            "midi": 42,
            "name": "F#2",
            "velocity": 1,
            "duration": 0.0665679375000039,
            "ticks": 11670,
            "durationTicks": 18
          },
          {
            "time": 43.335727312500005,
            "midi": 36,
            "name": "C2",
            "velocity": 1,
            "duration": 0.08505903124999747,
            "ticks": 11718,
            "durationTicks": 23
          },
          {
            "time": 43.335727312500005,
            "midi": 61,
            "name": "C#4",
            "velocity": 1,
            "duration": 0.08505903124999747,
            "ticks": 11718,
            "durationTicks": 23
          },
          {
            "time": 43.33942553125001,
            "midi": 51,
            "name": "D#3",
            "velocity": 1,
            "duration": 0.31804681250000044,
            "ticks": 11719,
            "durationTicks": 86
          },
          {
            "time": 43.33942553125001,
            "midi": 40,
            "name": "E2",
            "velocity": 1,
            "duration": 0.3217450312499963,
            "ticks": 11719,
            "durationTicks": 87
          },
          {
            "time": 43.33942553125001,
            "midi": 42,
            "name": "F#2",
            "velocity": 1,
            "duration": 0.06656793749999679,
            "ticks": 11719,
            "durationTicks": 18
          },
          {
            "time": 43.513241812500006,
            "midi": 36,
            "name": "C2",
            "velocity": 1,
            "duration": 0.08505903124999747,
            "ticks": 11766,
            "durationTicks": 23
          },
          {
            "time": 43.513241812500006,
            "midi": 61,
            "name": "C#4",
            "velocity": 1,
            "duration": 0.08505903124999747,
            "ticks": 11766,
            "durationTicks": 23
          },
          {
            "time": 43.513241812500006,
            "midi": 42,
            "name": "F#2",
            "velocity": 1,
            "duration": 0.07766259374999862,
            "ticks": 11766,
            "durationTicks": 21
          },
          {
            "time": 43.69075631250001,
            "midi": 38,
            "name": "D2",
            "velocity": 1,
            "duration": 0.08875725000000045,
            "ticks": 11814,
            "durationTicks": 24
          },
          {
            "time": 43.69075631250001,
            "midi": 61,
            "name": "C#4",
            "velocity": 1,
            "duration": 0.08875725000000045,
            "ticks": 11814,
            "durationTicks": 24
          },
          {
            "time": 43.69445453125001,
            "midi": 42,
            "name": "F#2",
            "velocity": 1,
            "duration": 0.08875724999999335,
            "ticks": 11815,
            "durationTicks": 24
          },
          {
            "time": 43.86827081250001,
            "midi": 61,
            "name": "C#4",
            "velocity": 1,
            "duration": 0.08505903124999747,
            "ticks": 11862,
            "durationTicks": 23
          },
          {
            "time": 43.86827081250001,
            "midi": 42,
            "name": "F#2",
            "velocity": 1,
            "duration": 0.09985190624999518,
            "ticks": 11862,
            "durationTicks": 27
          },
          {
            "time": 44.049483531250004,
            "midi": 36,
            "name": "C2",
            "velocity": 1,
            "duration": 0.08505903124999747,
            "ticks": 11911,
            "durationTicks": 23
          },
          {
            "time": 44.049483531250004,
            "midi": 61,
            "name": "C#4",
            "velocity": 1,
            "duration": 0.08505903124999747,
            "ticks": 11911,
            "durationTicks": 23
          },
          {
            "time": 44.049483531250004,
            "midi": 42,
            "name": "F#2",
            "velocity": 1,
            "duration": 0.1294376562499977,
            "ticks": 11911,
            "durationTicks": 35
          },
          {
            "time": 44.2232998125,
            "midi": 61,
            "name": "C#4",
            "velocity": 1,
            "duration": 0.08505903124999747,
            "ticks": 11958,
            "durationTicks": 23
          },
          {
            "time": 44.2232998125,
            "midi": 42,
            "name": "F#2",
            "velocity": 1,
            "duration": 0.09245546875000343,
            "ticks": 11958,
            "durationTicks": 25
          },
          {
            "time": 44.404512531250006,
            "midi": 38,
            "name": "D2",
            "velocity": 1,
            "duration": 0.08505903124999747,
            "ticks": 12007,
            "durationTicks": 23
          },
          {
            "time": 44.404512531250006,
            "midi": 61,
            "name": "C#4",
            "velocity": 1,
            "duration": 0.08505903124999747,
            "ticks": 12007,
            "durationTicks": 23
          },
          {
            "time": 44.404512531250006,
            "midi": 42,
            "name": "F#2",
            "velocity": 1,
            "duration": 0.07026615624999977,
            "ticks": 12007,
            "durationTicks": 19
          },
          {
            "time": 44.58202703125001,
            "midi": 61,
            "name": "C#4",
            "velocity": 1,
            "duration": 0.08505903124999747,
            "ticks": 12055,
            "durationTicks": 23
          },
          {
            "time": 44.58202703125001,
            "midi": 42,
            "name": "F#2",
            "velocity": 1,
            "duration": 0.07396437499999564,
            "ticks": 12055,
            "durationTicks": 20
          },
          {
            "time": 44.75954153125001,
            "midi": 36,
            "name": "C2",
            "velocity": 1,
            "duration": 0.08505903124999747,
            "ticks": 12103,
            "durationTicks": 23
          },
          {
            "time": 44.75954153125001,
            "midi": 61,
            "name": "C#4",
            "velocity": 1,
            "duration": 0.08505903124999747,
            "ticks": 12103,
            "durationTicks": 23
          },
          {
            "time": 44.763239750000004,
            "midi": 40,
            "name": "E2",
            "velocity": 1,
            "duration": 0.3550290000000018,
            "ticks": 12104,
            "durationTicks": 96
          },
          {
            "time": 44.763239750000004,
            "midi": 51,
            "name": "D#3",
            "velocity": 1,
            "duration": 0.3735200937500025,
            "ticks": 12104,
            "durationTicks": 101
          },
          {
            "time": 44.763239750000004,
            "midi": 42,
            "name": "F#2",
            "velocity": 1,
            "duration": 0.07396437500000275,
            "ticks": 12104,
            "durationTicks": 20
          },
          {
            "time": 44.93705603125001,
            "midi": 36,
            "name": "C2",
            "velocity": 1,
            "duration": 0.08505903124999747,
            "ticks": 12151,
            "durationTicks": 23
          },
          {
            "time": 44.93705603125001,
            "midi": 61,
            "name": "C#4",
            "velocity": 1,
            "duration": 0.08505903124999747,
            "ticks": 12151,
            "durationTicks": 23
          },
          {
            "time": 44.93705603125001,
            "midi": 42,
            "name": "F#2",
            "velocity": 1,
            "duration": 0.07396437499999564,
            "ticks": 12151,
            "durationTicks": 20
          },
          {
            "time": 45.118268750000006,
            "midi": 38,
            "name": "D2",
            "velocity": 1,
            "duration": 0.08505903124999747,
            "ticks": 12200,
            "durationTicks": 23
          },
          {
            "time": 45.118268750000006,
            "midi": 61,
            "name": "C#4",
            "velocity": 1,
            "duration": 0.08505903124999747,
            "ticks": 12200,
            "durationTicks": 23
          },
          {
            "time": 45.118268750000006,
            "midi": 42,
            "name": "F#2",
            "velocity": 1,
            "duration": 0.08505903124999747,
            "ticks": 12200,
            "durationTicks": 23
          },
          {
            "time": 45.292085031250004,
            "midi": 61,
            "name": "C#4",
            "velocity": 1,
            "duration": 0.08505903125000458,
            "ticks": 12247,
            "durationTicks": 23
          },
          {
            "time": 45.292085031250004,
            "midi": 42,
            "name": "F#2",
            "velocity": 1,
            "duration": 0.08505903125000458,
            "ticks": 12247,
            "durationTicks": 23
          },
          {
            "time": 45.47329775000001,
            "midi": 36,
            "name": "C2",
            "velocity": 1,
            "duration": 0.08505903124999747,
            "ticks": 12296,
            "durationTicks": 23
          },
          {
            "time": 45.47329775000001,
            "midi": 61,
            "name": "C#4",
            "velocity": 1,
            "duration": 0.08505903124999747,
            "ticks": 12296,
            "durationTicks": 23
          },
          {
            "time": 45.47329775000001,
            "midi": 42,
            "name": "F#2",
            "velocity": 1,
            "duration": 0.11094656250000412,
            "ticks": 12296,
            "durationTicks": 30
          },
          {
            "time": 45.64711403125,
            "midi": 61,
            "name": "C#4",
            "velocity": 1,
            "duration": 0.08875725000000045,
            "ticks": 12343,
            "durationTicks": 24
          },
          {
            "time": 45.64711403125,
            "midi": 42,
            "name": "F#2",
            "velocity": 1,
            "duration": 0.08875725000000045,
            "ticks": 12343,
            "durationTicks": 24
          },
          {
            "time": 45.82832675000001,
            "midi": 38,
            "name": "D2",
            "velocity": 1,
            "duration": 0.08505903124999037,
            "ticks": 12392,
            "durationTicks": 23
          },
          {
            "time": 45.82832675000001,
            "midi": 61,
            "name": "C#4",
            "velocity": 1,
            "duration": 0.08505903124999037,
            "ticks": 12392,
            "durationTicks": 23
          },
          {
            "time": 45.832024968750005,
            "midi": 42,
            "name": "F#2",
            "velocity": 1,
            "duration": 0.07396437500000275,
            "ticks": 12393,
            "durationTicks": 20
          },
          {
            "time": 46.00584125000001,
            "midi": 61,
            "name": "C#4",
            "velocity": 1,
            "duration": 0.08505903124999037,
            "ticks": 12440,
            "durationTicks": 23
          },
          {
            "time": 46.00584125000001,
            "midi": 42,
            "name": "F#2",
            "velocity": 1,
            "duration": 0.08505903124999037,
            "ticks": 12440,
            "durationTicks": 23
          },
          {
            "time": 46.18705396875001,
            "midi": 36,
            "name": "C2",
            "velocity": 1,
            "duration": 0.08505903125000458,
            "ticks": 12489,
            "durationTicks": 23
          },
          {
            "time": 46.18705396875001,
            "midi": 61,
            "name": "C#4",
            "velocity": 1,
            "duration": 0.08505903125000458,
            "ticks": 12489,
            "durationTicks": 23
          },
          {
            "time": 46.18705396875001,
            "midi": 51,
            "name": "D#3",
            "velocity": 1,
            "duration": 0.31804681250000044,
            "ticks": 12489,
            "durationTicks": 86
          },
          {
            "time": 46.18705396875001,
            "midi": 40,
            "name": "E2",
            "velocity": 1,
            "duration": 0.3254432499999922,
            "ticks": 12489,
            "durationTicks": 88
          },
          {
            "time": 46.18705396875001,
            "midi": 42,
            "name": "F#2",
            "velocity": 1,
            "duration": 0.08505903125000458,
            "ticks": 12489,
            "durationTicks": 23
          },
          {
            "time": 46.360870250000005,
            "midi": 36,
            "name": "C2",
            "velocity": 1,
            "duration": 0.08505903124999747,
            "ticks": 12536,
            "durationTicks": 23
          },
          {
            "time": 46.360870250000005,
            "midi": 61,
            "name": "C#4",
            "velocity": 1,
            "duration": 0.08505903124999747,
            "ticks": 12536,
            "durationTicks": 23
          },
          {
            "time": 46.36456846875001,
            "midi": 42,
            "name": "F#2",
            "velocity": 1,
            "duration": 0.08505903124999747,
            "ticks": 12537,
            "durationTicks": 23
          },
          {
            "time": 46.54208296875,
            "midi": 38,
            "name": "D2",
            "velocity": 1,
            "duration": 0.08505903125000458,
            "ticks": 12585,
            "durationTicks": 23
          },
          {
            "time": 46.54208296875,
            "midi": 61,
            "name": "C#4",
            "velocity": 1,
            "duration": 0.08505903125000458,
            "ticks": 12585,
            "durationTicks": 23
          },
          {
            "time": 46.54208296875,
            "midi": 42,
            "name": "F#2",
            "velocity": 1,
            "duration": 0.07396437500000985,
            "ticks": 12585,
            "durationTicks": 20
          },
          {
            "time": 46.71589925000001,
            "midi": 61,
            "name": "C#4",
            "velocity": 1,
            "duration": 0.08505903124999747,
            "ticks": 12632,
            "durationTicks": 23
          },
          {
            "time": 46.71589925000001,
            "midi": 42,
            "name": "F#2",
            "velocity": 1,
            "duration": 0.08505903124999747,
            "ticks": 12632,
            "durationTicks": 23
          },
          {
            "time": 46.89711196875,
            "midi": 36,
            "name": "C2",
            "velocity": 1,
            "duration": 0.08505903125000458,
            "ticks": 12681,
            "durationTicks": 23
          },
          {
            "time": 46.89711196875,
            "midi": 61,
            "name": "C#4",
            "velocity": 1,
            "duration": 0.08505903125000458,
            "ticks": 12681,
            "durationTicks": 23
          },
          {
            "time": 46.9008101875,
            "midi": 42,
            "name": "F#2",
            "velocity": 1,
            "duration": 0.08875725000000045,
            "ticks": 12682,
            "durationTicks": 24
          },
          {
            "time": 46.9008101875,
            "midi": 49,
            "name": "C#3",
            "velocity": 1,
            "duration": 1.2499979375000052,
            "ticks": 12682,
            "durationTicks": 338
          },
          {
            "time": 47.074626468750004,
            "midi": 61,
            "name": "C#4",
            "velocity": 1,
            "duration": 0.08505903125000458,
            "ticks": 12729,
            "durationTicks": 23
          },
          {
            "time": 47.074626468750004,
            "midi": 42,
            "name": "F#2",
            "velocity": 1,
            "duration": 0.07396437500000275,
            "ticks": 12729,
            "durationTicks": 20
          },
          {
            "time": 47.252140968750005,
            "midi": 38,
            "name": "D2",
            "velocity": 1,
            "duration": 0.08505903125000458,
            "ticks": 12777,
            "durationTicks": 23
          },
          {
            "time": 47.2558391875,
            "midi": 61,
            "name": "C#4",
            "velocity": 1,
            "duration": 0.08505903125000458,
            "ticks": 12778,
            "durationTicks": 23
          },
          {
            "time": 47.2558391875,
            "midi": 42,
            "name": "F#2",
            "velocity": 1,
            "duration": 0.07766259374999862,
            "ticks": 12778,
            "durationTicks": 21
          },
          {
            "time": 47.429655468750006,
            "midi": 61,
            "name": "C#4",
            "velocity": 1,
            "duration": 0.08505903125000458,
            "ticks": 12825,
            "durationTicks": 23
          },
          {
            "time": 47.429655468750006,
            "midi": 42,
            "name": "F#2",
            "velocity": 1,
            "duration": 0.08505903125000458,
            "ticks": 12825,
            "durationTicks": 23
          },
          {
            "time": 47.6108681875,
            "midi": 36,
            "name": "C2",
            "velocity": 1,
            "duration": 0.08505903125000458,
            "ticks": 12874,
            "durationTicks": 23
          },
          {
            "time": 47.6108681875,
            "midi": 61,
            "name": "C#4",
            "velocity": 1,
            "duration": 0.08505903125000458,
            "ticks": 12874,
            "durationTicks": 23
          },
          {
            "time": 47.6108681875,
            "midi": 40,
            "name": "E2",
            "velocity": 1,
            "duration": 0.3550290000000018,
            "ticks": 12874,
            "durationTicks": 96
          },
          {
            "time": 47.6108681875,
            "midi": 51,
            "name": "D#3",
            "velocity": 1,
            "duration": 0.3772183124999984,
            "ticks": 12874,
            "durationTicks": 102
          },
          {
            "time": 47.614566406250006,
            "midi": 42,
            "name": "F#2",
            "velocity": 1,
            "duration": 0.0813608125000016,
            "ticks": 12875,
            "durationTicks": 22
          },
          {
            "time": 47.78468446875001,
            "midi": 36,
            "name": "C2",
            "velocity": 1,
            "duration": 0.08505903124999747,
            "ticks": 12921,
            "durationTicks": 23
          },
          {
            "time": 47.78468446875001,
            "midi": 61,
            "name": "C#4",
            "velocity": 1,
            "duration": 0.08505903124999747,
            "ticks": 12921,
            "durationTicks": 23
          },
          {
            "time": 47.788382687500004,
            "midi": 42,
            "name": "F#2",
            "velocity": 1,
            "duration": 0.09245546875000343,
            "ticks": 12922,
            "durationTicks": 25
          },
          {
            "time": 47.965897187500005,
            "midi": 38,
            "name": "D2",
            "velocity": 1,
            "duration": 0.08505903124999747,
            "ticks": 12970,
            "durationTicks": 23
          },
          {
            "time": 47.96959540625001,
            "midi": 61,
            "name": "C#4",
            "velocity": 1,
            "duration": 0.0813608124999945,
            "ticks": 12971,
            "durationTicks": 22
          },
          {
            "time": 47.96959540625001,
            "midi": 42,
            "name": "F#2",
            "velocity": 1,
            "duration": 0.08505903124999747,
            "ticks": 12971,
            "durationTicks": 23
          },
          {
            "time": 48.13971346875,
            "midi": 61,
            "name": "C#4",
            "velocity": 1,
            "duration": 0.08875725000000045,
            "ticks": 13017,
            "durationTicks": 24
          },
          {
            "time": 48.13971346875,
            "midi": 42,
            "name": "F#2",
            "velocity": 1,
            "duration": 0.09615368750000641,
            "ticks": 13017,
            "durationTicks": 26
          },
          {
            "time": 48.3209261875,
            "midi": 36,
            "name": "C2",
            "velocity": 1,
            "duration": 0.08505903125000458,
            "ticks": 13066,
            "durationTicks": 23
          },
          {
            "time": 48.32462440625001,
            "midi": 61,
            "name": "C#4",
            "velocity": 1,
            "duration": 0.0813608124999945,
            "ticks": 13067,
            "durationTicks": 22
          },
          {
            "time": 48.32462440625001,
            "midi": 42,
            "name": "F#2",
            "velocity": 1,
            "duration": 0.10355012499999816,
            "ticks": 13067,
            "durationTicks": 28
          },
          {
            "time": 48.4984406875,
            "midi": 61,
            "name": "C#4",
            "velocity": 1,
            "duration": 0.08505903125000458,
            "ticks": 13114,
            "durationTicks": 23
          },
          {
            "time": 48.4984406875,
            "midi": 42,
            "name": "F#2",
            "velocity": 1,
            "duration": 0.08505903125000458,
            "ticks": 13114,
            "durationTicks": 23
          },
          {
            "time": 48.67965340625001,
            "midi": 38,
            "name": "D2",
            "velocity": 1,
            "duration": 0.08505903124999037,
            "ticks": 13163,
            "durationTicks": 23
          },
          {
            "time": 48.67965340625001,
            "midi": 61,
            "name": "C#4",
            "velocity": 1,
            "duration": 0.08505903124999037,
            "ticks": 13163,
            "durationTicks": 23
          },
          {
            "time": 48.67965340625001,
            "midi": 42,
            "name": "F#2",
            "velocity": 1,
            "duration": 0.08505903124999037,
            "ticks": 13163,
            "durationTicks": 23
          },
          {
            "time": 48.8534696875,
            "midi": 61,
            "name": "C#4",
            "velocity": 1,
            "duration": 0.08505903125000458,
            "ticks": 13210,
            "durationTicks": 23
          },
          {
            "time": 48.8534696875,
            "midi": 42,
            "name": "F#2",
            "velocity": 1,
            "duration": 0.08875725000000045,
            "ticks": 13210,
            "durationTicks": 24
          },
          {
            "time": 49.034682406250006,
            "midi": 36,
            "name": "C2",
            "velocity": 1,
            "duration": 0.08505903124999747,
            "ticks": 13259,
            "durationTicks": 23
          },
          {
            "time": 49.034682406250006,
            "midi": 61,
            "name": "C#4",
            "velocity": 1,
            "duration": 0.08505903124999747,
            "ticks": 13259,
            "durationTicks": 23
          },
          {
            "time": 49.034682406250006,
            "midi": 51,
            "name": "D#3",
            "velocity": 1,
            "duration": 0.3217450312500034,
            "ticks": 13259,
            "durationTicks": 87
          },
          {
            "time": 49.038380625,
            "midi": 40,
            "name": "E2",
            "velocity": 1,
            "duration": 0.3217450312500034,
            "ticks": 13260,
            "durationTicks": 87
          },
          {
            "time": 49.038380625,
            "midi": 42,
            "name": "F#2",
            "velocity": 1,
            "duration": 0.08505903125000458,
            "ticks": 13260,
            "durationTicks": 23
          },
          {
            "time": 49.208498687500004,
            "midi": 36,
            "name": "C2",
            "velocity": 1,
            "duration": 0.08505903125000458,
            "ticks": 13306,
            "durationTicks": 23
          },
          {
            "time": 49.21219690625001,
            "midi": 61,
            "name": "C#4",
            "velocity": 1,
            "duration": 0.0813608125000016,
            "ticks": 13307,
            "durationTicks": 22
          },
          {
            "time": 49.21219690625001,
            "midi": 42,
            "name": "F#2",
            "velocity": 1,
            "duration": 0.08875725000000045,
            "ticks": 13307,
            "durationTicks": 24
          },
          {
            "time": 49.38971140625001,
            "midi": 38,
            "name": "D2",
            "velocity": 1,
            "duration": 0.08505903124999747,
            "ticks": 13355,
            "durationTicks": 23
          },
          {
            "time": 49.38971140625001,
            "midi": 61,
            "name": "C#4",
            "velocity": 1,
            "duration": 0.08505903124999747,
            "ticks": 13355,
            "durationTicks": 23
          },
          {
            "time": 49.393409625000004,
            "midi": 42,
            "name": "F#2",
            "velocity": 1,
            "duration": 0.08875725000000045,
            "ticks": 13356,
            "durationTicks": 24
          },
          {
            "time": 49.56722590625001,
            "midi": 61,
            "name": "C#4",
            "velocity": 1,
            "duration": 0.08505903124999037,
            "ticks": 13403,
            "durationTicks": 23
          },
          {
            "time": 49.56722590625001,
            "midi": 42,
            "name": "F#2",
            "velocity": 1,
            "duration": 0.09245546874999633,
            "ticks": 13403,
            "durationTicks": 25
          },
          {
            "time": 49.748438625000006,
            "midi": 36,
            "name": "C2",
            "velocity": 1,
            "duration": 0.08505903125000458,
            "ticks": 13452,
            "durationTicks": 23
          },
          {
            "time": 49.748438625000006,
            "midi": 61,
            "name": "C#4",
            "velocity": 1,
            "duration": 0.08505903125000458,
            "ticks": 13452,
            "durationTicks": 23
          },
          {
            "time": 49.748438625000006,
            "midi": 42,
            "name": "F#2",
            "velocity": 1,
            "duration": 0.08875725000000045,
            "ticks": 13452,
            "durationTicks": 24
          },
          {
            "time": 49.92225490625001,
            "midi": 61,
            "name": "C#4",
            "velocity": 1,
            "duration": 0.08505903124999037,
            "ticks": 13499,
            "durationTicks": 23
          },
          {
            "time": 49.92225490625001,
            "midi": 42,
            "name": "F#2",
            "velocity": 1,
            "duration": 0.09985190624999518,
            "ticks": 13499,
            "durationTicks": 27
          },
          {
            "time": 50.10346762500001,
            "midi": 38,
            "name": "D2",
            "velocity": 1,
            "duration": 0.08505903125000458,
            "ticks": 13548,
            "durationTicks": 23
          },
          {
            "time": 50.10346762500001,
            "midi": 61,
            "name": "C#4",
            "velocity": 1,
            "duration": 0.08505903125000458,
            "ticks": 13548,
            "durationTicks": 23
          },
          {
            "time": 50.10346762500001,
            "midi": 42,
            "name": "F#2",
            "velocity": 1,
            "duration": 0.08505903125000458,
            "ticks": 13548,
            "durationTicks": 23
          },
          {
            "time": 50.277283906250005,
            "midi": 61,
            "name": "C#4",
            "velocity": 1,
            "duration": 0.08505903124999747,
            "ticks": 13595,
            "durationTicks": 23
          },
          {
            "time": 50.277283906250005,
            "midi": 42,
            "name": "F#2",
            "velocity": 1,
            "duration": 0.08875725000000045,
            "ticks": 13595,
            "durationTicks": 24
          },
          {
            "time": 50.458496625,
            "midi": 36,
            "name": "C2",
            "velocity": 1,
            "duration": 0.08505903125000458,
            "ticks": 13644,
            "durationTicks": 23
          },
          {
            "time": 50.458496625,
            "midi": 61,
            "name": "C#4",
            "velocity": 1,
            "duration": 0.08505903125000458,
            "ticks": 13644,
            "durationTicks": 23
          },
          {
            "time": 50.458496625,
            "midi": 40,
            "name": "E2",
            "velocity": 1,
            "duration": 0.3550290000000018,
            "ticks": 13644,
            "durationTicks": 96
          },
          {
            "time": 50.462194843750005,
            "midi": 51,
            "name": "D#3",
            "velocity": 1,
            "duration": 0.3735200937500025,
            "ticks": 13645,
            "durationTicks": 101
          },
          {
            "time": 50.462194843750005,
            "midi": 42,
            "name": "F#2",
            "velocity": 1,
            "duration": 0.0813608125000016,
            "ticks": 13645,
            "durationTicks": 22
          },
          {
            "time": 50.636011125,
            "midi": 36,
            "name": "C2",
            "velocity": 1,
            "duration": 0.08505903125000458,
            "ticks": 13692,
            "durationTicks": 23
          },
          {
            "time": 50.636011125,
            "midi": 61,
            "name": "C#4",
            "velocity": 1,
            "duration": 0.08505903125000458,
            "ticks": 13692,
            "durationTicks": 23
          },
          {
            "time": 50.636011125,
            "midi": 42,
            "name": "F#2",
            "velocity": 1,
            "duration": 0.08505903125000458,
            "ticks": 13692,
            "durationTicks": 23
          },
          {
            "time": 50.81722384375,
            "midi": 38,
            "name": "D2",
            "velocity": 1,
            "duration": 0.0813608125000087,
            "ticks": 13741,
            "durationTicks": 22
          },
          {
            "time": 50.81722384375,
            "midi": 61,
            "name": "C#4",
            "velocity": 1,
            "duration": 0.0813608125000087,
            "ticks": 13741,
            "durationTicks": 22
          },
          {
            "time": 50.81722384375,
            "midi": 42,
            "name": "F#2",
            "velocity": 1,
            "duration": 0.08875725000000045,
            "ticks": 13741,
            "durationTicks": 24
          },
          {
            "time": 50.991040125000005,
            "midi": 61,
            "name": "C#4",
            "velocity": 1,
            "duration": 0.08505903125000458,
            "ticks": 13788,
            "durationTicks": 23
          },
          {
            "time": 50.991040125000005,
            "midi": 42,
            "name": "F#2",
            "velocity": 1,
            "duration": 0.08505903125000458,
            "ticks": 13788,
            "durationTicks": 23
          },
          {
            "time": 51.17225284375,
            "midi": 36,
            "name": "C2",
            "velocity": 1,
            "duration": 0.08505903125000458,
            "ticks": 13837,
            "durationTicks": 23
          },
          {
            "time": 51.17225284375,
            "midi": 61,
            "name": "C#4",
            "velocity": 1,
            "duration": 0.08505903125000458,
            "ticks": 13837,
            "durationTicks": 23
          },
          {
            "time": 51.17225284375,
            "midi": 42,
            "name": "F#2",
            "velocity": 1,
            "duration": 0.06286971875000091,
            "ticks": 13837,
            "durationTicks": 17
          },
          {
            "time": 51.34606912500001,
            "midi": 61,
            "name": "C#4",
            "velocity": 1,
            "duration": 0.08505903125000458,
            "ticks": 13884,
            "durationTicks": 23
          },
          {
            "time": 51.34606912500001,
            "midi": 42,
            "name": "F#2",
            "velocity": 1,
            "duration": 0.06656793749999679,
            "ticks": 13884,
            "durationTicks": 18
          },
          {
            "time": 51.52728184375,
            "midi": 38,
            "name": "D2",
            "velocity": 1,
            "duration": 0.08505903125000458,
            "ticks": 13933,
            "durationTicks": 23
          },
          {
            "time": 51.52728184375,
            "midi": 61,
            "name": "C#4",
            "velocity": 1,
            "duration": 0.08505903125000458,
            "ticks": 13933,
            "durationTicks": 23
          },
          {
            "time": 51.52728184375,
            "midi": 42,
            "name": "F#2",
            "velocity": 1,
            "duration": 0.07396437500000275,
            "ticks": 13933,
            "durationTicks": 20
          },
          {
            "time": 51.70109812500001,
            "midi": 61,
            "name": "C#4",
            "velocity": 1,
            "duration": 0.08505903124999747,
            "ticks": 13980,
            "durationTicks": 23
          },
          {
            "time": 51.70109812500001,
            "midi": 42,
            "name": "F#2",
            "velocity": 1,
            "duration": 0.055473281249994955,
            "ticks": 13980,
            "durationTicks": 15
          },
          {
            "time": 51.882310843750005,
            "midi": 36,
            "name": "C2",
            "velocity": 1,
            "duration": 0.08505903124999747,
            "ticks": 14029,
            "durationTicks": 23
          },
          {
            "time": 51.882310843750005,
            "midi": 61,
            "name": "C#4",
            "velocity": 1,
            "duration": 0.08505903124999747,
            "ticks": 14029,
            "durationTicks": 23
          },
          {
            "time": 51.88600906250001,
            "midi": 51,
            "name": "D#3",
            "velocity": 1,
            "duration": 0.31804681249999334,
            "ticks": 14030,
            "durationTicks": 86
          },
          {
            "time": 51.88600906250001,
            "midi": 40,
            "name": "E2",
            "velocity": 1,
            "duration": 0.3217450312500034,
            "ticks": 14030,
            "durationTicks": 87
          },
          {
            "time": 51.88600906250001,
            "midi": 42,
            "name": "F#2",
            "velocity": 1,
            "duration": 0.07396437499999564,
            "ticks": 14030,
            "durationTicks": 20
          },
          {
            "time": 52.05982534375,
            "midi": 36,
            "name": "C2",
            "velocity": 1,
            "duration": 0.08505903125000458,
            "ticks": 14077,
            "durationTicks": 23
          },
          {
            "time": 52.05982534375,
            "midi": 61,
            "name": "C#4",
            "velocity": 1,
            "duration": 0.08505903125000458,
            "ticks": 14077,
            "durationTicks": 23
          },
          {
            "time": 52.05982534375,
            "midi": 42,
            "name": "F#2",
            "velocity": 1,
            "duration": 0.08505903125000458,
            "ticks": 14077,
            "durationTicks": 23
          },
          {
            "time": 52.24103806250001,
            "midi": 38,
            "name": "D2",
            "velocity": 1,
            "duration": 0.08505903124999037,
            "ticks": 14126,
            "durationTicks": 23
          },
          {
            "time": 52.24103806250001,
            "midi": 61,
            "name": "C#4",
            "velocity": 1,
            "duration": 0.08505903124999037,
            "ticks": 14126,
            "durationTicks": 23
          },
          {
            "time": 52.24103806250001,
            "midi": 42,
            "name": "F#2",
            "velocity": 1,
            "duration": 0.08505903124999037,
            "ticks": 14126,
            "durationTicks": 23
          },
          {
            "time": 52.41485434375,
            "midi": 38,
            "name": "D2",
            "velocity": 1,
            "duration": 0.08505903125000458,
            "ticks": 14173,
            "durationTicks": 23
          },
          {
            "time": 52.41485434375,
            "midi": 61,
            "name": "C#4",
            "velocity": 1,
            "duration": 0.08505903125000458,
            "ticks": 14173,
            "durationTicks": 23
          },
          {
            "time": 52.41485434375,
            "midi": 42,
            "name": "F#2",
            "velocity": 1,
            "duration": 0.08875725000000045,
            "ticks": 14173,
            "durationTicks": 24
          },
          {
            "time": 52.59606706250001,
            "midi": 36,
            "name": "C2",
            "velocity": 1,
            "duration": 0.08505903124999037,
            "ticks": 14222,
            "durationTicks": 23
          },
          {
            "time": 52.59606706250001,
            "midi": 42,
            "name": "F#2",
            "velocity": 1,
            "duration": 0.08875725000000045,
            "ticks": 14222,
            "durationTicks": 24
          },
          {
            "time": 52.76988334375,
            "midi": 42,
            "name": "F#2",
            "velocity": 1,
            "duration": 0.07766259374999862,
            "ticks": 14269,
            "durationTicks": 21
          },
          {
            "time": 52.95109606250001,
            "midi": 36,
            "name": "C2",
            "velocity": 1,
            "duration": 0.08505903124999747,
            "ticks": 14318,
            "durationTicks": 23
          },
          {
            "time": 52.95109606250001,
            "midi": 38,
            "name": "D2",
            "velocity": 1,
            "duration": 0.08505903124999747,
            "ticks": 14318,
            "durationTicks": 23
          },
          {
            "time": 52.95479428125,
            "midi": 42,
            "name": "F#2",
            "velocity": 1,
            "duration": 0.07766259375000573,
            "ticks": 14319,
            "durationTicks": 21
          },
          {
            "time": 53.12861056250001,
            "midi": 42,
            "name": "F#2",
            "velocity": 1,
            "duration": 0.08505903124999747,
            "ticks": 14366,
            "durationTicks": 23
          },
          {
            "time": 53.30612506250001,
            "midi": 36,
            "name": "C2",
            "velocity": 1,
            "duration": 0.08505903124999747,
            "ticks": 14414,
            "durationTicks": 23
          },
          {
            "time": 53.30612506250001,
            "midi": 42,
            "name": "F#2",
            "velocity": 1,
            "duration": 0.08505903124999747,
            "ticks": 14414,
            "durationTicks": 23
          },
          {
            "time": 53.48363956250001,
            "midi": 42,
            "name": "F#2",
            "velocity": 1,
            "duration": 0.0961536874999922,
            "ticks": 14462,
            "durationTicks": 26
          },
          {
            "time": 53.664852281250006,
            "midi": 36,
            "name": "C2",
            "velocity": 1,
            "duration": 0.08505903125000458,
            "ticks": 14511,
            "durationTicks": 23
          },
          {
            "time": 53.664852281250006,
            "midi": 38,
            "name": "D2",
            "velocity": 1,
            "duration": 0.08505903125000458,
            "ticks": 14511,
            "durationTicks": 23
          },
          {
            "time": 53.664852281250006,
            "midi": 42,
            "name": "F#2",
            "velocity": 1,
            "duration": 0.08875725000000045,
            "ticks": 14511,
            "durationTicks": 24
          },
          {
            "time": 53.83866856250001,
            "midi": 42,
            "name": "F#2",
            "velocity": 1,
            "duration": 0.0961536874999922,
            "ticks": 14558,
            "durationTicks": 26
          },
          {
            "time": 54.01988128125001,
            "midi": 36,
            "name": "C2",
            "velocity": 1,
            "duration": 0.08505903125000458,
            "ticks": 14607,
            "durationTicks": 23
          },
          {
            "time": 54.01988128125001,
            "midi": 42,
            "name": "F#2",
            "velocity": 1,
            "duration": 0.10355012499999106,
            "ticks": 14607,
            "durationTicks": 28
          },
          {
            "time": 54.193697562500006,
            "midi": 42,
            "name": "F#2",
            "velocity": 1,
            "duration": 0.08875725000000045,
            "ticks": 14654,
            "durationTicks": 24
          },
          {
            "time": 54.37491028125,
            "midi": 38,
            "name": "D2",
            "velocity": 1,
            "duration": 0.08505903125000458,
            "ticks": 14703,
            "durationTicks": 23
          },
          {
            "time": 54.37491028125,
            "midi": 36,
            "name": "C2",
            "velocity": 1,
            "duration": 0.08875725000000045,
            "ticks": 14703,
            "durationTicks": 24
          },
          {
            "time": 54.378608500000006,
            "midi": 42,
            "name": "F#2",
            "velocity": 1,
            "duration": 0.0813608125000016,
            "ticks": 14704,
            "durationTicks": 22
          },
          {
            "time": 54.552424781250004,
            "midi": 42,
            "name": "F#2",
            "velocity": 1,
            "duration": 0.08875725000000045,
            "ticks": 14751,
            "durationTicks": 24
          },
          {
            "time": 54.7336375,
            "midi": 36,
            "name": "C2",
            "velocity": 1,
            "duration": 0.08505903125000458,
            "ticks": 14800,
            "durationTicks": 23
          },
          {
            "time": 54.7336375,
            "midi": 42,
            "name": "F#2",
            "velocity": 1,
            "duration": 0.08875725000000045,
            "ticks": 14800,
            "durationTicks": 24
          },
          {
            "time": 54.907453781250005,
            "midi": 42,
            "name": "F#2",
            "velocity": 1,
            "duration": 0.08875725000000045,
            "ticks": 14847,
            "durationTicks": 24
          },
          {
            "time": 55.0886665,
            "midi": 36,
            "name": "C2",
            "velocity": 1,
            "duration": 0.08505903125000458,
            "ticks": 14896,
            "durationTicks": 23
          },
          {
            "time": 55.0886665,
            "midi": 38,
            "name": "D2",
            "velocity": 1,
            "duration": 0.08505903125000458,
            "ticks": 14896,
            "durationTicks": 23
          },
          {
            "time": 55.0886665,
            "midi": 42,
            "name": "F#2",
            "velocity": 1,
            "duration": 0.08875725000000045,
            "ticks": 14896,
            "durationTicks": 24
          },
          {
            "time": 55.26248278125001,
            "midi": 42,
            "name": "F#2",
            "velocity": 1,
            "duration": 0.09615368749999931,
            "ticks": 14943,
            "durationTicks": 26
          },
          {
            "time": 55.443695500000004,
            "midi": 36,
            "name": "C2",
            "velocity": 1,
            "duration": 0.08505903125000458,
            "ticks": 14992,
            "durationTicks": 23
          },
          {
            "time": 55.443695500000004,
            "midi": 42,
            "name": "F#2",
            "velocity": 1,
            "duration": 0.09245546875000343,
            "ticks": 14992,
            "durationTicks": 25
          },
          {
            "time": 55.621210000000005,
            "midi": 42,
            "name": "F#2",
            "velocity": 1,
            "duration": 0.09985190624999518,
            "ticks": 15040,
            "durationTicks": 27
          },
          {
            "time": 55.80242271875001,
            "midi": 38,
            "name": "D2",
            "velocity": 1,
            "duration": 0.08505903124999747,
            "ticks": 15089,
            "durationTicks": 23
          },
          {
            "time": 55.80242271875001,
            "midi": 36,
            "name": "C2",
            "velocity": 1,
            "duration": 0.08505903124999747,
            "ticks": 15089,
            "durationTicks": 23
          },
          {
            "time": 55.80242271875001,
            "midi": 42,
            "name": "F#2",
            "velocity": 1,
            "duration": 0.08505903124999747,
            "ticks": 15089,
            "durationTicks": 23
          },
          {
            "time": 55.976239,
            "midi": 42,
            "name": "F#2",
            "velocity": 1,
            "duration": 0.08505903125000458,
            "ticks": 15136,
            "durationTicks": 23
          },
          {
            "time": 56.15745171875001,
            "midi": 36,
            "name": "C2",
            "velocity": 1,
            "duration": 0.08505903124999037,
            "ticks": 15185,
            "durationTicks": 23
          },
          {
            "time": 56.15745171875001,
            "midi": 42,
            "name": "F#2",
            "velocity": 1,
            "duration": 0.08505903124999037,
            "ticks": 15185,
            "durationTicks": 23
          },
          {
            "time": 56.331268,
            "midi": 42,
            "name": "F#2",
            "velocity": 1,
            "duration": 0.08505903125000458,
            "ticks": 15232,
            "durationTicks": 23
          },
          {
            "time": 56.51248071875001,
            "midi": 38,
            "name": "D2",
            "velocity": 1,
            "duration": 0.08505903124999037,
            "ticks": 15281,
            "durationTicks": 23
          },
          {
            "time": 56.51248071875001,
            "midi": 36,
            "name": "C2",
            "velocity": 1,
            "duration": 0.08505903124999037,
            "ticks": 15281,
            "durationTicks": 23
          },
          {
            "time": 56.51617893750001,
            "midi": 42,
            "name": "F#2",
            "velocity": 1,
            "duration": 0.08875725000000045,
            "ticks": 15282,
            "durationTicks": 24
          },
          {
            "time": 56.689995218750006,
            "midi": 42,
            "name": "F#2",
            "velocity": 1,
            "duration": 0.08505903124999747,
            "ticks": 15329,
            "durationTicks": 23
          },
          {
            "time": 56.86750971875001,
            "midi": 36,
            "name": "C2",
            "velocity": 1,
            "duration": 0.08505903124999747,
            "ticks": 15377,
            "durationTicks": 23
          },
          {
            "time": 56.8712079375,
            "midi": 42,
            "name": "F#2",
            "velocity": 1,
            "duration": 0.06286971875000802,
            "ticks": 15378,
            "durationTicks": 17
          },
          {
            "time": 57.04502421875001,
            "midi": 42,
            "name": "F#2",
            "velocity": 1,
            "duration": 0.0665679375000039,
            "ticks": 15425,
            "durationTicks": 18
          },
          {
            "time": 57.226236937500005,
            "midi": 36,
            "name": "C2",
            "velocity": 1,
            "duration": 0.08505903125000458,
            "ticks": 15474,
            "durationTicks": 23
          },
          {
            "time": 57.226236937500005,
            "midi": 38,
            "name": "D2",
            "velocity": 1,
            "duration": 0.08505903125000458,
            "ticks": 15474,
            "durationTicks": 23
          },
          {
            "time": 57.226236937500005,
            "midi": 42,
            "name": "F#2",
            "velocity": 1,
            "duration": 0.07396437500000275,
            "ticks": 15474,
            "durationTicks": 20
          },
          {
            "time": 57.40005321875001,
            "midi": 42,
            "name": "F#2",
            "velocity": 1,
            "duration": 0.05547328125000206,
            "ticks": 15521,
            "durationTicks": 15
          },
          {
            "time": 57.58126593750001,
            "midi": 36,
            "name": "C2",
            "velocity": 1,
            "duration": 0.08505903125000458,
            "ticks": 15570,
            "durationTicks": 23
          },
          {
            "time": 57.58126593750001,
            "midi": 42,
            "name": "F#2",
            "velocity": 1,
            "duration": 0.0813608124999945,
            "ticks": 15570,
            "durationTicks": 22
          },
          {
            "time": 57.75508221875001,
            "midi": 42,
            "name": "F#2",
            "velocity": 1,
            "duration": 0.08875725000000045,
            "ticks": 15617,
            "durationTicks": 24
          },
          {
            "time": 57.93629493750001,
            "midi": 36,
            "name": "C2",
            "velocity": 1,
            "duration": 0.08505903125000458,
            "ticks": 15666,
            "durationTicks": 23
          },
          {
            "time": 57.93629493750001,
            "midi": 38,
            "name": "D2",
            "velocity": 1,
            "duration": 0.08875725000000045,
            "ticks": 15666,
            "durationTicks": 24
          },
          {
            "time": 57.939993156250004,
            "midi": 42,
            "name": "F#2",
            "velocity": 1,
            "duration": 0.0813608125000087,
            "ticks": 15667,
            "durationTicks": 22
          },
          {
            "time": 58.11380943750001,
            "midi": 42,
            "name": "F#2",
            "velocity": 1,
            "duration": 0.08875725000000045,
            "ticks": 15714,
            "durationTicks": 24
          },
          {
            "time": 58.295022156250006,
            "midi": 36,
            "name": "C2",
            "velocity": 1,
            "duration": 0.08505903124999747,
            "ticks": 15763,
            "durationTicks": 23
          },
          {
            "time": 58.295022156250006,
            "midi": 42,
            "name": "F#2",
            "velocity": 1,
            "duration": 0.09985190624999518,
            "ticks": 15763,
            "durationTicks": 27
          },
          {
            "time": 58.468838437500004,
            "midi": 42,
            "name": "F#2",
            "velocity": 1,
            "duration": 0.08505903125000458,
            "ticks": 15810,
            "durationTicks": 23
          },
          {
            "time": 58.65005115625,
            "midi": 36,
            "name": "C2",
            "velocity": 1,
            "duration": 0.08505903125000458,
            "ticks": 15859,
            "durationTicks": 23
          },
          {
            "time": 58.65005115625,
            "midi": 38,
            "name": "D2",
            "velocity": 1,
            "duration": 0.08505903125000458,
            "ticks": 15859,
            "durationTicks": 23
          },
          {
            "time": 58.65005115625,
            "midi": 42,
            "name": "F#2",
            "velocity": 1,
            "duration": 0.0813608125000087,
            "ticks": 15859,
            "durationTicks": 22
          },
          {
            "time": 58.823867437500006,
            "midi": 42,
            "name": "F#2",
            "velocity": 1,
            "duration": 0.07766259374999862,
            "ticks": 15906,
            "durationTicks": 21
          },
          {
            "time": 59.00508015625,
            "midi": 36,
            "name": "C2",
            "velocity": 1,
            "duration": 0.08505903125000458,
            "ticks": 15955,
            "durationTicks": 23
          },
          {
            "time": 59.00508015625,
            "midi": 42,
            "name": "F#2",
            "velocity": 1,
            "duration": 0.07026615625000687,
            "ticks": 15955,
            "durationTicks": 19
          },
          {
            "time": 59.182594656250004,
            "midi": 42,
            "name": "F#2",
            "velocity": 1,
            "duration": 0.08505903125000458,
            "ticks": 16003,
            "durationTicks": 23
          },
          {
            "time": 59.360109156250005,
            "midi": 38,
            "name": "D2",
            "velocity": 1,
            "duration": 0.08505903125000458,
            "ticks": 16051,
            "durationTicks": 23
          },
          {
            "time": 59.360109156250005,
            "midi": 36,
            "name": "C2",
            "velocity": 1,
            "duration": 0.08505903125000458,
            "ticks": 16051,
            "durationTicks": 23
          },
          {
            "time": 59.36380737500001,
            "midi": 42,
            "name": "F#2",
            "velocity": 1,
            "duration": 0.08875725000000045,
            "ticks": 16052,
            "durationTicks": 24
          },
          {
            "time": 59.537623656250005,
            "midi": 42,
            "name": "F#2",
            "velocity": 1,
            "duration": 0.08505903125000458,
            "ticks": 16099,
            "durationTicks": 23
          },
          {
            "time": 59.71883637500001,
            "midi": 36,
            "name": "C2",
            "velocity": 1,
            "duration": 0.08505903124999037,
            "ticks": 16148,
            "durationTicks": 23
          },
          {
            "time": 59.71883637500001,
            "midi": 42,
            "name": "F#2",
            "velocity": 1,
            "duration": 0.07766259374999862,
            "ticks": 16148,
            "durationTicks": 21
          },
          {
            "time": 59.89265265625,
            "midi": 42,
            "name": "F#2",
            "velocity": 1,
            "duration": 0.07766259375000573,
            "ticks": 16195,
            "durationTicks": 21
          },
          {
            "time": 60.07386537500001,
            "midi": 36,
            "name": "C2",
            "velocity": 1,
            "duration": 0.08505903124999037,
            "ticks": 16244,
            "durationTicks": 23
          },
          {
            "time": 60.07386537500001,
            "midi": 38,
            "name": "D2",
            "velocity": 1,
            "duration": 0.08505903124999037,
            "ticks": 16244,
            "durationTicks": 23
          },
          {
            "time": 60.07756359375001,
            "midi": 42,
            "name": "F#2",
            "velocity": 1,
            "duration": 0.06656793749999679,
            "ticks": 16245,
            "durationTicks": 18
          },
          {
            "time": 60.25137987500001,
            "midi": 42,
            "name": "F#2",
            "velocity": 1,
            "duration": 0.07396437499998854,
            "ticks": 16292,
            "durationTicks": 20
          },
          {
            "time": 60.42889437500001,
            "midi": 36,
            "name": "C2",
            "velocity": 1,
            "duration": 0.08505903124999037,
            "ticks": 16340,
            "durationTicks": 23
          },
          {
            "time": 60.43259259375001,
            "midi": 42,
            "name": "F#2",
            "velocity": 1,
            "duration": 0.06656793749999679,
            "ticks": 16341,
            "durationTicks": 18
          },
          {
            "time": 60.60640887500001,
            "midi": 42,
            "name": "F#2",
            "velocity": 1,
            "duration": 0.0813608125000016,
            "ticks": 16388,
            "durationTicks": 22
          },
          {
            "time": 60.78762159375,
            "midi": 38,
            "name": "D2",
            "velocity": 1,
            "duration": 0.08505903125000458,
            "ticks": 16437,
            "durationTicks": 23
          },
          {
            "time": 60.78762159375,
            "midi": 36,
            "name": "C2",
            "velocity": 1,
            "duration": 0.08505903125000458,
            "ticks": 16437,
            "durationTicks": 23
          },
          {
            "time": 60.78762159375,
            "midi": 42,
            "name": "F#2",
            "velocity": 1,
            "duration": 0.08875725000000045,
            "ticks": 16437,
            "durationTicks": 24
          },
          {
            "time": 60.96143787500001,
            "midi": 42,
            "name": "F#2",
            "velocity": 1,
            "duration": 0.09985190625000229,
            "ticks": 16484,
            "durationTicks": 27
          },
          {
            "time": 61.142650593750005,
            "midi": 36,
            "name": "C2",
            "velocity": 1,
            "duration": 0.08505903125000458,
            "ticks": 16533,
            "durationTicks": 23
          },
          {
            "time": 61.142650593750005,
            "midi": 42,
            "name": "F#2",
            "velocity": 1,
            "duration": 0.1294376562500048,
            "ticks": 16533,
            "durationTicks": 35
          },
          {
            "time": 61.31646687500001,
            "midi": 42,
            "name": "F#2",
            "velocity": 1,
            "duration": 0.09245546874999633,
            "ticks": 16580,
            "durationTicks": 25
          },
          {
            "time": 61.49767959375001,
            "midi": 38,
            "name": "D2",
            "velocity": 1,
            "duration": 0.08505903125000458,
            "ticks": 16629,
            "durationTicks": 23
          },
          {
            "time": 61.49767959375001,
            "midi": 36,
            "name": "C2",
            "velocity": 1,
            "duration": 0.08505903125000458,
            "ticks": 16629,
            "durationTicks": 23
          },
          {
            "time": 61.5013778125,
            "midi": 42,
            "name": "F#2",
            "velocity": 1,
            "duration": 0.0665679375000039,
            "ticks": 16630,
            "durationTicks": 18
          },
          {
            "time": 61.67519409375001,
            "midi": 42,
            "name": "F#2",
            "velocity": 1,
            "duration": 0.07396437500000275,
            "ticks": 16677,
            "durationTicks": 20
          },
          {
            "time": 61.85270859375001,
            "midi": 36,
            "name": "C2",
            "velocity": 1,
            "duration": 0.08505903125000458,
            "ticks": 16725,
            "durationTicks": 23
          },
          {
            "time": 61.856406812500005,
            "midi": 42,
            "name": "F#2",
            "velocity": 1,
            "duration": 0.07766259374999862,
            "ticks": 16726,
            "durationTicks": 21
          },
          {
            "time": 62.03022309375001,
            "midi": 42,
            "name": "F#2",
            "velocity": 1,
            "duration": 0.07396437500000275,
            "ticks": 16773,
            "durationTicks": 20
          },
          {
            "time": 62.21143581250001,
            "midi": 36,
            "name": "C2",
            "velocity": 1,
            "duration": 0.08505903124999747,
            "ticks": 16822,
            "durationTicks": 23
          },
          {
            "time": 62.21143581250001,
            "midi": 38,
            "name": "D2",
            "velocity": 1,
            "duration": 0.08505903124999747,
            "ticks": 16822,
            "durationTicks": 23
          },
          {
            "time": 62.21143581250001,
            "midi": 42,
            "name": "F#2",
            "velocity": 1,
            "duration": 0.08505903124999747,
            "ticks": 16822,
            "durationTicks": 23
          },
          {
            "time": 62.39264853125001,
            "midi": 42,
            "name": "F#2",
            "velocity": 1,
            "duration": 0.08505903124999037,
            "ticks": 16871,
            "durationTicks": 23
          },
          {
            "time": 62.5664648125,
            "midi": 36,
            "name": "C2",
            "velocity": 1,
            "duration": 0.08505903125000458,
            "ticks": 16918,
            "durationTicks": 23
          },
          {
            "time": 62.5664648125,
            "midi": 42,
            "name": "F#2",
            "velocity": 1,
            "duration": 0.11094656250000412,
            "ticks": 16918,
            "durationTicks": 30
          },
          {
            "time": 62.74767753125001,
            "midi": 42,
            "name": "F#2",
            "velocity": 1,
            "duration": 0.08505903124999037,
            "ticks": 16967,
            "durationTicks": 23
          },
          {
            "time": 62.9214938125,
            "midi": 36,
            "name": "C2",
            "velocity": 1,
            "duration": 0.08505903125000458,
            "ticks": 17014,
            "durationTicks": 23
          },
          {
            "time": 62.9214938125,
            "midi": 38,
            "name": "D2",
            "velocity": 1,
            "duration": 0.08875725000000045,
            "ticks": 17014,
            "durationTicks": 24
          },
          {
            "time": 62.92519203125001,
            "midi": 42,
            "name": "F#2",
            "velocity": 1,
            "duration": 0.07766259374999862,
            "ticks": 17015,
            "durationTicks": 21
          },
          {
            "time": 63.10270653125001,
            "midi": 42,
            "name": "F#2",
            "velocity": 1,
            "duration": 0.08505903124999747,
            "ticks": 17063,
            "durationTicks": 23
          },
          {
            "time": 63.28022103125001,
            "midi": 36,
            "name": "C2",
            "velocity": 1,
            "duration": 0.08505903124999747,
            "ticks": 17111,
            "durationTicks": 23
          },
          {
            "time": 63.28022103125001,
            "midi": 42,
            "name": "F#2",
            "velocity": 1,
            "duration": 0.08505903124999747,
            "ticks": 17111,
            "durationTicks": 23
          },
          {
            "time": 63.461433750000005,
            "midi": 42,
            "name": "F#2",
            "velocity": 1,
            "duration": 0.08505903125000458,
            "ticks": 17160,
            "durationTicks": 23
          },
          {
            "time": 63.63525003125001,
            "midi": 38,
            "name": "D2",
            "velocity": 1,
            "duration": 0.08505903124999037,
            "ticks": 17207,
            "durationTicks": 23
          },
          {
            "time": 63.63525003125001,
            "midi": 36,
            "name": "C2",
            "velocity": 1,
            "duration": 0.08505903124999037,
            "ticks": 17207,
            "durationTicks": 23
          },
          {
            "time": 63.63525003125001,
            "midi": 42,
            "name": "F#2",
            "velocity": 1,
            "duration": 0.0813608124999945,
            "ticks": 17207,
            "durationTicks": 22
          },
          {
            "time": 63.81646275000001,
            "midi": 42,
            "name": "F#2",
            "velocity": 1,
            "duration": 0.07766259374999862,
            "ticks": 17256,
            "durationTicks": 21
          },
          {
            "time": 63.99027903125001,
            "midi": 36,
            "name": "C2",
            "velocity": 1,
            "duration": 0.08505903124999747,
            "ticks": 17303,
            "durationTicks": 23
          },
          {
            "time": 64.17149175,
            "midi": 36,
            "name": "C2",
            "velocity": 1,
            "duration": 0.08505903125001169,
            "ticks": 17352,
            "durationTicks": 23
          },
          {
            "time": 64.34900625,
            "midi": 36,
            "name": "C2",
            "velocity": 1,
            "duration": 0.08505903125001169,
            "ticks": 17400,
            "durationTicks": 23
          },
          {
            "time": 64.70403525,
            "midi": 38,
            "name": "D2",
            "velocity": 1,
            "duration": 0.08505903125001169,
            "ticks": 17496,
            "durationTicks": 23
          },
          {
            "time": 65.24027696875001,
            "midi": 36,
            "name": "C2",
            "velocity": 1,
            "duration": 0.08875725000000045,
            "ticks": 17641,
            "durationTicks": 24
          },
          {
            "time": 65.41409325000001,
            "midi": 36,
            "name": "C2",
            "velocity": 1,
            "duration": 0.08875725000000045,
            "ticks": 17688,
            "durationTicks": 24
          },
          {
            "time": 65.59530596875,
            "midi": 36,
            "name": "C2",
            "velocity": 1,
            "duration": 0.08505903125001169,
            "ticks": 17737,
            "durationTicks": 23
          },
          {
            "time": 65.77282046875,
            "midi": 36,
            "name": "C2",
            "velocity": 1,
            "duration": 0.08505903125001169,
            "ticks": 17785,
            "durationTicks": 23
          },
          {
            "time": 66.12784946875,
            "midi": 38,
            "name": "D2",
            "velocity": 1,
            "duration": 0.08505903125001169,
            "ticks": 17881,
            "durationTicks": 23
          },
          {
            "time": 66.6640911875,
            "midi": 36,
            "name": "C2",
            "velocity": 1,
            "duration": 0.08505903124999747,
            "ticks": 18026,
            "durationTicks": 23
          },
          {
            "time": 66.8416056875,
            "midi": 36,
            "name": "C2",
            "velocity": 1,
            "duration": 0.08505903124999747,
            "ticks": 18074,
            "durationTicks": 23
          },
          {
            "time": 67.02281840625001,
            "midi": 36,
            "name": "C2",
            "velocity": 1,
            "duration": 0.08505903124999747,
            "ticks": 18123,
            "durationTicks": 23
          },
          {
            "time": 67.19663468750001,
            "midi": 36,
            "name": "C2",
            "velocity": 1,
            "duration": 0.08505903124999747,
            "ticks": 18170,
            "durationTicks": 23
          },
          {
            "time": 67.55166368750001,
            "midi": 38,
            "name": "D2",
            "velocity": 1,
            "duration": 0.08505903124999747,
            "ticks": 18266,
            "durationTicks": 23
          },
          {
            "time": 67.91039090625,
            "midi": 36,
            "name": "C2",
            "velocity": 1,
            "duration": 0.08505903125001169,
            "ticks": 18363,
            "durationTicks": 23
          },
          {
            "time": 68.08790540625,
            "midi": 38,
            "name": "D2",
            "velocity": 1,
            "duration": 0.08505903125001169,
            "ticks": 18411,
            "durationTicks": 23
          },
          {
            "time": 68.26541990625,
            "midi": 36,
            "name": "C2",
            "velocity": 1,
            "duration": 0.08505903125001169,
            "ticks": 18459,
            "durationTicks": 23
          },
          {
            "time": 68.446632625,
            "midi": 38,
            "name": "D2",
            "velocity": 1,
            "duration": 0.08505903124999747,
            "ticks": 18508,
            "durationTicks": 23
          },
          {
            "time": 68.62044890625,
            "midi": 36,
            "name": "C2",
            "velocity": 1,
            "duration": 0.08505903125001169,
            "ticks": 18555,
            "durationTicks": 23
          },
          {
            "time": 68.80166162500001,
            "midi": 38,
            "name": "D2",
            "velocity": 1,
            "duration": 0.08505903124999747,
            "ticks": 18604,
            "durationTicks": 23
          },
          {
            "time": 68.97547790625,
            "midi": 36,
            "name": "C2",
            "velocity": 1,
            "duration": 0.08505903125001169,
            "ticks": 18651,
            "durationTicks": 23
          },
          {
            "time": 68.97547790625,
            "midi": 38,
            "name": "D2",
            "velocity": 1,
            "duration": 0.08505903125001169,
            "ticks": 18651,
            "durationTicks": 23
          },
          {
            "time": 69.15669062500001,
            "midi": 38,
            "name": "D2",
            "velocity": 1,
            "duration": 0.08505903124999747,
            "ticks": 18700,
            "durationTicks": 23
          },
          {
            "time": 69.33420512500001,
            "midi": 38,
            "name": "D2",
            "velocity": 1,
            "duration": 0.08505903124999747,
            "ticks": 18748,
            "durationTicks": 23
          },
          {
            "time": 69.33420512500001,
            "midi": 36,
            "name": "C2",
            "velocity": 1,
            "duration": 0.08505903124999747,
            "ticks": 18748,
            "durationTicks": 23
          },
          {
            "time": 69.51541784375001,
            "midi": 38,
            "name": "D2",
            "velocity": 1,
            "duration": 0.08505903124998326,
            "ticks": 18797,
            "durationTicks": 23
          },
          {
            "time": 69.51541784375001,
            "midi": 36,
            "name": "C2",
            "velocity": 1,
            "duration": 0.08505903124998326,
            "ticks": 18797,
            "durationTicks": 23
          },
          {
            "time": 69.689234125,
            "midi": 36,
            "name": "C2",
            "velocity": 1,
            "duration": 0.08505903125001169,
            "ticks": 18844,
            "durationTicks": 23
          },
          {
            "time": 69.689234125,
            "midi": 61,
            "name": "C#4",
            "velocity": 1,
            "duration": 0.08505903125001169,
            "ticks": 18844,
            "durationTicks": 23
          },
          {
            "time": 69.689234125,
            "midi": 42,
            "name": "F#2",
            "velocity": 1,
            "duration": 0.09615368750000641,
            "ticks": 18844,
            "durationTicks": 26
          },
          {
            "time": 69.87044684375002,
            "midi": 61,
            "name": "C#4",
            "velocity": 1,
            "duration": 0.08505903124998326,
            "ticks": 18893,
            "durationTicks": 23
          },
          {
            "time": 69.87044684375002,
            "midi": 42,
            "name": "F#2",
            "velocity": 1,
            "duration": 0.07026615624998556,
            "ticks": 18893,
            "durationTicks": 19
          },
          {
            "time": 70.044263125,
            "midi": 38,
            "name": "D2",
            "velocity": 1,
            "duration": 0.08505903125001169,
            "ticks": 18940,
            "durationTicks": 23
          },
          {
            "time": 70.044263125,
            "midi": 61,
            "name": "C#4",
            "velocity": 1,
            "duration": 0.08505903125001169,
            "ticks": 18940,
            "durationTicks": 23
          },
          {
            "time": 70.04796134375002,
            "midi": 42,
            "name": "F#2",
            "velocity": 1,
            "duration": 0.07766259374999152,
            "ticks": 18941,
            "durationTicks": 21
          },
          {
            "time": 70.22547584375,
            "midi": 61,
            "name": "C#4",
            "velocity": 1,
            "duration": 0.08505903124999747,
            "ticks": 18989,
            "durationTicks": 23
          },
          {
            "time": 70.22547584375,
            "midi": 42,
            "name": "F#2",
            "velocity": 1,
            "duration": 0.08505903124999747,
            "ticks": 18989,
            "durationTicks": 23
          },
          {
            "time": 70.40299034375,
            "midi": 36,
            "name": "C2",
            "velocity": 1,
            "duration": 0.08505903124999747,
            "ticks": 19037,
            "durationTicks": 23
          },
          {
            "time": 70.40299034375,
            "midi": 61,
            "name": "C#4",
            "velocity": 1,
            "duration": 0.08505903124999747,
            "ticks": 19037,
            "durationTicks": 23
          },
          {
            "time": 70.40299034375,
            "midi": 40,
            "name": "E2",
            "velocity": 1,
            "duration": 0.3550290000000018,
            "ticks": 19037,
            "durationTicks": 96
          },
          {
            "time": 70.40299034375,
            "midi": 51,
            "name": "D#3",
            "velocity": 1,
            "duration": 0.3735200937500025,
            "ticks": 19037,
            "durationTicks": 101
          },
          {
            "time": 70.40668856250001,
            "midi": 42,
            "name": "F#2",
            "velocity": 1,
            "duration": 0.0813608124999945,
            "ticks": 19038,
            "durationTicks": 22
          },
          {
            "time": 70.58050484375,
            "midi": 36,
            "name": "C2",
            "velocity": 1,
            "duration": 0.08875725000000045,
            "ticks": 19085,
            "durationTicks": 24
          },
          {
            "time": 70.58420306250001,
            "midi": 61,
            "name": "C#4",
            "velocity": 1,
            "duration": 0.08505903124999747,
            "ticks": 19086,
            "durationTicks": 23
          },
          {
            "time": 70.58420306250001,
            "midi": 42,
            "name": "F#2",
            "velocity": 1,
            "duration": 0.08875725000000045,
            "ticks": 19086,
            "durationTicks": 24
          },
          {
            "time": 70.75801934375001,
            "midi": 38,
            "name": "D2",
            "velocity": 1,
            "duration": 0.08505903124999747,
            "ticks": 19133,
            "durationTicks": 23
          },
          {
            "time": 70.75801934375001,
            "midi": 61,
            "name": "C#4",
            "velocity": 1,
            "duration": 0.08505903124999747,
            "ticks": 19133,
            "durationTicks": 23
          },
          {
            "time": 70.76171756250001,
            "midi": 42,
            "name": "F#2",
            "velocity": 1,
            "duration": 0.09245546874998922,
            "ticks": 19134,
            "durationTicks": 25
          },
          {
            "time": 70.93923206250001,
            "midi": 61,
            "name": "C#4",
            "velocity": 1,
            "duration": 0.08505903124999747,
            "ticks": 19182,
            "durationTicks": 23
          },
          {
            "time": 70.93923206250001,
            "midi": 42,
            "name": "F#2",
            "velocity": 1,
            "duration": 0.08875725000000045,
            "ticks": 19182,
            "durationTicks": 24
          },
          {
            "time": 71.11304834375001,
            "midi": 36,
            "name": "C2",
            "velocity": 1,
            "duration": 0.08505903124999747,
            "ticks": 19229,
            "durationTicks": 23
          },
          {
            "time": 71.11304834375001,
            "midi": 61,
            "name": "C#4",
            "velocity": 1,
            "duration": 0.08505903124999747,
            "ticks": 19229,
            "durationTicks": 23
          },
          {
            "time": 71.11674656250001,
            "midi": 42,
            "name": "F#2",
            "velocity": 1,
            "duration": 0.10355012499999816,
            "ticks": 19230,
            "durationTicks": 28
          },
          {
            "time": 71.29426106250001,
            "midi": 61,
            "name": "C#4",
            "velocity": 1,
            "duration": 0.08505903124999747,
            "ticks": 19278,
            "durationTicks": 23
          },
          {
            "time": 71.29426106250001,
            "midi": 42,
            "name": "F#2",
            "velocity": 1,
            "duration": 0.0813608124999945,
            "ticks": 19278,
            "durationTicks": 22
          },
          {
            "time": 71.47177556250001,
            "midi": 38,
            "name": "D2",
            "velocity": 1,
            "duration": 0.08505903124999747,
            "ticks": 19326,
            "durationTicks": 23
          },
          {
            "time": 71.47177556250001,
            "midi": 61,
            "name": "C#4",
            "velocity": 1,
            "duration": 0.08505903124999747,
            "ticks": 19326,
            "durationTicks": 23
          },
          {
            "time": 71.47177556250001,
            "midi": 42,
            "name": "F#2",
            "velocity": 1,
            "duration": 0.08505903124999747,
            "ticks": 19326,
            "durationTicks": 23
          },
          {
            "time": 71.64929006250001,
            "midi": 61,
            "name": "C#4",
            "velocity": 1,
            "duration": 0.08505903124999747,
            "ticks": 19374,
            "durationTicks": 23
          },
          {
            "time": 71.65298828125,
            "midi": 42,
            "name": "F#2",
            "velocity": 1,
            "duration": 0.08505903124999747,
            "ticks": 19375,
            "durationTicks": 23
          },
          {
            "time": 71.8268045625,
            "midi": 36,
            "name": "C2",
            "velocity": 1,
            "duration": 0.08505903125001169,
            "ticks": 19422,
            "durationTicks": 23
          },
          {
            "time": 71.8268045625,
            "midi": 61,
            "name": "C#4",
            "velocity": 1,
            "duration": 0.08505903125001169,
            "ticks": 19422,
            "durationTicks": 23
          },
          {
            "time": 71.8268045625,
            "midi": 51,
            "name": "D#3",
            "velocity": 1,
            "duration": 0.3217450312500034,
            "ticks": 19422,
            "durationTicks": 87
          },
          {
            "time": 71.83050278125,
            "midi": 40,
            "name": "E2",
            "velocity": 1,
            "duration": 0.3217450312500034,
            "ticks": 19423,
            "durationTicks": 87
          },
          {
            "time": 71.83050278125,
            "midi": 42,
            "name": "F#2",
            "velocity": 1,
            "duration": 0.08875725000000045,
            "ticks": 19423,
            "durationTicks": 24
          },
          {
            "time": 72.00801728125,
            "midi": 36,
            "name": "C2",
            "velocity": 1,
            "duration": 0.08505903124999747,
            "ticks": 19471,
            "durationTicks": 23
          },
          {
            "time": 72.00801728125,
            "midi": 61,
            "name": "C#4",
            "velocity": 1,
            "duration": 0.08505903124999747,
            "ticks": 19471,
            "durationTicks": 23
          },
          {
            "time": 72.00801728125,
            "midi": 42,
            "name": "F#2",
            "velocity": 1,
            "duration": 0.08505903124999747,
            "ticks": 19471,
            "durationTicks": 23
          },
          {
            "time": 72.1818335625,
            "midi": 38,
            "name": "D2",
            "velocity": 1,
            "duration": 0.08505903125001169,
            "ticks": 19518,
            "durationTicks": 23
          },
          {
            "time": 72.1818335625,
            "midi": 61,
            "name": "C#4",
            "velocity": 1,
            "duration": 0.08505903125001169,
            "ticks": 19518,
            "durationTicks": 23
          },
          {
            "time": 72.1818335625,
            "midi": 42,
            "name": "F#2",
            "velocity": 1,
            "duration": 0.09615368750000641,
            "ticks": 19518,
            "durationTicks": 26
          },
          {
            "time": 72.36304628125,
            "midi": 61,
            "name": "C#4",
            "velocity": 1,
            "duration": 0.08505903124999747,
            "ticks": 19567,
            "durationTicks": 23
          },
          {
            "time": 72.36304628125,
            "midi": 42,
            "name": "F#2",
            "velocity": 1,
            "duration": 0.08875725000000045,
            "ticks": 19567,
            "durationTicks": 24
          },
          {
            "time": 72.5368625625,
            "midi": 36,
            "name": "C2",
            "velocity": 1,
            "duration": 0.08505903125001169,
            "ticks": 19614,
            "durationTicks": 23
          },
          {
            "time": 72.54056078125001,
            "midi": 61,
            "name": "C#4",
            "velocity": 1,
            "duration": 0.0813608125000087,
            "ticks": 19615,
            "durationTicks": 22
          },
          {
            "time": 72.54056078125001,
            "midi": 42,
            "name": "F#2",
            "velocity": 1,
            "duration": 0.09245546875000343,
            "ticks": 19615,
            "durationTicks": 25
          },
          {
            "time": 72.71807528125001,
            "midi": 61,
            "name": "C#4",
            "velocity": 1,
            "duration": 0.08505903124999747,
            "ticks": 19663,
            "durationTicks": 23
          },
          {
            "time": 72.71807528125001,
            "midi": 42,
            "name": "F#2",
            "velocity": 1,
            "duration": 0.0961536874999922,
            "ticks": 19663,
            "durationTicks": 26
          },
          {
            "time": 72.89558978125001,
            "midi": 38,
            "name": "D2",
            "velocity": 1,
            "duration": 0.08505903124999747,
            "ticks": 19711,
            "durationTicks": 23
          },
          {
            "time": 72.89558978125001,
            "midi": 61,
            "name": "C#4",
            "velocity": 1,
            "duration": 0.08505903124999747,
            "ticks": 19711,
            "durationTicks": 23
          },
          {
            "time": 72.89558978125001,
            "midi": 42,
            "name": "F#2",
            "velocity": 1,
            "duration": 0.08505903124999747,
            "ticks": 19711,
            "durationTicks": 23
          },
          {
            "time": 73.07680250000001,
            "midi": 61,
            "name": "C#4",
            "velocity": 1,
            "duration": 0.08505903124999747,
            "ticks": 19760,
            "durationTicks": 23
          },
          {
            "time": 73.07680250000001,
            "midi": 42,
            "name": "F#2",
            "velocity": 1,
            "duration": 0.08505903124999747,
            "ticks": 19760,
            "durationTicks": 23
          },
          {
            "time": 73.25061878125001,
            "midi": 36,
            "name": "C2",
            "velocity": 1,
            "duration": 0.08505903124999747,
            "ticks": 19807,
            "durationTicks": 23
          },
          {
            "time": 73.25061878125001,
            "midi": 61,
            "name": "C#4",
            "velocity": 1,
            "duration": 0.08505903124999747,
            "ticks": 19807,
            "durationTicks": 23
          },
          {
            "time": 73.25061878125001,
            "midi": 40,
            "name": "E2",
            "velocity": 1,
            "duration": 0.3550289999999876,
            "ticks": 19807,
            "durationTicks": 96
          },
          {
            "time": 73.25431700000001,
            "midi": 51,
            "name": "D#3",
            "velocity": 1,
            "duration": 0.3735200937499883,
            "ticks": 19808,
            "durationTicks": 101
          },
          {
            "time": 73.25431700000001,
            "midi": 42,
            "name": "F#2",
            "velocity": 1,
            "duration": 0.0813608124999945,
            "ticks": 19808,
            "durationTicks": 22
          },
          {
            "time": 73.43183150000002,
            "midi": 36,
            "name": "C2",
            "velocity": 1,
            "duration": 0.08505903124998326,
            "ticks": 19856,
            "durationTicks": 23
          },
          {
            "time": 73.43183150000002,
            "midi": 61,
            "name": "C#4",
            "velocity": 1,
            "duration": 0.08505903124998326,
            "ticks": 19856,
            "durationTicks": 23
          },
          {
            "time": 73.43183150000002,
            "midi": 42,
            "name": "F#2",
            "velocity": 1,
            "duration": 0.0813608124999945,
            "ticks": 19856,
            "durationTicks": 22
          },
          {
            "time": 73.60934600000002,
            "midi": 38,
            "name": "D2",
            "velocity": 1,
            "duration": 0.0813608124999945,
            "ticks": 19904,
            "durationTicks": 22
          },
          {
            "time": 73.60934600000002,
            "midi": 61,
            "name": "C#4",
            "velocity": 1,
            "duration": 0.0813608124999945,
            "ticks": 19904,
            "durationTicks": 22
          },
          {
            "time": 73.60934600000002,
            "midi": 42,
            "name": "F#2",
            "velocity": 1,
            "duration": 0.08875725000000045,
            "ticks": 19904,
            "durationTicks": 24
          },
          {
            "time": 73.78686050000002,
            "midi": 61,
            "name": "C#4",
            "velocity": 1,
            "duration": 0.08505903124998326,
            "ticks": 19952,
            "durationTicks": 23
          },
          {
            "time": 73.78686050000002,
            "midi": 42,
            "name": "F#2",
            "velocity": 1,
            "duration": 0.0813608124999945,
            "ticks": 19952,
            "durationTicks": 22
          },
          {
            "time": 73.96437500000002,
            "midi": 36,
            "name": "C2",
            "velocity": 1,
            "duration": 0.08505903124998326,
            "ticks": 20000,
            "durationTicks": 23
          },
          {
            "time": 73.96437500000002,
            "midi": 61,
            "name": "C#4",
            "velocity": 1,
            "duration": 0.08505903124998326,
            "ticks": 20000,
            "durationTicks": 23
          },
          {
            "time": 73.96437500000002,
            "midi": 42,
            "name": "F#2",
            "velocity": 1,
            "duration": 0.0628697187499796,
            "ticks": 20000,
            "durationTicks": 17
          },
          {
            "time": 74.1418895,
            "midi": 61,
            "name": "C#4",
            "velocity": 1,
            "duration": 0.08505903124999747,
            "ticks": 20048,
            "durationTicks": 23
          },
          {
            "time": 74.14558771875001,
            "midi": 42,
            "name": "F#2",
            "velocity": 1,
            "duration": 0.05917149999999083,
            "ticks": 20049,
            "durationTicks": 16
          },
          {
            "time": 74.319404,
            "midi": 38,
            "name": "D2",
            "velocity": 1,
            "duration": 0.08505903124999747,
            "ticks": 20096,
            "durationTicks": 23
          },
          {
            "time": 74.319404,
            "midi": 61,
            "name": "C#4",
            "velocity": 1,
            "duration": 0.08505903124999747,
            "ticks": 20096,
            "durationTicks": 23
          },
          {
            "time": 74.319404,
            "midi": 42,
            "name": "F#2",
            "velocity": 1,
            "duration": 0.07396437500000275,
            "ticks": 20096,
            "durationTicks": 20
          },
          {
            "time": 74.50061671875001,
            "midi": 61,
            "name": "C#4",
            "velocity": 1,
            "duration": 0.08505903124999747,
            "ticks": 20145,
            "durationTicks": 23
          },
          {
            "time": 74.50061671875001,
            "midi": 42,
            "name": "F#2",
            "velocity": 1,
            "duration": 0.0480768437499961,
            "ticks": 20145,
            "durationTicks": 13
          },
          {
            "time": 74.67443300000001,
            "midi": 36,
            "name": "C2",
            "velocity": 1,
            "duration": 0.08505903124999747,
            "ticks": 20192,
            "durationTicks": 23
          },
          {
            "time": 74.67443300000001,
            "midi": 61,
            "name": "C#4",
            "velocity": 1,
            "duration": 0.08505903124999747,
            "ticks": 20192,
            "durationTicks": 23
          },
          {
            "time": 74.67813121875001,
            "midi": 51,
            "name": "D#3",
            "velocity": 1,
            "duration": 0.31804681250000044,
            "ticks": 20193,
            "durationTicks": 86
          },
          {
            "time": 74.67813121875001,
            "midi": 40,
            "name": "E2",
            "velocity": 1,
            "duration": 0.3217450312500034,
            "ticks": 20193,
            "durationTicks": 87
          },
          {
            "time": 74.67813121875001,
            "midi": 42,
            "name": "F#2",
            "velocity": 1,
            "duration": 0.07766259374999152,
            "ticks": 20193,
            "durationTicks": 21
          },
          {
            "time": 74.85564571875001,
            "midi": 36,
            "name": "C2",
            "velocity": 1,
            "duration": 0.08505903124999747,
            "ticks": 20241,
            "durationTicks": 23
          },
          {
            "time": 74.85564571875001,
            "midi": 61,
            "name": "C#4",
            "velocity": 1,
            "duration": 0.08505903124999747,
            "ticks": 20241,
            "durationTicks": 23
          },
          {
            "time": 74.85564571875001,
            "midi": 42,
            "name": "F#2",
            "velocity": 1,
            "duration": 0.08505903124999747,
            "ticks": 20241,
            "durationTicks": 23
          },
          {
            "time": 75.02946200000001,
            "midi": 38,
            "name": "D2",
            "velocity": 1,
            "duration": 0.08505903124999747,
            "ticks": 20288,
            "durationTicks": 23
          },
          {
            "time": 75.02946200000001,
            "midi": 61,
            "name": "C#4",
            "velocity": 1,
            "duration": 0.08875725000000045,
            "ticks": 20288,
            "durationTicks": 24
          },
          {
            "time": 75.03316021875001,
            "midi": 42,
            "name": "F#2",
            "velocity": 1,
            "duration": 0.0813608124999945,
            "ticks": 20289,
            "durationTicks": 22
          },
          {
            "time": 75.21067471875001,
            "midi": 61,
            "name": "C#4",
            "velocity": 1,
            "duration": 0.08505903124999747,
            "ticks": 20337,
            "durationTicks": 23
          },
          {
            "time": 75.2143729375,
            "midi": 42,
            "name": "F#2",
            "velocity": 1,
            "duration": 0.08505903125001169,
            "ticks": 20338,
            "durationTicks": 23
          },
          {
            "time": 75.38818921875001,
            "midi": 36,
            "name": "C2",
            "velocity": 1,
            "duration": 0.08505903124999747,
            "ticks": 20385,
            "durationTicks": 23
          },
          {
            "time": 75.38818921875001,
            "midi": 61,
            "name": "C#4",
            "velocity": 1,
            "duration": 0.08505903124999747,
            "ticks": 20385,
            "durationTicks": 23
          },
          {
            "time": 75.38818921875001,
            "midi": 42,
            "name": "F#2",
            "velocity": 1,
            "duration": 0.09245546874998922,
            "ticks": 20385,
            "durationTicks": 25
          },
          {
            "time": 75.5694019375,
            "midi": 61,
            "name": "C#4",
            "velocity": 1,
            "duration": 0.0813608125000087,
            "ticks": 20434,
            "durationTicks": 22
          },
          {
            "time": 75.5694019375,
            "midi": 42,
            "name": "F#2",
            "velocity": 1,
            "duration": 0.07026615625001398,
            "ticks": 20434,
            "durationTicks": 19
          },
          {
            "time": 75.74321821875,
            "midi": 38,
            "name": "D2",
            "velocity": 1,
            "duration": 0.08505903125001169,
            "ticks": 20481,
            "durationTicks": 23
          },
          {
            "time": 75.74321821875,
            "midi": 61,
            "name": "C#4",
            "velocity": 1,
            "duration": 0.08505903125001169,
            "ticks": 20481,
            "durationTicks": 23
          },
          {
            "time": 75.74321821875,
            "midi": 42,
            "name": "F#2",
            "velocity": 1,
            "duration": 0.0813608125000087,
            "ticks": 20481,
            "durationTicks": 22
          },
          {
            "time": 75.9244309375,
            "midi": 61,
            "name": "C#4",
            "velocity": 1,
            "duration": 0.08505903124999747,
            "ticks": 20530,
            "durationTicks": 23
          },
          {
            "time": 75.9244309375,
            "midi": 42,
            "name": "F#2",
            "velocity": 1,
            "duration": 0.08505903124999747,
            "ticks": 20530,
            "durationTicks": 23
          },
          {
            "time": 76.09824721875,
            "midi": 36,
            "name": "C2",
            "velocity": 1,
            "duration": 0.08505903125001169,
            "ticks": 20577,
            "durationTicks": 23
          },
          {
            "time": 76.1019454375,
            "midi": 61,
            "name": "C#4",
            "velocity": 1,
            "duration": 0.08505903124999747,
            "ticks": 20578,
            "durationTicks": 23
          },
          {
            "time": 76.1019454375,
            "midi": 40,
            "name": "E2",
            "velocity": 1,
            "duration": 0.3550290000000018,
            "ticks": 20578,
            "durationTicks": 96
          },
          {
            "time": 76.1019454375,
            "midi": 51,
            "name": "D#3",
            "velocity": 1,
            "duration": 0.3735200937500025,
            "ticks": 20578,
            "durationTicks": 101
          },
          {
            "time": 76.1019454375,
            "midi": 42,
            "name": "F#2",
            "velocity": 1,
            "duration": 0.0813608125000087,
            "ticks": 20578,
            "durationTicks": 22
          },
          {
            "time": 76.27945993750001,
            "midi": 36,
            "name": "C2",
            "velocity": 1,
            "duration": 0.08505903124999747,
            "ticks": 20626,
            "durationTicks": 23
          },
          {
            "time": 76.27945993750001,
            "midi": 61,
            "name": "C#4",
            "velocity": 1,
            "duration": 0.08505903124999747,
            "ticks": 20626,
            "durationTicks": 23
          },
          {
            "time": 76.28315815625001,
            "midi": 42,
            "name": "F#2",
            "velocity": 1,
            "duration": 0.08875725000000045,
            "ticks": 20627,
            "durationTicks": 24
          },
          {
            "time": 76.45697443750001,
            "midi": 38,
            "name": "D2",
            "velocity": 1,
            "duration": 0.08505903124999747,
            "ticks": 20674,
            "durationTicks": 23
          },
          {
            "time": 76.45697443750001,
            "midi": 61,
            "name": "C#4",
            "velocity": 1,
            "duration": 0.08505903124999747,
            "ticks": 20674,
            "durationTicks": 23
          },
          {
            "time": 76.45697443750001,
            "midi": 42,
            "name": "F#2",
            "velocity": 1,
            "duration": 0.09245546875000343,
            "ticks": 20674,
            "durationTicks": 25
          },
          {
            "time": 76.63448893750001,
            "midi": 61,
            "name": "C#4",
            "velocity": 1,
            "duration": 0.08875725000000045,
            "ticks": 20722,
            "durationTicks": 24
          },
          {
            "time": 76.63448893750001,
            "midi": 42,
            "name": "F#2",
            "velocity": 1,
            "duration": 0.09245546875000343,
            "ticks": 20722,
            "durationTicks": 25
          },
          {
            "time": 76.81200343750001,
            "midi": 36,
            "name": "C2",
            "velocity": 1,
            "duration": 0.08505903124999747,
            "ticks": 20770,
            "durationTicks": 23
          },
          {
            "time": 76.81200343750001,
            "midi": 61,
            "name": "C#4",
            "velocity": 1,
            "duration": 0.08505903124999747,
            "ticks": 20770,
            "durationTicks": 23
          },
          {
            "time": 76.81200343750001,
            "midi": 42,
            "name": "F#2",
            "velocity": 1,
            "duration": 0.10355012499999816,
            "ticks": 20770,
            "durationTicks": 28
          },
          {
            "time": 76.99321615625001,
            "midi": 61,
            "name": "C#4",
            "velocity": 1,
            "duration": 0.08505903124999747,
            "ticks": 20819,
            "durationTicks": 23
          },
          {
            "time": 76.99321615625001,
            "midi": 42,
            "name": "F#2",
            "velocity": 1,
            "duration": 0.07766259374999152,
            "ticks": 20819,
            "durationTicks": 21
          },
          {
            "time": 77.16703243750001,
            "midi": 38,
            "name": "D2",
            "velocity": 1,
            "duration": 0.08505903124999747,
            "ticks": 20866,
            "durationTicks": 23
          },
          {
            "time": 77.16703243750001,
            "midi": 61,
            "name": "C#4",
            "velocity": 1,
            "duration": 0.08875724999998624,
            "ticks": 20866,
            "durationTicks": 24
          },
          {
            "time": 77.17073065625002,
            "midi": 42,
            "name": "F#2",
            "velocity": 1,
            "duration": 0.0813608124999945,
            "ticks": 20867,
            "durationTicks": 22
          },
          {
            "time": 77.34824515625002,
            "midi": 61,
            "name": "C#4",
            "velocity": 1,
            "duration": 0.08505903124998326,
            "ticks": 20915,
            "durationTicks": 23
          },
          {
            "time": 77.34824515625002,
            "midi": 42,
            "name": "F#2",
            "velocity": 1,
            "duration": 0.08505903124998326,
            "ticks": 20915,
            "durationTicks": 23
          },
          {
            "time": 77.52575965625002,
            "midi": 36,
            "name": "C2",
            "velocity": 1,
            "duration": 0.08505903124998326,
            "ticks": 20963,
            "durationTicks": 23
          },
          {
            "time": 77.52575965625002,
            "midi": 61,
            "name": "C#4",
            "velocity": 1,
            "duration": 0.08505903124998326,
            "ticks": 20963,
            "durationTicks": 23
          },
          {
            "time": 77.52575965625002,
            "midi": 51,
            "name": "D#3",
            "velocity": 1,
            "duration": 0.31804681249998623,
            "ticks": 20963,
            "durationTicks": 86
          },
          {
            "time": 77.52575965625002,
            "midi": 40,
            "name": "E2",
            "velocity": 1,
            "duration": 0.3254432499999922,
            "ticks": 20963,
            "durationTicks": 88
          },
          {
            "time": 77.52575965625002,
            "midi": 42,
            "name": "F#2",
            "velocity": 1,
            "duration": 0.09245546874998922,
            "ticks": 20963,
            "durationTicks": 25
          },
          {
            "time": 77.70327415625002,
            "midi": 36,
            "name": "C2",
            "velocity": 1,
            "duration": 0.08505903124998326,
            "ticks": 21011,
            "durationTicks": 23
          },
          {
            "time": 77.706972375,
            "midi": 61,
            "name": "C#4",
            "velocity": 1,
            "duration": 0.0813608124999945,
            "ticks": 21012,
            "durationTicks": 22
          },
          {
            "time": 77.706972375,
            "midi": 42,
            "name": "F#2",
            "velocity": 1,
            "duration": 0.08505903125001169,
            "ticks": 21012,
            "durationTicks": 23
          },
          {
            "time": 77.88078865625002,
            "midi": 38,
            "name": "D2",
            "velocity": 1,
            "duration": 0.08505903124998326,
            "ticks": 21059,
            "durationTicks": 23
          },
          {
            "time": 77.88078865625002,
            "midi": 61,
            "name": "C#4",
            "velocity": 1,
            "duration": 0.08505903124998326,
            "ticks": 21059,
            "durationTicks": 23
          },
          {
            "time": 77.88078865625002,
            "midi": 42,
            "name": "F#2",
            "velocity": 1,
            "duration": 0.0961536874999922,
            "ticks": 21059,
            "durationTicks": 26
          },
          {
            "time": 78.06200137500001,
            "midi": 61,
            "name": "C#4",
            "velocity": 1,
            "duration": 0.08505903124999747,
            "ticks": 21108,
            "durationTicks": 23
          },
          {
            "time": 78.06200137500001,
            "midi": 42,
            "name": "F#2",
            "velocity": 1,
            "duration": 0.08875725000000045,
            "ticks": 21108,
            "durationTicks": 24
          },
          {
            "time": 78.23581765625,
            "midi": 36,
            "name": "C2",
            "velocity": 1,
            "duration": 0.08505903124999747,
            "ticks": 21155,
            "durationTicks": 23
          },
          {
            "time": 78.23581765625,
            "midi": 61,
            "name": "C#4",
            "velocity": 1,
            "duration": 0.08505903124999747,
            "ticks": 21155,
            "durationTicks": 23
          },
          {
            "time": 78.23581765625,
            "midi": 42,
            "name": "F#2",
            "velocity": 1,
            "duration": 0.0961536874999922,
            "ticks": 21155,
            "durationTicks": 26
          },
          {
            "time": 78.41703037500001,
            "midi": 61,
            "name": "C#4",
            "velocity": 1,
            "duration": 0.08505903124999747,
            "ticks": 21204,
            "durationTicks": 23
          },
          {
            "time": 78.41703037500001,
            "midi": 42,
            "name": "F#2",
            "velocity": 1,
            "duration": 0.09615368750000641,
            "ticks": 21204,
            "durationTicks": 26
          },
          {
            "time": 78.59084665625001,
            "midi": 38,
            "name": "D2",
            "velocity": 1,
            "duration": 0.08505903124999747,
            "ticks": 21251,
            "durationTicks": 23
          },
          {
            "time": 78.59084665625001,
            "midi": 61,
            "name": "C#4",
            "velocity": 1,
            "duration": 0.08875725000000045,
            "ticks": 21251,
            "durationTicks": 24
          },
          {
            "time": 78.59454487500001,
            "midi": 42,
            "name": "F#2",
            "velocity": 1,
            "duration": 0.0813608124999945,
            "ticks": 21252,
            "durationTicks": 22
          },
          {
            "time": 78.77205937500001,
            "midi": 61,
            "name": "C#4",
            "velocity": 1,
            "duration": 0.08505903124999747,
            "ticks": 21300,
            "durationTicks": 23
          },
          {
            "time": 78.77205937500001,
            "midi": 42,
            "name": "F#2",
            "velocity": 1,
            "duration": 0.08505903124999747,
            "ticks": 21300,
            "durationTicks": 23
          },
          {
            "time": 78.94957387500001,
            "midi": 36,
            "name": "C2",
            "velocity": 1,
            "duration": 0.08505903124999747,
            "ticks": 21348,
            "durationTicks": 23
          },
          {
            "time": 78.94957387500001,
            "midi": 61,
            "name": "C#4",
            "velocity": 1,
            "duration": 0.08505903124999747,
            "ticks": 21348,
            "durationTicks": 23
          },
          {
            "time": 78.94957387500001,
            "midi": 40,
            "name": "E2",
            "velocity": 1,
            "duration": 0.3550290000000018,
            "ticks": 21348,
            "durationTicks": 96
          },
          {
            "time": 78.94957387500001,
            "midi": 51,
            "name": "D#3",
            "velocity": 1,
            "duration": 0.3735200937500025,
            "ticks": 21348,
            "durationTicks": 101
          },
          {
            "time": 78.95327209375,
            "midi": 42,
            "name": "F#2",
            "velocity": 1,
            "duration": 0.0813608125000087,
            "ticks": 21349,
            "durationTicks": 22
          },
          {
            "time": 79.13078659375,
            "midi": 36,
            "name": "C2",
            "velocity": 1,
            "duration": 0.0813608125000087,
            "ticks": 21397,
            "durationTicks": 22
          },
          {
            "time": 79.13078659375,
            "midi": 61,
            "name": "C#4",
            "velocity": 1,
            "duration": 0.0813608125000087,
            "ticks": 21397,
            "durationTicks": 22
          },
          {
            "time": 79.13078659375,
            "midi": 42,
            "name": "F#2",
            "velocity": 1,
            "duration": 0.07766259375000573,
            "ticks": 21397,
            "durationTicks": 21
          },
          {
            "time": 79.30460287500001,
            "midi": 38,
            "name": "D2",
            "velocity": 1,
            "duration": 0.08505903124999747,
            "ticks": 21444,
            "durationTicks": 23
          },
          {
            "time": 79.30460287500001,
            "midi": 61,
            "name": "C#4",
            "velocity": 1,
            "duration": 0.08505903124999747,
            "ticks": 21444,
            "durationTicks": 23
          },
          {
            "time": 79.30830109375,
            "midi": 42,
            "name": "F#2",
            "velocity": 1,
            "duration": 0.08505903125001169,
            "ticks": 21445,
            "durationTicks": 23
          },
          {
            "time": 79.48581559375,
            "midi": 61,
            "name": "C#4",
            "velocity": 1,
            "duration": 0.08505903124999747,
            "ticks": 21493,
            "durationTicks": 23
          },
          {
            "time": 79.48581559375,
            "midi": 42,
            "name": "F#2",
            "velocity": 1,
            "duration": 0.0813608125000087,
            "ticks": 21493,
            "durationTicks": 22
          },
          {
            "time": 79.659631875,
            "midi": 36,
            "name": "C2",
            "velocity": 1,
            "duration": 0.08505903125001169,
            "ticks": 21540,
            "durationTicks": 23
          },
          {
            "time": 79.659631875,
            "midi": 61,
            "name": "C#4",
            "velocity": 1,
            "duration": 0.08505903125001169,
            "ticks": 21540,
            "durationTicks": 23
          },
          {
            "time": 79.66333009375,
            "midi": 42,
            "name": "F#2",
            "velocity": 1,
            "duration": 0.06286971875000802,
            "ticks": 21541,
            "durationTicks": 17
          },
          {
            "time": 79.84084459375,
            "midi": 61,
            "name": "C#4",
            "velocity": 1,
            "duration": 0.08505903124999747,
            "ticks": 21589,
            "durationTicks": 23
          },
          {
            "time": 79.84084459375,
            "midi": 42,
            "name": "F#2",
            "velocity": 1,
            "duration": 0.05917150000000504,
            "ticks": 21589,
            "durationTicks": 16
          },
          {
            "time": 80.01835909375,
            "midi": 38,
            "name": "D2",
            "velocity": 1,
            "duration": 0.08505903124999747,
            "ticks": 21637,
            "durationTicks": 23
          },
          {
            "time": 80.01835909375,
            "midi": 61,
            "name": "C#4",
            "velocity": 1,
            "duration": 0.08505903124999747,
            "ticks": 21637,
            "durationTicks": 23
          },
          {
            "time": 80.01835909375,
            "midi": 42,
            "name": "F#2",
            "velocity": 1,
            "duration": 0.07396437500000275,
            "ticks": 21637,
            "durationTicks": 20
          },
          {
            "time": 80.19587359375001,
            "midi": 61,
            "name": "C#4",
            "velocity": 1,
            "duration": 0.08505903124999747,
            "ticks": 21685,
            "durationTicks": 23
          },
          {
            "time": 80.19587359375001,
            "midi": 42,
            "name": "F#2",
            "velocity": 1,
            "duration": 0.05177506249999908,
            "ticks": 21685,
            "durationTicks": 14
          },
          {
            "time": 80.37338809375001,
            "midi": 36,
            "name": "C2",
            "velocity": 1,
            "duration": 0.08505903124999747,
            "ticks": 21733,
            "durationTicks": 23
          },
          {
            "time": 80.37338809375001,
            "midi": 61,
            "name": "C#4",
            "velocity": 1,
            "duration": 0.08505903124999747,
            "ticks": 21733,
            "durationTicks": 23
          },
          {
            "time": 80.37338809375001,
            "midi": 51,
            "name": "D#3",
            "velocity": 1,
            "duration": 0.3217450312500034,
            "ticks": 21733,
            "durationTicks": 87
          },
          {
            "time": 80.37708631250001,
            "midi": 40,
            "name": "E2",
            "velocity": 1,
            "duration": 0.3217450312500034,
            "ticks": 21734,
            "durationTicks": 87
          },
          {
            "time": 80.37708631250001,
            "midi": 42,
            "name": "F#2",
            "velocity": 1,
            "duration": 0.07766259375000573,
            "ticks": 21734,
            "durationTicks": 21
          },
          {
            "time": 80.55460081250001,
            "midi": 36,
            "name": "C2",
            "velocity": 1,
            "duration": 0.08505903124999747,
            "ticks": 21782,
            "durationTicks": 23
          },
          {
            "time": 80.55460081250001,
            "midi": 61,
            "name": "C#4",
            "velocity": 1,
            "duration": 0.08505903124999747,
            "ticks": 21782,
            "durationTicks": 23
          },
          {
            "time": 80.55460081250001,
            "midi": 42,
            "name": "F#2",
            "velocity": 1,
            "duration": 0.08505903124999747,
            "ticks": 21782,
            "durationTicks": 23
          },
          {
            "time": 80.72841709375001,
            "midi": 38,
            "name": "D2",
            "velocity": 1,
            "duration": 0.08505903124999747,
            "ticks": 21829,
            "durationTicks": 23
          },
          {
            "time": 80.72841709375001,
            "midi": 61,
            "name": "C#4",
            "velocity": 1,
            "duration": 0.08875725000000045,
            "ticks": 21829,
            "durationTicks": 24
          },
          {
            "time": 80.73211531250001,
            "midi": 42,
            "name": "F#2",
            "velocity": 1,
            "duration": 0.0813608124999945,
            "ticks": 21830,
            "durationTicks": 22
          },
          {
            "time": 80.90962981250001,
            "midi": 61,
            "name": "C#4",
            "velocity": 1,
            "duration": 0.08505903124999747,
            "ticks": 21878,
            "durationTicks": 23
          },
          {
            "time": 80.90962981250001,
            "midi": 42,
            "name": "F#2",
            "velocity": 1,
            "duration": 0.08505903124999747,
            "ticks": 21878,
            "durationTicks": 23
          },
          {
            "time": 81.08344609375001,
            "midi": 36,
            "name": "C2",
            "velocity": 1,
            "duration": 0.08875724999998624,
            "ticks": 21925,
            "durationTicks": 24
          },
          {
            "time": 81.08344609375001,
            "midi": 61,
            "name": "C#4",
            "velocity": 1,
            "duration": 0.08875724999998624,
            "ticks": 21925,
            "durationTicks": 24
          },
          {
            "time": 81.08714431250002,
            "midi": 42,
            "name": "F#2",
            "velocity": 1,
            "duration": 0.09985190624999518,
            "ticks": 21926,
            "durationTicks": 27
          },
          {
            "time": 81.26465881250002,
            "midi": 61,
            "name": "C#4",
            "velocity": 1,
            "duration": 0.08505903124998326,
            "ticks": 21974,
            "durationTicks": 23
          },
          {
            "time": 81.26465881250002,
            "midi": 42,
            "name": "F#2",
            "velocity": 1,
            "duration": 0.08875725000000045,
            "ticks": 21974,
            "durationTicks": 24
          },
          {
            "time": 81.44217331250002,
            "midi": 38,
            "name": "D2",
            "velocity": 1,
            "duration": 0.08505903124998326,
            "ticks": 22022,
            "durationTicks": 23
          },
          {
            "time": 81.44217331250002,
            "midi": 61,
            "name": "C#4",
            "velocity": 1,
            "duration": 0.08505903124998326,
            "ticks": 22022,
            "durationTicks": 23
          },
          {
            "time": 81.44217331250002,
            "midi": 42,
            "name": "F#2",
            "velocity": 1,
            "duration": 0.07766259374999152,
            "ticks": 22022,
            "durationTicks": 21
          },
          {
            "time": 81.62338603125,
            "midi": 61,
            "name": "C#4",
            "velocity": 1,
            "duration": 0.08505903125001169,
            "ticks": 22071,
            "durationTicks": 23
          },
          {
            "time": 81.62338603125,
            "midi": 42,
            "name": "F#2",
            "velocity": 1,
            "duration": 0.07026615624999977,
            "ticks": 22071,
            "durationTicks": 19
          },
          {
            "time": 81.79720231250002,
            "midi": 36,
            "name": "C2",
            "velocity": 1,
            "duration": 0.08505903124998326,
            "ticks": 22118,
            "durationTicks": 23
          },
          {
            "time": 81.79720231250002,
            "midi": 61,
            "name": "C#4",
            "velocity": 1,
            "duration": 0.08505903124998326,
            "ticks": 22118,
            "durationTicks": 23
          },
          {
            "time": 81.79720231250002,
            "midi": 40,
            "name": "E2",
            "velocity": 1,
            "duration": 0.3550289999999876,
            "ticks": 22118,
            "durationTicks": 96
          },
          {
            "time": 81.80090053125001,
            "midi": 51,
            "name": "D#3",
            "velocity": 1,
            "duration": 0.3735200937500025,
            "ticks": 22119,
            "durationTicks": 101
          },
          {
            "time": 81.80090053125001,
            "midi": 42,
            "name": "F#2",
            "velocity": 1,
            "duration": 0.06656793749999679,
            "ticks": 22119,
            "durationTicks": 18
          },
          {
            "time": 81.97841503125001,
            "midi": 36,
            "name": "C2",
            "velocity": 1,
            "duration": 0.08505903124999747,
            "ticks": 22167,
            "durationTicks": 23
          },
          {
            "time": 81.97841503125001,
            "midi": 61,
            "name": "C#4",
            "velocity": 1,
            "duration": 0.08505903124999747,
            "ticks": 22167,
            "durationTicks": 23
          },
          {
            "time": 81.97841503125001,
            "midi": 42,
            "name": "F#2",
            "velocity": 1,
            "duration": 0.0813608124999945,
            "ticks": 22167,
            "durationTicks": 22
          },
          {
            "time": 82.15592953125001,
            "midi": 38,
            "name": "D2",
            "velocity": 1,
            "duration": 0.0813608124999945,
            "ticks": 22215,
            "durationTicks": 22
          },
          {
            "time": 82.15592953125001,
            "midi": 61,
            "name": "C#4",
            "velocity": 1,
            "duration": 0.0813608124999945,
            "ticks": 22215,
            "durationTicks": 22
          },
          {
            "time": 82.15592953125001,
            "midi": 42,
            "name": "F#2",
            "velocity": 1,
            "duration": 0.09245546874998922,
            "ticks": 22215,
            "durationTicks": 25
          },
          {
            "time": 82.33344403125001,
            "midi": 61,
            "name": "C#4",
            "velocity": 1,
            "duration": 0.08505903124999747,
            "ticks": 22263,
            "durationTicks": 23
          },
          {
            "time": 82.33344403125001,
            "midi": 42,
            "name": "F#2",
            "velocity": 1,
            "duration": 0.08505903124999747,
            "ticks": 22263,
            "durationTicks": 23
          },
          {
            "time": 82.51095853125001,
            "midi": 36,
            "name": "C2",
            "velocity": 1,
            "duration": 0.08505903124999747,
            "ticks": 22311,
            "durationTicks": 23
          },
          {
            "time": 82.51095853125001,
            "midi": 61,
            "name": "C#4",
            "velocity": 1,
            "duration": 0.08505903124999747,
            "ticks": 22311,
            "durationTicks": 23
          },
          {
            "time": 82.51095853125001,
            "midi": 42,
            "name": "F#2",
            "velocity": 1,
            "duration": 0.07766259374999152,
            "ticks": 22311,
            "durationTicks": 21
          },
          {
            "time": 82.69217125,
            "midi": 61,
            "name": "C#4",
            "velocity": 1,
            "duration": 0.0813608125000087,
            "ticks": 22360,
            "durationTicks": 22
          },
          {
            "time": 82.69217125,
            "midi": 42,
            "name": "F#2",
            "velocity": 1,
            "duration": 0.066567937500011,
            "ticks": 22360,
            "durationTicks": 18
          },
          {
            "time": 82.86598753125001,
            "midi": 38,
            "name": "D2",
            "velocity": 1,
            "duration": 0.08505903124999747,
            "ticks": 22407,
            "durationTicks": 23
          },
          {
            "time": 82.86598753125001,
            "midi": 61,
            "name": "C#4",
            "velocity": 1,
            "duration": 0.08505903124999747,
            "ticks": 22407,
            "durationTicks": 23
          },
          {
            "time": 82.86598753125001,
            "midi": 42,
            "name": "F#2",
            "velocity": 1,
            "duration": 0.07026615624998556,
            "ticks": 22407,
            "durationTicks": 19
          },
          {
            "time": 83.04720025,
            "midi": 61,
            "name": "C#4",
            "velocity": 1,
            "duration": 0.08505903125001169,
            "ticks": 22456,
            "durationTicks": 23
          },
          {
            "time": 83.04720025,
            "midi": 42,
            "name": "F#2",
            "velocity": 1,
            "duration": 0.07026615625001398,
            "ticks": 22456,
            "durationTicks": 19
          },
          {
            "time": 83.22101653125002,
            "midi": 36,
            "name": "C2",
            "velocity": 1,
            "duration": 0.08505903124999747,
            "ticks": 22503,
            "durationTicks": 23
          },
          {
            "time": 83.22101653125002,
            "midi": 61,
            "name": "C#4",
            "velocity": 1,
            "duration": 0.08505903124999747,
            "ticks": 22503,
            "durationTicks": 23
          },
          {
            "time": 83.22471475,
            "midi": 51,
            "name": "D#3",
            "velocity": 1,
            "duration": 0.31804681250000044,
            "ticks": 22504,
            "durationTicks": 86
          },
          {
            "time": 83.22471475,
            "midi": 40,
            "name": "E2",
            "velocity": 1,
            "duration": 0.3217450312500034,
            "ticks": 22504,
            "durationTicks": 87
          },
          {
            "time": 83.22471475,
            "midi": 42,
            "name": "F#2",
            "velocity": 1,
            "duration": 0.06656793749999679,
            "ticks": 22504,
            "durationTicks": 18
          },
          {
            "time": 83.40222925,
            "midi": 36,
            "name": "C2",
            "velocity": 1,
            "duration": 0.08505903124999747,
            "ticks": 22552,
            "durationTicks": 23
          },
          {
            "time": 83.40222925,
            "midi": 61,
            "name": "C#4",
            "velocity": 1,
            "duration": 0.08505903124999747,
            "ticks": 22552,
            "durationTicks": 23
          },
          {
            "time": 83.40592746875001,
            "midi": 42,
            "name": "F#2",
            "velocity": 1,
            "duration": 0.07026615624999977,
            "ticks": 22553,
            "durationTicks": 19
          },
          {
            "time": 83.57974375,
            "midi": 38,
            "name": "D2",
            "velocity": 1,
            "duration": 0.08505903124999747,
            "ticks": 22600,
            "durationTicks": 23
          },
          {
            "time": 83.57974375,
            "midi": 61,
            "name": "C#4",
            "velocity": 1,
            "duration": 0.08505903124999747,
            "ticks": 22600,
            "durationTicks": 23
          },
          {
            "time": 83.57974375,
            "midi": 42,
            "name": "F#2",
            "velocity": 1,
            "duration": 0.09245546875000343,
            "ticks": 22600,
            "durationTicks": 25
          },
          {
            "time": 83.75725825,
            "midi": 61,
            "name": "C#4",
            "velocity": 1,
            "duration": 0.08505903124999747,
            "ticks": 22648,
            "durationTicks": 23
          },
          {
            "time": 83.76095646875001,
            "midi": 42,
            "name": "F#2",
            "velocity": 1,
            "duration": 0.0961536874999922,
            "ticks": 22649,
            "durationTicks": 26
          },
          {
            "time": 83.93477275000001,
            "midi": 36,
            "name": "C2",
            "velocity": 1,
            "duration": 0.08505903124999747,
            "ticks": 22696,
            "durationTicks": 23
          },
          {
            "time": 83.93477275000001,
            "midi": 61,
            "name": "C#4",
            "velocity": 1,
            "duration": 0.08505903124999747,
            "ticks": 22696,
            "durationTicks": 23
          },
          {
            "time": 83.93477275000001,
            "midi": 42,
            "name": "F#2",
            "velocity": 1,
            "duration": 0.1294376562500048,
            "ticks": 22696,
            "durationTicks": 35
          },
          {
            "time": 84.11598546875001,
            "midi": 61,
            "name": "C#4",
            "velocity": 1,
            "duration": 0.08505903124999747,
            "ticks": 22745,
            "durationTicks": 23
          },
          {
            "time": 84.11598546875001,
            "midi": 42,
            "name": "F#2",
            "velocity": 1,
            "duration": 0.08505903124999747,
            "ticks": 22745,
            "durationTicks": 23
          },
          {
            "time": 84.28980175000001,
            "midi": 38,
            "name": "D2",
            "velocity": 1,
            "duration": 0.08505903124999747,
            "ticks": 22792,
            "durationTicks": 23
          },
          {
            "time": 84.28980175000001,
            "midi": 61,
            "name": "C#4",
            "velocity": 1,
            "duration": 0.08505903124999747,
            "ticks": 22792,
            "durationTicks": 23
          },
          {
            "time": 84.29349996875001,
            "midi": 42,
            "name": "F#2",
            "velocity": 1,
            "duration": 0.06656793749999679,
            "ticks": 22793,
            "durationTicks": 18
          },
          {
            "time": 84.47101446875001,
            "midi": 61,
            "name": "C#4",
            "velocity": 1,
            "duration": 0.08505903124999747,
            "ticks": 22841,
            "durationTicks": 23
          },
          {
            "time": 84.47101446875001,
            "midi": 42,
            "name": "F#2",
            "velocity": 1,
            "duration": 0.07026615624999977,
            "ticks": 22841,
            "durationTicks": 19
          },
          {
            "time": 84.64483075000001,
            "midi": 36,
            "name": "C2",
            "velocity": 1,
            "duration": 0.08505903124999747,
            "ticks": 22888,
            "durationTicks": 23
          },
          {
            "time": 84.64852896875001,
            "midi": 61,
            "name": "C#4",
            "velocity": 1,
            "duration": 0.0813608124999945,
            "ticks": 22889,
            "durationTicks": 22
          },
          {
            "time": 84.64852896875001,
            "midi": 40,
            "name": "E2",
            "velocity": 1,
            "duration": 0.3550290000000018,
            "ticks": 22889,
            "durationTicks": 96
          },
          {
            "time": 84.64852896875001,
            "midi": 51,
            "name": "D#3",
            "velocity": 1,
            "duration": 0.3735200937499883,
            "ticks": 22889,
            "durationTicks": 101
          },
          {
            "time": 84.64852896875001,
            "midi": 42,
            "name": "F#2",
            "velocity": 1,
            "duration": 0.07766259374999152,
            "ticks": 22889,
            "durationTicks": 21
          },
          {
            "time": 84.82604346875002,
            "midi": 36,
            "name": "C2",
            "velocity": 1,
            "duration": 0.08505903124999747,
            "ticks": 22937,
            "durationTicks": 23
          },
          {
            "time": 84.82604346875002,
            "midi": 61,
            "name": "C#4",
            "velocity": 1,
            "duration": 0.08505903124999747,
            "ticks": 22937,
            "durationTicks": 23
          },
          {
            "time": 84.8297416875,
            "midi": 42,
            "name": "F#2",
            "velocity": 1,
            "duration": 0.066567937500011,
            "ticks": 22938,
            "durationTicks": 18
          },
          {
            "time": 85.00355796875002,
            "midi": 38,
            "name": "D2",
            "velocity": 1,
            "duration": 0.08505903124998326,
            "ticks": 22985,
            "durationTicks": 23
          },
          {
            "time": 85.00355796875002,
            "midi": 61,
            "name": "C#4",
            "velocity": 1,
            "duration": 0.08505903124998326,
            "ticks": 22985,
            "durationTicks": 23
          },
          {
            "time": 85.00355796875002,
            "midi": 42,
            "name": "F#2",
            "velocity": 1,
            "duration": 0.08505903124998326,
            "ticks": 22985,
            "durationTicks": 23
          },
          {
            "time": 85.1847706875,
            "midi": 61,
            "name": "C#4",
            "velocity": 1,
            "duration": 0.08505903125001169,
            "ticks": 23034,
            "durationTicks": 23
          },
          {
            "time": 85.1847706875,
            "midi": 42,
            "name": "F#2",
            "velocity": 1,
            "duration": 0.08505903125001169,
            "ticks": 23034,
            "durationTicks": 23
          },
          {
            "time": 85.35858696875002,
            "midi": 36,
            "name": "C2",
            "velocity": 1,
            "duration": 0.08505903124998326,
            "ticks": 23081,
            "durationTicks": 23
          },
          {
            "time": 85.35858696875002,
            "midi": 61,
            "name": "C#4",
            "velocity": 1,
            "duration": 0.08505903124998326,
            "ticks": 23081,
            "durationTicks": 23
          },
          {
            "time": 85.35858696875002,
            "midi": 42,
            "name": "F#2",
            "velocity": 1,
            "duration": 0.11094656249998991,
            "ticks": 23081,
            "durationTicks": 30
          },
          {
            "time": 85.53979968750001,
            "midi": 61,
            "name": "C#4",
            "velocity": 1,
            "duration": 0.08505903125001169,
            "ticks": 23130,
            "durationTicks": 23
          },
          {
            "time": 85.53979968750001,
            "midi": 42,
            "name": "F#2",
            "velocity": 1,
            "duration": 0.08505903125001169,
            "ticks": 23130,
            "durationTicks": 23
          },
          {
            "time": 85.71361596875002,
            "midi": 38,
            "name": "D2",
            "velocity": 1,
            "duration": 0.08505903124998326,
            "ticks": 23177,
            "durationTicks": 23
          },
          {
            "time": 85.71361596875002,
            "midi": 61,
            "name": "C#4",
            "velocity": 1,
            "duration": 0.08505903124998326,
            "ticks": 23177,
            "durationTicks": 23
          },
          {
            "time": 85.71731418750001,
            "midi": 42,
            "name": "F#2",
            "velocity": 1,
            "duration": 0.07766259375000573,
            "ticks": 23178,
            "durationTicks": 21
          },
          {
            "time": 85.89482868750001,
            "midi": 61,
            "name": "C#4",
            "velocity": 1,
            "duration": 0.08505903124999747,
            "ticks": 23226,
            "durationTicks": 23
          },
          {
            "time": 85.89482868750001,
            "midi": 42,
            "name": "F#2",
            "velocity": 1,
            "duration": 0.08505903124999747,
            "ticks": 23226,
            "durationTicks": 23
          },
          {
            "time": 86.07234318750001,
            "midi": 36,
            "name": "C2",
            "velocity": 1,
            "duration": 0.08505903124999747,
            "ticks": 23274,
            "durationTicks": 23
          },
          {
            "time": 86.07234318750001,
            "midi": 61,
            "name": "C#4",
            "velocity": 1,
            "duration": 0.08505903124999747,
            "ticks": 23274,
            "durationTicks": 23
          },
          {
            "time": 86.07234318750001,
            "midi": 51,
            "name": "D#3",
            "velocity": 1,
            "duration": 0.31804681250000044,
            "ticks": 23274,
            "durationTicks": 86
          },
          {
            "time": 86.07234318750001,
            "midi": 40,
            "name": "E2",
            "velocity": 1,
            "duration": 0.3254432499999922,
            "ticks": 23274,
            "durationTicks": 88
          },
          {
            "time": 86.07234318750001,
            "midi": 42,
            "name": "F#2",
            "velocity": 1,
            "duration": 0.08505903124999747,
            "ticks": 23274,
            "durationTicks": 23
          },
          {
            "time": 86.24985768750001,
            "midi": 36,
            "name": "C2",
            "velocity": 1,
            "duration": 0.08505903124999747,
            "ticks": 23322,
            "durationTicks": 23
          },
          {
            "time": 86.25355590625,
            "midi": 61,
            "name": "C#4",
            "velocity": 1,
            "duration": 0.0813608125000087,
            "ticks": 23323,
            "durationTicks": 22
          },
          {
            "time": 86.25355590625,
            "midi": 42,
            "name": "F#2",
            "velocity": 1,
            "duration": 0.08505903125001169,
            "ticks": 23323,
            "durationTicks": 23
          },
          {
            "time": 86.42737218750001,
            "midi": 38,
            "name": "D2",
            "velocity": 1,
            "duration": 0.08505903124999747,
            "ticks": 23370,
            "durationTicks": 23
          },
          {
            "time": 86.42737218750001,
            "midi": 61,
            "name": "C#4",
            "velocity": 1,
            "duration": 0.08505903124999747,
            "ticks": 23370,
            "durationTicks": 23
          },
          {
            "time": 86.42737218750001,
            "midi": 42,
            "name": "F#2",
            "velocity": 1,
            "duration": 0.0813608124999945,
            "ticks": 23370,
            "durationTicks": 22
          },
          {
            "time": 86.60858490625,
            "midi": 61,
            "name": "C#4",
            "velocity": 1,
            "duration": 0.08505903125001169,
            "ticks": 23419,
            "durationTicks": 23
          },
          {
            "time": 86.60858490625,
            "midi": 42,
            "name": "F#2",
            "velocity": 1,
            "duration": 0.07766259375000573,
            "ticks": 23419,
            "durationTicks": 21
          },
          {
            "time": 86.78240118750001,
            "midi": 36,
            "name": "C2",
            "velocity": 1,
            "duration": 0.08505903124999747,
            "ticks": 23466,
            "durationTicks": 23
          },
          {
            "time": 86.78240118750001,
            "midi": 61,
            "name": "C#4",
            "velocity": 1,
            "duration": 0.08505903124999747,
            "ticks": 23466,
            "durationTicks": 23
          },
          {
            "time": 86.78609940625,
            "midi": 42,
            "name": "F#2",
            "velocity": 1,
            "duration": 0.09245546875000343,
            "ticks": 23467,
            "durationTicks": 25
          },
          {
            "time": 86.78609940625,
            "midi": 49,
            "name": "C#3",
            "velocity": 1,
            "duration": 1.2499979375000123,
            "ticks": 23467,
            "durationTicks": 338
          },
          {
            "time": 86.96361390625,
            "midi": 61,
            "name": "C#4",
            "velocity": 1,
            "duration": 0.08505903125001169,
            "ticks": 23515,
            "durationTicks": 23
          },
          {
            "time": 86.96361390625,
            "midi": 42,
            "name": "F#2",
            "velocity": 1,
            "duration": 0.07026615625001398,
            "ticks": 23515,
            "durationTicks": 19
          },
          {
            "time": 87.13743018750002,
            "midi": 38,
            "name": "D2",
            "velocity": 1,
            "duration": 0.08505903124999747,
            "ticks": 23562,
            "durationTicks": 23
          },
          {
            "time": 87.14112840625,
            "midi": 61,
            "name": "C#4",
            "velocity": 1,
            "duration": 0.08505903125001169,
            "ticks": 23563,
            "durationTicks": 23
          },
          {
            "time": 87.14112840625,
            "midi": 42,
            "name": "F#2",
            "velocity": 1,
            "duration": 0.07766259375000573,
            "ticks": 23563,
            "durationTicks": 21
          },
          {
            "time": 87.31864290625,
            "midi": 61,
            "name": "C#4",
            "velocity": 1,
            "duration": 0.08505903124999747,
            "ticks": 23611,
            "durationTicks": 23
          },
          {
            "time": 87.32234112500001,
            "midi": 42,
            "name": "F#2",
            "velocity": 1,
            "duration": 0.0813608124999945,
            "ticks": 23612,
            "durationTicks": 22
          },
          {
            "time": 87.49615740625,
            "midi": 36,
            "name": "C2",
            "velocity": 1,
            "duration": 0.08505903124999747,
            "ticks": 23659,
            "durationTicks": 23
          },
          {
            "time": 87.49615740625,
            "midi": 61,
            "name": "C#4",
            "velocity": 1,
            "duration": 0.08505903124999747,
            "ticks": 23659,
            "durationTicks": 23
          },
          {
            "time": 87.49615740625,
            "midi": 40,
            "name": "E2",
            "velocity": 1,
            "duration": 0.3550290000000018,
            "ticks": 23659,
            "durationTicks": 96
          },
          {
            "time": 87.49615740625,
            "midi": 51,
            "name": "D#3",
            "velocity": 1,
            "duration": 0.3772183125000055,
            "ticks": 23659,
            "durationTicks": 102
          },
          {
            "time": 87.49985562500001,
            "midi": 42,
            "name": "F#2",
            "velocity": 1,
            "duration": 0.0813608124999945,
            "ticks": 23660,
            "durationTicks": 22
          },
          {
            "time": 87.67737012500001,
            "midi": 36,
            "name": "C2",
            "velocity": 1,
            "duration": 0.08505903124999747,
            "ticks": 23708,
            "durationTicks": 23
          },
          {
            "time": 87.67737012500001,
            "midi": 61,
            "name": "C#4",
            "velocity": 1,
            "duration": 0.08505903124999747,
            "ticks": 23708,
            "durationTicks": 23
          },
          {
            "time": 87.67737012500001,
            "midi": 42,
            "name": "F#2",
            "velocity": 1,
            "duration": 0.08875725000000045,
            "ticks": 23708,
            "durationTicks": 24
          },
          {
            "time": 87.85118640625001,
            "midi": 38,
            "name": "D2",
            "velocity": 1,
            "duration": 0.08505903124999747,
            "ticks": 23755,
            "durationTicks": 23
          },
          {
            "time": 87.85488462500001,
            "midi": 61,
            "name": "C#4",
            "velocity": 1,
            "duration": 0.0813608124999945,
            "ticks": 23756,
            "durationTicks": 22
          },
          {
            "time": 87.85488462500001,
            "midi": 42,
            "name": "F#2",
            "velocity": 1,
            "duration": 0.09245546875000343,
            "ticks": 23756,
            "durationTicks": 25
          },
          {
            "time": 88.03239912500001,
            "midi": 61,
            "name": "C#4",
            "velocity": 1,
            "duration": 0.08505903124999747,
            "ticks": 23804,
            "durationTicks": 23
          },
          {
            "time": 88.03239912500001,
            "midi": 42,
            "name": "F#2",
            "velocity": 1,
            "duration": 0.08875725000000045,
            "ticks": 23804,
            "durationTicks": 24
          },
          {
            "time": 88.20621540625001,
            "midi": 36,
            "name": "C2",
            "velocity": 1,
            "duration": 0.08505903124999747,
            "ticks": 23851,
            "durationTicks": 23
          },
          {
            "time": 88.20991362500001,
            "midi": 61,
            "name": "C#4",
            "velocity": 1,
            "duration": 0.0813608124999945,
            "ticks": 23852,
            "durationTicks": 22
          },
          {
            "time": 88.20991362500001,
            "midi": 42,
            "name": "F#2",
            "velocity": 1,
            "duration": 0.10355012499999816,
            "ticks": 23852,
            "durationTicks": 28
          },
          {
            "time": 88.38742812500001,
            "midi": 61,
            "name": "C#4",
            "velocity": 1,
            "duration": 0.08505903124999747,
            "ticks": 23900,
            "durationTicks": 23
          },
          {
            "time": 88.38742812500001,
            "midi": 42,
            "name": "F#2",
            "velocity": 1,
            "duration": 0.0813608124999945,
            "ticks": 23900,
            "durationTicks": 22
          },
          {
            "time": 88.56494262500001,
            "midi": 38,
            "name": "D2",
            "velocity": 1,
            "duration": 0.08505903124999747,
            "ticks": 23948,
            "durationTicks": 23
          },
          {
            "time": 88.56494262500001,
            "midi": 61,
            "name": "C#4",
            "velocity": 1,
            "duration": 0.08505903124999747,
            "ticks": 23948,
            "durationTicks": 23
          },
          {
            "time": 88.56494262500001,
            "midi": 42,
            "name": "F#2",
            "velocity": 1,
            "duration": 0.08505903124999747,
            "ticks": 23948,
            "durationTicks": 23
          },
          {
            "time": 88.74615534375,
            "midi": 61,
            "name": "C#4",
            "velocity": 1,
            "duration": 0.0813608125000087,
            "ticks": 23997,
            "durationTicks": 22
          },
          {
            "time": 88.74615534375,
            "midi": 42,
            "name": "F#2",
            "velocity": 1,
            "duration": 0.0813608125000087,
            "ticks": 23997,
            "durationTicks": 22
          },
          {
            "time": 88.91997162500002,
            "midi": 36,
            "name": "C2",
            "velocity": 1,
            "duration": 0.08505903124998326,
            "ticks": 24044,
            "durationTicks": 23
          },
          {
            "time": 88.91997162500002,
            "midi": 61,
            "name": "C#4",
            "velocity": 1,
            "duration": 0.08505903124998326,
            "ticks": 24044,
            "durationTicks": 23
          },
          {
            "time": 88.91997162500002,
            "midi": 51,
            "name": "D#3",
            "velocity": 1,
            "duration": 0.3217450312500034,
            "ticks": 24044,
            "durationTicks": 87
          },
          {
            "time": 88.92366984375,
            "midi": 40,
            "name": "E2",
            "velocity": 1,
            "duration": 0.3217450312500034,
            "ticks": 24045,
            "durationTicks": 87
          },
          {
            "time": 88.92366984375,
            "midi": 42,
            "name": "F#2",
            "velocity": 1,
            "duration": 0.09245546875000343,
            "ticks": 24045,
            "durationTicks": 25
          },
          {
            "time": 89.10118434375,
            "midi": 36,
            "name": "C2",
            "velocity": 1,
            "duration": 0.08505903125001169,
            "ticks": 24093,
            "durationTicks": 23
          },
          {
            "time": 89.10118434375,
            "midi": 61,
            "name": "C#4",
            "velocity": 1,
            "duration": 0.08505903125001169,
            "ticks": 24093,
            "durationTicks": 23
          },
          {
            "time": 89.10118434375,
            "midi": 42,
            "name": "F#2",
            "velocity": 1,
            "duration": 0.08505903125001169,
            "ticks": 24093,
            "durationTicks": 23
          },
          {
            "time": 89.27500062500002,
            "midi": 38,
            "name": "D2",
            "velocity": 1,
            "duration": 0.08505903124998326,
            "ticks": 24140,
            "durationTicks": 23
          },
          {
            "time": 89.27500062500002,
            "midi": 61,
            "name": "C#4",
            "velocity": 1,
            "duration": 0.08505903124998326,
            "ticks": 24140,
            "durationTicks": 23
          },
          {
            "time": 89.27869884375,
            "midi": 42,
            "name": "F#2",
            "velocity": 1,
            "duration": 0.09245546875000343,
            "ticks": 24141,
            "durationTicks": 25
          },
          {
            "time": 89.45621334375001,
            "midi": 61,
            "name": "C#4",
            "velocity": 1,
            "duration": 0.08505903125001169,
            "ticks": 24189,
            "durationTicks": 23
          },
          {
            "time": 89.45621334375001,
            "midi": 42,
            "name": "F#2",
            "velocity": 1,
            "duration": 0.08875725000000045,
            "ticks": 24189,
            "durationTicks": 24
          },
          {
            "time": 89.63372784375001,
            "midi": 36,
            "name": "C2",
            "velocity": 1,
            "duration": 0.08505903124999747,
            "ticks": 24237,
            "durationTicks": 23
          },
          {
            "time": 89.63372784375001,
            "midi": 61,
            "name": "C#4",
            "velocity": 1,
            "duration": 0.08505903124999747,
            "ticks": 24237,
            "durationTicks": 23
          },
          {
            "time": 89.63372784375001,
            "midi": 42,
            "name": "F#2",
            "velocity": 1,
            "duration": 0.09245546875000343,
            "ticks": 24237,
            "durationTicks": 25
          },
          {
            "time": 89.81124234375001,
            "midi": 61,
            "name": "C#4",
            "velocity": 1,
            "duration": 0.08505903124999747,
            "ticks": 24285,
            "durationTicks": 23
          },
          {
            "time": 89.81124234375001,
            "midi": 42,
            "name": "F#2",
            "velocity": 1,
            "duration": 0.09615368750000641,
            "ticks": 24285,
            "durationTicks": 26
          },
          {
            "time": 89.98875684375001,
            "midi": 38,
            "name": "D2",
            "velocity": 1,
            "duration": 0.08505903124999747,
            "ticks": 24333,
            "durationTicks": 23
          },
          {
            "time": 89.98875684375001,
            "midi": 61,
            "name": "C#4",
            "velocity": 1,
            "duration": 0.08505903124999747,
            "ticks": 24333,
            "durationTicks": 23
          },
          {
            "time": 89.98875684375001,
            "midi": 42,
            "name": "F#2",
            "velocity": 1,
            "duration": 0.08505903124999747,
            "ticks": 24333,
            "durationTicks": 23
          },
          {
            "time": 90.1699695625,
            "midi": 61,
            "name": "C#4",
            "velocity": 1,
            "duration": 0.08505903125001169,
            "ticks": 24382,
            "durationTicks": 23
          },
          {
            "time": 90.1699695625,
            "midi": 42,
            "name": "F#2",
            "velocity": 1,
            "duration": 0.08505903125001169,
            "ticks": 24382,
            "durationTicks": 23
          },
          {
            "time": 90.34378584375001,
            "midi": 36,
            "name": "C2",
            "velocity": 1,
            "duration": 0.08505903124999747,
            "ticks": 24429,
            "durationTicks": 23
          },
          {
            "time": 90.34378584375001,
            "midi": 61,
            "name": "C#4",
            "velocity": 1,
            "duration": 0.08875725000000045,
            "ticks": 24429,
            "durationTicks": 24
          },
          {
            "time": 90.3474840625,
            "midi": 40,
            "name": "E2",
            "velocity": 1,
            "duration": 0.35133078125001305,
            "ticks": 24430,
            "durationTicks": 95
          },
          {
            "time": 90.3474840625,
            "midi": 51,
            "name": "D#3",
            "velocity": 1,
            "duration": 0.3735200937500025,
            "ticks": 24430,
            "durationTicks": 101
          },
          {
            "time": 90.3474840625,
            "midi": 42,
            "name": "F#2",
            "velocity": 1,
            "duration": 0.0813608125000087,
            "ticks": 24430,
            "durationTicks": 22
          },
          {
            "time": 90.5249985625,
            "midi": 36,
            "name": "C2",
            "velocity": 1,
            "duration": 0.08505903125001169,
            "ticks": 24478,
            "durationTicks": 23
          },
          {
            "time": 90.5249985625,
            "midi": 61,
            "name": "C#4",
            "velocity": 1,
            "duration": 0.08505903125001169,
            "ticks": 24478,
            "durationTicks": 23
          },
          {
            "time": 90.52869678125002,
            "midi": 42,
            "name": "F#2",
            "velocity": 1,
            "duration": 0.07766259374999152,
            "ticks": 24479,
            "durationTicks": 21
          },
          {
            "time": 90.7025130625,
            "midi": 38,
            "name": "D2",
            "velocity": 1,
            "duration": 0.0813608125000087,
            "ticks": 24526,
            "durationTicks": 22
          },
          {
            "time": 90.7025130625,
            "midi": 61,
            "name": "C#4",
            "velocity": 1,
            "duration": 0.0813608125000087,
            "ticks": 24526,
            "durationTicks": 22
          },
          {
            "time": 90.7025130625,
            "midi": 42,
            "name": "F#2",
            "velocity": 1,
            "duration": 0.08875725000000045,
            "ticks": 24526,
            "durationTicks": 24
          },
          {
            "time": 90.8800275625,
            "midi": 61,
            "name": "C#4",
            "velocity": 1,
            "duration": 0.08505903125001169,
            "ticks": 24574,
            "durationTicks": 23
          },
          {
            "time": 90.8800275625,
            "midi": 42,
            "name": "F#2",
            "velocity": 1,
            "duration": 0.0813608124999945,
            "ticks": 24574,
            "durationTicks": 22
          },
          {
            "time": 91.05754206250002,
            "midi": 36,
            "name": "C2",
            "velocity": 1,
            "duration": 0.08505903124999747,
            "ticks": 24622,
            "durationTicks": 23
          },
          {
            "time": 91.05754206250002,
            "midi": 61,
            "name": "C#4",
            "velocity": 1,
            "duration": 0.08505903124999747,
            "ticks": 24622,
            "durationTicks": 23
          },
          {
            "time": 91.05754206250002,
            "midi": 42,
            "name": "F#2",
            "velocity": 1,
            "duration": 0.06286971874999381,
            "ticks": 24622,
            "durationTicks": 17
          },
          {
            "time": 91.23875478125001,
            "midi": 61,
            "name": "C#4",
            "velocity": 1,
            "duration": 0.08505903125001169,
            "ticks": 24671,
            "durationTicks": 23
          },
          {
            "time": 91.23875478125001,
            "midi": 42,
            "name": "F#2",
            "velocity": 1,
            "duration": 0.05917150000000504,
            "ticks": 24671,
            "durationTicks": 16
          },
          {
            "time": 91.41257106250002,
            "midi": 38,
            "name": "D2",
            "velocity": 1,
            "duration": 0.08505903124998326,
            "ticks": 24718,
            "durationTicks": 23
          },
          {
            "time": 91.41257106250002,
            "midi": 61,
            "name": "C#4",
            "velocity": 1,
            "duration": 0.08505903124998326,
            "ticks": 24718,
            "durationTicks": 23
          },
          {
            "time": 91.41257106250002,
            "midi": 42,
            "name": "F#2",
            "velocity": 1,
            "duration": 0.07396437499998854,
            "ticks": 24718,
            "durationTicks": 20
          },
          {
            "time": 91.59378378125,
            "midi": 61,
            "name": "C#4",
            "velocity": 1,
            "duration": 0.0850590312500259,
            "ticks": 24767,
            "durationTicks": 23
          },
          {
            "time": 91.59378378125,
            "midi": 42,
            "name": "F#2",
            "velocity": 1,
            "duration": 0.04807684375001031,
            "ticks": 24767,
            "durationTicks": 13
          },
          {
            "time": 91.76760006250002,
            "midi": 36,
            "name": "C2",
            "velocity": 1,
            "duration": 0.08505903124998326,
            "ticks": 24814,
            "durationTicks": 23
          },
          {
            "time": 91.77129828125,
            "midi": 61,
            "name": "C#4",
            "velocity": 1,
            "duration": 0.0813608125000087,
            "ticks": 24815,
            "durationTicks": 22
          },
          {
            "time": 91.77129828125,
            "midi": 51,
            "name": "D#3",
            "velocity": 1,
            "duration": 0.31804681250001465,
            "ticks": 24815,
            "durationTicks": 86
          },
          {
            "time": 91.77129828125,
            "midi": 40,
            "name": "E2",
            "velocity": 1,
            "duration": 0.3217450312500034,
            "ticks": 24815,
            "durationTicks": 87
          },
          {
            "time": 91.77129828125,
            "midi": 42,
            "name": "F#2",
            "velocity": 1,
            "duration": 0.07766259375000573,
            "ticks": 24815,
            "durationTicks": 21
          },
          {
            "time": 91.94881278125,
            "midi": 36,
            "name": "C2",
            "velocity": 1,
            "duration": 0.08505903125001169,
            "ticks": 24863,
            "durationTicks": 23
          },
          {
            "time": 91.94881278125,
            "midi": 61,
            "name": "C#4",
            "velocity": 1,
            "duration": 0.08505903125001169,
            "ticks": 24863,
            "durationTicks": 23
          },
          {
            "time": 91.95251100000002,
            "midi": 42,
            "name": "F#2",
            "velocity": 1,
            "duration": 0.0813608124999945,
            "ticks": 24864,
            "durationTicks": 22
          },
          {
            "time": 92.12632728125,
            "midi": 38,
            "name": "D2",
            "velocity": 1,
            "duration": 0.08505903125001169,
            "ticks": 24911,
            "durationTicks": 23
          },
          {
            "time": 92.12632728125,
            "midi": 61,
            "name": "C#4",
            "velocity": 1,
            "duration": 0.08505903125001169,
            "ticks": 24911,
            "durationTicks": 23
          },
          {
            "time": 92.12632728125,
            "midi": 42,
            "name": "F#2",
            "velocity": 1,
            "duration": 0.08505903125001169,
            "ticks": 24911,
            "durationTicks": 23
          },
          {
            "time": 92.30384178125,
            "midi": 38,
            "name": "D2",
            "velocity": 1,
            "duration": 0.08505903125001169,
            "ticks": 24959,
            "durationTicks": 23
          },
          {
            "time": 92.30384178125,
            "midi": 61,
            "name": "C#4",
            "velocity": 1,
            "duration": 0.08505903125001169,
            "ticks": 24959,
            "durationTicks": 23
          },
          {
            "time": 92.30754000000002,
            "midi": 42,
            "name": "F#2",
            "velocity": 1,
            "duration": 0.0813608124999945,
            "ticks": 24960,
            "durationTicks": 22
          },
          {
            "time": 92.48135628125,
            "midi": 36,
            "name": "C2",
            "velocity": 1,
            "duration": 0.08505903125001169,
            "ticks": 25007,
            "durationTicks": 23
          },
          {
            "time": 92.48135628125,
            "midi": 42,
            "name": "F#2",
            "velocity": 1,
            "duration": 0.09615368750002062,
            "ticks": 25007,
            "durationTicks": 26
          },
          {
            "time": 92.662569,
            "midi": 42,
            "name": "F#2",
            "velocity": 1,
            "duration": 0.07026615625001398,
            "ticks": 25056,
            "durationTicks": 19
          },
          {
            "time": 92.83638528125,
            "midi": 36,
            "name": "C2",
            "velocity": 1,
            "duration": 0.08505903125001169,
            "ticks": 25103,
            "durationTicks": 23
          },
          {
            "time": 92.83638528125,
            "midi": 38,
            "name": "D2",
            "velocity": 1,
            "duration": 0.08505903125001169,
            "ticks": 25103,
            "durationTicks": 23
          },
          {
            "time": 92.8400835,
            "midi": 42,
            "name": "F#2",
            "velocity": 1,
            "duration": 0.07766259375000573,
            "ticks": 25104,
            "durationTicks": 21
          },
          {
            "time": 93.017598,
            "midi": 42,
            "name": "F#2",
            "velocity": 1,
            "duration": 0.08505903124999747,
            "ticks": 25152,
            "durationTicks": 23
          },
          {
            "time": 93.19141428125,
            "midi": 36,
            "name": "C2",
            "velocity": 1,
            "duration": 0.08875725000000045,
            "ticks": 25199,
            "durationTicks": 24
          },
          {
            "time": 93.19141428125,
            "midi": 42,
            "name": "F#2",
            "velocity": 1,
            "duration": 0.08875725000000045,
            "ticks": 25199,
            "durationTicks": 24
          },
          {
            "time": 93.37262700000001,
            "midi": 42,
            "name": "F#2",
            "velocity": 1,
            "duration": 0.09245546875000343,
            "ticks": 25248,
            "durationTicks": 25
          },
          {
            "time": 93.55014150000001,
            "midi": 36,
            "name": "C2",
            "velocity": 1,
            "duration": 0.08505903124999747,
            "ticks": 25296,
            "durationTicks": 23
          },
          {
            "time": 93.55014150000001,
            "midi": 38,
            "name": "D2",
            "velocity": 1,
            "duration": 0.08505903124999747,
            "ticks": 25296,
            "durationTicks": 23
          },
          {
            "time": 93.55014150000001,
            "midi": 42,
            "name": "F#2",
            "velocity": 1,
            "duration": 0.0961536874999922,
            "ticks": 25296,
            "durationTicks": 26
          },
          {
            "time": 93.73135421875001,
            "midi": 42,
            "name": "F#2",
            "velocity": 1,
            "duration": 0.08875725000000045,
            "ticks": 25345,
            "durationTicks": 24
          },
          {
            "time": 93.90517050000001,
            "midi": 36,
            "name": "C2",
            "velocity": 1,
            "duration": 0.08505903124999747,
            "ticks": 25392,
            "durationTicks": 23
          },
          {
            "time": 93.90517050000001,
            "midi": 42,
            "name": "F#2",
            "velocity": 1,
            "duration": 0.10355012500001237,
            "ticks": 25392,
            "durationTicks": 28
          },
          {
            "time": 94.08638321875002,
            "midi": 42,
            "name": "F#2",
            "velocity": 1,
            "duration": 0.0813608124999945,
            "ticks": 25441,
            "durationTicks": 22
          },
          {
            "time": 94.26019950000001,
            "midi": 38,
            "name": "D2",
            "velocity": 1,
            "duration": 0.08505903124999747,
            "ticks": 25488,
            "durationTicks": 23
          },
          {
            "time": 94.26389771875002,
            "midi": 36,
            "name": "C2",
            "velocity": 1,
            "duration": 0.08505903124999747,
            "ticks": 25489,
            "durationTicks": 23
          },
          {
            "time": 94.26389771875002,
            "midi": 42,
            "name": "F#2",
            "velocity": 1,
            "duration": 0.0813608124999945,
            "ticks": 25489,
            "durationTicks": 22
          },
          {
            "time": 94.44141221875002,
            "midi": 42,
            "name": "F#2",
            "velocity": 1,
            "duration": 0.08505903124999747,
            "ticks": 25537,
            "durationTicks": 23
          },
          {
            "time": 94.61892671875002,
            "midi": 36,
            "name": "C2",
            "velocity": 1,
            "duration": 0.08505903124999747,
            "ticks": 25585,
            "durationTicks": 23
          },
          {
            "time": 94.61892671875002,
            "midi": 42,
            "name": "F#2",
            "velocity": 1,
            "duration": 0.09245546874998922,
            "ticks": 25585,
            "durationTicks": 25
          },
          {
            "time": 94.79644121875002,
            "midi": 42,
            "name": "F#2",
            "velocity": 1,
            "duration": 0.08875725000000045,
            "ticks": 25633,
            "durationTicks": 24
          },
          {
            "time": 94.97395571875002,
            "midi": 36,
            "name": "C2",
            "velocity": 1,
            "duration": 0.08505903124999747,
            "ticks": 25681,
            "durationTicks": 23
          },
          {
            "time": 94.97395571875002,
            "midi": 38,
            "name": "D2",
            "velocity": 1,
            "duration": 0.08505903124999747,
            "ticks": 25681,
            "durationTicks": 23
          },
          {
            "time": 94.97395571875002,
            "midi": 42,
            "name": "F#2",
            "velocity": 1,
            "duration": 0.0961536874999922,
            "ticks": 25681,
            "durationTicks": 26
          },
          {
            "time": 95.15516843750001,
            "midi": 42,
            "name": "F#2",
            "velocity": 1,
            "duration": 0.08875725000000045,
            "ticks": 25730,
            "durationTicks": 24
          },
          {
            "time": 95.32898471875002,
            "midi": 36,
            "name": "C2",
            "velocity": 1,
            "duration": 0.08505903124998326,
            "ticks": 25777,
            "durationTicks": 23
          },
          {
            "time": 95.32898471875002,
            "midi": 42,
            "name": "F#2",
            "velocity": 1,
            "duration": 0.0961536874999922,
            "ticks": 25777,
            "durationTicks": 26
          },
          {
            "time": 95.5101974375,
            "midi": 42,
            "name": "F#2",
            "velocity": 1,
            "duration": 0.09615368750002062,
            "ticks": 25826,
            "durationTicks": 26
          },
          {
            "time": 95.6877119375,
            "midi": 38,
            "name": "D2",
            "velocity": 1,
            "duration": 0.0850590312500259,
            "ticks": 25874,
            "durationTicks": 23
          },
          {
            "time": 95.6877119375,
            "midi": 36,
            "name": "C2",
            "velocity": 1,
            "duration": 0.0850590312500259,
            "ticks": 25874,
            "durationTicks": 23
          },
          {
            "time": 95.6877119375,
            "midi": 42,
            "name": "F#2",
            "velocity": 1,
            "duration": 0.0850590312500259,
            "ticks": 25874,
            "durationTicks": 23
          },
          {
            "time": 95.8652264375,
            "midi": 42,
            "name": "F#2",
            "velocity": 1,
            "duration": 0.08505903125001169,
            "ticks": 25922,
            "durationTicks": 23
          },
          {
            "time": 96.0427409375,
            "midi": 36,
            "name": "C2",
            "velocity": 1,
            "duration": 0.08505903125001169,
            "ticks": 25970,
            "durationTicks": 23
          },
          {
            "time": 96.0427409375,
            "midi": 42,
            "name": "F#2",
            "velocity": 1,
            "duration": 0.08505903125001169,
            "ticks": 25970,
            "durationTicks": 23
          },
          {
            "time": 96.22395365625,
            "midi": 42,
            "name": "F#2",
            "velocity": 1,
            "duration": 0.07766259375000573,
            "ticks": 26019,
            "durationTicks": 21
          },
          {
            "time": 96.3977699375,
            "midi": 38,
            "name": "D2",
            "velocity": 1,
            "duration": 0.08505903125001169,
            "ticks": 26066,
            "durationTicks": 23
          },
          {
            "time": 96.3977699375,
            "midi": 36,
            "name": "C2",
            "velocity": 1,
            "duration": 0.08505903125001169,
            "ticks": 26066,
            "durationTicks": 23
          },
          {
            "time": 96.40146815625,
            "midi": 42,
            "name": "F#2",
            "velocity": 1,
            "duration": 0.08505903124999747,
            "ticks": 26067,
            "durationTicks": 23
          },
          {
            "time": 96.57898265625,
            "midi": 42,
            "name": "F#2",
            "velocity": 1,
            "duration": 0.0813608125000087,
            "ticks": 26115,
            "durationTicks": 22
          },
          {
            "time": 96.7527989375,
            "midi": 36,
            "name": "C2",
            "velocity": 1,
            "duration": 0.08505903125001169,
            "ticks": 26162,
            "durationTicks": 23
          },
          {
            "time": 96.7527989375,
            "midi": 42,
            "name": "F#2",
            "velocity": 1,
            "duration": 0.06656793749999679,
            "ticks": 26162,
            "durationTicks": 18
          },
          {
            "time": 96.93401165625001,
            "midi": 42,
            "name": "F#2",
            "velocity": 1,
            "duration": 0.06286971874999381,
            "ticks": 26211,
            "durationTicks": 17
          },
          {
            "time": 97.11152615625001,
            "midi": 36,
            "name": "C2",
            "velocity": 1,
            "duration": 0.08505903124999747,
            "ticks": 26259,
            "durationTicks": 23
          },
          {
            "time": 97.11152615625001,
            "midi": 38,
            "name": "D2",
            "velocity": 1,
            "duration": 0.08505903124999747,
            "ticks": 26259,
            "durationTicks": 23
          },
          {
            "time": 97.11152615625001,
            "midi": 42,
            "name": "F#2",
            "velocity": 1,
            "duration": 0.07396437500000275,
            "ticks": 26259,
            "durationTicks": 20
          },
          {
            "time": 97.29273887500001,
            "midi": 42,
            "name": "F#2",
            "velocity": 1,
            "duration": 0.0480768437499961,
            "ticks": 26308,
            "durationTicks": 13
          },
          {
            "time": 97.46655515625001,
            "midi": 36,
            "name": "C2",
            "velocity": 1,
            "duration": 0.08505903124999747,
            "ticks": 26355,
            "durationTicks": 23
          },
          {
            "time": 97.46655515625001,
            "midi": 42,
            "name": "F#2",
            "velocity": 1,
            "duration": 0.0813608125000087,
            "ticks": 26355,
            "durationTicks": 22
          },
          {
            "time": 97.64776787500001,
            "midi": 42,
            "name": "F#2",
            "velocity": 1,
            "duration": 0.08505903124999747,
            "ticks": 26404,
            "durationTicks": 23
          },
          {
            "time": 97.82158415625001,
            "midi": 36,
            "name": "C2",
            "velocity": 1,
            "duration": 0.08505903124999747,
            "ticks": 26451,
            "durationTicks": 23
          },
          {
            "time": 97.82528237500001,
            "midi": 38,
            "name": "D2",
            "velocity": 1,
            "duration": 0.08505903124999747,
            "ticks": 26452,
            "durationTicks": 23
          },
          {
            "time": 97.82528237500001,
            "midi": 42,
            "name": "F#2",
            "velocity": 1,
            "duration": 0.0813608124999945,
            "ticks": 26452,
            "durationTicks": 22
          },
          {
            "time": 98.00279687500002,
            "midi": 42,
            "name": "F#2",
            "velocity": 1,
            "duration": 0.08505903124999747,
            "ticks": 26500,
            "durationTicks": 23
          },
          {
            "time": 98.18031137500002,
            "midi": 36,
            "name": "C2",
            "velocity": 1,
            "duration": 0.08505903124999747,
            "ticks": 26548,
            "durationTicks": 23
          },
          {
            "time": 98.18031137500002,
            "midi": 42,
            "name": "F#2",
            "velocity": 1,
            "duration": 0.09985190624999518,
            "ticks": 26548,
            "durationTicks": 27
          },
          {
            "time": 98.36152409375,
            "midi": 42,
            "name": "F#2",
            "velocity": 1,
            "duration": 0.08505903125001169,
            "ticks": 26597,
            "durationTicks": 23
          },
          {
            "time": 98.53534037500002,
            "midi": 36,
            "name": "C2",
            "velocity": 1,
            "duration": 0.08505903124999747,
            "ticks": 26644,
            "durationTicks": 23
          },
          {
            "time": 98.53534037500002,
            "midi": 38,
            "name": "D2",
            "velocity": 1,
            "duration": 0.08505903124999747,
            "ticks": 26644,
            "durationTicks": 23
          },
          {
            "time": 98.53534037500002,
            "midi": 42,
            "name": "F#2",
            "velocity": 1,
            "duration": 0.08136081249998028,
            "ticks": 26644,
            "durationTicks": 22
          },
          {
            "time": 98.71655309375001,
            "midi": 42,
            "name": "F#2",
            "velocity": 1,
            "duration": 0.07026615624999977,
            "ticks": 26693,
            "durationTicks": 19
          },
          {
            "time": 98.89036937500002,
            "midi": 36,
            "name": "C2",
            "velocity": 1,
            "duration": 0.08505903124999747,
            "ticks": 26740,
            "durationTicks": 23
          },
          {
            "time": 98.89036937500002,
            "midi": 42,
            "name": "F#2",
            "velocity": 1,
            "duration": 0.07026615624998556,
            "ticks": 26740,
            "durationTicks": 19
          },
          {
            "time": 99.07158209375001,
            "midi": 42,
            "name": "F#2",
            "velocity": 1,
            "duration": 0.0813608124999945,
            "ticks": 26789,
            "durationTicks": 22
          },
          {
            "time": 99.24539837500002,
            "midi": 38,
            "name": "D2",
            "velocity": 1,
            "duration": 0.08875725000000045,
            "ticks": 26836,
            "durationTicks": 24
          },
          {
            "time": 99.24539837500002,
            "midi": 36,
            "name": "C2",
            "velocity": 1,
            "duration": 0.08875725000000045,
            "ticks": 26836,
            "durationTicks": 24
          },
          {
            "time": 99.24909659375001,
            "midi": 42,
            "name": "F#2",
            "velocity": 1,
            "duration": 0.09245546875000343,
            "ticks": 26837,
            "durationTicks": 25
          },
          {
            "time": 99.42661109375,
            "midi": 42,
            "name": "F#2",
            "velocity": 1,
            "duration": 0.0850590312500259,
            "ticks": 26885,
            "durationTicks": 23
          },
          {
            "time": 99.60412559375,
            "midi": 36,
            "name": "C2",
            "velocity": 1,
            "duration": 0.0850590312500259,
            "ticks": 26933,
            "durationTicks": 23
          },
          {
            "time": 99.60412559375,
            "midi": 42,
            "name": "F#2",
            "velocity": 1,
            "duration": 0.0813608125000087,
            "ticks": 26933,
            "durationTicks": 22
          },
          {
            "time": 99.78533831250002,
            "midi": 42,
            "name": "F#2",
            "velocity": 1,
            "duration": 0.07026615624999977,
            "ticks": 26982,
            "durationTicks": 19
          },
          {
            "time": 99.95915459375,
            "midi": 36,
            "name": "C2",
            "velocity": 1,
            "duration": 0.08505903125001169,
            "ticks": 27029,
            "durationTicks": 23
          },
          {
            "time": 99.95915459375,
            "midi": 38,
            "name": "D2",
            "velocity": 1,
            "duration": 0.08505903125001169,
            "ticks": 27029,
            "durationTicks": 23
          },
          {
            "time": 99.95915459375,
            "midi": 42,
            "name": "F#2",
            "velocity": 1,
            "duration": 0.07026615625001398,
            "ticks": 27029,
            "durationTicks": 19
          },
          {
            "time": 100.1403673125,
            "midi": 42,
            "name": "F#2",
            "velocity": 1,
            "duration": 0.07026615625001398,
            "ticks": 27078,
            "durationTicks": 19
          },
          {
            "time": 100.31418359375,
            "midi": 36,
            "name": "C2",
            "velocity": 1,
            "duration": 0.08505903125001169,
            "ticks": 27125,
            "durationTicks": 23
          },
          {
            "time": 100.3178818125,
            "midi": 42,
            "name": "F#2",
            "velocity": 1,
            "duration": 0.066567937500011,
            "ticks": 27126,
            "durationTicks": 18
          },
          {
            "time": 100.4953963125,
            "midi": 42,
            "name": "F#2",
            "velocity": 1,
            "duration": 0.07766259375000573,
            "ticks": 27174,
            "durationTicks": 21
          },
          {
            "time": 100.6729108125,
            "midi": 38,
            "name": "D2",
            "velocity": 1,
            "duration": 0.08505903124999747,
            "ticks": 27222,
            "durationTicks": 23
          },
          {
            "time": 100.6729108125,
            "midi": 36,
            "name": "C2",
            "velocity": 1,
            "duration": 0.08505903124999747,
            "ticks": 27222,
            "durationTicks": 23
          },
          {
            "time": 100.6729108125,
            "midi": 42,
            "name": "F#2",
            "velocity": 1,
            "duration": 0.09245546875001764,
            "ticks": 27222,
            "durationTicks": 25
          },
          {
            "time": 100.85412353125002,
            "midi": 42,
            "name": "F#2",
            "velocity": 1,
            "duration": 0.09985190624999518,
            "ticks": 27271,
            "durationTicks": 27
          },
          {
            "time": 101.02793981250001,
            "midi": 36,
            "name": "C2",
            "velocity": 1,
            "duration": 0.08505903124999747,
            "ticks": 27318,
            "durationTicks": 23
          },
          {
            "time": 101.02793981250001,
            "midi": 42,
            "name": "F#2",
            "velocity": 1,
            "duration": 0.1294376562499906,
            "ticks": 27318,
            "durationTicks": 35
          },
          {
            "time": 101.20915253125001,
            "midi": 42,
            "name": "F#2",
            "velocity": 1,
            "duration": 0.08505903124999747,
            "ticks": 27367,
            "durationTicks": 23
          },
          {
            "time": 101.38296881250001,
            "midi": 38,
            "name": "D2",
            "velocity": 1,
            "duration": 0.08505903124999747,
            "ticks": 27414,
            "durationTicks": 23
          },
          {
            "time": 101.38296881250001,
            "midi": 36,
            "name": "C2",
            "velocity": 1,
            "duration": 0.08505903124999747,
            "ticks": 27414,
            "durationTicks": 23
          },
          {
            "time": 101.38666703125001,
            "midi": 42,
            "name": "F#2",
            "velocity": 1,
            "duration": 0.066567937500011,
            "ticks": 27415,
            "durationTicks": 18
          },
          {
            "time": 101.56418153125001,
            "midi": 42,
            "name": "F#2",
            "velocity": 1,
            "duration": 0.07026615624998556,
            "ticks": 27463,
            "durationTicks": 19
          },
          {
            "time": 101.74169603125002,
            "midi": 36,
            "name": "C2",
            "velocity": 1,
            "duration": 0.0813608124999945,
            "ticks": 27511,
            "durationTicks": 22
          },
          {
            "time": 101.74169603125002,
            "midi": 42,
            "name": "F#2",
            "velocity": 1,
            "duration": 0.07766259375000573,
            "ticks": 27511,
            "durationTicks": 21
          },
          {
            "time": 101.91921053125002,
            "midi": 42,
            "name": "F#2",
            "velocity": 1,
            "duration": 0.07026615624998556,
            "ticks": 27559,
            "durationTicks": 19
          },
          {
            "time": 102.09672503125002,
            "midi": 36,
            "name": "C2",
            "velocity": 1,
            "duration": 0.08505903124999747,
            "ticks": 27607,
            "durationTicks": 23
          },
          {
            "time": 102.09672503125002,
            "midi": 38,
            "name": "D2",
            "velocity": 1,
            "duration": 0.08505903124999747,
            "ticks": 27607,
            "durationTicks": 23
          },
          {
            "time": 102.09672503125002,
            "midi": 42,
            "name": "F#2",
            "velocity": 1,
            "duration": 0.08505903124999747,
            "ticks": 27607,
            "durationTicks": 23
          },
          {
            "time": 102.27793775,
            "midi": 42,
            "name": "F#2",
            "velocity": 1,
            "duration": 0.08505903125001169,
            "ticks": 27656,
            "durationTicks": 23
          },
          {
            "time": 102.45175403125002,
            "midi": 36,
            "name": "C2",
            "velocity": 1,
            "duration": 0.08505903124999747,
            "ticks": 27703,
            "durationTicks": 23
          },
          {
            "time": 102.45175403125002,
            "midi": 42,
            "name": "F#2",
            "velocity": 1,
            "duration": 0.11094656250000412,
            "ticks": 27703,
            "durationTicks": 30
          },
          {
            "time": 102.63296675000001,
            "midi": 42,
            "name": "F#2",
            "velocity": 1,
            "duration": 0.08505903125001169,
            "ticks": 27752,
            "durationTicks": 23
          },
          {
            "time": 102.80678303125002,
            "midi": 36,
            "name": "C2",
            "velocity": 1,
            "duration": 0.08505903124999747,
            "ticks": 27799,
            "durationTicks": 23
          },
          {
            "time": 102.80678303125002,
            "midi": 38,
            "name": "D2",
            "velocity": 1,
            "duration": 0.08875725000000045,
            "ticks": 27799,
            "durationTicks": 24
          },
          {
            "time": 102.81048125000001,
            "midi": 42,
            "name": "F#2",
            "velocity": 1,
            "duration": 0.07766259374999152,
            "ticks": 27800,
            "durationTicks": 21
          },
          {
            "time": 102.98799575000001,
            "midi": 42,
            "name": "F#2",
            "velocity": 1,
            "duration": 0.08505903125001169,
            "ticks": 27848,
            "durationTicks": 23
          },
          {
            "time": 103.16551025000001,
            "midi": 36,
            "name": "C2",
            "velocity": 1,
            "duration": 0.08505903125001169,
            "ticks": 27896,
            "durationTicks": 23
          },
          {
            "time": 103.16551025000001,
            "midi": 42,
            "name": "F#2",
            "velocity": 1,
            "duration": 0.08505903125001169,
            "ticks": 27896,
            "durationTicks": 23
          },
          {
            "time": 103.34672296875002,
            "midi": 42,
            "name": "F#2",
            "velocity": 1,
            "duration": 0.08505903124998326,
            "ticks": 27945,
            "durationTicks": 23
          },
          {
            "time": 103.52053925,
            "midi": 38,
            "name": "D2",
            "velocity": 1,
            "duration": 0.0850590312500259,
            "ticks": 27992,
            "durationTicks": 23
          },
          {
            "time": 103.52053925,
            "midi": 36,
            "name": "C2",
            "velocity": 1,
            "duration": 0.0850590312500259,
            "ticks": 27992,
            "durationTicks": 23
          },
          {
            "time": 103.52053925,
            "midi": 42,
            "name": "F#2",
            "velocity": 1,
            "duration": 0.0813608125000087,
            "ticks": 27992,
            "durationTicks": 22
          },
          {
            "time": 103.70175196875002,
            "midi": 42,
            "name": "F#2",
            "velocity": 1,
            "duration": 0.0813608124999945,
            "ticks": 28041,
            "durationTicks": 22
          },
          {
            "time": 103.87556825,
            "midi": 36,
            "name": "C2",
            "velocity": 1,
            "duration": 0.08505903125001169,
            "ticks": 28088,
            "durationTicks": 23
          },
          {
            "time": 104.05678096875,
            "midi": 36,
            "name": "C2",
            "velocity": 1,
            "duration": 0.08505903124999747,
            "ticks": 28137,
            "durationTicks": 23
          },
          {
            "time": 104.23429546875,
            "midi": 36,
            "name": "C2",
            "velocity": 1,
            "duration": 0.08505903124999747,
            "ticks": 28185,
            "durationTicks": 23
          },
          {
            "time": 104.58932446875001,
            "midi": 38,
            "name": "D2",
            "velocity": 1,
            "duration": 0.08505903124999747,
            "ticks": 28281,
            "durationTicks": 23
          },
          {
            "time": 105.12556618750001,
            "midi": 36,
            "name": "C2",
            "velocity": 1,
            "duration": 0.08505903124999747,
            "ticks": 28426,
            "durationTicks": 23
          },
          {
            "time": 105.30308068750001,
            "midi": 36,
            "name": "C2",
            "velocity": 1,
            "duration": 0.08505903124999747,
            "ticks": 28474,
            "durationTicks": 23
          },
          {
            "time": 105.48059518750001,
            "midi": 36,
            "name": "C2",
            "velocity": 1,
            "duration": 0.08505903124999747,
            "ticks": 28522,
            "durationTicks": 23
          },
          {
            "time": 105.65810968750002,
            "midi": 36,
            "name": "C2",
            "velocity": 1,
            "duration": 0.08505903124999747,
            "ticks": 28570,
            "durationTicks": 23
          },
          {
            "time": 106.01313868750002,
            "midi": 38,
            "name": "D2",
            "velocity": 1,
            "duration": 0.08505903124999747,
            "ticks": 28666,
            "durationTicks": 23
          },
          {
            "time": 106.54938040625001,
            "midi": 36,
            "name": "C2",
            "velocity": 1,
            "duration": 0.08505903125001169,
            "ticks": 28811,
            "durationTicks": 23
          },
          {
            "time": 106.72689490625001,
            "midi": 36,
            "name": "C2",
            "velocity": 1,
            "duration": 0.08505903125001169,
            "ticks": 28859,
            "durationTicks": 23
          },
          {
            "time": 106.90810762500001,
            "midi": 36,
            "name": "C2",
            "velocity": 1,
            "duration": 0.08505903124999747,
            "ticks": 28908,
            "durationTicks": 23
          },
          {
            "time": 107.08192390625001,
            "midi": 36,
            "name": "C2",
            "velocity": 1,
            "duration": 0.08505903125001169,
            "ticks": 28955,
            "durationTicks": 23
          },
          {
            "time": 107.43695290625,
            "midi": 38,
            "name": "D2",
            "velocity": 1,
            "duration": 0.0850590312500259,
            "ticks": 29051,
            "durationTicks": 23
          },
          {
            "time": 107.79568012500002,
            "midi": 36,
            "name": "C2",
            "velocity": 1,
            "duration": 0.08505903124998326,
            "ticks": 29148,
            "durationTicks": 23
          },
          {
            "time": 107.973194625,
            "midi": 38,
            "name": "D2",
            "velocity": 1,
            "duration": 0.08505903124999747,
            "ticks": 29196,
            "durationTicks": 23
          },
          {
            "time": 108.150709125,
            "midi": 36,
            "name": "C2",
            "velocity": 1,
            "duration": 0.08505903124999747,
            "ticks": 29244,
            "durationTicks": 23
          },
          {
            "time": 108.33192184375002,
            "midi": 38,
            "name": "D2",
            "velocity": 1,
            "duration": 0.08505903124998326,
            "ticks": 29293,
            "durationTicks": 23
          },
          {
            "time": 108.50573812500001,
            "midi": 36,
            "name": "C2",
            "velocity": 1,
            "duration": 0.08505903124999747,
            "ticks": 29340,
            "durationTicks": 23
          },
          {
            "time": 108.68695084375001,
            "midi": 38,
            "name": "D2",
            "velocity": 1,
            "duration": 0.08505903124999747,
            "ticks": 29389,
            "durationTicks": 23
          },
          {
            "time": 108.86076712500001,
            "midi": 36,
            "name": "C2",
            "velocity": 1,
            "duration": 0.08505903124999747,
            "ticks": 29436,
            "durationTicks": 23
          },
          {
            "time": 108.86446534375001,
            "midi": 38,
            "name": "D2",
            "velocity": 1,
            "duration": 0.0813608124999945,
            "ticks": 29437,
            "durationTicks": 22
          },
          {
            "time": 109.04197984375001,
            "midi": 38,
            "name": "D2",
            "velocity": 1,
            "duration": 0.08505903124999747,
            "ticks": 29485,
            "durationTicks": 23
          },
          {
            "time": 109.21949434375001,
            "midi": 38,
            "name": "D2",
            "velocity": 1,
            "duration": 0.08505903124999747,
            "ticks": 29533,
            "durationTicks": 23
          },
          {
            "time": 109.21949434375001,
            "midi": 36,
            "name": "C2",
            "velocity": 1,
            "duration": 0.08505903124999747,
            "ticks": 29533,
            "durationTicks": 23
          },
          {
            "time": 109.4007070625,
            "midi": 38,
            "name": "D2",
            "velocity": 1,
            "duration": 0.08505903125001169,
            "ticks": 29582,
            "durationTicks": 23
          },
          {
            "time": 109.4007070625,
            "midi": 36,
            "name": "C2",
            "velocity": 1,
            "duration": 0.08505903125001169,
            "ticks": 29582,
            "durationTicks": 23
          },
          {
            "time": 109.57452334375002,
            "midi": 36,
            "name": "C2",
            "velocity": 1,
            "duration": 0.08505903124999747,
            "ticks": 29629,
            "durationTicks": 23
          },
          {
            "time": 109.57452334375002,
            "midi": 61,
            "name": "C#4",
            "velocity": 1,
            "duration": 0.08505903124999747,
            "ticks": 29629,
            "durationTicks": 23
          },
          {
            "time": 109.57452334375002,
            "midi": 42,
            "name": "F#2",
            "velocity": 1,
            "duration": 0.0961536874999922,
            "ticks": 29629,
            "durationTicks": 26
          },
          {
            "time": 109.7557360625,
            "midi": 61,
            "name": "C#4",
            "velocity": 1,
            "duration": 0.08505903125001169,
            "ticks": 29678,
            "durationTicks": 23
          },
          {
            "time": 109.7557360625,
            "midi": 42,
            "name": "F#2",
            "velocity": 1,
            "duration": 0.07396437500001696,
            "ticks": 29678,
            "durationTicks": 20
          },
          {
            "time": 109.92955234375002,
            "midi": 38,
            "name": "D2",
            "velocity": 1,
            "duration": 0.08505903124999747,
            "ticks": 29725,
            "durationTicks": 23
          },
          {
            "time": 109.9332505625,
            "midi": 61,
            "name": "C#4",
            "velocity": 1,
            "duration": 0.0813608125000087,
            "ticks": 29726,
            "durationTicks": 22
          },
          {
            "time": 109.9332505625,
            "midi": 42,
            "name": "F#2",
            "velocity": 1,
            "duration": 0.07766259375000573,
            "ticks": 29726,
            "durationTicks": 21
          },
          {
            "time": 110.11076506250001,
            "midi": 61,
            "name": "C#4",
            "velocity": 1,
            "duration": 0.08505903125001169,
            "ticks": 29774,
            "durationTicks": 23
          },
          {
            "time": 110.11076506250001,
            "midi": 42,
            "name": "F#2",
            "velocity": 1,
            "duration": 0.08505903125001169,
            "ticks": 29774,
            "durationTicks": 23
          },
          {
            "time": 110.28827956250001,
            "midi": 36,
            "name": "C2",
            "velocity": 1,
            "duration": 0.08505903125001169,
            "ticks": 29822,
            "durationTicks": 23
          },
          {
            "time": 110.28827956250001,
            "midi": 61,
            "name": "C#4",
            "velocity": 1,
            "duration": 0.08505903125001169,
            "ticks": 29822,
            "durationTicks": 23
          },
          {
            "time": 110.28827956250001,
            "midi": 40,
            "name": "E2",
            "velocity": 1,
            "duration": 0.3550290000000018,
            "ticks": 29822,
            "durationTicks": 96
          },
          {
            "time": 110.28827956250001,
            "midi": 51,
            "name": "D#3",
            "velocity": 1,
            "duration": 0.3735200937500167,
            "ticks": 29822,
            "durationTicks": 101
          },
          {
            "time": 110.29197778125001,
            "midi": 42,
            "name": "F#2",
            "velocity": 1,
            "duration": 0.0813608125000087,
            "ticks": 29823,
            "durationTicks": 22
          },
          {
            "time": 110.46579406250001,
            "midi": 36,
            "name": "C2",
            "velocity": 1,
            "duration": 0.08505903125001169,
            "ticks": 29870,
            "durationTicks": 23
          },
          {
            "time": 110.46949228125001,
            "midi": 61,
            "name": "C#4",
            "velocity": 1,
            "duration": 0.0813608125000087,
            "ticks": 29871,
            "durationTicks": 22
          },
          {
            "time": 110.46949228125001,
            "midi": 42,
            "name": "F#2",
            "velocity": 1,
            "duration": 0.08875725000000045,
            "ticks": 29871,
            "durationTicks": 24
          },
          {
            "time": 110.64330856250001,
            "midi": 38,
            "name": "D2",
            "velocity": 1,
            "duration": 0.08505903125001169,
            "ticks": 29918,
            "durationTicks": 23
          },
          {
            "time": 110.64330856250001,
            "midi": 61,
            "name": "C#4",
            "velocity": 1,
            "duration": 0.08505903125001169,
            "ticks": 29918,
            "durationTicks": 23
          },
          {
            "time": 110.64700678125001,
            "midi": 42,
            "name": "F#2",
            "velocity": 1,
            "duration": 0.09245546875000343,
            "ticks": 29919,
            "durationTicks": 25
          },
          {
            "time": 110.82452128125001,
            "midi": 61,
            "name": "C#4",
            "velocity": 1,
            "duration": 0.08505903124999747,
            "ticks": 29967,
            "durationTicks": 23
          },
          {
            "time": 110.82452128125001,
            "midi": 42,
            "name": "F#2",
            "velocity": 1,
            "duration": 0.08875725000000045,
            "ticks": 29967,
            "durationTicks": 24
          },
          {
            "time": 110.99833756250001,
            "midi": 36,
            "name": "C2",
            "velocity": 1,
            "duration": 0.08505903125001169,
            "ticks": 30014,
            "durationTicks": 23
          },
          {
            "time": 110.99833756250001,
            "midi": 61,
            "name": "C#4",
            "velocity": 1,
            "duration": 0.08505903125001169,
            "ticks": 30014,
            "durationTicks": 23
          },
          {
            "time": 111.00203578125002,
            "midi": 42,
            "name": "F#2",
            "velocity": 1,
            "duration": 0.10355012499999816,
            "ticks": 30015,
            "durationTicks": 28
          },
          {
            "time": 111.17955028125002,
            "midi": 61,
            "name": "C#4",
            "velocity": 1,
            "duration": 0.08505903124998326,
            "ticks": 30063,
            "durationTicks": 23
          },
          {
            "time": 111.17955028125002,
            "midi": 42,
            "name": "F#2",
            "velocity": 1,
            "duration": 0.0813608125000087,
            "ticks": 30063,
            "durationTicks": 22
          },
          {
            "time": 111.3533665625,
            "midi": 38,
            "name": "D2",
            "velocity": 1,
            "duration": 0.08875725000000045,
            "ticks": 30110,
            "durationTicks": 24
          },
          {
            "time": 111.35706478125002,
            "midi": 61,
            "name": "C#4",
            "velocity": 1,
            "duration": 0.08505903124998326,
            "ticks": 30111,
            "durationTicks": 23
          },
          {
            "time": 111.35706478125002,
            "midi": 42,
            "name": "F#2",
            "velocity": 1,
            "duration": 0.08505903124998326,
            "ticks": 30111,
            "durationTicks": 23
          },
          {
            "time": 111.53457928125002,
            "midi": 61,
            "name": "C#4",
            "velocity": 1,
            "duration": 0.08505903124998326,
            "ticks": 30159,
            "durationTicks": 23
          },
          {
            "time": 111.53827750000002,
            "midi": 42,
            "name": "F#2",
            "velocity": 1,
            "duration": 0.08136081249998028,
            "ticks": 30160,
            "durationTicks": 22
          },
          {
            "time": 111.71209378125002,
            "midi": 36,
            "name": "C2",
            "velocity": 1,
            "duration": 0.08505903124998326,
            "ticks": 30207,
            "durationTicks": 23
          },
          {
            "time": 111.71209378125002,
            "midi": 61,
            "name": "C#4",
            "velocity": 1,
            "duration": 0.08505903124998326,
            "ticks": 30207,
            "durationTicks": 23
          },
          {
            "time": 111.71209378125002,
            "midi": 51,
            "name": "D#3",
            "velocity": 1,
            "duration": 0.3254432500000064,
            "ticks": 30207,
            "durationTicks": 88
          },
          {
            "time": 111.71209378125002,
            "midi": 40,
            "name": "E2",
            "velocity": 1,
            "duration": 0.3254432500000064,
            "ticks": 30207,
            "durationTicks": 88
          },
          {
            "time": 111.71579200000002,
            "midi": 42,
            "name": "F#2",
            "velocity": 1,
            "duration": 0.09245546874998922,
            "ticks": 30208,
            "durationTicks": 25
          },
          {
            "time": 111.89330650000002,
            "midi": 36,
            "name": "C2",
            "velocity": 1,
            "duration": 0.08505903124998326,
            "ticks": 30256,
            "durationTicks": 23
          },
          {
            "time": 111.89330650000002,
            "midi": 61,
            "name": "C#4",
            "velocity": 1,
            "duration": 0.08505903124998326,
            "ticks": 30256,
            "durationTicks": 23
          },
          {
            "time": 111.89330650000002,
            "midi": 42,
            "name": "F#2",
            "velocity": 1,
            "duration": 0.08505903124998326,
            "ticks": 30256,
            "durationTicks": 23
          },
          {
            "time": 112.06712278125,
            "midi": 38,
            "name": "D2",
            "velocity": 1,
            "duration": 0.08505903124999747,
            "ticks": 30303,
            "durationTicks": 23
          },
          {
            "time": 112.06712278125,
            "midi": 61,
            "name": "C#4",
            "velocity": 1,
            "duration": 0.08505903124999747,
            "ticks": 30303,
            "durationTicks": 23
          },
          {
            "time": 112.06712278125,
            "midi": 42,
            "name": "F#2",
            "velocity": 1,
            "duration": 0.0961536874999922,
            "ticks": 30303,
            "durationTicks": 26
          },
          {
            "time": 112.24833550000002,
            "midi": 61,
            "name": "C#4",
            "velocity": 1,
            "duration": 0.08505903124998326,
            "ticks": 30352,
            "durationTicks": 23
          },
          {
            "time": 112.24833550000002,
            "midi": 42,
            "name": "F#2",
            "velocity": 1,
            "duration": 0.08875725000000045,
            "ticks": 30352,
            "durationTicks": 24
          },
          {
            "time": 112.42215178125001,
            "midi": 36,
            "name": "C2",
            "velocity": 1,
            "duration": 0.08505903124999747,
            "ticks": 30399,
            "durationTicks": 23
          },
          {
            "time": 112.42215178125001,
            "midi": 61,
            "name": "C#4",
            "velocity": 1,
            "duration": 0.08505903124999747,
            "ticks": 30399,
            "durationTicks": 23
          },
          {
            "time": 112.42585000000003,
            "midi": 42,
            "name": "F#2",
            "velocity": 1,
            "duration": 0.09245546874997501,
            "ticks": 30400,
            "durationTicks": 25
          },
          {
            "time": 112.60336450000001,
            "midi": 61,
            "name": "C#4",
            "velocity": 1,
            "duration": 0.08505903124999747,
            "ticks": 30448,
            "durationTicks": 23
          },
          {
            "time": 112.60336450000001,
            "midi": 42,
            "name": "F#2",
            "velocity": 1,
            "duration": 0.09615368750000641,
            "ticks": 30448,
            "durationTicks": 26
          },
          {
            "time": 112.78087900000001,
            "midi": 38,
            "name": "D2",
            "velocity": 1,
            "duration": 0.08505903124999747,
            "ticks": 30496,
            "durationTicks": 23
          },
          {
            "time": 112.78087900000001,
            "midi": 61,
            "name": "C#4",
            "velocity": 1,
            "duration": 0.08505903124999747,
            "ticks": 30496,
            "durationTicks": 23
          },
          {
            "time": 112.78087900000001,
            "midi": 42,
            "name": "F#2",
            "velocity": 1,
            "duration": 0.08505903124999747,
            "ticks": 30496,
            "durationTicks": 23
          },
          {
            "time": 112.96209171875,
            "midi": 61,
            "name": "C#4",
            "velocity": 1,
            "duration": 0.08505903125001169,
            "ticks": 30545,
            "durationTicks": 23
          },
          {
            "time": 112.96209171875,
            "midi": 42,
            "name": "F#2",
            "velocity": 1,
            "duration": 0.08505903125001169,
            "ticks": 30545,
            "durationTicks": 23
          },
          {
            "time": 113.13590800000001,
            "midi": 36,
            "name": "C2",
            "velocity": 1,
            "duration": 0.08505903124999747,
            "ticks": 30592,
            "durationTicks": 23
          },
          {
            "time": 113.13590800000001,
            "midi": 61,
            "name": "C#4",
            "velocity": 1,
            "duration": 0.08505903124999747,
            "ticks": 30592,
            "durationTicks": 23
          },
          {
            "time": 113.13590800000001,
            "midi": 40,
            "name": "E2",
            "velocity": 1,
            "duration": 0.3550290000000018,
            "ticks": 30592,
            "durationTicks": 96
          },
          {
            "time": 113.13960621875,
            "midi": 51,
            "name": "D#3",
            "velocity": 1,
            "duration": 0.3735200937500167,
            "ticks": 30593,
            "durationTicks": 101
          },
          {
            "time": 113.13960621875,
            "midi": 42,
            "name": "F#2",
            "velocity": 1,
            "duration": 0.0813608125000087,
            "ticks": 30593,
            "durationTicks": 22
          },
          {
            "time": 113.31712071875,
            "midi": 36,
            "name": "C2",
            "velocity": 1,
            "duration": 0.08505903125001169,
            "ticks": 30641,
            "durationTicks": 23
          },
          {
            "time": 113.31712071875,
            "midi": 61,
            "name": "C#4",
            "velocity": 1,
            "duration": 0.08505903125001169,
            "ticks": 30641,
            "durationTicks": 23
          },
          {
            "time": 113.31712071875,
            "midi": 42,
            "name": "F#2",
            "velocity": 1,
            "duration": 0.0813608125000087,
            "ticks": 30641,
            "durationTicks": 22
          },
          {
            "time": 113.49463521875,
            "midi": 38,
            "name": "D2",
            "velocity": 1,
            "duration": 0.0813608125000087,
            "ticks": 30689,
            "durationTicks": 22
          },
          {
            "time": 113.49463521875,
            "midi": 61,
            "name": "C#4",
            "velocity": 1,
            "duration": 0.0813608125000087,
            "ticks": 30689,
            "durationTicks": 22
          },
          {
            "time": 113.49463521875,
            "midi": 42,
            "name": "F#2",
            "velocity": 1,
            "duration": 0.08875725000000045,
            "ticks": 30689,
            "durationTicks": 24
          },
          {
            "time": 113.67214971875,
            "midi": 61,
            "name": "C#4",
            "velocity": 1,
            "duration": 0.08505903125001169,
            "ticks": 30737,
            "durationTicks": 23
          },
          {
            "time": 113.67214971875,
            "midi": 42,
            "name": "F#2",
            "velocity": 1,
            "duration": 0.0813608125000087,
            "ticks": 30737,
            "durationTicks": 22
          },
          {
            "time": 113.84966421875001,
            "midi": 36,
            "name": "C2",
            "velocity": 1,
            "duration": 0.08505903125001169,
            "ticks": 30785,
            "durationTicks": 23
          },
          {
            "time": 113.84966421875001,
            "midi": 61,
            "name": "C#4",
            "velocity": 1,
            "duration": 0.08505903125001169,
            "ticks": 30785,
            "durationTicks": 23
          },
          {
            "time": 113.84966421875001,
            "midi": 42,
            "name": "F#2",
            "velocity": 1,
            "duration": 0.07026615624999977,
            "ticks": 30785,
            "durationTicks": 19
          },
          {
            "time": 114.02717871875001,
            "midi": 61,
            "name": "C#4",
            "velocity": 1,
            "duration": 0.08505903125001169,
            "ticks": 30833,
            "durationTicks": 23
          },
          {
            "time": 114.03087693750001,
            "midi": 42,
            "name": "F#2",
            "velocity": 1,
            "duration": 0.05917150000000504,
            "ticks": 30834,
            "durationTicks": 16
          },
          {
            "time": 114.20469321875001,
            "midi": 38,
            "name": "D2",
            "velocity": 1,
            "duration": 0.08505903125001169,
            "ticks": 30881,
            "durationTicks": 23
          },
          {
            "time": 114.20469321875001,
            "midi": 61,
            "name": "C#4",
            "velocity": 1,
            "duration": 0.08505903125001169,
            "ticks": 30881,
            "durationTicks": 23
          },
          {
            "time": 114.20469321875001,
            "midi": 42,
            "name": "F#2",
            "velocity": 1,
            "duration": 0.07396437500001696,
            "ticks": 30881,
            "durationTicks": 20
          },
          {
            "time": 114.38590593750001,
            "midi": 61,
            "name": "C#4",
            "velocity": 1,
            "duration": 0.08505903124999747,
            "ticks": 30930,
            "durationTicks": 23
          },
          {
            "time": 114.38590593750001,
            "midi": 42,
            "name": "F#2",
            "velocity": 1,
            "duration": 0.04807684375001031,
            "ticks": 30930,
            "durationTicks": 13
          },
          {
            "time": 114.55972221875001,
            "midi": 36,
            "name": "C2",
            "velocity": 1,
            "duration": 0.08505903125001169,
            "ticks": 30977,
            "durationTicks": 23
          },
          {
            "time": 114.55972221875001,
            "midi": 61,
            "name": "C#4",
            "velocity": 1,
            "duration": 0.08505903125001169,
            "ticks": 30977,
            "durationTicks": 23
          },
          {
            "time": 114.56342043750001,
            "midi": 51,
            "name": "D#3",
            "velocity": 1,
            "duration": 0.3217450312500034,
            "ticks": 30978,
            "durationTicks": 87
          },
          {
            "time": 114.56342043750001,
            "midi": 40,
            "name": "E2",
            "velocity": 1,
            "duration": 0.3217450312500034,
            "ticks": 30978,
            "durationTicks": 87
          },
          {
            "time": 114.56342043750001,
            "midi": 42,
            "name": "F#2",
            "velocity": 1,
            "duration": 0.07766259375000573,
            "ticks": 30978,
            "durationTicks": 21
          },
          {
            "time": 114.74093493750001,
            "midi": 36,
            "name": "C2",
            "velocity": 1,
            "duration": 0.08505903124999747,
            "ticks": 31026,
            "durationTicks": 23
          },
          {
            "time": 114.74093493750001,
            "midi": 61,
            "name": "C#4",
            "velocity": 1,
            "duration": 0.08505903124999747,
            "ticks": 31026,
            "durationTicks": 23
          },
          {
            "time": 114.74093493750001,
            "midi": 42,
            "name": "F#2",
            "velocity": 1,
            "duration": 0.08505903124999747,
            "ticks": 31026,
            "durationTicks": 23
          },
          {
            "time": 114.91475121875001,
            "midi": 38,
            "name": "D2",
            "velocity": 1,
            "duration": 0.08875724999998624,
            "ticks": 31073,
            "durationTicks": 24
          },
          {
            "time": 114.91475121875001,
            "midi": 61,
            "name": "C#4",
            "velocity": 1,
            "duration": 0.08875724999998624,
            "ticks": 31073,
            "durationTicks": 24
          },
          {
            "time": 114.91844943750002,
            "midi": 42,
            "name": "F#2",
            "velocity": 1,
            "duration": 0.08505903124998326,
            "ticks": 31074,
            "durationTicks": 23
          },
          {
            "time": 115.09596393750002,
            "midi": 61,
            "name": "C#4",
            "velocity": 1,
            "duration": 0.08505903124998326,
            "ticks": 31122,
            "durationTicks": 23
          },
          {
            "time": 115.09596393750002,
            "midi": 42,
            "name": "F#2",
            "velocity": 1,
            "duration": 0.08505903124998326,
            "ticks": 31122,
            "durationTicks": 23
          },
          {
            "time": 115.27347843750002,
            "midi": 36,
            "name": "C2",
            "velocity": 1,
            "duration": 0.08505903124998326,
            "ticks": 31170,
            "durationTicks": 23
          },
          {
            "time": 115.27347843750002,
            "midi": 61,
            "name": "C#4",
            "velocity": 1,
            "duration": 0.08505903124998326,
            "ticks": 31170,
            "durationTicks": 23
          },
          {
            "time": 115.27347843750002,
            "midi": 42,
            "name": "F#2",
            "velocity": 1,
            "duration": 0.0961536874999922,
            "ticks": 31170,
            "durationTicks": 26
          },
          {
            "time": 115.45469115625002,
            "midi": 61,
            "name": "C#4",
            "velocity": 1,
            "duration": 0.08505903124999747,
            "ticks": 31219,
            "durationTicks": 23
          },
          {
            "time": 115.45469115625002,
            "midi": 42,
            "name": "F#2",
            "velocity": 1,
            "duration": 0.07396437499998854,
            "ticks": 31219,
            "durationTicks": 20
          },
          {
            "time": 115.62850743750002,
            "midi": 38,
            "name": "D2",
            "velocity": 1,
            "duration": 0.08505903124998326,
            "ticks": 31266,
            "durationTicks": 23
          },
          {
            "time": 115.62850743750002,
            "midi": 61,
            "name": "C#4",
            "velocity": 1,
            "duration": 0.08505903124998326,
            "ticks": 31266,
            "durationTicks": 23
          },
          {
            "time": 115.62850743750002,
            "midi": 42,
            "name": "F#2",
            "velocity": 1,
            "duration": 0.08505903124998326,
            "ticks": 31266,
            "durationTicks": 23
          },
          {
            "time": 115.80972015625002,
            "midi": 61,
            "name": "C#4",
            "velocity": 1,
            "duration": 0.08505903124998326,
            "ticks": 31315,
            "durationTicks": 23
          },
          {
            "time": 115.80972015625002,
            "midi": 42,
            "name": "F#2",
            "velocity": 1,
            "duration": 0.08505903124998326,
            "ticks": 31315,
            "durationTicks": 23
          },
          {
            "time": 115.9835364375,
            "midi": 36,
            "name": "C2",
            "velocity": 1,
            "duration": 0.08505903124999747,
            "ticks": 31362,
            "durationTicks": 23
          },
          {
            "time": 115.98723465625002,
            "midi": 61,
            "name": "C#4",
            "velocity": 1,
            "duration": 0.08505903124998326,
            "ticks": 31363,
            "durationTicks": 23
          },
          {
            "time": 115.98723465625002,
            "midi": 40,
            "name": "E2",
            "velocity": 1,
            "duration": 0.3550290000000018,
            "ticks": 31363,
            "durationTicks": 96
          },
          {
            "time": 115.98723465625002,
            "midi": 51,
            "name": "D#3",
            "velocity": 1,
            "duration": 0.3735200937499883,
            "ticks": 31363,
            "durationTicks": 101
          },
          {
            "time": 115.98723465625002,
            "midi": 42,
            "name": "F#2",
            "velocity": 1,
            "duration": 0.08136081249998028,
            "ticks": 31363,
            "durationTicks": 22
          },
          {
            "time": 116.16474915625002,
            "midi": 36,
            "name": "C2",
            "velocity": 1,
            "duration": 0.08505903124998326,
            "ticks": 31411,
            "durationTicks": 23
          },
          {
            "time": 116.16474915625002,
            "midi": 61,
            "name": "C#4",
            "velocity": 1,
            "duration": 0.08505903124998326,
            "ticks": 31411,
            "durationTicks": 23
          },
          {
            "time": 116.168447375,
            "midi": 42,
            "name": "F#2",
            "velocity": 1,
            "duration": 0.0850590312500259,
            "ticks": 31412,
            "durationTicks": 23
          },
          {
            "time": 116.34226365625003,
            "midi": 38,
            "name": "D2",
            "velocity": 1,
            "duration": 0.08505903124998326,
            "ticks": 31459,
            "durationTicks": 23
          },
          {
            "time": 116.34226365625003,
            "midi": 61,
            "name": "C#4",
            "velocity": 1,
            "duration": 0.08505903124998326,
            "ticks": 31459,
            "durationTicks": 23
          },
          {
            "time": 116.34226365625003,
            "midi": 42,
            "name": "F#2",
            "velocity": 1,
            "duration": 0.09245546874997501,
            "ticks": 31459,
            "durationTicks": 25
          },
          {
            "time": 116.523476375,
            "midi": 61,
            "name": "C#4",
            "velocity": 1,
            "duration": 0.0813608125000087,
            "ticks": 31508,
            "durationTicks": 22
          },
          {
            "time": 116.523476375,
            "midi": 42,
            "name": "F#2",
            "velocity": 1,
            "duration": 0.08875725000000045,
            "ticks": 31508,
            "durationTicks": 24
          },
          {
            "time": 116.69729265625001,
            "midi": 36,
            "name": "C2",
            "velocity": 1,
            "duration": 0.08505903124999747,
            "ticks": 31555,
            "durationTicks": 23
          },
          {
            "time": 116.69729265625001,
            "midi": 61,
            "name": "C#4",
            "velocity": 1,
            "duration": 0.08505903124999747,
            "ticks": 31555,
            "durationTicks": 23
          },
          {
            "time": 116.69729265625001,
            "midi": 42,
            "name": "F#2",
            "velocity": 1,
            "duration": 0.10355012499999816,
            "ticks": 31555,
            "durationTicks": 28
          },
          {
            "time": 116.878505375,
            "midi": 61,
            "name": "C#4",
            "velocity": 1,
            "duration": 0.08505903125001169,
            "ticks": 31604,
            "durationTicks": 23
          },
          {
            "time": 116.878505375,
            "midi": 42,
            "name": "F#2",
            "velocity": 1,
            "duration": 0.07766259375000573,
            "ticks": 31604,
            "durationTicks": 21
          },
          {
            "time": 117.05232165625002,
            "midi": 38,
            "name": "D2",
            "velocity": 1,
            "duration": 0.08505903124999747,
            "ticks": 31651,
            "durationTicks": 23
          },
          {
            "time": 117.05232165625002,
            "midi": 61,
            "name": "C#4",
            "velocity": 1,
            "duration": 0.08875725000000045,
            "ticks": 31651,
            "durationTicks": 24
          },
          {
            "time": 117.056019875,
            "midi": 42,
            "name": "F#2",
            "velocity": 1,
            "duration": 0.0813608125000087,
            "ticks": 31652,
            "durationTicks": 22
          },
          {
            "time": 117.233534375,
            "midi": 61,
            "name": "C#4",
            "velocity": 1,
            "duration": 0.08505903125001169,
            "ticks": 31700,
            "durationTicks": 23
          },
          {
            "time": 117.233534375,
            "midi": 42,
            "name": "F#2",
            "velocity": 1,
            "duration": 0.08505903125001169,
            "ticks": 31700,
            "durationTicks": 23
          },
          {
            "time": 117.411048875,
            "midi": 36,
            "name": "C2",
            "velocity": 1,
            "duration": 0.08505903125001169,
            "ticks": 31748,
            "durationTicks": 23
          },
          {
            "time": 117.411048875,
            "midi": 61,
            "name": "C#4",
            "velocity": 1,
            "duration": 0.08505903125001169,
            "ticks": 31748,
            "durationTicks": 23
          },
          {
            "time": 117.411048875,
            "midi": 51,
            "name": "D#3",
            "velocity": 1,
            "duration": 0.3254432500000064,
            "ticks": 31748,
            "durationTicks": 88
          },
          {
            "time": 117.411048875,
            "midi": 40,
            "name": "E2",
            "velocity": 1,
            "duration": 0.3254432500000064,
            "ticks": 31748,
            "durationTicks": 88
          },
          {
            "time": 117.411048875,
            "midi": 42,
            "name": "F#2",
            "velocity": 1,
            "duration": 0.09245546875000343,
            "ticks": 31748,
            "durationTicks": 25
          },
          {
            "time": 117.588563375,
            "midi": 36,
            "name": "C2",
            "velocity": 1,
            "duration": 0.08505903125001169,
            "ticks": 31796,
            "durationTicks": 23
          },
          {
            "time": 117.59226159375001,
            "midi": 61,
            "name": "C#4",
            "velocity": 1,
            "duration": 0.0813608125000087,
            "ticks": 31797,
            "durationTicks": 22
          },
          {
            "time": 117.59226159375001,
            "midi": 42,
            "name": "F#2",
            "velocity": 1,
            "duration": 0.08505903124999747,
            "ticks": 31797,
            "durationTicks": 23
          },
          {
            "time": 117.76607787500001,
            "midi": 38,
            "name": "D2",
            "velocity": 1,
            "duration": 0.08505903125001169,
            "ticks": 31844,
            "durationTicks": 23
          },
          {
            "time": 117.76607787500001,
            "midi": 61,
            "name": "C#4",
            "velocity": 1,
            "duration": 0.08505903125001169,
            "ticks": 31844,
            "durationTicks": 23
          },
          {
            "time": 117.76607787500001,
            "midi": 42,
            "name": "F#2",
            "velocity": 1,
            "duration": 0.09615368750000641,
            "ticks": 31844,
            "durationTicks": 26
          },
          {
            "time": 117.94729059375001,
            "midi": 61,
            "name": "C#4",
            "velocity": 1,
            "duration": 0.08505903124999747,
            "ticks": 31893,
            "durationTicks": 23
          },
          {
            "time": 117.94729059375001,
            "midi": 42,
            "name": "F#2",
            "velocity": 1,
            "duration": 0.08875725000000045,
            "ticks": 31893,
            "durationTicks": 24
          },
          {
            "time": 118.12110687500001,
            "midi": 36,
            "name": "C2",
            "velocity": 1,
            "duration": 0.08505903125001169,
            "ticks": 31940,
            "durationTicks": 23
          },
          {
            "time": 118.12110687500001,
            "midi": 61,
            "name": "C#4",
            "velocity": 1,
            "duration": 0.08505903125001169,
            "ticks": 31940,
            "durationTicks": 23
          },
          {
            "time": 118.12480509375001,
            "midi": 42,
            "name": "F#2",
            "velocity": 1,
            "duration": 0.09245546875000343,
            "ticks": 31941,
            "durationTicks": 25
          },
          {
            "time": 118.30231959375001,
            "midi": 61,
            "name": "C#4",
            "velocity": 1,
            "duration": 0.08505903124999747,
            "ticks": 31989,
            "durationTicks": 23
          },
          {
            "time": 118.30231959375001,
            "midi": 42,
            "name": "F#2",
            "velocity": 1,
            "duration": 0.0961536874999922,
            "ticks": 31989,
            "durationTicks": 26
          },
          {
            "time": 118.47613587500001,
            "midi": 38,
            "name": "D2",
            "velocity": 1,
            "duration": 0.08505903125001169,
            "ticks": 32036,
            "durationTicks": 23
          },
          {
            "time": 118.47983409375001,
            "midi": 61,
            "name": "C#4",
            "velocity": 1,
            "duration": 0.08505903124999747,
            "ticks": 32037,
            "durationTicks": 23
          },
          {
            "time": 118.47983409375001,
            "midi": 42,
            "name": "F#2",
            "velocity": 1,
            "duration": 0.0813608125000087,
            "ticks": 32037,
            "durationTicks": 22
          },
          {
            "time": 118.65734859375002,
            "midi": 61,
            "name": "C#4",
            "velocity": 1,
            "duration": 0.08505903124999747,
            "ticks": 32085,
            "durationTicks": 23
          },
          {
            "time": 118.65734859375002,
            "midi": 42,
            "name": "F#2",
            "velocity": 1,
            "duration": 0.08505903124999747,
            "ticks": 32085,
            "durationTicks": 23
          },
          {
            "time": 118.83486309375002,
            "midi": 36,
            "name": "C2",
            "velocity": 1,
            "duration": 0.08505903124998326,
            "ticks": 32133,
            "durationTicks": 23
          },
          {
            "time": 118.83486309375002,
            "midi": 61,
            "name": "C#4",
            "velocity": 1,
            "duration": 0.08505903124998326,
            "ticks": 32133,
            "durationTicks": 23
          },
          {
            "time": 118.83486309375002,
            "midi": 40,
            "name": "E2",
            "velocity": 1,
            "duration": 0.3550290000000018,
            "ticks": 32133,
            "durationTicks": 96
          },
          {
            "time": 118.83486309375002,
            "midi": 51,
            "name": "D#3",
            "velocity": 1,
            "duration": 0.3735200937499883,
            "ticks": 32133,
            "durationTicks": 101
          },
          {
            "time": 118.83856131250002,
            "midi": 42,
            "name": "F#2",
            "velocity": 1,
            "duration": 0.08136081249998028,
            "ticks": 32134,
            "durationTicks": 22
          },
          {
            "time": 119.01607581250002,
            "midi": 36,
            "name": "C2",
            "velocity": 1,
            "duration": 0.08136081249998028,
            "ticks": 32182,
            "durationTicks": 22
          },
          {
            "time": 119.01607581250002,
            "midi": 61,
            "name": "C#4",
            "velocity": 1,
            "duration": 0.08505903124999747,
            "ticks": 32182,
            "durationTicks": 23
          },
          {
            "time": 119.01607581250002,
            "midi": 42,
            "name": "F#2",
            "velocity": 1,
            "duration": 0.07766259375000573,
            "ticks": 32182,
            "durationTicks": 21
          },
          {
            "time": 119.18989209375002,
            "midi": 38,
            "name": "D2",
            "velocity": 1,
            "duration": 0.08505903124998326,
            "ticks": 32229,
            "durationTicks": 23
          },
          {
            "time": 119.18989209375002,
            "midi": 61,
            "name": "C#4",
            "velocity": 1,
            "duration": 0.08505903124998326,
            "ticks": 32229,
            "durationTicks": 23
          },
          {
            "time": 119.19359031250002,
            "midi": 42,
            "name": "F#2",
            "velocity": 1,
            "duration": 0.08505903124999747,
            "ticks": 32230,
            "durationTicks": 23
          },
          {
            "time": 119.37110481250002,
            "midi": 61,
            "name": "C#4",
            "velocity": 1,
            "duration": 0.08505903124999747,
            "ticks": 32278,
            "durationTicks": 23
          },
          {
            "time": 119.37110481250002,
            "midi": 42,
            "name": "F#2",
            "velocity": 1,
            "duration": 0.07766259374999152,
            "ticks": 32278,
            "durationTicks": 21
          },
          {
            "time": 119.54492109375002,
            "midi": 36,
            "name": "C2",
            "velocity": 1,
            "duration": 0.08505903124998326,
            "ticks": 32325,
            "durationTicks": 23
          },
          {
            "time": 119.54492109375002,
            "midi": 61,
            "name": "C#4",
            "velocity": 1,
            "duration": 0.08505903124998326,
            "ticks": 32325,
            "durationTicks": 23
          },
          {
            "time": 119.54861931250002,
            "midi": 42,
            "name": "F#2",
            "velocity": 1,
            "duration": 0.06656793749999679,
            "ticks": 32326,
            "durationTicks": 18
          },
          {
            "time": 119.72613381250002,
            "midi": 61,
            "name": "C#4",
            "velocity": 1,
            "duration": 0.08505903124998326,
            "ticks": 32374,
            "durationTicks": 23
          },
          {
            "time": 119.72613381250002,
            "midi": 42,
            "name": "F#2",
            "velocity": 1,
            "duration": 0.05917149999997662,
            "ticks": 32374,
            "durationTicks": 16
          },
          {
            "time": 119.90364831250002,
            "midi": 38,
            "name": "D2",
            "velocity": 1,
            "duration": 0.08505903124998326,
            "ticks": 32422,
            "durationTicks": 23
          },
          {
            "time": 119.90364831250002,
            "midi": 61,
            "name": "C#4",
            "velocity": 1,
            "duration": 0.08505903124998326,
            "ticks": 32422,
            "durationTicks": 23
          },
          {
            "time": 119.90364831250002,
            "midi": 42,
            "name": "F#2",
            "velocity": 1,
            "duration": 0.07396437499998854,
            "ticks": 32422,
            "durationTicks": 20
          },
          {
            "time": 120.08116281250003,
            "midi": 61,
            "name": "C#4",
            "velocity": 1,
            "duration": 0.08505903124998326,
            "ticks": 32470,
            "durationTicks": 23
          },
          {
            "time": 120.08486103125,
            "midi": 42,
            "name": "F#2",
            "velocity": 1,
            "duration": 0.04807684375001031,
            "ticks": 32471,
            "durationTicks": 13
          },
          {
            "time": 120.25867731250003,
            "midi": 36,
            "name": "C2",
            "velocity": 1,
            "duration": 0.08505903124998326,
            "ticks": 32518,
            "durationTicks": 23
          },
          {
            "time": 120.25867731250003,
            "midi": 61,
            "name": "C#4",
            "velocity": 1,
            "duration": 0.08505903124998326,
            "ticks": 32518,
            "durationTicks": 23
          },
          {
            "time": 120.25867731250003,
            "midi": 51,
            "name": "D#3",
            "velocity": 1,
            "duration": 0.325443249999978,
            "ticks": 32518,
            "durationTicks": 88
          },
          {
            "time": 120.26237553125,
            "midi": 40,
            "name": "E2",
            "velocity": 1,
            "duration": 0.3217450312500034,
            "ticks": 32519,
            "durationTicks": 87
          },
          {
            "time": 120.26237553125,
            "midi": 42,
            "name": "F#2",
            "velocity": 1,
            "duration": 0.07766259375000573,
            "ticks": 32519,
            "durationTicks": 21
          },
          {
            "time": 120.43989003125,
            "midi": 36,
            "name": "C2",
            "velocity": 1,
            "duration": 0.08505903125001169,
            "ticks": 32567,
            "durationTicks": 23
          },
          {
            "time": 120.43989003125,
            "midi": 61,
            "name": "C#4",
            "velocity": 1,
            "duration": 0.08505903125001169,
            "ticks": 32567,
            "durationTicks": 23
          },
          {
            "time": 120.43989003125,
            "midi": 42,
            "name": "F#2",
            "velocity": 1,
            "duration": 0.08505903125001169,
            "ticks": 32567,
            "durationTicks": 23
          },
          {
            "time": 120.61370631250001,
            "midi": 38,
            "name": "D2",
            "velocity": 1,
            "duration": 0.08505903124999747,
            "ticks": 32614,
            "durationTicks": 23
          },
          {
            "time": 120.61370631250001,
            "midi": 61,
            "name": "C#4",
            "velocity": 1,
            "duration": 0.08505903124999747,
            "ticks": 32614,
            "durationTicks": 23
          },
          {
            "time": 120.61740453125,
            "midi": 42,
            "name": "F#2",
            "velocity": 1,
            "duration": 0.0813608125000087,
            "ticks": 32615,
            "durationTicks": 22
          },
          {
            "time": 120.79491903125,
            "midi": 61,
            "name": "C#4",
            "velocity": 1,
            "duration": 0.08505903125001169,
            "ticks": 32663,
            "durationTicks": 23
          },
          {
            "time": 120.79491903125,
            "midi": 42,
            "name": "F#2",
            "velocity": 1,
            "duration": 0.08875725000000045,
            "ticks": 32663,
            "durationTicks": 24
          },
          {
            "time": 120.96873531250002,
            "midi": 36,
            "name": "C2",
            "velocity": 1,
            "duration": 0.08875725000000045,
            "ticks": 32710,
            "durationTicks": 24
          },
          {
            "time": 120.96873531250002,
            "midi": 61,
            "name": "C#4",
            "velocity": 1,
            "duration": 0.08875725000000045,
            "ticks": 32710,
            "durationTicks": 24
          },
          {
            "time": 120.97243353125,
            "midi": 42,
            "name": "F#2",
            "velocity": 1,
            "duration": 0.09985190624999518,
            "ticks": 32711,
            "durationTicks": 27
          },
          {
            "time": 121.14994803125,
            "midi": 61,
            "name": "C#4",
            "velocity": 1,
            "duration": 0.08505903125001169,
            "ticks": 32759,
            "durationTicks": 23
          },
          {
            "time": 121.15364625000001,
            "midi": 42,
            "name": "F#2",
            "velocity": 1,
            "duration": 0.0813608125000087,
            "ticks": 32760,
            "durationTicks": 22
          },
          {
            "time": 121.32746253125,
            "midi": 38,
            "name": "D2",
            "velocity": 1,
            "duration": 0.08505903125001169,
            "ticks": 32807,
            "durationTicks": 23
          },
          {
            "time": 121.32746253125,
            "midi": 61,
            "name": "C#4",
            "velocity": 1,
            "duration": 0.08505903125001169,
            "ticks": 32807,
            "durationTicks": 23
          },
          {
            "time": 121.32746253125,
            "midi": 42,
            "name": "F#2",
            "velocity": 1,
            "duration": 0.08505903125001169,
            "ticks": 32807,
            "durationTicks": 23
          },
          {
            "time": 121.50867525000001,
            "midi": 61,
            "name": "C#4",
            "velocity": 1,
            "duration": 0.08505903124999747,
            "ticks": 32856,
            "durationTicks": 23
          },
          {
            "time": 121.50867525000001,
            "midi": 42,
            "name": "F#2",
            "velocity": 1,
            "duration": 0.07396437500000275,
            "ticks": 32856,
            "durationTicks": 20
          },
          {
            "time": 121.68249153125001,
            "midi": 36,
            "name": "C2",
            "velocity": 1,
            "duration": 0.08505903125001169,
            "ticks": 32903,
            "durationTicks": 23
          },
          {
            "time": 121.68249153125001,
            "midi": 61,
            "name": "C#4",
            "velocity": 1,
            "duration": 0.08505903125001169,
            "ticks": 32903,
            "durationTicks": 23
          },
          {
            "time": 121.68249153125001,
            "midi": 40,
            "name": "E2",
            "velocity": 1,
            "duration": 0.3550290000000018,
            "ticks": 32903,
            "durationTicks": 96
          },
          {
            "time": 121.68618975000001,
            "midi": 51,
            "name": "D#3",
            "velocity": 1,
            "duration": 0.3735200937500025,
            "ticks": 32904,
            "durationTicks": 101
          },
          {
            "time": 121.68618975000001,
            "midi": 42,
            "name": "F#2",
            "velocity": 1,
            "duration": 0.06656793749999679,
            "ticks": 32904,
            "durationTicks": 18
          },
          {
            "time": 121.86370425000001,
            "midi": 36,
            "name": "C2",
            "velocity": 1,
            "duration": 0.08505903124999747,
            "ticks": 32952,
            "durationTicks": 23
          },
          {
            "time": 121.86370425000001,
            "midi": 61,
            "name": "C#4",
            "velocity": 1,
            "duration": 0.08505903124999747,
            "ticks": 32952,
            "durationTicks": 23
          },
          {
            "time": 121.86370425000001,
            "midi": 42,
            "name": "F#2",
            "velocity": 1,
            "duration": 0.0813608125000087,
            "ticks": 32952,
            "durationTicks": 22
          },
          {
            "time": 122.04121875000001,
            "midi": 38,
            "name": "D2",
            "velocity": 1,
            "duration": 0.0813608125000087,
            "ticks": 33000,
            "durationTicks": 22
          },
          {
            "time": 122.04121875000001,
            "midi": 61,
            "name": "C#4",
            "velocity": 1,
            "duration": 0.0813608125000087,
            "ticks": 33000,
            "durationTicks": 22
          },
          {
            "time": 122.04121875000001,
            "midi": 42,
            "name": "F#2",
            "velocity": 1,
            "duration": 0.09245546875000343,
            "ticks": 33000,
            "durationTicks": 25
          },
          {
            "time": 122.21873325000001,
            "midi": 61,
            "name": "C#4",
            "velocity": 1,
            "duration": 0.08505903124999747,
            "ticks": 33048,
            "durationTicks": 23
          },
          {
            "time": 122.21873325000001,
            "midi": 42,
            "name": "F#2",
            "velocity": 1,
            "duration": 0.08505903124999747,
            "ticks": 33048,
            "durationTicks": 23
          },
          {
            "time": 122.39624775000001,
            "midi": 36,
            "name": "C2",
            "velocity": 1,
            "duration": 0.08505903124999747,
            "ticks": 33096,
            "durationTicks": 23
          },
          {
            "time": 122.39624775000001,
            "midi": 61,
            "name": "C#4",
            "velocity": 1,
            "duration": 0.08505903124999747,
            "ticks": 33096,
            "durationTicks": 23
          },
          {
            "time": 122.39624775000001,
            "midi": 42,
            "name": "F#2",
            "velocity": 1,
            "duration": 0.08505903124999747,
            "ticks": 33096,
            "durationTicks": 23
          },
          {
            "time": 122.57376225000002,
            "midi": 61,
            "name": "C#4",
            "velocity": 1,
            "duration": 0.08505903124999747,
            "ticks": 33144,
            "durationTicks": 23
          },
          {
            "time": 122.57376225000002,
            "midi": 42,
            "name": "F#2",
            "velocity": 1,
            "duration": 0.07026615624999977,
            "ticks": 33144,
            "durationTicks": 19
          },
          {
            "time": 122.75127675000002,
            "midi": 38,
            "name": "D2",
            "velocity": 1,
            "duration": 0.08505903124998326,
            "ticks": 33192,
            "durationTicks": 23
          },
          {
            "time": 122.75127675000002,
            "midi": 61,
            "name": "C#4",
            "velocity": 1,
            "duration": 0.08505903124998326,
            "ticks": 33192,
            "durationTicks": 23
          },
          {
            "time": 122.75127675000002,
            "midi": 42,
            "name": "F#2",
            "velocity": 1,
            "duration": 0.07026615624999977,
            "ticks": 33192,
            "durationTicks": 19
          },
          {
            "time": 122.93248946875002,
            "midi": 61,
            "name": "C#4",
            "velocity": 1,
            "duration": 0.08505903124999747,
            "ticks": 33241,
            "durationTicks": 23
          },
          {
            "time": 122.93248946875002,
            "midi": 42,
            "name": "F#2",
            "velocity": 1,
            "duration": 0.07026615624998556,
            "ticks": 33241,
            "durationTicks": 19
          },
          {
            "time": 123.10630575000002,
            "midi": 36,
            "name": "C2",
            "velocity": 1,
            "duration": 0.08505903124998326,
            "ticks": 33288,
            "durationTicks": 23
          },
          {
            "time": 123.10630575000002,
            "midi": 61,
            "name": "C#4",
            "velocity": 1,
            "duration": 0.08505903124998326,
            "ticks": 33288,
            "durationTicks": 23
          },
          {
            "time": 123.11000396875002,
            "midi": 51,
            "name": "D#3",
            "velocity": 1,
            "duration": 0.3217450312500034,
            "ticks": 33289,
            "durationTicks": 87
          },
          {
            "time": 123.11000396875002,
            "midi": 40,
            "name": "E2",
            "velocity": 1,
            "duration": 0.3217450312500034,
            "ticks": 33289,
            "durationTicks": 87
          },
          {
            "time": 123.11000396875002,
            "midi": 42,
            "name": "F#2",
            "velocity": 1,
            "duration": 0.06656793749999679,
            "ticks": 33289,
            "durationTicks": 18
          },
          {
            "time": 123.28751846875002,
            "midi": 36,
            "name": "C2",
            "velocity": 1,
            "duration": 0.08505903124999747,
            "ticks": 33337,
            "durationTicks": 23
          },
          {
            "time": 123.28751846875002,
            "midi": 61,
            "name": "C#4",
            "velocity": 1,
            "duration": 0.08505903124999747,
            "ticks": 33337,
            "durationTicks": 23
          },
          {
            "time": 123.28751846875002,
            "midi": 42,
            "name": "F#2",
            "velocity": 1,
            "duration": 0.07396437499998854,
            "ticks": 33337,
            "durationTicks": 20
          },
          {
            "time": 123.46503296875002,
            "midi": 38,
            "name": "D2",
            "velocity": 1,
            "duration": 0.08875725000000045,
            "ticks": 33385,
            "durationTicks": 24
          },
          {
            "time": 123.46503296875002,
            "midi": 61,
            "name": "C#4",
            "velocity": 1,
            "duration": 0.08875725000000045,
            "ticks": 33385,
            "durationTicks": 24
          },
          {
            "time": 123.46503296875002,
            "midi": 42,
            "name": "F#2",
            "velocity": 1,
            "duration": 0.09245546874998922,
            "ticks": 33385,
            "durationTicks": 25
          },
          {
            "time": 123.64254746875002,
            "midi": 61,
            "name": "C#4",
            "velocity": 1,
            "duration": 0.08505903124998326,
            "ticks": 33433,
            "durationTicks": 23
          },
          {
            "time": 123.64254746875002,
            "midi": 42,
            "name": "F#2",
            "velocity": 1,
            "duration": 0.09985190624999518,
            "ticks": 33433,
            "durationTicks": 27
          },
          {
            "time": 123.82006196875003,
            "midi": 36,
            "name": "C2",
            "velocity": 1,
            "duration": 0.08505903124998326,
            "ticks": 33481,
            "durationTicks": 23
          },
          {
            "time": 123.82006196875003,
            "midi": 61,
            "name": "C#4",
            "velocity": 1,
            "duration": 0.08505903124998326,
            "ticks": 33481,
            "durationTicks": 23
          },
          {
            "time": 123.82006196875003,
            "midi": 42,
            "name": "F#2",
            "velocity": 1,
            "duration": 0.1294376562499906,
            "ticks": 33481,
            "durationTicks": 35
          },
          {
            "time": 124.0012746875,
            "midi": 61,
            "name": "C#4",
            "velocity": 1,
            "duration": 0.0850590312500259,
            "ticks": 33530,
            "durationTicks": 23
          },
          {
            "time": 124.0012746875,
            "midi": 42,
            "name": "F#2",
            "velocity": 1,
            "duration": 0.08875725000000045,
            "ticks": 33530,
            "durationTicks": 24
          },
          {
            "time": 124.17509096875003,
            "midi": 38,
            "name": "D2",
            "velocity": 1,
            "duration": 0.08505903124998326,
            "ticks": 33577,
            "durationTicks": 23
          },
          {
            "time": 124.17509096875003,
            "midi": 61,
            "name": "C#4",
            "velocity": 1,
            "duration": 0.08505903124998326,
            "ticks": 33577,
            "durationTicks": 23
          },
          {
            "time": 124.1787891875,
            "midi": 42,
            "name": "F#2",
            "velocity": 1,
            "duration": 0.066567937500011,
            "ticks": 33578,
            "durationTicks": 18
          },
          {
            "time": 124.3563036875,
            "midi": 61,
            "name": "C#4",
            "velocity": 1,
            "duration": 0.08505903125001169,
            "ticks": 33626,
            "durationTicks": 23
          },
          {
            "time": 124.3563036875,
            "midi": 42,
            "name": "F#2",
            "velocity": 1,
            "duration": 0.07396437500001696,
            "ticks": 33626,
            "durationTicks": 20
          },
          {
            "time": 124.53011996875001,
            "midi": 36,
            "name": "C2",
            "velocity": 1,
            "duration": 0.08505903124999747,
            "ticks": 33673,
            "durationTicks": 23
          },
          {
            "time": 124.5338181875,
            "midi": 61,
            "name": "C#4",
            "velocity": 1,
            "duration": 0.0813608125000087,
            "ticks": 33674,
            "durationTicks": 22
          },
          {
            "time": 124.5338181875,
            "midi": 40,
            "name": "E2",
            "velocity": 1,
            "duration": 0.3550290000000018,
            "ticks": 33674,
            "durationTicks": 96
          },
          {
            "time": 124.5338181875,
            "midi": 51,
            "name": "D#3",
            "velocity": 1,
            "duration": 0.3735200937500167,
            "ticks": 33674,
            "durationTicks": 101
          },
          {
            "time": 124.5338181875,
            "midi": 42,
            "name": "F#2",
            "velocity": 1,
            "duration": 0.07766259375000573,
            "ticks": 33674,
            "durationTicks": 21
          },
          {
            "time": 124.7113326875,
            "midi": 36,
            "name": "C2",
            "velocity": 1,
            "duration": 0.08505903125001169,
            "ticks": 33722,
            "durationTicks": 23
          },
          {
            "time": 124.7113326875,
            "midi": 61,
            "name": "C#4",
            "velocity": 1,
            "duration": 0.08505903125001169,
            "ticks": 33722,
            "durationTicks": 23
          },
          {
            "time": 124.71503090625,
            "midi": 42,
            "name": "F#2",
            "velocity": 1,
            "duration": 0.07396437500000275,
            "ticks": 33723,
            "durationTicks": 20
          },
          {
            "time": 124.8888471875,
            "midi": 38,
            "name": "D2",
            "velocity": 1,
            "duration": 0.08505903125001169,
            "ticks": 33770,
            "durationTicks": 23
          },
          {
            "time": 124.8888471875,
            "midi": 61,
            "name": "C#4",
            "velocity": 1,
            "duration": 0.08505903125001169,
            "ticks": 33770,
            "durationTicks": 23
          },
          {
            "time": 124.8888471875,
            "midi": 42,
            "name": "F#2",
            "velocity": 1,
            "duration": 0.08505903125001169,
            "ticks": 33770,
            "durationTicks": 23
          },
          {
            "time": 125.0663616875,
            "midi": 61,
            "name": "C#4",
            "velocity": 1,
            "duration": 0.08875725000000045,
            "ticks": 33818,
            "durationTicks": 24
          },
          {
            "time": 125.07005990625001,
            "midi": 42,
            "name": "F#2",
            "velocity": 1,
            "duration": 0.08505903124999747,
            "ticks": 33819,
            "durationTicks": 23
          },
          {
            "time": 125.2438761875,
            "midi": 36,
            "name": "C2",
            "velocity": 1,
            "duration": 0.08505903125001169,
            "ticks": 33866,
            "durationTicks": 23
          },
          {
            "time": 125.2438761875,
            "midi": 61,
            "name": "C#4",
            "velocity": 1,
            "duration": 0.08505903125001169,
            "ticks": 33866,
            "durationTicks": 23
          },
          {
            "time": 125.2438761875,
            "midi": 42,
            "name": "F#2",
            "velocity": 1,
            "duration": 0.11094656250000412,
            "ticks": 33866,
            "durationTicks": 30
          },
          {
            "time": 125.42508890625001,
            "midi": 61,
            "name": "C#4",
            "velocity": 1,
            "duration": 0.08505903124999747,
            "ticks": 33915,
            "durationTicks": 23
          },
          {
            "time": 125.42508890625001,
            "midi": 42,
            "name": "F#2",
            "velocity": 1,
            "duration": 0.08505903124999747,
            "ticks": 33915,
            "durationTicks": 23
          },
          {
            "time": 125.59890518750001,
            "midi": 38,
            "name": "D2",
            "velocity": 1,
            "duration": 0.08505903125001169,
            "ticks": 33962,
            "durationTicks": 23
          },
          {
            "time": 125.59890518750001,
            "midi": 61,
            "name": "C#4",
            "velocity": 1,
            "duration": 0.08505903125001169,
            "ticks": 33962,
            "durationTicks": 23
          },
          {
            "time": 125.60260340625001,
            "midi": 42,
            "name": "F#2",
            "velocity": 1,
            "duration": 0.07766259375000573,
            "ticks": 33963,
            "durationTicks": 21
          },
          {
            "time": 125.78011790625001,
            "midi": 61,
            "name": "C#4",
            "velocity": 1,
            "duration": 0.08505903124999747,
            "ticks": 34011,
            "durationTicks": 23
          },
          {
            "time": 125.78011790625001,
            "midi": 42,
            "name": "F#2",
            "velocity": 1,
            "duration": 0.08505903124999747,
            "ticks": 34011,
            "durationTicks": 23
          },
          {
            "time": 125.95763240625001,
            "midi": 36,
            "name": "C2",
            "velocity": 1,
            "duration": 0.08505903124999747,
            "ticks": 34059,
            "durationTicks": 23
          },
          {
            "time": 125.95763240625001,
            "midi": 61,
            "name": "C#4",
            "velocity": 1,
            "duration": 0.08505903124999747,
            "ticks": 34059,
            "durationTicks": 23
          },
          {
            "time": 125.95763240625001,
            "midi": 51,
            "name": "D#3",
            "velocity": 1,
            "duration": 0.3254432500000064,
            "ticks": 34059,
            "durationTicks": 88
          },
          {
            "time": 125.95763240625001,
            "midi": 40,
            "name": "E2",
            "velocity": 1,
            "duration": 0.3254432500000064,
            "ticks": 34059,
            "durationTicks": 88
          },
          {
            "time": 125.95763240625001,
            "midi": 42,
            "name": "F#2",
            "velocity": 1,
            "duration": 0.08505903124999747,
            "ticks": 34059,
            "durationTicks": 23
          },
          {
            "time": 126.13514690625001,
            "midi": 36,
            "name": "C2",
            "velocity": 1,
            "duration": 0.08505903124999747,
            "ticks": 34107,
            "durationTicks": 23
          },
          {
            "time": 126.13514690625001,
            "midi": 61,
            "name": "C#4",
            "velocity": 1,
            "duration": 0.08505903124999747,
            "ticks": 34107,
            "durationTicks": 23
          },
          {
            "time": 126.13884512500002,
            "midi": 42,
            "name": "F#2",
            "velocity": 1,
            "duration": 0.08875725000000045,
            "ticks": 34108,
            "durationTicks": 24
          },
          {
            "time": 126.31266140625002,
            "midi": 38,
            "name": "D2",
            "velocity": 1,
            "duration": 0.08505903124999747,
            "ticks": 34155,
            "durationTicks": 23
          },
          {
            "time": 126.31266140625002,
            "midi": 61,
            "name": "C#4",
            "velocity": 1,
            "duration": 0.08505903124999747,
            "ticks": 34155,
            "durationTicks": 23
          },
          {
            "time": 126.31266140625002,
            "midi": 42,
            "name": "F#2",
            "velocity": 1,
            "duration": 0.0813608125000087,
            "ticks": 34155,
            "durationTicks": 22
          },
          {
            "time": 126.49387412500002,
            "midi": 61,
            "name": "C#4",
            "velocity": 1,
            "duration": 0.08505903124999747,
            "ticks": 34204,
            "durationTicks": 23
          },
          {
            "time": 126.49387412500002,
            "midi": 42,
            "name": "F#2",
            "velocity": 1,
            "duration": 0.07766259375000573,
            "ticks": 34204,
            "durationTicks": 21
          },
          {
            "time": 126.66769040625002,
            "midi": 36,
            "name": "C2",
            "velocity": 1,
            "duration": 0.08505903124998326,
            "ticks": 34251,
            "durationTicks": 23
          },
          {
            "time": 126.66769040625002,
            "midi": 61,
            "name": "C#4",
            "velocity": 1,
            "duration": 0.08505903124998326,
            "ticks": 34251,
            "durationTicks": 23
          },
          {
            "time": 126.67138862500002,
            "midi": 42,
            "name": "F#2",
            "velocity": 1,
            "duration": 0.09245546874998922,
            "ticks": 34252,
            "durationTicks": 25
          },
          {
            "time": 126.84890312500002,
            "midi": 61,
            "name": "C#4",
            "velocity": 1,
            "duration": 0.08505903124999747,
            "ticks": 34300,
            "durationTicks": 23
          },
          {
            "time": 126.84890312500002,
            "midi": 42,
            "name": "F#2",
            "velocity": 1,
            "duration": 0.07396437499998854,
            "ticks": 34300,
            "durationTicks": 20
          },
          {
            "time": 127.02271940625002,
            "midi": 38,
            "name": "D2",
            "velocity": 1,
            "duration": 0.08875725000000045,
            "ticks": 34347,
            "durationTicks": 24
          },
          {
            "time": 127.02271940625002,
            "midi": 61,
            "name": "C#4",
            "velocity": 1,
            "duration": 0.08875725000000045,
            "ticks": 34347,
            "durationTicks": 24
          },
          {
            "time": 127.02641762500002,
            "midi": 42,
            "name": "F#2",
            "velocity": 1,
            "duration": 0.08505903124999747,
            "ticks": 34348,
            "durationTicks": 23
          },
          {
            "time": 127.20393212500002,
            "midi": 61,
            "name": "C#4",
            "velocity": 1,
            "duration": 0.08505903124999747,
            "ticks": 34396,
            "durationTicks": 23
          },
          {
            "time": 127.20763034375001,
            "midi": 42,
            "name": "F#2",
            "velocity": 1,
            "duration": 0.0813608125000087,
            "ticks": 34397,
            "durationTicks": 22
          },
          {
            "time": 127.38144662500002,
            "midi": 36,
            "name": "C2",
            "velocity": 1,
            "duration": 0.08505903124998326,
            "ticks": 34444,
            "durationTicks": 23
          },
          {
            "time": 127.38144662500002,
            "midi": 61,
            "name": "C#4",
            "velocity": 1,
            "duration": 0.08505903124998326,
            "ticks": 34444,
            "durationTicks": 23
          },
          {
            "time": 127.38144662500002,
            "midi": 40,
            "name": "E2",
            "velocity": 1,
            "duration": 0.3550290000000018,
            "ticks": 34444,
            "durationTicks": 96
          },
          {
            "time": 127.38144662500002,
            "midi": 51,
            "name": "D#3",
            "velocity": 1,
            "duration": 0.37721831249999127,
            "ticks": 34444,
            "durationTicks": 102
          },
          {
            "time": 127.38514484375001,
            "midi": 42,
            "name": "F#2",
            "velocity": 1,
            "duration": 0.0813608124999945,
            "ticks": 34445,
            "durationTicks": 22
          },
          {
            "time": 127.56265934375001,
            "midi": 36,
            "name": "C2",
            "velocity": 1,
            "duration": 0.08505903125001169,
            "ticks": 34493,
            "durationTicks": 23
          },
          {
            "time": 127.56265934375001,
            "midi": 61,
            "name": "C#4",
            "velocity": 1,
            "duration": 0.08505903125001169,
            "ticks": 34493,
            "durationTicks": 23
          },
          {
            "time": 127.56265934375001,
            "midi": 42,
            "name": "F#2",
            "velocity": 1,
            "duration": 0.08875725000000045,
            "ticks": 34493,
            "durationTicks": 24
          },
          {
            "time": 127.73647562500003,
            "midi": 38,
            "name": "D2",
            "velocity": 1,
            "duration": 0.08505903124998326,
            "ticks": 34540,
            "durationTicks": 23
          },
          {
            "time": 127.74017384375001,
            "midi": 61,
            "name": "C#4",
            "velocity": 1,
            "duration": 0.0813608124999945,
            "ticks": 34541,
            "durationTicks": 22
          },
          {
            "time": 127.74017384375001,
            "midi": 42,
            "name": "F#2",
            "velocity": 1,
            "duration": 0.09245546875000343,
            "ticks": 34541,
            "durationTicks": 25
          },
          {
            "time": 127.91768834375,
            "midi": 61,
            "name": "C#4",
            "velocity": 1,
            "duration": 0.08505903125001169,
            "ticks": 34589,
            "durationTicks": 23
          },
          {
            "time": 127.91768834375,
            "midi": 42,
            "name": "F#2",
            "velocity": 1,
            "duration": 0.08875725000001466,
            "ticks": 34589,
            "durationTicks": 24
          },
          {
            "time": 128.09150462500003,
            "midi": 36,
            "name": "C2",
            "velocity": 1,
            "duration": 0.08505903124998326,
            "ticks": 34636,
            "durationTicks": 23
          },
          {
            "time": 128.09520284375,
            "midi": 61,
            "name": "C#4",
            "velocity": 1,
            "duration": 0.0813608125000087,
            "ticks": 34637,
            "durationTicks": 22
          },
          {
            "time": 128.09520284375,
            "midi": 42,
            "name": "F#2",
            "velocity": 1,
            "duration": 0.10355012499999816,
            "ticks": 34637,
            "durationTicks": 28
          },
          {
            "time": 128.27271734375,
            "midi": 61,
            "name": "C#4",
            "velocity": 1,
            "duration": 0.08505903125001169,
            "ticks": 34685,
            "durationTicks": 23
          },
          {
            "time": 128.27271734375,
            "midi": 42,
            "name": "F#2",
            "velocity": 1,
            "duration": 0.0813608125000087,
            "ticks": 34685,
            "durationTicks": 22
          },
          {
            "time": 128.45023184375,
            "midi": 38,
            "name": "D2",
            "velocity": 1,
            "duration": 0.08505903125001169,
            "ticks": 34733,
            "durationTicks": 23
          },
          {
            "time": 128.45023184375,
            "midi": 61,
            "name": "C#4",
            "velocity": 1,
            "duration": 0.08505903125001169,
            "ticks": 34733,
            "durationTicks": 23
          },
          {
            "time": 128.45023184375,
            "midi": 42,
            "name": "F#2",
            "velocity": 1,
            "duration": 0.08505903125001169,
            "ticks": 34733,
            "durationTicks": 23
          },
          {
            "time": 128.6314445625,
            "midi": 61,
            "name": "C#4",
            "velocity": 1,
            "duration": 0.08505903125001169,
            "ticks": 34782,
            "durationTicks": 23
          },
          {
            "time": 128.6314445625,
            "midi": 42,
            "name": "F#2",
            "velocity": 1,
            "duration": 0.08875725000001466,
            "ticks": 34782,
            "durationTicks": 24
          },
          {
            "time": 128.80526084375,
            "midi": 36,
            "name": "C2",
            "velocity": 1,
            "duration": 0.08505903125001169,
            "ticks": 34829,
            "durationTicks": 23
          },
          {
            "time": 128.80526084375,
            "midi": 61,
            "name": "C#4",
            "velocity": 1,
            "duration": 0.08505903125001169,
            "ticks": 34829,
            "durationTicks": 23
          },
          {
            "time": 128.80526084375,
            "midi": 51,
            "name": "D#3",
            "velocity": 1,
            "duration": 0.3254432500000064,
            "ticks": 34829,
            "durationTicks": 88
          },
          {
            "time": 128.8089590625,
            "midi": 40,
            "name": "E2",
            "velocity": 1,
            "duration": 0.3217450312500034,
            "ticks": 34830,
            "durationTicks": 87
          },
          {
            "time": 128.8089590625,
            "midi": 42,
            "name": "F#2",
            "velocity": 1,
            "duration": 0.09245546875001764,
            "ticks": 34830,
            "durationTicks": 25
          },
          {
            "time": 128.9864735625,
            "midi": 36,
            "name": "C2",
            "velocity": 1,
            "duration": 0.08505903125001169,
            "ticks": 34878,
            "durationTicks": 23
          },
          {
            "time": 128.9864735625,
            "midi": 61,
            "name": "C#4",
            "velocity": 1,
            "duration": 0.08505903125001169,
            "ticks": 34878,
            "durationTicks": 23
          },
          {
            "time": 128.9864735625,
            "midi": 42,
            "name": "F#2",
            "velocity": 1,
            "duration": 0.08875725000001466,
            "ticks": 34878,
            "durationTicks": 24
          },
          {
            "time": 129.16028984375,
            "midi": 38,
            "name": "D2",
            "velocity": 1,
            "duration": 0.08505903125001169,
            "ticks": 34925,
            "durationTicks": 23
          },
          {
            "time": 129.16028984375,
            "midi": 61,
            "name": "C#4",
            "velocity": 1,
            "duration": 0.08505903125001169,
            "ticks": 34925,
            "durationTicks": 23
          },
          {
            "time": 129.1639880625,
            "midi": 42,
            "name": "F#2",
            "velocity": 1,
            "duration": 0.09245546875001764,
            "ticks": 34926,
            "durationTicks": 25
          },
          {
            "time": 129.3415025625,
            "midi": 61,
            "name": "C#4",
            "velocity": 1,
            "duration": 0.08505903124998326,
            "ticks": 34974,
            "durationTicks": 23
          },
          {
            "time": 129.3415025625,
            "midi": 42,
            "name": "F#2",
            "velocity": 1,
            "duration": 0.08875725000001466,
            "ticks": 34974,
            "durationTicks": 24
          },
          {
            "time": 129.5190170625,
            "midi": 36,
            "name": "C2",
            "velocity": 1,
            "duration": 0.08505903124998326,
            "ticks": 35022,
            "durationTicks": 23
          },
          {
            "time": 129.5190170625,
            "midi": 61,
            "name": "C#4",
            "velocity": 1,
            "duration": 0.08505903124998326,
            "ticks": 35022,
            "durationTicks": 23
          },
          {
            "time": 129.5190170625,
            "midi": 42,
            "name": "F#2",
            "velocity": 1,
            "duration": 0.09245546875001764,
            "ticks": 35022,
            "durationTicks": 25
          },
          {
            "time": 129.6965315625,
            "midi": 61,
            "name": "C#4",
            "velocity": 1,
            "duration": 0.08505903124998326,
            "ticks": 35070,
            "durationTicks": 23
          },
          {
            "time": 129.70022978125002,
            "midi": 42,
            "name": "F#2",
            "velocity": 1,
            "duration": 0.09245546874998922,
            "ticks": 35071,
            "durationTicks": 25
          },
          {
            "time": 129.8740460625,
            "midi": 38,
            "name": "D2",
            "velocity": 1,
            "duration": 0.08505903124998326,
            "ticks": 35118,
            "durationTicks": 23
          },
          {
            "time": 129.8740460625,
            "midi": 61,
            "name": "C#4",
            "velocity": 1,
            "duration": 0.08505903124998326,
            "ticks": 35118,
            "durationTicks": 23
          },
          {
            "time": 129.8740460625,
            "midi": 42,
            "name": "F#2",
            "velocity": 1,
            "duration": 0.08505903124998326,
            "ticks": 35118,
            "durationTicks": 23
          },
          {
            "time": 130.05525878125002,
            "midi": 61,
            "name": "C#4",
            "velocity": 1,
            "duration": 0.08505903124998326,
            "ticks": 35167,
            "durationTicks": 23
          },
          {
            "time": 130.05525878125002,
            "midi": 42,
            "name": "F#2",
            "velocity": 1,
            "duration": 0.08505903124998326,
            "ticks": 35167,
            "durationTicks": 23
          },
          {
            "time": 130.22907506250002,
            "midi": 36,
            "name": "C2",
            "velocity": 1,
            "duration": 0.08505903124998326,
            "ticks": 35214,
            "durationTicks": 23
          },
          {
            "time": 130.22907506250002,
            "midi": 61,
            "name": "C#4",
            "velocity": 1,
            "duration": 0.08505903124998326,
            "ticks": 35214,
            "durationTicks": 23
          },
          {
            "time": 130.23277328125002,
            "midi": 40,
            "name": "E2",
            "velocity": 1,
            "duration": 0.35133078124999884,
            "ticks": 35215,
            "durationTicks": 95
          },
          {
            "time": 130.23277328125002,
            "midi": 51,
            "name": "D#3",
            "velocity": 1,
            "duration": 0.3735200937499883,
            "ticks": 35215,
            "durationTicks": 101
          },
          {
            "time": 130.23277328125002,
            "midi": 42,
            "name": "F#2",
            "velocity": 1,
            "duration": 0.08136081249998028,
            "ticks": 35215,
            "durationTicks": 22
          },
          {
            "time": 130.41028778125002,
            "midi": 36,
            "name": "C2",
            "velocity": 1,
            "duration": 0.08505903124998326,
            "ticks": 35263,
            "durationTicks": 23
          },
          {
            "time": 130.41028778125002,
            "midi": 61,
            "name": "C#4",
            "velocity": 1,
            "duration": 0.08505903124998326,
            "ticks": 35263,
            "durationTicks": 23
          },
          {
            "time": 130.41028778125002,
            "midi": 42,
            "name": "F#2",
            "velocity": 1,
            "duration": 0.08136081249998028,
            "ticks": 35263,
            "durationTicks": 22
          },
          {
            "time": 130.58780228125002,
            "midi": 38,
            "name": "D2",
            "velocity": 1,
            "duration": 0.08136081249998028,
            "ticks": 35311,
            "durationTicks": 22
          },
          {
            "time": 130.58780228125002,
            "midi": 61,
            "name": "C#4",
            "velocity": 1,
            "duration": 0.08136081249998028,
            "ticks": 35311,
            "durationTicks": 22
          },
          {
            "time": 130.58780228125002,
            "midi": 42,
            "name": "F#2",
            "velocity": 1,
            "duration": 0.08875725000001466,
            "ticks": 35311,
            "durationTicks": 24
          },
          {
            "time": 130.76531678125002,
            "midi": 61,
            "name": "C#4",
            "velocity": 1,
            "duration": 0.08505903124998326,
            "ticks": 35359,
            "durationTicks": 23
          },
          {
            "time": 130.76531678125002,
            "midi": 42,
            "name": "F#2",
            "velocity": 1,
            "duration": 0.08136081249998028,
            "ticks": 35359,
            "durationTicks": 22
          },
          {
            "time": 130.94283128125002,
            "midi": 36,
            "name": "C2",
            "velocity": 1,
            "duration": 0.08505903124998326,
            "ticks": 35407,
            "durationTicks": 23
          },
          {
            "time": 130.94283128125002,
            "midi": 61,
            "name": "C#4",
            "velocity": 1,
            "duration": 0.08505903124998326,
            "ticks": 35407,
            "durationTicks": 23
          },
          {
            "time": 130.94283128125002,
            "midi": 42,
            "name": "F#2",
            "velocity": 1,
            "duration": 0.07026615624997135,
            "ticks": 35407,
            "durationTicks": 19
          },
          {
            "time": 131.124044,
            "midi": 61,
            "name": "C#4",
            "velocity": 1,
            "duration": 0.08505903125001169,
            "ticks": 35456,
            "durationTicks": 23
          },
          {
            "time": 131.124044,
            "midi": 42,
            "name": "F#2",
            "velocity": 1,
            "duration": 0.05917150000001925,
            "ticks": 35456,
            "durationTicks": 16
          },
          {
            "time": 131.29786028125002,
            "midi": 38,
            "name": "D2",
            "velocity": 1,
            "duration": 0.08505903124998326,
            "ticks": 35503,
            "durationTicks": 23
          },
          {
            "time": 131.29786028125002,
            "midi": 61,
            "name": "C#4",
            "velocity": 1,
            "duration": 0.08505903124998326,
            "ticks": 35503,
            "durationTicks": 23
          },
          {
            "time": 131.29786028125002,
            "midi": 42,
            "name": "F#2",
            "velocity": 1,
            "duration": 0.07396437500000275,
            "ticks": 35503,
            "durationTicks": 20
          },
          {
            "time": 131.479073,
            "midi": 61,
            "name": "C#4",
            "velocity": 1,
            "duration": 0.08505903125001169,
            "ticks": 35552,
            "durationTicks": 23
          },
          {
            "time": 131.479073,
            "midi": 42,
            "name": "F#2",
            "velocity": 1,
            "duration": 0.04807684375001031,
            "ticks": 35552,
            "durationTicks": 13
          },
          {
            "time": 131.65288928125003,
            "midi": 36,
            "name": "C2",
            "velocity": 1,
            "duration": 0.08505903124998326,
            "ticks": 35599,
            "durationTicks": 23
          },
          {
            "time": 131.65288928125003,
            "midi": 61,
            "name": "C#4",
            "velocity": 1,
            "duration": 0.08505903124998326,
            "ticks": 35599,
            "durationTicks": 23
          },
          {
            "time": 131.6565875,
            "midi": 51,
            "name": "D#3",
            "velocity": 1,
            "duration": 0.3217450312500034,
            "ticks": 35600,
            "durationTicks": 87
          },
          {
            "time": 131.6565875,
            "midi": 40,
            "name": "E2",
            "velocity": 1,
            "duration": 0.3217450312500034,
            "ticks": 35600,
            "durationTicks": 87
          },
          {
            "time": 131.6565875,
            "midi": 42,
            "name": "F#2",
            "velocity": 1,
            "duration": 0.07766259375000573,
            "ticks": 35600,
            "durationTicks": 21
          },
          {
            "time": 131.834102,
            "midi": 36,
            "name": "C2",
            "velocity": 1,
            "duration": 0.08505903125001169,
            "ticks": 35648,
            "durationTicks": 23
          },
          {
            "time": 131.834102,
            "midi": 61,
            "name": "C#4",
            "velocity": 1,
            "duration": 0.08505903125001169,
            "ticks": 35648,
            "durationTicks": 23
          },
          {
            "time": 131.83780021875,
            "midi": 42,
            "name": "F#2",
            "velocity": 1,
            "duration": 0.0813608125000087,
            "ticks": 35649,
            "durationTicks": 22
          },
          {
            "time": 132.0116165,
            "midi": 38,
            "name": "D2",
            "velocity": 1,
            "duration": 0.08505903125001169,
            "ticks": 35696,
            "durationTicks": 23
          },
          {
            "time": 132.0116165,
            "midi": 61,
            "name": "C#4",
            "velocity": 1,
            "duration": 0.08505903125001169,
            "ticks": 35696,
            "durationTicks": 23
          },
          {
            "time": 132.0116165,
            "midi": 42,
            "name": "F#2",
            "velocity": 1,
            "duration": 0.08505903125001169,
            "ticks": 35696,
            "durationTicks": 23
          },
          {
            "time": 132.189131,
            "midi": 61,
            "name": "C#4",
            "velocity": 1,
            "duration": 0.08505903125001169,
            "ticks": 35744,
            "durationTicks": 23
          },
          {
            "time": 132.189131,
            "midi": 42,
            "name": "F#2",
            "velocity": 1,
            "duration": 0.09245546875001764,
            "ticks": 35744,
            "durationTicks": 25
          },
          {
            "time": 132.90288721875,
            "midi": 61,
            "name": "C#4",
            "velocity": 1,
            "duration": 0.0813608125000087,
            "ticks": 35937,
            "durationTicks": 22
          },
          {
            "time": 133.0767035,
            "midi": 61,
            "name": "C#4",
            "velocity": 1,
            "duration": 0.09615368750002062,
            "ticks": 35984,
            "durationTicks": 26
          },
          {
            "time": 133.25791621875,
            "midi": 61,
            "name": "C#4",
            "velocity": 1,
            "duration": 0.03698218750000137,
            "ticks": 36033,
            "durationTicks": 10
          },
          {
            "time": 134.32670143750002,
            "midi": 61,
            "name": "C#4",
            "velocity": 1,
            "duration": 0.08136081249998028,
            "ticks": 36322,
            "durationTicks": 22
          },
          {
            "time": 134.50421593750002,
            "midi": 61,
            "name": "C#4",
            "velocity": 1,
            "duration": 0.09245546874998922,
            "ticks": 36370,
            "durationTicks": 25
          },
          {
            "time": 134.68173043750002,
            "midi": 61,
            "name": "C#4",
            "velocity": 1,
            "duration": 0.03698218749997295,
            "ticks": 36418,
            "durationTicks": 10
          },
          {
            "time": 135.75051565625,
            "midi": 61,
            "name": "C#4",
            "velocity": 1,
            "duration": 0.0813608125000087,
            "ticks": 36707,
            "durationTicks": 22
          },
          {
            "time": 135.92803015625,
            "midi": 61,
            "name": "C#4",
            "velocity": 1,
            "duration": 0.09615368750002062,
            "ticks": 36755,
            "durationTicks": 26
          },
          {
            "time": 136.109242875,
            "midi": 61,
            "name": "C#4",
            "velocity": 1,
            "duration": 0.033283968749998394,
            "ticks": 36804,
            "durationTicks": 9
          },
          {
            "time": 137.17802809375002,
            "midi": 36,
            "name": "C2",
            "velocity": 1,
            "duration": 0.10355012499999816,
            "ticks": 37093,
            "durationTicks": 28
          },
          {
            "time": 137.17802809375002,
            "midi": 61,
            "name": "C#4",
            "velocity": 1,
            "duration": 0.07766259375000573,
            "ticks": 37093,
            "durationTicks": 21
          },
          {
            "time": 137.351844375,
            "midi": 38,
            "name": "D2",
            "velocity": 1,
            "duration": 0.0961536874999922,
            "ticks": 37140,
            "durationTicks": 26
          },
          {
            "time": 137.351844375,
            "midi": 61,
            "name": "C#4",
            "velocity": 1,
            "duration": 0.0961536874999922,
            "ticks": 37140,
            "durationTicks": 26
          },
          {
            "time": 137.53305709375002,
            "midi": 38,
            "name": "D2",
            "velocity": 1,
            "duration": 0.08505903125001169,
            "ticks": 37189,
            "durationTicks": 23
          },
          {
            "time": 137.53305709375002,
            "midi": 61,
            "name": "C#4",
            "velocity": 1,
            "duration": 0.033283968749998394,
            "ticks": 37189,
            "durationTicks": 9
          },
          {
            "time": 137.70687337500001,
            "midi": 40,
            "name": "E2",
            "velocity": 1,
            "duration": 0.11834299999998166,
            "ticks": 37236,
            "durationTicks": 32
          },
          {
            "time": 137.70687337500001,
            "midi": 38,
            "name": "D2",
            "velocity": 1,
            "duration": 0.08505903124998326,
            "ticks": 37236,
            "durationTicks": 23
          },
          {
            "time": 137.88808609375002,
            "midi": 38,
            "name": "D2",
            "velocity": 1,
            "duration": 0.08136081249998028,
            "ticks": 37285,
            "durationTicks": 22
          },
          {
            "time": 138.06560059375002,
            "midi": 36,
            "name": "C2",
            "velocity": 1,
            "duration": 0.08505903124998326,
            "ticks": 37333,
            "durationTicks": 23
          },
          {
            "time": 138.06560059375002,
            "midi": 61,
            "name": "C#4",
            "velocity": 1,
            "duration": 0.08505903124998326,
            "ticks": 37333,
            "durationTicks": 23
          },
          {
            "time": 138.06560059375002,
            "midi": 42,
            "name": "F#2",
            "velocity": 1,
            "duration": 0.09245546874998922,
            "ticks": 37333,
            "durationTicks": 25
          },
          {
            "time": 138.24311509375002,
            "midi": 61,
            "name": "C#4",
            "velocity": 1,
            "duration": 0.08505903124998326,
            "ticks": 37381,
            "durationTicks": 23
          },
          {
            "time": 138.2468133125,
            "midi": 42,
            "name": "F#2",
            "velocity": 1,
            "duration": 0.07396437500003117,
            "ticks": 37382,
            "durationTicks": 20
          },
          {
            "time": 138.42062959375002,
            "midi": 38,
            "name": "D2",
            "velocity": 1,
            "duration": 0.08505903124998326,
            "ticks": 37429,
            "durationTicks": 23
          },
          {
            "time": 138.42062959375002,
            "midi": 61,
            "name": "C#4",
            "velocity": 1,
            "duration": 0.08505903124998326,
            "ticks": 37429,
            "durationTicks": 23
          },
          {
            "time": 138.42062959375002,
            "midi": 42,
            "name": "F#2",
            "velocity": 1,
            "duration": 0.08505903124998326,
            "ticks": 37429,
            "durationTicks": 23
          },
          {
            "time": 138.6018423125,
            "midi": 61,
            "name": "C#4",
            "velocity": 1,
            "duration": 0.08505903125001169,
            "ticks": 37478,
            "durationTicks": 23
          },
          {
            "time": 138.6018423125,
            "midi": 42,
            "name": "F#2",
            "velocity": 1,
            "duration": 0.08505903125001169,
            "ticks": 37478,
            "durationTicks": 23
          },
          {
            "time": 138.77565859375002,
            "midi": 36,
            "name": "C2",
            "velocity": 1,
            "duration": 0.08505903124998326,
            "ticks": 37525,
            "durationTicks": 23
          },
          {
            "time": 138.77565859375002,
            "midi": 61,
            "name": "C#4",
            "velocity": 1,
            "duration": 0.08875724999998624,
            "ticks": 37525,
            "durationTicks": 24
          },
          {
            "time": 138.7793568125,
            "midi": 40,
            "name": "E2",
            "velocity": 1,
            "duration": 0.35133078125002726,
            "ticks": 37526,
            "durationTicks": 95
          },
          {
            "time": 138.7793568125,
            "midi": 51,
            "name": "D#3",
            "velocity": 1,
            "duration": 0.3735200937500167,
            "ticks": 37526,
            "durationTicks": 101
          },
          {
            "time": 138.7793568125,
            "midi": 42,
            "name": "F#2",
            "velocity": 1,
            "duration": 0.0813608125000087,
            "ticks": 37526,
            "durationTicks": 22
          },
          {
            "time": 138.9568713125,
            "midi": 36,
            "name": "C2",
            "velocity": 1,
            "duration": 0.08505903125001169,
            "ticks": 37574,
            "durationTicks": 23
          },
          {
            "time": 138.9568713125,
            "midi": 61,
            "name": "C#4",
            "velocity": 1,
            "duration": 0.08505903125001169,
            "ticks": 37574,
            "durationTicks": 23
          },
          {
            "time": 138.96056953125,
            "midi": 42,
            "name": "F#2",
            "velocity": 1,
            "duration": 0.08505903125001169,
            "ticks": 37575,
            "durationTicks": 23
          },
          {
            "time": 139.1343858125,
            "midi": 38,
            "name": "D2",
            "velocity": 1,
            "duration": 0.0813608125000087,
            "ticks": 37622,
            "durationTicks": 22
          },
          {
            "time": 139.1343858125,
            "midi": 61,
            "name": "C#4",
            "velocity": 1,
            "duration": 0.0813608125000087,
            "ticks": 37622,
            "durationTicks": 22
          },
          {
            "time": 139.1343858125,
            "midi": 42,
            "name": "F#2",
            "velocity": 1,
            "duration": 0.09245546875001764,
            "ticks": 37622,
            "durationTicks": 25
          },
          {
            "time": 139.3119003125,
            "midi": 61,
            "name": "C#4",
            "velocity": 1,
            "duration": 0.08505903125001169,
            "ticks": 37670,
            "durationTicks": 23
          },
          {
            "time": 139.3119003125,
            "midi": 42,
            "name": "F#2",
            "velocity": 1,
            "duration": 0.09245546875001764,
            "ticks": 37670,
            "durationTicks": 25
          },
          {
            "time": 139.4894148125,
            "midi": 36,
            "name": "C2",
            "velocity": 1,
            "duration": 0.08505903125001169,
            "ticks": 37718,
            "durationTicks": 23
          },
          {
            "time": 139.4894148125,
            "midi": 61,
            "name": "C#4",
            "velocity": 1,
            "duration": 0.08505903125001169,
            "ticks": 37718,
            "durationTicks": 23
          },
          {
            "time": 139.4894148125,
            "midi": 42,
            "name": "F#2",
            "velocity": 1,
            "duration": 0.10355012500002658,
            "ticks": 37718,
            "durationTicks": 28
          },
          {
            "time": 139.67062753125,
            "midi": 61,
            "name": "C#4",
            "velocity": 1,
            "duration": 0.08505903125001169,
            "ticks": 37767,
            "durationTicks": 23
          },
          {
            "time": 139.67062753125,
            "midi": 42,
            "name": "F#2",
            "velocity": 1,
            "duration": 0.07766259375000573,
            "ticks": 37767,
            "durationTicks": 21
          },
          {
            "time": 139.8444438125,
            "midi": 38,
            "name": "D2",
            "velocity": 1,
            "duration": 0.08505903125001169,
            "ticks": 37814,
            "durationTicks": 23
          },
          {
            "time": 139.8444438125,
            "midi": 61,
            "name": "C#4",
            "velocity": 1,
            "duration": 0.08505903125001169,
            "ticks": 37814,
            "durationTicks": 23
          },
          {
            "time": 139.8444438125,
            "midi": 42,
            "name": "F#2",
            "velocity": 1,
            "duration": 0.08505903125001169,
            "ticks": 37814,
            "durationTicks": 23
          },
          {
            "time": 140.02565653125,
            "midi": 61,
            "name": "C#4",
            "velocity": 1,
            "duration": 0.08505903125001169,
            "ticks": 37863,
            "durationTicks": 23
          },
          {
            "time": 140.02565653125,
            "midi": 42,
            "name": "F#2",
            "velocity": 1,
            "duration": 0.08875725000001466,
            "ticks": 37863,
            "durationTicks": 24
          },
          {
            "time": 140.1994728125,
            "midi": 36,
            "name": "C2",
            "velocity": 1,
            "duration": 0.08505903125001169,
            "ticks": 37910,
            "durationTicks": 23
          },
          {
            "time": 140.1994728125,
            "midi": 61,
            "name": "C#4",
            "velocity": 1,
            "duration": 0.08505903125001169,
            "ticks": 37910,
            "durationTicks": 23
          },
          {
            "time": 140.20317103125,
            "midi": 51,
            "name": "D#3",
            "velocity": 1,
            "duration": 0.3254432500000064,
            "ticks": 37911,
            "durationTicks": 88
          },
          {
            "time": 140.20317103125,
            "midi": 40,
            "name": "E2",
            "velocity": 1,
            "duration": 0.3254432500000064,
            "ticks": 37911,
            "durationTicks": 88
          },
          {
            "time": 140.20317103125,
            "midi": 42,
            "name": "F#2",
            "velocity": 1,
            "duration": 0.09245546875001764,
            "ticks": 37911,
            "durationTicks": 25
          },
          {
            "time": 140.38068553125,
            "midi": 36,
            "name": "C2",
            "velocity": 1,
            "duration": 0.08505903125001169,
            "ticks": 37959,
            "durationTicks": 23
          },
          {
            "time": 140.38068553125,
            "midi": 61,
            "name": "C#4",
            "velocity": 1,
            "duration": 0.08505903125001169,
            "ticks": 37959,
            "durationTicks": 23
          },
          {
            "time": 140.38438375,
            "midi": 42,
            "name": "F#2",
            "velocity": 1,
            "duration": 0.08875725000001466,
            "ticks": 37960,
            "durationTicks": 24
          },
          {
            "time": 140.55820003125,
            "midi": 38,
            "name": "D2",
            "velocity": 1,
            "duration": 0.08505903125001169,
            "ticks": 38007,
            "durationTicks": 23
          },
          {
            "time": 140.55820003125,
            "midi": 61,
            "name": "C#4",
            "velocity": 1,
            "duration": 0.08505903125001169,
            "ticks": 38007,
            "durationTicks": 23
          },
          {
            "time": 140.55820003125,
            "midi": 42,
            "name": "F#2",
            "velocity": 1,
            "duration": 0.09245546875001764,
            "ticks": 38007,
            "durationTicks": 25
          },
          {
            "time": 140.73941275,
            "midi": 61,
            "name": "C#4",
            "velocity": 1,
            "duration": 0.08505903125001169,
            "ticks": 38056,
            "durationTicks": 23
          },
          {
            "time": 140.73941275,
            "midi": 42,
            "name": "F#2",
            "velocity": 1,
            "duration": 0.08875725000001466,
            "ticks": 38056,
            "durationTicks": 24
          },
          {
            "time": 140.91322903125,
            "midi": 36,
            "name": "C2",
            "velocity": 1,
            "duration": 0.08505903124998326,
            "ticks": 38103,
            "durationTicks": 23
          },
          {
            "time": 140.91322903125,
            "midi": 61,
            "name": "C#4",
            "velocity": 1,
            "duration": 0.08505903124998326,
            "ticks": 38103,
            "durationTicks": 23
          },
          {
            "time": 140.91322903125,
            "midi": 42,
            "name": "F#2",
            "velocity": 1,
            "duration": 0.0961536874999922,
            "ticks": 38103,
            "durationTicks": 26
          },
          {
            "time": 141.09444175000002,
            "midi": 61,
            "name": "C#4",
            "velocity": 1,
            "duration": 0.08505903125001169,
            "ticks": 38152,
            "durationTicks": 23
          },
          {
            "time": 141.09444175000002,
            "midi": 42,
            "name": "F#2",
            "velocity": 1,
            "duration": 0.09245546874998922,
            "ticks": 38152,
            "durationTicks": 25
          },
          {
            "time": 141.26825803125,
            "midi": 38,
            "name": "D2",
            "velocity": 1,
            "duration": 0.08505903124998326,
            "ticks": 38199,
            "durationTicks": 23
          },
          {
            "time": 141.26825803125,
            "midi": 61,
            "name": "C#4",
            "velocity": 1,
            "duration": 0.08875725000001466,
            "ticks": 38199,
            "durationTicks": 24
          },
          {
            "time": 141.27195625000002,
            "midi": 42,
            "name": "F#2",
            "velocity": 1,
            "duration": 0.08136081249998028,
            "ticks": 38200,
            "durationTicks": 22
          },
          {
            "time": 141.44947075000002,
            "midi": 61,
            "name": "C#4",
            "velocity": 1,
            "duration": 0.08505903125001169,
            "ticks": 38248,
            "durationTicks": 23
          },
          {
            "time": 141.44947075000002,
            "midi": 42,
            "name": "F#2",
            "velocity": 1,
            "duration": 0.08505903125001169,
            "ticks": 38248,
            "durationTicks": 23
          },
          {
            "time": 141.62698525000002,
            "midi": 36,
            "name": "C2",
            "velocity": 1,
            "duration": 0.08505903124998326,
            "ticks": 38296,
            "durationTicks": 23
          },
          {
            "time": 141.62698525000002,
            "midi": 61,
            "name": "C#4",
            "velocity": 1,
            "duration": 0.08505903124998326,
            "ticks": 38296,
            "durationTicks": 23
          },
          {
            "time": 141.62698525000002,
            "midi": 40,
            "name": "E2",
            "velocity": 1,
            "duration": 0.3550290000000018,
            "ticks": 38296,
            "durationTicks": 96
          },
          {
            "time": 141.62698525000002,
            "midi": 51,
            "name": "D#3",
            "velocity": 1,
            "duration": 0.3735200937499883,
            "ticks": 38296,
            "durationTicks": 101
          },
          {
            "time": 141.62698525000002,
            "midi": 42,
            "name": "F#2",
            "velocity": 1,
            "duration": 0.08505903124998326,
            "ticks": 38296,
            "durationTicks": 23
          },
          {
            "time": 141.80449975000002,
            "midi": 36,
            "name": "C2",
            "velocity": 1,
            "duration": 0.08505903124998326,
            "ticks": 38344,
            "durationTicks": 23
          },
          {
            "time": 141.80819796875002,
            "midi": 61,
            "name": "C#4",
            "velocity": 1,
            "duration": 0.08505903125001169,
            "ticks": 38345,
            "durationTicks": 23
          },
          {
            "time": 141.80819796875002,
            "midi": 42,
            "name": "F#2",
            "velocity": 1,
            "duration": 0.0776625937499773,
            "ticks": 38345,
            "durationTicks": 21
          },
          {
            "time": 141.98201425000002,
            "midi": 38,
            "name": "D2",
            "velocity": 1,
            "duration": 0.08505903124998326,
            "ticks": 38392,
            "durationTicks": 23
          },
          {
            "time": 141.98201425000002,
            "midi": 61,
            "name": "C#4",
            "velocity": 1,
            "duration": 0.08505903124998326,
            "ticks": 38392,
            "durationTicks": 23
          },
          {
            "time": 141.98571246875,
            "midi": 42,
            "name": "F#2",
            "velocity": 1,
            "duration": 0.0850590312500401,
            "ticks": 38393,
            "durationTicks": 23
          },
          {
            "time": 142.16322696875,
            "midi": 61,
            "name": "C#4",
            "velocity": 1,
            "duration": 0.0850590312500401,
            "ticks": 38441,
            "durationTicks": 23
          },
          {
            "time": 142.16322696875,
            "midi": 42,
            "name": "F#2",
            "velocity": 1,
            "duration": 0.07766259375000573,
            "ticks": 38441,
            "durationTicks": 21
          },
          {
            "time": 142.33704325000002,
            "midi": 36,
            "name": "C2",
            "velocity": 1,
            "duration": 0.08505903124998326,
            "ticks": 38488,
            "durationTicks": 23
          },
          {
            "time": 142.33704325000002,
            "midi": 61,
            "name": "C#4",
            "velocity": 1,
            "duration": 0.08505903124998326,
            "ticks": 38488,
            "durationTicks": 23
          },
          {
            "time": 142.34074146875,
            "midi": 42,
            "name": "F#2",
            "velocity": 1,
            "duration": 0.06656793750002521,
            "ticks": 38489,
            "durationTicks": 18
          },
          {
            "time": 142.51825596875,
            "midi": 61,
            "name": "C#4",
            "velocity": 1,
            "duration": 0.08505903125001169,
            "ticks": 38537,
            "durationTicks": 23
          },
          {
            "time": 142.51825596875,
            "midi": 42,
            "name": "F#2",
            "velocity": 1,
            "duration": 0.05917150000001925,
            "ticks": 38537,
            "durationTicks": 16
          },
          {
            "time": 142.69207225000002,
            "midi": 38,
            "name": "D2",
            "velocity": 1,
            "duration": 0.08505903124998326,
            "ticks": 38584,
            "durationTicks": 23
          },
          {
            "time": 142.69207225000002,
            "midi": 61,
            "name": "C#4",
            "velocity": 1,
            "duration": 0.08505903124998326,
            "ticks": 38584,
            "durationTicks": 23
          },
          {
            "time": 142.69577046875,
            "midi": 42,
            "name": "F#2",
            "velocity": 1,
            "duration": 0.07396437500003117,
            "ticks": 38585,
            "durationTicks": 20
          },
          {
            "time": 142.87328496875,
            "midi": 61,
            "name": "C#4",
            "velocity": 1,
            "duration": 0.08505903125001169,
            "ticks": 38633,
            "durationTicks": 23
          },
          {
            "time": 142.87328496875,
            "midi": 42,
            "name": "F#2",
            "velocity": 1,
            "duration": 0.05177506250001329,
            "ticks": 38633,
            "durationTicks": 14
          },
          {
            "time": 143.05079946875,
            "midi": 36,
            "name": "C2",
            "velocity": 1,
            "duration": 0.08505903125001169,
            "ticks": 38681,
            "durationTicks": 23
          },
          {
            "time": 143.05079946875,
            "midi": 61,
            "name": "C#4",
            "velocity": 1,
            "duration": 0.08505903125001169,
            "ticks": 38681,
            "durationTicks": 23
          },
          {
            "time": 143.05079946875,
            "midi": 51,
            "name": "D#3",
            "velocity": 1,
            "duration": 0.3254432500000064,
            "ticks": 38681,
            "durationTicks": 88
          },
          {
            "time": 143.05079946875,
            "midi": 40,
            "name": "E2",
            "velocity": 1,
            "duration": 0.3254432500000064,
            "ticks": 38681,
            "durationTicks": 88
          },
          {
            "time": 143.0544976875,
            "midi": 42,
            "name": "F#2",
            "velocity": 1,
            "duration": 0.07396437500000275,
            "ticks": 38682,
            "durationTicks": 20
          },
          {
            "time": 143.2320121875,
            "midi": 36,
            "name": "C2",
            "velocity": 1,
            "duration": 0.08505903125001169,
            "ticks": 38730,
            "durationTicks": 23
          },
          {
            "time": 143.2320121875,
            "midi": 61,
            "name": "C#4",
            "velocity": 1,
            "duration": 0.08505903125001169,
            "ticks": 38730,
            "durationTicks": 23
          },
          {
            "time": 143.2320121875,
            "midi": 42,
            "name": "F#2",
            "velocity": 1,
            "duration": 0.08505903125001169,
            "ticks": 38730,
            "durationTicks": 23
          },
          {
            "time": 143.40582846875,
            "midi": 38,
            "name": "D2",
            "velocity": 1,
            "duration": 0.08505903125001169,
            "ticks": 38777,
            "durationTicks": 23
          },
          {
            "time": 143.40582846875,
            "midi": 61,
            "name": "C#4",
            "velocity": 1,
            "duration": 0.08505903125001169,
            "ticks": 38777,
            "durationTicks": 23
          },
          {
            "time": 143.40582846875,
            "midi": 42,
            "name": "F#2",
            "velocity": 1,
            "duration": 0.08505903125001169,
            "ticks": 38777,
            "durationTicks": 23
          },
          {
            "time": 143.5870411875,
            "midi": 61,
            "name": "C#4",
            "velocity": 1,
            "duration": 0.08505903125001169,
            "ticks": 38826,
            "durationTicks": 23
          },
          {
            "time": 143.5870411875,
            "midi": 42,
            "name": "F#2",
            "velocity": 1,
            "duration": 0.08875725000001466,
            "ticks": 38826,
            "durationTicks": 24
          },
          {
            "time": 143.76085746875,
            "midi": 36,
            "name": "C2",
            "velocity": 1,
            "duration": 0.08505903125001169,
            "ticks": 38873,
            "durationTicks": 23
          },
          {
            "time": 143.7645556875,
            "midi": 61,
            "name": "C#4",
            "velocity": 1,
            "duration": 0.0813608125000087,
            "ticks": 38874,
            "durationTicks": 22
          },
          {
            "time": 143.7645556875,
            "midi": 42,
            "name": "F#2",
            "velocity": 1,
            "duration": 0.0961536874999922,
            "ticks": 38874,
            "durationTicks": 26
          },
          {
            "time": 143.9420701875,
            "midi": 61,
            "name": "C#4",
            "velocity": 1,
            "duration": 0.08505903125001169,
            "ticks": 38922,
            "durationTicks": 23
          },
          {
            "time": 143.9420701875,
            "midi": 42,
            "name": "F#2",
            "velocity": 1,
            "duration": 0.08505903125001169,
            "ticks": 38922,
            "durationTicks": 23
          },
          {
            "time": 144.1195846875,
            "midi": 38,
            "name": "D2",
            "velocity": 1,
            "duration": 0.08505903125001169,
            "ticks": 38970,
            "durationTicks": 23
          },
          {
            "time": 144.1195846875,
            "midi": 61,
            "name": "C#4",
            "velocity": 1,
            "duration": 0.08505903125001169,
            "ticks": 38970,
            "durationTicks": 23
          },
          {
            "time": 144.1195846875,
            "midi": 42,
            "name": "F#2",
            "velocity": 1,
            "duration": 0.08505903125001169,
            "ticks": 38970,
            "durationTicks": 23
          },
          {
            "time": 144.2970991875,
            "midi": 61,
            "name": "C#4",
            "velocity": 1,
            "duration": 0.08505903125001169,
            "ticks": 39018,
            "durationTicks": 23
          },
          {
            "time": 144.30079740625,
            "midi": 42,
            "name": "F#2",
            "velocity": 1,
            "duration": 0.07396437500000275,
            "ticks": 39019,
            "durationTicks": 20
          },
          {
            "time": 144.4746136875,
            "midi": 36,
            "name": "C2",
            "velocity": 1,
            "duration": 0.08505903125001169,
            "ticks": 39066,
            "durationTicks": 23
          },
          {
            "time": 144.4746136875,
            "midi": 61,
            "name": "C#4",
            "velocity": 1,
            "duration": 0.08505903125001169,
            "ticks": 39066,
            "durationTicks": 23
          },
          {
            "time": 144.4746136875,
            "midi": 40,
            "name": "E2",
            "velocity": 1,
            "duration": 0.3550290000000018,
            "ticks": 39066,
            "durationTicks": 96
          },
          {
            "time": 144.47831190625,
            "midi": 51,
            "name": "D#3",
            "velocity": 1,
            "duration": 0.3772183125000197,
            "ticks": 39067,
            "durationTicks": 102
          },
          {
            "time": 144.47831190625,
            "midi": 42,
            "name": "F#2",
            "velocity": 1,
            "duration": 0.06656793749999679,
            "ticks": 39067,
            "durationTicks": 18
          },
          {
            "time": 144.65582640625001,
            "midi": 36,
            "name": "C2",
            "velocity": 1,
            "duration": 0.08505903125001169,
            "ticks": 39115,
            "durationTicks": 23
          },
          {
            "time": 144.65582640625001,
            "midi": 61,
            "name": "C#4",
            "velocity": 1,
            "duration": 0.08505903125001169,
            "ticks": 39115,
            "durationTicks": 23
          },
          {
            "time": 144.65582640625001,
            "midi": 42,
            "name": "F#2",
            "velocity": 1,
            "duration": 0.07766259375000573,
            "ticks": 39115,
            "durationTicks": 21
          },
          {
            "time": 144.8296426875,
            "midi": 38,
            "name": "D2",
            "velocity": 1,
            "duration": 0.08505903124998326,
            "ticks": 39162,
            "durationTicks": 23
          },
          {
            "time": 144.8296426875,
            "midi": 61,
            "name": "C#4",
            "velocity": 1,
            "duration": 0.08505903124998326,
            "ticks": 39162,
            "durationTicks": 23
          },
          {
            "time": 144.83334090625002,
            "midi": 42,
            "name": "F#2",
            "velocity": 1,
            "duration": 0.09245546874998922,
            "ticks": 39163,
            "durationTicks": 25
          },
          {
            "time": 145.01085540625002,
            "midi": 61,
            "name": "C#4",
            "velocity": 1,
            "duration": 0.08505903125001169,
            "ticks": 39211,
            "durationTicks": 23
          },
          {
            "time": 145.01085540625002,
            "midi": 42,
            "name": "F#2",
            "velocity": 1,
            "duration": 0.08505903125001169,
            "ticks": 39211,
            "durationTicks": 23
          },
          {
            "time": 145.1846716875,
            "midi": 36,
            "name": "C2",
            "velocity": 1,
            "duration": 0.08875725000001466,
            "ticks": 39258,
            "durationTicks": 24
          },
          {
            "time": 145.18836990625002,
            "midi": 61,
            "name": "C#4",
            "velocity": 1,
            "duration": 0.08505903125001169,
            "ticks": 39259,
            "durationTicks": 23
          },
          {
            "time": 145.18836990625002,
            "midi": 42,
            "name": "F#2",
            "velocity": 1,
            "duration": 0.08505903125001169,
            "ticks": 39259,
            "durationTicks": 23
          },
          {
            "time": 145.36588440625002,
            "midi": 61,
            "name": "C#4",
            "velocity": 1,
            "duration": 0.08505903125001169,
            "ticks": 39307,
            "durationTicks": 23
          },
          {
            "time": 145.36588440625002,
            "midi": 42,
            "name": "F#2",
            "velocity": 1,
            "duration": 0.07026615624999977,
            "ticks": 39307,
            "durationTicks": 19
          },
          {
            "time": 145.54339890625002,
            "midi": 38,
            "name": "D2",
            "velocity": 1,
            "duration": 0.08505903124998326,
            "ticks": 39355,
            "durationTicks": 23
          },
          {
            "time": 145.54339890625002,
            "midi": 61,
            "name": "C#4",
            "velocity": 1,
            "duration": 0.08505903124998326,
            "ticks": 39355,
            "durationTicks": 23
          },
          {
            "time": 145.54339890625002,
            "midi": 42,
            "name": "F#2",
            "velocity": 1,
            "duration": 0.07026615624999977,
            "ticks": 39355,
            "durationTicks": 19
          },
          {
            "time": 145.72461162500002,
            "midi": 61,
            "name": "C#4",
            "velocity": 1,
            "duration": 0.08505903125001169,
            "ticks": 39404,
            "durationTicks": 23
          },
          {
            "time": 145.72461162500002,
            "midi": 42,
            "name": "F#2",
            "velocity": 1,
            "duration": 0.07026615624999977,
            "ticks": 39404,
            "durationTicks": 19
          },
          {
            "time": 145.89842790625002,
            "midi": 36,
            "name": "C2",
            "velocity": 1,
            "duration": 0.08505903124998326,
            "ticks": 39451,
            "durationTicks": 23
          },
          {
            "time": 145.89842790625002,
            "midi": 61,
            "name": "C#4",
            "velocity": 1,
            "duration": 0.08505903124998326,
            "ticks": 39451,
            "durationTicks": 23
          },
          {
            "time": 145.89842790625002,
            "midi": 51,
            "name": "D#3",
            "velocity": 1,
            "duration": 0.325443249999978,
            "ticks": 39451,
            "durationTicks": 88
          },
          {
            "time": 145.902126125,
            "midi": 40,
            "name": "E2",
            "velocity": 1,
            "duration": 0.3217450312500034,
            "ticks": 39452,
            "durationTicks": 87
          },
          {
            "time": 145.902126125,
            "midi": 42,
            "name": "F#2",
            "velocity": 1,
            "duration": 0.06656793750002521,
            "ticks": 39452,
            "durationTicks": 18
          },
          {
            "time": 146.079640625,
            "midi": 36,
            "name": "C2",
            "velocity": 1,
            "duration": 0.0850590312500401,
            "ticks": 39500,
            "durationTicks": 23
          },
          {
            "time": 146.079640625,
            "midi": 61,
            "name": "C#4",
            "velocity": 1,
            "duration": 0.0850590312500401,
            "ticks": 39500,
            "durationTicks": 23
          },
          {
            "time": 146.079640625,
            "midi": 42,
            "name": "F#2",
            "velocity": 1,
            "duration": 0.07396437500003117,
            "ticks": 39500,
            "durationTicks": 20
          },
          {
            "time": 146.25345690625002,
            "midi": 38,
            "name": "D2",
            "velocity": 1,
            "duration": 0.08505903124998326,
            "ticks": 39547,
            "durationTicks": 23
          },
          {
            "time": 146.25345690625002,
            "midi": 61,
            "name": "C#4",
            "velocity": 1,
            "duration": 0.08505903124998326,
            "ticks": 39547,
            "durationTicks": 23
          },
          {
            "time": 146.257155125,
            "midi": 42,
            "name": "F#2",
            "velocity": 1,
            "duration": 0.09245546875001764,
            "ticks": 39548,
            "durationTicks": 25
          },
          {
            "time": 146.434669625,
            "midi": 61,
            "name": "C#4",
            "velocity": 1,
            "duration": 0.08505903125001169,
            "ticks": 39596,
            "durationTicks": 23
          },
          {
            "time": 146.434669625,
            "midi": 42,
            "name": "F#2",
            "velocity": 1,
            "duration": 0.0998519062500236,
            "ticks": 39596,
            "durationTicks": 27
          },
          {
            "time": 146.612184125,
            "midi": 36,
            "name": "C2",
            "velocity": 1,
            "duration": 0.08505903125001169,
            "ticks": 39644,
            "durationTicks": 23
          },
          {
            "time": 146.612184125,
            "midi": 61,
            "name": "C#4",
            "velocity": 1,
            "duration": 0.08505903125001169,
            "ticks": 39644,
            "durationTicks": 23
          },
          {
            "time": 146.612184125,
            "midi": 42,
            "name": "F#2",
            "velocity": 1,
            "duration": 0.12943765625001902,
            "ticks": 39644,
            "durationTicks": 35
          },
          {
            "time": 146.79339684375,
            "midi": 61,
            "name": "C#4",
            "velocity": 1,
            "duration": 0.08505903125001169,
            "ticks": 39693,
            "durationTicks": 23
          },
          {
            "time": 146.79339684375,
            "midi": 42,
            "name": "F#2",
            "velocity": 1,
            "duration": 0.08875725000001466,
            "ticks": 39693,
            "durationTicks": 24
          },
          {
            "time": 146.967213125,
            "midi": 38,
            "name": "D2",
            "velocity": 1,
            "duration": 0.08505903125001169,
            "ticks": 39740,
            "durationTicks": 23
          },
          {
            "time": 146.967213125,
            "midi": 61,
            "name": "C#4",
            "velocity": 1,
            "duration": 0.08505903125001169,
            "ticks": 39740,
            "durationTicks": 23
          },
          {
            "time": 146.967213125,
            "midi": 42,
            "name": "F#2",
            "velocity": 1,
            "duration": 0.07026615625002819,
            "ticks": 39740,
            "durationTicks": 19
          },
          {
            "time": 147.14842584375,
            "midi": 61,
            "name": "C#4",
            "velocity": 1,
            "duration": 0.08505903125001169,
            "ticks": 39789,
            "durationTicks": 23
          },
          {
            "time": 147.14842584375,
            "midi": 42,
            "name": "F#2",
            "velocity": 1,
            "duration": 0.07396437500000275,
            "ticks": 39789,
            "durationTicks": 20
          },
          {
            "time": 147.322242125,
            "midi": 36,
            "name": "C2",
            "velocity": 1,
            "duration": 0.08505903125001169,
            "ticks": 39836,
            "durationTicks": 23
          },
          {
            "time": 147.322242125,
            "midi": 61,
            "name": "C#4",
            "velocity": 1,
            "duration": 0.08505903125001169,
            "ticks": 39836,
            "durationTicks": 23
          },
          {
            "time": 147.32594034375,
            "midi": 40,
            "name": "E2",
            "velocity": 1,
            "duration": 0.3550290000000018,
            "ticks": 39837,
            "durationTicks": 96
          },
          {
            "time": 147.32594034375,
            "midi": 51,
            "name": "D#3",
            "velocity": 1,
            "duration": 0.3735200937500167,
            "ticks": 39837,
            "durationTicks": 101
          },
          {
            "time": 147.32594034375,
            "midi": 42,
            "name": "F#2",
            "velocity": 1,
            "duration": 0.07766259375000573,
            "ticks": 39837,
            "durationTicks": 21
          },
          {
            "time": 147.50345484375,
            "midi": 36,
            "name": "C2",
            "velocity": 1,
            "duration": 0.08505903125001169,
            "ticks": 39885,
            "durationTicks": 23
          },
          {
            "time": 147.50345484375,
            "midi": 61,
            "name": "C#4",
            "velocity": 1,
            "duration": 0.08505903125001169,
            "ticks": 39885,
            "durationTicks": 23
          },
          {
            "time": 147.5071530625,
            "midi": 42,
            "name": "F#2",
            "velocity": 1,
            "duration": 0.07026615624999977,
            "ticks": 39886,
            "durationTicks": 19
          },
          {
            "time": 147.68096934375,
            "midi": 38,
            "name": "D2",
            "velocity": 1,
            "duration": 0.08505903125001169,
            "ticks": 39933,
            "durationTicks": 23
          },
          {
            "time": 147.68096934375,
            "midi": 61,
            "name": "C#4",
            "velocity": 1,
            "duration": 0.08505903125001169,
            "ticks": 39933,
            "durationTicks": 23
          },
          {
            "time": 147.68096934375,
            "midi": 42,
            "name": "F#2",
            "velocity": 1,
            "duration": 0.08505903125001169,
            "ticks": 39933,
            "durationTicks": 23
          },
          {
            "time": 147.85848384375,
            "midi": 61,
            "name": "C#4",
            "velocity": 1,
            "duration": 0.08505903125001169,
            "ticks": 39981,
            "durationTicks": 23
          },
          {
            "time": 147.85848384375,
            "midi": 42,
            "name": "F#2",
            "velocity": 1,
            "duration": 0.08505903125001169,
            "ticks": 39981,
            "durationTicks": 23
          },
          {
            "time": 148.03599834375,
            "midi": 36,
            "name": "C2",
            "velocity": 1,
            "duration": 0.08505903125001169,
            "ticks": 40029,
            "durationTicks": 23
          },
          {
            "time": 148.03599834375,
            "midi": 61,
            "name": "C#4",
            "velocity": 1,
            "duration": 0.08505903125001169,
            "ticks": 40029,
            "durationTicks": 23
          },
          {
            "time": 148.03599834375,
            "midi": 42,
            "name": "F#2",
            "velocity": 1,
            "duration": 0.1146447812500071,
            "ticks": 40029,
            "durationTicks": 31
          },
          {
            "time": 148.2172110625,
            "midi": 61,
            "name": "C#4",
            "velocity": 1,
            "duration": 0.08505903125001169,
            "ticks": 40078,
            "durationTicks": 23
          },
          {
            "time": 148.2172110625,
            "midi": 42,
            "name": "F#2",
            "velocity": 1,
            "duration": 0.08505903125001169,
            "ticks": 40078,
            "durationTicks": 23
          },
          {
            "time": 148.39102734375,
            "midi": 38,
            "name": "D2",
            "velocity": 1,
            "duration": 0.08505903125001169,
            "ticks": 40125,
            "durationTicks": 23
          },
          {
            "time": 148.39102734375,
            "midi": 61,
            "name": "C#4",
            "velocity": 1,
            "duration": 0.08505903125001169,
            "ticks": 40125,
            "durationTicks": 23
          },
          {
            "time": 148.3947255625,
            "midi": 42,
            "name": "F#2",
            "velocity": 1,
            "duration": 0.07766259375000573,
            "ticks": 40126,
            "durationTicks": 21
          },
          {
            "time": 148.57224006250001,
            "midi": 61,
            "name": "C#4",
            "velocity": 1,
            "duration": 0.08505903125001169,
            "ticks": 40174,
            "durationTicks": 23
          },
          {
            "time": 148.57224006250001,
            "midi": 42,
            "name": "F#2",
            "velocity": 1,
            "duration": 0.08505903125001169,
            "ticks": 40174,
            "durationTicks": 23
          },
          {
            "time": 148.74605634375,
            "midi": 36,
            "name": "C2",
            "velocity": 1,
            "duration": 0.08875725000001466,
            "ticks": 40221,
            "durationTicks": 24
          },
          {
            "time": 148.74605634375,
            "midi": 61,
            "name": "C#4",
            "velocity": 1,
            "duration": 0.08875725000001466,
            "ticks": 40221,
            "durationTicks": 24
          },
          {
            "time": 148.74975456250002,
            "midi": 51,
            "name": "D#3",
            "velocity": 1,
            "duration": 0.3254432500000064,
            "ticks": 40222,
            "durationTicks": 88
          },
          {
            "time": 148.74975456250002,
            "midi": 40,
            "name": "E2",
            "velocity": 1,
            "duration": 0.3254432500000064,
            "ticks": 40222,
            "durationTicks": 88
          },
          {
            "time": 148.74975456250002,
            "midi": 42,
            "name": "F#2",
            "velocity": 1,
            "duration": 0.08505903125001169,
            "ticks": 40222,
            "durationTicks": 23
          },
          {
            "time": 148.92726906250002,
            "midi": 36,
            "name": "C2",
            "velocity": 1,
            "duration": 0.08505903125001169,
            "ticks": 40270,
            "durationTicks": 23
          },
          {
            "time": 148.92726906250002,
            "midi": 61,
            "name": "C#4",
            "velocity": 1,
            "duration": 0.08505903125001169,
            "ticks": 40270,
            "durationTicks": 23
          },
          {
            "time": 148.93096728125002,
            "midi": 42,
            "name": "F#2",
            "velocity": 1,
            "duration": 0.08875724999998624,
            "ticks": 40271,
            "durationTicks": 24
          },
          {
            "time": 149.10478356250002,
            "midi": 38,
            "name": "D2",
            "velocity": 1,
            "duration": 0.08505903125001169,
            "ticks": 40318,
            "durationTicks": 23
          },
          {
            "time": 149.10478356250002,
            "midi": 61,
            "name": "C#4",
            "velocity": 1,
            "duration": 0.08505903125001169,
            "ticks": 40318,
            "durationTicks": 23
          },
          {
            "time": 149.10478356250002,
            "midi": 42,
            "name": "F#2",
            "velocity": 1,
            "duration": 0.08136081249998028,
            "ticks": 40318,
            "durationTicks": 22
          },
          {
            "time": 149.28599628125002,
            "midi": 61,
            "name": "C#4",
            "velocity": 1,
            "duration": 0.08505903125001169,
            "ticks": 40367,
            "durationTicks": 23
          },
          {
            "time": 149.28599628125002,
            "midi": 42,
            "name": "F#2",
            "velocity": 1,
            "duration": 0.0776625937499773,
            "ticks": 40367,
            "durationTicks": 21
          },
          {
            "time": 149.45981256250002,
            "midi": 36,
            "name": "C2",
            "velocity": 1,
            "duration": 0.08505903124998326,
            "ticks": 40414,
            "durationTicks": 23
          },
          {
            "time": 149.45981256250002,
            "midi": 61,
            "name": "C#4",
            "velocity": 1,
            "duration": 0.08505903124998326,
            "ticks": 40414,
            "durationTicks": 23
          },
          {
            "time": 149.45981256250002,
            "midi": 42,
            "name": "F#2",
            "velocity": 1,
            "duration": 0.0961536874999922,
            "ticks": 40414,
            "durationTicks": 26
          },
          {
            "time": 149.46351078125002,
            "midi": 49,
            "name": "C#3",
            "velocity": 1,
            "duration": 1.2499979375000123,
            "ticks": 40415,
            "durationTicks": 338
          },
          {
            "time": 149.64102528125002,
            "midi": 61,
            "name": "C#4",
            "velocity": 1,
            "duration": 0.08505903125001169,
            "ticks": 40463,
            "durationTicks": 23
          },
          {
            "time": 149.64102528125002,
            "midi": 42,
            "name": "F#2",
            "velocity": 1,
            "duration": 0.07396437500000275,
            "ticks": 40463,
            "durationTicks": 20
          },
          {
            "time": 149.81484156250002,
            "midi": 38,
            "name": "D2",
            "velocity": 1,
            "duration": 0.08505903124998326,
            "ticks": 40510,
            "durationTicks": 23
          },
          {
            "time": 149.81853978125,
            "midi": 61,
            "name": "C#4",
            "velocity": 1,
            "duration": 0.0850590312500401,
            "ticks": 40511,
            "durationTicks": 23
          },
          {
            "time": 149.81853978125,
            "midi": 42,
            "name": "F#2",
            "velocity": 1,
            "duration": 0.0813608125000087,
            "ticks": 40511,
            "durationTicks": 22
          },
          {
            "time": 149.99605428125,
            "midi": 61,
            "name": "C#4",
            "velocity": 1,
            "duration": 0.0850590312500401,
            "ticks": 40559,
            "durationTicks": 23
          },
          {
            "time": 149.99605428125,
            "midi": 42,
            "name": "F#2",
            "velocity": 1,
            "duration": 0.0850590312500401,
            "ticks": 40559,
            "durationTicks": 23
          },
          {
            "time": 150.17356878125,
            "midi": 36,
            "name": "C2",
            "velocity": 1,
            "duration": 0.08505903125001169,
            "ticks": 40607,
            "durationTicks": 23
          },
          {
            "time": 150.17356878125,
            "midi": 61,
            "name": "C#4",
            "velocity": 1,
            "duration": 0.08505903125001169,
            "ticks": 40607,
            "durationTicks": 23
          },
          {
            "time": 150.17356878125,
            "midi": 40,
            "name": "E2",
            "velocity": 1,
            "duration": 0.3550290000000018,
            "ticks": 40607,
            "durationTicks": 96
          },
          {
            "time": 150.17356878125,
            "midi": 51,
            "name": "D#3",
            "velocity": 1,
            "duration": 0.3735200937500167,
            "ticks": 40607,
            "durationTicks": 101
          },
          {
            "time": 150.17726700000003,
            "midi": 42,
            "name": "F#2",
            "velocity": 1,
            "duration": 0.08136081249998028,
            "ticks": 40608,
            "durationTicks": 22
          },
          {
            "time": 150.35108328125,
            "midi": 36,
            "name": "C2",
            "velocity": 1,
            "duration": 0.08505903125001169,
            "ticks": 40655,
            "durationTicks": 23
          },
          {
            "time": 150.35108328125,
            "midi": 61,
            "name": "C#4",
            "velocity": 1,
            "duration": 0.08505903125001169,
            "ticks": 40655,
            "durationTicks": 23
          },
          {
            "time": 150.35478150000003,
            "midi": 42,
            "name": "F#2",
            "velocity": 1,
            "duration": 0.08875724999998624,
            "ticks": 40656,
            "durationTicks": 24
          },
          {
            "time": 150.52859778125,
            "midi": 38,
            "name": "D2",
            "velocity": 1,
            "duration": 0.08505903125001169,
            "ticks": 40703,
            "durationTicks": 23
          },
          {
            "time": 150.52859778125,
            "midi": 61,
            "name": "C#4",
            "velocity": 1,
            "duration": 0.08505903125001169,
            "ticks": 40703,
            "durationTicks": 23
          },
          {
            "time": 150.53229600000003,
            "midi": 42,
            "name": "F#2",
            "velocity": 1,
            "duration": 0.09245546874998922,
            "ticks": 40704,
            "durationTicks": 25
          },
          {
            "time": 150.7098105,
            "midi": 61,
            "name": "C#4",
            "velocity": 1,
            "duration": 0.08505903125001169,
            "ticks": 40752,
            "durationTicks": 23
          },
          {
            "time": 150.7098105,
            "midi": 42,
            "name": "F#2",
            "velocity": 1,
            "duration": 0.08875725000001466,
            "ticks": 40752,
            "durationTicks": 24
          },
          {
            "time": 150.88362678125,
            "midi": 36,
            "name": "C2",
            "velocity": 1,
            "duration": 0.08505903125001169,
            "ticks": 40799,
            "durationTicks": 23
          },
          {
            "time": 150.88362678125,
            "midi": 61,
            "name": "C#4",
            "velocity": 1,
            "duration": 0.08505903125001169,
            "ticks": 40799,
            "durationTicks": 23
          },
          {
            "time": 150.887325,
            "midi": 42,
            "name": "F#2",
            "velocity": 1,
            "duration": 0.10355012500002658,
            "ticks": 40800,
            "durationTicks": 28
          },
          {
            "time": 151.0648395,
            "midi": 61,
            "name": "C#4",
            "velocity": 1,
            "duration": 0.08505903125001169,
            "ticks": 40848,
            "durationTicks": 23
          },
          {
            "time": 151.0648395,
            "midi": 42,
            "name": "F#2",
            "velocity": 1,
            "duration": 0.0813608125000087,
            "ticks": 40848,
            "durationTicks": 22
          },
          {
            "time": 151.242354,
            "midi": 38,
            "name": "D2",
            "velocity": 1,
            "duration": 0.08505903125001169,
            "ticks": 40896,
            "durationTicks": 23
          },
          {
            "time": 151.242354,
            "midi": 61,
            "name": "C#4",
            "velocity": 1,
            "duration": 0.08505903125001169,
            "ticks": 40896,
            "durationTicks": 23
          },
          {
            "time": 151.242354,
            "midi": 42,
            "name": "F#2",
            "velocity": 1,
            "duration": 0.08505903125001169,
            "ticks": 40896,
            "durationTicks": 23
          },
          {
            "time": 151.4198685,
            "midi": 61,
            "name": "C#4",
            "velocity": 1,
            "duration": 0.08505903125001169,
            "ticks": 40944,
            "durationTicks": 23
          },
          {
            "time": 151.42356671875,
            "midi": 42,
            "name": "F#2",
            "velocity": 1,
            "duration": 0.08875725000001466,
            "ticks": 40945,
            "durationTicks": 24
          },
          {
            "time": 151.597383,
            "midi": 36,
            "name": "C2",
            "velocity": 1,
            "duration": 0.08505903125001169,
            "ticks": 40992,
            "durationTicks": 23
          },
          {
            "time": 151.597383,
            "midi": 61,
            "name": "C#4",
            "velocity": 1,
            "duration": 0.08505903125001169,
            "ticks": 40992,
            "durationTicks": 23
          },
          {
            "time": 151.597383,
            "midi": 51,
            "name": "D#3",
            "velocity": 1,
            "duration": 0.3254432500000064,
            "ticks": 40992,
            "durationTicks": 88
          },
          {
            "time": 151.60108121875,
            "midi": 40,
            "name": "E2",
            "velocity": 1,
            "duration": 0.3217450312500034,
            "ticks": 40993,
            "durationTicks": 87
          },
          {
            "time": 151.60108121875,
            "midi": 42,
            "name": "F#2",
            "velocity": 1,
            "duration": 0.09245546874998922,
            "ticks": 40993,
            "durationTicks": 25
          },
          {
            "time": 151.77859571875,
            "midi": 36,
            "name": "C2",
            "velocity": 1,
            "duration": 0.08505903125001169,
            "ticks": 41041,
            "durationTicks": 23
          },
          {
            "time": 151.77859571875,
            "midi": 61,
            "name": "C#4",
            "velocity": 1,
            "duration": 0.08505903125001169,
            "ticks": 41041,
            "durationTicks": 23
          },
          {
            "time": 151.77859571875,
            "midi": 42,
            "name": "F#2",
            "velocity": 1,
            "duration": 0.08875725000001466,
            "ticks": 41041,
            "durationTicks": 24
          },
          {
            "time": 151.952412,
            "midi": 38,
            "name": "D2",
            "velocity": 1,
            "duration": 0.08505903125001169,
            "ticks": 41088,
            "durationTicks": 23
          },
          {
            "time": 151.952412,
            "midi": 61,
            "name": "C#4",
            "velocity": 1,
            "duration": 0.08505903125001169,
            "ticks": 41088,
            "durationTicks": 23
          },
          {
            "time": 151.952412,
            "midi": 42,
            "name": "F#2",
            "velocity": 1,
            "duration": 0.0961536874999922,
            "ticks": 41088,
            "durationTicks": 26
          },
          {
            "time": 152.13362471875,
            "midi": 61,
            "name": "C#4",
            "velocity": 1,
            "duration": 0.08505903125001169,
            "ticks": 41137,
            "durationTicks": 23
          },
          {
            "time": 152.13362471875,
            "midi": 42,
            "name": "F#2",
            "velocity": 1,
            "duration": 0.08875725000001466,
            "ticks": 41137,
            "durationTicks": 24
          },
          {
            "time": 152.307441,
            "midi": 36,
            "name": "C2",
            "velocity": 1,
            "duration": 0.08505903125001169,
            "ticks": 41184,
            "durationTicks": 23
          },
          {
            "time": 152.307441,
            "midi": 61,
            "name": "C#4",
            "velocity": 1,
            "duration": 0.08505903125001169,
            "ticks": 41184,
            "durationTicks": 23
          },
          {
            "time": 152.31113921875001,
            "midi": 42,
            "name": "F#2",
            "velocity": 1,
            "duration": 0.09245546874998922,
            "ticks": 41185,
            "durationTicks": 25
          },
          {
            "time": 152.48865371875002,
            "midi": 61,
            "name": "C#4",
            "velocity": 1,
            "duration": 0.08505903125001169,
            "ticks": 41233,
            "durationTicks": 23
          },
          {
            "time": 152.48865371875002,
            "midi": 42,
            "name": "F#2",
            "velocity": 1,
            "duration": 0.0961536874999922,
            "ticks": 41233,
            "durationTicks": 26
          },
          {
            "time": 152.66616821875002,
            "midi": 38,
            "name": "D2",
            "velocity": 1,
            "duration": 0.08505903125001169,
            "ticks": 41281,
            "durationTicks": 23
          },
          {
            "time": 152.66616821875002,
            "midi": 61,
            "name": "C#4",
            "velocity": 1,
            "duration": 0.08505903125001169,
            "ticks": 41281,
            "durationTicks": 23
          },
          {
            "time": 152.66616821875002,
            "midi": 42,
            "name": "F#2",
            "velocity": 1,
            "duration": 0.08505903125001169,
            "ticks": 41281,
            "durationTicks": 23
          },
          {
            "time": 152.84368271875002,
            "midi": 61,
            "name": "C#4",
            "velocity": 1,
            "duration": 0.08875725000001466,
            "ticks": 41329,
            "durationTicks": 24
          },
          {
            "time": 152.84738093750002,
            "midi": 42,
            "name": "F#2",
            "velocity": 1,
            "duration": 0.08505903125001169,
            "ticks": 41330,
            "durationTicks": 23
          },
          {
            "time": 153.02119721875002,
            "midi": 36,
            "name": "C2",
            "velocity": 1,
            "duration": 0.08505903125001169,
            "ticks": 41377,
            "durationTicks": 23
          },
          {
            "time": 153.02119721875002,
            "midi": 61,
            "name": "C#4",
            "velocity": 1,
            "duration": 0.08505903125001169,
            "ticks": 41377,
            "durationTicks": 23
          },
          {
            "time": 153.02119721875002,
            "midi": 40,
            "name": "E2",
            "velocity": 1,
            "duration": 0.3550290000000018,
            "ticks": 41377,
            "durationTicks": 96
          },
          {
            "time": 153.02489543750002,
            "midi": 51,
            "name": "D#3",
            "velocity": 1,
            "duration": 0.3735200937500167,
            "ticks": 41378,
            "durationTicks": 101
          },
          {
            "time": 153.02489543750002,
            "midi": 42,
            "name": "F#2",
            "velocity": 1,
            "duration": 0.0813608125000087,
            "ticks": 41378,
            "durationTicks": 22
          },
          {
            "time": 153.20240993750002,
            "midi": 36,
            "name": "C2",
            "velocity": 1,
            "duration": 0.08505903125001169,
            "ticks": 41426,
            "durationTicks": 23
          },
          {
            "time": 153.20240993750002,
            "midi": 61,
            "name": "C#4",
            "velocity": 1,
            "duration": 0.08505903125001169,
            "ticks": 41426,
            "durationTicks": 23
          },
          {
            "time": 153.20240993750002,
            "midi": 42,
            "name": "F#2",
            "velocity": 1,
            "duration": 0.0776625937499773,
            "ticks": 41426,
            "durationTicks": 21
          },
          {
            "time": 153.37992443750002,
            "midi": 38,
            "name": "D2",
            "velocity": 1,
            "duration": 0.08136081249998028,
            "ticks": 41474,
            "durationTicks": 22
          },
          {
            "time": 153.37992443750002,
            "midi": 61,
            "name": "C#4",
            "velocity": 1,
            "duration": 0.08136081249998028,
            "ticks": 41474,
            "durationTicks": 22
          },
          {
            "time": 153.37992443750002,
            "midi": 42,
            "name": "F#2",
            "velocity": 1,
            "duration": 0.08875724999998624,
            "ticks": 41474,
            "durationTicks": 24
          },
          {
            "time": 153.55743893750002,
            "midi": 61,
            "name": "C#4",
            "velocity": 1,
            "duration": 0.08505903125001169,
            "ticks": 41522,
            "durationTicks": 23
          },
          {
            "time": 153.55743893750002,
            "midi": 42,
            "name": "F#2",
            "velocity": 1,
            "duration": 0.08136081249998028,
            "ticks": 41522,
            "durationTicks": 22
          },
          {
            "time": 153.7349534375,
            "midi": 36,
            "name": "C2",
            "velocity": 1,
            "duration": 0.0850590312500401,
            "ticks": 41570,
            "durationTicks": 23
          },
          {
            "time": 153.7349534375,
            "midi": 61,
            "name": "C#4",
            "velocity": 1,
            "duration": 0.0850590312500401,
            "ticks": 41570,
            "durationTicks": 23
          },
          {
            "time": 153.7349534375,
            "midi": 42,
            "name": "F#2",
            "velocity": 1,
            "duration": 0.07026615625002819,
            "ticks": 41570,
            "durationTicks": 19
          },
          {
            "time": 153.9124679375,
            "midi": 61,
            "name": "C#4",
            "velocity": 1,
            "duration": 0.0850590312500401,
            "ticks": 41618,
            "durationTicks": 23
          },
          {
            "time": 153.9124679375,
            "midi": 42,
            "name": "F#2",
            "velocity": 1,
            "duration": 0.06286971875002223,
            "ticks": 41618,
            "durationTicks": 17
          },
          {
            "time": 154.0899824375,
            "midi": 38,
            "name": "D2",
            "velocity": 1,
            "duration": 0.08505903125001169,
            "ticks": 41666,
            "durationTicks": 23
          },
          {
            "time": 154.0899824375,
            "midi": 61,
            "name": "C#4",
            "velocity": 1,
            "duration": 0.08505903125001169,
            "ticks": 41666,
            "durationTicks": 23
          },
          {
            "time": 154.0899824375,
            "midi": 42,
            "name": "F#2",
            "velocity": 1,
            "duration": 0.07396437500003117,
            "ticks": 41666,
            "durationTicks": 20
          },
          {
            "time": 154.27119515625003,
            "midi": 61,
            "name": "C#4",
            "velocity": 1,
            "duration": 0.08505903124998326,
            "ticks": 41715,
            "durationTicks": 23
          },
          {
            "time": 154.27119515625003,
            "midi": 42,
            "name": "F#2",
            "velocity": 1,
            "duration": 0.04807684374998189,
            "ticks": 41715,
            "durationTicks": 13
          },
          {
            "time": 154.4450114375,
            "midi": 36,
            "name": "C2",
            "velocity": 1,
            "duration": 0.08505903125001169,
            "ticks": 41762,
            "durationTicks": 23
          },
          {
            "time": 154.4450114375,
            "midi": 61,
            "name": "C#4",
            "velocity": 1,
            "duration": 0.08505903125001169,
            "ticks": 41762,
            "durationTicks": 23
          },
          {
            "time": 154.44870965625,
            "midi": 51,
            "name": "D#3",
            "velocity": 1,
            "duration": 0.3217450312500034,
            "ticks": 41763,
            "durationTicks": 87
          },
          {
            "time": 154.44870965625,
            "midi": 40,
            "name": "E2",
            "velocity": 1,
            "duration": 0.3217450312500034,
            "ticks": 41763,
            "durationTicks": 87
          },
          {
            "time": 154.44870965625,
            "midi": 42,
            "name": "F#2",
            "velocity": 1,
            "duration": 0.07766259375000573,
            "ticks": 41763,
            "durationTicks": 21
          },
          {
            "time": 154.62622415625,
            "midi": 36,
            "name": "C2",
            "velocity": 1,
            "duration": 0.08505903125001169,
            "ticks": 41811,
            "durationTicks": 23
          },
          {
            "time": 154.62622415625,
            "midi": 61,
            "name": "C#4",
            "velocity": 1,
            "duration": 0.08505903125001169,
            "ticks": 41811,
            "durationTicks": 23
          },
          {
            "time": 154.62622415625,
            "midi": 42,
            "name": "F#2",
            "velocity": 1,
            "duration": 0.08505903125001169,
            "ticks": 41811,
            "durationTicks": 23
          },
          {
            "time": 154.8000404375,
            "midi": 38,
            "name": "D2",
            "velocity": 1,
            "duration": 0.08875725000001466,
            "ticks": 41858,
            "durationTicks": 24
          },
          {
            "time": 154.8000404375,
            "midi": 61,
            "name": "C#4",
            "velocity": 1,
            "duration": 0.08875725000001466,
            "ticks": 41858,
            "durationTicks": 24
          },
          {
            "time": 154.80373865625,
            "midi": 42,
            "name": "F#2",
            "velocity": 1,
            "duration": 0.08505903125001169,
            "ticks": 41859,
            "durationTicks": 23
          },
          {
            "time": 154.98125315625,
            "midi": 38,
            "name": "D2",
            "velocity": 1,
            "duration": 0.08505903125001169,
            "ticks": 41907,
            "durationTicks": 23
          },
          {
            "time": 154.98125315625,
            "midi": 61,
            "name": "C#4",
            "velocity": 1,
            "duration": 0.08875725000001466,
            "ticks": 41907,
            "durationTicks": 24
          },
          {
            "time": 154.98495137500004,
            "midi": 42,
            "name": "F#2",
            "velocity": 1,
            "duration": 0.08875724999998624,
            "ticks": 41908,
            "durationTicks": 24
          },
          {
            "time": 155.15876765625,
            "midi": 36,
            "name": "C2",
            "velocity": 1,
            "duration": 0.08505903125001169,
            "ticks": 41955,
            "durationTicks": 23
          },
          {
            "time": 155.15876765625,
            "midi": 61,
            "name": "C#4",
            "velocity": 1,
            "duration": 0.08505903125001169,
            "ticks": 41955,
            "durationTicks": 23
          },
          {
            "time": 155.15876765625,
            "midi": 42,
            "name": "F#2",
            "velocity": 1,
            "duration": 0.09245546875001764,
            "ticks": 41955,
            "durationTicks": 25
          },
          {
            "time": 155.339980375,
            "midi": 61,
            "name": "C#4",
            "velocity": 1,
            "duration": 0.08505903125001169,
            "ticks": 42004,
            "durationTicks": 23
          },
          {
            "time": 155.339980375,
            "midi": 42,
            "name": "F#2",
            "velocity": 1,
            "duration": 0.07396437500000275,
            "ticks": 42004,
            "durationTicks": 20
          },
          {
            "time": 155.51379665625,
            "midi": 38,
            "name": "D2",
            "velocity": 1,
            "duration": 0.08505903125001169,
            "ticks": 42051,
            "durationTicks": 23
          },
          {
            "time": 155.51379665625,
            "midi": 61,
            "name": "C#4",
            "velocity": 1,
            "duration": 0.08505903125001169,
            "ticks": 42051,
            "durationTicks": 23
          },
          {
            "time": 155.517494875,
            "midi": 42,
            "name": "F#2",
            "velocity": 1,
            "duration": 0.0813608125000087,
            "ticks": 42052,
            "durationTicks": 22
          },
          {
            "time": 155.695009375,
            "midi": 61,
            "name": "C#4",
            "velocity": 1,
            "duration": 0.08505903125001169,
            "ticks": 42100,
            "durationTicks": 23
          },
          {
            "time": 155.695009375,
            "midi": 42,
            "name": "F#2",
            "velocity": 1,
            "duration": 0.08505903125001169,
            "ticks": 42100,
            "durationTicks": 23
          },
          {
            "time": 155.86882565625,
            "midi": 36,
            "name": "C2",
            "velocity": 1,
            "duration": 0.08505903125001169,
            "ticks": 42147,
            "durationTicks": 23
          },
          {
            "time": 155.86882565625,
            "midi": 61,
            "name": "C#4",
            "velocity": 1,
            "duration": 0.08875725000001466,
            "ticks": 42147,
            "durationTicks": 24
          },
          {
            "time": 155.872523875,
            "midi": 40,
            "name": "E2",
            "velocity": 1,
            "duration": 0.3550290000000018,
            "ticks": 42148,
            "durationTicks": 96
          },
          {
            "time": 155.872523875,
            "midi": 51,
            "name": "D#3",
            "velocity": 1,
            "duration": 0.3735200937500167,
            "ticks": 42148,
            "durationTicks": 101
          },
          {
            "time": 155.872523875,
            "midi": 42,
            "name": "F#2",
            "velocity": 1,
            "duration": 0.0813608125000087,
            "ticks": 42148,
            "durationTicks": 22
          },
          {
            "time": 156.050038375,
            "midi": 36,
            "name": "C2",
            "velocity": 1,
            "duration": 0.08505903125001169,
            "ticks": 42196,
            "durationTicks": 23
          },
          {
            "time": 156.050038375,
            "midi": 61,
            "name": "C#4",
            "velocity": 1,
            "duration": 0.08505903125001169,
            "ticks": 42196,
            "durationTicks": 23
          },
          {
            "time": 156.05373659375002,
            "midi": 42,
            "name": "F#2",
            "velocity": 1,
            "duration": 0.08875724999998624,
            "ticks": 42197,
            "durationTicks": 24
          },
          {
            "time": 156.22755287500001,
            "midi": 38,
            "name": "D2",
            "velocity": 1,
            "duration": 0.08505903125001169,
            "ticks": 42244,
            "durationTicks": 23
          },
          {
            "time": 156.22755287500001,
            "midi": 61,
            "name": "C#4",
            "velocity": 1,
            "duration": 0.08505903125001169,
            "ticks": 42244,
            "durationTicks": 23
          },
          {
            "time": 156.22755287500001,
            "midi": 42,
            "name": "F#2",
            "velocity": 1,
            "duration": 0.09245546874998922,
            "ticks": 42244,
            "durationTicks": 25
          },
          {
            "time": 156.40506737500002,
            "midi": 61,
            "name": "C#4",
            "velocity": 1,
            "duration": 0.08875725000001466,
            "ticks": 42292,
            "durationTicks": 24
          },
          {
            "time": 156.40506737500002,
            "midi": 42,
            "name": "F#2",
            "velocity": 1,
            "duration": 0.09245546874998922,
            "ticks": 42292,
            "durationTicks": 25
          },
          {
            "time": 156.58258187500002,
            "midi": 36,
            "name": "C2",
            "velocity": 1,
            "duration": 0.08505903125001169,
            "ticks": 42340,
            "durationTicks": 23
          },
          {
            "time": 156.58258187500002,
            "midi": 61,
            "name": "C#4",
            "velocity": 1,
            "duration": 0.08505903125001169,
            "ticks": 42340,
            "durationTicks": 23
          },
          {
            "time": 156.58258187500002,
            "midi": 42,
            "name": "F#2",
            "velocity": 1,
            "duration": 0.10355012499999816,
            "ticks": 42340,
            "durationTicks": 28
          },
          {
            "time": 156.76379459375002,
            "midi": 61,
            "name": "C#4",
            "velocity": 1,
            "duration": 0.08505903125001169,
            "ticks": 42389,
            "durationTicks": 23
          },
          {
            "time": 156.76379459375002,
            "midi": 42,
            "name": "F#2",
            "velocity": 1,
            "duration": 0.0776625937499773,
            "ticks": 42389,
            "durationTicks": 21
          },
          {
            "time": 156.93761087500002,
            "midi": 38,
            "name": "D2",
            "velocity": 1,
            "duration": 0.08505903125001169,
            "ticks": 42436,
            "durationTicks": 23
          },
          {
            "time": 156.93761087500002,
            "midi": 61,
            "name": "C#4",
            "velocity": 1,
            "duration": 0.08505903125001169,
            "ticks": 42436,
            "durationTicks": 23
          },
          {
            "time": 156.94130909375002,
            "midi": 42,
            "name": "F#2",
            "velocity": 1,
            "duration": 0.0813608125000087,
            "ticks": 42437,
            "durationTicks": 22
          },
          {
            "time": 157.11882359375002,
            "midi": 61,
            "name": "C#4",
            "velocity": 1,
            "duration": 0.08505903125001169,
            "ticks": 42485,
            "durationTicks": 23
          },
          {
            "time": 157.11882359375002,
            "midi": 42,
            "name": "F#2",
            "velocity": 1,
            "duration": 0.08875724999998624,
            "ticks": 42485,
            "durationTicks": 24
          },
          {
            "time": 157.29263987500002,
            "midi": 36,
            "name": "C2",
            "velocity": 1,
            "duration": 0.08875725000001466,
            "ticks": 42532,
            "durationTicks": 24
          },
          {
            "time": 157.29633809375002,
            "midi": 61,
            "name": "C#4",
            "velocity": 1,
            "duration": 0.08505903125001169,
            "ticks": 42533,
            "durationTicks": 23
          },
          {
            "time": 157.29633809375002,
            "midi": 51,
            "name": "D#3",
            "velocity": 1,
            "duration": 0.3254432500000064,
            "ticks": 42533,
            "durationTicks": 88
          },
          {
            "time": 157.29633809375002,
            "midi": 40,
            "name": "E2",
            "velocity": 1,
            "duration": 0.3291414687500094,
            "ticks": 42533,
            "durationTicks": 89
          },
          {
            "time": 157.29633809375002,
            "midi": 42,
            "name": "F#2",
            "velocity": 1,
            "duration": 0.09245546874998922,
            "ticks": 42533,
            "durationTicks": 25
          },
          {
            "time": 157.47385259375002,
            "midi": 36,
            "name": "C2",
            "velocity": 1,
            "duration": 0.08505903125001169,
            "ticks": 42581,
            "durationTicks": 23
          },
          {
            "time": 157.47755081250003,
            "midi": 61,
            "name": "C#4",
            "velocity": 1,
            "duration": 0.0813608125000087,
            "ticks": 42582,
            "durationTicks": 22
          },
          {
            "time": 157.47755081250003,
            "midi": 42,
            "name": "F#2",
            "velocity": 1,
            "duration": 0.08875724999998624,
            "ticks": 42582,
            "durationTicks": 24
          },
          {
            "time": 157.65136709375,
            "midi": 38,
            "name": "D2",
            "velocity": 1,
            "duration": 0.0850590312500401,
            "ticks": 42629,
            "durationTicks": 23
          },
          {
            "time": 157.65136709375,
            "midi": 61,
            "name": "C#4",
            "velocity": 1,
            "duration": 0.0850590312500401,
            "ticks": 42629,
            "durationTicks": 23
          },
          {
            "time": 157.65136709375,
            "midi": 42,
            "name": "F#2",
            "velocity": 1,
            "duration": 0.09615368750002062,
            "ticks": 42629,
            "durationTicks": 26
          },
          {
            "time": 157.83257981250003,
            "midi": 61,
            "name": "C#4",
            "velocity": 1,
            "duration": 0.08505903124998326,
            "ticks": 42678,
            "durationTicks": 23
          },
          {
            "time": 157.83257981250003,
            "midi": 42,
            "name": "F#2",
            "velocity": 1,
            "duration": 0.08875724999998624,
            "ticks": 42678,
            "durationTicks": 24
          },
          {
            "time": 158.00639609375,
            "midi": 36,
            "name": "C2",
            "velocity": 1,
            "duration": 0.08505903125001169,
            "ticks": 42725,
            "durationTicks": 23
          },
          {
            "time": 158.00639609375,
            "midi": 61,
            "name": "C#4",
            "velocity": 1,
            "duration": 0.08505903125001169,
            "ticks": 42725,
            "durationTicks": 23
          },
          {
            "time": 158.01009431250003,
            "midi": 42,
            "name": "F#2",
            "velocity": 1,
            "duration": 0.09245546874998922,
            "ticks": 42726,
            "durationTicks": 25
          },
          {
            "time": 158.18760881250003,
            "midi": 61,
            "name": "C#4",
            "velocity": 1,
            "duration": 0.08505903124998326,
            "ticks": 42774,
            "durationTicks": 23
          },
          {
            "time": 158.18760881250003,
            "midi": 42,
            "name": "F#2",
            "velocity": 1,
            "duration": 0.0961536874999922,
            "ticks": 42774,
            "durationTicks": 26
          },
          {
            "time": 158.36142509375,
            "midi": 38,
            "name": "D2",
            "velocity": 1,
            "duration": 0.08505903125001169,
            "ticks": 42821,
            "durationTicks": 23
          },
          {
            "time": 158.36142509375,
            "midi": 61,
            "name": "C#4",
            "velocity": 1,
            "duration": 0.08875725000001466,
            "ticks": 42821,
            "durationTicks": 24
          },
          {
            "time": 158.3651233125,
            "midi": 42,
            "name": "F#2",
            "velocity": 1,
            "duration": 0.0813608125000087,
            "ticks": 42822,
            "durationTicks": 22
          },
          {
            "time": 158.5426378125,
            "midi": 61,
            "name": "C#4",
            "velocity": 1,
            "duration": 0.08505903125001169,
            "ticks": 42870,
            "durationTicks": 23
          },
          {
            "time": 158.5426378125,
            "midi": 42,
            "name": "F#2",
            "velocity": 1,
            "duration": 0.08505903125001169,
            "ticks": 42870,
            "durationTicks": 23
          },
          {
            "time": 158.7201523125,
            "midi": 36,
            "name": "C2",
            "velocity": 1,
            "duration": 0.08505903125001169,
            "ticks": 42918,
            "durationTicks": 23
          },
          {
            "time": 158.7201523125,
            "midi": 61,
            "name": "C#4",
            "velocity": 1,
            "duration": 0.08505903125001169,
            "ticks": 42918,
            "durationTicks": 23
          },
          {
            "time": 158.7201523125,
            "midi": 40,
            "name": "E2",
            "velocity": 1,
            "duration": 0.3550290000000018,
            "ticks": 42918,
            "durationTicks": 96
          },
          {
            "time": 158.7201523125,
            "midi": 51,
            "name": "D#3",
            "velocity": 1,
            "duration": 0.3735200937500167,
            "ticks": 42918,
            "durationTicks": 101
          },
          {
            "time": 158.72385053125004,
            "midi": 42,
            "name": "F#2",
            "velocity": 1,
            "duration": 0.08136081249998028,
            "ticks": 42919,
            "durationTicks": 22
          },
          {
            "time": 158.90136503125004,
            "midi": 36,
            "name": "C2",
            "velocity": 1,
            "duration": 0.08505903124998326,
            "ticks": 42967,
            "durationTicks": 23
          },
          {
            "time": 158.90136503125004,
            "midi": 61,
            "name": "C#4",
            "velocity": 1,
            "duration": 0.08505903124998326,
            "ticks": 42967,
            "durationTicks": 23
          },
          {
            "time": 158.90136503125004,
            "midi": 42,
            "name": "F#2",
            "velocity": 1,
            "duration": 0.0776625937499773,
            "ticks": 42967,
            "durationTicks": 21
          },
          {
            "time": 159.0751813125,
            "midi": 38,
            "name": "D2",
            "velocity": 1,
            "duration": 0.08505903125001169,
            "ticks": 43014,
            "durationTicks": 23
          },
          {
            "time": 159.0751813125,
            "midi": 61,
            "name": "C#4",
            "velocity": 1,
            "duration": 0.08505903125001169,
            "ticks": 43014,
            "durationTicks": 23
          },
          {
            "time": 159.07887953125004,
            "midi": 42,
            "name": "F#2",
            "velocity": 1,
            "duration": 0.08505903124998326,
            "ticks": 43015,
            "durationTicks": 23
          },
          {
            "time": 159.25639403125,
            "midi": 61,
            "name": "C#4",
            "velocity": 1,
            "duration": 0.08505903125001169,
            "ticks": 43063,
            "durationTicks": 23
          },
          {
            "time": 159.25639403125,
            "midi": 42,
            "name": "F#2",
            "velocity": 1,
            "duration": 0.0813608125000087,
            "ticks": 43063,
            "durationTicks": 22
          },
          {
            "time": 159.4302103125,
            "midi": 36,
            "name": "C2",
            "velocity": 1,
            "duration": 0.08505903125001169,
            "ticks": 43110,
            "durationTicks": 23
          },
          {
            "time": 159.4302103125,
            "midi": 61,
            "name": "C#4",
            "velocity": 1,
            "duration": 0.08505903125001169,
            "ticks": 43110,
            "durationTicks": 23
          },
          {
            "time": 159.43390853125,
            "midi": 42,
            "name": "F#2",
            "velocity": 1,
            "duration": 0.06656793750002521,
            "ticks": 43111,
            "durationTicks": 18
          },
          {
            "time": 159.61142303125,
            "midi": 61,
            "name": "C#4",
            "velocity": 1,
            "duration": 0.08505903125001169,
            "ticks": 43159,
            "durationTicks": 23
          },
          {
            "time": 159.61142303125,
            "midi": 42,
            "name": "F#2",
            "velocity": 1,
            "duration": 0.06656793750002521,
            "ticks": 43159,
            "durationTicks": 18
          },
          {
            "time": 159.78893753125,
            "midi": 38,
            "name": "D2",
            "velocity": 1,
            "duration": 0.08505903125001169,
            "ticks": 43207,
            "durationTicks": 23
          },
          {
            "time": 159.78893753125,
            "midi": 61,
            "name": "C#4",
            "velocity": 1,
            "duration": 0.08505903125001169,
            "ticks": 43207,
            "durationTicks": 23
          },
          {
            "time": 159.78893753125,
            "midi": 42,
            "name": "F#2",
            "velocity": 1,
            "duration": 0.07396437500000275,
            "ticks": 43207,
            "durationTicks": 20
          },
          {
            "time": 159.96645203125001,
            "midi": 61,
            "name": "C#4",
            "velocity": 1,
            "duration": 0.08505903125001169,
            "ticks": 43255,
            "durationTicks": 23
          },
          {
            "time": 159.96645203125001,
            "midi": 42,
            "name": "F#2",
            "velocity": 1,
            "duration": 0.05177506250001329,
            "ticks": 43255,
            "durationTicks": 14
          },
          {
            "time": 160.14396653125002,
            "midi": 36,
            "name": "C2",
            "velocity": 1,
            "duration": 0.08505903125001169,
            "ticks": 43303,
            "durationTicks": 23
          },
          {
            "time": 160.14396653125002,
            "midi": 61,
            "name": "C#4",
            "velocity": 1,
            "duration": 0.08505903125001169,
            "ticks": 43303,
            "durationTicks": 23
          },
          {
            "time": 160.14396653125002,
            "midi": 51,
            "name": "D#3",
            "velocity": 1,
            "duration": 0.3254432500000064,
            "ticks": 43303,
            "durationTicks": 88
          },
          {
            "time": 160.14766475000002,
            "midi": 40,
            "name": "E2",
            "velocity": 1,
            "duration": 0.3291414687500094,
            "ticks": 43304,
            "durationTicks": 89
          },
          {
            "time": 160.14766475000002,
            "midi": 42,
            "name": "F#2",
            "velocity": 1,
            "duration": 0.07766259375000573,
            "ticks": 43304,
            "durationTicks": 21
          },
          {
            "time": 160.32517925000002,
            "midi": 36,
            "name": "C2",
            "velocity": 1,
            "duration": 0.08505903125001169,
            "ticks": 43352,
            "durationTicks": 23
          },
          {
            "time": 160.32517925000002,
            "midi": 61,
            "name": "C#4",
            "velocity": 1,
            "duration": 0.08505903125001169,
            "ticks": 43352,
            "durationTicks": 23
          },
          {
            "time": 160.32517925000002,
            "midi": 42,
            "name": "F#2",
            "velocity": 1,
            "duration": 0.08505903125001169,
            "ticks": 43352,
            "durationTicks": 23
          },
          {
            "time": 160.49899553125002,
            "midi": 38,
            "name": "D2",
            "velocity": 1,
            "duration": 0.08505903125001169,
            "ticks": 43399,
            "durationTicks": 23
          },
          {
            "time": 160.49899553125002,
            "midi": 61,
            "name": "C#4",
            "velocity": 1,
            "duration": 0.08875725000001466,
            "ticks": 43399,
            "durationTicks": 24
          },
          {
            "time": 160.50269375000002,
            "midi": 42,
            "name": "F#2",
            "velocity": 1,
            "duration": 0.0813608125000087,
            "ticks": 43400,
            "durationTicks": 22
          },
          {
            "time": 160.68020825000002,
            "midi": 61,
            "name": "C#4",
            "velocity": 1,
            "duration": 0.08505903125001169,
            "ticks": 43448,
            "durationTicks": 23
          },
          {
            "time": 160.68020825000002,
            "midi": 42,
            "name": "F#2",
            "velocity": 1,
            "duration": 0.08875724999998624,
            "ticks": 43448,
            "durationTicks": 24
          },
          {
            "time": 160.85402453125002,
            "midi": 36,
            "name": "C2",
            "velocity": 1,
            "duration": 0.08875725000001466,
            "ticks": 43495,
            "durationTicks": 24
          },
          {
            "time": 160.85402453125002,
            "midi": 61,
            "name": "C#4",
            "velocity": 1,
            "duration": 0.08875725000001466,
            "ticks": 43495,
            "durationTicks": 24
          },
          {
            "time": 160.85772275000002,
            "midi": 42,
            "name": "F#2",
            "velocity": 1,
            "duration": 0.0961536874999922,
            "ticks": 43496,
            "durationTicks": 26
          },
          {
            "time": 161.03523725000002,
            "midi": 61,
            "name": "C#4",
            "velocity": 1,
            "duration": 0.08505903125001169,
            "ticks": 43544,
            "durationTicks": 23
          },
          {
            "time": 161.03893546875003,
            "midi": 42,
            "name": "F#2",
            "velocity": 1,
            "duration": 0.0813608125000087,
            "ticks": 43545,
            "durationTicks": 22
          },
          {
            "time": 161.21275175000002,
            "midi": 38,
            "name": "D2",
            "velocity": 1,
            "duration": 0.08505903125001169,
            "ticks": 43592,
            "durationTicks": 23
          },
          {
            "time": 161.21275175000002,
            "midi": 61,
            "name": "C#4",
            "velocity": 1,
            "duration": 0.08505903125001169,
            "ticks": 43592,
            "durationTicks": 23
          },
          {
            "time": 161.21275175000002,
            "midi": 42,
            "name": "F#2",
            "velocity": 1,
            "duration": 0.08505903125001169,
            "ticks": 43592,
            "durationTicks": 23
          },
          {
            "time": 161.39396446875003,
            "midi": 61,
            "name": "C#4",
            "velocity": 1,
            "duration": 0.08505903124998326,
            "ticks": 43641,
            "durationTicks": 23
          },
          {
            "time": 161.39396446875003,
            "midi": 42,
            "name": "F#2",
            "velocity": 1,
            "duration": 0.07396437499997432,
            "ticks": 43641,
            "durationTicks": 20
          },
          {
            "time": 161.56778075,
            "midi": 36,
            "name": "C2",
            "velocity": 1,
            "duration": 0.0850590312500401,
            "ticks": 43688,
            "durationTicks": 23
          },
          {
            "time": 161.56778075,
            "midi": 61,
            "name": "C#4",
            "velocity": 1,
            "duration": 0.0850590312500401,
            "ticks": 43688,
            "durationTicks": 23
          },
          {
            "time": 161.56778075,
            "midi": 40,
            "name": "E2",
            "velocity": 1,
            "duration": 0.3550290000000018,
            "ticks": 43688,
            "durationTicks": 96
          },
          {
            "time": 161.57147896875003,
            "midi": 51,
            "name": "D#3",
            "velocity": 1,
            "duration": 0.3735200937499883,
            "ticks": 43689,
            "durationTicks": 101
          },
          {
            "time": 161.57147896875003,
            "midi": 42,
            "name": "F#2",
            "velocity": 1,
            "duration": 0.06656793749999679,
            "ticks": 43689,
            "durationTicks": 18
          },
          {
            "time": 161.74899346875003,
            "midi": 36,
            "name": "C2",
            "velocity": 1,
            "duration": 0.08505903124998326,
            "ticks": 43737,
            "durationTicks": 23
          },
          {
            "time": 161.74899346875003,
            "midi": 61,
            "name": "C#4",
            "velocity": 1,
            "duration": 0.08505903124998326,
            "ticks": 43737,
            "durationTicks": 23
          },
          {
            "time": 161.74899346875003,
            "midi": 42,
            "name": "F#2",
            "velocity": 1,
            "duration": 0.0813608125000087,
            "ticks": 43737,
            "durationTicks": 22
          },
          {
            "time": 161.92650796875003,
            "midi": 38,
            "name": "D2",
            "velocity": 1,
            "duration": 0.08136081249998028,
            "ticks": 43785,
            "durationTicks": 22
          },
          {
            "time": 161.92650796875003,
            "midi": 61,
            "name": "C#4",
            "velocity": 1,
            "duration": 0.08136081249998028,
            "ticks": 43785,
            "durationTicks": 22
          },
          {
            "time": 161.92650796875003,
            "midi": 42,
            "name": "F#2",
            "velocity": 1,
            "duration": 0.09245546874998922,
            "ticks": 43785,
            "durationTicks": 25
          },
          {
            "time": 162.10402246875003,
            "midi": 61,
            "name": "C#4",
            "velocity": 1,
            "duration": 0.08505903124998326,
            "ticks": 43833,
            "durationTicks": 23
          },
          {
            "time": 162.10402246875003,
            "midi": 42,
            "name": "F#2",
            "velocity": 1,
            "duration": 0.08505903124998326,
            "ticks": 43833,
            "durationTicks": 23
          },
          {
            "time": 162.28153696875,
            "midi": 36,
            "name": "C2",
            "velocity": 1,
            "duration": 0.08505903125001169,
            "ticks": 43881,
            "durationTicks": 23
          },
          {
            "time": 162.28153696875,
            "midi": 61,
            "name": "C#4",
            "velocity": 1,
            "duration": 0.08505903125001169,
            "ticks": 43881,
            "durationTicks": 23
          },
          {
            "time": 162.28153696875,
            "midi": 42,
            "name": "F#2",
            "velocity": 1,
            "duration": 0.08505903125001169,
            "ticks": 43881,
            "durationTicks": 23
          },
          {
            "time": 162.46274968750004,
            "midi": 61,
            "name": "C#4",
            "velocity": 1,
            "duration": 0.08136081249998028,
            "ticks": 43930,
            "durationTicks": 22
          },
          {
            "time": 162.46274968750004,
            "midi": 42,
            "name": "F#2",
            "velocity": 1,
            "duration": 0.06656793749999679,
            "ticks": 43930,
            "durationTicks": 18
          },
          {
            "time": 162.63656596875,
            "midi": 38,
            "name": "D2",
            "velocity": 1,
            "duration": 0.08505903125001169,
            "ticks": 43977,
            "durationTicks": 23
          },
          {
            "time": 162.63656596875,
            "midi": 61,
            "name": "C#4",
            "velocity": 1,
            "duration": 0.08505903125001169,
            "ticks": 43977,
            "durationTicks": 23
          },
          {
            "time": 162.63656596875,
            "midi": 42,
            "name": "F#2",
            "velocity": 1,
            "duration": 0.07396437500000275,
            "ticks": 43977,
            "durationTicks": 20
          },
          {
            "time": 162.81777868750004,
            "midi": 61,
            "name": "C#4",
            "velocity": 1,
            "duration": 0.08505903124998326,
            "ticks": 44026,
            "durationTicks": 23
          },
          {
            "time": 162.81777868750004,
            "midi": 42,
            "name": "F#2",
            "velocity": 1,
            "duration": 0.07026615624997135,
            "ticks": 44026,
            "durationTicks": 19
          },
          {
            "time": 162.99159496875,
            "midi": 36,
            "name": "C2",
            "velocity": 1,
            "duration": 0.08505903125001169,
            "ticks": 44073,
            "durationTicks": 23
          },
          {
            "time": 162.99159496875,
            "midi": 61,
            "name": "C#4",
            "velocity": 1,
            "duration": 0.08505903125001169,
            "ticks": 44073,
            "durationTicks": 23
          },
          {
            "time": 162.99529318750004,
            "midi": 51,
            "name": "D#3",
            "velocity": 1,
            "duration": 0.321745031249975,
            "ticks": 44074,
            "durationTicks": 87
          },
          {
            "time": 162.99529318750004,
            "midi": 40,
            "name": "E2",
            "velocity": 1,
            "duration": 0.32914146874998096,
            "ticks": 44074,
            "durationTicks": 89
          },
          {
            "time": 162.99529318750004,
            "midi": 42,
            "name": "F#2",
            "velocity": 1,
            "duration": 0.07396437499997432,
            "ticks": 44074,
            "durationTicks": 20
          },
          {
            "time": 163.1728076875,
            "midi": 36,
            "name": "C2",
            "velocity": 1,
            "duration": 0.08505903125001169,
            "ticks": 44122,
            "durationTicks": 23
          },
          {
            "time": 163.1728076875,
            "midi": 61,
            "name": "C#4",
            "velocity": 1,
            "duration": 0.08505903125001169,
            "ticks": 44122,
            "durationTicks": 23
          },
          {
            "time": 163.17650590625001,
            "midi": 42,
            "name": "F#2",
            "velocity": 1,
            "duration": 0.07026615624999977,
            "ticks": 44123,
            "durationTicks": 19
          },
          {
            "time": 163.3503221875,
            "midi": 38,
            "name": "D2",
            "velocity": 1,
            "duration": 0.08505903125001169,
            "ticks": 44170,
            "durationTicks": 23
          },
          {
            "time": 163.3503221875,
            "midi": 61,
            "name": "C#4",
            "velocity": 1,
            "duration": 0.08505903125001169,
            "ticks": 44170,
            "durationTicks": 23
          },
          {
            "time": 163.3503221875,
            "midi": 42,
            "name": "F#2",
            "velocity": 1,
            "duration": 0.09245546874998922,
            "ticks": 44170,
            "durationTicks": 25
          },
          {
            "time": 163.5278366875,
            "midi": 61,
            "name": "C#4",
            "velocity": 1,
            "duration": 0.08505903125001169,
            "ticks": 44218,
            "durationTicks": 23
          },
          {
            "time": 163.53153490625002,
            "midi": 42,
            "name": "F#2",
            "velocity": 1,
            "duration": 0.09615368750002062,
            "ticks": 44219,
            "durationTicks": 26
          },
          {
            "time": 163.7053511875,
            "midi": 36,
            "name": "C2",
            "velocity": 1,
            "duration": 0.08505903125001169,
            "ticks": 44266,
            "durationTicks": 23
          },
          {
            "time": 163.7053511875,
            "midi": 61,
            "name": "C#4",
            "velocity": 1,
            "duration": 0.08505903125001169,
            "ticks": 44266,
            "durationTicks": 23
          },
          {
            "time": 163.7053511875,
            "midi": 42,
            "name": "F#2",
            "velocity": 1,
            "duration": 0.1294376562499906,
            "ticks": 44266,
            "durationTicks": 35
          },
          {
            "time": 163.88656390625002,
            "midi": 61,
            "name": "C#4",
            "velocity": 1,
            "duration": 0.08505903125001169,
            "ticks": 44315,
            "durationTicks": 23
          },
          {
            "time": 163.88656390625002,
            "midi": 42,
            "name": "F#2",
            "velocity": 1,
            "duration": 0.08875724999998624,
            "ticks": 44315,
            "durationTicks": 24
          },
          {
            "time": 164.06038018750002,
            "midi": 38,
            "name": "D2",
            "velocity": 1,
            "duration": 0.08505903125001169,
            "ticks": 44362,
            "durationTicks": 23
          },
          {
            "time": 164.06038018750002,
            "midi": 61,
            "name": "C#4",
            "velocity": 1,
            "duration": 0.08505903125001169,
            "ticks": 44362,
            "durationTicks": 23
          },
          {
            "time": 164.06407840625002,
            "midi": 42,
            "name": "F#2",
            "velocity": 1,
            "duration": 0.07026615624999977,
            "ticks": 44363,
            "durationTicks": 19
          },
          {
            "time": 164.24159290625002,
            "midi": 61,
            "name": "C#4",
            "velocity": 1,
            "duration": 0.08505903125001169,
            "ticks": 44411,
            "durationTicks": 23
          },
          {
            "time": 164.24159290625002,
            "midi": 42,
            "name": "F#2",
            "velocity": 1,
            "duration": 0.07396437500000275,
            "ticks": 44411,
            "durationTicks": 20
          },
          {
            "time": 164.41540918750002,
            "midi": 36,
            "name": "C2",
            "velocity": 1,
            "duration": 0.08505903125001169,
            "ticks": 44458,
            "durationTicks": 23
          },
          {
            "time": 164.41540918750002,
            "midi": 61,
            "name": "C#4",
            "velocity": 1,
            "duration": 0.08505903125001169,
            "ticks": 44458,
            "durationTicks": 23
          },
          {
            "time": 164.41910740625002,
            "midi": 40,
            "name": "E2",
            "velocity": 1,
            "duration": 0.3550290000000018,
            "ticks": 44459,
            "durationTicks": 96
          },
          {
            "time": 164.41910740625002,
            "midi": 51,
            "name": "D#3",
            "velocity": 1,
            "duration": 0.3735200937500167,
            "ticks": 44459,
            "durationTicks": 101
          },
          {
            "time": 164.41910740625002,
            "midi": 42,
            "name": "F#2",
            "velocity": 1,
            "duration": 0.0776625937499773,
            "ticks": 44459,
            "durationTicks": 21
          },
          {
            "time": 164.59662190625002,
            "midi": 36,
            "name": "C2",
            "velocity": 1,
            "duration": 0.08505903125001169,
            "ticks": 44507,
            "durationTicks": 23
          },
          {
            "time": 164.59662190625002,
            "midi": 61,
            "name": "C#4",
            "velocity": 1,
            "duration": 0.08505903125001169,
            "ticks": 44507,
            "durationTicks": 23
          },
          {
            "time": 164.60032012500002,
            "midi": 42,
            "name": "F#2",
            "velocity": 1,
            "duration": 0.07396437499997432,
            "ticks": 44508,
            "durationTicks": 20
          },
          {
            "time": 164.77413640625002,
            "midi": 38,
            "name": "D2",
            "velocity": 1,
            "duration": 0.08505903125001169,
            "ticks": 44555,
            "durationTicks": 23
          },
          {
            "time": 164.77413640625002,
            "midi": 61,
            "name": "C#4",
            "velocity": 1,
            "duration": 0.08505903125001169,
            "ticks": 44555,
            "durationTicks": 23
          },
          {
            "time": 164.77413640625002,
            "midi": 42,
            "name": "F#2",
            "velocity": 1,
            "duration": 0.08505903125001169,
            "ticks": 44555,
            "durationTicks": 23
          },
          {
            "time": 164.95534912500003,
            "midi": 61,
            "name": "C#4",
            "velocity": 1,
            "duration": 0.08505903124998326,
            "ticks": 44604,
            "durationTicks": 23
          },
          {
            "time": 164.95534912500003,
            "midi": 42,
            "name": "F#2",
            "velocity": 1,
            "duration": 0.08505903124998326,
            "ticks": 44604,
            "durationTicks": 23
          },
          {
            "time": 165.12916540625002,
            "midi": 36,
            "name": "C2",
            "velocity": 1,
            "duration": 0.08505903125001169,
            "ticks": 44651,
            "durationTicks": 23
          },
          {
            "time": 165.12916540625002,
            "midi": 61,
            "name": "C#4",
            "velocity": 1,
            "duration": 0.08505903125001169,
            "ticks": 44651,
            "durationTicks": 23
          },
          {
            "time": 165.12916540625002,
            "midi": 42,
            "name": "F#2",
            "velocity": 1,
            "duration": 0.1146447812500071,
            "ticks": 44651,
            "durationTicks": 31
          },
          {
            "time": 165.31037812500003,
            "midi": 61,
            "name": "C#4",
            "velocity": 1,
            "duration": 0.08505903124998326,
            "ticks": 44700,
            "durationTicks": 23
          },
          {
            "time": 165.31037812500003,
            "midi": 42,
            "name": "F#2",
            "velocity": 1,
            "duration": 0.08505903124998326,
            "ticks": 44700,
            "durationTicks": 23
          },
          {
            "time": 165.48419440625,
            "midi": 38,
            "name": "D2",
            "velocity": 1,
            "duration": 0.0850590312500401,
            "ticks": 44747,
            "durationTicks": 23
          },
          {
            "time": 165.48419440625,
            "midi": 61,
            "name": "C#4",
            "velocity": 1,
            "duration": 0.0850590312500401,
            "ticks": 44747,
            "durationTicks": 23
          },
          {
            "time": 165.48789262500003,
            "midi": 42,
            "name": "F#2",
            "velocity": 1,
            "duration": 0.0776625937499773,
            "ticks": 44748,
            "durationTicks": 21
          },
          {
            "time": 165.66540712500003,
            "midi": 61,
            "name": "C#4",
            "velocity": 1,
            "duration": 0.08505903124998326,
            "ticks": 44796,
            "durationTicks": 23
          },
          {
            "time": 165.66540712500003,
            "midi": 42,
            "name": "F#2",
            "velocity": 1,
            "duration": 0.08505903124998326,
            "ticks": 44796,
            "durationTicks": 23
          },
          {
            "time": 165.84292162500003,
            "midi": 36,
            "name": "C2",
            "velocity": 1,
            "duration": 0.08505903124998326,
            "ticks": 44844,
            "durationTicks": 23
          },
          {
            "time": 165.84292162500003,
            "midi": 61,
            "name": "C#4",
            "velocity": 1,
            "duration": 0.08505903124998326,
            "ticks": 44844,
            "durationTicks": 23
          },
          {
            "time": 165.84292162500003,
            "midi": 51,
            "name": "D#3",
            "velocity": 1,
            "duration": 0.3254432500000064,
            "ticks": 44844,
            "durationTicks": 88
          },
          {
            "time": 165.84292162500003,
            "midi": 40,
            "name": "E2",
            "velocity": 1,
            "duration": 0.32914146874998096,
            "ticks": 44844,
            "durationTicks": 89
          },
          {
            "time": 165.84292162500003,
            "midi": 42,
            "name": "F#2",
            "velocity": 1,
            "duration": 0.08505903124998326,
            "ticks": 44844,
            "durationTicks": 23
          },
          {
            "time": 166.02043612500003,
            "midi": 36,
            "name": "C2",
            "velocity": 1,
            "duration": 0.08505903124998326,
            "ticks": 44892,
            "durationTicks": 23
          },
          {
            "time": 166.02043612500003,
            "midi": 61,
            "name": "C#4",
            "velocity": 1,
            "duration": 0.08505903124998326,
            "ticks": 44892,
            "durationTicks": 23
          },
          {
            "time": 166.02413434375003,
            "midi": 42,
            "name": "F#2",
            "velocity": 1,
            "duration": 0.08875724999998624,
            "ticks": 44893,
            "durationTicks": 24
          },
          {
            "time": 166.197950625,
            "midi": 38,
            "name": "D2",
            "velocity": 1,
            "duration": 0.08505903125001169,
            "ticks": 44940,
            "durationTicks": 23
          },
          {
            "time": 166.197950625,
            "midi": 61,
            "name": "C#4",
            "velocity": 1,
            "duration": 0.08505903125001169,
            "ticks": 44940,
            "durationTicks": 23
          },
          {
            "time": 166.197950625,
            "midi": 42,
            "name": "F#2",
            "velocity": 1,
            "duration": 0.0813608125000087,
            "ticks": 44940,
            "durationTicks": 22
          },
          {
            "time": 166.37916334375004,
            "midi": 61,
            "name": "C#4",
            "velocity": 1,
            "duration": 0.08505903124998326,
            "ticks": 44989,
            "durationTicks": 23
          },
          {
            "time": 166.37916334375004,
            "midi": 42,
            "name": "F#2",
            "velocity": 1,
            "duration": 0.0776625937499773,
            "ticks": 44989,
            "durationTicks": 21
          },
          {
            "time": 166.552979625,
            "midi": 36,
            "name": "C2",
            "velocity": 1,
            "duration": 0.08505903125001169,
            "ticks": 45036,
            "durationTicks": 23
          },
          {
            "time": 166.552979625,
            "midi": 61,
            "name": "C#4",
            "velocity": 1,
            "duration": 0.08505903125001169,
            "ticks": 45036,
            "durationTicks": 23
          },
          {
            "time": 166.55667784375004,
            "midi": 42,
            "name": "F#2",
            "velocity": 1,
            "duration": 0.0924554687499608,
            "ticks": 45037,
            "durationTicks": 25
          },
          {
            "time": 166.55667784375004,
            "midi": 49,
            "name": "C#3",
            "velocity": 1,
            "duration": 1.249997937499984,
            "ticks": 45037,
            "durationTicks": 338
          },
          {
            "time": 166.73419234375004,
            "midi": 61,
            "name": "C#4",
            "velocity": 1,
            "duration": 0.08505903124998326,
            "ticks": 45085,
            "durationTicks": 23
          },
          {
            "time": 166.73419234375004,
            "midi": 42,
            "name": "F#2",
            "velocity": 1,
            "duration": 0.07396437499997432,
            "ticks": 45085,
            "durationTicks": 20
          },
          {
            "time": 166.908008625,
            "midi": 38,
            "name": "D2",
            "velocity": 1,
            "duration": 0.08875725000001466,
            "ticks": 45132,
            "durationTicks": 24
          },
          {
            "time": 166.91170684375,
            "midi": 61,
            "name": "C#4",
            "velocity": 1,
            "duration": 0.08505903125001169,
            "ticks": 45133,
            "durationTicks": 23
          },
          {
            "time": 166.91170684375,
            "midi": 42,
            "name": "F#2",
            "velocity": 1,
            "duration": 0.08505903125001169,
            "ticks": 45133,
            "durationTicks": 23
          },
          {
            "time": 167.08922134375,
            "midi": 61,
            "name": "C#4",
            "velocity": 1,
            "duration": 0.08505903125001169,
            "ticks": 45181,
            "durationTicks": 23
          },
          {
            "time": 167.08922134375,
            "midi": 42,
            "name": "F#2",
            "velocity": 1,
            "duration": 0.08505903125001169,
            "ticks": 45181,
            "durationTicks": 23
          },
          {
            "time": 167.26673584375,
            "midi": 36,
            "name": "C2",
            "velocity": 1,
            "duration": 0.08505903125001169,
            "ticks": 45229,
            "durationTicks": 23
          },
          {
            "time": 167.26673584375,
            "midi": 61,
            "name": "C#4",
            "velocity": 1,
            "duration": 0.08505903125001169,
            "ticks": 45229,
            "durationTicks": 23
          },
          {
            "time": 167.26673584375,
            "midi": 40,
            "name": "E2",
            "velocity": 1,
            "duration": 0.3550290000000018,
            "ticks": 45229,
            "durationTicks": 96
          },
          {
            "time": 167.27043406250002,
            "midi": 51,
            "name": "D#3",
            "velocity": 1,
            "duration": 0.3735200937500167,
            "ticks": 45230,
            "durationTicks": 101
          },
          {
            "time": 167.27043406250002,
            "midi": 42,
            "name": "F#2",
            "velocity": 1,
            "duration": 0.0813608125000087,
            "ticks": 45230,
            "durationTicks": 22
          },
          {
            "time": 167.44794856250002,
            "midi": 36,
            "name": "C2",
            "velocity": 1,
            "duration": 0.08505903125001169,
            "ticks": 45278,
            "durationTicks": 23
          },
          {
            "time": 167.44794856250002,
            "midi": 61,
            "name": "C#4",
            "velocity": 1,
            "duration": 0.08505903125001169,
            "ticks": 45278,
            "durationTicks": 23
          },
          {
            "time": 167.44794856250002,
            "midi": 42,
            "name": "F#2",
            "velocity": 1,
            "duration": 0.08875724999998624,
            "ticks": 45278,
            "durationTicks": 24
          },
          {
            "time": 167.62176484375001,
            "midi": 38,
            "name": "D2",
            "velocity": 1,
            "duration": 0.08505903125001169,
            "ticks": 45325,
            "durationTicks": 23
          },
          {
            "time": 167.62546306250002,
            "midi": 61,
            "name": "C#4",
            "velocity": 1,
            "duration": 0.0813608125000087,
            "ticks": 45326,
            "durationTicks": 22
          },
          {
            "time": 167.62546306250002,
            "midi": 42,
            "name": "F#2",
            "velocity": 1,
            "duration": 0.09245546874998922,
            "ticks": 45326,
            "durationTicks": 25
          },
          {
            "time": 167.80297756250002,
            "midi": 61,
            "name": "C#4",
            "velocity": 1,
            "duration": 0.08505903125001169,
            "ticks": 45374,
            "durationTicks": 23
          },
          {
            "time": 167.80297756250002,
            "midi": 42,
            "name": "F#2",
            "velocity": 1,
            "duration": 0.08875724999998624,
            "ticks": 45374,
            "durationTicks": 24
          },
          {
            "time": 167.97679384375002,
            "midi": 36,
            "name": "C2",
            "velocity": 1,
            "duration": 0.08505903125001169,
            "ticks": 45421,
            "durationTicks": 23
          },
          {
            "time": 167.98049206250002,
            "midi": 61,
            "name": "C#4",
            "velocity": 1,
            "duration": 0.0813608125000087,
            "ticks": 45422,
            "durationTicks": 22
          },
          {
            "time": 167.98049206250002,
            "midi": 42,
            "name": "F#2",
            "velocity": 1,
            "duration": 0.10355012499999816,
            "ticks": 45422,
            "durationTicks": 28
          },
          {
            "time": 168.15800656250002,
            "midi": 61,
            "name": "C#4",
            "velocity": 1,
            "duration": 0.08505903125001169,
            "ticks": 45470,
            "durationTicks": 23
          },
          {
            "time": 168.15800656250002,
            "midi": 42,
            "name": "F#2",
            "velocity": 1,
            "duration": 0.0813608125000087,
            "ticks": 45470,
            "durationTicks": 22
          },
          {
            "time": 168.33552106250002,
            "midi": 38,
            "name": "D2",
            "velocity": 1,
            "duration": 0.08505903125001169,
            "ticks": 45518,
            "durationTicks": 23
          },
          {
            "time": 168.33552106250002,
            "midi": 61,
            "name": "C#4",
            "velocity": 1,
            "duration": 0.08505903125001169,
            "ticks": 45518,
            "durationTicks": 23
          },
          {
            "time": 168.33552106250002,
            "midi": 42,
            "name": "F#2",
            "velocity": 1,
            "duration": 0.08505903125001169,
            "ticks": 45518,
            "durationTicks": 23
          },
          {
            "time": 168.51673378125003,
            "midi": 61,
            "name": "C#4",
            "velocity": 1,
            "duration": 0.08505903124998326,
            "ticks": 45567,
            "durationTicks": 23
          },
          {
            "time": 168.51673378125003,
            "midi": 42,
            "name": "F#2",
            "velocity": 1,
            "duration": 0.08875724999998624,
            "ticks": 45567,
            "durationTicks": 24
          },
          {
            "time": 168.69055006250002,
            "midi": 36,
            "name": "C2",
            "velocity": 1,
            "duration": 0.08505903125001169,
            "ticks": 45614,
            "durationTicks": 23
          },
          {
            "time": 168.69055006250002,
            "midi": 61,
            "name": "C#4",
            "velocity": 1,
            "duration": 0.08505903125001169,
            "ticks": 45614,
            "durationTicks": 23
          },
          {
            "time": 168.69055006250002,
            "midi": 51,
            "name": "D#3",
            "velocity": 1,
            "duration": 0.3254432500000064,
            "ticks": 45614,
            "durationTicks": 88
          },
          {
            "time": 168.69424828125003,
            "midi": 40,
            "name": "E2",
            "velocity": 1,
            "duration": 0.3254432500000064,
            "ticks": 45615,
            "durationTicks": 88
          },
          {
            "time": 168.69424828125003,
            "midi": 42,
            "name": "F#2",
            "velocity": 1,
            "duration": 0.09245546874998922,
            "ticks": 45615,
            "durationTicks": 25
          },
          {
            "time": 168.87176278125003,
            "midi": 36,
            "name": "C2",
            "velocity": 1,
            "duration": 0.08505903124998326,
            "ticks": 45663,
            "durationTicks": 23
          },
          {
            "time": 168.87176278125003,
            "midi": 61,
            "name": "C#4",
            "velocity": 1,
            "duration": 0.08505903124998326,
            "ticks": 45663,
            "durationTicks": 23
          },
          {
            "time": 168.87176278125003,
            "midi": 42,
            "name": "F#2",
            "velocity": 1,
            "duration": 0.08875724999998624,
            "ticks": 45663,
            "durationTicks": 24
          },
          {
            "time": 169.04557906250002,
            "midi": 38,
            "name": "D2",
            "velocity": 1,
            "duration": 0.08505903125001169,
            "ticks": 45710,
            "durationTicks": 23
          },
          {
            "time": 169.04557906250002,
            "midi": 61,
            "name": "C#4",
            "velocity": 1,
            "duration": 0.08505903125001169,
            "ticks": 45710,
            "durationTicks": 23
          },
          {
            "time": 169.04927728125003,
            "midi": 42,
            "name": "F#2",
            "velocity": 1,
            "duration": 0.09245546874998922,
            "ticks": 45711,
            "durationTicks": 25
          },
          {
            "time": 169.22679178125003,
            "midi": 61,
            "name": "C#4",
            "velocity": 1,
            "duration": 0.08505903124998326,
            "ticks": 45759,
            "durationTicks": 23
          },
          {
            "time": 169.22679178125003,
            "midi": 42,
            "name": "F#2",
            "velocity": 1,
            "duration": 0.08875724999998624,
            "ticks": 45759,
            "durationTicks": 24
          },
          {
            "time": 169.40430628125003,
            "midi": 36,
            "name": "C2",
            "velocity": 1,
            "duration": 0.08505903124998326,
            "ticks": 45807,
            "durationTicks": 23
          },
          {
            "time": 169.40430628125003,
            "midi": 61,
            "name": "C#4",
            "velocity": 1,
            "duration": 0.08505903124998326,
            "ticks": 45807,
            "durationTicks": 23
          },
          {
            "time": 169.40430628125003,
            "midi": 42,
            "name": "F#2",
            "velocity": 1,
            "duration": 0.09245546874998922,
            "ticks": 45807,
            "durationTicks": 25
          },
          {
            "time": 169.58182078125003,
            "midi": 61,
            "name": "C#4",
            "velocity": 1,
            "duration": 0.08505903124998326,
            "ticks": 45855,
            "durationTicks": 23
          },
          {
            "time": 169.58551900000003,
            "midi": 42,
            "name": "F#2",
            "velocity": 1,
            "duration": 0.09245546874998922,
            "ticks": 45856,
            "durationTicks": 25
          },
          {
            "time": 169.75933528125003,
            "midi": 38,
            "name": "D2",
            "velocity": 1,
            "duration": 0.08505903124998326,
            "ticks": 45903,
            "durationTicks": 23
          },
          {
            "time": 169.75933528125003,
            "midi": 61,
            "name": "C#4",
            "velocity": 1,
            "duration": 0.08505903124998326,
            "ticks": 45903,
            "durationTicks": 23
          },
          {
            "time": 169.75933528125003,
            "midi": 42,
            "name": "F#2",
            "velocity": 1,
            "duration": 0.08505903124998326,
            "ticks": 45903,
            "durationTicks": 23
          },
          {
            "time": 169.94054800000004,
            "midi": 61,
            "name": "C#4",
            "velocity": 1,
            "duration": 0.08505903124998326,
            "ticks": 45952,
            "durationTicks": 23
          },
          {
            "time": 169.94054800000004,
            "midi": 42,
            "name": "F#2",
            "velocity": 1,
            "duration": 0.08505903124998326,
            "ticks": 45952,
            "durationTicks": 23
          },
          {
            "time": 170.11436428125,
            "midi": 36,
            "name": "C2",
            "velocity": 1,
            "duration": 0.08505903125001169,
            "ticks": 45999,
            "durationTicks": 23
          },
          {
            "time": 170.11436428125,
            "midi": 61,
            "name": "C#4",
            "velocity": 1,
            "duration": 0.08875725000001466,
            "ticks": 45999,
            "durationTicks": 24
          },
          {
            "time": 170.11806250000004,
            "midi": 40,
            "name": "E2",
            "velocity": 1,
            "duration": 0.3513307812499704,
            "ticks": 46000,
            "durationTicks": 95
          },
          {
            "time": 170.11806250000004,
            "midi": 51,
            "name": "D#3",
            "velocity": 1,
            "duration": 0.3735200937499883,
            "ticks": 46000,
            "durationTicks": 101
          },
          {
            "time": 170.11806250000004,
            "midi": 42,
            "name": "F#2",
            "velocity": 1,
            "duration": 0.08136081249998028,
            "ticks": 46000,
            "durationTicks": 22
          },
          {
            "time": 170.29557700000004,
            "midi": 36,
            "name": "C2",
            "velocity": 1,
            "duration": 0.08505903124998326,
            "ticks": 46048,
            "durationTicks": 23
          },
          {
            "time": 170.29557700000004,
            "midi": 61,
            "name": "C#4",
            "velocity": 1,
            "duration": 0.08505903124998326,
            "ticks": 46048,
            "durationTicks": 23
          },
          {
            "time": 170.29557700000004,
            "midi": 42,
            "name": "F#2",
            "velocity": 1,
            "duration": 0.08136081249998028,
            "ticks": 46048,
            "durationTicks": 22
          },
          {
            "time": 170.47309150000004,
            "midi": 38,
            "name": "D2",
            "velocity": 1,
            "duration": 0.08136081249998028,
            "ticks": 46096,
            "durationTicks": 22
          },
          {
            "time": 170.47309150000004,
            "midi": 61,
            "name": "C#4",
            "velocity": 1,
            "duration": 0.08136081249998028,
            "ticks": 46096,
            "durationTicks": 22
          },
          {
            "time": 170.47309150000004,
            "midi": 42,
            "name": "F#2",
            "velocity": 1,
            "duration": 0.08875724999998624,
            "ticks": 46096,
            "durationTicks": 24
          },
          {
            "time": 170.65060600000004,
            "midi": 61,
            "name": "C#4",
            "velocity": 1,
            "duration": 0.08505903124998326,
            "ticks": 46144,
            "durationTicks": 23
          },
          {
            "time": 170.65060600000004,
            "midi": 42,
            "name": "F#2",
            "velocity": 1,
            "duration": 0.08136081249998028,
            "ticks": 46144,
            "durationTicks": 22
          },
          {
            "time": 170.8281205,
            "midi": 36,
            "name": "C2",
            "velocity": 1,
            "duration": 0.08505903125001169,
            "ticks": 46192,
            "durationTicks": 23
          },
          {
            "time": 170.8281205,
            "midi": 61,
            "name": "C#4",
            "velocity": 1,
            "duration": 0.08505903125001169,
            "ticks": 46192,
            "durationTicks": 23
          },
          {
            "time": 170.8281205,
            "midi": 42,
            "name": "F#2",
            "velocity": 1,
            "duration": 0.07026615624999977,
            "ticks": 46192,
            "durationTicks": 19
          },
          {
            "time": 171.00933321875002,
            "midi": 61,
            "name": "C#4",
            "velocity": 1,
            "duration": 0.0813608125000087,
            "ticks": 46241,
            "durationTicks": 22
          },
          {
            "time": 171.00933321875002,
            "midi": 42,
            "name": "F#2",
            "velocity": 1,
            "duration": 0.06286971875002223,
            "ticks": 46241,
            "durationTicks": 17
          },
          {
            "time": 171.1831495,
            "midi": 38,
            "name": "D2",
            "velocity": 1,
            "duration": 0.08875725000001466,
            "ticks": 46288,
            "durationTicks": 24
          },
          {
            "time": 171.1831495,
            "midi": 61,
            "name": "C#4",
            "velocity": 1,
            "duration": 0.08875725000001466,
            "ticks": 46288,
            "durationTicks": 24
          },
          {
            "time": 171.1831495,
            "midi": 42,
            "name": "F#2",
            "velocity": 1,
            "duration": 0.07396437500000275,
            "ticks": 46288,
            "durationTicks": 20
          },
          {
            "time": 171.36436221875002,
            "midi": 61,
            "name": "C#4",
            "velocity": 1,
            "duration": 0.08505903125001169,
            "ticks": 46337,
            "durationTicks": 23
          },
          {
            "time": 171.36436221875002,
            "midi": 42,
            "name": "F#2",
            "velocity": 1,
            "duration": 0.04807684375001031,
            "ticks": 46337,
            "durationTicks": 13
          },
          {
            "time": 171.53817850000001,
            "midi": 36,
            "name": "C2",
            "velocity": 1,
            "duration": 0.09245546874998922,
            "ticks": 46384,
            "durationTicks": 25
          },
          {
            "time": 171.53817850000001,
            "midi": 61,
            "name": "C#4",
            "velocity": 1,
            "duration": 0.09245546874998922,
            "ticks": 46384,
            "durationTicks": 25
          },
          {
            "time": 171.54187671875002,
            "midi": 51,
            "name": "D#3",
            "velocity": 1,
            "duration": 0.3217450312500034,
            "ticks": 46385,
            "durationTicks": 87
          },
          {
            "time": 171.54187671875002,
            "midi": 40,
            "name": "E2",
            "velocity": 1,
            "duration": 0.3291414687500094,
            "ticks": 46385,
            "durationTicks": 89
          },
          {
            "time": 171.54187671875002,
            "midi": 42,
            "name": "F#2",
            "velocity": 1,
            "duration": 0.07766259375000573,
            "ticks": 46385,
            "durationTicks": 21
          },
          {
            "time": 171.71939121875002,
            "midi": 36,
            "name": "C2",
            "velocity": 1,
            "duration": 0.08505903125001169,
            "ticks": 46433,
            "durationTicks": 23
          },
          {
            "time": 171.71939121875002,
            "midi": 61,
            "name": "C#4",
            "velocity": 1,
            "duration": 0.08875724999998624,
            "ticks": 46433,
            "durationTicks": 24
          },
          {
            "time": 171.72308943750002,
            "midi": 42,
            "name": "F#2",
            "velocity": 1,
            "duration": 0.0813608125000087,
            "ticks": 46434,
            "durationTicks": 22
          },
          {
            "time": 171.89690571875002,
            "midi": 38,
            "name": "D2",
            "velocity": 1,
            "duration": 0.08875724999998624,
            "ticks": 46481,
            "durationTicks": 24
          },
          {
            "time": 171.89690571875002,
            "midi": 61,
            "name": "C#4",
            "velocity": 1,
            "duration": 0.08875724999998624,
            "ticks": 46481,
            "durationTicks": 24
          },
          {
            "time": 171.89690571875002,
            "midi": 42,
            "name": "F#2",
            "velocity": 1,
            "duration": 0.08875724999998624,
            "ticks": 46481,
            "durationTicks": 24
          },
          {
            "time": 172.07442021875002,
            "midi": 38,
            "name": "D2",
            "velocity": 1,
            "duration": 0.08875724999998624,
            "ticks": 46529,
            "durationTicks": 24
          },
          {
            "time": 172.07442021875002,
            "midi": 61,
            "name": "C#4",
            "velocity": 1,
            "duration": 0.08875724999998624,
            "ticks": 46529,
            "durationTicks": 24
          },
          {
            "time": 172.07811843750002,
            "midi": 42,
            "name": "F#2",
            "velocity": 1,
            "duration": 0.08875724999998624,
            "ticks": 46530,
            "durationTicks": 24
          },
          {
            "time": 172.25193471875002,
            "midi": 36,
            "name": "C2",
            "velocity": 1,
            "duration": 0.08875724999998624,
            "ticks": 46577,
            "durationTicks": 24
          },
          {
            "time": 172.25193471875002,
            "midi": 42,
            "name": "F#2",
            "velocity": 1,
            "duration": 0.0961536874999922,
            "ticks": 46577,
            "durationTicks": 26
          },
          {
            "time": 172.43314743750003,
            "midi": 42,
            "name": "F#2",
            "velocity": 1,
            "duration": 0.07396437499997432,
            "ticks": 46626,
            "durationTicks": 20
          },
          {
            "time": 172.60696371875002,
            "midi": 36,
            "name": "C2",
            "velocity": 1,
            "duration": 0.09245546874998922,
            "ticks": 46673,
            "durationTicks": 25
          },
          {
            "time": 172.60696371875002,
            "midi": 38,
            "name": "D2",
            "velocity": 1,
            "duration": 0.09245546874998922,
            "ticks": 46673,
            "durationTicks": 25
          },
          {
            "time": 172.61066193750003,
            "midi": 42,
            "name": "F#2",
            "velocity": 1,
            "duration": 0.0813608125000087,
            "ticks": 46674,
            "durationTicks": 22
          },
          {
            "time": 172.78817643750003,
            "midi": 42,
            "name": "F#2",
            "velocity": 1,
            "duration": 0.08505903124998326,
            "ticks": 46722,
            "durationTicks": 23
          },
          {
            "time": 172.96569093750003,
            "midi": 36,
            "name": "C2",
            "velocity": 1,
            "duration": 0.08875724999998624,
            "ticks": 46770,
            "durationTicks": 24
          },
          {
            "time": 172.96569093750003,
            "midi": 42,
            "name": "F#2",
            "velocity": 1,
            "duration": 0.08875724999998624,
            "ticks": 46770,
            "durationTicks": 24
          },
          {
            "time": 173.14320543750003,
            "midi": 42,
            "name": "F#2",
            "velocity": 1,
            "duration": 0.09245546874998922,
            "ticks": 46818,
            "durationTicks": 25
          },
          {
            "time": 173.32071993750003,
            "midi": 36,
            "name": "C2",
            "velocity": 1,
            "duration": 0.08875724999998624,
            "ticks": 46866,
            "durationTicks": 24
          },
          {
            "time": 173.32071993750003,
            "midi": 38,
            "name": "D2",
            "velocity": 1,
            "duration": 0.08875724999998624,
            "ticks": 46866,
            "durationTicks": 24
          },
          {
            "time": 173.32071993750003,
            "midi": 42,
            "name": "F#2",
            "velocity": 1,
            "duration": 0.0961536874999922,
            "ticks": 46866,
            "durationTicks": 26
          },
          {
            "time": 173.50193265625003,
            "midi": 42,
            "name": "F#2",
            "velocity": 1,
            "duration": 0.08875724999998624,
            "ticks": 46915,
            "durationTicks": 24
          },
          {
            "time": 173.683145375,
            "midi": 36,
            "name": "C2",
            "velocity": 1,
            "duration": 0.0813608125000087,
            "ticks": 46964,
            "durationTicks": 22
          },
          {
            "time": 173.683145375,
            "midi": 42,
            "name": "F#2",
            "velocity": 1,
            "duration": 0.09985190624999518,
            "ticks": 46964,
            "durationTicks": 27
          },
          {
            "time": 173.85696165625004,
            "midi": 42,
            "name": "F#2",
            "velocity": 1,
            "duration": 0.08136081249998028,
            "ticks": 47011,
            "durationTicks": 22
          },
          {
            "time": 174.038174375,
            "midi": 38,
            "name": "D2",
            "velocity": 1,
            "duration": 0.08505903125001169,
            "ticks": 47060,
            "durationTicks": 23
          },
          {
            "time": 174.038174375,
            "midi": 36,
            "name": "C2",
            "velocity": 1,
            "duration": 0.08505903125001169,
            "ticks": 47060,
            "durationTicks": 23
          },
          {
            "time": 174.038174375,
            "midi": 42,
            "name": "F#2",
            "velocity": 1,
            "duration": 0.08505903125001169,
            "ticks": 47060,
            "durationTicks": 23
          },
          {
            "time": 174.21199065625004,
            "midi": 42,
            "name": "F#2",
            "velocity": 1,
            "duration": 0.0924554687499608,
            "ticks": 47107,
            "durationTicks": 25
          },
          {
            "time": 174.393203375,
            "midi": 36,
            "name": "C2",
            "velocity": 1,
            "duration": 0.08505903125001169,
            "ticks": 47156,
            "durationTicks": 23
          },
          {
            "time": 174.393203375,
            "midi": 42,
            "name": "F#2",
            "velocity": 1,
            "duration": 0.08875724999998624,
            "ticks": 47156,
            "durationTicks": 24
          },
          {
            "time": 174.570717875,
            "midi": 42,
            "name": "F#2",
            "velocity": 1,
            "duration": 0.08875724999998624,
            "ticks": 47204,
            "durationTicks": 24
          },
          {
            "time": 174.74823237500001,
            "midi": 36,
            "name": "C2",
            "velocity": 1,
            "duration": 0.08505903125001169,
            "ticks": 47252,
            "durationTicks": 23
          },
          {
            "time": 174.75193059375002,
            "midi": 38,
            "name": "D2",
            "velocity": 1,
            "duration": 0.0813608125000087,
            "ticks": 47253,
            "durationTicks": 22
          },
          {
            "time": 174.75193059375002,
            "midi": 42,
            "name": "F#2",
            "velocity": 1,
            "duration": 0.08875725000001466,
            "ticks": 47253,
            "durationTicks": 24
          },
          {
            "time": 174.92574687500002,
            "midi": 42,
            "name": "F#2",
            "velocity": 1,
            "duration": 0.08875724999998624,
            "ticks": 47300,
            "durationTicks": 24
          },
          {
            "time": 175.10695959375002,
            "midi": 36,
            "name": "C2",
            "velocity": 1,
            "duration": 0.08505903124998326,
            "ticks": 47349,
            "durationTicks": 23
          },
          {
            "time": 175.10695959375002,
            "midi": 42,
            "name": "F#2",
            "velocity": 1,
            "duration": 0.08875724999998624,
            "ticks": 47349,
            "durationTicks": 24
          },
          {
            "time": 175.28077587500002,
            "midi": 42,
            "name": "F#2",
            "velocity": 1,
            "duration": 0.09615368750002062,
            "ticks": 47396,
            "durationTicks": 26
          },
          {
            "time": 175.46198859375002,
            "midi": 38,
            "name": "D2",
            "velocity": 1,
            "duration": 0.08505903124998326,
            "ticks": 47445,
            "durationTicks": 23
          },
          {
            "time": 175.46198859375002,
            "midi": 36,
            "name": "C2",
            "velocity": 1,
            "duration": 0.08505903124998326,
            "ticks": 47445,
            "durationTicks": 23
          },
          {
            "time": 175.46198859375002,
            "midi": 42,
            "name": "F#2",
            "velocity": 1,
            "duration": 0.08505903124998326,
            "ticks": 47445,
            "durationTicks": 23
          },
          {
            "time": 175.63580487500002,
            "midi": 42,
            "name": "F#2",
            "velocity": 1,
            "duration": 0.08505903125001169,
            "ticks": 47492,
            "durationTicks": 23
          },
          {
            "time": 175.81701759375002,
            "midi": 36,
            "name": "C2",
            "velocity": 1,
            "duration": 0.08505903124998326,
            "ticks": 47541,
            "durationTicks": 23
          },
          {
            "time": 175.81701759375002,
            "midi": 42,
            "name": "F#2",
            "velocity": 1,
            "duration": 0.08505903124998326,
            "ticks": 47541,
            "durationTicks": 23
          },
          {
            "time": 175.99453209375002,
            "midi": 42,
            "name": "F#2",
            "velocity": 1,
            "duration": 0.07766259375000573,
            "ticks": 47589,
            "durationTicks": 21
          },
          {
            "time": 176.17574481250003,
            "midi": 38,
            "name": "D2",
            "velocity": 1,
            "duration": 0.08505903124998326,
            "ticks": 47638,
            "durationTicks": 23
          },
          {
            "time": 176.17574481250003,
            "midi": 36,
            "name": "C2",
            "velocity": 1,
            "duration": 0.08505903124998326,
            "ticks": 47638,
            "durationTicks": 23
          },
          {
            "time": 176.17574481250003,
            "midi": 42,
            "name": "F#2",
            "velocity": 1,
            "duration": 0.08505903124998326,
            "ticks": 47638,
            "durationTicks": 23
          },
          {
            "time": 176.34956109375003,
            "midi": 42,
            "name": "F#2",
            "velocity": 1,
            "duration": 0.0813608125000087,
            "ticks": 47685,
            "durationTicks": 22
          },
          {
            "time": 176.53077381250003,
            "midi": 36,
            "name": "C2",
            "velocity": 1,
            "duration": 0.08505903124998326,
            "ticks": 47734,
            "durationTicks": 23
          },
          {
            "time": 176.53077381250003,
            "midi": 42,
            "name": "F#2",
            "velocity": 1,
            "duration": 0.06286971874999381,
            "ticks": 47734,
            "durationTicks": 17
          },
          {
            "time": 176.70459009375003,
            "midi": 42,
            "name": "F#2",
            "velocity": 1,
            "duration": 0.06656793749999679,
            "ticks": 47781,
            "durationTicks": 18
          },
          {
            "time": 176.88580281250003,
            "midi": 36,
            "name": "C2",
            "velocity": 1,
            "duration": 0.08505903124998326,
            "ticks": 47830,
            "durationTicks": 23
          },
          {
            "time": 176.88580281250003,
            "midi": 38,
            "name": "D2",
            "velocity": 1,
            "duration": 0.08505903124998326,
            "ticks": 47830,
            "durationTicks": 23
          },
          {
            "time": 176.88950103125,
            "midi": 42,
            "name": "F#2",
            "velocity": 1,
            "duration": 0.06656793749999679,
            "ticks": 47831,
            "durationTicks": 18
          },
          {
            "time": 177.06331731250003,
            "midi": 42,
            "name": "F#2",
            "velocity": 1,
            "duration": 0.04807684374998189,
            "ticks": 47878,
            "durationTicks": 13
          },
          {
            "time": 177.24083181250003,
            "midi": 36,
            "name": "C2",
            "velocity": 1,
            "duration": 0.08505903124998326,
            "ticks": 47926,
            "durationTicks": 23
          },
          {
            "time": 177.24453003125,
            "midi": 42,
            "name": "F#2",
            "velocity": 1,
            "duration": 0.07396437500003117,
            "ticks": 47927,
            "durationTicks": 20
          },
          {
            "time": 177.41834631250003,
            "midi": 42,
            "name": "F#2",
            "velocity": 1,
            "duration": 0.08505903124998326,
            "ticks": 47974,
            "durationTicks": 23
          },
          {
            "time": 177.59955903125,
            "midi": 36,
            "name": "C2",
            "velocity": 1,
            "duration": 0.08505903125001169,
            "ticks": 48023,
            "durationTicks": 23
          },
          {
            "time": 177.59955903125,
            "midi": 38,
            "name": "D2",
            "velocity": 1,
            "duration": 0.08505903125001169,
            "ticks": 48023,
            "durationTicks": 23
          },
          {
            "time": 177.59955903125,
            "midi": 42,
            "name": "F#2",
            "velocity": 1,
            "duration": 0.08505903125001169,
            "ticks": 48023,
            "durationTicks": 23
          },
          {
            "time": 177.77337531250004,
            "midi": 42,
            "name": "F#2",
            "velocity": 1,
            "duration": 0.09245546874998922,
            "ticks": 48070,
            "durationTicks": 25
          },
          {
            "time": 177.95458803125,
            "midi": 36,
            "name": "C2",
            "velocity": 1,
            "duration": 0.08505903125001169,
            "ticks": 48119,
            "durationTicks": 23
          },
          {
            "time": 177.95458803125,
            "midi": 42,
            "name": "F#2",
            "velocity": 1,
            "duration": 0.09615368750002062,
            "ticks": 48119,
            "durationTicks": 26
          },
          {
            "time": 178.12840431250004,
            "midi": 42,
            "name": "F#2",
            "velocity": 1,
            "duration": 0.08505903124998326,
            "ticks": 48166,
            "durationTicks": 23
          },
          {
            "time": 178.30961703125,
            "midi": 36,
            "name": "C2",
            "velocity": 1,
            "duration": 0.08505903125001169,
            "ticks": 48215,
            "durationTicks": 23
          },
          {
            "time": 178.30961703125,
            "midi": 38,
            "name": "D2",
            "velocity": 1,
            "duration": 0.08505903125001169,
            "ticks": 48215,
            "durationTicks": 23
          },
          {
            "time": 178.31331525000002,
            "midi": 42,
            "name": "F#2",
            "velocity": 1,
            "duration": 0.07766259375000573,
            "ticks": 48216,
            "durationTicks": 21
          },
          {
            "time": 178.48713153125001,
            "midi": 42,
            "name": "F#2",
            "velocity": 1,
            "duration": 0.07396437500000275,
            "ticks": 48263,
            "durationTicks": 20
          },
          {
            "time": 178.66834425000002,
            "midi": 36,
            "name": "C2",
            "velocity": 1,
            "duration": 0.08505903124998326,
            "ticks": 48312,
            "durationTicks": 23
          },
          {
            "time": 178.66834425000002,
            "midi": 42,
            "name": "F#2",
            "velocity": 1,
            "duration": 0.07026615624999977,
            "ticks": 48312,
            "durationTicks": 19
          },
          {
            "time": 178.84216053125002,
            "midi": 42,
            "name": "F#2",
            "velocity": 1,
            "duration": 0.0813608125000087,
            "ticks": 48359,
            "durationTicks": 22
          },
          {
            "time": 179.02337325000002,
            "midi": 38,
            "name": "D2",
            "velocity": 1,
            "duration": 0.08505903124998326,
            "ticks": 48408,
            "durationTicks": 23
          },
          {
            "time": 179.02337325000002,
            "midi": 36,
            "name": "C2",
            "velocity": 1,
            "duration": 0.08505903124998326,
            "ticks": 48408,
            "durationTicks": 23
          },
          {
            "time": 179.02337325000002,
            "midi": 42,
            "name": "F#2",
            "velocity": 1,
            "duration": 0.08875724999998624,
            "ticks": 48408,
            "durationTicks": 24
          },
          {
            "time": 179.19718953125002,
            "midi": 42,
            "name": "F#2",
            "velocity": 1,
            "duration": 0.08505903125001169,
            "ticks": 48455,
            "durationTicks": 23
          },
          {
            "time": 179.37840225000002,
            "midi": 36,
            "name": "C2",
            "velocity": 1,
            "duration": 0.08505903124998326,
            "ticks": 48504,
            "durationTicks": 23
          },
          {
            "time": 179.37840225000002,
            "midi": 42,
            "name": "F#2",
            "velocity": 1,
            "duration": 0.0813608125000087,
            "ticks": 48504,
            "durationTicks": 22
          },
          {
            "time": 179.55591675000002,
            "midi": 42,
            "name": "F#2",
            "velocity": 1,
            "duration": 0.07026615624999977,
            "ticks": 48552,
            "durationTicks": 19
          },
          {
            "time": 179.73343125000002,
            "midi": 36,
            "name": "C2",
            "velocity": 1,
            "duration": 0.08505903124998326,
            "ticks": 48600,
            "durationTicks": 23
          },
          {
            "time": 179.73343125000002,
            "midi": 38,
            "name": "D2",
            "velocity": 1,
            "duration": 0.08505903124998326,
            "ticks": 48600,
            "durationTicks": 23
          },
          {
            "time": 179.73712946875003,
            "midi": 42,
            "name": "F#2",
            "velocity": 1,
            "duration": 0.06656793749999679,
            "ticks": 48601,
            "durationTicks": 18
          },
          {
            "time": 179.91094575000002,
            "midi": 42,
            "name": "F#2",
            "velocity": 1,
            "duration": 0.07026615624999977,
            "ticks": 48648,
            "durationTicks": 19
          },
          {
            "time": 180.09215846875003,
            "midi": 36,
            "name": "C2",
            "velocity": 1,
            "duration": 0.08505903124998326,
            "ticks": 48697,
            "durationTicks": 23
          },
          {
            "time": 180.09215846875003,
            "midi": 42,
            "name": "F#2",
            "velocity": 1,
            "duration": 0.07026615624997135,
            "ticks": 48697,
            "durationTicks": 19
          },
          {
            "time": 180.26597475000003,
            "midi": 42,
            "name": "F#2",
            "velocity": 1,
            "duration": 0.0813608125000087,
            "ticks": 48744,
            "durationTicks": 22
          },
          {
            "time": 180.44718746875003,
            "midi": 38,
            "name": "D2",
            "velocity": 1,
            "duration": 0.08505903124998326,
            "ticks": 48793,
            "durationTicks": 23
          },
          {
            "time": 180.44718746875003,
            "midi": 36,
            "name": "C2",
            "velocity": 1,
            "duration": 0.08505903124998326,
            "ticks": 48793,
            "durationTicks": 23
          },
          {
            "time": 180.4508856875,
            "midi": 42,
            "name": "F#2",
            "velocity": 1,
            "duration": 0.08505903125001169,
            "ticks": 48794,
            "durationTicks": 23
          },
          {
            "time": 180.62100375000003,
            "midi": 42,
            "name": "F#2",
            "velocity": 1,
            "duration": 0.10355012499999816,
            "ticks": 48840,
            "durationTicks": 28
          },
          {
            "time": 180.80221646875003,
            "midi": 36,
            "name": "C2",
            "velocity": 1,
            "duration": 0.08505903124998326,
            "ticks": 48889,
            "durationTicks": 23
          },
          {
            "time": 180.80221646875003,
            "midi": 42,
            "name": "F#2",
            "velocity": 1,
            "duration": 0.12573943749998762,
            "ticks": 48889,
            "durationTicks": 34
          },
          {
            "time": 180.97973096875003,
            "midi": 42,
            "name": "F#2",
            "velocity": 1,
            "duration": 0.08875724999998624,
            "ticks": 48937,
            "durationTicks": 24
          },
          {
            "time": 181.1609436875,
            "midi": 38,
            "name": "D2",
            "velocity": 1,
            "duration": 0.08505903125001169,
            "ticks": 48986,
            "durationTicks": 23
          },
          {
            "time": 181.1609436875,
            "midi": 36,
            "name": "C2",
            "velocity": 1,
            "duration": 0.08505903125001169,
            "ticks": 48986,
            "durationTicks": 23
          },
          {
            "time": 181.1609436875,
            "midi": 42,
            "name": "F#2",
            "velocity": 1,
            "duration": 0.07026615624999977,
            "ticks": 48986,
            "durationTicks": 19
          },
          {
            "time": 181.33475996875003,
            "midi": 42,
            "name": "F#2",
            "velocity": 1,
            "duration": 0.07396437499997432,
            "ticks": 49033,
            "durationTicks": 20
          },
          {
            "time": 181.5159726875,
            "midi": 36,
            "name": "C2",
            "velocity": 1,
            "duration": 0.08505903125001169,
            "ticks": 49082,
            "durationTicks": 23
          },
          {
            "time": 181.5159726875,
            "midi": 42,
            "name": "F#2",
            "velocity": 1,
            "duration": 0.07396437500000275,
            "ticks": 49082,
            "durationTicks": 20
          },
          {
            "time": 181.68978896875004,
            "midi": 42,
            "name": "F#2",
            "velocity": 1,
            "duration": 0.0776625937499773,
            "ticks": 49129,
            "durationTicks": 21
          },
          {
            "time": 181.87100168750004,
            "midi": 36,
            "name": "C2",
            "velocity": 1,
            "duration": 0.08505903124995484,
            "ticks": 49178,
            "durationTicks": 23
          },
          {
            "time": 181.87100168750004,
            "midi": 38,
            "name": "D2",
            "velocity": 1,
            "duration": 0.08875724999998624,
            "ticks": 49178,
            "durationTicks": 24
          },
          {
            "time": 181.87469990625002,
            "midi": 42,
            "name": "F#2",
            "velocity": 1,
            "duration": 0.08136081249998028,
            "ticks": 49179,
            "durationTicks": 22
          },
          {
            "time": 182.04851618750004,
            "midi": 42,
            "name": "F#2",
            "velocity": 1,
            "duration": 0.08505903124995484,
            "ticks": 49226,
            "durationTicks": 23
          },
          {
            "time": 182.22972890625002,
            "midi": 36,
            "name": "C2",
            "velocity": 1,
            "duration": 0.08505903125001169,
            "ticks": 49275,
            "durationTicks": 23
          },
          {
            "time": 182.22972890625002,
            "midi": 42,
            "name": "F#2",
            "velocity": 1,
            "duration": 0.10724834375002956,
            "ticks": 49275,
            "durationTicks": 29
          },
          {
            "time": 182.40354518750004,
            "midi": 42,
            "name": "F#2",
            "velocity": 1,
            "duration": 0.08505903124995484,
            "ticks": 49322,
            "durationTicks": 23
          },
          {
            "time": 182.58475790625002,
            "midi": 36,
            "name": "C2",
            "velocity": 1,
            "duration": 0.08505903125001169,
            "ticks": 49371,
            "durationTicks": 23
          },
          {
            "time": 182.58475790625002,
            "midi": 38,
            "name": "D2",
            "velocity": 1,
            "duration": 0.08505903125001169,
            "ticks": 49371,
            "durationTicks": 23
          },
          {
            "time": 182.58475790625002,
            "midi": 42,
            "name": "F#2",
            "velocity": 1,
            "duration": 0.07396437500000275,
            "ticks": 49371,
            "durationTicks": 20
          },
          {
            "time": 182.75857418750005,
            "midi": 42,
            "name": "F#2",
            "velocity": 1,
            "duration": 0.08505903124995484,
            "ticks": 49418,
            "durationTicks": 23
          },
          {
            "time": 182.93978690625002,
            "midi": 36,
            "name": "C2",
            "velocity": 1,
            "duration": 0.08505903125001169,
            "ticks": 49467,
            "durationTicks": 23
          },
          {
            "time": 182.93978690625002,
            "midi": 42,
            "name": "F#2",
            "velocity": 1,
            "duration": 0.08505903125001169,
            "ticks": 49467,
            "durationTicks": 23
          },
          {
            "time": 183.11730140625002,
            "midi": 42,
            "name": "F#2",
            "velocity": 1,
            "duration": 0.08875724999998624,
            "ticks": 49515,
            "durationTicks": 24
          },
          {
            "time": 183.29481590625002,
            "midi": 38,
            "name": "D2",
            "velocity": 1,
            "duration": 0.08505903125001169,
            "ticks": 49563,
            "durationTicks": 23
          },
          {
            "time": 183.29481590625002,
            "midi": 36,
            "name": "C2",
            "velocity": 1,
            "duration": 0.08875724999998624,
            "ticks": 49563,
            "durationTicks": 24
          },
          {
            "time": 183.298514125,
            "midi": 42,
            "name": "F#2",
            "velocity": 1,
            "duration": 0.07396437500003117,
            "ticks": 49564,
            "durationTicks": 20
          },
          {
            "time": 183.47233040625002,
            "midi": 42,
            "name": "F#2",
            "velocity": 1,
            "duration": 0.08136081249998028,
            "ticks": 49611,
            "durationTicks": 22
          },
          {
            "time": 183.653543125,
            "midi": 36,
            "name": "C2",
            "velocity": 1,
            "duration": 0.08505903125001169,
            "ticks": 49660,
            "durationTicks": 23
          },
          {
            "time": 183.82735940625003,
            "midi": 36,
            "name": "C2",
            "velocity": 1,
            "duration": 0.08505903125001169,
            "ticks": 49707,
            "durationTicks": 23
          },
          {
            "time": 184.008572125,
            "midi": 36,
            "name": "C2",
            "velocity": 1,
            "duration": 0.08505903125001169,
            "ticks": 49756,
            "durationTicks": 23
          },
          {
            "time": 184.363601125,
            "midi": 38,
            "name": "D2",
            "velocity": 1,
            "duration": 0.08505903125001169,
            "ticks": 49852,
            "durationTicks": 23
          },
          {
            "time": 184.896144625,
            "midi": 36,
            "name": "C2",
            "velocity": 1,
            "duration": 0.08505903125001169,
            "ticks": 49996,
            "durationTicks": 23
          },
          {
            "time": 185.07735734375004,
            "midi": 36,
            "name": "C2",
            "velocity": 1,
            "duration": 0.08505903124998326,
            "ticks": 50045,
            "durationTicks": 23
          },
          {
            "time": 185.251173625,
            "midi": 36,
            "name": "C2",
            "velocity": 1,
            "duration": 0.08505903125001169,
            "ticks": 50092,
            "durationTicks": 23
          },
          {
            "time": 185.43238634375004,
            "midi": 36,
            "name": "C2",
            "velocity": 1,
            "duration": 0.08505903124995484,
            "ticks": 50141,
            "durationTicks": 23
          },
          {
            "time": 185.78741534375004,
            "midi": 38,
            "name": "D2",
            "velocity": 1,
            "duration": 0.08875724999998624,
            "ticks": 50237,
            "durationTicks": 24
          },
          {
            "time": 186.31995884375004,
            "midi": 36,
            "name": "C2",
            "velocity": 1,
            "duration": 0.08505903124995484,
            "ticks": 50381,
            "durationTicks": 23
          },
          {
            "time": 186.50117156250002,
            "midi": 36,
            "name": "C2",
            "velocity": 1,
            "duration": 0.08505903125001169,
            "ticks": 50430,
            "durationTicks": 23
          },
          {
            "time": 186.67498784375005,
            "midi": 36,
            "name": "C2",
            "velocity": 1,
            "duration": 0.08875724999998624,
            "ticks": 50477,
            "durationTicks": 24
          },
          {
            "time": 186.85620056250002,
            "midi": 36,
            "name": "C2",
            "velocity": 1,
            "duration": 0.08505903125001169,
            "ticks": 50526,
            "durationTicks": 23
          },
          {
            "time": 187.21492778125,
            "midi": 38,
            "name": "D2",
            "velocity": 1,
            "duration": 0.08505903125001169,
            "ticks": 50623,
            "durationTicks": 23
          },
          {
            "time": 187.56995678125,
            "midi": 36,
            "name": "C2",
            "velocity": 1,
            "duration": 0.08505903125001169,
            "ticks": 50719,
            "durationTicks": 23
          },
          {
            "time": 187.74377306250003,
            "midi": 38,
            "name": "D2",
            "velocity": 1,
            "duration": 0.08505903125001169,
            "ticks": 50766,
            "durationTicks": 23
          },
          {
            "time": 187.92498578125,
            "midi": 36,
            "name": "C2",
            "velocity": 1,
            "duration": 0.08505903125001169,
            "ticks": 50815,
            "durationTicks": 23
          },
          {
            "time": 188.10250028125,
            "midi": 38,
            "name": "D2",
            "velocity": 1,
            "duration": 0.08505903125001169,
            "ticks": 50863,
            "durationTicks": 23
          },
          {
            "time": 188.28371300000003,
            "midi": 36,
            "name": "C2",
            "velocity": 1,
            "duration": 0.08505903124998326,
            "ticks": 50912,
            "durationTicks": 23
          },
          {
            "time": 188.45752928125,
            "midi": 38,
            "name": "D2",
            "velocity": 1,
            "duration": 0.08505903125001169,
            "ticks": 50959,
            "durationTicks": 23
          },
          {
            "time": 188.63874200000004,
            "midi": 36,
            "name": "C2",
            "velocity": 1,
            "duration": 0.08505903124998326,
            "ticks": 51008,
            "durationTicks": 23
          },
          {
            "time": 188.63874200000004,
            "midi": 38,
            "name": "D2",
            "velocity": 1,
            "duration": 0.08505903124998326,
            "ticks": 51008,
            "durationTicks": 23
          },
          {
            "time": 188.81255828125,
            "midi": 38,
            "name": "D2",
            "velocity": 1,
            "duration": 0.08505903125001169,
            "ticks": 51055,
            "durationTicks": 23
          },
          {
            "time": 188.99377100000004,
            "midi": 38,
            "name": "D2",
            "velocity": 1,
            "duration": 0.08505903124998326,
            "ticks": 51104,
            "durationTicks": 23
          },
          {
            "time": 188.99377100000004,
            "midi": 36,
            "name": "C2",
            "velocity": 1,
            "duration": 0.08505903124998326,
            "ticks": 51104,
            "durationTicks": 23
          },
          {
            "time": 189.17128550000004,
            "midi": 38,
            "name": "D2",
            "velocity": 1,
            "duration": 0.08505903124995484,
            "ticks": 51152,
            "durationTicks": 23
          },
          {
            "time": 189.17128550000004,
            "midi": 36,
            "name": "C2",
            "velocity": 1,
            "duration": 0.08505903124995484,
            "ticks": 51152,
            "durationTicks": 23
          },
          {
            "time": 189.34880000000004,
            "midi": 36,
            "name": "C2",
            "velocity": 1,
            "duration": 0.08505903124995484,
            "ticks": 51200,
            "durationTicks": 23
          },
          {
            "time": 189.34880000000004,
            "midi": 42,
            "name": "F#2",
            "velocity": 1,
            "duration": 0.09245546874998922,
            "ticks": 51200,
            "durationTicks": 25
          },
          {
            "time": 189.52631450000004,
            "midi": 42,
            "name": "F#2",
            "velocity": 1,
            "duration": 0.07396437499997432,
            "ticks": 51248,
            "durationTicks": 20
          },
          {
            "time": 189.70752721875002,
            "midi": 36,
            "name": "C2",
            "velocity": 1,
            "duration": 0.08505903125001169,
            "ticks": 51297,
            "durationTicks": 23
          },
          {
            "time": 189.70752721875002,
            "midi": 38,
            "name": "D2",
            "velocity": 1,
            "duration": 0.08505903125001169,
            "ticks": 51297,
            "durationTicks": 23
          },
          {
            "time": 189.70752721875002,
            "midi": 42,
            "name": "F#2",
            "velocity": 1,
            "duration": 0.07766259375000573,
            "ticks": 51297,
            "durationTicks": 21
          },
          {
            "time": 189.88134350000004,
            "midi": 42,
            "name": "F#2",
            "velocity": 1,
            "duration": 0.08505903124995484,
            "ticks": 51344,
            "durationTicks": 23
          },
          {
            "time": 190.06255621875002,
            "midi": 36,
            "name": "C2",
            "velocity": 1,
            "duration": 0.08505903125001169,
            "ticks": 51393,
            "durationTicks": 23
          },
          {
            "time": 190.06255621875002,
            "midi": 42,
            "name": "F#2",
            "velocity": 1,
            "duration": 0.08505903125001169,
            "ticks": 51393,
            "durationTicks": 23
          },
          {
            "time": 190.23637250000004,
            "midi": 42,
            "name": "F#2",
            "velocity": 1,
            "duration": 0.09615368749996378,
            "ticks": 51440,
            "durationTicks": 26
          },
          {
            "time": 190.41758521875002,
            "midi": 36,
            "name": "C2",
            "velocity": 1,
            "duration": 0.08505903125001169,
            "ticks": 51489,
            "durationTicks": 23
          },
          {
            "time": 190.4212834375,
            "midi": 38,
            "name": "D2",
            "velocity": 1,
            "duration": 0.0850590312500401,
            "ticks": 51490,
            "durationTicks": 23
          },
          {
            "time": 190.4212834375,
            "midi": 42,
            "name": "F#2",
            "velocity": 1,
            "duration": 0.08875725000001466,
            "ticks": 51490,
            "durationTicks": 24
          },
          {
            "time": 190.59509971875002,
            "midi": 42,
            "name": "F#2",
            "velocity": 1,
            "duration": 0.09615368750002062,
            "ticks": 51537,
            "durationTicks": 26
          },
          {
            "time": 190.7763124375,
            "midi": 36,
            "name": "C2",
            "velocity": 1,
            "duration": 0.08505903125001169,
            "ticks": 51586,
            "durationTicks": 23
          },
          {
            "time": 190.7763124375,
            "midi": 42,
            "name": "F#2",
            "velocity": 1,
            "duration": 0.0998519062500236,
            "ticks": 51586,
            "durationTicks": 27
          },
          {
            "time": 190.95012871875002,
            "midi": 42,
            "name": "F#2",
            "velocity": 1,
            "duration": 0.08136081249998028,
            "ticks": 51633,
            "durationTicks": 22
          },
          {
            "time": 191.1313414375,
            "midi": 38,
            "name": "D2",
            "velocity": 1,
            "duration": 0.08505903125001169,
            "ticks": 51682,
            "durationTicks": 23
          },
          {
            "time": 191.1313414375,
            "midi": 36,
            "name": "C2",
            "velocity": 1,
            "duration": 0.08505903125001169,
            "ticks": 51682,
            "durationTicks": 23
          },
          {
            "time": 191.1313414375,
            "midi": 42,
            "name": "F#2",
            "velocity": 1,
            "duration": 0.08505903125001169,
            "ticks": 51682,
            "durationTicks": 23
          },
          {
            "time": 191.30515771875002,
            "midi": 42,
            "name": "F#2",
            "velocity": 1,
            "duration": 0.09245546874998922,
            "ticks": 51729,
            "durationTicks": 25
          },
          {
            "time": 191.4863704375,
            "midi": 36,
            "name": "C2",
            "velocity": 1,
            "duration": 0.08505903125001169,
            "ticks": 51778,
            "durationTicks": 23
          },
          {
            "time": 191.4863704375,
            "midi": 42,
            "name": "F#2",
            "velocity": 1,
            "duration": 0.09245546875004607,
            "ticks": 51778,
            "durationTicks": 25
          },
          {
            "time": 191.6638849375,
            "midi": 42,
            "name": "F#2",
            "velocity": 1,
            "duration": 0.08875725000001466,
            "ticks": 51826,
            "durationTicks": 24
          },
          {
            "time": 191.84509765625003,
            "midi": 36,
            "name": "C2",
            "velocity": 1,
            "duration": 0.08136081249998028,
            "ticks": 51875,
            "durationTicks": 22
          },
          {
            "time": 191.84509765625003,
            "midi": 38,
            "name": "D2",
            "velocity": 1,
            "duration": 0.08505903124998326,
            "ticks": 51875,
            "durationTicks": 23
          },
          {
            "time": 191.84509765625003,
            "midi": 42,
            "name": "F#2",
            "velocity": 1,
            "duration": 0.08875725000001466,
            "ticks": 51875,
            "durationTicks": 24
          },
          {
            "time": 192.0189139375,
            "midi": 42,
            "name": "F#2",
            "velocity": 1,
            "duration": 0.09615368750002062,
            "ticks": 51922,
            "durationTicks": 26
          },
          {
            "time": 192.20012665625003,
            "midi": 36,
            "name": "C2",
            "velocity": 1,
            "duration": 0.08505903124998326,
            "ticks": 51971,
            "durationTicks": 23
          },
          {
            "time": 192.20012665625003,
            "midi": 42,
            "name": "F#2",
            "velocity": 1,
            "duration": 0.08875724999998624,
            "ticks": 51971,
            "durationTicks": 24
          },
          {
            "time": 192.3739429375,
            "midi": 42,
            "name": "F#2",
            "velocity": 1,
            "duration": 0.09615368750002062,
            "ticks": 52018,
            "durationTicks": 26
          },
          {
            "time": 192.55515565625004,
            "midi": 38,
            "name": "D2",
            "velocity": 1,
            "duration": 0.08505903124998326,
            "ticks": 52067,
            "durationTicks": 23
          },
          {
            "time": 192.55515565625004,
            "midi": 36,
            "name": "C2",
            "velocity": 1,
            "duration": 0.08505903124998326,
            "ticks": 52067,
            "durationTicks": 23
          },
          {
            "time": 192.558853875,
            "midi": 42,
            "name": "F#2",
            "velocity": 1,
            "duration": 0.0813608125000087,
            "ticks": 52068,
            "durationTicks": 22
          },
          {
            "time": 192.7289719375,
            "midi": 42,
            "name": "F#2",
            "velocity": 1,
            "duration": 0.08875725000001466,
            "ticks": 52114,
            "durationTicks": 24
          },
          {
            "time": 192.91018465625004,
            "midi": 36,
            "name": "C2",
            "velocity": 1,
            "duration": 0.08505903124998326,
            "ticks": 52163,
            "durationTicks": 23
          },
          {
            "time": 192.91018465625004,
            "midi": 42,
            "name": "F#2",
            "velocity": 1,
            "duration": 0.08505903124998326,
            "ticks": 52163,
            "durationTicks": 23
          },
          {
            "time": 193.08769915625004,
            "midi": 42,
            "name": "F#2",
            "velocity": 1,
            "duration": 0.08136081249998028,
            "ticks": 52211,
            "durationTicks": 22
          },
          {
            "time": 193.26891187500001,
            "midi": 38,
            "name": "D2",
            "velocity": 1,
            "duration": 0.08505903125001169,
            "ticks": 52260,
            "durationTicks": 23
          },
          {
            "time": 193.26891187500001,
            "midi": 36,
            "name": "C2",
            "velocity": 1,
            "duration": 0.08505903125001169,
            "ticks": 52260,
            "durationTicks": 23
          },
          {
            "time": 193.26891187500001,
            "midi": 42,
            "name": "F#2",
            "velocity": 1,
            "duration": 0.08505903125001169,
            "ticks": 52260,
            "durationTicks": 23
          },
          {
            "time": 193.44272815625004,
            "midi": 42,
            "name": "F#2",
            "velocity": 1,
            "duration": 0.08136081249998028,
            "ticks": 52307,
            "durationTicks": 22
          },
          {
            "time": 193.62394087500002,
            "midi": 36,
            "name": "C2",
            "velocity": 1,
            "duration": 0.08505903125001169,
            "ticks": 52356,
            "durationTicks": 23
          },
          {
            "time": 193.62394087500002,
            "midi": 42,
            "name": "F#2",
            "velocity": 1,
            "duration": 0.06656793749999679,
            "ticks": 52356,
            "durationTicks": 18
          },
          {
            "time": 193.79775715625004,
            "midi": 42,
            "name": "F#2",
            "velocity": 1,
            "duration": 0.06656793749999679,
            "ticks": 52403,
            "durationTicks": 18
          },
          {
            "time": 193.97896987500002,
            "midi": 36,
            "name": "C2",
            "velocity": 1,
            "duration": 0.08505903125001169,
            "ticks": 52452,
            "durationTicks": 23
          },
          {
            "time": 193.98266809375002,
            "midi": 38,
            "name": "D2",
            "velocity": 1,
            "duration": 0.0813608125000087,
            "ticks": 52453,
            "durationTicks": 22
          },
          {
            "time": 193.98266809375002,
            "midi": 42,
            "name": "F#2",
            "velocity": 1,
            "duration": 0.06656793749999679,
            "ticks": 52453,
            "durationTicks": 18
          },
          {
            "time": 194.15648437500002,
            "midi": 42,
            "name": "F#2",
            "velocity": 1,
            "duration": 0.04807684374998189,
            "ticks": 52500,
            "durationTicks": 13
          },
          {
            "time": 194.33769709375,
            "midi": 36,
            "name": "C2",
            "velocity": 1,
            "duration": 0.08136081250003713,
            "ticks": 52549,
            "durationTicks": 22
          },
          {
            "time": 194.33769709375,
            "midi": 42,
            "name": "F#2",
            "velocity": 1,
            "duration": 0.07396437500003117,
            "ticks": 52549,
            "durationTicks": 20
          },
          {
            "time": 194.51151337500002,
            "midi": 42,
            "name": "F#2",
            "velocity": 1,
            "duration": 0.08505903125001169,
            "ticks": 52596,
            "durationTicks": 23
          },
          {
            "time": 194.69272609375,
            "midi": 36,
            "name": "C2",
            "velocity": 1,
            "duration": 0.08505903125001169,
            "ticks": 52645,
            "durationTicks": 23
          },
          {
            "time": 194.69272609375,
            "midi": 38,
            "name": "D2",
            "velocity": 1,
            "duration": 0.08505903125001169,
            "ticks": 52645,
            "durationTicks": 23
          },
          {
            "time": 194.69272609375,
            "midi": 42,
            "name": "F#2",
            "velocity": 1,
            "duration": 0.08505903125001169,
            "ticks": 52645,
            "durationTicks": 23
          },
          {
            "time": 194.86654237500002,
            "midi": 42,
            "name": "F#2",
            "velocity": 1,
            "duration": 0.09245546874998922,
            "ticks": 52692,
            "durationTicks": 25
          },
          {
            "time": 195.04775509375,
            "midi": 36,
            "name": "C2",
            "velocity": 1,
            "duration": 0.08505903125001169,
            "ticks": 52741,
            "durationTicks": 23
          },
          {
            "time": 195.04775509375,
            "midi": 42,
            "name": "F#2",
            "velocity": 1,
            "duration": 0.0998519062500236,
            "ticks": 52741,
            "durationTicks": 27
          },
          {
            "time": 195.22526959375,
            "midi": 42,
            "name": "F#2",
            "velocity": 1,
            "duration": 0.08505903125001169,
            "ticks": 52789,
            "durationTicks": 23
          },
          {
            "time": 195.40278409375,
            "midi": 36,
            "name": "C2",
            "velocity": 1,
            "duration": 0.08505903125001169,
            "ticks": 52837,
            "durationTicks": 23
          },
          {
            "time": 195.40278409375,
            "midi": 38,
            "name": "D2",
            "velocity": 1,
            "duration": 0.08875725000001466,
            "ticks": 52837,
            "durationTicks": 24
          },
          {
            "time": 195.40648231250003,
            "midi": 42,
            "name": "F#2",
            "velocity": 1,
            "duration": 0.07766259375000573,
            "ticks": 52838,
            "durationTicks": 21
          },
          {
            "time": 195.58029859375,
            "midi": 42,
            "name": "F#2",
            "velocity": 1,
            "duration": 0.07396437500003117,
            "ticks": 52885,
            "durationTicks": 20
          },
          {
            "time": 195.76151131250003,
            "midi": 36,
            "name": "C2",
            "velocity": 1,
            "duration": 0.08505903124998326,
            "ticks": 52934,
            "durationTicks": 23
          },
          {
            "time": 195.76151131250003,
            "midi": 42,
            "name": "F#2",
            "velocity": 1,
            "duration": 0.07026615624999977,
            "ticks": 52934,
            "durationTicks": 19
          },
          {
            "time": 195.93532759375,
            "midi": 42,
            "name": "F#2",
            "velocity": 1,
            "duration": 0.08136081250003713,
            "ticks": 52981,
            "durationTicks": 22
          },
          {
            "time": 196.11654031250004,
            "midi": 38,
            "name": "D2",
            "velocity": 1,
            "duration": 0.08505903124998326,
            "ticks": 53030,
            "durationTicks": 23
          },
          {
            "time": 196.11654031250004,
            "midi": 36,
            "name": "C2",
            "velocity": 1,
            "duration": 0.08505903124998326,
            "ticks": 53030,
            "durationTicks": 23
          },
          {
            "time": 196.11654031250004,
            "midi": 42,
            "name": "F#2",
            "velocity": 1,
            "duration": 0.08875724999998624,
            "ticks": 53030,
            "durationTicks": 24
          },
          {
            "time": 196.29035659375,
            "midi": 42,
            "name": "F#2",
            "velocity": 1,
            "duration": 0.08875725000001466,
            "ticks": 53077,
            "durationTicks": 24
          },
          {
            "time": 196.47156931250004,
            "midi": 36,
            "name": "C2",
            "velocity": 1,
            "duration": 0.08505903124998326,
            "ticks": 53126,
            "durationTicks": 23
          },
          {
            "time": 196.47526753125,
            "midi": 42,
            "name": "F#2",
            "velocity": 1,
            "duration": 0.07766259375000573,
            "ticks": 53127,
            "durationTicks": 21
          },
          {
            "time": 196.64908381250004,
            "midi": 42,
            "name": "F#2",
            "velocity": 1,
            "duration": 0.07026615624997135,
            "ticks": 53174,
            "durationTicks": 19
          },
          {
            "time": 196.83029653125,
            "midi": 36,
            "name": "C2",
            "velocity": 1,
            "duration": 0.08505903125001169,
            "ticks": 53223,
            "durationTicks": 23
          },
          {
            "time": 196.83029653125,
            "midi": 38,
            "name": "D2",
            "velocity": 1,
            "duration": 0.08505903125001169,
            "ticks": 53223,
            "durationTicks": 23
          },
          {
            "time": 196.83029653125,
            "midi": 42,
            "name": "F#2",
            "velocity": 1,
            "duration": 0.07026615624999977,
            "ticks": 53223,
            "durationTicks": 19
          },
          {
            "time": 197.00411281250004,
            "midi": 42,
            "name": "F#2",
            "velocity": 1,
            "duration": 0.07026615624997135,
            "ticks": 53270,
            "durationTicks": 19
          },
          {
            "time": 197.18532553125002,
            "midi": 36,
            "name": "C2",
            "velocity": 1,
            "duration": 0.08505903125001169,
            "ticks": 53319,
            "durationTicks": 23
          },
          {
            "time": 197.18532553125002,
            "midi": 42,
            "name": "F#2",
            "velocity": 1,
            "duration": 0.07026615624999977,
            "ticks": 53319,
            "durationTicks": 19
          },
          {
            "time": 197.35914181250004,
            "midi": 42,
            "name": "F#2",
            "velocity": 1,
            "duration": 0.08136081249998028,
            "ticks": 53366,
            "durationTicks": 22
          },
          {
            "time": 197.54035453125002,
            "midi": 38,
            "name": "D2",
            "velocity": 1,
            "duration": 0.08505903125001169,
            "ticks": 53415,
            "durationTicks": 23
          },
          {
            "time": 197.54035453125002,
            "midi": 36,
            "name": "C2",
            "velocity": 1,
            "duration": 0.08505903125001169,
            "ticks": 53415,
            "durationTicks": 23
          },
          {
            "time": 197.54405275000002,
            "midi": 42,
            "name": "F#2",
            "velocity": 1,
            "duration": 0.08875724999998624,
            "ticks": 53416,
            "durationTicks": 24
          },
          {
            "time": 197.71786903125002,
            "midi": 42,
            "name": "F#2",
            "velocity": 1,
            "duration": 0.09985190624999518,
            "ticks": 53463,
            "durationTicks": 27
          },
          {
            "time": 197.89538353125002,
            "midi": 36,
            "name": "C2",
            "velocity": 1,
            "duration": 0.08875725000001466,
            "ticks": 53511,
            "durationTicks": 24
          },
          {
            "time": 197.89908175000002,
            "midi": 42,
            "name": "F#2",
            "velocity": 1,
            "duration": 0.12204121874998464,
            "ticks": 53512,
            "durationTicks": 33
          },
          {
            "time": 198.07289803125002,
            "midi": 42,
            "name": "F#2",
            "velocity": 1,
            "duration": 0.08875725000001466,
            "ticks": 53559,
            "durationTicks": 24
          },
          {
            "time": 198.25411075,
            "midi": 38,
            "name": "D2",
            "velocity": 1,
            "duration": 0.0850590312500401,
            "ticks": 53608,
            "durationTicks": 23
          },
          {
            "time": 198.25411075,
            "midi": 36,
            "name": "C2",
            "velocity": 1,
            "duration": 0.0850590312500401,
            "ticks": 53608,
            "durationTicks": 23
          },
          {
            "time": 198.25411075,
            "midi": 42,
            "name": "F#2",
            "velocity": 1,
            "duration": 0.07026615625002819,
            "ticks": 53608,
            "durationTicks": 19
          },
          {
            "time": 198.42792703125002,
            "midi": 42,
            "name": "F#2",
            "velocity": 1,
            "duration": 0.07766259375000573,
            "ticks": 53655,
            "durationTicks": 21
          },
          {
            "time": 198.60913975,
            "midi": 36,
            "name": "C2",
            "velocity": 1,
            "duration": 0.08505903125001169,
            "ticks": 53704,
            "durationTicks": 23
          },
          {
            "time": 198.60913975,
            "midi": 42,
            "name": "F#2",
            "velocity": 1,
            "duration": 0.07396437500003117,
            "ticks": 53704,
            "durationTicks": 20
          },
          {
            "time": 198.78665425,
            "midi": 42,
            "name": "F#2",
            "velocity": 1,
            "duration": 0.07396437500003117,
            "ticks": 53752,
            "durationTicks": 20
          },
          {
            "time": 198.96416875,
            "midi": 36,
            "name": "C2",
            "velocity": 1,
            "duration": 0.08505903125001169,
            "ticks": 53800,
            "durationTicks": 23
          },
          {
            "time": 198.96416875,
            "midi": 38,
            "name": "D2",
            "velocity": 1,
            "duration": 0.08875725000001466,
            "ticks": 53800,
            "durationTicks": 24
          },
          {
            "time": 198.96786696875003,
            "midi": 42,
            "name": "F#2",
            "velocity": 1,
            "duration": 0.08136081249998028,
            "ticks": 53801,
            "durationTicks": 22
          },
          {
            "time": 199.14168325,
            "midi": 42,
            "name": "F#2",
            "velocity": 1,
            "duration": 0.08505903125001169,
            "ticks": 53848,
            "durationTicks": 23
          },
          {
            "time": 199.32289596875003,
            "midi": 36,
            "name": "C2",
            "velocity": 1,
            "duration": 0.08505903124998326,
            "ticks": 53897,
            "durationTicks": 23
          },
          {
            "time": 199.32289596875003,
            "midi": 42,
            "name": "F#2",
            "velocity": 1,
            "duration": 0.10724834374997272,
            "ticks": 53897,
            "durationTicks": 29
          },
          {
            "time": 199.49671225,
            "midi": 42,
            "name": "F#2",
            "velocity": 1,
            "duration": 0.08505903125001169,
            "ticks": 53944,
            "durationTicks": 23
          },
          {
            "time": 199.67792496875003,
            "midi": 36,
            "name": "C2",
            "velocity": 1,
            "duration": 0.08505903124998326,
            "ticks": 53993,
            "durationTicks": 23
          },
          {
            "time": 199.67792496875003,
            "midi": 38,
            "name": "D2",
            "velocity": 1,
            "duration": 0.08505903124998326,
            "ticks": 53993,
            "durationTicks": 23
          },
          {
            "time": 199.67792496875003,
            "midi": 42,
            "name": "F#2",
            "velocity": 1,
            "duration": 0.07396437499997432,
            "ticks": 53993,
            "durationTicks": 20
          },
          {
            "time": 199.85174125,
            "midi": 42,
            "name": "F#2",
            "velocity": 1,
            "duration": 0.08505903125001169,
            "ticks": 54040,
            "durationTicks": 23
          },
          {
            "time": 200.03295396875004,
            "midi": 36,
            "name": "C2",
            "velocity": 1,
            "duration": 0.08505903124998326,
            "ticks": 54089,
            "durationTicks": 23
          },
          {
            "time": 200.03295396875004,
            "midi": 42,
            "name": "F#2",
            "velocity": 1,
            "duration": 0.08875724999998624,
            "ticks": 54089,
            "durationTicks": 24
          },
          {
            "time": 200.21046846875004,
            "midi": 42,
            "name": "F#2",
            "velocity": 1,
            "duration": 0.08875724999998624,
            "ticks": 54137,
            "durationTicks": 24
          },
          {
            "time": 200.3916811875,
            "midi": 38,
            "name": "D2",
            "velocity": 1,
            "duration": 0.08505903125001169,
            "ticks": 54186,
            "durationTicks": 23
          },
          {
            "time": 200.3916811875,
            "midi": 36,
            "name": "C2",
            "velocity": 1,
            "duration": 0.08505903125001169,
            "ticks": 54186,
            "durationTicks": 23
          },
          {
            "time": 200.3916811875,
            "midi": 42,
            "name": "F#2",
            "velocity": 1,
            "duration": 0.07396437500003117,
            "ticks": 54186,
            "durationTicks": 20
          },
          {
            "time": 200.56549746875004,
            "midi": 42,
            "name": "F#2",
            "velocity": 1,
            "duration": 0.08136081249998028,
            "ticks": 54233,
            "durationTicks": 22
          },
          {
            "time": 200.7467101875,
            "midi": 36,
            "name": "C2",
            "velocity": 1,
            "duration": 0.08505903125001169,
            "ticks": 54282,
            "durationTicks": 23
          },
          {
            "time": 200.7467101875,
            "midi": 42,
            "name": "F#2",
            "velocity": 1,
            "duration": 0.08875725000001466,
            "ticks": 54282,
            "durationTicks": 24
          },
          {
            "time": 200.92052646875004,
            "midi": 42,
            "name": "F#2",
            "velocity": 1,
            "duration": 0.07766259375000573,
            "ticks": 54329,
            "durationTicks": 21
          },
          {
            "time": 201.10173918750002,
            "midi": 36,
            "name": "C2",
            "velocity": 1,
            "duration": 0.08505903125001169,
            "ticks": 54378,
            "durationTicks": 23
          },
          {
            "time": 201.10173918750002,
            "midi": 38,
            "name": "D2",
            "velocity": 1,
            "duration": 0.08505903125001169,
            "ticks": 54378,
            "durationTicks": 23
          },
          {
            "time": 201.10543740625002,
            "midi": 42,
            "name": "F#2",
            "velocity": 1,
            "duration": 0.0776625937499773,
            "ticks": 54379,
            "durationTicks": 21
          },
          {
            "time": 201.27925368750002,
            "midi": 42,
            "name": "F#2",
            "velocity": 1,
            "duration": 0.08505903125001169,
            "ticks": 54426,
            "durationTicks": 23
          },
          {
            "time": 201.46046640625002,
            "midi": 36,
            "name": "C2",
            "velocity": 1,
            "duration": 0.0813608125000087,
            "ticks": 54475,
            "durationTicks": 22
          },
          {
            "time": 201.46046640625002,
            "midi": 42,
            "name": "F#2",
            "velocity": 1,
            "duration": 0.0813608125000087,
            "ticks": 54475,
            "durationTicks": 22
          },
          {
            "time": 201.63428268750002,
            "midi": 42,
            "name": "F#2",
            "velocity": 1,
            "duration": 0.09615368750002062,
            "ticks": 54522,
            "durationTicks": 26
          },
          {
            "time": 201.81549540625002,
            "midi": 36,
            "name": "C2",
            "velocity": 1,
            "duration": 0.08505903125001169,
            "ticks": 54571,
            "durationTicks": 23
          },
          {
            "time": 201.81549540625002,
            "midi": 38,
            "name": "D2",
            "velocity": 1,
            "duration": 0.08505903125001169,
            "ticks": 54571,
            "durationTicks": 23
          },
          {
            "time": 201.81549540625002,
            "midi": 42,
            "name": "F#2",
            "velocity": 1,
            "duration": 0.08875724999998624,
            "ticks": 54571,
            "durationTicks": 24
          },
          {
            "time": 201.98931168750002,
            "midi": 42,
            "name": "F#2",
            "velocity": 1,
            "duration": 0.09615368750002062,
            "ticks": 54618,
            "durationTicks": 26
          },
          {
            "time": 202.17052440625,
            "midi": 36,
            "name": "C2",
            "velocity": 1,
            "duration": 0.0850590312500401,
            "ticks": 54667,
            "durationTicks": 23
          },
          {
            "time": 202.17052440625,
            "midi": 42,
            "name": "F#2",
            "velocity": 1,
            "duration": 0.0998519062500236,
            "ticks": 54667,
            "durationTicks": 27
          },
          {
            "time": 202.34434068750002,
            "midi": 42,
            "name": "F#2",
            "velocity": 1,
            "duration": 0.08136081249998028,
            "ticks": 54714,
            "durationTicks": 22
          },
          {
            "time": 202.52555340625,
            "midi": 38,
            "name": "D2",
            "velocity": 1,
            "duration": 0.08505903125001169,
            "ticks": 54763,
            "durationTicks": 23
          },
          {
            "time": 202.52925162500003,
            "midi": 36,
            "name": "C2",
            "velocity": 1,
            "duration": 0.08505903124998326,
            "ticks": 54764,
            "durationTicks": 23
          },
          {
            "time": 202.52925162500003,
            "midi": 42,
            "name": "F#2",
            "velocity": 1,
            "duration": 0.08136081249998028,
            "ticks": 54764,
            "durationTicks": 22
          },
          {
            "time": 202.70306790625,
            "midi": 42,
            "name": "F#2",
            "velocity": 1,
            "duration": 0.08875725000001466,
            "ticks": 54811,
            "durationTicks": 24
          },
          {
            "time": 202.88428062500003,
            "midi": 36,
            "name": "C2",
            "velocity": 1,
            "duration": 0.08505903124998326,
            "ticks": 54860,
            "durationTicks": 23
          },
          {
            "time": 202.88428062500003,
            "midi": 42,
            "name": "F#2",
            "velocity": 1,
            "duration": 0.08875725000001466,
            "ticks": 54860,
            "durationTicks": 24
          },
          {
            "time": 203.05809690625,
            "midi": 42,
            "name": "F#2",
            "velocity": 1,
            "duration": 0.08875725000001466,
            "ticks": 54907,
            "durationTicks": 24
          },
          {
            "time": 203.23930962500003,
            "midi": 36,
            "name": "C2",
            "velocity": 1,
            "duration": 0.08505903124998326,
            "ticks": 54956,
            "durationTicks": 23
          },
          {
            "time": 203.23930962500003,
            "midi": 38,
            "name": "D2",
            "velocity": 1,
            "duration": 0.08505903124998326,
            "ticks": 54956,
            "durationTicks": 23
          },
          {
            "time": 203.23930962500003,
            "midi": 42,
            "name": "F#2",
            "velocity": 1,
            "duration": 0.08875725000001466,
            "ticks": 54956,
            "durationTicks": 24
          },
          {
            "time": 203.41312590625,
            "midi": 42,
            "name": "F#2",
            "velocity": 1,
            "duration": 0.09615368750002062,
            "ticks": 55003,
            "durationTicks": 26
          },
          {
            "time": 203.59433862500003,
            "midi": 36,
            "name": "C2",
            "velocity": 1,
            "duration": 0.08505903124998326,
            "ticks": 55052,
            "durationTicks": 23
          },
          {
            "time": 203.59433862500003,
            "midi": 42,
            "name": "F#2",
            "velocity": 1,
            "duration": 0.09245546874998922,
            "ticks": 55052,
            "durationTicks": 25
          },
          {
            "time": 203.77185312500004,
            "midi": 42,
            "name": "F#2",
            "velocity": 1,
            "duration": 0.09245546874998922,
            "ticks": 55100,
            "durationTicks": 25
          },
          {
            "time": 203.95306584375,
            "midi": 38,
            "name": "D2",
            "velocity": 1,
            "duration": 0.08505903125001169,
            "ticks": 55149,
            "durationTicks": 23
          },
          {
            "time": 203.95306584375,
            "midi": 36,
            "name": "C2",
            "velocity": 1,
            "duration": 0.08505903125001169,
            "ticks": 55149,
            "durationTicks": 23
          },
          {
            "time": 203.95306584375,
            "midi": 42,
            "name": "F#2",
            "velocity": 1,
            "duration": 0.08505903125001169,
            "ticks": 55149,
            "durationTicks": 23
          },
          {
            "time": 204.12688212500004,
            "midi": 42,
            "name": "F#2",
            "velocity": 1,
            "duration": 0.08505903124998326,
            "ticks": 55196,
            "durationTicks": 23
          },
          {
            "time": 204.30809484375,
            "midi": 36,
            "name": "C2",
            "velocity": 1,
            "duration": 0.08505903125001169,
            "ticks": 55245,
            "durationTicks": 23
          },
          {
            "time": 204.30809484375,
            "midi": 42,
            "name": "F#2",
            "velocity": 1,
            "duration": 0.08505903125001169,
            "ticks": 55245,
            "durationTicks": 23
          },
          {
            "time": 204.48191112500004,
            "midi": 42,
            "name": "F#2",
            "velocity": 1,
            "duration": 0.08136081249998028,
            "ticks": 55292,
            "durationTicks": 22
          },
          {
            "time": 204.66312384375001,
            "midi": 38,
            "name": "D2",
            "velocity": 1,
            "duration": 0.08505903125001169,
            "ticks": 55341,
            "durationTicks": 23
          },
          {
            "time": 204.66312384375001,
            "midi": 36,
            "name": "C2",
            "velocity": 1,
            "duration": 0.08505903125001169,
            "ticks": 55341,
            "durationTicks": 23
          },
          {
            "time": 204.66682206250002,
            "midi": 42,
            "name": "F#2",
            "velocity": 1,
            "duration": 0.08505903125001169,
            "ticks": 55342,
            "durationTicks": 23
          },
          {
            "time": 204.84063834375002,
            "midi": 42,
            "name": "F#2",
            "velocity": 1,
            "duration": 0.07766259375000573,
            "ticks": 55389,
            "durationTicks": 21
          },
          {
            "time": 205.01815284375002,
            "midi": 36,
            "name": "C2",
            "velocity": 1,
            "duration": 0.08505903125001169,
            "ticks": 55437,
            "durationTicks": 23
          },
          {
            "time": 205.01815284375002,
            "midi": 42,
            "name": "F#2",
            "velocity": 1,
            "duration": 0.06656793749999679,
            "ticks": 55437,
            "durationTicks": 18
          },
          {
            "time": 205.19566734375002,
            "midi": 42,
            "name": "F#2",
            "velocity": 1,
            "duration": 0.06656793749999679,
            "ticks": 55485,
            "durationTicks": 18
          },
          {
            "time": 205.37688006250002,
            "midi": 36,
            "name": "C2",
            "velocity": 1,
            "duration": 0.08505903125001169,
            "ticks": 55534,
            "durationTicks": 23
          },
          {
            "time": 205.37688006250002,
            "midi": 38,
            "name": "D2",
            "velocity": 1,
            "duration": 0.08505903125001169,
            "ticks": 55534,
            "durationTicks": 23
          },
          {
            "time": 205.37688006250002,
            "midi": 42,
            "name": "F#2",
            "velocity": 1,
            "duration": 0.07026615625002819,
            "ticks": 55534,
            "durationTicks": 19
          },
          {
            "time": 205.55069634375002,
            "midi": 42,
            "name": "F#2",
            "velocity": 1,
            "duration": 0.05177506250001329,
            "ticks": 55581,
            "durationTicks": 14
          },
          {
            "time": 205.73190906250002,
            "midi": 36,
            "name": "C2",
            "velocity": 1,
            "duration": 0.08505903125001169,
            "ticks": 55630,
            "durationTicks": 23
          },
          {
            "time": 205.73190906250002,
            "midi": 42,
            "name": "F#2",
            "velocity": 1,
            "duration": 0.07396437500000275,
            "ticks": 55630,
            "durationTicks": 20
          },
          {
            "time": 205.90572534375002,
            "midi": 42,
            "name": "F#2",
            "velocity": 1,
            "duration": 0.08875725000001466,
            "ticks": 55677,
            "durationTicks": 24
          },
          {
            "time": 206.0869380625,
            "midi": 36,
            "name": "C2",
            "velocity": 1,
            "duration": 0.0850590312500401,
            "ticks": 55726,
            "durationTicks": 23
          },
          {
            "time": 206.0869380625,
            "midi": 38,
            "name": "D2",
            "velocity": 1,
            "duration": 0.08875725000001466,
            "ticks": 55726,
            "durationTicks": 24
          },
          {
            "time": 206.09063628125003,
            "midi": 42,
            "name": "F#2",
            "velocity": 1,
            "duration": 0.08505903124998326,
            "ticks": 55727,
            "durationTicks": 23
          },
          {
            "time": 206.2644525625,
            "midi": 42,
            "name": "F#2",
            "velocity": 1,
            "duration": 0.08875725000001466,
            "ticks": 55774,
            "durationTicks": 24
          },
          {
            "time": 206.44566528125003,
            "midi": 36,
            "name": "C2",
            "velocity": 1,
            "duration": 0.08505903124998326,
            "ticks": 55823,
            "durationTicks": 23
          },
          {
            "time": 206.44566528125003,
            "midi": 42,
            "name": "F#2",
            "velocity": 1,
            "duration": 0.08875725000001466,
            "ticks": 55823,
            "durationTicks": 24
          },
          {
            "time": 206.6194815625,
            "midi": 42,
            "name": "F#2",
            "velocity": 1,
            "duration": 0.07396437500003117,
            "ticks": 55870,
            "durationTicks": 20
          },
          {
            "time": 206.80069428125003,
            "midi": 36,
            "name": "C2",
            "velocity": 1,
            "duration": 0.08505903124998326,
            "ticks": 55919,
            "durationTicks": 23
          },
          {
            "time": 206.80069428125003,
            "midi": 38,
            "name": "D2",
            "velocity": 1,
            "duration": 0.08505903124998326,
            "ticks": 55919,
            "durationTicks": 23
          },
          {
            "time": 206.80069428125003,
            "midi": 42,
            "name": "F#2",
            "velocity": 1,
            "duration": 0.08136081249998028,
            "ticks": 55919,
            "durationTicks": 22
          },
          {
            "time": 206.9745105625,
            "midi": 42,
            "name": "F#2",
            "velocity": 1,
            "duration": 0.08505903125001169,
            "ticks": 55966,
            "durationTicks": 23
          },
          {
            "time": 207.15572328125003,
            "midi": 36,
            "name": "C2",
            "velocity": 1,
            "duration": 0.08505903124998326,
            "ticks": 56015,
            "durationTicks": 23
          },
          {
            "time": 207.15572328125003,
            "midi": 42,
            "name": "F#2",
            "velocity": 1,
            "duration": 0.08505903124998326,
            "ticks": 56015,
            "durationTicks": 23
          },
          {
            "time": 207.33323778125003,
            "midi": 42,
            "name": "F#2",
            "velocity": 1,
            "duration": 0.09245546874998922,
            "ticks": 56063,
            "durationTicks": 25
          },
          {
            "time": 207.51075228125003,
            "midi": 36,
            "name": "C2",
            "velocity": 1,
            "duration": 0.08505903124998326,
            "ticks": 56111,
            "durationTicks": 23
          },
          {
            "time": 207.51075228125003,
            "midi": 38,
            "name": "D2",
            "velocity": 1,
            "duration": 0.08505903124998326,
            "ticks": 56111,
            "durationTicks": 23
          },
          {
            "time": 207.5144505,
            "midi": 42,
            "name": "F#2",
            "velocity": 1,
            "duration": 0.08875725000001466,
            "ticks": 56112,
            "durationTicks": 24
          },
          {
            "time": 207.68826678125004,
            "midi": 42,
            "name": "F#2",
            "velocity": 1,
            "duration": 0.09615368749996378,
            "ticks": 56159,
            "durationTicks": 26
          },
          {
            "time": 207.8694795,
            "midi": 36,
            "name": "C2",
            "velocity": 1,
            "duration": 0.08505903125001169,
            "ticks": 56208,
            "durationTicks": 23
          },
          {
            "time": 207.8694795,
            "midi": 42,
            "name": "F#2",
            "velocity": 1,
            "duration": 0.0998519062500236,
            "ticks": 56208,
            "durationTicks": 27
          },
          {
            "time": 208.04329578125004,
            "midi": 42,
            "name": "F#2",
            "velocity": 1,
            "duration": 0.08136081249998028,
            "ticks": 56255,
            "durationTicks": 22
          },
          {
            "time": 208.2245085,
            "midi": 38,
            "name": "D2",
            "velocity": 1,
            "duration": 0.08505903125001169,
            "ticks": 56304,
            "durationTicks": 23
          },
          {
            "time": 208.2245085,
            "midi": 36,
            "name": "C2",
            "velocity": 1,
            "duration": 0.08505903125001169,
            "ticks": 56304,
            "durationTicks": 23
          },
          {
            "time": 208.22820671875002,
            "midi": 42,
            "name": "F#2",
            "velocity": 1,
            "duration": 0.0813608125000087,
            "ticks": 56305,
            "durationTicks": 22
          },
          {
            "time": 208.402023,
            "midi": 42,
            "name": "F#2",
            "velocity": 1,
            "duration": 0.08875725000001466,
            "ticks": 56352,
            "durationTicks": 24
          },
          {
            "time": 208.57953750000001,
            "midi": 36,
            "name": "C2",
            "velocity": 1,
            "duration": 0.08505903125001169,
            "ticks": 56400,
            "durationTicks": 23
          },
          {
            "time": 208.58323571875002,
            "midi": 42,
            "name": "F#2",
            "velocity": 1,
            "duration": 0.08875724999998624,
            "ticks": 56401,
            "durationTicks": 24
          },
          {
            "time": 208.75705200000002,
            "midi": 42,
            "name": "F#2",
            "velocity": 1,
            "duration": 0.08875725000001466,
            "ticks": 56448,
            "durationTicks": 24
          },
          {
            "time": 208.93826471875002,
            "midi": 36,
            "name": "C2",
            "velocity": 1,
            "duration": 0.08505903125001169,
            "ticks": 56497,
            "durationTicks": 23
          },
          {
            "time": 208.93826471875002,
            "midi": 38,
            "name": "D2",
            "velocity": 1,
            "duration": 0.08505903125001169,
            "ticks": 56497,
            "durationTicks": 23
          },
          {
            "time": 208.93826471875002,
            "midi": 42,
            "name": "F#2",
            "velocity": 1,
            "duration": 0.08875724999998624,
            "ticks": 56497,
            "durationTicks": 24
          },
          {
            "time": 209.11208100000002,
            "midi": 42,
            "name": "F#2",
            "velocity": 1,
            "duration": 0.09615368750002062,
            "ticks": 56544,
            "durationTicks": 26
          },
          {
            "time": 209.29329371875002,
            "midi": 36,
            "name": "C2",
            "velocity": 1,
            "duration": 0.08505903125001169,
            "ticks": 56593,
            "durationTicks": 23
          },
          {
            "time": 209.29329371875002,
            "midi": 42,
            "name": "F#2",
            "velocity": 1,
            "duration": 0.08875724999998624,
            "ticks": 56593,
            "durationTicks": 24
          },
          {
            "time": 209.46711000000002,
            "midi": 42,
            "name": "F#2",
            "velocity": 1,
            "duration": 0.09615368750002062,
            "ticks": 56640,
            "durationTicks": 26
          },
          {
            "time": 209.64832271875002,
            "midi": 38,
            "name": "D2",
            "velocity": 1,
            "duration": 0.08505903125001169,
            "ticks": 56689,
            "durationTicks": 23
          },
          {
            "time": 209.64832271875002,
            "midi": 36,
            "name": "C2",
            "velocity": 1,
            "duration": 0.08875724999998624,
            "ticks": 56689,
            "durationTicks": 24
          },
          {
            "time": 209.65202093750003,
            "midi": 42,
            "name": "F#2",
            "velocity": 1,
            "duration": 0.0813608125000087,
            "ticks": 56690,
            "durationTicks": 22
          },
          {
            "time": 209.82583721875,
            "midi": 42,
            "name": "F#2",
            "velocity": 1,
            "duration": 0.0850590312500401,
            "ticks": 56737,
            "durationTicks": 23
          },
          {
            "time": 210.00704993750003,
            "midi": 36,
            "name": "C2",
            "velocity": 1,
            "duration": 0.08505903124998326,
            "ticks": 56786,
            "durationTicks": 23
          },
          {
            "time": 210.00704993750003,
            "midi": 42,
            "name": "F#2",
            "velocity": 1,
            "duration": 0.08505903124998326,
            "ticks": 56786,
            "durationTicks": 23
          },
          {
            "time": 210.18086621875,
            "midi": 42,
            "name": "F#2",
            "velocity": 1,
            "duration": 0.08136081250003713,
            "ticks": 56833,
            "durationTicks": 22
          },
          {
            "time": 210.36207893750003,
            "midi": 38,
            "name": "D2",
            "velocity": 1,
            "duration": 0.08505903124998326,
            "ticks": 56882,
            "durationTicks": 23
          },
          {
            "time": 210.36207893750003,
            "midi": 36,
            "name": "C2",
            "velocity": 1,
            "duration": 0.08505903124998326,
            "ticks": 56882,
            "durationTicks": 23
          },
          {
            "time": 210.36207893750003,
            "midi": 42,
            "name": "F#2",
            "velocity": 1,
            "duration": 0.08505903124998326,
            "ticks": 56882,
            "durationTicks": 23
          },
          {
            "time": 210.53589521875,
            "midi": 42,
            "name": "F#2",
            "velocity": 1,
            "duration": 0.08136081250003713,
            "ticks": 56929,
            "durationTicks": 22
          },
          {
            "time": 210.71710793750003,
            "midi": 36,
            "name": "C2",
            "velocity": 1,
            "duration": 0.08505903124998326,
            "ticks": 56978,
            "durationTicks": 23
          },
          {
            "time": 210.71710793750003,
            "midi": 42,
            "name": "F#2",
            "velocity": 1,
            "duration": 0.06656793749999679,
            "ticks": 56978,
            "durationTicks": 18
          },
          {
            "time": 210.89462243750003,
            "midi": 42,
            "name": "F#2",
            "velocity": 1,
            "duration": 0.06286971874996539,
            "ticks": 57026,
            "durationTicks": 17
          },
          {
            "time": 211.07213693750003,
            "midi": 38,
            "name": "D2",
            "velocity": 1,
            "duration": 0.08505903124998326,
            "ticks": 57074,
            "durationTicks": 23
          },
          {
            "time": 211.07583515625004,
            "midi": 36,
            "name": "C2",
            "velocity": 1,
            "duration": 0.08505903125001169,
            "ticks": 57075,
            "durationTicks": 23
          },
          {
            "time": 211.07583515625004,
            "midi": 42,
            "name": "F#2",
            "velocity": 1,
            "duration": 0.06656793749999679,
            "ticks": 57075,
            "durationTicks": 18
          },
          {
            "time": 211.24965143750003,
            "midi": 42,
            "name": "F#2",
            "velocity": 1,
            "duration": 0.05547328125001627,
            "ticks": 57122,
            "durationTicks": 15
          },
          {
            "time": 211.43086415625,
            "midi": 36,
            "name": "C2",
            "velocity": 1,
            "duration": 0.0850590312500401,
            "ticks": 57171,
            "durationTicks": 23
          },
          {
            "time": 211.43086415625,
            "midi": 42,
            "name": "F#2",
            "velocity": 1,
            "duration": 0.07396437500003117,
            "ticks": 57171,
            "durationTicks": 20
          },
          {
            "time": 211.60468043750004,
            "midi": 42,
            "name": "F#2",
            "velocity": 1,
            "duration": 0.08505903124998326,
            "ticks": 57218,
            "durationTicks": 23
          },
          {
            "time": 211.78589315625,
            "midi": 38,
            "name": "D2",
            "velocity": 1,
            "duration": 0.08505903125001169,
            "ticks": 57267,
            "durationTicks": 23
          },
          {
            "time": 211.78589315625,
            "midi": 36,
            "name": "C2",
            "velocity": 1,
            "duration": 0.08505903125001169,
            "ticks": 57267,
            "durationTicks": 23
          },
          {
            "time": 211.78589315625,
            "midi": 42,
            "name": "F#2",
            "velocity": 1,
            "duration": 0.08505903125001169,
            "ticks": 57267,
            "durationTicks": 23
          },
          {
            "time": 211.95970943750004,
            "midi": 42,
            "name": "F#2",
            "velocity": 1,
            "duration": 0.09245546874998922,
            "ticks": 57314,
            "durationTicks": 25
          },
          {
            "time": 212.14092215625,
            "midi": 36,
            "name": "C2",
            "velocity": 1,
            "duration": 0.08505903125001169,
            "ticks": 57363,
            "durationTicks": 23
          },
          {
            "time": 212.14092215625,
            "midi": 42,
            "name": "F#2",
            "velocity": 1,
            "duration": 0.0998519062500236,
            "ticks": 57363,
            "durationTicks": 27
          },
          {
            "time": 212.31843665625001,
            "midi": 42,
            "name": "F#2",
            "velocity": 1,
            "duration": 0.08505903125001169,
            "ticks": 57411,
            "durationTicks": 23
          },
          {
            "time": 212.49964937500002,
            "midi": 36,
            "name": "C2",
            "velocity": 1,
            "duration": 0.08505903125001169,
            "ticks": 57460,
            "durationTicks": 23
          },
          {
            "time": 212.49964937500002,
            "midi": 38,
            "name": "D2",
            "velocity": 1,
            "duration": 0.08505903125001169,
            "ticks": 57460,
            "durationTicks": 23
          },
          {
            "time": 212.49964937500002,
            "midi": 42,
            "name": "F#2",
            "velocity": 1,
            "duration": 0.0776625937499773,
            "ticks": 57460,
            "durationTicks": 21
          },
          {
            "time": 212.67346565625002,
            "midi": 42,
            "name": "F#2",
            "velocity": 1,
            "duration": 0.07396437500003117,
            "ticks": 57507,
            "durationTicks": 20
          },
          {
            "time": 212.85467837500002,
            "midi": 36,
            "name": "C2",
            "velocity": 1,
            "duration": 0.08505903125001169,
            "ticks": 57556,
            "durationTicks": 23
          },
          {
            "time": 212.85467837500002,
            "midi": 42,
            "name": "F#2",
            "velocity": 1,
            "duration": 0.07026615625002819,
            "ticks": 57556,
            "durationTicks": 19
          },
          {
            "time": 213.02849465625002,
            "midi": 42,
            "name": "F#2",
            "velocity": 1,
            "duration": 0.08136081249998028,
            "ticks": 57603,
            "durationTicks": 22
          },
          {
            "time": 213.20970737500002,
            "midi": 38,
            "name": "D2",
            "velocity": 1,
            "duration": 0.08505903125001169,
            "ticks": 57652,
            "durationTicks": 23
          },
          {
            "time": 213.20970737500002,
            "midi": 36,
            "name": "C2",
            "velocity": 1,
            "duration": 0.08505903125001169,
            "ticks": 57652,
            "durationTicks": 23
          },
          {
            "time": 213.21340559375002,
            "midi": 42,
            "name": "F#2",
            "velocity": 1,
            "duration": 0.08875725000001466,
            "ticks": 57653,
            "durationTicks": 24
          },
          {
            "time": 213.38722187500002,
            "midi": 42,
            "name": "F#2",
            "velocity": 1,
            "duration": 0.08505903125001169,
            "ticks": 57700,
            "durationTicks": 23
          },
          {
            "time": 213.56843459375003,
            "midi": 36,
            "name": "C2",
            "velocity": 1,
            "duration": 0.0813608125000087,
            "ticks": 57749,
            "durationTicks": 22
          },
          {
            "time": 213.56843459375003,
            "midi": 42,
            "name": "F#2",
            "velocity": 1,
            "duration": 0.07766259375000573,
            "ticks": 57749,
            "durationTicks": 21
          },
          {
            "time": 213.742250875,
            "midi": 42,
            "name": "F#2",
            "velocity": 1,
            "duration": 0.07026615625002819,
            "ticks": 57796,
            "durationTicks": 19
          },
          {
            "time": 213.92346359375003,
            "midi": 36,
            "name": "C2",
            "velocity": 1,
            "duration": 0.08505903124998326,
            "ticks": 57845,
            "durationTicks": 23
          },
          {
            "time": 213.92346359375003,
            "midi": 38,
            "name": "D2",
            "velocity": 1,
            "duration": 0.08505903124998326,
            "ticks": 57845,
            "durationTicks": 23
          },
          {
            "time": 213.92346359375003,
            "midi": 42,
            "name": "F#2",
            "velocity": 1,
            "duration": 0.07026615624999977,
            "ticks": 57845,
            "durationTicks": 19
          },
          {
            "time": 214.097279875,
            "midi": 42,
            "name": "F#2",
            "velocity": 1,
            "duration": 0.07026615625002819,
            "ticks": 57892,
            "durationTicks": 19
          },
          {
            "time": 214.27849259375003,
            "midi": 36,
            "name": "C2",
            "velocity": 1,
            "duration": 0.08505903124998326,
            "ticks": 57941,
            "durationTicks": 23
          },
          {
            "time": 214.27849259375003,
            "midi": 42,
            "name": "F#2",
            "velocity": 1,
            "duration": 0.07026615624999977,
            "ticks": 57941,
            "durationTicks": 19
          },
          {
            "time": 214.452308875,
            "midi": 42,
            "name": "F#2",
            "velocity": 1,
            "duration": 0.08136081250003713,
            "ticks": 57988,
            "durationTicks": 22
          },
          {
            "time": 214.63352159375003,
            "midi": 36,
            "name": "C2",
            "velocity": 1,
            "duration": 0.08505903124998326,
            "ticks": 58037,
            "durationTicks": 23
          },
          {
            "time": 214.63352159375003,
            "midi": 38,
            "name": "D2",
            "velocity": 1,
            "duration": 0.08505903124998326,
            "ticks": 58037,
            "durationTicks": 23
          },
          {
            "time": 214.63721981250004,
            "midi": 42,
            "name": "F#2",
            "velocity": 1,
            "duration": 0.08875724999998624,
            "ticks": 58038,
            "durationTicks": 24
          },
          {
            "time": 214.81103609375003,
            "midi": 42,
            "name": "F#2",
            "velocity": 1,
            "duration": 0.09985190624999518,
            "ticks": 58085,
            "durationTicks": 27
          },
          {
            "time": 214.99224881250004,
            "midi": 36,
            "name": "C2",
            "velocity": 1,
            "duration": 0.08505903125001169,
            "ticks": 58134,
            "durationTicks": 23
          },
          {
            "time": 214.99224881250004,
            "midi": 42,
            "name": "F#2",
            "velocity": 1,
            "duration": 0.1294376562499906,
            "ticks": 58134,
            "durationTicks": 35
          },
          {
            "time": 215.16606509375003,
            "midi": 42,
            "name": "F#2",
            "velocity": 1,
            "duration": 0.08875725000001466,
            "ticks": 58181,
            "durationTicks": 24
          },
          {
            "time": 215.3472778125,
            "midi": 38,
            "name": "D2",
            "velocity": 1,
            "duration": 0.0850590312500401,
            "ticks": 58230,
            "durationTicks": 23
          },
          {
            "time": 215.3472778125,
            "midi": 36,
            "name": "C2",
            "velocity": 1,
            "duration": 0.0850590312500401,
            "ticks": 58230,
            "durationTicks": 23
          },
          {
            "time": 215.3472778125,
            "midi": 42,
            "name": "F#2",
            "velocity": 1,
            "duration": 0.07026615624999977,
            "ticks": 58230,
            "durationTicks": 19
          },
          {
            "time": 215.52109409375004,
            "midi": 42,
            "name": "F#2",
            "velocity": 1,
            "duration": 0.07766259375000573,
            "ticks": 58277,
            "durationTicks": 21
          },
          {
            "time": 215.7023068125,
            "midi": 36,
            "name": "C2",
            "velocity": 1,
            "duration": 0.08505903125001169,
            "ticks": 58326,
            "durationTicks": 23
          },
          {
            "time": 215.7023068125,
            "midi": 42,
            "name": "F#2",
            "velocity": 1,
            "duration": 0.07766259375000573,
            "ticks": 58326,
            "durationTicks": 21
          },
          {
            "time": 215.8798213125,
            "midi": 42,
            "name": "F#2",
            "velocity": 1,
            "duration": 0.07396437500003117,
            "ticks": 58374,
            "durationTicks": 20
          },
          {
            "time": 216.06103403125002,
            "midi": 36,
            "name": "C2",
            "velocity": 1,
            "duration": 0.08505903125001169,
            "ticks": 58423,
            "durationTicks": 23
          },
          {
            "time": 216.06103403125002,
            "midi": 38,
            "name": "D2",
            "velocity": 1,
            "duration": 0.08505903125001169,
            "ticks": 58423,
            "durationTicks": 23
          },
          {
            "time": 216.06103403125002,
            "midi": 42,
            "name": "F#2",
            "velocity": 1,
            "duration": 0.08505903125001169,
            "ticks": 58423,
            "durationTicks": 23
          },
          {
            "time": 216.23485031250001,
            "midi": 42,
            "name": "F#2",
            "velocity": 1,
            "duration": 0.08505903125001169,
            "ticks": 58470,
            "durationTicks": 23
          },
          {
            "time": 216.41606303125002,
            "midi": 36,
            "name": "C2",
            "velocity": 1,
            "duration": 0.08505903125001169,
            "ticks": 58519,
            "durationTicks": 23
          },
          {
            "time": 216.41606303125002,
            "midi": 42,
            "name": "F#2",
            "velocity": 1,
            "duration": 0.11094656250000412,
            "ticks": 58519,
            "durationTicks": 30
          },
          {
            "time": 216.58987931250002,
            "midi": 42,
            "name": "F#2",
            "velocity": 1,
            "duration": 0.08505903125001169,
            "ticks": 58566,
            "durationTicks": 23
          },
          {
            "time": 216.77109203125002,
            "midi": 36,
            "name": "C2",
            "velocity": 1,
            "duration": 0.08505903125001169,
            "ticks": 58615,
            "durationTicks": 23
          },
          {
            "time": 216.77109203125002,
            "midi": 38,
            "name": "D2",
            "velocity": 1,
            "duration": 0.08505903125001169,
            "ticks": 58615,
            "durationTicks": 23
          },
          {
            "time": 216.77479025000002,
            "midi": 42,
            "name": "F#2",
            "velocity": 1,
            "duration": 0.07026615624999977,
            "ticks": 58616,
            "durationTicks": 19
          },
          {
            "time": 216.94860653125002,
            "midi": 42,
            "name": "F#2",
            "velocity": 1,
            "duration": 0.08505903125001169,
            "ticks": 58663,
            "durationTicks": 23
          },
          {
            "time": 217.12612103125002,
            "midi": 36,
            "name": "C2",
            "velocity": 1,
            "duration": 0.08505903125001169,
            "ticks": 58711,
            "durationTicks": 23
          },
          {
            "time": 217.12612103125002,
            "midi": 42,
            "name": "F#2",
            "velocity": 1,
            "duration": 0.08505903125001169,
            "ticks": 58711,
            "durationTicks": 23
          },
          {
            "time": 217.30363553125002,
            "midi": 42,
            "name": "F#2",
            "velocity": 1,
            "duration": 0.08875724999998624,
            "ticks": 58759,
            "durationTicks": 24
          },
          {
            "time": 217.48484825000003,
            "midi": 36,
            "name": "C2",
            "velocity": 1,
            "duration": 0.08505903124998326,
            "ticks": 58808,
            "durationTicks": 23
          },
          {
            "time": 217.48484825000003,
            "midi": 38,
            "name": "D2",
            "velocity": 1,
            "duration": 0.08505903124998326,
            "ticks": 58808,
            "durationTicks": 23
          },
          {
            "time": 217.48484825000003,
            "midi": 42,
            "name": "F#2",
            "velocity": 1,
            "duration": 0.07396437499997432,
            "ticks": 58808,
            "durationTicks": 20
          },
          {
            "time": 217.65866453125,
            "midi": 42,
            "name": "F#2",
            "velocity": 1,
            "duration": 0.08136081250003713,
            "ticks": 58855,
            "durationTicks": 22
          },
          {
            "time": 217.83987725000003,
            "midi": 36,
            "name": "C2",
            "velocity": 1,
            "duration": 0.08505903124998326,
            "ticks": 58904,
            "durationTicks": 23
          },
          {
            "time": 217.83987725000003,
            "midi": 42,
            "name": "F#2",
            "velocity": 1,
            "duration": 0.08875725000001466,
            "ticks": 58904,
            "durationTicks": 24
          },
          {
            "time": 218.01369353125,
            "midi": 42,
            "name": "F#2",
            "velocity": 1,
            "duration": 0.07766259375000573,
            "ticks": 58951,
            "durationTicks": 21
          },
          {
            "time": 218.19490625000003,
            "midi": 36,
            "name": "C2",
            "velocity": 1,
            "duration": 0.08505903124998326,
            "ticks": 59000,
            "durationTicks": 23
          },
          {
            "time": 218.19490625000003,
            "midi": 38,
            "name": "D2",
            "velocity": 1,
            "duration": 0.08505903124998326,
            "ticks": 59000,
            "durationTicks": 23
          },
          {
            "time": 218.19860446875003,
            "midi": 42,
            "name": "F#2",
            "velocity": 1,
            "duration": 0.0776625937499773,
            "ticks": 59001,
            "durationTicks": 21
          },
          {
            "time": 218.37242075000003,
            "midi": 42,
            "name": "F#2",
            "velocity": 1,
            "duration": 0.08505903124998326,
            "ticks": 59048,
            "durationTicks": 23
          },
          {
            "time": 218.55363346875004,
            "midi": 36,
            "name": "C2",
            "velocity": 1,
            "duration": 0.08505903125001169,
            "ticks": 59097,
            "durationTicks": 23
          },
          {
            "time": 218.55363346875004,
            "midi": 42,
            "name": "F#2",
            "velocity": 1,
            "duration": 0.08505903125001169,
            "ticks": 59097,
            "durationTicks": 23
          },
          {
            "time": 218.72744975000003,
            "midi": 42,
            "name": "F#2",
            "velocity": 1,
            "duration": 0.09615368749996378,
            "ticks": 59144,
            "durationTicks": 26
          },
          {
            "time": 218.90866246875004,
            "midi": 36,
            "name": "C2",
            "velocity": 1,
            "duration": 0.08505903125001169,
            "ticks": 59193,
            "durationTicks": 23
          },
          {
            "time": 218.90866246875004,
            "midi": 38,
            "name": "D2",
            "velocity": 1,
            "duration": 0.08505903125001169,
            "ticks": 59193,
            "durationTicks": 23
          },
          {
            "time": 218.9123606875,
            "midi": 42,
            "name": "F#2",
            "velocity": 1,
            "duration": 0.08505903125001169,
            "ticks": 59194,
            "durationTicks": 23
          },
          {
            "time": 219.08247875000004,
            "midi": 42,
            "name": "F#2",
            "velocity": 1,
            "duration": 0.09615368749996378,
            "ticks": 59240,
            "durationTicks": 26
          },
          {
            "time": 219.2673896875,
            "midi": 36,
            "name": "C2",
            "velocity": 1,
            "duration": 0.08136081250003713,
            "ticks": 59290,
            "durationTicks": 22
          },
          {
            "time": 219.2673896875,
            "midi": 42,
            "name": "F#2",
            "velocity": 1,
            "duration": 0.09615368750002062,
            "ticks": 59290,
            "durationTicks": 26
          },
          {
            "time": 219.44120596875,
            "midi": 42,
            "name": "F#2",
            "velocity": 1,
            "duration": 0.0813608125000087,
            "ticks": 59337,
            "durationTicks": 22
          },
          {
            "time": 219.61872046875,
            "midi": 36,
            "name": "C2",
            "velocity": 1,
            "duration": 0.08505903125001169,
            "ticks": 59385,
            "durationTicks": 23
          },
          {
            "time": 219.62241868750002,
            "midi": 38,
            "name": "D2",
            "velocity": 1,
            "duration": 0.08505903125001169,
            "ticks": 59386,
            "durationTicks": 23
          },
          {
            "time": 219.62241868750002,
            "midi": 42,
            "name": "F#2",
            "velocity": 1,
            "duration": 0.0813608125000087,
            "ticks": 59386,
            "durationTicks": 22
          },
          {
            "time": 219.79623496875,
            "midi": 42,
            "name": "F#2",
            "velocity": 1,
            "duration": 0.08875725000001466,
            "ticks": 59433,
            "durationTicks": 24
          },
          {
            "time": 219.97744768750002,
            "midi": 36,
            "name": "C2",
            "velocity": 1,
            "duration": 0.08505903125001169,
            "ticks": 59482,
            "durationTicks": 23
          },
          {
            "time": 219.97744768750002,
            "midi": 42,
            "name": "F#2",
            "velocity": 1,
            "duration": 0.08875724999998624,
            "ticks": 59482,
            "durationTicks": 24
          },
          {
            "time": 220.15126396875002,
            "midi": 42,
            "name": "F#2",
            "velocity": 1,
            "duration": 0.09245546874998922,
            "ticks": 59529,
            "durationTicks": 25
          },
          {
            "time": 220.33247668750002,
            "midi": 36,
            "name": "C2",
            "velocity": 1,
            "duration": 0.08505903125001169,
            "ticks": 59578,
            "durationTicks": 23
          },
          {
            "time": 220.33247668750002,
            "midi": 38,
            "name": "D2",
            "velocity": 1,
            "duration": 0.08505903125001169,
            "ticks": 59578,
            "durationTicks": 23
          },
          {
            "time": 220.33617490625005,
            "midi": 42,
            "name": "F#2",
            "velocity": 1,
            "duration": 0.08505903124995484,
            "ticks": 59579,
            "durationTicks": 23
          },
          {
            "time": 220.50629296875002,
            "midi": 42,
            "name": "F#2",
            "velocity": 1,
            "duration": 0.09615368750002062,
            "ticks": 59625,
            "durationTicks": 26
          },
          {
            "time": 220.69120390625002,
            "midi": 36,
            "name": "C2",
            "velocity": 1,
            "duration": 0.0813608125000087,
            "ticks": 59675,
            "durationTicks": 22
          },
          {
            "time": 220.69120390625002,
            "midi": 42,
            "name": "F#2",
            "velocity": 1,
            "duration": 0.08875725000001466,
            "ticks": 59675,
            "durationTicks": 24
          },
          {
            "time": 220.86502018750002,
            "midi": 42,
            "name": "F#2",
            "velocity": 1,
            "duration": 0.0961536874999922,
            "ticks": 59722,
            "durationTicks": 26
          },
          {
            "time": 221.04623290625003,
            "midi": 38,
            "name": "D2",
            "velocity": 1,
            "duration": 0.08505903124998326,
            "ticks": 59771,
            "durationTicks": 23
          },
          {
            "time": 221.04623290625003,
            "midi": 36,
            "name": "C2",
            "velocity": 1,
            "duration": 0.08875725000001466,
            "ticks": 59771,
            "durationTicks": 24
          },
          {
            "time": 221.04623290625003,
            "midi": 42,
            "name": "F#2",
            "velocity": 1,
            "duration": 0.08505903124998326,
            "ticks": 59771,
            "durationTicks": 23
          },
          {
            "time": 221.22004918750002,
            "midi": 42,
            "name": "F#2",
            "velocity": 1,
            "duration": 0.08875724999998624,
            "ticks": 59818,
            "durationTicks": 24
          },
          {
            "time": 221.40126190625003,
            "midi": 36,
            "name": "C2",
            "velocity": 1,
            "duration": 0.08505903124998326,
            "ticks": 59867,
            "durationTicks": 23
          },
          {
            "time": 221.40126190625003,
            "midi": 42,
            "name": "F#2",
            "velocity": 1,
            "duration": 0.08505903124998326,
            "ticks": 59867,
            "durationTicks": 23
          },
          {
            "time": 221.57877640625003,
            "midi": 42,
            "name": "F#2",
            "velocity": 1,
            "duration": 0.07766259375000573,
            "ticks": 59915,
            "durationTicks": 21
          },
          {
            "time": 221.75629090625003,
            "midi": 38,
            "name": "D2",
            "velocity": 1,
            "duration": 0.08505903124998326,
            "ticks": 59963,
            "durationTicks": 23
          },
          {
            "time": 221.75629090625003,
            "midi": 36,
            "name": "C2",
            "velocity": 1,
            "duration": 0.08505903124998326,
            "ticks": 59963,
            "durationTicks": 23
          },
          {
            "time": 221.75998912500003,
            "midi": 42,
            "name": "F#2",
            "velocity": 1,
            "duration": 0.08136081249998028,
            "ticks": 59964,
            "durationTicks": 22
          },
          {
            "time": 221.93380540625003,
            "midi": 42,
            "name": "F#2",
            "velocity": 1,
            "duration": 0.07766259375000573,
            "ticks": 60011,
            "durationTicks": 21
          },
          {
            "time": 222.11501812500003,
            "midi": 36,
            "name": "C2",
            "velocity": 1,
            "duration": 0.08505903125001169,
            "ticks": 60060,
            "durationTicks": 23
          },
          {
            "time": 222.11501812500003,
            "midi": 42,
            "name": "F#2",
            "velocity": 1,
            "duration": 0.06286971874999381,
            "ticks": 60060,
            "durationTicks": 17
          },
          {
            "time": 222.28883440625003,
            "midi": 42,
            "name": "F#2",
            "velocity": 1,
            "duration": 0.06656793749999679,
            "ticks": 60107,
            "durationTicks": 18
          },
          {
            "time": 222.47004712500004,
            "midi": 36,
            "name": "C2",
            "velocity": 1,
            "duration": 0.08505903125001169,
            "ticks": 60156,
            "durationTicks": 23
          },
          {
            "time": 222.47004712500004,
            "midi": 38,
            "name": "D2",
            "velocity": 1,
            "duration": 0.08505903125001169,
            "ticks": 60156,
            "durationTicks": 23
          },
          {
            "time": 222.47004712500004,
            "midi": 42,
            "name": "F#2",
            "velocity": 1,
            "duration": 0.07396437500000275,
            "ticks": 60156,
            "durationTicks": 20
          },
          {
            "time": 222.64386340625003,
            "midi": 42,
            "name": "F#2",
            "velocity": 1,
            "duration": 0.05547328125001627,
            "ticks": 60203,
            "durationTicks": 15
          },
          {
            "time": 222.82507612500004,
            "midi": 36,
            "name": "C2",
            "velocity": 1,
            "duration": 0.08505903125001169,
            "ticks": 60252,
            "durationTicks": 23
          },
          {
            "time": 222.82507612500004,
            "midi": 42,
            "name": "F#2",
            "velocity": 1,
            "duration": 0.07396437500000275,
            "ticks": 60252,
            "durationTicks": 20
          },
          {
            "time": 223.002590625,
            "midi": 42,
            "name": "F#2",
            "velocity": 1,
            "duration": 0.0850590312500401,
            "ticks": 60300,
            "durationTicks": 23
          },
          {
            "time": 223.180105125,
            "midi": 38,
            "name": "D2",
            "velocity": 1,
            "duration": 0.0850590312500401,
            "ticks": 60348,
            "durationTicks": 23
          },
          {
            "time": 223.180105125,
            "midi": 36,
            "name": "C2",
            "velocity": 1,
            "duration": 0.08875725000001466,
            "ticks": 60348,
            "durationTicks": 24
          },
          {
            "time": 223.18380334375001,
            "midi": 42,
            "name": "F#2",
            "velocity": 1,
            "duration": 0.08136081250003713,
            "ticks": 60349,
            "durationTicks": 22
          },
          {
            "time": 223.357619625,
            "midi": 42,
            "name": "F#2",
            "velocity": 1,
            "duration": 0.08875725000001466,
            "ticks": 60396,
            "durationTicks": 24
          }
        ],
        "controlChanges": {
          "7": [
            {
              "number": 7,
              "value": 0.984251968503937,
              "time": 0,
              "ticks": 0
            },
            {
              "number": 7,
              "value": 0.984251968503937,
              "time": 208.1061655,
              "ticks": 56272
            },
            {
              "number": 7,
              "value": 0.9763779527559056,
              "time": 208.73486268750003,
              "ticks": 56442
            },
            {
              "number": 7,
              "value": 0.968503937007874,
              "time": 208.993738,
              "ticks": 56512
            },
            {
              "number": 7,
              "value": 0.9606299212598425,
              "time": 209.30808659375003,
              "ticks": 56597
            },
            {
              "number": 7,
              "value": 0.952755905511811,
              "time": 209.62983162500004,
              "ticks": 56684
            },
            {
              "number": 7,
              "value": 0.9448818897637795,
              "time": 209.85542296875002,
              "ticks": 56745
            },
            {
              "number": 7,
              "value": 0.937007874015748,
              "time": 209.97376596875003,
              "ticks": 56777
            },
            {
              "number": 7,
              "value": 0.9291338582677166,
              "time": 210.25113237500003,
              "ticks": 56852
            },
            {
              "number": 7,
              "value": 0.9212598425196851,
              "time": 210.546989875,
              "ticks": 56932
            },
            {
              "number": 7,
              "value": 0.9133858267716536,
              "time": 210.65054000000003,
              "ticks": 56960
            },
            {
              "number": 7,
              "value": 0.905511811023622,
              "time": 210.93160462500003,
              "ticks": 57036
            },
            {
              "number": 7,
              "value": 0.8976377952755905,
              "time": 211.05364584375002,
              "ticks": 57069
            },
            {
              "number": 7,
              "value": 0.889763779527559,
              "time": 211.26444431250002,
              "ticks": 57126
            },
            {
              "number": 7,
              "value": 0.8818897637795275,
              "time": 211.38278731250003,
              "ticks": 57158
            },
            {
              "number": 7,
              "value": 0.8740157480314961,
              "time": 211.46414812500004,
              "ticks": 57180
            },
            {
              "number": 7,
              "value": 0.8661417322834646,
              "time": 211.73041987500002,
              "ticks": 57252
            },
            {
              "number": 7,
              "value": 0.8582677165354331,
              "time": 211.90053793750002,
              "ticks": 57298
            },
            {
              "number": 7,
              "value": 0.8503937007874016,
              "time": 212.01148450000002,
              "ticks": 57328
            },
            {
              "number": 7,
              "value": 0.84251968503937,
              "time": 212.12612928125003,
              "ticks": 57359
            },
            {
              "number": 7,
              "value": 0.8346456692913385,
              "time": 212.31843665625001,
              "ticks": 57411
            },
            {
              "number": 7,
              "value": 0.8267716535433071,
              "time": 212.42198678125,
              "ticks": 57439
            },
            {
              "number": 7,
              "value": 0.8188976377952756,
              "time": 212.75482646875,
              "ticks": 57529
            },
            {
              "number": 7,
              "value": 0.8110236220472441,
              "time": 212.83988550000004,
              "ticks": 57552
            },
            {
              "number": 7,
              "value": 0.8031496062992126,
              "time": 213.09136437500004,
              "ticks": 57620
            },
            {
              "number": 7,
              "value": 0.7952755905511811,
              "time": 213.16902696875005,
              "ticks": 57641
            },
            {
              "number": 7,
              "value": 0.7874015748031497,
              "time": 213.27627531250002,
              "ticks": 57670
            },
            {
              "number": 7,
              "value": 0.7795275590551181,
              "time": 213.39461831250003,
              "ticks": 57702
            },
            {
              "number": 7,
              "value": 0.7716535433070866,
              "time": 213.475979125,
              "ticks": 57724
            },
            {
              "number": 7,
              "value": 0.7637795275590551,
              "time": 213.58322746875,
              "ticks": 57753
            },
            {
              "number": 7,
              "value": 0.7559055118110236,
              "time": 213.69047581250004,
              "ticks": 57782
            },
            {
              "number": 7,
              "value": 0.7480314960629921,
              "time": 213.73115621875002,
              "ticks": 57793
            },
            {
              "number": 7,
              "value": 0.7401574803149606,
              "time": 213.79772415625,
              "ticks": 57811
            },
            {
              "number": 7,
              "value": 0.7322834645669292,
              "time": 213.95674756250003,
              "ticks": 57854
            },
            {
              "number": 7,
              "value": 0.7244094488188977,
              "time": 214.07878878125004,
              "ticks": 57887
            },
            {
              "number": 7,
              "value": 0.7165354330708661,
              "time": 214.18233890625,
              "ticks": 57915
            },
            {
              "number": 7,
              "value": 0.7086614173228346,
              "time": 214.42272312500003,
              "ticks": 57980
            },
            {
              "number": 7,
              "value": 0.7007874015748031,
              "time": 214.60023762500003,
              "ticks": 58028
            },
            {
              "number": 7,
              "value": 0.6929133858267716,
              "time": 214.74446815625004,
              "ticks": 58067
            },
            {
              "number": 7,
              "value": 0.6850393700787402,
              "time": 214.81103609375003,
              "ticks": 58085
            },
            {
              "number": 7,
              "value": 0.6771653543307087,
              "time": 214.984852375,
              "ticks": 58132
            },
            {
              "number": 7,
              "value": 0.6692913385826772,
              "time": 215.03662743750002,
              "ticks": 58146
            },
            {
              "number": 7,
              "value": 0.6614173228346457,
              "time": 215.09210071875003,
              "ticks": 58161
            },
            {
              "number": 7,
              "value": 0.6535433070866141,
              "time": 215.12168646875003,
              "ticks": 58169
            },
            {
              "number": 7,
              "value": 0.6456692913385826,
              "time": 215.20304728125004,
              "ticks": 58191
            },
            {
              "number": 7,
              "value": 0.6377952755905512,
              "time": 215.38795821875004,
              "ticks": 58241
            },
            {
              "number": 7,
              "value": 0.6299212598425197,
              "time": 215.49150834375,
              "ticks": 58269
            },
            {
              "number": 7,
              "value": 0.6220472440944882,
              "time": 215.58766203125003,
              "ticks": 58295
            },
            {
              "number": 7,
              "value": 0.6141732283464567,
              "time": 215.74668543750002,
              "ticks": 58338
            },
            {
              "number": 7,
              "value": 0.6062992125984252,
              "time": 215.85393378125005,
              "ticks": 58367
            },
            {
              "number": 7,
              "value": 0.5984251968503937,
              "time": 215.90940706250004,
              "ticks": 58382
            },
            {
              "number": 7,
              "value": 0.5905511811023622,
              "time": 216.04254293750003,
              "ticks": 58418
            },
            {
              "number": 7,
              "value": 0.5826771653543307,
              "time": 216.13499840625002,
              "ticks": 58443
            },
            {
              "number": 7,
              "value": 0.5748031496062992,
              "time": 216.19047168750004,
              "ticks": 58458
            },
            {
              "number": 7,
              "value": 0.5669291338582677,
              "time": 216.24594496875002,
              "ticks": 58473
            },
            {
              "number": 7,
              "value": 0.5590551181102362,
              "time": 216.32360756250003,
              "ticks": 58494
            },
            {
              "number": 7,
              "value": 0.5511811023622047,
              "time": 216.404968375,
              "ticks": 58516
            },
            {
              "number": 7,
              "value": 0.5433070866141733,
              "time": 216.5159149375,
              "ticks": 58546
            },
            {
              "number": 7,
              "value": 0.5354330708661418,
              "time": 216.55659534375002,
              "ticks": 58557
            },
            {
              "number": 7,
              "value": 0.5275590551181102,
              "time": 216.59727575000005,
              "ticks": 58568
            },
            {
              "number": 7,
              "value": 0.5196850393700787,
              "time": 216.61206862500003,
              "ticks": 58572
            },
            {
              "number": 7,
              "value": 0.5118110236220472,
              "time": 216.65274903125004,
              "ticks": 58583
            },
            {
              "number": 7,
              "value": 0.5039370078740157,
              "time": 216.75629915625004,
              "ticks": 58611
            },
            {
              "number": 7,
              "value": 0.49606299212598426,
              "time": 216.81177243750003,
              "ticks": 58626
            },
            {
              "number": 7,
              "value": 0.4881889763779528,
              "time": 216.98558871875005,
              "ticks": 58673
            },
            {
              "number": 7,
              "value": 0.48031496062992124,
              "time": 217.22227471875001,
              "ticks": 58737
            },
            {
              "number": 7,
              "value": 0.47244094488188976,
              "time": 217.30363553125002,
              "ticks": 58759
            },
            {
              "number": 7,
              "value": 0.4645669291338583,
              "time": 217.42937496875004,
              "ticks": 58793
            },
            {
              "number": 7,
              "value": 0.4566929133858268,
              "time": 217.54401975000002,
              "ticks": 58824
            },
            {
              "number": 7,
              "value": 0.44881889763779526,
              "time": 217.70304315625,
              "ticks": 58867
            },
            {
              "number": 7,
              "value": 0.4409448818897638,
              "time": 217.83987725000003,
              "ticks": 58904
            },
            {
              "number": 7,
              "value": 0.4330708661417323,
              "time": 217.94342737500003,
              "ticks": 58932
            },
            {
              "number": 7,
              "value": 0.4251968503937008,
              "time": 217.99890065625002,
              "ticks": 58947
            },
            {
              "number": 7,
              "value": 0.41732283464566927,
              "time": 218.08026146875002,
              "ticks": 58969
            },
            {
              "number": 7,
              "value": 0.4094488188976378,
              "time": 218.29105993750002,
              "ticks": 59026
            },
            {
              "number": 7,
              "value": 0.4015748031496063,
              "time": 218.39461006250005,
              "ticks": 59054
            },
            {
              "number": 7,
              "value": 0.3937007874015748,
              "time": 218.49816018750002,
              "ticks": 59082
            },
            {
              "number": 7,
              "value": 0.3858267716535433,
              "time": 218.53144415625002,
              "ticks": 59091
            },
            {
              "number": 7,
              "value": 0.3779527559055118,
              "time": 218.60171031250002,
              "ticks": 59110
            },
            {
              "number": 7,
              "value": 0.3700787401574803,
              "time": 218.76443193750004,
              "ticks": 59154
            },
            {
              "number": 7,
              "value": 0.36220472440944884,
              "time": 218.82730165625003,
              "ticks": 59171
            },
            {
              "number": 7,
              "value": 0.3543307086614173,
              "time": 218.90866246875004,
              "ticks": 59193
            },
            {
              "number": 7,
              "value": 0.3464566929133858,
              "time": 218.978928625,
              "ticks": 59212
            },
            {
              "number": 7,
              "value": 0.33858267716535434,
              "time": 219.03070368750002,
              "ticks": 59226
            },
            {
              "number": 7,
              "value": 0.33070866141732286,
              "time": 219.1786324375,
              "ticks": 59266
            },
            {
              "number": 7,
              "value": 0.3228346456692913,
              "time": 219.21931284375003,
              "ticks": 59277
            },
            {
              "number": 7,
              "value": 0.31496062992125984,
              "time": 219.25999325000004,
              "ticks": 59288
            },
            {
              "number": 7,
              "value": 0.30708661417322836,
              "time": 219.35244871875003,
              "ticks": 59313
            },
            {
              "number": 7,
              "value": 0.2992125984251969,
              "time": 219.407922,
              "ticks": 59328
            },
            {
              "number": 7,
              "value": 0.29133858267716534,
              "time": 219.44860240625005,
              "ticks": 59339
            },
            {
              "number": 7,
              "value": 0.28346456692913385,
              "time": 219.51517034375004,
              "ticks": 59357
            },
            {
              "number": 7,
              "value": 0.2755905511811024,
              "time": 219.68528840625004,
              "ticks": 59403
            },
            {
              "number": 7,
              "value": 0.2677165354330709,
              "time": 219.7555545625,
              "ticks": 59422
            },
            {
              "number": 7,
              "value": 0.25984251968503935,
              "time": 219.85170825000003,
              "ticks": 59448
            },
            {
              "number": 7,
              "value": 0.25196850393700787,
              "time": 219.94046550000002,
              "ticks": 59472
            },
            {
              "number": 7,
              "value": 0.2440944881889764,
              "time": 220.03661918750004,
              "ticks": 59498
            },
            {
              "number": 7,
              "value": 0.23622047244094488,
              "time": 220.14386753125,
              "ticks": 59527
            },
            {
              "number": 7,
              "value": 0.2283464566929134,
              "time": 220.24741765625004,
              "ticks": 59555
            },
            {
              "number": 7,
              "value": 0.2204724409448819,
              "time": 220.29179628125004,
              "ticks": 59567
            },
            {
              "number": 7,
              "value": 0.2125984251968504,
              "time": 220.42493215625004,
              "ticks": 59603
            },
            {
              "number": 7,
              "value": 0.2047244094488189,
              "time": 220.49150009375003,
              "ticks": 59621
            },
            {
              "number": 7,
              "value": 0.1968503937007874,
              "time": 220.54697337500005,
              "ticks": 59636
            },
            {
              "number": 7,
              "value": 0.1889763779527559,
              "time": 220.57286090625,
              "ticks": 59643
            },
            {
              "number": 7,
              "value": 0.18110236220472442,
              "time": 220.665316375,
              "ticks": 59668
            },
            {
              "number": 7,
              "value": 0.1732283464566929,
              "time": 220.68750568750002,
              "ticks": 59674
            },
            {
              "number": 7,
              "value": 0.16535433070866143,
              "time": 220.73558253125003,
              "ticks": 59687
            },
            {
              "number": 7,
              "value": 0.15748031496062992,
              "time": 220.76516828125,
              "ticks": 59695
            },
            {
              "number": 7,
              "value": 0.14960629921259844,
              "time": 220.80584868750003,
              "ticks": 59706
            },
            {
              "number": 7,
              "value": 0.14173228346456693,
              "time": 220.82803800000002,
              "ticks": 59712
            },
            {
              "number": 7,
              "value": 0.13385826771653545,
              "time": 220.85762375000004,
              "ticks": 59720
            },
            {
              "number": 7,
              "value": 0.12598425196850394,
              "time": 220.95007921875003,
              "ticks": 59745
            },
            {
              "number": 7,
              "value": 0.11811023622047244,
              "time": 221.020345375,
              "ticks": 59764
            },
            {
              "number": 7,
              "value": 0.11023622047244094,
              "time": 221.0869133125,
              "ticks": 59782
            },
            {
              "number": 7,
              "value": 0.10236220472440945,
              "time": 221.12389550000003,
              "ticks": 59792
            },
            {
              "number": 7,
              "value": 0.09448818897637795,
              "time": 221.17936878125005,
              "ticks": 59807
            },
            {
              "number": 7,
              "value": 0.08661417322834646,
              "time": 221.30141000000003,
              "ticks": 59840
            },
            {
              "number": 7,
              "value": 0.07874015748031496,
              "time": 221.34578862500004,
              "ticks": 59852
            },
            {
              "number": 7,
              "value": 0.07086614173228346,
              "time": 221.37167615625003,
              "ticks": 59859
            },
            {
              "number": 7,
              "value": 0.06299212598425197,
              "time": 221.50111381250005,
              "ticks": 59894
            },
            {
              "number": 7,
              "value": 0.05511811023622047,
              "time": 221.51590668750003,
              "ticks": 59898
            },
            {
              "number": 7,
              "value": 0.047244094488188976,
              "time": 221.53069956250002,
              "ticks": 59902
            },
            {
              "number": 7,
              "value": 0.03937007874015748,
              "time": 221.54549243750003,
              "ticks": 59906
            },
            {
              "number": 7,
              "value": 0.031496062992125984,
              "time": 221.57137996875002,
              "ticks": 59913
            },
            {
              "number": 7,
              "value": 0.023622047244094488,
              "time": 221.60096571875005,
              "ticks": 59921
            },
            {
              "number": 7,
              "value": 0.015748031496062992,
              "time": 221.75998912500003,
              "ticks": 59964
            },
            {
              "number": 7,
              "value": 0.007874015748031496,
              "time": 221.81916062500002,
              "ticks": 59980
            },
            {
              "number": 7,
              "value": 0,
              "time": 221.85614281250002,
              "ticks": 59990
            },
            {
              "number": 7,
              "value": 1,
              "time": 223.53883234375002,
              "ticks": 60445
            }
          ],
          "64": [
            {
              "number": 64,
              "value": 0,
              "time": 224.87388931250004,
              "ticks": 60806
            }
          ],
          "66": [
            {
              "number": 66,
              "value": 0,
              "time": 29.83353065625,
              "ticks": 8067
            },
            {
              "number": 66,
              "value": 0,
              "time": 29.848323531250006,
              "ticks": 8071
            },
            {
              "number": 66,
              "value": 0,
              "time": 29.86311640625,
              "ticks": 8075
            },
            {
              "number": 66,
              "value": 0,
              "time": 46.926697718750006,
              "ticks": 12689
            },
            {
              "number": 66,
              "value": 0,
              "time": 46.941490593750004,
              "ticks": 12693
            },
            {
              "number": 66,
              "value": 0,
              "time": 46.95628346875,
              "ticks": 12697
            },
            {
              "number": 66,
              "value": 0,
              "time": 86.81198693750001,
              "ticks": 23474
            },
            {
              "number": 66,
              "value": 0,
              "time": 86.8267798125,
              "ticks": 23478
            },
            {
              "number": 66,
              "value": 0,
              "time": 86.8415726875,
              "ticks": 23482
            },
            {
              "number": 66,
              "value": 0,
              "time": 132.94726584375002,
              "ticks": 35949
            },
            {
              "number": 66,
              "value": 0,
              "time": 134.37108006250003,
              "ticks": 36334
            },
            {
              "number": 66,
              "value": 0,
              "time": 135.7985925,
              "ticks": 36720
            },
            {
              "number": 66,
              "value": 0,
              "time": 137.22240671875002,
              "ticks": 37105
            },
            {
              "number": 66,
              "value": 0,
              "time": 137.68838228125003,
              "ticks": 37231
            },
            {
              "number": 66,
              "value": 0,
              "time": 149.48939831250001,
              "ticks": 40422
            },
            {
              "number": 66,
              "value": 0,
              "time": 149.50419118750003,
              "ticks": 40426
            },
            {
              "number": 66,
              "value": 0,
              "time": 149.5189840625,
              "ticks": 40430
            },
            {
              "number": 66,
              "value": 0,
              "time": 166.582565375,
              "ticks": 45044
            },
            {
              "number": 66,
              "value": 0,
              "time": 166.59735825,
              "ticks": 45048
            },
            {
              "number": 66,
              "value": 0,
              "time": 166.61215112500003,
              "ticks": 45052
            }
          ]
        }
      },
      {
        "name": "Syn Brass 1         ",
        "channel": 0,
        "instrument": {
          "number": 63,
          "name": "synthbrass 2",
          "family": "brass"
        },
        "notes": [],
        "controlChanges": {
          "64": [
            {
              "number": 64,
              "value": 0,
              "time": 224.78883028125003,
              "ticks": 60783
            }
          ]
        }
      },
      {
        "name": "                    ",
        "channel": 0,
        "instrument": {
          "number": 0,
          "name": "acoustic grand piano",
          "family": "piano"
        },
        "notes": [],
        "controlChanges": {}
      },
      {
        "name": "   \"Take On Me\"     ",
        "channel": 0,
        "instrument": {
          "number": 0,
          "name": "acoustic grand piano",
          "family": "piano"
        },
        "notes": [],
        "controlChanges": {}
      }
    ]
  }